<?xml version="1.0" encoding="UTF-8" standalone="no"?>
<!-- Created with Inkscape (http://www.inkscape.org/) -->

<svg
   xmlns:dc="http://purl.org/dc/elements/1.1/"
   xmlns:cc="http://creativecommons.org/ns#"
   xmlns:rdf="http://www.w3.org/1999/02/22-rdf-syntax-ns#"
   xmlns:svg="http://www.w3.org/2000/svg"
   xmlns="http://www.w3.org/2000/svg"
   xmlns:sodipodi="http://sodipodi.sourceforge.net/DTD/sodipodi-0.dtd"
   xmlns:inkscape="http://www.inkscape.org/namespaces/inkscape"
   width="384mm"
   height="384mm"
   viewBox="0 0 1360.6299 1360.6299"
   id="svg5780"
   version="1.1"
   inkscape:version="0.91 r13725"
   sodipodi:docname="clear_orange.svg">
  <defs
     id="defs5782">
    <marker
       orient="auto"
       id="DistanceX"
       style="overflow:visible"
       refX="0.0"
       refY="0.0">
      <path
         id="path8027"
         d="M 3,-3 L -3,3 M 0,-5 L  0,5"
         style="stroke:#000000; stroke-width:0.5" />
    </marker>
    <pattern
       id="Hatch"
       x="0"
       y="0"
       patternUnits="userSpaceOnUse"
       width="8"
       height="8">
      <path
         id="path8030"
         d="M8 4 l-4,4"
         stroke-width="0.25"
         stroke="#000000"
         linecap="square" />
      <path
         id="path8032"
         d="M6 2 l-4,4"
         stroke-width="0.25"
         stroke="#000000"
         linecap="square" />
      <path
         id="path8034"
         d="M4 0 l-4,4"
         stroke-width="0.25"
         stroke="#000000"
         linecap="square" />
    </pattern>
    <symbol
       id="*Model_Space" />
    <symbol
       id="*Paper_Space" />
    <symbol
       id="*Paper_Space0" />
    <symbol
       id="crane_flap">
      <path
         id="path8040"
         d="M -308.001969,928.346457 A 5.580709,5.580709 -0.000000 1 0 -319.163386,928.346457 5.580709,5.580709 -0.000000 1 0 -308.001969,928.346457 z"
         style="stroke:#000000;fill:none;stroke-linecap: round" />
      <path
         id="path8042"
         d="M -141.732283,928.346457 A 17.716535,17.716535 -0.000000 1 0 -177.165354,928.346457 17.716535,17.716535 -0.000000 1 0 -141.732283,928.346457 z"
         style="stroke:#000000;fill:none;stroke-linecap: round" />
      <path
         id="path8044"
         d="M 0.000000,898.228346 L -627.165354,898.228346 L -627.165354,1052.362205 L 0.000000,1052.362205 L 0.000000,898.228346 z"
         style="stroke:#000000;fill:none;stroke-linecap: round" />
      <path
         id="path8046"
         d="M -450.000000,928.346457 A 17.716535,17.716535 -0.000000 1 0 -485.433071,928.346457 17.716535,17.716535 -0.000000 1 0 -450.000000,928.346457 z"
         style="stroke:#000000;fill:none;stroke-linecap: round" />
    </symbol>
    <symbol
       id="p2">
      <path
         id="path8049"
         d="M 0.000000,2412.992126 0.000000,1052.362205"
         style="stroke:#000000;fill:none;stroke-linecap: round" />
      <path
         id="path8051"
         d="M 0.000000,1052.362205 1360.629921,1052.362205"
         style="stroke:#000000;fill:none;stroke-linecap: round" />
      <path
         id="path8053"
         d="M 1360.629921,1052.362205 1360.629921,2412.992126"
         style="stroke:#000000;fill:none;stroke-linecap: round" />
      <path
         id="path8055"
         d="M 1360.629921,2412.992126 0.000000,2412.992126"
         style="stroke:#000000;fill:none;stroke-linecap: round" />
    </symbol>
    <symbol
       id="carrier_window">
      <path
         id="path8058"
         d="M 41.988189,1229.527559 L 41.988189,1052.362205 L 0.000000,1052.362205 L 0.000000,1707.874016 L 59.527559,1707.874016 L 59.527559,1728.708661 L 119.055118,1728.708661 L 119.055118,1707.874016 L 178.582677,1707.874016 L 178.582677,1229.527559 L 202.393701,1229.527559 L 202.393701,1052.362205 L 53.149606,1052.362205 L 53.149606,1229.527559 L 41.988189,1229.527559 z"
         style="stroke:#000000;fill:none;stroke-linecap: round" />
    </symbol>
    <symbol
       id="door">
      <path
         id="path8061"
         d="M 0.000000,1052.362205 L -699.094488,1052.362205 L -699.094488,1264.960630 L -681.377953,1264.960630 L -681.377953,1229.527559 L -670.216535,1229.527559 L -670.216535,1666.204724 L -28.877953,1666.204724 L -28.877953,1229.527559 L -17.716535,1229.527559 L -17.716535,1264.960630 L 0.000000,1264.960630 L 0.000000,1052.362205 z"
         style="stroke:#000000;fill:none;stroke-linecap: round" />
    </symbol>
    <marker
       orient="auto"
       id="DistanceX-8"
       style="overflow:visible"
       refX="0.0"
       refY="0.0">
      <path
         id="path4870"
         d="M 3,-3 L -3,3 M 0,-5 L  0,5"
         style="stroke:#000000; stroke-width:0.5" />
    </marker>
    <pattern
       id="Hatch-6"
       x="0"
       y="0"
       patternUnits="userSpaceOnUse"
       width="8"
       height="8">
      <path
         id="path4873"
         d="M8 4 l-4,4"
         stroke-width="0.25"
         stroke="#000000"
         linecap="square" />
      <path
         id="path4875"
         d="M6 2 l-4,4"
         stroke-width="0.25"
         stroke="#000000"
         linecap="square" />
      <path
         id="path4877"
         d="M4 0 l-4,4"
         stroke-width="0.25"
         stroke="#000000"
         linecap="square" />
    </pattern>
    <symbol
       id="*Model_Space-2" />
    <symbol
       id="*Paper_Space-5" />
    <symbol
       id="*Paper_Space0-7" />
    <symbol
       id="crane_flap-7">
      <path
         id="path4883"
         d="M 0.000000,898.228346 L -627.165354,898.228346 L -627.165354,1052.362205 L 0.000000,1052.362205 L 0.000000,898.228346 z"
         style="stroke:#000000;fill:none;stroke-linecap: round" />
      <path
         id="path4885"
         d="M -439.370079,935.433071 A 17.716535,17.716535 -0.000000 1 0 -474.803150,935.433071 17.716535,17.716535 -0.000000 1 0 -439.370079,935.433071 z"
         style="stroke:#000000;fill:none;stroke-linecap: round" />
      <path
         id="path4887"
         d="M -308.001969,935.433071 A 5.580709,5.580709 -0.000000 1 0 -319.163386,935.433071 5.580709,5.580709 -0.000000 1 0 -308.001969,935.433071 z"
         style="stroke:#000000;fill:none;stroke-linecap: round" />
      <path
         id="path4889"
         d="M -152.362205,935.433071 A 17.716535,17.716535 -0.000000 1 0 -187.795276,935.433071 17.716535,17.716535 -0.000000 1 0 -152.362205,935.433071 z"
         style="stroke:#000000;fill:none;stroke-linecap: round" />
    </symbol>
    <symbol
       id="p2-1">
      <path
         id="path4892"
         d="M 1360.629921,2412.992126 0.000000,2412.992126"
         style="stroke:#000000;fill:none;stroke-linecap: round" />
      <path
         id="path4894"
         d="M 0.000000,2412.992126 0.000000,1052.362205"
         style="stroke:#000000;fill:none;stroke-linecap: round" />
      <path
         id="path4896"
         d="M 0.000000,1052.362205 1360.629921,1052.362205"
         style="stroke:#000000;fill:none;stroke-linecap: round" />
      <path
         id="path4898"
         d="M 1360.629921,1052.362205 1360.629921,2412.992126"
         style="stroke:#000000;fill:none;stroke-linecap: round" />
    </symbol>
    <symbol
       id="carrier_window-6">
      <path
         id="path4901"
         d="M 41.988189,1229.527559 L 41.988189,1052.362205 L 0.000000,1052.362205 L 0.000000,1707.874016 L 59.527559,1707.874016 L 59.527559,1728.708661 L 119.055118,1728.708661 L 119.055118,1707.874016 L 178.582677,1707.874016 L 178.582677,1229.527559 L 202.393701,1229.527559 L 202.393701,1052.362205 L 53.149606,1052.362205 L 53.149606,1229.527559 L 41.988189,1229.527559 z"
         style="stroke:#000000;fill:none;stroke-linecap: round" />
    </symbol>
    <symbol
       id="door-8">
      <path
         id="path4904"
         d="M 0.000000,1052.362205 L -699.094488,1052.362205 L -699.094488,1264.960630 L -681.377953,1264.960630 L -681.377953,1229.527559 L -670.216535,1229.527559 L -670.216535,1666.204724 L -28.877953,1666.204724 L -28.877953,1229.527559 L -17.716535,1229.527559 L -17.716535,1264.960630 L 0.000000,1264.960630 L 0.000000,1052.362205 z"
         style="stroke:#000000;fill:none;stroke-linecap: round" />
    </symbol>
    <marker
       orient="auto"
       id="DistanceX-0"
       style="overflow:visible"
       refX="0.0"
       refY="0.0">
      <path
         id="path5005"
         d="M 3,-3 L -3,3 M 0,-5 L  0,5"
         style="stroke:#000000; stroke-width:0.5" />
    </marker>
    <pattern
       id="Hatch-8"
       x="0"
       y="0"
       patternUnits="userSpaceOnUse"
       width="8"
       height="8">
      <path
         id="path5008"
         d="M8 4 l-4,4"
         stroke-width="0.25"
         stroke="#000000"
         linecap="square" />
      <path
         id="path5010"
         d="M6 2 l-4,4"
         stroke-width="0.25"
         stroke="#000000"
         linecap="square" />
      <path
         id="path5012"
         d="M4 0 l-4,4"
         stroke-width="0.25"
         stroke="#000000"
         linecap="square" />
    </pattern>
    <symbol
       id="*Model_Space-27" />
    <symbol
       id="*Paper_Space-0" />
    <symbol
       id="*Paper_Space0-5" />
    <marker
       orient="auto"
       id="DistanceX-9"
       style="overflow:visible"
       refX="0.0"
       refY="0.0">
      <path
         id="path12553"
         d="M 3,-3 L -3,3 M 0,-5 L  0,5"
         style="stroke:#000000; stroke-width:0.5" />
    </marker>
    <pattern
       id="Hatch-5"
       x="0"
       y="0"
       patternUnits="userSpaceOnUse"
       width="8"
       height="8">
      <path
         id="path12556"
         d="M8 4 l-4,4"
         stroke-width="0.25"
         stroke="#000000"
         linecap="square" />
      <path
         id="path12558"
         d="M6 2 l-4,4"
         stroke-width="0.25"
         stroke="#000000"
         linecap="square" />
      <path
         id="path12560"
         d="M4 0 l-4,4"
         stroke-width="0.25"
         stroke="#000000"
         linecap="square" />
    </pattern>
    <symbol
       id="*Model_Space-29" />
    <symbol
       id="*Paper_Space-4" />
    <symbol
       id="*Paper_Space0-3" />
    <marker
       refY="0.0"
       refX="0.0"
       style="overflow:visible"
       id="DistanceX-04"
       orient="auto">
      <path
         style="stroke:#000000; stroke-width:0.5"
         d="M 3,-3 L -3,3 M 0,-5 L  0,5"
         id="path8027-3" />
    </marker>
    <pattern
       height="8"
       width="8"
       patternUnits="userSpaceOnUse"
       y="0"
       x="0"
       id="Hatch-4">
      <path
         linecap="square"
         stroke="#000000"
         stroke-width="0.25"
         d="M8 4 l-4,4"
         id="path8030-8" />
      <path
         linecap="square"
         stroke="#000000"
         stroke-width="0.25"
         d="M6 2 l-4,4"
         id="path8032-2" />
      <path
         linecap="square"
         stroke="#000000"
         stroke-width="0.25"
         d="M4 0 l-4,4"
         id="path8034-5" />
    </pattern>
    <symbol
       id="*Model_Space-0" />
    <symbol
       id="*Paper_Space-8" />
    <symbol
       id="*Paper_Space0-0" />
    <symbol
       id="crane_flap-9">
      <path
         style="stroke:#000000;fill:none;stroke-linecap: round"
         d="M -308.001969,928.346457 A 5.580709,5.580709 -0.000000 1 0 -319.163386,928.346457 5.580709,5.580709 -0.000000 1 0 -308.001969,928.346457 z"
         id="path8040-6" />
      <path
         style="stroke:#000000;fill:none;stroke-linecap: round"
         d="M -141.732283,928.346457 A 17.716535,17.716535 -0.000000 1 0 -177.165354,928.346457 17.716535,17.716535 -0.000000 1 0 -141.732283,928.346457 z"
         id="path8042-7" />
      <path
         style="stroke:#000000;fill:none;stroke-linecap: round"
         d="M 0.000000,898.228346 L -627.165354,898.228346 L -627.165354,1052.362205 L 0.000000,1052.362205 L 0.000000,898.228346 z"
         id="path8044-9" />
      <path
         style="stroke:#000000;fill:none;stroke-linecap: round"
         d="M -450.000000,928.346457 A 17.716535,17.716535 -0.000000 1 0 -485.433071,928.346457 17.716535,17.716535 -0.000000 1 0 -450.000000,928.346457 z"
         id="path8046-4" />
    </symbol>
    <symbol
       id="p2-3">
      <path
         style="stroke:#000000;fill:none;stroke-linecap: round"
         d="M 0.000000,2412.992126 0.000000,1052.362205"
         id="path8049-6" />
      <path
         style="stroke:#000000;fill:none;stroke-linecap: round"
         d="M 0.000000,1052.362205 1360.629921,1052.362205"
         id="path8051-0" />
      <path
         style="stroke:#000000;fill:none;stroke-linecap: round"
         d="M 1360.629921,1052.362205 1360.629921,2412.992126"
         id="path8053-6" />
      <path
         style="stroke:#000000;fill:none;stroke-linecap: round"
         d="M 1360.629921,2412.992126 0.000000,2412.992126"
         id="path8055-0" />
    </symbol>
    <symbol
       id="carrier_window-8">
      <path
         style="stroke:#000000;fill:none;stroke-linecap: round"
         d="M 41.988189,1229.527559 L 41.988189,1052.362205 L 0.000000,1052.362205 L 0.000000,1707.874016 L 59.527559,1707.874016 L 59.527559,1728.708661 L 119.055118,1728.708661 L 119.055118,1707.874016 L 178.582677,1707.874016 L 178.582677,1229.527559 L 202.393701,1229.527559 L 202.393701,1052.362205 L 53.149606,1052.362205 L 53.149606,1229.527559 L 41.988189,1229.527559 z"
         id="path8058-4" />
    </symbol>
    <symbol
       id="door-0">
      <path
         style="stroke:#000000;fill:none;stroke-linecap: round"
         d="M 0.000000,1052.362205 L -699.094488,1052.362205 L -699.094488,1264.960630 L -681.377953,1264.960630 L -681.377953,1229.527559 L -670.216535,1229.527559 L -670.216535,1666.204724 L -28.877953,1666.204724 L -28.877953,1229.527559 L -17.716535,1229.527559 L -17.716535,1264.960630 L 0.000000,1264.960630 L 0.000000,1052.362205 z"
         id="path8061-2" />
    </symbol>
    <marker
       refY="0.0"
       refX="0.0"
       style="overflow:visible"
       id="DistanceX-8-0"
       orient="auto">
      <path
         style="stroke:#000000; stroke-width:0.5"
         d="M 3,-3 L -3,3 M 0,-5 L  0,5"
         id="path4870-3" />
    </marker>
    <pattern
       height="8"
       width="8"
       patternUnits="userSpaceOnUse"
       y="0"
       x="0"
       id="Hatch-6-3">
      <path
         linecap="square"
         stroke="#000000"
         stroke-width="0.25"
         d="M8 4 l-4,4"
         id="path4873-5" />
      <path
         linecap="square"
         stroke="#000000"
         stroke-width="0.25"
         d="M6 2 l-4,4"
         id="path4875-8" />
      <path
         linecap="square"
         stroke="#000000"
         stroke-width="0.25"
         d="M4 0 l-4,4"
         id="path4877-0" />
    </pattern>
    <symbol
       id="*Model_Space-2-9" />
    <symbol
       id="*Paper_Space-5-0" />
    <symbol
       id="*Paper_Space0-7-9" />
    <symbol
       id="crane_flap-7-0">
      <path
         style="stroke:#000000;fill:none;stroke-linecap: round"
         d="M 0.000000,898.228346 L -627.165354,898.228346 L -627.165354,1052.362205 L 0.000000,1052.362205 L 0.000000,898.228346 z"
         id="path4883-1" />
      <path
         style="stroke:#000000;fill:none;stroke-linecap: round"
         d="M -439.370079,935.433071 A 17.716535,17.716535 -0.000000 1 0 -474.803150,935.433071 17.716535,17.716535 -0.000000 1 0 -439.370079,935.433071 z"
         id="path4885-9" />
      <path
         style="stroke:#000000;fill:none;stroke-linecap: round"
         d="M -308.001969,935.433071 A 5.580709,5.580709 -0.000000 1 0 -319.163386,935.433071 5.580709,5.580709 -0.000000 1 0 -308.001969,935.433071 z"
         id="path4887-2" />
      <path
         style="stroke:#000000;fill:none;stroke-linecap: round"
         d="M -152.362205,935.433071 A 17.716535,17.716535 -0.000000 1 0 -187.795276,935.433071 17.716535,17.716535 -0.000000 1 0 -152.362205,935.433071 z"
         id="path4889-6" />
    </symbol>
    <symbol
       id="p2-1-7">
      <path
         style="stroke:#000000;fill:none;stroke-linecap: round"
         d="M 1360.629921,2412.992126 0.000000,2412.992126"
         id="path4892-0" />
      <path
         style="stroke:#000000;fill:none;stroke-linecap: round"
         d="M 0.000000,2412.992126 0.000000,1052.362205"
         id="path4894-0" />
      <path
         style="stroke:#000000;fill:none;stroke-linecap: round"
         d="M 0.000000,1052.362205 1360.629921,1052.362205"
         id="path4896-0" />
      <path
         style="stroke:#000000;fill:none;stroke-linecap: round"
         d="M 1360.629921,1052.362205 1360.629921,2412.992126"
         id="path4898-5" />
    </symbol>
    <symbol
       id="carrier_window-6-1">
      <path
         style="stroke:#000000;fill:none;stroke-linecap: round"
         d="M 41.988189,1229.527559 L 41.988189,1052.362205 L 0.000000,1052.362205 L 0.000000,1707.874016 L 59.527559,1707.874016 L 59.527559,1728.708661 L 119.055118,1728.708661 L 119.055118,1707.874016 L 178.582677,1707.874016 L 178.582677,1229.527559 L 202.393701,1229.527559 L 202.393701,1052.362205 L 53.149606,1052.362205 L 53.149606,1229.527559 L 41.988189,1229.527559 z"
         id="path4901-5" />
    </symbol>
    <symbol
       id="door-8-4">
      <path
         style="stroke:#000000;fill:none;stroke-linecap: round"
         d="M 0.000000,1052.362205 L -699.094488,1052.362205 L -699.094488,1264.960630 L -681.377953,1264.960630 L -681.377953,1229.527559 L -670.216535,1229.527559 L -670.216535,1666.204724 L -28.877953,1666.204724 L -28.877953,1229.527559 L -17.716535,1229.527559 L -17.716535,1264.960630 L 0.000000,1264.960630 L 0.000000,1052.362205 z"
         id="path4904-7" />
    </symbol>
    <marker
       refY="0.0"
       refX="0.0"
       style="overflow:visible"
       id="DistanceX-0-8"
       orient="auto">
      <path
         style="stroke:#000000; stroke-width:0.5"
         d="M 3,-3 L -3,3 M 0,-5 L  0,5"
         id="path5005-4" />
    </marker>
    <pattern
       height="8"
       width="8"
       patternUnits="userSpaceOnUse"
       y="0"
       x="0"
       id="Hatch-8-7">
      <path
         linecap="square"
         stroke="#000000"
         stroke-width="0.25"
         d="M8 4 l-4,4"
         id="path5008-3" />
      <path
         linecap="square"
         stroke="#000000"
         stroke-width="0.25"
         d="M6 2 l-4,4"
         id="path5010-6" />
      <path
         linecap="square"
         stroke="#000000"
         stroke-width="0.25"
         d="M4 0 l-4,4"
         id="path5012-5" />
    </pattern>
    <symbol
       id="*Model_Space-27-5" />
    <symbol
       id="*Paper_Space-0-2" />
    <symbol
       id="*Paper_Space0-5-4" />
    <marker
       orient="auto"
       id="DistanceX-09"
       style="overflow:visible"
       refX="0.0"
       refY="0.0">
      <path
         id="path13219"
         d="M 3,-3 L -3,3 M 0,-5 L  0,5"
         style="stroke:#000000; stroke-width:0.5" />
    </marker>
    <pattern
       id="Hatch-7"
       x="0"
       y="0"
       patternUnits="userSpaceOnUse"
       width="8"
       height="8">
      <path
         id="path13222"
         d="M8 4 l-4,4"
         stroke-width="0.25"
         stroke="#000000"
         linecap="square" />
      <path
         id="path13224"
         d="M6 2 l-4,4"
         stroke-width="0.25"
         stroke="#000000"
         linecap="square" />
      <path
         id="path13226"
         d="M4 0 l-4,4"
         stroke-width="0.25"
         stroke="#000000"
         linecap="square" />
    </pattern>
    <symbol
       id="*Model_Space-3" />
    <symbol
       id="*Paper_Space-2" />
    <symbol
       id="*Paper_Space0-59" />
    <marker
       orient="auto"
       id="DistanceX-7"
       style="overflow:visible"
       refX="0.0"
       refY="0.0">
      <path
         id="path4365"
         d="M 3,-3 L -3,3 M 0,-5 L  0,5"
         style="stroke:#000000; stroke-width:0.5" />
    </marker>
    <pattern
       id="Hatch-1"
       x="0"
       y="0"
       patternUnits="userSpaceOnUse"
       width="8"
       height="8">
      <path
         id="path4368"
         d="M8 4 l-4,4"
         stroke-width="0.25"
         stroke="#000000"
         linecap="square" />
      <path
         id="path4370"
         d="M6 2 l-4,4"
         stroke-width="0.25"
         stroke="#000000"
         linecap="square" />
      <path
         id="path4372"
         d="M4 0 l-4,4"
         stroke-width="0.25"
         stroke="#000000"
         linecap="square" />
    </pattern>
    <symbol
       id="*Model_Space-6" />
    <symbol
       id="*Paper_Space-04" />
    <symbol
       id="*Paper_Space0-8" />
    <marker
       orient="auto"
       id="DistanceX-1"
       style="overflow:visible"
       refX="0.0"
       refY="0.0">
      <path
         id="path5480"
         d="M 3,-3 L -3,3 M 0,-5 L  0,5"
         style="stroke:#000000; stroke-width:0.5" />
    </marker>
    <pattern
       id="Hatch-69"
       x="0"
       y="0"
       patternUnits="userSpaceOnUse"
       width="8"
       height="8">
      <path
         id="path5483"
         d="M8 4 l-4,4"
         stroke-width="0.25"
         stroke="#000000"
         linecap="square" />
      <path
         id="path5485"
         d="M6 2 l-4,4"
         stroke-width="0.25"
         stroke="#000000"
         linecap="square" />
      <path
         id="path5487"
         d="M4 0 l-4,4"
         stroke-width="0.25"
         stroke="#000000"
         linecap="square" />
    </pattern>
    <symbol
       id="*Model_Space-07" />
    <symbol
       id="*Paper_Space-040" />
    <symbol
       id="*Paper_Space0-9" />
    <marker
       orient="auto"
       id="DistanceX-78"
       style="overflow:visible"
       refX="0.0"
       refY="0.0">
      <path
         id="path4393"
         d="M 3,-3 L -3,3 M 0,-5 L  0,5"
         style="stroke:#000000; stroke-width:0.5" />
    </marker>
    <pattern
       id="Hatch-3"
       x="0"
       y="0"
       patternUnits="userSpaceOnUse"
       width="8"
       height="8">
      <path
         id="path4396"
         d="M8 4 l-4,4"
         stroke-width="0.25"
         stroke="#000000"
         linecap="square" />
      <path
         id="path4398"
         d="M6 2 l-4,4"
         stroke-width="0.25"
         stroke="#000000"
         linecap="square" />
      <path
         id="path4400"
         d="M4 0 l-4,4"
         stroke-width="0.25"
         stroke="#000000"
         linecap="square" />
    </pattern>
    <symbol
       id="*Model_Space-4" />
    <symbol
       id="*Paper_Space-9" />
    <symbol
       id="*Paper_Space0-56" />
  </defs>
  <sodipodi:namedview
     id="base"
     pagecolor="#ffffff"
     bordercolor="#666666"
     borderopacity="1.0"
     inkscape:pageopacity="0.0"
     inkscape:pageshadow="2"
     inkscape:zoom="3.7052395"
     inkscape:cx="212.70913"
     inkscape:cy="798.12476"
     inkscape:document-units="px"
     inkscape:current-layer="layer1"
     showgrid="false"
     inkscape:window-width="1366"
     inkscape:window-height="706"
     inkscape:window-x="-8"
     inkscape:window-y="424"
     inkscape:window-maximized="1" />
  <metadata
     id="metadata5785">
    <rdf:RDF>
      <cc:Work
         rdf:about="">
        <dc:format>image/svg+xml</dc:format>
        <dc:type
           rdf:resource="http://purl.org/dc/dcmitype/StillImage" />
        <dc:title />
      </cc:Work>
    </rdf:RDF>
  </metadata>
  <g
     inkscape:label="Layer 1"
     inkscape:groupmode="layer"
     id="layer1"
     transform="translate(0,308.26772)">
    <path
       id="path21052"
       style="color:#000000;font-style:normal;font-variant:normal;font-weight:normal;font-stretch:normal;font-size:medium;line-height:normal;font-family:sans-serif;text-indent:0;text-align:start;text-decoration:none;text-decoration-line:none;text-decoration-style:solid;text-decoration-color:#000000;letter-spacing:normal;word-spacing:normal;text-transform:none;direction:ltr;block-progression:tb;writing-mode:lr-tb;baseline-shift:baseline;text-anchor:start;white-space:normal;clip-rule:nonzero;display:inline;overflow:visible;visibility:visible;opacity:1;isolation:auto;mix-blend-mode:normal;color-interpolation:sRGB;color-interpolation-filters:linearRGB;solid-color:#000000;solid-opacity:1;fill:#808080;fill-opacity:1;fill-rule:nonzero;stroke:none;stroke-width:6.73228359;stroke-linecap:butt;stroke-linejoin:miter;stroke-miterlimit:4;stroke-dasharray:none;stroke-dashoffset:0;stroke-opacity:1;color-rendering:auto;image-rendering:auto;shape-rendering:auto;text-rendering:auto;enable-background:accumulate"
       d="m 212.11545,259.22669 c -3.0285,0 -5.84912,2.11342 -5.84912,5.15588 0,3.04246 2.82062,5.15479 5.84912,5.15479 3.0285,0 5.84913,-2.11233 5.84913,-5.15479 0,-3.04246 -2.82063,-5.15588 -5.84913,-5.15588 z m 0,3.78699 c 1.34095,0 2.06214,0.80848 2.06214,1.36889 0,0.56042 -0.72119,1.3678 -2.06214,1.3678 -1.34095,0 -2.06214,-0.80738 -2.06214,-1.3678 0,-0.56041 0.72119,-1.36889 2.06214,-1.36889 z m -14.16797,-8.65613 a 1.8936441,1.8936441 0 0 0 -1.01404,3.53979 l 41.77771,24.4281 a 1.8936441,1.8936441 0 1 0 1.91162,-3.26843 l -41.77881,-24.4292 a 1.8936441,1.8936441 0 0 0 -0.89648,-0.27026 z m 28.2041,0.27685 a 1.8936441,1.8936441 0 0 0 -1.03052,0.26477 l -41.50084,23.87329 a 1.8936441,1.8936441 0 1 0 1.88744,3.28272 l 41.50195,-23.87329 a 1.8936441,1.8936441 0 0 0 -0.85803,-3.54749 z m -14.13391,-58.72632 a 1.8936441,1.8936441 0 0 0 -1.86437,1.92041 l 0,83.00171 a 1.8936441,1.8936441 0 1 0 3.78588,0 l 0,-83.00171 a 1.8936441,1.8936441 0 0 0 -1.92151,-1.92041 z m -13.73291,11.14123 a 1.9933096,1.9933096 0 0 0 -1.97314,2.0116 c -0.0409,8.11878 -0.85643,14.37234 -4.90211,24.13916 -4.04567,9.76683 -11.37546,22.97606 -24.37206,44.37489 l -0.60425,0.99426 10.16126,18.13403 71.30236,0 10.47876,-18.14282 -0.64709,-1.01954 c -13.29224,-20.92237 -20.54725,-33.96088 -24.55445,-43.75634 -4.0072,-9.79546 -4.82305,-16.32203 -5.26794,-24.77198 a 1.993488,1.993488 0 1 0 -3.98145,0.20984 c 0.45324,8.60856 1.3853,15.86629 5.56019,26.07166 4.0999,10.02205 11.34501,23.00352 24.23694,43.35204 l -8.1266,14.0713 -66.66503,0 -7.88709,-14.07568 c 12.61754,-20.8121 19.91172,-33.92751 24.04907,-43.91565 4.20937,-10.16199 5.16412,-17.25264 5.20643,-25.64539 a 1.9933096,1.9933096 0 0 0 -2.0138,-2.03138 z" />
    <path
       inkscape:connector-curvature="0"
       style="fill:none;stroke:#0000ff;stroke-linecap:round;stroke-opacity:1;stroke-width:0.03543307;stroke-miterlimit:4;stroke-dasharray:none"
       d="m 896.90272,461.63208 0,-88.5827"
       id="path4407" />
    <path
       inkscape:connector-curvature="0"
       style="fill:none;stroke:#0000ff;stroke-linecap:round;stroke-opacity:1;stroke-width:0.03543307;stroke-miterlimit:4;stroke-dasharray:none"
       d="m 809.09957,1049.3959 0,-20.8347"
       id="path4409" />
    <path
       inkscape:connector-curvature="0"
       style="fill:none;stroke:#0000ff;stroke-linecap:round;stroke-opacity:1;stroke-width:0.03543307;stroke-miterlimit:4;stroke-dasharray:none"
       d="m 867.635,1049.3959 -58.53543,0"
       id="path4411" />
    <path
       inkscape:connector-curvature="0"
       style="fill:none;stroke:#0000ff;stroke-linecap:round;stroke-opacity:1;stroke-width:0.03543307;stroke-miterlimit:4;stroke-dasharray:none"
       d="m 721.29642,1046.2777 0,-496.06292"
       id="path4413" />
    <path
       inkscape:connector-curvature="0"
       style="fill:none;stroke:#0000ff;stroke-linecap:round;stroke-opacity:1;stroke-width:0.03543307;stroke-miterlimit:4;stroke-dasharray:none"
       d="m 809.09957,1028.5612 -87.80315,0"
       id="path4415" />
    <path
       inkscape:connector-curvature="0"
       style="fill:none;stroke:#0000ff;stroke-linecap:round;stroke-opacity:1;stroke-width:0.03543307;stroke-miterlimit:4;stroke-dasharray:none"
       d="m 867.635,1028.5612 0,20.8347"
       id="path4417" />
    <path
       inkscape:connector-curvature="0"
       style="fill:none;stroke:#0000ff;stroke-linecap:round;stroke-opacity:1;stroke-width:0.03543307;stroke-miterlimit:4;stroke-dasharray:none"
       d="m 920.71374,1028.5612 -53.07874,0"
       id="path4419" />
    <path
       inkscape:connector-curvature="0"
       style="fill:none;stroke:#0000ff;stroke-linecap:round;stroke-opacity:1;stroke-width:0.03543307;stroke-miterlimit:4;stroke-dasharray:none"
       d="m 896.90272,284.4667 0,88.58268"
       id="path4421" />
    <path
       inkscape:connector-curvature="0"
       style="fill:none;stroke:#0000ff;stroke-linecap:round;stroke-opacity:1;stroke-width:0.03543307;stroke-miterlimit:4;stroke-dasharray:none"
       d="m 1151.8082,461.63208 -11.1614,0"
       id="path4423" />
    <path
       inkscape:connector-curvature="0"
       style="fill:none;stroke:#0000ff;stroke-linecap:round;stroke-opacity:1;stroke-width:0.03543307;stroke-miterlimit:4;stroke-dasharray:none"
       d="m 896.90272,373.04938 243.74408,0"
       id="path4425" />
    <path
       inkscape:connector-curvature="0"
       style="fill:none;stroke:#0000ff;stroke-linecap:round;stroke-opacity:1;stroke-width:0.03543307;stroke-miterlimit:4;stroke-dasharray:none"
       d="m 1340.0641,550.21478 0,-177.1654"
       id="path4427" />
    <path
       inkscape:connector-curvature="0"
       style="fill:none;stroke:#0000ff;stroke-linecap:round;stroke-opacity:1;stroke-width:0.03543307;stroke-miterlimit:4;stroke-dasharray:none"
       d="m 1316.2531,550.21478 23.811,0"
       id="path4429" />
    <path
       inkscape:connector-curvature="0"
       style="fill:none;stroke:#0000ff;stroke-linecap:round;stroke-opacity:1;stroke-width:0.03543307;stroke-miterlimit:4;stroke-dasharray:none"
       d="m 1151.8082,373.04938 0,88.5827"
       id="path4431" />
    <path
       inkscape:connector-curvature="0"
       style="fill:none;stroke:#0000ff;stroke-linecap:round;stroke-opacity:1;stroke-width:0.03543307;stroke-miterlimit:4;stroke-dasharray:none"
       d="m 721.29642,-303.29708 0,499.18111"
       id="path4433" />
    <path
       inkscape:connector-curvature="0"
       style="fill:none;stroke:#0000ff;stroke-linecap:round;stroke-opacity:1;stroke-width:0.03543307;stroke-miterlimit:4;stroke-dasharray:none"
       d="m 809.09957,-282.46243 -87.80315,0"
       id="path4435" />
    <path
       inkscape:connector-curvature="0"
       style="fill:none;stroke:#0000ff;stroke-linecap:round;stroke-opacity:1;stroke-width:0.03543307;stroke-miterlimit:4;stroke-dasharray:none"
       d="m 697.48539,195.88403 0,177.16535"
       id="path4437" />
    <path
       inkscape:connector-curvature="0"
       style="fill:none;stroke:#0000ff;stroke-linecap:round;stroke-opacity:1;stroke-width:0.03543307;stroke-miterlimit:4;stroke-dasharray:none"
       d="m 721.29642,195.88403 -23.81103,0"
       id="path4439" />
    <path
       inkscape:connector-curvature="0"
       style="fill:none;stroke:#0000ff;stroke-linecap:round;stroke-opacity:1;stroke-width:0.03543307;stroke-miterlimit:4;stroke-dasharray:none"
       d="m 867.635,-282.46243 0,-20.83465"
       id="path4441" />
    <path
       inkscape:connector-curvature="0"
       style="fill:none;stroke:#0000ff;stroke-linecap:round;stroke-opacity:1;stroke-width:0.03543307;stroke-miterlimit:4;stroke-dasharray:none"
       d="m 920.71374,-282.46243 -53.07874,0"
       id="path4443" />
    <path
       inkscape:connector-curvature="0"
       style="fill:none;stroke:#0000ff;stroke-linecap:round;stroke-opacity:1;stroke-width:0.03543307;stroke-miterlimit:4;stroke-dasharray:none"
       d="m 809.09957,-303.29708 0,20.83465"
       id="path4445" />
    <path
       inkscape:connector-curvature="0"
       style="fill:none;stroke:#0000ff;stroke-linecap:round;stroke-opacity:1;stroke-width:0.03543307;stroke-miterlimit:4;stroke-dasharray:none"
       d="m 867.635,-303.29708 -58.53543,0"
       id="path4447" />
    <path
       inkscape:connector-curvature="0"
       style="fill:none;stroke:#0000ff;stroke-linecap:round;stroke-opacity:1;stroke-width:0.03543307;stroke-miterlimit:4;stroke-dasharray:none"
       d="m 885.7413,373.04938 0,-88.58268"
       id="path4449" />
    <path
       inkscape:connector-curvature="0"
       style="fill:none;stroke:#0000ff;stroke-linecap:round;stroke-opacity:1;stroke-width:0.03543307;stroke-miterlimit:4;stroke-dasharray:none"
       d="m 697.48539,373.04938 188.25591,0"
       id="path4451" />
    <path
       inkscape:connector-curvature="0"
       style="fill:none;stroke:#0000ff;stroke-linecap:round;stroke-opacity:1;stroke-width:0.03543307;stroke-miterlimit:4;stroke-dasharray:none"
       d="m 703.57988,922.26198 17.71654,0"
       id="path4453" />
    <path
       inkscape:connector-curvature="0"
       style="fill:none;stroke:#0000ff;stroke-linecap:round;stroke-opacity:1;stroke-width:0.03543307;stroke-miterlimit:4;stroke-dasharray:none"
       d="m 885.7413,284.4667 11.16142,0"
       id="path4455" />
    <path
       inkscape:connector-curvature="0"
       style="fill:none;stroke:#0000ff;stroke-linecap:round;stroke-opacity:1;stroke-width:0.03543307;stroke-miterlimit:4;stroke-dasharray:none"
       d="m 703.57988,964.78168 0,-42.5197"
       id="path4457" />
    <path
       inkscape:connector-curvature="0"
       style="fill:none;stroke:#0000ff;stroke-linecap:round;stroke-opacity:1;stroke-width:0.03543307;stroke-miterlimit:4;stroke-dasharray:none"
       d="m 22.20193,-303.29708 699.09449,0"
       id="path4459" />
    <path
       inkscape:connector-curvature="0"
       style="fill:none;stroke:#0000ff;stroke-linecap:round;stroke-opacity:1;stroke-width:0.03543307;stroke-miterlimit:4;stroke-dasharray:none"
       d="m 594.44602,432.43518 97.97244,0"
       id="path4461" />
    <path
       inkscape:connector-curvature="0"
       style="fill:none;stroke:#0000ff;stroke-linecap:round;stroke-opacity:1;stroke-width:0.03543307;stroke-miterlimit:4;stroke-dasharray:none"
       d="m 594.44602,310.54544 0,121.88974"
       id="path4463" />
    <path
       inkscape:connector-curvature="0"
       style="fill:none;stroke:#0000ff;stroke-linecap:round;stroke-opacity:1;stroke-width:0.03543307;stroke-miterlimit:4;stroke-dasharray:none"
       d="m 692.41846,964.78168 11.16142,0"
       id="path4465" />
    <path
       inkscape:connector-curvature="0"
       style="fill:none;stroke:#0000ff;stroke-linecap:round;stroke-opacity:1;stroke-width:0.03543307;stroke-miterlimit:4;stroke-dasharray:none"
       d="m 692.41846,432.43518 0,532.3465"
       id="path4467" />
    <path
       inkscape:connector-curvature="0"
       style="fill:none;stroke:#0000ff;stroke-linecap:round;stroke-opacity:1;stroke-width:0.03543307;stroke-miterlimit:4;stroke-dasharray:none"
       d="m 692.41846,310.54544 -418.64173,0"
       id="path4469" />
    <path
       inkscape:connector-curvature="0"
       style="fill:none;stroke:#0000ff;stroke-linecap:round;stroke-opacity:1;stroke-width:0.03543307;stroke-miterlimit:4;stroke-dasharray:none"
       d="m 692.41846,-221.80101 0,532.34645"
       id="path4471" />
    <path
       inkscape:connector-curvature="0"
       style="fill:none;stroke:#0000ff;stroke-linecap:round;stroke-opacity:1;stroke-width:0.03543307;stroke-miterlimit:4;stroke-dasharray:none"
       d="m 273.77673,310.54544 0,121.88974"
       id="path4473" />
    <path
       inkscape:connector-curvature="0"
       style="fill:none;stroke:#0000ff;stroke-linecap:round;stroke-opacity:1;stroke-width:0.03543307;stroke-miterlimit:4;stroke-dasharray:none"
       d="m 721.29642,-179.28133 -17.71654,0"
       id="path4475" />
    <path
       inkscape:connector-curvature="0"
       style="fill:none;stroke:#0000ff;stroke-linecap:round;stroke-opacity:1;stroke-width:0.03543307;stroke-miterlimit:4;stroke-dasharray:none"
       d="m 703.57988,-221.80101 -11.16142,0"
       id="path4477" />
    <path
       inkscape:connector-curvature="0"
       style="fill:none;stroke:#0000ff;stroke-linecap:round;stroke-opacity:1;stroke-width:0.03543307;stroke-miterlimit:4;stroke-dasharray:none"
       d="m 703.57988,-179.28133 0,-42.51968"
       id="path4479" />
    <path
       inkscape:connector-curvature="0"
       style="fill:none;stroke:#0000ff;stroke-linecap:round;stroke-opacity:1;stroke-width:0.03543307;stroke-miterlimit:4;stroke-dasharray:none"
       d="m 39.91846,-179.28133 -17.71653,0"
       id="path4481" />
    <path
       inkscape:connector-curvature="0"
       style="fill:none;stroke:#0000ff;stroke-linecap:round;stroke-opacity:1;stroke-width:0.03543307;stroke-miterlimit:4;stroke-dasharray:none"
       d="m 39.91846,-221.80101 0,42.51968"
       id="path4483" />
    <path
       inkscape:connector-curvature="0"
       style="fill:none;stroke:#0000ff;stroke-linecap:round;stroke-opacity:1;stroke-width:0.03543307;stroke-miterlimit:4;stroke-dasharray:none"
       d="m 1140.6468,461.63208 0,-88.5827"
       id="path4485" />
    <path
       inkscape:connector-curvature="0"
       style="fill:none;stroke:#0000ff;stroke-linecap:round;stroke-opacity:1;stroke-width:0.03543307;stroke-miterlimit:4;stroke-dasharray:none"
       d="m 22.20193,-179.28133 0,-124.01575"
       id="path4487" />
    <path
       inkscape:connector-curvature="0"
       style="fill:none;stroke:#0000ff;stroke-linecap:round;stroke-opacity:1;stroke-width:0.03543307;stroke-miterlimit:4;stroke-dasharray:none"
       d="m 149.05232,310.54544 -97.97244,0"
       id="path4489" />
    <path
       inkscape:connector-curvature="0"
       style="fill:none;stroke:#0000ff;stroke-linecap:round;stroke-opacity:1;stroke-width:0.03543307;stroke-miterlimit:4;stroke-dasharray:none"
       d="m 149.05232,432.43518 0,-121.88974"
       id="path4491" />
    <path
       inkscape:connector-curvature="0"
       style="fill:none;stroke:#0000ff;stroke-linecap:round;stroke-opacity:1;stroke-width:0.03543307;stroke-miterlimit:4;stroke-dasharray:none"
       d="m 51.07988,-221.80101 -11.16142,0"
       id="path4493" />
    <path
       inkscape:connector-curvature="0"
       style="fill:none;stroke:#0000ff;stroke-linecap:round;stroke-opacity:1;stroke-width:0.03543307;stroke-miterlimit:4;stroke-dasharray:none"
       d="m 51.07988,310.54544 0,-532.34645"
       id="path4495" />
    <path
       inkscape:connector-curvature="0"
       style="fill:none;stroke:#0000ff;stroke-linecap:round;stroke-opacity:1;stroke-width:0.03543307;stroke-miterlimit:4;stroke-dasharray:none"
       d="m 1228.45,1049.3959 0,-20.8347"
       id="path4497" />
    <path
       inkscape:connector-curvature="0"
       style="fill:none;stroke:#0000ff;stroke-linecap:round;stroke-opacity:1;stroke-width:0.03543307;stroke-miterlimit:4;stroke-dasharray:none"
       d="m 1169.9145,1049.3959 58.5355,0"
       id="path4499" />
    <path
       inkscape:connector-curvature="0"
       style="fill:none;stroke:#0000ff;stroke-linecap:round;stroke-opacity:1;stroke-width:0.03543307;stroke-miterlimit:4;stroke-dasharray:none"
       d="m 1316.2531,1028.5612 0,-478.34642"
       id="path4501" />
    <path
       inkscape:connector-curvature="0"
       style="fill:none;stroke:#0000ff;stroke-linecap:round;stroke-opacity:1;stroke-width:0.03543307;stroke-miterlimit:4;stroke-dasharray:none"
       d="m 1228.45,1028.5612 87.8031,0"
       id="path4503" />
    <path
       inkscape:connector-curvature="0"
       style="fill:none;stroke:#0000ff;stroke-linecap:round;stroke-opacity:1;stroke-width:0.03543307;stroke-miterlimit:4;stroke-dasharray:none"
       d="m 1169.9145,1028.5612 0,20.8347"
       id="path4505" />
    <path
       inkscape:connector-curvature="0"
       style="fill:none;stroke:#0000ff;stroke-linecap:round;stroke-opacity:1;stroke-width:0.03543307;stroke-miterlimit:4;stroke-dasharray:none"
       d="m 1116.8358,1028.5612 53.0787,0"
       id="path4507" />
    <path
       inkscape:connector-curvature="0"
       style="fill:none;stroke:#0000ff;stroke-linecap:round;stroke-opacity:1;stroke-width:0.03543307;stroke-miterlimit:4;stroke-dasharray:none"
       d="m 1140.6468,284.4667 0,88.58268"
       id="path4509" />
    <path
       inkscape:connector-curvature="0"
       style="fill:none;stroke:#0000ff;stroke-linecap:round;stroke-opacity:1;stroke-width:0.03543307;stroke-miterlimit:4;stroke-dasharray:none"
       d="m 885.7413,461.63208 11.16142,0"
       id="path4511" />
    <path
       inkscape:connector-curvature="0"
       style="fill:none;stroke:#0000ff;stroke-linecap:round;stroke-opacity:1;stroke-width:0.03543307;stroke-miterlimit:4;stroke-dasharray:none"
       d="m 1116.8358,1028.5612 0,-1311.02363"
       id="path4513" />
    <path
       inkscape:connector-curvature="0"
       style="fill:none;stroke:#0000ff;stroke-linecap:round;stroke-opacity:1;stroke-width:0.03543307;stroke-miterlimit:4;stroke-dasharray:none"
       d="m 697.48539,550.21478 0,-177.1654"
       id="path4515" />
    <path
       inkscape:connector-curvature="0"
       style="fill:none;stroke:#0000ff;stroke-linecap:round;stroke-opacity:1;stroke-width:0.03543307;stroke-miterlimit:4;stroke-dasharray:none"
       d="m 721.29642,550.21478 -23.81103,0"
       id="path4517" />
    <path
       inkscape:connector-curvature="0"
       style="fill:none;stroke:#0000ff;stroke-linecap:round;stroke-opacity:1;stroke-width:0.03543307;stroke-miterlimit:4;stroke-dasharray:none"
       d="m 885.7413,373.04938 0,88.5827"
       id="path4519" />
    <path
       inkscape:connector-curvature="0"
       style="fill:none;stroke:#0000ff;stroke-linecap:round;stroke-opacity:1;stroke-width:0.03543307;stroke-miterlimit:4;stroke-dasharray:none"
       d="m 1316.2531,-282.46243 0,478.34646"
       id="path4521" />
    <path
       inkscape:connector-curvature="0"
       style="fill:none;stroke:#0000ff;stroke-linecap:round;stroke-opacity:1;stroke-width:0.03543307;stroke-miterlimit:4;stroke-dasharray:none"
       d="m 1228.45,-282.46243 87.8031,0"
       id="path4523" />
    <path
       inkscape:connector-curvature="0"
       style="fill:none;stroke:#0000ff;stroke-linecap:round;stroke-opacity:1;stroke-width:0.03543307;stroke-miterlimit:4;stroke-dasharray:none"
       d="m 1340.0641,195.88403 0,177.16535"
       id="path4525" />
    <path
       inkscape:connector-curvature="0"
       style="fill:none;stroke:#0000ff;stroke-linecap:round;stroke-opacity:1;stroke-width:0.03543307;stroke-miterlimit:4;stroke-dasharray:none"
       d="m 1316.2531,195.88403 23.811,0"
       id="path4527" />
    <path
       inkscape:connector-curvature="0"
       style="fill:none;stroke:#0000ff;stroke-linecap:round;stroke-opacity:1;stroke-width:0.03543307;stroke-miterlimit:4;stroke-dasharray:none"
       d="m 1169.9145,-282.46243 0,-20.83465"
       id="path4529" />
    <path
       inkscape:connector-curvature="0"
       style="fill:none;stroke:#0000ff;stroke-linecap:round;stroke-opacity:1;stroke-width:0.03543307;stroke-miterlimit:4;stroke-dasharray:none"
       d="m 1116.8358,-282.46243 53.0787,0"
       id="path4531" />
    <path
       inkscape:connector-curvature="0"
       style="fill:none;stroke:#0000ff;stroke-linecap:round;stroke-opacity:1;stroke-width:0.03543307;stroke-miterlimit:4;stroke-dasharray:none"
       d="m 1228.45,-303.29708 0,20.83465"
       id="path4533" />
    <path
       inkscape:connector-curvature="0"
       style="fill:none;stroke:#0000ff;stroke-linecap:round;stroke-opacity:1;stroke-width:0.03543307;stroke-miterlimit:4;stroke-dasharray:none"
       d="m 1169.9145,-303.29708 58.5355,0"
       id="path4535" />
    <path
       inkscape:connector-curvature="0"
       style="fill:none;stroke:#0000ff;stroke-linecap:round;stroke-opacity:1;stroke-width:0.03543307;stroke-miterlimit:4;stroke-dasharray:none"
       d="m 721.29642,1046.2777 -699.09449,0"
       id="path4537" />
    <path
       inkscape:connector-curvature="0"
       style="fill:none;stroke:#0000ff;stroke-linecap:round;stroke-opacity:1;stroke-width:0.03543307;stroke-miterlimit:4;stroke-dasharray:none"
       d="m 1151.8082,373.04938 0,-88.58268"
       id="path4539" />
    <path
       inkscape:connector-curvature="0"
       style="fill:none;stroke:#0000ff;stroke-linecap:round;stroke-opacity:1;stroke-width:0.03543307;stroke-miterlimit:4;stroke-dasharray:none"
       d="m 1340.0641,373.04938 -188.2559,0"
       id="path4541" />
    <path
       inkscape:connector-curvature="0"
       style="fill:none;stroke:#0000ff;stroke-linecap:round;stroke-opacity:1;stroke-width:0.03543307;stroke-miterlimit:4;stroke-dasharray:none"
       d="m 1151.8082,284.4667 -11.1614,0"
       id="path4543" />
    <path
       inkscape:connector-curvature="0"
       style="fill:none;stroke:#0000ff;stroke-linecap:round;stroke-opacity:1;stroke-width:0.03543307;stroke-miterlimit:4;stroke-dasharray:none"
       d="m 51.07988,432.43518 418.64173,0"
       id="path4545" />
    <path
       inkscape:connector-curvature="0"
       style="fill:none;stroke:#0000ff;stroke-linecap:round;stroke-opacity:1;stroke-width:0.03543307;stroke-miterlimit:4;stroke-dasharray:none"
       d="m 51.07988,964.78168 0,-532.3465"
       id="path4547" />
    <path
       inkscape:connector-curvature="0"
       style="fill:none;stroke:#0000ff;stroke-linecap:round;stroke-opacity:1;stroke-width:0.03543307;stroke-miterlimit:4;stroke-dasharray:none"
       d="m 469.72161,432.43518 0,-121.88974"
       id="path4549" />
    <path
       inkscape:connector-curvature="0"
       style="fill:none;stroke:#0000ff;stroke-linecap:round;stroke-opacity:1;stroke-width:0.03543307;stroke-miterlimit:4;stroke-dasharray:none"
       d="m 22.20193,922.26198 17.71653,0"
       id="path4551" />
    <path
       inkscape:connector-curvature="0"
       style="fill:none;stroke:#0000ff;stroke-linecap:round;stroke-opacity:1;stroke-width:0.03543307;stroke-miterlimit:4;stroke-dasharray:none"
       d="m 22.20193,1046.2777 0,-124.01572"
       id="path4553" />
    <path
       inkscape:connector-curvature="0"
       style="fill:none;stroke:#0000ff;stroke-linecap:round;stroke-opacity:1;stroke-width:0.03543307;stroke-miterlimit:4;stroke-dasharray:none"
       d="m 39.91846,964.78168 11.16142,0"
       id="path4555" />
    <path
       inkscape:connector-curvature="0"
       style="fill:none;stroke:#0000ff;stroke-linecap:round;stroke-opacity:1;stroke-width:0.03543307;stroke-miterlimit:4;stroke-dasharray:none"
       d="m 39.91846,922.26198 0,42.5197"
       id="path4557" />
    <path
       inkscape:connector-curvature="0"
       style="fill:none;stroke:#0000ff;stroke-linecap:round;stroke-opacity:1;stroke-width:0.03543307;stroke-miterlimit:4;stroke-dasharray:none"
       d="m 573.0976,328.26198 a 5.58071,5.58071 0 1 0 -11.16142,0 5.58071,5.58071 0 1 0 11.16142,0 z"
       id="path4559" />
    <path
       inkscape:connector-curvature="0"
       style="fill:none;stroke:#0000ff;stroke-linecap:round;stroke-opacity:1;stroke-width:0.03543307;stroke-miterlimit:4;stroke-dasharray:none"
       d="m 181.56217,414.71868 a 5.58071,5.58071 0 1 0 -11.16142,0 5.58071,5.58071 0 0 0 11.16142,0 z"
       id="path4561" />
    <path
       inkscape:connector-curvature="0"
       style="fill:none;stroke:#0000ff;stroke-linecap:round;stroke-opacity:1;stroke-width:0.03543307;stroke-miterlimit:4;stroke-dasharray:none"
       d="m 1116.8358,1000.2148 -196.12206,0"
       id="path4563" />
    <path
       inkscape:connector-curvature="0"
       style="fill:none;stroke:#0000ff;stroke-linecap:round;stroke-opacity:1;stroke-width:0.03543307;stroke-miterlimit:4;stroke-dasharray:none"
       d="m 1116.8358,-254.11597 -196.12206,0"
       id="path4565" />
    <path
       inkscape:connector-curvature="0"
       style="fill:none;stroke:#0000ff;stroke-linecap:round;stroke-opacity:1;stroke-width:0.03543307;stroke-miterlimit:4;stroke-dasharray:none"
       d="m 920.71374,-282.46243 0,1311.02363"
       id="path4567" />
    <path
       inkscape:connector-curvature="0"
       style="fill:none;stroke:#0000ff;stroke-linecap:round;stroke-opacity:1;stroke-width:0.03543307;stroke-miterlimit:4;stroke-dasharray:none"
       d="m 944.01098,686.63208 a 5.580709,5.580709 0 1 0 -11.16141,0 5.580709,5.580709 0 1 0 11.16141,0 z"
       id="path4569" />
    <path
       inkscape:connector-curvature="0"
       style="fill:none;stroke:#0000ff;stroke-linecap:round;stroke-opacity:1;stroke-width:0.03543307;stroke-miterlimit:4;stroke-dasharray:none"
       d="m 944.01098,59.4667 a 5.580709,5.580709 0 1 0 -11.16141,0 5.580709,5.580709 0 1 0 11.16141,0 z"
       id="path4571" />
  </g>
</svg>
