<?xml version="1.0" encoding="UTF-8" standalone="no"?>
<!-- Created with Inkscape (http://www.inkscape.org/) -->

<svg
   xmlns:dc="http://purl.org/dc/elements/1.1/"
   xmlns:cc="http://creativecommons.org/ns#"
   xmlns:rdf="http://www.w3.org/1999/02/22-rdf-syntax-ns#"
   xmlns:svg="http://www.w3.org/2000/svg"
   xmlns="http://www.w3.org/2000/svg"
   xmlns:sodipodi="http://sodipodi.sourceforge.net/DTD/sodipodi-0.dtd"
   xmlns:inkscape="http://www.inkscape.org/namespaces/inkscape"
   width="181mm"
   height="181mm"
   viewBox="0 0 641.33857 641.33857"
   id="svg4358"
   version="1.1"
   inkscape:version="0.91 r13725"
   sodipodi:docname="thin_acrylic.svg">
  <defs
     id="defs4360">
    <marker
       orient="auto"
       id="DistanceX"
       style="overflow:visible"
       refX="0"
       refY="0">
      <path
         id="path4913"
         d="M 3,-3 -3,3 M 0,-5 0,5"
         style="stroke:#000000;stroke-width:0.5"
         inkscape:connector-curvature="0" />
    </marker>
    <pattern
       id="Hatch"
       x="0"
       y="0"
       patternUnits="userSpaceOnUse"
       width="8"
       height="8">
      <path
         id="path4916"
         d="M8 4 l-4,4"
         stroke-width="0.25"
         stroke="#000000"
         linecap="square" />
      <path
         id="path4918"
         d="M6 2 l-4,4"
         stroke-width="0.25"
         stroke="#000000"
         linecap="square" />
      <path
         id="path4920"
         d="M4 0 l-4,4"
         stroke-width="0.25"
         stroke="#000000"
         linecap="square" />
    </pattern>
    <symbol
       id="*Model_Space" />
    <symbol
       id="*Paper_Space" />
    <symbol
       id="*Paper_Space0" />
    <symbol
       id="bed_interface">
      <path
         id="path4926"
         d="m -457.08661,566.92913 0,10.62992 a 35.433071,35.433071 0 0 1 -35.43307,35.43308 l -28.34646,0 0,439.37007 520.86614,0 0,-485.43307 -457.08661,0 z"
         style="fill:none;stroke:#000000;stroke-linecap:round"
         inkscape:connector-curvature="0" />
      <path
         id="path4928"
         d="m -56.692913,637.79528 a 14.173229,14.173229 0 1 0 -28.346457,0 14.173229,14.173229 0 1 0 28.346457,0 z"
         style="fill:none;stroke:#000000;stroke-linecap:round"
         inkscape:connector-curvature="0" />
      <path
         id="path4930"
         d="m -56.692913,981.49606 a 14.173229,14.173229 0 1 0 -28.346457,0 14.173229,14.173229 0 1 0 28.346457,0 z"
         style="fill:none;stroke:#000000;stroke-linecap:round"
         inkscape:connector-curvature="0" />
      <path
         id="path4932"
         d="m -435.82677,981.49606 a 14.17323,14.17323 0 1 0 -28.34646,0 14.17323,14.17323 0 1 0 28.34646,0 z"
         style="fill:none;stroke:#000000;stroke-linecap:round"
         inkscape:connector-curvature="0" />
      <path
         id="path4934"
         d="m -435.82677,637.79528 a 14.17323,14.17323 0 1 0 -28.34646,0 14.17323,14.17323 0 1 0 28.34646,0 z"
         style="fill:none;stroke:#000000;stroke-linecap:round"
         inkscape:connector-curvature="0" />
    </symbol>
    <marker
       orient="auto"
       id="DistanceX-3"
       style="overflow:visible"
       refX="0"
       refY="0">
      <path
         id="path9163"
         d="M 3,-3 -3,3 M 0,-5 0,5"
         style="stroke:#000000;stroke-width:0.5"
         inkscape:connector-curvature="0" />
    </marker>
    <pattern
       id="Hatch-2"
       x="0"
       y="0"
       patternUnits="userSpaceOnUse"
       width="8"
       height="8">
      <path
         id="path9166"
         d="M8 4 l-4,4"
         stroke-width="0.25"
         stroke="#000000"
         linecap="square" />
      <path
         id="path9168"
         d="M6 2 l-4,4"
         stroke-width="0.25"
         stroke="#000000"
         linecap="square" />
      <path
         id="path9170"
         d="M4 0 l-4,4"
         stroke-width="0.25"
         stroke="#000000"
         linecap="square" />
    </pattern>
    <symbol
       id="*Model_Space-3" />
    <symbol
       id="*Paper_Space-1" />
    <symbol
       id="*Paper_Space0-6" />
    <symbol
       id="p2">
      <path
         id="path9176"
         d="M 0,2412.9921 0,1052.3622"
         style="fill:none;stroke:#000000;stroke-linecap:round"
         inkscape:connector-curvature="0" />
      <path
         id="path9178"
         d="m 0,1052.3622 1360.6299,0"
         style="fill:none;stroke:#000000;stroke-linecap:round"
         inkscape:connector-curvature="0" />
      <path
         id="path9180"
         d="m 1360.6299,1052.3622 0,1360.6299"
         style="fill:none;stroke:#000000;stroke-linecap:round"
         inkscape:connector-curvature="0" />
      <path
         id="path9182"
         d="M 1360.6299,2412.9921 0,2412.9921"
         style="fill:none;stroke:#000000;stroke-linecap:round"
         inkscape:connector-curvature="0" />
    </symbol>
    <symbol
       id="bed_interface-5">
      <path
         id="path9185"
         d="m -446.45669,552.75591 0,17.71653 a 35.433071,35.433071 0 0 1 -35.43307,35.43307 l -17.71654,0 0,446.45669 499.6063,0 0,-499.60629 -446.45669,0 z"
         style="fill:none;stroke:#000000;stroke-linecap:round"
         inkscape:connector-curvature="0" />
      <path
         id="path9187"
         d="m -56.692913,623.62205 a 14.173229,14.173229 0 1 0 -28.346457,0 14.173229,14.173229 0 1 0 28.346457,0 z"
         style="fill:none;stroke:#000000;stroke-linecap:round"
         inkscape:connector-curvature="0" />
      <path
         id="path9189"
         d="m -56.692913,981.49606 a 14.173229,14.173229 0 1 0 -28.346457,0 14.173229,14.173229 0 1 0 28.346457,0 z"
         style="fill:none;stroke:#000000;stroke-linecap:round"
         inkscape:connector-curvature="0" />
      <path
         id="path9191"
         d="m -414.56693,981.49606 a 14.17323,14.17323 0 1 0 -28.34646,0 14.17323,14.17323 0 1 0 28.34646,0 z"
         style="fill:none;stroke:#000000;stroke-linecap:round"
         inkscape:connector-curvature="0" />
      <path
         id="path9193"
         d="m -414.56693,623.62205 a 14.17323,14.17323 0 1 0 -28.34646,0 14.17323,14.17323 0 1 0 28.34646,0 z"
         style="fill:none;stroke:#000000;stroke-linecap:round"
         inkscape:connector-curvature="0" />
    </symbol>
    <marker
       orient="auto"
       id="DistanceX-5"
       style="overflow:visible"
       refX="0.0"
       refY="0.0">
      <path
         id="path11412"
         d="M 3,-3 L -3,3 M 0,-5 L  0,5"
         style="stroke:#000000; stroke-width:0.5" />
    </marker>
    <pattern
       id="Hatch-25"
       x="0"
       y="0"
       patternUnits="userSpaceOnUse"
       width="8"
       height="8">
      <path
         id="path11415"
         d="M8 4 l-4,4"
         stroke-width="0.25"
         stroke="#000000"
         linecap="square" />
      <path
         id="path11417"
         d="M6 2 l-4,4"
         stroke-width="0.25"
         stroke="#000000"
         linecap="square" />
      <path
         id="path11419"
         d="M4 0 l-4,4"
         stroke-width="0.25"
         stroke="#000000"
         linecap="square" />
    </pattern>
    <symbol
       id="*Model_Space-8" />
    <symbol
       id="*Paper_Space-8" />
    <symbol
       id="*Paper_Space0-7" />
    <symbol
       id="p2-7">
      <path
         id="path11425"
         d="M 0.000000,2412.992126 0.000000,1052.362205"
         style="stroke:#000000;fill:none;stroke-linecap: round" />
      <path
         id="path11427"
         d="M 0.000000,1052.362205 1360.629921,1052.362205"
         style="stroke:#000000;fill:none;stroke-linecap: round" />
      <path
         id="path11429"
         d="M 1360.629921,1052.362205 1360.629921,2412.992126"
         style="stroke:#000000;fill:none;stroke-linecap: round" />
      <path
         id="path11431"
         d="M 1360.629921,2412.992126 0.000000,2412.992126"
         style="stroke:#000000;fill:none;stroke-linecap: round" />
    </symbol>
    <symbol
       id="bed_interface-8">
      <path
         id="path11434"
         d="M -446.456693,552.755906 L -446.456693,570.472441 A 35.433071,35.433071 0.0 0 1 -481.889764,605.905512 L -499.606299,605.905512 L -499.606299,1052.362205 L 0.000000,1052.362205 L -0.000000,552.755906 L -446.456693,552.755906 z"
         style="stroke:#000000;fill:none;stroke-linecap: round" />
      <path
         id="path11436"
         d="M -56.692913,623.622047 A 14.173228,14.173228 -0.000000 1 0 -85.039370,623.622047 14.173228,14.173228 -0.000000 1 0 -56.692913,623.622047 z"
         style="stroke:#000000;fill:none;stroke-linecap: round" />
      <path
         id="path11438"
         d="M -56.692913,981.496063 A 14.173228,14.173228 -0.000000 1 0 -85.039370,981.496063 14.173228,14.173228 -0.000000 1 0 -56.692913,981.496063 z"
         style="stroke:#000000;fill:none;stroke-linecap: round" />
      <path
         id="path11440"
         d="M -414.566929,981.496063 A 14.173228,14.173228 -0.000000 1 0 -442.913386,981.496063 14.173228,14.173228 -0.000000 1 0 -414.566929,981.496063 z"
         style="stroke:#000000;fill:none;stroke-linecap: round" />
      <path
         id="path11442"
         d="M -414.566929,623.622047 A 14.173228,14.173228 -0.000000 1 0 -442.913386,623.622047 14.173228,14.173228 -0.000000 1 0 -414.566929,623.622047 z"
         style="stroke:#000000;fill:none;stroke-linecap: round" />
    </symbol>
    <marker
       orient="auto"
       id="DistanceX-2"
       style="overflow:visible"
       refX="0.0"
       refY="0.0">
      <path
         id="path9045"
         d="M 3,-3 L -3,3 M 0,-5 L  0,5"
         style="stroke:#000000; stroke-width:0.5" />
    </marker>
    <pattern
       id="Hatch-4"
       x="0"
       y="0"
       patternUnits="userSpaceOnUse"
       width="8"
       height="8">
      <path
         id="path9048"
         d="M8 4 l-4,4"
         stroke-width="0.25"
         stroke="#000000"
         linecap="square" />
      <path
         id="path9050"
         d="M6 2 l-4,4"
         stroke-width="0.25"
         stroke="#000000"
         linecap="square" />
      <path
         id="path9052"
         d="M4 0 l-4,4"
         stroke-width="0.25"
         stroke="#000000"
         linecap="square" />
    </pattern>
    <symbol
       id="*Model_Space-85" />
    <symbol
       id="*Paper_Space-5" />
    <symbol
       id="*Paper_Space0-3" />
  </defs>
  <sodipodi:namedview
     id="base"
     pagecolor="#ffffff"
     bordercolor="#666666"
     borderopacity="1.0"
     inkscape:pageopacity="0.0"
     inkscape:pageshadow="2"
     inkscape:zoom="0.56063233"
     inkscape:cx="551.26648"
     inkscape:cy="351.25797"
     inkscape:document-units="px"
     inkscape:current-layer="layer1"
     showgrid="false"
     inkscape:window-width="1366"
     inkscape:window-height="706"
     inkscape:window-x="-8"
     inkscape:window-y="-8"
     inkscape:window-maximized="1" />
  <metadata
     id="metadata4363">
    <rdf:RDF>
      <cc:Work
         rdf:about="">
        <dc:format>image/svg+xml</dc:format>
        <dc:type
           rdf:resource="http://purl.org/dc/dcmitype/StillImage" />
        <dc:title />
      </cc:Work>
    </rdf:RDF>
  </metadata>
  <g
     inkscape:label="Layer 1"
     inkscape:groupmode="layer"
     id="layer1"
     transform="translate(0,-411.02362)">
    <path
       inkscape:connector-curvature="0"
       style="fill:none;stroke:#0000ff;stroke-opacity:1;stroke-width:0.03543307;stroke-miterlimit:4;stroke-dasharray:none"
       d="m 624.35685,437.92023 a 9.301181,9.301181 0 1 0 -18.60236,0 9.301181,9.301181 0 1 0 18.60236,0 z"
       id="path9059" />
    <path
       inkscape:connector-curvature="0"
       style="fill:none;stroke:#0000ff;stroke-opacity:1;stroke-width:0.03543307;stroke-miterlimit:4;stroke-dasharray:none"
       d="m 624.35685,732.01471 a 9.301181,9.301181 0 1 0 -18.60236,0 9.301181,9.301181 0 1 0 18.60236,0 z"
       id="path9061" />
    <path
       inkscape:connector-curvature="0"
       style="fill:none;stroke:#0000ff;stroke-opacity:1;stroke-width:0.03543307;stroke-miterlimit:4;stroke-dasharray:none"
       d="m 330.26236,1026.1092 a 9.301181,9.301181 0 1 0 -18.60236,0 9.301181,9.301181 0 0 0 18.60236,0 z"
       id="path9063" />
    <path
       inkscape:connector-curvature="0"
       style="fill:none;stroke:#0000ff;stroke-opacity:1;stroke-width:0.03543307;stroke-miterlimit:4;stroke-dasharray:none"
       d="m 624.35685,1026.1092 a 9.301181,9.301181 0 1 0 -18.60236,0 9.301181,9.301181 0 1 0 18.60236,0 z"
       id="path9065" />
    <path
       inkscape:connector-curvature="0"
       style="fill:none;stroke:#0000ff;stroke-opacity:1;stroke-width:0.03543307;stroke-miterlimit:4;stroke-dasharray:none"
       d="m 36.16787,1026.1092 a 9.301181,9.301181 0 1 0 -18.60236,0 9.301181,9.301181 0 1 0 18.60236,0 z"
       id="path9067" />
    <path
       inkscape:connector-curvature="0"
       style="fill:none;stroke:#0000ff;stroke-opacity:1;stroke-width:0.03543307;stroke-miterlimit:4;stroke-dasharray:none"
       d="m 36.16787,732.01471 a 9.301181,9.301181 0 1 0 -18.60236,0 9.301181,9.301181 0 1 0 18.60236,0 z"
       id="path9069" />
    <path
       inkscape:connector-curvature="0"
       style="fill:none;stroke:#0000ff;stroke-opacity:1;stroke-width:0.03543307;stroke-miterlimit:4;stroke-dasharray:none"
       d="m 330.26236,437.92023 a 9.301181,9.301181 0 1 0 -18.60236,0 9.301181,9.301181 0 0 0 18.60236,0 z"
       id="path9071" />
    <path
       inkscape:connector-curvature="0"
       style="fill:none;stroke:#0000ff;stroke-opacity:1;stroke-width:0.03543307;stroke-miterlimit:4;stroke-dasharray:none"
       d="m 36.16787,437.92023 a 9.301181,9.301181 0 1 0 -18.60236,0 9.301181,9.301181 0 1 0 18.60236,0 z"
       id="path9073" />
    <path
       inkscape:connector-curvature="0"
       style="fill:none;stroke:#0000ff;stroke-opacity:1;stroke-width:0.03543307;stroke-miterlimit:4;stroke-dasharray:none"
       d="m 531.78795,893.23521 a 14.17323,14.17323 0 1 0 -28.34646,0 14.17323,14.17323 0 0 0 28.34646,0 z"
       id="path9075" />
    <path
       inkscape:connector-curvature="0"
       style="fill:none;stroke:#0000ff;stroke-opacity:1;stroke-width:0.03543307;stroke-miterlimit:4;stroke-dasharray:none"
       d="m 531.78795,535.36117 a 14.17323,14.17323 0 1 0 -28.34646,0 14.17323,14.17323 0 0 0 28.34646,0 z"
       id="path9077" />
    <path
       inkscape:connector-curvature="0"
       style="fill:none;stroke:#0000ff;stroke-opacity:1;stroke-width:0.03543307;stroke-miterlimit:4;stroke-dasharray:none"
       d="m 173.91394,535.36117 a 14.17323,14.17323 0 1 0 -28.34646,0 14.17323,14.17323 0 0 0 28.34646,0 z"
       id="path9079" />
    <path
       inkscape:connector-curvature="0"
       style="fill:none;stroke:#0000ff;stroke-opacity:1;stroke-width:0.03543307;stroke-miterlimit:4;stroke-dasharray:none"
       d="m 173.91394,893.23521 a 14.17323,14.17323 0 1 0 -28.34646,0 14.17323,14.17323 0 0 0 28.34646,0 z"
       id="path9081" />
    <path
       inkscape:connector-curvature="0"
       style="fill:none;stroke:#0000ff;stroke-opacity:1;stroke-width:0.03543307;stroke-miterlimit:4;stroke-dasharray:none"
       d="m 142.02417,964.10131 0,-17.7165"
       id="path9083" />
    <path
       inkscape:connector-curvature="0"
       style="fill:none;stroke:#0000ff;stroke-opacity:1;stroke-width:0.03543307;stroke-miterlimit:4;stroke-dasharray:none"
       d="M 142.02417,946.38481 A 35.433071,35.433071 0 0 0 106.5911,910.95171"
       id="path9085" />
    <path
       inkscape:connector-curvature="0"
       style="fill:none;stroke:#0000ff;stroke-opacity:1;stroke-width:0.03543307;stroke-miterlimit:4;stroke-dasharray:none"
       d="m 106.5911,910.95171 -17.71653,0"
       id="path9087" />
    <path
       inkscape:connector-curvature="0"
       style="fill:none;stroke:#0000ff;stroke-opacity:1;stroke-width:0.03543307;stroke-miterlimit:4;stroke-dasharray:none"
       d="m 88.87457,910.95171 0,-446.45668"
       id="path9089" />
    <path
       inkscape:connector-curvature="0"
       style="fill:none;stroke:#0000ff;stroke-opacity:1;stroke-width:0.03543307;stroke-miterlimit:4;stroke-dasharray:none"
       d="m 588.48086,964.10131 -446.45669,0"
       id="path9091" />
    <path
       inkscape:connector-curvature="0"
       style="fill:none;stroke:#0000ff;stroke-opacity:1;stroke-width:0.03543307;stroke-miterlimit:4;stroke-dasharray:none"
       d="m 224.76039,1041.5226 0,11.1614"
       id="path9093" />
    <path
       inkscape:connector-curvature="0"
       style="fill:none;stroke:#0000ff;stroke-opacity:1;stroke-width:0.03543307;stroke-miterlimit:4;stroke-dasharray:none"
       d="m 224.76039,1052.684 416.87008,0"
       id="path9095" />
    <path
       inkscape:connector-curvature="0"
       style="fill:none;stroke:#0000ff;stroke-opacity:1;stroke-width:0.03543307;stroke-miterlimit:4;stroke-dasharray:none"
       d="m 641.63047,1052.684 0,-641.33858"
       id="path9097" />
    <path
       inkscape:connector-curvature="0"
       style="fill:none;stroke:#0000ff;stroke-opacity:1;stroke-width:0.03543307;stroke-miterlimit:4;stroke-dasharray:none"
       d="m 641.63047,411.34542 -416.87008,0"
       id="path9099" />
    <path
       inkscape:connector-curvature="0"
       style="fill:none;stroke:#0000ff;stroke-opacity:1;stroke-width:0.03543307;stroke-miterlimit:4;stroke-dasharray:none"
       d="m 224.76039,411.34542 0,11.16142"
       id="path9101" />
    <path
       inkscape:connector-curvature="0"
       style="fill:none;stroke:#0000ff;stroke-opacity:1;stroke-width:0.03543307;stroke-miterlimit:4;stroke-dasharray:none"
       d="m 224.76039,422.50684 -128.26771,0"
       id="path9103" />
    <path
       inkscape:connector-curvature="0"
       style="fill:none;stroke:#0000ff;stroke-opacity:1;stroke-width:0.03543307;stroke-miterlimit:4;stroke-dasharray:none"
       d="m 96.49268,422.50684 0,-11.16142"
       id="path9105" />
    <path
       inkscape:connector-curvature="0"
       style="fill:none;stroke:#0000ff;stroke-opacity:1;stroke-width:0.03543307;stroke-miterlimit:4;stroke-dasharray:none"
       d="m 96.49268,411.34542 -96.20079,0"
       id="path9107" />
    <path
       inkscape:connector-curvature="0"
       style="fill:none;stroke:#0000ff;stroke-opacity:1;stroke-width:0.03543307;stroke-miterlimit:4;stroke-dasharray:none"
       d="m 0.29189,411.34542 0,641.33858"
       id="path9109" />
    <path
       inkscape:connector-curvature="0"
       style="fill:none;stroke:#0000ff;stroke-opacity:1;stroke-width:0.03543307;stroke-miterlimit:4;stroke-dasharray:none"
       d="m 0.29189,1052.684 96.20079,0"
       id="path9111" />
    <path
       inkscape:connector-curvature="0"
       style="fill:none;stroke:#0000ff;stroke-opacity:1;stroke-width:0.03543307;stroke-miterlimit:4;stroke-dasharray:none"
       d="m 96.49268,1052.684 0,-11.1614"
       id="path9113" />
    <path
       inkscape:connector-curvature="0"
       style="fill:none;stroke:#0000ff;stroke-opacity:1;stroke-width:0.03543307;stroke-miterlimit:4;stroke-dasharray:none"
       d="m 96.49268,1041.5226 128.26771,0"
       id="path9115" />
    <path
       inkscape:connector-curvature="0"
       style="fill:none;stroke:#0000ff;stroke-opacity:1;stroke-width:0.03543307;stroke-miterlimit:4;stroke-dasharray:none"
       d="m 53.4415,464.49503 535.03936,0"
       id="path9117" />
    <path
       inkscape:connector-curvature="0"
       style="fill:none;stroke:#0000ff;stroke-opacity:1;stroke-width:0.03543307;stroke-miterlimit:4;stroke-dasharray:none"
       d="m 588.48086,464.49503 0,535.03938"
       id="path9119" />
    <path
       inkscape:connector-curvature="0"
       style="fill:none;stroke:#0000ff;stroke-opacity:1;stroke-width:0.03543307;stroke-miterlimit:4;stroke-dasharray:none"
       d="m 588.48086,999.53441 -535.03936,0"
       id="path9121" />
    <path
       inkscape:connector-curvature="0"
       style="fill:none;stroke:#0000ff;stroke-opacity:1;stroke-width:0.03543307;stroke-miterlimit:4;stroke-dasharray:none"
       d="m 53.4415,999.53441 0,-535.03938"
       id="path9123" />
  </g>
</svg>
