<?xml version="1.0" encoding="UTF-8" standalone="no"?>
<!-- Created with Inkscape (http://www.inkscape.org/) -->

<svg
   xmlns:dc="http://purl.org/dc/elements/1.1/"
   xmlns:cc="http://creativecommons.org/ns#"
   xmlns:rdf="http://www.w3.org/1999/02/22-rdf-syntax-ns#"
   xmlns:svg="http://www.w3.org/2000/svg"
   xmlns="http://www.w3.org/2000/svg"
   xmlns:sodipodi="http://sodipodi.sourceforge.net/DTD/sodipodi-0.dtd"
   xmlns:inkscape="http://www.inkscape.org/namespaces/inkscape"
   width="384mm"
   height="384mm"
   viewBox="0 0 1360.6299 1360.6299"
   id="svg5780"
   version="1.1"
   inkscape:version="0.91 r13725"
   sodipodi:docname="clear_acrylic_p2.svg">
  <defs
     id="defs5782">
    <marker
       orient="auto"
       id="DistanceX"
       style="overflow:visible"
       refX="0.0"
       refY="0.0">
      <path
         id="path8027"
         d="M 3,-3 L -3,3 M 0,-5 L  0,5"
         style="stroke:#000000; stroke-width:0.5" />
    </marker>
    <pattern
       id="Hatch"
       x="0"
       y="0"
       patternUnits="userSpaceOnUse"
       width="8"
       height="8">
      <path
         id="path8030"
         d="M8 4 l-4,4"
         stroke-width="0.25"
         stroke="#000000"
         linecap="square" />
      <path
         id="path8032"
         d="M6 2 l-4,4"
         stroke-width="0.25"
         stroke="#000000"
         linecap="square" />
      <path
         id="path8034"
         d="M4 0 l-4,4"
         stroke-width="0.25"
         stroke="#000000"
         linecap="square" />
    </pattern>
    <symbol
       id="*Model_Space" />
    <symbol
       id="*Paper_Space" />
    <symbol
       id="*Paper_Space0" />
    <symbol
       id="crane_flap">
      <path
         id="path8040"
         d="M -308.001969,928.346457 A 5.580709,5.580709 -0.000000 1 0 -319.163386,928.346457 5.580709,5.580709 -0.000000 1 0 -308.001969,928.346457 z"
         style="stroke:#000000;fill:none;stroke-linecap: round" />
      <path
         id="path8042"
         d="M -141.732283,928.346457 A 17.716535,17.716535 -0.000000 1 0 -177.165354,928.346457 17.716535,17.716535 -0.000000 1 0 -141.732283,928.346457 z"
         style="stroke:#000000;fill:none;stroke-linecap: round" />
      <path
         id="path8044"
         d="M 0.000000,898.228346 L -627.165354,898.228346 L -627.165354,1052.362205 L 0.000000,1052.362205 L 0.000000,898.228346 z"
         style="stroke:#000000;fill:none;stroke-linecap: round" />
      <path
         id="path8046"
         d="M -450.000000,928.346457 A 17.716535,17.716535 -0.000000 1 0 -485.433071,928.346457 17.716535,17.716535 -0.000000 1 0 -450.000000,928.346457 z"
         style="stroke:#000000;fill:none;stroke-linecap: round" />
    </symbol>
    <symbol
       id="p2">
      <path
         id="path8049"
         d="M 0.000000,2412.992126 0.000000,1052.362205"
         style="stroke:#000000;fill:none;stroke-linecap: round" />
      <path
         id="path8051"
         d="M 0.000000,1052.362205 1360.629921,1052.362205"
         style="stroke:#000000;fill:none;stroke-linecap: round" />
      <path
         id="path8053"
         d="M 1360.629921,1052.362205 1360.629921,2412.992126"
         style="stroke:#000000;fill:none;stroke-linecap: round" />
      <path
         id="path8055"
         d="M 1360.629921,2412.992126 0.000000,2412.992126"
         style="stroke:#000000;fill:none;stroke-linecap: round" />
    </symbol>
    <symbol
       id="carrier_window">
      <path
         id="path8058"
         d="M 41.988189,1229.527559 L 41.988189,1052.362205 L 0.000000,1052.362205 L 0.000000,1707.874016 L 59.527559,1707.874016 L 59.527559,1728.708661 L 119.055118,1728.708661 L 119.055118,1707.874016 L 178.582677,1707.874016 L 178.582677,1229.527559 L 202.393701,1229.527559 L 202.393701,1052.362205 L 53.149606,1052.362205 L 53.149606,1229.527559 L 41.988189,1229.527559 z"
         style="stroke:#000000;fill:none;stroke-linecap: round" />
    </symbol>
    <symbol
       id="door">
      <path
         id="path8061"
         d="M 0.000000,1052.362205 L -699.094488,1052.362205 L -699.094488,1264.960630 L -681.377953,1264.960630 L -681.377953,1229.527559 L -670.216535,1229.527559 L -670.216535,1666.204724 L -28.877953,1666.204724 L -28.877953,1229.527559 L -17.716535,1229.527559 L -17.716535,1264.960630 L 0.000000,1264.960630 L 0.000000,1052.362205 z"
         style="stroke:#000000;fill:none;stroke-linecap: round" />
    </symbol>
    <marker
       orient="auto"
       id="DistanceX-8"
       style="overflow:visible"
       refX="0.0"
       refY="0.0">
      <path
         id="path4870"
         d="M 3,-3 L -3,3 M 0,-5 L  0,5"
         style="stroke:#000000; stroke-width:0.5" />
    </marker>
    <pattern
       id="Hatch-6"
       x="0"
       y="0"
       patternUnits="userSpaceOnUse"
       width="8"
       height="8">
      <path
         id="path4873"
         d="M8 4 l-4,4"
         stroke-width="0.25"
         stroke="#000000"
         linecap="square" />
      <path
         id="path4875"
         d="M6 2 l-4,4"
         stroke-width="0.25"
         stroke="#000000"
         linecap="square" />
      <path
         id="path4877"
         d="M4 0 l-4,4"
         stroke-width="0.25"
         stroke="#000000"
         linecap="square" />
    </pattern>
    <symbol
       id="*Model_Space-2" />
    <symbol
       id="*Paper_Space-5" />
    <symbol
       id="*Paper_Space0-7" />
    <symbol
       id="crane_flap-7">
      <path
         id="path4883"
         d="M 0.000000,898.228346 L -627.165354,898.228346 L -627.165354,1052.362205 L 0.000000,1052.362205 L 0.000000,898.228346 z"
         style="stroke:#000000;fill:none;stroke-linecap: round" />
      <path
         id="path4885"
         d="M -439.370079,935.433071 A 17.716535,17.716535 -0.000000 1 0 -474.803150,935.433071 17.716535,17.716535 -0.000000 1 0 -439.370079,935.433071 z"
         style="stroke:#000000;fill:none;stroke-linecap: round" />
      <path
         id="path4887"
         d="M -308.001969,935.433071 A 5.580709,5.580709 -0.000000 1 0 -319.163386,935.433071 5.580709,5.580709 -0.000000 1 0 -308.001969,935.433071 z"
         style="stroke:#000000;fill:none;stroke-linecap: round" />
      <path
         id="path4889"
         d="M -152.362205,935.433071 A 17.716535,17.716535 -0.000000 1 0 -187.795276,935.433071 17.716535,17.716535 -0.000000 1 0 -152.362205,935.433071 z"
         style="stroke:#000000;fill:none;stroke-linecap: round" />
    </symbol>
    <symbol
       id="p2-1">
      <path
         id="path4892"
         d="M 1360.629921,2412.992126 0.000000,2412.992126"
         style="stroke:#000000;fill:none;stroke-linecap: round" />
      <path
         id="path4894"
         d="M 0.000000,2412.992126 0.000000,1052.362205"
         style="stroke:#000000;fill:none;stroke-linecap: round" />
      <path
         id="path4896"
         d="M 0.000000,1052.362205 1360.629921,1052.362205"
         style="stroke:#000000;fill:none;stroke-linecap: round" />
      <path
         id="path4898"
         d="M 1360.629921,1052.362205 1360.629921,2412.992126"
         style="stroke:#000000;fill:none;stroke-linecap: round" />
    </symbol>
    <symbol
       id="carrier_window-6">
      <path
         id="path4901"
         d="M 41.988189,1229.527559 L 41.988189,1052.362205 L 0.000000,1052.362205 L 0.000000,1707.874016 L 59.527559,1707.874016 L 59.527559,1728.708661 L 119.055118,1728.708661 L 119.055118,1707.874016 L 178.582677,1707.874016 L 178.582677,1229.527559 L 202.393701,1229.527559 L 202.393701,1052.362205 L 53.149606,1052.362205 L 53.149606,1229.527559 L 41.988189,1229.527559 z"
         style="stroke:#000000;fill:none;stroke-linecap: round" />
    </symbol>
    <symbol
       id="door-8">
      <path
         id="path4904"
         d="M 0.000000,1052.362205 L -699.094488,1052.362205 L -699.094488,1264.960630 L -681.377953,1264.960630 L -681.377953,1229.527559 L -670.216535,1229.527559 L -670.216535,1666.204724 L -28.877953,1666.204724 L -28.877953,1229.527559 L -17.716535,1229.527559 L -17.716535,1264.960630 L 0.000000,1264.960630 L 0.000000,1052.362205 z"
         style="stroke:#000000;fill:none;stroke-linecap: round" />
    </symbol>
    <marker
       orient="auto"
       id="DistanceX-0"
       style="overflow:visible"
       refX="0.0"
       refY="0.0">
      <path
         id="path5005"
         d="M 3,-3 L -3,3 M 0,-5 L  0,5"
         style="stroke:#000000; stroke-width:0.5" />
    </marker>
    <pattern
       id="Hatch-8"
       x="0"
       y="0"
       patternUnits="userSpaceOnUse"
       width="8"
       height="8">
      <path
         id="path5008"
         d="M8 4 l-4,4"
         stroke-width="0.25"
         stroke="#000000"
         linecap="square" />
      <path
         id="path5010"
         d="M6 2 l-4,4"
         stroke-width="0.25"
         stroke="#000000"
         linecap="square" />
      <path
         id="path5012"
         d="M4 0 l-4,4"
         stroke-width="0.25"
         stroke="#000000"
         linecap="square" />
    </pattern>
    <symbol
       id="*Model_Space-27" />
    <symbol
       id="*Paper_Space-0" />
    <symbol
       id="*Paper_Space0-5" />
    <marker
       orient="auto"
       id="DistanceX-2"
       style="overflow:visible"
       refX="0.0"
       refY="0.0">
      <path
         id="path4294"
         d="M 3,-3 L -3,3 M 0,-5 L  0,5"
         style="stroke:#000000; stroke-width:0.5" />
    </marker>
    <pattern
       id="Hatch-9"
       x="0"
       y="0"
       patternUnits="userSpaceOnUse"
       width="8"
       height="8">
      <path
         id="path4297"
         d="M8 4 l-4,4"
         stroke-width="0.25"
         stroke="#000000"
         linecap="square" />
      <path
         id="path4299"
         d="M6 2 l-4,4"
         stroke-width="0.25"
         stroke="#000000"
         linecap="square" />
      <path
         id="path4301"
         d="M4 0 l-4,4"
         stroke-width="0.25"
         stroke="#000000"
         linecap="square" />
    </pattern>
    <symbol
       id="*Model_Space-22" />
    <symbol
       id="*Paper_Space-54" />
    <symbol
       id="*Paper_Space0-6" />
    <marker
       orient="auto"
       id="DistanceX-00"
       style="overflow:visible"
       refX="0.0"
       refY="0.0">
      <path
         id="path4290"
         d="M 3,-3 L -3,3 M 0,-5 L  0,5"
         style="stroke:#000000; stroke-width:0.5" />
    </marker>
    <pattern
       id="Hatch-3"
       x="0"
       y="0"
       patternUnits="userSpaceOnUse"
       width="8"
       height="8">
      <path
         id="path4293"
         d="M8 4 l-4,4"
         stroke-width="0.25"
         stroke="#000000"
         linecap="square" />
      <path
         id="path4295"
         d="M6 2 l-4,4"
         stroke-width="0.25"
         stroke="#000000"
         linecap="square" />
      <path
         id="path4297-9"
         d="M4 0 l-4,4"
         stroke-width="0.25"
         stroke="#000000"
         linecap="square" />
    </pattern>
    <symbol
       id="*Model_Space-1" />
    <symbol
       id="*Paper_Space-4" />
    <symbol
       id="*Paper_Space0-0" />
  </defs>
  <sodipodi:namedview
     id="base"
     pagecolor="#ffffff"
     bordercolor="#666666"
     borderopacity="1.0"
     inkscape:pageopacity="0.0"
     inkscape:pageshadow="2"
     inkscape:zoom="0.49833984"
     inkscape:cx="699.64495"
     inkscape:cy="715.32667"
     inkscape:document-units="px"
     inkscape:current-layer="layer1"
     showgrid="false"
     inkscape:window-width="1920"
     inkscape:window-height="1178"
     inkscape:window-x="1358"
     inkscape:window-y="-8"
     inkscape:window-maximized="1" />
  <metadata
     id="metadata5785">
    <rdf:RDF>
      <cc:Work
         rdf:about="">
        <dc:format>image/svg+xml</dc:format>
        <dc:type
           rdf:resource="http://purl.org/dc/dcmitype/StillImage" />
        <dc:title />
      </cc:Work>
    </rdf:RDF>
  </metadata>
  <g
     inkscape:label="Layer 1"
     inkscape:groupmode="layer"
     id="layer1"
     transform="translate(0,308.26772)">
    <path
       inkscape:connector-curvature="0"
       style="fill:none;stroke:#0000ff;stroke-linecap:round;stroke-width:0.03543307;stroke-miterlimit:4;stroke-dasharray:none;stroke-opacity:1"
       d="m 45.42105,-272.89816 0,641.33858"
       id="path4304" />
    <path
       inkscape:connector-curvature="0"
       style="fill:none;stroke:#0000ff;stroke-linecap:round;stroke-width:0.03543307;stroke-miterlimit:4;stroke-dasharray:none;stroke-opacity:1"
       d="m 782.96042,368.44042 0,-11.1614"
       id="path4306" />
    <path
       inkscape:connector-curvature="0"
       style="fill:none;stroke:#0000ff;stroke-linecap:round;stroke-width:0.03543307;stroke-miterlimit:4;stroke-dasharray:none;stroke-opacity:1"
       d="m 782.96042,357.27902 128.26771,0"
       id="path4308" />
    <path
       inkscape:connector-curvature="0"
       style="fill:none;stroke:#0000ff;stroke-linecap:round;stroke-width:0.03543307;stroke-miterlimit:4;stroke-dasharray:none;stroke-opacity:1"
       d="m 911.22813,357.27902 0,11.1614"
       id="path4310" />
    <path
       inkscape:connector-curvature="0"
       style="fill:none;stroke:#0000ff;stroke-linecap:round;stroke-width:0.03543307;stroke-miterlimit:4;stroke-dasharray:none;stroke-opacity:1"
       d="m 1328.0982,368.44042 0,-641.33858"
       id="path4312" />
    <path
       inkscape:connector-curvature="0"
       style="fill:none;stroke:#0000ff;stroke-linecap:round;stroke-width:0.03543307;stroke-miterlimit:4;stroke-dasharray:none;stroke-opacity:1"
       d="m 1328.0982,-272.89816 -416.87007,0"
       id="path4314" />
    <path
       inkscape:connector-curvature="0"
       style="fill:none;stroke:#0000ff;stroke-linecap:round;stroke-width:0.03543307;stroke-miterlimit:4;stroke-dasharray:none;stroke-opacity:1"
       d="m 911.22813,-272.89816 0,11.16142"
       id="path4316" />
    <path
       inkscape:connector-curvature="0"
       style="fill:none;stroke:#0000ff;stroke-linecap:round;stroke-width:0.03543307;stroke-miterlimit:4;stroke-dasharray:none;stroke-opacity:1"
       d="m 269.88955,1009.779 416.87008,0"
       id="path4318" />
    <path
       inkscape:connector-curvature="0"
       style="fill:none;stroke:#0000ff;stroke-linecap:round;stroke-width:0.03543307;stroke-miterlimit:4;stroke-dasharray:none;stroke-opacity:1"
       d="m 686.75963,1009.779 0,-641.33858"
       id="path4320" />
    <path
       inkscape:connector-curvature="0"
       style="fill:none;stroke:#0000ff;stroke-linecap:round;stroke-width:0.03543307;stroke-miterlimit:4;stroke-dasharray:none;stroke-opacity:1"
       d="m 686.75963,368.44042 -416.87008,0"
       id="path4322" />
    <path
       inkscape:connector-curvature="0"
       style="fill:none;stroke:#0000ff;stroke-linecap:round;stroke-width:0.03543307;stroke-miterlimit:4;stroke-dasharray:none;stroke-opacity:1"
       d="m 269.88955,368.44042 0,11.1614"
       id="path4324" />
    <path
       inkscape:connector-curvature="0"
       style="fill:none;stroke:#0000ff;stroke-linecap:round;stroke-width:0.03543307;stroke-miterlimit:4;stroke-dasharray:none;stroke-opacity:1"
       d="m 269.88955,379.60182 -128.26771,0"
       id="path4326" />
    <path
       inkscape:connector-curvature="0"
       style="fill:none;stroke:#0000ff;stroke-linecap:round;stroke-width:0.03543307;stroke-miterlimit:4;stroke-dasharray:none;stroke-opacity:1"
       d="m 141.62184,379.60182 0,-11.1614"
       id="path4328" />
    <path
       inkscape:connector-curvature="0"
       style="fill:none;stroke:#0000ff;stroke-linecap:round;stroke-width:0.03543307;stroke-miterlimit:4;stroke-dasharray:none;stroke-opacity:1"
       d="m 141.62184,368.44042 -96.20079,0"
       id="path4330" />
    <path
       inkscape:connector-curvature="0"
       style="fill:none;stroke:#0000ff;stroke-linecap:round;stroke-width:0.03543307;stroke-miterlimit:4;stroke-dasharray:none;stroke-opacity:1"
       d="m 45.42105,368.44042 0,641.33858"
       id="path4332" />
    <path
       inkscape:connector-curvature="0"
       style="fill:none;stroke:#0000ff;stroke-linecap:round;stroke-width:0.03543307;stroke-miterlimit:4;stroke-dasharray:none;stroke-opacity:1"
       d="m 45.42105,1009.779 96.20079,0"
       id="path4334" />
    <path
       inkscape:connector-curvature="0"
       style="fill:none;stroke:#0000ff;stroke-linecap:round;stroke-width:0.03543307;stroke-miterlimit:4;stroke-dasharray:none;stroke-opacity:1"
       d="m 782.96042,1009.779 0,-11.16138"
       id="path4336" />
    <path
       inkscape:connector-curvature="0"
       style="fill:none;stroke:#0000ff;stroke-linecap:round;stroke-width:0.03543307;stroke-miterlimit:4;stroke-dasharray:none;stroke-opacity:1"
       d="m 782.96042,998.61762 128.26771,0"
       id="path4338" />
    <path
       inkscape:connector-curvature="0"
       style="fill:none;stroke:#0000ff;stroke-linecap:round;stroke-width:0.03543307;stroke-miterlimit:4;stroke-dasharray:none;stroke-opacity:1"
       d="m 911.22813,998.61762 0,11.16138"
       id="path4340" />
    <path
       inkscape:connector-curvature="0"
       style="fill:none;stroke:#0000ff;stroke-linecap:round;stroke-width:0.03543307;stroke-miterlimit:4;stroke-dasharray:none;stroke-opacity:1"
       d="m 911.22813,1009.779 416.87007,0"
       id="path4342" />
    <path
       inkscape:connector-curvature="0"
       style="fill:none;stroke:#0000ff;stroke-linecap:round;stroke-width:0.03543307;stroke-miterlimit:4;stroke-dasharray:none;stroke-opacity:1"
       d="m 1328.0982,1009.779 0,-641.33858"
       id="path4344" />
    <path
       inkscape:connector-curvature="0"
       style="fill:none;stroke:#0000ff;stroke-linecap:round;stroke-width:0.03543307;stroke-miterlimit:4;stroke-dasharray:none;stroke-opacity:1"
       d="m 1328.0982,368.44042 -416.87007,0"
       id="path4346" />
    <path
       inkscape:connector-curvature="0"
       style="fill:none;stroke:#0000ff;stroke-linecap:round;stroke-width:0.03543307;stroke-miterlimit:4;stroke-dasharray:none;stroke-opacity:1"
       d="m 911.22813,368.44042 0,11.1614"
       id="path4348" />
    <path
       inkscape:connector-curvature="0"
       style="fill:none;stroke:#0000ff;stroke-linecap:round;stroke-width:0.03543307;stroke-miterlimit:4;stroke-dasharray:none;stroke-opacity:1"
       d="m 911.22813,379.60182 -128.26771,0"
       id="path4350" />
    <path
       inkscape:connector-curvature="0"
       style="fill:none;stroke:#0000ff;stroke-linecap:round;stroke-width:0.03543307;stroke-miterlimit:4;stroke-dasharray:none;stroke-opacity:1"
       d="m 782.96042,379.60182 0,-11.1614"
       id="path4352" />
    <path
       inkscape:connector-curvature="0"
       style="fill:none;stroke:#0000ff;stroke-linecap:round;stroke-width:0.03543307;stroke-miterlimit:4;stroke-dasharray:none;stroke-opacity:1"
       d="m 686.75963,1009.779 96.20079,0"
       id="path4354" />
    <path
       inkscape:connector-curvature="0"
       style="fill:none;stroke:#0000ff;stroke-linecap:round;stroke-width:0.03543307;stroke-miterlimit:4;stroke-dasharray:none;stroke-opacity:1"
       d="m 141.62184,1009.779 0,-11.16138"
       id="path4356" />
    <path
       inkscape:connector-curvature="0"
       style="fill:none;stroke:#0000ff;stroke-linecap:round;stroke-width:0.03543307;stroke-miterlimit:4;stroke-dasharray:none;stroke-opacity:1"
       d="m 141.62184,998.61762 128.26771,0"
       id="path4358" />
    <path
       inkscape:connector-curvature="0"
       style="fill:none;stroke:#0000ff;stroke-linecap:round;stroke-width:0.03543307;stroke-miterlimit:4;stroke-dasharray:none;stroke-opacity:1"
       d="m 269.88955,998.61762 0,11.16138"
       id="path4360" />
    <path
       inkscape:connector-curvature="0"
       style="fill:none;stroke:#0000ff;stroke-linecap:round;stroke-width:0.03543307;stroke-miterlimit:4;stroke-dasharray:none;stroke-opacity:1"
       d="m 911.22813,-261.73674 -128.26771,0"
       id="path4362" />
    <path
       inkscape:connector-curvature="0"
       style="fill:none;stroke:#0000ff;stroke-linecap:round;stroke-width:0.03543307;stroke-miterlimit:4;stroke-dasharray:none;stroke-opacity:1"
       d="m 782.96042,-261.73674 0,-11.16142"
       id="path4364" />
    <path
       inkscape:connector-curvature="0"
       style="fill:none;stroke:#0000ff;stroke-linecap:round;stroke-width:0.03543307;stroke-miterlimit:4;stroke-dasharray:none;stroke-opacity:1"
       d="m 782.96042,-272.89816 -96.20079,0"
       id="path4366" />
    <path
       inkscape:connector-curvature="0"
       style="fill:none;stroke:#0000ff;stroke-linecap:round;stroke-width:0.03543307;stroke-miterlimit:4;stroke-dasharray:none;stroke-opacity:1"
       d="m 686.75963,368.44042 96.20079,0"
       id="path4368" />
    <path
       inkscape:connector-curvature="0"
       style="fill:none;stroke:#0000ff;stroke-linecap:round;stroke-width:0.03543307;stroke-miterlimit:4;stroke-dasharray:none;stroke-opacity:1"
       d="m 141.62184,368.44042 0,-11.1614"
       id="path4370" />
    <path
       inkscape:connector-curvature="0"
       style="fill:none;stroke:#0000ff;stroke-linecap:round;stroke-width:0.03543307;stroke-miterlimit:4;stroke-dasharray:none;stroke-opacity:1"
       d="m 141.62184,357.27902 128.26771,0"
       id="path4372" />
    <path
       inkscape:connector-curvature="0"
       style="fill:none;stroke:#0000ff;stroke-linecap:round;stroke-width:0.03543307;stroke-miterlimit:4;stroke-dasharray:none;stroke-opacity:1"
       d="m 269.88955,357.27902 0,11.1614"
       id="path4374" />
    <path
       inkscape:connector-curvature="0"
       style="fill:none;stroke:#0000ff;stroke-linecap:round;stroke-width:0.03543307;stroke-miterlimit:4;stroke-dasharray:none;stroke-opacity:1"
       d="m 686.75963,368.44042 0,-641.33858"
       id="path4376" />
    <path
       inkscape:connector-curvature="0"
       style="fill:none;stroke:#0000ff;stroke-linecap:round;stroke-width:0.03543307;stroke-miterlimit:4;stroke-dasharray:none;stroke-opacity:1"
       d="m 686.75963,-272.89816 -416.87008,0"
       id="path4378" />
    <path
       inkscape:connector-curvature="0"
       style="fill:none;stroke:#0000ff;stroke-linecap:round;stroke-width:0.03543307;stroke-miterlimit:4;stroke-dasharray:none;stroke-opacity:1"
       d="m 269.88955,-272.89816 0,11.16142"
       id="path4380" />
    <path
       inkscape:connector-curvature="0"
       style="fill:none;stroke:#0000ff;stroke-linecap:round;stroke-width:0.03543307;stroke-miterlimit:4;stroke-dasharray:none;stroke-opacity:1"
       d="m 269.88955,-261.73674 -128.26771,0"
       id="path4382" />
    <path
       inkscape:connector-curvature="0"
       style="fill:none;stroke:#0000ff;stroke-linecap:round;stroke-width:0.03543307;stroke-miterlimit:4;stroke-dasharray:none;stroke-opacity:1"
       d="m 141.62184,-261.73674 0,-11.16142"
       id="path4384" />
    <path
       inkscape:connector-curvature="0"
       style="fill:none;stroke:#0000ff;stroke-linecap:round;stroke-width:0.03543307;stroke-miterlimit:4;stroke-dasharray:none;stroke-opacity:1"
       d="m 141.62184,-272.89816 -96.20079,0"
       id="path4386" />
    <path
       inkscape:connector-curvature="0"
       style="fill:none;stroke:#0000ff;stroke-linecap:round;stroke-width:0.03543307;stroke-miterlimit:4;stroke-dasharray:none;stroke-opacity:1"
       d="m 79.08247,612.20222 a 7.086615,7.086615 0 1 0 -14.17323,0 7.086615,7.086615 0 1 0 14.17323,0 z"
       id="path4388" />
    <path
       inkscape:connector-curvature="0"
       style="fill:none;stroke:#0000ff;stroke-linecap:round;stroke-width:0.03543307;stroke-miterlimit:4;stroke-dasharray:none;stroke-opacity:1"
       d="m 720.42105,612.20222 a 7.086614,7.086614 0 1 0 -14.17323,0 7.086614,7.086614 0 0 0 14.17323,0 z"
       id="path4390" />
    <path
       inkscape:connector-curvature="0"
       style="fill:none;stroke:#0000ff;stroke-linecap:round;stroke-width:0.03543307;stroke-miterlimit:4;stroke-dasharray:none;stroke-opacity:1"
       d="m 79.08247,-29.13635 a 7.086615,7.086615 0 1 0 -14.17323,0 7.086615,7.086615 0 1 0 14.17323,0 z"
       id="path4392" />
    <path
       inkscape:connector-curvature="0"
       style="fill:none;stroke:#0000ff;stroke-linecap:round;stroke-width:0.03543307;stroke-miterlimit:4;stroke-dasharray:none;stroke-opacity:1"
       d="m 720.42105,-29.13635 a 7.086614,7.086614 0 1 0 -14.17323,0 7.086614,7.086614 0 0 0 14.17323,0 z"
       id="path4394" />
    <path
       inkscape:connector-curvature="0"
       style="fill:none;stroke:#0000ff;stroke-linecap:round;stroke-width:0.03543307;stroke-miterlimit:4;stroke-dasharray:none;stroke-opacity:1"
       d="m 619.4368,457.02312 a 21.259843,21.259843 0 1 0 -42.51969,0 21.259843,21.259843 0 1 0 42.51969,0 z"
       id="path4396" />
    <path
       inkscape:connector-curvature="0"
       style="fill:none;stroke:#0000ff;stroke-linecap:round;stroke-width:0.03543307;stroke-miterlimit:4;stroke-dasharray:none;stroke-opacity:1"
       d="m 1260.7754,457.02312 a 21.259845,21.259845 0 1 0 -42.5197,0 21.259845,21.259845 0 1 0 42.5197,0 z"
       id="path4398" />
    <path
       inkscape:connector-curvature="0"
       style="fill:none;stroke:#0000ff;stroke-linecap:round;stroke-width:0.03543307;stroke-miterlimit:4;stroke-dasharray:none;stroke-opacity:1"
       d="m 619.4368,-184.31548 a 21.259843,21.259843 0 1 0 -42.51969,0 21.259843,21.259843 0 1 0 42.51969,0 z"
       id="path4400" />
    <path
       inkscape:connector-curvature="0"
       style="fill:none;stroke:#0000ff;stroke-linecap:round;stroke-width:0.03543307;stroke-miterlimit:4;stroke-dasharray:none;stroke-opacity:1"
       d="m 1260.7754,-184.31548 a 21.259845,21.259845 0 1 0 -42.5197,0 21.259845,21.259845 0 1 0 42.5197,0 z"
       id="path4402" />
    <path
       inkscape:connector-curvature="0"
       style="fill:none;stroke:#0000ff;stroke-linecap:round;stroke-width:0.03543307;stroke-miterlimit:4;stroke-dasharray:none;stroke-opacity:1"
       d="m 375.39152,395.01522 a 9.301181,9.301181 0 1 0 -18.60236,0 9.301181,9.301181 0 1 0 18.60236,0 z"
       id="path4404" />
    <path
       inkscape:connector-curvature="0"
       style="fill:none;stroke:#0000ff;stroke-linecap:round;stroke-width:0.03543307;stroke-miterlimit:4;stroke-dasharray:none;stroke-opacity:1"
       d="m 375.39152,-246.32335 a 9.301181,9.301181 0 1 0 -18.60236,0 9.301181,9.301181 0 1 0 18.60236,0 z"
       id="path4406" />
    <path
       inkscape:connector-curvature="0"
       style="fill:none;stroke:#0000ff;stroke-linecap:round;stroke-width:0.03543307;stroke-miterlimit:4;stroke-dasharray:none;stroke-opacity:1"
       d="m 1016.7301,395.01522 a 9.301181,9.301181 0 1 0 -18.60236,0 9.301181,9.301181 0 1 0 18.60236,0 z"
       id="path4408" />
    <path
       inkscape:connector-curvature="0"
       style="fill:none;stroke:#0000ff;stroke-linecap:round;stroke-width:0.03543307;stroke-miterlimit:4;stroke-dasharray:none;stroke-opacity:1"
       d="m 1016.7301,-246.32335 a 9.301181,9.301181 0 1 0 -18.60236,0 9.301181,9.301181 0 1 0 18.60236,0 z"
       id="path4410" />
    <path
       inkscape:connector-curvature="0"
       style="fill:none;stroke:#0000ff;stroke-linecap:round;stroke-width:0.03543307;stroke-miterlimit:4;stroke-dasharray:none;stroke-opacity:1"
       d="m 81.29703,47.77113 a 9.3011815,9.3011815 0 1 0 -18.60236,0 9.3011815,9.3011815 0 1 0 18.60236,0 z"
       id="path4412" />
    <path
       inkscape:connector-curvature="0"
       style="fill:none;stroke:#0000ff;stroke-linecap:round;stroke-width:0.03543307;stroke-miterlimit:4;stroke-dasharray:none;stroke-opacity:1"
       d="m 722.63561,689.10972 a 9.301181,9.301181 0 1 0 -18.60236,0 9.301181,9.301181 0 0 0 18.60236,0 z"
       id="path4414" />
    <path
       inkscape:connector-curvature="0"
       style="fill:none;stroke:#0000ff;stroke-linecap:round;stroke-width:0.03543307;stroke-miterlimit:4;stroke-dasharray:none;stroke-opacity:1"
       d="m 81.29703,689.10972 a 9.3011815,9.3011815 0 1 0 -18.60236,0 9.3011815,9.3011815 0 1 0 18.60236,0 z"
       id="path4416" />
    <path
       inkscape:connector-curvature="0"
       style="fill:none;stroke:#0000ff;stroke-linecap:round;stroke-width:0.03543307;stroke-miterlimit:4;stroke-dasharray:none;stroke-opacity:1"
       d="m 722.63561,47.77113 a 9.301181,9.301181 0 1 0 -18.60236,0 9.301181,9.301181 0 0 0 18.60236,0 z"
       id="path4418" />
    <path
       inkscape:connector-curvature="0"
       style="fill:none;stroke:#0000ff;stroke-linecap:round;stroke-width:0.03543307;stroke-miterlimit:4;stroke-dasharray:none;stroke-opacity:1"
       d="m 81.29703,341.86562 a 9.3011815,9.3011815 0 1 0 -18.60236,0 9.3011815,9.3011815 0 1 0 18.60236,0 z"
       id="path4420" />
    <path
       inkscape:connector-curvature="0"
       style="fill:none;stroke:#0000ff;stroke-linecap:round;stroke-width:0.03543307;stroke-miterlimit:4;stroke-dasharray:none;stroke-opacity:1"
       d="m 722.63561,983.20422 a 9.301181,9.301181 0 1 0 -18.60236,0 9.301181,9.301181 0 0 0 18.60236,0 z"
       id="path4422" />
    <path
       inkscape:connector-curvature="0"
       style="fill:none;stroke:#0000ff;stroke-linecap:round;stroke-width:0.03543307;stroke-miterlimit:4;stroke-dasharray:none;stroke-opacity:1"
       d="m 81.29703,983.20422 a 9.3011815,9.3011815 0 1 0 -18.60236,0 9.3011815,9.3011815 0 1 0 18.60236,0 z"
       id="path4424" />
    <path
       inkscape:connector-curvature="0"
       style="fill:none;stroke:#0000ff;stroke-linecap:round;stroke-width:0.03543307;stroke-miterlimit:4;stroke-dasharray:none;stroke-opacity:1"
       d="m 722.63561,341.86562 a 9.301181,9.301181 0 1 0 -18.60236,0 9.301181,9.301181 0 0 0 18.60236,0 z"
       id="path4426" />
    <path
       inkscape:connector-curvature="0"
       style="fill:none;stroke:#0000ff;stroke-linecap:round;stroke-width:0.03543307;stroke-miterlimit:4;stroke-dasharray:none;stroke-opacity:1"
       d="m 669.48601,983.20422 a 9.301181,9.301181 0 1 0 -18.60236,0 9.301181,9.301181 0 0 0 18.60236,0 z"
       id="path4428" />
    <path
       inkscape:connector-curvature="0"
       style="fill:none;stroke:#0000ff;stroke-linecap:round;stroke-width:0.03543307;stroke-miterlimit:4;stroke-dasharray:none;stroke-opacity:1"
       d="m 1310.8246,341.86562 a 9.3011815,9.3011815 0 1 0 -18.6024,0 9.3011815,9.3011815 0 1 0 18.6024,0 z"
       id="path4430" />
    <path
       inkscape:connector-curvature="0"
       style="fill:none;stroke:#0000ff;stroke-linecap:round;stroke-width:0.03543307;stroke-miterlimit:4;stroke-dasharray:none;stroke-opacity:1"
       d="m 1310.8246,983.20422 a 9.3011815,9.3011815 0 1 0 -18.6024,0 9.3011815,9.3011815 0 1 0 18.6024,0 z"
       id="path4432" />
    <path
       inkscape:connector-curvature="0"
       style="fill:none;stroke:#0000ff;stroke-linecap:round;stroke-width:0.03543307;stroke-miterlimit:4;stroke-dasharray:none;stroke-opacity:1"
       d="m 669.48601,341.86562 a 9.301181,9.301181 0 1 0 -18.60236,0 9.301181,9.301181 0 0 0 18.60236,0 z"
       id="path4434" />
    <path
       inkscape:connector-curvature="0"
       style="fill:none;stroke:#0000ff;stroke-linecap:round;stroke-width:0.03543307;stroke-miterlimit:4;stroke-dasharray:none;stroke-opacity:1"
       d="m 375.39152,983.20422 a 9.301181,9.301181 0 1 0 -18.60236,0 9.301181,9.301181 0 1 0 18.60236,0 z"
       id="path4436" />
    <path
       inkscape:connector-curvature="0"
       style="fill:none;stroke:#0000ff;stroke-linecap:round;stroke-width:0.03543307;stroke-miterlimit:4;stroke-dasharray:none;stroke-opacity:1"
       d="m 1016.7301,341.86562 a 9.301181,9.301181 0 1 0 -18.60236,0 9.301181,9.301181 0 1 0 18.60236,0 z"
       id="path4438" />
    <path
       inkscape:connector-curvature="0"
       style="fill:none;stroke:#0000ff;stroke-linecap:round;stroke-width:0.03543307;stroke-miterlimit:4;stroke-dasharray:none;stroke-opacity:1"
       d="m 1016.7301,983.20422 a 9.301181,9.301181 0 1 0 -18.60236,0 9.301181,9.301181 0 1 0 18.60236,0 z"
       id="path4440" />
    <path
       inkscape:connector-curvature="0"
       style="fill:none;stroke:#0000ff;stroke-linecap:round;stroke-width:0.03543307;stroke-miterlimit:4;stroke-dasharray:none;stroke-opacity:1"
       d="m 375.39152,341.86562 a 9.301181,9.301181 0 1 0 -18.60236,0 9.301181,9.301181 0 1 0 18.60236,0 z"
       id="path4442" />
    <path
       inkscape:connector-curvature="0"
       style="fill:none;stroke:#0000ff;stroke-linecap:round;stroke-width:0.03543307;stroke-miterlimit:4;stroke-dasharray:none;stroke-opacity:1"
       d="m 669.48601,689.10972 a 9.301181,9.301181 0 1 0 -18.60236,0 9.301181,9.301181 0 0 0 18.60236,0 z"
       id="path4444" />
    <path
       inkscape:connector-curvature="0"
       style="fill:none;stroke:#0000ff;stroke-linecap:round;stroke-width:0.03543307;stroke-miterlimit:4;stroke-dasharray:none;stroke-opacity:1"
       d="m 1310.8246,47.77113 a 9.3011815,9.3011815 0 1 0 -18.6024,0 9.3011815,9.3011815 0 1 0 18.6024,0 z"
       id="path4446" />
    <path
       inkscape:connector-curvature="0"
       style="fill:none;stroke:#0000ff;stroke-linecap:round;stroke-width:0.03543307;stroke-miterlimit:4;stroke-dasharray:none;stroke-opacity:1"
       d="m 1310.8246,689.10972 a 9.3011815,9.3011815 0 1 0 -18.6024,0 9.3011815,9.3011815 0 1 0 18.6024,0 z"
       id="path4448" />
    <path
       inkscape:connector-curvature="0"
       style="fill:none;stroke:#0000ff;stroke-linecap:round;stroke-width:0.03543307;stroke-miterlimit:4;stroke-dasharray:none;stroke-opacity:1"
       d="m 669.48601,47.77113 a 9.301181,9.301181 0 1 0 -18.60236,0 9.301181,9.301181 0 0 0 18.60236,0 z"
       id="path4450" />
    <path
       inkscape:connector-curvature="0"
       style="fill:none;stroke:#0000ff;stroke-linecap:round;stroke-width:0.03543307;stroke-miterlimit:4;stroke-dasharray:none;stroke-opacity:1"
       d="m 669.48601,395.01522 a 9.301181,9.301181 0 1 0 -18.60236,0 9.301181,9.301181 0 0 0 18.60236,0 z"
       id="path4452" />
    <path
       inkscape:connector-curvature="0"
       style="fill:none;stroke:#0000ff;stroke-linecap:round;stroke-width:0.03543307;stroke-miterlimit:4;stroke-dasharray:none;stroke-opacity:1"
       d="m 1310.8246,395.01522 a 9.3011815,9.3011815 0 1 0 -18.6024,0 9.3011815,9.3011815 0 1 0 18.6024,0 z"
       id="path4454" />
    <path
       inkscape:connector-curvature="0"
       style="fill:none;stroke:#0000ff;stroke-linecap:round;stroke-width:0.03543307;stroke-miterlimit:4;stroke-dasharray:none;stroke-opacity:1"
       d="m 669.48601,-246.32335 a 9.301181,9.301181 0 1 0 -18.60236,0 9.301181,9.301181 0 0 0 18.60236,0 z"
       id="path4456" />
    <path
       inkscape:connector-curvature="0"
       style="fill:none;stroke:#0000ff;stroke-linecap:round;stroke-width:0.03543307;stroke-miterlimit:4;stroke-dasharray:none;stroke-opacity:1"
       d="m 1310.8246,-246.32335 a 9.3011815,9.3011815 0 1 0 -18.6024,0 9.3011815,9.3011815 0 1 0 18.6024,0 z"
       id="path4458" />
    <path
       inkscape:connector-curvature="0"
       style="fill:none;stroke:#0000ff;stroke-linecap:round;stroke-width:0.03543307;stroke-miterlimit:4;stroke-dasharray:none;stroke-opacity:1"
       d="m 81.29703,395.01522 a 9.3011815,9.3011815 0 1 0 -18.60236,0 9.3011815,9.3011815 0 1 0 18.60236,0 z"
       id="path4460" />
    <path
       inkscape:connector-curvature="0"
       style="fill:none;stroke:#0000ff;stroke-linecap:round;stroke-width:0.03543307;stroke-miterlimit:4;stroke-dasharray:none;stroke-opacity:1"
       d="m 722.63561,395.01522 a 9.301181,9.301181 0 1 0 -18.60236,0 9.301181,9.301181 0 0 0 18.60236,0 z"
       id="path4462" />
    <path
       inkscape:connector-curvature="0"
       style="fill:none;stroke:#0000ff;stroke-linecap:round;stroke-width:0.03543307;stroke-miterlimit:4;stroke-dasharray:none;stroke-opacity:1"
       d="m 81.29703,-246.32335 a 9.3011815,9.3011815 0 1 0 -18.60236,0 9.3011815,9.3011815 0 1 0 18.60236,0 z"
       id="path4464" />
    <path
       inkscape:connector-curvature="0"
       style="fill:none;stroke:#0000ff;stroke-linecap:round;stroke-width:0.03543307;stroke-miterlimit:4;stroke-dasharray:none;stroke-opacity:1"
       d="m 722.63561,-246.32335 a 9.301181,9.301181 0 1 0 -18.60236,0 9.301181,9.301181 0 0 0 18.60236,0 z"
       id="path4466" />
  </g>
</svg>
