999
dxflib 3.12.2.0
  0
SECTION
  2
HEADER
  9
$ACADVER
  1
AC1015
  9
$HANDSEED
  5
FFFF
  9
$ANGBASE
 50
0.0
  9
$ATTMODE
 70
1
  9
$AUNITS
 70
0
  9
$AUPREC
 70
0
  9
$CELTSCALE
 40
1.0
  9
$CHAMFERA
 40
0.0
  9
$CHAMFERB
 40
0.0
  9
$CHAMFERC
 40
0.0
  9
$CHAMFERD
 40
0.0
  9
$CMLJUST
 70
0
  9
$CMLSCALE
 40
1.0
  9
$DIMADEC
 70
0
  9
$DIMALTD
 70
2
  9
$DIMALTF
 40
25.399999999999999
  9
$DIMALTRND
 40
0.0
  9
$DIMALTTD
 70
2
  9
$DIMALTTZ
 70
0
  9
$DIMALTU
 70
2
  9
$DIMALTZ
 70
0
  9
$DIMAPOST
  1

  9
$DIMASZ
 40
2.5
  9
$DIMATFIT
 70
3
  9
$DIMAUNIT
 70
0
  9
$DIMAZIN
 70
2
  9
$DIMCEN
 40
0.09
  9
$DIMDEC
 70
4
  9
$DIMDLE
 40
0.0
  9
$DIMDLI
 40
0.38
  9
$DIMDSEP
 70
46
  9
$DIMEXE
 40
1.25
  9
$DIMEXO
 40
0.625
  9
$DIMFRAC
 70
0
  9
$DIMGAP
 40
0.625
  9
$DIMJUST
 70
0
  9
$DIMLFAC
 40
1.0
  9
$DIMLUNIT
 70
2
  9
$DIMLWD
 70
-2
  9
$DIMLWE
 70
-2
  9
$DIMPOST
  1

  9
$DIMRND
 40
0.0
  9
$DIMSCALE
 40
1.0
  9
$DIMTAD
 70
0
  9
$DIMTDEC
 70
4
  9
$DIMTFAC
 40
1.0
  9
$DIMTM
 40
0.0
  9
$DIMTOLJ
 70
1
  9
$DIMTP
 40
0.0
  9
$DIMTSZ
 40
0.0
  9
$DIMTVP
 40
0.0
  9
$DIMTXT
 40
2.5
  9
$DIMTZIN
 70
0
  9
$DIMZIN
 70
8
  9
$DWGCODEPAGE
  3
ANSI_1252
  9
$ELEVATION
 40
0.0
  9
$EXTMAX
 10
-100000000000000000000.0
 20
-100000000000000000000.0
 30
-100000000000000000000.0
  9
$EXTMIN
 10
100000000000000000000.0
 20
100000000000000000000.0
 30
100000000000000000000.0
  9
$FILLETRAD
 40
0.5
  9
$INSBASE
 10
0.0
 20
0.0
 30
0.0
  9
$INSUNITS
 70
4
  9
$LIMMAX
 10
12.0
 20
9.0
  9
$LIMMIN
 10
0.0
 20
0.0
  9
$LTSCALE
 40
1.0
  9
$LUNITS
 70
2
  9
$LUPREC
 70
4
  9
$MAXACTVP
 70
2
  9
$MEASUREMENT
 70
1
  9
$PDMODE
 70
0
  9
$PDSIZE
 40
0.0
  9
$PELEVATION
 40
0.0
  9
$PEXTMAX
 10
-100000000000000000000.0
 20
-100000000000000000000.0
 30
-100000000000000000000.0
  9
$PEXTMIN
 10
100000000000000000000.0
 20
100000000000000000000.0
 30
100000000000000000000.0
  9
$PINSBASE
 10
0.0
 20
0.0
 30
0.0
  9
$PLIMMAX
 10
12.0
 20
9.0
  9
$PLIMMIN
 10
0.0
 20
0.0
  9
$PLINEWID
 40
0.0
  9
$PROXYGRAPHICS
 70
1
  9
$PUCSORG
 10
0.0
 20
0.0
 30
0.0
  9
$PUCSXDIR
 10
1.0
 20
0.0
 30
0.0
  9
$PUCSYDIR
 10
0.0
 20
1.0
 30
0.0
  9
$SHADEDGE
 70
3
  9
$SHADEDIF
 70
70
  9
$SKETCHINC
 40
0.1
  9
$SPLINESEGS
 70
8
  9
$SPLINETYPE
 70
6
  9
$SURFTAB1
 70
6
  9
$SURFTAB2
 70
6
  9
$SURFTYPE
 70
6
  9
$SURFU
 70
6
  9
$SURFV
 70
6
  9
$TEXTSIZE
 40
2.5
  9
$THICKNESS
 40
0.0
  9
$TRACEWID
 40
0.05
  9
$TREEDEPTH
 70
3020
  9
$UCSORG
 10
0.0
 20
0.0
 30
0.0
  9
$UCSXDIR
 10
1.0
 20
0.0
 30
0.0
  9
$UCSYDIR
 10
0.0
 20
1.0
 30
0.0
  9
$UNITMODE
 70
0
  9
$USERI1
 70
0
  9
$USERI2
 70
0
  9
$USERI3
 70
0
  9
$USERI4
 70
0
  9
$USERI5
 70
0
  9
$USERR1
 40
0.0
  9
$USERR2
 40
0.0
  9
$USERR3
 40
0.0
  9
$USERR4
 40
0.0
  9
$USERR5
 40
0.0
  0
ENDSEC
  0
SECTION
  2
TABLES
  0
TABLE
  2
VPORT
  5
8
100
AcDbSymbolTable
 70
1
  0
VPORT
  5
30
100
AcDbSymbolTableRecord
100
AcDbViewportTableRecord
  2
*Active
 70
0
 10
0.0
 20
0.0
 11
1.0
 21
1.0
 12
286.30555555555549
 22
148.5
 13
0.0
 23
0.0
 14
10.0
 24
10.0
 15
10.0
 25
10.0
 16
0.0
 26
0.0
 36
1.0
 17
0.0
 27
0.0
 37
0.0
 40
297.0
 41
1.92798353909465
 42
50.0
 43
0.0
 44
0.0
 50
0.0
 51
0.0
 71
0
 72
100
 73
1
 74
3
 75
1
 76
1
 77
0
 78
0
281
0
 65
1
110
0.0
120
0.0
130
0.0
111
1.0
121
0.0
131
0.0
112
0.0
122
1.0
132
0.0
 79
0
146
0.0
  0
ENDTAB
  0
TABLE
  2
LTYPE
  5
5
100
AcDbSymbolTable
 70
50
  0
LTYPE
  5
16
100
AcDbSymbolTableRecord
100
AcDbLinetypeTableRecord
  2
Continuous
 70
0
  3
Solid line
 72
65
 73
0
 40
0.0
  0
LTYPE
  5
31
100
AcDbSymbolTableRecord
100
AcDbLinetypeTableRecord
  2
DIVIDE2
 70
0
  3
Divide (.5x) __..__..__..__..__..__..__..__.._
 72
65
 73
6
 40
15.874999999999998
 49
6.3499999999999996
 74
0
 49
-3.125
 74
0
 49
0.1
 74
0
 49
-3.0750000000000002
 74
0
 49
0.1
 74
0
 49
-3.125
 74
0
  0
LTYPE
  5
32
100
AcDbSymbolTableRecord
100
AcDbLinetypeTableRecord
  2
DOT
 70
0
  3
Dot . . . . . . . . . . . . . . . . . . . . . . . .
 72
65
 73
2
 40
6.3499999999999996
 49
0.1
 74
0
 49
-6.25
 74
0
  0
LTYPE
  5
33
100
AcDbSymbolTableRecord
100
AcDbLinetypeTableRecord
  2
HIDDEN2
 70
0
  3
Hidden (.5x) _ _ _ _ _ _ _ _ _ _ _ _ _ _ _ _ _ 
 72
65
 73
2
 40
4.7624999999999993
 49
3.1749999999999998
 74
0
 49
-1.5874999999999999
 74
0
  0
LTYPE
  5
34
100
AcDbSymbolTableRecord
100
AcDbLinetypeTableRecord
  2
ACAD_ISO09W100
 70
0
  3
ISO long-dash double-short-dash ____ __ __ ____
 72
65
 73
6
 40
45.0
 49
24.0
 74
0
 49
-3.0
 74
0
 49
6.0
 74
0
 49
-3.0
 74
0
 49
6.0
 74
0
 49
-3.0
 74
0
  0
LTYPE
  5
35
100
AcDbSymbolTableRecord
100
AcDbLinetypeTableRecord
  2
PHANTOM
 70
0
  3
Phantom ______  __  __  ______  __  __  ______ 
 72
65
 73
6
 40
63.500000000000007
 49
31.75
 74
0
 49
-6.3499999999999996
 74
0
 49
6.3499999999999996
 74
0
 49
-6.3499999999999996
 74
0
 49
6.3499999999999996
 74
0
 49
-6.3499999999999996
 74
0
  0
LTYPE
  5
36
100
AcDbSymbolTableRecord
100
AcDbLinetypeTableRecord
  2
BORDERX2
 70
0
  3
Border (2x) ____  ____  .  ____  ____  .  ___
 72
65
 73
6
 40
88.899999999999991
 49
25.399999999999999
 74
0
 49
-12.699999999999999
 74
0
 49
25.399999999999999
 74
0
 49
-12.65
 74
0
 49
0.1
 74
0
 49
-12.65
 74
0
  0
LTYPE
  5
14
100
AcDbSymbolTableRecord
100
AcDbLinetypeTableRecord
  2
ByBlock
 70
0
  3

 72
65
 73
0
 40
0.0
  0
LTYPE
  5
37
100
AcDbSymbolTableRecord
100
AcDbLinetypeTableRecord
  2
BORDER2
 70
0
  3
Border (.5x) __.__.__.__.__.__.__.__.__.__.__.
 72
65
 73
6
 40
22.225000000000001
 49
6.3499999999999996
 74
0
 49
-3.1749999999999998
 74
0
 49
6.3499999999999996
 74
0
 49
-3.125
 74
0
 49
0.1
 74
0
 49
-3.125
 74
0
  0
LTYPE
  5
38
100
AcDbSymbolTableRecord
100
AcDbLinetypeTableRecord
  2
HOT_WATER_SUPPLY
 70
0
  3
Hot water supply ---- HW ---- HW ---- HW ----
 72
65
 73
3
 40
22.859999999999999
 49
12.699999999999999
 74
0
 49
-5.0800000000000001
 74
0
 49
-5.0800000000000001
 74
0
  0
LTYPE
  5
39
100
AcDbSymbolTableRecord
100
AcDbLinetypeTableRecord
  2
CENTER2
 70
0
  3
Center (.5x) ___ _ ___ _ ___ _ ___ _ ___ _ ___
 72
65
 73
4
 40
28.575000000000003
 49
19.050000000000001
 74
0
 49
-3.1749999999999998
 74
0
 49
3.1749999999999998
 74
0
 49
-3.1749999999999998
 74
0
  0
LTYPE
  5
3A
100
AcDbSymbolTableRecord
100
AcDbLinetypeTableRecord
  2
ACAD_ISO15W100
 70
0
  3
ISO double-dash triple-dot __ __ . . . __ __ . .
 72
65
 73
10
 40
39.000000000000007
 49
12.0
 74
0
 49
-3.0
 74
0
 49
12.0
 74
0
 49
-2.9500000000000002
 74
0
 49
0.1
 74
0
 49
-2.8999999999999999
 74
0
 49
0.1
 74
0
 49
-2.8999999999999999
 74
0
 49
0.1
 74
0
 49
-2.9500000000000002
 74
0
  0
LTYPE
  5
3B
100
AcDbSymbolTableRecord
100
AcDbLinetypeTableRecord
  2
PHANTOM2
 70
0
  3
Phantom (.5x) ___ _ _ ___ _ _ ___ _ _ ___ _ _
 72
65
 73
6
 40
31.750000000000004
 49
15.875
 74
0
 49
-3.1749999999999998
 74
0
 49
3.1749999999999998
 74
0
 49
-3.1749999999999998
 74
0
 49
3.1749999999999998
 74
0
 49
-3.1749999999999998
 74
0
  0
LTYPE
  5
3C
100
AcDbSymbolTableRecord
100
AcDbLinetypeTableRecord
  2
DIVIDE
 70
0
  3
Divide ____ . . ____ . . ____ . . ____ . . ____
 72
65
 73
6
 40
31.750000000000004
 49
12.699999999999999
 74
0
 49
-6.2999999999999998
 74
0
 49
0.1
 74
0
 49
-6.25
 74
0
 49
0.1
 74
0
 49
-6.2999999999999998
 74
0
  0
LTYPE
  5
3D
100
AcDbSymbolTableRecord
100
AcDbLinetypeTableRecord
  2
BORDER
 70
0
  3
Border __ __ . __ __ . __ __ . __ __ . __ __ .
 72
65
 73
6
 40
44.449999999999996
 49
12.699999999999999
 74
0
 49
-6.3499999999999996
 74
0
 49
12.699999999999999
 74
0
 49
-6.2999999999999998
 74
0
 49
0.1
 74
0
 49
-6.2999999999999998
 74
0
  0
LTYPE
  5
3E
100
AcDbSymbolTableRecord
100
AcDbLinetypeTableRecord
  2
DRAINAGE2
 70
0
  3
Drainage reversed----<----<----<----
 72
65
 73
2
 40
10.16
 49
5.0800000000000001
 74
0
 49
5.0800000000000001
 74
0
  0
LTYPE
  5
3F
100
AcDbSymbolTableRecord
100
AcDbLinetypeTableRecord
  2
ACAD_ISO14W100
 70
0
  3
ISO dash triple-dot __ . . . __ . . . __ . . . _
 72
65
 73
8
 40
24.0
 49
12.0
 74
0
 49
-2.9500000000000002
 74
0
 49
0.1
 74
0
 49
-2.8999999999999999
 74
0
 49
0.1
 74
0
 49
-2.8999999999999999
 74
0
 49
0.1
 74
0
 49
-2.9500000000000002
 74
0
  0
LTYPE
  5
40
100
AcDbSymbolTableRecord
100
AcDbLinetypeTableRecord
  2
DASHED2
 70
0
  3
Dashed (.5x) _ _ _ _ _ _ _ _ _ _ _ _ _ _ _ _ _ 
 72
65
 73
2
 40
9.5249999999999986
 49
6.3499999999999996
 74
0
 49
-3.1749999999999998
 74
0
  0
LTYPE
  5
41
100
AcDbSymbolTableRecord
100
AcDbLinetypeTableRecord
  2
DASHDOTX2
 70
0
  3
Dash dot (2x) ____  .  ____  .  ____  .  ___
 72
65
 73
4
 40
50.799999999999997
 49
25.399999999999999
 74
0
 49
-12.65
 74
0
 49
0.1
 74
0
 49
-12.65
 74
0
  0
LTYPE
  5
42
100
AcDbSymbolTableRecord
100
AcDbLinetypeTableRecord
  2
ACAD_ISO12W100
 70
0
  3
ISO dash double-dot __ . . __ . . __ . . __ . . 
 72
65
 73
6
 40
21.0
 49
12.0
 74
0
 49
-2.9500000000000002
 74
0
 49
0.1
 74
0
 49
-2.8999999999999999
 74
0
 49
0.1
 74
0
 49
-2.9500000000000002
 74
0
  0
LTYPE
  5
43
100
AcDbSymbolTableRecord
100
AcDbLinetypeTableRecord
  2
ACAD_ISO10W100
 70
0
  3
ISO dash dot __ . __ . __ . __ . __ . __ . __ . 
 72
65
 73
4
 40
18.0
 49
12.0
 74
0
 49
-2.9500000000000002
 74
0
 49
0.1
 74
0
 49
-2.9500000000000002
 74
0
  0
LTYPE
  5
44
100
AcDbSymbolTableRecord
100
AcDbLinetypeTableRecord
  2
TRACKS
 70
0
  3
Tracks -|-|-|-|-|-|-|-|-|-|-|-|-|-|-|-|-|-|-|-|-|-|-|-|-
 72
65
 73
2
 40
7.6200000000000001
 49
3.8100000000000001
 74
0
 49
3.8100000000000001
 74
0
  0
LTYPE
  5
45
100
AcDbSymbolTableRecord
100
AcDbLinetypeTableRecord
  2
DOT2
 70
0
  3
Dot (.5x) ........................................
 72
65
 73
2
 40
3.1750000000000003
 49
0.1
 74
0
 49
-3.0750000000000002
 74
0
  0
LTYPE
  5
46
100
AcDbSymbolTableRecord
100
AcDbLinetypeTableRecord
  2
ACAD_ISO06W100
 70
0
  3
ISO long-dash triple-dot ____ ... ____ ... ____
 72
65
 73
8
 40
36.000000000000007
 49
24.0
 74
0
 49
-2.9500000000000002
 74
0
 49
0.1
 74
0
 49
-2.8999999999999999
 74
0
 49
0.1
 74
0
 49
-2.8999999999999999
 74
0
 49
0.1
 74
0
 49
-2.9500000000000002
 74
0
  0
LTYPE
  5
47
100
AcDbSymbolTableRecord
100
AcDbLinetypeTableRecord
  2
DASHDOT2
 70
0
  3
Dash dot (.5x) _._._._._._._._._._._._._._._.
 72
65
 73
4
 40
12.699999999999999
 49
6.3499999999999996
 74
0
 49
-3.125
 74
0
 49
0.1
 74
0
 49
-3.125
 74
0
  0
LTYPE
  5
48
100
AcDbSymbolTableRecord
100
AcDbLinetypeTableRecord
  2
ACAD_ISO03W100
 70
0
  3
ISO dash space __    __    __    __    __    __
 72
65
 73
2
 40
30.0
 49
12.0
 74
0
 49
-18.0
 74
0
  0
LTYPE
  5
49
100
AcDbSymbolTableRecord
100
AcDbLinetypeTableRecord
  2
CENTER
 70
0
  3
Center ____ _ ____ _ ____ _ ____ _ ____ _ ____
 72
65
 73
4
 40
50.800000000000004
 49
31.75
 74
0
 49
-6.3499999999999996
 74
0
 49
6.3499999999999996
 74
0
 49
-6.3499999999999996
 74
0
  0
LTYPE
  5
4A
100
AcDbSymbolTableRecord
100
AcDbLinetypeTableRecord
  2
FENCELINE2
 70
0
  3
Fenceline square ----[]-----[]----[]-----[]----[]---
 72
65
 73
4
 40
36.829999999999998
 49
6.3499999999999996
 74
0
 49
-2.54
 74
0
 49
-2.54
 74
0
 49
25.399999999999999
 74
0
  0
LTYPE
  5
4B
100
AcDbSymbolTableRecord
100
AcDbLinetypeTableRecord
  2
DASHEDX2
 70
0
  3
Dashed (2x) ____  ____  ____  ____  ____  ___
 72
65
 73
2
 40
38.099999999999994
 49
25.399999999999999
 74
0
 49
-12.699999999999999
 74
0
  0
LTYPE
  5
4C
100
AcDbSymbolTableRecord
100
AcDbLinetypeTableRecord
  2
DIVIDEX2
 70
0
  3
Divide (2x) ________  .  .  ________  .  .  _
 72
65
 73
6
 40
63.5
 49
25.399999999999999
 74
0
 49
-12.65
 74
0
 49
0.1
 74
0
 49
-12.6
 74
0
 49
0.1
 74
0
 49
-12.65
 74
0
  0
LTYPE
  5
4D
100
AcDbSymbolTableRecord
100
AcDbLinetypeTableRecord
  2
FENCELINE1
 70
0
  3
Fenceline circle ----0-----0----0-----0----0-----0--
 72
65
 73
4
 40
36.829999999999998
 49
6.3499999999999996
 74
0
 49
-2.54
 74
0
 49
-2.54
 74
0
 49
25.399999999999999
 74
0
  0
LTYPE
  5
4E
100
AcDbSymbolTableRecord
100
AcDbLinetypeTableRecord
  2
ACAD_ISO07W100
 70
0
  3
ISO dot . . . . . . . . . . . . . . . . . . . . 
 72
65
 73
2
 40
3.0
 49
0.1
 74
0
 49
-2.8999999999999999
 74
0
  0
LTYPE
  5
4F
100
AcDbSymbolTableRecord
100
AcDbLinetypeTableRecord
  2
DOTX2
 70
0
  3
Dot (2x) .  .  .  .  .  .  .  .  .  .  .  .  .  .
 72
65
 73
2
 40
12.699999999999999
 49
0.1
 74
0
 49
-12.6
 74
0
  0
LTYPE
  5
50
100
AcDbSymbolTableRecord
100
AcDbLinetypeTableRecord
  2
HIDDENX2
 70
0
  3
Hidden (2x) ____ ____ ____ ____ ____ ____ ____ 
 72
65
 73
2
 40
19.049999999999997
 49
12.699999999999999
 74
0
 49
-6.3499999999999996
 74
0
  0
LTYPE
  5
51
100
AcDbSymbolTableRecord
100
AcDbLinetypeTableRecord
  2
BATTING
 70
0
  3
Batting SSSSSSSSSSSSSSSSSSSSSSSSSSSSSSSSSSSSSSSSSSSSSSS
 72
65
 73
4
 40
10.16254
 49
0.00254
 74
0
 49
-2.54
 74
0
 49
-5.0800000000000001
 74
0
 49
-2.54
 74
0
  0
LTYPE
  5
52
100
AcDbSymbolTableRecord
100
AcDbLinetypeTableRecord
  2
ACAD_ISO08W100
 70
0
  3
ISO long-dash short-dash ____ __ ____ __ ____ _
 72
65
 73
4
 40
36.0
 49
24.0
 74
0
 49
-3.0
 74
0
 49
6.0
 74
0
 49
-3.0
 74
0
  0
LTYPE
  5
15
100
AcDbSymbolTableRecord
100
AcDbLinetypeTableRecord
  2
ByLayer
 70
0
  3

 72
65
 73
0
 40
0.0
  0
LTYPE
  5
53
100
AcDbSymbolTableRecord
100
AcDbLinetypeTableRecord
  2
ACAD_ISO05W100
 70
0
  3
ISO long-dash double-dot ____ .. ____ .. ____ . 
 72
65
 73
6
 40
33.0
 49
24.0
 74
0
 49
-2.9500000000000002
 74
0
 49
0.1
 74
0
 49
-2.8999999999999999
 74
0
 49
0.1
 74
0
 49
-2.9500000000000002
 74
0
  0
LTYPE
  5
54
100
AcDbSymbolTableRecord
100
AcDbLinetypeTableRecord
  2
ACAD_ISO11W100
 70
0
  3
ISO double-dash dot __ __ . __ __ . __ __ . __ _
 72
65
 73
6
 40
33.0
 49
12.0
 74
0
 49
-3.0
 74
0
 49
12.0
 74
0
 49
-2.9500000000000002
 74
0
 49
0.1
 74
0
 49
-2.9500000000000002
 74
0
  0
LTYPE
  5
55
100
AcDbSymbolTableRecord
100
AcDbLinetypeTableRecord
  2
DRAINAGE
 70
0
  3
Drainage ---->---->---->----
 72
65
 73
2
 40
10.16
 49
5.0800000000000001
 74
0
 49
5.0800000000000001
 74
0
  0
LTYPE
  5
56
100
AcDbSymbolTableRecord
100
AcDbLinetypeTableRecord
  2
ACAD_ISO02W100
 70
0
  3
ISO dash __ __ __ __ __ __ __ __ __ __ __ __ __
 72
65
 73
2
 40
15.0
 49
12.0
 74
0
 49
-3.0
 74
0
  0
LTYPE
  5
57
100
AcDbSymbolTableRecord
100
AcDbLinetypeTableRecord
  2
CENTERX2
 70
0
  3
Center (2x) ________  __  ________  __  _____
 72
65
 73
4
 40
101.60000000000001
 49
63.5
 74
0
 49
-12.699999999999999
 74
0
 49
12.699999999999999
 74
0
 49
-12.699999999999999
 74
0
  0
LTYPE
  5
58
100
AcDbSymbolTableRecord
100
AcDbLinetypeTableRecord
  2
ACAD_ISO13W100
 70
0
  3
ISO double-dash double-dot __ __ . . __ __ . . _
 72
65
 73
8
 40
36.000000000000007
 49
12.0
 74
0
 49
-3.0
 74
0
 49
12.0
 74
0
 49
-2.9500000000000002
 74
0
 49
0.1
 74
0
 49
-2.8999999999999999
 74
0
 49
0.1
 74
0
 49
-2.9500000000000002
 74
0
  0
LTYPE
  5
59
100
AcDbSymbolTableRecord
100
AcDbLinetypeTableRecord
  2
HIDDEN
 70
0
  3
Hidden __ __ __ __ __ __ __ __ __ __ __ __ __ __
 72
65
 73
2
 40
9.5249999999999986
 49
6.3499999999999996
 74
0
 49
-3.1749999999999998
 74
0
  0
LTYPE
  5
5A
100
AcDbSymbolTableRecord
100
AcDbLinetypeTableRecord
  2
DASHED
 70
0
  3
Dashed __ __ __ __ __ __ __ __ __ __ __ __ __ _
 72
65
 73
2
 40
19.049999999999997
 49
12.699999999999999
 74
0
 49
-6.3499999999999996
 74
0
  0
LTYPE
  5
5B
100
AcDbSymbolTableRecord
100
AcDbLinetypeTableRecord
  2
ZIGZAG
 70
0
  3
Zig zag /\/\/\/\/\/\/\/\/\/\/\/\/\/\/\/\/\/\/\/\/\/\/\/
 72
65
 73
4
 40
20.32254
 49
0.00254
 74
0
 49
-5.0800000000000001
 74
0
 49
-10.16
 74
0
 49
-5.0800000000000001
 74
0
  0
LTYPE
  5
5C
100
AcDbSymbolTableRecord
100
AcDbLinetypeTableRecord
  2
GAS_LINE
 70
0
  3
Gas line ----GAS----GAS----GAS----GAS----GAS----GAS--
 72
65
 73
3
 40
24.130000000000003
 49
12.699999999999999
 74
0
 49
-5.0800000000000001
 74
0
 49
-6.3499999999999996
 74
0
  0
LTYPE
  5
5D
100
AcDbSymbolTableRecord
100
AcDbLinetypeTableRecord
  2
PHANTOMX2
 70
0
  3
Phantom (2x) ____________    ____    ____   _
 72
65
 73
6
 40
127.00000000000001
 49
63.5
 74
0
 49
-12.699999999999999
 74
0
 49
12.699999999999999
 74
0
 49
-12.699999999999999
 74
0
 49
12.699999999999999
 74
0
 49
-12.699999999999999
 74
0
  0
LTYPE
  5
5E
100
AcDbSymbolTableRecord
100
AcDbLinetypeTableRecord
  2
DASHDOT
 70
0
  3
Dash dot __ . __ . __ . __ . __ . __ . __ . __
 72
65
 73
4
 40
25.400000000000002
 49
12.699999999999999
 74
0
 49
-6.2999999999999998
 74
0
 49
0.1
 74
0
 49
-6.2999999999999998
 74
0
  0
LTYPE
  5
5F
100
AcDbSymbolTableRecord
100
AcDbLinetypeTableRecord
  2
ACAD_ISO04W100
 70
0
  3
ISO long-dash dot ____ . ____ . ____ . ____ . _
 72
65
 73
4
 40
30.0
 49
24.0
 74
0
 49
-2.9500000000000002
 74
0
 49
0.1
 74
0
 49
-2.9500000000000002
 74
0
  0
ENDTAB
  0
TABLE
  2
LAYER
  5
2
100
AcDbSymbolTable
 70
1
  0
LAYER
  5
10
100
AcDbSymbolTableRecord
100
AcDbLayerTableRecord
  2
0
 70
0
 62
7
420
16777215
  6
Continuous
370
25
390
F
  0
ENDTAB
  0
TABLE
  2
STYLE
  5
3
100
AcDbSymbolTable
 70
1
  0
STYLE
  5
60
100
AcDbSymbolTableRecord
100
AcDbTextStyleTableRecord
  2
Standard
 70
0
 40
0.0
 41
1.0
 50
0.0
 71
0
 42
2.5
  3

  4

1001
ACAD
1000
txt
1071
0
  0
ENDTAB
  0
TABLE
  2
VIEW
  5
6
100
AcDbSymbolTable
 70
0
  0
ENDTAB
  0
TABLE
  2
UCS
  5
7
100
AcDbSymbolTable
 70
0
  0
ENDTAB
  0
TABLE
  2
APPID
  5
9
100
AcDbSymbolTable
 70
1
  0
APPID
  5
12
100
AcDbSymbolTableRecord
100
AcDbRegAppTableRecord
  2
ACAD
 70
0
  0
APPID
  5
61
100
AcDbSymbolTableRecord
100
AcDbRegAppTableRecord
  2
QCAD
 70
0
  0
ENDTAB
  0
TABLE
  2
DIMSTYLE
  5
A
100
AcDbSymbolTable
 70
1
100
AcDbDimStyleTable
 71
0
  0
DIMSTYLE
105
27
100
AcDbSymbolTableRecord
100
AcDbDimStyleTableRecord
  2
Standard
 41
2.5
 42
0.625
 43
3.75
 44
1.25
 70
0
 73
0
 74
0
 77
1
 78
8
140
2.5
141
2.5
143
0.03937007874016
147
0.625
171
3
172
1
271
2
272
2
274
3
278
44
283
0
284
8
340
60
  0
ENDTAB
  0
TABLE
  2
BLOCK_RECORD
  5
1
100
AcDbSymbolTable
 70
1
  0
BLOCK_RECORD
  5
1F
100
AcDbSymbolTableRecord
100
AcDbBlockTableRecord
  2
*Model_Space
340
22
  0
BLOCK_RECORD
  5
1B
100
AcDbSymbolTableRecord
100
AcDbBlockTableRecord
  2
*Paper_Space
340
1E
  0
BLOCK_RECORD
  5
23
100
AcDbSymbolTableRecord
100
AcDbBlockTableRecord
  2
*Paper_Space0
340
26
  0
ENDTAB
  0
ENDSEC
  0
SECTION
  2
BLOCKS
  0
BLOCK
  5
20
100
AcDbEntity
  8
0
100
AcDbBlockBegin
  2
*Model_Space
 70
0
 10
0.0
 20
0.0
 30
0.0
  3
*Model_Space
  1

  0
ENDBLK
  5
21
100
AcDbEntity
  8
0
100
AcDbBlockEnd
  0
BLOCK
  5
1C
100
AcDbEntity
 67
1
  8
0
100
AcDbBlockBegin
  2
*Paper_Space
 70
0
 10
0.0
 20
0.0
 30
0.0
  3
*Paper_Space
  1

  0
ENDBLK
  5
1D
100
AcDbEntity
 67
1
  8
0
100
AcDbBlockEnd
  0
BLOCK
  5
24
100
AcDbEntity
  8
0
100
AcDbBlockBegin
  2
*Paper_Space0
 70
0
 10
0.0
 20
0.0
 30
0.0
  3
*Paper_Space0
  1

  0
ENDBLK
  5
25
100
AcDbEntity
  8
0
100
AcDbBlockEnd
  0
ENDSEC
  0
SECTION
  2
ENTITIES
  0
ARC
  5
62
100
AcDbEntity
  8
0
 62
256
370
-1
 48
1.0
  6
ByLayer
100
AcDbCircle
 10
56.500000000000199
 20
-162.07000000000002
 30
0.0
 40
0.2499999999999431
100
AcDbArc
 50
180.0
 51
89.999999999993491
  0
LINE
  5
63
100
AcDbEntity
100
AcDbLine
  8
0
 62
256
370
-1
 48
1.0
  6
ByLayer
 10
68.000000000000227
 20
-193.44000000000005
 30
0.0
 11
68.000000000000171
 21
-170.62666666666695
 31
0.0
  0
LINE
  5
64
100
AcDbEntity
100
AcDbLine
  8
0
 62
256
370
-1
 48
1.0
  6
ByLayer
 10
49.900000000000261
 20
-193.44
 30
0.0
 11
68.000000000000227
 21
-193.44000000000005
 31
0.0
  0
LINE
  5
65
100
AcDbEntity
100
AcDbLine
  8
0
 62
256
370
-1
 48
1.0
  6
ByLayer
 10
61.280000000000257
 20
-170.62666666666669
 30
0.0
 11
61.280000000000257
 21
-160.79500000000002
 31
0.0
  0
LINE
  5
66
100
AcDbEntity
100
AcDbLine
  8
0
 62
256
370
-1
 48
1.0
  6
ByLayer
 10
68.000000000000171
 20
-170.62666666666695
 30
0.0
 11
61.280000000000257
 21
-170.62666666666669
 31
0.0
  0
LINE
  5
67
100
AcDbEntity
100
AcDbLine
  8
0
 62
256
370
-1
 48
1.0
  6
ByLayer
 10
54.000000000000227
 20
-157.64499999999992
 30
0.0
 11
54.000000000000227
 21
-156.62000000000006
 31
0.0
  0
LINE
  5
68
100
AcDbEntity
100
AcDbLine
  8
0
 62
256
370
-1
 48
1.0
  6
ByLayer
 10
53.000000000000227
 20
-157.64499999999992
 30
0.0
 11
54.000000000000227
 21
-157.64499999999992
 31
0.0
  0
LINE
  5
69
100
AcDbEntity
100
AcDbLine
  8
0
 62
256
370
-1
 48
1.0
  6
ByLayer
 10
54.250000000000227
 20
-156.37000000000006
 30
0.0
 11
56.250000000000227
 21
-156.37000000000018
 31
0.0
  0
ARC
  5
6A
100
AcDbEntity
  8
0
 62
256
370
-1
 48
1.0
  6
ByLayer
100
AcDbCircle
 10
54.000000000000227
 20
-156.37000000000006
 30
0.0
 40
0.25
100
AcDbArc
 50
0.0
 51
270.0
  0
LINE
  5
6B
100
AcDbEntity
100
AcDbLine
  8
0
 62
256
370
-1
 48
1.0
  6
ByLayer
 10
54.000000000000227
 20
-161.81999999999999
 30
0.0
 11
54.000000000000227
 21
-160.79499999999999
 31
0.0
  0
ARC
  5
6C
100
AcDbEntity
  8
0
 62
256
370
-1
 48
1.0
  6
ByLayer
100
AcDbCircle
 10
54.000000000000114
 20
-162.07000000000011
 30
0.0
 40
0.2500000000000853
100
AcDbArc
 50
89.999999999973937
 51
360.0
  0
LINE
  5
6D
100
AcDbEntity
100
AcDbLine
  8
0
 62
256
370
-1
 48
1.0
  6
ByLayer
 10
53.000000000000227
 20
-160.7949999999999
 30
0.0
 11
53.000000000000227
 21
-157.64499999999992
 31
0.0
  0
LINE
  5
6E
100
AcDbEntity
100
AcDbLine
  8
0
 62
256
370
-1
 48
1.0
  6
ByLayer
 10
54.000000000000227
 20
-160.79499999999999
 30
0.0
 11
53.000000000000227
 21
-160.7949999999999
 31
0.0
  0
LINE
  5
6F
100
AcDbEntity
100
AcDbLine
  8
0
 62
256
370
-1
 48
1.0
  6
ByLayer
 10
68.000000000000227
 20
-144.81333333333313
 30
0.0
 11
68.000000000000227
 21
-125.00000000000006
 31
0.0
  0
LINE
  5
70
100
AcDbEntity
100
AcDbLine
  8
0
 62
256
370
-1
 48
1.0
  6
ByLayer
 10
61.280000000000257
 20
-144.8133333333333
 30
0.0
 11
68.000000000000227
 21
-144.81333333333313
 31
0.0
  0
LINE
  5
71
100
AcDbEntity
100
AcDbLine
  8
0
 62
256
370
-1
 48
1.0
  6
ByLayer
 10
49.900000000000261
 20
-125.00000000000006
 30
0.0
 11
49.900000000000261
 21
-129.27999999999878
 31
0.0
  0
LINE
  5
72
100
AcDbEntity
100
AcDbLine
  8
0
 62
256
370
-1
 48
1.0
  6
ByLayer
 10
68.000000000000227
 20
-125.00000000000006
 30
0.0
 11
-18.66666666666643
 21
-125.00000000000004
 31
0.0
  0
LINE
  5
73
100
AcDbEntity
100
AcDbLine
  8
0
 62
256
370
-1
 48
1.0
  6
ByLayer
 10
56.500000000000227
 20
-156.61999999999998
 30
0.0
 11
56.500000000000199
 21
-157.6450000000001
 31
0.0
  0
ARC
  5
74
100
AcDbEntity
  8
0
 62
256
370
-1
 48
1.0
  6
ByLayer
100
AcDbCircle
 10
56.500000000000128
 20
-156.37000000000006
 30
0.0
 40
0.2499999999999005
100
AcDbArc
 50
270.00000000002279
 51
180.0
  0
LINE
  5
75
100
AcDbEntity
100
AcDbLine
  8
0
 62
256
370
-1
 48
1.0
  6
ByLayer
 10
61.280000000000257
 20
-157.64499999999998
 30
0.0
 11
61.280000000000257
 21
-144.8133333333333
 31
0.0
  0
LINE
  5
76
100
AcDbEntity
100
AcDbLine
  8
0
 62
256
370
-1
 48
1.0
  6
ByLayer
 10
56.500000000000199
 20
-157.6450000000001
 30
0.0
 11
61.280000000000257
 21
-157.64499999999998
 31
0.0
  0
LINE
  5
77
100
AcDbEntity
100
AcDbLine
  8
0
 62
256
370
-1
 48
1.0
  6
ByLayer
 10
-185.27999999999977
 20
-147.81333333333339
 30
0.0
 11
-185.27999999999977
 21
-157.64499999999998
 31
0.0
  0
LINE
  5
78
100
AcDbEntity
100
AcDbLine
  8
0
 62
256
370
-1
 48
1.0
  6
ByLayer
 10
-191.99999999999977
 20
-147.81333333333339
 30
0.0
 11
-185.27999999999977
 21
-147.81333333333339
 31
0.0
  0
LINE
  5
79
100
AcDbEntity
100
AcDbLine
  8
0
 62
256
370
-1
 48
1.0
  6
ByLayer
 10
-180.49999999999977
 20
-157.64499999999998
 30
0.0
 11
-180.49999999999977
 21
-156.61999999999998
 31
0.0
  0
LINE
  5
7A
100
AcDbEntity
100
AcDbLine
  8
0
 62
256
370
-1
 48
1.0
  6
ByLayer
 10
-185.27999999999977
 20
-157.64499999999998
 30
0.0
 11
-180.49999999999977
 21
-157.64499999999998
 31
0.0
  0
LINE
  5
7B
100
AcDbEntity
100
AcDbLine
  8
0
 62
256
370
-1
 48
1.0
  6
ByLayer
 10
-173.89999999999978
 20
-129.28
 30
0.0
 11
-173.89999999999978
 21
-125.0
 31
0.0
  0
LINE
  5
7C
100
AcDbEntity
100
AcDbLine
  8
0
 62
256
370
-1
 48
1.0
  6
ByLayer
 10
-174.99999999999977
 20
-129.28
 30
0.0
 11
-173.89999999999978
 21
-129.28
 31
0.0
  0
LINE
  5
7D
100
AcDbEntity
100
AcDbLine
  8
0
 62
256
370
-1
 48
1.0
  6
ByLayer
 10
-191.99999999999977
 20
-125.0
 30
0.0
 11
-191.99999999999977
 21
-147.81333333333339
 31
0.0
  0
LINE
  5
7E
100
AcDbEntity
100
AcDbLine
  8
0
 62
256
370
-1
 48
1.0
  6
ByLayer
 10
-176.99999999999977
 20
-157.64499999999998
 30
0.0
 11
-176.99999999999977
 21
-160.79499999999996
 31
0.0
  0
LINE
  5
7F
100
AcDbEntity
100
AcDbLine
  8
0
 62
256
370
-1
 48
1.0
  6
ByLayer
 10
-177.99999999999977
 20
-157.64499999999995
 30
0.0
 11
-176.99999999999977
 21
-157.64499999999998
 31
0.0
  0
LINE
  5
80
100
AcDbEntity
100
AcDbLine
  8
0
 62
256
370
-1
 48
1.0
  6
ByLayer
 10
-177.99999999999977
 20
-160.79499999999996
 30
0.0
 11
-177.99999999999974
 21
-161.81999999999996
 31
0.0
  0
LINE
  5
81
100
AcDbEntity
100
AcDbLine
  8
0
 62
256
370
-1
 48
1.0
  6
ByLayer
 10
-176.99999999999977
 20
-160.79499999999996
 30
0.0
 11
-177.99999999999977
 21
-160.79499999999996
 31
0.0
  0
LINE
  5
82
100
AcDbEntity
100
AcDbLine
  8
0
 62
256
370
-1
 48
1.0
  6
ByLayer
 10
-180.24999999999977
 20
-156.36999999999995
 30
0.0
 11
-178.24999999999977
 21
-156.36999999999998
 31
0.0
  0
ARC
  5
83
100
AcDbEntity
  8
0
 62
256
370
-1
 48
1.0
  6
ByLayer
100
AcDbCircle
 10
-180.4999999999998
 20
-156.36999999999995
 30
0.0
 40
0.2500000000000142
100
AcDbArc
 50
0.0
 51
270.00000000000654
  0
LINE
  5
84
100
AcDbEntity
100
AcDbLine
  8
0
 62
256
370
-1
 48
1.0
  6
ByLayer
 10
-177.99999999999977
 20
-156.61999999999995
 30
0.0
 11
-177.99999999999977
 21
-157.64499999999995
 31
0.0
  0
ARC
  5
85
100
AcDbEntity
  8
0
 62
256
370
-1
 48
1.0
  6
ByLayer
100
AcDbCircle
 10
-177.99999999999977
 20
-156.36999999999995
 30
0.0
 40
0.2499999999999858
100
AcDbArc
 50
270.0
 51
180.0
  0
LINE
  5
86
100
AcDbEntity
100
AcDbLine
  8
0
 62
256
370
-1
 48
1.0
  6
ByLayer
 10
-185.2799999999998
 20
-160.79499999999996
 30
0.0
 11
-185.27999999999977
 21
-170.62666666666669
 31
0.0
  0
LINE
  5
87
100
AcDbEntity
100
AcDbLine
  8
0
 62
256
370
-1
 48
1.0
  6
ByLayer
 10
-180.49999999999977
 20
-160.79499999999996
 30
0.0
 11
-185.2799999999998
 21
-160.79499999999996
 31
0.0
  0
LINE
  5
88
100
AcDbEntity
100
AcDbLine
  8
0
 62
256
370
-1
 48
1.0
  6
ByLayer
 10
-191.99999999999977
 20
-170.62666666666669
 30
0.0
 11
-191.99999999999977
 21
-193.44
 31
0.0
  0
LINE
  5
89
100
AcDbEntity
100
AcDbLine
  8
0
 62
256
370
-1
 48
1.0
  6
ByLayer
 10
-185.27999999999977
 20
-170.62666666666669
 30
0.0
 11
-191.99999999999977
 21
-170.62666666666669
 31
0.0
  0
LINE
  5
8A
100
AcDbEntity
100
AcDbLine
  8
0
 62
256
370
-1
 48
1.0
  6
ByLayer
 10
-178.24999999999977
 20
-162.06999999999996
 30
0.0
 11
-180.24999999999977
 21
-162.06999999999996
 31
0.0
  0
ARC
  5
8B
100
AcDbEntity
  8
0
 62
256
370
-1
 48
1.0
  6
ByLayer
100
AcDbCircle
 10
-177.99999999999977
 20
-162.06999999999999
 30
0.0
 40
0.2500000000000142
100
AcDbArc
 50
180.0
 51
89.999999999993491
  0
LINE
  5
8C
100
AcDbEntity
100
AcDbLine
  8
0
 62
256
370
-1
 48
1.0
  6
ByLayer
 10
-180.49999999999977
 20
-161.81999999999996
 30
0.0
 11
-180.49999999999977
 21
-160.79499999999996
 31
0.0
  0
ARC
  5
8D
100
AcDbEntity
  8
0
 62
256
370
-1
 48
1.0
  6
ByLayer
100
AcDbCircle
 10
-180.49999999999977
 20
-162.06999999999996
 30
0.0
 40
0.25
100
AcDbArc
 50
90.0
 51
0.0
  0
ARC
  5
8E
100
AcDbEntity
  8
0
 62
256
370
-1
 48
1.0
  6
ByLayer
100
AcDbCircle
 10
-175.24999999999977
 20
-186.15999999999997
 30
0.0
 40
0.2500000000000142
100
AcDbArc
 50
0.0
 51
269.99999999999346
  0
LINE
  5
8F
100
AcDbEntity
100
AcDbLine
  8
0
 62
256
370
-1
 48
1.0
  6
ByLayer
 10
-175.24999999999977
 20
-188.90999999999994
 30
0.0
 11
-175.2499999999998
 21
-186.40999999999997
 31
0.0
  0
LINE
  5
90
100
AcDbEntity
100
AcDbLine
  8
0
 62
256
370
-1
 48
1.0
  6
ByLayer
 10
-173.89999999999978
 20
-186.15999999999997
 30
0.0
 11
-173.89999999999978
 21
-184.15999999999997
 31
0.0
  0
LINE
  5
91
100
AcDbEntity
100
AcDbLine
  8
0
 62
256
370
-1
 48
1.0
  6
ByLayer
 10
-174.99999999999977
 20
-186.15999999999997
 30
0.0
 11
-173.89999999999978
 21
-186.15999999999997
 31
0.0
  0
LINE
  5
92
100
AcDbEntity
100
AcDbLine
  8
0
 62
256
370
-1
 48
1.0
  6
ByLayer
 10
-173.89999999999978
 20
-193.43999999999994
 30
0.0
 11
-173.89999999999981
 21
-189.15999999999997
 31
0.0
  0
ARC
  5
93
100
AcDbEntity
  8
0
 62
256
370
-1
 48
1.0
  6
ByLayer
100
AcDbCircle
 10
-175.24999999999977
 20
-189.15999999999997
 30
0.0
 40
0.2500000000000142
100
AcDbArc
 50
90.0
 51
0.0
  0
LINE
  5
94
100
AcDbEntity
100
AcDbLine
  8
0
 62
256
370
-1
 48
1.0
  6
ByLayer
 10
-173.89999999999981
 20
-189.15999999999997
 30
0.0
 11
-174.99999999999977
 21
-189.15999999999997
 31
0.0
  0
ARC
  5
95
100
AcDbEntity
  8
0
 62
256
370
-1
 48
1.0
  6
ByLayer
100
AcDbCircle
 10
-122.23333333333305
 20
-129.77999999999992
 30
0.0
 40
0.2500000000000426
100
AcDbArc
 50
269.99999999999676
 51
180.0
  0
LINE
  5
96
100
AcDbEntity
100
AcDbLine
  8
0
 62
256
370
-1
 48
1.0
  6
ByLayer
 10
-123.50833333333308
 20
-129.77999999999997
 30
0.0
 11
-122.48333333333309
 21
-129.77999999999992
 31
0.0
  0
ARC
  5
97
100
AcDbEntity
  8
0
 62
256
370
-1
 48
1.0
  6
ByLayer
100
AcDbCircle
 10
-122.23333333333308
 20
-132.27999999999992
 30
0.0
 40
0.2500000000000142
100
AcDbArc
 50
180.0
 51
90.000000000009777
  0
LINE
  5
98
100
AcDbEntity
100
AcDbLine
  8
0
 62
256
370
-1
 48
1.0
  6
ByLayer
 10
-122.23333333333306
 20
-130.02999999999997
 30
0.0
 11
-122.23333333333312
 21
-132.02999999999989
 31
0.0
  0
LINE
  5
99
100
AcDbEntity
100
AcDbLine
  8
0
 62
256
370
-1
 48
1.0
  6
ByLayer
 10
-18.66666666666643
 20
-118.28000000000004
 30
0.0
 11
-105.3333333333331
 21
-118.27999999999987
 31
0.0
  0
LINE
  5
9A
100
AcDbEntity
100
AcDbLine
  8
0
 62
256
370
-1
 48
1.0
  6
ByLayer
 10
-123.50833333333308
 20
-125.00000000000001
 30
0.0
 11
-123.50833333333308
 21
-129.77999999999997
 31
0.0
  0
ARC
  5
9B
100
AcDbEntity
  8
0
 62
256
370
-1
 48
1.0
  6
ByLayer
100
AcDbCircle
 10
-127.93333333333304
 20
-132.28000000000003
 30
0.0
 40
0.2499999999999218
100
AcDbArc
 50
90.000000000013031
 51
0.0
  0
LINE
  5
9C
100
AcDbEntity
100
AcDbLine
  8
0
 62
256
370
-1
 48
1.0
  6
ByLayer
 10
-126.6583333333331
 20
-132.28000000000006
 30
0.0
 11
-127.68333333333311
 21
-132.27999999999997
 31
0.0
  0
ARC
  5
9D
100
AcDbEntity
  8
0
 62
256
370
-1
 48
1.0
  6
ByLayer
100
AcDbCircle
 10
-127.93333333333314
 20
-129.77999999999997
 30
0.0
 40
0.2500000000000568
100
AcDbArc
 50
0.0
 51
270.00000000001302
  0
LINE
  5
9E
100
AcDbEntity
100
AcDbLine
  8
0
 62
256
370
-1
 48
1.0
  6
ByLayer
 10
-127.9333333333331
 20
-132.03000000000011
 30
0.0
 11
-127.93333333333308
 21
-130.03000000000003
 31
0.0
  0
LINE
  5
9F
100
AcDbEntity
100
AcDbLine
  8
0
 62
256
370
-1
 48
1.0
  6
ByLayer
 10
-123.50833333333308
 20
-132.27999999999992
 30
0.0
 11
-123.50833333333308
 21
-133.28000000000003
 31
0.0
  0
LINE
  5
A0
100
AcDbEntity
100
AcDbLine
  8
0
 62
256
370
-1
 48
1.0
  6
ByLayer
 10
-122.48333333333309
 20
-132.27999999999994
 30
0.0
 11
-123.50833333333308
 21
-132.27999999999992
 31
0.0
  0
LINE
  5
A1
100
AcDbEntity
100
AcDbLine
  8
0
 62
256
370
-1
 48
1.0
  6
ByLayer
 10
-126.6583333333331
 20
-133.27999999999994
 30
0.0
 11
-126.6583333333331
 21
-132.28000000000006
 31
0.0
  0
LINE
  5
A2
100
AcDbEntity
100
AcDbLine
  8
0
 62
256
370
-1
 48
1.0
  6
ByLayer
 10
-123.50833333333308
 20
-133.28000000000003
 30
0.0
 11
-126.6583333333331
 21
-133.27999999999994
 31
0.0
  0
ARC
  5
A3
100
AcDbEntity
  8
0
 62
256
370
-1
 48
1.0
  6
ByLayer
100
AcDbCircle
 10
-169.24999999999977
 20
-129.28
 30
0.0
 40
0.25
100
AcDbArc
 50
270.0
 51
180.0
  0
LINE
  5
A4
100
AcDbEntity
100
AcDbLine
  8
0
 62
256
370
-1
 48
1.0
  6
ByLayer
 10
-170.59999999999977
 20
-129.28
 30
0.0
 11
-169.49999999999977
 21
-129.28
 31
0.0
  0
ARC
  5
A5
100
AcDbEntity
  8
0
 62
256
370
-1
 48
1.0
  6
ByLayer
100
AcDbCircle
 10
-169.2499999999998
 20
-132.27999999999997
 30
0.0
 40
0.2499999999999858
100
AcDbArc
 50
180.0
 51
89.999999999993491
  0
LINE
  5
A6
100
AcDbEntity
100
AcDbLine
  8
0
 62
256
370
-1
 48
1.0
  6
ByLayer
 10
-169.24999999999977
 20
-129.53
 30
0.0
 11
-169.24999999999977
 21
-132.03
 31
0.0
  0
LINE
  5
A7
100
AcDbEntity
100
AcDbLine
  8
0
 62
256
370
-1
 48
1.0
  6
ByLayer
 10
-126.6583333333331
 20
-129.77999999999994
 30
0.0
 11
-126.6583333333331
 21
-125.00000000000001
 31
0.0
  0
LINE
  5
A8
100
AcDbEntity
100
AcDbLine
  8
0
 62
256
370
-1
 48
1.0
  6
ByLayer
 10
-127.68333333333308
 20
-129.77999999999992
 30
0.0
 11
-126.6583333333331
 21
-129.77999999999994
 31
0.0
  0
LINE
  5
A9
100
AcDbEntity
100
AcDbLine
  8
0
 62
256
370
-1
 48
1.0
  6
ByLayer
 10
-170.59999999999977
 20
-125.0
 30
0.0
 11
-170.59999999999977
 21
-129.28
 31
0.0
  0
ARC
  5
AA
100
AcDbEntity
  8
0
 62
256
370
-1
 48
1.0
  6
ByLayer
100
AcDbCircle
 10
-175.24999999999977
 20
-132.28
 30
0.0
 40
0.25
100
AcDbArc
 50
90.0
 51
0.0
  0
LINE
  5
AB
100
AcDbEntity
100
AcDbLine
  8
0
 62
256
370
-1
 48
1.0
  6
ByLayer
 10
-173.89999999999978
 20
-132.28
 30
0.0
 11
-174.99999999999977
 21
-132.28
 31
0.0
  0
ARC
  5
AC
100
AcDbEntity
  8
0
 62
256
370
-1
 48
1.0
  6
ByLayer
100
AcDbCircle
 10
-175.24999999999977
 20
-129.28
 30
0.0
 40
0.25
100
AcDbArc
 50
0.0
 51
270.0
  0
LINE
  5
AD
100
AcDbEntity
100
AcDbLine
  8
0
 62
256
370
-1
 48
1.0
  6
ByLayer
 10
-175.24999999999977
 20
-132.03
 30
0.0
 11
-175.24999999999977
 21
-129.53
 31
0.0
  0
LINE
  5
AE
100
AcDbEntity
100
AcDbLine
  8
0
 62
256
370
-1
 48
1.0
  6
ByLayer
 10
-170.59999999999977
 20
-132.28
 30
0.0
 11
-170.59999999999977
 21
-134.28
 31
0.0
  0
LINE
  5
AF
100
AcDbEntity
100
AcDbLine
  8
0
 62
256
370
-1
 48
1.0
  6
ByLayer
 10
-169.49999999999977
 20
-132.27999999999997
 30
0.0
 11
-170.59999999999977
 21
-132.28
 31
0.0
  0
LINE
  5
B0
100
AcDbEntity
100
AcDbLine
  8
0
 62
256
370
-1
 48
1.0
  6
ByLayer
 10
-173.89999999999978
 20
-134.28
 30
0.0
 11
-173.89999999999978
 21
-132.28
 31
0.0
  0
LINE
  5
B1
100
AcDbEntity
100
AcDbLine
  8
0
 62
256
370
-1
 48
1.0
  6
ByLayer
 10
-170.59999999999977
 20
-134.28
 30
0.0
 11
-173.89999999999978
 21
-134.28
 31
0.0
  0
LINE
  5
B2
100
AcDbEntity
100
AcDbLine
  8
0
 62
256
370
-1
 48
1.0
  6
ByLayer
 10
-105.33333333333351
 20
395.0
 30
0.0
 11
-192.0
 21
395.0
 31
0.0
  0
LINE
  5
B3
100
AcDbEntity
100
AcDbLine
  8
0
 62
256
370
-1
 48
1.0
  6
ByLayer
 10
-105.33333333333351
 20
388.27999999999992
 30
0.0
 11
-105.33333333333351
 21
395.0
 31
0.0
  0
LINE
  5
B4
100
AcDbEntity
100
AcDbLine
  8
0
 62
256
370
-1
 48
1.0
  6
ByLayer
 10
-192.0
 20
100.0
 30
0.0
 11
-185.28
 21
100.0
 31
0.0
  0
LINE
  5
B5
100
AcDbEntity
100
AcDbLine
  8
0
 62
256
370
-1
 48
1.0
  6
ByLayer
 10
-192.0
 20
395.0
 30
0.0
 11
-192.0
 21
100.0
 31
0.0
  0
LINE
  5
B6
100
AcDbEntity
100
AcDbLine
  8
0
 62
256
370
-1
 48
1.0
  6
ByLayer
 10
68.0
 20
395.0
 30
0.0
 11
-18.666666666666856
 21
395.0
 31
0.0
  0
LINE
  5
B7
100
AcDbEntity
100
AcDbLine
  8
0
 62
256
370
-1
 48
1.0
  6
ByLayer
 10
68.0
 20
100.0
 30
0.0
 11
68.0
 21
395.0
 31
0.0
  0
LINE
  5
B8
100
AcDbEntity
100
AcDbLine
  8
0
 62
256
370
-1
 48
1.0
  6
ByLayer
 10
-18.666666666666856
 20
388.27999999999992
 30
0.0
 11
-105.33333333333351
 21
388.27999999999992
 31
0.0
  0
LINE
  5
B9
100
AcDbEntity
100
AcDbLine
  8
0
 62
256
370
-1
 48
1.0
  6
ByLayer
 10
-18.666666666666856
 20
395.0
 30
0.0
 11
-18.666666666666856
 21
388.27999999999992
 31
0.0
  0
ARC
  5
BA
100
AcDbEntity
  8
0
 62
256
370
-1
 48
1.0
  6
ByLayer
100
AcDbCircle
 10
-169.24999999999977
 20
-189.15999999999997
 30
0.0
 40
0.2500000000000284
100
AcDbArc
 50
180.0
 51
90.0
  0
LINE
  5
BB
100
AcDbEntity
100
AcDbLine
  8
0
 62
256
370
-1
 48
1.0
  6
ByLayer
 10
-169.24999999999977
 20
-186.40999999999997
 30
0.0
 11
-169.24999999999977
 21
-188.90999999999994
 31
0.0
  0
LINE
  5
BC
100
AcDbEntity
100
AcDbLine
  8
0
 62
256
370
-1
 48
1.0
  6
ByLayer
 10
-170.59999999999977
 20
-189.15999999999997
 30
0.0
 11
-170.59999999999982
 21
-193.43999999999997
 31
0.0
  0
LINE
  5
BD
100
AcDbEntity
100
AcDbLine
  8
0
 62
256
370
-1
 48
1.0
  6
ByLayer
 10
-169.4999999999998
 20
-189.15999999999997
 30
0.0
 11
-170.59999999999977
 21
-189.15999999999997
 31
0.0
  0
LINE
  5
BE
100
AcDbEntity
100
AcDbLine
  8
0
 62
256
370
-1
 48
1.0
  6
ByLayer
 10
-170.59999999999977
 20
-184.15999999999994
 30
0.0
 11
-170.59999999999977
 21
-186.15999999999997
 31
0.0
  0
LINE
  5
BF
100
AcDbEntity
100
AcDbLine
  8
0
 62
256
370
-1
 48
1.0
  6
ByLayer
 10
-173.89999999999978
 20
-184.15999999999997
 30
0.0
 11
-170.59999999999977
 21
-184.15999999999994
 31
0.0
  0
ARC
  5
C0
100
AcDbEntity
  8
0
 62
256
370
-1
 48
1.0
  6
ByLayer
100
AcDbCircle
 10
-169.24999999999977
 20
-186.15999999999997
 30
0.0
 40
0.25
100
AcDbArc
 50
270.0
 51
180.0
  0
LINE
  5
C1
100
AcDbEntity
100
AcDbLine
  8
0
 62
256
370
-1
 48
1.0
  6
ByLayer
 10
-170.59999999999977
 20
-186.15999999999997
 30
0.0
 11
-169.49999999999977
 21
-186.15999999999997
 31
0.0
  0
ARC
  5
C2
100
AcDbEntity
  8
0
 62
256
370
-1
 48
1.0
  6
ByLayer
100
AcDbCircle
 10
-127.93333333333311
 20
-186.15999999999997
 30
0.0
 40
0.2500000000000071
100
AcDbArc
 50
0.0
 51
269.99999999999676
  0
LINE
  5
C3
100
AcDbEntity
100
AcDbLine
  8
0
 62
256
370
-1
 48
1.0
  6
ByLayer
 10
-127.93333333333311
 20
-188.41
 30
0.0
 11
-127.93333333333312
 21
-186.40999999999997
 31
0.0
  0
LINE
  5
C4
100
AcDbEntity
100
AcDbLine
  8
0
 62
256
370
-1
 48
1.0
  6
ByLayer
 10
-126.65833333333312
 20
-186.16
 30
0.0
 11
-126.6583333333331
 21
-185.15999999999997
 31
0.0
  0
LINE
  5
C5
100
AcDbEntity
100
AcDbLine
  8
0
 62
256
370
-1
 48
1.0
  6
ByLayer
 10
-127.68333333333311
 20
-186.15999999999997
 30
0.0
 11
-126.65833333333312
 21
-186.16
 31
0.0
  0
LINE
  5
C6
100
AcDbEntity
100
AcDbLine
  8
0
 62
256
370
-1
 48
1.0
  6
ByLayer
 10
-126.65833333333308
 20
-193.43999999999994
 30
0.0
 11
-126.6583333333331
 21
-188.65999999999997
 31
0.0
  0
ARC
  5
C7
100
AcDbEntity
  8
0
 62
256
370
-1
 48
1.0
  6
ByLayer
100
AcDbCircle
 10
-127.9333333333331
 20
-188.65999999999997
 30
0.0
 40
0.2499999999999929
100
AcDbArc
 50
90.000000000003254
 51
0.0
  0
LINE
  5
C8
100
AcDbEntity
100
AcDbLine
  8
0
 62
256
370
-1
 48
1.0
  6
ByLayer
 10
-126.6583333333331
 20
-188.65999999999997
 30
0.0
 11
-127.6833333333331
 21
-188.65999999999997
 31
0.0
  0
ARC
  5
C9
100
AcDbEntity
  8
0
 62
256
370
-1
 48
1.0
  6
ByLayer
100
AcDbCircle
 10
-122.23333333333308
 20
-188.66
 30
0.0
 40
0.2500000000000426
100
AcDbArc
 50
180.0
 51
89.999999999996746
  0
LINE
  5
CA
100
AcDbEntity
100
AcDbLine
  8
0
 62
256
370
-1
 48
1.0
  6
ByLayer
 10
-122.23333333333311
 20
-186.41
 30
0.0
 11
-122.23333333333306
 21
-188.40999999999997
 31
0.0
  0
LINE
  5
CB
100
AcDbEntity
100
AcDbLine
  8
0
 62
256
370
-1
 48
1.0
  6
ByLayer
 10
-123.50833333333307
 20
-188.65999999999997
 30
0.0
 11
-123.50833333333307
 21
-193.43999999999994
 31
0.0
  0
LINE
  5
CC
100
AcDbEntity
100
AcDbLine
  8
0
 62
256
370
-1
 48
1.0
  6
ByLayer
 10
-122.48333333333312
 20
-188.66
 30
0.0
 11
-123.50833333333307
 21
-188.65999999999997
 31
0.0
  0
LINE
  5
CD
100
AcDbEntity
100
AcDbLine
  8
0
 62
256
370
-1
 48
1.0
  6
ByLayer
 10
-123.5083333333331
 20
-185.16
 30
0.0
 11
-123.50833333333307
 21
-186.15999999999997
 31
0.0
  0
LINE
  5
CE
100
AcDbEntity
100
AcDbLine
  8
0
 62
256
370
-1
 48
1.0
  6
ByLayer
 10
-126.6583333333331
 20
-185.15999999999997
 30
0.0
 11
-123.5083333333331
 21
-185.16
 31
0.0
  0
ARC
  5
CF
100
AcDbEntity
  8
0
 62
256
370
-1
 48
1.0
  6
ByLayer
100
AcDbCircle
 10
-122.23333333333309
 20
-186.15999999999997
 30
0.0
 40
0.2500000000000142
100
AcDbArc
 50
269.99999999999676
 51
180.0
  0
LINE
  5
D0
100
AcDbEntity
100
AcDbLine
  8
0
 62
256
370
-1
 48
1.0
  6
ByLayer
 10
-123.50833333333307
 20
-186.15999999999997
 30
0.0
 11
-122.48333333333311
 21
-186.15999999999997
 31
0.0
  0
LINE
  5
D1
100
AcDbEntity
100
AcDbLine
  8
0
 62
256
370
-1
 48
1.0
  6
ByLayer
 10
-188.60603717535884
 20
-387.88000000001693
 30
0.0
 11
-189.58689066660548
 21
-331.68694112110484
 31
0.0
  0
LINE
  5
D2
100
AcDbEntity
100
AcDbLine
  8
0
 62
256
370
-1
 48
1.0
  6
ByLayer
 10
-166.32603717535881
 20
-387.88000000001693
 30
0.0
 11
-188.60603717535884
 21
-387.88000000001693
 31
0.0
  0
LINE
  5
D3
100
AcDbEntity
100
AcDbLine
  8
0
 62
256
370
-1
 48
1.0
  6
ByLayer
 10
-184.60603717535889
 20
-331.60000000001713
 30
0.0
 11
-171.16603717535892
 21
-331.60000000001713
 31
0.0
  0
LINE
  5
D4
100
AcDbEntity
100
AcDbLine
  8
0
 62
256
370
-1
 48
1.0
  6
ByLayer
 10
-189.58689066660548
 20
-331.68694112110484
 30
0.0
 11
-184.60603717535889
 21
-331.60000000001713
 31
0.0
  0
LINE
  5
D5
100
AcDbEntity
100
AcDbLine
  8
0
 62
256
370
-1
 48
1.0
  6
ByLayer
 10
-159.60603717535884
 20
-354.84000000001674
 30
0.0
 11
-159.60603717535875
 21
-348.12000000001694
 31
0.0
  0
LINE
  5
D6
100
AcDbEntity
100
AcDbLine
  8
0
 62
256
370
-1
 48
1.0
  6
ByLayer
 10
-159.01811335646454
 20
-361.560000000017
 30
0.0
 11
-159.60603717535884
 21
-354.84000000001674
 31
0.0
  0
LINE
  5
D7
100
AcDbEntity
100
AcDbLine
  8
0
 62
256
370
-1
 48
1.0
  6
ByLayer
 10
-166.32603717535895
 20
-348.12000000001694
 30
0.0
 11
-166.32603717535881
 21
-387.88000000001693
 31
0.0
  0
LINE
  5
D8
100
AcDbEntity
100
AcDbLine
  8
0
 62
256
370
-1
 48
1.0
  6
ByLayer
 10
-159.60603717535875
 20
-348.12000000001694
 30
0.0
 11
-166.32603717535895
 21
-348.12000000001694
 31
0.0
  0
LINE
  5
D9
100
AcDbEntity
100
AcDbLine
  8
0
 62
256
370
-1
 48
1.0
  6
ByLayer
 10
-173.10603717535881
 20
-315.04833333335017
 30
0.0
 11
-173.10603717535886
 21
-316.07333333335021
 31
0.0
  0
LINE
  5
DA
100
AcDbEntity
100
AcDbLine
  8
0
 62
256
370
-1
 48
1.0
  6
ByLayer
 10
-177.88603717535878
 20
-315.04833333335023
 30
0.0
 11
-173.10603717535881
 21
-315.04833333335017
 31
0.0
  0
LINE
  5
DB
100
AcDbEntity
100
AcDbLine
  8
0
 62
256
370
-1
 48
1.0
  6
ByLayer
 10
-172.85603717535886
 20
-316.32333333335021
 30
0.0
 11
-170.85603717535878
 21
-316.32333333335021
 31
0.0
  0
ARC
  5
DC
100
AcDbEntity
  8
0
 62
256
370
-1
 48
1.0
  6
ByLayer
100
AcDbCircle
 10
-173.10603717535886
 20
-316.32333333335021
 30
0.0
 40
0.25
100
AcDbArc
 50
90.0
 51
0.0
  0
LINE
  5
DD
100
AcDbEntity
100
AcDbLine
  8
0
 62
256
370
-1
 48
1.0
  6
ByLayer
 10
-171.16603717535878
 20
-324.88000000001716
 30
0.0
 11
-175.88603717535887
 21
-324.88000000001711
 31
0.0
  0
LINE
  5
DE
100
AcDbEntity
100
AcDbLine
  8
0
 62
256
370
-1
 48
1.0
  6
ByLayer
 10
-171.16603717535892
 20
-331.60000000001713
 30
0.0
 11
-171.16603717535878
 21
-324.88000000001716
 31
0.0
  0
LINE
  5
DF
100
AcDbEntity
100
AcDbLine
  8
0
 62
256
370
-1
 48
1.0
  6
ByLayer
 10
-177.88603717535881
 20
-322.88000000001716
 30
0.0
 11
-177.88603717535878
 21
-315.04833333335023
 31
0.0
  0
ARC
  5
E0
100
AcDbEntity
  8
0
 62
256
370
-1
 48
1.0
  6
ByLayer
100
AcDbCircle
 10
-175.88603717535887
 20
-322.88000000001716
 30
0.0
 40
1.9999999999999432
100
AcDbArc
 50
180.0
 51
270.0
  0
LINE
  5
E1
100
AcDbEntity
100
AcDbLine
  8
0
 62
256
370
-1
 48
1.0
  6
ByLayer
 10
-170.60603717535886
 20
-311.89833333335014
 30
0.0
 11
-170.60603717535884
 21
-310.87333333335016
 31
0.0
  0
LINE
  5
E2
100
AcDbEntity
100
AcDbLine
  8
0
 62
256
370
-1
 48
1.0
  6
ByLayer
 10
-169.60603717535884
 20
-311.89833333335019
 30
0.0
 11
-170.60603717535886
 21
-311.89833333335014
 31
0.0
  0
LINE
  5
E3
100
AcDbEntity
100
AcDbLine
  8
0
 62
256
370
-1
 48
1.0
  6
ByLayer
 10
-170.85603717535884
 20
-310.62333333335016
 30
0.0
 11
-172.85603717535889
 21
-310.62333333335016
 31
0.0
  0
ARC
  5
E4
100
AcDbEntity
  8
0
 62
256
370
-1
 48
1.0
  6
ByLayer
100
AcDbCircle
 10
-170.60603717535884
 20
-310.62333333335016
 30
0.0
 40
0.25
100
AcDbArc
 50
270.0
 51
180.0
  0
LINE
  5
E5
100
AcDbEntity
100
AcDbLine
  8
0
 62
256
370
-1
 48
1.0
  6
ByLayer
 10
-170.60603717535884
 20
-316.07333333335021
 30
0.0
 11
-170.60603717535878
 21
-315.04833333335023
 31
0.0
  0
ARC
  5
E6
100
AcDbEntity
  8
0
 62
256
370
-1
 48
1.0
  6
ByLayer
100
AcDbCircle
 10
-170.60603717535881
 20
-316.32333333335015
 30
0.0
 40
0.2499999999999716
100
AcDbArc
 50
180.0
 51
90.000000000006509
  0
LINE
  5
E7
100
AcDbEntity
100
AcDbLine
  8
0
 62
256
370
-1
 48
1.0
  6
ByLayer
 10
-169.60603717535878
 20
-315.04833333335023
 30
0.0
 11
-169.60603717535884
 21
-311.89833333335019
 31
0.0
  0
LINE
  5
E8
100
AcDbEntity
100
AcDbLine
  8
0
 62
256
370
-1
 48
1.0
  6
ByLayer
 10
-170.60603717535878
 20
-315.04833333335023
 30
0.0
 11
-169.60603717535878
 21
-315.04833333335023
 31
0.0
  0
LINE
  5
E9
100
AcDbEntity
100
AcDbLine
  8
0
 62
256
370
-1
 48
1.0
  6
ByLayer
 10
-184.60603717535886
 20
-305.06666666668383
 30
0.0
 11
-184.60603717535889
 21
-279.25333333335044
 31
0.0
  0
LINE
  5
EA
100
AcDbEntity
100
AcDbLine
  8
0
 62
256
370
-1
 48
1.0
  6
ByLayer
 10
-177.88603717535881
 20
-305.06666666668383
 30
0.0
 11
-184.60603717535886
 21
-305.06666666668383
 31
0.0
  0
LINE
  5
EB
100
AcDbEntity
100
AcDbLine
  8
0
 62
256
370
-1
 48
1.0
  6
ByLayer
 10
-177.88603717535884
 20
-279.2533333333505
 30
0.0
 11
-177.88603717535884
 21
-269.42166666668385
 31
0.0
  0
LINE
  5
EC
100
AcDbEntity
100
AcDbLine
  8
0
 62
256
370
-1
 48
1.0
  6
ByLayer
 10
-184.60603717535889
 20
-279.25333333335044
 30
0.0
 11
-177.88603717535884
 21
-279.2533333333505
 31
0.0
  0
LINE
  5
ED
100
AcDbEntity
100
AcDbLine
  8
0
 62
256
370
-1
 48
1.0
  6
ByLayer
 10
-173.10603717535884
 20
-310.87333333335022
 30
0.0
 11
-173.10603717535881
 21
-311.89833333335019
 31
0.0
  0
ARC
  5
EE
100
AcDbEntity
  8
0
 62
256
370
-1
 48
1.0
  6
ByLayer
100
AcDbCircle
 10
-173.10603717535889
 20
-310.62333333335016
 30
0.0
 40
0.25
100
AcDbArc
 50
0.0
 51
270.00000000001302
  0
LINE
  5
EF
100
AcDbEntity
100
AcDbLine
  8
0
 62
256
370
-1
 48
1.0
  6
ByLayer
 10
-177.88603717535881
 20
-311.89833333335019
 30
0.0
 11
-177.88603717535881
 21
-305.06666666668383
 31
0.0
  0
LINE
  5
F0
100
AcDbEntity
100
AcDbLine
  8
0
 62
256
370
-1
 48
1.0
  6
ByLayer
 10
-173.10603717535881
 20
-311.89833333335019
 30
0.0
 11
-177.88603717535881
 21
-311.89833333335019
 31
0.0
  0
LINE
  5
F1
100
AcDbEntity
100
AcDbLine
  8
0
 62
256
370
-1
 48
1.0
  6
ByLayer
 10
-191.99999999999977
 20
-125.0
 30
0.0
 11
-105.33333333333323
 21
-125.0
 31
0.0
  0
LINE
  5
F2
100
AcDbEntity
100
AcDbLine
  8
0
 62
256
370
-1
 48
1.0
  6
ByLayer
 10
-185.28
 20
100.0
 30
0.0
 11
-185.27999999999992
 21
-125.0
 31
0.0
  0
LINE
  5
F3
100
AcDbEntity
100
AcDbLine
  8
0
 62
256
370
-1
 48
1.0
  6
ByLayer
 10
-105.33333333333323
 20
-125.0
 30
0.0
 11
-105.33333333333323
 21
-118.27999999999997
 31
0.0
  0
LINE
  5
F4
100
AcDbEntity
100
AcDbLine
  8
0
 62
256
370
-1
 48
1.0
  6
ByLayer
 10
-171.16603717535884
 20
-249.72000000001719
 30
0.0
 11
-184.60603717535886
 21
-249.72000000001719
 31
0.0
  0
LINE
  5
F5
100
AcDbEntity
100
AcDbLine
  8
0
 62
256
370
-1
 48
1.0
  6
ByLayer
 10
-171.16603717535887
 20
-256.44000000001716
 30
0.0
 11
-171.16603717535884
 21
-249.72000000001719
 31
0.0
  0
LINE
  5
F6
100
AcDbEntity
100
AcDbLine
  8
0
 62
256
370
-1
 48
1.0
  6
ByLayer
 10
-191.01567606160609
 20
-249.83188066294309
 30
0.0
 11
-191.99999999999994
 21
-193.44000000001699
 31
0.0
  0
LINE
  5
F7
100
AcDbEntity
100
AcDbLine
  8
0
 62
256
370
-1
 48
1.0
  6
ByLayer
 10
-184.60603717535886
 20
-249.72000000001719
 30
0.0
 11
-191.01567606160609
 21
-249.83188066294309
 31
0.0
  0
LINE
  5
F8
100
AcDbEntity
100
AcDbLine
  8
0
 62
256
370
-1
 48
1.0
  6
ByLayer
 10
-175.88603717535887
 20
-256.44000000001716
 30
0.0
 11
-171.16603717535887
 21
-256.44000000001716
 31
0.0
  0
ARC
  5
F9
100
AcDbEntity
  8
0
 62
256
370
-1
 48
1.0
  6
ByLayer
100
AcDbCircle
 10
-175.88603717535887
 20
-258.44000000001716
 30
0.0
 40
2.0
100
AcDbArc
 50
90.0
 51
180.0
  0
LINE
  5
FA
100
AcDbEntity
100
AcDbLine
  8
0
 62
256
370
-1
 48
1.0
  6
ByLayer
 10
-159.0181133564646
 20
-219.76000000001727
 30
0.0
 11
-135.10603717535889
 21
-219.76000000001727
 31
0.0
  0
LINE
  5
FB
100
AcDbEntity
100
AcDbLine
  8
0
 62
256
370
-1
 48
1.0
  6
ByLayer
 10
-159.60603717535886
 20
-226.48000000001778
 30
0.0
 11
-159.0181133564646
 21
-219.76000000001727
 31
0.0
  0
LINE
  5
FC
100
AcDbEntity
100
AcDbLine
  8
0
 62
256
370
-1
 48
1.0
  6
ByLayer
 10
-135.10603717535892
 20
-361.560000000017
 30
0.0
 11
-159.01811335646454
 21
-361.560000000017
 31
0.0
  0
LINE
  5
FD
100
AcDbEntity
100
AcDbLine
  8
0
 62
256
370
-1
 48
1.0
  6
ByLayer
 10
-166.32603717535898
 20
-193.44000000001736
 30
0.0
 11
-166.32603717535889
 21
-233.20000000001741
 31
0.0
  0
LINE
  5
FE
100
AcDbEntity
100
AcDbLine
  8
0
 62
256
370
-1
 48
1.0
  6
ByLayer
 10
-191.99999999999994
 20
-193.44000000001699
 30
0.0
 11
-126.65833333333308
 21
-193.43999999999994
 31
0.0
  0
LINE
  5
FF
100
AcDbEntity
100
AcDbLine
  8
0
 62
256
370
-1
 48
1.0
  6
ByLayer
 10
-159.60603717535886
 20
-233.20000000001738
 30
0.0
 11
-159.60603717535886
 21
-226.48000000001778
 31
0.0
  0
LINE
  5
100
100
AcDbEntity
100
AcDbLine
  8
0
 62
256
370
-1
 48
1.0
  6
ByLayer
 10
-166.32603717535889
 20
-233.20000000001741
 30
0.0
 11
-159.60603717535886
 21
-233.20000000001738
 31
0.0
  0
LINE
  5
101
100
AcDbEntity
100
AcDbLine
  8
0
 62
256
370
-1
 48
1.0
  6
ByLayer
 10
89.098962824641035
 20
-386.88000000000034
 30
0.0
 11
89.098962824641035
 21
-382.10000000000036
 31
0.0
  0
LINE
  5
102
100
AcDbEntity
100
AcDbLine
  8
0
 62
256
370
-1
 48
1.0
  6
ByLayer
 10
43.92396282464108
 20
-386.88000000000034
 30
0.0
 11
89.098962824641035
 21
-386.88000000000034
 31
0.0
  0
ARC
  5
103
100
AcDbEntity
  8
0
 62
256
370
-1
 48
1.0
  6
ByLayer
100
AcDbCircle
 10
87.823962824641058
 20
-382.10000000000036
 30
0.0
 40
0.25
100
AcDbArc
 50
90.0
 51
0.0
  0
LINE
  5
104
100
AcDbEntity
100
AcDbLine
  8
0
 62
256
370
-1
 48
1.0
  6
ByLayer
 10
89.098962824641035
 20
-382.10000000000036
 30
0.0
 11
88.073962824641058
 21
-382.10000000000036
 31
0.0
  0
LINE
  5
105
100
AcDbEntity
100
AcDbLine
  8
0
 62
256
370
-1
 48
1.0
  6
ByLayer
 10
33.92396282464108
 20
-386.88000000000034
 30
0.0
 11
33.92396282464108
 21
-393.60000000000036
 31
0.0
  0
LINE
  5
106
100
AcDbEntity
100
AcDbLine
  8
0
 62
256
370
-1
 48
1.0
  6
ByLayer
 10
23.248962824641126
 20
-386.88000000000034
 30
0.0
 11
33.92396282464108
 21
-386.88000000000034
 31
0.0
  0
LINE
  5
107
100
AcDbEntity
100
AcDbLine
  8
0
 62
256
370
-1
 48
1.0
  6
ByLayer
 10
43.92396282464108
 20
-393.60000000000036
 30
0.0
 11
43.92396282464108
 21
-386.88000000000034
 31
0.0
  0
LINE
  5
108
100
AcDbEntity
100
AcDbLine
  8
0
 62
256
370
-1
 48
1.0
  6
ByLayer
 10
33.92396282464108
 20
-393.60000000000036
 30
0.0
 11
43.92396282464108
 21
-393.60000000000036
 31
0.0
  0
LINE
  5
109
100
AcDbEntity
100
AcDbLine
  8
0
 62
256
370
-1
 48
1.0
  6
ByLayer
 10
92.248962824641126
 20
-378.60000000000036
 30
0.0
 11
92.248962824641126
 21
-379.60000000000036
 31
0.0
  0
LINE
  5
10A
100
AcDbEntity
100
AcDbLine
  8
0
 62
256
370
-1
 48
1.0
  6
ByLayer
 10
89.098962824641035
 20
-378.60000000000036
 30
0.0
 11
92.248962824641126
 21
-378.60000000000036
 31
0.0
  0
ARC
  5
10B
100
AcDbEntity
  8
0
 62
256
370
-1
 48
1.0
  6
ByLayer
100
AcDbCircle
 10
93.523962824641103
 20
-379.60000000000036
 30
0.0
 40
0.25
100
AcDbArc
 50
270.0
 51
180.0
  0
LINE
  5
10C
100
AcDbEntity
100
AcDbLine
  8
0
 62
256
370
-1
 48
1.0
  6
ByLayer
 10
92.248962824641126
 20
-379.60000000000036
 30
0.0
 11
93.273962824641103
 21
-379.60000000000036
 31
0.0
  0
ARC
  5
10D
100
AcDbEntity
  8
0
 62
256
370
-1
 48
1.0
  6
ByLayer
100
AcDbCircle
 10
87.823962824641058
 20
-379.60000000000036
 30
0.0
 40
0.25
100
AcDbArc
 50
0.0
 51
270.0
  0
LINE
  5
10E
100
AcDbEntity
100
AcDbLine
  8
0
 62
256
370
-1
 48
1.0
  6
ByLayer
 10
87.823962824641058
 20
-381.85000000000036
 30
0.0
 11
87.823962824641058
 21
-379.85000000000036
 31
0.0
  0
LINE
  5
10F
100
AcDbEntity
100
AcDbLine
  8
0
 62
256
370
-1
 48
1.0
  6
ByLayer
 10
89.098962824641035
 20
-379.60000000000036
 30
0.0
 11
89.098962824641035
 21
-378.60000000000036
 31
0.0
  0
LINE
  5
110
100
AcDbEntity
100
AcDbLine
  8
0
 62
256
370
-1
 48
1.0
  6
ByLayer
 10
88.073962824641058
 20
-379.60000000000036
 30
0.0
 11
89.098962824641035
 21
-379.60000000000036
 31
0.0
  0
LINE
  5
111
100
AcDbEntity
100
AcDbLine
  8
0
 62
256
370
-1
 48
1.0
  6
ByLayer
 10
92.248962824641126
 20
-386.88000000000034
 30
0.0
 11
109.45396282464105
 21
-386.88000000000034
 31
0.0
  0
LINE
  5
112
100
AcDbEntity
100
AcDbLine
  8
0
 62
256
370
-1
 48
1.0
  6
ByLayer
 10
34.79896282464108
 20
-336.88000000000034
 30
0.0
 11
34.79896282464108
 21
-344.38000000000034
 31
0.0
  0
ARC
  5
113
100
AcDbEntity
  8
0
 62
256
370
-1
 48
1.0
  6
ByLayer
100
AcDbCircle
 10
93.523962824641103
 20
-382.10000000000036
 30
0.0
 40
0.25
100
AcDbArc
 50
180.0
 51
90.0
  0
LINE
  5
114
100
AcDbEntity
100
AcDbLine
  8
0
 62
256
370
-1
 48
1.0
  6
ByLayer
 10
93.523962824641103
 20
-379.85000000000036
 30
0.0
 11
93.523962824641103
 21
-381.85000000000036
 31
0.0
  0
LINE
  5
115
100
AcDbEntity
100
AcDbLine
  8
0
 62
256
370
-1
 48
1.0
  6
ByLayer
 10
92.248962824641126
 20
-382.10000000000036
 30
0.0
 11
92.248962824641126
 21
-386.88000000000034
 31
0.0
  0
LINE
  5
116
100
AcDbEntity
100
AcDbLine
  8
0
 62
256
370
-1
 48
1.0
  6
ByLayer
 10
93.273962824641103
 20
-382.10000000000036
 30
0.0
 11
92.248962824641126
 21
-382.10000000000036
 31
0.0
  0
LINE
  5
117
100
AcDbEntity
100
AcDbLine
  8
0
 62
256
370
-1
 48
1.0
  6
ByLayer
 10
-60.45103717535892
 20
-344.38000000000034
 30
0.0
 11
-60.45103717535892
 21
-336.88000000000034
 31
0.0
  0
ARC
  5
118
100
AcDbEntity
  8
0
 62
256
370
-1
 48
1.0
  6
ByLayer
100
AcDbCircle
 10
-57.82603717535892
 20
-344.38000000000034
 30
0.0
 40
2.625
100
AcDbArc
 50
180.0
 51
0.0
  0
LINE
  5
119
100
AcDbEntity
100
AcDbLine
  8
0
 62
256
370
-1
 48
1.0
  6
ByLayer
 10
109.45396282464114
 20
-336.88000000000056
 30
0.0
 11
-135.10603717535889
 21
-336.88000000000034
 31
0.0
  0
LINE
  5
11A
100
AcDbEntity
100
AcDbLine
  8
0
 62
256
370
-1
 48
1.0
  6
ByLayer
 10
29.54896282464108
 20
-344.38000000000034
 30
0.0
 11
29.54896282464108
 21
-336.88000000000034
 31
0.0
  0
ARC
  5
11B
100
AcDbEntity
  8
0
 62
256
370
-1
 48
1.0
  6
ByLayer
100
AcDbCircle
 10
32.17396282464108
 20
-344.38000000000034
 30
0.0
 40
2.625
100
AcDbArc
 50
180.0
 51
0.0
  0
LINE
  5
11C
100
AcDbEntity
100
AcDbLine
  8
0
 62
256
370
-1
 48
1.0
  6
ByLayer
 10
-55.20103717535892
 20
-336.88000000000034
 30
0.0
 11
-55.20103717535892
 21
-344.38000000000034
 31
0.0
  0
ARC
  5
11D
100
AcDbEntity
  8
0
 62
256
370
-1
 48
1.0
  6
ByLayer
100
AcDbCircle
 10
18.823962824641058
 20
-379.60000000000036
 30
0.0
 40
0.25
100
AcDbArc
 50
0.0
 51
270.0
  0
LINE
  5
11E
100
AcDbEntity
100
AcDbLine
  8
0
 62
256
370
-1
 48
1.0
  6
ByLayer
 10
18.823962824641058
 20
-381.85000000000036
 30
0.0
 11
18.823962824641058
 21
-379.85000000000036
 31
0.0
  0
LINE
  5
11F
100
AcDbEntity
100
AcDbLine
  8
0
 62
256
370
-1
 48
1.0
  6
ByLayer
 10
20.098962824641035
 20
-379.60000000000036
 30
0.0
 11
20.098962824641035
 21
-378.60000000000036
 31
0.0
  0
LINE
  5
120
100
AcDbEntity
100
AcDbLine
  8
0
 62
256
370
-1
 48
1.0
  6
ByLayer
 10
19.073962824641058
 20
-379.60000000000036
 30
0.0
 11
20.098962824641035
 21
-379.60000000000036
 31
0.0
  0
LINE
  5
121
100
AcDbEntity
100
AcDbLine
  8
0
 62
256
370
-1
 48
1.0
  6
ByLayer
 10
20.098962824641148
 20
-386.88000000000034
 30
0.0
 11
20.098962824641035
 21
-382.10000000000036
 31
0.0
  0
LINE
  5
122
100
AcDbEntity
100
AcDbLine
  8
0
 62
256
370
-1
 48
1.0
  6
ByLayer
 10
-45.751037175358874
 20
-386.88000000000034
 30
0.0
 11
20.098962824641148
 21
-386.88000000000034
 31
0.0
  0
ARC
  5
123
100
AcDbEntity
  8
0
 62
256
370
-1
 48
1.0
  6
ByLayer
100
AcDbCircle
 10
18.823962824641058
 20
-382.10000000000036
 30
0.0
 40
0.25
100
AcDbArc
 50
90.0
 51
0.0
  0
LINE
  5
124
100
AcDbEntity
100
AcDbLine
  8
0
 62
256
370
-1
 48
1.0
  6
ByLayer
 10
20.098962824641035
 20
-382.10000000000036
 30
0.0
 11
19.073962824641058
 21
-382.10000000000036
 31
0.0
  0
ARC
  5
125
100
AcDbEntity
  8
0
 62
256
370
-1
 48
1.0
  6
ByLayer
100
AcDbCircle
 10
24.523962824641103
 20
-382.10000000000036
 30
0.0
 40
0.25
100
AcDbArc
 50
180.0
 51
90.0
  0
LINE
  5
126
100
AcDbEntity
100
AcDbLine
  8
0
 62
256
370
-1
 48
1.0
  6
ByLayer
 10
24.523962824641103
 20
-379.85000000000036
 30
0.0
 11
24.523962824641103
 21
-381.85000000000036
 31
0.0
  0
LINE
  5
127
100
AcDbEntity
100
AcDbLine
  8
0
 62
256
370
-1
 48
1.0
  6
ByLayer
 10
23.248962824641126
 20
-382.10000000000036
 30
0.0
 11
23.248962824641126
 21
-386.88000000000034
 31
0.0
  0
LINE
  5
128
100
AcDbEntity
100
AcDbLine
  8
0
 62
256
370
-1
 48
1.0
  6
ByLayer
 10
24.273962824641103
 20
-382.10000000000036
 30
0.0
 11
23.248962824641126
 21
-382.10000000000036
 31
0.0
  0
LINE
  5
129
100
AcDbEntity
100
AcDbLine
  8
0
 62
256
370
-1
 48
1.0
  6
ByLayer
 10
23.248962824641126
 20
-378.60000000000036
 30
0.0
 11
23.248962824641126
 21
-379.60000000000036
 31
0.0
  0
LINE
  5
12A
100
AcDbEntity
100
AcDbLine
  8
0
 62
256
370
-1
 48
1.0
  6
ByLayer
 10
20.098962824641035
 20
-378.60000000000036
 30
0.0
 11
23.248962824641126
 21
-378.60000000000036
 31
0.0
  0
ARC
  5
12B
100
AcDbEntity
  8
0
 62
256
370
-1
 48
1.0
  6
ByLayer
100
AcDbCircle
 10
24.523962824641103
 20
-379.60000000000036
 30
0.0
 40
0.25
100
AcDbArc
 50
270.0
 51
180.0
  0
LINE
  5
12C
100
AcDbEntity
100
AcDbLine
  8
0
 62
256
370
-1
 48
1.0
  6
ByLayer
 10
23.248962824641126
 20
-379.60000000000036
 30
0.0
 11
24.273962824641103
 21
-379.60000000000036
 31
0.0
  0
LINE
  5
12D
100
AcDbEntity
100
AcDbLine
  8
0
 62
256
370
-1
 48
1.0
  6
ByLayer
 10
-102.33333333333316
 20
-193.44000000000005
 30
0.0
 11
-102.3333333333331
 21
-200.16
 31
0.0
  0
LINE
  5
12E
100
AcDbEntity
100
AcDbLine
  8
0
 62
256
370
-1
 48
1.0
  6
ByLayer
 10
-123.50833333333307
 20
-193.43999999999994
 30
0.0
 11
-102.33333333333316
 21
-193.44000000000005
 31
0.0
  0
LINE
  5
12F
100
AcDbEntity
100
AcDbLine
  8
0
 62
256
370
-1
 48
1.0
  6
ByLayer
 10
-21.666666666666487
 20
-200.16
 30
0.0
 11
-21.66666666666643
 21
-193.43999999999994
 31
0.0
  0
LINE
  5
130
100
AcDbEntity
100
AcDbLine
  8
0
 62
256
370
-1
 48
1.0
  6
ByLayer
 10
-102.3333333333331
 20
-200.16
 30
0.0
 11
-21.666666666666487
 21
-200.16
 31
0.0
  0
ARC
  5
131
100
AcDbEntity
  8
0
 62
256
370
-1
 48
1.0
  6
ByLayer
100
AcDbCircle
 10
-44.476037175358897
 20
-382.10000000000036
 30
0.0
 40
0.25
100
AcDbArc
 50
180.0
 51
90.0
  0
LINE
  5
132
100
AcDbEntity
100
AcDbLine
  8
0
 62
256
370
-1
 48
1.0
  6
ByLayer
 10
-44.476037175358897
 20
-379.85000000000036
 30
0.0
 11
-44.476037175358897
 21
-381.85000000000036
 31
0.0
  0
LINE
  5
133
100
AcDbEntity
100
AcDbLine
  8
0
 62
256
370
-1
 48
1.0
  6
ByLayer
 10
-45.751037175358874
 20
-382.10000000000036
 30
0.0
 11
-45.751037175358874
 21
-386.88000000000034
 31
0.0
  0
LINE
  5
134
100
AcDbEntity
100
AcDbLine
  8
0
 62
256
370
-1
 48
1.0
  6
ByLayer
 10
-44.726037175358897
 20
-382.10000000000036
 30
0.0
 11
-45.751037175358874
 21
-382.10000000000036
 31
0.0
  0
ARC
  5
135
100
AcDbEntity
  8
0
 62
256
370
-1
 48
1.0
  6
ByLayer
100
AcDbCircle
 10
-1.7666666666664383
 20
-186.16000000000005
 30
0.0
 40
0.2499999999999858
100
AcDbArc
 50
0.0
 51
270.00000000000324
  0
LINE
  5
136
100
AcDbEntity
100
AcDbLine
  8
0
 62
256
370
-1
 48
1.0
  6
ByLayer
 10
-1.7666666666665094
 20
-188.41000000000008
 30
0.0
 11
-1.7666666666664241
 21
-186.41000000000003
 31
0.0
  0
LINE
  5
137
100
AcDbEntity
100
AcDbLine
  8
0
 62
256
370
-1
 48
1.0
  6
ByLayer
 10
-0.4916666666664753
 20
-186.16000000000003
 30
0.0
 11
-0.4916666666665037
 21
-185.16000000000011
 31
0.0
  0
LINE
  5
138
100
AcDbEntity
100
AcDbLine
  8
0
 62
256
370
-1
 48
1.0
  6
ByLayer
 10
-1.5166666666664526
 20
-186.16000000000003
 30
0.0
 11
-0.4916666666664753
 21
-186.16000000000003
 31
0.0
  0
LINE
  5
139
100
AcDbEntity
100
AcDbLine
  8
0
 62
256
370
-1
 48
1.0
  6
ByLayer
 10
-0.4916666666665037
 20
-193.44000000000011
 30
0.0
 11
-0.4916666666664469
 21
-188.65999999999997
 31
0.0
  0
LINE
  5
13A
100
AcDbEntity
100
AcDbLine
  8
0
 62
256
370
-1
 48
1.0
  6
ByLayer
 10
-21.66666666666643
 20
-193.43999999999994
 30
0.0
 11
-0.4916666666665037
 21
-193.44000000000011
 31
0.0
  0
ARC
  5
13B
100
AcDbEntity
  8
0
 62
256
370
-1
 48
1.0
  6
ByLayer
100
AcDbCircle
 10
-1.7666666666664668
 20
-188.66000000000005
 30
0.0
 40
0.2499999999999858
100
AcDbArc
 50
90.000000000009777
 51
0.0
  0
LINE
  5
13C
100
AcDbEntity
100
AcDbLine
  8
0
 62
256
370
-1
 48
1.0
  6
ByLayer
 10
-0.4916666666664469
 20
-188.65999999999997
 30
0.0
 11
-1.516666666666481
 21
-188.66000000000003
 31
0.0
  0
ARC
  5
13D
100
AcDbEntity
  8
0
 62
256
370
-1
 48
1.0
  6
ByLayer
100
AcDbCircle
 10
3.9333333333335077
 20
-188.66
 30
0.0
 40
0.25
100
AcDbArc
 50
180.0
 51
89.999999999986969
  0
LINE
  5
13E
100
AcDbEntity
100
AcDbLine
  8
0
 62
256
370
-1
 48
1.0
  6
ByLayer
 10
3.9333333333335361
 20
-186.41000000000011
 30
0.0
 11
3.9333333333335645
 21
-188.41
 31
0.0
  0
LINE
  5
13F
100
AcDbEntity
100
AcDbLine
  8
0
 62
256
370
-1
 48
1.0
  6
ByLayer
 10
2.6583333333335588
 20
-188.65999999999994
 30
0.0
 11
2.6583333333335588
 21
-193.43999999999986
 31
0.0
  0
LINE
  5
140
100
AcDbEntity
100
AcDbLine
  8
0
 62
256
370
-1
 48
1.0
  6
ByLayer
 10
3.6833333333335077
 20
-188.65999999999994
 30
0.0
 11
2.6583333333335588
 21
-188.65999999999994
 31
0.0
  0
LINE
  5
141
100
AcDbEntity
100
AcDbLine
  8
0
 62
256
370
-1
 48
1.0
  6
ByLayer
 10
2.6583333333335872
 20
-185.15999999999991
 30
0.0
 11
2.6583333333335304
 21
-186.16000000000003
 31
0.0
  0
LINE
  5
142
100
AcDbEntity
100
AcDbLine
  8
0
 62
256
370
-1
 48
1.0
  6
ByLayer
 10
-0.4916666666665037
 20
-185.16000000000011
 30
0.0
 11
2.6583333333335872
 21
-185.15999999999991
 31
0.0
  0
ARC
  5
143
100
AcDbEntity
  8
0
 62
256
370
-1
 48
1.0
  6
ByLayer
100
AcDbCircle
 10
3.9333333333336213
 20
-186.16000000000005
 30
0.0
 40
0.2500000000000568
100
AcDbArc
 50
269.99999999998045
 51
180.0
  0
LINE
  5
144
100
AcDbEntity
100
AcDbLine
  8
0
 62
256
370
-1
 48
1.0
  6
ByLayer
 10
2.6583333333335304
 20
-186.16000000000003
 30
0.0
 11
3.6833333333335645
 21
-186.15999999999997
 31
0.0
  0
ARC
  5
145
100
AcDbEntity
  8
0
 62
256
370
-1
 48
1.0
  6
ByLayer
100
AcDbCircle
 10
45.250000000000085
 20
-186.15999999999991
 30
0.0
 40
0.2500000000001705
100
AcDbArc
 50
0.0
 51
270.00000000002603
  0
LINE
  5
146
100
AcDbEntity
100
AcDbLine
  8
0
 62
256
370
-1
 48
1.0
  6
ByLayer
 10
45.250000000000199
 20
-188.91000000000014
 30
0.0
 11
45.250000000000199
 21
-186.41000000000008
 31
0.0
  0
LINE
  5
147
100
AcDbEntity
100
AcDbLine
  8
0
 62
256
370
-1
 48
1.0
  6
ByLayer
 10
46.600000000000165
 20
-186.16000000000014
 30
0.0
 11
46.600000000000193
 21
-184.15999999999997
 31
0.0
  0
LINE
  5
148
100
AcDbEntity
100
AcDbLine
  8
0
 62
256
370
-1
 48
1.0
  6
ByLayer
 10
45.500000000000256
 20
-186.1599999999998
 30
0.0
 11
46.600000000000165
 21
-186.16000000000014
 31
0.0
  0
LINE
  5
149
100
AcDbEntity
100
AcDbLine
  8
0
 62
256
370
-1
 48
1.0
  6
ByLayer
 10
46.600000000000136
 20
-193.44000000000023
 30
0.0
 11
46.600000000000222
 21
-189.15999999999997
 31
0.0
  0
LINE
  5
14A
100
AcDbEntity
100
AcDbLine
  8
0
 62
256
370
-1
 48
1.0
  6
ByLayer
 10
2.6583333333335588
 20
-193.43999999999986
 30
0.0
 11
46.600000000000136
 21
-193.44000000000023
 31
0.0
  0
ARC
  5
14B
100
AcDbEntity
  8
0
 62
256
370
-1
 48
1.0
  6
ByLayer
100
AcDbCircle
 10
45.250000000000227
 20
-189.16000000000011
 30
0.0
 40
0.2499999999999716
100
AcDbArc
 50
90.000000000006509
 51
0.0
  0
LINE
  5
14C
100
AcDbEntity
100
AcDbLine
  8
0
 62
256
370
-1
 48
1.0
  6
ByLayer
 10
46.600000000000222
 20
-189.15999999999997
 30
0.0
 11
45.500000000000199
 21
-189.16000000000008
 31
0.0
  0
ARC
  5
14D
100
AcDbEntity
  8
0
 62
256
370
-1
 48
1.0
  6
ByLayer
100
AcDbCircle
 10
-119.17603717535894
 20
-379.60000000000036
 30
0.0
 40
0.25
100
AcDbArc
 50
0.0
 51
270.0
  0
LINE
  5
14E
100
AcDbEntity
100
AcDbLine
  8
0
 62
256
370
-1
 48
1.0
  6
ByLayer
 10
-119.17603717535894
 20
-381.85000000000036
 30
0.0
 11
-119.17603717535894
 21
-379.85000000000036
 31
0.0
  0
LINE
  5
14F
100
AcDbEntity
100
AcDbLine
  8
0
 62
256
370
-1
 48
1.0
  6
ByLayer
 10
-117.90103717535897
 20
-379.60000000000036
 30
0.0
 11
-117.90103717535897
 21
-378.60000000000036
 31
0.0
  0
LINE
  5
150
100
AcDbEntity
100
AcDbLine
  8
0
 62
256
370
-1
 48
1.0
  6
ByLayer
 10
-118.92603717535894
 20
-379.60000000000036
 30
0.0
 11
-117.90103717535897
 21
-379.60000000000036
 31
0.0
  0
LINE
  5
151
100
AcDbEntity
100
AcDbLine
  8
0
 62
256
370
-1
 48
1.0
  6
ByLayer
 10
-117.90103717535897
 20
-386.88000000000034
 30
0.0
 11
-117.90103717535897
 21
-382.10000000000036
 31
0.0
  0
LINE
  5
152
100
AcDbEntity
100
AcDbLine
  8
0
 62
256
370
-1
 48
1.0
  6
ByLayer
 10
-135.10603717535889
 20
-386.88000000000034
 30
0.0
 11
-117.90103717535897
 21
-386.88000000000034
 31
0.0
  0
ARC
  5
153
100
AcDbEntity
  8
0
 62
256
370
-1
 48
1.0
  6
ByLayer
100
AcDbCircle
 10
-119.17603717535894
 20
-382.10000000000036
 30
0.0
 40
0.25
100
AcDbArc
 50
90.0
 51
0.0
  0
LINE
  5
154
100
AcDbEntity
100
AcDbLine
  8
0
 62
256
370
-1
 48
1.0
  6
ByLayer
 10
-117.90103717535897
 20
-382.10000000000036
 30
0.0
 11
-118.92603717535894
 21
-382.10000000000036
 31
0.0
  0
ARC
  5
155
100
AcDbEntity
  8
0
 62
256
370
-1
 48
1.0
  6
ByLayer
100
AcDbCircle
 10
-113.4760371753589
 20
-382.10000000000036
 30
0.0
 40
0.25
100
AcDbArc
 50
180.0
 51
90.0
  0
LINE
  5
156
100
AcDbEntity
100
AcDbLine
  8
0
 62
256
370
-1
 48
1.0
  6
ByLayer
 10
-113.4760371753589
 20
-379.85000000000036
 30
0.0
 11
-113.4760371753589
 21
-381.85000000000036
 31
0.0
  0
LINE
  5
157
100
AcDbEntity
100
AcDbLine
  8
0
 62
256
370
-1
 48
1.0
  6
ByLayer
 10
-114.75103717535887
 20
-382.10000000000036
 30
0.0
 11
-114.75103717535887
 21
-386.88000000000034
 31
0.0
  0
LINE
  5
158
100
AcDbEntity
100
AcDbLine
  8
0
 62
256
370
-1
 48
1.0
  6
ByLayer
 10
-113.7260371753589
 20
-382.10000000000036
 30
0.0
 11
-114.75103717535887
 21
-382.10000000000036
 31
0.0
  0
LINE
  5
159
100
AcDbEntity
100
AcDbLine
  8
0
 62
256
370
-1
 48
1.0
  6
ByLayer
 10
-114.75103717535887
 20
-378.60000000000036
 30
0.0
 11
-114.75103717535887
 21
-379.60000000000036
 31
0.0
  0
LINE
  5
15A
100
AcDbEntity
100
AcDbLine
  8
0
 62
256
370
-1
 48
1.0
  6
ByLayer
 10
-117.90103717535897
 20
-378.60000000000036
 30
0.0
 11
-114.75103717535887
 21
-378.60000000000036
 31
0.0
  0
ARC
  5
15B
100
AcDbEntity
  8
0
 62
256
370
-1
 48
1.0
  6
ByLayer
100
AcDbCircle
 10
-113.4760371753589
 20
-379.60000000000036
 30
0.0
 40
0.25
100
AcDbArc
 50
270.0
 51
180.0
  0
LINE
  5
15C
100
AcDbEntity
100
AcDbLine
  8
0
 62
256
370
-1
 48
1.0
  6
ByLayer
 10
-114.75103717535887
 20
-379.60000000000036
 30
0.0
 11
-113.7260371753589
 21
-379.60000000000036
 31
0.0
  0
LINE
  5
15D
100
AcDbEntity
100
AcDbLine
  8
0
 62
256
370
-1
 48
1.0
  6
ByLayer
 10
-48.901037175358852
 20
-386.88000000000034
 30
0.0
 11
-48.901037175358852
 21
-382.10000000000036
 31
0.0
  0
LINE
  5
15E
100
AcDbEntity
100
AcDbLine
  8
0
 62
256
370
-1
 48
1.0
  6
ByLayer
 10
-59.57603717535892
 20
-386.88000000000034
 30
0.0
 11
-48.901037175358852
 21
-386.88000000000034
 31
0.0
  0
ARC
  5
15F
100
AcDbEntity
  8
0
 62
256
370
-1
 48
1.0
  6
ByLayer
100
AcDbCircle
 10
-50.176037175358942
 20
-382.10000000000036
 30
0.0
 40
0.25
100
AcDbArc
 50
90.0
 51
0.0
  0
LINE
  5
160
100
AcDbEntity
100
AcDbLine
  8
0
 62
256
370
-1
 48
1.0
  6
ByLayer
 10
-48.901037175358852
 20
-382.10000000000036
 30
0.0
 11
-49.926037175358942
 21
-382.10000000000036
 31
0.0
  0
LINE
  5
161
100
AcDbEntity
100
AcDbLine
  8
0
 62
256
370
-1
 48
1.0
  6
ByLayer
 10
-69.57603717535892
 20
-386.88000000000034
 30
0.0
 11
-69.57603717535892
 21
-393.60000000000036
 31
0.0
  0
LINE
  5
162
100
AcDbEntity
100
AcDbLine
  8
0
 62
256
370
-1
 48
1.0
  6
ByLayer
 10
-114.75103717535887
 20
-386.88000000000034
 30
0.0
 11
-69.57603717535892
 21
-386.88000000000034
 31
0.0
  0
LINE
  5
163
100
AcDbEntity
100
AcDbLine
  8
0
 62
256
370
-1
 48
1.0
  6
ByLayer
 10
-59.57603717535892
 20
-393.60000000000036
 30
0.0
 11
-59.57603717535892
 21
-386.88000000000034
 31
0.0
  0
LINE
  5
164
100
AcDbEntity
100
AcDbLine
  8
0
 62
256
370
-1
 48
1.0
  6
ByLayer
 10
-69.57603717535892
 20
-393.60000000000036
 30
0.0
 11
-59.57603717535892
 21
-393.60000000000036
 31
0.0
  0
LINE
  5
165
100
AcDbEntity
100
AcDbLine
  8
0
 62
256
370
-1
 48
1.0
  6
ByLayer
 10
-45.751037175358874
 20
-378.60000000000036
 30
0.0
 11
-45.751037175358874
 21
-379.60000000000036
 31
0.0
  0
LINE
  5
166
100
AcDbEntity
100
AcDbLine
  8
0
 62
256
370
-1
 48
1.0
  6
ByLayer
 10
-48.901037175358852
 20
-378.60000000000036
 30
0.0
 11
-45.751037175358874
 21
-378.60000000000036
 31
0.0
  0
ARC
  5
167
100
AcDbEntity
  8
0
 62
256
370
-1
 48
1.0
  6
ByLayer
100
AcDbCircle
 10
-44.476037175358897
 20
-379.60000000000036
 30
0.0
 40
0.25
100
AcDbArc
 50
270.0
 51
180.0
  0
LINE
  5
168
100
AcDbEntity
100
AcDbLine
  8
0
 62
256
370
-1
 48
1.0
  6
ByLayer
 10
-45.751037175358874
 20
-379.60000000000036
 30
0.0
 11
-44.726037175358897
 21
-379.60000000000036
 31
0.0
  0
ARC
  5
169
100
AcDbEntity
  8
0
 62
256
370
-1
 48
1.0
  6
ByLayer
100
AcDbCircle
 10
-50.176037175358942
 20
-379.60000000000036
 30
0.0
 40
0.25
100
AcDbArc
 50
0.0
 51
270.0
  0
LINE
  5
16A
100
AcDbEntity
100
AcDbLine
  8
0
 62
256
370
-1
 48
1.0
  6
ByLayer
 10
-50.176037175358942
 20
-381.85000000000036
 30
0.0
 11
-50.176037175358942
 21
-379.85000000000036
 31
0.0
  0
LINE
  5
16B
100
AcDbEntity
100
AcDbLine
  8
0
 62
256
370
-1
 48
1.0
  6
ByLayer
 10
-48.901037175358852
 20
-379.60000000000036
 30
0.0
 11
-48.901037175358852
 21
-378.60000000000036
 31
0.0
  0
LINE
  5
16C
100
AcDbEntity
100
AcDbLine
  8
0
 62
256
370
-1
 48
1.0
  6
ByLayer
 10
-49.926037175358942
 20
-379.60000000000036
 30
0.0
 11
-48.901037175358852
 21
-379.60000000000036
 31
0.0
  0
LINE
  5
16D
100
AcDbEntity
100
AcDbLine
  8
0
 62
256
370
-1
 48
1.0
  6
ByLayer
 10
-113.25103717535876
 20
-253.88000000000034
 30
0.0
 11
-113.25103717535876
 21
-253.78000000000034
 31
0.0
  0
ARC
  5
16E
100
AcDbEntity
  8
0
 62
256
370
-1
 48
1.0
  6
ByLayer
100
AcDbCircle
 10
-114.82603717535876
 20
-253.88000000000034
 30
0.0
 40
1.5750000000000028
100
AcDbArc
 50
180.0
 51
0.0
  0
LINE
  5
16F
100
AcDbEntity
100
AcDbLine
  8
0
 62
256
370
-1
 48
1.0
  6
ByLayer
 10
-116.40103717535877
 20
-253.78000000000037
 30
0.0
 11
-116.40103717535877
 21
-253.88000000000034
 31
0.0
  0
ARC
  5
170
100
AcDbEntity
  8
0
 62
256
370
-1
 48
1.0
  6
ByLayer
100
AcDbCircle
 10
-114.82603717535876
 20
-253.78000000000037
 30
0.0
 40
1.5750000000000028
100
AcDbArc
 50
0.0
 51
180.0
  0
LINE
  5
171
100
AcDbEntity
100
AcDbLine
  8
0
 62
256
370
-1
 48
1.0
  6
ByLayer
 10
124.2339628246412
 20
-287.7799999999998
 30
0.0
 11
124.23396282464142
 21
-267.7799999999998
 31
0.0
  0
ARC
  5
172
100
AcDbEntity
  8
0
 62
256
370
-1
 48
1.0
  6
ByLayer
100
AcDbCircle
 10
127.23396282464132
 20
-287.77999999999975
 30
0.0
 40
3.0000000000001279
100
AcDbArc
 50
180.0
 51
0.0
  0
LINE
  5
173
100
AcDbEntity
100
AcDbLine
  8
0
 62
256
370
-1
 48
1.0
  6
ByLayer
 10
130.23396282464137
 20
-267.7799999999998
 30
0.0
 11
130.23396282464145
 21
-287.77999999999975
 31
0.0
  0
ARC
  5
174
100
AcDbEntity
  8
0
 62
256
370
-1
 48
1.0
  6
ByLayer
100
AcDbCircle
 10
127.2339628246414
 20
-267.7799999999998
 30
0.0
 40
2.9999999999999716
100
AcDbArc
 50
0.0
 51
180.0
  0
LINE
  5
175
100
AcDbEntity
100
AcDbLine
  8
0
 62
256
370
-1
 48
1.0
  6
ByLayer
 10
-59.576037175358763
 20
-266.88000000000034
 30
0.0
 11
-59.576037175358763
 21
-273.60000000000019
 31
0.0
  0
LINE
  5
176
100
AcDbEntity
100
AcDbLine
  8
0
 62
256
370
-1
 48
1.0
  6
ByLayer
 10
-72.576037175358763
 20
-266.88000000000034
 30
0.0
 11
-59.576037175358763
 21
-266.88000000000034
 31
0.0
  0
LINE
  5
177
100
AcDbEntity
100
AcDbLine
  8
0
 62
256
370
-1
 48
1.0
  6
ByLayer
 10
-72.576037175358778
 20
-273.60000000000036
 30
0.0
 11
-72.576037175358763
 21
-266.88000000000034
 31
0.0
  0
LINE
  5
178
100
AcDbEntity
100
AcDbLine
  8
0
 62
256
370
-1
 48
1.0
  6
ByLayer
 10
-59.576037175358763
 20
-273.60000000000019
 30
0.0
 11
-72.576037175358778
 21
-273.60000000000036
 31
0.0
  0
LINE
  5
179
100
AcDbEntity
100
AcDbLine
  8
0
 62
256
370
-1
 48
1.0
  6
ByLayer
 10
-170.60603717535881
 20
-270.44666666668383
 30
0.0
 11
-170.60603717535884
 21
-269.42166666668385
 31
0.0
  0
ARC
  5
17A
100
AcDbEntity
  8
0
 62
256
370
-1
 48
1.0
  6
ByLayer
100
AcDbCircle
 10
-170.60603717535878
 20
-270.69666666668383
 30
0.0
 40
0.2499999999999858
100
AcDbArc
 50
180.0
 51
90.000000000006509
  0
LINE
  5
17B
100
AcDbEntity
100
AcDbLine
  8
0
 62
256
370
-1
 48
1.0
  6
ByLayer
 10
-169.60603717535886
 20
-269.42166666668379
 30
0.0
 11
-169.60603717535886
 21
-266.27166666668381
 31
0.0
  0
LINE
  5
17C
100
AcDbEntity
100
AcDbLine
  8
0
 62
256
370
-1
 48
1.0
  6
ByLayer
 10
-170.60603717535884
 20
-269.42166666668385
 30
0.0
 11
-169.60603717535886
 21
-269.42166666668379
 31
0.0
  0
LINE
  5
17D
100
AcDbEntity
100
AcDbLine
  8
0
 62
256
370
-1
 48
1.0
  6
ByLayer
 10
-173.10603717535886
 20
-269.42166666668379
 30
0.0
 11
-173.10603717535886
 21
-270.44666666668377
 31
0.0
  0
LINE
  5
17E
100
AcDbEntity
100
AcDbLine
  8
0
 62
256
370
-1
 48
1.0
  6
ByLayer
 10
-177.88603717535884
 20
-269.42166666668385
 30
0.0
 11
-173.10603717535886
 21
-269.42166666668379
 31
0.0
  0
LINE
  5
17F
100
AcDbEntity
100
AcDbLine
  8
0
 62
256
370
-1
 48
1.0
  6
ByLayer
 10
-172.85603717535884
 20
-270.69666666668383
 30
0.0
 11
-170.85603717535878
 21
-270.69666666668383
 31
0.0
  0
ARC
  5
180
100
AcDbEntity
  8
0
 62
256
370
-1
 48
1.0
  6
ByLayer
100
AcDbCircle
 10
-173.10603717535886
 20
-270.69666666668377
 30
0.0
 40
0.2500000000000426
100
AcDbArc
 50
90.0
 51
360.0
  0
LINE
  5
181
100
AcDbEntity
100
AcDbLine
  8
0
 62
256
370
-1
 48
1.0
  6
ByLayer
 10
-173.10603717535884
 20
-265.24666666668384
 30
0.0
 11
-173.10603717535881
 21
-266.27166666668381
 31
0.0
  0
ARC
  5
182
100
AcDbEntity
  8
0
 62
256
370
-1
 48
1.0
  6
ByLayer
100
AcDbCircle
 10
-173.10603717535889
 20
-264.99666666668384
 30
0.0
 40
0.25
100
AcDbArc
 50
0.0
 51
270.00000000001302
  0
LINE
  5
183
100
AcDbEntity
100
AcDbLine
  8
0
 62
256
370
-1
 48
1.0
  6
ByLayer
 10
-177.88603717535887
 20
-266.27166666668381
 30
0.0
 11
-177.88603717535887
 21
-258.44000000001716
 31
0.0
  0
LINE
  5
184
100
AcDbEntity
100
AcDbLine
  8
0
 62
256
370
-1
 48
1.0
  6
ByLayer
 10
-173.10603717535881
 20
-266.27166666668381
 30
0.0
 11
-177.88603717535887
 21
-266.27166666668381
 31
0.0
  0
LINE
  5
185
100
AcDbEntity
100
AcDbLine
  8
0
 62
256
370
-1
 48
1.0
  6
ByLayer
 10
-170.60603717535884
 20
-266.27166666668381
 30
0.0
 11
-170.60603717535886
 21
-265.24666666668378
 31
0.0
  0
LINE
  5
186
100
AcDbEntity
100
AcDbLine
  8
0
 62
256
370
-1
 48
1.0
  6
ByLayer
 10
-169.60603717535886
 20
-266.27166666668381
 30
0.0
 11
-170.60603717535884
 21
-266.27166666668381
 31
0.0
  0
LINE
  5
187
100
AcDbEntity
100
AcDbLine
  8
0
 62
256
370
-1
 48
1.0
  6
ByLayer
 10
-170.85603717535886
 20
-264.99666666668378
 30
0.0
 11
-172.85603717535889
 21
-264.99666666668378
 31
0.0
  0
ARC
  5
188
100
AcDbEntity
  8
0
 62
256
370
-1
 48
1.0
  6
ByLayer
100
AcDbCircle
 10
-170.60603717535886
 20
-264.99666666668378
 30
0.0
 40
0.25
100
AcDbArc
 50
270.0
 51
180.0
  0
LINE
  5
189
100
AcDbEntity
100
AcDbLine
  8
0
 62
256
370
-1
 48
1.0
  6
ByLayer
 10
-92.166666666666529
 20
137.86000000000001
 30
0.0
 11
-92.166666666666529
 21
131.14000000000001
 31
0.0
  0
LINE
  5
18A
100
AcDbEntity
100
AcDbLine
  8
0
 62
256
370
-1
 48
1.0
  6
ByLayer
 10
-31.833333333333002
 20
137.86000000000001
 30
0.0
 11
28.500000000000327
 21
137.86000000000001
 31
0.0
  0
LINE
  5
18B
100
AcDbEntity
100
AcDbLine
  8
0
 62
256
370
-1
 48
1.0
  6
ByLayer
 10
-31.833333333333002
 20
131.13999999999999
 30
0.0
 11
-31.833333333333002
 21
137.86000000000001
 31
0.0
  0
LINE
  5
18C
100
AcDbEntity
100
AcDbLine
  8
0
 62
256
370
-1
 48
1.0
  6
ByLayer
 10
-145.77999999999921
 20
71.380000000000024
 30
0.0
 11
-139.05999999999918
 21
71.380000000000024
 31
0.0
  0
LINE
  5
18D
100
AcDbEntity
100
AcDbLine
  8
0
 62
256
370
-1
 48
1.0
  6
ByLayer
 10
-145.77999999999921
 20
86.380000000000024
 30
0.0
 11
-145.77999999999921
 21
71.380000000000024
 31
0.0
  0
LINE
  5
18E
100
AcDbEntity
100
AcDbLine
  8
0
 62
256
370
-1
 48
1.0
  6
ByLayer
 10
-139.05999999999932
 20
86.380000000000024
 30
0.0
 11
-145.77999999999921
 21
86.380000000000024
 31
0.0
  0
LINE
  5
18F
100
AcDbEntity
100
AcDbLine
  8
0
 62
256
370
-1
 48
1.0
  6
ByLayer
 10
-139.05999999999918
 20
71.380000000000024
 30
0.0
 11
-139.05999999999932
 21
86.380000000000024
 31
0.0
  0
LINE
  5
190
100
AcDbEntity
100
AcDbLine
  8
0
 62
256
370
-1
 48
1.0
  6
ByLayer
 10
-152.49999999999983
 20
137.86000000000001
 30
0.0
 11
-92.166666666666529
 21
137.86000000000001
 31
0.0
  0
LINE
  5
191
100
AcDbEntity
100
AcDbLine
  8
0
 62
256
370
-1
 48
1.0
  6
ByLayer
 10
21.779999999999646
 20
71.380000000000024
 30
0.0
 11
15.05999999999964
 21
71.380000000000024
 31
0.0
  0
LINE
  5
192
100
AcDbEntity
100
AcDbLine
  8
0
 62
256
370
-1
 48
1.0
  6
ByLayer
 10
21.779999999999639
 20
86.380000000000024
 30
0.0
 11
21.779999999999646
 21
71.380000000000024
 31
0.0
  0
LINE
  5
193
100
AcDbEntity
100
AcDbLine
  8
0
 62
256
370
-1
 48
1.0
  6
ByLayer
 10
15.05999999999964
 20
86.380000000000024
 30
0.0
 11
21.779999999999639
 21
86.380000000000024
 31
0.0
  0
LINE
  5
194
100
AcDbEntity
100
AcDbLine
  8
0
 62
256
370
-1
 48
1.0
  6
ByLayer
 10
15.05999999999964
 20
71.380000000000024
 30
0.0
 11
15.05999999999964
 21
86.380000000000024
 31
0.0
  0
LINE
  5
195
100
AcDbEntity
100
AcDbLine
  8
0
 62
256
370
-1
 48
1.0
  6
ByLayer
 10
113.62666666666777
 20
99.999999999999943
 30
0.0
 11
113.62666666666766
 21
105.88
 31
0.0
  0
LINE
  5
196
100
AcDbEntity
100
AcDbLine
  8
0
 62
256
370
-1
 48
1.0
  6
ByLayer
 10
90.813333333334313
 20
100.0
 30
0.0
 11
113.62666666666777
 21
99.999999999999943
 31
0.0
  0
LINE
  5
197
100
AcDbEntity
100
AcDbLine
  8
0
 62
256
370
-1
 48
1.0
  6
ByLayer
 10
90.813333333334285
 20
105.88
 30
0.0
 11
90.813333333334313
 21
100.0
 31
0.0
  0
LINE
  5
198
100
AcDbEntity
100
AcDbLine
  8
0
 62
256
370
-1
 48
1.0
  6
ByLayer
 10
113.62666666666766
 20
105.88
 30
0.0
 11
90.813333333334285
 21
105.88
 31
0.0
  0
LINE
  5
199
100
AcDbEntity
100
AcDbLine
  8
0
 62
256
370
-1
 48
1.0
  6
ByLayer
 10
49.900000000000261
 20
-132.27999999999932
 30
0.0
 11
49.900000000000261
 21
-134.28000000000014
 31
0.0
  0
LINE
  5
19A
100
AcDbEntity
100
AcDbLine
  8
0
 62
256
370
-1
 48
1.0
  6
ByLayer
 10
51.000000000000227
 20
-132.27999999999977
 30
0.0
 11
49.900000000000261
 21
-132.27999999999932
 31
0.0
  0
LINE
  5
19B
100
AcDbEntity
100
AcDbLine
  8
0
 62
256
370
-1
 48
1.0
  6
ByLayer
 10
46.600000000000193
 20
-134.28000000000029
 30
0.0
 11
46.600000000000193
 21
-132.28000000000017
 31
0.0
  0
LINE
  5
19C
100
AcDbEntity
100
AcDbLine
  8
0
 62
256
370
-1
 48
1.0
  6
ByLayer
 10
49.900000000000261
 20
-134.28000000000014
 30
0.0
 11
46.600000000000193
 21
-134.28000000000029
 31
0.0
  0
ARC
  5
19D
100
AcDbEntity
  8
0
 62
256
370
-1
 48
1.0
  6
ByLayer
100
AcDbCircle
 10
51.250000000000952
 20
-129.2800000000002
 30
0.0
 40
0.2500000000007248
100
AcDbArc
 50
269.9999999998339
 51
180.0
  0
LINE
  5
19E
100
AcDbEntity
100
AcDbLine
  8
0
 62
256
370
-1
 48
1.0
  6
ByLayer
 10
49.900000000000261
 20
-129.27999999999878
 30
0.0
 11
51.000000000000227
 21
-129.27999999999949
 31
0.0
  0
ARC
  5
19F
100
AcDbEntity
  8
0
 62
256
370
-1
 48
1.0
  6
ByLayer
100
AcDbCircle
 10
51.250000000000298
 20
-132.27999999999969
 30
0.0
 40
0.2500000000000711
100
AcDbArc
 50
180.0
 51
90.000000000016286
  0
LINE
  5
1A0
100
AcDbEntity
100
AcDbLine
  8
0
 62
256
370
-1
 48
1.0
  6
ByLayer
 10
51.250000000000227
 20
-129.53000000000094
 30
0.0
 11
51.250000000000227
 21
-132.02999999999963
 31
0.0
  0
LINE
  5
1A1
100
AcDbEntity
100
AcDbLine
  8
0
 62
256
370
-1
 48
1.0
  6
ByLayer
 10
46.600000000000193
 20
-129.27999999999989
 30
0.0
 11
46.600000000000193
 21
-125.00000000000006
 31
0.0
  0
LINE
  5
1A2
100
AcDbEntity
100
AcDbLine
  8
0
 62
256
370
-1
 48
1.0
  6
ByLayer
 10
45.500000000000227
 20
-129.2800000000002
 30
0.0
 11
46.600000000000193
 21
-129.27999999999989
 31
0.0
  0
LINE
  5
1A3
100
AcDbEntity
100
AcDbLine
  8
0
 62
256
370
-1
 48
1.0
  6
ByLayer
 10
2.6583333333335588
 20
-125.00000000000004
 30
0.0
 11
2.6583333333335588
 21
-129.78000000000014
 31
0.0
  0
ARC
  5
1A4
100
AcDbEntity
  8
0
 62
256
370
-1
 48
1.0
  6
ByLayer
100
AcDbCircle
 10
45.249999999999943
 20
-132.28000000000003
 30
0.0
 40
0.2500000000002842
100
AcDbArc
 50
89.999999999934857
 51
360.0
  0
LINE
  5
1A5
100
AcDbEntity
100
AcDbLine
  8
0
 62
256
370
-1
 48
1.0
  6
ByLayer
 10
46.600000000000193
 20
-132.28000000000017
 30
0.0
 11
45.500000000000227
 21
-132.28000000000031
 31
0.0
  0
ARC
  5
1A6
100
AcDbEntity
  8
0
 62
256
370
-1
 48
1.0
  6
ByLayer
100
AcDbCircle
 10
45.250000000000725
 20
-129.27999999999969
 30
0.0
 40
0.2499999999995026
100
AcDbArc
 50
360.0
 51
269.99999999988603
  0
LINE
  5
1A7
100
AcDbEntity
100
AcDbLine
  8
0
 62
256
370
-1
 48
1.0
  6
ByLayer
 10
45.250000000000227
 20
-132.02999999999975
 30
0.0
 11
45.250000000000227
 21
-129.52999999999921
 31
0.0
  0
LINE
  5
1A8
100
AcDbEntity
100
AcDbLine
  8
0
 62
256
370
-1
 48
1.0
  6
ByLayer
 10
2.6583333333335588
 20
-132.27999999999997
 30
0.0
 11
2.6583333333335588
 21
-133.28000000000023
 31
0.0
  0
LINE
  5
1A9
100
AcDbEntity
100
AcDbLine
  8
0
 62
256
370
-1
 48
1.0
  6
ByLayer
 10
3.6833333333335645
 20
-132.27999999999997
 30
0.0
 11
2.6583333333335588
 21
-132.27999999999997
 31
0.0
  0
LINE
  5
1AA
100
AcDbEntity
100
AcDbLine
  8
0
 62
256
370
-1
 48
1.0
  6
ByLayer
 10
-0.4916666666664469
 20
-133.2800000000006
 30
0.0
 11
-0.4916666666664469
 21
-132.28000000000017
 31
0.0
  0
LINE
  5
1AB
100
AcDbEntity
100
AcDbLine
  8
0
 62
256
370
-1
 48
1.0
  6
ByLayer
 10
2.6583333333335588
 20
-133.28000000000023
 30
0.0
 11
-0.4916666666664469
 21
-133.2800000000006
 31
0.0
  0
ARC
  5
1AC
100
AcDbEntity
  8
0
 62
256
370
-1
 48
1.0
  6
ByLayer
100
AcDbCircle
 10
3.9333333333329392
 20
-129.78000000000057
 30
0.0
 40
0.2499999999994031
100
AcDbArc
 50
270.00000000013677
 51
180.0
  0
LINE
  5
1AD
100
AcDbEntity
100
AcDbLine
  8
0
 62
256
370
-1
 48
1.0
  6
ByLayer
 10
2.6583333333335588
 20
-129.78000000000014
 30
0.0
 11
3.6833333333335361
 21
-129.78000000000117
 31
0.0
  0
ARC
  5
1AE
100
AcDbEntity
  8
0
 62
256
370
-1
 48
1.0
  6
ByLayer
100
AcDbCircle
 10
3.9333333333336498
 20
-132.27999999999989
 30
0.0
 40
0.2500000000000853
100
AcDbArc
 50
180.0
 51
90.00000000001954
  0
LINE
  5
1AF
100
AcDbEntity
100
AcDbLine
  8
0
 62
256
370
-1
 48
1.0
  6
ByLayer
 10
3.9333333333335361
 20
-130.02999999999997
 30
0.0
 11
3.9333333333335645
 21
-132.0299999999998
 31
0.0
  0
LINE
  5
1B0
100
AcDbEntity
100
AcDbLine
  8
0
 62
256
370
-1
 48
1.0
  6
ByLayer
 10
-0.4916666666664469
 20
-129.78000000000074
 30
0.0
 11
-0.4916666666664469
 21
-125.00000000000004
 31
0.0
  0
LINE
  5
1B1
100
AcDbEntity
100
AcDbLine
  8
0
 62
256
370
-1
 48
1.0
  6
ByLayer
 10
-1.5166666666664526
 20
-129.78
 30
0.0
 11
-0.4916666666664469
 21
-129.78000000000074
 31
0.0
  0
LINE
  5
1B2
100
AcDbEntity
100
AcDbLine
  8
0
 62
256
370
-1
 48
1.0
  6
ByLayer
 10
-18.66666666666643
 20
-125.00000000000004
 30
0.0
 11
-18.66666666666643
 21
-118.28000000000004
 31
0.0
  0
ARC
  5
1B3
100
AcDbEntity
  8
0
 62
256
370
-1
 48
1.0
  6
ByLayer
100
AcDbCircle
 10
-1.7666666666665662
 20
-132.27999999999972
 30
0.0
 40
0.2500000000001137
100
AcDbArc
 50
89.999999999973937
 51
360.0
  0
LINE
  5
1B4
100
AcDbEntity
100
AcDbLine
  8
0
 62
256
370
-1
 48
1.0
  6
ByLayer
 10
-0.4916666666664469
 20
-132.28000000000017
 30
0.0
 11
-1.5166666666664526
 21
-132.27999999999983
 31
0.0
  0
ARC
  5
1B5
100
AcDbEntity
  8
0
 62
256
370
-1
 48
1.0
  6
ByLayer
100
AcDbCircle
 10
-1.7666666666663104
 20
-129.77999999999986
 30
0.0
 40
0.2499999999998579
100
AcDbArc
 50
360.0
 51
269.99999999996089
  0
LINE
  5
1B6
100
AcDbEntity
100
AcDbLine
  8
0
 62
256
370
-1
 48
1.0
  6
ByLayer
 10
-1.7666666666664526
 20
-132.0299999999996
 30
0.0
 11
-1.766666666666481
 21
-130.02999999999969
 31
0.0
  0
ARC
  5
1B7
100
AcDbEntity
  8
0
 62
256
370
-1
 48
1.0
  6
ByLayer
100
AcDbCircle
 10
51.250000000000199
 20
-189.16000000000005
 30
0.0
 40
0.2499999999999716
100
AcDbArc
 50
180.0
 51
90.0
  0
LINE
  5
1B8
100
AcDbEntity
100
AcDbLine
  8
0
 62
256
370
-1
 48
1.0
  6
ByLayer
 10
51.250000000000199
 20
-186.41000000000008
 30
0.0
 11
51.250000000000199
 21
-188.91000000000008
 31
0.0
  0
LINE
  5
1B9
100
AcDbEntity
100
AcDbLine
  8
0
 62
256
370
-1
 48
1.0
  6
ByLayer
 10
49.900000000000261
 20
-189.16000000000005
 30
0.0
 11
49.900000000000261
 21
-193.44
 31
0.0
  0
LINE
  5
1BA
100
AcDbEntity
100
AcDbLine
  8
0
 62
256
370
-1
 48
1.0
  6
ByLayer
 10
51.000000000000227
 20
-189.16000000000005
 30
0.0
 11
49.900000000000261
 21
-189.16000000000005
 31
0.0
  0
LINE
  5
1BB
100
AcDbEntity
100
AcDbLine
  8
0
 62
256
370
-1
 48
1.0
  6
ByLayer
 10
49.900000000000261
 20
-184.16
 30
0.0
 11
49.90000000000029
 21
-186.15999999999983
 31
0.0
  0
LINE
  5
1BC
100
AcDbEntity
100
AcDbLine
  8
0
 62
256
370
-1
 48
1.0
  6
ByLayer
 10
46.600000000000193
 20
-184.15999999999997
 30
0.0
 11
49.900000000000261
 21
-184.16
 31
0.0
  0
ARC
  5
1BD
100
AcDbEntity
  8
0
 62
256
370
-1
 48
1.0
  6
ByLayer
100
AcDbCircle
 10
51.250000000000242
 20
-186.16000000000008
 30
0.0
 40
0.2500000000000142
100
AcDbArc
 50
269.99999999999022
 51
180.0
  0
LINE
  5
1BE
100
AcDbEntity
100
AcDbLine
  8
0
 62
256
370
-1
 48
1.0
  6
ByLayer
 10
49.90000000000029
 20
-186.15999999999983
 30
0.0
 11
51.000000000000227
 21
-186.16000000000003
 31
0.0
  0
LINE
  5
1BF
100
AcDbEntity
100
AcDbLine
  8
0
 62
256
370
-1
 48
1.0
  6
ByLayer
 10
56.500000000000227
 20
-160.79500000000002
 30
0.0
 11
56.500000000000227
 21
-161.82000000000011
 31
0.0
  0
LINE
  5
1C0
100
AcDbEntity
100
AcDbLine
  8
0
 62
256
370
-1
 48
1.0
  6
ByLayer
 10
61.280000000000257
 20
-160.79500000000002
 30
0.0
 11
56.500000000000227
 21
-160.79500000000002
 31
0.0
  0
LINE
  5
1C1
100
AcDbEntity
100
AcDbLine
  8
0
 62
256
370
-1
 48
1.0
  6
ByLayer
 10
56.250000000000256
 20
-162.07000000000002
 30
0.0
 11
54.250000000000199
 21
-162.07000000000019
 31
0.0
  0
LINE
  5
1C2
100
AcDbEntity
100
AcDbLine
  8
0
 62
256
370
-1
 48
1.0
  6
ByLayer
 10
-152.5
 20
240.88
 30
0.0
 11
-155.65000000000001
 21
240.88
 31
0.0
  0
LINE
  5
1C3
100
AcDbEntity
100
AcDbLine
  8
0
 62
256
370
-1
 48
1.0
  6
ByLayer
 10
-155.65000000000001
 20
290.88
 30
0.0
 11
-152.5
 21
290.88
 31
0.0
  0
LINE
  5
1C4
100
AcDbEntity
100
AcDbLine
  8
0
 62
256
370
-1
 48
1.0
  6
ByLayer
 10
-155.65000000000001
 20
240.88
 30
0.0
 11
-155.65000000000001
 21
290.88
 31
0.0
  0
LINE
  5
1C5
100
AcDbEntity
100
AcDbLine
  8
0
 62
256
370
-1
 48
1.0
  6
ByLayer
 10
-152.5
 20
100.00000000000006
 30
0.0
 11
-159.22000000000003
 21
100.0
 31
0.0
  0
LINE
  5
1C6
100
AcDbEntity
100
AcDbLine
  8
0
 62
256
370
-1
 48
1.0
  6
ByLayer
 10
-152.5
 20
-111.55999999999995
 30
0.0
 11
-152.5
 21
355.50000000000011
 31
0.0
  0
LINE
  5
1C7
100
AcDbEntity
100
AcDbLine
  8
0
 62
256
370
-1
 48
1.0
  6
ByLayer
 10
-159.22000000000003
 20
105.88
 30
0.0
 11
-152.5
 21
105.88
 31
0.0
  0
LINE
  5
1C8
100
AcDbEntity
100
AcDbLine
  8
0
 62
256
370
-1
 48
1.0
  6
ByLayer
 10
-159.22000000000003
 20
100.0
 30
0.0
 11
-159.22000000000003
 21
105.88
 31
0.0
  0
LINE
  5
1C9
100
AcDbEntity
100
AcDbLine
  8
0
 62
256
370
-1
 48
1.0
  6
ByLayer
 10
31.649999999999977
 20
240.88
 30
0.0
 11
28.5
 21
240.88
 31
0.0
  0
LINE
  5
1CA
100
AcDbEntity
100
AcDbLine
  8
0
 62
256
370
-1
 48
1.0
  6
ByLayer
 10
31.649999999999977
 20
290.88
 30
0.0
 11
31.649999999999977
 21
240.88
 31
0.0
  0
LINE
  5
1CB
100
AcDbEntity
100
AcDbLine
  8
0
 62
256
370
-1
 48
1.0
  6
ByLayer
 10
28.5
 20
105.88
 30
0.0
 11
35.220000000000027
 21
105.88
 31
0.0
  0
LINE
  5
1CC
100
AcDbEntity
100
AcDbLine
  8
0
 62
256
370
-1
 48
1.0
  6
ByLayer
 10
-152.5
 20
355.50000000000011
 30
0.0
 11
28.5
 21
355.50000000000011
 31
0.0
  0
LINE
  5
1CD
100
AcDbEntity
100
AcDbLine
  8
0
 62
256
370
-1
 48
1.0
  6
ByLayer
 10
28.5
 20
290.88
 30
0.0
 11
31.649999999999977
 21
290.88
 31
0.0
  0
LINE
  5
1CE
100
AcDbEntity
100
AcDbLine
  8
0
 62
256
370
-1
 48
1.0
  6
ByLayer
 10
21.78000000000003
 20
-85.5
 30
0.0
 11
-5.7799999999999159
 21
-85.5
 31
0.0
  0
LINE
  5
1CF
100
AcDbEntity
100
AcDbLine
  8
0
 62
256
370
-1
 48
1.0
  6
ByLayer
 10
21.78000000000003
 20
-111.55999999999995
 30
0.0
 11
21.78000000000003
 21
-85.5
 31
0.0
  0
LINE
  5
1D0
100
AcDbEntity
100
AcDbLine
  8
0
 62
256
370
-1
 48
1.0
  6
ByLayer
 10
35.220000000000027
 20
100.0
 30
0.0
 11
28.5
 21
100.00000000000006
 31
0.0
  0
LINE
  5
1D1
100
AcDbEntity
100
AcDbLine
  8
0
 62
256
370
-1
 48
1.0
  6
ByLayer
 10
35.220000000000027
 20
105.88
 30
0.0
 11
35.220000000000027
 21
100.0
 31
0.0
  0
LINE
  5
1D2
100
AcDbEntity
100
AcDbLine
  8
0
 62
256
370
-1
 48
1.0
  6
ByLayer
 10
28.5
 20
-111.55999999999995
 30
0.0
 11
21.78000000000003
 21
-111.55999999999995
 31
0.0
  0
LINE
  5
1D3
100
AcDbEntity
100
AcDbLine
  8
0
 62
256
370
-1
 48
1.0
  6
ByLayer
 10
28.5
 20
355.50000000000011
 30
0.0
 11
28.5
 21
-111.55999999999995
 31
0.0
  0
LINE
  5
1D4
100
AcDbEntity
100
AcDbLine
  8
0
 62
256
370
-1
 48
1.0
  6
ByLayer
 10
-118.21999999999991
 20
-85.5
 30
0.0
 11
-145.78000000000003
 21
-85.5
 31
0.0
  0
ARC
  5
1D5
100
AcDbEntity
  8
0
 62
256
370
-1
 48
1.0
  6
ByLayer
100
AcDbCircle
 10
-118.21999999999993
 20
-92.220000000000013
 30
0.0
 40
6.7200000000000122
100
AcDbArc
 50
360.0
 51
89.999999999999886
  0
LINE
  5
1D6
100
AcDbEntity
100
AcDbLine
  8
0
 62
256
370
-1
 48
1.0
  6
ByLayer
 10
-145.78000000000003
 20
-111.55999999999995
 30
0.0
 11
-152.5
 21
-111.55999999999995
 31
0.0
  0
LINE
  5
1D7
100
AcDbEntity
100
AcDbLine
  8
0
 62
256
370
-1
 48
1.0
  6
ByLayer
 10
-145.78000000000003
 20
-85.5
 30
0.0
 11
-145.78000000000003
 21
-111.55999999999995
 31
0.0
  0
LINE
  5
1D8
100
AcDbEntity
100
AcDbLine
  8
0
 62
256
370
-1
 48
1.0
  6
ByLayer
 10
-12.499999999999886
 20
-92.220000000000027
 30
0.0
 11
-12.499999999999886
 21
-104.84000000000003
 31
0.0
  0
ARC
  5
1D9
100
AcDbEntity
  8
0
 62
256
370
-1
 48
1.0
  6
ByLayer
100
AcDbCircle
 10
-5.7799999999998883
 20
-92.219999999999999
 30
0.0
 40
6.719999999999998
100
AcDbArc
 50
90.000000000000242
 51
180.0
  0
LINE
  5
1DA
100
AcDbEntity
100
AcDbLine
  8
0
 62
256
370
-1
 48
1.0
  6
ByLayer
 10
-111.49999999999991
 20
-104.84000000000003
 30
0.0
 11
-111.49999999999991
 21
-92.220000000000027
 31
0.0
  0
LINE
  5
1DB
100
AcDbEntity
100
AcDbLine
  8
0
 62
256
370
-1
 48
1.0
  6
ByLayer
 10
-12.499999999999886
 20
-104.84000000000003
 30
0.0
 11
-111.49999999999991
 21
-104.84000000000003
 31
0.0
  0
CIRCLE
  5
1DC
100
AcDbEntity
100
AcDbCircle
  8
0
 62
256
370
-1
 48
1.0
  6
ByLayer
 10
-26.249999999999758
 20
318.10000000000002
 30
0.0
 40
1.575
  0
CIRCLE
  5
1DD
100
AcDbEntity
100
AcDbCircle
  8
0
 62
256
370
-1
 48
1.0
  6
ByLayer
 10
-69.999999999999787
 20
-159.22000000000006
 30
0.0
 40
1.5
  0
CIRCLE
  5
1DE
100
AcDbEntity
100
AcDbCircle
  8
0
 62
256
370
-1
 48
1.0
  6
ByLayer
 10
-157.10603717535886
 20
-292.16000000001713
 30
0.0
 40
12.5
  0
LINE
  5
1DF
100
AcDbEntity
100
AcDbLine
  8
0
 62
256
370
-1
 48
1.0
  6
ByLayer
 10
114.59896282464139
 20
-295.7799999999998
 30
0.0
 11
114.59896282464135
 21
-259.7799999999998
 31
0.0
  0
ARC
  5
1E0
100
AcDbEntity
  8
0
 62
256
370
-1
 48
1.0
  6
ByLayer
100
AcDbCircle
 10
116.17396282464136
 20
-295.7799999999998
 30
0.0
 40
1.5749999999999673
100
AcDbArc
 50
180.0
 51
0.0
  0
LINE
  5
1E1
100
AcDbEntity
100
AcDbLine
  8
0
 62
256
370
-1
 48
1.0
  6
ByLayer
 10
117.74896282464141
 20
-259.7799999999998
 30
0.0
 11
117.74896282464132
 21
-295.7799999999998
 31
0.0
  0
ARC
  5
1E2
100
AcDbEntity
  8
0
 62
256
370
-1
 48
1.0
  6
ByLayer
100
AcDbCircle
 10
116.17396282464138
 20
-259.7799999999998
 30
0.0
 40
1.5750000000000313
100
AcDbArc
 50
0.0
 51
180.0
  0
LINE
  5
1E3
100
AcDbEntity
100
AcDbLine
  8
0
 62
256
370
-1
 48
1.0
  6
ByLayer
 10
-97.401037175358653
 20
-253.78000000000034
 30
0.0
 11
-97.401037175358653
 21
-253.88000000000034
 31
0.0
  0
ARC
  5
1E4
100
AcDbEntity
  8
0
 62
256
370
-1
 48
1.0
  6
ByLayer
100
AcDbCircle
 10
-95.826037175358707
 20
-253.78000000000034
 30
0.0
 40
1.574999999999946
100
AcDbArc
 50
0.0
 51
180.0
  0
LINE
  5
1E5
100
AcDbEntity
100
AcDbLine
  8
0
 62
256
370
-1
 48
1.0
  6
ByLayer
 10
-94.251037175358761
 20
-253.88000000000034
 30
0.0
 11
-94.251037175358761
 21
-253.78000000000034
 31
0.0
  0
ARC
  5
1E6
100
AcDbEntity
  8
0
 62
256
370
-1
 48
1.0
  6
ByLayer
100
AcDbCircle
 10
-95.826037175358707
 20
-253.88000000000034
 30
0.0
 40
1.574999999999946
100
AcDbArc
 50
180.0
 51
0.0
  0
LINE
  5
1E7
100
AcDbEntity
100
AcDbLine
  8
0
 62
256
370
-1
 48
1.0
  6
ByLayer
 10
72.780000000000925
 20
118.17500000000001
 30
0.0
 11
72.78000000000101
 21
117.14999999999998
 31
0.0
  0
LINE
  5
1E8
100
AcDbEntity
100
AcDbLine
  8
0
 62
256
370
-1
 48
1.0
  6
ByLayer
 10
68.000000000000895
 20
118.17500000000001
 30
0.0
 11
72.780000000000925
 21
118.17500000000001
 31
0.0
  0
LINE
  5
1E9
100
AcDbEntity
100
AcDbLine
  8
0
 62
256
370
-1
 48
1.0
  6
ByLayer
 10
73.030000000001024
 20
116.89999999999998
 30
0.0
 11
75.030000000001039
 21
116.89999999999998
 31
0.0
  0
ARC
  5
1EA
100
AcDbEntity
  8
0
 62
256
370
-1
 48
1.0
  6
ByLayer
100
AcDbCircle
 10
72.780000000001024
 20
116.89999999999998
 30
0.0
 40
0.250000000000006
100
AcDbArc
 50
90.000000000003254
 51
0.0
  0
LINE
  5
1EB
100
AcDbEntity
100
AcDbLine
  8
0
 62
256
370
-1
 48
1.0
  6
ByLayer
 10
-69.576037175358763
 20
-320.16000000000037
 30
0.0
 11
-59.576037175358792
 21
-320.16000000000042
 31
0.0
  0
LINE
  5
1EC
100
AcDbEntity
100
AcDbLine
  8
0
 62
256
370
-1
 48
1.0
  6
ByLayer
 10
-69.576037175358763
 20
-326.88000000000034
 30
0.0
 11
-69.576037175358763
 21
-320.16000000000037
 31
0.0
  0
LINE
  5
1ED
100
AcDbEntity
100
AcDbLine
  8
0
 62
256
370
-1
 48
1.0
  6
ByLayer
 10
-59.576037175358735
 20
-326.88000000000034
 30
0.0
 11
-69.576037175358763
 21
-326.88000000000034
 31
0.0
  0
LINE
  5
1EE
100
AcDbEntity
100
AcDbLine
  8
0
 62
256
370
-1
 48
1.0
  6
ByLayer
 10
-59.576037175358792
 20
-320.16000000000042
 30
0.0
 11
-59.576037175358735
 21
-326.88000000000034
 31
0.0
  0
LINE
  5
1EF
100
AcDbEntity
100
AcDbLine
  8
0
 62
256
370
-1
 48
1.0
  6
ByLayer
 10
75.280000000001067
 20
121.32499999999999
 30
0.0
 11
75.280000000000967
 21
122.34999999999997
 31
0.0
  0
LINE
  5
1F0
100
AcDbEntity
100
AcDbLine
  8
0
 62
256
370
-1
 48
1.0
  6
ByLayer
 10
76.280000000000911
 20
121.32499999999996
 30
0.0
 11
75.280000000001067
 21
121.32499999999999
 31
0.0
  0
LINE
  5
1F1
100
AcDbEntity
100
AcDbLine
  8
0
 62
256
370
-1
 48
1.0
  6
ByLayer
 10
75.030000000000882
 20
122.59999999999999
 30
0.0
 11
73.030000000000825
 21
122.59999999999997
 31
0.0
  0
ARC
  5
1F2
100
AcDbEntity
  8
0
 62
256
370
-1
 48
1.0
  6
ByLayer
100
AcDbCircle
 10
75.280000000000939
 20
122.60000000000002
 30
0.0
 40
0.2500000000000568
100
AcDbArc
 50
270.00000000000654
 51
180.0
  0
LINE
  5
1F3
100
AcDbEntity
100
AcDbLine
  8
0
 62
256
370
-1
 48
1.0
  6
ByLayer
 10
75.280000000000939
 20
117.14999999999998
 30
0.0
 11
75.28000000000084
 21
118.17500000000001
 31
0.0
  0
ARC
  5
1F4
100
AcDbEntity
  8
0
 62
256
370
-1
 48
1.0
  6
ByLayer
100
AcDbCircle
 10
75.280000000000996
 20
116.90000000000003
 30
0.0
 40
0.2499999999999502
100
AcDbArc
 50
180.0
 51
90.000000000013031
  0
LINE
  5
1F5
100
AcDbEntity
100
AcDbLine
  8
0
 62
256
370
-1
 48
1.0
  6
ByLayer
 10
76.280000000000953
 20
118.17500000000001
 30
0.0
 11
76.280000000000911
 21
121.32499999999996
 31
0.0
  0
LINE
  5
1F6
100
AcDbEntity
100
AcDbLine
  8
0
 62
256
370
-1
 48
1.0
  6
ByLayer
 10
75.28000000000084
 20
118.17500000000001
 30
0.0
 11
76.280000000000953
 21
118.17500000000001
 31
0.0
  0
LINE
  5
1F7
100
AcDbEntity
100
AcDbLine
  8
0
 62
256
370
-1
 48
1.0
  6
ByLayer
 10
129.41000000000145
 20
372.39999999999992
 30
0.0
 11
131.4100000000013
 21
372.39999999999992
 31
0.0
  0
ARC
  5
1F8
100
AcDbEntity
  8
0
 62
256
370
-1
 48
1.0
  6
ByLayer
100
AcDbCircle
 10
129.16000000000165
 20
372.39999999999998
 30
0.0
 40
0.2499999999998152
100
AcDbArc
 50
90.0
 51
360.0
  0
LINE
  5
1F9
100
AcDbEntity
100
AcDbLine
  8
0
 62
256
370
-1
 48
1.0
  6
ByLayer
 10
131.66000000000167
 20
372.64999999999969
 30
0.0
 11
131.6600000000015
 21
373.67499999999973
 31
0.0
  0
ARC
  5
1FA
100
AcDbEntity
  8
0
 62
256
370
-1
 48
1.0
  6
ByLayer
100
AcDbCircle
 10
131.66000000000139
 20
372.39999999999964
 30
0.0
 40
0.2500000000000711
100
AcDbArc
 50
180.0
 51
89.999999999934857
  0
LINE
  5
1FB
100
AcDbEntity
100
AcDbLine
  8
0
 62
256
370
-1
 48
1.0
  6
ByLayer
 10
128.16000000000122
 20
376.82499999999987
 30
0.0
 11
128.16000000000122
 21
373.67499999999978
 31
0.0
  0
LINE
  5
1FC
100
AcDbEntity
100
AcDbLine
  8
0
 62
256
370
-1
 48
1.0
  6
ByLayer
 10
129.16000000000153
 20
376.82499999999987
 30
0.0
 11
128.16000000000122
 21
376.82499999999987
 31
0.0
  0
LINE
  5
1FD
100
AcDbEntity
100
AcDbLine
  8
0
 62
256
370
-1
 48
1.0
  6
ByLayer
 10
129.16000000000139
 20
373.67499999999978
 30
0.0
 11
129.16000000000165
 21
372.64999999999975
 31
0.0
  0
LINE
  5
1FE
100
AcDbEntity
100
AcDbLine
  8
0
 62
256
370
-1
 48
1.0
  6
ByLayer
 10
128.16000000000122
 20
373.67499999999978
 30
0.0
 11
129.16000000000139
 21
373.67499999999978
 31
0.0
  0
LINE
  5
1FF
100
AcDbEntity
100
AcDbLine
  8
0
 62
256
370
-1
 48
1.0
  6
ByLayer
 10
131.41000000000099
 20
122.59999999999997
 30
0.0
 11
129.41000000000099
 21
122.59999999999994
 31
0.0
  0
ARC
  5
200
100
AcDbEntity
  8
0
 62
256
370
-1
 48
1.0
  6
ByLayer
100
AcDbCircle
 10
131.66000000000108
 20
122.59999999999999
 30
0.0
 40
0.2500000000000568
100
AcDbArc
 50
270.0
 51
180.0
  0
LINE
  5
201
100
AcDbEntity
100
AcDbLine
  8
0
 62
256
370
-1
 48
1.0
  6
ByLayer
 10
129.16000000000111
 20
122.34999999999997
 30
0.0
 11
129.16000000000113
 21
121.32499999999993
 31
0.0
  0
ARC
  5
202
100
AcDbEntity
  8
0
 62
256
370
-1
 48
1.0
  6
ByLayer
100
AcDbCircle
 10
129.16000000000108
 20
122.59999999999989
 30
0.0
 40
0.2499999999999289
100
AcDbArc
 50
0.0
 51
270.00000000000654
  0
LINE
  5
203
100
AcDbEntity
100
AcDbLine
  8
0
 62
256
370
-1
 48
1.0
  6
ByLayer
 10
136.4400000000017
 20
373.67499999999973
 30
0.0
 11
136.44000000000113
 21
121.32499999999993
 31
0.0
  0
LINE
  5
204
100
AcDbEntity
100
AcDbLine
  8
0
 62
256
370
-1
 48
1.0
  6
ByLayer
 10
131.6600000000015
 20
373.67499999999973
 30
0.0
 11
136.4400000000017
 21
373.67499999999973
 31
0.0
  0
LINE
  5
205
100
AcDbEntity
100
AcDbLine
  8
0
 62
256
370
-1
 48
1.0
  6
ByLayer
 10
131.66000000000093
 20
121.32500000000002
 30
0.0
 11
131.66000000000108
 21
122.34999999999994
 31
0.0
  0
LINE
  5
206
100
AcDbEntity
100
AcDbLine
  8
0
 62
256
370
-1
 48
1.0
  6
ByLayer
 10
136.44000000000113
 20
121.32499999999993
 30
0.0
 11
131.66000000000093
 21
121.32500000000002
 31
0.0
  0
LINE
  5
207
100
AcDbEntity
100
AcDbLine
  8
0
 62
256
370
-1
 48
1.0
  6
ByLayer
 10
129.41000000000099
 20
116.90000000000001
 30
0.0
 11
131.41000000000099
 21
116.89999999999998
 31
0.0
  0
ARC
  5
208
100
AcDbEntity
  8
0
 62
256
370
-1
 48
1.0
  6
ByLayer
100
AcDbCircle
 10
129.16000000000111
 20
116.90000000000002
 30
0.0
 40
0.2499999999999005
100
AcDbArc
 50
90.0
 51
360.0
  0
LINE
  5
209
100
AcDbEntity
100
AcDbLine
  8
0
 62
256
370
-1
 48
1.0
  6
ByLayer
 10
131.66000000000099
 20
117.14999999999995
 30
0.0
 11
131.66000000000105
 21
118.17499999999995
 31
0.0
  0
ARC
  5
20A
100
AcDbEntity
  8
0
 62
256
370
-1
 48
1.0
  6
ByLayer
100
AcDbCircle
 10
131.66000000000096
 20
116.89999999999996
 30
0.0
 40
0.2499999999999847
100
AcDbArc
 50
180.0
 51
89.999999999993491
  0
LINE
  5
20B
100
AcDbEntity
100
AcDbLine
  8
0
 62
256
370
-1
 48
1.0
  6
ByLayer
 10
128.16000000000111
 20
121.32499999999996
 30
0.0
 11
128.16000000000113
 21
118.17499999999993
 31
0.0
  0
LINE
  5
20C
100
AcDbEntity
100
AcDbLine
  8
0
 62
256
370
-1
 48
1.0
  6
ByLayer
 10
129.16000000000113
 20
121.32499999999993
 30
0.0
 11
128.16000000000111
 21
121.32499999999996
 31
0.0
  0
LINE
  5
20D
100
AcDbEntity
100
AcDbLine
  8
0
 62
256
370
-1
 48
1.0
  6
ByLayer
 10
129.16000000000093
 20
118.17500000000001
 30
0.0
 11
129.16000000000111
 21
117.14999999999992
 31
0.0
  0
LINE
  5
20E
100
AcDbEntity
100
AcDbLine
  8
0
 62
256
370
-1
 48
1.0
  6
ByLayer
 10
128.16000000000113
 20
118.17499999999993
 30
0.0
 11
129.16000000000093
 21
118.17500000000001
 31
0.0
  0
LINE
  5
20F
100
AcDbEntity
100
AcDbLine
  8
0
 62
256
370
-1
 48
1.0
  6
ByLayer
 10
136.44000000000065
 20
-125.00000000000001
 30
0.0
 11
136.44000000000065
 21
-118.27999999999996
 31
0.0
  0
LINE
  5
210
100
AcDbEntity
100
AcDbLine
  8
0
 62
256
370
-1
 48
1.0
  6
ByLayer
 10
143.16000000000074
 20
-125.00000000000001
 30
0.0
 11
136.44000000000065
 21
-125.00000000000001
 31
0.0
  0
LINE
  5
211
100
AcDbEntity
100
AcDbLine
  8
0
 62
256
370
-1
 48
1.0
  6
ByLayer
 10
113.62666666666732
 20
-118.28000000000004
 30
0.0
 11
113.62666666666732
 21
-125.00000000000001
 31
0.0
  0
LINE
  5
212
100
AcDbEntity
100
AcDbLine
  8
0
 62
256
370
-1
 48
1.0
  6
ByLayer
 10
136.44000000000065
 20
-118.27999999999996
 30
0.0
 11
113.62666666666732
 21
-118.28000000000004
 31
0.0
  0
LINE
  5
213
100
AcDbEntity
100
AcDbLine
  8
0
 62
256
370
-1
 48
1.0
  6
ByLayer
 10
136.44000000000099
 20
118.17499999999998
 30
0.0
 11
136.44000000000094
 21
100.0
 31
0.0
  0
LINE
  5
214
100
AcDbEntity
100
AcDbLine
  8
0
 62
256
370
-1
 48
1.0
  6
ByLayer
 10
131.66000000000105
 20
118.17499999999995
 30
0.0
 11
136.44000000000099
 21
118.17499999999998
 31
0.0
  0
LINE
  5
215
100
AcDbEntity
100
AcDbLine
  8
0
 62
256
370
-1
 48
1.0
  6
ByLayer
 10
143.16000000000093
 20
99.999999999999972
 30
0.0
 11
143.16000000000074
 21
-125.00000000000001
 31
0.0
  0
LINE
  5
216
100
AcDbEntity
100
AcDbLine
  8
0
 62
256
370
-1
 48
1.0
  6
ByLayer
 10
136.44000000000094
 20
100.0
 30
0.0
 11
143.16000000000093
 21
99.999999999999972
 31
0.0
  0
LINE
  5
217
100
AcDbEntity
100
AcDbLine
  8
0
 62
256
370
-1
 48
1.0
  6
ByLayer
 10
72.780000000000854
 20
373.67499999999978
 30
0.0
 11
72.780000000000854
 21
372.64999999999981
 31
0.0
  0
LINE
  5
218
100
AcDbEntity
100
AcDbLine
  8
0
 62
256
370
-1
 48
1.0
  6
ByLayer
 10
68.000000000000753
 20
373.67499999999978
 30
0.0
 11
72.780000000000854
 21
373.67499999999978
 31
0.0
  0
LINE
  5
219
100
AcDbEntity
100
AcDbLine
  8
0
 62
256
370
-1
 48
1.0
  6
ByLayer
 10
73.030000000000925
 20
372.39999999999992
 30
0.0
 11
75.030000000000669
 21
372.39999999999998
 31
0.0
  0
ARC
  5
21A
100
AcDbEntity
  8
0
 62
256
370
-1
 48
1.0
  6
ByLayer
100
AcDbCircle
 10
72.780000000000939
 20
372.39999999999981
 30
0.0
 40
0.2499999999999787
100
AcDbArc
 50
90.00000000001954
 51
0.0
  0
LINE
  5
21B
100
AcDbEntity
100
AcDbLine
  8
0
 62
256
370
-1
 48
1.0
  6
ByLayer
 10
72.780000000000953
 20
122.34999999999999
 30
0.0
 11
72.780000000000925
 21
121.32499999999999
 31
0.0
  0
ARC
  5
21C
100
AcDbEntity
  8
0
 62
256
370
-1
 48
1.0
  6
ByLayer
100
AcDbCircle
 10
72.780000000000896
 20
122.59999999999991
 30
0.0
 40
0.2499999999999218
100
AcDbArc
 50
0.0
 51
270.00000000001302
  0
LINE
  5
21D
100
AcDbEntity
100
AcDbLine
  8
0
 62
256
370
-1
 48
1.0
  6
ByLayer
 10
72.780000000000925
 20
121.32499999999999
 30
0.0
 11
68.000000000000966
 21
121.32499999999999
 31
0.0
  0
LINE
  5
21E
100
AcDbEntity
100
AcDbLine
  8
0
 62
256
370
-1
 48
1.0
  6
ByLayer
 10
75.280000000000626
 20
376.82499999999982
 30
0.0
 11
75.280000000000854
 21
377.8499999999998
 31
0.0
  0
LINE
  5
21F
100
AcDbEntity
100
AcDbLine
  8
0
 62
256
370
-1
 48
1.0
  6
ByLayer
 10
76.280000000000626
 20
376.82499999999987
 30
0.0
 11
75.280000000000626
 21
376.82499999999982
 31
0.0
  0
LINE
  5
220
100
AcDbEntity
100
AcDbLine
  8
0
 62
256
370
-1
 48
1.0
  6
ByLayer
 10
75.030000000000996
 20
378.0999999999998
 30
0.0
 11
73.03000000000074
 21
378.09999999999974
 31
0.0
  0
ARC
  5
221
100
AcDbEntity
  8
0
 62
256
370
-1
 48
1.0
  6
ByLayer
100
AcDbCircle
 10
75.280000000000925
 20
378.09999999999974
 30
0.0
 40
0.2499999999999289
100
AcDbArc
 50
269.99999999998374
 51
180.0
  0
LINE
  5
222
100
AcDbEntity
100
AcDbLine
  8
0
 62
256
370
-1
 48
1.0
  6
ByLayer
 10
75.280000000000683
 20
372.64999999999986
 30
0.0
 11
75.280000000000797
 21
373.67499999999978
 31
0.0
  0
ARC
  5
223
100
AcDbEntity
  8
0
 62
256
370
-1
 48
1.0
  6
ByLayer
100
AcDbCircle
 10
75.280000000000626
 20
372.39999999999992
 30
0.0
 40
0.2499999999999502
100
AcDbArc
 50
180.0
 51
89.999999999986969
  0
LINE
  5
224
100
AcDbEntity
100
AcDbLine
  8
0
 62
256
370
-1
 48
1.0
  6
ByLayer
 10
76.280000000000712
 20
373.67499999999978
 30
0.0
 11
76.280000000000626
 21
376.82499999999987
 31
0.0
  0
LINE
  5
225
100
AcDbEntity
100
AcDbLine
  8
0
 62
256
370
-1
 48
1.0
  6
ByLayer
 10
75.280000000000797
 20
373.67499999999978
 30
0.0
 11
76.280000000000712
 21
373.67499999999978
 31
0.0
  0
LINE
  5
226
100
AcDbEntity
100
AcDbLine
  8
0
 62
256
370
-1
 48
1.0
  6
ByLayer
 10
90.813333333334981
 20
388.27999999999997
 30
0.0
 11
90.813333333334711
 21
395.0
 31
0.0
  0
LINE
  5
227
100
AcDbEntity
100
AcDbLine
  8
0
 62
256
370
-1
 48
1.0
  6
ByLayer
 10
68.00000000000118
 20
388.28000000000009
 30
0.0
 11
90.813333333334981
 21
388.27999999999997
 31
0.0
  0
LINE
  5
228
100
AcDbEntity
100
AcDbLine
  8
0
 62
256
370
-1
 48
1.0
  6
ByLayer
 10
113.62666666666803
 20
394.99999999999989
 30
0.0
 11
113.62666666666824
 21
388.27999999999997
 31
0.0
  0
LINE
  5
229
100
AcDbEntity
100
AcDbLine
  8
0
 62
256
370
-1
 48
1.0
  6
ByLayer
 10
90.813333333334711
 20
395.0
 30
0.0
 11
113.62666666666803
 21
394.99999999999989
 31
0.0
  0
LINE
  5
22A
100
AcDbEntity
100
AcDbLine
  8
0
 62
256
370
-1
 48
1.0
  6
ByLayer
 10
72.780000000000726
 20
377.8499999999998
 30
0.0
 11
72.780000000001039
 21
376.82499999999987
 31
0.0
  0
ARC
  5
22B
100
AcDbEntity
  8
0
 62
256
370
-1
 48
1.0
  6
ByLayer
100
AcDbCircle
 10
72.780000000000769
 20
378.0999999999998
 30
0.0
 40
0.2499999999999787
100
AcDbArc
 50
360.0
 51
269.99999999999022
  0
LINE
  5
22C
100
AcDbEntity
100
AcDbLine
  8
0
 62
256
370
-1
 48
1.0
  6
ByLayer
 10
72.780000000001039
 20
376.82499999999987
 30
0.0
 11
68.000000000000696
 21
376.82499999999993
 31
0.0
  0
LINE
  5
22D
100
AcDbEntity
100
AcDbLine
  8
0
 62
256
370
-1
 48
1.0
  6
ByLayer
 10
131.41000000000133
 20
378.09999999999974
 30
0.0
 11
129.41000000000156
 21
378.09999999999974
 31
0.0
  0
ARC
  5
22E
100
AcDbEntity
  8
0
 62
256
370
-1
 48
1.0
  6
ByLayer
100
AcDbCircle
 10
131.6600000000015
 20
378.09999999999991
 30
0.0
 40
0.2500000000001563
100
AcDbArc
 50
270.00000000003257
 51
180.0
  0
LINE
  5
22F
100
AcDbEntity
100
AcDbLine
  8
0
 62
256
370
-1
 48
1.0
  6
ByLayer
 10
129.16000000000162
 20
377.8499999999998
 30
0.0
 11
129.16000000000153
 21
376.82499999999987
 31
0.0
  0
ARC
  5
230
100
AcDbEntity
  8
0
 62
256
370
-1
 48
1.0
  6
ByLayer
100
AcDbCircle
 10
129.16000000000162
 20
378.0999999999998
 30
0.0
 40
0.2499999999999431
100
AcDbArc
 50
360.0
 51
270.0
  0
LINE
  5
231
100
AcDbEntity
100
AcDbLine
  8
0
 62
256
370
-1
 48
1.0
  6
ByLayer
 10
136.44000000000131
 20
388.27999999999986
 30
0.0
 11
136.44000000000165
 21
376.82499999999982
 31
0.0
  0
LINE
  5
232
100
AcDbEntity
100
AcDbLine
  8
0
 62
256
370
-1
 48
1.0
  6
ByLayer
 10
113.62666666666824
 20
388.27999999999997
 30
0.0
 11
136.44000000000131
 21
388.27999999999986
 31
0.0
  0
LINE
  5
233
100
AcDbEntity
100
AcDbLine
  8
0
 62
256
370
-1
 48
1.0
  6
ByLayer
 10
131.66000000000153
 20
376.82499999999987
 30
0.0
 11
131.66000000000165
 21
377.84999999999974
 31
0.0
  0
LINE
  5
234
100
AcDbEntity
100
AcDbLine
  8
0
 62
256
370
-1
 48
1.0
  6
ByLayer
 10
136.44000000000165
 20
376.82499999999982
 30
0.0
 11
131.66000000000153
 21
376.82499999999987
 31
0.0
  0
LINE
  5
235
100
AcDbEntity
100
AcDbLine
  8
0
 62
256
370
-1
 48
1.0
  6
ByLayer
 10
61.280000000000769
 20
-125.0
 30
0.0
 11
61.28000000000084
 21
100.0
 31
0.0
  0
LINE
  5
236
100
AcDbEntity
100
AcDbLine
  8
0
 62
256
370
-1
 48
1.0
  6
ByLayer
 10
61.28000000000084
 20
100.0
 30
0.0
 11
68.000000000000895
 21
100.0
 31
0.0
  0
LINE
  5
237
100
AcDbEntity
100
AcDbLine
  8
0
 62
256
370
-1
 48
1.0
  6
ByLayer
 10
90.813333333333986
 20
-125.00000000000001
 30
0.0
 11
90.813333333333986
 21
-118.28
 31
0.0
  0
LINE
  5
238
100
AcDbEntity
100
AcDbLine
  8
0
 62
256
370
-1
 48
1.0
  6
ByLayer
 10
113.62666666666732
 20
-125.00000000000001
 30
0.0
 11
90.813333333333986
 21
-125.00000000000001
 31
0.0
  0
LINE
  5
239
100
AcDbEntity
100
AcDbLine
  8
0
 62
256
370
-1
 48
1.0
  6
ByLayer
 10
68.000000000000654
 20
-118.27999999999989
 30
0.0
 11
68.000000000000654
 21
-125.0
 31
0.0
  0
LINE
  5
23A
100
AcDbEntity
100
AcDbLine
  8
0
 62
256
370
-1
 48
1.0
  6
ByLayer
 10
90.813333333333986
 20
-118.28
 30
0.0
 11
68.000000000000654
 21
-118.27999999999989
 31
0.0
  0
LINE
  5
23B
100
AcDbEntity
100
AcDbLine
  8
0
 62
256
370
-1
 48
1.0
  6
ByLayer
 10
-27.779999999999859
 20
137.85999999999993
 30
0.0
 11
-27.779999999999802
 21
-68.660000000000082
 31
0.0
  0
LINE
  5
23C
100
AcDbEntity
100
AcDbLine
  8
0
 62
256
370
-1
 48
1.0
  6
ByLayer
 10
-11.259999999999806
 20
-68.660000000000082
 30
0.0
 11
-11.259999999999806
 21
-61.940000000000083
 31
0.0
  0
LINE
  5
23D
100
AcDbEntity
100
AcDbLine
  8
0
 62
256
370
-1
 48
1.0
  6
ByLayer
 10
-27.779999999999802
 20
-68.660000000000082
 30
0.0
 11
-11.259999999999806
 21
-68.660000000000082
 31
0.0
  0
LINE
  5
23E
100
AcDbEntity
100
AcDbLine
  8
0
 62
256
370
-1
 48
1.0
  6
ByLayer
 10
-96.219999999999686
 20
137.8599999999999
 30
0.0
 11
-96.219999999999857
 21
-68.660000000000096
 31
0.0
  0
LINE
  5
23F
100
AcDbEntity
100
AcDbLine
  8
0
 62
256
370
-1
 48
1.0
  6
ByLayer
 10
-112.73999999999985
 20
-68.660000000000096
 30
0.0
 11
-112.73999999999984
 21
-61.940000000000119
 31
0.0
  0
LINE
  5
240
100
AcDbEntity
100
AcDbLine
  8
0
 62
256
370
-1
 48
1.0
  6
ByLayer
 10
-96.219999999999857
 20
-68.660000000000096
 30
0.0
 11
-112.73999999999985
 21
-68.660000000000096
 31
0.0
  0
LINE
  5
241
100
AcDbEntity
100
AcDbLine
  8
0
 62
256
370
-1
 48
1.0
  6
ByLayer
 10
5.260000000000197
 20
-61.940000000000083
 30
0.0
 11
5.260000000000197
 21
-68.660000000000082
 31
0.0
  0
LINE
  5
242
100
AcDbEntity
100
AcDbLine
  8
0
 62
256
370
-1
 48
1.0
  6
ByLayer
 10
-11.259999999999806
 20
-61.940000000000083
 30
0.0
 11
5.260000000000197
 21
-61.940000000000083
 31
0.0
  0
LINE
  5
243
100
AcDbEntity
100
AcDbLine
  8
0
 62
256
370
-1
 48
1.0
  6
ByLayer
 10
5.260000000000197
 20
-68.660000000000082
 30
0.0
 11
28.500000000000227
 21
-68.660000000000082
 31
0.0
  0
LINE
  5
244
100
AcDbEntity
100
AcDbLine
  8
0
 62
256
370
-1
 48
1.0
  6
ByLayer
 10
-129.25999999999985
 20
-61.94000000000009
 30
0.0
 11
-129.25999999999985
 21
-68.660000000000082
 31
0.0
  0
LINE
  5
245
100
AcDbEntity
100
AcDbLine
  8
0
 62
256
370
-1
 48
1.0
  6
ByLayer
 10
-112.73999999999984
 20
-61.940000000000119
 30
0.0
 11
-129.25999999999985
 21
-61.94000000000009
 31
0.0
  0
LINE
  5
246
100
AcDbEntity
100
AcDbLine
  8
0
 62
256
370
-1
 48
1.0
  6
ByLayer
 10
-129.25999999999985
 20
-68.660000000000082
 30
0.0
 11
-152.49999999999989
 21
-68.660000000000082
 31
0.0
  0
CIRCLE
  5
247
100
AcDbEntity
100
AcDbCircle
  8
0
 62
256
370
-1
 48
1.0
  6
ByLayer
 10
-6.7499999999997016
 20
326.10000000000002
 30
0.0
 40
2.0
  0
CIRCLE
  5
248
100
AcDbEntity
100
AcDbCircle
  8
0
 62
256
370
-1
 48
1.0
  6
ByLayer
 10
1.0833333333332575
 20
-121.63999999999999
 30
0.0
 40
1.5750000000000159
  0
CIRCLE
  5
249
100
AcDbEntity
100
AcDbCircle
  8
0
 62
256
370
-1
 48
1.0
  6
ByLayer
 10
-53.999999999999744
 20
-159.21999999999997
 30
0.0
 40
1.5
  0
CIRCLE
  5
24A
100
AcDbEntity
100
AcDbCircle
  8
0
 62
256
370
-1
 48
1.0
  6
ByLayer
 10
-141.60603717535878
 20
-341.60000000001708
 30
0.0
 40
1.9999999999999989
  0
CIRCLE
  5
24B
100
AcDbEntity
100
AcDbCircle
  8
0
 62
256
370
-1
 48
1.0
  6
ByLayer
 10
-141.77999999999926
 20
93.879999999999939
 30
0.0
 40
1.5750000000000111
  0
CIRCLE
  5
24C
100
AcDbEntity
100
AcDbCircle
  8
0
 62
256
370
-1
 48
1.0
  6
ByLayer
 10
17.779999999999639
 20
93.87999999999991
 30
0.0
 40
1.5750000000000111
  0
CIRCLE
  5
24D
100
AcDbEntity
100
AcDbCircle
  8
0
 62
256
370
-1
 48
1.0
  6
ByLayer
 10
102.22000000000064
 20
-121.64000000000013
 30
0.0
 40
1.5749999999999931
  0
LINE
  5
24E
100
AcDbEntity
100
AcDbLine
  8
0
 62
256
370
-1
 48
1.0
  6
ByLayer
 10
33.923962824641336
 20
-200.16000000000034
 30
0.0
 11
43.923962824641336
 21
-200.16000000000034
 31
0.0
  0
LINE
  5
24F
100
AcDbEntity
100
AcDbLine
  8
0
 62
256
370
-1
 48
1.0
  6
ByLayer
 10
33.923962824641336
 20
-206.88000000000034
 30
0.0
 11
33.923962824641336
 21
-200.16000000000034
 31
0.0
  0
LINE
  5
250
100
AcDbEntity
100
AcDbLine
  8
0
 62
256
370
-1
 48
1.0
  6
ByLayer
 10
43.923962824641336
 20
-206.88000000000034
 30
0.0
 11
89.098962824641319
 21
-206.88000000000034
 31
0.0
  0
LINE
  5
251
100
AcDbEntity
100
AcDbLine
  8
0
 62
256
370
-1
 48
1.0
  6
ByLayer
 10
43.923962824641336
 20
-200.16000000000034
 30
0.0
 11
43.923962824641336
 21
-206.88000000000034
 31
0.0
  0
LINE
  5
252
100
AcDbEntity
100
AcDbLine
  8
0
 62
256
370
-1
 48
1.0
  6
ByLayer
 10
145.23396282464142
 20
-267.77999999999975
 30
0.0
 11
145.23396282464137
 21
-287.77999999999975
 31
0.0
  0
ARC
  5
253
100
AcDbEntity
  8
0
 62
256
370
-1
 48
1.0
  6
ByLayer
100
AcDbCircle
 10
142.23396282464137
 20
-267.77999999999975
 30
0.0
 40
3.0000000000000568
100
AcDbArc
 50
0.0
 51
180.0
  0
LINE
  5
254
100
AcDbEntity
100
AcDbLine
  8
0
 62
256
370
-1
 48
1.0
  6
ByLayer
 10
139.23396282464131
 20
-287.77999999999975
 30
0.0
 11
139.23396282464131
 21
-267.7799999999998
 31
0.0
  0
ARC
  5
255
100
AcDbEntity
  8
0
 62
256
370
-1
 48
1.0
  6
ByLayer
100
AcDbCircle
 10
142.23396282464134
 20
-287.77999999999975
 30
0.0
 40
3.0000000000000284
100
AcDbArc
 50
180.0
 51
0.0
  0
LINE
  5
256
100
AcDbEntity
100
AcDbLine
  8
0
 62
256
370
-1
 48
1.0
  6
ByLayer
 10
43.923962824641194
 20
-326.88000000000051
 30
0.0
 11
33.923962824641194
 21
-326.88000000000045
 31
0.0
  0
LINE
  5
257
100
AcDbEntity
100
AcDbLine
  8
0
 62
256
370
-1
 48
1.0
  6
ByLayer
 10
43.923962824641166
 20
-320.16000000000059
 30
0.0
 11
43.923962824641194
 21
-326.88000000000051
 31
0.0
  0
LINE
  5
258
100
AcDbEntity
100
AcDbLine
  8
0
 62
256
370
-1
 48
1.0
  6
ByLayer
 10
33.923962824641251
 20
-320.16000000000037
 30
0.0
 11
43.923962824641166
 21
-320.16000000000059
 31
0.0
  0
LINE
  5
259
100
AcDbEntity
100
AcDbLine
  8
0
 62
256
370
-1
 48
1.0
  6
ByLayer
 10
33.923962824641194
 20
-326.88000000000045
 30
0.0
 11
33.923962824641251
 21
-320.16000000000037
 31
0.0
  0
LINE
  5
25A
100
AcDbEntity
100
AcDbLine
  8
0
 62
256
370
-1
 48
1.0
  6
ByLayer
 10
89.098962824641319
 20
-211.66000000000034
 30
0.0
 11
88.073962824641342
 21
-211.66000000000034
 31
0.0
  0
LINE
  5
25B
100
AcDbEntity
100
AcDbLine
  8
0
 62
256
370
-1
 48
1.0
  6
ByLayer
 10
89.098962824641319
 20
-206.88000000000034
 30
0.0
 11
89.098962824641319
 21
-211.66000000000034
 31
0.0
  0
LINE
  5
25C
100
AcDbEntity
100
AcDbLine
  8
0
 62
256
370
-1
 48
1.0
  6
ByLayer
 10
87.823962824641342
 20
-211.91000000000034
 30
0.0
 11
87.823962824641342
 21
-213.91000000000034
 31
0.0
  0
ARC
  5
25D
100
AcDbEntity
  8
0
 62
256
370
-1
 48
1.0
  6
ByLayer
100
AcDbCircle
 10
87.823962824641342
 20
-211.66000000000034
 30
0.0
 40
0.25
100
AcDbArc
 50
0.0
 51
270.0
  0
LINE
  5
25E
100
AcDbEntity
100
AcDbLine
  8
0
 62
256
370
-1
 48
1.0
  6
ByLayer
 10
92.248962824641325
 20
-214.16000000000034
 30
0.0
 11
93.27396282464133
 21
-214.16000000000034
 31
0.0
  0
LINE
  5
25F
100
AcDbEntity
100
AcDbLine
  8
0
 62
256
370
-1
 48
1.0
  6
ByLayer
 10
92.248962824641325
 20
-215.16000000000034
 30
0.0
 11
92.248962824641325
 21
-214.16000000000034
 31
0.0
  0
LINE
  5
260
100
AcDbEntity
100
AcDbLine
  8
0
 62
256
370
-1
 48
1.0
  6
ByLayer
 10
93.52396282464133
 20
-213.91000000000034
 30
0.0
 11
93.52396282464133
 21
-211.91000000000034
 31
0.0
  0
ARC
  5
261
100
AcDbEntity
  8
0
 62
256
370
-1
 48
1.0
  6
ByLayer
100
AcDbCircle
 10
93.52396282464133
 20
-214.16000000000034
 30
0.0
 40
0.25
100
AcDbArc
 50
180.0
 51
90.0
  0
LINE
  5
262
100
AcDbEntity
100
AcDbLine
  8
0
 62
256
370
-1
 48
1.0
  6
ByLayer
 10
88.073962824641342
 20
-214.16000000000034
 30
0.0
 11
89.098962824641319
 21
-214.16000000000034
 31
0.0
  0
ARC
  5
263
100
AcDbEntity
  8
0
 62
256
370
-1
 48
1.0
  6
ByLayer
100
AcDbCircle
 10
87.823962824641342
 20
-214.16000000000034
 30
0.0
 40
0.25
100
AcDbArc
 50
90.0
 51
0.0
  0
LINE
  5
264
100
AcDbEntity
100
AcDbLine
  8
0
 62
256
370
-1
 48
1.0
  6
ByLayer
 10
89.098962824641319
 20
-215.16000000000034
 30
0.0
 11
92.248962824641325
 21
-215.16000000000034
 31
0.0
  0
LINE
  5
265
100
AcDbEntity
100
AcDbLine
  8
0
 62
256
370
-1
 48
1.0
  6
ByLayer
 10
89.098962824641319
 20
-214.16000000000034
 30
0.0
 11
89.098962824641319
 21
-215.16000000000034
 31
0.0
  0
LINE
  5
266
100
AcDbEntity
100
AcDbLine
  8
0
 62
256
370
-1
 48
1.0
  6
ByLayer
 10
109.45396282464134
 20
-206.88000000000034
 30
0.0
 11
109.45396282464105
 21
-386.88000000000034
 31
0.0
  0
ARC
  5
267
100
AcDbEntity
  8
0
 62
256
370
-1
 48
1.0
  6
ByLayer
100
AcDbCircle
 10
32.173962824641308
 20
-249.38000000000034
 30
0.0
 40
2.625
100
AcDbArc
 50
0.0
 51
180.0
  0
LINE
  5
268
100
AcDbEntity
100
AcDbLine
  8
0
 62
256
370
-1
 48
1.0
  6
ByLayer
 10
34.798962824641308
 20
-256.88000000000034
 30
0.0
 11
34.798962824641308
 21
-249.38000000000034
 31
0.0
  0
LINE
  5
269
100
AcDbEntity
100
AcDbLine
  8
0
 62
256
370
-1
 48
1.0
  6
ByLayer
 10
93.27396282464133
 20
-211.66000000000034
 30
0.0
 11
92.248962824641296
 21
-211.66000000000034
 31
0.0
  0
ARC
  5
26A
100
AcDbEntity
  8
0
 62
256
370
-1
 48
1.0
  6
ByLayer
100
AcDbCircle
 10
93.52396282464133
 20
-211.66000000000034
 30
0.0
 40
0.25
100
AcDbArc
 50
270.0
 51
180.0
  0
LINE
  5
26B
100
AcDbEntity
100
AcDbLine
  8
0
 62
256
370
-1
 48
1.0
  6
ByLayer
 10
92.248962824641296
 20
-206.88000000000034
 30
0.0
 11
109.45396282464134
 21
-206.88000000000034
 31
0.0
  0
LINE
  5
26C
100
AcDbEntity
100
AcDbLine
  8
0
 62
256
370
-1
 48
1.0
  6
ByLayer
 10
92.248962824641296
 20
-211.66000000000034
 30
0.0
 11
92.248962824641296
 21
-206.88000000000034
 31
0.0
  0
LINE
  5
26D
100
AcDbEntity
100
AcDbLine
  8
0
 62
256
370
-1
 48
1.0
  6
ByLayer
 10
-45.751037175358675
 20
-214.16000000000034
 30
0.0
 11
-44.72603717535867
 21
-214.16000000000034
 31
0.0
  0
LINE
  5
26E
100
AcDbEntity
100
AcDbLine
  8
0
 62
256
370
-1
 48
1.0
  6
ByLayer
 10
-45.751037175358675
 20
-215.16000000000034
 30
0.0
 11
-45.751037175358675
 21
-214.16000000000034
 31
0.0
  0
LINE
  5
26F
100
AcDbEntity
100
AcDbLine
  8
0
 62
256
370
-1
 48
1.0
  6
ByLayer
 10
-44.47603717535867
 20
-213.91000000000034
 30
0.0
 11
-44.47603717535867
 21
-211.91000000000034
 31
0.0
  0
ARC
  5
270
100
AcDbEntity
  8
0
 62
256
370
-1
 48
1.0
  6
ByLayer
100
AcDbCircle
 10
-44.47603717535867
 20
-214.16000000000034
 30
0.0
 40
0.25
100
AcDbArc
 50
180.0
 51
90.0
  0
LINE
  5
271
100
AcDbEntity
100
AcDbLine
  8
0
 62
256
370
-1
 48
1.0
  6
ByLayer
 10
-49.926037175358658
 20
-214.16000000000034
 30
0.0
 11
-48.901037175358653
 21
-214.16000000000034
 31
0.0
  0
ARC
  5
272
100
AcDbEntity
  8
0
 62
256
370
-1
 48
1.0
  6
ByLayer
100
AcDbCircle
 10
-50.176037175358658
 20
-214.16000000000034
 30
0.0
 40
0.25
100
AcDbArc
 50
90.0
 51
0.0
  0
LINE
  5
273
100
AcDbEntity
100
AcDbLine
  8
0
 62
256
370
-1
 48
1.0
  6
ByLayer
 10
-48.901037175358653
 20
-215.16000000000034
 30
0.0
 11
-45.751037175358675
 21
-215.16000000000034
 31
0.0
  0
LINE
  5
274
100
AcDbEntity
100
AcDbLine
  8
0
 62
256
370
-1
 48
1.0
  6
ByLayer
 10
-48.901037175358653
 20
-214.16000000000034
 30
0.0
 11
-48.901037175358653
 21
-215.16000000000034
 31
0.0
  0
LINE
  5
275
100
AcDbEntity
100
AcDbLine
  8
0
 62
256
370
-1
 48
1.0
  6
ByLayer
 10
-17.826037175358579
 20
-200.16000000000034
 30
0.0
 11
-7.8260371753586639
 21
-200.16000000000034
 31
0.0
  0
LINE
  5
276
100
AcDbEntity
100
AcDbLine
  8
0
 62
256
370
-1
 48
1.0
  6
ByLayer
 10
-17.826037175358579
 20
-206.88000000000034
 30
0.0
 11
-17.826037175358579
 21
-200.16000000000034
 31
0.0
  0
LINE
  5
277
100
AcDbEntity
100
AcDbLine
  8
0
 62
256
370
-1
 48
1.0
  6
ByLayer
 10
-7.8260371753586639
 20
-206.88000000000034
 30
0.0
 11
20.098962824641319
 21
-206.88000000000034
 31
0.0
  0
LINE
  5
278
100
AcDbEntity
100
AcDbLine
  8
0
 62
256
370
-1
 48
1.0
  6
ByLayer
 10
-7.8260371753586639
 20
-200.16000000000034
 30
0.0
 11
-7.8260371753586639
 21
-206.88000000000034
 31
0.0
  0
LINE
  5
279
100
AcDbEntity
100
AcDbLine
  8
0
 62
256
370
-1
 48
1.0
  6
ByLayer
 10
-44.72603717535867
 20
-211.66000000000034
 30
0.0
 11
-45.751037175358675
 21
-211.66000000000034
 31
0.0
  0
ARC
  5
27A
100
AcDbEntity
  8
0
 62
256
370
-1
 48
1.0
  6
ByLayer
100
AcDbCircle
 10
-44.47603717535867
 20
-211.66000000000034
 30
0.0
 40
0.25
100
AcDbArc
 50
270.0
 51
180.0
  0
LINE
  5
27B
100
AcDbEntity
100
AcDbLine
  8
0
 62
256
370
-1
 48
1.0
  6
ByLayer
 10
-45.751037175358675
 20
-206.88000000000034
 30
0.0
 11
-17.826037175358579
 21
-206.88000000000034
 31
0.0
  0
LINE
  5
27C
100
AcDbEntity
100
AcDbLine
  8
0
 62
256
370
-1
 48
1.0
  6
ByLayer
 10
-45.751037175358675
 20
-211.66000000000034
 30
0.0
 11
-45.751037175358675
 21
-206.88000000000034
 31
0.0
  0
LINE
  5
27D
100
AcDbEntity
100
AcDbLine
  8
0
 62
256
370
-1
 48
1.0
  6
ByLayer
 10
19.073962824641313
 20
-214.16000000000034
 30
0.0
 11
20.098962824641319
 21
-214.16000000000034
 31
0.0
  0
ARC
  5
27E
100
AcDbEntity
  8
0
 62
256
370
-1
 48
1.0
  6
ByLayer
100
AcDbCircle
 10
18.823962824641313
 20
-214.16000000000034
 30
0.0
 40
0.25
100
AcDbArc
 50
90.0
 51
0.0
  0
LINE
  5
27F
100
AcDbEntity
100
AcDbLine
  8
0
 62
256
370
-1
 48
1.0
  6
ByLayer
 10
20.098962824641319
 20
-215.16000000000034
 30
0.0
 11
23.248962824641296
 21
-215.16000000000034
 31
0.0
  0
LINE
  5
280
100
AcDbEntity
100
AcDbLine
  8
0
 62
256
370
-1
 48
1.0
  6
ByLayer
 10
20.098962824641319
 20
-214.16000000000034
 30
0.0
 11
20.098962824641319
 21
-215.16000000000034
 31
0.0
  0
LINE
  5
281
100
AcDbEntity
100
AcDbLine
  8
0
 62
256
370
-1
 48
1.0
  6
ByLayer
 10
20.098962824641319
 20
-211.66000000000034
 30
0.0
 11
19.073962824641313
 21
-211.66000000000034
 31
0.0
  0
LINE
  5
282
100
AcDbEntity
100
AcDbLine
  8
0
 62
256
370
-1
 48
1.0
  6
ByLayer
 10
20.098962824641319
 20
-206.88000000000034
 30
0.0
 11
20.098962824641319
 21
-211.66000000000034
 31
0.0
  0
LINE
  5
283
100
AcDbEntity
100
AcDbLine
  8
0
 62
256
370
-1
 48
1.0
  6
ByLayer
 10
18.823962824641313
 20
-211.91000000000034
 30
0.0
 11
18.823962824641313
 21
-213.91000000000034
 31
0.0
  0
ARC
  5
284
100
AcDbEntity
  8
0
 62
256
370
-1
 48
1.0
  6
ByLayer
100
AcDbCircle
 10
18.823962824641313
 20
-211.66000000000034
 30
0.0
 40
0.25
100
AcDbArc
 50
0.0
 51
270.0
  0
LINE
  5
285
100
AcDbEntity
100
AcDbLine
  8
0
 62
256
370
-1
 48
1.0
  6
ByLayer
 10
24.27396282464133
 20
-211.66000000000034
 30
0.0
 11
23.248962824641296
 21
-211.66000000000034
 31
0.0
  0
ARC
  5
286
100
AcDbEntity
  8
0
 62
256
370
-1
 48
1.0
  6
ByLayer
100
AcDbCircle
 10
24.52396282464133
 20
-211.66000000000034
 30
0.0
 40
0.25
100
AcDbArc
 50
270.0
 51
180.0
  0
LINE
  5
287
100
AcDbEntity
100
AcDbLine
  8
0
 62
256
370
-1
 48
1.0
  6
ByLayer
 10
23.248962824641296
 20
-206.88000000000034
 30
0.0
 11
33.923962824641336
 21
-206.88000000000034
 31
0.0
  0
LINE
  5
288
100
AcDbEntity
100
AcDbLine
  8
0
 62
256
370
-1
 48
1.0
  6
ByLayer
 10
23.248962824641296
 20
-211.66000000000034
 30
0.0
 11
23.248962824641296
 21
-206.88000000000034
 31
0.0
  0
LINE
  5
289
100
AcDbEntity
100
AcDbLine
  8
0
 62
256
370
-1
 48
1.0
  6
ByLayer
 10
23.248962824641296
 20
-214.16000000000034
 30
0.0
 11
24.27396282464133
 21
-214.16000000000034
 31
0.0
  0
LINE
  5
28A
100
AcDbEntity
100
AcDbLine
  8
0
 62
256
370
-1
 48
1.0
  6
ByLayer
 10
23.248962824641296
 20
-215.16000000000034
 30
0.0
 11
23.248962824641296
 21
-214.16000000000034
 31
0.0
  0
LINE
  5
28B
100
AcDbEntity
100
AcDbLine
  8
0
 62
256
370
-1
 48
1.0
  6
ByLayer
 10
24.52396282464133
 20
-213.91000000000034
 30
0.0
 11
24.52396282464133
 21
-211.91000000000034
 31
0.0
  0
ARC
  5
28C
100
AcDbEntity
  8
0
 62
256
370
-1
 48
1.0
  6
ByLayer
100
AcDbCircle
 10
24.52396282464133
 20
-214.16000000000034
 30
0.0
 40
0.25
100
AcDbArc
 50
180.0
 51
90.0
  0
LINE
  5
28D
100
AcDbEntity
100
AcDbLine
  8
0
 62
256
370
-1
 48
1.0
  6
ByLayer
 10
109.45396282464125
 20
-256.88000000000062
 30
0.0
 11
-135.10603717535867
 21
-256.88000000000034
 31
0.0
  0
LINE
  5
28E
100
AcDbEntity
100
AcDbLine
  8
0
 62
256
370
-1
 48
1.0
  6
ByLayer
 10
-60.451037175358664
 20
-249.38000000000034
 30
0.0
 11
-60.451037175358664
 21
-256.88000000000034
 31
0.0
  0
LINE
  5
28F
100
AcDbEntity
100
AcDbLine
  8
0
 62
256
370
-1
 48
1.0
  6
ByLayer
 10
-135.10603717535867
 20
-206.88000000000034
 30
0.0
 11
-117.90103717535865
 21
-206.88000000000034
 31
0.0
  0
LINE
  5
290
100
AcDbEntity
100
AcDbLine
  8
0
 62
256
370
-1
 48
1.0
  6
ByLayer
 10
-135.10603717535889
 20
-386.88000000000034
 30
0.0
 11
-135.10603717535867
 21
-206.88000000000034
 31
0.0
  0
LINE
  5
291
100
AcDbEntity
100
AcDbLine
  8
0
 62
256
370
-1
 48
1.0
  6
ByLayer
 10
29.548962824641308
 20
-249.38000000000034
 30
0.0
 11
29.548962824641336
 21
-256.88000000000034
 31
0.0
  0
ARC
  5
292
100
AcDbEntity
  8
0
 62
256
370
-1
 48
1.0
  6
ByLayer
100
AcDbCircle
 10
-57.826037175358664
 20
-249.38000000000034
 30
0.0
 40
2.625
100
AcDbArc
 50
0.0
 51
180.0
  0
LINE
  5
293
100
AcDbEntity
100
AcDbLine
  8
0
 62
256
370
-1
 48
1.0
  6
ByLayer
 10
-55.201037175358664
 20
-256.88000000000034
 30
0.0
 11
-55.201037175358664
 21
-249.38000000000034
 31
0.0
  0
LINE
  5
294
100
AcDbEntity
100
AcDbLine
  8
0
 62
256
370
-1
 48
1.0
  6
ByLayer
 10
-118.92603717535877
 20
-214.16000000000034
 30
0.0
 11
-117.90103717535865
 21
-214.16000000000034
 31
0.0
  0
ARC
  5
295
100
AcDbEntity
  8
0
 62
256
370
-1
 48
1.0
  6
ByLayer
100
AcDbCircle
 10
-119.17603717535872
 20
-214.16000000000028
 30
0.0
 40
0.2499999999999431
100
AcDbArc
 50
89.999999999986969
 51
360.0
  0
LINE
  5
296
100
AcDbEntity
100
AcDbLine
  8
0
 62
256
370
-1
 48
1.0
  6
ByLayer
 10
-117.90103717535865
 20
-215.16000000000034
 30
0.0
 11
-114.75103717535868
 21
-215.16000000000034
 31
0.0
  0
LINE
  5
297
100
AcDbEntity
100
AcDbLine
  8
0
 62
256
370
-1
 48
1.0
  6
ByLayer
 10
-117.90103717535865
 20
-214.16000000000034
 30
0.0
 11
-117.90103717535865
 21
-215.16000000000034
 31
0.0
  0
LINE
  5
298
100
AcDbEntity
100
AcDbLine
  8
0
 62
256
370
-1
 48
1.0
  6
ByLayer
 10
-117.90103717535865
 20
-211.66000000000034
 30
0.0
 11
-118.92603717535866
 21
-211.66000000000034
 31
0.0
  0
LINE
  5
299
100
AcDbEntity
100
AcDbLine
  8
0
 62
256
370
-1
 48
1.0
  6
ByLayer
 10
-117.90103717535865
 20
-206.88000000000034
 30
0.0
 11
-117.90103717535865
 21
-211.66000000000034
 31
0.0
  0
LINE
  5
29A
100
AcDbEntity
100
AcDbLine
  8
0
 62
256
370
-1
 48
1.0
  6
ByLayer
 10
-119.17603717535866
 20
-211.91000000000034
 30
0.0
 11
-119.17603717535866
 21
-213.91000000000034
 31
0.0
  0
ARC
  5
29B
100
AcDbEntity
  8
0
 62
256
370
-1
 48
1.0
  6
ByLayer
100
AcDbCircle
 10
-119.17603717535866
 20
-211.66000000000034
 30
0.0
 40
0.25
100
AcDbArc
 50
0.0
 51
270.0
  0
LINE
  5
29C
100
AcDbEntity
100
AcDbLine
  8
0
 62
256
370
-1
 48
1.0
  6
ByLayer
 10
-113.72603717535867
 20
-211.66000000000034
 30
0.0
 11
-114.75103717535868
 21
-211.66000000000034
 31
0.0
  0
ARC
  5
29D
100
AcDbEntity
  8
0
 62
256
370
-1
 48
1.0
  6
ByLayer
100
AcDbCircle
 10
-113.47603717535867
 20
-211.66000000000034
 30
0.0
 40
0.25
100
AcDbArc
 50
270.0
 51
180.0
  0
LINE
  5
29E
100
AcDbEntity
100
AcDbLine
  8
0
 62
256
370
-1
 48
1.0
  6
ByLayer
 10
-114.75103717535868
 20
-206.88000000000034
 30
0.0
 11
-72.576037175358664
 21
-206.88000000000034
 31
0.0
  0
LINE
  5
29F
100
AcDbEntity
100
AcDbLine
  8
0
 62
256
370
-1
 48
1.0
  6
ByLayer
 10
-114.75103717535868
 20
-211.66000000000034
 30
0.0
 11
-114.75103717535868
 21
-206.88000000000034
 31
0.0
  0
LINE
  5
2A0
100
AcDbEntity
100
AcDbLine
  8
0
 62
256
370
-1
 48
1.0
  6
ByLayer
 10
-114.75103717535868
 20
-214.16000000000034
 30
0.0
 11
-113.72603717535875
 21
-214.16000000000034
 31
0.0
  0
LINE
  5
2A1
100
AcDbEntity
100
AcDbLine
  8
0
 62
256
370
-1
 48
1.0
  6
ByLayer
 10
-114.75103717535868
 20
-215.16000000000034
 30
0.0
 11
-114.75103717535868
 21
-214.16000000000034
 31
0.0
  0
LINE
  5
2A2
100
AcDbEntity
100
AcDbLine
  8
0
 62
256
370
-1
 48
1.0
  6
ByLayer
 10
-113.47603717535867
 20
-213.91000000000034
 30
0.0
 11
-113.47603717535867
 21
-211.91000000000034
 31
0.0
  0
ARC
  5
2A3
100
AcDbEntity
  8
0
 62
256
370
-1
 48
1.0
  6
ByLayer
100
AcDbCircle
 10
-113.47603717535871
 20
-214.16000000000037
 30
0.0
 40
0.2500000000000426
100
AcDbArc
 50
180.0
 51
89.999999999990223
  0
LINE
  5
2A4
100
AcDbEntity
100
AcDbLine
  8
0
 62
256
370
-1
 48
1.0
  6
ByLayer
 10
-48.901037175358653
 20
-211.66000000000034
 30
0.0
 11
-49.926037175358658
 21
-211.66000000000034
 31
0.0
  0
LINE
  5
2A5
100
AcDbEntity
100
AcDbLine
  8
0
 62
256
370
-1
 48
1.0
  6
ByLayer
 10
-48.901037175358653
 20
-206.88000000000034
 30
0.0
 11
-48.901037175358653
 21
-211.66000000000034
 31
0.0
  0
LINE
  5
2A6
100
AcDbEntity
100
AcDbLine
  8
0
 62
256
370
-1
 48
1.0
  6
ByLayer
 10
-50.176037175358658
 20
-211.91000000000034
 30
0.0
 11
-50.176037175358658
 21
-213.91000000000034
 31
0.0
  0
ARC
  5
2A7
100
AcDbEntity
  8
0
 62
256
370
-1
 48
1.0
  6
ByLayer
100
AcDbCircle
 10
-50.176037175358658
 20
-211.66000000000034
 30
0.0
 40
0.25
100
AcDbArc
 50
0.0
 51
270.0
  0
LINE
  5
2A8
100
AcDbEntity
100
AcDbLine
  8
0
 62
256
370
-1
 48
1.0
  6
ByLayer
 10
-72.576037175358664
 20
-206.88000000000034
 30
0.0
 11
-72.576037175358664
 21
-200.16000000000034
 31
0.0
  0
LINE
  5
2A9
100
AcDbEntity
100
AcDbLine
  8
0
 62
256
370
-1
 48
1.0
  6
ByLayer
 10
-59.576037175358664
 20
-206.88000000000034
 30
0.0
 11
-48.901037175358653
 21
-206.88000000000034
 31
0.0
  0
LINE
  5
2AA
100
AcDbEntity
100
AcDbLine
  8
0
 62
256
370
-1
 48
1.0
  6
ByLayer
 10
-59.576037175358664
 20
-200.16000000000034
 30
0.0
 11
-59.576037175358664
 21
-206.88000000000034
 31
0.0
  0
CIRCLE
  5
2AB
100
AcDbEntity
100
AcDbCircle
  8
0
 62
256
370
-1
 48
1.0
  6
ByLayer
 10
-7.2499999999997584
 20
318.10000000000002
 30
0.0
 40
1.575
  0
CIRCLE
  5
2AC
100
AcDbEntity
100
AcDbCircle
  8
0
 62
256
370
-1
 48
1.0
  6
ByLayer
 10
-141.60603717535878
 20
-239.72000000001717
 30
0.0
 40
1.9999999999999989
  0
CIRCLE
  5
2AD
100
AcDbEntity
100
AcDbCircle
  8
0
 62
256
370
-1
 48
1.0
  6
ByLayer
 10
1.0833333333334849
 20
391.63999999999999
 30
0.0
 40
1.575
  0
CIRCLE
  5
2AE
100
AcDbEntity
100
AcDbCircle
  8
0
 62
256
370
-1
 48
1.0
  6
ByLayer
 10
-61.999999999999773
 20
-167.21999999999994
 30
0.0
 40
1.5
  0
CIRCLE
  5
2AF
100
AcDbEntity
100
AcDbCircle
  8
0
 62
256
370
-1
 48
1.0
  6
ByLayer
 10
-140.10999999999987
 20
-65.300000000000082
 30
0.0
 40
1.575
  0
CIRCLE
  5
2B0
100
AcDbEntity
100
AcDbCircle
  8
0
 62
256
370
-1
 48
1.0
  6
ByLayer
 10
16.11000000000022
 20
-65.300000000000068
 30
0.0
 40
1.575
  0
CIRCLE
  5
2B1
100
AcDbEntity
100
AcDbCircle
  8
0
 62
256
370
-1
 48
1.0
  6
ByLayer
 10
102.22000000000125
 20
391.63999999999999
 30
0.0
 40
1.574999999999988
  0
LINE
  5
2B2
100
AcDbEntity
100
AcDbLine
  8
0
 62
256
370
-1
 48
1.0
  6
ByLayer
 10
140.67396282464142
 20
-335.23999999999972
 30
0.0
 11
140.67396282464142
 21
-374.99999999999977
 31
0.0
  0
LINE
  5
2B3
100
AcDbEntity
100
AcDbLine
  8
0
 62
256
370
-1
 48
1.0
  6
ByLayer
 10
133.95396282464142
 20
-335.23999999999978
 30
0.0
 11
140.67396282464142
 21
-335.23999999999972
 31
0.0
  0
LINE
  5
2B4
100
AcDbEntity
100
AcDbLine
  8
0
 62
256
370
-1
 48
1.0
  6
ByLayer
 10
162.95396282464134
 20
-374.99999999999977
 30
0.0
 11
163.93481631588804
 21
-318.80694112108756
 31
0.0
  0
LINE
  5
2B5
100
AcDbEntity
100
AcDbLine
  8
0
 62
256
370
-1
 48
1.0
  6
ByLayer
 10
140.67396282464142
 20
-374.99999999999977
 30
0.0
 11
162.95396282464134
 21
-374.99999999999977
 31
0.0
  0
LINE
  5
2B6
100
AcDbEntity
100
AcDbLine
  8
0
 62
256
370
-1
 48
1.0
  6
ByLayer
 10
109.45396282464125
 20
-348.67999999999984
 30
0.0
 11
133.36603900574713
 21
-348.67999999999978
 31
0.0
  0
LINE
  5
2B7
100
AcDbEntity
100
AcDbLine
  8
0
 62
256
370
-1
 48
1.0
  6
ByLayer
 10
133.95396282464134
 20
-341.95999999999981
 30
0.0
 11
133.95396282464142
 21
-335.23999999999978
 31
0.0
  0
LINE
  5
2B8
100
AcDbEntity
100
AcDbLine
  8
0
 62
256
370
-1
 48
1.0
  6
ByLayer
 10
133.36603900574713
 20
-348.67999999999978
 30
0.0
 11
133.95396282464134
 21
-341.95999999999981
 31
0.0
  0
LINE
  5
2B9
100
AcDbEntity
100
AcDbLine
  8
0
 62
256
370
-1
 48
1.0
  6
ByLayer
 10
152.23396282464137
 20
-309.99999999999994
 30
0.0
 11
152.23396282464131
 21
-302.16833333333301
 31
0.0
  0
ARC
  5
2BA
100
AcDbEntity
  8
0
 62
256
370
-1
 48
1.0
  6
ByLayer
100
AcDbCircle
 10
150.23396282464142
 20
-309.99999999999989
 30
0.0
 40
1.9999999999999432
100
AcDbArc
 50
270.0
 51
360.0
  0
LINE
  5
2BB
100
AcDbEntity
100
AcDbLine
  8
0
 62
256
370
-1
 48
1.0
  6
ByLayer
 10
147.45396282464134
 20
-302.16833333333301
 30
0.0
 11
147.45396282464139
 21
-303.19333333333299
 31
0.0
  0
LINE
  5
2BC
100
AcDbEntity
100
AcDbLine
  8
0
 62
256
370
-1
 48
1.0
  6
ByLayer
 10
152.23396282464131
 20
-302.16833333333301
 30
0.0
 11
147.45396282464134
 21
-302.16833333333301
 31
0.0
  0
LINE
  5
2BD
100
AcDbEntity
100
AcDbLine
  8
0
 62
256
370
-1
 48
1.0
  6
ByLayer
 10
158.95396282464134
 20
-318.71999999999991
 30
0.0
 11
145.51396282464145
 21
-318.71999999999991
 31
0.0
  0
LINE
  5
2BE
100
AcDbEntity
100
AcDbLine
  8
0
 62
256
370
-1
 48
1.0
  6
ByLayer
 10
163.93481631588804
 20
-318.80694112108756
 30
0.0
 11
158.95396282464134
 21
-318.71999999999991
 31
0.0
  0
LINE
  5
2BF
100
AcDbEntity
100
AcDbLine
  8
0
 62
256
370
-1
 48
1.0
  6
ByLayer
 10
145.51396282464142
 20
-311.99999999999994
 30
0.0
 11
150.23396282464142
 21
-311.99999999999989
 31
0.0
  0
LINE
  5
2C0
100
AcDbEntity
100
AcDbLine
  8
0
 62
256
370
-1
 48
1.0
  6
ByLayer
 10
145.51396282464145
 20
-318.71999999999991
 30
0.0
 11
145.51396282464142
 21
-311.99999999999994
 31
0.0
  0
LINE
  5
2C1
100
AcDbEntity
100
AcDbLine
  8
0
 62
256
370
-1
 48
1.0
  6
ByLayer
 10
143.95396282464128
 20
-302.16833333333301
 30
0.0
 11
143.95396282464125
 21
-299.01833333333298
 31
0.0
  0
LINE
  5
2C2
100
AcDbEntity
100
AcDbLine
  8
0
 62
256
370
-1
 48
1.0
  6
ByLayer
 10
144.95396282464151
 20
-302.16833333333295
 30
0.0
 11
143.95396282464128
 21
-302.16833333333301
 31
0.0
  0
LINE
  5
2C3
100
AcDbEntity
100
AcDbLine
  8
0
 62
256
370
-1
 48
1.0
  6
ByLayer
 10
144.95396282464139
 20
-299.01833333333298
 30
0.0
 11
144.95396282464145
 21
-297.993333333333
 31
0.0
  0
LINE
  5
2C4
100
AcDbEntity
100
AcDbLine
  8
0
 62
256
370
-1
 48
1.0
  6
ByLayer
 10
143.95396282464125
 20
-299.01833333333298
 30
0.0
 11
144.95396282464139
 21
-299.01833333333298
 31
0.0
  0
LINE
  5
2C5
100
AcDbEntity
100
AcDbLine
  8
0
 62
256
370
-1
 48
1.0
  6
ByLayer
 10
147.20396282464139
 20
-303.44333333333299
 30
0.0
 11
145.20396282464131
 21
-303.44333333333299
 31
0.0
  0
ARC
  5
2C6
100
AcDbEntity
  8
0
 62
256
370
-1
 48
1.0
  6
ByLayer
100
AcDbCircle
 10
147.45396282464139
 20
-303.44333333333299
 30
0.0
 40
0.25
100
AcDbArc
 50
180.0
 51
90.0
  0
LINE
  5
2C7
100
AcDbEntity
100
AcDbLine
  8
0
 62
256
370
-1
 48
1.0
  6
ByLayer
 10
144.95396282464137
 20
-303.19333333333299
 30
0.0
 11
144.95396282464151
 21
-302.16833333333295
 31
0.0
  0
ARC
  5
2C8
100
AcDbEntity
  8
0
 62
256
370
-1
 48
1.0
  6
ByLayer
100
AcDbCircle
 10
144.95396282464134
 20
-303.44333333333293
 30
0.0
 40
0.2499999999999716
100
AcDbArc
 50
89.999999999993491
 51
360.0
  0
LINE
  5
2C9
100
AcDbEntity
100
AcDbLine
  8
0
 62
256
370
-1
 48
1.0
  6
ByLayer
 10
152.23396282464131
 20
-299.01833333333303
 30
0.0
 11
152.23396282464137
 21
-286.18666666666661
 31
0.0
  0
LINE
  5
2CA
100
AcDbEntity
100
AcDbLine
  8
0
 62
256
370
-1
 48
1.0
  6
ByLayer
 10
147.45396282464134
 20
-299.01833333333298
 30
0.0
 11
152.23396282464131
 21
-299.01833333333303
 31
0.0
  0
LINE
  5
2CB
100
AcDbEntity
100
AcDbLine
  8
0
 62
256
370
-1
 48
1.0
  6
ByLayer
 10
158.95396282464139
 20
-286.18666666666661
 30
0.0
 11
158.95396282464139
 21
-266.37333333333328
 31
0.0
  0
LINE
  5
2CC
100
AcDbEntity
100
AcDbLine
  8
0
 62
256
370
-1
 48
1.0
  6
ByLayer
 10
152.23396282464137
 20
-286.18666666666661
 30
0.0
 11
158.95396282464139
 21
-286.18666666666661
 31
0.0
  0
LINE
  5
2CD
100
AcDbEntity
100
AcDbLine
  8
0
 62
256
370
-1
 48
1.0
  6
ByLayer
 10
145.20396282464134
 20
-297.743333333333
 30
0.0
 11
147.20396282464139
 21
-297.743333333333
 31
0.0
  0
ARC
  5
2CE
100
AcDbEntity
  8
0
 62
256
370
-1
 48
1.0
  6
ByLayer
100
AcDbCircle
 10
144.95396282464139
 20
-297.74333333333306
 30
0.0
 40
0.2499999999999431
100
AcDbArc
 50
0.0
 51
270.00000000001302
  0
LINE
  5
2CF
100
AcDbEntity
100
AcDbLine
  8
0
 62
256
370
-1
 48
1.0
  6
ByLayer
 10
147.45396282464145
 20
-297.993333333333
 30
0.0
 11
147.45396282464134
 21
-299.01833333333298
 31
0.0
  0
ARC
  5
2D0
100
AcDbEntity
  8
0
 62
256
370
-1
 48
1.0
  6
ByLayer
100
AcDbCircle
 10
147.45396282464142
 20
-297.743333333333
 30
0.0
 40
0.2500000000000284
100
AcDbArc
 50
270.00000000000654
 51
180.0
  0
LINE
  5
2D1
100
AcDbEntity
100
AcDbLine
  8
0
 62
256
370
-1
 48
1.0
  6
ByLayer
 10
150.23396282464137
 20
-243.55999999999995
 30
0.0
 11
145.51396282464137
 21
-243.55999999999995
 31
0.0
  0
ARC
  5
2D2
100
AcDbEntity
  8
0
 62
256
370
-1
 48
1.0
  6
ByLayer
100
AcDbCircle
 10
150.23396282464137
 20
-245.55999999999995
 30
0.0
 40
2.0
100
AcDbArc
 50
0.0
 51
90.0
  0
LINE
  5
2D3
100
AcDbEntity
100
AcDbLine
  8
0
 62
256
370
-1
 48
1.0
  6
ByLayer
 10
145.51396282464137
 20
-236.83999999999995
 30
0.0
 11
158.95396282464125
 21
-236.83999999999997
 31
0.0
  0
LINE
  5
2D4
100
AcDbEntity
100
AcDbLine
  8
0
 62
256
370
-1
 48
1.0
  6
ByLayer
 10
145.51396282464137
 20
-243.55999999999995
 30
0.0
 11
145.51396282464137
 21
-236.83999999999995
 31
0.0
  0
LINE
  5
2D5
100
AcDbEntity
100
AcDbLine
  8
0
 62
256
370
-1
 48
1.0
  6
ByLayer
 10
133.95396282464128
 20
-220.32000000000016
 30
0.0
 11
133.95396282464128
 21
-213.60000000000011
 31
0.0
  0
LINE
  5
2D6
100
AcDbEntity
100
AcDbLine
  8
0
 62
256
370
-1
 48
1.0
  6
ByLayer
 10
140.67396282464142
 20
-220.32000000000011
 30
0.0
 11
133.95396282464128
 21
-220.32000000000016
 31
0.0
  0
LINE
  5
2D7
100
AcDbEntity
100
AcDbLine
  8
0
 62
256
370
-1
 48
1.0
  6
ByLayer
 10
133.36603900574707
 20
-206.88000000000008
 30
0.0
 11
109.45396282464128
 21
-206.88000000000011
 31
0.0
  0
LINE
  5
2D8
100
AcDbEntity
100
AcDbLine
  8
0
 62
256
370
-1
 48
1.0
  6
ByLayer
 10
133.95396282464128
 20
-213.60000000000011
 30
0.0
 11
133.36603900574707
 21
-206.88000000000008
 31
0.0
  0
LINE
  5
2D9
100
AcDbEntity
100
AcDbLine
  8
0
 62
256
370
-1
 48
1.0
  6
ByLayer
 10
165.36360171088859
 20
-236.95188066292582
 30
0.0
 11
166.34792564928239
 21
-180.55999999999972
 31
0.0
  0
LINE
  5
2DA
100
AcDbEntity
100
AcDbLine
  8
0
 62
256
370
-1
 48
1.0
  6
ByLayer
 10
158.95396282464125
 20
-236.83999999999997
 30
0.0
 11
165.36360171088859
 21
-236.95188066292582
 31
0.0
  0
LINE
  5
2DB
100
AcDbEntity
100
AcDbLine
  8
0
 62
256
370
-1
 48
1.0
  6
ByLayer
 10
140.67396282464139
 20
-180.56000000000017
 30
0.0
 11
140.67396282464142
 21
-220.32000000000011
 31
0.0
  0
LINE
  5
2DC
100
AcDbEntity
100
AcDbLine
  8
0
 62
256
370
-1
 48
1.0
  6
ByLayer
 10
166.34792564928239
 20
-180.55999999999972
 30
0.0
 11
140.67396282464139
 21
-180.56000000000017
 31
0.0
  0
LINE
  5
2DD
100
AcDbEntity
100
AcDbLine
  8
0
 62
256
370
-1
 48
1.0
  6
ByLayer
 10
147.20396282464145
 20
-257.81666666666661
 30
0.0
 11
145.20396282464128
 21
-257.81666666666661
 31
0.0
  0
ARC
  5
2DE
100
AcDbEntity
  8
0
 62
256
370
-1
 48
1.0
  6
ByLayer
100
AcDbCircle
 10
147.45396282464139
 20
-257.81666666666655
 30
0.0
 40
0.2499999999999573
100
AcDbArc
 50
180.0
 51
90.000000000006509
  0
LINE
  5
2DF
100
AcDbEntity
100
AcDbLine
  8
0
 62
256
370
-1
 48
1.0
  6
ByLayer
 10
144.95396282464139
 20
-257.56666666666661
 30
0.0
 11
144.95396282464142
 21
-256.54166666666663
 31
0.0
  0
ARC
  5
2E0
100
AcDbEntity
  8
0
 62
256
370
-1
 48
1.0
  6
ByLayer
100
AcDbCircle
 10
144.95396282464134
 20
-257.81666666666655
 30
0.0
 40
0.2499999999999431
100
AcDbArc
 50
89.999999999986969
 51
360.0
  0
LINE
  5
2E1
100
AcDbEntity
100
AcDbLine
  8
0
 62
256
370
-1
 48
1.0
  6
ByLayer
 10
152.2339628246414
 20
-266.37333333333328
 30
0.0
 11
152.23396282464137
 21
-256.54166666666663
 31
0.0
  0
LINE
  5
2E2
100
AcDbEntity
100
AcDbLine
  8
0
 62
256
370
-1
 48
1.0
  6
ByLayer
 10
158.95396282464139
 20
-266.37333333333328
 30
0.0
 11
152.2339628246414
 21
-266.37333333333328
 31
0.0
  0
LINE
  5
2E3
100
AcDbEntity
100
AcDbLine
  8
0
 62
256
370
-1
 48
1.0
  6
ByLayer
 10
147.45396282464137
 20
-256.54166666666663
 30
0.0
 11
147.45396282464137
 21
-257.56666666666661
 31
0.0
  0
LINE
  5
2E4
100
AcDbEntity
100
AcDbLine
  8
0
 62
256
370
-1
 48
1.0
  6
ByLayer
 10
152.23396282464137
 20
-256.54166666666663
 30
0.0
 11
147.45396282464137
 21
-256.54166666666663
 31
0.0
  0
LINE
  5
2E5
100
AcDbEntity
100
AcDbLine
  8
0
 62
256
370
-1
 48
1.0
  6
ByLayer
 10
145.20396282464125
 20
-252.11666666666662
 30
0.0
 11
147.20396282464142
 21
-252.11666666666659
 31
0.0
  0
ARC
  5
2E6
100
AcDbEntity
  8
0
 62
256
370
-1
 48
1.0
  6
ByLayer
100
AcDbCircle
 10
144.95396282464134
 20
-252.1166666666667
 30
0.0
 40
0.2499999999999289
100
AcDbArc
 50
0.0
 51
270.00000000001302
  0
LINE
  5
2E7
100
AcDbEntity
100
AcDbLine
  8
0
 62
256
370
-1
 48
1.0
  6
ByLayer
 10
147.45396282464142
 20
-252.36666666666662
 30
0.0
 11
147.45396282464139
 21
-253.39166666666659
 31
0.0
  0
ARC
  5
2E8
100
AcDbEntity
  8
0
 62
256
370
-1
 48
1.0
  6
ByLayer
100
AcDbCircle
 10
147.45396282464145
 20
-252.11666666666662
 30
0.0
 40
0.2500000000000142
100
AcDbArc
 50
269.99999999999346
 51
180.0
  0
LINE
  5
2E9
100
AcDbEntity
100
AcDbLine
  8
0
 62
256
370
-1
 48
1.0
  6
ByLayer
 10
143.95396282464131
 20
-256.54166666666663
 30
0.0
 11
143.95396282464131
 21
-253.39166666666659
 31
0.0
  0
LINE
  5
2EA
100
AcDbEntity
100
AcDbLine
  8
0
 62
256
370
-1
 48
1.0
  6
ByLayer
 10
144.95396282464142
 20
-256.54166666666663
 30
0.0
 11
143.95396282464131
 21
-256.54166666666663
 31
0.0
  0
LINE
  5
2EB
100
AcDbEntity
100
AcDbLine
  8
0
 62
256
370
-1
 48
1.0
  6
ByLayer
 10
144.95396282464139
 20
-253.39166666666662
 30
0.0
 11
144.95396282464139
 21
-252.36666666666662
 31
0.0
  0
LINE
  5
2EC
100
AcDbEntity
100
AcDbLine
  8
0
 62
256
370
-1
 48
1.0
  6
ByLayer
 10
143.95396282464131
 20
-253.39166666666659
 30
0.0
 11
144.95396282464139
 21
-253.39166666666662
 31
0.0
  0
LINE
  5
2ED
100
AcDbEntity
100
AcDbLine
  8
0
 62
256
370
-1
 48
1.0
  6
ByLayer
 10
152.23396282464137
 20
-253.39166666666659
 30
0.0
 11
152.23396282464137
 21
-245.55999999999995
 31
0.0
  0
LINE
  5
2EE
100
AcDbEntity
100
AcDbLine
  8
0
 62
256
370
-1
 48
1.0
  6
ByLayer
 10
147.45396282464139
 20
-253.39166666666659
 30
0.0
 11
152.23396282464137
 21
-253.39166666666659
 31
0.0
  0
LINE
  5
2EF
100
AcDbEntity
100
AcDbLine
  8
0
 62
256
370
-1
 48
1.0
  6
ByLayer
 10
-17.826037175358749
 20
-266.88000000000039
 30
0.0
 11
-7.8260371753587492
 21
-266.88000000000039
 31
0.0
  0
LINE
  5
2F0
100
AcDbEntity
100
AcDbLine
  8
0
 62
256
370
-1
 48
1.0
  6
ByLayer
 10
-17.826037175358749
 20
-273.60000000000048
 30
0.0
 11
-17.826037175358749
 21
-266.88000000000039
 31
0.0
  0
LINE
  5
2F1
100
AcDbEntity
100
AcDbLine
  8
0
 62
256
370
-1
 48
1.0
  6
ByLayer
 10
-7.8260371753587492
 20
-273.60000000000042
 30
0.0
 11
-17.826037175358749
 21
-273.60000000000048
 31
0.0
  0
LINE
  5
2F2
100
AcDbEntity
100
AcDbLine
  8
0
 62
256
370
-1
 48
1.0
  6
ByLayer
 10
-7.8260371753587492
 20
-266.88000000000039
 30
0.0
 11
-7.8260371753587492
 21
-273.60000000000042
 31
0.0
  0
CIRCLE
  5
2F3
100
AcDbEntity
100
AcDbCircle
  8
0
 62
256
370
-1
 48
1.0
  6
ByLayer
 10
115.95396282464122
 20
-328.71999999999991
 30
0.0
 40
1.9999999999999989
  0
CIRCLE
  5
2F4
100
AcDbEntity
100
AcDbCircle
  8
0
 62
256
370
-1
 48
1.0
  6
ByLayer
 10
-61.999999999999758
 20
134.5
 30
0.0
 40
1.5749999999999991
  0
CIRCLE
  5
2F5
100
AcDbEntity
100
AcDbCircle
  8
0
 62
256
370
-1
 48
1.0
  6
ByLayer
 10
64.639999999999873
 20
375.25
 30
0.0
 40
1.575
  0
CIRCLE
  5
2F6
100
AcDbEntity
100
AcDbCircle
  8
0
 62
256
370
-1
 48
1.0
  6
ByLayer
 10
-61.999999999999773
 20
-151.22
 30
0.0
 40
1.5
  0
CIRCLE
  5
2F7
100
AcDbEntity
100
AcDbCircle
  8
0
 62
256
370
-1
 48
1.0
  6
ByLayer
 10
-106.21999999999983
 20
-43.940000000000104
 30
0.0
 40
1.575
  0
CIRCLE
  5
2F8
100
AcDbEntity
100
AcDbCircle
  8
0
 62
256
370
-1
 48
1.0
  6
ByLayer
 10
-17.779999999999802
 20
-43.940000000000069
 30
0.0
 40
1.575
  0
LINE
  5
2F9
100
AcDbEntity
100
AcDbLine
  8
0
 62
256
370
-1
 48
1.0
  6
ByLayer
 10
33.923962824641222
 20
-266.88000000000039
 30
0.0
 11
43.923962824641222
 21
-266.88000000000039
 31
0.0
  0
LINE
  5
2FA
100
AcDbEntity
100
AcDbLine
  8
0
 62
256
370
-1
 48
1.0
  6
ByLayer
 10
33.923962824641222
 20
-273.60000000000036
 30
0.0
 11
33.923962824641222
 21
-266.88000000000039
 31
0.0
  0
LINE
  5
2FB
100
AcDbEntity
100
AcDbLine
  8
0
 62
256
370
-1
 48
1.0
  6
ByLayer
 10
43.923962824641222
 20
-273.60000000000088
 30
0.0
 11
33.923962824641222
 21
-273.60000000000036
 31
0.0
  0
LINE
  5
2FC
100
AcDbEntity
100
AcDbLine
  8
0
 62
256
370
-1
 48
1.0
  6
ByLayer
 10
43.923962824641222
 20
-266.88000000000039
 30
0.0
 11
43.923962824641222
 21
-273.60000000000088
 31
0.0
  0
CIRCLE
  5
2FD
100
AcDbEntity
100
AcDbCircle
  8
0
 62
256
370
-1
 48
1.0
  6
ByLayer
 10
-122.33333333333309
 20
286.17999999999995
 30
0.0
 40
1.5750000000000011
  0
CIRCLE
  5
2FE
100
AcDbEntity
100
AcDbCircle
  8
0
 62
256
370
-1
 48
1.0
  6
ByLayer
 10
115.95396282464128
 20
-226.83999999999997
 30
0.0
 40
1.9999999999999989
  0
CIRCLE
  5
2FF
100
AcDbEntity
100
AcDbCircle
  8
0
 62
256
370
-1
 48
1.0
  6
ByLayer
 10
64.639999999999986
 20
119.75
 30
0.0
 40
1.574999999999996
  0
CIRCLE
  5
300
100
AcDbEntity
100
AcDbCircle
  8
0
 62
256
370
-1
 48
1.0
  6
ByLayer
 10
-61.999999999999773
 20
-159.22000000000003
 30
0.0
 40
5.5
  0
LINE
  5
301
100
AcDbEntity
100
AcDbLine
  8
0
 62
256
370
-1
 48
1.0
  6
ByLayer
 10
-101.32603717535878
 20
-326.88000000000034
 30
0.0
 11
-101.32603717535875
 21
-336.88000000000034
 31
0.0
  0
LINE
  5
302
100
AcDbEntity
100
AcDbLine
  8
0
 62
256
370
-1
 48
1.0
  6
ByLayer
 10
75.673962824641222
 20
-326.88000000000051
 30
0.0
 11
109.45396282464125
 21
-326.88000000000034
 31
0.0
  0
LINE
  5
303
100
AcDbEntity
100
AcDbLine
  8
0
 62
256
370
-1
 48
1.0
  6
ByLayer
 10
75.673962824641308
 20
-336.88000000000022
 30
0.0
 11
75.673962824641222
 21
-326.88000000000051
 31
0.0
  0
LINE
  5
304
100
AcDbEntity
100
AcDbLine
  8
0
 62
256
370
-1
 48
1.0
  6
ByLayer
 10
-101.32603717535878
 20
-266.88000000000034
 30
0.0
 11
-135.10603717535867
 21
-266.88000000000034
 31
0.0
  0
LINE
  5
305
100
AcDbEntity
100
AcDbLine
  8
0
 62
256
370
-1
 48
1.0
  6
ByLayer
 10
-101.32603717535878
 20
-256.88000000000034
 30
0.0
 11
-101.32603717535878
 21
-266.88000000000034
 31
0.0
  0
LINE
  5
306
100
AcDbEntity
100
AcDbLine
  8
0
 62
256
370
-1
 48
1.0
  6
ByLayer
 10
-135.10603717535867
 20
-326.88000000000034
 30
0.0
 11
-101.32603717535878
 21
-326.88000000000034
 31
0.0
  0
LINE
  5
307
100
AcDbEntity
100
AcDbLine
  8
0
 62
256
370
-1
 48
1.0
  6
ByLayer
 10
109.45396282464125
 20
-266.88000000000039
 30
0.0
 11
75.673962824641222
 21
-266.88000000000039
 31
0.0
  0
LINE
  5
308
100
AcDbEntity
100
AcDbLine
  8
0
 62
256
370
-1
 48
1.0
  6
ByLayer
 10
75.673962824641222
 20
-266.88000000000039
 30
0.0
 11
75.673962824641222
 21
-256.88000000000062
 31
0.0
  0
CIRCLE
  5
309
100
AcDbEntity
100
AcDbCircle
  8
0
 62
256
370
-1
 48
1.0
  6
ByLayer
 10
-1.6666666666664298
 20
286.17999999999995
 30
0.0
 40
1.5750000000000011
  0
CIRCLE
  5
30A
100
AcDbEntity
100
AcDbCircle
  8
0
 62
256
370
-1
 48
1.0
  6
ByLayer
 10
-12.826037175358749
 20
-261.88000000000017
 30
0.0
 40
1.9999999999999989
  0
CIRCLE
  5
30B
100
AcDbEntity
100
AcDbCircle
  8
0
 62
256
370
-1
 48
1.0
  6
ByLayer
 10
-172.25
 20
-121.63999999999999
 30
0.0
 40
1.574999999999998
  0
CIRCLE
  5
30C
100
AcDbEntity
100
AcDbCircle
  8
0
 62
256
370
-1
 48
1.0
  6
ByLayer
 10
-165.49999999999977
 20
-159.22000000000006
 30
0.0
 40
4.04
  0
CIRCLE
  5
30D
100
AcDbEntity
100
AcDbCircle
  8
0
 62
256
370
-1
 48
1.0
  6
ByLayer
 10
-12.826037175358763
 20
-331.88000000000039
 30
0.0
 40
1.9999999999999989
  0
CIRCLE
  5
30E
100
AcDbEntity
100
AcDbCircle
  8
0
 62
256
370
-1
 48
1.0
  6
ByLayer
 10
48.25
 20
391.63999999999999
 30
0.0
 40
1.574999999999998
  0
CIRCLE
  5
30F
100
AcDbEntity
100
AcDbCircle
  8
0
 62
256
370
-1
 48
1.0
  6
ByLayer
 10
41.500000000000199
 20
-159.22000000000014
 30
0.0
 40
4.04
  0
CIRCLE
  5
310
100
AcDbEntity
100
AcDbCircle
  8
0
 62
256
370
-1
 48
1.0
  6
ByLayer
 10
-116.32603717535871
 20
-323.52000000000038
 30
0.0
 40
1.6499999999999999
  0
CIRCLE
  5
311
100
AcDbEntity
100
AcDbCircle
  8
0
 62
256
370
-1
 48
1.0
  6
ByLayer
 10
-172.25
 20
391.63999999999999
 30
0.0
 40
1.574999999999998
  0
CIRCLE
  5
312
100
AcDbEntity
100
AcDbCircle
  8
0
 62
256
370
-1
 48
1.0
  6
ByLayer
 10
21.673962824641279
 20
-323.52000000000055
 30
0.0
 40
1.6499999999999999
  0
CIRCLE
  5
313
100
AcDbEntity
100
AcDbCircle
  8
0
 62
256
370
-1
 48
1.0
  6
ByLayer
 10
-188.63999999999999
 20
119.75
 30
0.0
 40
1.574999999999996
  0
CIRCLE
  5
314
100
AcDbEntity
100
AcDbCircle
  8
0
 62
256
370
-1
 48
1.0
  6
ByLayer
 10
-116.32603717535866
 20
-270.24000000000035
 30
0.0
 40
1.6499999999999999
  0
CIRCLE
  5
315
100
AcDbEntity
100
AcDbCircle
  8
0
 62
256
370
-1
 48
1.0
  6
ByLayer
 10
48.25
 20
-121.63999999999999
 30
0.0
 40
1.574999999999998
  0
CIRCLE
  5
316
100
AcDbEntity
100
AcDbCircle
  8
0
 62
256
370
-1
 48
1.0
  6
ByLayer
 10
21.673962824641308
 20
-270.24000000000092
 30
0.0
 40
1.6499999999999999
  0
CIRCLE
  5
317
100
AcDbEntity
100
AcDbCircle
  8
0
 62
256
370
-1
 48
1.0
  6
ByLayer
 10
-188.63999999999999
 20
375.25
 30
0.0
 40
1.575
  0
CIRCLE
  5
318
100
AcDbEntity
100
AcDbCircle
  8
0
 62
256
370
-1
 48
1.0
  6
ByLayer
 10
90.673962824641222
 20
-270.24000000000058
 30
0.0
 40
1.6499999999999999
  0
CIRCLE
  5
319
100
AcDbEntity
100
AcDbCircle
  8
0
 62
256
370
-1
 48
1.0
  6
ByLayer
 10
-125.08333333333351
 20
391.63999999999999
 30
0.0
 40
1.575
  0
CIRCLE
  5
31A
100
AcDbEntity
100
AcDbCircle
  8
0
 62
256
370
-1
 48
1.0
  6
ByLayer
 10
-125.08333333333323
 20
-121.63999999999999
 30
0.0
 40
1.5750000000000159
  0
CIRCLE
  5
31B
100
AcDbEntity
100
AcDbCircle
  8
0
 62
256
370
-1
 48
1.0
  6
ByLayer
 10
-47.326037175358735
 20
-270.24000000000041
 30
0.0
 40
1.6499999999999999
  0
CIRCLE
  5
31C
100
AcDbEntity
100
AcDbCircle
  8
0
 62
256
370
-1
 48
1.0
  6
ByLayer
 10
90.673962824641222
 20
-323.52000000000044
 30
0.0
 40
1.6499999999999999
  0
CIRCLE
  5
31D
100
AcDbEntity
100
AcDbCircle
  8
0
 62
256
370
-1
 48
1.0
  6
ByLayer
 10
-165.5
 20
102.94
 30
0.0
 40
1.575
  0
CIRCLE
  5
31E
100
AcDbEntity
100
AcDbCircle
  8
0
 62
256
370
-1
 48
1.0
  6
ByLayer
 10
41.5
 20
102.94
 30
0.0
 40
1.575
  0
CIRCLE
  5
31F
100
AcDbEntity
100
AcDbCircle
  8
0
 62
256
370
-1
 48
1.0
  6
ByLayer
 10
-47.326037175358749
 20
-323.52000000000038
 30
0.0
 40
1.6499999999999999
  0
CIRCLE
  5
320
100
AcDbEntity
100
AcDbCircle
  8
0
 62
256
370
-1
 48
1.0
  6
ByLayer
 10
-28.326037175358778
 20
-312.38000000000045
 30
0.0
 40
1.6499999999999999
  0
CIRCLE
  5
321
100
AcDbEntity
100
AcDbCircle
  8
0
 62
256
370
-1
 48
1.0
  6
ByLayer
 10
5.7800000000002001
 20
-101.5
 30
0.0
 40
12.49999999999998
  0
CIRCLE
  5
322
100
AcDbEntity
100
AcDbCircle
  8
0
 62
256
370
-1
 48
1.0
  6
ByLayer
 10
-28.326037175358763
 20
-281.38000000000034
 30
0.0
 40
1.6499999999999999
  0
CIRCLE
  5
323
100
AcDbEntity
100
AcDbCircle
  8
0
 62
256
370
-1
 48
1.0
  6
ByLayer
 10
-129.78000000000003
 20
-101.5
 30
0.0
 40
12.49999999999998
  0
CIRCLE
  5
324
100
AcDbEntity
100
AcDbCircle
  8
0
 62
256
370
-1
 48
1.0
  6
ByLayer
 10
2.6739628246412508
 20
-281.38000000000045
 30
0.0
 40
1.6499999999999999
  0
CIRCLE
  5
325
100
AcDbEntity
100
AcDbCircle
  8
0
 62
256
370
-1
 48
1.0
  6
ByLayer
 10
2.6739628246411939
 20
-312.38000000000034
 30
0.0
 40
1.6499999999999999
  0
CIRCLE
  5
326
100
AcDbEntity
100
AcDbCircle
  8
0
 62
256
370
-1
 48
1.0
  6
ByLayer
 10
-12.826037175358792
 20
-296.88000000000045
 30
0.0
 40
11.5
  0
CIRCLE
  5
327
100
AcDbEntity
100
AcDbCircle
  8
0
 62
256
370
-1
 48
1.0
  6
ByLayer
 10
90.673962824641222
 20
-296.88000000000045
 30
0.0
 40
7.5
  0
CIRCLE
  5
328
100
AcDbEntity
100
AcDbCircle
  8
0
 62
256
370
-1
 48
1.0
  6
ByLayer
 10
99.159244198879748
 20
-305.36528137423898
 30
0.0
 40
2.0
  0
CIRCLE
  5
329
100
AcDbEntity
100
AcDbCircle
  8
0
 62
256
370
-1
 48
1.0
  6
ByLayer
 10
82.188681450402697
 20
-288.39471862576187
 30
0.0
 40
2.0
  0
CIRCLE
  5
32A
100
AcDbEntity
100
AcDbCircle
  8
0
 62
256
370
-1
 48
1.0
  6
ByLayer
 10
99.159244198879748
 20
-288.39471862576175
 30
0.0
 40
2.0
  0
CIRCLE
  5
32B
100
AcDbEntity
100
AcDbCircle
  8
0
 62
256
370
-1
 48
1.0
  6
ByLayer
 10
82.18868145040264
 20
-305.36528137423909
 30
0.0
 40
2.0
  0
CIRCLE
  5
32C
100
AcDbEntity
100
AcDbCircle
  8
0
 62
256
370
-1
 48
1.0
  6
ByLayer
 10
-116.32603717535878
 20
-296.88000000000039
 30
0.0
 40
7.5
  0
CIRCLE
  5
32D
100
AcDbEntity
100
AcDbCircle
  8
0
 62
256
370
-1
 48
1.0
  6
ByLayer
 10
-124.81131854959726
 20
-305.36528137423898
 30
0.0
 40
2.0
  0
CIRCLE
  5
32E
100
AcDbEntity
100
AcDbCircle
  8
0
 62
256
370
-1
 48
1.0
  6
ByLayer
 10
-107.84075580112022
 20
-288.39471862576181
 30
0.0
 40
2.0
  0
CIRCLE
  5
32F
100
AcDbEntity
100
AcDbCircle
  8
0
 62
256
370
-1
 48
1.0
  6
ByLayer
 10
-124.81131854959727
 20
-288.39471862576187
 30
0.0
 40
2.0
  0
CIRCLE
  5
330
100
AcDbEntity
100
AcDbCircle
  8
0
 62
256
370
-1
 48
1.0
  6
ByLayer
 10
-107.84075580112017
 20
-305.36528137423898
 30
0.0
 40
2.0
  0
ARC
  5
331
100
AcDbEntity
  8
0
 62
256
370
-1
 48
1.0
  6
ByLayer
100
AcDbCircle
 10
-63.219999999999757
 20
103.13999999999999
 30
0.0
 40
2.0999999999999979
100
AcDbArc
 50
0.0
 51
180.0
  0
LINE
  5
332
100
AcDbEntity
100
AcDbLine
  8
0
 62
256
370
-1
 48
1.0
  6
ByLayer
 10
-65.319999999999737
 20
97.140000000000128
 30
0.0
 11
-65.319999999999752
 21
103.13999999999999
 31
0.0
  0
ARC
  5
333
100
AcDbEntity
  8
0
 62
256
370
-1
 48
1.0
  6
ByLayer
100
AcDbCircle
 10
-63.21999999999975
 20
97.140000000000128
 30
0.0
 40
2.0999999999999872
100
AcDbArc
 50
180.0
 51
360.0
  0
LINE
  5
334
100
AcDbEntity
100
AcDbLine
  8
0
 62
256
370
-1
 48
1.0
  6
ByLayer
 10
-61.119999999999756
 20
103.13999999999999
 30
0.0
 11
-61.119999999999763
 21
97.140000000000114
 31
0.0
  0
LINE
  5
335
100
AcDbEntity
100
AcDbLine
  8
0
 62
256
370
-1
 48
1.0
  6
ByLayer
 10
-75.619999999999763
 20
124.13999999999999
 30
0.0
 11
-75.619999999999763
 21
105.63999999999999
 31
0.0
  0
ARC
  5
336
100
AcDbEntity
  8
0
 62
256
370
-1
 48
1.0
  6
ByLayer
100
AcDbCircle
 10
-77.719999999999771
 20
124.13999999999999
 30
0.0
 40
2.1000000000000085
100
AcDbArc
 50
0.0
 51
180.0
  0
LINE
  5
337
100
AcDbEntity
100
AcDbLine
  8
0
 62
256
370
-1
 48
1.0
  6
ByLayer
 10
-79.819999999999737
 20
105.64
 30
0.0
 11
-79.81999999999978
 21
124.13999999999999
 31
0.0
  0
ARC
  5
338
100
AcDbEntity
  8
0
 62
256
370
-1
 48
1.0
  6
ByLayer
100
AcDbCircle
 10
-77.719999999999743
 20
105.63999999999999
 30
0.0
 40
2.0999999999999872
100
AcDbArc
 50
180.0
 51
0.0
  0
LINE
  5
339
100
AcDbEntity
100
AcDbLine
  8
0
 62
256
370
-1
 48
1.0
  6
ByLayer
 10
-74.219999999999814
 20
59.419999999999973
 30
0.0
 11
-52.219999999999807
 21
59.419999999999973
 31
0.0
  0
LINE
  5
33A
100
AcDbEntity
100
AcDbLine
  8
0
 62
256
370
-1
 48
1.0
  6
ByLayer
 10
-74.219999999999843
 20
66.139999999999986
 30
0.0
 11
-74.219999999999814
 21
59.419999999999973
 31
0.0
  0
LINE
  5
33B
100
AcDbEntity
100
AcDbLine
  8
0
 62
256
370
-1
 48
1.0
  6
ByLayer
 10
-96.219999999999814
 20
66.139999999999986
 30
0.0
 11
-74.219999999999843
 21
66.139999999999986
 31
0.0
  0
LINE
  5
33C
100
AcDbEntity
100
AcDbLine
  8
0
 62
256
370
-1
 48
1.0
  6
ByLayer
 10
-52.219999999999764
 20
66.140000000000001
 30
0.0
 11
-30.219999999999743
 21
66.139999999999986
 31
0.0
  0
LINE
  5
33D
100
AcDbEntity
100
AcDbLine
  8
0
 62
256
370
-1
 48
1.0
  6
ByLayer
 10
-52.219999999999807
 20
59.419999999999973
 30
0.0
 11
-52.219999999999764
 21
66.140000000000001
 31
0.0
  0
LINE
  5
33E
100
AcDbEntity
100
AcDbLine
  8
0
 62
256
370
-1
 48
1.0
  6
ByLayer
 10
-30.219999999999757
 20
131.14000000000007
 30
0.0
 11
-96.2199999999998
 21
131.1400000000001
 31
0.0
  0
LINE
  5
33F
100
AcDbEntity
100
AcDbLine
  8
0
 62
256
370
-1
 48
1.0
  6
ByLayer
 10
-30.219999999999743
 20
66.139999999999986
 30
0.0
 11
-30.219999999999757
 21
131.14000000000007
 31
0.0
  0
CIRCLE
  5
340
100
AcDbEntity
100
AcDbCircle
  8
0
 62
256
370
-1
 48
1.0
  6
ByLayer
 10
-89.499999999999801
 20
92.200000000000017
 30
0.0
 40
1.9999999999999989
  0
CIRCLE
  5
341
100
AcDbEntity
100
AcDbCircle
  8
0
 62
256
370
-1
 48
1.0
  6
ByLayer
 10
-36.939999999999763
 20
92.200000000000003
 30
0.0
 40
1.9999999999999989
  0
ENDSEC
  0
SECTION
  2
OBJECTS
  0
DICTIONARY
  5
C
100
AcDbDictionary
280
0
281
1
  3
ACAD_GROUP
350
D
  3
ACAD_LAYOUT
350
1A
  3
ACAD_MLINESTYLE
350
17
  3
ACAD_PLOTSETTINGS
350
19
  3
ACAD_PLOTSTYLENAME
350
E
  3
AcDbVariableDictionary
350
342
  3
QCAD_OBJECTS
350
343
  0
DICTIONARY
  5
D
100
AcDbDictionary
280
0
281
1
  0
ACDBDICTIONARYWDFLT
  5
E
100
AcDbDictionary
281
1
  3
Normal
350
F
100
AcDbDictionaryWithDefault
340
F
  0
ACDBPLACEHOLDER
  5
F
  0
DICTIONARY
  5
17
100
AcDbDictionary
280
0
281
1
  3
Standard
350
18
  0
MLINESTYLE
  5
18
100
AcDbMlineStyle
  2
STANDARD
 70
0
  3

 62
256
 51
90.0
 52
90.0
 71
2
 49
0.5
 62
256
  6
BYLAYER
 49
-0.5
 62
256
  6
BYLAYER
  0
DICTIONARY
  5
19
100
AcDbDictionary
280
0
281
1
  0
DICTIONARY
  5
1A
100
AcDbDictionary
281
1
  3
Layout1
350
1E
  3
Layout2
350
26
  3
Model
350
22
  0
LAYOUT
  5
1E
100
AcDbPlotSettings
  1

  2
none_device
  4

  6

 40
0.0
 41
0.0
 42
0.0
 43
0.0
 44
0.0
 45
0.0
 46
0.0
 47
0.0
 48
0.0
 49
0.0
140
0.0
141
0.0
142
1.0
143
1.0
 70
688
 72
0
 73
0
 74
5
  7

 75
16
147
1.0
148
0.0
149
0.0
100
AcDbLayout
  1
Layout1
 70
1
 71
1
 10
0.0
 20
0.0
 11
420.0
 21
297.0
 12
0.0
 22
0.0
 32
0.0
 14
100000000000000000000.0
 24
100000000000000000000.0
 34
100000000000000000000.0
 15
-100000000000000000000.0
 25
-100000000000000000000.0
 35
-100000000000000000000.0
146
0.0
 13
0.0
 23
0.0
 33
0.0
 16
1.0
 26
0.0
 36
0.0
 17
0.0
 27
1.0
 37
0.0
 76
0
330
1B
  0
LAYOUT
  5
22
100
AcDbPlotSettings
  1

  2
none_device
  4

  6

 40
0.0
 41
0.0
 42
0.0
 43
0.0
 44
0.0
 45
0.0
 46
0.0
 47
0.0
 48
0.0
 49
0.0
140
0.0
141
0.0
142
1.0
143
1.0
 70
1712
 72
0
 73
0
 74
0
  7

 75
0
147
1.0
148
0.0
149
0.0
100
AcDbLayout
  1
Model
 70
1
 71
0
 10
0.0
 20
0.0
 11
12.0
 21
9.0
 12
0.0
 22
0.0
 32
0.0
 14
0.0
 24
0.0
 34
0.0
 15
0.0
 25
0.0
 35
0.0
146
0.0
 13
0.0
 23
0.0
 33
0.0
 16
1.0
 26
0.0
 36
0.0
 17
0.0
 27
1.0
 37
0.0
 76
0
330
1F
  0
LAYOUT
  5
26
100
AcDbPlotSettings
  1

  2
none_device
  4

  6

 40
0.0
 41
0.0
 42
0.0
 43
0.0
 44
0.0
 45
0.0
 46
0.0
 47
0.0
 48
0.0
 49
0.0
140
0.0
141
0.0
142
1.0
143
1.0
 70
688
 72
0
 73
0
 74
5
  7

 75
16
147
1.0
148
0.0
149
0.0
100
AcDbLayout
  1
Layout2
 70
1
 71
2
 10
0.0
 20
0.0
 11
12.0
 21
9.0
 12
0.0
 22
0.0
 32
0.0
 14
0.0
 24
0.0
 34
0.0
 15
0.0
 25
0.0
 35
0.0
146
0.0
 13
0.0
 23
0.0
 33
0.0
 16
1.0
 26
0.0
 36
0.0
 17
0.0
 27
1.0
 37
0.0
 76
0
330
23
  0
DICTIONARY
  5
342
100
AcDbDictionary
281
1
  3
DIMASSOC
350
345
  3
HIDETEXT
350
344
  0
DICTIONARYVAR
  5
344
100
DictionaryVariables
280
0
  1
2
  0
DICTIONARYVAR
  5
345
100
DictionaryVariables
280
0
  1
1
  0
DICTIONARY
  5
343
100
AcDbDictionary
281
1
  3
ColorSettings/BackgroundColor
350
346
  3
ColorSettings/ColorMode
350
347
  3
Grid/DisplayGrid00
350
348
  3
Grid/DisplayGrid01
350
349
  3
Grid/DisplayGrid02
350
34A
  3
Grid/DisplayGrid03
350
34B
  3
Grid/GridSpacingX00
350
34C
  3
Grid/GridSpacingX01
350
34D
  3
Grid/GridSpacingX02
350
34E
  3
Grid/GridSpacingX03
350
34F
  3
Grid/GridSpacingY00
350
350
  3
Grid/GridSpacingY01
350
351
  3
Grid/GridSpacingY02
350
352
  3
Grid/GridSpacingY03
350
353
  3
Grid/IsometricGrid00
350
354
  3
Grid/IsometricGrid01
350
355
  3
Grid/IsometricGrid02
350
356
  3
Grid/IsometricGrid03
350
357
  3
Grid/IsometricProjection00
350
358
  3
Grid/IsometricProjection01
350
359
  3
Grid/IsometricProjection02
350
35A
  3
Grid/IsometricProjection03
350
35B
  3
Grid/MetaGridSpacingX00
350
35C
  3
Grid/MetaGridSpacingX01
350
35D
  3
Grid/MetaGridSpacingX02
350
35E
  3
Grid/MetaGridSpacingX03
350
35F
  3
Grid/MetaGridSpacingY00
350
360
  3
Grid/MetaGridSpacingY01
350
361
  3
Grid/MetaGridSpacingY02
350
362
  3
Grid/MetaGridSpacingY03
350
363
  3
MultiPageSettings/Columns
350
364
  3
MultiPageSettings/GlueMarginsBottom
350
365
  3
MultiPageSettings/GlueMarginsLeft
350
366
  3
MultiPageSettings/GlueMarginsRight
350
367
  3
MultiPageSettings/GlueMarginsTop
350
368
  3
MultiPageSettings/PrintCropMarks
350
369
  3
MultiPageSettings/Rows
350
36A
  3
PageSettings/OffsetX
350
36B
  3
PageSettings/OffsetY
350
36C
  3
PageSettings/PageOrientation
350
36D
  3
PageSettings/PaperHeight
350
36E
  3
PageSettings/PaperWidth
350
36F
  3
PageSettings/Scale
350
370
  3
PageSettings/ShowPaperBorders
350
371
  3
QCADVersion
350
372
  3
UnitSettings/PaperUnit
350
373
  3
ViewportCenter
350
374
  3
ViewportHeight
350
375
  3
ViewportWidth
350
376
  0
XRECORD
  5
346
330
343
100
AcDbXrecord
280
1
1000
White
  0
XRECORD
  5
347
330
343
100
AcDbXrecord
280
1
1000
FullColor
  0
XRECORD
  5
348
330
343
100
AcDbXrecord
280
1
290
1
  0
XRECORD
  5
349
330
343
100
AcDbXrecord
280
1
290
1
  0
XRECORD
  5
34A
330
343
100
AcDbXrecord
280
1
290
1
  0
XRECORD
  5
34B
330
343
100
AcDbXrecord
280
1
290
1
  0
XRECORD
  5
34C
330
343
100
AcDbXrecord
280
1
1000
auto
  0
XRECORD
  5
34D
330
343
100
AcDbXrecord
280
1
1000
auto
  0
XRECORD
  5
34E
330
343
100
AcDbXrecord
280
1
1000
auto
  0
XRECORD
  5
34F
330
343
100
AcDbXrecord
280
1
1000
auto
  0
XRECORD
  5
350
330
343
100
AcDbXrecord
280
1
1000
auto
  0
XRECORD
  5
351
330
343
100
AcDbXrecord
280
1
1000
auto
  0
XRECORD
  5
352
330
343
100
AcDbXrecord
280
1
1000
auto
  0
XRECORD
  5
353
330
343
100
AcDbXrecord
280
1
1000
auto
  0
XRECORD
  5
354
330
343
100
AcDbXrecord
280
1
290
0
  0
XRECORD
  5
355
330
343
100
AcDbXrecord
280
1
290
0
  0
XRECORD
  5
356
330
343
100
AcDbXrecord
280
1
290
0
  0
XRECORD
  5
357
330
343
100
AcDbXrecord
280
1
290
0
  0
XRECORD
  5
358
330
343
100
AcDbXrecord
280
1
 90
0
  0
XRECORD
  5
359
330
343
100
AcDbXrecord
280
1
 90
0
  0
XRECORD
  5
35A
330
343
100
AcDbXrecord
280
1
 90
0
  0
XRECORD
  5
35B
330
343
100
AcDbXrecord
280
1
 90
0
  0
XRECORD
  5
35C
330
343
100
AcDbXrecord
280
1
1000
auto
  0
XRECORD
  5
35D
330
343
100
AcDbXrecord
280
1
1000
auto
  0
XRECORD
  5
35E
330
343
100
AcDbXrecord
280
1
1000
auto
  0
XRECORD
  5
35F
330
343
100
AcDbXrecord
280
1
1000
auto
  0
XRECORD
  5
360
330
343
100
AcDbXrecord
280
1
1000
auto
  0
XRECORD
  5
361
330
343
100
AcDbXrecord
280
1
1000
auto
  0
XRECORD
  5
362
330
343
100
AcDbXrecord
280
1
1000
auto
  0
XRECORD
  5
363
330
343
100
AcDbXrecord
280
1
1000
auto
  0
XRECORD
  5
364
330
343
100
AcDbXrecord
280
1
 90
1
  0
XRECORD
  5
365
330
343
100
AcDbXrecord
280
1
 40
10.0
  0
XRECORD
  5
366
330
343
100
AcDbXrecord
280
1
 40
10.0
  0
XRECORD
  5
367
330
343
100
AcDbXrecord
280
1
 40
10.0
  0
XRECORD
  5
368
330
343
100
AcDbXrecord
280
1
 40
10.0
  0
XRECORD
  5
369
330
343
100
AcDbXrecord
280
1
290
0
  0
XRECORD
  5
36A
330
343
100
AcDbXrecord
280
1
 90
1
  0
XRECORD
  5
36B
330
343
100
AcDbXrecord
280
1
 40
0.0
  0
XRECORD
  5
36C
330
343
100
AcDbXrecord
280
1
 40
0.0
  0
XRECORD
  5
36D
330
343
100
AcDbXrecord
280
1
1000
Portrait
  0
XRECORD
  5
36E
330
343
100
AcDbXrecord
280
1
 40
297.0
  0
XRECORD
  5
36F
330
343
100
AcDbXrecord
280
1
 40
210.0
  0
XRECORD
  5
370
330
343
100
AcDbXrecord
280
1
1000
1:1
  0
XRECORD
  5
371
330
343
100
AcDbXrecord
280
1
290
1
  0
XRECORD
  5
372
330
343
100
AcDbXrecord
280
1
1000
3.15.2
  0
XRECORD
  5
373
330
343
100
AcDbXrecord
280
1
 90
4
  0
XRECORD
  5
375
330
343
100
AcDbXrecord
280
1
 40
837.84683313032849
  0
XRECORD
  5
376
330
343
100
AcDbXrecord
280
1
 40
1372.6836175395854
  0
ENDSEC
  0
EOF
