999
dxflib 3.7.5.0
  0
SECTION
  2
HEADER
  9
$ACADVER
  1
AC1015
  9
$HANDSEED
  5
FFFF
  9
$DIMADEC
 70
0
  9
$DIMASZ
 40
2.5
  9
$DIMAUNIT
 70
0
  9
$DIMAZIN
 70
2
  9
$DIMDEC
 70
4
  9
$DIMEXE
 40
1.25
  9
$DIMEXO
 40
0.625
  9
$DIMGAP
 40
0.625
  9
$DIMLUNIT
 70
2
  9
$DIMSCALE
 40
1.0
  9
$DIMTSZ
 40
0.0
  9
$DIMTXT
 40
2.5
  9
$DIMZIN
 70
8
  9
$DWGCODEPAGE
  3
ANSI_1252
  9
$INSUNITS
 70
4
  0
ENDSEC
  0
SECTION
  2
TABLES
  0
TABLE
  2
VPORT
  5
8
100
AcDbSymbolTable
 70
1
  0
VPORT
  5
30
100
AcDbSymbolTableRecord
100
AcDbViewportTableRecord
  2
*Active
 70
0
 10
0.0
 20
0.0
 11
1.0
 21
1.0
 12
286.30555555555549
 22
148.5
 13
0.0
 23
0.0
 14
10.0
 24
10.0
 15
10.0
 25
10.0
 16
0.0
 26
0.0
 36
1.0
 17
0.0
 27
0.0
 37
0.0
 40
297.0
 41
1.92798353909465
 42
50.0
 43
0.0
 44
0.0
 50
0.0
 51
0.0
 71
0
 72
100
 73
1
 74
3
 75
1
 76
1
 77
0
 78
0
281
0
 65
1
110
0.0
120
0.0
130
0.0
111
1.0
121
0.0
131
0.0
112
0.0
122
1.0
132
0.0
 79
0
146
0.0
  0
ENDTAB
  0
TABLE
  2
LTYPE
  5
5
100
AcDbSymbolTable
 70
41
  0
LTYPE
  5
16
100
AcDbSymbolTableRecord
100
AcDbLinetypeTableRecord
  2
Continuous
 70
0
  3
Solid line
 72
65
 73
0
 40
0.0
  0
LTYPE
  5
31
100
AcDbSymbolTableRecord
100
AcDbLinetypeTableRecord
  2
ACAD_ISO15W100
 70
0
  3
ISO double-dash triple-dot __ __ . . . __ __ . .
 72
65
 73
10
 40
39.0
 49
12.0
 74
0
 49
-3.0
 74
0
 49
12.0
 74
0
 49
-3.0
 74
0
 49
0.0
 74
0
 49
-3.0
 74
0
 49
0.0
 74
0
 49
-3.0
 74
0
 49
0.0
 74
0
 49
-3.0
 74
0
  0
LTYPE
  5
32
100
AcDbSymbolTableRecord
100
AcDbLinetypeTableRecord
  2
DIVIDE
 70
0
  3
Divide ____ . . ____ . . ____ . . ____ . . ____
 72
65
 73
6
 40
31.75
 49
12.699999999999999
 74
0
 49
-6.3499999999999996
 74
0
 49
0.0
 74
0
 49
-6.3499999999999996
 74
0
 49
0.0
 74
0
 49
-6.3499999999999996
 74
0
  0
LTYPE
  5
33
100
AcDbSymbolTableRecord
100
AcDbLinetypeTableRecord
  2
ACAD_ISO10W100
 70
0
  3
ISO dash dot __ . __ . __ . __ . __ . __ . __ . 
 72
65
 73
4
 40
18.0
 49
12.0
 74
0
 49
-3.0
 74
0
 49
0.0
 74
0
 49
-3.0
 74
0
  0
LTYPE
  5
34
100
AcDbSymbolTableRecord
100
AcDbLinetypeTableRecord
  2
ACAD_ISO04W100
 70
0
  3
ISO long-dash dot ____ . ____ . ____ . ____ . _
 72
65
 73
4
 40
30.0
 49
24.0
 74
0
 49
-3.0
 74
0
 49
0.0
 74
0
 49
-3.0
 74
0
  0
LTYPE
  5
35
100
AcDbSymbolTableRecord
100
AcDbLinetypeTableRecord
  2
CENTER2
 70
0
  3
Center (.5x) ___ _ ___ _ ___ _ ___ _ ___ _ ___
 72
65
 73
4
 40
28.575000000000003
 49
19.050000000000001
 74
0
 49
-3.1749999999999998
 74
0
 49
3.1749999999999998
 74
0
 49
-3.1749999999999998
 74
0
  0
LTYPE
  5
36
100
AcDbSymbolTableRecord
100
AcDbLinetypeTableRecord
  2
ACAD_ISO11W100
 70
0
  3
ISO double-dash dot __ __ . __ __ . __ __ . __ _
 72
65
 73
6
 40
33.0
 49
12.0
 74
0
 49
-3.0
 74
0
 49
12.0
 74
0
 49
-3.0
 74
0
 49
0.0
 74
0
 49
-3.0
 74
0
  0
LTYPE
  5
37
100
AcDbSymbolTableRecord
100
AcDbLinetypeTableRecord
  2
HIDDEN2
 70
0
  3
Hidden (.5x) _ _ _ _ _ _ _ _ _ _ _ _ _ _ _ _ _ 
 72
65
 73
2
 40
4.7624999999999993
 49
3.1749999999999998
 74
0
 49
-1.5874999999999999
 74
0
  0
LTYPE
  5
38
100
AcDbSymbolTableRecord
100
AcDbLinetypeTableRecord
  2
BORDERX2
 70
0
  3
Border (2x) ____  ____  .  ____  ____  .  ___
 72
65
 73
6
 40
88.899999999999991
 49
25.399999999999999
 74
0
 49
-12.699999999999999
 74
0
 49
25.399999999999999
 74
0
 49
-12.699999999999999
 74
0
 49
0.0
 74
0
 49
-12.699999999999999
 74
0
  0
LTYPE
  5
39
100
AcDbSymbolTableRecord
100
AcDbLinetypeTableRecord
  2
ACAD_ISO05W100
 70
0
  3
ISO long-dash double-dot ____ .. ____ .. ____ . 
 72
65
 73
6
 40
33.0
 49
24.0
 74
0
 49
-3.0
 74
0
 49
0.0
 74
0
 49
-3.0
 74
0
 49
0.0
 74
0
 49
-3.0
 74
0
  0
LTYPE
  5
3A
100
AcDbSymbolTableRecord
100
AcDbLinetypeTableRecord
  2
DASHDOTX2
 70
0
  3
Dash dot (2x) ____  .  ____  .  ____  .  ___
 72
65
 73
4
 40
50.799999999999997
 49
25.399999999999999
 74
0
 49
-12.699999999999999
 74
0
 49
0.0
 74
0
 49
-12.699999999999999
 74
0
  0
LTYPE
  5
3B
100
AcDbSymbolTableRecord
100
AcDbLinetypeTableRecord
  2
HIDDENX2
 70
0
  3
Hidden (2x) ____ ____ ____ ____ ____ ____ ____ 
 72
65
 73
2
 40
19.049999999999997
 49
12.699999999999999
 74
0
 49
-6.3499999999999996
 74
0
  0
LTYPE
  5
3C
100
AcDbSymbolTableRecord
100
AcDbLinetypeTableRecord
  2
CENTERX2
 70
0
  3
Center (2x) ________  __  ________  __  _____
 72
65
 73
4
 40
101.60000000000001
 49
63.5
 74
0
 49
-12.699999999999999
 74
0
 49
12.699999999999999
 74
0
 49
-12.699999999999999
 74
0
  0
LTYPE
  5
3D
100
AcDbSymbolTableRecord
100
AcDbLinetypeTableRecord
  2
BORDER2
 70
0
  3
Border (.5x) __.__.__.__.__.__.__.__.__.__.__.
 72
65
 73
6
 40
22.224999999999998
 49
6.3499999999999996
 74
0
 49
-3.1749999999999998
 74
0
 49
6.3499999999999996
 74
0
 49
-3.1749999999999998
 74
0
 49
0.0
 74
0
 49
-3.1749999999999998
 74
0
  0
LTYPE
  5
3E
100
AcDbSymbolTableRecord
100
AcDbLinetypeTableRecord
  2
DASHDOT2
 70
0
  3
Dash dot (.5x) _._._._._._._._._._._._._._._.
 72
65
 73
4
 40
12.699999999999999
 49
6.3499999999999996
 74
0
 49
-3.1749999999999998
 74
0
 49
0.0
 74
0
 49
-3.1749999999999998
 74
0
  0
LTYPE
  5
3F
100
AcDbSymbolTableRecord
100
AcDbLinetypeTableRecord
  2
ACAD_ISO12W100
 70
0
  3
ISO dash double-dot __ . . __ . . __ . . __ . . 
 72
65
 73
6
 40
21.0
 49
12.0
 74
0
 49
-3.0
 74
0
 49
0.0
 74
0
 49
-3.0
 74
0
 49
0.0
 74
0
 49
-3.0
 74
0
  0
LTYPE
  5
40
100
AcDbSymbolTableRecord
100
AcDbLinetypeTableRecord
  2
ACAD_ISO07W100
 70
0
  3
ISO dot . . . . . . . . . . . . . . . . . . . . 
 72
65
 73
2
 40
3.0
 49
0.0
 74
0
 49
-3.0
 74
0
  0
LTYPE
  5
41
100
AcDbSymbolTableRecord
100
AcDbLinetypeTableRecord
  2
HIDDEN
 70
0
  3
Hidden __ __ __ __ __ __ __ __ __ __ __ __ __ __
 72
65
 73
2
 40
9.5249999999999986
 49
6.3499999999999996
 74
0
 49
-3.1749999999999998
 74
0
  0
LTYPE
  5
42
100
AcDbSymbolTableRecord
100
AcDbLinetypeTableRecord
  2
ACAD_ISO06W100
 70
0
  3
ISO long-dash triple-dot ____ ... ____ ... ____
 72
65
 73
8
 40
36.0
 49
24.0
 74
0
 49
-3.0
 74
0
 49
0.0
 74
0
 49
-3.0
 74
0
 49
0.0
 74
0
 49
-3.0
 74
0
 49
0.0
 74
0
 49
-3.0
 74
0
  0
LTYPE
  5
43
100
AcDbSymbolTableRecord
100
AcDbLinetypeTableRecord
  2
CENTER
 70
0
  3
Center ____ _ ____ _ ____ _ ____ _ ____ _ ____
 72
65
 73
4
 40
50.800000000000004
 49
31.75
 74
0
 49
-6.3499999999999996
 74
0
 49
6.3499999999999996
 74
0
 49
-6.3499999999999996
 74
0
  0
LTYPE
  5
44
100
AcDbSymbolTableRecord
100
AcDbLinetypeTableRecord
  2
DOTX2
 70
0
  3
Dot (2x) .  .  .  .  .  .  .  .  .  .  .  .  .  .
 72
65
 73
2
 40
12.699999999999999
 49
0.0
 74
0
 49
-12.699999999999999
 74
0
  0
LTYPE
  5
45
100
AcDbSymbolTableRecord
100
AcDbLinetypeTableRecord
  2
PHANTOM
 70
0
  3
Phantom ______  __  __  ______  __  __  ______ 
 72
65
 73
6
 40
63.500000000000007
 49
31.75
 74
0
 49
-6.3499999999999996
 74
0
 49
6.3499999999999996
 74
0
 49
-6.3499999999999996
 74
0
 49
6.3499999999999996
 74
0
 49
-6.3499999999999996
 74
0
  0
LTYPE
  5
46
100
AcDbSymbolTableRecord
100
AcDbLinetypeTableRecord
  2
ACAD_ISO08W100
 70
0
  3
ISO long-dash short-dash ____ __ ____ __ ____ _
 72
65
 73
4
 40
36.0
 49
24.0
 74
0
 49
-3.0
 74
0
 49
6.0
 74
0
 49
-3.0
 74
0
  0
LTYPE
  5
47
100
AcDbSymbolTableRecord
100
AcDbLinetypeTableRecord
  2
DASHEDX2
 70
0
  3
Dashed (2x) ____  ____  ____  ____  ____  ___
 72
65
 73
2
 40
38.099999999999994
 49
25.399999999999999
 74
0
 49
-12.699999999999999
 74
0
  0
LTYPE
  5
48
100
AcDbSymbolTableRecord
100
AcDbLinetypeTableRecord
  2
ACAD_ISO02W100
 70
0
  3
ISO dash __ __ __ __ __ __ __ __ __ __ __ __ __
 72
65
 73
2
 40
15.0
 49
12.0
 74
0
 49
-3.0
 74
0
  0
LTYPE
  5
49
100
AcDbSymbolTableRecord
100
AcDbLinetypeTableRecord
  2
PHANTOM2
 70
0
  3
Phantom (.5x) ___ _ _ ___ _ _ ___ _ _ ___ _ _
 72
65
 73
6
 40
31.750000000000004
 49
15.875
 74
0
 49
-3.1749999999999998
 74
0
 49
3.1749999999999998
 74
0
 49
-3.1749999999999998
 74
0
 49
3.1749999999999998
 74
0
 49
-3.1749999999999998
 74
0
  0
LTYPE
  5
4A
100
AcDbSymbolTableRecord
100
AcDbLinetypeTableRecord
  2
DASHED2
 70
0
  3
Dashed (.5x) _ _ _ _ _ _ _ _ _ _ _ _ _ _ _ _ _ 
 72
65
 73
2
 40
9.5249999999999986
 49
6.3499999999999996
 74
0
 49
-3.1749999999999998
 74
0
  0
LTYPE
  5
4B
100
AcDbSymbolTableRecord
100
AcDbLinetypeTableRecord
  2
ACAD_ISO09W100
 70
0
  3
ISO long-dash double-short-dash ____ __ __ ____
 72
65
 73
6
 40
45.0
 49
24.0
 74
0
 49
-3.0
 74
0
 49
6.0
 74
0
 49
-3.0
 74
0
 49
6.0
 74
0
 49
-3.0
 74
0
  0
LTYPE
  5
4C
100
AcDbSymbolTableRecord
100
AcDbLinetypeTableRecord
  2
ACAD_ISO13W100
 70
0
  3
ISO double-dash double-dot __ __ . . __ __ . . _
 72
65
 73
8
 40
36.0
 49
12.0
 74
0
 49
-3.0
 74
0
 49
12.0
 74
0
 49
-3.0
 74
0
 49
0.0
 74
0
 49
-3.0
 74
0
 49
0.0
 74
0
 49
-3.0
 74
0
  0
LTYPE
  5
4D
100
AcDbSymbolTableRecord
100
AcDbLinetypeTableRecord
  2
DOT2
 70
0
  3
Dot (.5x) ........................................
 72
65
 73
2
 40
3.1749999999999998
 49
0.0
 74
0
 49
-3.1749999999999998
 74
0
  0
LTYPE
  5
4E
100
AcDbSymbolTableRecord
100
AcDbLinetypeTableRecord
  2
DASHED
 70
0
  3
Dashed __ __ __ __ __ __ __ __ __ __ __ __ __ _
 72
65
 73
2
 40
19.049999999999997
 49
12.699999999999999
 74
0
 49
-6.3499999999999996
 74
0
  0
LTYPE
  5
4F
100
AcDbSymbolTableRecord
100
AcDbLinetypeTableRecord
  2
ACAD_ISO14W100
 70
0
  3
ISO dash triple-dot __ . . . __ . . . __ . . . _
 72
65
 73
8
 40
24.0
 49
12.0
 74
0
 49
-3.0
 74
0
 49
0.0
 74
0
 49
-3.0
 74
0
 49
0.0
 74
0
 49
-3.0
 74
0
 49
0.0
 74
0
 49
-3.0
 74
0
  0
LTYPE
  5
50
100
AcDbSymbolTableRecord
100
AcDbLinetypeTableRecord
  2
PHANTOMX2
 70
0
  3
Phantom (2x) ____________    ____    ____   _
 72
65
 73
6
 40
127.00000000000001
 49
63.5
 74
0
 49
-12.699999999999999
 74
0
 49
12.699999999999999
 74
0
 49
-12.699999999999999
 74
0
 49
12.699999999999999
 74
0
 49
-12.699999999999999
 74
0
  0
LTYPE
  5
14
100
AcDbSymbolTableRecord
100
AcDbLinetypeTableRecord
  2
BYBLOCK
 70
0
  3

 72
65
 73
0
 40
0.0
  0
LTYPE
  5
51
100
AcDbSymbolTableRecord
100
AcDbLinetypeTableRecord
  2
DIVIDEX2
 70
0
  3
Divide (2x) ________  .  .  ________  .  .  _
 72
65
 73
6
 40
63.5
 49
25.399999999999999
 74
0
 49
-12.699999999999999
 74
0
 49
0.0
 74
0
 49
-12.699999999999999
 74
0
 49
0.0
 74
0
 49
-12.699999999999999
 74
0
  0
LTYPE
  5
52
100
AcDbSymbolTableRecord
100
AcDbLinetypeTableRecord
  2
BORDER
 70
0
  3
Border __ __ . __ __ . __ __ . __ __ . __ __ .
 72
65
 73
6
 40
44.449999999999996
 49
12.699999999999999
 74
0
 49
-6.3499999999999996
 74
0
 49
12.699999999999999
 74
0
 49
-6.3499999999999996
 74
0
 49
0.0
 74
0
 49
-6.3499999999999996
 74
0
  0
LTYPE
  5
53
100
AcDbSymbolTableRecord
100
AcDbLinetypeTableRecord
  2
DIVIDE2
 70
0
  3
Divide (.5x) __..__..__..__..__..__..__..__.._
 72
65
 73
6
 40
15.875
 49
6.3499999999999996
 74
0
 49
-3.1749999999999998
 74
0
 49
0.0
 74
0
 49
-3.1749999999999998
 74
0
 49
0.0
 74
0
 49
-3.1749999999999998
 74
0
  0
LTYPE
  5
54
100
AcDbSymbolTableRecord
100
AcDbLinetypeTableRecord
  2
DOT
 70
0
  3
Dot . . . . . . . . . . . . . . . . . . . . . . . .
 72
65
 73
2
 40
6.3499999999999996
 49
0.0
 74
0
 49
-6.3499999999999996
 74
0
  0
LTYPE
  5
55
100
AcDbSymbolTableRecord
100
AcDbLinetypeTableRecord
  2
DASHDOT
 70
0
  3
Dash dot __ . __ . __ . __ . __ . __ . __ . __
 72
65
 73
4
 40
25.399999999999999
 49
12.699999999999999
 74
0
 49
-6.3499999999999996
 74
0
 49
0.0
 74
0
 49
-6.3499999999999996
 74
0
  0
LTYPE
  5
56
100
AcDbSymbolTableRecord
100
AcDbLinetypeTableRecord
  2
ACAD_ISO03W100
 70
0
  3
ISO dash space __    __    __    __    __    __
 72
65
 73
2
 40
30.0
 49
12.0
 74
0
 49
-18.0
 74
0
  0
LTYPE
  5
15
100
AcDbSymbolTableRecord
100
AcDbLinetypeTableRecord
  2
ByLayer
 70
0
  3

 72
65
 73
0
 40
0.0
  0
ENDTAB
  0
TABLE
  2
LAYER
  5
2
100
AcDbSymbolTable
 70
1
  0
LAYER
  5
10
100
AcDbSymbolTableRecord
100
AcDbLayerTableRecord
  2
0
 70
0
 62
7
420
16777215
  6
Continuous
370
25
390
F
  0
ENDTAB
  0
TABLE
  2
STYLE
  5
3
100
AcDbSymbolTable
 70
1
  0
STYLE
  5
57
100
AcDbSymbolTableRecord
100
AcDbTextStyleTableRecord
  2
Standard
 70
0
 40
0.0
 41
1.0
 50
0.0
 71
0
 42
2.5
  3

  4

1001
ACAD
1000
txt
1071
0
  0
ENDTAB
  0
TABLE
  2
VIEW
  5
6
100
AcDbSymbolTable
 70
0
  0
ENDTAB
  0
TABLE
  2
UCS
  5
7
100
AcDbSymbolTable
 70
0
  0
ENDTAB
  0
TABLE
  2
APPID
  5
9
100
AcDbSymbolTable
 70
1
  0
APPID
  5
12
100
AcDbSymbolTableRecord
100
AcDbRegAppTableRecord
  2
ACAD
 70
0
  0
APPID
  5
58
100
AcDbSymbolTableRecord
100
AcDbRegAppTableRecord
  2
QCAD
 70
0
  0
ENDTAB
  0
TABLE
  2
DIMSTYLE
  5
A
100
AcDbSymbolTable
 70
1
100
AcDbDimStyleTable
 71
0
  0
DIMSTYLE
105
27
100
AcDbSymbolTableRecord
100
AcDbDimStyleTableRecord
  2
Standard
 41
2.5
 42
0.625
 43
3.75
 44
1.25
 70
0
 73
0
 74
0
 77
1
 78
8
140
2.5
141
2.5
143
0.03937007874016
147
0.625
171
3
172
1
271
2
272
2
274
3
278
44
283
0
284
8
340
57
  0
ENDTAB
  0
TABLE
  2
BLOCK_RECORD
  5
1
100
AcDbSymbolTable
 70
1
  0
BLOCK_RECORD
  5
1F
100
AcDbSymbolTableRecord
100
AcDbBlockTableRecord
  2
*Model_Space
340
22
  0
BLOCK_RECORD
  5
1B
100
AcDbSymbolTableRecord
100
AcDbBlockTableRecord
  2
*Paper_Space
340
1E
  0
BLOCK_RECORD
  5
23
100
AcDbSymbolTableRecord
100
AcDbBlockTableRecord
  2
*Paper_Space0
340
26
  0
BLOCK_RECORD
  5
59
100
AcDbSymbolTableRecord
100
AcDbBlockTableRecord
  2
drawer_bottom
340
0
  0
BLOCK_RECORD
  5
5A
100
AcDbSymbolTableRecord
100
AcDbBlockTableRecord
  2
frame_bottom
340
0
  0
BLOCK_RECORD
  5
5B
100
AcDbSymbolTableRecord
100
AcDbBlockTableRecord
  2
drawer_right
340
0
  0
BLOCK_RECORD
  5
5C
100
AcDbSymbolTableRecord
100
AcDbBlockTableRecord
  2
frame_front
340
0
  0
BLOCK_RECORD
  5
5D
100
AcDbSymbolTableRecord
100
AcDbBlockTableRecord
  2
drawer_front
340
0
  0
BLOCK_RECORD
  5
5E
100
AcDbSymbolTableRecord
100
AcDbBlockTableRecord
  2
drawer_support
340
0
  0
BLOCK_RECORD
  5
5F
100
AcDbSymbolTableRecord
100
AcDbBlockTableRecord
  2
frame_right
340
0
  0
BLOCK_RECORD
  5
60
100
AcDbSymbolTableRecord
100
AcDbBlockTableRecord
  2
drawer_bottom2
340
0
  0
BLOCK_RECORD
  5
61
100
AcDbSymbolTableRecord
100
AcDbBlockTableRecord
  2
door
340
0
  0
BLOCK_RECORD
  5
62
100
AcDbSymbolTableRecord
100
AcDbBlockTableRecord
  2
frame_back
340
0
  0
BLOCK_RECORD
  5
63
100
AcDbSymbolTableRecord
100
AcDbBlockTableRecord
  2
carrier_window
340
0
  0
BLOCK_RECORD
  5
64
100
AcDbSymbolTableRecord
100
AcDbBlockTableRecord
  2
frame_foot1
340
0
  0
BLOCK_RECORD
  5
65
100
AcDbSymbolTableRecord
100
AcDbBlockTableRecord
  2
drawer_left
340
0
  0
BLOCK_RECORD
  5
66
100
AcDbSymbolTableRecord
100
AcDbBlockTableRecord
  2
frame_foot2
340
0
  0
BLOCK_RECORD
  5
67
100
AcDbSymbolTableRecord
100
AcDbBlockTableRecord
  2
crane
340
0
  0
BLOCK_RECORD
  5
68
100
AcDbSymbolTableRecord
100
AcDbBlockTableRecord
  2
crane_flap
340
0
  0
BLOCK_RECORD
  5
69
100
AcDbSymbolTableRecord
100
AcDbBlockTableRecord
  2
crane_back
340
0
  0
BLOCK_RECORD
  5
6A
100
AcDbSymbolTableRecord
100
AcDbBlockTableRecord
  2
drawer_back
340
0
  0
BLOCK_RECORD
  5
6B
100
AcDbSymbolTableRecord
100
AcDbBlockTableRecord
  2
p2
340
0
  0
BLOCK_RECORD
  5
6C
100
AcDbSymbolTableRecord
100
AcDbBlockTableRecord
  2
p3
340
0
  0
BLOCK_RECORD
  5
6D
100
AcDbSymbolTableRecord
100
AcDbBlockTableRecord
  2
frame_top
340
0
  0
BLOCK_RECORD
  5
6E
100
AcDbSymbolTableRecord
100
AcDbBlockTableRecord
  2
crane_front
340
0
  0
ENDTAB
  0
ENDSEC
  0
SECTION
  2
BLOCKS
  0
BLOCK
  5
20
100
AcDbEntity
  8
0
100
AcDbBlockBegin
  2
*Model_Space
 70
0
 10
0.0
 20
0.0
 30
0.0
  3
*Model_Space
  1

  0
ENDBLK
  5
21
100
AcDbEntity
  8
0
100
AcDbBlockEnd
  0
BLOCK
  5
1C
100
AcDbEntity
 67
1
  8
0
100
AcDbBlockBegin
  2
*Paper_Space
 70
0
 10
0.0
 20
0.0
 30
0.0
  3
*Paper_Space
  1

  0
ENDBLK
  5
1D
100
AcDbEntity
 67
1
  8
0
100
AcDbBlockEnd
  0
BLOCK
  5
24
100
AcDbEntity
  8
0
100
AcDbBlockBegin
  2
*Paper_Space0
 70
0
 10
0.0
 20
0.0
 30
0.0
  3
*Paper_Space0
  1

  0
ENDBLK
  5
25
100
AcDbEntity
  8
0
100
AcDbBlockEnd
  0
BLOCK
  5
6F
100
AcDbEntity
  8
0
100
AcDbBlockBegin
  2
drawer_bottom
 70
0
 10
0.0
 20
0.0
 30
0.0
  3
drawer_bottom
  1

  0
LWPOLYLINE
  5
70
  8
0
 62
256
370
-1
 48
1.0
  6
ByLayer
100
AcDbEntity
100
AcDbPolyline
 90
60
 70
1
 10
0.0
 20
10.950000000000045
 30
0.0
 10
-4.2799999999999727
 20
10.950000000000045
 30
0.0
 10
-4.2799999999999727
 20
9.8500000000001364
 30
0.0
 42
-2.414213562373094
 10
-4.5299999999999727
 20
9.6000000000001364
 30
0.0
 10
-7.0299999999999727
 20
9.6000000000001364
 30
0.0
 42
-2.414213562373094
 10
-7.2799999999999727
 20
9.8500000000001364
 30
0.0
 10
-7.2799999999999727
 20
10.950000000000045
 30
0.0
 10
-9.2799999999999727
 20
10.950000000000045
 30
0.0
 10
-9.2799999999999727
 20
14.25
 30
0.0
 10
-7.2799999999999727
 20
14.25
 30
0.0
 10
-7.2799999999999727
 20
15.350000000000136
 30
0.0
 42
-2.414213562373094
 10
-7.0299999999999727
 20
15.600000000000136
 30
0.0
 10
-4.5299999999999727
 20
15.600000000000136
 30
0.0
 42
-2.414213562373094
 10
-4.2799999999999727
 20
15.350000000000136
 30
0.0
 10
-4.2799999999999727
 20
14.25
 30
0.0
 10
0.0
 20
14.25
 30
0.0
 10
0.0
 20
40.319999999999936
 30
0.0
 10
-6.7200000000000273
 20
40.319999999999936
 30
0.0
 10
-6.7200000000000273
 20
57.120000000000118
 30
0.0
 10
-174.27999999999997
 20
57.120000000000118
 30
0.0
 10
-174.27999999999997
 20
40.320000000000164
 30
0.0
 10
-181.0
 20
40.320000000000164
 30
0.0
 10
-181.0
 20
14.25
 30
0.0
 10
-176.72000000000003
 20
14.25
 30
0.0
 10
-176.72000000000003
 20
15.350000000000136
 30
0.0
 42
-2.414213562373094
 10
-176.47000000000003
 20
15.600000000000136
 30
0.0
 10
-173.97000000000003
 20
15.600000000000136
 30
0.0
 42
-2.414213562373094
 10
-173.72000000000003
 20
15.350000000000136
 30
0.0
 10
-173.72000000000003
 20
14.25
 30
0.0
 10
-171.72000000000003
 20
14.25
 30
0.0
 10
-171.72000000000003
 20
10.950000000000045
 30
0.0
 10
-173.72000000000003
 20
10.950000000000045
 30
0.0
 10
-173.72000000000003
 20
9.8500000000001364
 30
0.0
 42
-2.414213562373094
 10
-173.97000000000003
 20
9.6000000000001364
 30
0.0
 10
-176.47000000000003
 20
9.6000000000001364
 30
0.0
 42
-2.414213562373094
 10
-176.72000000000003
 20
9.8500000000001364
 30
0.0
 10
-176.72000000000003
 20
10.950000000000045
 30
0.0
 10
-181.0
 20
10.950000000000045
 30
0.0
 10
-181.0
 20
0.0
 30
0.0
 10
-120.66666666666674
 20
0.0
 30
0.0
 10
-120.66666666666674
 20
6.7200000000000273
 30
0.0
 10
-92.150000000000091
 20
6.7200000000000273
 30
0.0
 10
-92.150000000000091
 20
11.0
 30
0.0
 10
-93.25
 20
11.0
 30
0.0
 42
-2.4142135623731251
 10
-93.5
 20
11.25
 30
0.0
 10
-93.5
 20
13.75
 30
0.0
 42
-2.414213562373094
 10
-93.25
 20
14.0
 30
0.0
 10
-92.150000000000091
 20
14.0
 30
0.0
 10
-92.150000000000091
 20
16.0
 30
0.0
 10
-88.850000000000136
 20
16.0
 30
0.0
 10
-88.850000000000136
 20
14.0
 30
0.0
 10
-87.75
 20
14.0
 30
0.0
 42
-2.414213562373094
 10
-87.5
 20
13.75
 30
0.0
 10
-87.5
 20
11.25
 30
0.0
 42
-2.414213562373094
 10
-87.75
 20
11.0
 30
0.0
 10
-88.850000000000136
 20
11.0
 30
0.0
 10
-88.850000000000136
 20
6.7200000000000273
 30
0.0
 10
-60.333333333333258
 20
6.7200000000000273
 30
0.0
 10
-60.333333333333258
 20
0.0
 30
0.0
 10
0.0
 20
0.0
 30
0.0
  0
CIRCLE
  5
71
100
AcDbEntity
100
AcDbCircle
  8
0
 62
256
370
-1
 48
1.0
  6
ByLayer
 10
-50.75
 20
36.539999999999964
 30
0.0
 40
1.5750000000000011
  0
CIRCLE
  5
72
100
AcDbEntity
100
AcDbCircle
  8
0
 62
256
370
-1
 48
1.0
  6
ByLayer
 10
-108.75
 20
36.540000000000191
 30
0.0
 40
1.5750000000000011
  0
ENDBLK
  5
73
100
AcDbEntity
  8
0
100
AcDbBlockEnd
  0
BLOCK
  5
74
100
AcDbEntity
  8
0
100
AcDbBlockBegin
  2
frame_bottom
 70
0
 10
0.0
 20
0.0
 30
0.0
  3
frame_bottom
  1

  0
CIRCLE
  5
75
100
AcDbEntity
100
AcDbCircle
  8
0
 62
256
370
-1
 48
1.0
  6
ByLayer
 10
-210.42000000000007
 20
55.633333333333212
 30
0.0
 40
1.5750000000000011
  0
CIRCLE
  5
76
100
AcDbEntity
100
AcDbCircle
  8
0
 62
256
370
-1
 48
1.0
  6
ByLayer
 10
-249.92000000000007
 20
33.379999999999882
 30
0.0
 40
1.5749999999999971
  0
LWPOLYLINE
  5
77
  8
0
 62
256
370
-1
 48
1.0
  6
ByLayer
100
AcDbEntity
100
AcDbPolyline
 90
4
 70
1
 10
-110.2800000000002
 20
5.8799999999998818
 30
0.0
 10
-110.2800000000002
 20
-0.0000000000002274
 30
0.0
 10
-136.2800000000002
 20
-0.0000000000002274
 30
0.0
 10
-136.2800000000002
 20
5.8799999999998818
 30
0.0
  0
LWPOLYLINE
  5
78
  8
0
 62
256
370
-1
 48
1.0
  6
ByLayer
100
AcDbEntity
100
AcDbPolyline
 90
148
 70
1
 10
0.0
 20
44.506666666666433
 30
0.0
 10
0.0
 20
66.759999999999764
 30
0.0
 10
-11.380000000000564
 20
66.759999999999991
 30
0.0
 10
-11.380000000000564
 20
62.480000000000018
 30
0.0
 10
-10.2800000000002
 20
62.480000000000018
 30
0.0
 42
-2.414213562373094
 10
-10.0300000000002
 20
62.230000000000018
 30
0.0
 10
-10.0300000000002
 20
59.729999999999791
 30
0.0
 42
-2.414213562373094
 10
-10.2800000000002
 20
59.480000000000018
 30
0.0
 10
-11.380000000000564
 20
59.480000000000018
 30
0.0
 10
-11.380000000000564
 20
57.479999999999791
 30
0.0
 10
-14.680000000000291
 20
57.479999999999791
 30
0.0
 10
-14.680000000000291
 20
59.480000000000018
 30
0.0
 10
-15.7800000000002
 20
59.480000000000018
 30
0.0
 42
-2.414213562373094
 10
-16.0300000000002
 20
59.729999999999791
 30
0.0
 10
-16.0300000000002
 20
62.230000000000018
 30
0.0
 42
-2.414213562373094
 10
-15.7800000000002
 20
62.480000000000018
 30
0.0
 10
-14.680000000000291
 20
62.480000000000018
 30
0.0
 10
-14.680000000000291
 20
66.759999999999991
 30
0.0
 10
-58.546666666667079
 20
66.759999999999991
 30
0.0
 10
-58.546666666667079
 20
62.159999999999854
 30
0.0
 10
-57.44666666666717
 20
62.159999999999854
 30
0.0
 42
-2.414213562373094
 10
-57.19666666666717
 20
61.909999999999854
 30
0.0
 10
-57.19666666666717
 20
59.409999999999854
 30
0.0
 42
-2.414213562373094
 10
-57.44666666666717
 20
59.159999999999854
 30
0.0
 10
-58.546666666667079
 20
59.159999999999854
 30
0.0
 10
-58.546666666667079
 20
57.159999999999854
 30
0.0
 10
-61.846666666666806
 20
57.159999999999854
 30
0.0
 10
-61.846666666666806
 20
59.159999999999854
 30
0.0
 10
-62.94666666666717
 20
59.159999999999854
 30
0.0
 42
-2.414213562373094
 10
-63.19666666666717
 20
59.409999999999854
 30
0.0
 10
-63.19666666666717
 20
61.909999999999854
 30
0.0
 42
-2.414213562373094
 10
-62.94666666666717
 20
62.159999999999854
 30
0.0
 10
-61.846666666666806
 20
62.159999999999854
 30
0.0
 10
-61.846666666666806
 20
66.759999999999991
 30
0.0
 10
-79.946666666666715
 20
66.759999999999991
 30
0.0
 10
-79.946666666666715
 20
73.479999999999791
 30
0.0
 10
-166.61333333333369
 20
73.479999999999791
 30
0.0
 10
-166.61333333333369
 20
66.759999999999991
 30
0.0
 10
-184.71333333333359
 20
66.759999999999991
 30
0.0
 10
-184.71333333333359
 20
62.159999999999854
 30
0.0
 10
-183.61333333333323
 20
62.159999999999854
 30
0.0
 42
-2.414213562373094
 10
-183.36333333333323
 20
61.909999999999854
 30
0.0
 10
-183.36333333333323
 20
59.409999999999854
 30
0.0
 42
-2.414213562373094
 10
-183.61333333333323
 20
59.159999999999854
 30
0.0
 10
-184.71333333333359
 20
59.159999999999854
 30
0.0
 10
-184.71333333333359
 20
57.159999999999854
 30
0.0
 10
-188.01333333333332
 20
57.159999999999854
 30
0.0
 10
-188.01333333333332
 20
59.159999999999854
 30
0.0
 10
-189.11333333333323
 20
59.159999999999854
 30
0.0
 42
-2.414213562373094
 10
-189.36333333333323
 20
59.409999999999854
 30
0.0
 10
-189.36333333333323
 20
61.909999999999854
 30
0.0
 42
-2.414213562373094
 10
-189.11333333333323
 20
62.159999999999854
 30
0.0
 10
-188.01333333333332
 20
62.159999999999854
 30
0.0
 10
-188.01333333333332
 20
66.759999999999991
 30
0.0
 10
-231.88000000000011
 20
66.759999999999991
 30
0.0
 10
-231.88000000000011
 20
62.480000000000018
 30
0.0
 10
-230.7800000000002
 20
62.480000000000018
 30
0.0
 42
-2.414213562373094
 10
-230.5300000000002
 20
62.230000000000018
 30
0.0
 10
-230.5300000000002
 20
59.729999999999791
 30
0.0
 42
-2.414213562373094
 10
-230.7800000000002
 20
59.480000000000018
 30
0.0
 10
-231.88000000000011
 20
59.480000000000018
 30
0.0
 10
-231.88000000000011
 20
57.479999999999791
 30
0.0
 10
-235.17999999999984
 20
57.479999999999791
 30
0.0
 10
-235.17999999999984
 20
59.480000000000018
 30
0.0
 10
-236.2800000000002
 20
59.480000000000018
 30
0.0
 42
-2.414213562373094
 10
-236.5300000000002
 20
59.729999999999791
 30
0.0
 10
-236.5300000000002
 20
62.230000000000018
 30
0.0
 42
-2.414213562373094
 10
-236.2800000000002
 20
62.480000000000018
 30
0.0
 10
-235.17999999999984
 20
62.480000000000018
 30
0.0
 10
-235.17999999999984
 20
66.759999999999991
 30
0.0
 10
-246.5600000000004
 20
66.759999999999991
 30
0.0
 10
-246.5600000000004
 20
44.506666666666661
 30
0.0
 10
-253.2800000000002
 20
44.506666666666661
 30
0.0
 10
-253.2800000000002
 20
22.25333333333333
 30
0.0
 10
-246.5600000000004
 20
22.25333333333333
 30
0.0
 10
-246.5600000000004
 20
-0.0000000000002274
 30
0.0
 10
-235.17999999999984
 20
-0.0000000000002274
 30
0.0
 10
-235.17999999999984
 20
4.2799999999997453
 30
0.0
 10
-236.2800000000002
 20
4.2799999999997453
 30
0.0
 42
-2.414213562373094
 10
-236.5300000000002
 20
4.5299999999997453
 30
0.0
 10
-236.5300000000002
 20
7.0299999999999727
 30
0.0
 42
-2.414213562373094
 10
-236.2800000000002
 20
7.2799999999997453
 30
0.0
 10
-235.17999999999984
 20
7.2799999999997453
 30
0.0
 10
-235.17999999999984
 20
9.2799999999999727
 30
0.0
 10
-231.88000000000011
 20
9.2799999999999727
 30
0.0
 10
-231.88000000000011
 20
7.2799999999997453
 30
0.0
 10
-230.7800000000002
 20
7.2799999999997453
 30
0.0
 42
-2.414213562373094
 10
-230.5300000000002
 20
7.0299999999999727
 30
0.0
 10
-230.5300000000002
 20
4.5299999999997453
 30
0.0
 42
-2.414213562373094
 10
-230.7800000000002
 20
4.2799999999997453
 30
0.0
 10
-231.88000000000011
 20
4.2799999999997453
 30
0.0
 10
-231.88000000000011
 20
-0.0000000000002274
 30
0.0
 10
-188.01333333333332
 20
-0.0000000000002274
 30
0.0
 10
-188.01333333333332
 20
4.5999999999999091
 30
0.0
 10
-189.11333333333323
 20
4.5999999999999091
 30
0.0
 42
-2.414213562373094
 10
-189.36333333333323
 20
4.8499999999999091
 30
0.0
 10
-189.36333333333323
 20
7.3499999999999091
 30
0.0
 42
-2.414213562373094
 10
-189.11333333333323
 20
7.5999999999999091
 30
0.0
 10
-188.01333333333332
 20
7.5999999999999091
 30
0.0
 10
-188.01333333333332
 20
9.5999999999999091
 30
0.0
 10
-184.71333333333359
 20
9.5999999999999091
 30
0.0
 10
-184.71333333333359
 20
7.5999999999999091
 30
0.0
 10
-183.61333333333323
 20
7.5999999999999091
 30
0.0
 42
-2.414213562373094
 10
-183.36333333333323
 20
7.3499999999999091
 30
0.0
 10
-183.36333333333323
 20
4.8499999999999091
 30
0.0
 42
-2.414213562373094
 10
-183.61333333333323
 20
4.5999999999999091
 30
0.0
 10
-184.71333333333359
 20
4.5999999999999091
 30
0.0
 10
-184.71333333333359
 20
-0.0000000000002274
 30
0.0
 10
-166.61333333333369
 20
-0.0000000000002274
 30
0.0
 10
-166.61333333333369
 20
-6.7200000000000273
 30
0.0
 10
-79.946666666666715
 20
-6.7200000000002547
 30
0.0
 10
-79.946666666666715
 20
-0.0000000000002274
 30
0.0
 10
-61.846666666666806
 20
-0.0000000000002274
 30
0.0
 10
-61.846666666666806
 20
4.5999999999999091
 30
0.0
 10
-62.94666666666717
 20
4.5999999999999091
 30
0.0
 42
-2.414213562373094
 10
-63.19666666666717
 20
4.8499999999999091
 30
0.0
 10
-63.19666666666717
 20
7.3499999999999091
 30
0.0
 42
-2.414213562373094
 10
-62.94666666666717
 20
7.5999999999999091
 30
0.0
 10
-61.846666666666806
 20
7.5999999999999091
 30
0.0
 10
-61.846666666666806
 20
9.5999999999999091
 30
0.0
 10
-58.546666666667079
 20
9.5999999999999091
 30
0.0
 10
-58.546666666667079
 20
7.5999999999999091
 30
0.0
 10
-57.44666666666717
 20
7.5999999999999091
 30
0.0
 42
-2.414213562373094
 10
-57.19666666666717
 20
7.3499999999999091
 30
0.0
 10
-57.19666666666717
 20
4.8499999999999091
 30
0.0
 42
-2.414213562373094
 10
-57.44666666666717
 20
4.5999999999999091
 30
0.0
 10
-58.546666666667079
 20
4.5999999999999091
 30
0.0
 10
-58.546666666667079
 20
-0.0000000000002274
 30
0.0
 10
-14.680000000000291
 20
-0.0000000000002274
 30
0.0
 10
-14.680000000000291
 20
4.2799999999997453
 30
0.0
 10
-15.7800000000002
 20
4.2799999999997453
 30
0.0
 42
-2.414213562373094
 10
-16.0300000000002
 20
4.5299999999997453
 30
0.0
 10
-16.0300000000002
 20
7.0299999999999727
 30
0.0
 42
-2.414213562373094
 10
-15.7800000000002
 20
7.2799999999997453
 30
0.0
 10
-14.680000000000291
 20
7.2799999999997453
 30
0.0
 10
-14.680000000000291
 20
9.2799999999999727
 30
0.0
 10
-11.380000000000564
 20
9.2799999999999727
 30
0.0
 10
-11.380000000000564
 20
7.2799999999997453
 30
0.0
 10
-10.2800000000002
 20
7.2799999999997453
 30
0.0
 42
-2.414213562373094
 10
-10.0300000000002
 20
7.0299999999999727
 30
0.0
 10
-10.0300000000002
 20
4.5299999999997453
 30
0.0
 42
-2.414213562373094
 10
-10.2800000000002
 20
4.2799999999997453
 30
0.0
 10
-11.380000000000564
 20
4.2799999999997453
 30
0.0
 10
-11.380000000000564
 20
-0.0000000000002274
 30
0.0
 10
0.0
 20
0.0
 30
0.0
 10
0.0
 20
22.25333333333333
 30
0.0
 10
6.7199999999997999
 20
22.25333333333333
 30
0.0
 10
6.7199999999997999
 20
44.506666666666433
 30
0.0
  0
LWPOLYLINE
  5
79
  8
0
 62
256
370
-1
 48
1.0
  6
ByLayer
100
AcDbEntity
100
AcDbPolyline
 90
4
 70
1
 10
-207.0600000000004
 20
44.506666666666661
 30
0.0
 10
-207.0600000000004
 20
22.25333333333333
 30
0.0
 10
-213.7800000000002
 20
22.25333333333333
 30
0.0
 10
-213.7800000000002
 20
44.506666666666661
 30
0.0
  0
LWPOLYLINE
  5
7A
  8
0
 62
256
370
-1
 48
1.0
  6
ByLayer
100
AcDbEntity
100
AcDbPolyline
 90
4
 70
1
 10
-32.7800000000002
 20
44.506666666666433
 30
0.0
 10
-32.7800000000002
 20
22.253333333333103
 30
0.0
 10
-39.5
 20
22.253333333333103
 30
0.0
 10
-39.5
 20
44.506666666666433
 30
0.0
  0
CIRCLE
  5
7B
100
AcDbEntity
100
AcDbCircle
  8
0
 62
256
370
-1
 48
1.0
  6
ByLayer
 10
-36.140000000000327
 20
55.633333333333212
 30
0.0
 40
1.5750000000000011
  0
CIRCLE
  5
7C
100
AcDbEntity
100
AcDbCircle
  8
0
 62
256
370
-1
 48
1.0
  6
ByLayer
 10
3.3599999999996726
 20
33.379999999999882
 30
0.0
 40
1.5749999999999971
  0
CIRCLE
  5
7D
100
AcDbEntity
100
AcDbCircle
  8
0
 62
256
370
-1
 48
1.0
  6
ByLayer
 10
-36.140000000000327
 20
11.126666666666551
 30
0.0
 40
1.5750000000000011
  0
CIRCLE
  5
7E
100
AcDbEntity
100
AcDbCircle
  8
0
 62
256
370
-1
 48
1.0
  6
ByLayer
 10
-210.42000000000007
 20
11.126666666666551
 30
0.0
 40
1.5750000000000011
  0
ENDBLK
  5
7F
100
AcDbEntity
  8
0
100
AcDbBlockEnd
  0
BLOCK
  5
80
100
AcDbEntity
  8
0
100
AcDbBlockBegin
  2
drawer_right
 70
0
 10
0.0
 20
0.0
 30
0.0
  3
drawer_right
  1

  0
LWPOLYLINE
  5
81
  8
0
 62
256
370
-1
 48
1.0
  6
ByLayer
100
AcDbEntity
100
AcDbPolyline
 90
4
 70
1
 10
-6.7200000000006384
 20
155.03999999999999
 30
0.0
 10
-6.7200000000006241
 20
140.03999999999999
 30
0.0
 10
-13.440000000000637
 20
140.03999999999999
 30
0.0
 10
-13.440000000000637
 20
155.03999999999999
 30
0.0
  0
LWPOLYLINE
  5
82
  8
0
 62
256
370
-1
 48
1.0
  6
ByLayer
100
AcDbEntity
100
AcDbPolyline
 90
4
 70
1
 10
-0.0000000000001137
 20
206.52000000000001
 30
0.0
 10
-57.12000000000009
 20
206.52000000000001
 30
0.0
 10
-57.120000000000047
 20
0.0
 30
0.0
 10
0.0
 20
0.0
 30
0.0
  0
CIRCLE
  5
83
100
AcDbEntity
100
AcDbCircle
  8
0
 62
256
370
-1
 48
1.0
  6
ByLayer
 10
-10.720000000000638
 20
162.53999999999991
 30
0.0
 40
1.5750000000000111
  0
CIRCLE
  5
84
100
AcDbEntity
100
AcDbCircle
  8
0
 62
256
370
-1
 48
1.0
  6
ByLayer
 10
-12.600000000000023
 20
3.3599999999999999
 30
0.0
 40
1.575
  0
CIRCLE
  5
85
100
AcDbEntity
100
AcDbCircle
  8
0
 62
256
370
-1
 48
1.0
  6
ByLayer
 10
-47.120000000000047
 20
13.44000000000001
 30
0.0
 40
1.575
  0
ENDBLK
  5
86
100
AcDbEntity
  8
0
100
AcDbBlockEnd
  0
BLOCK
  5
87
100
AcDbEntity
  8
0
100
AcDbBlockBegin
  2
frame_front
 70
0
 10
0.0
 20
0.0
 30
0.0
  3
frame_front
  1

  0
CIRCLE
  5
88
100
AcDbEntity
100
AcDbCircle
  8
0
 62
256
370
-1
 48
1.0
  6
ByLayer
 10
-66.916666666666515
 20
-3.3600000000000136
 30
0.0
 40
1.575
  0
CIRCLE
  5
89
100
AcDbEntity
100
AcDbCircle
  8
0
 62
256
370
-1
 48
1.0
  6
ByLayer
 10
-66.916666666666742
 20
-516.63999999999987
 30
0.0
 40
1.5750000000000159
  0
LWPOLYLINE
  5
8A
  8
0
 62
256
370
-1
 48
1.0
  6
ByLayer
100
AcDbEntity
100
AcDbPolyline
 90
24
 70
1
 10
-220.49999999999994
 20
-294.99999999999994
 30
0.0
 10
-227.21999999999997
 20
-295.0
 30
0.0
 10
-227.21999999999997
 20
-289.12
 30
0.0
 10
-220.49999999999994
 20
-289.12
 30
0.0
 10
-220.50000000000006
 20
-154.12
 30
0.0
 10
-223.65000000000003
 20
-154.12
 30
0.0
 10
-223.65000000000003
 20
-104.12
 30
0.0
 10
-220.50000000000006
 20
-104.12
 30
0.0
 10
-220.50000000000006
 20
-39.499999999999886
 30
0.0
 10
-39.5
 20
-39.499999999999886
 30
0.0
 10
-39.5
 20
-104.12
 30
0.0
 10
-36.350000000000023
 20
-104.12
 30
0.0
 10
-36.350000000000023
 20
-154.12
 30
0.0
 10
-39.5
 20
-154.12
 30
0.0
 10
-39.5
 20
-289.12
 30
0.0
 10
-32.779999999999973
 20
-289.12
 30
0.0
 10
-32.779999999999973
 20
-295.0
 30
0.0
 10
-39.5
 20
-294.99999999999994
 30
0.0
 10
-39.5
 20
-506.56
 30
0.0
 10
-46.21999999999997
 20
-506.56
 30
0.0
 10
-46.21999999999997
 20
-480.5
 30
0.0
 10
-213.78000000000003
 20
-480.5
 30
0.0
 10
-213.78000000000003
 20
-506.56
 30
0.0
 10
-220.50000000000006
 20
-506.56
 30
0.0
  0
LWPOLYLINE
  5
8B
  8
0
 62
256
370
-1
 48
1.0
  6
ByLayer
100
AcDbEntity
100
AcDbPolyline
 90
16
 70
1
 10
-6.7200000000000841
 20
-520.0
 30
0.0
 10
-6.7199999999999704
 20
-295.0
 30
0.0
 10
0.0
 20
-295.0
 30
0.0
 10
0.0
 20
0.0
 30
0.0
 10
-86.666666666666856
 20
0.0
 30
0.0
 10
-86.666666666666856
 20
-6.7200000000000841
 30
0.0
 10
-173.33333333333354
 20
-6.7200000000000841
 30
0.0
 10
-173.33333333333354
 20
0.0
 30
0.0
 10
-259.99999999999994
 20
0.0
 30
0.0
 10
-259.99999999999994
 20
-295.0
 30
0.0
 10
-253.28000000000003
 20
-295.0
 30
0.0
 10
-253.27999999999992
 20
-520.0
 30
0.0
 10
-173.3333333333332
 20
-520.0
 30
0.0
 10
-173.3333333333332
 20
-513.27999999999997
 30
0.0
 10
-86.666666666666572
 20
-513.27999999999997
 30
0.0
 10
-86.666666666666572
 20
-520.0
 30
0.0
  0
CIRCLE
  5
8C
100
AcDbEntity
100
AcDbCircle
  8
0
 62
256
370
-1
 48
1.0
  6
ByLayer
 10
-26.5
 20
-292.06
 30
0.0
 40
1.575
  0
CIRCLE
  5
8D
100
AcDbEntity
100
AcDbCircle
  8
0
 62
256
370
-1
 48
1.0
  6
ByLayer
 10
-233.49999999999994
 20
-292.06
 30
0.0
 40
1.575
  0
CIRCLE
  5
8E
100
AcDbEntity
100
AcDbCircle
  8
0
 62
256
370
-1
 48
1.0
  6
ByLayer
 10
-193.0833333333332
 20
-516.63999999999987
 30
0.0
 40
1.5750000000000159
  0
CIRCLE
  5
8F
100
AcDbEntity
100
AcDbCircle
  8
0
 62
256
370
-1
 48
1.0
  6
ByLayer
 10
-193.08333333333354
 20
-3.3600000000000136
 30
0.0
 40
1.575
  0
CIRCLE
  5
90
100
AcDbEntity
100
AcDbCircle
  8
0
 62
256
370
-1
 48
1.0
  6
ByLayer
 10
-256.64000000000004
 20
-19.75
 30
0.0
 40
1.575
  0
CIRCLE
  5
91
100
AcDbEntity
100
AcDbCircle
  8
0
 62
256
370
-1
 48
1.0
  6
ByLayer
 10
-19.75
 20
-516.63999999999987
 30
0.0
 40
1.574999999999998
  0
CIRCLE
  5
92
100
AcDbEntity
100
AcDbCircle
  8
0
 62
256
370
-1
 48
1.0
  6
ByLayer
 10
-256.64000000000004
 20
-275.25
 30
0.0
 40
1.574999999999996
  0
CIRCLE
  5
93
100
AcDbEntity
100
AcDbCircle
  8
0
 62
256
370
-1
 48
1.0
  6
ByLayer
 10
-240.24999999999994
 20
-516.63999999999987
 30
0.0
 40
1.574999999999998
  0
CIRCLE
  5
94
100
AcDbEntity
100
AcDbCircle
  8
0
 62
256
370
-1
 48
1.0
  6
ByLayer
 10
-3.3600000000000136
 20
-275.25
 30
0.0
 40
1.574999999999996
  0
CIRCLE
  5
95
100
AcDbEntity
100
AcDbCircle
  8
0
 62
256
370
-1
 48
1.0
  6
ByLayer
 10
-3.3600000000000705
 20
-19.75
 30
0.0
 40
1.575
  0
ENDBLK
  5
96
100
AcDbEntity
  8
0
100
AcDbBlockEnd
  0
BLOCK
  5
97
100
AcDbEntity
  8
0
100
AcDbBlockBegin
  2
drawer_front
 70
0
 10
0.0
 20
0.0
 30
0.0
  3
drawer_front
  1

  0
LWPOLYLINE
  5
98
  8
0
 62
256
370
-1
 48
1.0
  6
ByLayer
100
AcDbEntity
100
AcDbPolyline
 90
8
 70
1
 10
-60.333333333333258
 20
-217.6400000000001
 30
0.0
 10
0.0
 20
-217.6400000000001
 30
0.0
 10
0.0
 20
0.0
 30
0.0
 10
-181.0
 20
0.0
 30
0.0
 10
-181.0
 20
-217.6400000000001
 30
0.0
 10
-120.66666666666674
 20
-217.6400000000001
 30
0.0
 10
-120.66666666666674
 20
-224.36000000000013
 30
0.0
 10
-60.333333333333258
 20
-224.36000000000013
 30
0.0
  0
CIRCLE
  5
99
100
AcDbEntity
100
AcDbCircle
  8
0
 62
256
370
-1
 48
1.0
  6
ByLayer
 10
-90.5
 20
-221.0
 30
0.0
 40
1.5749999999999991
  0
CIRCLE
  5
9A
100
AcDbEntity
100
AcDbCircle
  8
0
 62
256
370
-1
 48
1.0
  6
ByLayer
 10
-30.166666666666742
 20
-69.320000000000164
 30
0.0
 40
1.5750000000000011
  0
CIRCLE
  5
9B
100
AcDbEntity
100
AcDbCircle
  8
0
 62
256
370
-1
 48
1.0
  6
ByLayer
 10
-150.83333333333326
 20
-69.320000000000164
 30
0.0
 40
1.5750000000000011
  0
ENDBLK
  5
9C
100
AcDbEntity
  8
0
100
AcDbBlockEnd
  0
BLOCK
  5
9D
100
AcDbEntity
  8
0
100
AcDbBlockBegin
  2
drawer_support
 70
0
 10
0.0
 20
0.0
 30
0.0
  3
drawer_support
  1

  0
LWPOLYLINE
  5
9E
  8
0
 62
256
370
-1
 48
1.0
  6
ByLayer
100
AcDbEntity
100
AcDbPolyline
 90
40
 70
1
 10
-6.7199999999997999
 20
20.849999999999909
 30
0.0
 10
-11.0
 20
20.849999999999909
 30
0.0
 10
-11.0
 20
19.75
 30
0.0
 42
-2.414213562373094
 10
-11.25
 20
19.5
 30
0.0
 10
-13.75
 20
19.5
 30
0.0
 42
-2.414213562373094
 10
-14.0
 20
19.75
 30
0.0
 10
-14.0
 20
20.849999999999909
 30
0.0
 10
-16.0
 20
20.849999999999909
 30
0.0
 10
-16.0
 20
24.150000000000091
 30
0.0
 10
-14.0
 20
24.150000000000091
 30
0.0
 10
-14.0
 20
25.25
 30
0.0
 42
-2.414213562373094
 10
-13.75
 20
25.5
 30
0.0
 10
-11.25
 20
25.5
 30
0.0
 42
-2.414213562373094
 10
-11.0
 20
25.25
 30
0.0
 10
-11.0
 20
24.150000000000091
 30
0.0
 10
-6.7199999999997999
 20
24.150000000000091
 30
0.0
 10
-6.7199999999997999
 20
30.0
 30
0.0
 10
-187.7199999999998
 20
30.0
 30
0.0
 10
-187.7199999999998
 20
24.150000000000091
 30
0.0
 10
-183.4399999999996
 20
24.150000000000091
 30
0.0
 10
-183.4399999999996
 20
25.25
 30
0.0
 42
-2.414213562373094
 10
-183.1899999999996
 20
25.5
 30
0.0
 10
-180.6899999999996
 20
25.5
 30
0.0
 42
-2.414213562373094
 10
-180.4399999999996
 20
25.25
 30
0.0
 10
-180.4399999999996
 20
24.150000000000091
 30
0.0
 10
-178.4399999999996
 20
24.150000000000091
 30
0.0
 10
-178.4399999999996
 20
20.849999999999909
 30
0.0
 10
-180.4399999999996
 20
20.849999999999909
 30
0.0
 10
-180.4399999999996
 20
19.75
 30
0.0
 42
-2.414213562373094
 10
-180.6899999999996
 20
19.5
 30
0.0
 10
-183.1899999999996
 20
19.5
 30
0.0
 42
-2.414213562373094
 10
-183.4399999999996
 20
19.75
 30
0.0
 10
-183.4399999999996
 20
20.849999999999909
 30
0.0
 10
-187.7199999999998
 20
20.849999999999909
 30
0.0
 10
-187.7199999999998
 20
15.0
 30
0.0
 10
-194.43999999999983
 20
15.0
 30
0.0
 10
-194.43999999999983
 20
0.0
 30
0.0
 10
0.0
 20
0.0
 30
0.0
 10
0.0
 20
15.0
 30
0.0
 10
-6.7200000000000273
 20
15.0
 30
0.0
  0
CIRCLE
  5
9F
100
AcDbEntity
100
AcDbCircle
  8
0
 62
256
370
-1
 48
1.0
  6
ByLayer
 10
-36.886666666666315
 20
15.000000000002728
 30
0.0
 40
1.9999999999999989
  0
CIRCLE
  5
A0
100
AcDbEntity
100
AcDbCircle
  8
0
 62
256
370
-1
 48
1.0
  6
ByLayer
 10
-157.55333333333306
 20
15.000000000002501
 30
0.0
 40
1.9999999999999989
  0
ENDBLK
  5
A1
100
AcDbEntity
  8
0
100
AcDbBlockEnd
  0
BLOCK
  5
A2
100
AcDbEntity
  8
0
100
AcDbBlockBegin
  2
frame_right
 70
0
 10
0.0
 20
0.0
 30
0.0
  3
frame_right
  1

  0
LWPOLYLINE
  5
A3
  8
0
 62
256
370
-1
 48
1.0
  6
ByLayer
100
AcDbEntity
100
AcDbPolyline
 90
112
 70
1
 10
-6.7200000000000841
 20
243.09999999999999
 30
0.0
 10
-11.000000000000085
 20
243.09999999999999
 30
0.0
 10
-11.000000000000085
 20
241.99999999999997
 30
0.0
 42
-2.41421356237311
 10
-11.250000000000085
 20
241.75
 30
0.0
 10
-13.750000000000085
 20
241.75
 30
0.0
 42
-2.414213562373094
 10
-14.000000000000085
 20
242.0
 30
0.0
 10
-14.000000000000085
 20
243.09999999999999
 30
0.0
 10
-16.000000000000085
 20
243.09999999999999
 30
0.0
 10
-16.000000000000085
 20
246.39999999999998
 30
0.0
 10
-14.000000000000085
 20
246.39999999999998
 30
0.0
 10
-14.000000000000085
 20
247.5
 30
0.0
 42
-2.414213562373094
 10
-13.750000000000085
 20
247.75
 30
0.0
 10
-11.250000000000085
 20
247.75
 30
0.0
 42
-2.414213562373094
 10
-11.000000000000085
 20
247.5
 30
0.0
 10
-11.000000000000085
 20
246.39999999999998
 30
0.0
 10
-6.7200000000000841
 20
246.39999999999998
 30
0.0
 10
-6.7199999999997999
 20
498.59999999999991
 30
0.0
 10
-11.319999999999823
 20
498.59999999999991
 30
0.0
 10
-11.319999999999823
 20
497.49999999999989
 30
0.0
 42
-2.414213562373094
 10
-11.569999999999823
 20
497.24999999999989
 30
0.0
 10
-14.069999999999823
 20
497.24999999999989
 30
0.0
 42
-2.414213562373094
 10
-14.319999999999823
 20
497.49999999999989
 30
0.0
 10
-14.319999999999823
 20
498.59999999999991
 30
0.0
 10
-16.319999999999823
 20
498.59999999999991
 30
0.0
 10
-16.319999999999823
 20
501.89999999999992
 30
0.0
 10
-14.319999999999823
 20
501.89999999999992
 30
0.0
 10
-14.319999999999823
 20
502.99999999999989
 30
0.0
 42
-2.414213562373094
 10
-14.069999999999823
 20
503.24999999999989
 30
0.0
 10
-11.569999999999823
 20
503.24999999999989
 30
0.0
 42
-2.414213562373094
 10
-11.319999999999823
 20
502.99999999999989
 30
0.0
 10
-11.319999999999823
 20
501.89999999999992
 30
0.0
 10
-6.7199999999997999
 20
501.89999999999992
 30
0.0
 10
-6.720000000000482
 20
520.0
 30
0.0
 10
-28.973333333333784
 20
519.99999999999989
 30
0.0
 10
-28.973333333333784
 20
513.27999999999986
 30
0.0
 10
-38.450000000000415
 20
513.27999999999986
 30
0.0
 10
-38.450000000000415
 20
508.67999999999995
 30
0.0
 10
-37.350000000000421
 20
508.67999999999995
 30
0.0
 42
-2.414213562373094
 10
-37.100000000000421
 20
508.42999999999995
 30
0.0
 10
-37.100000000000421
 20
505.92999999999989
 30
0.0
 42
-2.414213562373094
 10
-37.350000000000421
 20
505.67999999999989
 30
0.0
 10
-38.450000000000415
 20
505.67999999999989
 30
0.0
 10
-38.450000000000415
 20
503.67999999999989
 30
0.0
 10
-41.750000000000483
 20
503.67999999999989
 30
0.0
 10
-41.750000000000483
 20
505.67999999999989
 30
0.0
 10
-42.850000000000421
 20
505.67999999999989
 30
0.0
 42
-2.414213562373094
 10
-43.100000000000421
 20
505.92999999999989
 30
0.0
 10
-43.100000000000421
 20
508.42999999999995
 30
0.0
 42
-2.414213562373094
 10
-42.850000000000421
 20
508.67999999999995
 30
0.0
 10
-41.750000000000483
 20
508.67999999999995
 30
0.0
 10
-41.750000000000483
 20
513.27999999999986
 30
0.0
 10
-51.226666666667114
 20
513.27999999999986
 30
0.0
 10
-51.226666666667114
 20
519.99999999999989
 30
0.0
 10
-73.480000000000473
 20
519.99999999999989
 30
0.0
 10
-73.480000000000473
 20
501.89999999999992
 30
0.0
 10
-68.88000000000045
 20
501.89999999999992
 30
0.0
 10
-68.88000000000045
 20
502.99999999999989
 30
0.0
 42
-2.414213562373094
 10
-68.63000000000045
 20
503.24999999999989
 30
0.0
 10
-66.13000000000045
 20
503.24999999999989
 30
0.0
 42
-2.414213562373094
 10
-65.88000000000045
 20
502.99999999999989
 30
0.0
 10
-65.88000000000045
 20
501.89999999999992
 30
0.0
 10
-63.88000000000045
 20
501.89999999999992
 30
0.0
 10
-63.88000000000045
 20
498.59999999999991
 30
0.0
 10
-65.88000000000045
 20
498.59999999999991
 30
0.0
 10
-65.88000000000045
 20
497.49999999999989
 30
0.0
 42
-2.414213562373094
 10
-66.13000000000045
 20
497.24999999999989
 30
0.0
 10
-68.63000000000045
 20
497.24999999999989
 30
0.0
 42
-2.414213562373094
 10
-68.88000000000045
 20
497.49999999999989
 30
0.0
 10
-68.88000000000045
 20
498.59999999999991
 30
0.0
 10
-73.480000000000473
 20
498.59999999999991
 30
0.0
 10
-73.480000000000189
 20
246.40000000000001
 30
0.0
 10
-69.200000000000188
 20
246.39999999999998
 30
0.0
 10
-69.200000000000188
 20
247.5
 30
0.0
 42
-2.414213562373094
 10
-68.950000000000188
 20
247.75
 30
0.0
 10
-66.450000000000188
 20
247.75
 30
0.0
 42
-2.414213562373094
 10
-66.200000000000188
 20
247.5
 30
0.0
 10
-66.200000000000188
 20
246.39999999999998
 30
0.0
 10
-64.200000000000188
 20
246.39999999999998
 30
0.0
 10
-64.200000000000188
 20
243.09999999999999
 30
0.0
 10
-66.200000000000188
 20
243.09999999999999
 30
0.0
 10
-66.200000000000188
 20
242.0
 30
0.0
 42
-2.414213562373094
 10
-66.450000000000188
 20
241.75
 30
0.0
 10
-68.950000000000188
 20
241.75
 30
0.0
 42
-2.41421356237311
 10
-69.200000000000188
 20
241.99999999999997
 30
0.0
 10
-69.200000000000188
 20
243.09999999999999
 30
0.0
 10
-73.480000000000189
 20
243.09999999999999
 30
0.0
 10
-73.480000000000189
 20
225.0
 30
0.0
 10
-80.200000000000045
 20
225.0
 30
0.0
 10
-80.199999999999932
 20
0.0
 30
0.0
 10
-51.226666666666546
 20
0.0
 30
0.0
 10
-51.226666666666546
 20
6.7199999999999989
 30
0.0
 10
-41.749999999999972
 20
6.7199999999999989
 30
0.0
 10
-41.749999999999972
 20
11.319999999999993
 30
0.0
 10
-42.849999999999994
 20
11.319999999999993
 30
0.0
 42
-2.414213562373094
 10
-43.099999999999994
 20
11.569999999999993
 30
0.0
 10
-43.099999999999994
 20
14.069999999999993
 30
0.0
 42
-2.414213562373094
 10
-42.849999999999966
 20
14.319999999999993
 30
0.0
 10
-41.749999999999972
 20
14.319999999999993
 30
0.0
 10
-41.749999999999972
 20
16.319999999999993
 30
0.0
 10
-38.449999999999989
 20
16.319999999999993
 30
0.0
 10
-38.449999999999989
 20
14.319999999999993
 30
0.0
 10
-37.349999999999966
 20
14.319999999999993
 30
0.0
 42
-2.414213562373094
 10
-37.099999999999966
 20
14.069999999999993
 30
0.0
 10
-37.099999999999966
 20
11.569999999999993
 30
0.0
 42
-2.414213562373094
 10
-37.349999999999966
 20
11.319999999999993
 30
0.0
 10
-38.449999999999989
 20
11.319999999999993
 30
0.0
 10
-38.449999999999989
 20
6.7199999999999989
 30
0.0
 10
-28.973333333333215
 20
6.7199999999999989
 30
0.0
 10
-28.973333333333215
 20
0.0
 30
0.0
 10
0.0
 20
0.0
 30
0.0
 10
0.0
 20
225.0
 30
0.0
 10
-6.7200000000000841
 20
225.0
 30
0.0
  0
LWPOLYLINE
  5
A4
  8
0
 62
256
370
-1
 48
1.0
  6
ByLayer
100
AcDbEntity
100
AcDbPolyline
 90
4
 70
1
 10
-28.973333333333471
 20
225.0
 30
0.0
 10
-51.226666666666802
 20
225.0
 30
0.0
 10
-51.226666666666802
 20
230.88
 30
0.0
 10
-28.973333333333471
 20
230.88
 30
0.0
  0
ENDBLK
  5
A5
100
AcDbEntity
  8
0
100
AcDbBlockEnd
  0
BLOCK
  5
A6
100
AcDbEntity
  8
0
100
AcDbBlockBegin
  2
drawer_bottom2
 70
0
 10
0.0
 20
0.0
 30
0.0
  3
drawer_bottom2
  1

  0
LWPOLYLINE
  5
A7
  8
0
 62
256
370
-1
 48
1.0
  6
ByLayer
100
AcDbEntity
100
AcDbPolyline
 90
60
 70
1
 10
0.0
 20
-10.950000000000045
 30
0.0
 10
4.2799999999999727
 20
-10.950000000000045
 30
0.0
 10
4.2799999999999727
 20
-9.8500000000001364
 30
0.0
 42
-2.414213562373094
 10
4.5299999999999727
 20
-9.6000000000001364
 30
0.0
 10
7.0299999999999727
 20
-9.6000000000001364
 30
0.0
 42
-2.414213562373094
 10
7.2799999999999727
 20
-9.8500000000001364
 30
0.0
 10
7.2799999999999727
 20
-10.950000000000045
 30
0.0
 10
9.2799999999999727
 20
-10.950000000000045
 30
0.0
 10
9.2799999999999727
 20
-14.25
 30
0.0
 10
7.2799999999999727
 20
-14.25
 30
0.0
 10
7.2799999999999727
 20
-15.350000000000136
 30
0.0
 42
-2.414213562373094
 10
7.0299999999999727
 20
-15.600000000000136
 30
0.0
 10
4.5299999999999727
 20
-15.600000000000136
 30
0.0
 42
-2.414213562373094
 10
4.2799999999999727
 20
-15.350000000000136
 30
0.0
 10
4.2799999999999727
 20
-14.25
 30
0.0
 10
0.0
 20
-14.25
 30
0.0
 10
0.0
 20
-40.319999999999936
 30
0.0
 10
6.7200000000000273
 20
-40.319999999999936
 30
0.0
 10
6.7200000000000273
 20
-57.120000000000118
 30
0.0
 10
174.27999999999997
 20
-57.119999999999891
 30
0.0
 10
174.27999999999997
 20
-40.320000000000164
 30
0.0
 10
181.0
 20
-40.320000000000164
 30
0.0
 10
181.0
 20
-14.249999999999773
 30
0.0
 10
176.72000000000003
 20
-14.25
 30
0.0
 10
176.72000000000003
 20
-15.350000000000136
 30
0.0
 42
-2.414213562373094
 10
176.47000000000003
 20
-15.600000000000364
 30
0.0
 10
173.97000000000003
 20
-15.600000000000364
 30
0.0
 42
-2.414213562373094
 10
173.72000000000003
 20
-15.350000000000136
 30
0.0
 10
173.72000000000003
 20
-14.25
 30
0.0
 10
171.72000000000003
 20
-14.25
 30
0.0
 10
171.72000000000003
 20
-10.950000000000273
 30
0.0
 10
173.72000000000003
 20
-10.950000000000273
 30
0.0
 10
173.72000000000003
 20
-9.8500000000005912
 30
0.0
 42
-2.414213562373094
 10
173.97000000000003
 20
-9.6000000000001364
 30
0.0
 10
176.47000000000003
 20
-9.6000000000001364
 30
0.0
 42
-2.414213562373094
 10
176.72000000000003
 20
-9.8500000000003638
 30
0.0
 10
176.72000000000003
 20
-10.950000000000045
 30
0.0
 10
181.0
 20
-10.950000000000045
 30
0.0
 10
181.0
 20
0.0
 30
0.0
 10
120.66666666666674
 20
0.0
 30
0.0
 10
120.66666666666674
 20
-6.7200000000000273
 30
0.0
 10
92.150000000000091
 20
-6.7200000000000273
 30
0.0
 10
92.150000000000091
 20
-11.0
 30
0.0
 10
93.25
 20
-11.0
 30
0.0
 42
-2.4142135623731251
 10
93.5
 20
-11.25
 30
0.0
 10
93.5
 20
-13.75
 30
0.0
 42
-2.414213562373094
 10
93.25
 20
-14.0
 30
0.0
 10
92.150000000000091
 20
-14.0
 30
0.0
 10
92.150000000000091
 20
-16.0
 30
0.0
 10
88.850000000000136
 20
-16.0
 30
0.0
 10
88.850000000000136
 20
-14.0
 30
0.0
 10
87.75
 20
-14.0
 30
0.0
 42
-2.414213562373094
 10
87.5
 20
-13.75
 30
0.0
 10
87.5
 20
-11.25
 30
0.0
 42
-2.414213562373094
 10
87.75
 20
-11.0
 30
0.0
 10
88.850000000000136
 20
-11.0
 30
0.0
 10
88.850000000000136
 20
-6.7200000000000273
 30
0.0
 10
60.333333333333258
 20
-6.7200000000000273
 30
0.0
 10
60.333333333333258
 20
0.0
 30
0.0
 10
0.0
 20
0.0
 30
0.0
  0
ENDBLK
  5
A8
100
AcDbEntity
  8
0
100
AcDbBlockEnd
  0
BLOCK
  5
A9
100
AcDbEntity
  8
0
100
AcDbBlockBegin
  2
door
 70
0
 10
0.0
 20
0.0
 30
0.0
  3
door
  1

  0
LWPOLYLINE
  5
AA
  8
0
 62
256
370
-1
 48
1.0
  6
ByLayer
100
AcDbEntity
100
AcDbPolyline
 90
12
 70
1
 10
0.0
 20
0.0
 30
0.0
 10
-197.29999999999995
 20
-0.0000000000001137
 30
0.0
 10
-197.29999999999995
 20
-60.000000000000114
 30
0.0
 10
-192.29999999999995
 20
-60.000000000000114
 30
0.0
 10
-192.29999999999995
 20
-50.000000000000114
 30
0.0
 10
-189.14999999999986
 20
-50.000000000000114
 30
0.0
 10
-189.14999999999986
 20
-173.24000000000012
 30
0.0
 10
-8.1499999999998636
 20
-173.24000000000001
 30
0.0
 10
-8.1499999999998636
 20
-50.0
 30
0.0
 10
-5.0
 20
-50.0
 30
0.0
 10
-4.9999999999997726
 20
-60.0
 30
0.0
 10
0.0000000000002274
 20
-60.0
 30
0.0
  0
ENDBLK
  5
AB
100
AcDbEntity
  8
0
100
AcDbBlockEnd
  0
BLOCK
  5
AC
100
AcDbEntity
  8
0
100
AcDbBlockBegin
  2
frame_back
 70
0
 10
0.0
 20
0.0
 30
0.0
  3
frame_back
  1

  0
CIRCLE
  5
AD
100
AcDbEntity
100
AcDbCircle
  8
0
 62
256
370
-1
 48
1.0
  6
ByLayer
 10
-19.75
 20
-516.63999999999987
 30
0.0
 40
1.574999999999998
  0
CIRCLE
  5
AE
100
AcDbEntity
100
AcDbCircle
  8
0
 62
256
370
-1
 48
1.0
  6
ByLayer
 10
-3.3600000000000136
 20
-275.24999999999989
 30
0.0
 40
1.574999999999996
  0
CIRCLE
  5
AF
100
AcDbEntity
100
AcDbCircle
  8
0
 62
256
370
-1
 48
1.0
  6
ByLayer
 10
-240.25
 20
-516.63999999999987
 30
0.0
 40
1.574999999999998
  0
CIRCLE
  5
B0
100
AcDbEntity
100
AcDbCircle
  8
0
 62
256
370
-1
 48
1.0
  6
ByLayer
 10
-3.3600000000000136
 20
-19.749999999999943
 30
0.0
 40
1.575
  0
CIRCLE
  5
B1
100
AcDbEntity
100
AcDbCircle
  8
0
 62
256
370
-1
 48
1.0
  6
ByLayer
 10
-66.916666666666458
 20
-3.3599999999998431
 30
0.0
 40
1.575
  0
CIRCLE
  5
B2
100
AcDbEntity
100
AcDbCircle
  8
0
 62
256
370
-1
 48
1.0
  6
ByLayer
 10
-66.916666666666742
 20
-516.63999999999987
 30
0.0
 40
1.5750000000000159
  0
CIRCLE
  5
B3
100
AcDbEntity
100
AcDbCircle
  8
0
 62
256
370
-1
 48
1.0
  6
ByLayer
 10
-26.5
 20
-292.05999999999983
 30
0.0
 40
1.575
  0
CIRCLE
  5
B4
100
AcDbEntity
100
AcDbCircle
  8
0
 62
256
370
-1
 48
1.0
  6
ByLayer
 10
-233.5
 20
-292.05999999999983
 30
0.0
 40
1.575
  0
LWPOLYLINE
  5
B5
  8
0
 62
256
370
-1
 48
1.0
  6
ByLayer
100
AcDbEntity
100
AcDbPolyline
 90
16
 70
1
 10
-253.27999999999997
 20
-294.99999999999989
 30
0.0
 10
-253.27999999999997
 20
-519.99999999999989
 30
0.0
 10
-173.33333333333337
 20
-519.99999999999989
 30
0.0
 10
-173.33333333333337
 20
-513.27999999999986
 30
0.0
 10
-86.666666666666742
 20
-513.27999999999986
 30
0.0
 10
-86.666666666666742
 20
-519.99999999999989
 30
0.0
 10
-6.7199999999999704
 20
-519.99999999999989
 30
0.0
 10
-6.7199999999999704
 20
-294.99999999999989
 30
0.0
 10
0.0
 20
-294.99999999999989
 30
0.0
 10
0.0
 20
0.0
 30
0.0
 10
-86.666666666666401
 20
0.0
 30
0.0
 10
-86.666666666666401
 20
-6.7199999999999704
 30
0.0
 10
-173.33333333333309
 20
-6.7199999999999704
 30
0.0
 10
-173.33333333333309
 20
0.0
 30
0.0
 10
-260.0
 20
0.0
 30
0.0
 10
-260.0
 20
-294.99999999999989
 30
0.0
  0
LWPOLYLINE
  5
B6
  8
0
 62
256
370
-1
 48
1.0
  6
ByLayer
100
AcDbEntity
100
AcDbPolyline
 90
28
 70
1
 10
-123.99999999999994
 20
-480.49999999999989
 30
0.0
 10
-123.99999999999989
 20
-482.49999999999989
 30
0.0
 42
-0.9999999999999998
 10
-135.99999999999989
 20
-482.49999999999989
 30
0.0
 10
-135.99999999999989
 20
-480.49999999999989
 30
0.0
 10
-213.77999999999997
 20
-480.49999999999989
 30
0.0
 10
-213.77999999999997
 20
-506.55999999999983
 30
0.0
 10
-220.5
 20
-506.55999999999983
 30
0.0
 10
-220.5
 20
-294.99999999999989
 30
0.0
 10
-227.21999999999991
 20
-294.99999999999989
 30
0.0
 10
-227.21999999999991
 20
-289.11999999999989
 30
0.0
 10
-220.49999999999989
 20
-289.11999999999989
 30
0.0
 10
-220.5
 20
-154.11999999999983
 30
0.0
 10
-223.64999999999986
 20
-154.11999999999983
 30
0.0
 10
-223.64999999999986
 20
-104.11999999999995
 30
0.0
 10
-220.49999999999989
 20
-104.11999999999983
 30
0.0
 10
-220.49999999999989
 20
-39.499999999999886
 30
0.0
 10
-39.5
 20
-39.499999999999886
 30
0.0
 10
-39.5
 20
-104.11999999999983
 30
0.0
 10
-36.349999999999966
 20
-104.11999999999995
 30
0.0
 10
-36.349999999999966
 20
-154.11999999999983
 30
0.0
 10
-39.499999999999886
 20
-154.11999999999983
 30
0.0
 10
-39.5
 20
-289.11999999999989
 30
0.0
 10
-32.779999999999973
 20
-289.11999999999989
 30
0.0
 10
-32.779999999999973
 20
-294.99999999999989
 30
0.0
 10
-39.5
 20
-294.99999999999989
 30
0.0
 10
-39.5
 20
-506.55999999999983
 30
0.0
 10
-46.21999999999997
 20
-506.55999999999983
 30
0.0
 10
-46.21999999999997
 20
-480.49999999999989
 30
0.0
  0
LWPOLYLINE
  5
B7
  8
0
 62
256
370
-1
 48
1.0
  6
ByLayer
100
AcDbEntity
100
AcDbPolyline
 90
4
 70
1
 10
-155.11999999999989
 20
-485.64499999999987
 30
0.0
 42
-0.9999999999999998
 10
-155.11999999999989
 20
-488.7949999999999
 30
0.0
 10
-159.11999999999989
 20
-488.7949999999999
 30
0.0
 42
-0.9999999999999998
 10
-159.11999999999989
 20
-485.64499999999987
 30
0.0
  0
LWPOLYLINE
  5
B8
  8
0
 62
256
370
-1
 48
1.0
  6
ByLayer
100
AcDbEntity
100
AcDbPolyline
 90
4
 70
1
 10
-104.87999999999988
 20
-488.7949999999999
 30
0.0
 42
-0.9999999999999998
 10
-104.87999999999988
 20
-485.64499999999987
 30
0.0
 10
-100.87999999999988
 20
-485.64499999999987
 30
0.0
 42
-0.9999999999999998
 10
-100.87999999999988
 20
-488.7949999999999
 30
0.0
  0
CIRCLE
  5
B9
100
AcDbEntity
100
AcDbCircle
  8
0
 62
256
370
-1
 48
1.0
  6
ByLayer
 10
-193.08333333333326
 20
-516.63999999999987
 30
0.0
 40
1.5750000000000159
  0
CIRCLE
  5
BA
100
AcDbEntity
100
AcDbCircle
  8
0
 62
256
370
-1
 48
1.0
  6
ByLayer
 10
-193.08333333333337
 20
-3.3599999999998431
 30
0.0
 40
1.575
  0
CIRCLE
  5
BB
100
AcDbEntity
100
AcDbCircle
  8
0
 62
256
370
-1
 48
1.0
  6
ByLayer
 10
-256.63999999999987
 20
-19.749999999999943
 30
0.0
 40
1.575
  0
CIRCLE
  5
BC
100
AcDbEntity
100
AcDbCircle
  8
0
 62
256
370
-1
 48
1.0
  6
ByLayer
 10
-256.63999999999987
 20
-275.24999999999989
 30
0.0
 40
1.574999999999996
  0
ENDBLK
  5
BD
100
AcDbEntity
  8
0
100
AcDbBlockEnd
  0
BLOCK
  5
BE
100
AcDbEntity
  8
0
100
AcDbBlockBegin
  2
carrier_window
 70
0
 10
0.0
 20
0.0
 30
0.0
  3
carrier_window
  1

  0
LWPOLYLINE
  5
BF
  8
0
 62
256
370
-1
 48
1.0
  6
ByLayer
100
AcDbEntity
100
AcDbPolyline
 90
14
 70
1
 10
11.849999999999909
 20
-49.999999999999886
 30
0.0
 10
11.849999999999909
 20
0.0000000000001137
 30
0.0
 10
0.0
 20
0.0
 30
0.0
 10
0.0
 20
-185.0
 30
0.0
 10
16.799999999999955
 20
-185.0
 30
0.0
 10
16.799999999999955
 20
-190.87999999999988
 30
0.0
 10
33.600000000000136
 20
-190.87999999999988
 30
0.0
 10
33.600000000000136
 20
-185.0
 30
0.0
 10
50.400000000000091
 20
-184.99999999999989
 30
0.0
 10
50.400000000000091
 20
-49.999999999999886
 30
0.0
 10
57.120000000000118
 20
-49.999999999999886
 30
0.0
 10
57.120000000000118
 20
0.0000000000001137
 30
0.0
 10
15.0
 20
0.0000000000001137
 30
0.0
 10
15.0
 20
-49.999999999999886
 30
0.0
  0
ENDBLK
  5
C0
100
AcDbEntity
  8
0
100
AcDbBlockEnd
  0
BLOCK
  5
C1
100
AcDbEntity
  8
0
100
AcDbBlockBegin
  2
frame_foot1
 70
0
 10
0.0
 20
0.0
 30
0.0
  3
frame_foot1
  1

  0
LWPOLYLINE
  5
C2
  8
0
 62
256
370
-1
 48
1.0
  6
ByLayer
100
AcDbEntity
100
AcDbPolyline
 90
4
 70
1
 10
-79.006666666666661
 20
-8.2950000000000728
 30
0.0
 42
-0.9999999999999998
 10
-79.006666666666661
 20
-5.1449999999999818
 30
0.0
 10
-75.006666666666661
 20
-5.1449999999999818
 30
0.0
 42
-0.9999999999999998
 10
-75.006666666666661
 20
-8.2950000000000728
 30
0.0
  0
LWPOLYLINE
  5
C3
  8
0
 62
256
370
-1
 48
1.0
  6
ByLayer
100
AcDbEntity
100
AcDbPolyline
 90
4
 70
1
 10
-72.340000000000146
 20
-35.7800000000002
 30
0.0
 42
-0.9999999999999998
 10
-72.340000000000146
 20
-29.779999999999973
 30
0.0
 10
-68.340000000000146
 20
-29.779999999999973
 30
0.0
 42
-0.9999999999999998
 10
-68.340000000000146
 20
-35.7800000000002
 30
0.0
  0
LWPOLYLINE
  5
C4
  8
0
 62
256
370
-1
 48
1.0
  6
ByLayer
100
AcDbEntity
100
AcDbPolyline
 90
58
 70
1
 10
-127.24000000000024
 20
-31.220000000000027
 30
0.0
 10
-167.55999999999995
 20
-31.220000000000027
 30
0.0
 10
-167.55999999999995
 20
-53.5
 30
0.0
 10
-110.52719697373959
 20
-54.495511279861148
 30
0.0
 10
-110.44000000000005
 20
-49.5
 30
0.0
 10
-110.44000000000005
 20
-36.060000000000173
 30
0.0
 10
-103.72000000000025
 20
-36.060000000000173
 30
0.0
 10
-103.72000000000025
 20
-42.7800000000002
 30
0.0
 10
-94.243333333333339
 20
-42.7800000000002
 30
0.0
 10
-94.243333333333339
 20
-38.5
 30
0.0
 10
-95.343333333333703
 20
-38.5
 30
0.0
 42
-2.414213562373094
 10
-95.593333333333703
 20
-38.25
 30
0.0
 10
-95.593333333333703
 20
-35.75
 30
0.0
 42
-2.414213562373094
 10
-95.343333333333703
 20
-35.5
 30
0.0
 10
-94.243333333333339
 20
-35.5
 30
0.0
 10
-94.243333333333339
 20
-33.5
 30
0.0
 10
-90.943333333333612
 20
-33.5
 30
0.0
 10
-90.943333333333612
 20
-35.5
 30
0.0
 10
-89.843333333333703
 20
-35.5
 30
0.0
 42
-2.414213562373094
 10
-89.593333333333703
 20
-35.75
 30
0.0
 10
-89.593333333333703
 20
-38.25
 30
0.0
 42
-2.414213562373094
 10
-89.843333333333703
 20
-38.5
 30
0.0
 10
-90.943333333333612
 20
-38.5
 30
0.0
 10
-90.943333333333612
 20
-42.7800000000002
 30
0.0
 10
-81.466666666666697
 20
-42.7800000000002
 30
0.0
 10
-81.466666666666697
 20
-49.5
 30
0.0
 10
-59.213333333333594
 20
-49.5
 30
0.0
 10
-59.213333333333594
 20
-42.7800000000002
 30
0.0
 10
-49.736666666666679
 20
-42.7800000000002
 30
0.0
 10
-49.736666666666679
 20
-38.5
 30
0.0
 10
-50.836666666666588
 20
-38.5
 30
0.0
 42
-2.414213562373094
 10
-51.086666666666588
 20
-38.25
 30
0.0
 10
-51.086666666666588
 20
-35.75
 30
0.0
 42
-2.414213562373094
 10
-50.836666666666588
 20
-35.5
 30
0.0
 10
-49.736666666666679
 20
-35.5
 30
0.0
 10
-49.736666666666679
 20
-33.5
 30
0.0
 10
-46.436666666666952
 20
-33.5
 30
0.0
 10
-46.436666666666952
 20
-35.5
 30
0.0
 10
-45.336666666666588
 20
-35.5
 30
0.0
 42
-2.414213562373094
 10
-45.086666666666588
 20
-35.75
 30
0.0
 10
-45.086666666666588
 20
-38.25
 30
0.0
 42
-2.414213562373094
 10
-45.336666666666588
 20
-38.5
 30
0.0
 10
-46.436666666666952
 20
-38.5
 30
0.0
 10
-46.436666666666952
 20
-42.7800000000002
 30
0.0
 10
-36.960000000000036
 20
-42.7800000000002
 30
0.0
 10
-36.960000000000036
 20
-36.060000000000173
 30
0.0
 10
-30.240000000000236
 20
-36.060000000000173
 30
0.0
 10
-30.240000000000236
 20
-49.5
 30
0.0
 10
-30.351624810273734
 20
-55.894981097630762
 30
0.0
 10
26.880000000000109
 20
-56.893962824641221
 30
0.0
 10
26.879999999999654
 20
-31.220000000000027
 30
0.0
 10
-13.440000000000055
 20
-31.220000000000027
 30
0.0
 10
-13.440000000000055
 20
-24.5
 30
0.0
 10
0.0
 20
-24.5
 30
0.0
 10
0.0
 20
0.0
 30
0.0
 10
-140.68000000000029
 20
0.0
 30
0.0
 10
-140.68000000000029
 20
-24.5
 30
0.0
 10
-127.24000000000024
 20
-24.5
 30
0.0
  0
CIRCLE
  5
C5
100
AcDbEntity
100
AcDbCircle
  8
0
 62
256
370
-1
 48
1.0
  6
ByLayer
 10
-120.44000000000005
 20
-17.779999999999973
 30
0.0
 40
2.0
  0
CIRCLE
  5
C6
100
AcDbEntity
100
AcDbCircle
  8
0
 62
256
370
-1
 48
1.0
  6
ByLayer
 10
-20.240000000000236
 20
-17.779999999999973
 30
0.0
 40
2.0
  0
LWPOLYLINE
  5
C7
  8
0
 62
256
370
-1
 48
1.0
  6
ByLayer
100
AcDbEntity
100
AcDbPolyline
 90
4
 70
1
 10
-72.340000000000146
 20
-20.7800000000002
 30
0.0
 42
-0.9999999999999998
 10
-72.340000000000146
 20
-14.779999999999973
 30
0.0
 10
-68.340000000000146
 20
-14.779999999999973
 30
0.0
 42
-0.9999999999999998
 10
-68.340000000000146
 20
-20.7800000000002
 30
0.0
  0
LWPOLYLINE
  5
C8
  8
0
 62
256
370
-1
 48
1.0
  6
ByLayer
100
AcDbEntity
100
AcDbPolyline
 90
4
 70
1
 10
-65.67333333333363
 20
-8.2950000000000728
 30
0.0
 42
-0.9999999999999998
 10
-65.67333333333363
 20
-5.1449999999999818
 30
0.0
 10
-61.67333333333363
 20
-5.1449999999999818
 30
0.0
 42
-0.9999999999999998
 10
-61.67333333333363
 20
-8.2950000000000728
 30
0.0
  0
ENDBLK
  5
C9
100
AcDbEntity
  8
0
100
AcDbBlockEnd
  0
BLOCK
  5
CA
100
AcDbEntity
  8
0
100
AcDbBlockBegin
  2
drawer_left
 70
0
 10
0.0
 20
0.0
 30
0.0
  3
drawer_left
  1

  0
CIRCLE
  5
CB
100
AcDbEntity
100
AcDbCircle
  8
0
 62
256
370
-1
 48
1.0
  6
ByLayer
 10
-44.520000000000039
 20
3.3599999999999803
 30
0.0
 40
1.575
  0
CIRCLE
  5
CC
100
AcDbEntity
100
AcDbCircle
  8
0
 62
256
370
-1
 48
1.0
  6
ByLayer
 10
-10.000000000000014
 20
13.440000000000003
 30
0.0
 40
1.575
  0
LWPOLYLINE
  5
CD
  8
0
 62
256
370
-1
 48
1.0
  6
ByLayer
100
AcDbEntity
100
AcDbPolyline
 90
4
 70
1
 10
-50.400000000000034
 20
97.764999999999986
 30
0.0
 10
-35.400000000000034
 20
97.764999999999986
 30
0.0
 10
-35.400000000000034
 20
84.875000000000014
 30
0.0
 10
-50.400000000000034
 20
84.875000000000014
 30
0.0
  0
LWPOLYLINE
  5
CE
  8
0
 62
256
370
-1
 48
1.0
  6
ByLayer
100
AcDbEntity
100
AcDbPolyline
 90
4
 70
1
 10
-30.400000000000034
 20
114.08499999999997
 30
0.0
 10
-50.400000000000048
 20
114.08499999999997
 30
0.0
 10
-50.400000000000048
 20
129.51499999999996
 30
0.0
 10
-30.400000000000034
 20
129.51499999999996
 30
0.0
  0
LWPOLYLINE
  5
CF
  8
0
 62
256
370
-1
 48
1.0
  6
ByLayer
100
AcDbEntity
100
AcDbPolyline
 90
4
 70
1
 10
-50.399999999999494
 20
140.03999999999996
 30
0.0
 10
-50.399999999999494
 20
155.03999999999996
 30
0.0
 10
-43.679999999999495
 20
155.03999999999996
 30
0.0
 10
-43.679999999999481
 20
140.03999999999996
 30
0.0
  0
LWPOLYLINE
  5
D0
  8
0
 62
256
370
-1
 48
1.0
  6
ByLayer
100
AcDbEntity
100
AcDbPolyline
 90
4
 70
1
 10
-0.0000000000000568
 20
206.51999999999998
 30
0.0
 10
-57.120000000000033
 20
206.51999999999998
 30
0.0
 10
-57.120000000000033
 20
-0.0000000000000258
 30
0.0
 10
0.0
 20
0.0
 30
0.0
  0
CIRCLE
  5
D1
100
AcDbEntity
100
AcDbCircle
  8
0
 62
256
370
-1
 48
1.0
  6
ByLayer
 10
-46.399999999999494
 20
162.53999999999988
 30
0.0
 40
1.5750000000000111
  0
ENDBLK
  5
D2
100
AcDbEntity
  8
0
100
AcDbBlockEnd
  0
BLOCK
  5
D3
100
AcDbEntity
  8
0
100
AcDbBlockBegin
  2
frame_foot2
 70
0
 10
0.0
 20
0.0
 30
0.0
  3
frame_foot2
  1

  0
LWPOLYLINE
  5
D4
  8
0
 62
256
370
-1
 48
1.0
  6
ByLayer
100
AcDbEntity
100
AcDbPolyline
 90
58
 70
1
 10
26.880000000000109
 20
-31.220000000000027
 30
0.0
 10
-13.440000000000055
 20
-31.220000000000027
 30
0.0
 10
-13.440000000000055
 20
-24.5
 30
0.0
 10
0.0
 20
-24.5
 30
0.0
 10
0.0
 20
0.0
 30
0.0
 10
-140.67999999999984
 20
0.0
 30
0.0
 10
-140.67999999999984
 20
-24.5
 30
0.0
 10
-127.23999999999978
 20
-24.5
 30
0.0
 10
-127.24000000000024
 20
-31.220000000000027
 30
0.0
 10
-167.55999999999995
 20
-31.220000000000027
 30
0.0
 10
-167.55999999999995
 20
-56.893962824640994
 30
0.0
 10
-110.3283751897261
 20
-55.894981097630762
 30
0.0
 10
-110.44000000000005
 20
-49.5
 30
0.0
 10
-110.44000000000005
 20
-36.059999999999945
 30
0.0
 10
-103.72000000000025
 20
-36.059999999999945
 30
0.0
 10
-103.72000000000025
 20
-42.779999999999973
 30
0.0
 10
-94.243333333333339
 20
-42.779999999999973
 30
0.0
 10
-94.243333333333339
 20
-38.5
 30
0.0
 10
-95.343333333333248
 20
-38.5
 30
0.0
 42
-2.414213562373094
 10
-95.593333333333248
 20
-38.25
 30
0.0
 10
-95.593333333333248
 20
-35.75
 30
0.0
 42
-2.414213562373094
 10
-95.343333333333248
 20
-35.5
 30
0.0
 10
-94.243333333333339
 20
-35.5
 30
0.0
 10
-94.243333333333339
 20
-33.5
 30
0.0
 10
-90.943333333333157
 20
-33.5
 30
0.0
 10
-90.943333333333157
 20
-35.5
 30
0.0
 10
-89.843333333333248
 20
-35.5
 30
0.0
 42
-2.414213562373094
 10
-89.593333333333248
 20
-35.75
 30
0.0
 10
-89.593333333333248
 20
-38.25
 30
0.0
 42
-2.414213562373094
 10
-89.843333333333248
 20
-38.5
 30
0.0
 10
-90.943333333333157
 20
-38.5
 30
0.0
 10
-90.943333333333157
 20
-42.779999999999973
 30
0.0
 10
-81.466666666666697
 20
-42.779999999999973
 30
0.0
 10
-81.466666666666697
 20
-49.5
 30
0.0
 10
-59.213333333333139
 20
-49.5
 30
0.0
 10
-59.213333333333139
 20
-42.779999999999973
 30
0.0
 10
-49.736666666666679
 20
-42.779999999999973
 30
0.0
 10
-49.736666666666679
 20
-38.5
 30
0.0
 10
-50.836666666666588
 20
-38.5
 30
0.0
 42
-2.414213562373094
 10
-51.086666666666588
 20
-38.25
 30
0.0
 10
-51.086666666666588
 20
-35.75
 30
0.0
 42
-2.414213562373094
 10
-50.836666666666588
 20
-35.5
 30
0.0
 10
-49.736666666666679
 20
-35.5
 30
0.0
 10
-49.736666666666679
 20
-33.5
 30
0.0
 10
-46.436666666666497
 20
-33.5
 30
0.0
 10
-46.436666666666497
 20
-35.5
 30
0.0
 10
-45.336666666666588
 20
-35.5
 30
0.0
 42
-2.414213562373094
 10
-45.086666666666588
 20
-35.75
 30
0.0
 10
-45.086666666666588
 20
-38.25
 30
0.0
 42
-2.414213562373094
 10
-45.336666666666588
 20
-38.5
 30
0.0
 10
-46.436666666666497
 20
-38.5
 30
0.0
 10
-46.436666666666497
 20
-42.779999999999973
 30
0.0
 10
-36.960000000000036
 20
-42.779999999999973
 30
0.0
 10
-36.960000000000036
 20
-36.059999999999945
 30
0.0
 10
-30.240000000000236
 20
-36.059999999999945
 30
0.0
 10
-30.240000000000236
 20
-49.5
 30
0.0
 10
-30.152803026260244
 20
-54.495511279861148
 30
0.0
 10
26.880000000000109
 20
-53.5
 30
0.0
  0
CIRCLE
  5
D5
100
AcDbEntity
100
AcDbCircle
  8
0
 62
256
370
-1
 48
1.0
  6
ByLayer
 10
-20.239999999999782
 20
-17.779999999999973
 30
0.0
 40
2.0
  0
CIRCLE
  5
D6
100
AcDbEntity
100
AcDbCircle
  8
0
 62
256
370
-1
 48
1.0
  6
ByLayer
 10
-120.44000000000005
 20
-17.779999999999973
 30
0.0
 40
2.0
  0
ENDBLK
  5
D7
100
AcDbEntity
  8
0
100
AcDbBlockEnd
  0
BLOCK
  5
D8
100
AcDbEntity
  8
0
100
AcDbBlockBegin
  2
crane
 70
0
 10
0.0
 20
0.0
 30
0.0
  3
crane
  1

  0
CIRCLE
  5
D9
100
AcDbEntity
100
AcDbCircle
  8
0
 62
256
370
-1
 48
1.0
  6
ByLayer
 10
-234.26528137423838
 20
38.485281374238653
 30
0.0
 40
2.0
  0
CIRCLE
  5
DA
100
AcDbEntity
100
AcDbCircle
  8
0
 62
256
370
-1
 48
1.0
  6
ByLayer
 10
-217.29471862576133
 20
21.514718625761503
 30
0.0
 40
2.0
  0
CIRCLE
  5
DB
100
AcDbEntity
100
AcDbCircle
  8
0
 62
256
370
-1
 48
1.0
  6
ByLayer
 10
-234.26528137423838
 20
21.514718625761503
 30
0.0
 40
2.0
  0
CIRCLE
  5
DC
100
AcDbEntity
100
AcDbCircle
  8
0
 62
256
370
-1
 48
1.0
  6
ByLayer
 10
-217.29471862576133
 20
38.485281374238639
 30
0.0
 40
2.0
  0
CIRCLE
  5
DD
100
AcDbEntity
100
AcDbCircle
  8
0
 62
256
370
-1
 48
1.0
  6
ByLayer
 10
-18.779999999999902
 20
30.000000000000071
 30
0.0
 40
4.5
  0
CIRCLE
  5
DE
100
AcDbEntity
100
AcDbCircle
  8
0
 62
256
370
-1
 48
1.0
  6
ByLayer
 10
-10.294718625761405
 20
38.485281374238653
 30
0.0
 40
2.0
  0
CIRCLE
  5
DF
100
AcDbEntity
100
AcDbCircle
  8
0
 62
256
370
-1
 48
1.0
  6
ByLayer
 10
-27.265281374238455
 20
21.514718625761503
 30
0.0
 40
2.0
  0
CIRCLE
  5
E0
100
AcDbEntity
100
AcDbCircle
  8
0
 62
256
370
-1
 48
1.0
  6
ByLayer
 10
-10.294718625761405
 20
21.514718625761503
 30
0.0
 40
2.0
  0
CIRCLE
  5
E1
100
AcDbEntity
100
AcDbCircle
  8
0
 62
256
370
-1
 48
1.0
  6
ByLayer
 10
-27.265281374238484
 20
38.485281374238639
 30
0.0
 40
2.0
  0
CIRCLE
  5
E2
100
AcDbEntity
100
AcDbCircle
  8
0
 62
256
370
-1
 48
1.0
  6
ByLayer
 10
-61.279999999999902
 20
14.720000000000013
 30
0.0
 40
7.0
  0
CIRCLE
  5
E3
100
AcDbEntity
100
AcDbCircle
  8
0
 62
256
370
-1
 48
1.0
  6
ByLayer
 10
-61.279999999999902
 20
14.720000000000013
 30
0.0
 40
1.9999999999999989
  0
CIRCLE
  5
E4
100
AcDbEntity
100
AcDbCircle
  8
0
 62
256
370
-1
 48
1.0
  6
ByLayer
 10
-61.279999999999902
 20
14.720000000000013
 30
0.0
 40
6.0
  0
LWPOLYLINE
  5
E5
  8
0
 62
256
370
-1
 48
1.0
  6
ByLayer
100
AcDbEntity
100
AcDbPolyline
 90
8
 70
1
 10
-4.2003289616071982
 20
48.029999999999802
 30
0.0
 42
-0.7237468644557458
 10
-11.799671038392503
 20
48.029999999999816
 30
0.0
 10
-13.999999999999801
 20
48.029999999999816
 30
0.0
 10
-13.999999999999801
 20
50.529999999999816
 30
0.0
 10
-11.799671038392503
 20
50.529999999999816
 30
0.0
 42
-0.7237468644557464
 10
-4.2003289616071982
 20
50.529999999999802
 30
0.0
 10
-1.999999999999801
 20
50.529999999999802
 30
0.0
 10
-1.999999999999801
 20
48.029999999999802
 30
0.0
  0
LWPOLYLINE
  5
E6
  8
0
 62
256
370
-1
 48
1.0
  6
ByLayer
100
AcDbEntity
100
AcDbPolyline
 90
8
 70
1
 10
-232.76032896160723
 20
48.029999999999987
 30
0.0
 42
-0.7237468644557458
 10
-240.35967103839261
 20
48.029999999999987
 30
0.0
 10
-242.55999999999989
 20
48.029999999999987
 30
0.0
 10
-242.55999999999989
 20
50.529999999999987
 30
0.0
 10
-240.35967103839261
 20
50.529999999999987
 30
0.0
 42
-0.7237468644557459
 10
-232.76032896160723
 20
50.529999999999987
 30
0.0
 10
-230.55999999999989
 20
50.529999999999987
 30
0.0
 10
-230.55999999999989
 20
48.029999999999987
 30
0.0
  0
LWPOLYLINE
  5
E7
  8
0
 62
256
370
-1
 48
1.0
  6
ByLayer
100
AcDbEntity
100
AcDbPolyline
 90
4
 70
1
 10
-117.2799999999999
 20
60.000000000000014
 30
0.0
 10
-117.2799999999999
 20
53.280000000000044
 30
0.0
 10
-127.2799999999999
 20
53.280000000000044
 30
0.0
 10
-127.2799999999999
 20
60.000000000000028
 30
0.0
  0
LWPOLYLINE
  5
E8
  8
0
 62
256
370
-1
 48
1.0
  6
ByLayer
100
AcDbEntity
100
AcDbPolyline
 90
4
 70
1
 10
-75.529999999999902
 20
53.28000000000003
 30
0.0
 10
-75.529999999999902
 20
60.000000000000028
 30
0.0
 10
-65.529999999999902
 20
60.000000000000028
 30
0.0
 10
-65.529999999999902
 20
53.28000000000003
 30
0.0
  0
LWPOLYLINE
  5
E9
  8
0
 62
256
370
-1
 48
1.0
  6
ByLayer
100
AcDbEntity
100
AcDbPolyline
 90
4
 70
1
 10
-169.02999999999992
 20
60.000000000000057
 30
0.0
 10
-169.02999999999992
 20
53.280000000000058
 30
0.0
 10
-179.02999999999992
 20
53.280000000000058
 30
0.0
 10
-179.02999999999992
 20
60.000000000000057
 30
0.0
  0
LWPOLYLINE
  5
EA
  8
0
 62
256
370
-1
 48
1.0
  6
ByLayer
100
AcDbEntity
100
AcDbPolyline
 90
4
 70
1
 10
-75.529999999999902
 20
0.0
 30
0.0
 10
-75.529999999999902
 20
6.7199999999999989
 30
0.0
 10
-65.529999999999902
 20
6.7199999999999989
 30
0.0
 10
-65.529999999999902
 20
0.0
 30
0.0
  0
LWPOLYLINE
  5
EB
  8
0
 62
256
370
-1
 48
1.0
  6
ByLayer
100
AcDbEntity
100
AcDbPolyline
 90
4
 70
1
 10
-127.2799999999999
 20
0.0000000000000284
 30
0.0
 10
-127.2799999999999
 20
6.7200000000000131
 30
0.0
 10
-117.27999999999992
 20
6.7200000000000131
 30
0.0
 10
-117.27999999999992
 20
0.0000000000000284
 30
0.0
  0
LWPOLYLINE
  5
EC
  8
0
 62
256
370
-1
 48
1.0
  6
ByLayer
100
AcDbEntity
100
AcDbPolyline
 90
4
 70
1
 10
-169.02999999999992
 20
6.7200000000000273
 30
0.0
 10
-169.02999999999992
 20
0.0000000000000284
 30
0.0
 10
-179.02999999999992
 20
0.0000000000000284
 30
0.0
 10
-179.02999999999992
 20
6.7200000000000273
 30
0.0
  0
LWPOLYLINE
  5
ED
  8
0
 62
256
370
-1
 48
1.0
  6
ByLayer
100
AcDbEntity
100
AcDbPolyline
 90
12
 70
1
 10
-33.779999999999916
 20
60.0
 30
0.0
 10
-33.779999999999916
 20
75.5
 30
0.0
 10
-210.77999999999992
 20
75.500000000000071
 30
0.0
 10
-210.77999999999992
 20
60.000000000000057
 30
0.0
 10
-244.55999999999989
 20
60.000000000000071
 30
0.0
 10
-244.55999999999989
 20
0.0000000000000284
 30
0.0
 10
-210.77999999999992
 20
0.0000000000000284
 30
0.0
 10
-210.77999999999992
 20
-15.499999999999972
 30
0.0
 10
-33.779999999999916
 20
-15.5
 30
0.0
 10
-33.779999999999916
 20
0.0
 30
0.0
 10
0.0
 20
0.0
 30
0.0
 10
0.0
 20
60.0
 30
0.0
  0
CIRCLE
  5
EE
100
AcDbEntity
100
AcDbCircle
  8
0
 62
256
370
-1
 48
1.0
  6
ByLayer
 10
-38.77999999999993
 20
-10.500000000000085
 30
0.0
 40
1.9999999999999989
  0
CIRCLE
  5
EF
100
AcDbEntity
100
AcDbCircle
  8
0
 62
256
370
-1
 48
1.0
  6
ByLayer
 10
-38.779999999999916
 20
70.500000000000128
 30
0.0
 40
1.9999999999999989
  0
CIRCLE
  5
F0
100
AcDbEntity
100
AcDbCircle
  8
0
 62
256
370
-1
 48
1.0
  6
ByLayer
 10
-122.27999999999993
 20
-10.499999999999972
 30
0.0
 40
1.9999999999999989
  0
CIRCLE
  5
F1
100
AcDbEntity
100
AcDbCircle
  8
0
 62
256
370
-1
 48
1.0
  6
ByLayer
 10
-122.2799999999999
 20
70.500000000000028
 30
0.0
 40
1.9999999999999989
  0
CIRCLE
  5
F2
100
AcDbEntity
100
AcDbCircle
  8
0
 62
256
370
-1
 48
1.0
  6
ByLayer
 10
-205.77999999999992
 20
70.500000000000071
 30
0.0
 40
1.9999999999999989
  0
CIRCLE
  5
F3
100
AcDbEntity
100
AcDbCircle
  8
0
 62
256
370
-1
 48
1.0
  6
ByLayer
 10
-205.77999999999997
 20
-10.499999999999972
 30
0.0
 40
1.9999999999999989
  0
CIRCLE
  5
F4
100
AcDbEntity
100
AcDbCircle
  8
0
 62
256
370
-1
 48
1.0
  6
ByLayer
 10
-18.780000000000001
 20
56.640000000000015
 30
0.0
 40
1.6499999999999999
  0
CIRCLE
  5
F5
100
AcDbEntity
100
AcDbCircle
  8
0
 62
256
370
-1
 48
1.0
  6
ByLayer
 10
-156.77999999999997
 20
56.640000000000057
 30
0.0
 40
1.6499999999999999
  0
CIRCLE
  5
F6
100
AcDbEntity
100
AcDbCircle
  8
0
 62
256
370
-1
 48
1.0
  6
ByLayer
 10
-18.780000000000001
 20
3.3600000000000136
 30
0.0
 40
1.6499999999999999
  0
CIRCLE
  5
F7
100
AcDbEntity
100
AcDbCircle
  8
0
 62
256
370
-1
 48
1.0
  6
ByLayer
 10
-156.77999999999997
 20
3.3600000000000563
 30
0.0
 40
1.6499999999999999
  0
CIRCLE
  5
F8
100
AcDbEntity
100
AcDbCircle
  8
0
 62
256
370
-1
 48
1.0
  6
ByLayer
 10
-81.77999999999993
 20
70.500000000000057
 30
0.0
 40
1.6499999999999999
  0
CIRCLE
  5
F9
100
AcDbEntity
100
AcDbCircle
  8
0
 62
256
370
-1
 48
1.0
  6
ByLayer
 10
-81.779999999999859
 20
-10.499999999999943
 30
0.0
 40
1.6499999999999999
  0
CIRCLE
  5
FA
100
AcDbEntity
100
AcDbCircle
  8
0
 62
256
370
-1
 48
1.0
  6
ByLayer
 10
-162.77999999999986
 20
-10.499999999999943
 30
0.0
 40
1.6499999999999999
  0
CIRCLE
  5
FB
100
AcDbEntity
100
AcDbCircle
  8
0
 62
256
370
-1
 48
1.0
  6
ByLayer
 10
-162.77999999999997
 20
70.500000000000071
 30
0.0
 40
1.6499999999999999
  0
CIRCLE
  5
FC
100
AcDbEntity
100
AcDbCircle
  8
0
 62
256
370
-1
 48
1.0
  6
ByLayer
 10
-225.77999999999992
 20
3.3600000000000847
 30
0.0
 40
1.6499999999999999
  0
CIRCLE
  5
FD
100
AcDbEntity
100
AcDbCircle
  8
0
 62
256
370
-1
 48
1.0
  6
ByLayer
 10
-87.77999999999993
 20
3.3600000000000279
 30
0.0
 40
1.6499999999999999
  0
CIRCLE
  5
FE
100
AcDbEntity
100
AcDbCircle
  8
0
 62
256
370
-1
 48
1.0
  6
ByLayer
 10
-225.77999999999992
 20
56.640000000000086
 30
0.0
 40
1.6499999999999999
  0
CIRCLE
  5
FF
100
AcDbEntity
100
AcDbCircle
  8
0
 62
256
370
-1
 48
1.0
  6
ByLayer
 10
-87.77999999999993
 20
56.640000000000043
 30
0.0
 40
1.6499999999999999
  0
CIRCLE
  5
100
100
AcDbEntity
100
AcDbCircle
  8
0
 62
256
370
-1
 48
1.0
  6
ByLayer
 10
-106.7799999999999
 20
45.500000000000028
 30
0.0
 40
1.6499999999999999
  0
CIRCLE
  5
101
100
AcDbEntity
100
AcDbCircle
  8
0
 62
256
370
-1
 48
1.0
  6
ByLayer
 10
-106.7799999999999
 20
14.500000000000028
 30
0.0
 40
1.6499999999999999
  0
CIRCLE
  5
102
100
AcDbEntity
100
AcDbCircle
  8
0
 62
256
370
-1
 48
1.0
  6
ByLayer
 10
-137.77999999999992
 20
14.500000000000028
 30
0.0
 40
1.6499999999999999
  0
CIRCLE
  5
103
100
AcDbEntity
100
AcDbCircle
  8
0
 62
256
370
-1
 48
1.0
  6
ByLayer
 10
-137.77999999999986
 20
45.500000000000028
 30
0.0
 40
1.6499999999999999
  0
CIRCLE
  5
104
100
AcDbEntity
100
AcDbCircle
  8
0
 62
256
370
-1
 48
1.0
  6
ByLayer
 10
-122.2799999999999
 20
30.000000000000028
 30
0.0
 40
11.5
  0
CIRCLE
  5
105
100
AcDbEntity
100
AcDbCircle
  8
0
 62
256
370
-1
 48
1.0
  6
ByLayer
 10
-225.77999999999992
 20
30.000000000000071
 30
0.0
 40
4.5
  0
ENDBLK
  5
106
100
AcDbEntity
  8
0
100
AcDbBlockEnd
  0
BLOCK
  5
107
100
AcDbEntity
  8
0
100
AcDbBlockBegin
  2
crane_flap
 70
0
 10
0.0
 20
0.0
 30
0.0
  3
crane_flap
  1

  0
LWPOLYLINE
  5
108
  8
0
 62
256
370
-1
 48
1.0
  6
ByLayer
100
AcDbEntity
100
AcDbPolyline
 90
4
 70
1
 10
-0.0000000000000142
 20
43.499999999999972
 30
0.0
 10
-177.00000000000003
 20
43.499999999999929
 30
0.0
 10
-177.00000000000003
 20
-0.0000000000000568
 30
0.0
 10
0.0
 20
0.0
 30
0.0
  0
CIRCLE
  5
109
100
AcDbEntity
100
AcDbCircle
  8
0
 62
256
370
-1
 48
1.0
  6
ByLayer
 10
-48.0
 20
32.999999999999993
 30
0.0
 40
4.9999999999999956
  0
CIRCLE
  5
10A
100
AcDbEntity
100
AcDbCircle
  8
0
 62
256
370
-1
 48
1.0
  6
ByLayer
 10
-5.0
 20
33.0
 30
0.0
 40
1.575
  0
CIRCLE
  5
10B
100
AcDbEntity
100
AcDbCircle
  8
0
 62
256
370
-1
 48
1.0
  6
ByLayer
 10
-88.500000000000028
 20
32.999999999999964
 30
0.0
 40
1.5749999999999971
  0
CIRCLE
  5
10C
100
AcDbEntity
100
AcDbCircle
  8
0
 62
256
370
-1
 48
1.0
  6
ByLayer
 10
-172.00000000000003
 20
32.999999999999964
 30
0.0
 40
1.575
  0
CIRCLE
  5
10D
100
AcDbEntity
100
AcDbCircle
  8
0
 62
256
370
-1
 48
1.0
  6
ByLayer
 10
-129.00000000000003
 20
32.999999999999943
 30
0.0
 40
4.9999999999999956
  0
ENDBLK
  5
10E
100
AcDbEntity
  8
0
100
AcDbBlockEnd
  0
BLOCK
  5
10F
100
AcDbEntity
  8
0
100
AcDbBlockBegin
  2
crane_back
 70
0
 10
0.0
 20
0.0
 30
0.0
  3
crane_back
  1

  0
CIRCLE
  5
110
100
AcDbEntity
100
AcDbCircle
  8
0
 62
256
370
-1
 48
1.0
  6
ByLayer
 10
221.02999999999997
 20
-6.7200000000000273
 30
0.0
 40
1.9999999999999989
  0
CIRCLE
  5
111
100
AcDbEntity
100
AcDbCircle
  8
0
 62
256
370
-1
 48
1.0
  6
ByLayer
 10
230.52999999999997
 20
-6.7200000000000273
 30
0.0
 40
1.9999999999999989
  0
LWPOLYLINE
  5
112
  8
0
 62
256
370
-1
 48
1.0
  6
ByLayer
100
AcDbEntity
100
AcDbPolyline
 90
4
 70
1
 10
191.28000000000009
 20
-8.0
 30
0.0
 42
-0.9999999999999998
 10
194.27999999999997
 20
-8.0
 30
0.0
 10
194.27999999999997
 20
-12.0
 30
0.0
 42
-0.9999999999999998
 10
191.28000000000009
 20
-12.0
 30
0.0
  0
LWPOLYLINE
  5
113
  8
0
 62
256
370
-1
 48
1.0
  6
ByLayer
100
AcDbEntity
100
AcDbPolyline
 90
4
 70
1
 10
184.77999999999997
 20
-12.0
 30
0.0
 42
-0.9999999999999998
 10
181.77999999999997
 20
-12.0
 30
0.0
 10
181.77999999999997
 20
-8.0
 30
0.0
 42
-0.9999999999999998
 10
184.77999999999997
 20
-8.0
 30
0.0
  0
LWPOLYLINE
  5
114
  8
0
 62
256
370
-1
 48
1.0
  6
ByLayer
100
AcDbEntity
100
AcDbPolyline
 90
80
 70
1
 10
17.129999999999995
 20
-25.0
 30
0.0
 10
17.129999999999995
 20
-19.880000000000109
 30
0.0
 10
16.03000000000003
 20
-19.880000000000109
 30
0.0
 42
-2.414213562373094
 10
15.78000000000003
 20
-19.630000000000109
 30
0.0
 10
15.78000000000003
 20
-17.129999999999882
 30
0.0
 42
-2.414213562373094
 10
16.03000000000003
 20
-16.879999999999882
 30
0.0
 10
17.129999999999995
 20
-16.880000000000109
 30
0.0
 10
17.129999999999995
 20
-14.879999999999882
 30
0.0
 10
20.430000000000007
 20
-14.879999999999882
 30
0.0
 10
20.430000000000007
 20
-16.879999999999882
 30
0.0
 10
21.53000000000003
 20
-16.879999999999882
 30
0.0
 42
-2.414213562373094
 10
21.78000000000003
 20
-17.129999999999882
 30
0.0
 10
21.78000000000003
 20
-19.630000000000109
 30
0.0
 42
-2.414213562373094
 10
21.53000000000003
 20
-19.880000000000109
 30
0.0
 10
20.430000000000007
 20
-19.880000000000109
 30
0.0
 10
20.430000000000007
 20
-25.0
 30
0.0
 10
65.529999999999973
 20
-25.0
 30
0.0
 10
65.529999999999973
 20
-31.720000000000027
 30
0.0
 10
75.529999999999973
 20
-31.720000000000027
 30
0.0
 10
75.529999999999973
 20
-25.0
 30
0.0
 10
86.129999999999995
 20
-25.0
 30
0.0
 10
86.129999999999995
 20
-19.880000000000109
 30
0.0
 10
85.029999999999973
 20
-19.880000000000109
 30
0.0
 42
-2.414213562373094
 10
84.779999999999973
 20
-19.630000000000109
 30
0.0
 10
84.779999999999973
 20
-17.129999999999882
 30
0.0
 42
-2.414213562373094
 10
85.029999999999973
 20
-16.879999999999882
 30
0.0
 10
86.129999999999995
 20
-16.880000000000109
 30
0.0
 10
86.129999999999995
 20
-14.879999999999882
 30
0.0
 10
89.430000000000064
 20
-14.879999999999882
 30
0.0
 10
89.430000000000064
 20
-16.879999999999882
 30
0.0
 10
90.529999999999973
 20
-16.879999999999882
 30
0.0
 42
-2.414213562373094
 10
90.779999999999973
 20
-17.129999999999882
 30
0.0
 10
90.779999999999973
 20
-19.630000000000109
 30
0.0
 42
-2.414213562373094
 10
90.529999999999973
 20
-19.880000000000109
 30
0.0
 10
89.430000000000064
 20
-19.880000000000109
 30
0.0
 10
89.430000000000064
 20
-25.0
 30
0.0
 10
117.27999999999997
 20
-25.0
 30
0.0
 10
117.27999999999997
 20
-31.720000000000027
 30
0.0
 10
127.27999999999997
 20
-31.720000000000027
 30
0.0
 10
127.27999999999997
 20
-25.0
 30
0.0
 10
155.13
 20
-25.0
 30
0.0
 10
155.13
 20
-19.880000000000109
 30
0.0
 10
154.02999999999997
 20
-19.880000000000109
 30
0.0
 42
-2.414213562373094
 10
153.77999999999997
 20
-19.630000000000109
 30
0.0
 10
153.77999999999997
 20
-17.129999999999882
 30
0.0
 42
-2.414213562373094
 10
154.02999999999997
 20
-16.879999999999882
 30
0.0
 10
155.13
 20
-16.880000000000109
 30
0.0
 10
155.13
 20
-14.879999999999882
 30
0.0
 10
158.43000000000006
 20
-14.879999999999882
 30
0.0
 10
158.43000000000006
 20
-16.879999999999882
 30
0.0
 10
159.52999999999997
 20
-16.879999999999882
 30
0.0
 42
-2.414213562373094
 10
159.77999999999997
 20
-17.129999999999882
 30
0.0
 10
159.77999999999997
 20
-19.630000000000109
 30
0.0
 42
-2.414213562373094
 10
159.52999999999997
 20
-19.880000000000109
 30
0.0
 10
158.43000000000006
 20
-19.880000000000109
 30
0.0
 10
158.43000000000006
 20
-25.0
 30
0.0
 10
169.02999999999997
 20
-25.0
 30
0.0
 10
169.02999999999997
 20
-31.720000000000027
 30
0.0
 10
179.02999999999997
 20
-31.720000000000027
 30
0.0
 10
179.02999999999997
 20
-25.0
 30
0.0
 10
224.13000000000011
 20
-25.0
 30
0.0
 10
224.13000000000011
 20
-19.880000000000109
 30
0.0
 10
223.02999999999997
 20
-19.880000000000109
 30
0.0
 42
-2.414213562373094
 10
222.77999999999997
 20
-19.630000000000109
 30
0.0
 10
222.77999999999997
 20
-17.129999999999882
 30
0.0
 42
-2.414213562373094
 10
223.02999999999997
 20
-16.879999999999882
 30
0.0
 10
224.13000000000011
 20
-16.880000000000109
 30
0.0
 10
224.13000000000011
 20
-14.879999999999882
 30
0.0
 10
227.43000000000006
 20
-14.879999999999882
 30
0.0
 10
227.43000000000006
 20
-16.879999999999882
 30
0.0
 10
228.52999999999997
 20
-16.879999999999882
 30
0.0
 42
-2.414213562373094
 10
228.77999999999997
 20
-17.129999999999882
 30
0.0
 10
228.77999999999997
 20
-19.630000000000109
 30
0.0
 42
-2.414213562373094
 10
228.53000000000009
 20
-19.880000000000109
 30
0.0
 10
227.43000000000006
 20
-19.880000000000109
 30
0.0
 10
227.43000000000006
 20
-25.0
 30
0.0
 10
244.55999999999995
 20
-25.0
 30
0.0
 10
244.55999999999995
 20
0.0
 30
0.0
 10
0.0
 20
0.0
 30
0.0
 10
0.0
 20
-25.0
 30
0.0
  0
ENDBLK
  5
115
100
AcDbEntity
  8
0
100
AcDbBlockEnd
  0
BLOCK
  5
116
100
AcDbEntity
  8
0
100
AcDbBlockBegin
  2
drawer_back
 70
0
 10
0.0
 20
0.0
 30
0.0
  3
drawer_back
  1

  0
CIRCLE
  5
117
100
AcDbEntity
100
AcDbCircle
  8
0
 62
256
370
-1
 48
1.0
  6
ByLayer
 10
-82.110000000000028
 20
-89.859999999999999
 30
0.0
 40
1.574999999999998
  0
CIRCLE
  5
118
100
AcDbEntity
100
AcDbCircle
  8
0
 62
256
370
-1
 48
1.0
  6
ByLayer
 10
-90.500000000000028
 20
-221.0
 30
0.0
 40
1.5749999999999991
  0
CIRCLE
  5
119
100
AcDbEntity
100
AcDbCircle
  8
0
 62
256
370
-1
 48
1.0
  6
ByLayer
 10
-30.166666666666714
 20
-69.320000000000022
 30
0.0
 40
1.5750000000000011
  0
CIRCLE
  5
11A
100
AcDbEntity
100
AcDbCircle
  8
0
 62
256
370
-1
 48
1.0
  6
ByLayer
 10
-150.83333333333331
 20
-69.319999999999979
 30
0.0
 40
1.5750000000000011
  0
LWPOLYLINE
  5
11B
  8
0
 62
256
370
-1
 48
1.0
  6
ByLayer
100
AcDbEntity
100
AcDbPolyline
 90
8
 70
1
 10
-60.333333333333258
 20
-217.63999999999999
 30
0.0
 10
-60.333333333333258
 20
-224.35999999999996
 30
0.0
 10
-120.6666666666668
 20
-224.36000000000001
 30
0.0
 10
-120.66666666666679
 20
-217.63999999999999
 30
0.0
 10
-181.00000000000009
 20
-217.63999999999999
 30
0.0
 10
-181.0
 20
0.0000000000000426
 30
0.0
 10
0.0
 20
0.0
 30
0.0
 10
0.0000000000000284
 20
-217.63999999999999
 30
0.0
  0
CIRCLE
  5
11C
100
AcDbEntity
100
AcDbCircle
  8
0
 62
256
370
-1
 48
1.0
  6
ByLayer
 10
-75.760000000000005
 20
-138.11999999999995
 30
0.0
 40
1.574999999999998
  0
CIRCLE
  5
11D
100
AcDbEntity
100
AcDbCircle
  8
0
 62
256
370
-1
 48
1.0
  6
ByLayer
 10
-157.04000000000002
 20
-89.859999999999985
 30
0.0
 40
1.574999999999998
  0
CIRCLE
  5
11E
100
AcDbEntity
100
AcDbCircle
  8
0
 62
256
370
-1
 48
1.0
  6
ByLayer
 10
-158.31
 20
-138.12
 30
0.0
 40
1.574999999999998
  0
ENDBLK
  5
11F
100
AcDbEntity
  8
0
100
AcDbBlockEnd
  0
BLOCK
  5
120
100
AcDbEntity
  8
0
100
AcDbBlockBegin
  2
p2
 70
0
 10
0.0
 20
0.0
 30
0.0
  3
p2
  1

  0
LINE
  5
121
100
AcDbEntity
100
AcDbLine
  8
0
 62
256
370
-1
 48
1.0
  6
ByLayer
 10
0.0
 20
0.0
 30
0.0
 11
384.0
 21
0.0
 31
0.0
  0
LINE
  5
122
100
AcDbEntity
100
AcDbLine
  8
0
 62
256
370
-1
 48
1.0
  6
ByLayer
 10
384.0
 20
0.0
 30
0.0
 11
384.0
 21
-384.0
 31
0.0
  0
LINE
  5
123
100
AcDbEntity
100
AcDbLine
  8
0
 62
256
370
-1
 48
1.0
  6
ByLayer
 10
384.0
 20
-384.0
 30
0.0
 11
0.0
 21
-384.0
 31
0.0
  0
LINE
  5
124
100
AcDbEntity
100
AcDbLine
  8
0
 62
256
370
-1
 48
1.0
  6
ByLayer
 10
0.0
 20
-384.0
 30
0.0
 11
0.0
 21
0.0
 31
0.0
  0
ENDBLK
  5
125
100
AcDbEntity
  8
0
100
AcDbBlockEnd
  0
BLOCK
  5
126
100
AcDbEntity
  8
0
100
AcDbBlockBegin
  2
p3
 70
0
 10
0.0
 20
0.0
 30
0.0
  3
p3
  1

  0
LINE
  5
127
100
AcDbEntity
100
AcDbLine
  8
0
 62
256
370
-1
 48
1.0
  6
ByLayer
 10
0.0
 20
-384.0
 30
0.0
 11
0.0
 21
0.0
 31
0.0
  0
LINE
  5
128
100
AcDbEntity
100
AcDbLine
  8
0
 62
256
370
-1
 48
1.0
  6
ByLayer
 10
0.0
 20
0.0
 30
0.0
 11
790.0
 21
0.0
 31
0.0
  0
LINE
  5
129
100
AcDbEntity
100
AcDbLine
  8
0
 62
256
370
-1
 48
1.0
  6
ByLayer
 10
790.0
 20
0.0
 30
0.0
 11
790.0
 21
-384.0
 31
0.0
  0
LINE
  5
12A
100
AcDbEntity
100
AcDbLine
  8
0
 62
256
370
-1
 48
1.0
  6
ByLayer
 10
790.0
 20
-384.0
 30
0.0
 11
0.0
 21
-384.0
 31
0.0
  0
ENDBLK
  5
12B
100
AcDbEntity
  8
0
100
AcDbBlockEnd
  0
BLOCK
  5
12C
100
AcDbEntity
  8
0
100
AcDbBlockBegin
  2
frame_top
 70
0
 10
0.0
 20
0.0
 30
0.0
  3
frame_top
  1

  0
CIRCLE
  5
12D
100
AcDbEntity
100
AcDbCircle
  8
0
 62
256
370
-1
 48
1.0
  6
ByLayer
 10
-226.7800000000002
 20
33.379999999999882
 30
0.0
 40
3.9999999999999938
  0
CIRCLE
  5
12E
100
AcDbEntity
100
AcDbCircle
  8
0
 62
256
370
-1
 48
1.0
  6
ByLayer
 10
-19.7800000000002
 20
33.379999999999882
 30
0.0
 40
3.9999999999999938
  0
CIRCLE
  5
12F
100
AcDbEntity
100
AcDbCircle
  8
0
 62
256
370
-1
 48
1.0
  6
ByLayer
 10
-123.2800000000002
 20
33.379999999999882
 30
0.0
 40
4.5
  0
CIRCLE
  5
130
100
AcDbEntity
100
AcDbCircle
  8
0
 62
256
370
-1
 48
1.0
  6
ByLayer
 10
-133.24466150102489
 20
27.626899999999978
 30
0.0
 40
1.854199999999999
  0
CIRCLE
  5
131
100
AcDbEntity
100
AcDbCircle
  8
0
 62
256
370
-1
 48
1.0
  6
ByLayer
 10
-123.2800000000002
 20
44.886199999999917
 30
0.0
 40
1.854199999999999
  0
CIRCLE
  5
132
100
AcDbEntity
100
AcDbCircle
  8
0
 62
256
370
-1
 48
1.0
  6
ByLayer
 10
-113.31533849897551
 20
27.626899999999978
 30
0.0
 40
1.854199999999999
  0
LWPOLYLINE
  5
133
  8
0
 62
256
370
-1
 48
1.0
  6
ByLayer
100
AcDbEntity
100
AcDbPolyline
 90
148
 70
1
 10
0.0
 20
0.0
 30
0.0
 10
0.0
 20
22.25333333333333
 30
0.0
 10
6.7199999999997999
 20
22.25333333333333
 30
0.0
 10
6.7199999999997999
 20
44.506666666666661
 30
0.0
 10
0.0
 20
44.506666666666661
 30
0.0
 10
0.0
 20
66.759999999999991
 30
0.0
 10
-11.380000000000109
 20
66.759999999999764
 30
0.0
 10
-11.380000000000109
 20
62.479999999999791
 30
0.0
 10
-10.2800000000002
 20
62.479999999999791
 30
0.0
 42
-2.414213562373094
 10
-10.0300000000002
 20
62.229999999999791
 30
0.0
 10
-10.0300000000002
 20
59.729999999999791
 30
0.0
 42
-2.414213562373094
 10
-10.2800000000002
 20
59.479999999999791
 30
0.0
 10
-11.380000000000109
 20
59.479999999999791
 30
0.0
 10
-11.380000000000109
 20
57.479999999999791
 30
0.0
 10
-14.680000000000291
 20
57.479999999999791
 30
0.0
 10
-14.680000000000291
 20
59.479999999999791
 30
0.0
 10
-15.7800000000002
 20
59.479999999999791
 30
0.0
 42
-2.414213562373094
 10
-16.0300000000002
 20
59.729999999999791
 30
0.0
 10
-16.0300000000002
 20
62.229999999999791
 30
0.0
 42
-2.414213562373094
 10
-15.7800000000002
 20
62.479999999999791
 30
0.0
 10
-14.680000000000291
 20
62.479999999999791
 30
0.0
 10
-14.680000000000291
 20
66.759999999999764
 30
0.0
 10
-58.546666666667079
 20
66.759999999999764
 30
0.0
 10
-58.546666666667079
 20
62.479999999999791
 30
0.0
 10
-57.446666666666715
 20
62.479999999999791
 30
0.0
 42
-2.414213562373094
 10
-57.196666666666715
 20
62.229999999999791
 30
0.0
 10
-57.196666666666715
 20
59.729999999999791
 30
0.0
 42
-2.414213562373094
 10
-57.446666666666715
 20
59.479999999999791
 30
0.0
 10
-58.546666666667079
 20
59.479999999999791
 30
0.0
 10
-58.546666666667079
 20
57.479999999999791
 30
0.0
 10
-61.846666666666806
 20
57.479999999999791
 30
0.0
 10
-61.846666666666806
 20
59.479999999999791
 30
0.0
 10
-62.946666666666715
 20
59.479999999999791
 30
0.0
 42
-2.414213562373094
 10
-63.196666666666715
 20
59.729999999999791
 30
0.0
 10
-63.196666666666715
 20
62.229999999999791
 30
0.0
 42
-2.4142135623731549
 10
-62.946666666666715
 20
62.479999999999791
 30
0.0
 10
-61.846666666666806
 20
62.479999999999791
 30
0.0
 10
-61.846666666666806
 20
66.759999999999764
 30
0.0
 10
-79.946666666666715
 20
66.759999999999991
 30
0.0
 10
-79.946666666666715
 20
73.479999999999791
 30
0.0
 10
-166.61333333333369
 20
73.479999999999791
 30
0.0
 10
-166.61333333333369
 20
66.759999999999991
 30
0.0
 10
-184.71333333333359
 20
66.759999999999764
 30
0.0
 10
-184.71333333333359
 20
62.479999999999791
 30
0.0
 10
-183.61333333333369
 20
62.479999999999791
 30
0.0
 42
-2.4142135623731549
 10
-183.36333333333369
 20
62.229999999999791
 30
0.0
 10
-183.36333333333369
 20
59.729999999999791
 30
0.0
 42
-2.414213562373094
 10
-183.61333333333369
 20
59.479999999999791
 30
0.0
 10
-184.71333333333359
 20
59.479999999999791
 30
0.0
 10
-184.71333333333359
 20
57.479999999999791
 30
0.0
 10
-188.01333333333332
 20
57.479999999999791
 30
0.0
 10
-188.01333333333332
 20
59.479999999999791
 30
0.0
 10
-189.11333333333369
 20
59.479999999999791
 30
0.0
 42
-2.414213562373094
 10
-189.36333333333369
 20
59.729999999999791
 30
0.0
 10
-189.36333333333369
 20
62.229999999999791
 30
0.0
 42
-2.414213562373094
 10
-189.11333333333369
 20
62.479999999999791
 30
0.0
 10
-188.01333333333332
 20
62.479999999999791
 30
0.0
 10
-188.01333333333332
 20
66.759999999999764
 30
0.0
 10
-231.88000000000011
 20
66.759999999999764
 30
0.0
 10
-231.88000000000011
 20
62.479999999999791
 30
0.0
 10
-230.7800000000002
 20
62.479999999999791
 30
0.0
 42
-2.414213562373094
 10
-230.5300000000002
 20
62.229999999999791
 30
0.0
 10
-230.5300000000002
 20
59.729999999999791
 30
0.0
 42
-2.414213562373094
 10
-230.7800000000002
 20
59.479999999999791
 30
0.0
 10
-231.88000000000011
 20
59.479999999999791
 30
0.0
 10
-231.88000000000011
 20
57.479999999999791
 30
0.0
 10
-235.18000000000029
 20
57.479999999999791
 30
0.0
 10
-235.18000000000029
 20
59.479999999999791
 30
0.0
 10
-236.2800000000002
 20
59.479999999999791
 30
0.0
 42
-2.414213562373094
 10
-236.5300000000002
 20
59.729999999999791
 30
0.0
 10
-236.5300000000002
 20
62.229999999999791
 30
0.0
 42
-2.414213562373094
 10
-236.2800000000002
 20
62.479999999999791
 30
0.0
 10
-235.18000000000029
 20
62.479999999999791
 30
0.0
 10
-235.18000000000029
 20
66.759999999999764
 30
0.0
 10
-246.5600000000004
 20
66.759999999999991
 30
0.0
 10
-246.5600000000004
 20
44.506666666666433
 30
0.0
 10
-253.2800000000002
 20
44.506666666666433
 30
0.0
 10
-253.2800000000002
 20
22.253333333333103
 30
0.0
 10
-246.5600000000004
 20
22.253333333333103
 30
0.0
 10
-246.5600000000004
 20
-0.0000000000002274
 30
0.0
 10
-235.18000000000029
 20
0.0
 30
0.0
 10
-235.18000000000029
 20
4.2799999999999727
 30
0.0
 10
-236.2800000000002
 20
4.2799999999999727
 30
0.0
 42
-2.414213562373094
 10
-236.5300000000002
 20
4.5299999999999727
 30
0.0
 10
-236.5300000000002
 20
7.0299999999999727
 30
0.0
 42
-2.414213562373094
 10
-236.2800000000002
 20
7.2799999999999727
 30
0.0
 10
-235.18000000000029
 20
7.2799999999999727
 30
0.0
 10
-235.18000000000029
 20
9.2799999999999727
 30
0.0
 10
-231.88000000000011
 20
9.2799999999999727
 30
0.0
 10
-231.88000000000011
 20
7.2799999999999727
 30
0.0
 10
-230.7800000000002
 20
7.2799999999999727
 30
0.0
 42
-2.414213562373094
 10
-230.5300000000002
 20
7.0299999999999727
 30
0.0
 10
-230.5300000000002
 20
4.5299999999999727
 30
0.0
 42
-2.414213562373094
 10
-230.7800000000002
 20
4.2799999999999727
 30
0.0
 10
-231.88000000000011
 20
4.2799999999999727
 30
0.0
 10
-231.88000000000011
 20
0.0
 30
0.0
 10
-188.01333333333332
 20
0.0
 30
0.0
 10
-188.01333333333332
 20
4.2799999999999727
 30
0.0
 10
-189.11333333333369
 20
4.2799999999999727
 30
0.0
 42
-2.414213562373094
 10
-189.36333333333369
 20
4.5299999999999727
 30
0.0
 10
-189.36333333333369
 20
7.0299999999999727
 30
0.0
 42
-2.414213562373094
 10
-189.11333333333369
 20
7.2799999999999727
 30
0.0
 10
-188.01333333333332
 20
7.2799999999999727
 30
0.0
 10
-188.01333333333332
 20
9.2799999999999727
 30
0.0
 10
-184.71333333333359
 20
9.2799999999999727
 30
0.0
 10
-184.71333333333359
 20
7.2799999999999727
 30
0.0
 10
-183.61333333333369
 20
7.2799999999999727
 30
0.0
 42
-2.414213562373094
 10
-183.36333333333369
 20
7.0299999999999727
 30
0.0
 10
-183.36333333333369
 20
4.5299999999999727
 30
0.0
 42
-2.4142135623731549
 10
-183.61333333333369
 20
4.2799999999999727
 30
0.0
 10
-184.71333333333359
 20
4.2799999999999727
 30
0.0
 10
-184.71333333333359
 20
0.0
 30
0.0
 10
-166.61333333333369
 20
-0.0000000000002274
 30
0.0
 10
-166.61333333333369
 20
-6.7200000000000273
 30
0.0
 10
-79.946666666666715
 20
-6.7200000000000273
 30
0.0
 10
-79.946666666666715
 20
-0.0000000000002274
 30
0.0
 10
-61.846666666666806
 20
0.0
 30
0.0
 10
-61.846666666666806
 20
4.2799999999999727
 30
0.0
 10
-62.946666666666715
 20
4.2799999999999727
 30
0.0
 42
-2.4142135623731549
 10
-63.196666666666715
 20
4.5299999999999727
 30
0.0
 10
-63.196666666666715
 20
7.0299999999999727
 30
0.0
 42
-2.414213562373094
 10
-62.946666666666715
 20
7.2799999999999727
 30
0.0
 10
-61.846666666666806
 20
7.2799999999999727
 30
0.0
 10
-61.846666666666806
 20
9.2799999999999727
 30
0.0
 10
-58.546666666667079
 20
9.2799999999999727
 30
0.0
 10
-58.546666666667079
 20
7.2799999999999727
 30
0.0
 10
-57.446666666666715
 20
7.2799999999999727
 30
0.0
 42
-2.414213562373094
 10
-57.196666666666715
 20
7.0299999999999727
 30
0.0
 10
-57.196666666666715
 20
4.5299999999999727
 30
0.0
 42
-2.414213562373094
 10
-57.446666666666715
 20
4.2799999999999727
 30
0.0
 10
-58.546666666667079
 20
4.2799999999999727
 30
0.0
 10
-58.546666666667079
 20
0.0
 30
0.0
 10
-14.680000000000291
 20
0.0
 30
0.0
 10
-14.680000000000291
 20
4.2799999999999727
 30
0.0
 10
-15.7800000000002
 20
4.2799999999999727
 30
0.0
 42
-2.414213562373094
 10
-16.0300000000002
 20
4.5299999999999727
 30
0.0
 10
-16.0300000000002
 20
7.0299999999999727
 30
0.0
 42
-2.414213562373094
 10
-15.7800000000002
 20
7.2799999999999727
 30
0.0
 10
-14.680000000000291
 20
7.2799999999999727
 30
0.0
 10
-14.680000000000291
 20
9.2799999999999727
 30
0.0
 10
-11.380000000000109
 20
9.2799999999999727
 30
0.0
 10
-11.380000000000109
 20
7.2799999999999727
 30
0.0
 10
-10.2800000000002
 20
7.2799999999999727
 30
0.0
 42
-2.414213562373094
 10
-10.0300000000002
 20
7.0299999999999727
 30
0.0
 10
-10.0300000000002
 20
4.5299999999999727
 30
0.0
 42
-2.414213562373094
 10
-10.2800000000002
 20
4.2799999999999727
 30
0.0
 10
-11.380000000000109
 20
4.2799999999999727
 30
0.0
 10
-11.380000000000109
 20
0.0
 30
0.0
  0
CIRCLE
  5
134
100
AcDbEntity
100
AcDbCircle
  8
0
 62
256
370
-1
 48
1.0
  6
ByLayer
 10
-249.92000000000007
 20
33.379999999999882
 30
0.0
 40
1.5750000000000011
  0
CIRCLE
  5
135
100
AcDbEntity
100
AcDbCircle
  8
0
 62
256
370
-1
 48
1.0
  6
ByLayer
 10
3.3599999999996726
 20
33.379999999999882
 30
0.0
 40
1.5750000000000011
  0
CIRCLE
  5
136
100
AcDbEntity
100
AcDbCircle
  8
0
 62
256
370
-1
 48
1.0
  6
ByLayer
 10
-19.7800000000002
 20
47.629999999999882
 30
0.0
 40
2.0
  0
ENDBLK
  5
137
100
AcDbEntity
  8
0
100
AcDbBlockEnd
  0
BLOCK
  5
138
100
AcDbEntity
  8
0
100
AcDbBlockBegin
  2
crane_front
 70
0
 10
0.0
 20
0.0
 30
0.0
  3
crane_front
  1

  0
LWPOLYLINE
  5
139
  8
0
 62
256
370
-1
 48
1.0
  6
ByLayer
100
AcDbEntity
100
AcDbPolyline
 90
80
 70
1
 10
17.129999999999995
 20
-25.0
 30
0.0
 10
17.130000000000109
 20
-19.879999999999995
 30
0.0
 10
16.030000000000086
 20
-19.879999999999995
 30
0.0
 42
-2.414213562373094
 10
15.780000000000086
 20
-19.629999999999995
 30
0.0
 10
15.780000000000086
 20
-17.129999999999995
 30
0.0
 42
-2.414213562373094
 10
16.030000000000086
 20
-16.879999999999995
 30
0.0
 10
17.129999999999995
 20
-16.879999999999995
 30
0.0
 10
17.129999999999995
 20
-14.879999999999995
 30
0.0
 10
20.430000000000064
 20
-14.879999999999995
 30
0.0
 10
20.430000000000064
 20
-16.879999999999995
 30
0.0
 10
21.530000000000086
 20
-16.879999999999995
 30
0.0
 42
-2.414213562373094
 10
21.780000000000086
 20
-17.129999999999995
 30
0.0
 10
21.780000000000086
 20
-19.629999999999995
 30
0.0
 42
-2.414213562373094
 10
21.530000000000086
 20
-19.879999999999995
 30
0.0
 10
20.430000000000064
 20
-19.879999999999995
 30
0.0
 10
20.430000000000064
 20
-25.0
 30
0.0
 10
65.530000000000086
 20
-25.0
 30
0.0
 10
65.530000000000086
 20
-31.720000000000027
 30
0.0
 10
75.530000000000086
 20
-31.720000000000027
 30
0.0
 10
75.530000000000086
 20
-25.0
 30
0.0
 10
86.130000000000109
 20
-25.0
 30
0.0
 10
86.129999999999995
 20
-19.879999999999995
 30
0.0
 10
85.030000000000086
 20
-19.879999999999995
 30
0.0
 42
-2.414213562373094
 10
84.780000000000086
 20
-19.629999999999995
 30
0.0
 10
84.780000000000086
 20
-17.129999999999995
 30
0.0
 42
-2.414213562373094
 10
85.030000000000086
 20
-16.879999999999995
 30
0.0
 10
86.129999999999995
 20
-16.879999999999995
 30
0.0
 10
86.129999999999995
 20
-14.879999999999995
 30
0.0
 10
89.430000000000064
 20
-14.879999999999995
 30
0.0
 10
89.430000000000064
 20
-16.879999999999995
 30
0.0
 10
90.530000000000086
 20
-16.879999999999995
 30
0.0
 42
-2.414213562373094
 10
90.780000000000086
 20
-17.129999999999995
 30
0.0
 10
90.780000000000086
 20
-19.629999999999995
 30
0.0
 42
-2.414213562373094
 10
90.530000000000086
 20
-19.879999999999995
 30
0.0
 10
89.430000000000064
 20
-19.879999999999995
 30
0.0
 10
89.430000000000064
 20
-25.0
 30
0.0
 10
117.28000000000009
 20
-25.0
 30
0.0
 10
117.28000000000009
 20
-31.720000000000027
 30
0.0
 10
127.27999999999997
 20
-31.720000000000027
 30
0.0
 10
127.27999999999997
 20
-25.0
 30
0.0
 10
155.13
 20
-25.0
 30
0.0
 10
155.13
 20
-19.879999999999995
 30
0.0
 10
154.03000000000009
 20
-19.879999999999995
 30
0.0
 42
-2.414213562373094
 10
153.78000000000009
 20
-19.629999999999995
 30
0.0
 10
153.78000000000009
 20
-17.129999999999995
 30
0.0
 42
-2.414213562373094
 10
154.03000000000009
 20
-16.879999999999995
 30
0.0
 10
155.13
 20
-16.879999999999995
 30
0.0
 10
155.13
 20
-14.879999999999995
 30
0.0
 10
158.43000000000018
 20
-14.879999999999995
 30
0.0
 10
158.43000000000018
 20
-16.879999999999995
 30
0.0
 10
159.53000000000009
 20
-16.879999999999995
 30
0.0
 42
-2.414213562373094
 10
159.78000000000009
 20
-17.129999999999995
 30
0.0
 10
159.78000000000009
 20
-19.629999999999995
 30
0.0
 42
-2.414213562373094
 10
159.53000000000009
 20
-19.879999999999995
 30
0.0
 10
158.43000000000018
 20
-19.879999999999995
 30
0.0
 10
158.43000000000018
 20
-25.0
 30
0.0
 10
169.03000000000009
 20
-25.0
 30
0.0
 10
169.03000000000009
 20
-31.720000000000027
 30
0.0
 10
179.03000000000009
 20
-31.720000000000027
 30
0.0
 10
179.03000000000009
 20
-25.0
 30
0.0
 10
224.13
 20
-25.0
 30
0.0
 10
224.13
 20
-19.879999999999995
 30
0.0
 10
223.03000000000009
 20
-19.879999999999995
 30
0.0
 42
-2.414213562373094
 10
222.78000000000009
 20
-19.629999999999995
 30
0.0
 10
222.78000000000009
 20
-17.129999999999995
 30
0.0
 42
-2.414213562373094
 10
223.03000000000009
 20
-16.879999999999995
 30
0.0
 10
224.13
 20
-16.879999999999995
 30
0.0
 10
224.13
 20
-14.879999999999995
 30
0.0
 10
227.43000000000018
 20
-14.879999999999995
 30
0.0
 10
227.43000000000018
 20
-16.879999999999995
 30
0.0
 10
228.53000000000009
 20
-16.879999999999995
 30
0.0
 42
-2.414213562373094
 10
228.78000000000009
 20
-17.129999999999995
 30
0.0
 10
228.78000000000009
 20
-19.629999999999995
 30
0.0
 42
-2.414213562373094
 10
228.53000000000009
 20
-19.879999999999995
 30
0.0
 10
227.43000000000018
 20
-19.879999999999995
 30
0.0
 10
227.43000000000018
 20
-25.0
 30
0.0
 10
244.56000000000006
 20
-25.0
 30
0.0
 10
244.56000000000006
 20
0.0
 30
0.0
 10
0.0
 20
0.0
 30
0.0
 10
0.0
 20
-25.0
 30
0.0
  0
ENDBLK
  5
13A
100
AcDbEntity
  8
0
100
AcDbBlockEnd
  0
ENDSEC
  0
SECTION
  2
ENTITIES
  0
CIRCLE
  5
13B
100
AcDbEntity
100
AcDbCircle
  8
0
 62
256
370
-1
 48
1.0
  6
ByLayer
 10
-167.71999999999997
 20
-121.02999999999992
 30
0.0
 40
1.9999999999999989
  0
CIRCLE
  5
13C
100
AcDbEntity
100
AcDbCircle
  8
0
 62
256
370
-1
 48
1.0
  6
ByLayer
 10
-167.72000000000025
 20
-130.52999999999992
 30
0.0
 40
1.9999999999999989
  0
CIRCLE
  5
13D
100
AcDbEntity
100
AcDbCircle
  8
0
 62
256
370
-1
 48
1.0
  6
ByLayer
 10
-85.240000000000052
 20
-38.120000000000005
 30
0.0
 40
1.574999999999998
  0
CIRCLE
  5
13E
100
AcDbEntity
100
AcDbCircle
  8
0
 62
256
370
-1
 48
1.0
  6
ByLayer
 10
-3.9600000000000364
 20
10.139999999999858
 30
0.0
 40
1.574999999999998
  0
CIRCLE
  5
13F
100
AcDbEntity
100
AcDbCircle
  8
0
 62
256
370
-1
 48
1.0
  6
ByLayer
 10
-2.6899999999999977
 20
-38.120000000000061
 30
0.0
 40
1.574999999999998
  0
CIRCLE
  5
140
100
AcDbEntity
100
AcDbCircle
  8
0
 62
256
370
-1
 48
1.0
  6
ByLayer
 10
-78.889999999999958
 20
10.139999999999972
 30
0.0
 40
1.574999999999998
  0
CIRCLE
  5
141
100
AcDbEntity
100
AcDbCircle
  8
0
 62
256
370
-1
 48
1.0
  6
ByLayer
 10
-70.499999999999986
 20
-121.00000000000006
 30
0.0
 40
1.5749999999999991
  0
CIRCLE
  5
142
100
AcDbEntity
100
AcDbCircle
  8
0
 62
256
370
-1
 48
1.0
  6
ByLayer
 10
-130.83333333333331
 20
30.679999999999893
 30
0.0
 40
1.5750000000000011
  0
CIRCLE
  5
143
100
AcDbEntity
100
AcDbCircle
  8
0
 62
256
370
-1
 48
1.0
  6
ByLayer
 10
-10.166666666666714
 20
30.679999999999922
 30
0.0
 40
1.5750000000000011
  0
CIRCLE
  5
144
100
AcDbEntity
100
AcDbCircle
  8
0
 62
256
370
-1
 48
1.0
  6
ByLayer
 10
-182.63999999999999
 20
144.5200000000001
 30
0.0
 40
1.575
  0
CIRCLE
  5
145
100
AcDbEntity
100
AcDbCircle
  8
0
 62
256
370
-1
 48
1.0
  6
ByLayer
 10
-172.56
 20
110.00000000000006
 30
0.0
 40
1.575
  0
CIRCLE
  5
146
100
AcDbEntity
100
AcDbCircle
  8
0
 62
256
370
-1
 48
1.0
  6
ByLayer
 10
-23.460000000000122
 20
146.39999999999958
 30
0.0
 40
1.5750000000000111
  0
LINE
  5
147
100
AcDbEntity
100
AcDbLine
  8
0
 62
256
370
-1
 48
1.0
  6
ByLayer
 10
-100.66666666666681
 20
-117.64000000000007
 30
0.0
 11
-100.6666666666667
 21
-124.36000000000001
 31
0.0
  0
LINE
  5
148
100
AcDbEntity
100
AcDbLine
  8
0
 62
256
370
-1
 48
1.0
  6
ByLayer
 10
-100.6666666666667
 20
-124.36000000000001
 30
0.0
 11
-40.333333333333243
 21
-124.36000000000007
 31
0.0
  0
LINE
  5
149
100
AcDbEntity
100
AcDbLine
  8
0
 62
256
370
-1
 48
1.0
  6
ByLayer
 10
-40.333333333333243
 20
-124.36000000000007
 30
0.0
 11
-40.333333333333229
 21
-117.64000000000004
 31
0.0
  0
LINE
  5
14A
100
AcDbEntity
100
AcDbLine
  8
0
 62
256
370
-1
 48
1.0
  6
ByLayer
 10
-40.333333333333229
 20
-117.64000000000004
 30
0.0
 11
20.0
 21
-117.64000000000007
 31
0.0
  0
LINE
  5
14B
100
AcDbEntity
100
AcDbLine
  8
0
 62
256
370
-1
 48
1.0
  6
ByLayer
 10
20.0
 20
-117.64000000000007
 30
0.0
 11
20.0
 21
99.999999999999901
 31
0.0
  0
LINE
  5
14C
100
AcDbEntity
100
AcDbLine
  8
0
 62
256
370
-1
 48
1.0
  6
ByLayer
 10
-161.00000000000006
 20
-117.64000000000004
 30
0.0
 11
-100.66666666666681
 21
-117.64000000000007
 31
0.0
  0
LINE
  5
14D
100
AcDbEntity
100
AcDbLine
  8
0
 62
256
370
-1
 48
1.0
  6
ByLayer
 10
-88.234999999999999
 20
150.40000000000006
 30
0.0
 11
-88.235000000000014
 21
135.40000000000006
 31
0.0
  0
LINE
  5
14E
100
AcDbEntity
100
AcDbLine
  8
0
 62
256
370
-1
 48
1.0
  6
ByLayer
 10
-88.235000000000014
 20
135.40000000000006
 30
0.0
 11
-101.12499999999999
 21
135.40000000000009
 31
0.0
  0
LINE
  5
14F
100
AcDbEntity
100
AcDbLine
  8
0
 62
256
370
-1
 48
1.0
  6
ByLayer
 10
-101.12499999999999
 20
135.40000000000009
 30
0.0
 11
-101.12499999999997
 21
150.40000000000009
 31
0.0
  0
LINE
  5
150
100
AcDbEntity
100
AcDbLine
  8
0
 62
256
370
-1
 48
1.0
  6
ByLayer
 10
-101.12499999999997
 20
150.40000000000009
 30
0.0
 11
-88.234999999999999
 21
150.40000000000006
 31
0.0
  0
LINE
  5
151
100
AcDbEntity
100
AcDbLine
  8
0
 62
256
370
-1
 48
1.0
  6
ByLayer
 10
-71.91500000000002
 20
130.40000000000006
 30
0.0
 11
-71.915000000000035
 21
150.40000000000009
 31
0.0
  0
LINE
  5
152
100
AcDbEntity
100
AcDbLine
  8
0
 62
256
370
-1
 48
1.0
  6
ByLayer
 10
-71.915000000000035
 20
150.40000000000009
 30
0.0
 11
-56.48500000000007
 21
150.40000000000009
 31
0.0
  0
LINE
  5
153
100
AcDbEntity
100
AcDbLine
  8
0
 62
256
370
-1
 48
1.0
  6
ByLayer
 10
-56.48500000000007
 20
150.40000000000009
 30
0.0
 11
-56.485000000000042
 21
130.40000000000006
 31
0.0
  0
LINE
  5
154
100
AcDbEntity
100
AcDbLine
  8
0
 62
256
370
-1
 48
1.0
  6
ByLayer
 10
-56.485000000000042
 20
130.40000000000006
 30
0.0
 11
-71.91500000000002
 21
130.40000000000006
 31
0.0
  0
LINE
  5
155
100
AcDbEntity
100
AcDbLine
  8
0
 62
256
370
-1
 48
1.0
  6
ByLayer
 10
-45.960000000000036
 20
150.39999999999947
 30
0.0
 11
-30.960000000000008
 21
150.39999999999952
 31
0.0
  0
LINE
  5
156
100
AcDbEntity
100
AcDbLine
  8
0
 62
256
370
-1
 48
1.0
  6
ByLayer
 10
-30.960000000000008
 20
150.39999999999952
 30
0.0
 11
-30.960000000000036
 21
143.67999999999955
 31
0.0
  0
LINE
  5
157
100
AcDbEntity
100
AcDbLine
  8
0
 62
256
370
-1
 48
1.0
  6
ByLayer
 10
-30.960000000000036
 20
143.67999999999955
 30
0.0
 11
-45.960000000000036
 21
143.67999999999952
 31
0.0
  0
LINE
  5
158
100
AcDbEntity
100
AcDbLine
  8
0
 62
256
370
-1
 48
1.0
  6
ByLayer
 10
-45.960000000000036
 20
143.67999999999952
 30
0.0
 11
-45.960000000000036
 21
150.39999999999947
 31
0.0
  0
LINE
  5
159
100
AcDbEntity
100
AcDbLine
  8
0
 62
256
370
-1
 48
1.0
  6
ByLayer
 10
20.519999999999982
 20
100.0
 30
0.0
 11
20.519999999999982
 21
157.12000000000009
 31
0.0
  0
LINE
  5
15A
100
AcDbEntity
100
AcDbLine
  8
0
 62
256
370
-1
 48
1.0
  6
ByLayer
 10
20.519999999999982
 20
157.12000000000009
 30
0.0
 11
-186.0
 21
157.12000000000009
 31
0.0
  0
LINE
  5
15B
100
AcDbEntity
100
AcDbLine
  8
0
 62
256
370
-1
 48
1.0
  6
ByLayer
 10
-186.0
 20
157.12000000000009
 30
0.0
 11
-186.0
 21
100.00000000000006
 31
0.0
  0
LINE
  5
15C
100
AcDbEntity
100
AcDbLine
  8
0
 62
256
370
-1
 48
1.0
  6
ByLayer
 10
-186.0
 20
100.00000000000006
 30
0.0
 11
20.0
 21
100.0
 31
0.0
  0
ARC
  5
15D
100
AcDbEntity
  8
0
 62
256
370
-1
 48
1.0
  6
ByLayer
100
AcDbCircle
 10
-173.00000000000017
 20
-83.279999999999916
 30
0.0
 40
1.5
100
AcDbArc
 50
89.999999999997286
 51
269.99999999999778
  0
LINE
  5
15E
100
AcDbEntity
100
AcDbLine
  8
0
 62
256
370
-1
 48
1.0
  6
ByLayer
 10
-173.00000000000009
 20
-81.779999999999916
 30
0.0
 11
-168.9999999999998
 21
-81.779999999999916
 31
0.0
  0
ARC
  5
15F
100
AcDbEntity
  8
0
 62
256
370
-1
 48
1.0
  6
ByLayer
100
AcDbCircle
 10
-168.99999999999986
 20
-83.279999999999916
 30
0.0
 40
1.5
100
AcDbArc
 50
269.99999999999778
 51
89.99999999999784
  0
LINE
  5
160
100
AcDbEntity
100
AcDbLine
  8
0
 62
256
370
-1
 48
1.0
  6
ByLayer
 10
-168.99999999999991
 20
-84.779999999999916
 30
0.0
 11
-173.00000000000023
 21
-84.779999999999916
 31
0.0
  0
LINE
  5
161
100
AcDbEntity
100
AcDbLine
  8
0
 62
256
370
-1
 48
1.0
  6
ByLayer
 10
-186.0
 20
82.870000000000061
 30
0.0
 11
-180.88000000000011
 21
82.870000000000061
 31
0.0
  0
LINE
  5
162
100
AcDbEntity
100
AcDbLine
  8
0
 62
256
370
-1
 48
1.0
  6
ByLayer
 10
-180.88000000000011
 20
82.870000000000061
 30
0.0
 11
-180.88000000000011
 21
83.970000000000027
 31
0.0
  0
ARC
  5
163
100
AcDbEntity
  8
0
 62
256
370
-1
 48
1.0
  6
ByLayer
100
AcDbCircle
 10
-180.88000000000011
 20
84.220000000000027
 30
0.0
 40
0.25
100
AcDbArc
 50
0.0
 51
270.0
  0
LINE
  5
164
100
AcDbEntity
100
AcDbLine
  8
0
 62
256
370
-1
 48
1.0
  6
ByLayer
 10
-180.63000000000011
 20
84.220000000000027
 30
0.0
 11
-178.12999999999988
 21
84.220000000000027
 31
0.0
  0
ARC
  5
165
100
AcDbEntity
  8
0
 62
256
370
-1
 48
1.0
  6
ByLayer
100
AcDbCircle
 10
-177.87999999999988
 20
84.220000000000027
 30
0.0
 40
0.2500000000000071
100
AcDbArc
 50
270.00000000000324
 51
180.0
  0
LINE
  5
166
100
AcDbEntity
100
AcDbLine
  8
0
 62
256
370
-1
 48
1.0
  6
ByLayer
 10
-177.87999999999988
 20
83.970000000000027
 30
0.0
 11
-177.88000000000011
 21
82.870000000000061
 31
0.0
  0
LINE
  5
167
100
AcDbEntity
100
AcDbLine
  8
0
 62
256
370
-1
 48
1.0
  6
ByLayer
 10
-177.88000000000011
 20
82.870000000000061
 30
0.0
 11
-175.87999999999988
 21
82.870000000000061
 31
0.0
  0
LINE
  5
168
100
AcDbEntity
100
AcDbLine
  8
0
 62
256
370
-1
 48
1.0
  6
ByLayer
 10
-175.87999999999988
 20
82.870000000000061
 30
0.0
 11
-175.87999999999988
 21
79.57000000000005
 31
0.0
  0
LINE
  5
169
100
AcDbEntity
100
AcDbLine
  8
0
 62
256
370
-1
 48
1.0
  6
ByLayer
 10
-175.87999999999988
 20
79.57000000000005
 30
0.0
 11
-177.87999999999988
 21
79.57000000000005
 31
0.0
  0
LINE
  5
16A
100
AcDbEntity
100
AcDbLine
  8
0
 62
256
370
-1
 48
1.0
  6
ByLayer
 10
-177.87999999999988
 20
79.57000000000005
 30
0.0
 11
-177.87999999999988
 21
78.470000000000027
 31
0.0
  0
ARC
  5
16B
100
AcDbEntity
  8
0
 62
256
370
-1
 48
1.0
  6
ByLayer
100
AcDbCircle
 10
-177.87999999999988
 20
78.220000000000027
 30
0.0
 40
0.25
100
AcDbArc
 50
180.0
 51
90.0
  0
LINE
  5
16C
100
AcDbEntity
100
AcDbLine
  8
0
 62
256
370
-1
 48
1.0
  6
ByLayer
 10
-178.12999999999988
 20
78.220000000000027
 30
0.0
 11
-180.63000000000011
 21
78.220000000000027
 31
0.0
  0
ARC
  5
16D
100
AcDbEntity
  8
0
 62
256
370
-1
 48
1.0
  6
ByLayer
100
AcDbCircle
 10
-180.88000000000011
 20
78.220000000000041
 30
0.0
 40
0.2499999999999858
100
AcDbArc
 50
89.999999999996746
 51
360.0
  0
LINE
  5
16E
100
AcDbEntity
100
AcDbLine
  8
0
 62
256
370
-1
 48
1.0
  6
ByLayer
 10
-180.88000000000011
 20
78.470000000000027
 30
0.0
 11
-180.88000000000011
 21
79.57000000000005
 31
0.0
  0
LINE
  5
16F
100
AcDbEntity
100
AcDbLine
  8
0
 62
256
370
-1
 48
1.0
  6
ByLayer
 10
-180.88000000000011
 20
79.57000000000005
 30
0.0
 11
-186.0
 21
79.570000000000064
 31
0.0
  0
LINE
  5
170
100
AcDbEntity
100
AcDbLine
  8
0
 62
256
370
-1
 48
1.0
  6
ByLayer
 10
-186.0
 20
79.570000000000064
 30
0.0
 11
-186.0
 21
34.470000000000084
 31
0.0
  0
LINE
  5
171
100
AcDbEntity
100
AcDbLine
  8
0
 62
256
370
-1
 48
1.0
  6
ByLayer
 10
-186.0
 20
34.470000000000084
 30
0.0
 11
-192.72000000000008
 21
34.470000000000098
 31
0.0
  0
LINE
  5
172
100
AcDbEntity
100
AcDbLine
  8
0
 62
256
370
-1
 48
1.0
  6
ByLayer
 10
-192.72000000000008
 20
34.470000000000098
 30
0.0
 11
-192.72000000000003
 21
24.470000000000084
 31
0.0
  0
LINE
  5
173
100
AcDbEntity
100
AcDbLine
  8
0
 62
256
370
-1
 48
1.0
  6
ByLayer
 10
-192.72000000000003
 20
24.470000000000084
 30
0.0
 11
-186.0
 21
24.470000000000084
 31
0.0
  0
LINE
  5
174
100
AcDbEntity
100
AcDbLine
  8
0
 62
256
370
-1
 48
1.0
  6
ByLayer
 10
-186.0
 20
24.470000000000084
 30
0.0
 11
-186.00000000000003
 21
13.870000000000061
 31
0.0
  0
LINE
  5
175
100
AcDbEntity
100
AcDbLine
  8
0
 62
256
370
-1
 48
1.0
  6
ByLayer
 10
-186.00000000000003
 20
13.870000000000061
 30
0.0
 11
-180.88000000000017
 21
13.870000000000061
 31
0.0
  0
LINE
  5
176
100
AcDbEntity
100
AcDbLine
  8
0
 62
256
370
-1
 48
1.0
  6
ByLayer
 10
-180.88000000000017
 20
13.870000000000061
 30
0.0
 11
-180.88000000000011
 21
14.970000000000084
 31
0.0
  0
ARC
  5
177
100
AcDbEntity
  8
0
 62
256
370
-1
 48
1.0
  6
ByLayer
100
AcDbCircle
 10
-180.88000000000011
 20
15.22000000000007
 30
0.0
 40
0.2499999999999858
100
AcDbArc
 50
0.0
 51
270.00000000000324
  0
LINE
  5
178
100
AcDbEntity
100
AcDbLine
  8
0
 62
256
370
-1
 48
1.0
  6
ByLayer
 10
-180.63000000000011
 20
15.220000000000084
 30
0.0
 11
-178.12999999999997
 21
15.220000000000098
 31
0.0
  0
ARC
  5
179
100
AcDbEntity
  8
0
 62
256
370
-1
 48
1.0
  6
ByLayer
100
AcDbCircle
 10
-177.87999999999994
 20
15.220000000000113
 30
0.0
 40
0.2500000000000142
100
AcDbArc
 50
270.00000000000324
 51
180.0
  0
LINE
  5
17A
100
AcDbEntity
100
AcDbLine
  8
0
 62
256
370
-1
 48
1.0
  6
ByLayer
 10
-177.87999999999994
 20
14.970000000000098
 30
0.0
 11
-177.88000000000011
 21
13.870000000000061
 31
0.0
  0
LINE
  5
17B
100
AcDbEntity
100
AcDbLine
  8
0
 62
256
370
-1
 48
1.0
  6
ByLayer
 10
-177.88000000000011
 20
13.870000000000061
 30
0.0
 11
-175.87999999999988
 21
13.870000000000061
 31
0.0
  0
LINE
  5
17C
100
AcDbEntity
100
AcDbLine
  8
0
 62
256
370
-1
 48
1.0
  6
ByLayer
 10
-175.87999999999988
 20
13.870000000000061
 30
0.0
 11
-175.87999999999994
 21
10.570000000000007
 31
0.0
  0
LINE
  5
17D
100
AcDbEntity
100
AcDbLine
  8
0
 62
256
370
-1
 48
1.0
  6
ByLayer
 10
-175.87999999999994
 20
10.570000000000007
 30
0.0
 11
-177.87999999999988
 21
10.569999999999993
 31
0.0
  0
LINE
  5
17E
100
AcDbEntity
100
AcDbLine
  8
0
 62
256
370
-1
 48
1.0
  6
ByLayer
 10
-177.87999999999988
 20
10.569999999999993
 30
0.0
 11
-177.87999999999985
 21
9.4700000000000841
 31
0.0
  0
ARC
  5
17F
100
AcDbEntity
  8
0
 62
256
370
-1
 48
1.0
  6
ByLayer
100
AcDbCircle
 10
-177.87999999999988
 20
9.2200000000000628
 30
0.0
 40
0.2500000000000213
100
AcDbArc
 50
180.0
 51
89.999999999996746
  0
LINE
  5
180
100
AcDbEntity
100
AcDbLine
  8
0
 62
256
370
-1
 48
1.0
  6
ByLayer
 10
-178.12999999999988
 20
9.2200000000000841
 30
0.0
 11
-180.63000000000017
 21
9.2200000000000983
 31
0.0
  0
ARC
  5
181
100
AcDbEntity
  8
0
 62
256
370
-1
 48
1.0
  6
ByLayer
100
AcDbCircle
 10
-180.88000000000017
 20
9.220000000000077
 30
0.0
 40
0.2500000000000213
100
AcDbArc
 50
90.000000000003254
 51
0.0
  0
LINE
  5
182
100
AcDbEntity
100
AcDbLine
  8
0
 62
256
370
-1
 48
1.0
  6
ByLayer
 10
-180.88000000000019
 20
9.4700000000000983
 30
0.0
 11
-180.88000000000011
 21
10.569999999999993
 31
0.0
  0
LINE
  5
183
100
AcDbEntity
100
AcDbLine
  8
0
 62
256
370
-1
 48
1.0
  6
ByLayer
 10
-180.88000000000011
 20
10.569999999999993
 30
0.0
 11
-186.0
 21
10.569999999999993
 31
0.0
  0
LINE
  5
184
100
AcDbEntity
100
AcDbLine
  8
0
 62
256
370
-1
 48
1.0
  6
ByLayer
 10
-186.0
 20
10.569999999999993
 30
0.0
 11
-185.99999999999997
 21
-17.279999999999916
 31
0.0
  0
LINE
  5
185
100
AcDbEntity
100
AcDbLine
  8
0
 62
256
370
-1
 48
1.0
  6
ByLayer
 10
-185.99999999999997
 20
-17.279999999999916
 30
0.0
 11
-192.72000000000008
 21
-17.279999999999902
 31
0.0
  0
LINE
  5
186
100
AcDbEntity
100
AcDbLine
  8
0
 62
256
370
-1
 48
1.0
  6
ByLayer
 10
-192.72000000000008
 20
-17.279999999999902
 30
0.0
 11
-192.72000000000003
 21
-27.279999999999916
 31
0.0
  0
LINE
  5
187
100
AcDbEntity
100
AcDbLine
  8
0
 62
256
370
-1
 48
1.0
  6
ByLayer
 10
-192.72000000000003
 20
-27.279999999999916
 30
0.0
 11
-186.00000000000017
 21
-27.279999999999902
 31
0.0
  0
LINE
  5
188
100
AcDbEntity
100
AcDbLine
  8
0
 62
256
370
-1
 48
1.0
  6
ByLayer
 10
-186.00000000000017
 20
-27.279999999999902
 30
0.0
 11
-186.0
 21
-55.129999999999939
 31
0.0
  0
LINE
  5
189
100
AcDbEntity
100
AcDbLine
  8
0
 62
256
370
-1
 48
1.0
  6
ByLayer
 10
-186.0
 20
-55.129999999999939
 30
0.0
 11
-180.88000000000011
 21
-55.129999999999939
 31
0.0
  0
LINE
  5
18A
100
AcDbEntity
100
AcDbLine
  8
0
 62
256
370
-1
 48
1.0
  6
ByLayer
 10
-180.88000000000011
 20
-55.129999999999939
 30
0.0
 11
-180.88000000000011
 21
-54.029999999999887
 31
0.0
  0
ARC
  5
18B
100
AcDbEntity
  8
0
 62
256
370
-1
 48
1.0
  6
ByLayer
100
AcDbCircle
 10
-180.88000000000008
 20
-53.779999999999866
 30
0.0
 40
0.2500000000000213
100
AcDbArc
 50
360.0
 51
269.99999999999022
  0
LINE
  5
18C
100
AcDbEntity
100
AcDbLine
  8
0
 62
256
370
-1
 48
1.0
  6
ByLayer
 10
-180.63000000000005
 20
-53.779999999999916
 30
0.0
 11
-178.12999999999982
 21
-53.779999999999916
 31
0.0
  0
ARC
  5
18D
100
AcDbEntity
  8
0
 62
256
370
-1
 48
1.0
  6
ByLayer
100
AcDbCircle
 10
-177.87999999999977
 20
-53.779999999999852
 30
0.0
 40
0.250000000000064
100
AcDbArc
 50
270.00000000001626
 51
180.0
  0
LINE
  5
18E
100
AcDbEntity
100
AcDbLine
  8
0
 62
256
370
-1
 48
1.0
  6
ByLayer
 10
-177.87999999999971
 20
-54.029999999999916
 30
0.0
 11
-177.87999999999988
 21
-55.129999999999939
 31
0.0
  0
LINE
  5
18F
100
AcDbEntity
100
AcDbLine
  8
0
 62
256
370
-1
 48
1.0
  6
ByLayer
 10
-177.87999999999988
 20
-55.129999999999939
 30
0.0
 11
-175.87999999999991
 21
-55.129999999999939
 31
0.0
  0
LINE
  5
190
100
AcDbEntity
100
AcDbLine
  8
0
 62
256
370
-1
 48
1.0
  6
ByLayer
 10
-175.87999999999991
 20
-55.129999999999939
 30
0.0
 11
-175.88
 21
-58.430000000000007
 31
0.0
  0
LINE
  5
191
100
AcDbEntity
100
AcDbLine
  8
0
 62
256
370
-1
 48
1.0
  6
ByLayer
 10
-175.88
 20
-58.430000000000007
 30
0.0
 11
-177.87999999999965
 21
-58.430000000000007
 31
0.0
  0
LINE
  5
192
100
AcDbEntity
100
AcDbLine
  8
0
 62
256
370
-1
 48
1.0
  6
ByLayer
 10
-177.87999999999965
 20
-58.430000000000007
 30
0.0
 11
-177.87999999999988
 21
-59.529999999999916
 31
0.0
  0
ARC
  5
193
100
AcDbEntity
  8
0
 62
256
370
-1
 48
1.0
  6
ByLayer
100
AcDbCircle
 10
-177.87999999999988
 20
-59.779999999999937
 30
0.0
 40
0.2500000000000213
100
AcDbArc
 50
180.0
 51
89.999999999996746
  0
LINE
  5
194
100
AcDbEntity
100
AcDbLine
  8
0
 62
256
370
-1
 48
1.0
  6
ByLayer
 10
-178.12999999999994
 20
-59.779999999999916
 30
0.0
 11
-180.63000000000005
 21
-59.779999999999916
 31
0.0
  0
ARC
  5
195
100
AcDbEntity
  8
0
 62
256
370
-1
 48
1.0
  6
ByLayer
100
AcDbCircle
 10
-180.88000000000002
 20
-59.779999999999873
 30
0.0
 40
0.2499999999999573
100
AcDbArc
 50
89.999999999990223
 51
360.0
  0
LINE
  5
196
100
AcDbEntity
100
AcDbLine
  8
0
 62
256
370
-1
 48
1.0
  6
ByLayer
 10
-180.88
 20
-59.529999999999916
 30
0.0
 11
-180.88000000000017
 21
-58.430000000000007
 31
0.0
  0
LINE
  5
197
100
AcDbEntity
100
AcDbLine
  8
0
 62
256
370
-1
 48
1.0
  6
ByLayer
 10
-180.88000000000017
 20
-58.430000000000007
 30
0.0
 11
-185.99999999999991
 21
-58.430000000000007
 31
0.0
  0
LINE
  5
198
100
AcDbEntity
100
AcDbLine
  8
0
 62
256
370
-1
 48
1.0
  6
ByLayer
 10
-185.99999999999991
 20
-58.430000000000007
 30
0.0
 11
-186.00000000000011
 21
-69.029999999999916
 31
0.0
  0
LINE
  5
199
100
AcDbEntity
100
AcDbLine
  8
0
 62
256
370
-1
 48
1.0
  6
ByLayer
 10
-186.00000000000011
 20
-69.029999999999916
 30
0.0
 11
-192.72000000000003
 21
-69.029999999999916
 31
0.0
  0
LINE
  5
19A
100
AcDbEntity
100
AcDbLine
  8
0
 62
256
370
-1
 48
1.0
  6
ByLayer
 10
-192.72000000000003
 20
-69.029999999999916
 30
0.0
 11
-192.72000000000008
 21
-79.029999999999916
 31
0.0
  0
LINE
  5
19B
100
AcDbEntity
100
AcDbLine
  8
0
 62
256
370
-1
 48
1.0
  6
ByLayer
 10
-192.72000000000008
 20
-79.029999999999916
 30
0.0
 11
-186.0
 21
-79.029999999999916
 31
0.0
  0
LINE
  5
19C
100
AcDbEntity
100
AcDbLine
  8
0
 62
256
370
-1
 48
1.0
  6
ByLayer
 10
-186.0
 20
-79.029999999999916
 30
0.0
 11
-186.00000000000006
 21
-124.13000000000005
 31
0.0
  0
LINE
  5
19D
100
AcDbEntity
100
AcDbLine
  8
0
 62
256
370
-1
 48
1.0
  6
ByLayer
 10
-186.00000000000006
 20
-124.13000000000005
 30
0.0
 11
-180.88000000000022
 21
-124.13000000000005
 31
0.0
  0
LINE
  5
19E
100
AcDbEntity
100
AcDbLine
  8
0
 62
256
370
-1
 48
1.0
  6
ByLayer
 10
-180.88000000000022
 20
-124.13000000000005
 30
0.0
 11
-180.88000000000028
 21
-123.02999999999992
 31
0.0
  0
ARC
  5
19F
100
AcDbEntity
  8
0
 62
256
370
-1
 48
1.0
  6
ByLayer
100
AcDbCircle
 10
-180.88000000000022
 20
-122.77999999999983
 30
0.0
 40
0.2500000000000782
100
AcDbArc
 50
360.0
 51
269.99999999998045
  0
LINE
  5
1A0
100
AcDbEntity
100
AcDbLine
  8
0
 62
256
370
-1
 48
1.0
  6
ByLayer
 10
-180.63000000000014
 20
-122.77999999999992
 30
0.0
 11
-178.13
 21
-122.77999999999992
 31
0.0
  0
ARC
  5
1A1
100
AcDbEntity
  8
0
 62
256
370
-1
 48
1.0
  6
ByLayer
100
AcDbCircle
 10
-177.87999999999988
 20
-122.77999999999982
 30
0.0
 40
0.2500000000001066
100
AcDbArc
 50
270.00000000002279
 51
180.0
  0
LINE
  5
1A2
100
AcDbEntity
100
AcDbLine
  8
0
 62
256
370
-1
 48
1.0
  6
ByLayer
 10
-177.8799999999998
 20
-123.02999999999992
 30
0.0
 11
-177.88000000000056
 21
-124.13000000000005
 31
0.0
  0
LINE
  5
1A3
100
AcDbEntity
100
AcDbLine
  8
0
 62
256
370
-1
 48
1.0
  6
ByLayer
 10
-177.88000000000056
 20
-124.13000000000005
 30
0.0
 11
-175.88000000000017
 21
-124.13000000000005
 31
0.0
  0
LINE
  5
1A4
100
AcDbEntity
100
AcDbLine
  8
0
 62
256
370
-1
 48
1.0
  6
ByLayer
 10
-175.88000000000017
 20
-124.13000000000005
 30
0.0
 11
-175.87999999999982
 21
-127.43000000000001
 31
0.0
  0
LINE
  5
1A5
100
AcDbEntity
100
AcDbLine
  8
0
 62
256
370
-1
 48
1.0
  6
ByLayer
 10
-175.87999999999982
 20
-127.43000000000001
 30
0.0
 11
-177.88000000000011
 21
-127.43000000000001
 31
0.0
  0
LINE
  5
1A6
100
AcDbEntity
100
AcDbLine
  8
0
 62
256
370
-1
 48
1.0
  6
ByLayer
 10
-177.88000000000011
 20
-127.43000000000001
 30
0.0
 11
-177.88000000000014
 21
-128.52999999999992
 31
0.0
  0
ARC
  5
1A7
100
AcDbEntity
  8
0
 62
256
370
-1
 48
1.0
  6
ByLayer
100
AcDbCircle
 10
-177.88000000000005
 20
-128.77999999999986
 30
0.0
 40
0.249999999999936
100
AcDbArc
 50
180.0
 51
90.000000000016286
  0
LINE
  5
1A8
100
AcDbEntity
100
AcDbLine
  8
0
 62
256
370
-1
 48
1.0
  6
ByLayer
 10
-178.13
 20
-128.77999999999992
 30
0.0
 11
-180.63000000000022
 21
-128.77999999999992
 31
0.0
  0
ARC
  5
1A9
100
AcDbEntity
  8
0
 62
256
370
-1
 48
1.0
  6
ByLayer
100
AcDbCircle
 10
-180.88000000000022
 20
-128.78
 30
0.0
 40
0.2499999999999716
100
AcDbArc
 50
90.00000000001954
 51
0.0
  0
LINE
  5
1AA
100
AcDbEntity
100
AcDbLine
  8
0
 62
256
370
-1
 48
1.0
  6
ByLayer
 10
-180.88000000000028
 20
-128.53000000000003
 30
0.0
 11
-180.88000000000028
 21
-127.43000000000001
 31
0.0
  0
LINE
  5
1AB
100
AcDbEntity
100
AcDbLine
  8
0
 62
256
370
-1
 48
1.0
  6
ByLayer
 10
-180.88000000000028
 20
-127.43000000000001
 30
0.0
 11
-185.99999999999991
 21
-127.43000000000001
 31
0.0
  0
LINE
  5
1AC
100
AcDbEntity
100
AcDbLine
  8
0
 62
256
370
-1
 48
1.0
  6
ByLayer
 10
-185.99999999999991
 20
-127.43000000000001
 30
0.0
 11
-186.00000000000017
 21
-144.55999999999989
 31
0.0
  0
LINE
  5
1AD
100
AcDbEntity
100
AcDbLine
  8
0
 62
256
370
-1
 48
1.0
  6
ByLayer
 10
-186.00000000000017
 20
-144.55999999999989
 30
0.0
 11
-161.0
 21
-144.55999999999989
 31
0.0
  0
LINE
  5
1AE
100
AcDbEntity
100
AcDbLine
  8
0
 62
256
370
-1
 48
1.0
  6
ByLayer
 10
-161.0
 20
-144.55999999999989
 30
0.0
 11
-161.0
 21
100.00000000000006
 31
0.0
  0
LINE
  5
1AF
100
AcDbEntity
100
AcDbLine
  8
0
 62
256
370
-1
 48
1.0
  6
ByLayer
 10
-186.0
 20
100.00000000000006
 30
0.0
 11
-186.0
 21
82.870000000000061
 31
0.0
  0
ARC
  5
1B0
100
AcDbEntity
  8
0
 62
256
370
-1
 48
1.0
  6
ByLayer
100
AcDbCircle
 10
-169.00000000000023
 20
-92.779999999999973
 30
0.0
 40
1.4999999999999432
100
AcDbArc
 50
269.99999999999346
 51
89.999999999993491
  0
LINE
  5
1B1
100
AcDbEntity
100
AcDbLine
  8
0
 62
256
370
-1
 48
1.0
  6
ByLayer
 10
-169.0000000000004
 20
-94.279999999999916
 30
0.0
 11
-173.00000000000043
 21
-94.279999999999916
 31
0.0
  0
ARC
  5
1B2
100
AcDbEntity
  8
0
 62
256
370
-1
 48
1.0
  6
ByLayer
100
AcDbCircle
 10
-173.00000000000023
 20
-92.779999999999973
 30
0.0
 40
1.4999999999999432
100
AcDbArc
 50
89.999999999992951
 51
269.99999999999295
  0
LINE
  5
1B3
100
AcDbEntity
100
AcDbLine
  8
0
 62
256
370
-1
 48
1.0
  6
ByLayer
 10
-173.00000000000006
 20
-91.28000000000003
 30
0.0
 11
-169.00000000000006
 21
-91.28000000000003
 31
0.0
  0
CIRCLE
  5
1B4
100
AcDbEntity
100
AcDbCircle
  8
0
 62
256
370
-1
 48
1.0
  6
ByLayer
 10
87.840000000000572
 20
-62.539999999999964
 30
0.0
 40
1.5750000000000111
  0
CIRCLE
  5
1B5
100
AcDbEntity
100
AcDbCircle
  8
0
 62
256
370
-1
 48
1.0
  6
ByLayer
 10
89.720000000000056
 20
96.639999999999972
 30
0.0
 40
1.575
  0
CIRCLE
  5
1B6
100
AcDbEntity
100
AcDbCircle
  8
0
 62
256
370
-1
 48
1.0
  6
ByLayer
 10
124.24000000000008
 20
86.559999999999974
 30
0.0
 40
1.575
  0
CIRCLE
  5
1B7
100
AcDbEntity
100
AcDbCircle
  8
0
 62
256
370
-1
 48
1.0
  6
ByLayer
 10
-142.01999999999995
 20
167.84000000000069
 30
0.0
 40
1.5750000000000111
  0
CIRCLE
  5
1B8
100
AcDbEntity
100
AcDbCircle
  8
0
 62
256
370
-1
 48
1.0
  6
ByLayer
 10
17.159999999999989
 20
169.72000000000011
 30
0.0
 40
1.575
  0
CIRCLE
  5
1B9
100
AcDbEntity
100
AcDbCircle
  8
0
 62
256
370
-1
 48
1.0
  6
ByLayer
 10
7.0799999999999965
 20
204.24000000000015
 30
0.0
 40
1.575
  0
CIRCLE
  5
1BA
100
AcDbEntity
100
AcDbCircle
  8
0
 62
256
370
-1
 48
1.0
  6
ByLayer
 10
30.720000000000546
 20
-62.539999999999935
 30
0.0
 40
1.5750000000000111
  0
CIRCLE
  5
1BB
100
AcDbEntity
100
AcDbCircle
  8
0
 62
256
370
-1
 48
1.0
  6
ByLayer
 10
32.600000000000023
 20
96.640000000000001
 30
0.0
 40
1.575
  0
CIRCLE
  5
1BC
100
AcDbEntity
100
AcDbCircle
  8
0
 62
256
370
-1
 48
1.0
  6
ByLayer
 10
67.120000000000047
 20
86.560000000000002
 30
0.0
 40
1.575
  0
LINE
  5
1BD
100
AcDbEntity
100
AcDbLine
  8
0
 62
256
370
-1
 48
1.0
  6
ByLayer
 10
-134.52000000000004
 20
163.84000000000071
 30
0.0
 11
-119.52000000000001
 21
163.84000000000071
 31
0.0
  0
LINE
  5
1BE
100
AcDbEntity
100
AcDbLine
  8
0
 62
256
370
-1
 48
1.0
  6
ByLayer
 10
-119.52000000000001
 20
163.84000000000071
 30
0.0
 11
-119.52000000000001
 21
170.56000000000077
 31
0.0
  0
LINE
  5
1BF
100
AcDbEntity
100
AcDbLine
  8
0
 62
256
370
-1
 48
1.0
  6
ByLayer
 10
-119.52000000000001
 20
170.56000000000077
 30
0.0
 11
-134.52000000000001
 21
170.56000000000077
 31
0.0
  0
LINE
  5
1C0
100
AcDbEntity
100
AcDbLine
  8
0
 62
256
370
-1
 48
1.0
  6
ByLayer
 10
-134.52000000000001
 20
170.56000000000077
 30
0.0
 11
-134.52000000000004
 21
163.84000000000071
 31
0.0
  0
LINE
  5
1C1
100
AcDbEntity
100
AcDbLine
  8
0
 62
256
370
-1
 48
1.0
  6
ByLayer
 10
-186.00000000000003
 20
157.12000000000029
 30
0.0
 11
-186.00000000000003
 21
214.24000000000021
 31
0.0
  0
LINE
  5
1C2
100
AcDbEntity
100
AcDbLine
  8
0
 62
256
370
-1
 48
1.0
  6
ByLayer
 10
-186.00000000000003
 20
214.24000000000021
 30
0.0
 11
20.519999999999985
 21
214.24000000000012
 31
0.0
  0
LINE
  5
1C3
100
AcDbEntity
100
AcDbLine
  8
0
 62
256
370
-1
 48
1.0
  6
ByLayer
 10
20.519999999999985
 20
214.24000000000012
 30
0.0
 11
20.519999999999982
 21
157.12000000000009
 31
0.0
  0
LINE
  5
1C4
100
AcDbEntity
100
AcDbLine
  8
0
 62
256
370
-1
 48
1.0
  6
ByLayer
 10
26.720000000000589
 20
-55.04000000000002
 30
0.0
 11
26.720000000000596
 21
-40.039999999999992
 31
0.0
  0
LINE
  5
1C5
100
AcDbEntity
100
AcDbLine
  8
0
 62
256
370
-1
 48
1.0
  6
ByLayer
 10
26.720000000000596
 20
-40.039999999999992
 30
0.0
 11
33.44000000000063
 21
-40.039999999999992
 31
0.0
  0
LINE
  5
1C6
100
AcDbEntity
100
AcDbLine
  8
0
 62
256
370
-1
 48
1.0
  6
ByLayer
 10
33.44000000000063
 20
-40.039999999999992
 30
0.0
 11
33.440000000000623
 21
-55.039999999999992
 31
0.0
  0
LINE
  5
1C7
100
AcDbEntity
100
AcDbLine
  8
0
 62
256
370
-1
 48
1.0
  6
ByLayer
 10
33.440000000000623
 20
-55.039999999999992
 30
0.0
 11
26.720000000000589
 21
-55.04000000000002
 31
0.0
  0
LINE
  5
1C8
100
AcDbEntity
100
AcDbLine
  8
0
 62
256
370
-1
 48
1.0
  6
ByLayer
 10
20.000000000000146
 20
-106.52000000000001
 30
0.0
 11
77.120000000000061
 21
-106.52000000000004
 31
0.0
  0
LINE
  5
1C9
100
AcDbEntity
100
AcDbLine
  8
0
 62
256
370
-1
 48
1.0
  6
ByLayer
 10
77.120000000000061
 20
-106.52000000000004
 30
0.0
 11
77.120000000000047
 21
99.999999999999986
 31
0.0
  0
LINE
  5
1CA
100
AcDbEntity
100
AcDbLine
  8
0
 62
256
370
-1
 48
1.0
  6
ByLayer
 10
77.120000000000047
 20
99.999999999999986
 30
0.0
 11
20.0
 21
100.0
 31
0.0
  0
LINE
  5
1CB
100
AcDbEntity
100
AcDbLine
  8
0
 62
256
370
-1
 48
1.0
  6
ByLayer
 10
83.840000000000614
 20
-55.040000000000049
 30
0.0
 11
83.840000000000629
 21
-40.04000000000002
 31
0.0
  0
LINE
  5
1CC
100
AcDbEntity
100
AcDbLine
  8
0
 62
256
370
-1
 48
1.0
  6
ByLayer
 10
83.840000000000629
 20
-40.04000000000002
 30
0.0
 11
90.56000000000067
 21
-40.04000000000002
 31
0.0
  0
LINE
  5
1CD
100
AcDbEntity
100
AcDbLine
  8
0
 62
256
370
-1
 48
1.0
  6
ByLayer
 10
90.56000000000067
 20
-40.04000000000002
 30
0.0
 11
90.560000000000656
 21
-55.04000000000002
 31
0.0
  0
LINE
  5
1CE
100
AcDbEntity
100
AcDbLine
  8
0
 62
256
370
-1
 48
1.0
  6
ByLayer
 10
90.560000000000656
 20
-55.04000000000002
 30
0.0
 11
83.840000000000614
 21
-55.040000000000049
 31
0.0
  0
LINE
  5
1CF
100
AcDbEntity
100
AcDbLine
  8
0
 62
256
370
-1
 48
1.0
  6
ByLayer
 10
77.120000000000175
 20
-106.52000000000004
 30
0.0
 11
134.24000000000009
 21
-106.52000000000007
 31
0.0
  0
LINE
  5
1D0
100
AcDbEntity
100
AcDbLine
  8
0
 62
256
370
-1
 48
1.0
  6
ByLayer
 10
134.24000000000009
 20
-106.52000000000007
 30
0.0
 11
134.24000000000007
 21
99.999999999999957
 31
0.0
  0
LINE
  5
1D1
100
AcDbEntity
100
AcDbLine
  8
0
 62
256
370
-1
 48
1.0
  6
ByLayer
 10
134.24000000000007
 20
99.999999999999957
 30
0.0
 11
77.120000000000033
 21
99.999999999999972
 31
0.0
  0
CIRCLE
  5
1D2
100
AcDbEntity
100
AcDbCircle
  8
0
 62
256
370
-1
 48
1.0
  6
ByLayer
 10
48.0
 20
130.0
 30
0.0
 40
1.9999999999999989
  0
CIRCLE
  5
1D3
100
AcDbEntity
100
AcDbCircle
  8
0
 62
256
370
-1
 48
1.0
  6
ByLayer
 10
48.0
 20
130.0
 30
0.0
 40
6.0
  0
ENDSEC
  0
SECTION
  2
OBJECTS
  0
DICTIONARY
  5
C
100
AcDbDictionary
280
0
281
1
  3
ACAD_GROUP
350
D
  3
ACAD_LAYOUT
350
1A
  3
ACAD_MLINESTYLE
350
17
  3
ACAD_PLOTSETTINGS
350
19
  3
ACAD_PLOTSTYLENAME
350
E
  3
AcDbVariableDictionary
350
1D4
  3
QCAD_OBJECTS
350
1D5
  0
DICTIONARY
  5
D
100
AcDbDictionary
280
0
281
1
  0
ACDBDICTIONARYWDFLT
  5
E
100
AcDbDictionary
281
1
  3
Normal
350
F
100
AcDbDictionaryWithDefault
340
F
  0
ACDBPLACEHOLDER
  5
F
  0
DICTIONARY
  5
17
100
AcDbDictionary
280
0
281
1
  3
Standard
350
18
  0
MLINESTYLE
  5
18
100
AcDbMlineStyle
  2
STANDARD
 70
0
  3

 62
256
 51
90.0
 52
90.0
 71
2
 49
0.5
 62
256
  6
BYLAYER
 49
-0.5
 62
256
  6
BYLAYER
  0
DICTIONARY
  5
19
100
AcDbDictionary
280
0
281
1
  0
DICTIONARY
  5
1A
100
AcDbDictionary
281
1
  3
Layout1
350
1E
  3
Layout2
350
26
  3
Model
350
22
  0
LAYOUT
  5
1E
100
AcDbPlotSettings
  1

  2
none_device
  4

  6

 40
0.0
 41
0.0
 42
0.0
 43
0.0
 44
0.0
 45
0.0
 46
0.0
 47
0.0
 48
0.0
 49
0.0
140
0.0
141
0.0
142
1.0
143
1.0
 70
688
 72
0
 73
0
 74
5
  7

 75
16
147
1.0
148
0.0
149
0.0
100
AcDbLayout
  1
Layout1
 70
1
 71
1
 10
0.0
 20
0.0
 11
420.0
 21
297.0
 12
0.0
 22
0.0
 32
0.0
 14
100000000000000000000.0
 24
100000000000000000000.0
 34
100000000000000000000.0
 15
-100000000000000000000.0
 25
-100000000000000000000.0
 35
-100000000000000000000.0
146
0.0
 13
0.0
 23
0.0
 33
0.0
 16
1.0
 26
0.0
 36
0.0
 17
0.0
 27
1.0
 37
0.0
 76
0
330
1B
  0
LAYOUT
  5
22
100
AcDbPlotSettings
  1

  2
none_device
  4

  6

 40
0.0
 41
0.0
 42
0.0
 43
0.0
 44
0.0
 45
0.0
 46
0.0
 47
0.0
 48
0.0
 49
0.0
140
0.0
141
0.0
142
1.0
143
1.0
 70
1712
 72
0
 73
0
 74
0
  7

 75
0
147
1.0
148
0.0
149
0.0
100
AcDbLayout
  1
Model
 70
1
 71
0
 10
0.0
 20
0.0
 11
12.0
 21
9.0
 12
0.0
 22
0.0
 32
0.0
 14
0.0
 24
0.0
 34
0.0
 15
0.0
 25
0.0
 35
0.0
146
0.0
 13
0.0
 23
0.0
 33
0.0
 16
1.0
 26
0.0
 36
0.0
 17
0.0
 27
1.0
 37
0.0
 76
0
330
1F
  0
LAYOUT
  5
26
100
AcDbPlotSettings
  1

  2
none_device
  4

  6

 40
0.0
 41
0.0
 42
0.0
 43
0.0
 44
0.0
 45
0.0
 46
0.0
 47
0.0
 48
0.0
 49
0.0
140
0.0
141
0.0
142
1.0
143
1.0
 70
688
 72
0
 73
0
 74
5
  7

 75
16
147
1.0
148
0.0
149
0.0
100
AcDbLayout
  1
Layout2
 70
1
 71
2
 10
0.0
 20
0.0
 11
12.0
 21
9.0
 12
0.0
 22
0.0
 32
0.0
 14
0.0
 24
0.0
 34
0.0
 15
0.0
 25
0.0
 35
0.0
146
0.0
 13
0.0
 23
0.0
 33
0.0
 16
1.0
 26
0.0
 36
0.0
 17
0.0
 27
1.0
 37
0.0
 76
0
330
23
  0
DICTIONARY
  5
1D4
100
AcDbDictionary
281
1
  3
DIMASSOC
350
1D7
  3
HIDETEXT
350
1D6
  0
DICTIONARYVAR
  5
1D6
100
DictionaryVariables
280
0
  1
2
  0
DICTIONARYVAR
  5
1D7
100
DictionaryVariables
280
0
  1
1
  0
DICTIONARY
  5
1D5
100
AcDbDictionary
281
1
  3
Grid/DisplayGrid00
350
1D8
  3
Grid/DisplayGrid01
350
1D9
  3
Grid/DisplayGrid02
350
1DA
  3
Grid/DisplayGrid03
350
1DB
  3
Grid/GridSpacingX00
350
1DC
  3
Grid/GridSpacingX01
350
1DD
  3
Grid/GridSpacingX02
350
1DE
  3
Grid/GridSpacingX03
350
1DF
  3
Grid/GridSpacingY00
350
1E0
  3
Grid/GridSpacingY01
350
1E1
  3
Grid/GridSpacingY02
350
1E2
  3
Grid/GridSpacingY03
350
1E3
  3
Grid/IsometricGrid00
350
1E4
  3
Grid/IsometricGrid01
350
1E5
  3
Grid/IsometricGrid02
350
1E6
  3
Grid/IsometricGrid03
350
1E7
  3
Grid/IsometricProjection00
350
1E8
  3
Grid/IsometricProjection01
350
1E9
  3
Grid/IsometricProjection02
350
1EA
  3
Grid/IsometricProjection03
350
1EB
  3
Grid/MetaGridSpacingX00
350
1EC
  3
Grid/MetaGridSpacingX01
350
1ED
  3
Grid/MetaGridSpacingX02
350
1EE
  3
Grid/MetaGridSpacingX03
350
1EF
  3
Grid/MetaGridSpacingY00
350
1F0
  3
Grid/MetaGridSpacingY01
350
1F1
  3
Grid/MetaGridSpacingY02
350
1F2
  3
Grid/MetaGridSpacingY03
350
1F3
  3
MultiPageSettings/Columns
350
1F4
  3
MultiPageSettings/GlueMarginsBottom
350
1F5
  3
MultiPageSettings/GlueMarginsLeft
350
1F6
  3
MultiPageSettings/GlueMarginsRight
350
1F7
  3
MultiPageSettings/GlueMarginsTop
350
1F8
  3
MultiPageSettings/PrintCropMarks
350
1F9
  3
MultiPageSettings/Rows
350
1FA
  3
PageSettings/OffsetX
350
1FB
  3
PageSettings/OffsetY
350
1FC
  3
PageSettings/PageOrientation
350
1FD
  3
PageSettings/PaperHeight
350
1FE
  3
PageSettings/PaperWidth
350
1FF
  3
PageSettings/Scale
350
200
  3
PageSettings/ShowPaperBorders
350
201
  3
UnitSettings/PaperUnit
350
202
  0
XRECORD
  5
1D8
330
1D5
100
AcDbXrecord
280
1
290
1
  0
XRECORD
  5
1D9
330
1D5
100
AcDbXrecord
280
1
290
1
  0
XRECORD
  5
1DA
330
1D5
100
AcDbXrecord
280
1
290
1
  0
XRECORD
  5
1DB
330
1D5
100
AcDbXrecord
280
1
290
1
  0
XRECORD
  5
1DC
330
1D5
100
AcDbXrecord
280
1
1000
auto
  0
XRECORD
  5
1DD
330
1D5
100
AcDbXrecord
280
1
1000
auto
  0
XRECORD
  5
1DE
330
1D5
100
AcDbXrecord
280
1
1000
auto
  0
XRECORD
  5
1DF
330
1D5
100
AcDbXrecord
280
1
1000
auto
  0
XRECORD
  5
1E0
330
1D5
100
AcDbXrecord
280
1
1000
auto
  0
XRECORD
  5
1E1
330
1D5
100
AcDbXrecord
280
1
1000
auto
  0
XRECORD
  5
1E2
330
1D5
100
AcDbXrecord
280
1
1000
auto
  0
XRECORD
  5
1E3
330
1D5
100
AcDbXrecord
280
1
1000
auto
  0
XRECORD
  5
1E4
330
1D5
100
AcDbXrecord
280
1
290
0
  0
XRECORD
  5
1E5
330
1D5
100
AcDbXrecord
280
1
290
0
  0
XRECORD
  5
1E6
330
1D5
100
AcDbXrecord
280
1
290
0
  0
XRECORD
  5
1E7
330
1D5
100
AcDbXrecord
280
1
290
0
  0
XRECORD
  5
1E8
330
1D5
100
AcDbXrecord
280
1
 90
0
  0
XRECORD
  5
1E9
330
1D5
100
AcDbXrecord
280
1
 90
0
  0
XRECORD
  5
1EA
330
1D5
100
AcDbXrecord
280
1
 90
0
  0
XRECORD
  5
1EB
330
1D5
100
AcDbXrecord
280
1
 90
0
  0
XRECORD
  5
1EC
330
1D5
100
AcDbXrecord
280
1
1000
auto
  0
XRECORD
  5
1ED
330
1D5
100
AcDbXrecord
280
1
1000
auto
  0
XRECORD
  5
1EE
330
1D5
100
AcDbXrecord
280
1
1000
auto
  0
XRECORD
  5
1EF
330
1D5
100
AcDbXrecord
280
1
1000
auto
  0
XRECORD
  5
1F0
330
1D5
100
AcDbXrecord
280
1
1000
auto
  0
XRECORD
  5
1F1
330
1D5
100
AcDbXrecord
280
1
1000
auto
  0
XRECORD
  5
1F2
330
1D5
100
AcDbXrecord
280
1
1000
auto
  0
XRECORD
  5
1F3
330
1D5
100
AcDbXrecord
280
1
1000
auto
  0
XRECORD
  5
1F4
330
1D5
100
AcDbXrecord
280
1
 90
1
  0
XRECORD
  5
1F5
330
1D5
100
AcDbXrecord
280
1
 40
10.0
  0
XRECORD
  5
1F6
330
1D5
100
AcDbXrecord
280
1
 40
10.0
  0
XRECORD
  5
1F7
330
1D5
100
AcDbXrecord
280
1
 40
10.0
  0
XRECORD
  5
1F8
330
1D5
100
AcDbXrecord
280
1
 40
10.0
  0
XRECORD
  5
1F9
330
1D5
100
AcDbXrecord
280
1
290
0
  0
XRECORD
  5
1FA
330
1D5
100
AcDbXrecord
280
1
 90
1
  0
XRECORD
  5
1FB
330
1D5
100
AcDbXrecord
280
1
 40
0.0
  0
XRECORD
  5
1FC
330
1D5
100
AcDbXrecord
280
1
 40
0.0
  0
XRECORD
  5
1FD
330
1D5
100
AcDbXrecord
280
1
1000
Portrait
  0
XRECORD
  5
1FE
330
1D5
100
AcDbXrecord
280
1
 40
297.0
  0
XRECORD
  5
1FF
330
1D5
100
AcDbXrecord
280
1
 40
210.0
  0
XRECORD
  5
200
330
1D5
100
AcDbXrecord
280
1
1000
1:1
  0
XRECORD
  5
201
330
1D5
100
AcDbXrecord
280
1
290
1
  0
XRECORD
  5
202
330
1D5
100
AcDbXrecord
280
1
 90
4
  0
ENDSEC
  0
EOF
