999
dxflib 3.7.5.0
  0
SECTION
  2
HEADER
  9
$ACADVER
  1
AC1015
  9
$HANDSEED
  5
FFFF
  9
$ANGBASE
 50
0.0
  9
$ATTMODE
 70
1
  9
$AUNITS
 70
0
  9
$AUPREC
 70
0
  9
$CELTSCALE
 40
1.0
  9
$CHAMFERA
 40
0.0
  9
$CHAMFERB
 40
0.0
  9
$CHAMFERC
 40
0.0
  9
$CHAMFERD
 40
0.0
  9
$CMLJUST
 70
0
  9
$CMLSCALE
 40
1.0
  9
$DIMADEC
 70
0
  9
$DIMALTD
 70
2
  9
$DIMALTF
 40
25.399999999999999
  9
$DIMALTRND
 40
0.0
  9
$DIMALTTD
 70
2
  9
$DIMALTTZ
 70
0
  9
$DIMALTU
 70
2
  9
$DIMALTZ
 70
0
  9
$DIMAPOST
  1

  9
$DIMASZ
 40
1.7999999999999989
  9
$DIMATFIT
 70
3
  9
$DIMAUNIT
 70
0
  9
$DIMAZIN
 70
0
  9
$DIMCEN
 40
0.09
  9
$DIMDEC
 70
4
  9
$DIMDLE
 40
0.0
  9
$DIMDLI
 40
0.38
  9
$DIMDSEP
 70
46
  9
$DIMEXE
 40
0.18
  9
$DIMEXO
 40
0.0625
  9
$DIMFRAC
 70
0
  9
$DIMGAP
 40
0.09
  9
$DIMJUST
 70
0
  9
$DIMLFAC
 40
1.0
  9
$DIMLUNIT
 70
2
  9
$DIMLWD
 70
-2
  9
$DIMLWE
 70
-2
  9
$DIMPOST
  1

  9
$DIMRND
 40
0.0
  9
$DIMSCALE
 40
1.0
  9
$DIMTAD
 70
0
  9
$DIMTDEC
 70
4
  9
$DIMTFAC
 40
1.0
  9
$DIMTM
 40
0.0
  9
$DIMTOLJ
 70
1
  9
$DIMTP
 40
0.0
  9
$DIMTSZ
 40
0.0
  9
$DIMTVP
 40
0.0
  9
$DIMTXT
 40
1.7999999999999989
  9
$DIMTZIN
 70
0
  9
$DIMZIN
 70
0
  9
$DWGCODEPAGE
  3
ANSI_1252
  9
$ELEVATION
 40
0.0
  9
$EXTMAX
 10
300.08000044000039
 20
264.00000044000041
 30
0.0
  9
$EXTMIN
 10
0.0
 20
0.0
 30
0.0
  9
$FILLETRAD
 40
0.0
  9
$INSBASE
 10
0.0
 20
0.0
 30
0.0
  9
$INSUNITS
 70
4
  9
$LIMMAX
 10
300.08000044000039
 20
264.00000044000041
  9
$LIMMIN
 10
0.0
 20
0.0
  9
$LTSCALE
 40
1.0
  9
$LUNITS
 70
2
  9
$LUPREC
 70
4
  9
$MAXACTVP
 70
2
  9
$PDMODE
 70
0
  9
$PDSIZE
 40
0.0
  9
$PELEVATION
 40
0.0
  9
$PEXTMAX
 10
300.08000044000039
 20
264.00000044000041
 30
0.0
  9
$PEXTMIN
 10
0.0
 20
0.0
 30
0.0
  9
$PINSBASE
 10
0.0
 20
0.0
 30
0.0
  9
$PLIMMAX
 10
300.08000044000039
 20
264.00000044000041
  9
$PLIMMIN
 10
0.0
 20
0.0
  9
$PLINEWID
 40
0.0
  9
$PROXYGRAPHICS
 70
1
  9
$PUCSORG
 10
0.0
 20
0.0
 30
0.0
  9
$PUCSXDIR
 10
1.0
 20
0.0
 30
0.0
  9
$PUCSYDIR
 10
0.0
 20
1.0
 30
0.0
  9
$SHADEDGE
 70
3
  9
$SHADEDIF
 70
70
  9
$SKETCHINC
 40
0.1
  9
$SPLINESEGS
 70
8
  9
$SPLINETYPE
 70
6
  9
$SURFTAB1
 70
6
  9
$SURFTAB2
 70
6
  9
$SURFTYPE
 70
6
  9
$SURFU
 70
6
  9
$SURFV
 70
6
  9
$TEXTSIZE
 40
0.2
  9
$THICKNESS
 40
0.0
  9
$TRACEWID
 40
0.05
  9
$TREEDEPTH
 70
3020
  9
$UCSORG
 10
0.0
 20
0.0
 30
0.0
  9
$UCSXDIR
 10
1.0
 20
0.0
 30
0.0
  9
$UCSYDIR
 10
0.0
 20
1.0
 30
0.0
  9
$UNITMODE
 70
0
  9
$USERI1
 70
0
  9
$USERI2
 70
0
  9
$USERI3
 70
0
  9
$USERI4
 70
0
  9
$USERI5
 70
0
  9
$USERR1
 40
0.0
  9
$USERR2
 40
0.0
  9
$USERR3
 40
0.0
  9
$USERR4
 40
0.0
  9
$USERR5
 40
0.0
  0
ENDSEC
  0
SECTION
  2
TABLES
  0
TABLE
  2
VPORT
  5
8
100
AcDbSymbolTable
 70
1
  0
VPORT
  5
30
100
AcDbSymbolTableRecord
100
AcDbViewportTableRecord
  2
*Active
 70
0
 10
0.0
 20
0.0
 11
1.0
 21
1.0
 12
286.30555555555549
 22
148.5
 13
0.0
 23
0.0
 14
10.0
 24
10.0
 15
10.0
 25
10.0
 16
0.0
 26
0.0
 36
1.0
 17
0.0
 27
0.0
 37
0.0
 40
297.0
 41
1.92798353909465
 42
50.0
 43
0.0
 44
0.0
 50
0.0
 51
0.0
 71
0
 72
100
 73
1
 74
3
 75
1
 76
1
 77
0
 78
0
281
0
 65
1
110
0.0
120
0.0
130
0.0
111
1.0
121
0.0
131
0.0
112
0.0
122
1.0
132
0.0
 79
0
146
0.0
  0
ENDTAB
  0
TABLE
  2
LTYPE
  5
5
100
AcDbSymbolTable
 70
62
  0
LTYPE
  5
16
100
AcDbSymbolTableRecord
100
AcDbLinetypeTableRecord
  2
Continuous
 70
0
  3
Solid line
 72
65
 73
0
 40
0.0
  0
LTYPE
  5
31
100
AcDbSymbolTableRecord
100
AcDbLinetypeTableRecord
  2
ACAD_ISO15W100
 70
0
  3
ISO double-dash triple-dot __ __ . . . __ __ . 
 72
65
 73
10
 40
1.5400000000000005
 49
0.47
 74
0
 49
-0.12
 74
0
 49
0.47
 74
0
 49
-0.12
 74
0
 49
0.0
 74
0
 49
-0.12
 74
0
 49
0.0
 74
0
 49
-0.12
 74
0
 49
0.0
 74
0
 49
-0.12
 74
0
  0
LTYPE
  5
32
100
AcDbSymbolTableRecord
100
AcDbLinetypeTableRecord
  2
HOT_WATER_SUPPLY
 70
0
  3
Hot water supply ---- HW ---- HW ---- HW ----
 72
65
 73
3
 40
0.8999999999999999
 49
0.5
 74
0
 49
-0.2
 74
0
 49
-0.2
 74
0
  0
LTYPE
  5
33
100
AcDbSymbolTableRecord
100
AcDbLinetypeTableRecord
  2
DIVIDE
 70
0
  3
Divide ____ . . ____ . . ____ . . ____ . . ____
 72
65
 73
6
 40
1.25
 49
0.5
 74
0
 49
-0.25
 74
0
 49
0.0
 74
0
 49
-0.25
 74
0
 49
0.0
 74
0
 49
-0.25
 74
0
  0
LTYPE
  5
34
100
AcDbSymbolTableRecord
100
AcDbLinetypeTableRecord
  2
ACAD_ISO10W100
 70
0
  3
ISO dash dot __ . __ . __ . __ . __ . __ . __ .
 72
65
 73
4
 40
0.71
 49
0.47
 74
0
 49
-0.12
 74
0
 49
0.0
 74
0
 49
-0.12
 74
0
  0
LTYPE
  5
35
100
AcDbSymbolTableRecord
100
AcDbLinetypeTableRecord
  2
LONG_DASH_DOTTED
 70
0
  3
Long Dash Dotted ____ . ____ . ____ . ____ . _
 72
65
 73
4
 40
0.3543
 49
0.2362
 74
0
 49
-0.0295
 74
0
 49
0.0591
 74
0
 49
-0.0295
 74
0
  0
LTYPE
  5
36
100
AcDbSymbolTableRecord
100
AcDbLinetypeTableRecord
  2
GAS_LINE
 70
0
  3
Gas line ----GAS----GAS----GAS----GAS----GAS---
 72
65
 73
3
 40
0.95
 49
0.5
 74
0
 49
-0.2
 74
0
 49
-0.25
 74
0
  0
LTYPE
  5
37
100
AcDbSymbolTableRecord
100
AcDbLinetypeTableRecord
  2
ACAD_ISO04W100
 70
0
  3
ISO long-dash dot ____ . ____ . ____ . ____ . _
 72
65
 73
4
 40
1.1799999999999997
 49
0.9399999999999998
 74
0
 49
-0.12
 74
0
 49
0.0
 74
0
 49
-0.12
 74
0
  0
LTYPE
  5
14
100
AcDbSymbolTableRecord
100
AcDbLinetypeTableRecord
  2
ByBlock
 70
0
  3

 72
65
 73
0
 40
0.0
  0
LTYPE
  5
38
100
AcDbSymbolTableRecord
100
AcDbLinetypeTableRecord
  2
CENTER2
 70
0
  3
Center (.5x) ___ _ ___ _ ___ _ ___ _ ___ _ ___
 72
65
 73
4
 40
1.125
 49
0.75
 74
0
 49
-0.125
 74
0
 49
0.125
 74
0
 49
-0.125
 74
0
  0
LTYPE
  5
39
100
AcDbSymbolTableRecord
100
AcDbLinetypeTableRecord
  2
ACAD_ISO11W100
 70
0
  3
ISO double-dash dot __ __ . __ __ . __ __ . __ 
 72
65
 73
6
 40
1.3000000000000003
 49
0.47
 74
0
 49
-0.12
 74
0
 49
0.47
 74
0
 49
-0.12
 74
0
 49
0.0
 74
0
 49
-0.12
 74
0
  0
LTYPE
  5
3A
100
AcDbSymbolTableRecord
100
AcDbLinetypeTableRecord
  2
HIDDEN2
 70
0
  3
Hidden (.5x) _ _ _ _ _ _ _ _ _ _ _ _ _ _ _ _ _
 72
65
 73
2
 40
0.1875
 49
0.125
 74
0
 49
-0.0625
 74
0
  0
LTYPE
  5
3B
100
AcDbSymbolTableRecord
100
AcDbLinetypeTableRecord
  2
BORDERX2
 70
0
  3
Border (2x) ____  ____  .  ____  ____  .  ___
 72
65
 73
6
 40
3.5
 49
1.0
 74
0
 49
-0.5
 74
0
 49
1.0
 74
0
 49
-0.5
 74
0
 49
0.0
 74
0
 49
-0.5
 74
0
  0
LTYPE
  5
3C
100
AcDbSymbolTableRecord
100
AcDbLinetypeTableRecord
  2
ACAD_ISO05W100
 70
0
  3
ISO long-dash double-dot ____ .. ____ .. ____ .
 72
65
 73
6
 40
1.2999999999999998
 49
0.9399999999999998
 74
0
 49
-0.12
 74
0
 49
0.0
 74
0
 49
-0.12
 74
0
 49
0.0
 74
0
 49
-0.12
 74
0
  0
LTYPE
  5
3D
100
AcDbSymbolTableRecord
100
AcDbLinetypeTableRecord
  2
DASHDOTX2
 70
0
  3
Dash dot (2x) ____  .  ____  .  ____  .  ___
 72
65
 73
4
 40
2.0
 49
1.0
 74
0
 49
-0.5
 74
0
 49
0.0
 74
0
 49
-0.5
 74
0
  0
LTYPE
  5
3E
100
AcDbSymbolTableRecord
100
AcDbLinetypeTableRecord
  2
HIDDENX2
 70
0
  3
Hidden (2x) ____ ____ ____ ____ ____ ____ ____
 72
65
 73
2
 40
0.75
 49
0.5
 74
0
 49
-0.25
 74
0
  0
LTYPE
  5
3F
100
AcDbSymbolTableRecord
100
AcDbLinetypeTableRecord
  2
CENTERX2
 70
0
  3
Center (2x) ________  __  ________  __  _____
 72
65
 73
4
 40
4.0
 49
2.5
 74
0
 49
-0.5
 74
0
 49
0.5
 74
0
 49
-0.5
 74
0
  0
LTYPE
  5
40
100
AcDbSymbolTableRecord
100
AcDbLinetypeTableRecord
  2
BORDER2
 70
0
  3
Border (.5x) __.__.__.__.__.__.__.__.__.__.__.
 72
65
 73
6
 40
0.875
 49
0.25
 74
0
 49
-0.125
 74
0
 49
0.25
 74
0
 49
-0.125
 74
0
 49
0.0
 74
0
 49
-0.125
 74
0
  0
LTYPE
  5
41
100
AcDbSymbolTableRecord
100
AcDbLinetypeTableRecord
  2
DASHDOT2
 70
0
  3
Dash dot (.5x) _._._._._._._._._._._._._._._.
 72
65
 73
4
 40
0.5
 49
0.25
 74
0
 49
-0.125
 74
0
 49
0.0
 74
0
 49
-0.125
 74
0
  0
LTYPE
  5
42
100
AcDbSymbolTableRecord
100
AcDbLinetypeTableRecord
  2
DOUBLE_DASH_TRIPLE_DOT
 70
0
  3
Double Dash Triple Dot __ __ . . . __ __ . .
 72
65
 73
10
 40
0.8100000000000003
 49
0.24
 74
0
 49
-0.06
 74
0
 49
0.24
 74
0
 49
-0.06
 74
0
 49
0.01
 74
0
 49
-0.06
 74
0
 49
0.01
 74
0
 49
-0.06
 74
0
 49
0.01
 74
0
 49
-0.06
 74
0
  0
LTYPE
  5
43
100
AcDbSymbolTableRecord
100
AcDbLinetypeTableRecord
  2
ACAD_ISO12W100
 70
0
  3
ISO dash double-dot __ . . __ . . __ . . __ . .
 72
65
 73
6
 40
0.83
 49
0.47
 74
0
 49
-0.12
 74
0
 49
0.0
 74
0
 49
-0.12
 74
0
 49
0.0
 74
0
 49
-0.12
 74
0
  0
LTYPE
  5
44
100
AcDbSymbolTableRecord
100
AcDbLinetypeTableRecord
  2
DASHED_SPACE
 70
0
  3
Dashed Space __ __ __ __ __ __ __ __ __ __ __ _
 72
65
 73
2
 40
0.2067
 49
0.1654
 74
0
 49
-0.0413
 74
0
  0
LTYPE
  5
45
100
AcDbSymbolTableRecord
100
AcDbLinetypeTableRecord
  2
ACAD_ISO07W100
 70
0
  3
ISO dot . . . . . . . . . . . . . . . . . . . .
 72
65
 73
2
 40
0.12
 49
0.0
 74
0
 49
-0.12
 74
0
  0
LTYPE
  5
46
100
AcDbSymbolTableRecord
100
AcDbLinetypeTableRecord
  2
HIDDEN
 70
0
  3
Hidden __ __ __ __ __ __ __ __ __ __ __ __ __ _
 72
65
 73
2
 40
0.375
 49
0.25
 74
0
 49
-0.125
 74
0
  0
LTYPE
  5
47
100
AcDbSymbolTableRecord
100
AcDbLinetypeTableRecord
  2
ACAD_ISO06W100
 70
0
  3
ISO long-dash triple-dot ____ ... ____ ... ____
 72
65
 73
8
 40
1.4199999999999999
 49
0.9399999999999998
 74
0
 49
-0.12
 74
0
 49
0.0
 74
0
 49
-0.12
 74
0
 49
0.0
 74
0
 49
-0.12
 74
0
 49
0.0
 74
0
 49
-0.12
 74
0
  0
LTYPE
  5
48
100
AcDbSymbolTableRecord
100
AcDbLinetypeTableRecord
  2
CENTER
 70
0
  3
Center ____ _ ____ _ ____ _ ____ _ ____ _ ____
 72
65
 73
4
 40
2.0
 49
1.25
 74
0
 49
-0.25
 74
0
 49
0.25
 74
0
 49
-0.25
 74
0
  0
LTYPE
  5
49
100
AcDbSymbolTableRecord
100
AcDbLinetypeTableRecord
  2
DOTX2
 70
0
  3
Dot (2x) .  .  .  .  .  .  .  .  .  .  .  .  . 
 72
65
 73
2
 40
0.5
 49
0.0
 74
0
 49
-0.5
 74
0
  0
LTYPE
  5
4A
100
AcDbSymbolTableRecord
100
AcDbLinetypeTableRecord
  2
DASH_DOT
 70
0
  3
Dash dot __ . __ . __ . __ . __ . __ . __ . __
 72
65
 73
4
 40
0.37
 49
0.24
 74
0
 49
-0.06
 74
0
 49
0.01
 74
0
 49
-0.06
 74
0
  0
LTYPE
  5
4B
100
AcDbSymbolTableRecord
100
AcDbLinetypeTableRecord
  2
PHANTOM
 70
0
  3
Phantom ______  __  __  ______  __  __  ______
 72
65
 73
6
 40
2.5
 49
1.25
 74
0
 49
-0.25
 74
0
 49
0.25
 74
0
 49
-0.25
 74
0
 49
0.25
 74
0
 49
-0.25
 74
0
  0
LTYPE
  5
4C
100
AcDbSymbolTableRecord
100
AcDbLinetypeTableRecord
  2
ACAD_ISO08W100
 70
0
  3
ISO long-dash short-dash ____ __ ____ __ ____ _
 72
65
 73
4
 40
0.95
 49
0.47
 74
0
 49
-0.12
 74
0
 49
0.24
 74
0
 49
-0.12
 74
0
  0
LTYPE
  5
4D
100
AcDbSymbolTableRecord
100
AcDbLinetypeTableRecord
  2
LONG_DASH_TRIPLE_DOT
 70
0
  3
Long Dash Triple Dot ____ ... ____ ... ____
 72
65
 73
8
 40
0.3689
 49
0.2362
 74
0
 49
-0.0295
 74
0
 49
0.0049
 74
0
 49
-0.0295
 74
0
 49
0.0049
 74
0
 49
-0.0295
 74
0
 49
0.0049
 74
0
 49
-0.0295
 74
0
  0
LTYPE
  5
4E
100
AcDbSymbolTableRecord
100
AcDbLinetypeTableRecord
  2
DASHEDX2
 70
0
  3
Dashed (2x) ____  ____  ____  ____  ____  ___
 72
65
 73
2
 40
1.5
 49
1.0
 74
0
 49
-0.5
 74
0
  0
LTYPE
  5
4F
100
AcDbSymbolTableRecord
100
AcDbLinetypeTableRecord
  2
CHAIN
 70
0
  3
Chain ____ _ ____ _ ____ _ ____ _ ____ _ ____
 72
65
 73
4
 40
0.7087000000000001
 49
0.4724000000000001
 74
0
 49
-0.0591
 74
0
 49
0.1181
 74
0
 49
-0.0591
 74
0
  0
LTYPE
  5
50
100
AcDbSymbolTableRecord
100
AcDbLinetypeTableRecord
  2
ACAD_ISO02W100
 70
0
  3
ISO dash __ __ __ __ __ __ __ __ __ __ __ __ __
 72
65
 73
2
 40
0.59
 49
0.47
 74
0
 49
-0.12
 74
0
  0
LTYPE
  5
51
100
AcDbSymbolTableRecord
100
AcDbLinetypeTableRecord
  2
PHANTOM2
 70
0
  3
Phantom (.5x) ___ _ _ ___ _ _ ___ _ _ ___ _ _
 72
65
 73
6
 40
1.25
 49
0.625
 74
0
 49
-0.125
 74
0
 49
0.125
 74
0
 49
-0.125
 74
0
 49
0.125
 74
0
 49
-0.125
 74
0
  0
LTYPE
  5
52
100
AcDbSymbolTableRecord
100
AcDbLinetypeTableRecord
  2
DASHED2
 70
0
  3
Dashed (.5x) _ _ _ _ _ _ _ _ _ _ _ _ _ _ _ _ _
 72
65
 73
2
 40
0.375
 49
0.25
 74
0
 49
-0.125
 74
0
  0
LTYPE
  5
53
100
AcDbSymbolTableRecord
100
AcDbLinetypeTableRecord
  2
BY_STANDARD
 70
0
  3
By Standard ____________    ____    ____   _
 72
65
 73
6
 40
1.2403
 49
0.6614
 74
0
 49
-0.0827
 74
0
 49
0.1654
 74
0
 49
-0.0827
 74
0
 49
0.1654
 74
0
 49
-0.0827
 74
0
  0
LTYPE
  5
54
100
AcDbSymbolTableRecord
100
AcDbLinetypeTableRecord
  2
ACAD_ISO09W100
 70
0
  3
ISO long-dash double-short-dash ____ __ __ ____
 72
65
 73
6
 40
1.3100000000000001
 49
0.47
 74
0
 49
-0.12
 74
0
 49
0.24
 74
0
 49
-0.12
 74
0
 49
0.24
 74
0
 49
-0.12
 74
0
  0
LTYPE
  5
55
100
AcDbSymbolTableRecord
100
AcDbLinetypeTableRecord
  2
ACAD_ISO13W100
 70
0
  3
ISO double-dash double-dot __ __ . . __ __ . . 
 72
65
 73
8
 40
1.4200000000000004
 49
0.47
 74
0
 49
-0.12
 74
0
 49
0.47
 74
0
 49
-0.12
 74
0
 49
0.0
 74
0
 49
-0.12
 74
0
 49
0.0
 74
0
 49
-0.12
 74
0
  0
LTYPE
  5
56
100
AcDbSymbolTableRecord
100
AcDbLinetypeTableRecord
  2
TRACKS
 70
0
  3
Tracks -|-|-|-|-|-|-|-|-|-|-|-|-|-|-|-|-|-|-|-|
 72
65
 73
2
 40
0.3
 49
0.15
 74
0
 49
0.15
 74
0
  0
LTYPE
  5
57
100
AcDbSymbolTableRecord
100
AcDbLinetypeTableRecord
  2
LONG_DASH_DOUBLE_DOT
 70
0
  3
Long Dash Double Dot ________  .  .  ________  
 72
65
 73
6
 40
0.6800000000000002
 49
0.48
 74
0
 49
-0.06
 74
0
 49
0.01
 74
0
 49
-0.06
 74
0
 49
0.01
 74
0
 49
-0.06
 74
0
  0
LTYPE
  5
58
100
AcDbSymbolTableRecord
100
AcDbLinetypeTableRecord
  2
DASH_TRIPLE_DOT
 70
0
  3
Dash Triple-Dot _ . . . _ . . . _ . . . _
 72
65
 73
8
 40
0.51
 49
0.24
 74
0
 49
-0.06
 74
0
 49
0.01
 74
0
 49
-0.06
 74
0
 49
0.01
 74
0
 49
-0.06
 74
0
 49
0.01
 74
0
 49
-0.06
 74
0
  0
LTYPE
  5
59
100
AcDbSymbolTableRecord
100
AcDbLinetypeTableRecord
  2
DOT2
 70
0
  3
Dot (.5x) .....................................
 72
65
 73
2
 40
0.125
 49
0.0
 74
0
 49
-0.125
 74
0
  0
LTYPE
  5
5A
100
AcDbSymbolTableRecord
100
AcDbLinetypeTableRecord
  2
ZIGZAG
 70
0
  3
Zig zag /\/\/\/\/\/\/\/\/\/\/\/\/\/\/\/\/\/\/\/
 72
65
 73
4
 40
0.8001
 49
0.0001
 74
0
 49
-0.2
 74
0
 49
-0.4
 74
0
 49
-0.2
 74
0
  0
LTYPE
  5
5B
100
AcDbSymbolTableRecord
100
AcDbLinetypeTableRecord
  2
DASHED
 70
0
  3
Dashed __ __ __ __ __ __ __ __ __ __ __ __ __ _
 72
65
 73
2
 40
0.2067
 49
0.1654
 74
0
 49
-0.0413
 74
0
  0
LTYPE
  5
5C
100
AcDbSymbolTableRecord
100
AcDbLinetypeTableRecord
  2
ACAD_ISO14W100
 70
0
  3
ISO dash triple-dot __ . . . __ . . . __ . . . 
 72
65
 73
8
 40
0.95
 49
0.47
 74
0
 49
-0.12
 74
0
 49
0.0
 74
0
 49
-0.12
 74
0
 49
0.0
 74
0
 49
-0.12
 74
0
 49
0.0
 74
0
 49
-0.12
 74
0
  0
LTYPE
  5
5D
100
AcDbSymbolTableRecord
100
AcDbLinetypeTableRecord
  2
PHANTOMX2
 70
0
  3
Phantom (2x) ____________    ____    ____   _
 72
65
 73
6
 40
5.0
 49
2.5
 74
0
 49
-0.5
 74
0
 49
0.5
 74
0
 49
-0.5
 74
0
 49
0.5
 74
0
 49
-0.5
 74
0
  0
LTYPE
  5
5E
100
AcDbSymbolTableRecord
100
AcDbLinetypeTableRecord
  2
DOUBLE_DASH_DOT
 70
0
  3
Double-Dash Dot __ __ . __ __ . __ __ . __ _
 72
65
 73
6
 40
0.4398
 49
0.24
 74
0
 49
-0.06
 74
0
 49
0.0098
 74
0
 49
-0.06
 74
0
 49
0.01
 74
0
 49
-0.06
 74
0
  0
LTYPE
  5
5F
100
AcDbSymbolTableRecord
100
AcDbLinetypeTableRecord
  2
DOUBLE_DASH_DOUBLE_DOT
 70
0
  3
Double-Dash Double-dot _ _ . . _ _ . . _
 72
65
 73
8
 40
0.7400000000000002
 49
0.24
 74
0
 49
-0.06
 74
0
 49
0.24
 74
0
 49
-0.06
 74
0
 49
0.01
 74
0
 49
-0.06
 74
0
 49
0.01
 74
0
 49
-0.06
 74
0
  0
LTYPE
  5
60
100
AcDbSymbolTableRecord
100
AcDbLinetypeTableRecord
  2
DASH_DOUBLE_DOT
 70
0
  3
Dash Double-Dot __ . . __ . . __ . . __ . .
 72
65
 73
6
 40
0.4398
 49
0.24
 74
0
 49
-0.06
 74
0
 49
0.0098
 74
0
 49
-0.06
 74
0
 49
0.01
 74
0
 49
-0.06
 74
0
  0
LTYPE
  5
61
100
AcDbSymbolTableRecord
100
AcDbLinetypeTableRecord
  2
DOTTED
 70
0
  3
Dotted . . . . . . . . . . . . . . . . . . . . 
 72
65
 73
2
 40
0.0482
 49
0.0069
 74
0
 49
-0.0413
 74
0
  0
LTYPE
  5
62
100
AcDbSymbolTableRecord
100
AcDbLinetypeTableRecord
  2
DOUBLE_DASH_CHAIN
 70
0
  3
Double-Dash Chain ______  __  __  ______  __  _
 72
65
 73
6
 40
1.2403
 49
0.6614
 74
0
 49
-0.0827
 74
0
 49
0.1654
 74
0
 49
-0.0827
 74
0
 49
0.1654
 74
0
 49
-0.0827
 74
0
  0
LTYPE
  5
63
100
AcDbSymbolTableRecord
100
AcDbLinetypeTableRecord
  2
DIVIDEX2
 70
0
  3
Divide (2x) ________  .  .  ________  .  .  _
 72
65
 73
6
 40
2.5
 49
1.0
 74
0
 49
-0.5
 74
0
 49
0.0
 74
0
 49
-0.5
 74
0
 49
0.0
 74
0
 49
-0.5
 74
0
  0
LTYPE
  5
64
100
AcDbSymbolTableRecord
100
AcDbLinetypeTableRecord
  2
BORDER
 70
0
  3
Border __ __ . __ __ . __ __ . __ __ . __ __ .
 72
65
 73
6
 40
1.75
 49
0.5
 74
0
 49
-0.25
 74
0
 49
0.5
 74
0
 49
-0.25
 74
0
 49
0.0
 74
0
 49
-0.25
 74
0
  0
LTYPE
  5
65
100
AcDbSymbolTableRecord
100
AcDbLinetypeTableRecord
  2
DIVIDE2
 70
0
  3
Divide (.5x) __..__..__..__..__..__..__..__.._
 72
65
 73
6
 40
0.625
 49
0.25
 74
0
 49
-0.125
 74
0
 49
0.0
 74
0
 49
-0.125
 74
0
 49
0.0
 74
0
 49
-0.125
 74
0
  0
LTYPE
  5
66
100
AcDbSymbolTableRecord
100
AcDbLinetypeTableRecord
  2
DOT
 70
0
  3
Dot . . . . . . . . . . . . . . . . . . . . . .
 72
65
 73
2
 40
0.25
 49
0.0
 74
0
 49
-0.25
 74
0
  0
LTYPE
  5
67
100
AcDbSymbolTableRecord
100
AcDbLinetypeTableRecord
  2
DASHDOT
 70
0
  3
Dash dot __ . __ . __ . __ . __ . __ . __ . __
 72
65
 73
4
 40
25.399999999999999
 49
12.699999999999999
 74
0
 49
-6.3499999999999996
 74
0
 49
0.0
 74
0
 49
-6.3499999999999996
 74
0
  0
LTYPE
  5
68
100
AcDbSymbolTableRecord
100
AcDbLinetypeTableRecord
  2
FENCELINE1
 70
0
  3
Fenceline circle ----0-----0----0-----0----0---
 72
65
 73
4
 40
1.45
 49
0.25
 74
0
 49
-0.1
 74
0
 49
-0.1
 74
0
 49
1.0
 74
0
  0
LTYPE
  5
69
100
AcDbSymbolTableRecord
100
AcDbLinetypeTableRecord
  2
ACAD_ISO03W100
 70
0
  3
ISO dash space __    __    __    __    __    __
 72
65
 73
2
 40
1.1799999999999999
 49
0.47
 74
0
 49
-0.71
 74
0
  0
LTYPE
  5
15
100
AcDbSymbolTableRecord
100
AcDbLinetypeTableRecord
  2
ByLayer
 70
0
  3

 72
65
 73
0
 40
0.0
  0
LTYPE
  5
6A
100
AcDbSymbolTableRecord
100
AcDbLinetypeTableRecord
  2
FENCELINE2
 70
0
  3
Fenceline square ----[]-----[]----[]-----[]----
 72
65
 73
4
 40
1.45
 49
0.25
 74
0
 49
-0.1
 74
0
 49
-0.1
 74
0
 49
1.0
 74
0
  0
LTYPE
  5
6B
100
AcDbSymbolTableRecord
100
AcDbLinetypeTableRecord
  2
BATTING
 70
0
  3
Batting SSSSSSSSSSSSSSSSSSSSSSSSSSSSSSSSSSSSSSS
 72
65
 73
4
 40
0.4001
 49
0.0001
 74
0
 49
-0.1
 74
0
 49
-0.2
 74
0
 49
-0.1
 74
0
  0
ENDTAB
  0
TABLE
  2
LAYER
  5
2
100
AcDbSymbolTable
 70
1
  0
LAYER
  5
10
100
AcDbSymbolTableRecord
100
AcDbLayerTableRecord
  2
0
 70
0
 62
7
420
16777215
  6
Continuous
370
-3
390
F
  0
ENDTAB
  0
TABLE
  2
STYLE
  5
3
100
AcDbSymbolTable
 70
1
  0
STYLE
  5
6C
100
AcDbSymbolTableRecord
100
AcDbTextStyleTableRecord
  2
Standard
 70
0
 40
0.0
 41
1.0
 50
0.0
 71
0
 42
2.5
  3

  4

1001
ACAD
1000
txt
1071
0
  0
ENDTAB
  0
TABLE
  2
VIEW
  5
6
100
AcDbSymbolTable
 70
0
  0
ENDTAB
  0
TABLE
  2
UCS
  5
7
100
AcDbSymbolTable
 70
0
  0
ENDTAB
  0
TABLE
  2
APPID
  5
9
100
AcDbSymbolTable
 70
1
  0
APPID
  5
12
100
AcDbSymbolTableRecord
100
AcDbRegAppTableRecord
  2
ACAD
 70
0
  0
APPID
  5
6D
100
AcDbSymbolTableRecord
100
AcDbRegAppTableRecord
  2
QCAD
 70
0
  0
ENDTAB
  0
TABLE
  2
DIMSTYLE
  5
A
100
AcDbSymbolTable
 70
1
100
AcDbDimStyleTable
 71
0
  0
DIMSTYLE
105
27
100
AcDbSymbolTableRecord
100
AcDbDimStyleTableRecord
  2
Standard
 41
1.7999999999999989
 42
0.0625
 43
3.75
 44
0.18
 70
0
 73
0
 74
0
 77
1
 78
8
140
1.7999999999999989
141
2.5
143
0.03937007874016
147
0.09
171
3
172
1
271
2
272
2
274
3
278
44
283
0
284
8
340
6C
  0
ENDTAB
  0
TABLE
  2
BLOCK_RECORD
  5
1
100
AcDbSymbolTable
 70
1
  0
BLOCK_RECORD
  5
1F
100
AcDbSymbolTableRecord
100
AcDbBlockTableRecord
  2
*Model_Space
340
22
  0
BLOCK_RECORD
  5
1B
100
AcDbSymbolTableRecord
100
AcDbBlockTableRecord
  2
*Paper_Space
340
1E
  0
BLOCK_RECORD
  5
23
100
AcDbSymbolTableRecord
100
AcDbBlockTableRecord
  2
*Paper_Space0
340
26
  0
BLOCK_RECORD
  5
6E
100
AcDbSymbolTableRecord
100
AcDbBlockTableRecord
  2
right_top
340
0
  0
BLOCK_RECORD
  5
6F
100
AcDbSymbolTableRecord
100
AcDbBlockTableRecord
  2
mid
340
0
  0
BLOCK_RECORD
  5
70
100
AcDbSymbolTableRecord
100
AcDbBlockTableRecord
  2
back
340
0
  0
BLOCK_RECORD
  5
71
100
AcDbSymbolTableRecord
100
AcDbBlockTableRecord
  2
frame_front
340
0
  0
BLOCK_RECORD
  5
72
100
AcDbSymbolTableRecord
100
AcDbBlockTableRecord
  2
back_top
340
0
  0
BLOCK_RECORD
  5
73
100
AcDbSymbolTableRecord
100
AcDbBlockTableRecord
  2
bottom
340
0
  0
BLOCK_RECORD
  5
74
100
AcDbSymbolTableRecord
100
AcDbBlockTableRecord
  2
frame_left
340
0
  0
ENDTAB
  0
ENDSEC
  0
SECTION
  2
BLOCKS
  0
BLOCK
  5
20
100
AcDbEntity
  8
0
100
AcDbBlockBegin
  2
*Model_Space
 70
0
 10
0.0
 20
0.0
 30
0.0
  3
*Model_Space
  1

  0
ENDBLK
  5
21
100
AcDbEntity
  8
0
100
AcDbBlockEnd
  0
BLOCK
  5
1C
100
AcDbEntity
 67
1
  8
0
100
AcDbBlockBegin
  2
*Paper_Space
 70
0
 10
0.0
 20
0.0
 30
0.0
  3
*Paper_Space
  1

  0
ENDBLK
  5
1D
100
AcDbEntity
 67
1
  8
0
100
AcDbBlockEnd
  0
BLOCK
  5
24
100
AcDbEntity
  8
0
100
AcDbBlockBegin
  2
*Paper_Space0
 70
0
 10
0.0
 20
0.0
 30
0.0
  3
*Paper_Space0
  1

  0
ENDBLK
  5
25
100
AcDbEntity
  8
0
100
AcDbBlockEnd
  0
BLOCK
  5
75
100
AcDbEntity
  8
0
100
AcDbBlockBegin
  2
right_top
 70
0
 10
0.0
 20
0.0
 30
0.0
  3
right_top
  1

  0
LWPOLYLINE
  5
76
  8
0
 62
256
370
-1
 48
1.0
  6
ByLayer
100
AcDbEntity
100
AcDbPolyline
 90
16
 70
1
 10
6.3999999999999773
 20
-24.999999999999943
 30
0.0
 10
6.3999999999999773
 20
-49.999999999999829
 30
0.0
 10
203.60000000000002
 20
-49.999999999999829
 30
0.0
 10
203.60000000000002
 20
-24.999999999999943
 30
0.0
 10
210.0
 20
-24.999999999999943
 30
0.0
 10
210.0
 20
-49.999999999999943
 30
0.0
 10
216.39999999999998
 20
-49.999999999999943
 30
0.0
 10
216.39999999999998
 20
5.6000000000000227
 30
0.0
 10
210.0
 20
5.6000000000000227
 30
0.0
 10
210.0
 20
0.0000000000000568
 30
0.0
 10
0.0
 20
0.0
 30
0.0
 10
0.0
 20
5.6000000000000227
 30
0.0
 10
-6.3999999999999773
 20
5.6000000000000227
 30
0.0
 10
-6.3999999999999773
 20
-49.999999999999943
 30
0.0
 10
0.0
 20
-49.999999999999943
 30
0.0
 10
0.0
 20
-24.999999999999943
 30
0.0
  0
CIRCLE
  5
77
100
AcDbEntity
100
AcDbCircle
  8
0
 62
256
370
-1
 48
1.0
  6
ByLayer
 10
3.1999999999999318
 20
-10.0
 30
0.0
 40
1.6499999999999999
  0
CIRCLE
  5
78
100
AcDbEntity
100
AcDbCircle
  8
0
 62
256
370
-1
 48
1.0
  6
ByLayer
 10
206.79999999999995
 20
-9.9999999999999432
 30
0.0
 40
1.6499999999999999
  0
ENDBLK
  5
79
100
AcDbEntity
  8
0
100
AcDbBlockEnd
  0
BLOCK
  5
7A
100
AcDbEntity
  8
0
100
AcDbBlockBegin
  2
mid
 70
0
 10
0.0
 20
0.0
 30
0.0
  3
mid
  1

  0
LWPOLYLINE
  5
7B
  8
0
 62
256
370
-1
 48
1.0
  6
ByLayer
100
AcDbEntity
100
AcDbPolyline
 90
160
 70
1
 10
88.316666666666492
 20
-199.39999999999986
 30
0.0
 10
88.316666666666492
 20
-209.99999999999997
 30
0.0
 10
115.0
 20
-209.99999999999997
 30
0.0
 10
115.0
 20
-216.40000000000006
 30
0.0
 10
145.0
 20
-216.40000000000006
 30
0.0
 10
145.0
 20
-209.99999999999997
 30
0.0
 10
171.68333333333328
 20
-209.99999999999997
 30
0.0
 10
171.68333333333339
 20
-199.39999999999998
 30
0.0
 10
170.58333333333337
 20
-199.39999999999998
 30
0.0
 42
-2.414213562373094
 10
170.33333333333337
 20
-199.14999999999998
 30
0.0
 10
170.33333333333337
 20
-196.64999999999998
 30
0.0
 42
-2.414213562373094
 10
170.58333333333337
 20
-196.39999999999998
 30
0.0
 10
171.68333333333339
 20
-196.39999999999998
 30
0.0
 10
171.68333333333339
 20
-194.39999999999998
 30
0.0
 10
174.98333333333346
 20
-194.39999999999998
 30
0.0
 10
174.98333333333346
 20
-196.39999999999998
 30
0.0
 10
176.08333333333337
 20
-196.39999999999998
 30
0.0
 42
-2.414213562373094
 10
176.33333333333337
 20
-196.64999999999998
 30
0.0
 10
176.33333333333337
 20
-199.14999999999998
 30
0.0
 42
-2.414213562373094
 10
176.08333333333337
 20
-199.39999999999998
 30
0.0
 10
174.98333333333346
 20
-199.39999999999986
 30
0.0
 10
174.98333333333346
 20
-209.99999999999997
 30
0.0
 10
201.66666666666674
 20
-209.99999999999997
 30
0.0
 10
201.66666666666674
 20
-216.40000000000006
 30
0.0
 10
231.66666666666674
 20
-216.40000000000006
 30
0.0
 10
231.66666666666674
 20
-209.99999999999997
 30
0.0
 10
260.00000000000011
 20
-209.99999999999997
 30
0.0
 10
260.0
 20
-176.64999999999986
 30
0.0
 10
249.40000000000009
 20
-176.64999999999986
 30
0.0
 10
249.40000000000009
 20
-177.74999999999986
 30
0.0
 42
-2.414213562373094
 10
249.15000000000009
 20
-177.99999999999986
 30
0.0
 10
246.64999999999998
 20
-177.99999999999986
 30
0.0
 42
-2.414213562373094
 10
246.39999999999998
 20
-177.74999999999986
 30
0.0
 10
246.39999999999998
 20
-176.64999999999986
 30
0.0
 10
244.40000000000009
 20
-176.64999999999986
 30
0.0
 10
244.40000000000009
 20
-173.34999999999988
 30
0.0
 10
246.39999999999998
 20
-173.34999999999988
 30
0.0
 10
246.39999999999998
 20
-172.24999999999986
 30
0.0
 42
-2.414213562373094
 10
246.64999999999998
 20
-171.99999999999986
 30
0.0
 10
249.14999999999998
 20
-171.99999999999986
 30
0.0
 42
-2.414213562373094
 10
249.40000000000009
 20
-172.24999999999986
 30
0.0
 10
249.40000000000009
 20
-173.34999999999988
 30
0.0
 10
260.0
 20
-173.34999999999988
 30
0.0
 10
260.00000000000011
 20
-154.99999999999997
 30
0.0
 10
266.4000000000002
 20
-154.99999999999997
 30
0.0
 10
266.4000000000002
 20
-124.99999999999997
 30
0.0
 10
260.00000000000011
 20
-124.99999999999997
 30
0.0
 10
260.00000000000011
 20
-106.64999999999998
 30
0.0
 10
249.40000000000009
 20
-106.64999999999998
 30
0.0
 10
249.40000000000009
 20
-107.74999999999987
 30
0.0
 42
-2.414213562373094
 10
249.15000000000009
 20
-107.99999999999997
 30
0.0
 10
246.65000000000009
 20
-107.99999999999997
 30
0.0
 42
-2.414213562373094
 10
246.40000000000009
 20
-107.74999999999987
 30
0.0
 10
246.40000000000009
 20
-106.64999999999988
 30
0.0
 10
244.40000000000009
 20
-106.64999999999988
 30
0.0
 10
244.40000000000009
 20
-103.34999999999987
 30
0.0
 10
246.40000000000009
 20
-103.34999999999987
 30
0.0
 10
246.40000000000009
 20
-102.24999999999987
 30
0.0
 42
-2.4142135623732162
 10
246.65000000000009
 20
-101.99999999999997
 30
0.0
 10
249.15000000000009
 20
-101.99999999999997
 30
0.0
 42
-2.4142135623732162
 10
249.40000000000009
 20
-102.24999999999987
 30
0.0
 10
249.40000000000009
 20
-103.34999999999987
 30
0.0
 10
260.00000000000011
 20
-103.34999999999987
 30
0.0
 10
260.00000000000011
 20
-84.999999999999972
 30
0.0
 10
266.4000000000002
 20
-84.999999999999957
 30
0.0
 10
266.4000000000002
 20
-55.000000000000036
 30
0.0
 10
260.00000000000011
 20
-54.999999999999993
 30
0.0
 10
260.00000000000011
 20
-36.649999999999928
 30
0.0
 10
249.4000000000002
 20
-36.649999999999928
 30
0.0
 10
249.4000000000002
 20
-37.749999999999922
 30
0.0
 42
-2.414213562373094
 10
249.1500000000002
 20
-37.999999999999922
 30
0.0
 10
246.6500000000002
 20
-37.999999999999922
 30
0.0
 42
-2.414213562373094
 10
246.4000000000002
 20
-37.749999999999922
 30
0.0
 10
246.4000000000002
 20
-36.649999999999928
 30
0.0
 10
244.4000000000002
 20
-36.649999999999928
 30
0.0
 10
244.4000000000002
 20
-33.349999999999923
 30
0.0
 10
246.4000000000002
 20
-33.349999999999923
 30
0.0
 10
246.4000000000002
 20
-32.249999999999922
 30
0.0
 42
-2.414213562373094
 10
246.65000000000009
 20
-31.999999999999925
 30
0.0
 10
249.1500000000002
 20
-31.999999999999925
 30
0.0
 42
-2.414213562373094
 10
249.4000000000002
 20
-32.249999999999922
 30
0.0
 10
249.4000000000002
 20
-33.349999999999916
 30
0.0
 10
260.00000000000011
 20
-33.349999999999937
 30
0.0
 10
260.0
 20
0.000000000000071
 30
0.0
 10
0.0
 20
0.0
 30
0.0
 10
-0.0000000000002842
 20
-33.349999999999937
 30
0.0
 10
10.599999999999682
 20
-33.349999999999916
 30
0.0
 10
10.599999999999682
 20
-32.249999999999922
 30
0.0
 42
-2.414213562373094
 10
10.849999999999682
 20
-31.999999999999925
 30
0.0
 10
13.349999999999682
 20
-31.999999999999925
 30
0.0
 42
-2.414213562373094
 10
13.599999999999682
 20
-32.249999999999922
 30
0.0
 10
13.599999999999682
 20
-33.349999999999923
 30
0.0
 10
15.599999999999682
 20
-33.349999999999923
 30
0.0
 10
15.599999999999682
 20
-36.649999999999928
 30
0.0
 10
13.599999999999682
 20
-36.649999999999928
 30
0.0
 10
13.599999999999682
 20
-37.749999999999922
 30
0.0
 42
-2.414213562373094
 10
13.349999999999682
 20
-37.999999999999922
 30
0.0
 10
10.849999999999682
 20
-37.999999999999922
 30
0.0
 42
-2.414213562373094
 10
10.599999999999682
 20
-37.749999999999922
 30
0.0
 10
10.599999999999682
 20
-36.649999999999928
 30
0.0
 10
-0.0000000000002842
 20
-36.649999999999928
 30
0.0
 10
0.0
 20
-55.000000000000036
 30
0.0
 10
-6.3999999999999773
 20
-55.000000000000043
 30
0.0
 10
-6.3999999999999773
 20
-85.000000000000057
 30
0.0
 10
0.0
 20
-85.000000000000085
 30
0.0
 10
-0.0000000000002274
 20
-103.34999999999987
 30
0.0
 10
10.599999999999795
 20
-103.34999999999987
 30
0.0
 10
10.599999999999795
 20
-102.24999999999987
 30
0.0
 42
-2.4142135623732162
 10
10.849999999999795
 20
-101.99999999999997
 30
0.0
 10
13.349999999999795
 20
-101.99999999999997
 30
0.0
 42
-2.4142135623732162
 10
13.599999999999795
 20
-102.24999999999987
 30
0.0
 10
13.599999999999682
 20
-103.34999999999987
 30
0.0
 10
15.599999999999682
 20
-103.34999999999987
 30
0.0
 10
15.599999999999682
 20
-106.64999999999988
 30
0.0
 10
13.599999999999682
 20
-106.64999999999988
 30
0.0
 10
13.599999999999795
 20
-107.74999999999987
 30
0.0
 42
-2.414213562373094
 10
13.349999999999795
 20
-107.99999999999997
 30
0.0
 10
10.849999999999795
 20
-107.99999999999997
 30
0.0
 42
-2.414213562373094
 10
10.599999999999795
 20
-107.74999999999987
 30
0.0
 10
10.599999999999795
 20
-106.64999999999998
 30
0.0
 10
-0.0000000000002274
 20
-106.64999999999998
 30
0.0
 10
0.0000000000000568
 20
-124.99999999999997
 30
0.0
 10
-6.3999999999999204
 20
-125.00000000000007
 30
0.0
 10
-6.3999999999999204
 20
-155.00000000000009
 30
0.0
 10
0.0000000000000568
 20
-155.00000000000009
 30
0.0
 10
-0.0000000000001705
 20
-173.34999999999988
 30
0.0
 10
10.599999999999795
 20
-173.34999999999988
 30
0.0
 10
10.599999999999795
 20
-172.24999999999986
 30
0.0
 42
-2.414213562373094
 10
10.849999999999795
 20
-171.99999999999986
 30
0.0
 10
13.349999999999795
 20
-171.99999999999986
 30
0.0
 42
-2.414213562373094
 10
13.599999999999795
 20
-172.24999999999986
 30
0.0
 10
13.599999999999795
 20
-173.34999999999988
 30
0.0
 10
15.599999999999795
 20
-173.34999999999988
 30
0.0
 10
15.599999999999795
 20
-176.64999999999986
 30
0.0
 10
13.599999999999795
 20
-176.64999999999986
 30
0.0
 10
13.599999999999795
 20
-177.74999999999986
 30
0.0
 42
-2.414213562373094
 10
13.349999999999795
 20
-177.99999999999986
 30
0.0
 10
10.849999999999795
 20
-177.99999999999986
 30
0.0
 42
-2.414213562373094
 10
10.599999999999795
 20
-177.74999999999986
 30
0.0
 10
10.599999999999795
 20
-176.64999999999986
 30
0.0
 10
-0.0000000000001705
 20
-176.64999999999986
 30
0.0
 10
0.0
 20
-209.99999999999997
 30
0.0
 10
28.333333333333371
 20
-209.99999999999997
 30
0.0
 10
28.333333333333371
 20
-216.40000000000006
 30
0.0
 10
58.333333333333371
 20
-216.40000000000006
 30
0.0
 10
58.333333333333371
 20
-209.99999999999997
 30
0.0
 10
85.016666666666424
 20
-209.99999999999997
 30
0.0
 10
85.016666666666424
 20
-199.39999999999998
 30
0.0
 10
83.916666666666401
 20
-199.39999999999998
 30
0.0
 42
-2.414213562373094
 10
83.666666666666401
 20
-199.14999999999998
 30
0.0
 10
83.666666666666401
 20
-196.64999999999998
 30
0.0
 42
-2.414213562373094
 10
83.916666666666401
 20
-196.39999999999998
 30
0.0
 10
85.016666666666424
 20
-196.39999999999998
 30
0.0
 10
85.016666666666424
 20
-194.39999999999998
 30
0.0
 10
88.316666666666492
 20
-194.39999999999998
 30
0.0
 10
88.316666666666492
 20
-196.39999999999998
 30
0.0
 10
89.416666666666401
 20
-196.39999999999998
 30
0.0
 42
-2.414213562373094
 10
89.666666666666401
 20
-196.64999999999998
 30
0.0
 10
89.666666666666401
 20
-199.14999999999998
 30
0.0
 42
-2.414213562373094
 10
89.416666666666401
 20
-199.39999999999998
 30
0.0
  0
LWPOLYLINE
  5
7C
  8
0
 62
256
370
-1
 48
1.0
  6
ByLayer
100
AcDbEntity
100
AcDbPolyline
 90
4
 70
1
 10
55.000000000000114
 20
-179.99999999999997
 30
0.0
 10
55.000000000000114
 20
-29.999999999999993
 30
0.0
 10
205.00000000000011
 20
-29.999999999999993
 30
0.0
 10
205.00000000000011
 20
-179.99999999999997
 30
0.0
  0
ENDBLK
  5
7D
100
AcDbEntity
  8
0
100
AcDbBlockEnd
  0
BLOCK
  5
7E
100
AcDbEntity
  8
0
100
AcDbBlockBegin
  2
back
 70
0
 10
0.0
 20
0.0
 30
0.0
  3
back
  1

  0
LWPOLYLINE
  5
7F
  8
0
 62
256
370
-1
 48
1.0
  6
ByLayer
100
AcDbEntity
100
AcDbPolyline
 90
4
 70
1
 10
195.26666666666654
 20
-55.599999999999937
 30
0.0
 10
225.26666666666654
 20
-55.599999999999937
 30
0.0
 10
225.26666666666654
 20
-61.999999999999943
 30
0.0
 10
195.26666666666654
 20
-61.999999999999943
 30
0.0
  0
LWPOLYLINE
  5
80
  8
0
 62
256
370
-1
 48
1.0
  6
ByLayer
100
AcDbEntity
100
AcDbPolyline
 90
4
 70
1
 10
21.933333333333167
 20
-62.000000000000028
 30
0.0
 10
21.933333333333167
 20
-55.600000000000037
 30
0.0
 10
51.933333333333167
 20
-55.600000000000023
 30
0.0
 10
51.933333333333167
 20
-62.000000000000028
 30
0.0
  0
LWPOLYLINE
  5
81
  8
0
 62
256
370
-1
 48
1.0
  6
ByLayer
100
AcDbEntity
100
AcDbPolyline
 90
4
 70
1
 10
108.59999999999991
 20
-55.59999999999998
 30
0.0
 10
138.59999999999991
 20
-55.59999999999998
 30
0.0
 10
138.59999999999991
 20
-61.999999999999986
 30
0.0
 10
108.59999999999991
 20
-61.999999999999986
 30
0.0
  0
LWPOLYLINE
  5
82
  8
0
 62
256
370
-1
 48
1.0
  6
ByLayer
100
AcDbEntity
100
AcDbPolyline
 90
132
 70
1
 10
253.60000000000014
 20
-215.39999999999992
 30
0.0
 10
249.00000000000023
 20
-215.39999999999992
 30
0.0
 10
249.00000000000023
 20
-216.49999999999991
 30
0.0
 42
-2.414213562373094
 10
248.75000000000023
 20
-216.74999999999991
 30
0.0
 10
246.25000000000023
 20
-216.74999999999991
 30
0.0
 42
-2.414213562373094
 10
246.0
 20
-216.49999999999991
 30
0.0
 10
246.0
 20
-215.39999999999992
 30
0.0
 10
244.00000000000023
 20
-215.39999999999992
 30
0.0
 10
244.00000000000023
 20
-212.09999999999991
 30
0.0
 10
246.0
 20
-212.09999999999991
 30
0.0
 10
246.0
 20
-210.99999999999991
 30
0.0
 42
-2.414213562373094
 10
246.25000000000023
 20
-210.74999999999991
 30
0.0
 10
248.75000000000023
 20
-210.74999999999991
 30
0.0
 42
-2.414213562373094
 10
249.00000000000023
 20
-210.99999999999991
 30
0.0
 10
249.00000000000023
 20
-212.09999999999991
 30
0.0
 10
253.60000000000014
 20
-212.09999999999991
 30
0.0
 10
253.60000000000025
 20
-207.49999999999991
 30
0.0
 10
260.00000000000023
 20
-207.49999999999991
 30
0.0
 10
260.00000000000023
 20
-182.49999999999991
 30
0.0
 10
253.60000000000014
 20
-182.4999999999998
 30
0.0
 10
253.60000000000014
 20
-159.14999999999989
 30
0.0
 10
249.00000000000023
 20
-159.14999999999989
 30
0.0
 10
249.00000000000023
 20
-160.24999999999991
 30
0.0
 42
-2.414213562373094
 10
248.75000000000023
 20
-160.49999999999991
 30
0.0
 10
246.25000000000023
 20
-160.49999999999991
 30
0.0
 42
-2.414213562373094
 10
246.0
 20
-160.24999999999991
 30
0.0
 10
246.0
 20
-159.14999999999989
 30
0.0
 10
244.00000000000023
 20
-159.14999999999989
 30
0.0
 10
244.00000000000023
 20
-155.84999999999991
 30
0.0
 10
246.0
 20
-155.84999999999991
 30
0.0
 10
246.0
 20
-154.74999999999994
 30
0.0
 42
-2.414213562373094
 10
246.25000000000023
 20
-154.49999999999991
 30
0.0
 10
248.75000000000023
 20
-154.49999999999991
 30
0.0
 42
-2.414213562373094
 10
249.00000000000023
 20
-154.74999999999991
 30
0.0
 10
249.00000000000023
 20
-155.84999999999991
 30
0.0
 10
253.60000000000014
 20
-155.84999999999991
 30
0.0
 10
253.60000000000014
 20
-132.5
 30
0.0
 10
260.00000000000023
 20
-132.49999999999991
 30
0.0
 10
260.00000000000023
 20
-107.49999999999997
 30
0.0
 10
253.60000000000014
 20
-107.49999999999991
 30
0.0
 10
253.60000000000014
 20
-102.89999999999992
 30
0.0
 10
249.00000000000023
 20
-102.89999999999989
 30
0.0
 10
249.00000000000023
 20
-103.99999999999991
 30
0.0
 42
-2.4142135623730341
 10
248.75000000000023
 20
-104.24999999999991
 30
0.0
 10
246.25000000000023
 20
-104.24999999999991
 30
0.0
 42
-2.414213562373094
 10
246.0
 20
-103.99999999999994
 30
0.0
 10
246.0
 20
-102.89999999999992
 30
0.0
 10
244.00000000000023
 20
-102.89999999999992
 30
0.0
 10
244.00000000000023
 20
-99.599999999999909
 30
0.0
 10
246.0
 20
-99.599999999999909
 30
0.0
 10
246.0
 20
-98.499999999999915
 30
0.0
 42
-2.414213562373094
 10
246.25
 20
-98.249999999999915
 30
0.0
 10
248.75
 20
-98.249999999999915
 30
0.0
 42
-2.414213562373094
 10
249.0
 20
-98.499999999999915
 30
0.0
 10
249.00000000000023
 20
-99.599999999999909
 30
0.0
 10
253.60000000000014
 20
-99.599999999999909
 30
0.0
 10
253.60000000000002
 20
-55.599999999999895
 30
0.0
 10
247.20000000000005
 20
-55.599999999999895
 30
0.0
 10
247.20000000000005
 20
0.0000000000000782
 30
0.0
 10
0.0
 20
0.0
 30
0.0
 10
0.0
 20
-55.599999999999994
 30
0.0
 10
-6.3999999999999773
 20
-55.600000000000009
 30
0.0
 10
-6.4000000000000909
 20
-99.600000000000023
 30
0.0
 10
-1.8000000000000682
 20
-99.600000000000051
 30
0.0
 10
-1.8000000000000682
 20
-98.500000000000085
 30
0.0
 42
-2.414213562373094
 10
-1.5500000000000682
 20
-98.250000000000057
 30
0.0
 10
0.9499999999999318
 20
-98.250000000000057
 30
0.0
 42
-2.414213562373094
 10
1.1999999999999318
 20
-98.500000000000085
 30
0.0
 10
1.1999999999999318
 20
-99.600000000000051
 30
0.0
 10
3.1999999999999318
 20
-99.600000000000051
 30
0.0
 10
3.1999999999999318
 20
-102.90000000000006
 30
0.0
 10
1.1999999999999318
 20
-102.90000000000006
 30
0.0
 10
1.1999999999999318
 20
-104.00000000000009
 30
0.0
 42
-2.414213562373094
 10
0.9499999999999318
 20
-104.25000000000009
 30
0.0
 10
-1.5500000000000682
 20
-104.25000000000009
 30
0.0
 42
-2.4142135623730341
 10
-1.8000000000000682
 20
-104.00000000000009
 30
0.0
 10
-1.8000000000000682
 20
-102.90000000000006
 30
0.0
 10
-6.4000000000000909
 20
-102.90000000000006
 30
0.0
 10
-6.3999999999999773
 20
-107.49999999999997
 30
0.0
 10
-12.799999999999955
 20
-107.50000000000006
 30
0.0
 10
-12.799999999999955
 20
-132.50000000000006
 30
0.0
 10
-6.3999999999999773
 20
-132.50000000000014
 30
0.0
 10
-6.3999999999999773
 20
-155.84999999999999
 30
0.0
 10
-1.8000000000000682
 20
-155.84999999999999
 30
0.0
 10
-1.8000000000000682
 20
-154.75000000000009
 30
0.0
 42
-2.414213562373094
 10
-1.5500000000000682
 20
-154.50000000000003
 30
0.0
 10
0.9499999999999318
 20
-154.50000000000003
 30
0.0
 42
-2.414213562373094
 10
1.2000000000000455
 20
-154.75000000000006
 30
0.0
 10
1.1999999999999318
 20
-155.84999999999999
 30
0.0
 10
3.1999999999999318
 20
-155.84999999999999
 30
0.0
 10
3.1999999999999318
 20
-159.15000000000001
 30
0.0
 10
1.1999999999999318
 20
-159.15000000000001
 30
0.0
 10
1.1999999999999318
 20
-160.25000000000003
 30
0.0
 42
-2.414213562373094
 10
0.9499999999999318
 20
-160.50000000000003
 30
0.0
 10
-1.5500000000000682
 20
-160.50000000000003
 30
0.0
 42
-2.414213562373094
 10
-1.8000000000000682
 20
-160.25000000000003
 30
0.0
 10
-1.8000000000000682
 20
-159.15000000000001
 30
0.0
 10
-6.3999999999999773
 20
-159.15000000000001
 30
0.0
 10
-6.3999999999999773
 20
-182.49999999999991
 30
0.0
 10
-12.799999999999955
 20
-182.50000000000003
 30
0.0
 10
-12.799999999999955
 20
-207.5
 30
0.0
 10
-6.3999999999999773
 20
-207.50000000000011
 30
0.0
 10
-6.3999999999999773
 20
-212.10000000000002
 30
0.0
 10
-1.7999999999999545
 20
-212.10000000000002
 30
0.0
 10
-1.7999999999999545
 20
-211.0
 30
0.0
 42
-2.414213562373094
 10
-1.5499999999999545
 20
-210.75
 30
0.0
 10
0.9500000000000455
 20
-210.75
 30
0.0
 42
-2.414213562373094
 10
1.2000000000000455
 20
-211.0
 30
0.0
 10
1.2000000000000455
 20
-212.10000000000002
 30
0.0
 10
3.2000000000000455
 20
-212.10000000000002
 30
0.0
 10
3.2000000000000455
 20
-215.40000000000001
 30
0.0
 10
1.2000000000000455
 20
-215.40000000000001
 30
0.0
 10
1.2000000000000455
 20
-216.5
 30
0.0
 42
-2.414213562373094
 10
0.9500000000000455
 20
-216.75
 30
0.0
 10
-1.5499999999999545
 20
-216.75
 30
0.0
 42
-2.414213562373094
 10
-1.7999999999999545
 20
-216.5
 30
0.0
 10
-1.7999999999999545
 20
-215.40000000000001
 30
0.0
 10
-6.3999999999999773
 20
-215.40000000000001
 30
0.0
 10
-6.3999999999998636
 20
-239.99999999999997
 30
0.0
 10
21.93333333333328
 20
-239.99999999999997
 30
0.0
 10
21.93333333333328
 20
-233.59999999999999
 30
0.0
 10
51.933333333333394
 20
-233.59999999999999
 30
0.0
 10
51.933333333333394
 20
-239.99999999999997
 30
0.0
 10
108.59999999999991
 20
-239.99999999999997
 30
0.0
 10
108.59999999999968
 20
-233.59999999999999
 30
0.0
 10
138.59999999999991
 20
-233.59999999999999
 30
0.0
 10
138.59999999999991
 20
-239.99999999999997
 30
0.0
 10
195.26666666666642
 20
-239.99999999999997
 30
0.0
 10
195.26666666666642
 20
-233.59999999999999
 30
0.0
 10
225.26666666666642
 20
-233.59999999999999
 30
0.0
 10
225.26666666666642
 20
-239.99999999999997
 30
0.0
 10
253.60000000000014
 20
-239.99999999999997
 30
0.0
  0
CIRCLE
  5
83
100
AcDbEntity
100
AcDbCircle
  8
0
 62
256
370
-1
 48
1.0
  6
ByLayer
 10
80.266666666666993
 20
-236.80000000000004
 30
0.0
 40
1.6499999999999999
  0
CIRCLE
  5
84
100
AcDbEntity
100
AcDbCircle
  8
0
 62
256
370
-1
 48
1.0
  6
ByLayer
 10
166.93333333333317
 20
-236.79999999999993
 30
0.0
 40
1.6499999999999999
  0
CIRCLE
  5
85
100
AcDbEntity
100
AcDbCircle
  8
0
 62
256
370
-1
 48
1.0
  6
ByLayer
 10
80.266666666666538
 20
-58.80000000000004
 30
0.0
 40
1.6499999999999999
  0
CIRCLE
  5
86
100
AcDbEntity
100
AcDbCircle
  8
0
 62
256
370
-1
 48
1.0
  6
ByLayer
 10
166.93333333333339
 20
-58.799999999999997
 30
0.0
 40
1.6499999999999999
  0
ENDBLK
  5
87
100
AcDbEntity
  8
0
100
AcDbBlockEnd
  0
BLOCK
  5
88
100
AcDbEntity
  8
0
100
AcDbBlockBegin
  2
frame_front
 70
0
 10
0.0
 20
0.0
 30
0.0
  3
frame_front
  1

  0
LWPOLYLINE
  5
89
  8
0
 62
256
370
-1
 48
1.0
  6
ByLayer
100
AcDbEntity
100
AcDbPolyline
 90
4
 70
29697
 10
65.000000000000057
 20
-193.60000000000011
 30
0.0
 10
20.000000000000071
 20
-193.60000000000011
 30
0.0
 10
20.00000000000005
 20
-176.60000000000011
 30
0.0
 10
65.000000000000085
 20
-176.60000000000011
 30
0.0
  0
LWPOLYLINE
  5
8A
  8
0
 62
256
370
-1
 48
1.0
  6
ByLayer
100
AcDbEntity
100
AcDbPolyline
 90
4
 70
29697
 10
22.500000000000071
 20
-172.50000000000011
 30
0.0
 10
22.500000000000071
 20
-144.5
 30
0.0
 10
96.500000000000071
 20
-144.5
 30
0.0
 10
96.500000000000057
 20
-172.5
 30
0.0
  0
LWPOLYLINE
  5
8B
  8
0
 62
256
370
-1
 48
1.0
  6
ByLayer
100
AcDbEntity
100
AcDbPolyline
 90
36
 70
29697
 10
21.9333333333336
 20
-240.00000000000011
 30
0.0
 10
21.9333333333336
 20
-233.60000000000011
 30
0.0
 10
51.9333333333336
 20
-233.60000000000011
 30
0.0
 10
51.9333333333336
 20
-240.00000000000011
 30
0.0
 10
108.60000000000019
 20
-240.0
 30
0.0
 10
108.60000000000019
 20
-233.60000000000011
 30
0.0
 10
138.60000000000019
 20
-233.60000000000011
 30
0.0
 10
138.60000000000019
 20
-240.0
 30
0.0
 10
195.26666666666671
 20
-240.0
 30
0.0
 10
195.26666666666671
 20
-233.59999999999999
 30
0.0
 10
225.26666666666671
 20
-233.60000000000011
 30
0.0
 10
225.26666666666679
 20
-240.0
 30
0.0
 10
253.59999999999999
 20
-240.0
 30
0.0
 10
253.59999999999999
 20
-207.50000000000011
 30
0.0
 10
260.0
 20
-207.5
 30
0.0
 10
260.0
 20
-182.5
 30
0.0
 10
253.60000000000011
 20
-182.5
 30
0.0
 10
253.59999999999999
 20
-132.50000000000011
 30
0.0
 10
260.0
 20
-132.5
 30
0.0
 10
260.0
 20
-107.5
 30
0.0
 10
253.59999999999999
 20
-107.5
 30
0.0
 10
253.59999999999999
 20
-55.599999999999987
 30
0.0
 10
247.19999999999999
 20
-55.599999999999987
 30
0.0
 10
247.19999999999999
 20
0.0
 30
0.0
 10
0.0
 20
0.0
 30
0.0
 10
0.0000000000000355
 20
-55.59999999999998
 30
0.0
 10
-6.4000000000000048
 20
-55.59999999999998
 30
0.0
 10
-6.4000000000000936
 20
-107.5
 30
0.0
 10
-12.8000000000001
 20
-107.5000000000001
 30
0.0
 10
-12.8000000000001
 20
-132.5
 30
0.0
 10
-6.4000000000000936
 20
-132.50000000000011
 30
0.0
 10
-6.4000000000001469
 20
-182.49999999999989
 30
0.0
 10
-12.800000000000081
 20
-182.5
 30
0.0
 10
-12.80000000000015
 20
-207.5
 30
0.0
 10
-6.4000000000001833
 20
-207.5
 30
0.0
 10
-6.4000000000000048
 20
-240.00000000000011
 30
0.0
  0
CIRCLE
  5
8C
100
AcDbEntity
100
AcDbCircle
  8
0
 62
256
370
-1
 48
1.0
  6
ByLayer
 10
46.000000000000043
 20
-136.5
 30
0.0
 40
1.6499999999999999
  0
CIRCLE
  5
8D
100
AcDbEntity
100
AcDbCircle
  8
0
 62
256
370
-1
 48
1.0
  6
ByLayer
 10
97.000000000000057
 20
-180.50000000000011
 30
0.0
 40
1.6499999999999999
  0
CIRCLE
  5
8E
100
AcDbEntity
100
AcDbCircle
  8
0
 62
256
370
-1
 48
1.0
  6
ByLayer
 10
166.933333333333
 20
-236.80000000000001
 30
0.0
 40
1.6499999999999999
  0
CIRCLE
  5
8F
100
AcDbEntity
100
AcDbCircle
  8
0
 62
256
370
-1
 48
1.0
  6
ByLayer
 10
80.266666666666879
 20
-236.80000000000001
 30
0.0
 40
1.6499999999999999
  0
ENDBLK
  5
90
100
AcDbEntity
  8
0
100
AcDbBlockEnd
  0
BLOCK
  5
91
100
AcDbEntity
  8
0
100
AcDbBlockBegin
  2
back_top
 70
0
 10
0.0
 20
0.0
 30
0.0
  3
back_top
  1

  0
LWPOLYLINE
  5
92
  8
0
 62
256
370
-1
 48
1.0
  6
ByLayer
100
AcDbEntity
100
AcDbPolyline
 90
60
 70
1
 10
259.99999999999989
 20
38.349999999999852
 30
0.0
 10
255.79999999999984
 20
38.349999999999852
 30
0.0
 10
255.79999999999984
 20
37.249999999999858
 30
0.0
 42
-2.4142135623730638
 10
255.54999999999984
 20
36.999999999999858
 30
0.0
 10
253.04999999999995
 20
36.999999999999858
 30
0.0
 42
-2.414213562373094
 10
252.79999999999995
 20
37.249999999999858
 30
0.0
 10
252.79999999999995
 20
38.349999999999852
 30
0.0
 10
250.79999999999995
 20
38.349999999999852
 30
0.0
 10
250.79999999999995
 20
41.649999999999849
 30
0.0
 10
252.79999999999995
 20
41.649999999999849
 30
0.0
 10
252.79999999999995
 20
42.749999999999858
 30
0.0
 42
-2.414213562373094
 10
253.04999999999995
 20
42.999999999999858
 30
0.0
 10
255.54999999999984
 20
42.999999999999858
 30
0.0
 42
-2.414213562373094
 10
255.79999999999995
 20
42.749999999999858
 30
0.0
 10
255.79999999999995
 20
41.649999999999849
 30
0.0
 10
259.99999999999989
 20
41.649999999999835
 30
0.0
 10
259.99999999999989
 20
49.999999999999858
 30
0.0
 10
233.39999999999986
 20
49.999999999999901
 30
0.0
 10
233.39999999999998
 20
46.999999999999901
 30
0.0
 10
231.89999999999986
 20
46.999999999999886
 30
0.0
 10
231.89999999999986
 20
36.999999999999886
 30
0.0
 10
215.89999999999986
 20
36.999999999999901
 30
0.0
 10
215.89999999999986
 20
46.999999999999901
 30
0.0
 10
144.39999999999986
 20
46.999999999999915
 30
0.0
 10
144.39999999999986
 20
36.999999999999915
 30
0.0
 10
128.39999999999986
 20
36.999999999999929
 30
0.0
 10
128.39999999999986
 20
46.999999999999915
 30
0.0
 10
56.899999999999977
 20
46.999999999999943
 30
0.0
 10
56.899999999999977
 20
36.999999999999943
 30
0.0
 10
40.899999999999864
 20
36.999999999999943
 30
0.0
 10
40.899999999999977
 20
46.999999999999943
 30
0.0
 10
39.399999999999977
 20
46.999999999999901
 30
0.0
 10
39.399999999999977
 20
49.999999999999943
 30
0.0
 10
12.800000000000068
 20
50.0
 30
0.0
 10
12.800000000000068
 20
41.649999999999991
 30
0.0
 10
17.0
 20
41.649999999999991
 30
0.0
 10
17.0
 20
42.749999999999972
 30
0.0
 42
-2.414213562373094
 10
17.25
 20
42.999999999999972
 30
0.0
 10
19.75
 20
42.999999999999972
 30
0.0
 42
-2.414213562373094
 10
20.0
 20
42.749999999999972
 30
0.0
 10
20.0
 20
41.649999999999991
 30
0.0
 10
22.0
 20
41.649999999999991
 30
0.0
 10
22.0
 20
38.349999999999994
 30
0.0
 10
20.0
 20
38.349999999999994
 30
0.0
 10
20.0
 20
37.25
 30
0.0
 42
-2.414213562373094
 10
19.75
 20
37.0
 30
0.0
 10
17.25
 20
37.0
 30
0.0
 42
-2.4142135623730638
 10
17.0
 20
37.25
 30
0.0
 10
17.0
 20
38.349999999999994
 30
0.0
 10
12.799999999999955
 20
38.349999999999994
 30
0.0
 10
12.799999999999955
 20
25.000000000000028
 30
0.0
 10
6.3999999999999773
 20
25.000000000000028
 30
0.0
 10
6.3999999999999773
 20
10.0
 30
0.0
 10
0.0
 20
10.0
 30
0.0
 10
0.0
 20
0.0
 30
0.0
 10
272.79999999999973
 20
0.0
 30
0.0
 10
272.79999999999973
 20
9.9999999999999289
 30
0.0
 10
266.39999999999986
 20
9.9999999999999289
 30
0.0
 10
266.39999999999986
 20
24.999999999999886
 30
0.0
 10
259.99999999999989
 20
24.999999999999886
 30
0.0
  0
ENDBLK
  5
93
100
AcDbEntity
  8
0
100
AcDbBlockEnd
  0
BLOCK
  5
94
100
AcDbEntity
  8
0
100
AcDbBlockBegin
  2
bottom
 70
0
 10
0.0
 20
0.0
 30
0.0
  3
bottom
  1

  0
LWPOLYLINE
  5
95
  8
0
 62
256
370
-1
 48
1.0
  6
ByLayer
100
AcDbEntity
100
AcDbPolyline
 90
204
 70
1
 10
171.68333333333283
 20
-4.6000000000000227
 30
0.0
 10
171.68333333333283
 20
0.0
 30
0.0
 10
145.00000000000011
 20
-0.0000000000000568
 30
0.0
 10
145.00000000000011
 20
6.3999999999999773
 30
0.0
 10
115.00000000000004
 20
6.3999999999999773
 30
0.0
 10
115.0000000000001
 20
-0.0000000000000568
 30
0.0
 10
88.316666666666734
 20
0.0
 30
0.0
 10
88.316666666666734
 20
-4.6000000000000227
 30
0.0
 10
89.416666666666728
 20
-4.6000000000000227
 30
0.0
 42
-2.414213562373094
 10
89.666666666666728
 20
-4.8500000000000227
 30
0.0
 10
89.666666666666728
 20
-7.3500000000000227
 30
0.0
 42
-2.414213562373094
 10
89.416666666666728
 20
-7.6000000000000227
 30
0.0
 10
88.316666666666734
 20
-7.6000000000000227
 30
0.0
 10
88.316666666666734
 20
-9.6000000000000227
 30
0.0
 10
85.016666666666751
 20
-9.6000000000000227
 30
0.0
 10
85.016666666666751
 20
-7.6000000000000227
 30
0.0
 10
83.916666666666728
 20
-7.6000000000000227
 30
0.0
 42
-2.414213562373094
 10
83.666666666666728
 20
-7.3500000000000227
 30
0.0
 10
83.666666666666728
 20
-4.8500000000000227
 30
0.0
 42
-2.414213562373094
 10
83.916666666666728
 20
-4.6000000000000227
 30
0.0
 10
85.016666666666751
 20
-4.6000000000000227
 30
0.0
 10
85.016666666666751
 20
0.0
 30
0.0
 10
58.333333333333442
 20
-0.0000000000000568
 30
0.0
 10
58.333333333333385
 20
6.3999999999999773
 30
0.0
 10
28.333333333333385
 20
6.3999999999999773
 30
0.0
 10
28.333333333333414
 20
-0.0000000000000568
 30
0.0
 10
0.0
 20
0.0
 30
0.0
 10
-0.0000000000002984
 20
-33.349999999999966
 30
0.0
 10
4.5999999999997243
 20
-33.349999999999966
 30
0.0
 10
4.5999999999996959
 20
-32.249999999999943
 30
0.0
 42
-2.414213562373094
 10
4.8499999999997101
 20
-31.999999999999943
 30
0.0
 10
7.3499999999997101
 20
-31.999999999999943
 30
0.0
 42
-2.414213562373094
 10
7.5999999999997101
 20
-32.249999999999943
 30
0.0
 10
7.5999999999997101
 20
-33.349999999999966
 30
0.0
 10
9.5999999999996959
 20
-33.349999999999966
 30
0.0
 10
9.5999999999996959
 20
-36.649999999999977
 30
0.0
 10
7.5999999999997101
 20
-36.649999999999977
 30
0.0
 10
7.5999999999997101
 20
-37.749999999999943
 30
0.0
 42
-2.414213562373094
 10
7.3499999999997101
 20
-37.999999999999943
 30
0.0
 10
4.8499999999997101
 20
-37.999999999999943
 30
0.0
 42
-2.414213562373094
 10
4.5999999999996959
 20
-37.749999999999943
 30
0.0
 10
4.5999999999997243
 20
-36.649999999999977
 30
0.0
 10
-0.0000000000002984
 20
-36.649999999999977
 30
0.0
 10
0.0
 20
-55.000000000000114
 30
0.0
 10
-6.4000000000000199
 20
-55.000000000000114
 30
0.0
 10
-6.4000000000000199
 20
-85.000000000000171
 30
0.0
 10
0.0
 20
-85.000000000000171
 30
0.0
 10
-0.0000000000002984
 20
-103.34999999999997
 30
0.0
 10
4.5999999999997243
 20
-103.34999999999997
 30
0.0
 10
4.5999999999996959
 20
-102.24999999999994
 30
0.0
 42
-2.414213562373094
 10
4.8499999999997101
 20
-101.99999999999994
 30
0.0
 10
7.3499999999997101
 20
-101.99999999999994
 30
0.0
 42
-2.414213562373094
 10
7.5999999999997101
 20
-102.24999999999994
 30
0.0
 10
7.5999999999997101
 20
-103.34999999999997
 30
0.0
 10
9.5999999999996959
 20
-103.34999999999997
 30
0.0
 10
9.5999999999996959
 20
-106.64999999999998
 30
0.0
 10
7.5999999999997101
 20
-106.64999999999998
 30
0.0
 10
7.5999999999997101
 20
-107.74999999999994
 30
0.0
 42
-2.414213562373094
 10
7.3499999999997101
 20
-107.99999999999994
 30
0.0
 10
4.8499999999997101
 20
-107.99999999999994
 30
0.0
 42
-2.414213562373094
 10
4.5999999999996959
 20
-107.74999999999994
 30
0.0
 10
4.5999999999997243
 20
-106.64999999999998
 30
0.0
 10
-0.0000000000002984
 20
-106.64999999999998
 30
0.0
 10
0.0
 20
-124.99999999999994
 30
0.0
 10
-6.4000000000000199
 20
-124.99999999999994
 30
0.0
 10
-6.4000000000000199
 20
-154.99999999999994
 30
0.0
 10
0.0
 20
-154.99999999999994
 30
0.0
 10
-0.0000000000002984
 20
-173.34999999999997
 30
0.0
 10
4.5999999999997243
 20
-173.34999999999997
 30
0.0
 10
4.5999999999996959
 20
-172.24999999999994
 30
0.0
 42
-2.414213562373094
 10
4.8499999999997101
 20
-171.99999999999994
 30
0.0
 10
7.3499999999997101
 20
-171.99999999999994
 30
0.0
 42
-2.414213562373094
 10
7.5999999999997101
 20
-172.24999999999994
 30
0.0
 10
7.5999999999997101
 20
-173.34999999999997
 30
0.0
 10
9.5999999999996959
 20
-173.34999999999997
 30
0.0
 10
9.5999999999996959
 20
-176.64999999999992
 30
0.0
 10
7.5999999999997101
 20
-176.64999999999992
 30
0.0
 10
7.5999999999997101
 20
-177.74999999999994
 30
0.0
 42
-2.414213562373094
 10
7.3499999999997101
 20
-177.99999999999994
 30
0.0
 10
4.8499999999997101
 20
-177.99999999999994
 30
0.0
 42
-2.414213562373094
 10
4.5999999999996959
 20
-177.74999999999994
 30
0.0
 10
4.5999999999997243
 20
-176.64999999999992
 30
0.0
 10
-0.0000000000002984
 20
-176.64999999999992
 30
0.0
 10
-0.0000000000000426
 20
-210.00000000000006
 30
0.0
 10
28.333333333333414
 20
-210.00000000000006
 30
0.0
 10
28.333333333333385
 20
-216.40000000000015
 30
0.0
 10
58.333333333333385
 20
-216.40000000000015
 30
0.0
 10
58.333333333333442
 20
-210.00000000000006
 30
0.0
 10
85.016666666666751
 20
-210.00000000000006
 30
0.0
 10
85.016666666666751
 20
-205.40000000000015
 30
0.0
 10
83.916666666666728
 20
-205.40000000000015
 30
0.0
 42
-2.414213562373094
 10
83.666666666666728
 20
-205.15000000000015
 30
0.0
 10
83.666666666666728
 20
-202.65000000000003
 30
0.0
 42
-2.414213562373094
 10
83.916666666666728
 20
-202.40000000000003
 30
0.0
 10
85.016666666666751
 20
-202.40000000000003
 30
0.0
 10
85.016666666666751
 20
-200.40000000000003
 30
0.0
 10
88.316666666666734
 20
-200.40000000000003
 30
0.0
 10
88.316666666666734
 20
-202.40000000000003
 30
0.0
 10
89.416666666666728
 20
-202.40000000000003
 30
0.0
 42
-2.414213562373094
 10
89.666666666666728
 20
-202.65000000000003
 30
0.0
 10
89.666666666666728
 20
-205.15000000000015
 30
0.0
 42
-2.414213562373094
 10
89.416666666666728
 20
-205.40000000000015
 30
0.0
 10
88.316666666666734
 20
-205.40000000000015
 30
0.0
 10
88.316666666666734
 20
-210.00000000000006
 30
0.0
 10
115.0000000000001
 20
-210.00000000000006
 30
0.0
 10
115.00000000000004
 20
-216.40000000000015
 30
0.0
 10
145.00000000000011
 20
-216.40000000000015
 30
0.0
 10
145.00000000000011
 20
-210.00000000000006
 30
0.0
 10
171.68333333333283
 20
-210.00000000000006
 30
0.0
 10
171.68333333333283
 20
-205.40000000000015
 30
0.0
 10
170.58333333333292
 20
-205.40000000000015
 30
0.0
 42
-2.414213562373094
 10
170.33333333333286
 20
-205.15000000000015
 30
0.0
 10
170.33333333333286
 20
-202.65000000000003
 30
0.0
 42
-2.414213562373094
 10
170.58333333333292
 20
-202.40000000000003
 30
0.0
 10
171.68333333333283
 20
-202.40000000000003
 30
0.0
 10
171.68333333333283
 20
-200.40000000000003
 30
0.0
 10
174.98333333333284
 20
-200.40000000000003
 30
0.0
 10
174.98333333333284
 20
-202.40000000000003
 30
0.0
 10
176.08333333333286
 20
-202.40000000000003
 30
0.0
 42
-2.414213562373094
 10
176.33333333333286
 20
-202.65000000000003
 30
0.0
 10
176.33333333333286
 20
-205.15000000000015
 30
0.0
 42
-2.414213562373094
 10
176.08333333333286
 20
-205.40000000000015
 30
0.0
 10
174.98333333333284
 20
-205.40000000000015
 30
0.0
 10
174.98333333333284
 20
-210.00000000000006
 30
0.0
 10
201.66666666666652
 20
-210.00000000000006
 30
0.0
 10
201.66666666666652
 20
-216.40000000000003
 30
0.0
 10
231.66666666666652
 20
-216.40000000000003
 30
0.0
 10
231.66666666666652
 20
-210.00000000000006
 30
0.0
 10
260.00000000000006
 20
-210.00000000000006
 30
0.0
 10
259.99999999999994
 20
-176.64999999999992
 30
0.0
 10
255.39999999999998
 20
-176.64999999999992
 30
0.0
 10
255.39999999999998
 20
-177.74999999999994
 30
0.0
 42
-2.414213562373094
 10
255.14999999999998
 20
-177.99999999999994
 30
0.0
 10
252.64999999999998
 20
-177.99999999999994
 30
0.0
 42
-2.414213562373094
 10
252.39999999999998
 20
-177.74999999999994
 30
0.0
 10
252.39999999999998
 20
-176.64999999999992
 30
0.0
 10
250.39999999999998
 20
-176.64999999999992
 30
0.0
 10
250.39999999999998
 20
-173.34999999999997
 30
0.0
 10
252.39999999999998
 20
-173.34999999999997
 30
0.0
 10
252.39999999999998
 20
-172.24999999999994
 30
0.0
 42
-2.414213562373094
 10
252.64999999999998
 20
-171.99999999999994
 30
0.0
 10
255.14999999999998
 20
-171.99999999999994
 30
0.0
 42
-2.414213562373094
 10
255.39999999999998
 20
-172.24999999999994
 30
0.0
 10
255.39999999999998
 20
-173.34999999999997
 30
0.0
 10
259.99999999999994
 20
-173.34999999999997
 30
0.0
 10
259.99999999999994
 20
-154.99999999999983
 30
0.0
 10
266.39999999999998
 20
-154.99999999999983
 30
0.0
 10
266.39999999999998
 20
-124.99999999999983
 30
0.0
 10
259.99999999999994
 20
-124.99999999999983
 30
0.0
 10
259.99999999999994
 20
-106.64999999999998
 30
0.0
 10
255.39999999999998
 20
-106.64999999999998
 30
0.0
 10
255.39999999999998
 20
-107.74999999999994
 30
0.0
 42
-2.414213562373094
 10
255.14999999999998
 20
-107.99999999999994
 30
0.0
 10
252.64999999999998
 20
-107.99999999999994
 30
0.0
 42
-2.414213562373094
 10
252.39999999999998
 20
-107.74999999999994
 30
0.0
 10
252.39999999999998
 20
-106.64999999999998
 30
0.0
 10
250.39999999999998
 20
-106.64999999999998
 30
0.0
 10
250.39999999999998
 20
-103.34999999999997
 30
0.0
 10
252.39999999999998
 20
-103.34999999999997
 30
0.0
 10
252.39999999999998
 20
-102.24999999999994
 30
0.0
 42
-2.414213562373094
 10
252.64999999999998
 20
-101.99999999999994
 30
0.0
 10
255.14999999999998
 20
-101.99999999999994
 30
0.0
 42
-2.414213562373094
 10
255.39999999999998
 20
-102.24999999999994
 30
0.0
 10
255.39999999999998
 20
-103.34999999999997
 30
0.0
 10
260.00000000000006
 20
-103.34999999999997
 30
0.0
 10
259.99999999999994
 20
-85.000000000000057
 30
0.0
 10
266.39999999999998
 20
-85.000000000000057
 30
0.0
 10
266.39999999999986
 20
-55.000000000000057
 30
0.0
 10
259.99999999999983
 20
-55.000000000000057
 30
0.0
 10
259.99999999999994
 20
-36.649999999999977
 30
0.0
 10
255.39999999999998
 20
-36.649999999999977
 30
0.0
 10
255.39999999999998
 20
-37.749999999999943
 30
0.0
 42
-2.414213562373094
 10
255.14999999999998
 20
-37.999999999999943
 30
0.0
 10
252.64999999999998
 20
-37.999999999999943
 30
0.0
 42
-2.414213562373094
 10
252.39999999999998
 20
-37.749999999999943
 30
0.0
 10
252.39999999999998
 20
-36.649999999999977
 30
0.0
 10
250.39999999999998
 20
-36.649999999999977
 30
0.0
 10
250.39999999999998
 20
-33.349999999999966
 30
0.0
 10
252.39999999999998
 20
-33.349999999999966
 30
0.0
 10
252.39999999999998
 20
-32.249999999999943
 30
0.0
 42
-2.414213562373094
 10
252.64999999999998
 20
-31.999999999999943
 30
0.0
 10
255.14999999999998
 20
-31.999999999999943
 30
0.0
 42
-2.414213562373094
 10
255.39999999999998
 20
-32.249999999999943
 30
0.0
 10
255.39999999999998
 20
-33.349999999999966
 30
0.0
 10
259.99999999999994
 20
-33.349999999999966
 30
0.0
 10
260.00000000000006
 20
-0.0000000000000568
 30
0.0
 10
231.66666666666652
 20
-0.0000000000001137
 30
0.0
 10
231.66666666666652
 20
6.3999999999999204
 30
0.0
 10
201.66666666666652
 20
6.3999999999999204
 30
0.0
 10
201.66666666666652
 20
-0.0000000000000568
 30
0.0
 10
174.98333333333284
 20
0.0
 30
0.0
 10
174.98333333333284
 20
-4.6000000000000227
 30
0.0
 10
176.08333333333286
 20
-4.6000000000000227
 30
0.0
 42
-2.414213562373094
 10
176.33333333333286
 20
-4.8500000000000227
 30
0.0
 10
176.33333333333286
 20
-7.3500000000000227
 30
0.0
 42
-2.414213562373094
 10
176.08333333333286
 20
-7.6000000000000227
 30
0.0
 10
174.98333333333284
 20
-7.6000000000000227
 30
0.0
 10
174.98333333333284
 20
-9.6000000000000227
 30
0.0
 10
171.68333333333283
 20
-9.6000000000000227
 30
0.0
 10
171.68333333333283
 20
-7.6000000000000227
 30
0.0
 10
170.58333333333292
 20
-7.6000000000000227
 30
0.0
 42
-2.414213562373094
 10
170.33333333333286
 20
-7.3500000000000227
 30
0.0
 10
170.33333333333286
 20
-4.8500000000000227
 30
0.0
 42
-2.414213562373094
 10
170.58333333333292
 20
-4.6000000000000227
 30
0.0
  0
LWPOLYLINE
  5
96
  8
0
 62
256
370
-1
 48
1.0
  6
ByLayer
100
AcDbEntity
100
AcDbPolyline
 90
4
 70
1
 10
84.999999999999986
 20
-135.29999999999995
 30
0.0
 10
64.999999999999986
 20
-135.29999999999995
 30
0.0
 10
64.999999999999986
 20
-129.69999999999999
 30
0.0
 10
84.999999999999986
 20
-129.69999999999999
 30
0.0
  0
LWPOLYLINE
  5
97
  8
0
 62
256
370
-1
 48
1.0
  6
ByLayer
100
AcDbEntity
100
AcDbPolyline
 90
4
 70
1
 10
130.0
 20
-135.29999999999995
 30
0.0
 10
130.0
 20
-129.69999999999999
 30
0.0
 10
150.0
 20
-129.69999999999999
 30
0.0
 10
150.0
 20
-135.29999999999995
 30
0.0
  0
LWPOLYLINE
  5
98
  8
0
 62
256
370
-1
 48
1.0
  6
ByLayer
100
AcDbEntity
100
AcDbPolyline
 90
4
 70
1
 10
19.999999999999986
 20
-135.29999999999995
 30
0.0
 10
0.0
 20
-135.29999999999995
 30
0.0
 10
0.0
 20
-129.69999999999999
 30
0.0
 10
19.999999999999986
 20
-129.69999999999999
 30
0.0
  0
CIRCLE
  5
99
100
AcDbEntity
100
AcDbCircle
  8
0
 62
256
370
-1
 48
1.0
  6
ByLayer
 10
99.999999999999986
 20
-132.49999999999994
 30
0.0
 40
1.6499999999999999
  0
CIRCLE
  5
9A
100
AcDbEntity
100
AcDbCircle
  8
0
 62
256
370
-1
 48
1.0
  6
ByLayer
 10
49.999999999999986
 20
-132.49999999999994
 30
0.0
 40
1.6499999999999999
  0
CIRCLE
  5
9B
100
AcDbEntity
100
AcDbCircle
  8
0
 62
256
370
-1
 48
1.0
  6
ByLayer
 10
22.799999999999997
 20
-155.2999999999999
 30
0.0
 40
1.6499999999999999
  0
ENDBLK
  5
9C
100
AcDbEntity
  8
0
100
AcDbBlockEnd
  0
BLOCK
  5
9D
100
AcDbEntity
  8
0
100
AcDbBlockBegin
  2
frame_left
 70
0
 10
0.0
 20
0.0
 30
0.0
  3
frame_left
  1

  0
LWPOLYLINE
  5
9E
  8
0
 62
256
370
-1
 48
1.0
  6
ByLayer
100
AcDbEntity
100
AcDbPolyline
 90
20
 70
19457
 10
6.4000000000001478
 20
-132.50000000000006
 30
0.0
 10
0.0000000000001137
 20
-132.50000000000006
 30
0.0
 10
0.0000000000001705
 20
-182.50000000000006
 30
0.0
 10
6.4000000000002046
 20
-182.50000000000006
 30
0.0
 10
6.4000000000002046
 20
-207.50000000000006
 30
0.0
 10
0.0000000000001705
 20
-207.50000000000006
 30
0.0
 10
0.0000000000001137
 20
-251.11101153399323
 30
0.0
 10
222.80000000000007
 20
-254.99999999999994
 30
0.0
 10
222.80000000000007
 20
-207.49999999999994
 30
0.0
 10
216.40000000000009
 20
-207.49999999999994
 30
0.0
 10
216.40000000000009
 20
-182.49999999999994
 30
0.0
 10
222.80000000000007
 20
-182.49999999999994
 30
0.0
 10
222.80000000000007
 20
-132.5
 30
0.0
 10
216.40000000000009
 20
-132.5
 30
0.0
 10
216.40000000000009
 20
-107.49999999999996
 30
0.0
 10
222.80000000000007
 20
-107.49999999999996
 30
0.0
 10
222.80000000000007
 20
0.0000000000000426
 30
0.0
 10
0.0
 20
0.0
 30
0.0
 10
0.0000000000001137
 20
-107.50000000000006
 30
0.0
 10
6.4000000000000909
 20
-107.50000000000004
 30
0.0
  0
LWPOLYLINE
  5
9F
  8
0
 62
256
370
-1
 48
1.0
  6
ByLayer
100
AcDbEntity
100
AcDbPolyline
 90
4
 70
19457
 10
61.400000000000148
 20
-61.999999999999972
 30
0.0
 10
61.400000000000148
 20
-55.599999999999973
 30
0.0
 10
91.400000000000034
 20
-55.599999999999973
 30
0.0
 10
91.400000000000034
 20
-61.999999999999972
 30
0.0
  0
LWPOLYLINE
  5
A0
  8
0
 62
256
370
-1
 48
1.0
  6
ByLayer
100
AcDbEntity
100
AcDbPolyline
 90
4
 70
19457
 10
61.400000000000091
 20
-239.99999999999994
 30
0.0
 10
61.400000000000091
 20
-233.59999999999997
 30
0.0
 10
91.400000000000091
 20
-233.59999999999997
 30
0.0
 10
91.400000000000091
 20
-239.99999999999994
 30
0.0
  0
LWPOLYLINE
  5
A1
  8
0
 62
256
370
-1
 48
1.0
  6
ByLayer
100
AcDbEntity
100
AcDbPolyline
 90
4
 70
19457
 10
6.4000000000000909
 20
-55.599999999999831
 30
0.0
 10
6.4000000000000341
 20
-45.599999999999902
 30
0.0
 10
12.800000000000068
 20
-45.599999999999902
 30
0.0
 10
12.800000000000068
 20
-55.599999999999831
 30
0.0
  0
LWPOLYLINE
  5
A2
  8
0
 62
256
370
-1
 48
1.0
  6
ByLayer
100
AcDbEntity
100
AcDbPolyline
 90
4
 70
19457
 10
210.00000000000011
 20
-55.599999999999831
 30
0.0
 10
210.00000000000011
 20
-45.599999999999895
 30
0.0
 10
216.40000000000009
 20
-45.599999999999895
 30
0.0
 10
216.40000000000009
 20
-55.599999999999831
 30
0.0
  0
LWPOLYLINE
  5
A3
  8
0
 62
256
370
-1
 48
1.0
  6
ByLayer
100
AcDbEntity
100
AcDbPolyline
 90
4
 70
19457
 10
131.39999999999986
 20
-239.99999999999994
 30
0.0
 10
131.39999999999986
 20
-233.59999999999997
 30
0.0
 10
161.39999999999998
 20
-233.59999999999997
 30
0.0
 10
161.39999999999998
 20
-239.99999999999994
 30
0.0
  0
LWPOLYLINE
  5
A4
  8
0
 62
256
370
-1
 48
1.0
  6
ByLayer
100
AcDbEntity
100
AcDbPolyline
 90
4
 70
19457
 10
131.39999999999998
 20
-61.999999999999986
 30
0.0
 10
131.39999999999998
 20
-55.599999999999973
 30
0.0
 10
161.39999999999998
 20
-55.599999999999973
 30
0.0
 10
161.39999999999998
 20
-61.999999999999972
 30
0.0
  0
CIRCLE
  5
A5
100
AcDbEntity
100
AcDbCircle
  8
0
 62
256
370
-1
 48
1.0
  6
ByLayer
 10
41.400000000000034
 20
-2.8000000000000114
 30
0.0
 40
1.6499999999999999
  0
CIRCLE
  5
A6
100
AcDbEntity
100
AcDbCircle
  8
0
 62
256
370
-1
 48
1.0
  6
ByLayer
 10
181.40000000000009
 20
-2.8000000000000114
 30
0.0
 40
1.6499999999999999
  0
CIRCLE
  5
A7
100
AcDbEntity
100
AcDbCircle
  8
0
 62
256
370
-1
 48
1.0
  6
ByLayer
 10
219.60000000000002
 20
-157.49999999999994
 30
0.0
 40
1.6499999999999999
  0
CIRCLE
  5
A8
100
AcDbEntity
100
AcDbCircle
  8
0
 62
256
370
-1
 48
1.0
  6
ByLayer
 10
219.60000000000002
 20
-213.74999999999994
 30
0.0
 40
1.6499999999999999
  0
CIRCLE
  5
A9
100
AcDbEntity
100
AcDbCircle
  8
0
 62
256
370
-1
 48
1.0
  6
ByLayer
 10
219.60000000000002
 20
-101.24999999999996
 30
0.0
 40
1.6499999999999999
  0
CIRCLE
  5
AA
100
AcDbEntity
100
AcDbCircle
  8
0
 62
256
370
-1
 48
1.0
  6
ByLayer
 10
41.399999999999977
 20
-236.79999999999995
 30
0.0
 40
1.6499999999999999
  0
CIRCLE
  5
AB
100
AcDbEntity
100
AcDbCircle
  8
0
 62
256
370
-1
 48
1.0
  6
ByLayer
 10
111.39999999999998
 20
-236.79999999999995
 30
0.0
 40
1.6499999999999999
  0
CIRCLE
  5
AC
100
AcDbEntity
100
AcDbCircle
  8
0
 62
256
370
-1
 48
1.0
  6
ByLayer
 10
181.39999999999986
 20
-236.79999999999995
 30
0.0
 40
1.6499999999999999
  0
CIRCLE
  5
AD
100
AcDbEntity
100
AcDbCircle
  8
0
 62
256
370
-1
 48
1.0
  6
ByLayer
 10
41.400000000000034
 20
-58.799999999999976
 30
0.0
 40
1.6499999999999999
  0
CIRCLE
  5
AE
100
AcDbEntity
100
AcDbCircle
  8
0
 62
256
370
-1
 48
1.0
  6
ByLayer
 10
111.40000000000003
 20
-58.799999999999969
 30
0.0
 40
1.6499999999999999
  0
CIRCLE
  5
AF
100
AcDbEntity
100
AcDbCircle
  8
0
 62
256
370
-1
 48
1.0
  6
ByLayer
 10
181.39999999999998
 20
-58.799999999999969
 30
0.0
 40
1.6499999999999999
  0
CIRCLE
  5
B0
100
AcDbEntity
100
AcDbCircle
  8
0
 62
256
370
-1
 48
1.0
  6
ByLayer
 10
9.6000000000000796
 20
-15.599999999999966
 30
0.0
 40
1.6499999999999999
  0
CIRCLE
  5
B1
100
AcDbEntity
100
AcDbCircle
  8
0
 62
256
370
-1
 48
1.0
  6
ByLayer
 10
213.20000000000005
 20
-15.599999999999966
 30
0.0
 40
1.6499999999999999
  0
ENDBLK
  5
B2
100
AcDbEntity
  8
0
100
AcDbBlockEnd
  0
ENDSEC
  0
SECTION
  2
ENTITIES
  0
CIRCLE
  5
B3
100
AcDbEntity
100
AcDbCircle
  8
0
 62
256
370
-1
 48
1.0
  6
ByLayer
 10
136.49666232439932
 20
-213.94587118870984
 30
0.0
 40
1.6499999999999999
  0
CIRCLE
  5
B4
100
AcDbEntity
100
AcDbCircle
  8
0
 62
256
370
-1
 48
1.0
  6
ByLayer
 10
180.49666232439947
 20
-162.9458711887099
 30
0.0
 40
1.6499999999999999
  0
CIRCLE
  5
B5
100
AcDbEntity
100
AcDbCircle
  8
0
 62
256
370
-1
 48
1.0
  6
ByLayer
 10
236.79666232439936
 20
-93.012537855376934
 30
0.0
 40
1.6499999999999999
  0
CIRCLE
  5
B6
100
AcDbEntity
100
AcDbCircle
  8
0
 62
256
370
-1
 48
1.0
  6
ByLayer
 10
236.79666232439939
 20
-179.67920452204316
 30
0.0
 40
1.6499999999999999
  0
CIRCLE
  5
B7
100
AcDbEntity
100
AcDbCircle
  8
0
 62
256
370
-1
 48
1.0
  6
ByLayer
 10
372.49666232439955
 20
-166.34587118870979
 30
0.0
 40
1.6499999999999999
  0
CIRCLE
  5
B8
100
AcDbEntity
100
AcDbCircle
  8
0
 62
256
370
-1
 48
1.0
  6
ByLayer
 10
372.49666232439961
 20
-216.34587118870979
 30
0.0
 40
1.6499999999999999
  0
CIRCLE
  5
B9
100
AcDbEntity
100
AcDbCircle
  8
0
 62
256
370
-1
 48
1.0
  6
ByLayer
 10
395.29666232439951
 20
-243.54587118870973
 30
0.0
 40
1.6499999999999999
  0
CIRCLE
  5
BA
100
AcDbEntity
100
AcDbCircle
  8
0
 62
256
370
-1
 48
1.0
  6
ByLayer
 10
453.19666232439965
 20
-93.012537855376848
 30
0.0
 40
1.6499999999999999
  0
CIRCLE
  5
BB
100
AcDbEntity
100
AcDbCircle
  8
0
 62
256
370
-1
 48
1.0
  6
ByLayer
 10
453.19666232439988
 20
-179.67920452204305
 30
0.0
 40
1.6499999999999999
  0
CIRCLE
  5
BC
100
AcDbEntity
100
AcDbCircle
  8
0
 62
256
370
-1
 48
1.0
  6
ByLayer
 10
631.19666232439965
 20
-93.012537855376365
 30
0.0
 40
1.6499999999999999
  0
CIRCLE
  5
BD
100
AcDbEntity
100
AcDbCircle
  8
0
 62
256
370
-1
 48
1.0
  6
ByLayer
 10
631.19666232439965
 20
-179.67920452204328
 30
0.0
 40
1.6499999999999999
  0
LINE
  5
BE
100
AcDbEntity
100
AcDbLine
  8
0
 62
256
370
-1
 48
1.0
  6
ByLayer
 10
375.29666232439956
 20
-246.34587118870974
 30
0.0
 11
375.29666232439956
 21
-266.34587118870979
 31
0.0
  0
LINE
  5
BF
100
AcDbEntity
100
AcDbLine
  8
0
 62
256
370
-1
 48
1.0
  6
ByLayer
 10
375.29666232439956
 20
-266.34587118870979
 30
0.0
 11
369.6966623243996
 21
-266.34587118870979
 31
0.0
  0
LINE
  5
C0
100
AcDbEntity
100
AcDbLine
  8
0
 62
256
370
-1
 48
1.0
  6
ByLayer
 10
369.6966623243996
 20
-266.34587118870979
 30
0.0
 11
369.69666232439965
 21
-246.34587118870982
 31
0.0
  0
LINE
  5
C1
100
AcDbEntity
100
AcDbLine
  8
0
 62
256
370
-1
 48
1.0
  6
ByLayer
 10
369.69666232439965
 20
-246.34587118870982
 30
0.0
 11
375.29666232439956
 21
-246.34587118870974
 31
0.0
  0
LINE
  5
C2
100
AcDbEntity
100
AcDbLine
  8
0
 62
256
370
-1
 48
1.0
  6
ByLayer
 10
244.59666232439901
 20
-94.662537855376911
 30
0.0
 11
239.99666232439961
 21
-94.662537855376911
 31
0.0
  0
LINE
  5
C3
100
AcDbEntity
100
AcDbLine
  8
0
 62
256
370
-1
 48
1.0
  6
ByLayer
 10
239.99666232439967
 20
-121.34587118870962
 30
0.0
 11
233.5966623243998
 21
-121.34587118870962
 31
0.0
  0
LINE
  5
C4
100
AcDbEntity
100
AcDbLine
  8
0
 62
256
370
-1
 48
1.0
  6
ByLayer
 10
239.99666232439961
 20
-178.02920452204302
 30
0.0
 11
244.59666232439952
 21
-178.02920452204302
 31
0.0
  0
LINE
  5
C5
100
AcDbEntity
100
AcDbLine
  8
0
 62
256
370
-1
 48
1.0
  6
ByLayer
 10
244.59666232439952
 20
-178.02920452204302
 30
0.0
 11
244.59666232439969
 21
-176.92920452204299
 31
0.0
  0
ARC
  5
C6
100
AcDbEntity
  8
0
 62
256
370
-1
 48
1.0
  6
ByLayer
100
AcDbCircle
 10
244.59666232439963
 20
-176.67920452204305
 30
0.0
 40
0.2499999999999431
100
AcDbArc
 50
0.0
 51
270.00000000001302
  0
LINE
  5
C7
100
AcDbEntity
100
AcDbLine
  8
0
 62
256
370
-1
 48
1.0
  6
ByLayer
 10
244.84666232439957
 20
-176.67920452204299
 30
0.0
 11
247.34666232439963
 21
-176.67920452204299
 31
0.0
  0
ARC
  5
C8
100
AcDbEntity
  8
0
 62
256
370
-1
 48
1.0
  6
ByLayer
100
AcDbCircle
 10
247.59666232439969
 20
-176.67920452204294
 30
0.0
 40
0.2500000000000426
100
AcDbArc
 50
270.00000000000654
 51
180.0
  0
LINE
  5
C9
100
AcDbEntity
100
AcDbLine
  8
0
 62
256
370
-1
 48
1.0
  6
ByLayer
 10
247.59666232439972
 20
-176.92920452204299
 30
0.0
 11
247.59666232439974
 21
-178.02920452204302
 31
0.0
  0
LINE
  5
CA
100
AcDbEntity
100
AcDbLine
  8
0
 62
256
370
-1
 48
1.0
  6
ByLayer
 10
247.59666232439974
 20
-178.02920452204302
 30
0.0
 11
249.59666232439974
 21
-178.02920452204302
 31
0.0
  0
LINE
  5
CB
100
AcDbEntity
100
AcDbLine
  8
0
 62
256
370
-1
 48
1.0
  6
ByLayer
 10
249.59666232439974
 20
-178.02920452204302
 30
0.0
 11
249.59666232439969
 21
-181.32920452204297
 31
0.0
  0
LINE
  5
CC
100
AcDbEntity
100
AcDbLine
  8
0
 62
256
370
-1
 48
1.0
  6
ByLayer
 10
249.59666232439969
 20
-181.32920452204297
 30
0.0
 11
247.5966623243998
 21
-181.329204522043
 31
0.0
  0
LINE
  5
CD
100
AcDbEntity
100
AcDbLine
  8
0
 62
256
370
-1
 48
1.0
  6
ByLayer
 10
247.5966623243998
 20
-181.329204522043
 30
0.0
 11
247.59666232439969
 21
-182.42920452204299
 31
0.0
  0
ARC
  5
CE
100
AcDbEntity
  8
0
 62
256
370
-1
 48
1.0
  6
ByLayer
100
AcDbCircle
 10
247.5966623243996
 20
-182.67920452204308
 30
0.0
 40
0.2500000000000853
100
AcDbArc
 50
180.0
 51
89.99999999998046
  0
LINE
  5
CF
100
AcDbEntity
100
AcDbLine
  8
0
 62
256
370
-1
 48
1.0
  6
ByLayer
 10
247.34666232439952
 20
-182.67920452204299
 30
0.0
 11
244.8466623243996
 21
-182.67920452204299
 31
0.0
  0
ARC
  5
D0
100
AcDbEntity
  8
0
 62
256
370
-1
 48
1.0
  6
ByLayer
100
AcDbCircle
 10
244.59666232439955
 20
-182.67920452204305
 30
0.0
 40
0.2500000000000568
100
AcDbArc
 50
90.000000000013031
 51
0.0
  0
LINE
  5
D1
100
AcDbEntity
100
AcDbLine
  8
0
 62
256
370
-1
 48
1.0
  6
ByLayer
 10
244.59666232439949
 20
-182.42920452204299
 30
0.0
 11
244.59666232439974
 21
-181.32920452204297
 31
0.0
  0
LINE
  5
D2
100
AcDbEntity
100
AcDbLine
  8
0
 62
256
370
-1
 48
1.0
  6
ByLayer
 10
244.59666232439974
 20
-181.32920452204297
 30
0.0
 11
239.99666232439961
 21
-181.32920452204297
 31
0.0
  0
LINE
  5
D3
100
AcDbEntity
100
AcDbLine
  8
0
 62
256
370
-1
 48
1.0
  6
ByLayer
 10
239.99666232439961
 20
-238.01253785537631
 30
0.0
 11
239.99666232439961
 21
-266.34587118870974
 31
0.0
  0
LINE
  5
D4
100
AcDbEntity
100
AcDbLine
  8
0
 62
256
370
-1
 48
1.0
  6
ByLayer
 10
239.99666232439961
 20
-266.34587118870974
 30
0.0
 11
273.34666232439957
 21
-266.34587118871002
 31
0.0
  0
LINE
  5
D5
100
AcDbEntity
100
AcDbLine
  8
0
 62
256
370
-1
 48
1.0
  6
ByLayer
 10
273.34666232439957
 20
-266.34587118871002
 30
0.0
 11
273.34666232439957
 21
-261.74587118871
 31
0.0
  0
LINE
  5
D6
100
AcDbEntity
100
AcDbLine
  8
0
 62
256
370
-1
 48
1.0
  6
ByLayer
 10
273.34666232439957
 20
-261.74587118871
 30
0.0
 11
272.24666232439955
 21
-261.74587118871005
 31
0.0
  0
ARC
  5
D7
100
AcDbEntity
  8
0
 62
256
370
-1
 48
1.0
  6
ByLayer
100
AcDbCircle
 10
271.99666232439955
 20
-261.74587118871005
 30
0.0
 40
0.25
100
AcDbArc
 50
90.0
 51
0.0
  0
LINE
  5
D8
100
AcDbEntity
100
AcDbLine
  8
0
 62
256
370
-1
 48
1.0
  6
ByLayer
 10
271.99666232439955
 20
-261.49587118871005
 30
0.0
 11
271.99666232439955
 21
-258.99587118871005
 31
0.0
  0
ARC
  5
D9
100
AcDbEntity
  8
0
 62
256
370
-1
 48
1.0
  6
ByLayer
100
AcDbCircle
 10
271.99666232439949
 20
-258.74587118871
 30
0.0
 40
0.2500000000000284
100
AcDbArc
 50
0.0
 51
270.00000000001302
  0
LINE
  5
DA
100
AcDbEntity
100
AcDbLine
  8
0
 62
256
370
-1
 48
1.0
  6
ByLayer
 10
272.24666232439955
 20
-258.74587118871
 30
0.0
 11
273.34666232439957
 21
-258.74587118871005
 31
0.0
  0
LINE
  5
DB
100
AcDbEntity
100
AcDbLine
  8
0
 62
256
370
-1
 48
1.0
  6
ByLayer
 10
273.34666232439957
 20
-258.74587118871005
 30
0.0
 11
273.34666232439957
 21
-256.74587118871005
 31
0.0
  0
LINE
  5
DC
100
AcDbEntity
100
AcDbLine
  8
0
 62
256
370
-1
 48
1.0
  6
ByLayer
 10
273.34666232439957
 20
-256.74587118871005
 30
0.0
 11
276.64666232439959
 21
-256.74587118871005
 31
0.0
  0
LINE
  5
DD
100
AcDbEntity
100
AcDbLine
  8
0
 62
256
370
-1
 48
1.0
  6
ByLayer
 10
276.64666232439959
 20
-256.74587118871005
 30
0.0
 11
276.64666232439959
 21
-258.74587118871005
 31
0.0
  0
LINE
  5
DE
100
AcDbEntity
100
AcDbLine
  8
0
 62
256
370
-1
 48
1.0
  6
ByLayer
 10
276.64666232439959
 20
-258.74587118871005
 30
0.0
 11
277.74666232439955
 21
-258.74587118871005
 31
0.0
  0
ARC
  5
DF
100
AcDbEntity
  8
0
 62
256
370
-1
 48
1.0
  6
ByLayer
100
AcDbCircle
 10
277.99666232439955
 20
-258.74587118871005
 30
0.0
 40
0.25
100
AcDbArc
 50
270.0
 51
180.0
  0
LINE
  5
E0
100
AcDbEntity
100
AcDbLine
  8
0
 62
256
370
-1
 48
1.0
  6
ByLayer
 10
277.99666232439955
 20
-258.99587118871005
 30
0.0
 11
277.99666232439955
 21
-261.49587118871005
 31
0.0
  0
ARC
  5
E1
100
AcDbEntity
  8
0
 62
256
370
-1
 48
1.0
  6
ByLayer
100
AcDbCircle
 10
277.99666232439955
 20
-261.74587118871005
 30
0.0
 40
0.25
100
AcDbArc
 50
180.0
 51
90.0
  0
LINE
  5
E2
100
AcDbEntity
100
AcDbLine
  8
0
 62
256
370
-1
 48
1.0
  6
ByLayer
 10
277.74666232439955
 20
-261.74587118871005
 30
0.0
 11
276.64666232439959
 21
-261.74587118871
 31
0.0
  0
LINE
  5
E3
100
AcDbEntity
100
AcDbLine
  8
0
 62
256
370
-1
 48
1.0
  6
ByLayer
 10
276.64666232439959
 20
-261.74587118871
 30
0.0
 11
276.64666232439959
 21
-266.34587118871002
 31
0.0
  0
LINE
  5
E4
100
AcDbEntity
100
AcDbLine
  8
0
 62
256
370
-1
 48
1.0
  6
ByLayer
 10
276.64666232439959
 20
-266.34587118871002
 30
0.0
 11
294.99666232439972
 21
-266.34587118870974
 31
0.0
  0
LINE
  5
E5
100
AcDbEntity
100
AcDbLine
  8
0
 62
256
370
-1
 48
1.0
  6
ByLayer
 10
294.99666232439972
 20
-266.34587118870974
 30
0.0
 11
294.99666232439972
 21
-272.74587118870977
 31
0.0
  0
LINE
  5
E6
100
AcDbEntity
100
AcDbLine
  8
0
 62
256
370
-1
 48
1.0
  6
ByLayer
 10
294.99666232439972
 20
-272.74587118870977
 30
0.0
 11
324.99666232439978
 21
-272.74587118870983
 31
0.0
  0
LINE
  5
E7
100
AcDbEntity
100
AcDbLine
  8
0
 62
256
370
-1
 48
1.0
  6
ByLayer
 10
324.99666232439978
 20
-272.74587118870983
 30
0.0
 11
324.99666232439978
 21
-266.34587118870974
 31
0.0
  0
LINE
  5
E8
100
AcDbEntity
100
AcDbLine
  8
0
 62
256
370
-1
 48
1.0
  6
ByLayer
 10
324.99666232439978
 20
-266.34587118870974
 30
0.0
 11
343.34666232439957
 21
-266.34587118871002
 31
0.0
  0
LINE
  5
E9
100
AcDbEntity
100
AcDbLine
  8
0
 62
256
370
-1
 48
1.0
  6
ByLayer
 10
343.34666232439957
 20
-266.34587118871002
 30
0.0
 11
343.34666232439957
 21
-261.74587118871
 31
0.0
  0
LINE
  5
EA
100
AcDbEntity
100
AcDbLine
  8
0
 62
256
370
-1
 48
1.0
  6
ByLayer
 10
343.34666232439957
 20
-261.74587118871
 30
0.0
 11
342.24666232439955
 21
-261.74587118871011
 31
0.0
  0
ARC
  5
EB
100
AcDbEntity
  8
0
 62
256
370
-1
 48
1.0
  6
ByLayer
100
AcDbCircle
 10
341.99666232439949
 20
-261.74587118871005
 30
0.0
 40
0.2500000000000568
100
AcDbArc
 50
89.999999999986969
 51
360.0
  0
LINE
  5
EC
100
AcDbEntity
100
AcDbLine
  8
0
 62
256
370
-1
 48
1.0
  6
ByLayer
 10
341.99666232439955
 20
-261.49587118871
 30
0.0
 11
341.99666232439955
 21
-258.99587118871011
 31
0.0
  0
ARC
  5
ED
100
AcDbEntity
  8
0
 62
256
370
-1
 48
1.0
  6
ByLayer
100
AcDbCircle
 10
341.99666232439949
 20
-258.74587118871011
 30
0.0
 40
0.2500000000000284
100
AcDbArc
 50
0.0
 51
270.00000000001302
  0
LINE
  5
EE
100
AcDbEntity
100
AcDbLine
  8
0
 62
256
370
-1
 48
1.0
  6
ByLayer
 10
342.24666232439955
 20
-258.74587118871005
 30
0.0
 11
343.34666232439957
 21
-258.74587118871011
 31
0.0
  0
LINE
  5
EF
100
AcDbEntity
100
AcDbLine
  8
0
 62
256
370
-1
 48
1.0
  6
ByLayer
 10
343.34666232439957
 20
-258.74587118871011
 30
0.0
 11
343.34666232439957
 21
-256.74587118871005
 31
0.0
  0
LINE
  5
F0
100
AcDbEntity
100
AcDbLine
  8
0
 62
256
370
-1
 48
1.0
  6
ByLayer
 10
343.34666232439957
 20
-256.74587118871005
 30
0.0
 11
346.64666232439959
 21
-256.74587118871011
 31
0.0
  0
LINE
  5
F1
100
AcDbEntity
100
AcDbLine
  8
0
 62
256
370
-1
 48
1.0
  6
ByLayer
 10
346.64666232439959
 20
-256.74587118871011
 30
0.0
 11
346.64666232439959
 21
-258.74587118871005
 31
0.0
  0
LINE
  5
F2
100
AcDbEntity
100
AcDbLine
  8
0
 62
256
370
-1
 48
1.0
  6
ByLayer
 10
346.64666232439959
 20
-258.74587118871005
 30
0.0
 11
347.74666232439955
 21
-258.74587118871011
 31
0.0
  0
ARC
  5
F3
100
AcDbEntity
  8
0
 62
256
370
-1
 48
1.0
  6
ByLayer
100
AcDbCircle
 10
347.99666232439949
 20
-258.74587118871011
 30
0.0
 40
0.2499999999999716
100
AcDbArc
 50
270.00000000001302
 51
180.0
  0
LINE
  5
F4
100
AcDbEntity
100
AcDbLine
  8
0
 62
256
370
-1
 48
1.0
  6
ByLayer
 10
347.99666232439955
 20
-258.99587118871005
 30
0.0
 11
347.99666232439955
 21
-261.49587118871005
 31
0.0
  0
ARC
  5
F5
100
AcDbEntity
  8
0
 62
256
370
-1
 48
1.0
  6
ByLayer
100
AcDbCircle
 10
347.99666232439955
 20
-261.74587118871005
 30
0.0
 40
0.25
100
AcDbArc
 50
180.0
 51
90.0
  0
LINE
  5
F6
100
AcDbEntity
100
AcDbLine
  8
0
 62
256
370
-1
 48
1.0
  6
ByLayer
 10
347.74666232439955
 20
-261.74587118871005
 30
0.0
 11
346.64666232439959
 21
-261.74587118871011
 31
0.0
  0
LINE
  5
F7
100
AcDbEntity
100
AcDbLine
  8
0
 62
256
370
-1
 48
1.0
  6
ByLayer
 10
346.64666232439959
 20
-261.74587118871011
 30
0.0
 11
346.64666232439959
 21
-266.34587118871002
 31
0.0
  0
LINE
  5
F8
100
AcDbEntity
100
AcDbLine
  8
0
 62
256
370
-1
 48
1.0
  6
ByLayer
 10
346.64666232439959
 20
-266.34587118871002
 30
0.0
 11
364.99666232439955
 21
-266.34587118870979
 31
0.0
  0
LINE
  5
F9
100
AcDbEntity
100
AcDbLine
  8
0
 62
256
370
-1
 48
1.0
  6
ByLayer
 10
364.99666232439955
 20
-266.34587118870979
 30
0.0
 11
364.99666232439955
 21
-272.74587118870977
 31
0.0
  0
LINE
  5
FA
100
AcDbEntity
100
AcDbLine
  8
0
 62
256
370
-1
 48
1.0
  6
ByLayer
 10
364.99666232439955
 20
-272.74587118870977
 30
0.0
 11
394.99666232439955
 21
-272.74587118870977
 31
0.0
  0
LINE
  5
FB
100
AcDbEntity
100
AcDbLine
  8
0
 62
256
370
-1
 48
1.0
  6
ByLayer
 10
394.99666232439955
 20
-272.74587118870977
 30
0.0
 11
394.99666232439955
 21
-266.34587118870979
 31
0.0
  0
LINE
  5
FC
100
AcDbEntity
100
AcDbLine
  8
0
 62
256
370
-1
 48
1.0
  6
ByLayer
 10
394.99666232439955
 20
-266.34587118870979
 30
0.0
 11
413.34666232439957
 21
-266.34587118871008
 31
0.0
  0
LINE
  5
FD
100
AcDbEntity
100
AcDbLine
  8
0
 62
256
370
-1
 48
1.0
  6
ByLayer
 10
413.34666232439957
 20
-266.34587118871008
 30
0.0
 11
413.34666232439957
 21
-261.74587118871005
 31
0.0
  0
LINE
  5
FE
100
AcDbEntity
100
AcDbLine
  8
0
 62
256
370
-1
 48
1.0
  6
ByLayer
 10
413.34666232439957
 20
-261.74587118871005
 30
0.0
 11
412.24666232439949
 21
-261.74587118871005
 31
0.0
  0
ARC
  5
FF
100
AcDbEntity
  8
0
 62
256
370
-1
 48
1.0
  6
ByLayer
100
AcDbCircle
 10
411.99666232439949
 20
-261.74587118871
 30
0.0
 40
0.2499999999999716
100
AcDbArc
 50
89.999999999986969
 51
360.0
  0
LINE
  5
100
100
AcDbEntity
100
AcDbLine
  8
0
 62
256
370
-1
 48
1.0
  6
ByLayer
 10
411.99666232439955
 20
-261.49587118871005
 30
0.0
 11
411.99666232439955
 21
-258.99587118871005
 31
0.0
  0
ARC
  5
101
100
AcDbEntity
  8
0
 62
256
370
-1
 48
1.0
  6
ByLayer
100
AcDbCircle
 10
411.99666232439961
 20
-258.74587118871011
 30
0.0
 40
0.2499999999999431
100
AcDbArc
 50
360.0
 51
269.99999999998698
  0
LINE
  5
102
100
AcDbEntity
100
AcDbLine
  8
0
 62
256
370
-1
 48
1.0
  6
ByLayer
 10
412.24666232439955
 20
-258.74587118871017
 30
0.0
 11
413.34666232439963
 21
-258.74587118871011
 31
0.0
  0
LINE
  5
103
100
AcDbEntity
100
AcDbLine
  8
0
 62
256
370
-1
 48
1.0
  6
ByLayer
 10
413.34666232439963
 20
-258.74587118871011
 30
0.0
 11
413.34666232439957
 21
-256.74587118871005
 31
0.0
  0
LINE
  5
104
100
AcDbEntity
100
AcDbLine
  8
0
 62
256
370
-1
 48
1.0
  6
ByLayer
 10
413.34666232439957
 20
-256.74587118871005
 30
0.0
 11
416.64666232439953
 21
-256.74587118871011
 31
0.0
  0
LINE
  5
105
100
AcDbEntity
100
AcDbLine
  8
0
 62
256
370
-1
 48
1.0
  6
ByLayer
 10
416.64666232439953
 20
-256.74587118871011
 30
0.0
 11
416.64666232439953
 21
-258.74587118871011
 31
0.0
  0
LINE
  5
106
100
AcDbEntity
100
AcDbLine
  8
0
 62
256
370
-1
 48
1.0
  6
ByLayer
 10
416.64666232439953
 20
-258.74587118871011
 30
0.0
 11
417.74666232439955
 21
-258.74587118871
 31
0.0
  0
ARC
  5
107
100
AcDbEntity
  8
0
 62
256
370
-1
 48
1.0
  6
ByLayer
100
AcDbCircle
 10
417.99666232439955
 20
-258.74587118871
 30
0.0
 40
0.25
100
AcDbArc
 50
270.0
 51
180.0
  0
LINE
  5
108
100
AcDbEntity
100
AcDbLine
  8
0
 62
256
370
-1
 48
1.0
  6
ByLayer
 10
417.99666232439955
 20
-258.99587118871
 30
0.0
 11
417.99666232439949
 21
-261.49587118871005
 31
0.0
  0
ARC
  5
109
100
AcDbEntity
  8
0
 62
256
370
-1
 48
1.0
  6
ByLayer
100
AcDbCircle
 10
417.99666232439949
 20
-261.74587118871011
 30
0.0
 40
0.25
100
AcDbArc
 50
180.0
 51
90.0
  0
LINE
  5
10A
100
AcDbEntity
100
AcDbLine
  8
0
 62
256
370
-1
 48
1.0
  6
ByLayer
 10
417.74666232439955
 20
-261.74587118871011
 30
0.0
 11
416.64666232439947
 21
-261.74587118871005
 31
0.0
  0
LINE
  5
10B
100
AcDbEntity
100
AcDbLine
  8
0
 62
256
370
-1
 48
1.0
  6
ByLayer
 10
416.64666232439947
 20
-261.74587118871005
 30
0.0
 11
416.64666232439953
 21
-266.34587118871008
 31
0.0
  0
LINE
  5
10C
100
AcDbEntity
100
AcDbLine
  8
0
 62
256
370
-1
 48
1.0
  6
ByLayer
 10
416.64666232439953
 20
-266.34587118871008
 30
0.0
 11
449.99666232439967
 21
-266.34587118870979
 31
0.0
  0
LINE
  5
10D
100
AcDbEntity
100
AcDbLine
  8
0
 62
256
370
-1
 48
1.0
  6
ByLayer
 10
456.39666232439981
 20
-238.01253785537642
 30
0.0
 11
456.39666232439976
 21
-208.01253785537642
 31
0.0
  0
LINE
  5
10E
100
AcDbEntity
100
AcDbLine
  8
0
 62
256
370
-1
 48
1.0
  6
ByLayer
 10
449.99666232439972
 20
-181.32920452204309
 30
0.0
 11
445.39666232439981
 21
-181.32920452204303
 31
0.0
  0
LINE
  5
10F
100
AcDbEntity
100
AcDbLine
  8
0
 62
256
370
-1
 48
1.0
  6
ByLayer
 10
445.39666232439981
 20
-181.32920452204303
 30
0.0
 11
445.39666232439981
 21
-182.42920452204316
 31
0.0
  0
ARC
  5
110
100
AcDbEntity
  8
0
 62
256
370
-1
 48
1.0
  6
ByLayer
100
AcDbCircle
 10
445.39666232439964
 20
-182.67920452204311
 30
0.0
 40
0.2499999999999431
100
AcDbArc
 50
180.0
 51
89.99999999996092
  0
LINE
  5
111
100
AcDbEntity
100
AcDbLine
  8
0
 62
256
370
-1
 48
1.0
  6
ByLayer
 10
445.1466623243997
 20
-182.67920452204294
 30
0.0
 11
442.64666232439964
 21
-182.67920452204305
 31
0.0
  0
ARC
  5
112
100
AcDbEntity
  8
0
 62
256
370
-1
 48
1.0
  6
ByLayer
100
AcDbCircle
 10
442.39666232439976
 20
-182.67920452204308
 30
0.0
 40
0.2499999999999289
100
AcDbArc
 50
90.000000000013031
 51
0.0
  0
LINE
  5
113
100
AcDbEntity
100
AcDbLine
  8
0
 62
256
370
-1
 48
1.0
  6
ByLayer
 10
442.3966623243997
 20
-182.42920452204314
 30
0.0
 11
442.3966623243997
 21
-181.32920452204309
 31
0.0
  0
LINE
  5
114
100
AcDbEntity
100
AcDbLine
  8
0
 62
256
370
-1
 48
1.0
  6
ByLayer
 10
442.3966623243997
 20
-181.32920452204309
 30
0.0
 11
440.39666232439959
 21
-181.32920452204297
 31
0.0
  0
LINE
  5
115
100
AcDbEntity
100
AcDbLine
  8
0
 62
256
370
-1
 48
1.0
  6
ByLayer
 10
440.39666232439959
 20
-181.32920452204297
 30
0.0
 11
440.39666232439964
 21
-178.02920452204302
 31
0.0
  0
LINE
  5
116
100
AcDbEntity
100
AcDbLine
  8
0
 62
256
370
-1
 48
1.0
  6
ByLayer
 10
440.39666232439964
 20
-178.02920452204302
 30
0.0
 11
442.3966623243997
 21
-178.02920452204313
 31
0.0
  0
LINE
  5
117
100
AcDbEntity
100
AcDbLine
  8
0
 62
256
370
-1
 48
1.0
  6
ByLayer
 10
442.3966623243997
 20
-178.02920452204313
 30
0.0
 11
442.3966623243997
 21
-176.92920452204311
 31
0.0
  0
ARC
  5
118
100
AcDbEntity
  8
0
 62
256
370
-1
 48
1.0
  6
ByLayer
100
AcDbCircle
 10
442.39666232439964
 20
-176.67920452204308
 30
0.0
 40
0.2500000000000284
100
AcDbArc
 50
0.0
 51
270.00000000001302
  0
LINE
  5
119
100
AcDbEntity
100
AcDbLine
  8
0
 62
256
370
-1
 48
1.0
  6
ByLayer
 10
442.64666232439964
 20
-176.67920452204299
 30
0.0
 11
445.14666232439981
 21
-176.67920452204314
 31
0.0
  0
ARC
  5
11A
100
AcDbEntity
  8
0
 62
256
370
-1
 48
1.0
  6
ByLayer
100
AcDbCircle
 10
445.39666232439981
 20
-176.67920452204311
 30
0.0
 40
0.2499999999999858
100
AcDbArc
 50
270.0
 51
180.0
  0
LINE
  5
11B
100
AcDbEntity
100
AcDbLine
  8
0
 62
256
370
-1
 48
1.0
  6
ByLayer
 10
445.39666232439981
 20
-176.92920452204311
 30
0.0
 11
445.39666232439981
 21
-178.02920452204302
 31
0.0
  0
LINE
  5
11C
100
AcDbEntity
100
AcDbLine
  8
0
 62
256
370
-1
 48
1.0
  6
ByLayer
 10
445.39666232439981
 20
-178.02920452204302
 30
0.0
 11
449.99666232439972
 21
-178.02920452204313
 31
0.0
  0
LINE
  5
11D
100
AcDbEntity
100
AcDbLine
  8
0
 62
256
370
-1
 48
1.0
  6
ByLayer
 10
449.99666232439972
 20
-151.34587118870974
 30
0.0
 11
456.39666232439981
 21
-151.34587118870979
 31
0.0
  0
LINE
  5
11E
100
AcDbEntity
100
AcDbLine
  8
0
 62
256
370
-1
 48
1.0
  6
ByLayer
 10
456.39666232439981
 20
-151.34587118870979
 30
0.0
 11
456.39666232439981
 21
-121.34587118870971
 31
0.0
  0
LINE
  5
11F
100
AcDbEntity
100
AcDbLine
  8
0
 62
256
370
-1
 48
1.0
  6
ByLayer
 10
449.99666232439961
 20
-94.662537855376939
 30
0.0
 11
445.39666232439981
 21
-94.662537855376939
 31
0.0
  0
LINE
  5
120
100
AcDbEntity
100
AcDbLine
  8
0
 62
256
370
-1
 48
1.0
  6
ByLayer
 10
445.39666232439981
 20
-94.662537855376939
 30
0.0
 11
445.39666232439981
 21
-95.762537855376962
 31
0.0
  0
ARC
  5
121
100
AcDbEntity
  8
0
 62
256
370
-1
 48
1.0
  6
ByLayer
100
AcDbCircle
 10
445.39666232439976
 20
-96.012537855376934
 30
0.0
 40
0.2499999999999716
100
AcDbArc
 50
180.0
 51
89.999999999986969
  0
LINE
  5
122
100
AcDbEntity
100
AcDbLine
  8
0
 62
256
370
-1
 48
1.0
  6
ByLayer
 10
445.14666232439976
 20
-96.012537855376848
 30
0.0
 11
442.6466623243997
 21
-96.012537855376905
 31
0.0
  0
ARC
  5
123
100
AcDbEntity
  8
0
 62
256
370
-1
 48
1.0
  6
ByLayer
100
AcDbCircle
 10
442.3966623243997
 20
-96.012537855376905
 30
0.0
 40
0.25
100
AcDbArc
 50
90.0
 51
0.0
  0
LINE
  5
124
100
AcDbEntity
100
AcDbLine
  8
0
 62
256
370
-1
 48
1.0
  6
ByLayer
 10
442.3966623243997
 20
-95.762537855376905
 30
0.0
 11
442.39666232439981
 21
-94.662537855377053
 31
0.0
  0
LINE
  5
125
100
AcDbEntity
100
AcDbLine
  8
0
 62
256
370
-1
 48
1.0
  6
ByLayer
 10
442.39666232439981
 20
-94.662537855377053
 30
0.0
 11
440.3966623243997
 21
-94.662537855376939
 31
0.0
  0
LINE
  5
126
100
AcDbEntity
100
AcDbLine
  8
0
 62
256
370
-1
 48
1.0
  6
ByLayer
 10
440.3966623243997
 20
-94.662537855376939
 30
0.0
 11
440.3966623243997
 21
-91.362537855376956
 31
0.0
  0
LINE
  5
127
100
AcDbEntity
100
AcDbLine
  8
0
 62
256
370
-1
 48
1.0
  6
ByLayer
 10
440.3966623243997
 20
-91.362537855376956
 30
0.0
 11
442.39666232439976
 21
-91.362537855376985
 31
0.0
  0
LINE
  5
128
100
AcDbEntity
100
AcDbLine
  8
0
 62
256
370
-1
 48
1.0
  6
ByLayer
 10
442.39666232439976
 20
-91.362537855376985
 30
0.0
 11
442.39666232439976
 21
-90.262537855376991
 31
0.0
  0
ARC
  5
129
100
AcDbEntity
  8
0
 62
256
370
-1
 48
1.0
  6
ByLayer
100
AcDbCircle
 10
442.39666232439964
 20
-90.012537855376991
 30
0.0
 40
0.25
100
AcDbArc
 50
0.0
 51
270.00000000002603
  0
LINE
  5
12A
100
AcDbEntity
100
AcDbLine
  8
0
 62
256
370
-1
 48
1.0
  6
ByLayer
 10
442.64666232439964
 20
-90.012537855376877
 30
0.0
 11
445.14666232439981
 21
-90.012537855376962
 31
0.0
  0
ARC
  5
12B
100
AcDbEntity
  8
0
 62
256
370
-1
 48
1.0
  6
ByLayer
100
AcDbCircle
 10
445.39666232439976
 20
-90.01253785537692
 30
0.0
 40
0.2499999999999573
100
AcDbArc
 50
270.00000000001302
 51
180.0
  0
LINE
  5
12C
100
AcDbEntity
100
AcDbLine
  8
0
 62
256
370
-1
 48
1.0
  6
ByLayer
 10
445.39666232439981
 20
-90.262537855376877
 30
0.0
 11
445.3966623243997
 21
-91.3625378553769
 31
0.0
  0
LINE
  5
12D
100
AcDbEntity
100
AcDbLine
  8
0
 62
256
370
-1
 48
1.0
  6
ByLayer
 10
445.3966623243997
 20
-91.3625378553769
 30
0.0
 11
449.99666232439961
 21
-91.3625378553769
 31
0.0
  0
LINE
  5
12E
100
AcDbEntity
100
AcDbLine
  8
0
 62
256
370
-1
 48
1.0
  6
ByLayer
 10
456.3966623243997
 20
-64.679204522043221
 30
0.0
 11
456.3966623243997
 21
-34.679204522043221
 31
0.0
  0
LINE
  5
12F
100
AcDbEntity
100
AcDbLine
  8
0
 62
256
370
-1
 48
1.0
  6
ByLayer
 10
456.3966623243997
 20
-34.679204522043221
 30
0.0
 11
449.99666232439972
 21
-34.679204522043278
 31
0.0
  0
LINE
  5
130
100
AcDbEntity
100
AcDbLine
  8
0
 62
256
370
-1
 48
1.0
  6
ByLayer
 10
449.99666232439972
 20
-34.679204522043278
 30
0.0
 11
449.99666232439972
 21
-6.3458711887096797
 31
0.0
  0
LINE
  5
131
100
AcDbEntity
100
AcDbLine
  8
0
 62
256
370
-1
 48
1.0
  6
ByLayer
 10
449.99666232439972
 20
-6.3458711887096797
 30
0.0
 11
416.64666232439947
 21
-6.3458711887097365
 31
0.0
  0
LINE
  5
132
100
AcDbEntity
100
AcDbLine
  8
0
 62
256
370
-1
 48
1.0
  6
ByLayer
 10
416.64666232439947
 20
-6.3458711887097365
 30
0.0
 11
416.6466623243997
 21
-10.945871188709873
 31
0.0
  0
LINE
  5
133
100
AcDbEntity
100
AcDbLine
  8
0
 62
256
370
-1
 48
1.0
  6
ByLayer
 10
416.6466623243997
 20
-10.945871188709873
 30
0.0
 11
417.74666232439967
 21
-10.945871188709845
 31
0.0
  0
ARC
  5
134
100
AcDbEntity
  8
0
 62
256
370
-1
 48
1.0
  6
ByLayer
100
AcDbCircle
 10
417.99666232439967
 20
-10.945871188709845
 30
0.0
 40
0.25
100
AcDbArc
 50
270.0
 51
180.0
  0
LINE
  5
135
100
AcDbEntity
100
AcDbLine
  8
0
 62
256
370
-1
 48
1.0
  6
ByLayer
 10
417.99666232439967
 20
-11.195871188709845
 30
0.0
 11
417.99666232439972
 21
-13.695871188709845
 31
0.0
  0
ARC
  5
136
100
AcDbEntity
  8
0
 62
256
370
-1
 48
1.0
  6
ByLayer
100
AcDbCircle
 10
417.99666232439967
 20
-13.945871188709901
 30
0.0
 40
0.2500000000000568
100
AcDbArc
 50
180.0
 51
89.999999999986969
  0
LINE
  5
137
100
AcDbEntity
100
AcDbLine
  8
0
 62
256
370
-1
 48
1.0
  6
ByLayer
 10
417.74666232439961
 20
-13.945871188709845
 30
0.0
 11
416.64666232439959
 21
-13.945871188709845
 31
0.0
  0
LINE
  5
138
100
AcDbEntity
100
AcDbLine
  8
0
 62
256
370
-1
 48
1.0
  6
ByLayer
 10
416.64666232439959
 20
-13.945871188709845
 30
0.0
 11
416.64666232439959
 21
-15.945871188709731
 31
0.0
  0
LINE
  5
139
100
AcDbEntity
100
AcDbLine
  8
0
 62
256
370
-1
 48
1.0
  6
ByLayer
 10
416.64666232439959
 20
-15.945871188709731
 30
0.0
 11
413.34666232439974
 21
-15.945871188709873
 31
0.0
  0
LINE
  5
13A
100
AcDbEntity
100
AcDbLine
  8
0
 62
256
370
-1
 48
1.0
  6
ByLayer
 10
413.34666232439974
 20
-15.945871188709873
 30
0.0
 11
413.34666232439974
 21
-13.945871188709845
 31
0.0
  0
LINE
  5
13B
100
AcDbEntity
100
AcDbLine
  8
0
 62
256
370
-1
 48
1.0
  6
ByLayer
 10
413.34666232439974
 20
-13.945871188709845
 30
0.0
 11
412.24666232439955
 21
-13.945871188709759
 31
0.0
  0
ARC
  5
13C
100
AcDbEntity
  8
0
 62
256
370
-1
 48
1.0
  6
ByLayer
100
AcDbCircle
 10
411.99666232439967
 20
-13.945871188709702
 30
0.0
 40
0.2499999999998863
100
AcDbArc
 50
89.999999999986969
 51
360.0
  0
LINE
  5
13D
100
AcDbEntity
100
AcDbLine
  8
0
 62
256
370
-1
 48
1.0
  6
ByLayer
 10
411.99666232439972
 20
-13.695871188709816
 30
0.0
 11
411.99666232439972
 21
-11.195871188709845
 31
0.0
  0
ARC
  5
13E
100
AcDbEntity
  8
0
 62
256
370
-1
 48
1.0
  6
ByLayer
100
AcDbCircle
 10
411.99666232439967
 20
-10.945871188709887
 30
0.0
 40
0.2499999999999573
100
AcDbArc
 50
0.0
 51
270.00000000001302
  0
LINE
  5
13F
100
AcDbEntity
100
AcDbLine
  8
0
 62
256
370
-1
 48
1.0
  6
ByLayer
 10
412.24666232439961
 20
-10.945871188709816
 30
0.0
 11
413.34666232439963
 21
-10.945871188709845
 31
0.0
  0
LINE
  5
140
100
AcDbEntity
100
AcDbLine
  8
0
 62
256
370
-1
 48
1.0
  6
ByLayer
 10
413.34666232439963
 20
-10.945871188709845
 30
0.0
 11
413.34666232439974
 21
-6.3458711887099071
 31
0.0
  0
LINE
  5
141
100
AcDbEntity
100
AcDbLine
  8
0
 62
256
370
-1
 48
1.0
  6
ByLayer
 10
413.34666232439974
 20
-6.3458711887099071
 30
0.0
 11
394.99666232439949
 21
-6.3458711887098502
 31
0.0
  0
LINE
  5
142
100
AcDbEntity
100
AcDbLine
  8
0
 62
256
370
-1
 48
1.0
  6
ByLayer
 10
394.99666232439949
 20
-6.3458711887098502
 30
0.0
 11
394.99666232439967
 21
0.054128811290127
 31
0.0
  0
LINE
  5
143
100
AcDbEntity
100
AcDbLine
  8
0
 62
256
370
-1
 48
1.0
  6
ByLayer
 10
394.99666232439967
 20
0.054128811290127
 30
0.0
 11
364.99666232439949
 21
0.0541288112901839
 31
0.0
  0
LINE
  5
144
100
AcDbEntity
100
AcDbLine
  8
0
 62
256
370
-1
 48
1.0
  6
ByLayer
 10
364.99666232439949
 20
0.0541288112901839
 30
0.0
 11
364.99666232439949
 21
-6.3458711887097934
 31
0.0
  0
LINE
  5
145
100
AcDbEntity
100
AcDbLine
  8
0
 62
256
370
-1
 48
1.0
  6
ByLayer
 10
364.99666232439949
 20
-6.3458711887097934
 30
0.0
 11
346.64666232439953
 21
-6.3458711887097934
 31
0.0
  0
LINE
  5
146
100
AcDbEntity
100
AcDbLine
  8
0
 62
256
370
-1
 48
1.0
  6
ByLayer
 10
346.64666232439953
 20
-6.3458711887097934
 30
0.0
 11
346.64666232439964
 21
-10.945871188709816
 31
0.0
  0
LINE
  5
147
100
AcDbEntity
100
AcDbLine
  8
0
 62
256
370
-1
 48
1.0
  6
ByLayer
 10
346.64666232439964
 20
-10.945871188709816
 30
0.0
 11
347.74666232439961
 21
-10.945871188709788
 31
0.0
  0
ARC
  5
148
100
AcDbEntity
  8
0
 62
256
370
-1
 48
1.0
  6
ByLayer
100
AcDbCircle
 10
347.99666232439961
 20
-10.945871188709773
 30
0.0
 40
0.2499999999999858
100
AcDbArc
 50
270.0
 51
180.0
  0
LINE
  5
149
100
AcDbEntity
100
AcDbLine
  8
0
 62
256
370
-1
 48
1.0
  6
ByLayer
 10
347.99666232439961
 20
-11.195871188709759
 30
0.0
 11
347.99666232439967
 21
-13.695871188709816
 31
0.0
  0
ARC
  5
14A
100
AcDbEntity
  8
0
 62
256
370
-1
 48
1.0
  6
ByLayer
100
AcDbCircle
 10
347.99666232439967
 20
-13.945871188709802
 30
0.0
 40
0.2499999999999858
100
AcDbArc
 50
180.0
 51
90.0
  0
LINE
  5
14B
100
AcDbEntity
100
AcDbLine
  8
0
 62
256
370
-1
 48
1.0
  6
ByLayer
 10
347.74666232439967
 20
-13.945871188709788
 30
0.0
 11
346.6466623243997
 21
-13.945871188709816
 31
0.0
  0
LINE
  5
14C
100
AcDbEntity
100
AcDbLine
  8
0
 62
256
370
-1
 48
1.0
  6
ByLayer
 10
346.6466623243997
 20
-13.945871188709816
 30
0.0
 11
346.64666232439959
 21
-15.945871188709788
 31
0.0
  0
LINE
  5
14D
100
AcDbEntity
100
AcDbLine
  8
0
 62
256
370
-1
 48
1.0
  6
ByLayer
 10
346.64666232439959
 20
-15.945871188709788
 30
0.0
 11
343.34666232439963
 21
-15.945871188709759
 31
0.0
  0
LINE
  5
14E
100
AcDbEntity
100
AcDbLine
  8
0
 62
256
370
-1
 48
1.0
  6
ByLayer
 10
343.34666232439963
 20
-15.945871188709759
 30
0.0
 11
343.34666232439952
 21
-13.945871188709759
 31
0.0
  0
LINE
  5
14F
100
AcDbEntity
100
AcDbLine
  8
0
 62
256
370
-1
 48
1.0
  6
ByLayer
 10
343.34666232439952
 20
-13.945871188709759
 30
0.0
 11
342.24666232439967
 21
-13.945871188709816
 31
0.0
  0
ARC
  5
150
100
AcDbEntity
  8
0
 62
256
370
-1
 48
1.0
  6
ByLayer
100
AcDbCircle
 10
341.99666232439972
 20
-13.945871188709802
 30
0.0
 40
0.2499999999999573
100
AcDbArc
 50
90.0
 51
360.0
  0
LINE
  5
151
100
AcDbEntity
100
AcDbLine
  8
0
 62
256
370
-1
 48
1.0
  6
ByLayer
 10
341.99666232439972
 20
-13.695871188709845
 30
0.0
 11
341.99666232439972
 21
-11.195871188709816
 31
0.0
  0
ARC
  5
152
100
AcDbEntity
  8
0
 62
256
370
-1
 48
1.0
  6
ByLayer
100
AcDbCircle
 10
341.99666232439967
 20
-10.945871188709873
 30
0.0
 40
0.2499999999999431
100
AcDbArc
 50
0.0
 51
270.00000000001302
  0
LINE
  5
153
100
AcDbEntity
100
AcDbLine
  8
0
 62
256
370
-1
 48
1.0
  6
ByLayer
 10
342.24666232439961
 20
-10.945871188709816
 30
0.0
 11
343.34666232439952
 21
-10.945871188709759
 31
0.0
  0
LINE
  5
154
100
AcDbEntity
100
AcDbLine
  8
0
 62
256
370
-1
 48
1.0
  6
ByLayer
 10
343.34666232439952
 20
-10.945871188709759
 30
0.0
 11
343.34666232439974
 21
-6.3458711887097365
 31
0.0
  0
LINE
  5
155
100
AcDbEntity
100
AcDbLine
  8
0
 62
256
370
-1
 48
1.0
  6
ByLayer
 10
343.34666232439974
 20
-6.3458711887097365
 30
0.0
 11
324.99666232439961
 21
-6.3458711887097934
 31
0.0
  0
LINE
  5
156
100
AcDbEntity
100
AcDbLine
  8
0
 62
256
370
-1
 48
1.0
  6
ByLayer
 10
324.99666232439961
 20
-6.3458711887097934
 30
0.0
 11
324.99666232439978
 21
0.0541288112902407
 31
0.0
  0
LINE
  5
157
100
AcDbEntity
100
AcDbLine
  8
0
 62
256
370
-1
 48
1.0
  6
ByLayer
 10
324.99666232439978
 20
0.0541288112902407
 30
0.0
 11
294.99666232439967
 21
0.054128811290127
 31
0.0
  0
LINE
  5
158
100
AcDbEntity
100
AcDbLine
  8
0
 62
256
370
-1
 48
1.0
  6
ByLayer
 10
294.99666232439967
 20
0.054128811290127
 30
0.0
 11
294.99666232439955
 21
-6.3458711887099071
 31
0.0
  0
LINE
  5
159
100
AcDbEntity
100
AcDbLine
  8
0
 62
256
370
-1
 48
1.0
  6
ByLayer
 10
294.99666232439955
 20
-6.3458711887099071
 30
0.0
 11
276.64666232439964
 21
-6.3458711887097934
 31
0.0
  0
LINE
  5
15A
100
AcDbEntity
100
AcDbLine
  8
0
 62
256
370
-1
 48
1.0
  6
ByLayer
 10
276.64666232439964
 20
-6.3458711887097934
 30
0.0
 11
276.64666232439976
 21
-10.945871188709759
 31
0.0
  0
LINE
  5
15B
100
AcDbEntity
100
AcDbLine
  8
0
 62
256
370
-1
 48
1.0
  6
ByLayer
 10
276.64666232439976
 20
-10.945871188709759
 30
0.0
 11
277.74666232439984
 21
-10.945871188709759
 31
0.0
  0
ARC
  5
15C
100
AcDbEntity
  8
0
 62
256
370
-1
 48
1.0
  6
ByLayer
100
AcDbCircle
 10
277.99666232439984
 20
-10.945871188709759
 30
0.0
 40
0.25
100
AcDbArc
 50
270.0
 51
180.0
  0
LINE
  5
15D
100
AcDbEntity
100
AcDbLine
  8
0
 62
256
370
-1
 48
1.0
  6
ByLayer
 10
277.99666232439984
 20
-11.195871188709759
 30
0.0
 11
277.99666232439972
 21
-13.695871188709788
 31
0.0
  0
ARC
  5
15E
100
AcDbEntity
  8
0
 62
256
370
-1
 48
1.0
  6
ByLayer
100
AcDbCircle
 10
277.99666232439967
 20
-13.94587118870983
 30
0.0
 40
0.2500000000000426
100
AcDbArc
 50
180.0
 51
89.999999999986969
  0
LINE
  5
15F
100
AcDbEntity
100
AcDbLine
  8
0
 62
256
370
-1
 48
1.0
  6
ByLayer
 10
277.74666232439961
 20
-13.945871188709759
 30
0.0
 11
276.64666232439947
 21
-13.945871188709759
 31
0.0
  0
LINE
  5
160
100
AcDbEntity
100
AcDbLine
  8
0
 62
256
370
-1
 48
1.0
  6
ByLayer
 10
276.64666232439947
 20
-13.945871188709759
 30
0.0
 11
276.6466623243997
 21
-15.945871188709788
 31
0.0
  0
LINE
  5
161
100
AcDbEntity
100
AcDbLine
  8
0
 62
256
370
-1
 48
1.0
  6
ByLayer
 10
276.6466623243997
 20
-15.945871188709788
 30
0.0
 11
273.34666232439963
 21
-15.945871188709759
 31
0.0
  0
LINE
  5
162
100
AcDbEntity
100
AcDbLine
  8
0
 62
256
370
-1
 48
1.0
  6
ByLayer
 10
273.34666232439963
 20
-15.945871188709759
 30
0.0
 11
273.34666232439952
 21
-13.945871188709759
 31
0.0
  0
LINE
  5
163
100
AcDbEntity
100
AcDbLine
  8
0
 62
256
370
-1
 48
1.0
  6
ByLayer
 10
273.34666232439952
 20
-13.945871188709759
 30
0.0
 11
272.24666232439944
 21
-13.945871188709788
 31
0.0
  0
ARC
  5
164
100
AcDbEntity
  8
0
 62
256
370
-1
 48
1.0
  6
ByLayer
100
AcDbCircle
 10
271.99666232439967
 20
-13.94587118870956
 30
0.0
 40
0.2499999999997726
100
AcDbArc
 50
89.999999999947889
 51
360.0
  0
LINE
  5
165
100
AcDbEntity
100
AcDbLine
  8
0
 62
256
370
-1
 48
1.0
  6
ByLayer
 10
271.99666232439989
 20
-13.695871188709788
 30
0.0
 11
271.99666232439978
 21
-11.195871188709759
 31
0.0
  0
ARC
  5
166
100
AcDbEntity
  8
0
 62
256
370
-1
 48
1.0
  6
ByLayer
100
AcDbCircle
 10
271.99666232439972
 20
-10.945871188709816
 30
0.0
 40
0.2499999999999431
100
AcDbArc
 50
0.0
 51
270.00000000001302
  0
LINE
  5
167
100
AcDbEntity
100
AcDbLine
  8
0
 62
256
370
-1
 48
1.0
  6
ByLayer
 10
272.24666232439967
 20
-10.945871188709759
 30
0.0
 11
273.34666232439957
 21
-10.945871188709788
 31
0.0
  0
LINE
  5
168
100
AcDbEntity
100
AcDbLine
  8
0
 62
256
370
-1
 48
1.0
  6
ByLayer
 10
273.34666232439957
 20
-10.945871188709788
 30
0.0
 11
273.34666232439963
 21
-6.3458711887097934
 31
0.0
  0
LINE
  5
169
100
AcDbEntity
100
AcDbLine
  8
0
 62
256
370
-1
 48
1.0
  6
ByLayer
 10
273.34666232439963
 20
-6.3458711887097934
 30
0.0
 11
239.99666232439969
 21
-6.3458711887096797
 31
0.0
  0
LINE
  5
16A
100
AcDbEntity
100
AcDbLine
  8
0
 62
256
370
-1
 48
1.0
  6
ByLayer
 10
233.59666232439943
 20
-34.679204522043221
 30
0.0
 11
233.59666232439986
 21
-64.679204522043221
 31
0.0
  0
LINE
  5
16B
100
AcDbEntity
100
AcDbLine
  8
0
 62
256
370
-1
 48
1.0
  6
ByLayer
 10
233.59666232439986
 20
-64.679204522043221
 30
0.0
 11
239.99666232439967
 21
-64.679204522043221
 31
0.0
  0
LINE
  5
16C
100
AcDbEntity
100
AcDbLine
  8
0
 62
256
370
-1
 48
1.0
  6
ByLayer
 10
239.99666232439961
 20
-91.3625378553769
 30
0.0
 11
244.59666232440043
 21
-91.3625378553769
 31
0.0
  0
LINE
  5
16D
100
AcDbEntity
100
AcDbLine
  8
0
 62
256
370
-1
 48
1.0
  6
ByLayer
 10
244.59666232440043
 20
-91.3625378553769
 30
0.0
 11
244.59666232439935
 21
-90.262537855376877
 31
0.0
  0
ARC
  5
16E
100
AcDbEntity
  8
0
 62
256
370
-1
 48
1.0
  6
ByLayer
100
AcDbCircle
 10
244.59666232439929
 20
-90.012537855376934
 30
0.0
 40
0.2499999999999431
100
AcDbArc
 50
0.0
 51
270.00000000001302
  0
LINE
  5
16F
100
AcDbEntity
100
AcDbLine
  8
0
 62
256
370
-1
 48
1.0
  6
ByLayer
 10
244.84666232439923
 20
-90.012537855376877
 30
0.0
 11
247.34666232439966
 21
-90.012537855376877
 31
0.0
  0
ARC
  5
170
100
AcDbEntity
  8
0
 62
256
370
-1
 48
1.0
  6
ByLayer
100
AcDbCircle
 10
247.59666232439986
 20
-90.012537855376692
 30
0.0
 40
0.2500000000001847
100
AcDbArc
 50
270.00000000003911
 51
180.0
  0
LINE
  5
171
100
AcDbEntity
100
AcDbLine
  8
0
 62
256
370
-1
 48
1.0
  6
ByLayer
 10
247.59666232440003
 20
-90.262537855376877
 30
0.0
 11
247.59666232439955
 21
-91.3625378553769
 31
0.0
  0
LINE
  5
172
100
AcDbEntity
100
AcDbLine
  8
0
 62
256
370
-1
 48
1.0
  6
ByLayer
 10
247.59666232439955
 20
-91.3625378553769
 30
0.0
 11
249.59666232439955
 21
-91.3625378553769
 31
0.0
  0
LINE
  5
173
100
AcDbEntity
100
AcDbLine
  8
0
 62
256
370
-1
 48
1.0
  6
ByLayer
 10
249.59666232439955
 20
-91.3625378553769
 30
0.0
 11
249.5966623243996
 21
-94.662537855376911
 31
0.0
  0
LINE
  5
174
100
AcDbEntity
100
AcDbLine
  8
0
 62
256
370
-1
 48
1.0
  6
ByLayer
 10
249.5966623243996
 20
-94.662537855376911
 30
0.0
 11
247.59666232439972
 21
-94.662537855376911
 31
0.0
  0
LINE
  5
175
100
AcDbEntity
100
AcDbLine
  8
0
 62
256
370
-1
 48
1.0
  6
ByLayer
 10
247.59666232439972
 20
-94.662537855376911
 30
0.0
 11
247.59666232440011
 21
-95.76253785537682
 31
0.0
  0
ARC
  5
176
100
AcDbEntity
  8
0
 62
256
370
-1
 48
1.0
  6
ByLayer
100
AcDbCircle
 10
247.59666232440003
 20
-96.012537855376962
 30
0.0
 40
0.2500000000001421
100
AcDbArc
 50
180.0
 51
89.99999999998046
  0
LINE
  5
177
100
AcDbEntity
100
AcDbLine
  8
0
 62
256
370
-1
 48
1.0
  6
ByLayer
 10
247.34666232439989
 20
-96.012537855376877
 30
0.0
 11
244.84666232439963
 21
-96.012537855376877
 31
0.0
  0
ARC
  5
178
100
AcDbEntity
  8
0
 62
256
370
-1
 48
1.0
  6
ByLayer
100
AcDbCircle
 10
244.59666232439943
 20
-96.012537855377019
 30
0.0
 40
0.250000000000199
100
AcDbArc
 50
90.000000000032571
 51
0.0
  0
LINE
  5
179
100
AcDbEntity
100
AcDbLine
  8
0
 62
256
370
-1
 48
1.0
  6
ByLayer
 10
244.59666232439929
 20
-95.76253785537682
 30
0.0
 11
244.59666232439901
 21
-94.662537855376911
 31
0.0
  0
LINE
  5
17A
100
AcDbEntity
100
AcDbLine
  8
0
 62
256
370
-1
 48
1.0
  6
ByLayer
 10
728.3466623243994
 20
-272.74587118870977
 30
0.0
 11
728.34666232439952
 21
-268.54587118870973
 31
0.0
  0
LINE
  5
17B
100
AcDbEntity
100
AcDbLine
  8
0
 62
256
370
-1
 48
1.0
  6
ByLayer
 10
728.34666232439952
 20
-268.54587118870973
 30
0.0
 11
727.24666232439949
 21
-268.54587118870973
 31
0.0
  0
ARC
  5
17C
100
AcDbEntity
  8
0
 62
256
370
-1
 48
1.0
  6
ByLayer
100
AcDbCircle
 10
726.99666232439949
 20
-268.54587118870973
 30
0.0
 40
0.2499999999999978
100
AcDbArc
 50
90.0
 51
0.0
  0
LINE
  5
17D
100
AcDbEntity
100
AcDbLine
  8
0
 62
256
370
-1
 48
1.0
  6
ByLayer
 10
726.99666232439949
 20
-268.29587118870973
 30
0.0
 11
726.99666232439961
 21
-265.79587118870984
 31
0.0
  0
ARC
  5
17E
100
AcDbEntity
  8
0
 62
256
370
-1
 48
1.0
  6
ByLayer
100
AcDbCircle
 10
726.99666232439961
 20
-265.54587118870984
 30
0.0
 40
0.25
100
AcDbArc
 50
0.0
 51
270.0
  0
LINE
  5
17F
100
AcDbEntity
100
AcDbLine
  8
0
 62
256
370
-1
 48
1.0
  6
ByLayer
 10
727.24666232439961
 20
-265.54587118870984
 30
0.0
 11
728.3466623243994
 21
-265.54587118870984
 31
0.0
  0
LINE
  5
180
100
AcDbEntity
100
AcDbLine
  8
0
 62
256
370
-1
 48
1.0
  6
ByLayer
 10
728.3466623243994
 20
-265.54587118870984
 30
0.0
 11
728.3466623243994
 21
-263.54587118870984
 31
0.0
  0
LINE
  5
181
100
AcDbEntity
100
AcDbLine
  8
0
 62
256
370
-1
 48
1.0
  6
ByLayer
 10
728.3466623243994
 20
-263.54587118870984
 30
0.0
 11
731.64666232439947
 21
-263.54587118870984
 31
0.0
  0
LINE
  5
182
100
AcDbEntity
100
AcDbLine
  8
0
 62
256
370
-1
 48
1.0
  6
ByLayer
 10
731.64666232439947
 20
-263.54587118870984
 30
0.0
 11
731.64666232439947
 21
-265.54587118870984
 31
0.0
  0
LINE
  5
183
100
AcDbEntity
100
AcDbLine
  8
0
 62
256
370
-1
 48
1.0
  6
ByLayer
 10
731.64666232439947
 20
-265.54587118870984
 30
0.0
 11
732.74666232439949
 21
-265.54587118870984
 31
0.0
  0
ARC
  5
184
100
AcDbEntity
  8
0
 62
256
370
-1
 48
1.0
  6
ByLayer
100
AcDbCircle
 10
732.99666232439949
 20
-265.5458711887099
 30
0.0
 40
0.2499999999999431
100
AcDbArc
 50
269.99999999997397
 51
180.0
  0
LINE
  5
185
100
AcDbEntity
100
AcDbLine
  8
0
 62
256
370
-1
 48
1.0
  6
ByLayer
 10
732.99666232439938
 20
-265.79587118870984
 30
0.0
 11
732.99666232439961
 21
-268.29587118870973
 31
0.0
  0
ARC
  5
186
100
AcDbEntity
  8
0
 62
256
370
-1
 48
1.0
  6
ByLayer
100
AcDbCircle
 10
732.99666232439949
 20
-268.5458711887099
 30
0.0
 40
0.2500000000001705
100
AcDbArc
 50
180.0
 51
89.999999999973937
  0
LINE
  5
187
100
AcDbEntity
100
AcDbLine
  8
0
 62
256
370
-1
 48
1.0
  6
ByLayer
 10
732.74666232439938
 20
-268.54587118870984
 30
0.0
 11
731.64666232439959
 21
-268.54587118870984
 31
0.0
  0
LINE
  5
188
100
AcDbEntity
100
AcDbLine
  8
0
 62
256
370
-1
 48
1.0
  6
ByLayer
 10
731.64666232439959
 20
-268.54587118870984
 30
0.0
 11
731.6466623243997
 21
-272.74587118870977
 31
0.0
  0
LINE
  5
189
100
AcDbEntity
100
AcDbLine
  8
0
 62
256
370
-1
 48
1.0
  6
ByLayer
 10
731.6466623243997
 20
-272.74587118870977
 30
0.0
 11
739.99666232439949
 21
-272.74587118870977
 31
0.0
  0
LINE
  5
18A
100
AcDbEntity
100
AcDbLine
  8
0
 62
256
370
-1
 48
1.0
  6
ByLayer
 10
739.99666232439949
 20
-272.74587118870977
 30
0.0
 11
739.99666232439972
 21
-246.14587118870975
 31
0.0
  0
LINE
  5
18B
100
AcDbEntity
100
AcDbLine
  8
0
 62
256
370
-1
 48
1.0
  6
ByLayer
 10
739.99666232439972
 20
-246.14587118870975
 30
0.0
 11
736.99666232439961
 21
-246.14587118870986
 31
0.0
  0
LINE
  5
18C
100
AcDbEntity
100
AcDbLine
  8
0
 62
256
370
-1
 48
1.0
  6
ByLayer
 10
736.99666232439961
 20
-246.14587118870986
 30
0.0
 11
736.99666232439972
 21
-244.64587118870975
 31
0.0
  0
LINE
  5
18D
100
AcDbEntity
100
AcDbLine
  8
0
 62
256
370
-1
 48
1.0
  6
ByLayer
 10
736.99666232439972
 20
-244.64587118870975
 30
0.0
 11
726.99666232439961
 21
-244.64587118870975
 31
0.0
  0
LINE
  5
18E
100
AcDbEntity
100
AcDbLine
  8
0
 62
256
370
-1
 48
1.0
  6
ByLayer
 10
726.99666232439961
 20
-244.64587118870975
 30
0.0
 11
726.99666232439938
 21
-228.64587118870975
 31
0.0
  0
LINE
  5
18F
100
AcDbEntity
100
AcDbLine
  8
0
 62
256
370
-1
 48
1.0
  6
ByLayer
 10
726.99666232439938
 20
-228.64587118870975
 30
0.0
 11
736.99666232439949
 21
-228.64587118870975
 31
0.0
  0
LINE
  5
190
100
AcDbEntity
100
AcDbLine
  8
0
 62
256
370
-1
 48
1.0
  6
ByLayer
 10
736.99666232439949
 20
-228.64587118870975
 30
0.0
 11
736.99666232439972
 21
-157.14587118870975
 31
0.0
  0
LINE
  5
191
100
AcDbEntity
100
AcDbLine
  8
0
 62
256
370
-1
 48
1.0
  6
ByLayer
 10
736.99666232439972
 20
-157.14587118870975
 30
0.0
 11
726.99666232439961
 21
-157.14587118870975
 31
0.0
  0
LINE
  5
192
100
AcDbEntity
100
AcDbLine
  8
0
 62
256
370
-1
 48
1.0
  6
ByLayer
 10
726.99666232439961
 20
-157.14587118870975
 30
0.0
 11
726.99666232439961
 21
-141.14587118870975
 31
0.0
  0
LINE
  5
193
100
AcDbEntity
100
AcDbLine
  8
0
 62
256
370
-1
 48
1.0
  6
ByLayer
 10
726.99666232439961
 20
-141.14587118870975
 30
0.0
 11
736.99666232439972
 21
-141.14587118870975
 31
0.0
  0
LINE
  5
194
100
AcDbEntity
100
AcDbLine
  8
0
 62
256
370
-1
 48
1.0
  6
ByLayer
 10
736.99666232439972
 20
-141.14587118870975
 30
0.0
 11
736.99666232439972
 21
-69.645871188709847
 31
0.0
  0
LINE
  5
195
100
AcDbEntity
100
AcDbLine
  8
0
 62
256
370
-1
 48
1.0
  6
ByLayer
 10
736.99666232439972
 20
-69.645871188709847
 30
0.0
 11
726.99666232439972
 21
-69.645871188709833
 31
0.0
  0
LINE
  5
196
100
AcDbEntity
100
AcDbLine
  8
0
 62
256
370
-1
 48
1.0
  6
ByLayer
 10
726.99666232439972
 20
-69.645871188709833
 30
0.0
 11
726.99666232439972
 21
-53.645871188709734
 31
0.0
  0
LINE
  5
197
100
AcDbEntity
100
AcDbLine
  8
0
 62
256
370
-1
 48
1.0
  6
ByLayer
 10
726.99666232439972
 20
-53.645871188709734
 30
0.0
 11
736.99666232439961
 21
-53.645871188709876
 31
0.0
  0
LINE
  5
198
100
AcDbEntity
100
AcDbLine
  8
0
 62
256
370
-1
 48
1.0
  6
ByLayer
 10
736.99666232439961
 20
-53.645871188709876
 30
0.0
 11
736.99666232439961
 21
-52.145871188709854
 31
0.0
  0
LINE
  5
199
100
AcDbEntity
100
AcDbLine
  8
0
 62
256
370
-1
 48
1.0
  6
ByLayer
 10
736.99666232439961
 20
-52.145871188709854
 30
0.0
 11
739.99666232439972
 21
-52.145871188709847
 31
0.0
  0
LINE
  5
19A
100
AcDbEntity
100
AcDbLine
  8
0
 62
256
370
-1
 48
1.0
  6
ByLayer
 10
739.99666232439972
 20
-52.145871188709847
 30
0.0
 11
739.99666232439972
 21
-25.545871188709945
 31
0.0
  0
LINE
  5
19B
100
AcDbEntity
100
AcDbLine
  8
0
 62
256
370
-1
 48
1.0
  6
ByLayer
 10
739.99666232439972
 20
-25.545871188709945
 30
0.0
 11
731.6466623243997
 21
-25.545871188709967
 31
0.0
  0
LINE
  5
19C
100
AcDbEntity
100
AcDbLine
  8
0
 62
256
370
-1
 48
1.0
  6
ByLayer
 10
731.6466623243997
 20
-25.545871188709967
 30
0.0
 11
731.6466623243997
 21
-29.745871188709874
 31
0.0
  0
LINE
  5
19D
100
AcDbEntity
100
AcDbLine
  8
0
 62
256
370
-1
 48
1.0
  6
ByLayer
 10
731.6466623243997
 20
-29.745871188709874
 30
0.0
 11
732.74666232439972
 21
-29.745871188709881
 31
0.0
  0
ARC
  5
19E
100
AcDbEntity
  8
0
 62
256
370
-1
 48
1.0
  6
ByLayer
100
AcDbCircle
 10
732.99666232439972
 20
-29.745871188709884
 30
0.0
 40
0.2500000000000018
100
AcDbArc
 50
270.0
 51
180.0
  0
LINE
  5
19F
100
AcDbEntity
100
AcDbLine
  8
0
 62
256
370
-1
 48
1.0
  6
ByLayer
 10
732.99666232439972
 20
-29.995871188709884
 30
0.0
 11
732.99666232439972
 21
-32.495871188709877
 31
0.0
  0
ARC
  5
1A0
100
AcDbEntity
  8
0
 62
256
370
-1
 48
1.0
  6
ByLayer
100
AcDbCircle
 10
732.99666232439972
 20
-32.745871188709884
 30
0.0
 40
0.2500000000000071
100
AcDbArc
 50
180.0
 51
90.0
  0
LINE
  5
1A1
100
AcDbEntity
100
AcDbLine
  8
0
 62
256
370
-1
 48
1.0
  6
ByLayer
 10
732.74666232439972
 20
-32.745871188709891
 30
0.0
 11
731.6466623243997
 21
-32.74587118870987
 31
0.0
  0
LINE
  5
1A2
100
AcDbEntity
100
AcDbLine
  8
0
 62
256
370
-1
 48
1.0
  6
ByLayer
 10
731.6466623243997
 20
-32.74587118870987
 30
0.0
 11
731.6466623243997
 21
-34.745871188709856
 31
0.0
  0
LINE
  5
1A3
100
AcDbEntity
100
AcDbLine
  8
0
 62
256
370
-1
 48
1.0
  6
ByLayer
 10
731.6466623243997
 20
-34.745871188709856
 30
0.0
 11
728.34666232439974
 21
-34.74587118870987
 31
0.0
  0
LINE
  5
1A4
100
AcDbEntity
100
AcDbLine
  8
0
 62
256
370
-1
 48
1.0
  6
ByLayer
 10
728.34666232439974
 20
-34.74587118870987
 30
0.0
 11
728.34666232439974
 21
-32.745871188709877
 31
0.0
  0
LINE
  5
1A5
100
AcDbEntity
100
AcDbLine
  8
0
 62
256
370
-1
 48
1.0
  6
ByLayer
 10
728.34666232439974
 20
-32.745871188709877
 30
0.0
 11
727.24666232439972
 21
-32.74587118870987
 31
0.0
  0
ARC
  5
1A6
100
AcDbEntity
  8
0
 62
256
370
-1
 48
1.0
  6
ByLayer
100
AcDbCircle
 10
726.99666232439972
 20
-32.745871188709877
 30
0.0
 40
0.2499999999999929
100
AcDbArc
 50
90.0
 51
0.0
  0
LINE
  5
1A7
100
AcDbEntity
100
AcDbLine
  8
0
 62
256
370
-1
 48
1.0
  6
ByLayer
 10
726.99666232439972
 20
-32.495871188709884
 30
0.0
 11
726.99666232439972
 21
-29.995871188709884
 31
0.0
  0
ARC
  5
1A8
100
AcDbEntity
  8
0
 62
256
370
-1
 48
1.0
  6
ByLayer
100
AcDbCircle
 10
726.99666232439972
 20
-29.745871188709884
 30
0.0
 40
0.2500000000000013
100
AcDbArc
 50
0.0
 51
270.0
  0
LINE
  5
1A9
100
AcDbEntity
100
AcDbLine
  8
0
 62
256
370
-1
 48
1.0
  6
ByLayer
 10
727.24666232439972
 20
-29.745871188709877
 30
0.0
 11
728.34666232439974
 21
-29.745871188709856
 31
0.0
  0
LINE
  5
1AA
100
AcDbEntity
100
AcDbLine
  8
0
 62
256
370
-1
 48
1.0
  6
ByLayer
 10
728.34666232439974
 20
-29.745871188709856
 30
0.0
 11
728.34666232439974
 21
-25.545871188709842
 31
0.0
  0
LINE
  5
1AB
100
AcDbEntity
100
AcDbLine
  8
0
 62
256
370
-1
 48
1.0
  6
ByLayer
 10
728.34666232439974
 20
-25.545871188709842
 30
0.0
 11
714.99666232439972
 21
-25.545871188709832
 31
0.0
  0
LINE
  5
1AC
100
AcDbEntity
100
AcDbLine
  8
0
 62
256
370
-1
 48
1.0
  6
ByLayer
 10
714.99666232439972
 20
-25.545871188709832
 30
0.0
 11
714.99666232439972
 21
-19.145871188709844
 31
0.0
  0
LINE
  5
1AD
100
AcDbEntity
100
AcDbLine
  8
0
 62
256
370
-1
 48
1.0
  6
ByLayer
 10
714.99666232439972
 20
-19.145871188709844
 30
0.0
 11
699.99666232439972
 21
-19.145871188709847
 31
0.0
  0
LINE
  5
1AE
100
AcDbEntity
100
AcDbLine
  8
0
 62
256
370
-1
 48
1.0
  6
ByLayer
 10
699.99666232439972
 20
-19.145871188709847
 30
0.0
 11
699.99666232439972
 21
-12.745871188709872
 31
0.0
  0
LINE
  5
1AF
100
AcDbEntity
100
AcDbLine
  8
0
 62
256
370
-1
 48
1.0
  6
ByLayer
 10
699.99666232439972
 20
-12.745871188709872
 30
0.0
 11
689.99666232439972
 21
-12.74587118870987
 31
0.0
  0
LINE
  5
1B0
100
AcDbEntity
100
AcDbLine
  8
0
 62
256
370
-1
 48
1.0
  6
ByLayer
 10
689.99666232439972
 20
-12.74587118870987
 30
0.0
 11
689.99666232439972
 21
-285.54587118870961
 31
0.0
  0
LINE
  5
1B1
100
AcDbEntity
100
AcDbLine
  8
0
 62
256
370
-1
 48
1.0
  6
ByLayer
 10
689.99666232439972
 20
-285.54587118870961
 30
0.0
 11
699.99666232439972
 21
-285.54587118870961
 31
0.0
  0
LINE
  5
1B2
100
AcDbEntity
100
AcDbLine
  8
0
 62
256
370
-1
 48
1.0
  6
ByLayer
 10
699.99666232439972
 20
-285.54587118870961
 30
0.0
 11
699.99666232439938
 21
-279.14587118870975
 31
0.0
  0
LINE
  5
1B3
100
AcDbEntity
100
AcDbLine
  8
0
 62
256
370
-1
 48
1.0
  6
ByLayer
 10
699.99666232439938
 20
-279.14587118870975
 30
0.0
 11
714.99666232439995
 21
-279.14587118870975
 31
0.0
  0
LINE
  5
1B4
100
AcDbEntity
100
AcDbLine
  8
0
 62
256
370
-1
 48
1.0
  6
ByLayer
 10
714.99666232439995
 20
-279.14587118870975
 30
0.0
 11
714.99666232439938
 21
-272.74587118870977
 31
0.0
  0
LINE
  5
1B5
100
AcDbEntity
100
AcDbLine
  8
0
 62
256
370
-1
 48
1.0
  6
ByLayer
 10
714.99666232439938
 20
-272.74587118870977
 30
0.0
 11
728.3466623243994
 21
-272.74587118870977
 31
0.0
  0
LINE
  5
1B6
100
AcDbEntity
100
AcDbLine
  8
0
 62
256
370
-1
 48
1.0
  6
ByLayer
 10
634.3966623243997
 20
-208.01253785537637
 30
0.0
 11
634.3966623243997
 21
-238.01253785537637
 31
0.0
  0
LINE
  5
1B7
100
AcDbEntity
100
AcDbLine
  8
0
 62
256
370
-1
 48
1.0
  6
ByLayer
 10
634.3966623243997
 20
-238.01253785537637
 30
0.0
 11
627.99666232439984
 21
-238.01253785537642
 31
0.0
  0
LINE
  5
1B8
100
AcDbEntity
100
AcDbLine
  8
0
 62
256
370
-1
 48
1.0
  6
ByLayer
 10
627.99666232439984
 20
-238.01253785537642
 30
0.0
 11
627.99666232439984
 21
-208.01253785537642
 31
0.0
  0
LINE
  5
1B9
100
AcDbEntity
100
AcDbLine
  8
0
 62
256
370
-1
 48
1.0
  6
ByLayer
 10
627.99666232439984
 20
-208.01253785537642
 30
0.0
 11
634.3966623243997
 21
-208.01253785537637
 31
0.0
  0
LINE
  5
1BA
100
AcDbEntity
100
AcDbLine
  8
0
 62
256
370
-1
 48
1.0
  6
ByLayer
 10
627.99666232439972
 20
-34.679204522043023
 30
0.0
 11
634.3966623243997
 21
-34.679204522043037
 31
0.0
  0
LINE
  5
1BB
100
AcDbEntity
100
AcDbLine
  8
0
 62
256
370
-1
 48
1.0
  6
ByLayer
 10
634.3966623243997
 20
-34.679204522043037
 30
0.0
 11
634.3966623243997
 21
-64.679204522043037
 31
0.0
  0
LINE
  5
1BC
100
AcDbEntity
100
AcDbLine
  8
0
 62
256
370
-1
 48
1.0
  6
ByLayer
 10
634.3966623243997
 20
-64.679204522043037
 30
0.0
 11
627.99666232439972
 21
-64.679204522043037
 31
0.0
  0
LINE
  5
1BD
100
AcDbEntity
100
AcDbLine
  8
0
 62
256
370
-1
 48
1.0
  6
ByLayer
 10
627.99666232439972
 20
-64.679204522043037
 30
0.0
 11
627.99666232439972
 21
-34.679204522043023
 31
0.0
  0
LINE
  5
1BE
100
AcDbEntity
100
AcDbLine
  8
0
 62
256
370
-1
 48
1.0
  6
ByLayer
 10
634.3966623243997
 20
-121.34587118870978
 30
0.0
 11
634.39666232439981
 21
-151.34587118870979
 31
0.0
  0
LINE
  5
1BF
100
AcDbEntity
100
AcDbLine
  8
0
 62
256
370
-1
 48
1.0
  6
ByLayer
 10
634.39666232439981
 20
-151.34587118870979
 30
0.0
 11
627.99666232439972
 21
-151.34587118870979
 31
0.0
  0
LINE
  5
1C0
100
AcDbEntity
100
AcDbLine
  8
0
 62
256
370
-1
 48
1.0
  6
ByLayer
 10
627.99666232439972
 20
-151.34587118870979
 30
0.0
 11
627.99666232439972
 21
-121.34587118870975
 31
0.0
  0
LINE
  5
1C1
100
AcDbEntity
100
AcDbLine
  8
0
 62
256
370
-1
 48
1.0
  6
ByLayer
 10
627.99666232439972
 20
-121.34587118870975
 30
0.0
 11
634.3966623243997
 21
-121.34587118870978
 31
0.0
  0
LINE
  5
1C2
100
AcDbEntity
100
AcDbLine
  8
0
 62
256
370
-1
 48
1.0
  6
ByLayer
 10
474.59666232439974
 20
-266.34587118871002
 30
0.0
 11
474.5966623243998
 21
-261.74587118871011
 31
0.0
  0
LINE
  5
1C3
100
AcDbEntity
100
AcDbLine
  8
0
 62
256
370
-1
 48
1.0
  6
ByLayer
 10
474.5966623243998
 20
-261.74587118871011
 30
0.0
 11
473.49666232439972
 21
-261.74587118871011
 31
0.0
  0
ARC
  5
1C4
100
AcDbEntity
  8
0
 62
256
370
-1
 48
1.0
  6
ByLayer
100
AcDbCircle
 10
473.24666232439967
 20
-261.74587118871005
 30
0.0
 40
0.2500000000000568
100
AcDbArc
 50
89.999999999986969
 51
360.0
  0
LINE
  5
1C5
100
AcDbEntity
100
AcDbLine
  8
0
 62
256
370
-1
 48
1.0
  6
ByLayer
 10
473.24666232439972
 20
-261.49587118871
 30
0.0
 11
473.24666232439978
 21
-258.99587118871011
 31
0.0
  0
ARC
  5
1C6
100
AcDbEntity
  8
0
 62
256
370
-1
 48
1.0
  6
ByLayer
100
AcDbCircle
 10
473.24666232439961
 20
-258.74587118871
 30
0.0
 40
0.2500000000001137
100
AcDbArc
 50
0.0
 51
270.00000000003911
  0
LINE
  5
1C7
100
AcDbEntity
100
AcDbLine
  8
0
 62
256
370
-1
 48
1.0
  6
ByLayer
 10
473.49666232439972
 20
-258.74587118870983
 30
0.0
 11
474.59666232439974
 21
-258.74587118870983
 31
0.0
  0
LINE
  5
1C8
100
AcDbEntity
100
AcDbLine
  8
0
 62
256
370
-1
 48
1.0
  6
ByLayer
 10
474.59666232439974
 20
-258.74587118870983
 30
0.0
 11
474.59666232439974
 21
-256.74587118871
 31
0.0
  0
LINE
  5
1C9
100
AcDbEntity
100
AcDbLine
  8
0
 62
256
370
-1
 48
1.0
  6
ByLayer
 10
474.59666232439974
 20
-256.74587118871
 30
0.0
 11
477.89666232439976
 21
-256.74587118871
 31
0.0
  0
LINE
  5
1CA
100
AcDbEntity
100
AcDbLine
  8
0
 62
256
370
-1
 48
1.0
  6
ByLayer
 10
477.89666232439976
 20
-256.74587118871
 30
0.0
 11
477.89666232439976
 21
-258.74587118870983
 31
0.0
  0
LINE
  5
1CB
100
AcDbEntity
100
AcDbLine
  8
0
 62
256
370
-1
 48
1.0
  6
ByLayer
 10
477.89666232439976
 20
-258.74587118870983
 30
0.0
 11
478.99666232439972
 21
-258.74587118870983
 31
0.0
  0
ARC
  5
1CC
100
AcDbEntity
  8
0
 62
256
370
-1
 48
1.0
  6
ByLayer
100
AcDbCircle
 10
479.24666232439978
 20
-258.74587118870988
 30
0.0
 40
0.2500000000000568
100
AcDbArc
 50
269.99999999998698
 51
180.0
  0
LINE
  5
1CD
100
AcDbEntity
100
AcDbLine
  8
0
 62
256
370
-1
 48
1.0
  6
ByLayer
 10
479.24666232439972
 20
-258.99587118870994
 30
0.0
 11
479.24666232439972
 21
-261.49587118871005
 31
0.0
  0
ARC
  5
1CE
100
AcDbEntity
  8
0
 62
256
370
-1
 48
1.0
  6
ByLayer
100
AcDbCircle
 10
479.24666232439967
 20
-261.74587118871
 30
0.0
 40
0.2499999999999716
100
AcDbArc
 50
180.0
 51
89.999999999986969
  0
LINE
  5
1CF
100
AcDbEntity
100
AcDbLine
  8
0
 62
256
370
-1
 48
1.0
  6
ByLayer
 10
478.99666232439972
 20
-261.74587118871
 30
0.0
 11
477.8966623243997
 21
-261.74587118870994
 31
0.0
  0
LINE
  5
1D0
100
AcDbEntity
100
AcDbLine
  8
0
 62
256
370
-1
 48
1.0
  6
ByLayer
 10
477.8966623243997
 20
-261.74587118870994
 30
0.0
 11
477.8966623243997
 21
-266.34587118870996
 31
0.0
  0
LINE
  5
1D1
100
AcDbEntity
100
AcDbLine
  8
0
 62
256
370
-1
 48
1.0
  6
ByLayer
 10
477.8966623243997
 20
-266.34587118870996
 30
0.0
 11
482.49666232439967
 21
-266.34587118871008
 31
0.0
  0
LINE
  5
1D2
100
AcDbEntity
100
AcDbLine
  8
0
 62
256
370
-1
 48
1.0
  6
ByLayer
 10
482.49666232439967
 20
-266.34587118871008
 30
0.0
 11
482.49666232439972
 21
-272.74587118871011
 31
0.0
  0
LINE
  5
1D3
100
AcDbEntity
100
AcDbLine
  8
0
 62
256
370
-1
 48
1.0
  6
ByLayer
 10
482.49666232439972
 20
-272.74587118871011
 30
0.0
 11
507.49666232439972
 21
-272.74587118871005
 31
0.0
  0
LINE
  5
1D4
100
AcDbEntity
100
AcDbLine
  8
0
 62
256
370
-1
 48
1.0
  6
ByLayer
 10
507.49666232439972
 20
-272.74587118871005
 30
0.0
 11
507.49666232439995
 21
-266.34587118871002
 31
0.0
  0
LINE
  5
1D5
100
AcDbEntity
100
AcDbLine
  8
0
 62
256
370
-1
 48
1.0
  6
ByLayer
 10
507.49666232439995
 20
-266.34587118871002
 30
0.0
 11
530.84666232439986
 21
-266.34587118871002
 31
0.0
  0
LINE
  5
1D6
100
AcDbEntity
100
AcDbLine
  8
0
 62
256
370
-1
 48
1.0
  6
ByLayer
 10
530.84666232439986
 20
-266.34587118871002
 30
0.0
 11
530.84666232439963
 21
-261.74587118871
 31
0.0
  0
LINE
  5
1D7
100
AcDbEntity
100
AcDbLine
  8
0
 62
256
370
-1
 48
1.0
  6
ByLayer
 10
530.84666232439963
 20
-261.74587118871
 30
0.0
 11
529.74666232439972
 21
-261.74587118871005
 31
0.0
  0
ARC
  5
1D8
100
AcDbEntity
  8
0
 62
256
370
-1
 48
1.0
  6
ByLayer
100
AcDbCircle
 10
529.49666232439972
 20
-261.74587118871
 30
0.0
 40
0.2499999999999431
100
AcDbArc
 50
89.999999999973937
 51
360.0
  0
LINE
  5
1D9
100
AcDbEntity
100
AcDbLine
  8
0
 62
256
370
-1
 48
1.0
  6
ByLayer
 10
529.49666232439984
 20
-261.49587118871005
 30
0.0
 11
529.49666232439972
 21
-258.99587118871005
 31
0.0
  0
ARC
  5
1DA
100
AcDbEntity
  8
0
 62
256
370
-1
 48
1.0
  6
ByLayer
100
AcDbCircle
 10
529.49666232439972
 20
-258.74587118870988
 30
0.0
 40
0.2500000000001705
100
AcDbArc
 50
360.0
 51
270.0
  0
LINE
  5
1DB
100
AcDbEntity
100
AcDbLine
  8
0
 62
256
370
-1
 48
1.0
  6
ByLayer
 10
529.74666232439995
 20
-258.74587118870994
 30
0.0
 11
530.84666232439963
 21
-258.74587118870977
 31
0.0
  0
LINE
  5
1DC
100
AcDbEntity
100
AcDbLine
  8
0
 62
256
370
-1
 48
1.0
  6
ByLayer
 10
530.84666232439963
 20
-258.74587118870977
 30
0.0
 11
530.84666232439974
 21
-256.74587118871005
 31
0.0
  0
LINE
  5
1DD
100
AcDbEntity
100
AcDbLine
  8
0
 62
256
370
-1
 48
1.0
  6
ByLayer
 10
530.84666232439974
 20
-256.74587118871005
 30
0.0
 11
534.14666232439981
 21
-256.74587118871017
 31
0.0
  0
LINE
  5
1DE
100
AcDbEntity
100
AcDbLine
  8
0
 62
256
370
-1
 48
1.0
  6
ByLayer
 10
534.14666232439981
 20
-256.74587118871017
 30
0.0
 11
534.14666232439981
 21
-258.74587118870988
 31
0.0
  0
LINE
  5
1DF
100
AcDbEntity
100
AcDbLine
  8
0
 62
256
370
-1
 48
1.0
  6
ByLayer
 10
534.14666232439981
 20
-258.74587118870988
 30
0.0
 11
535.24666232439984
 21
-258.74587118870988
 31
0.0
  0
ARC
  5
1E0
100
AcDbEntity
  8
0
 62
256
370
-1
 48
1.0
  6
ByLayer
100
AcDbCircle
 10
535.49666232439984
 20
-258.74587118871005
 30
0.0
 40
0.2500000000000284
100
AcDbArc
 50
269.99999999997397
 51
180.0
  0
LINE
  5
1E1
100
AcDbEntity
100
AcDbLine
  8
0
 62
256
370
-1
 48
1.0
  6
ByLayer
 10
535.49666232439972
 20
-258.99587118871005
 30
0.0
 11
535.49666232439972
 21
-261.49587118871005
 31
0.0
  0
ARC
  5
1E2
100
AcDbEntity
  8
0
 62
256
370
-1
 48
1.0
  6
ByLayer
100
AcDbCircle
 10
535.49666232439972
 20
-261.74587118871005
 30
0.0
 40
0.25
100
AcDbArc
 50
180.0
 51
90.0
  0
LINE
  5
1E3
100
AcDbEntity
100
AcDbLine
  8
0
 62
256
370
-1
 48
1.0
  6
ByLayer
 10
535.24666232439972
 20
-261.74587118871005
 30
0.0
 11
534.14666232439981
 21
-261.74587118871005
 31
0.0
  0
LINE
  5
1E4
100
AcDbEntity
100
AcDbLine
  8
0
 62
256
370
-1
 48
1.0
  6
ByLayer
 10
534.14666232439981
 20
-261.74587118871005
 30
0.0
 11
534.14666232439993
 21
-266.34587118871002
 31
0.0
  0
LINE
  5
1E5
100
AcDbEntity
100
AcDbLine
  8
0
 62
256
370
-1
 48
1.0
  6
ByLayer
 10
534.14666232439993
 20
-266.34587118871002
 30
0.0
 11
557.49666232439972
 21
-266.34587118871002
 31
0.0
  0
LINE
  5
1E6
100
AcDbEntity
100
AcDbLine
  8
0
 62
256
370
-1
 48
1.0
  6
ByLayer
 10
557.49666232439972
 20
-266.34587118871002
 30
0.0
 11
557.49666232439972
 21
-272.74587118871005
 31
0.0
  0
LINE
  5
1E7
100
AcDbEntity
100
AcDbLine
  8
0
 62
256
370
-1
 48
1.0
  6
ByLayer
 10
557.49666232439972
 20
-272.74587118871005
 30
0.0
 11
582.49666232439949
 21
-272.74587118871005
 31
0.0
  0
LINE
  5
1E8
100
AcDbEntity
100
AcDbLine
  8
0
 62
256
370
-1
 48
1.0
  6
ByLayer
 10
582.49666232439949
 20
-272.74587118871005
 30
0.0
 11
582.49666232439972
 21
-266.34587118870996
 31
0.0
  0
LINE
  5
1E9
100
AcDbEntity
100
AcDbLine
  8
0
 62
256
370
-1
 48
1.0
  6
ByLayer
 10
582.49666232439972
 20
-266.34587118870996
 30
0.0
 11
587.09666232439963
 21
-266.34587118870996
 31
0.0
  0
LINE
  5
1EA
100
AcDbEntity
100
AcDbLine
  8
0
 62
256
370
-1
 48
1.0
  6
ByLayer
 10
587.09666232439963
 20
-266.34587118870996
 30
0.0
 11
587.09666232439963
 21
-261.74587118871005
 31
0.0
  0
LINE
  5
1EB
100
AcDbEntity
100
AcDbLine
  8
0
 62
256
370
-1
 48
1.0
  6
ByLayer
 10
587.09666232439963
 20
-261.74587118871005
 30
0.0
 11
585.99666232439972
 21
-261.74587118871005
 31
0.0
  0
ARC
  5
1EC
100
AcDbEntity
  8
0
 62
256
370
-1
 48
1.0
  6
ByLayer
100
AcDbCircle
 10
585.74666232439972
 20
-261.74587118871005
 30
0.0
 40
0.2499999999999956
100
AcDbArc
 50
90.0
 51
0.0
  0
LINE
  5
1ED
100
AcDbEntity
100
AcDbLine
  8
0
 62
256
370
-1
 48
1.0
  6
ByLayer
 10
585.74666232439972
 20
-261.49587118871005
 30
0.0
 11
585.74666232439984
 21
-258.99587118871011
 31
0.0
  0
ARC
  5
1EE
100
AcDbEntity
  8
0
 62
256
370
-1
 48
1.0
  6
ByLayer
100
AcDbCircle
 10
585.74666232439961
 20
-258.74587118871005
 30
0.0
 40
0.2500000000000568
100
AcDbArc
 50
0.0
 51
270.00000000005213
  0
LINE
  5
1EF
100
AcDbEntity
100
AcDbLine
  8
0
 62
256
370
-1
 48
1.0
  6
ByLayer
 10
585.99666232439972
 20
-258.74587118870988
 30
0.0
 11
587.09666232439986
 21
-258.74587118870988
 31
0.0
  0
LINE
  5
1F0
100
AcDbEntity
100
AcDbLine
  8
0
 62
256
370
-1
 48
1.0
  6
ByLayer
 10
587.09666232439986
 20
-258.74587118870988
 30
0.0
 11
587.09666232439974
 21
-256.74587118871011
 31
0.0
  0
LINE
  5
1F1
100
AcDbEntity
100
AcDbLine
  8
0
 62
256
370
-1
 48
1.0
  6
ByLayer
 10
587.09666232439974
 20
-256.74587118871011
 30
0.0
 11
590.39666232439981
 21
-256.74587118871011
 31
0.0
  0
LINE
  5
1F2
100
AcDbEntity
100
AcDbLine
  8
0
 62
256
370
-1
 48
1.0
  6
ByLayer
 10
590.39666232439981
 20
-256.74587118871011
 30
0.0
 11
590.39666232439981
 21
-258.74587118870983
 31
0.0
  0
LINE
  5
1F3
100
AcDbEntity
100
AcDbLine
  8
0
 62
256
370
-1
 48
1.0
  6
ByLayer
 10
590.39666232439981
 20
-258.74587118870983
 30
0.0
 11
591.49666232439984
 21
-258.74587118870983
 31
0.0
  0
ARC
  5
1F4
100
AcDbEntity
  8
0
 62
256
370
-1
 48
1.0
  6
ByLayer
100
AcDbCircle
 10
591.74666232439972
 20
-258.74587118870988
 30
0.0
 40
0.2499999999999431
100
AcDbArc
 50
270.0
 51
180.0
  0
LINE
  5
1F5
100
AcDbEntity
100
AcDbLine
  8
0
 62
256
370
-1
 48
1.0
  6
ByLayer
 10
591.74666232439972
 20
-258.99587118870983
 30
0.0
 11
591.74666232439972
 21
-261.49587118870983
 31
0.0
  0
ARC
  5
1F6
100
AcDbEntity
  8
0
 62
256
370
-1
 48
1.0
  6
ByLayer
100
AcDbCircle
 10
591.74666232439972
 20
-261.74587118870983
 30
0.0
 40
0.25
100
AcDbArc
 50
180.0
 51
90.0
  0
LINE
  5
1F7
100
AcDbEntity
100
AcDbLine
  8
0
 62
256
370
-1
 48
1.0
  6
ByLayer
 10
591.49666232439972
 20
-261.74587118870983
 30
0.0
 11
590.39666232439981
 21
-261.74587118871011
 31
0.0
  0
LINE
  5
1F8
100
AcDbEntity
100
AcDbLine
  8
0
 62
256
370
-1
 48
1.0
  6
ByLayer
 10
590.39666232439981
 20
-261.74587118871011
 30
0.0
 11
590.39666232439981
 21
-266.34587118870996
 31
0.0
  0
LINE
  5
1F9
100
AcDbEntity
100
AcDbLine
  8
0
 62
256
370
-1
 48
1.0
  6
ByLayer
 10
590.39666232439981
 20
-266.34587118870996
 30
0.0
 11
634.39666232439959
 21
-266.34587118870991
 31
0.0
  0
LINE
  5
1FA
100
AcDbEntity
100
AcDbLine
  8
0
 62
256
370
-1
 48
1.0
  6
ByLayer
 10
634.39666232439959
 20
-266.34587118870991
 30
0.0
 11
634.3966623243997
 21
-259.94587118870987
 31
0.0
  0
LINE
  5
1FB
100
AcDbEntity
100
AcDbLine
  8
0
 62
256
370
-1
 48
1.0
  6
ByLayer
 10
634.3966623243997
 20
-259.94587118870987
 30
0.0
 11
689.99666232439972
 21
-259.94587118870993
 31
0.0
  0
LINE
  5
1FC
100
AcDbEntity
100
AcDbLine
  8
0
 62
256
370
-1
 48
1.0
  6
ByLayer
 10
689.99666232439972
 20
-12.74587118870987
 30
0.0
 11
634.3966623243997
 21
-12.745871188709863
 31
0.0
  0
LINE
  5
1FD
100
AcDbEntity
100
AcDbLine
  8
0
 62
256
370
-1
 48
1.0
  6
ByLayer
 10
634.3966623243997
 20
-12.745871188709863
 30
0.0
 11
634.3966623243997
 21
-6.3458711887098902
 31
0.0
  0
LINE
  5
1FE
100
AcDbEntity
100
AcDbLine
  8
0
 62
256
370
-1
 48
1.0
  6
ByLayer
 10
634.3966623243997
 20
-6.3458711887098902
 30
0.0
 11
590.3966623243997
 21
-6.3458711887097543
 31
0.0
  0
LINE
  5
1FF
100
AcDbEntity
100
AcDbLine
  8
0
 62
256
370
-1
 48
1.0
  6
ByLayer
 10
590.3966623243997
 20
-6.3458711887097543
 30
0.0
 11
590.3966623243997
 21
-10.945871188709786
 31
0.0
  0
LINE
  5
200
100
AcDbEntity
100
AcDbLine
  8
0
 62
256
370
-1
 48
1.0
  6
ByLayer
 10
590.3966623243997
 20
-10.945871188709786
 30
0.0
 11
591.49666232439961
 21
-10.945871188709761
 31
0.0
  0
ARC
  5
201
100
AcDbEntity
  8
0
 62
256
370
-1
 48
1.0
  6
ByLayer
100
AcDbCircle
 10
591.74666232439972
 20
-10.945871188709706
 30
0.0
 40
0.2500000000000577
100
AcDbArc
 50
270.0
 51
180.0
  0
LINE
  5
202
100
AcDbEntity
100
AcDbLine
  8
0
 62
256
370
-1
 48
1.0
  6
ByLayer
 10
591.74666232439972
 20
-11.195871188709763
 30
0.0
 11
591.74666232439972
 21
-13.695871188709809
 31
0.0
  0
ARC
  5
203
100
AcDbEntity
  8
0
 62
256
370
-1
 48
1.0
  6
ByLayer
100
AcDbCircle
 10
591.74666232439972
 20
-13.945871188709859
 30
0.0
 40
0.2500000000000489
100
AcDbArc
 50
180.0
 51
90.0
  0
LINE
  5
204
100
AcDbEntity
100
AcDbLine
  8
0
 62
256
370
-1
 48
1.0
  6
ByLayer
 10
591.49666232439961
 20
-13.945871188709793
 30
0.0
 11
590.3966623243997
 21
-13.945871188709834
 31
0.0
  0
LINE
  5
205
100
AcDbEntity
100
AcDbLine
  8
0
 62
256
370
-1
 48
1.0
  6
ByLayer
 10
590.3966623243997
 20
-13.945871188709834
 30
0.0
 11
590.3966623243997
 21
-15.945871188709761
 31
0.0
  0
LINE
  5
206
100
AcDbEntity
100
AcDbLine
  8
0
 62
256
370
-1
 48
1.0
  6
ByLayer
 10
590.3966623243997
 20
-15.945871188709761
 30
0.0
 11
587.09666232439963
 21
-15.945871188709768
 31
0.0
  0
LINE
  5
207
100
AcDbEntity
100
AcDbLine
  8
0
 62
256
370
-1
 48
1.0
  6
ByLayer
 10
587.09666232439963
 20
-15.945871188709768
 30
0.0
 11
587.09666232439963
 21
-13.945871188709781
 31
0.0
  0
LINE
  5
208
100
AcDbEntity
100
AcDbLine
  8
0
 62
256
370
-1
 48
1.0
  6
ByLayer
 10
587.09666232439963
 20
-13.945871188709781
 30
0.0
 11
585.99666232439961
 21
-13.945871188709818
 31
0.0
  0
ARC
  5
209
100
AcDbEntity
  8
0
 62
256
370
-1
 48
1.0
  6
ByLayer
100
AcDbCircle
 10
585.74666232439961
 20
-13.945871188709809
 30
0.0
 40
0.2500000000000089
100
AcDbArc
 50
90.0
 51
360.0
  0
LINE
  5
20A
100
AcDbEntity
100
AcDbLine
  8
0
 62
256
370
-1
 48
1.0
  6
ByLayer
 10
585.74666232439961
 20
-13.6958711887098
 30
0.0
 11
585.74666232439961
 21
-11.195871188709761
 31
0.0
  0
ARC
  5
20B
100
AcDbEntity
  8
0
 62
256
370
-1
 48
1.0
  6
ByLayer
100
AcDbCircle
 10
585.74666232439961
 20
-10.945871188709789
 30
0.0
 40
0.2499999999999734
100
AcDbArc
 50
360.0
 51
270.0
  0
LINE
  5
20C
100
AcDbEntity
100
AcDbLine
  8
0
 62
256
370
-1
 48
1.0
  6
ByLayer
 10
585.99666232439961
 20
-10.945871188709805
 30
0.0
 11
587.09666232439963
 21
-10.945871188709797
 31
0.0
  0
LINE
  5
20D
100
AcDbEntity
100
AcDbLine
  8
0
 62
256
370
-1
 48
1.0
  6
ByLayer
 10
587.09666232439963
 20
-10.945871188709797
 30
0.0
 11
587.09666232439963
 21
-6.3458711887097312
 31
0.0
  0
LINE
  5
20E
100
AcDbEntity
100
AcDbLine
  8
0
 62
256
370
-1
 48
1.0
  6
ByLayer
 10
587.09666232439963
 20
-6.3458711887097312
 30
0.0
 11
582.49666232439972
 21
-6.3458711887098564
 31
0.0
  0
LINE
  5
20F
100
AcDbEntity
100
AcDbLine
  8
0
 62
256
370
-1
 48
1.0
  6
ByLayer
 10
582.49666232439972
 20
-6.3458711887098564
 30
0.0
 11
582.49666232439972
 21
0.0541288112901146
 31
0.0
  0
LINE
  5
210
100
AcDbEntity
100
AcDbLine
  8
0
 62
256
370
-1
 48
1.0
  6
ByLayer
 10
582.49666232439972
 20
0.0541288112901146
 30
0.0
 11
557.49666232439972
 21
0.0541288112901377
 31
0.0
  0
LINE
  5
211
100
AcDbEntity
100
AcDbLine
  8
0
 62
256
370
-1
 48
1.0
  6
ByLayer
 10
557.49666232439972
 20
0.0541288112901377
 30
0.0
 11
557.49666232439961
 21
-6.3458711887098644
 31
0.0
  0
LINE
  5
212
100
AcDbEntity
100
AcDbLine
  8
0
 62
256
370
-1
 48
1.0
  6
ByLayer
 10
557.49666232439961
 20
-6.3458711887098644
 30
0.0
 11
534.1466623243997
 21
-6.3458711887098209
 31
0.0
  0
LINE
  5
213
100
AcDbEntity
100
AcDbLine
  8
0
 62
256
370
-1
 48
1.0
  6
ByLayer
 10
534.1466623243997
 20
-6.3458711887098209
 30
0.0
 11
534.1466623243997
 21
-10.945871188709717
 31
0.0
  0
LINE
  5
214
100
AcDbEntity
100
AcDbLine
  8
0
 62
256
370
-1
 48
1.0
  6
ByLayer
 10
534.1466623243997
 20
-10.945871188709717
 30
0.0
 11
535.24666232439961
 21
-10.945871188709821
 31
0.0
  0
ARC
  5
215
100
AcDbEntity
  8
0
 62
256
370
-1
 48
1.0
  6
ByLayer
100
AcDbCircle
 10
535.49666232439972
 20
-10.94587118870977
 30
0.0
 40
0.2500000000000613
100
AcDbArc
 50
270.0
 51
180.0
  0
LINE
  5
216
100
AcDbEntity
100
AcDbLine
  8
0
 62
256
370
-1
 48
1.0
  6
ByLayer
 10
535.49666232439972
 20
-11.19587118870983
 30
0.0
 11
535.49666232439972
 21
-13.695871188709763
 31
0.0
  0
ARC
  5
217
100
AcDbEntity
  8
0
 62
256
370
-1
 48
1.0
  6
ByLayer
100
AcDbCircle
 10
535.49666232439984
 20
-13.945871188709862
 30
0.0
 40
0.2500000000001003
100
AcDbArc
 50
180.0
 51
90.000000000026063
  0
LINE
  5
218
100
AcDbEntity
100
AcDbLine
  8
0
 62
256
370
-1
 48
1.0
  6
ByLayer
 10
535.24666232439972
 20
-13.945871188709964
 30
0.0
 11
534.1466623243997
 21
-13.945871188709852
 31
0.0
  0
LINE
  5
219
100
AcDbEntity
100
AcDbLine
  8
0
 62
256
370
-1
 48
1.0
  6
ByLayer
 10
534.1466623243997
 20
-13.945871188709852
 30
0.0
 11
534.1466623243997
 21
-15.945871188709738
 31
0.0
  0
LINE
  5
21A
100
AcDbEntity
100
AcDbLine
  8
0
 62
256
370
-1
 48
1.0
  6
ByLayer
 10
534.1466623243997
 20
-15.945871188709738
 30
0.0
 11
530.84666232439974
 21
-15.94587118870971
 31
0.0
  0
LINE
  5
21B
100
AcDbEntity
100
AcDbLine
  8
0
 62
256
370
-1
 48
1.0
  6
ByLayer
 10
530.84666232439974
 20
-15.94587118870971
 30
0.0
 11
530.84666232439974
 21
-13.945871188709781
 31
0.0
  0
LINE
  5
21C
100
AcDbEntity
100
AcDbLine
  8
0
 62
256
370
-1
 48
1.0
  6
ByLayer
 10
530.84666232439974
 20
-13.945871188709781
 30
0.0
 11
529.74666232439972
 21
-13.945871188709859
 31
0.0
  0
ARC
  5
21D
100
AcDbEntity
  8
0
 62
256
370
-1
 48
1.0
  6
ByLayer
100
AcDbCircle
 10
529.49666232439961
 20
-13.945871188709784
 30
0.0
 40
0.2500000000000737
100
AcDbArc
 50
89.999999999973937
 51
360.0
  0
LINE
  5
21E
100
AcDbEntity
100
AcDbLine
  8
0
 62
256
370
-1
 48
1.0
  6
ByLayer
 10
529.49666232439972
 20
-13.695871188709711
 30
0.0
 11
529.49666232439972
 21
-11.19587118870972
 31
0.0
  0
ARC
  5
21F
100
AcDbEntity
  8
0
 62
256
370
-1
 48
1.0
  6
ByLayer
100
AcDbCircle
 10
529.49666232439972
 20
-10.945871188709761
 30
0.0
 40
0.2499999999999591
100
AcDbArc
 50
360.0
 51
270.0
  0
LINE
  5
220
100
AcDbEntity
100
AcDbLine
  8
0
 62
256
370
-1
 48
1.0
  6
ByLayer
 10
529.74666232439972
 20
-10.945871188709802
 30
0.0
 11
530.84666232439974
 21
-10.945871188709752
 31
0.0
  0
LINE
  5
221
100
AcDbEntity
100
AcDbLine
  8
0
 62
256
370
-1
 48
1.0
  6
ByLayer
 10
530.84666232439974
 20
-10.945871188709752
 30
0.0
 11
530.84666232439974
 21
-6.3458711887098689
 31
0.0
  0
LINE
  5
222
100
AcDbEntity
100
AcDbLine
  8
0
 62
256
370
-1
 48
1.0
  6
ByLayer
 10
530.84666232439974
 20
-6.3458711887098689
 30
0.0
 11
507.49666232439984
 21
-6.3458711887098875
 31
0.0
  0
LINE
  5
223
100
AcDbEntity
100
AcDbLine
  8
0
 62
256
370
-1
 48
1.0
  6
ByLayer
 10
507.49666232439984
 20
-6.3458711887098875
 30
0.0
 11
507.49666232439972
 21
0.0541288112901199
 31
0.0
  0
LINE
  5
224
100
AcDbEntity
100
AcDbLine
  8
0
 62
256
370
-1
 48
1.0
  6
ByLayer
 10
507.49666232439972
 20
0.0541288112901199
 30
0.0
 11
482.49666232439972
 21
0.0541288112900702
 31
0.0
  0
LINE
  5
225
100
AcDbEntity
100
AcDbLine
  8
0
 62
256
370
-1
 48
1.0
  6
ByLayer
 10
482.49666232439972
 20
0.0541288112900702
 30
0.0
 11
482.49666232439961
 21
-6.3458711887097499
 31
0.0
  0
LINE
  5
226
100
AcDbEntity
100
AcDbLine
  8
0
 62
256
370
-1
 48
1.0
  6
ByLayer
 10
482.49666232439961
 20
-6.3458711887097499
 30
0.0
 11
477.8966623243997
 21
-6.345871188709749
 31
0.0
  0
LINE
  5
227
100
AcDbEntity
100
AcDbLine
  8
0
 62
256
370
-1
 48
1.0
  6
ByLayer
 10
477.8966623243997
 20
-6.345871188709749
 30
0.0
 11
477.8966623243997
 21
-10.94587118870977
 31
0.0
  0
LINE
  5
228
100
AcDbEntity
100
AcDbLine
  8
0
 62
256
370
-1
 48
1.0
  6
ByLayer
 10
477.8966623243997
 20
-10.94587118870977
 30
0.0
 11
478.99666232439972
 21
-10.945871188709919
 31
0.0
  0
ARC
  5
229
100
AcDbEntity
  8
0
 62
256
370
-1
 48
1.0
  6
ByLayer
100
AcDbCircle
 10
479.24666232439972
 20
-10.9458711887099
 30
0.0
 40
0.2499999999999805
100
AcDbArc
 50
270.0
 51
180.0
  0
LINE
  5
22A
100
AcDbEntity
100
AcDbLine
  8
0
 62
256
370
-1
 48
1.0
  6
ByLayer
 10
479.24666232439972
 20
-11.19587118870988
 30
0.0
 11
479.24666232439972
 21
-13.695871188709869
 31
0.0
  0
ARC
  5
22B
100
AcDbEntity
  8
0
 62
256
370
-1
 48
1.0
  6
ByLayer
100
AcDbCircle
 10
479.24666232439967
 20
-13.945871188709834
 30
0.0
 40
0.2499999999999636
100
AcDbArc
 50
180.0
 51
89.999999999986969
  0
LINE
  5
22C
100
AcDbEntity
100
AcDbLine
  8
0
 62
256
370
-1
 48
1.0
  6
ByLayer
 10
478.99666232439972
 20
-13.945871188709797
 30
0.0
 11
477.8966623243997
 21
-13.945871188709926
 31
0.0
  0
LINE
  5
22D
100
AcDbEntity
100
AcDbLine
  8
0
 62
256
370
-1
 48
1.0
  6
ByLayer
 10
477.8966623243997
 20
-13.945871188709926
 30
0.0
 11
477.8966623243997
 21
-15.94587118870983
 31
0.0
  0
LINE
  5
22E
100
AcDbEntity
100
AcDbLine
  8
0
 62
256
370
-1
 48
1.0
  6
ByLayer
 10
477.8966623243997
 20
-15.94587118870983
 30
0.0
 11
474.59666232439974
 21
-15.945871188709916
 31
0.0
  0
LINE
  5
22F
100
AcDbEntity
100
AcDbLine
  8
0
 62
256
370
-1
 48
1.0
  6
ByLayer
 10
474.59666232439974
 20
-15.945871188709916
 30
0.0
 11
474.59666232439969
 21
-13.945871188709951
 31
0.0
  0
LINE
  5
230
100
AcDbEntity
100
AcDbLine
  8
0
 62
256
370
-1
 48
1.0
  6
ByLayer
 10
474.59666232439969
 20
-13.945871188709951
 30
0.0
 11
473.49666232439972
 21
-13.945871188709864
 31
0.0
  0
ARC
  5
231
100
AcDbEntity
  8
0
 62
256
370
-1
 48
1.0
  6
ByLayer
100
AcDbCircle
 10
473.24666232439978
 20
-13.945871188709894
 30
0.0
 40
0.2499999999999698
100
AcDbArc
 50
90.000000000013031
 51
0.0
  0
LINE
  5
232
100
AcDbEntity
100
AcDbLine
  8
0
 62
256
370
-1
 48
1.0
  6
ByLayer
 10
473.24666232439972
 20
-13.695871188709924
 30
0.0
 11
473.24666232439972
 21
-11.19587118870993
 31
0.0
  0
ARC
  5
233
100
AcDbEntity
  8
0
 62
256
370
-1
 48
1.0
  6
ByLayer
100
AcDbCircle
 10
473.24666232439967
 20
-10.945871188709887
 30
0.0
 40
0.2500000000000426
100
AcDbArc
 50
0.0
 51
270.00000000001302
  0
LINE
  5
234
100
AcDbEntity
100
AcDbLine
  8
0
 62
256
370
-1
 48
1.0
  6
ByLayer
 10
473.49666232439972
 20
-10.945871188709845
 30
0.0
 11
474.59666232439969
 21
-10.945871188709933
 31
0.0
  0
LINE
  5
235
100
AcDbEntity
100
AcDbLine
  8
0
 62
256
370
-1
 48
1.0
  6
ByLayer
 10
474.59666232439969
 20
-10.945871188709933
 30
0.0
 11
474.59666232439974
 21
-6.3458711887099275
 31
0.0
  0
LINE
  5
236
100
AcDbEntity
100
AcDbLine
  8
0
 62
256
370
-1
 48
1.0
  6
ByLayer
 10
474.59666232439974
 20
-6.3458711887099275
 30
0.0
 11
449.99666232439978
 21
-6.3458711887099986
 31
0.0
  0
LINE
  5
237
100
AcDbEntity
100
AcDbLine
  8
0
 62
256
370
-1
 48
1.0
  6
ByLayer
 10
456.3966623243997
 20
-64.679204522043293
 30
0.0
 11
449.99666232439978
 21
-64.67920452204325
 31
0.0
  0
LINE
  5
238
100
AcDbEntity
100
AcDbLine
  8
0
 62
256
370
-1
 48
1.0
  6
ByLayer
 10
449.99666232439978
 20
-64.67920452204325
 30
0.0
 11
449.99666232439972
 21
-121.34587118870962
 31
0.0
  0
LINE
  5
239
100
AcDbEntity
100
AcDbLine
  8
0
 62
256
370
-1
 48
1.0
  6
ByLayer
 10
449.99666232439972
 20
-121.34587118870962
 30
0.0
 11
456.3966623243997
 21
-121.34587118870958
 31
0.0
  0
LINE
  5
23A
100
AcDbEntity
100
AcDbLine
  8
0
 62
256
370
-1
 48
1.0
  6
ByLayer
 10
449.99666232439972
 20
-151.34587118870974
 30
0.0
 11
449.99666232439978
 21
-208.01253785537637
 31
0.0
  0
LINE
  5
23B
100
AcDbEntity
100
AcDbLine
  8
0
 62
256
370
-1
 48
1.0
  6
ByLayer
 10
449.99666232439978
 20
-208.01253785537637
 30
0.0
 11
456.39666232439976
 21
-208.01253785537631
 31
0.0
  0
LINE
  5
23C
100
AcDbEntity
100
AcDbLine
  8
0
 62
256
370
-1
 48
1.0
  6
ByLayer
 10
456.39666232439964
 20
-238.01253785537614
 30
0.0
 11
449.99666232439972
 21
-238.01253785537619
 31
0.0
  0
LINE
  5
23D
100
AcDbEntity
100
AcDbLine
  8
0
 62
256
370
-1
 48
1.0
  6
ByLayer
 10
449.99666232439972
 20
-238.01253785537619
 30
0.0
 11
449.99666232439961
 21
-266.34587118870985
 31
0.0
  0
LINE
  5
23E
100
AcDbEntity
100
AcDbLine
  8
0
 62
256
370
-1
 48
1.0
  6
ByLayer
 10
449.99666232439961
 20
-266.34587118870985
 30
0.0
 11
474.59666232439974
 21
-266.34587118871002
 31
0.0
  0
LINE
  5
23F
100
AcDbEntity
100
AcDbLine
  8
0
 62
256
370
-1
 48
1.0
  6
ByLayer
 10
172.49666232439944
 20
-237.44587118870982
 30
0.0
 11
144.49666232439935
 21
-237.44587118870982
 31
0.0
  0
LINE
  5
240
100
AcDbEntity
100
AcDbLine
  8
0
 62
256
370
-1
 48
1.0
  6
ByLayer
 10
144.49666232439935
 20
-237.44587118870982
 30
0.0
 11
144.49666232439938
 21
-163.44587118870987
 31
0.0
  0
LINE
  5
241
100
AcDbEntity
100
AcDbLine
  8
0
 62
256
370
-1
 48
1.0
  6
ByLayer
 10
144.49666232439938
 20
-163.44587118870987
 30
0.0
 11
172.49666232439935
 21
-163.44587118870987
 31
0.0
  0
LINE
  5
242
100
AcDbEntity
100
AcDbLine
  8
0
 62
256
370
-1
 48
1.0
  6
ByLayer
 10
172.49666232439935
 20
-163.44587118870987
 30
0.0
 11
172.49666232439944
 21
-237.44587118870982
 31
0.0
  0
LINE
  5
243
100
AcDbEntity
100
AcDbLine
  8
0
 62
256
370
-1
 48
1.0
  6
ByLayer
 10
239.99666232439944
 20
-238.01253785537625
 30
0.0
 11
233.59666232439946
 21
-238.01253785537634
 31
0.0
  0
LINE
  5
244
100
AcDbEntity
100
AcDbLine
  8
0
 62
256
370
-1
 48
1.0
  6
ByLayer
 10
233.59666232439946
 20
-238.01253785537634
 30
0.0
 11
233.59666232439943
 21
-208.01253785537625
 31
0.0
  0
LINE
  5
245
100
AcDbEntity
100
AcDbLine
  8
0
 62
256
370
-1
 48
1.0
  6
ByLayer
 10
233.59666232439943
 20
-208.01253785537625
 30
0.0
 11
239.99666232439947
 21
-208.01253785537648
 31
0.0
  0
LINE
  5
246
100
AcDbEntity
100
AcDbLine
  8
0
 62
256
370
-1
 48
1.0
  6
ByLayer
 10
239.99666232439947
 20
-208.01253785537648
 30
0.0
 11
239.99666232439932
 21
-151.34587118870965
 31
0.0
  0
LINE
  5
247
100
AcDbEntity
100
AcDbLine
  8
0
 62
256
370
-1
 48
1.0
  6
ByLayer
 10
239.99666232439932
 20
-151.34587118870965
 30
0.0
 11
233.5966623243994
 21
-151.34587118870962
 31
0.0
  0
LINE
  5
248
100
AcDbEntity
100
AcDbLine
  8
0
 62
256
370
-1
 48
1.0
  6
ByLayer
 10
233.5966623243994
 20
-151.34587118870962
 30
0.0
 11
233.59666232439955
 21
-121.34587118870985
 31
0.0
  0
LINE
  5
249
100
AcDbEntity
100
AcDbLine
  8
0
 62
256
370
-1
 48
1.0
  6
ByLayer
 10
239.99666232439938
 20
-121.34587118870974
 30
0.0
 11
239.99666232439944
 21
-64.679204522043307
 31
0.0
  0
LINE
  5
24A
100
AcDbEntity
100
AcDbLine
  8
0
 62
256
370
-1
 48
1.0
  6
ByLayer
 10
233.59666232439943
 20
-34.679204522043221
 30
0.0
 11
239.99666232439938
 21
-34.679204522043165
 31
0.0
  0
LINE
  5
24B
100
AcDbEntity
100
AcDbLine
  8
0
 62
256
370
-1
 48
1.0
  6
ByLayer
 10
239.99666232439938
 20
-34.679204522043165
 30
0.0
 11
239.99666232439941
 21
-6.3458711887099639
 31
0.0
  0
LINE
  5
24C
100
AcDbEntity
100
AcDbLine
  8
0
 62
256
370
-1
 48
1.0
  6
ByLayer
 10
239.99666232439941
 20
-6.3458711887099639
 30
0.0
 11
207.49666232439955
 21
-6.3458711887099923
 31
0.0
  0
LINE
  5
24D
100
AcDbEntity
100
AcDbLine
  8
0
 62
256
370
-1
 48
1.0
  6
ByLayer
 10
207.49666232439955
 20
-6.3458711887099923
 30
0.0
 11
207.49666232439947
 21
0.0541288112900702
 31
0.0
  0
LINE
  5
24E
100
AcDbEntity
100
AcDbLine
  8
0
 62
256
370
-1
 48
1.0
  6
ByLayer
 10
207.49666232439947
 20
0.0541288112900702
 30
0.0
 11
182.4966623243993
 21
0.054128811290127
 31
0.0
  0
LINE
  5
24F
100
AcDbEntity
100
AcDbLine
  8
0
 62
256
370
-1
 48
1.0
  6
ByLayer
 10
182.4966623243993
 20
0.054128811290127
 30
0.0
 11
182.49666232439938
 21
-6.3458711887098502
 31
0.0
  0
LINE
  5
250
100
AcDbEntity
100
AcDbLine
  8
0
 62
256
370
-1
 48
1.0
  6
ByLayer
 10
182.49666232439938
 20
-6.3458711887098502
 30
0.0
 11
132.49666232439952
 21
-6.3458711887099355
 31
0.0
  0
LINE
  5
251
100
AcDbEntity
100
AcDbLine
  8
0
 62
256
370
-1
 48
1.0
  6
ByLayer
 10
132.49666232439952
 20
-6.3458711887099355
 30
0.0
 11
132.49666232439952
 21
0.0541288112900133
 31
0.0
  0
LINE
  5
252
100
AcDbEntity
100
AcDbLine
  8
0
 62
256
370
-1
 48
1.0
  6
ByLayer
 10
132.49666232439952
 20
0.0541288112900133
 30
0.0
 11
107.49666232439949
 21
0.0541288112900702
 31
0.0
  0
LINE
  5
253
100
AcDbEntity
100
AcDbLine
  8
0
 62
256
370
-1
 48
1.0
  6
ByLayer
 10
107.49666232439949
 20
0.0541288112900702
 30
0.0
 11
107.4966623243993
 21
-6.3458711887098787
 31
0.0
  0
LINE
  5
254
100
AcDbEntity
100
AcDbLine
  8
0
 62
256
370
-1
 48
1.0
  6
ByLayer
 10
107.4966623243993
 20
-6.3458711887098787
 30
0.0
 11
55.596662324399226
 21
-6.3458711887098787
 31
0.0
  0
LINE
  5
255
100
AcDbEntity
100
AcDbLine
  8
0
 62
256
370
-1
 48
1.0
  6
ByLayer
 10
55.596662324399226
 20
-6.3458711887098787
 30
0.0
 11
55.596662324399389
 21
-12.745871188709884
 31
0.0
  0
LINE
  5
256
100
AcDbEntity
100
AcDbLine
  8
0
 62
256
370
-1
 48
1.0
  6
ByLayer
 10
55.596662324399389
 20
-12.745871188709884
 30
0.0
 11
-0.0033376756006475
 21
-12.745871188709884
 31
0.0
  0
LINE
  5
257
100
AcDbEntity
100
AcDbLine
  8
0
 62
256
370
-1
 48
1.0
  6
ByLayer
 10
-0.0033376756006475
 20
-12.745871188709884
 30
0.0
 11
-0.0033376756006627
 21
-259.94587118870987
 31
0.0
  0
LINE
  5
258
100
AcDbEntity
100
AcDbLine
  8
0
 62
256
370
-1
 48
1.0
  6
ByLayer
 10
-0.0033376756006627
 20
-259.94587118870987
 30
0.0
 11
55.596662324399318
 21
-259.94587118870982
 31
0.0
  0
LINE
  5
259
100
AcDbEntity
100
AcDbLine
  8
0
 62
256
370
-1
 48
1.0
  6
ByLayer
 10
55.596662324399318
 20
-259.94587118870982
 30
0.0
 11
55.596662324399318
 21
-266.34587118870991
 31
0.0
  0
LINE
  5
25A
100
AcDbEntity
100
AcDbLine
  8
0
 62
256
370
-1
 48
1.0
  6
ByLayer
 10
55.596662324399318
 20
-266.34587118870991
 30
0.0
 11
107.49666232439934
 21
-266.34587118871002
 31
0.0
  0
LINE
  5
25B
100
AcDbEntity
100
AcDbLine
  8
0
 62
256
370
-1
 48
1.0
  6
ByLayer
 10
107.49666232439934
 20
-266.34587118871002
 30
0.0
 11
107.49666232439942
 21
-272.74587118871
 31
0.0
  0
LINE
  5
25C
100
AcDbEntity
100
AcDbLine
  8
0
 62
256
370
-1
 48
1.0
  6
ByLayer
 10
107.49666232439942
 20
-272.74587118871
 30
0.0
 11
132.49666232439932
 21
-272.74587118871
 31
0.0
  0
LINE
  5
25D
100
AcDbEntity
100
AcDbLine
  8
0
 62
256
370
-1
 48
1.0
  6
ByLayer
 10
132.49666232439932
 20
-272.74587118871
 30
0.0
 11
132.49666232439944
 21
-266.34587118871002
 31
0.0
  0
LINE
  5
25E
100
AcDbEntity
100
AcDbLine
  8
0
 62
256
370
-1
 48
1.0
  6
ByLayer
 10
132.49666232439944
 20
-266.34587118871002
 30
0.0
 11
182.49666232439921
 21
-266.34587118871002
 31
0.0
  0
LINE
  5
25F
100
AcDbEntity
100
AcDbLine
  8
0
 62
256
370
-1
 48
1.0
  6
ByLayer
 10
182.49666232439921
 20
-266.34587118871002
 30
0.0
 11
182.49666232439932
 21
-272.74587118871005
 31
0.0
  0
LINE
  5
260
100
AcDbEntity
100
AcDbLine
  8
0
 62
256
370
-1
 48
1.0
  6
ByLayer
 10
182.49666232439932
 20
-272.74587118871005
 30
0.0
 11
207.49666232439932
 21
-272.74587118871
 31
0.0
  0
LINE
  5
261
100
AcDbEntity
100
AcDbLine
  8
0
 62
256
370
-1
 48
1.0
  6
ByLayer
 10
207.49666232439932
 20
-272.74587118871
 30
0.0
 11
207.49666232439932
 21
-266.34587118871002
 31
0.0
  0
LINE
  5
262
100
AcDbEntity
100
AcDbLine
  8
0
 62
256
370
-1
 48
1.0
  6
ByLayer
 10
207.49666232439932
 20
-266.34587118871002
 30
0.0
 11
239.99666232439944
 21
-266.34587118870996
 31
0.0
  0
LINE
  5
263
100
AcDbEntity
100
AcDbLine
  8
0
 62
256
370
-1
 48
1.0
  6
ByLayer
 10
193.59666232439946
 20
-194.94587118870987
 30
0.0
 11
193.59666232439943
 21
-239.94587118870979
 31
0.0
  0
LINE
  5
264
100
AcDbEntity
100
AcDbLine
  8
0
 62
256
370
-1
 48
1.0
  6
ByLayer
 10
193.59666232439943
 20
-239.94587118870979
 30
0.0
 11
176.59666232439943
 21
-239.9458711887099
 31
0.0
  0
LINE
  5
265
100
AcDbEntity
100
AcDbLine
  8
0
 62
256
370
-1
 48
1.0
  6
ByLayer
 10
176.59666232439943
 20
-239.9458711887099
 30
0.0
 11
176.59666232439949
 21
-194.94587118870987
 31
0.0
  0
LINE
  5
266
100
AcDbEntity
100
AcDbLine
  8
0
 62
256
370
-1
 48
1.0
  6
ByLayer
 10
176.59666232439949
 20
-194.94587118870987
 30
0.0
 11
193.59666232439946
 21
-194.94587118870987
 31
0.0
  0
LINE
  5
267
100
AcDbEntity
100
AcDbLine
  8
0
 62
256
370
-1
 48
1.0
  6
ByLayer
 10
375.29666232439956
 20
-181.34587118870974
 30
0.0
 11
375.29666232439956
 21
-201.34587118870974
 31
0.0
  0
LINE
  5
268
100
AcDbEntity
100
AcDbLine
  8
0
 62
256
370
-1
 48
1.0
  6
ByLayer
 10
375.29666232439956
 20
-201.34587118870974
 30
0.0
 11
369.69666232439965
 21
-201.34587118870985
 31
0.0
  0
LINE
  5
269
100
AcDbEntity
100
AcDbLine
  8
0
 62
256
370
-1
 48
1.0
  6
ByLayer
 10
369.69666232439965
 20
-201.34587118870985
 30
0.0
 11
369.6966623243996
 21
-181.34587118870974
 31
0.0
  0
LINE
  5
26A
100
AcDbEntity
100
AcDbLine
  8
0
 62
256
370
-1
 48
1.0
  6
ByLayer
 10
369.6966623243996
 20
-181.34587118870974
 30
0.0
 11
375.29666232439956
 21
-181.34587118870974
 31
0.0
  0
LINE
  5
26B
100
AcDbEntity
100
AcDbLine
  8
0
 62
256
370
-1
 48
1.0
  6
ByLayer
 10
375.29666232439956
 20
-136.34587118870976
 30
0.0
 11
369.69666232439965
 21
-136.34587118870979
 31
0.0
  0
LINE
  5
26C
100
AcDbEntity
100
AcDbLine
  8
0
 62
256
370
-1
 48
1.0
  6
ByLayer
 10
369.69666232439965
 20
-136.34587118870979
 30
0.0
 11
369.69666232439971
 21
-116.34587118870982
 31
0.0
  0
LINE
  5
26D
100
AcDbEntity
100
AcDbLine
  8
0
 62
256
370
-1
 48
1.0
  6
ByLayer
 10
369.69666232439971
 20
-116.34587118870982
 30
0.0
 11
375.29666232439968
 21
-116.34587118870982
 31
0.0
  0
LINE
  5
26E
100
AcDbEntity
100
AcDbLine
  8
0
 62
256
370
-1
 48
1.0
  6
ByLayer
 10
375.29666232439968
 20
-116.34587118870982
 30
0.0
 11
375.29666232439956
 21
-136.34587118870976
 31
0.0
  0
ENDSEC
  0
SECTION
  2
OBJECTS
  0
DICTIONARY
  5
C
100
AcDbDictionary
280
0
281
1
  3
ACAD_GROUP
350
D
  3
ACAD_LAYOUT
350
1A
  3
ACAD_MLINESTYLE
350
17
  3
ACAD_PLOTSETTINGS
350
19
  3
ACAD_PLOTSTYLENAME
350
E
  3
AcDbVariableDictionary
350
26F
  3
QCAD_OBJECTS
350
270
  0
DICTIONARY
  5
D
100
AcDbDictionary
280
0
281
1
  0
ACDBDICTIONARYWDFLT
  5
E
100
AcDbDictionary
281
1
  3
Normal
350
F
100
AcDbDictionaryWithDefault
340
F
  0
ACDBPLACEHOLDER
  5
F
  0
DICTIONARY
  5
17
100
AcDbDictionary
280
0
281
1
  3
Standard
350
18
  0
MLINESTYLE
  5
18
100
AcDbMlineStyle
  2
STANDARD
 70
0
  3

 62
256
 51
90.0
 52
90.0
 71
2
 49
0.5
 62
256
  6
BYLAYER
 49
-0.5
 62
256
  6
BYLAYER
  0
DICTIONARY
  5
19
100
AcDbDictionary
280
0
281
1
  0
DICTIONARY
  5
1A
100
AcDbDictionary
281
1
  3
Layout1
350
1E
  3
Layout2
350
26
  3
Model
350
22
  0
LAYOUT
  5
1E
100
AcDbPlotSettings
  1

  2
none_device
  4

  6

 40
0.0
 41
0.0
 42
0.0
 43
0.0
 44
0.0
 45
0.0
 46
0.0
 47
0.0
 48
0.0
 49
0.0
140
0.0
141
0.0
142
1.0
143
1.0
 70
688
 72
0
 73
0
 74
5
  7

 75
16
147
1.0
148
0.0
149
0.0
100
AcDbLayout
  1
Layout1
 70
1
 71
1
 10
0.0
 20
0.0
 11
420.0
 21
297.0
 12
0.0
 22
0.0
 32
0.0
 14
100000000000000000000.0
 24
100000000000000000000.0
 34
100000000000000000000.0
 15
-100000000000000000000.0
 25
-100000000000000000000.0
 35
-100000000000000000000.0
146
0.0
 13
0.0
 23
0.0
 33
0.0
 16
1.0
 26
0.0
 36
0.0
 17
0.0
 27
1.0
 37
0.0
 76
0
330
1B
  0
LAYOUT
  5
22
100
AcDbPlotSettings
  1

  2
none_device
  4

  6

 40
0.0
 41
0.0
 42
0.0
 43
0.0
 44
0.0
 45
0.0
 46
0.0
 47
0.0
 48
0.0
 49
0.0
140
0.0
141
0.0
142
1.0
143
1.0
 70
1712
 72
0
 73
0
 74
0
  7

 75
0
147
1.0
148
0.0
149
0.0
100
AcDbLayout
  1
Model
 70
1
 71
0
 10
0.0
 20
0.0
 11
12.0
 21
9.0
 12
0.0
 22
0.0
 32
0.0
 14
0.0
 24
0.0
 34
0.0
 15
0.0
 25
0.0
 35
0.0
146
0.0
 13
0.0
 23
0.0
 33
0.0
 16
1.0
 26
0.0
 36
0.0
 17
0.0
 27
1.0
 37
0.0
 76
0
330
1F
  0
LAYOUT
  5
26
100
AcDbPlotSettings
  1

  2
none_device
  4

  6

 40
0.0
 41
0.0
 42
0.0
 43
0.0
 44
0.0
 45
0.0
 46
0.0
 47
0.0
 48
0.0
 49
0.0
140
0.0
141
0.0
142
1.0
143
1.0
 70
688
 72
0
 73
0
 74
5
  7

 75
16
147
1.0
148
0.0
149
0.0
100
AcDbLayout
  1
Layout2
 70
1
 71
2
 10
0.0
 20
0.0
 11
12.0
 21
9.0
 12
0.0
 22
0.0
 32
0.0
 14
0.0
 24
0.0
 34
0.0
 15
0.0
 25
0.0
 35
0.0
146
0.0
 13
0.0
 23
0.0
 33
0.0
 16
1.0
 26
0.0
 36
0.0
 17
0.0
 27
1.0
 37
0.0
 76
0
330
23
  0
DICTIONARY
  5
26F
100
AcDbDictionary
281
1
  3
DIMASSOC
350
272
  3
HIDETEXT
350
271
  0
DICTIONARYVAR
  5
271
100
DictionaryVariables
280
0
  1
2
  0
DICTIONARYVAR
  5
272
100
DictionaryVariables
280
0
  1
1
  0
DICTIONARY
  5
270
100
AcDbDictionary
281
1
  3
ACAD_CIP_PREVIOUS_PRODUCT_INFO
350
273
  3
Grid/DisplayGrid00
350
274
  3
Grid/DisplayGrid01
350
275
  3
Grid/DisplayGrid02
350
276
  3
Grid/DisplayGrid03
350
277
  3
Grid/GridSpacingX00
350
278
  3
Grid/GridSpacingX01
350
279
  3
Grid/GridSpacingX02
350
27A
  3
Grid/GridSpacingX03
350
27B
  3
Grid/GridSpacingY00
350
27C
  3
Grid/GridSpacingY01
350
27D
  3
Grid/GridSpacingY02
350
27E
  3
Grid/GridSpacingY03
350
27F
  3
Grid/IsometricGrid00
350
280
  3
Grid/IsometricGrid01
350
281
  3
Grid/IsometricGrid02
350
282
  3
Grid/IsometricGrid03
350
283
  3
Grid/IsometricProjection00
350
284
  3
Grid/IsometricProjection01
350
285
  3
Grid/IsometricProjection02
350
286
  3
Grid/IsometricProjection03
350
287
  3
Grid/MetaGridSpacingX00
350
288
  3
Grid/MetaGridSpacingX01
350
289
  3
Grid/MetaGridSpacingX02
350
28A
  3
Grid/MetaGridSpacingX03
350
28B
  3
Grid/MetaGridSpacingY00
350
28C
  3
Grid/MetaGridSpacingY01
350
28D
  3
Grid/MetaGridSpacingY02
350
28E
  3
Grid/MetaGridSpacingY03
350
28F
  3
MultiPageSettings/Columns
350
290
  3
MultiPageSettings/GlueMarginsBottom
350
291
  3
MultiPageSettings/GlueMarginsLeft
350
292
  3
MultiPageSettings/GlueMarginsRight
350
293
  3
MultiPageSettings/GlueMarginsTop
350
294
  3
MultiPageSettings/PrintCropMarks
350
295
  3
MultiPageSettings/Rows
350
296
  3
PageSettings/OffsetX
350
297
  3
PageSettings/OffsetY
350
298
  3
PageSettings/PageOrientation
350
299
  3
PageSettings/PaperHeight
350
29A
  3
PageSettings/PaperWidth
350
29B
  3
PageSettings/Scale
350
29C
  3
PageSettings/ShowPaperBorders
350
29D
  3
UnitSettings/PaperUnit
350
29E
  0
XRECORD
  5
274
330
270
100
AcDbXrecord
280
1
290
1
  0
XRECORD
  5
275
330
270
100
AcDbXrecord
280
1
290
1
  0
XRECORD
  5
276
330
270
100
AcDbXrecord
280
1
290
1
  0
XRECORD
  5
277
330
270
100
AcDbXrecord
280
1
290
1
  0
XRECORD
  5
278
330
270
100
AcDbXrecord
280
1
1000
auto
  0
XRECORD
  5
279
330
270
100
AcDbXrecord
280
1
1000
auto
  0
XRECORD
  5
27A
330
270
100
AcDbXrecord
280
1
1000
auto
  0
XRECORD
  5
27B
330
270
100
AcDbXrecord
280
1
1000
auto
  0
XRECORD
  5
27C
330
270
100
AcDbXrecord
280
1
1000
auto
  0
XRECORD
  5
27D
330
270
100
AcDbXrecord
280
1
1000
auto
  0
XRECORD
  5
27E
330
270
100
AcDbXrecord
280
1
1000
auto
  0
XRECORD
  5
27F
330
270
100
AcDbXrecord
280
1
1000
auto
  0
XRECORD
  5
280
330
270
100
AcDbXrecord
280
1
290
0
  0
XRECORD
  5
281
330
270
100
AcDbXrecord
280
1
290
0
  0
XRECORD
  5
282
330
270
100
AcDbXrecord
280
1
290
0
  0
XRECORD
  5
283
330
270
100
AcDbXrecord
280
1
290
0
  0
XRECORD
  5
284
330
270
100
AcDbXrecord
280
1
 90
0
  0
XRECORD
  5
285
330
270
100
AcDbXrecord
280
1
 90
0
  0
XRECORD
  5
286
330
270
100
AcDbXrecord
280
1
 90
0
  0
XRECORD
  5
287
330
270
100
AcDbXrecord
280
1
 90
0
  0
XRECORD
  5
288
330
270
100
AcDbXrecord
280
1
1000
auto
  0
XRECORD
  5
289
330
270
100
AcDbXrecord
280
1
1000
auto
  0
XRECORD
  5
28A
330
270
100
AcDbXrecord
280
1
1000
auto
  0
XRECORD
  5
28B
330
270
100
AcDbXrecord
280
1
1000
auto
  0
XRECORD
  5
28C
330
270
100
AcDbXrecord
280
1
1000
auto
  0
XRECORD
  5
28D
330
270
100
AcDbXrecord
280
1
1000
auto
  0
XRECORD
  5
28E
330
270
100
AcDbXrecord
280
1
1000
auto
  0
XRECORD
  5
28F
330
270
100
AcDbXrecord
280
1
1000
auto
  0
XRECORD
  5
290
330
270
100
AcDbXrecord
280
1
 90
1
  0
XRECORD
  5
291
330
270
100
AcDbXrecord
280
1
 40
10.0
  0
XRECORD
  5
292
330
270
100
AcDbXrecord
280
1
 40
10.0
  0
XRECORD
  5
293
330
270
100
AcDbXrecord
280
1
 40
10.0
  0
XRECORD
  5
294
330
270
100
AcDbXrecord
280
1
 40
10.0
  0
XRECORD
  5
295
330
270
100
AcDbXrecord
280
1
290
0
  0
XRECORD
  5
296
330
270
100
AcDbXrecord
280
1
 90
1
  0
XRECORD
  5
297
330
270
100
AcDbXrecord
280
1
 40
0.0
  0
XRECORD
  5
298
330
270
100
AcDbXrecord
280
1
 40
0.0
  0
XRECORD
  5
299
330
270
100
AcDbXrecord
280
1
1000
Portrait
  0
XRECORD
  5
29A
330
270
100
AcDbXrecord
280
1
 40
297.0
  0
XRECORD
  5
29B
330
270
100
AcDbXrecord
280
1
 40
210.0
  0
XRECORD
  5
29C
330
270
100
AcDbXrecord
280
1
1000
1:1
  0
XRECORD
  5
29D
330
270
100
AcDbXrecord
280
1
290
1
  0
XRECORD
  5
29E
330
270
100
AcDbXrecord
280
1
 90
4
  0
ENDSEC
  0
EOF
