999
dxflib 3.7.5.0
  0
SECTION
  2
HEADER
  9
$ACADVER
  1
AC1015
  9
$HANDSEED
  5
FFFF
  9
$DIMADEC
 70
0
  9
$DIMASZ
 40
2.5
  9
$DIMAUNIT
 70
0
  9
$DIMAZIN
 70
2
  9
$DIMDEC
 70
4
  9
$DIMEXE
 40
1.25
  9
$DIMEXO
 40
0.625
  9
$DIMGAP
 40
0.625
  9
$DIMLUNIT
 70
2
  9
$DIMSCALE
 40
1.0
  9
$DIMTSZ
 40
0.0
  9
$DIMTXT
 40
2.5
  9
$DIMZIN
 70
8
  9
$DWGCODEPAGE
  3
ANSI_1252
  9
$INSUNITS
 70
4
  9
$LTSCALE
 40
1
  0
ENDSEC
  0
SECTION
  2
TABLES
  0
TABLE
  2
VPORT
  5
8
100
AcDbSymbolTable
 70
1
  0
VPORT
  5
30
100
AcDbSymbolTableRecord
100
AcDbViewportTableRecord
  2
*Active
 70
0
 10
0.0
 20
0.0
 11
1.0
 21
1.0
 12
286.30555555555549
 22
148.5
 13
0.0
 23
0.0
 14
10.0
 24
10.0
 15
10.0
 25
10.0
 16
0.0
 26
0.0
 36
1.0
 17
0.0
 27
0.0
 37
0.0
 40
297.0
 41
1.92798353909465
 42
50.0
 43
0.0
 44
0.0
 50
0.0
 51
0.0
 71
0
 72
100
 73
1
 74
3
 75
1
 76
1
 77
0
 78
0
281
0
 65
1
110
0.0
120
0.0
130
0.0
111
1.0
121
0.0
131
0.0
112
0.0
122
1.0
132
0.0
 79
0
146
0.0
  0
ENDTAB
  0
TABLE
  2
LTYPE
  5
5
100
AcDbSymbolTable
 70
41
  0
LTYPE
  5
16
100
AcDbSymbolTableRecord
100
AcDbLinetypeTableRecord
  2
Continuous
 70
0
  3
Solid line
 72
65
 73
0
 40
0.0
  0
LTYPE
  5
31
100
AcDbSymbolTableRecord
100
AcDbLinetypeTableRecord
  2
ACAD_ISO15W100
 70
0
  3
ISO double-dash triple-dot __ __ . . . __ __ . .
 72
65
 73
10
 40
39.000000000000007
 49
12.0
 74
0
 49
-3.0
 74
0
 49
12.0
 74
0
 49
-2.9500000000000002
 74
0
 49
0.1
 74
0
 49
-2.9000000000000004
 74
0
 49
0.1
 74
0
 49
-2.9000000000000004
 74
0
 49
0.1
 74
0
 49
-2.9500000000000002
 74
0
  0
LTYPE
  5
32
100
AcDbSymbolTableRecord
100
AcDbLinetypeTableRecord
  2
DIVIDE
 70
0
  3
Divide ____ . . ____ . . ____ . . ____ . . ____
 72
65
 73
6
 40
31.750000000000004
 49
12.699999999999999
 74
0
 49
-6.2999999999999998
 74
0
 49
0.1
 74
0
 49
-6.25
 74
0
 49
0.1
 74
0
 49
-6.2999999999999998
 74
0
  0
LTYPE
  5
33
100
AcDbSymbolTableRecord
100
AcDbLinetypeTableRecord
  2
ACAD_ISO10W100
 70
0
  3
ISO dash dot __ . __ . __ . __ . __ . __ . __ . 
 72
65
 73
4
 40
18.0
 49
12.0
 74
0
 49
-2.9500000000000002
 74
0
 49
0.1
 74
0
 49
-2.9500000000000002
 74
0
  0
LTYPE
  5
34
100
AcDbSymbolTableRecord
100
AcDbLinetypeTableRecord
  2
ACAD_ISO04W100
 70
0
  3
ISO long-dash dot ____ . ____ . ____ . ____ . _
 72
65
 73
4
 40
30.0
 49
24.0
 74
0
 49
-2.9500000000000002
 74
0
 49
0.1
 74
0
 49
-2.9500000000000002
 74
0
  0
LTYPE
  5
35
100
AcDbSymbolTableRecord
100
AcDbLinetypeTableRecord
  2
CENTER2
 70
0
  3
Center (.5x) ___ _ ___ _ ___ _ ___ _ ___ _ ___
 72
65
 73
4
 40
28.575000000000003
 49
19.050000000000001
 74
0
 49
-3.1749999999999998
 74
0
 49
3.1749999999999998
 74
0
 49
-3.1749999999999998
 74
0
  0
LTYPE
  5
36
100
AcDbSymbolTableRecord
100
AcDbLinetypeTableRecord
  2
ACAD_ISO11W100
 70
0
  3
ISO double-dash dot __ __ . __ __ . __ __ . __ _
 72
65
 73
6
 40
33.0
 49
12.0
 74
0
 49
-3.0
 74
0
 49
12.0
 74
0
 49
-2.9500000000000002
 74
0
 49
0.1
 74
0
 49
-2.9500000000000002
 74
0
  0
LTYPE
  5
37
100
AcDbSymbolTableRecord
100
AcDbLinetypeTableRecord
  2
HIDDEN2
 70
0
  3
Hidden (.5x) _ _ _ _ _ _ _ _ _ _ _ _ _ _ _ _ _ 
 72
65
 73
2
 40
4.7624999999999993
 49
3.1749999999999998
 74
0
 49
-1.5874999999999999
 74
0
  0
LTYPE
  5
38
100
AcDbSymbolTableRecord
100
AcDbLinetypeTableRecord
  2
BORDERX2
 70
0
  3
Border (2x) ____  ____  .  ____  ____  .  ___
 72
65
 73
6
 40
88.899999999999977
 49
25.399999999999999
 74
0
 49
-12.699999999999999
 74
0
 49
25.399999999999999
 74
0
 49
-12.649999999999999
 74
0
 49
0.1
 74
0
 49
-12.649999999999999
 74
0
  0
LTYPE
  5
39
100
AcDbSymbolTableRecord
100
AcDbLinetypeTableRecord
  2
ACAD_ISO05W100
 70
0
  3
ISO long-dash double-dot ____ .. ____ .. ____ . 
 72
65
 73
6
 40
33.000000000000007
 49
24.0
 74
0
 49
-2.9500000000000002
 74
0
 49
0.1
 74
0
 49
-2.9000000000000004
 74
0
 49
0.1
 74
0
 49
-2.9500000000000002
 74
0
  0
LTYPE
  5
3A
100
AcDbSymbolTableRecord
100
AcDbLinetypeTableRecord
  2
DASHDOTX2
 70
0
  3
Dash dot (2x) ____  .  ____  .  ____  .  ___
 72
65
 73
4
 40
50.799999999999997
 49
25.399999999999999
 74
0
 49
-12.649999999999999
 74
0
 49
0.1
 74
0
 49
-12.649999999999999
 74
0
  0
LTYPE
  5
3B
100
AcDbSymbolTableRecord
100
AcDbLinetypeTableRecord
  2
HIDDENX2
 70
0
  3
Hidden (2x) ____ ____ ____ ____ ____ ____ ____ 
 72
65
 73
2
 40
19.049999999999997
 49
12.699999999999999
 74
0
 49
-6.3499999999999996
 74
0
  0
LTYPE
  5
3C
100
AcDbSymbolTableRecord
100
AcDbLinetypeTableRecord
  2
CENTERX2
 70
0
  3
Center (2x) ________  __  ________  __  _____
 72
65
 73
4
 40
101.60000000000001
 49
63.5
 74
0
 49
-12.699999999999999
 74
0
 49
12.699999999999999
 74
0
 49
-12.699999999999999
 74
0
  0
LTYPE
  5
3D
100
AcDbSymbolTableRecord
100
AcDbLinetypeTableRecord
  2
BORDER2
 70
0
  3
Border (.5x) __.__.__.__.__.__.__.__.__.__.__.
 72
65
 73
6
 40
22.225000000000001
 49
6.3499999999999996
 74
0
 49
-3.1749999999999998
 74
0
 49
6.3499999999999996
 74
0
 49
-3.125
 74
0
 49
0.1
 74
0
 49
-3.125
 74
0
  0
LTYPE
  5
3E
100
AcDbSymbolTableRecord
100
AcDbLinetypeTableRecord
  2
DASHDOT2
 70
0
  3
Dash dot (.5x) _._._._._._._._._._._._._._._.
 72
65
 73
4
 40
12.699999999999999
 49
6.3499999999999996
 74
0
 49
-3.125
 74
0
 49
0.1
 74
0
 49
-3.125
 74
0
  0
LTYPE
  5
3F
100
AcDbSymbolTableRecord
100
AcDbLinetypeTableRecord
  2
ACAD_ISO12W100
 70
0
  3
ISO dash double-dot __ . . __ . . __ . . __ . . 
 72
65
 73
6
 40
21.0
 49
12.0
 74
0
 49
-2.9500000000000002
 74
0
 49
0.1
 74
0
 49
-2.9000000000000004
 74
0
 49
0.1
 74
0
 49
-2.9500000000000002
 74
0
  0
LTYPE
  5
40
100
AcDbSymbolTableRecord
100
AcDbLinetypeTableRecord
  2
ACAD_ISO07W100
 70
0
  3
ISO dot . . . . . . . . . . . . . . . . . . . . 
 72
65
 73
2
 40
3.0
 49
0.1
 74
0
 49
-2.8999999999999999
 74
0
  0
LTYPE
  5
41
100
AcDbSymbolTableRecord
100
AcDbLinetypeTableRecord
  2
HIDDEN
 70
0
  3
Hidden __ __ __ __ __ __ __ __ __ __ __ __ __ __
 72
65
 73
2
 40
9.5249999999999986
 49
6.3499999999999996
 74
0
 49
-3.1749999999999998
 74
0
  0
LTYPE
  5
42
100
AcDbSymbolTableRecord
100
AcDbLinetypeTableRecord
  2
ACAD_ISO06W100
 70
0
  3
ISO long-dash triple-dot ____ ... ____ ... ____
 72
65
 73
8
 40
36.000000000000007
 49
24.0
 74
0
 49
-2.9500000000000002
 74
0
 49
0.1
 74
0
 49
-2.9000000000000004
 74
0
 49
0.1
 74
0
 49
-2.9000000000000004
 74
0
 49
0.1
 74
0
 49
-2.9500000000000002
 74
0
  0
LTYPE
  5
43
100
AcDbSymbolTableRecord
100
AcDbLinetypeTableRecord
  2
CENTER
 70
0
  3
Center ____ _ ____ _ ____ _ ____ _ ____ _ ____
 72
65
 73
4
 40
50.800000000000004
 49
31.75
 74
0
 49
-6.3499999999999996
 74
0
 49
6.3499999999999996
 74
0
 49
-6.3499999999999996
 74
0
  0
LTYPE
  5
44
100
AcDbSymbolTableRecord
100
AcDbLinetypeTableRecord
  2
DOTX2
 70
0
  3
Dot (2x) .  .  .  .  .  .  .  .  .  .  .  .  .  .
 72
65
 73
2
 40
12.699999999999999
 49
0.1
 74
0
 49
-12.6
 74
0
  0
LTYPE
  5
45
100
AcDbSymbolTableRecord
100
AcDbLinetypeTableRecord
  2
PHANTOM
 70
0
  3
Phantom ______  __  __  ______  __  __  ______ 
 72
65
 73
6
 40
63.500000000000007
 49
31.75
 74
0
 49
-6.3499999999999996
 74
0
 49
6.3499999999999996
 74
0
 49
-6.3499999999999996
 74
0
 49
6.3499999999999996
 74
0
 49
-6.3499999999999996
 74
0
  0
LTYPE
  5
46
100
AcDbSymbolTableRecord
100
AcDbLinetypeTableRecord
  2
ACAD_ISO08W100
 70
0
  3
ISO long-dash short-dash ____ __ ____ __ ____ _
 72
65
 73
4
 40
36.0
 49
24.0
 74
0
 49
-3.0
 74
0
 49
6.0
 74
0
 49
-3.0
 74
0
  0
LTYPE
  5
47
100
AcDbSymbolTableRecord
100
AcDbLinetypeTableRecord
  2
DASHEDX2
 70
0
  3
Dashed (2x) ____  ____  ____  ____  ____  ___
 72
65
 73
2
 40
38.099999999999994
 49
25.399999999999999
 74
0
 49
-12.699999999999999
 74
0
  0
LTYPE
  5
48
100
AcDbSymbolTableRecord
100
AcDbLinetypeTableRecord
  2
ACAD_ISO02W100
 70
0
  3
ISO dash __ __ __ __ __ __ __ __ __ __ __ __ __
 72
65
 73
2
 40
15.0
 49
12.0
 74
0
 49
-3.0
 74
0
  0
LTYPE
  5
49
100
AcDbSymbolTableRecord
100
AcDbLinetypeTableRecord
  2
PHANTOM2
 70
0
  3
Phantom (.5x) ___ _ _ ___ _ _ ___ _ _ ___ _ _
 72
65
 73
6
 40
31.750000000000004
 49
15.875
 74
0
 49
-3.1749999999999998
 74
0
 49
3.1749999999999998
 74
0
 49
-3.1749999999999998
 74
0
 49
3.1749999999999998
 74
0
 49
-3.1749999999999998
 74
0
  0
LTYPE
  5
4A
100
AcDbSymbolTableRecord
100
AcDbLinetypeTableRecord
  2
DASHED2
 70
0
  3
Dashed (.5x) _ _ _ _ _ _ _ _ _ _ _ _ _ _ _ _ _ 
 72
65
 73
2
 40
9.5249999999999986
 49
6.3499999999999996
 74
0
 49
-3.1749999999999998
 74
0
  0
LTYPE
  5
4B
100
AcDbSymbolTableRecord
100
AcDbLinetypeTableRecord
  2
ACAD_ISO09W100
 70
0
  3
ISO long-dash double-short-dash ____ __ __ ____
 72
65
 73
6
 40
45.0
 49
24.0
 74
0
 49
-3.0
 74
0
 49
6.0
 74
0
 49
-3.0
 74
0
 49
6.0
 74
0
 49
-3.0
 74
0
  0
LTYPE
  5
4C
100
AcDbSymbolTableRecord
100
AcDbLinetypeTableRecord
  2
ACAD_ISO13W100
 70
0
  3
ISO double-dash double-dot __ __ . . __ __ . . _
 72
65
 73
8
 40
36.000000000000007
 49
12.0
 74
0
 49
-3.0
 74
0
 49
12.0
 74
0
 49
-2.9500000000000002
 74
0
 49
0.1
 74
0
 49
-2.9000000000000004
 74
0
 49
0.1
 74
0
 49
-2.9500000000000002
 74
0
  0
LTYPE
  5
4D
100
AcDbSymbolTableRecord
100
AcDbLinetypeTableRecord
  2
DOT2
 70
0
  3
Dot (.5x) ........................................
 72
65
 73
2
 40
3.1749999999999998
 49
0.1
 74
0
 49
-3.0749999999999997
 74
0
  0
LTYPE
  5
4E
100
AcDbSymbolTableRecord
100
AcDbLinetypeTableRecord
  2
DASHED
 70
0
  3
Dashed __ __ __ __ __ __ __ __ __ __ __ __ __ _
 72
65
 73
2
 40
19.049999999999997
 49
12.699999999999999
 74
0
 49
-6.3499999999999996
 74
0
  0
LTYPE
  5
4F
100
AcDbSymbolTableRecord
100
AcDbLinetypeTableRecord
  2
ACAD_ISO14W100
 70
0
  3
ISO dash triple-dot __ . . . __ . . . __ . . . _
 72
65
 73
8
 40
24.000000000000004
 49
12.0
 74
0
 49
-2.9500000000000002
 74
0
 49
0.1
 74
0
 49
-2.9000000000000004
 74
0
 49
0.1
 74
0
 49
-2.9000000000000004
 74
0
 49
0.1
 74
0
 49
-2.9500000000000002
 74
0
  0
LTYPE
  5
50
100
AcDbSymbolTableRecord
100
AcDbLinetypeTableRecord
  2
PHANTOMX2
 70
0
  3
Phantom (2x) ____________    ____    ____   _
 72
65
 73
6
 40
127.00000000000001
 49
63.5
 74
0
 49
-12.699999999999999
 74
0
 49
12.699999999999999
 74
0
 49
-12.699999999999999
 74
0
 49
12.699999999999999
 74
0
 49
-12.699999999999999
 74
0
  0
LTYPE
  5
14
100
AcDbSymbolTableRecord
100
AcDbLinetypeTableRecord
  2
BYBLOCK
 70
0
  3

 72
65
 73
0
 40
0.0
  0
LTYPE
  5
51
100
AcDbSymbolTableRecord
100
AcDbLinetypeTableRecord
  2
DIVIDEX2
 70
0
  3
Divide (2x) ________  .  .  ________  .  .  _
 72
65
 73
6
 40
63.5
 49
25.399999999999999
 74
0
 49
-12.649999999999999
 74
0
 49
0.1
 74
0
 49
-12.599999999999998
 74
0
 49
0.1
 74
0
 49
-12.649999999999999
 74
0
  0
LTYPE
  5
52
100
AcDbSymbolTableRecord
100
AcDbLinetypeTableRecord
  2
BORDER
 70
0
  3
Border __ __ . __ __ . __ __ . __ __ . __ __ .
 72
65
 73
6
 40
44.449999999999996
 49
12.699999999999999
 74
0
 49
-6.3499999999999996
 74
0
 49
12.699999999999999
 74
0
 49
-6.2999999999999998
 74
0
 49
0.1
 74
0
 49
-6.2999999999999998
 74
0
  0
LTYPE
  5
53
100
AcDbSymbolTableRecord
100
AcDbLinetypeTableRecord
  2
DIVIDE2
 70
0
  3
Divide (.5x) __..__..__..__..__..__..__..__.._
 72
65
 73
6
 40
15.874999999999998
 49
6.3499999999999996
 74
0
 49
-3.125
 74
0
 49
0.1
 74
0
 49
-3.0750000000000002
 74
0
 49
0.1
 74
0
 49
-3.125
 74
0
  0
LTYPE
  5
54
100
AcDbSymbolTableRecord
100
AcDbLinetypeTableRecord
  2
DOT
 70
0
  3
Dot . . . . . . . . . . . . . . . . . . . . . . . .
 72
65
 73
2
 40
6.3499999999999996
 49
0.1
 74
0
 49
-6.25
 74
0
  0
LTYPE
  5
55
100
AcDbSymbolTableRecord
100
AcDbLinetypeTableRecord
  2
DASHDOT
 70
0
  3
Dash dot __ . __ . __ . __ . __ . __ . __ . __
 72
65
 73
4
 40
25.400000000000002
 49
12.699999999999999
 74
0
 49
-6.2999999999999998
 74
0
 49
0.1
 74
0
 49
-6.2999999999999998
 74
0
  0
LTYPE
  5
56
100
AcDbSymbolTableRecord
100
AcDbLinetypeTableRecord
  2
ACAD_ISO03W100
 70
0
  3
ISO dash space __    __    __    __    __    __
 72
65
 73
2
 40
30.0
 49
12.0
 74
0
 49
-18.0
 74
0
  0
LTYPE
  5
15
100
AcDbSymbolTableRecord
100
AcDbLinetypeTableRecord
  2
ByLayer
 70
0
  3

 72
65
 73
0
 40
0.0
  0
ENDTAB
  0
TABLE
  2
LAYER
  5
2
100
AcDbSymbolTable
 70
1
  0
LAYER
  5
10
100
AcDbSymbolTableRecord
100
AcDbLayerTableRecord
  2
0
 70
0
 62
7
420
16777215
  6
Continuous
370
25
390
F
  0
ENDTAB
  0
TABLE
  2
STYLE
  5
3
100
AcDbSymbolTable
 70
1
  0
STYLE
  5
57
100
AcDbSymbolTableRecord
100
AcDbTextStyleTableRecord
  2
Standard
 70
0
 40
0.0
 41
1.0
 50
0.0
 71
0
 42
2.5
  3

  4

1001
ACAD
1000
txt
1071
0
  0
ENDTAB
  0
TABLE
  2
VIEW
  5
6
100
AcDbSymbolTable
 70
0
  0
ENDTAB
  0
TABLE
  2
UCS
  5
7
100
AcDbSymbolTable
 70
0
  0
ENDTAB
  0
TABLE
  2
APPID
  5
9
100
AcDbSymbolTable
 70
1
  0
APPID
  5
12
100
AcDbSymbolTableRecord
100
AcDbRegAppTableRecord
  2
ACAD
 70
0
  0
APPID
  5
58
100
AcDbSymbolTableRecord
100
AcDbRegAppTableRecord
  2
QCAD
 70
0
  0
ENDTAB
  0
TABLE
  2
DIMSTYLE
  5
A
100
AcDbSymbolTable
 70
1
100
AcDbDimStyleTable
 71
0
  0
DIMSTYLE
105
27
100
AcDbSymbolTableRecord
100
AcDbDimStyleTableRecord
  2
Standard
 41
2.5
 42
0.625
 43
3.75
 44
1.25
 70
0
 73
0
 74
0
 77
1
 78
8
140
2.5
141
2.5
143
0.03937007874016
147
0.625
171
3
172
1
271
2
272
2
274
3
278
44
283
0
284
8
340
57
  0
ENDTAB
  0
TABLE
  2
BLOCK_RECORD
  5
1
100
AcDbSymbolTable
 70
1
  0
BLOCK_RECORD
  5
1F
100
AcDbSymbolTableRecord
100
AcDbBlockTableRecord
  2
*Model_Space
340
22
  0
BLOCK_RECORD
  5
1B
100
AcDbSymbolTableRecord
100
AcDbBlockTableRecord
  2
*Paper_Space
340
1E
  0
BLOCK_RECORD
  5
23
100
AcDbSymbolTableRecord
100
AcDbBlockTableRecord
  2
*Paper_Space0
340
26
  0
BLOCK_RECORD
  5
59
100
AcDbSymbolTableRecord
100
AcDbBlockTableRecord
  2
right_top
340
0
  0
BLOCK_RECORD
  5
5A
100
AcDbSymbolTableRecord
100
AcDbBlockTableRecord
  2
mid
340
0
  0
BLOCK_RECORD
  5
5B
100
AcDbSymbolTableRecord
100
AcDbBlockTableRecord
  2
back_top
340
0
  0
BLOCK_RECORD
  5
5C
100
AcDbSymbolTableRecord
100
AcDbBlockTableRecord
  2
frame_left
340
0
  0
ENDTAB
  0
ENDSEC
  0
SECTION
  2
BLOCKS
  0
BLOCK
  5
20
100
AcDbEntity
  8
0
100
AcDbBlockBegin
  2
*Model_Space
 70
0
 10
0.0
 20
0.0
 30
0.0
  3
*Model_Space
  1

  0
ENDBLK
  5
21
100
AcDbEntity
  8
0
100
AcDbBlockEnd
  0
BLOCK
  5
1C
100
AcDbEntity
 67
1
  8
0
100
AcDbBlockBegin
  2
*Paper_Space
 70
0
 10
0.0
 20
0.0
 30
0.0
  3
*Paper_Space
  1

  0
ENDBLK
  5
1D
100
AcDbEntity
 67
1
  8
0
100
AcDbBlockEnd
  0
BLOCK
  5
24
100
AcDbEntity
  8
0
100
AcDbBlockBegin
  2
*Paper_Space0
 70
0
 10
0.0
 20
0.0
 30
0.0
  3
*Paper_Space0
  1

  0
ENDBLK
  5
25
100
AcDbEntity
  8
0
100
AcDbBlockEnd
  0
BLOCK
  5
5D
100
AcDbEntity
  8
0
100
AcDbBlockBegin
  2
right_top
 70
0
 10
0.0
 20
0.0
 30
0.0
  3
right_top
  1

  0
LWPOLYLINE
  5
5E
  8
0
 62
256
370
-1
 48
1.0
  6
ByLayer
100
AcDbEntity
100
AcDbPolyline
 90
16
 70
1
 10
6.3999999999999773
 20
-24.999999999999943
 30
0.0
 10
6.3999999999999773
 20
-49.999999999999829
 30
0.0
 10
203.60000000000002
 20
-49.999999999999829
 30
0.0
 10
203.60000000000002
 20
-24.999999999999943
 30
0.0
 10
210.0
 20
-24.999999999999943
 30
0.0
 10
210.0
 20
-49.999999999999943
 30
0.0
 10
216.39999999999998
 20
-49.999999999999943
 30
0.0
 10
216.39999999999998
 20
5.6000000000000227
 30
0.0
 10
210.0
 20
5.6000000000000227
 30
0.0
 10
210.0
 20
0.0000000000000568
 30
0.0
 10
0.0
 20
0.0
 30
0.0
 10
0.0
 20
5.6000000000000227
 30
0.0
 10
-6.3999999999999773
 20
5.6000000000000227
 30
0.0
 10
-6.3999999999999773
 20
-49.999999999999943
 30
0.0
 10
0.0
 20
-49.999999999999943
 30
0.0
 10
0.0
 20
-24.999999999999943
 30
0.0
  0
CIRCLE
  5
5F
100
AcDbEntity
100
AcDbCircle
  8
0
 62
256
370
-1
 48
1.0
  6
ByLayer
 10
3.1999999999999318
 20
-10.0
 30
0.0
 40
1.6499999999999999
  0
CIRCLE
  5
60
100
AcDbEntity
100
AcDbCircle
  8
0
 62
256
370
-1
 48
1.0
  6
ByLayer
 10
206.79999999999995
 20
-9.9999999999999432
 30
0.0
 40
1.6499999999999999
  0
ENDBLK
  5
61
100
AcDbEntity
  8
0
100
AcDbBlockEnd
  0
BLOCK
  5
62
100
AcDbEntity
  8
0
100
AcDbBlockBegin
  2
mid
 70
0
 10
0.0
 20
0.0
 30
0.0
  3
mid
  1

  0
LWPOLYLINE
  5
63
  8
0
 62
256
370
-1
 48
1.0
  6
ByLayer
100
AcDbEntity
100
AcDbPolyline
 90
4
 70
1
 10
55.000000000000114
 20
-179.99999999999997
 30
0.0
 10
55.000000000000114
 20
-29.999999999999993
 30
0.0
 10
205.00000000000011
 20
-29.999999999999993
 30
0.0
 10
205.00000000000011
 20
-179.99999999999997
 30
0.0
  0
LWPOLYLINE
  5
64
  8
0
 62
256
370
-1
 48
1.0
  6
ByLayer
100
AcDbEntity
100
AcDbPolyline
 90
160
 70
1
 10
88.316666666666492
 20
-199.39999999999986
 30
0.0
 10
88.316666666666492
 20
-209.99999999999997
 30
0.0
 10
115.0
 20
-209.99999999999997
 30
0.0
 10
115.0
 20
-216.40000000000006
 30
0.0
 10
145.0
 20
-216.40000000000006
 30
0.0
 10
145.0
 20
-209.99999999999997
 30
0.0
 10
171.68333333333328
 20
-209.99999999999997
 30
0.0
 10
171.68333333333339
 20
-199.39999999999998
 30
0.0
 10
170.58333333333337
 20
-199.39999999999998
 30
0.0
 42
-2.414213562373094
 10
170.33333333333337
 20
-199.14999999999998
 30
0.0
 10
170.33333333333337
 20
-196.64999999999998
 30
0.0
 42
-2.414213562373094
 10
170.58333333333337
 20
-196.39999999999998
 30
0.0
 10
171.68333333333339
 20
-196.39999999999998
 30
0.0
 10
171.68333333333339
 20
-194.39999999999998
 30
0.0
 10
174.98333333333346
 20
-194.39999999999998
 30
0.0
 10
174.98333333333346
 20
-196.39999999999998
 30
0.0
 10
176.08333333333337
 20
-196.39999999999998
 30
0.0
 42
-2.414213562373094
 10
176.33333333333337
 20
-196.64999999999998
 30
0.0
 10
176.33333333333337
 20
-199.14999999999998
 30
0.0
 42
-2.414213562373094
 10
176.08333333333337
 20
-199.39999999999998
 30
0.0
 10
174.98333333333346
 20
-199.39999999999986
 30
0.0
 10
174.98333333333346
 20
-209.99999999999997
 30
0.0
 10
201.66666666666674
 20
-209.99999999999997
 30
0.0
 10
201.66666666666674
 20
-216.40000000000006
 30
0.0
 10
231.66666666666674
 20
-216.40000000000006
 30
0.0
 10
231.66666666666674
 20
-209.99999999999997
 30
0.0
 10
260.00000000000011
 20
-209.99999999999997
 30
0.0
 10
260.0
 20
-176.64999999999986
 30
0.0
 10
249.40000000000009
 20
-176.64999999999986
 30
0.0
 10
249.40000000000009
 20
-177.74999999999986
 30
0.0
 42
-2.414213562373094
 10
249.15000000000009
 20
-177.99999999999986
 30
0.0
 10
246.64999999999998
 20
-177.99999999999986
 30
0.0
 42
-2.414213562373094
 10
246.39999999999998
 20
-177.74999999999986
 30
0.0
 10
246.39999999999998
 20
-176.64999999999986
 30
0.0
 10
244.40000000000009
 20
-176.64999999999986
 30
0.0
 10
244.40000000000009
 20
-173.34999999999988
 30
0.0
 10
246.39999999999998
 20
-173.34999999999988
 30
0.0
 10
246.39999999999998
 20
-172.24999999999986
 30
0.0
 42
-2.414213562373094
 10
246.64999999999998
 20
-171.99999999999986
 30
0.0
 10
249.14999999999998
 20
-171.99999999999986
 30
0.0
 42
-2.414213562373094
 10
249.40000000000009
 20
-172.24999999999986
 30
0.0
 10
249.40000000000009
 20
-173.34999999999988
 30
0.0
 10
260.0
 20
-173.34999999999988
 30
0.0
 10
260.00000000000011
 20
-154.99999999999997
 30
0.0
 10
266.4000000000002
 20
-154.99999999999997
 30
0.0
 10
266.4000000000002
 20
-124.99999999999997
 30
0.0
 10
260.00000000000011
 20
-124.99999999999997
 30
0.0
 10
260.00000000000011
 20
-106.64999999999998
 30
0.0
 10
249.40000000000009
 20
-106.64999999999998
 30
0.0
 10
249.40000000000009
 20
-107.74999999999987
 30
0.0
 42
-2.414213562373094
 10
249.15000000000009
 20
-107.99999999999997
 30
0.0
 10
246.65000000000009
 20
-107.99999999999997
 30
0.0
 42
-2.414213562373094
 10
246.40000000000009
 20
-107.74999999999987
 30
0.0
 10
246.40000000000009
 20
-106.64999999999988
 30
0.0
 10
244.40000000000009
 20
-106.64999999999988
 30
0.0
 10
244.40000000000009
 20
-103.34999999999987
 30
0.0
 10
246.40000000000009
 20
-103.34999999999987
 30
0.0
 10
246.40000000000009
 20
-102.24999999999987
 30
0.0
 42
-2.4142135623732162
 10
246.65000000000009
 20
-101.99999999999997
 30
0.0
 10
249.15000000000009
 20
-101.99999999999997
 30
0.0
 42
-2.4142135623732162
 10
249.40000000000009
 20
-102.24999999999987
 30
0.0
 10
249.40000000000009
 20
-103.34999999999987
 30
0.0
 10
260.00000000000011
 20
-103.34999999999987
 30
0.0
 10
260.00000000000011
 20
-84.999999999999972
 30
0.0
 10
266.4000000000002
 20
-84.999999999999957
 30
0.0
 10
266.4000000000002
 20
-55.000000000000036
 30
0.0
 10
260.00000000000011
 20
-54.999999999999993
 30
0.0
 10
260.00000000000011
 20
-36.649999999999928
 30
0.0
 10
249.4000000000002
 20
-36.649999999999928
 30
0.0
 10
249.4000000000002
 20
-37.749999999999922
 30
0.0
 42
-2.414213562373094
 10
249.1500000000002
 20
-37.999999999999922
 30
0.0
 10
246.6500000000002
 20
-37.999999999999922
 30
0.0
 42
-2.414213562373094
 10
246.4000000000002
 20
-37.749999999999922
 30
0.0
 10
246.4000000000002
 20
-36.649999999999928
 30
0.0
 10
244.4000000000002
 20
-36.649999999999928
 30
0.0
 10
244.4000000000002
 20
-33.349999999999923
 30
0.0
 10
246.4000000000002
 20
-33.349999999999923
 30
0.0
 10
246.4000000000002
 20
-32.249999999999922
 30
0.0
 42
-2.414213562373094
 10
246.65000000000009
 20
-31.999999999999925
 30
0.0
 10
249.1500000000002
 20
-31.999999999999925
 30
0.0
 42
-2.414213562373094
 10
249.4000000000002
 20
-32.249999999999922
 30
0.0
 10
249.4000000000002
 20
-33.349999999999916
 30
0.0
 10
260.00000000000011
 20
-33.349999999999937
 30
0.0
 10
260.0
 20
0.000000000000071
 30
0.0
 10
0.0
 20
0.0
 30
0.0
 10
-0.0000000000002842
 20
-33.349999999999937
 30
0.0
 10
10.599999999999682
 20
-33.349999999999916
 30
0.0
 10
10.599999999999682
 20
-32.249999999999922
 30
0.0
 42
-2.414213562373094
 10
10.849999999999682
 20
-31.999999999999925
 30
0.0
 10
13.349999999999682
 20
-31.999999999999925
 30
0.0
 42
-2.414213562373094
 10
13.599999999999682
 20
-32.249999999999922
 30
0.0
 10
13.599999999999682
 20
-33.349999999999923
 30
0.0
 10
15.599999999999682
 20
-33.349999999999923
 30
0.0
 10
15.599999999999682
 20
-36.649999999999928
 30
0.0
 10
13.599999999999682
 20
-36.649999999999928
 30
0.0
 10
13.599999999999682
 20
-37.749999999999922
 30
0.0
 42
-2.414213562373094
 10
13.349999999999682
 20
-37.999999999999922
 30
0.0
 10
10.849999999999682
 20
-37.999999999999922
 30
0.0
 42
-2.414213562373094
 10
10.599999999999682
 20
-37.749999999999922
 30
0.0
 10
10.599999999999682
 20
-36.649999999999928
 30
0.0
 10
-0.0000000000002842
 20
-36.649999999999928
 30
0.0
 10
0.0
 20
-55.000000000000036
 30
0.0
 10
-6.3999999999999773
 20
-55.000000000000043
 30
0.0
 10
-6.3999999999999773
 20
-85.000000000000057
 30
0.0
 10
0.0
 20
-85.000000000000085
 30
0.0
 10
-0.0000000000002274
 20
-103.34999999999987
 30
0.0
 10
10.599999999999795
 20
-103.34999999999987
 30
0.0
 10
10.599999999999795
 20
-102.24999999999987
 30
0.0
 42
-2.4142135623732162
 10
10.849999999999795
 20
-101.99999999999997
 30
0.0
 10
13.349999999999795
 20
-101.99999999999997
 30
0.0
 42
-2.4142135623732162
 10
13.599999999999795
 20
-102.24999999999987
 30
0.0
 10
13.599999999999682
 20
-103.34999999999987
 30
0.0
 10
15.599999999999682
 20
-103.34999999999987
 30
0.0
 10
15.599999999999682
 20
-106.64999999999988
 30
0.0
 10
13.599999999999682
 20
-106.64999999999988
 30
0.0
 10
13.599999999999795
 20
-107.74999999999987
 30
0.0
 42
-2.414213562373094
 10
13.349999999999795
 20
-107.99999999999997
 30
0.0
 10
10.849999999999795
 20
-107.99999999999997
 30
0.0
 42
-2.414213562373094
 10
10.599999999999795
 20
-107.74999999999987
 30
0.0
 10
10.599999999999795
 20
-106.64999999999998
 30
0.0
 10
-0.0000000000002274
 20
-106.64999999999998
 30
0.0
 10
0.0000000000000568
 20
-124.99999999999997
 30
0.0
 10
-6.3999999999999204
 20
-125.00000000000007
 30
0.0
 10
-6.3999999999999204
 20
-155.00000000000009
 30
0.0
 10
0.0000000000000568
 20
-155.00000000000009
 30
0.0
 10
-0.0000000000001705
 20
-173.34999999999988
 30
0.0
 10
10.599999999999795
 20
-173.34999999999988
 30
0.0
 10
10.599999999999795
 20
-172.24999999999986
 30
0.0
 42
-2.414213562373094
 10
10.849999999999795
 20
-171.99999999999986
 30
0.0
 10
13.349999999999795
 20
-171.99999999999986
 30
0.0
 42
-2.414213562373094
 10
13.599999999999795
 20
-172.24999999999986
 30
0.0
 10
13.599999999999795
 20
-173.34999999999988
 30
0.0
 10
15.599999999999795
 20
-173.34999999999988
 30
0.0
 10
15.599999999999795
 20
-176.64999999999986
 30
0.0
 10
13.599999999999795
 20
-176.64999999999986
 30
0.0
 10
13.599999999999795
 20
-177.74999999999986
 30
0.0
 42
-2.414213562373094
 10
13.349999999999795
 20
-177.99999999999986
 30
0.0
 10
10.849999999999795
 20
-177.99999999999986
 30
0.0
 42
-2.414213562373094
 10
10.599999999999795
 20
-177.74999999999986
 30
0.0
 10
10.599999999999795
 20
-176.64999999999986
 30
0.0
 10
-0.0000000000001705
 20
-176.64999999999986
 30
0.0
 10
0.0
 20
-209.99999999999997
 30
0.0
 10
28.333333333333371
 20
-209.99999999999997
 30
0.0
 10
28.333333333333371
 20
-216.40000000000006
 30
0.0
 10
58.333333333333371
 20
-216.40000000000006
 30
0.0
 10
58.333333333333371
 20
-209.99999999999997
 30
0.0
 10
85.016666666666424
 20
-209.99999999999997
 30
0.0
 10
85.016666666666424
 20
-199.39999999999998
 30
0.0
 10
83.916666666666401
 20
-199.39999999999998
 30
0.0
 42
-2.414213562373094
 10
83.666666666666401
 20
-199.14999999999998
 30
0.0
 10
83.666666666666401
 20
-196.64999999999998
 30
0.0
 42
-2.414213562373094
 10
83.916666666666401
 20
-196.39999999999998
 30
0.0
 10
85.016666666666424
 20
-196.39999999999998
 30
0.0
 10
85.016666666666424
 20
-194.39999999999998
 30
0.0
 10
88.316666666666492
 20
-194.39999999999998
 30
0.0
 10
88.316666666666492
 20
-196.39999999999998
 30
0.0
 10
89.416666666666401
 20
-196.39999999999998
 30
0.0
 42
-2.414213562373094
 10
89.666666666666401
 20
-196.64999999999998
 30
0.0
 10
89.666666666666401
 20
-199.14999999999998
 30
0.0
 42
-2.414213562373094
 10
89.416666666666401
 20
-199.39999999999998
 30
0.0
  0
ENDBLK
  5
65
100
AcDbEntity
  8
0
100
AcDbBlockEnd
  0
BLOCK
  5
66
100
AcDbEntity
  8
0
100
AcDbBlockBegin
  2
back_top
 70
0
 10
0.0
 20
0.0
 30
0.0
  3
back_top
  1

  0
LWPOLYLINE
  5
67
  8
0
 62
256
370
-1
 48
1.0
  6
ByLayer
100
AcDbEntity
100
AcDbPolyline
 90
60
 70
1
 10
259.99999999999989
 20
38.349999999999852
 30
0.0
 10
255.79999999999984
 20
38.349999999999852
 30
0.0
 10
255.79999999999984
 20
37.249999999999858
 30
0.0
 42
-2.4142135623730638
 10
255.54999999999984
 20
36.999999999999858
 30
0.0
 10
253.04999999999995
 20
36.999999999999858
 30
0.0
 42
-2.414213562373094
 10
252.79999999999995
 20
37.249999999999858
 30
0.0
 10
252.79999999999995
 20
38.349999999999852
 30
0.0
 10
250.79999999999995
 20
38.349999999999852
 30
0.0
 10
250.79999999999995
 20
41.649999999999849
 30
0.0
 10
252.79999999999995
 20
41.649999999999849
 30
0.0
 10
252.79999999999995
 20
42.749999999999858
 30
0.0
 42
-2.414213562373094
 10
253.04999999999995
 20
42.999999999999858
 30
0.0
 10
255.54999999999984
 20
42.999999999999858
 30
0.0
 42
-2.414213562373094
 10
255.79999999999995
 20
42.749999999999858
 30
0.0
 10
255.79999999999995
 20
41.649999999999849
 30
0.0
 10
259.99999999999989
 20
41.649999999999835
 30
0.0
 10
259.99999999999989
 20
49.999999999999858
 30
0.0
 10
233.39999999999986
 20
49.999999999999901
 30
0.0
 10
233.39999999999998
 20
46.999999999999901
 30
0.0
 10
231.89999999999986
 20
46.999999999999886
 30
0.0
 10
231.89999999999986
 20
36.999999999999886
 30
0.0
 10
215.89999999999986
 20
36.999999999999901
 30
0.0
 10
215.89999999999986
 20
46.999999999999901
 30
0.0
 10
144.39999999999986
 20
46.999999999999915
 30
0.0
 10
144.39999999999986
 20
36.999999999999915
 30
0.0
 10
128.39999999999986
 20
36.999999999999929
 30
0.0
 10
128.39999999999986
 20
46.999999999999915
 30
0.0
 10
56.899999999999977
 20
46.999999999999943
 30
0.0
 10
56.899999999999977
 20
36.999999999999943
 30
0.0
 10
40.899999999999864
 20
36.999999999999943
 30
0.0
 10
40.899999999999977
 20
46.999999999999943
 30
0.0
 10
39.399999999999977
 20
46.999999999999901
 30
0.0
 10
39.399999999999977
 20
49.999999999999943
 30
0.0
 10
12.800000000000068
 20
50.0
 30
0.0
 10
12.800000000000068
 20
41.649999999999991
 30
0.0
 10
17.0
 20
41.649999999999991
 30
0.0
 10
17.0
 20
42.749999999999972
 30
0.0
 42
-2.414213562373094
 10
17.25
 20
42.999999999999972
 30
0.0
 10
19.75
 20
42.999999999999972
 30
0.0
 42
-2.414213562373094
 10
20.0
 20
42.749999999999972
 30
0.0
 10
20.0
 20
41.649999999999991
 30
0.0
 10
22.0
 20
41.649999999999991
 30
0.0
 10
22.0
 20
38.349999999999994
 30
0.0
 10
20.0
 20
38.349999999999994
 30
0.0
 10
20.0
 20
37.25
 30
0.0
 42
-2.414213562373094
 10
19.75
 20
37.0
 30
0.0
 10
17.25
 20
37.0
 30
0.0
 42
-2.4142135623730638
 10
17.0
 20
37.25
 30
0.0
 10
17.0
 20
38.349999999999994
 30
0.0
 10
12.799999999999955
 20
38.349999999999994
 30
0.0
 10
12.799999999999955
 20
25.000000000000028
 30
0.0
 10
6.3999999999999773
 20
25.000000000000028
 30
0.0
 10
6.3999999999999773
 20
10.0
 30
0.0
 10
0.0
 20
10.0
 30
0.0
 10
0.0
 20
0.0
 30
0.0
 10
272.79999999999973
 20
0.0
 30
0.0
 10
272.79999999999973
 20
9.9999999999999289
 30
0.0
 10
266.39999999999986
 20
9.9999999999999289
 30
0.0
 10
266.39999999999986
 20
24.999999999999886
 30
0.0
 10
259.99999999999989
 20
24.999999999999886
 30
0.0
  0
ENDBLK
  5
68
100
AcDbEntity
  8
0
100
AcDbBlockEnd
  0
BLOCK
  5
69
100
AcDbEntity
  8
0
100
AcDbBlockBegin
  2
frame_left
 70
0
 10
0.0
 20
0.0
 30
0.0
  3
frame_left
  1

  0
LWPOLYLINE
  5
6A
  8
0
 62
256
370
-1
 48
1.0
  6
ByLayer
100
AcDbEntity
100
AcDbPolyline
 90
20
 70
1
 10
6.4000000000001478
 20
-132.50000000000006
 30
0.0
 10
0.0000000000001137
 20
-132.50000000000006
 30
0.0
 10
0.0000000000001705
 20
-182.50000000000006
 30
0.0
 10
6.4000000000002046
 20
-182.50000000000006
 30
0.0
 10
6.4000000000002046
 20
-207.50000000000006
 30
0.0
 10
0.0000000000001705
 20
-207.50000000000006
 30
0.0
 10
0.0000000000001137
 20
-251.11101153399323
 30
0.0
 10
222.80000000000007
 20
-254.99999999999994
 30
0.0
 10
222.80000000000007
 20
-207.49999999999994
 30
0.0
 10
216.40000000000009
 20
-207.49999999999994
 30
0.0
 10
216.40000000000009
 20
-182.49999999999994
 30
0.0
 10
222.80000000000007
 20
-182.49999999999994
 30
0.0
 10
222.80000000000007
 20
-132.5
 30
0.0
 10
216.40000000000009
 20
-132.5
 30
0.0
 10
216.40000000000009
 20
-107.49999999999996
 30
0.0
 10
222.80000000000007
 20
-107.49999999999996
 30
0.0
 10
222.80000000000007
 20
0.0000000000000426
 30
0.0
 10
0.0
 20
0.0
 30
0.0
 10
0.0000000000001137
 20
-107.50000000000006
 30
0.0
 10
6.4000000000000909
 20
-107.50000000000004
 30
0.0
  0
LWPOLYLINE
  5
6B
  8
0
 62
256
370
-1
 48
1.0
  6
ByLayer
100
AcDbEntity
100
AcDbPolyline
 90
4
 70
1
 10
61.400000000000148
 20
-61.999999999999972
 30
0.0
 10
61.400000000000148
 20
-55.599999999999973
 30
0.0
 10
91.400000000000034
 20
-55.599999999999973
 30
0.0
 10
91.400000000000034
 20
-61.999999999999972
 30
0.0
  0
LWPOLYLINE
  5
6C
  8
0
 62
256
370
-1
 48
1.0
  6
ByLayer
100
AcDbEntity
100
AcDbPolyline
 90
4
 70
1
 10
61.400000000000091
 20
-239.99999999999994
 30
0.0
 10
61.400000000000091
 20
-233.59999999999997
 30
0.0
 10
91.400000000000091
 20
-233.59999999999997
 30
0.0
 10
91.400000000000091
 20
-239.99999999999994
 30
0.0
  0
LWPOLYLINE
  5
6D
  8
0
 62
256
370
-1
 48
1.0
  6
ByLayer
100
AcDbEntity
100
AcDbPolyline
 90
4
 70
1
 10
6.4000000000000909
 20
-55.599999999999831
 30
0.0
 10
6.4000000000000341
 20
-45.599999999999902
 30
0.0
 10
12.800000000000068
 20
-45.599999999999902
 30
0.0
 10
12.800000000000068
 20
-55.599999999999831
 30
0.0
  0
LWPOLYLINE
  5
6E
  8
0
 62
256
370
-1
 48
1.0
  6
ByLayer
100
AcDbEntity
100
AcDbPolyline
 90
4
 70
1
 10
210.00000000000011
 20
-55.599999999999831
 30
0.0
 10
210.00000000000011
 20
-45.599999999999895
 30
0.0
 10
216.40000000000009
 20
-45.599999999999895
 30
0.0
 10
216.40000000000009
 20
-55.599999999999831
 30
0.0
  0
LWPOLYLINE
  5
6F
  8
0
 62
256
370
-1
 48
1.0
  6
ByLayer
100
AcDbEntity
100
AcDbPolyline
 90
4
 70
1
 10
131.39999999999986
 20
-239.99999999999994
 30
0.0
 10
131.39999999999986
 20
-233.59999999999997
 30
0.0
 10
161.39999999999998
 20
-233.59999999999997
 30
0.0
 10
161.39999999999998
 20
-239.99999999999994
 30
0.0
  0
LWPOLYLINE
  5
70
  8
0
 62
256
370
-1
 48
1.0
  6
ByLayer
100
AcDbEntity
100
AcDbPolyline
 90
4
 70
1
 10
131.39999999999998
 20
-61.999999999999986
 30
0.0
 10
131.39999999999998
 20
-55.599999999999973
 30
0.0
 10
161.39999999999998
 20
-55.599999999999973
 30
0.0
 10
161.39999999999998
 20
-61.999999999999972
 30
0.0
  0
CIRCLE
  5
71
100
AcDbEntity
100
AcDbCircle
  8
0
 62
256
370
-1
 48
1.0
  6
ByLayer
 10
41.400000000000034
 20
-2.8000000000000114
 30
0.0
 40
1.6499999999999999
  0
CIRCLE
  5
72
100
AcDbEntity
100
AcDbCircle
  8
0
 62
256
370
-1
 48
1.0
  6
ByLayer
 10
181.40000000000009
 20
-2.8000000000000114
 30
0.0
 40
1.6499999999999999
  0
CIRCLE
  5
73
100
AcDbEntity
100
AcDbCircle
  8
0
 62
256
370
-1
 48
1.0
  6
ByLayer
 10
219.60000000000002
 20
-157.49999999999994
 30
0.0
 40
1.6499999999999999
  0
CIRCLE
  5
74
100
AcDbEntity
100
AcDbCircle
  8
0
 62
256
370
-1
 48
1.0
  6
ByLayer
 10
219.60000000000002
 20
-213.74999999999994
 30
0.0
 40
1.6499999999999999
  0
CIRCLE
  5
75
100
AcDbEntity
100
AcDbCircle
  8
0
 62
256
370
-1
 48
1.0
  6
ByLayer
 10
219.60000000000002
 20
-101.24999999999996
 30
0.0
 40
1.6499999999999999
  0
CIRCLE
  5
76
100
AcDbEntity
100
AcDbCircle
  8
0
 62
256
370
-1
 48
1.0
  6
ByLayer
 10
41.399999999999977
 20
-236.79999999999995
 30
0.0
 40
1.6499999999999999
  0
CIRCLE
  5
77
100
AcDbEntity
100
AcDbCircle
  8
0
 62
256
370
-1
 48
1.0
  6
ByLayer
 10
111.39999999999998
 20
-236.79999999999995
 30
0.0
 40
1.6499999999999999
  0
CIRCLE
  5
78
100
AcDbEntity
100
AcDbCircle
  8
0
 62
256
370
-1
 48
1.0
  6
ByLayer
 10
181.39999999999986
 20
-236.79999999999995
 30
0.0
 40
1.6499999999999999
  0
CIRCLE
  5
79
100
AcDbEntity
100
AcDbCircle
  8
0
 62
256
370
-1
 48
1.0
  6
ByLayer
 10
41.400000000000034
 20
-58.799999999999976
 30
0.0
 40
1.6499999999999999
  0
CIRCLE
  5
7A
100
AcDbEntity
100
AcDbCircle
  8
0
 62
256
370
-1
 48
1.0
  6
ByLayer
 10
111.40000000000003
 20
-58.799999999999969
 30
0.0
 40
1.6499999999999999
  0
CIRCLE
  5
7B
100
AcDbEntity
100
AcDbCircle
  8
0
 62
256
370
-1
 48
1.0
  6
ByLayer
 10
181.39999999999998
 20
-58.799999999999969
 30
0.0
 40
1.6499999999999999
  0
CIRCLE
  5
7C
100
AcDbEntity
100
AcDbCircle
  8
0
 62
256
370
-1
 48
1.0
  6
ByLayer
 10
9.6000000000000796
 20
-15.599999999999966
 30
0.0
 40
1.6499999999999999
  0
CIRCLE
  5
7D
100
AcDbEntity
100
AcDbCircle
  8
0
 62
256
370
-1
 48
1.0
  6
ByLayer
 10
213.20000000000005
 20
-15.599999999999966
 30
0.0
 40
1.6499999999999999
  0
ENDBLK
  5
7E
100
AcDbEntity
  8
0
100
AcDbBlockEnd
  0
ENDSEC
  0
SECTION
  2
ENTITIES
  0
CIRCLE
  5
7F
100
AcDbEntity
100
AcDbCircle
  8
0
 62
256
370
-1
 48
1.0
  6
ByLayer
 10
92.799999999999997
 20
145.39999999999998
 30
0.0
 40
1.6499999999999999
  0
CIRCLE
  5
80
100
AcDbEntity
100
AcDbCircle
  8
0
 62
256
370
-1
 48
1.0
  6
ByLayer
 10
296.40000000000003
 20
145.39999999999975
 30
0.0
 40
1.6499999999999999
  0
CIRCLE
  5
81
100
AcDbEntity
100
AcDbCircle
  8
0
 62
256
370
-1
 48
1.0
  6
ByLayer
 10
-130.0
 20
145.39999999999992
 30
0.0
 40
1.6499999999999999
  0
CIRCLE
  5
82
100
AcDbEntity
100
AcDbCircle
  8
0
 62
256
370
-1
 48
1.0
  6
ByLayer
 10
73.600000000000023
 20
145.39999999999998
 30
0.0
 40
1.6499999999999999
  0
CIRCLE
  5
83
100
AcDbEntity
100
AcDbCircle
  8
0
 62
256
370
-1
 48
1.0
  6
ByLayer
 10
-98.199999999999932
 20
102.60000000000002
 30
0.0
 40
1.6499999999999999
  0
CIRCLE
  5
84
100
AcDbEntity
100
AcDbCircle
  8
0
 62
256
370
-1
 48
1.0
  6
ByLayer
 10
41.800000000000125
 20
102.60000000000002
 30
0.0
 40
1.6499999999999999
  0
CIRCLE
  5
85
100
AcDbEntity
100
AcDbCircle
  8
0
 62
256
370
-1
 48
1.0
  6
ByLayer
 10
80.000000000000057
 20
-52.099999999999909
 30
0.0
 40
1.6499999999999999
  0
CIRCLE
  5
86
100
AcDbEntity
100
AcDbCircle
  8
0
 62
256
370
-1
 48
1.0
  6
ByLayer
 10
80.000000000000057
 20
-108.34999999999991
 30
0.0
 40
1.6499999999999999
  0
CIRCLE
  5
87
100
AcDbEntity
100
AcDbCircle
  8
0
 62
256
370
-1
 48
1.0
  6
ByLayer
 10
80.000000000000057
 20
4.1500000000000767
 30
0.0
 40
1.6499999999999999
  0
CIRCLE
  5
88
100
AcDbEntity
100
AcDbCircle
  8
0
 62
256
370
-1
 48
1.0
  6
ByLayer
 10
-98.199999999999989
 20
-131.39999999999992
 30
0.0
 40
1.6499999999999999
  0
CIRCLE
  5
89
100
AcDbEntity
100
AcDbCircle
  8
0
 62
256
370
-1
 48
1.0
  6
ByLayer
 10
-28.199999999999989
 20
-131.39999999999992
 30
0.0
 40
1.6499999999999999
  0
CIRCLE
  5
8A
100
AcDbEntity
100
AcDbCircle
  8
0
 62
256
370
-1
 48
1.0
  6
ByLayer
 10
41.799999999999898
 20
-131.39999999999992
 30
0.0
 40
1.6499999999999999
  0
CIRCLE
  5
8B
100
AcDbEntity
100
AcDbCircle
  8
0
 62
256
370
-1
 48
1.0
  6
ByLayer
 10
-98.199999999999932
 20
46.600000000000058
 30
0.0
 40
1.6499999999999999
  0
CIRCLE
  5
8C
100
AcDbEntity
100
AcDbCircle
  8
0
 62
256
370
-1
 48
1.0
  6
ByLayer
 10
-28.199999999999932
 20
46.600000000000065
 30
0.0
 40
1.6499999999999999
  0
CIRCLE
  5
8D
100
AcDbEntity
100
AcDbCircle
  8
0
 62
256
370
-1
 48
1.0
  6
ByLayer
 10
41.800000000000011
 20
46.600000000000065
 30
0.0
 40
1.6499999999999999
  0
CIRCLE
  5
8E
100
AcDbEntity
100
AcDbCircle
  8
0
 62
256
370
-1
 48
1.0
  6
ByLayer
 10
-129.99999999999989
 20
89.800000000000068
 30
0.0
 40
1.6499999999999999
  0
CIRCLE
  5
8F
100
AcDbEntity
100
AcDbCircle
  8
0
 62
256
370
-1
 48
1.0
  6
ByLayer
 10
73.60000000000008
 20
89.800000000000068
 30
0.0
 40
1.6499999999999999
  0
LINE
  5
90
100
AcDbEntity
100
AcDbLine
  8
0
 62
256
370
-1
 48
1.0
  6
ByLayer
 10
-338.99999999999989
 20
17.08333333333367
 30
0.0
 11
-349.59999999999991
 21
17.083333333333542
 31
0.0
  0
LINE
  5
91
100
AcDbEntity
100
AcDbLine
  8
0
 62
256
370
-1
 48
1.0
  6
ByLayer
 10
-349.59999999999991
 20
17.083333333333542
 30
0.0
 11
-349.59999999999991
 21
-9.5999999999998806
 31
0.0
  0
LINE
  5
92
100
AcDbEntity
100
AcDbLine
  8
0
 62
256
370
-1
 48
1.0
  6
ByLayer
 10
-349.59999999999991
 20
-9.5999999999998806
 30
0.0
 11
-356.00000000000006
 21
-9.599999999999838
 31
0.0
  0
LINE
  5
93
100
AcDbEntity
100
AcDbLine
  8
0
 62
256
370
-1
 48
1.0
  6
ByLayer
 10
-356.00000000000006
 20
-9.599999999999838
 30
0.0
 11
-356.0
 21
-39.599999999999852
 31
0.0
  0
LINE
  5
94
100
AcDbEntity
100
AcDbLine
  8
0
 62
256
370
-1
 48
1.0
  6
ByLayer
 10
-356.0
 20
-39.599999999999852
 30
0.0
 11
-349.59999999999991
 21
-39.599999999999937
 31
0.0
  0
LINE
  5
95
100
AcDbEntity
100
AcDbLine
  8
0
 62
256
370
-1
 48
1.0
  6
ByLayer
 10
-349.59999999999991
 20
-39.599999999999937
 30
0.0
 11
-349.60000000000002
 21
-66.283333333333076
 31
0.0
  0
LINE
  5
96
100
AcDbEntity
100
AcDbLine
  8
0
 62
256
370
-1
 48
1.0
  6
ByLayer
 10
-349.60000000000002
 20
-66.283333333333076
 30
0.0
 11
-339.0
 21
-66.283333333333246
 31
0.0
  0
LINE
  5
97
100
AcDbEntity
100
AcDbLine
  8
0
 62
256
370
-1
 48
1.0
  6
ByLayer
 10
-339.0
 20
-66.283333333333246
 30
0.0
 11
-339.00000000000006
 21
-65.183333333333195
 31
0.0
  0
ARC
  5
98
100
AcDbEntity
  8
0
 62
256
370
-1
 48
1.0
  6
ByLayer
100
AcDbCircle
 10
-339.0
 20
-64.933333333333181
 30
0.0
 40
0.2500000000000142
100
AcDbArc
 50
360.0
 51
269.99999999998698
  0
LINE
  5
99
100
AcDbEntity
100
AcDbLine
  8
0
 62
256
370
-1
 48
1.0
  6
ByLayer
 10
-338.75
 20
-64.933333333333223
 30
0.0
 11
-336.24999999999994
 21
-64.933333333333223
 31
0.0
  0
ARC
  5
9A
100
AcDbEntity
  8
0
 62
256
370
-1
 48
1.0
  6
ByLayer
100
AcDbCircle
 10
-335.99999999999994
 20
-64.93333333333328
 30
0.0
 40
0.25
100
AcDbArc
 50
269.99999999998698
 51
180.0
  0
LINE
  5
9B
100
AcDbEntity
100
AcDbLine
  8
0
 62
256
370
-1
 48
1.0
  6
ByLayer
 10
-336.0
 20
-65.18333333333328
 30
0.0
 11
-335.99999999999994
 21
-66.283333333333303
 31
0.0
  0
LINE
  5
9C
100
AcDbEntity
100
AcDbLine
  8
0
 62
256
370
-1
 48
1.0
  6
ByLayer
 10
-335.99999999999994
 20
-66.283333333333303
 30
0.0
 11
-334.0
 21
-66.283333333333246
 31
0.0
  0
LINE
  5
9D
100
AcDbEntity
100
AcDbLine
  8
0
 62
256
370
-1
 48
1.0
  6
ByLayer
 10
-334.0
 20
-66.283333333333246
 30
0.0
 11
-333.99999999999989
 21
-69.5833333333334
 31
0.0
  0
LINE
  5
9E
100
AcDbEntity
100
AcDbLine
  8
0
 62
256
370
-1
 48
1.0
  6
ByLayer
 10
-333.99999999999989
 20
-69.5833333333334
 30
0.0
 11
-335.99999999999989
 21
-69.5833333333334
 31
0.0
  0
LINE
  5
9F
100
AcDbEntity
100
AcDbLine
  8
0
 62
256
370
-1
 48
1.0
  6
ByLayer
 10
-335.99999999999989
 20
-69.5833333333334
 30
0.0
 11
-336.0
 21
-70.68333333333328
 31
0.0
  0
ARC
  5
A0
100
AcDbEntity
  8
0
 62
256
370
-1
 48
1.0
  6
ByLayer
100
AcDbCircle
 10
-336.0
 20
-70.933333333333266
 30
0.0
 40
0.2499999999999858
100
AcDbArc
 50
180.0
 51
90.0
  0
LINE
  5
A1
100
AcDbEntity
100
AcDbLine
  8
0
 62
256
370
-1
 48
1.0
  6
ByLayer
 10
-336.24999999999994
 20
-70.933333333333309
 30
0.0
 11
-338.74999999999994
 21
-70.933333333333309
 31
0.0
  0
ARC
  5
A2
100
AcDbEntity
  8
0
 62
256
370
-1
 48
1.0
  6
ByLayer
100
AcDbCircle
 10
-338.99999999999989
 20
-70.933333333333294
 30
0.0
 40
0.2499999999999573
100
AcDbArc
 50
90.0
 51
360.0
  0
LINE
  5
A3
100
AcDbEntity
100
AcDbLine
  8
0
 62
256
370
-1
 48
1.0
  6
ByLayer
 10
-338.99999999999989
 20
-70.683333333333337
 30
0.0
 11
-338.99999999999989
 21
-69.583333333333286
 31
0.0
  0
LINE
  5
A4
100
AcDbEntity
100
AcDbLine
  8
0
 62
256
370
-1
 48
1.0
  6
ByLayer
 10
-338.99999999999989
 20
-69.583333333333286
 30
0.0
 11
-349.59999999999991
 21
-69.583333333333371
 31
0.0
  0
LINE
  5
A5
100
AcDbEntity
100
AcDbLine
  8
0
 62
256
370
-1
 48
1.0
  6
ByLayer
 10
-349.59999999999991
 20
-69.583333333333371
 30
0.0
 11
-349.60000000000002
 21
-96.266666666666566
 31
0.0
  0
LINE
  5
A6
100
AcDbEntity
100
AcDbLine
  8
0
 62
256
370
-1
 48
1.0
  6
ByLayer
 10
-349.60000000000002
 20
-96.266666666666566
 30
0.0
 11
-356.00000000000011
 21
-96.266666666666566
 31
0.0
  0
LINE
  5
A7
100
AcDbEntity
100
AcDbLine
  8
0
 62
256
370
-1
 48
1.0
  6
ByLayer
 10
-356.00000000000011
 20
-96.266666666666566
 30
0.0
 11
-356.00000000000011
 21
-126.26666666666657
 31
0.0
  0
LINE
  5
A8
100
AcDbEntity
100
AcDbLine
  8
0
 62
256
370
-1
 48
1.0
  6
ByLayer
 10
-356.00000000000011
 20
-126.26666666666657
 30
0.0
 11
-349.59999999999991
 21
-126.26666666666668
 31
0.0
  0
LINE
  5
A9
100
AcDbEntity
100
AcDbLine
  8
0
 62
256
370
-1
 48
1.0
  6
ByLayer
 10
-349.59999999999991
 20
-126.26666666666668
 30
0.0
 11
-349.60000000000002
 21
-154.59999999999997
 31
0.0
  0
LINE
  5
AA
100
AcDbEntity
100
AcDbLine
  8
0
 62
256
370
-1
 48
1.0
  6
ByLayer
 10
-349.60000000000002
 20
-154.59999999999997
 30
0.0
 11
-316.24999999999983
 21
-154.59999999999991
 31
0.0
  0
LINE
  5
AB
100
AcDbEntity
100
AcDbLine
  8
0
 62
256
370
-1
 48
1.0
  6
ByLayer
 10
-316.24999999999983
 20
-154.59999999999991
 30
0.0
 11
-316.24999999999977
 21
-144.0
 31
0.0
  0
LINE
  5
AC
100
AcDbEntity
100
AcDbLine
  8
0
 62
256
370
-1
 48
1.0
  6
ByLayer
 10
-316.24999999999977
 20
-144.0
 30
0.0
 11
-317.3499999999998
 21
-144.0
 31
0.0
  0
ARC
  5
AD
100
AcDbEntity
  8
0
 62
256
370
-1
 48
1.0
  6
ByLayer
100
AcDbCircle
 10
-317.59999999999974
 20
-144.00000000000003
 30
0.0
 40
0.2499999999999716
100
AcDbArc
 50
90.000000000013031
 51
0.0
  0
LINE
  5
AE
100
AcDbEntity
100
AcDbLine
  8
0
 62
256
370
-1
 48
1.0
  6
ByLayer
 10
-317.5999999999998
 20
-143.75000000000006
 30
0.0
 11
-317.59999999999985
 21
-141.24999999999986
 31
0.0
  0
ARC
  5
AF
100
AcDbEntity
  8
0
 62
256
370
-1
 48
1.0
  6
ByLayer
100
AcDbCircle
 10
-317.59999999999997
 20
-140.99999999999986
 30
0.0
 40
0.2500000000000142
100
AcDbArc
 50
0.0
 51
270.00000000002603
  0
LINE
  5
B0
100
AcDbEntity
100
AcDbLine
  8
0
 62
256
370
-1
 48
1.0
  6
ByLayer
 10
-317.34999999999991
 20
-140.99999999999977
 30
0.0
 11
-316.24999999999989
 21
-140.99999999999983
 31
0.0
  0
LINE
  5
B1
100
AcDbEntity
100
AcDbLine
  8
0
 62
256
370
-1
 48
1.0
  6
ByLayer
 10
-316.24999999999989
 20
-140.99999999999983
 30
0.0
 11
-316.24999999999977
 21
-139.00000000000003
 31
0.0
  0
LINE
  5
B2
100
AcDbEntity
100
AcDbLine
  8
0
 62
256
370
-1
 48
1.0
  6
ByLayer
 10
-316.24999999999977
 20
-139.00000000000003
 30
0.0
 11
-312.94999999999976
 21
-139.00000000000003
 31
0.0
  0
LINE
  5
B3
100
AcDbEntity
100
AcDbLine
  8
0
 62
256
370
-1
 48
1.0
  6
ByLayer
 10
-312.94999999999976
 20
-139.00000000000003
 30
0.0
 11
-312.94999999999993
 21
-140.99999999999986
 31
0.0
  0
LINE
  5
B4
100
AcDbEntity
100
AcDbLine
  8
0
 62
256
370
-1
 48
1.0
  6
ByLayer
 10
-312.94999999999993
 20
-140.99999999999986
 30
0.0
 11
-311.85000000000002
 21
-140.99999999999974
 31
0.0
  0
ARC
  5
B5
100
AcDbEntity
  8
0
 62
256
370
-1
 48
1.0
  6
ByLayer
100
AcDbCircle
 10
-311.59999999999991
 20
-140.99999999999974
 30
0.0
 40
0.2500000000001137
100
AcDbArc
 50
270.0
 51
180.0
  0
LINE
  5
B6
100
AcDbEntity
100
AcDbLine
  8
0
 62
256
370
-1
 48
1.0
  6
ByLayer
 10
-311.59999999999991
 20
-141.24999999999986
 30
0.0
 11
-311.60000000000002
 21
-143.74999999999977
 31
0.0
  0
ARC
  5
B7
100
AcDbEntity
  8
0
 62
256
370
-1
 48
1.0
  6
ByLayer
100
AcDbCircle
 10
-311.5999999999998
 20
-143.99999999999977
 30
0.0
 40
0.2500000000000142
100
AcDbArc
 50
180.0
 51
90.000000000052125
  0
LINE
  5
B8
100
AcDbEntity
100
AcDbLine
  8
0
 62
256
370
-1
 48
1.0
  6
ByLayer
 10
-311.8499999999998
 20
-144.00000000000003
 30
0.0
 11
-312.94999999999982
 21
-144.00000000000003
 31
0.0
  0
LINE
  5
B9
100
AcDbEntity
100
AcDbLine
  8
0
 62
256
370
-1
 48
1.0
  6
ByLayer
 10
-312.94999999999982
 20
-144.00000000000003
 30
0.0
 11
-312.94999999999987
 21
-154.59999999999991
 31
0.0
  0
LINE
  5
BA
100
AcDbEntity
100
AcDbLine
  8
0
 62
256
370
-1
 48
1.0
  6
ByLayer
 10
-312.94999999999987
 20
-154.59999999999991
 30
0.0
 11
-294.60000000000002
 21
-154.60000000000002
 31
0.0
  0
LINE
  5
BB
100
AcDbEntity
100
AcDbLine
  8
0
 62
256
370
-1
 48
1.0
  6
ByLayer
 10
-294.60000000000002
 20
-154.60000000000002
 30
0.0
 11
-294.60000000000014
 21
-161.00000000000006
 31
0.0
  0
LINE
  5
BC
100
AcDbEntity
100
AcDbLine
  8
0
 62
256
370
-1
 48
1.0
  6
ByLayer
 10
-294.60000000000014
 20
-161.00000000000006
 30
0.0
 11
-264.59999999999991
 21
-161.00000000000011
 31
0.0
  0
LINE
  5
BD
100
AcDbEntity
100
AcDbLine
  8
0
 62
256
370
-1
 48
1.0
  6
ByLayer
 10
-264.59999999999991
 20
-161.00000000000011
 30
0.0
 11
-264.59999999999991
 21
-154.60000000000002
 31
0.0
  0
LINE
  5
BE
100
AcDbEntity
100
AcDbLine
  8
0
 62
256
370
-1
 48
1.0
  6
ByLayer
 10
-264.59999999999991
 20
-154.60000000000002
 30
0.0
 11
-246.24999999999991
 21
-154.60000000000002
 31
0.0
  0
LINE
  5
BF
100
AcDbEntity
100
AcDbLine
  8
0
 62
256
370
-1
 48
1.0
  6
ByLayer
 10
-246.24999999999991
 20
-154.60000000000002
 30
0.0
 11
-246.24999999999994
 21
-144.0
 31
0.0
  0
LINE
  5
C0
100
AcDbEntity
100
AcDbLine
  8
0
 62
256
370
-1
 48
1.0
  6
ByLayer
 10
-246.24999999999994
 20
-144.0
 30
0.0
 11
-247.3499999999998
 21
-144.0
 31
0.0
  0
ARC
  5
C1
100
AcDbEntity
  8
0
 62
256
370
-1
 48
1.0
  6
ByLayer
100
AcDbCircle
 10
-247.59999999999985
 20
-144.00000000000006
 30
0.0
 40
0.2500000000000568
100
AcDbArc
 50
90.000000000013031
 51
0.0
  0
LINE
  5
C2
100
AcDbEntity
100
AcDbLine
  8
0
 62
256
370
-1
 48
1.0
  6
ByLayer
 10
-247.59999999999991
 20
-143.75
 30
0.0
 11
-247.60000000000008
 21
-141.24999999999994
 31
0.0
  0
ARC
  5
C3
100
AcDbEntity
  8
0
 62
256
370
-1
 48
1.0
  6
ByLayer
100
AcDbCircle
 10
-247.59999999999999
 20
-140.99999999999989
 30
0.0
 40
0.2500000000000426
100
AcDbArc
 50
360.0
 51
269.99999999998045
  0
LINE
  5
C4
100
AcDbEntity
100
AcDbLine
  8
0
 62
256
370
-1
 48
1.0
  6
ByLayer
 10
-247.34999999999994
 20
-141.0
 30
0.0
 11
-246.24999999999997
 21
-140.99999999999994
 31
0.0
  0
LINE
  5
C5
100
AcDbEntity
100
AcDbLine
  8
0
 62
256
370
-1
 48
1.0
  6
ByLayer
 10
-246.24999999999997
 20
-140.99999999999994
 30
0.0
 11
-246.25
 21
-138.99999999999994
 31
0.0
  0
LINE
  5
C6
100
AcDbEntity
100
AcDbLine
  8
0
 62
256
370
-1
 48
1.0
  6
ByLayer
 10
-246.25
 20
-138.99999999999994
 30
0.0
 11
-242.94999999999996
 21
-138.99999999999994
 31
0.0
  0
LINE
  5
C7
100
AcDbEntity
100
AcDbLine
  8
0
 62
256
370
-1
 48
1.0
  6
ByLayer
 10
-242.94999999999996
 20
-138.99999999999994
 30
0.0
 11
-242.94999999999993
 21
-140.99999999999994
 31
0.0
  0
LINE
  5
C8
100
AcDbEntity
100
AcDbLine
  8
0
 62
256
370
-1
 48
1.0
  6
ByLayer
 10
-242.94999999999993
 20
-140.99999999999994
 30
0.0
 11
-241.84999999999991
 21
-140.99999999999994
 31
0.0
  0
ARC
  5
C9
100
AcDbEntity
  8
0
 62
256
370
-1
 48
1.0
  6
ByLayer
100
AcDbCircle
 10
-241.59999999999988
 20
-140.99999999999997
 30
0.0
 40
0.2500000000000373
100
AcDbArc
 50
269.99999999999346
 51
180.0
  0
LINE
  5
CA
100
AcDbEntity
100
AcDbLine
  8
0
 62
256
370
-1
 48
1.0
  6
ByLayer
 10
-241.59999999999991
 20
-141.25
 30
0.0
 11
-241.59999999999997
 21
-143.75
 31
0.0
  0
ARC
  5
CB
100
AcDbEntity
  8
0
 62
256
370
-1
 48
1.0
  6
ByLayer
100
AcDbCircle
 10
-241.59999999999988
 20
-143.99999999999991
 30
0.0
 40
0.2499999999999236
100
AcDbArc
 50
180.0
 51
90.00000000001954
  0
LINE
  5
CC
100
AcDbEntity
100
AcDbLine
  8
0
 62
256
370
-1
 48
1.0
  6
ByLayer
 10
-241.8499999999998
 20
-144.0
 30
0.0
 11
-242.94999999999993
 21
-143.99999999999997
 31
0.0
  0
LINE
  5
CD
100
AcDbEntity
100
AcDbLine
  8
0
 62
256
370
-1
 48
1.0
  6
ByLayer
 10
-242.94999999999993
 20
-143.99999999999997
 30
0.0
 11
-242.94999999999985
 21
-154.60000000000002
 31
0.0
  0
LINE
  5
CE
100
AcDbEntity
100
AcDbLine
  8
0
 62
256
370
-1
 48
1.0
  6
ByLayer
 10
-242.94999999999985
 20
-154.60000000000002
 30
0.0
 11
-224.59999999999999
 21
-154.60000000000002
 31
0.0
  0
LINE
  5
CF
100
AcDbEntity
100
AcDbLine
  8
0
 62
256
370
-1
 48
1.0
  6
ByLayer
 10
-224.59999999999999
 20
-154.60000000000002
 30
0.0
 11
-224.59999999999991
 21
-161.00000000000011
 31
0.0
  0
LINE
  5
D0
100
AcDbEntity
100
AcDbLine
  8
0
 62
256
370
-1
 48
1.0
  6
ByLayer
 10
-224.59999999999991
 20
-161.00000000000011
 30
0.0
 11
-194.60000000000005
 21
-161.00000000000011
 31
0.0
  0
LINE
  5
D1
100
AcDbEntity
100
AcDbLine
  8
0
 62
256
370
-1
 48
1.0
  6
ByLayer
 10
-194.60000000000005
 20
-161.00000000000011
 30
0.0
 11
-194.59999999999994
 21
-154.60000000000002
 31
0.0
  0
LINE
  5
D2
100
AcDbEntity
100
AcDbLine
  8
0
 62
256
370
-1
 48
1.0
  6
ByLayer
 10
-194.59999999999994
 20
-154.60000000000002
 30
0.0
 11
-176.24999999999997
 21
-154.60000000000002
 31
0.0
  0
LINE
  5
D3
100
AcDbEntity
100
AcDbLine
  8
0
 62
256
370
-1
 48
1.0
  6
ByLayer
 10
-176.24999999999997
 20
-154.60000000000002
 30
0.0
 11
-176.24999999999983
 21
-144.00000000000011
 31
0.0
  0
LINE
  5
D4
100
AcDbEntity
100
AcDbLine
  8
0
 62
256
370
-1
 48
1.0
  6
ByLayer
 10
-176.24999999999983
 20
-144.00000000000011
 30
0.0
 11
-177.35000000000014
 21
-144.00000000000009
 31
0.0
  0
ARC
  5
D5
100
AcDbEntity
  8
0
 62
256
370
-1
 48
1.0
  6
ByLayer
100
AcDbCircle
 10
-177.60000000000005
 20
-144.00000000000003
 30
0.0
 40
0.2499999999999147
100
AcDbArc
 50
89.999999999986969
 51
360.0
  0
LINE
  5
D6
100
AcDbEntity
100
AcDbLine
  8
0
 62
256
370
-1
 48
1.0
  6
ByLayer
 10
-177.59999999999999
 20
-143.75000000000011
 30
0.0
 11
-177.59999999999971
 21
-141.25000000000011
 31
0.0
  0
ARC
  5
D7
100
AcDbEntity
  8
0
 62
256
370
-1
 48
1.0
  6
ByLayer
100
AcDbCircle
 10
-177.59999999999985
 20
-141.00000000000026
 30
0.0
 40
0.2499999999998721
100
AcDbArc
 50
0.0
 51
270.00000000003257
  0
LINE
  5
D8
100
AcDbEntity
100
AcDbLine
  8
0
 62
256
370
-1
 48
1.0
  6
ByLayer
 10
-177.34999999999997
 20
-141.00000000000011
 30
0.0
 11
-176.24999999999997
 21
-141.00000000000011
 31
0.0
  0
LINE
  5
D9
100
AcDbEntity
100
AcDbLine
  8
0
 62
256
370
-1
 48
1.0
  6
ByLayer
 10
-176.24999999999997
 20
-141.00000000000011
 30
0.0
 11
-176.24999999999997
 21
-139.00000000000011
 31
0.0
  0
LINE
  5
DA
100
AcDbEntity
100
AcDbLine
  8
0
 62
256
370
-1
 48
1.0
  6
ByLayer
 10
-176.24999999999997
 20
-139.00000000000011
 30
0.0
 11
-172.95000000000007
 21
-139.00000000000011
 31
0.0
  0
LINE
  5
DB
100
AcDbEntity
100
AcDbLine
  8
0
 62
256
370
-1
 48
1.0
  6
ByLayer
 10
-172.95000000000007
 20
-139.00000000000011
 30
0.0
 11
-172.95000000000013
 21
-141.00000000000009
 31
0.0
  0
LINE
  5
DC
100
AcDbEntity
100
AcDbLine
  8
0
 62
256
370
-1
 48
1.0
  6
ByLayer
 10
-172.95000000000013
 20
-141.00000000000009
 30
0.0
 11
-171.84999999999985
 21
-141.00000000000009
 31
0.0
  0
ARC
  5
DD
100
AcDbEntity
  8
0
 62
256
370
-1
 48
1.0
  6
ByLayer
100
AcDbCircle
 10
-171.59999999999997
 20
-141.00000000000014
 30
0.0
 40
0.2499999999998863
100
AcDbArc
 50
269.99999999999346
 51
180.0
  0
LINE
  5
DE
100
AcDbEntity
100
AcDbLine
  8
0
 62
256
370
-1
 48
1.0
  6
ByLayer
 10
-171.59999999999999
 20
-141.25
 30
0.0
 11
-171.5999999999998
 21
-143.75000000000011
 31
0.0
  0
ARC
  5
DF
100
AcDbEntity
  8
0
 62
256
370
-1
 48
1.0
  6
ByLayer
100
AcDbCircle
 10
-171.5999999999998
 20
-144.00000000000011
 30
0.0
 40
0.25
100
AcDbArc
 50
180.0
 51
90.0
  0
LINE
  5
E0
100
AcDbEntity
100
AcDbLine
  8
0
 62
256
370
-1
 48
1.0
  6
ByLayer
 10
-171.8499999999998
 20
-144.00000000000011
 30
0.0
 11
-172.9499999999999
 21
-144.00000000000011
 31
0.0
  0
LINE
  5
E1
100
AcDbEntity
100
AcDbLine
  8
0
 62
256
370
-1
 48
1.0
  6
ByLayer
 10
-172.9499999999999
 20
-144.00000000000011
 30
0.0
 11
-172.94999999999993
 21
-154.60000000000002
 31
0.0
  0
LINE
  5
E2
100
AcDbEntity
100
AcDbLine
  8
0
 62
256
370
-1
 48
1.0
  6
ByLayer
 10
-172.94999999999993
 20
-154.60000000000002
 30
0.0
 11
-139.59999999999994
 21
-154.59999999999991
 31
0.0
  0
LINE
  5
E3
100
AcDbEntity
100
AcDbLine
  8
0
 62
256
370
-1
 48
1.0
  6
ByLayer
 10
-139.59999999999994
 20
-154.59999999999991
 30
0.0
 11
-139.59999999999997
 21
105.40000000000009
 31
0.0
  0
LINE
  5
E4
100
AcDbEntity
100
AcDbLine
  8
0
 62
256
370
-1
 48
1.0
  6
ByLayer
 10
-139.59999999999997
 20
105.40000000000009
 30
0.0
 11
-172.9499999999999
 21
105.40000000000039
 31
0.0
  0
LINE
  5
E5
100
AcDbEntity
100
AcDbLine
  8
0
 62
256
370
-1
 48
1.0
  6
ByLayer
 10
-172.9499999999999
 20
105.40000000000039
 30
0.0
 11
-172.94999999999987
 21
94.800000000000423
 31
0.0
  0
LINE
  5
E6
100
AcDbEntity
100
AcDbLine
  8
0
 62
256
370
-1
 48
1.0
  6
ByLayer
 10
-172.94999999999987
 20
94.800000000000423
 30
0.0
 11
-171.84999999999988
 21
94.800000000000409
 31
0.0
  0
ARC
  5
E7
100
AcDbEntity
  8
0
 62
256
370
-1
 48
1.0
  6
ByLayer
100
AcDbCircle
 10
-171.59999999999988
 20
94.800000000000409
 30
0.0
 40
0.25
100
AcDbArc
 50
270.0
 51
180.0
  0
LINE
  5
E8
100
AcDbEntity
100
AcDbLine
  8
0
 62
256
370
-1
 48
1.0
  6
ByLayer
 10
-171.59999999999988
 20
94.550000000000409
 30
0.0
 11
-171.59999999999988
 21
92.050000000000409
 31
0.0
  0
ARC
  5
E9
100
AcDbEntity
  8
0
 62
256
370
-1
 48
1.0
  6
ByLayer
100
AcDbCircle
 10
-171.59999999999991
 20
91.800000000000395
 30
0.0
 40
0.2500000000000071
100
AcDbArc
 50
180.0
 51
89.999999999993491
  0
LINE
  5
EA
100
AcDbEntity
100
AcDbLine
  8
0
 62
256
370
-1
 48
1.0
  6
ByLayer
 10
-171.84999999999991
 20
91.800000000000423
 30
0.0
 11
-172.94999999999987
 21
91.800000000000409
 31
0.0
  0
LINE
  5
EB
100
AcDbEntity
100
AcDbLine
  8
0
 62
256
370
-1
 48
1.0
  6
ByLayer
 10
-172.94999999999987
 20
91.800000000000409
 30
0.0
 11
-172.9499999999999
 21
89.800000000000438
 31
0.0
  0
LINE
  5
EC
100
AcDbEntity
100
AcDbLine
  8
0
 62
256
370
-1
 48
1.0
  6
ByLayer
 10
-172.9499999999999
 20
89.800000000000438
 30
0.0
 11
-176.24999999999989
 21
89.800000000000423
 31
0.0
  0
LINE
  5
ED
100
AcDbEntity
100
AcDbLine
  8
0
 62
256
370
-1
 48
1.0
  6
ByLayer
 10
-176.24999999999989
 20
89.800000000000423
 30
0.0
 11
-176.24999999999989
 21
91.800000000000423
 31
0.0
  0
LINE
  5
EE
100
AcDbEntity
100
AcDbLine
  8
0
 62
256
370
-1
 48
1.0
  6
ByLayer
 10
-176.24999999999989
 20
91.800000000000423
 30
0.0
 11
-177.34999999999988
 21
91.800000000000409
 31
0.0
  0
ARC
  5
EF
100
AcDbEntity
  8
0
 62
256
370
-1
 48
1.0
  6
ByLayer
100
AcDbCircle
 10
-177.59999999999988
 20
91.800000000000409
 30
0.0
 40
0.25
100
AcDbArc
 50
90.0
 51
0.0
  0
LINE
  5
F0
100
AcDbEntity
100
AcDbLine
  8
0
 62
256
370
-1
 48
1.0
  6
ByLayer
 10
-177.59999999999988
 20
92.050000000000409
 30
0.0
 11
-177.59999999999991
 21
94.550000000000423
 31
0.0
  0
ARC
  5
F1
100
AcDbEntity
  8
0
 62
256
370
-1
 48
1.0
  6
ByLayer
100
AcDbCircle
 10
-177.59999999999991
 20
94.800000000000423
 30
0.0
 40
0.25
100
AcDbArc
 50
0.0
 51
270.0
  0
LINE
  5
F2
100
AcDbEntity
100
AcDbLine
  8
0
 62
256
370
-1
 48
1.0
  6
ByLayer
 10
-177.34999999999991
 20
94.800000000000423
 30
0.0
 11
-176.24999999999989
 21
94.800000000000409
 31
0.0
  0
LINE
  5
F3
100
AcDbEntity
100
AcDbLine
  8
0
 62
256
370
-1
 48
1.0
  6
ByLayer
 10
-176.24999999999989
 20
94.800000000000409
 30
0.0
 11
-176.24999999999989
 21
105.40000000000039
 31
0.0
  0
LINE
  5
F4
100
AcDbEntity
100
AcDbLine
  8
0
 62
256
370
-1
 48
1.0
  6
ByLayer
 10
-176.24999999999989
 20
105.40000000000039
 30
0.0
 11
-194.59999999999999
 21
105.40000000000009
 31
0.0
  0
LINE
  5
F5
100
AcDbEntity
100
AcDbLine
  8
0
 62
256
370
-1
 48
1.0
  6
ByLayer
 10
-194.59999999999999
 20
105.40000000000009
 30
0.0
 11
-194.59999999999999
 21
111.8000000000001
 31
0.0
  0
LINE
  5
F6
100
AcDbEntity
100
AcDbLine
  8
0
 62
256
370
-1
 48
1.0
  6
ByLayer
 10
-194.59999999999999
 20
111.8000000000001
 30
0.0
 11
-224.60000000000002
 21
111.80000000000008
 31
0.0
  0
LINE
  5
F7
100
AcDbEntity
100
AcDbLine
  8
0
 62
256
370
-1
 48
1.0
  6
ByLayer
 10
-224.60000000000002
 20
111.80000000000008
 30
0.0
 11
-224.60000000000005
 21
105.40000000000011
 31
0.0
  0
LINE
  5
F8
100
AcDbEntity
100
AcDbLine
  8
0
 62
256
370
-1
 48
1.0
  6
ByLayer
 10
-224.60000000000005
 20
105.40000000000011
 30
0.0
 11
-242.94999999999982
 21
105.40000000000029
 31
0.0
  0
LINE
  5
F9
100
AcDbEntity
100
AcDbLine
  8
0
 62
256
370
-1
 48
1.0
  6
ByLayer
 10
-242.94999999999982
 20
105.40000000000029
 30
0.0
 11
-242.94999999999982
 21
94.80000000000031
 31
0.0
  0
LINE
  5
FA
100
AcDbEntity
100
AcDbLine
  8
0
 62
256
370
-1
 48
1.0
  6
ByLayer
 10
-242.94999999999982
 20
94.80000000000031
 30
0.0
 11
-241.84999999999985
 21
94.800000000000296
 31
0.0
  0
ARC
  5
FB
100
AcDbEntity
  8
0
 62
256
370
-1
 48
1.0
  6
ByLayer
100
AcDbCircle
 10
-241.59999999999991
 20
94.800000000000281
 30
0.0
 40
0.2499999999999307
100
AcDbArc
 50
269.99999999998698
 51
180.0
  0
LINE
  5
FC
100
AcDbEntity
100
AcDbLine
  8
0
 62
256
370
-1
 48
1.0
  6
ByLayer
 10
-241.59999999999997
 20
94.550000000000338
 30
0.0
 11
-241.59999999999994
 21
92.050000000000338
 31
0.0
  0
ARC
  5
FD
100
AcDbEntity
  8
0
 62
256
370
-1
 48
1.0
  6
ByLayer
100
AcDbCircle
 10
-241.59999999999991
 20
91.800000000000367
 30
0.0
 40
0.2499999999999662
100
AcDbArc
 50
180.0
 51
90.000000000006509
  0
LINE
  5
FE
100
AcDbEntity
100
AcDbLine
  8
0
 62
256
370
-1
 48
1.0
  6
ByLayer
 10
-241.84999999999985
 20
91.800000000000338
 30
0.0
 11
-242.94999999999982
 21
91.800000000000395
 31
0.0
  0
LINE
  5
FF
100
AcDbEntity
100
AcDbLine
  8
0
 62
256
370
-1
 48
1.0
  6
ByLayer
 10
-242.94999999999982
 20
91.800000000000395
 30
0.0
 11
-242.94999999999985
 21
89.80000000000048
 31
0.0
  0
LINE
  5
100
100
AcDbEntity
100
AcDbLine
  8
0
 62
256
370
-1
 48
1.0
  6
ByLayer
 10
-242.94999999999985
 20
89.80000000000048
 30
0.0
 11
-246.24999999999983
 21
89.800000000000381
 31
0.0
  0
LINE
  5
101
100
AcDbEntity
100
AcDbLine
  8
0
 62
256
370
-1
 48
1.0
  6
ByLayer
 10
-246.24999999999983
 20
89.800000000000381
 30
0.0
 11
-246.24999999999986
 21
91.800000000000466
 31
0.0
  0
LINE
  5
102
100
AcDbEntity
100
AcDbLine
  8
0
 62
256
370
-1
 48
1.0
  6
ByLayer
 10
-246.24999999999986
 20
91.800000000000466
 30
0.0
 11
-247.34999999999985
 21
91.800000000000296
 31
0.0
  0
ARC
  5
103
100
AcDbEntity
  8
0
 62
256
370
-1
 48
1.0
  6
ByLayer
100
AcDbCircle
 10
-247.59999999999991
 20
91.800000000000253
 30
0.0
 40
0.2500000000000426
100
AcDbArc
 50
90.000000000006509
 51
0.0
  0
LINE
  5
104
100
AcDbEntity
100
AcDbLine
  8
0
 62
256
370
-1
 48
1.0
  6
ByLayer
 10
-247.59999999999994
 20
92.050000000000296
 30
0.0
 11
-247.59999999999997
 21
94.550000000000367
 31
0.0
  0
ARC
  5
105
100
AcDbEntity
  8
0
 62
256
370
-1
 48
1.0
  6
ByLayer
100
AcDbCircle
 10
-247.59999999999988
 20
94.800000000000409
 30
0.0
 40
0.2500000000000355
100
AcDbArc
 50
360.0
 51
269.99999999998045
  0
LINE
  5
106
100
AcDbEntity
100
AcDbLine
  8
0
 62
256
370
-1
 48
1.0
  6
ByLayer
 10
-247.34999999999985
 20
94.800000000000324
 30
0.0
 11
-246.24999999999994
 21
94.800000000000367
 31
0.0
  0
LINE
  5
107
100
AcDbEntity
100
AcDbLine
  8
0
 62
256
370
-1
 48
1.0
  6
ByLayer
 10
-246.24999999999994
 20
94.800000000000367
 30
0.0
 11
-246.24999999999994
 21
105.40000000000029
 31
0.0
  0
LINE
  5
108
100
AcDbEntity
100
AcDbLine
  8
0
 62
256
370
-1
 48
1.0
  6
ByLayer
 10
-246.24999999999994
 20
105.40000000000029
 30
0.0
 11
-264.59999999999991
 21
105.40000000000011
 31
0.0
  0
LINE
  5
109
100
AcDbEntity
100
AcDbLine
  8
0
 62
256
370
-1
 48
1.0
  6
ByLayer
 10
-264.59999999999991
 20
105.40000000000011
 30
0.0
 11
-264.60000000000002
 21
111.80000000000003
 31
0.0
  0
LINE
  5
10A
100
AcDbEntity
100
AcDbLine
  8
0
 62
256
370
-1
 48
1.0
  6
ByLayer
 10
-264.60000000000002
 20
111.80000000000003
 30
0.0
 11
-294.60000000000002
 21
111.80000000000013
 31
0.0
  0
LINE
  5
10B
100
AcDbEntity
100
AcDbLine
  8
0
 62
256
370
-1
 48
1.0
  6
ByLayer
 10
-294.60000000000002
 20
111.80000000000013
 30
0.0
 11
-294.60000000000002
 21
105.40000000000011
 31
0.0
  0
LINE
  5
10C
100
AcDbEntity
100
AcDbLine
  8
0
 62
256
370
-1
 48
1.0
  6
ByLayer
 10
-294.60000000000002
 20
105.40000000000011
 30
0.0
 11
-312.94999999999982
 21
105.40000000000026
 31
0.0
  0
LINE
  5
10D
100
AcDbEntity
100
AcDbLine
  8
0
 62
256
370
-1
 48
1.0
  6
ByLayer
 10
-312.94999999999982
 20
105.40000000000026
 30
0.0
 11
-312.94999999999982
 21
94.800000000000281
 31
0.0
  0
LINE
  5
10E
100
AcDbEntity
100
AcDbLine
  8
0
 62
256
370
-1
 48
1.0
  6
ByLayer
 10
-312.94999999999982
 20
94.800000000000281
 30
0.0
 11
-311.8499999999998
 21
94.800000000000239
 31
0.0
  0
ARC
  5
10F
100
AcDbEntity
  8
0
 62
256
370
-1
 48
1.0
  6
ByLayer
100
AcDbCircle
 10
-311.59999999999985
 20
94.800000000000267
 30
0.0
 40
0.2499999999999645
100
AcDbArc
 50
270.00000000001302
 51
180.0
  0
LINE
  5
110
100
AcDbEntity
100
AcDbLine
  8
0
 62
256
370
-1
 48
1.0
  6
ByLayer
 10
-311.5999999999998
 20
94.55000000000031
 30
0.0
 11
-311.59999999999985
 21
92.050000000000409
 31
0.0
  0
ARC
  5
111
100
AcDbEntity
  8
0
 62
256
370
-1
 48
1.0
  6
ByLayer
100
AcDbCircle
 10
-311.59999999999974
 20
91.800000000000381
 30
0.0
 40
0.2500000000000355
100
AcDbArc
 50
180.0
 51
90.000000000026063
  0
LINE
  5
112
100
AcDbEntity
100
AcDbLine
  8
0
 62
256
370
-1
 48
1.0
  6
ByLayer
 10
-311.8499999999998
 20
91.800000000000281
 30
0.0
 11
-312.94999999999982
 21
91.800000000000253
 31
0.0
  0
LINE
  5
113
100
AcDbEntity
100
AcDbLine
  8
0
 62
256
370
-1
 48
1.0
  6
ByLayer
 10
-312.94999999999982
 20
91.800000000000253
 30
0.0
 11
-312.94999999999987
 21
89.800000000000395
 31
0.0
  0
LINE
  5
114
100
AcDbEntity
100
AcDbLine
  8
0
 62
256
370
-1
 48
1.0
  6
ByLayer
 10
-312.94999999999987
 20
89.800000000000395
 30
0.0
 11
-316.24999999999983
 21
89.800000000000409
 31
0.0
  0
LINE
  5
115
100
AcDbEntity
100
AcDbLine
  8
0
 62
256
370
-1
 48
1.0
  6
ByLayer
 10
-316.24999999999983
 20
89.800000000000409
 30
0.0
 11
-316.24999999999983
 21
91.800000000000281
 31
0.0
  0
LINE
  5
116
100
AcDbEntity
100
AcDbLine
  8
0
 62
256
370
-1
 48
1.0
  6
ByLayer
 10
-316.24999999999983
 20
91.800000000000281
 30
0.0
 11
-317.3499999999998
 21
91.800000000000367
 31
0.0
  0
ARC
  5
117
100
AcDbEntity
  8
0
 62
256
370
-1
 48
1.0
  6
ByLayer
100
AcDbCircle
 10
-317.5999999999998
 20
91.800000000000324
 30
0.0
 40
0.2500000000000213
100
AcDbArc
 50
90.000000000013031
 51
0.0
  0
LINE
  5
118
100
AcDbEntity
100
AcDbLine
  8
0
 62
256
370
-1
 48
1.0
  6
ByLayer
 10
-317.59999999999985
 20
92.050000000000352
 30
0.0
 11
-317.5999999999998
 21
94.550000000000381
 31
0.0
  0
ARC
  5
119
100
AcDbEntity
  8
0
 62
256
370
-1
 48
1.0
  6
ByLayer
100
AcDbCircle
 10
-317.5999999999998
 20
94.800000000000381
 30
0.0
 40
0.25
100
AcDbArc
 50
0.0
 51
270.0
  0
LINE
  5
11A
100
AcDbEntity
100
AcDbLine
  8
0
 62
256
370
-1
 48
1.0
  6
ByLayer
 10
-317.3499999999998
 20
94.800000000000381
 30
0.0
 11
-316.24999999999983
 21
94.800000000000367
 31
0.0
  0
LINE
  5
11B
100
AcDbEntity
100
AcDbLine
  8
0
 62
256
370
-1
 48
1.0
  6
ByLayer
 10
-316.24999999999983
 20
94.800000000000367
 30
0.0
 11
-316.24999999999983
 21
105.40000000000028
 31
0.0
  0
LINE
  5
11C
100
AcDbEntity
100
AcDbLine
  8
0
 62
256
370
-1
 48
1.0
  6
ByLayer
 10
-316.24999999999983
 20
105.40000000000028
 30
0.0
 11
-349.59999999999991
 21
105.40000000000012
 31
0.0
  0
LINE
  5
11D
100
AcDbEntity
100
AcDbLine
  8
0
 62
256
370
-1
 48
1.0
  6
ByLayer
 10
-349.59999999999991
 20
105.40000000000012
 30
0.0
 11
-349.59999999999991
 21
77.066666666666762
 31
0.0
  0
LINE
  5
11E
100
AcDbEntity
100
AcDbLine
  8
0
 62
256
370
-1
 48
1.0
  6
ByLayer
 10
-349.59999999999991
 20
77.066666666666762
 30
0.0
 11
-356.00000000000006
 21
77.066666666666777
 31
0.0
  0
LINE
  5
11F
100
AcDbEntity
100
AcDbLine
  8
0
 62
256
370
-1
 48
1.0
  6
ByLayer
 10
-356.00000000000006
 20
77.066666666666777
 30
0.0
 11
-356.00000000000006
 21
47.066666666666769
 31
0.0
  0
LINE
  5
120
100
AcDbEntity
100
AcDbLine
  8
0
 62
256
370
-1
 48
1.0
  6
ByLayer
 10
-356.00000000000006
 20
47.066666666666769
 30
0.0
 11
-349.59999999999991
 21
47.066666666666805
 31
0.0
  0
LINE
  5
121
100
AcDbEntity
100
AcDbLine
  8
0
 62
256
370
-1
 48
1.0
  6
ByLayer
 10
-349.59999999999991
 20
47.066666666666805
 30
0.0
 11
-349.59999999999991
 21
20.383333333333681
 31
0.0
  0
LINE
  5
122
100
AcDbEntity
100
AcDbLine
  8
0
 62
256
370
-1
 48
1.0
  6
ByLayer
 10
-349.59999999999991
 20
20.383333333333681
 30
0.0
 11
-338.99999999999994
 21
20.383333333333624
 31
0.0
  0
LINE
  5
123
100
AcDbEntity
100
AcDbLine
  8
0
 62
256
370
-1
 48
1.0
  6
ByLayer
 10
-338.99999999999994
 20
20.383333333333624
 30
0.0
 11
-339.0
 21
21.48333333333369
 31
0.0
  0
ARC
  5
124
100
AcDbEntity
  8
0
 62
256
370
-1
 48
1.0
  6
ByLayer
100
AcDbCircle
 10
-339.0
 20
21.733333333333739
 30
0.0
 40
0.2500000000000497
100
AcDbArc
 50
360.0
 51
270.0
  0
LINE
  5
125
100
AcDbEntity
100
AcDbLine
  8
0
 62
256
370
-1
 48
1.0
  6
ByLayer
 10
-338.74999999999994
 20
21.733333333333732
 30
0.0
 11
-336.25
 21
21.733333333333732
 31
0.0
  0
ARC
  5
126
100
AcDbEntity
  8
0
 62
256
370
-1
 48
1.0
  6
ByLayer
100
AcDbCircle
 10
-336.0
 20
21.733333333333732
 30
0.0
 40
0.25
100
AcDbArc
 50
270.0
 51
180.0
  0
LINE
  5
127
100
AcDbEntity
100
AcDbLine
  8
0
 62
256
370
-1
 48
1.0
  6
ByLayer
 10
-336.0
 20
21.483333333333732
 30
0.0
 11
-335.99999999999994
 21
20.383333333333638
 31
0.0
  0
LINE
  5
128
100
AcDbEntity
100
AcDbLine
  8
0
 62
256
370
-1
 48
1.0
  6
ByLayer
 10
-335.99999999999994
 20
20.383333333333638
 30
0.0
 11
-334.0
 21
20.383333333333695
 31
0.0
  0
LINE
  5
129
100
AcDbEntity
100
AcDbLine
  8
0
 62
256
370
-1
 48
1.0
  6
ByLayer
 10
-334.0
 20
20.383333333333695
 30
0.0
 11
-334.0
 21
17.083333333333698
 31
0.0
  0
LINE
  5
12A
100
AcDbEntity
100
AcDbLine
  8
0
 62
256
370
-1
 48
1.0
  6
ByLayer
 10
-334.0
 20
17.083333333333698
 30
0.0
 11
-335.99999999999994
 21
17.08333333333357
 31
0.0
  0
LINE
  5
12B
100
AcDbEntity
100
AcDbLine
  8
0
 62
256
370
-1
 48
1.0
  6
ByLayer
 10
-335.99999999999994
 20
17.08333333333357
 30
0.0
 11
-335.99999999999994
 21
15.983333333333732
 31
0.0
  0
ARC
  5
12C
100
AcDbEntity
  8
0
 62
256
370
-1
 48
1.0
  6
ByLayer
100
AcDbCircle
 10
-335.99999999999983
 20
15.733333333333711
 30
0.0
 40
0.2500000000000213
100
AcDbArc
 50
180.0
 51
90.000000000026063
  0
LINE
  5
12D
100
AcDbEntity
100
AcDbLine
  8
0
 62
256
370
-1
 48
1.0
  6
ByLayer
 10
-336.24999999999989
 20
15.733333333333633
 30
0.0
 11
-338.74999999999994
 21
15.733333333333675
 31
0.0
  0
ARC
  5
12E
100
AcDbEntity
  8
0
 62
256
370
-1
 48
1.0
  6
ByLayer
100
AcDbCircle
 10
-339.00000000000006
 20
15.733333333333697
 30
0.0
 40
0.2500000000000782
100
AcDbArc
 50
89.999999999986969
 51
360.0
  0
LINE
  5
12F
100
AcDbEntity
100
AcDbLine
  8
0
 62
256
370
-1
 48
1.0
  6
ByLayer
 10
-339.0
 20
15.983333333333775
 30
0.0
 11
-338.99999999999989
 21
17.08333333333367
 31
0.0
  0
LINE
  5
130
100
AcDbEntity
100
AcDbLine
  8
0
 62
256
370
-1
 48
1.0
  6
ByLayer
 10
-319.59999999999991
 20
50.400000000000013
 30
0.0
 11
-169.59999999999997
 21
50.399999999999977
 31
0.0
  0
LINE
  5
131
100
AcDbEntity
100
AcDbLine
  8
0
 62
256
370
-1
 48
1.0
  6
ByLayer
 10
-169.59999999999997
 20
50.399999999999977
 30
0.0
 11
-169.60000000000008
 21
-99.600000000000023
 31
0.0
  0
LINE
  5
132
100
AcDbEntity
100
AcDbLine
  8
0
 62
256
370
-1
 48
1.0
  6
ByLayer
 10
-169.60000000000008
 20
-99.600000000000023
 30
0.0
 11
-319.59999999999985
 21
-99.60000000000008
 31
0.0
  0
LINE
  5
133
100
AcDbEntity
100
AcDbLine
  8
0
 62
256
370
-1
 48
1.0
  6
ByLayer
 10
-319.59999999999985
 20
-99.60000000000008
 30
0.0
 11
-319.59999999999991
 21
50.400000000000013
 31
0.0
  0
LINE
  5
134
100
AcDbEntity
100
AcDbLine
  8
0
 62
256
370
-1
 48
1.0
  6
ByLayer
 10
344.34999999999991
 20
-98.999999999999716
 30
0.0
 11
344.34999999999997
 21
-94.79999999999967
 31
0.0
  0
LINE
  5
135
100
AcDbEntity
100
AcDbLine
  8
0
 62
256
370
-1
 48
1.0
  6
ByLayer
 10
344.34999999999997
 20
-94.79999999999967
 30
0.0
 11
343.25
 21
-94.79999999999967
 31
0.0
  0
ARC
  5
136
100
AcDbEntity
  8
0
 62
256
370
-1
 48
1.0
  6
ByLayer
100
AcDbCircle
 10
343.0
 20
-94.799999999999642
 30
0.0
 40
0.2499999999999693
100
AcDbArc
 50
89.999999999986969
 51
360.0
  0
LINE
  5
137
100
AcDbEntity
100
AcDbLine
  8
0
 62
256
370
-1
 48
1.0
  6
ByLayer
 10
343.00000000000006
 20
-94.54999999999967
 30
0.0
 11
343.00000000000011
 21
-92.049999999999784
 31
0.0
  0
ARC
  5
138
100
AcDbEntity
  8
0
 62
256
370
-1
 48
1.0
  6
ByLayer
100
AcDbCircle
 10
343.00000000000006
 20
-91.799999999999841
 30
0.0
 40
0.2499999999999431
100
AcDbArc
 50
0.0
 51
270.00000000001302
  0
LINE
  5
139
100
AcDbEntity
100
AcDbLine
  8
0
 62
256
370
-1
 48
1.0
  6
ByLayer
 10
343.25
 20
-91.799999999999784
 30
0.0
 11
344.34999999999997
 21
-91.799999999999784
 31
0.0
  0
LINE
  5
13A
100
AcDbEntity
100
AcDbLine
  8
0
 62
256
370
-1
 48
1.0
  6
ByLayer
 10
344.34999999999997
 20
-91.799999999999784
 30
0.0
 11
344.35000000000002
 21
-89.799999999999784
 31
0.0
  0
LINE
  5
13B
100
AcDbEntity
100
AcDbLine
  8
0
 62
256
370
-1
 48
1.0
  6
ByLayer
 10
344.35000000000002
 20
-89.799999999999784
 30
0.0
 11
347.64999999999992
 21
-89.799999999999784
 31
0.0
  0
LINE
  5
13C
100
AcDbEntity
100
AcDbLine
  8
0
 62
256
370
-1
 48
1.0
  6
ByLayer
 10
347.64999999999992
 20
-89.799999999999784
 30
0.0
 11
347.65000000000009
 21
-91.799999999999784
 31
0.0
  0
LINE
  5
13D
100
AcDbEntity
100
AcDbLine
  8
0
 62
256
370
-1
 48
1.0
  6
ByLayer
 10
347.65000000000009
 20
-91.799999999999784
 30
0.0
 11
348.75
 21
-91.799999999999784
 31
0.0
  0
ARC
  5
13E
100
AcDbEntity
  8
0
 62
256
370
-1
 48
1.0
  6
ByLayer
100
AcDbCircle
 10
348.99999999999994
 20
-91.799999999999841
 30
0.0
 40
0.2499999999999431
100
AcDbArc
 50
269.99999999998698
 51
180.0
  0
LINE
  5
13F
100
AcDbEntity
100
AcDbLine
  8
0
 62
256
370
-1
 48
1.0
  6
ByLayer
 10
348.99999999999989
 20
-92.049999999999784
 30
0.0
 11
349.00000000000017
 21
-94.54999999999967
 31
0.0
  0
ARC
  5
140
100
AcDbEntity
  8
0
 62
256
370
-1
 48
1.0
  6
ByLayer
100
AcDbCircle
 10
349.00000000000011
 20
-94.799999999999841
 30
0.0
 40
0.2500000000001705
100
AcDbArc
 50
180.0
 51
89.999999999986969
  0
LINE
  5
141
100
AcDbEntity
100
AcDbLine
  8
0
 62
256
370
-1
 48
1.0
  6
ByLayer
 10
348.74999999999994
 20
-94.799999999999784
 30
0.0
 11
347.64999999999998
 21
-94.799999999999784
 31
0.0
  0
LINE
  5
142
100
AcDbEntity
100
AcDbLine
  8
0
 62
256
370
-1
 48
1.0
  6
ByLayer
 10
347.64999999999998
 20
-94.799999999999784
 30
0.0
 11
347.65000000000009
 21
-98.999999999999716
 31
0.0
  0
LINE
  5
143
100
AcDbEntity
100
AcDbLine
  8
0
 62
256
370
-1
 48
1.0
  6
ByLayer
 10
347.65000000000009
 20
-98.999999999999716
 30
0.0
 11
356.0
 21
-98.999999999999716
 31
0.0
  0
LINE
  5
144
100
AcDbEntity
100
AcDbLine
  8
0
 62
256
370
-1
 48
1.0
  6
ByLayer
 10
356.0
 20
-98.999999999999716
 30
0.0
 11
356.00000000000017
 21
-72.399999999999693
 31
0.0
  0
LINE
  5
145
100
AcDbEntity
100
AcDbLine
  8
0
 62
256
370
-1
 48
1.0
  6
ByLayer
 10
356.00000000000017
 20
-72.399999999999693
 30
0.0
 11
353.00000000000011
 21
-72.399999999999807
 31
0.0
  0
LINE
  5
146
100
AcDbEntity
100
AcDbLine
  8
0
 62
256
370
-1
 48
1.0
  6
ByLayer
 10
353.00000000000011
 20
-72.399999999999807
 30
0.0
 11
353.00000000000006
 21
-70.899999999999693
 31
0.0
  0
LINE
  5
147
100
AcDbEntity
100
AcDbLine
  8
0
 62
256
370
-1
 48
1.0
  6
ByLayer
 10
353.00000000000006
 20
-70.899999999999693
 30
0.0
 11
343.00000000000006
 21
-70.899999999999693
 31
0.0
  0
LINE
  5
148
100
AcDbEntity
100
AcDbLine
  8
0
 62
256
370
-1
 48
1.0
  6
ByLayer
 10
343.00000000000006
 20
-70.899999999999693
 30
0.0
 11
342.99999999999994
 21
-54.899999999999693
 31
0.0
  0
LINE
  5
149
100
AcDbEntity
100
AcDbLine
  8
0
 62
256
370
-1
 48
1.0
  6
ByLayer
 10
342.99999999999994
 20
-54.899999999999693
 30
0.0
 11
353.0
 21
-54.899999999999693
 31
0.0
  0
LINE
  5
14A
100
AcDbEntity
100
AcDbLine
  8
0
 62
256
370
-1
 48
1.0
  6
ByLayer
 10
353.0
 20
-54.899999999999693
 30
0.0
 11
353.00000000000011
 21
16.600000000000307
 31
0.0
  0
LINE
  5
14B
100
AcDbEntity
100
AcDbLine
  8
0
 62
256
370
-1
 48
1.0
  6
ByLayer
 10
353.00000000000011
 20
16.600000000000307
 30
0.0
 11
343.00000000000006
 21
16.600000000000307
 31
0.0
  0
LINE
  5
14C
100
AcDbEntity
100
AcDbLine
  8
0
 62
256
370
-1
 48
1.0
  6
ByLayer
 10
343.00000000000006
 20
16.600000000000307
 30
0.0
 11
343.00000000000011
 21
32.600000000000307
 31
0.0
  0
LINE
  5
14D
100
AcDbEntity
100
AcDbLine
  8
0
 62
256
370
-1
 48
1.0
  6
ByLayer
 10
343.00000000000011
 20
32.600000000000307
 30
0.0
 11
353.00000000000011
 21
32.600000000000307
 31
0.0
  0
LINE
  5
14E
100
AcDbEntity
100
AcDbLine
  8
0
 62
256
370
-1
 48
1.0
  6
ByLayer
 10
353.00000000000011
 20
32.600000000000307
 30
0.0
 11
353.00000000000011
 21
104.10000000000019
 31
0.0
  0
LINE
  5
14F
100
AcDbEntity
100
AcDbLine
  8
0
 62
256
370
-1
 48
1.0
  6
ByLayer
 10
353.00000000000011
 20
104.10000000000019
 30
0.0
 11
343.00000000000011
 21
104.10000000000019
 31
0.0
  0
LINE
  5
150
100
AcDbEntity
100
AcDbLine
  8
0
 62
256
370
-1
 48
1.0
  6
ByLayer
 10
343.00000000000011
 20
104.10000000000019
 30
0.0
 11
343.00000000000011
 21
120.10000000000031
 31
0.0
  0
LINE
  5
151
100
AcDbEntity
100
AcDbLine
  8
0
 62
256
370
-1
 48
1.0
  6
ByLayer
 10
343.00000000000011
 20
120.10000000000031
 30
0.0
 11
353.00000000000011
 21
120.10000000000019
 31
0.0
  0
LINE
  5
152
100
AcDbEntity
100
AcDbLine
  8
0
 62
256
370
-1
 48
1.0
  6
ByLayer
 10
353.00000000000011
 20
120.10000000000019
 30
0.0
 11
353.00000000000006
 21
121.60000000000019
 31
0.0
  0
LINE
  5
153
100
AcDbEntity
100
AcDbLine
  8
0
 62
256
370
-1
 48
1.0
  6
ByLayer
 10
353.00000000000006
 20
121.60000000000019
 30
0.0
 11
356.00000000000011
 21
121.60000000000019
 31
0.0
  0
LINE
  5
154
100
AcDbEntity
100
AcDbLine
  8
0
 62
256
370
-1
 48
1.0
  6
ByLayer
 10
356.00000000000011
 20
121.60000000000019
 30
0.0
 11
356.00000000000017
 21
148.2000000000001
 31
0.0
  0
LINE
  5
155
100
AcDbEntity
100
AcDbLine
  8
0
 62
256
370
-1
 48
1.0
  6
ByLayer
 10
356.00000000000017
 20
148.2000000000001
 30
0.0
 11
347.65000000000015
 21
148.2000000000001
 31
0.0
  0
LINE
  5
156
100
AcDbEntity
100
AcDbLine
  8
0
 62
256
370
-1
 48
1.0
  6
ByLayer
 10
347.65000000000015
 20
148.2000000000001
 30
0.0
 11
347.65000000000015
 21
144.00000000000017
 31
0.0
  0
LINE
  5
157
100
AcDbEntity
100
AcDbLine
  8
0
 62
256
370
-1
 48
1.0
  6
ByLayer
 10
347.65000000000015
 20
144.00000000000017
 30
0.0
 11
348.75000000000011
 21
144.00000000000017
 31
0.0
  0
ARC
  5
158
100
AcDbEntity
  8
0
 62
256
370
-1
 48
1.0
  6
ByLayer
100
AcDbCircle
 10
349.00000000000011
 20
144.00000000000017
 30
0.0
 40
0.25
100
AcDbArc
 50
270.0
 51
180.0
  0
LINE
  5
159
100
AcDbEntity
100
AcDbLine
  8
0
 62
256
370
-1
 48
1.0
  6
ByLayer
 10
349.00000000000011
 20
143.75000000000017
 30
0.0
 11
349.00000000000011
 21
141.25000000000017
 31
0.0
  0
ARC
  5
15A
100
AcDbEntity
  8
0
 62
256
370
-1
 48
1.0
  6
ByLayer
100
AcDbCircle
 10
349.00000000000011
 20
141.00000000000017
 30
0.0
 40
0.25
100
AcDbArc
 50
180.0
 51
90.0
  0
LINE
  5
15B
100
AcDbEntity
100
AcDbLine
  8
0
 62
256
370
-1
 48
1.0
  6
ByLayer
 10
348.75000000000011
 20
141.00000000000017
 30
0.0
 11
347.65000000000015
 21
141.00000000000017
 31
0.0
  0
LINE
  5
15C
100
AcDbEntity
100
AcDbLine
  8
0
 62
256
370
-1
 48
1.0
  6
ByLayer
 10
347.65000000000015
 20
141.00000000000017
 30
0.0
 11
347.65000000000015
 21
139.00000000000017
 31
0.0
  0
LINE
  5
15D
100
AcDbEntity
100
AcDbLine
  8
0
 62
256
370
-1
 48
1.0
  6
ByLayer
 10
347.65000000000015
 20
139.00000000000017
 30
0.0
 11
344.35000000000019
 21
139.00000000000017
 31
0.0
  0
LINE
  5
15E
100
AcDbEntity
100
AcDbLine
  8
0
 62
256
370
-1
 48
1.0
  6
ByLayer
 10
344.35000000000019
 20
139.00000000000017
 30
0.0
 11
344.35000000000019
 21
141.00000000000017
 31
0.0
  0
LINE
  5
15F
100
AcDbEntity
100
AcDbLine
  8
0
 62
256
370
-1
 48
1.0
  6
ByLayer
 10
344.35000000000019
 20
141.00000000000017
 30
0.0
 11
343.25000000000017
 21
141.00000000000017
 31
0.0
  0
ARC
  5
160
100
AcDbEntity
  8
0
 62
256
370
-1
 48
1.0
  6
ByLayer
100
AcDbCircle
 10
343.00000000000017
 20
141.00000000000017
 30
0.0
 40
0.25
100
AcDbArc
 50
90.0
 51
0.0
  0
LINE
  5
161
100
AcDbEntity
100
AcDbLine
  8
0
 62
256
370
-1
 48
1.0
  6
ByLayer
 10
343.00000000000017
 20
141.25000000000017
 30
0.0
 11
343.00000000000017
 21
143.75000000000017
 31
0.0
  0
ARC
  5
162
100
AcDbEntity
  8
0
 62
256
370
-1
 48
1.0
  6
ByLayer
100
AcDbCircle
 10
343.00000000000017
 20
144.00000000000017
 30
0.0
 40
0.2499999999999978
100
AcDbArc
 50
0.0
 51
270.0
  0
LINE
  5
163
100
AcDbEntity
100
AcDbLine
  8
0
 62
256
370
-1
 48
1.0
  6
ByLayer
 10
343.25000000000017
 20
144.00000000000017
 30
0.0
 11
344.35000000000019
 21
144.00000000000017
 31
0.0
  0
LINE
  5
164
100
AcDbEntity
100
AcDbLine
  8
0
 62
256
370
-1
 48
1.0
  6
ByLayer
 10
344.35000000000019
 20
144.00000000000017
 30
0.0
 11
344.35000000000014
 21
148.20000000000022
 31
0.0
  0
LINE
  5
165
100
AcDbEntity
100
AcDbLine
  8
0
 62
256
370
-1
 48
1.0
  6
ByLayer
 10
344.35000000000014
 20
148.20000000000022
 30
0.0
 11
331.00000000000023
 21
148.20000000000022
 31
0.0
  0
LINE
  5
166
100
AcDbEntity
100
AcDbLine
  8
0
 62
256
370
-1
 48
1.0
  6
ByLayer
 10
331.00000000000023
 20
148.20000000000022
 30
0.0
 11
331.00000000000023
 21
154.60000000000019
 31
0.0
  0
LINE
  5
167
100
AcDbEntity
100
AcDbLine
  8
0
 62
256
370
-1
 48
1.0
  6
ByLayer
 10
331.00000000000023
 20
154.60000000000019
 30
0.0
 11
316.00000000000017
 21
154.60000000000019
 31
0.0
  0
LINE
  5
168
100
AcDbEntity
100
AcDbLine
  8
0
 62
256
370
-1
 48
1.0
  6
ByLayer
 10
316.00000000000017
 20
154.60000000000019
 30
0.0
 11
316.00000000000017
 21
161.00000000000017
 31
0.0
  0
LINE
  5
169
100
AcDbEntity
100
AcDbLine
  8
0
 62
256
370
-1
 48
1.0
  6
ByLayer
 10
316.00000000000017
 20
161.00000000000017
 30
0.0
 11
306.00000000000017
 21
161.00000000000017
 31
0.0
  0
LINE
  5
16A
100
AcDbEntity
100
AcDbLine
  8
0
 62
256
370
-1
 48
1.0
  6
ByLayer
 10
306.00000000000017
 20
161.00000000000017
 30
0.0
 11
306.00000000000017
 21
-111.79999999999956
 31
0.0
  0
LINE
  5
16B
100
AcDbEntity
100
AcDbLine
  8
0
 62
256
370
-1
 48
1.0
  6
ByLayer
 10
306.00000000000017
 20
-111.79999999999956
 30
0.0
 11
316.00000000000017
 21
-111.79999999999956
 31
0.0
  0
LINE
  5
16C
100
AcDbEntity
100
AcDbLine
  8
0
 62
256
370
-1
 48
1.0
  6
ByLayer
 10
316.00000000000017
 20
-111.79999999999956
 30
0.0
 11
316.00000000000006
 21
-105.39999999999969
 31
0.0
  0
LINE
  5
16D
100
AcDbEntity
100
AcDbLine
  8
0
 62
256
370
-1
 48
1.0
  6
ByLayer
 10
316.00000000000006
 20
-105.39999999999969
 30
0.0
 11
331.0000000000004
 21
-105.39999999999969
 31
0.0
  0
LINE
  5
16E
100
AcDbEntity
100
AcDbLine
  8
0
 62
256
370
-1
 48
1.0
  6
ByLayer
 10
331.0000000000004
 20
-105.39999999999969
 30
0.0
 11
330.99999999999994
 21
-98.999999999999716
 31
0.0
  0
LINE
  5
16F
100
AcDbEntity
100
AcDbLine
  8
0
 62
256
370
-1
 48
1.0
  6
ByLayer
 10
330.99999999999994
 20
-98.999999999999716
 30
0.0
 11
344.34999999999991
 21
-98.999999999999716
 31
0.0
  0
LINE
  5
170
100
AcDbEntity
100
AcDbLine
  8
0
 62
256
370
-1
 48
1.0
  6
ByLayer
 10
96.000000000000014
 20
130.40000000000003
 30
0.0
 11
96.000000000000057
 21
105.40000000000015
 31
0.0
  0
LINE
  5
171
100
AcDbEntity
100
AcDbLine
  8
0
 62
256
370
-1
 48
1.0
  6
ByLayer
 10
293.20000000000005
 20
105.39999999999998
 30
0.0
 11
293.20000000000005
 21
130.40000000000001
 31
0.0
  0
LINE
  5
172
100
AcDbEntity
100
AcDbLine
  8
0
 62
256
370
-1
 48
1.0
  6
ByLayer
 10
293.20000000000005
 20
130.40000000000001
 30
0.0
 11
299.60000000000008
 21
130.39999999999981
 31
0.0
  0
LINE
  5
173
100
AcDbEntity
100
AcDbLine
  8
0
 62
256
370
-1
 48
1.0
  6
ByLayer
 10
299.60000000000008
 20
130.39999999999981
 30
0.0
 11
299.60000000000002
 21
105.40000000000001
 31
0.0
  0
LINE
  5
174
100
AcDbEntity
100
AcDbLine
  8
0
 62
256
370
-1
 48
1.0
  6
ByLayer
 10
306.00000000000006
 20
161.0000000000002
 30
0.0
 11
299.60000000000008
 21
160.99999999999997
 31
0.0
  0
LINE
  5
175
100
AcDbEntity
100
AcDbLine
  8
0
 62
256
370
-1
 48
1.0
  6
ByLayer
 10
299.60000000000008
 20
160.99999999999997
 30
0.0
 11
299.60000000000008
 21
155.39999999999992
 31
0.0
  0
LINE
  5
176
100
AcDbEntity
100
AcDbLine
  8
0
 62
256
370
-1
 48
1.0
  6
ByLayer
 10
299.60000000000008
 20
155.39999999999992
 30
0.0
 11
89.60000000000008
 21
155.39999999999998
 31
0.0
  0
LINE
  5
177
100
AcDbEntity
100
AcDbLine
  8
0
 62
256
370
-1
 48
1.0
  6
ByLayer
 10
89.60000000000008
 20
155.39999999999998
 30
0.0
 11
89.60000000000008
 21
161.0
 31
0.0
  0
LINE
  5
178
100
AcDbEntity
100
AcDbLine
  8
0
 62
256
370
-1
 48
1.0
  6
ByLayer
 10
89.60000000000008
 20
161.0
 30
0.0
 11
83.200000000000102
 21
161.0
 31
0.0
  0
LINE
  5
179
100
AcDbEntity
100
AcDbLine
  8
0
 62
256
370
-1
 48
1.0
  6
ByLayer
 10
89.600000000000051
 20
105.40000000000003
 30
0.0
 11
89.600000000000065
 21
130.40000000000003
 31
0.0
  0
LINE
  5
17A
100
AcDbEntity
100
AcDbLine
  8
0
 62
256
370
-1
 48
1.0
  6
ByLayer
 10
89.600000000000065
 20
130.40000000000003
 30
0.0
 11
96.000000000000014
 21
130.40000000000003
 31
0.0
  0
LINE
  5
17B
100
AcDbEntity
100
AcDbLine
  8
0
 62
256
370
-1
 48
1.0
  6
ByLayer
 10
-126.79999999999995
 20
130.39999999999998
 30
0.0
 11
-126.79999999999995
 21
105.40000000000009
 31
0.0
  0
LINE
  5
17C
100
AcDbEntity
100
AcDbLine
  8
0
 62
256
370
-1
 48
1.0
  6
ByLayer
 10
70.400000000000091
 20
105.40000000000009
 30
0.0
 11
70.400000000000091
 21
130.39999999999998
 31
0.0
  0
LINE
  5
17D
100
AcDbEntity
100
AcDbLine
  8
0
 62
256
370
-1
 48
1.0
  6
ByLayer
 10
70.400000000000091
 20
130.39999999999998
 30
0.0
 11
76.800000000000068
 21
130.39999999999998
 31
0.0
  0
LINE
  5
17E
100
AcDbEntity
100
AcDbLine
  8
0
 62
256
370
-1
 48
1.0
  6
ByLayer
 10
76.800000000000068
 20
130.39999999999998
 30
0.0
 11
76.800000000000068
 21
105.39999999999998
 31
0.0
  0
LINE
  5
17F
100
AcDbEntity
100
AcDbLine
  8
0
 62
256
370
-1
 48
1.0
  6
ByLayer
 10
83.200000000000045
 20
105.39999999999998
 30
0.0
 11
83.200000000000045
 21
160.99999999999994
 31
0.0
  0
LINE
  5
180
100
AcDbEntity
100
AcDbLine
  8
0
 62
256
370
-1
 48
1.0
  6
ByLayer
 10
83.200000000000045
 20
160.99999999999994
 30
0.0
 11
76.800000000000068
 21
160.99999999999994
 31
0.0
  0
LINE
  5
181
100
AcDbEntity
100
AcDbLine
  8
0
 62
256
370
-1
 48
1.0
  6
ByLayer
 10
76.800000000000068
 20
160.99999999999994
 30
0.0
 11
76.800000000000068
 21
155.39999999999998
 31
0.0
  0
LINE
  5
182
100
AcDbEntity
100
AcDbLine
  8
0
 62
256
370
-1
 48
1.0
  6
ByLayer
 10
76.800000000000068
 20
155.39999999999998
 30
0.0
 11
-133.19999999999993
 21
155.39999999999992
 31
0.0
  0
LINE
  5
183
100
AcDbEntity
100
AcDbLine
  8
0
 62
256
370
-1
 48
1.0
  6
ByLayer
 10
-133.19999999999993
 20
155.39999999999992
 30
0.0
 11
-133.19999999999993
 21
160.99999999999994
 31
0.0
  0
LINE
  5
184
100
AcDbEntity
100
AcDbLine
  8
0
 62
256
370
-1
 48
1.0
  6
ByLayer
 10
-133.19999999999993
 20
160.99999999999994
 30
0.0
 11
-139.59999999999991
 21
160.99999999999994
 31
0.0
  0
LINE
  5
185
100
AcDbEntity
100
AcDbLine
  8
0
 62
256
370
-1
 48
1.0
  6
ByLayer
 10
-139.59999999999991
 20
160.99999999999994
 30
0.0
 11
-139.59999999999991
 21
105.39999999999998
 31
0.0
  0
LINE
  5
186
100
AcDbEntity
100
AcDbLine
  8
0
 62
256
370
-1
 48
1.0
  6
ByLayer
 10
-133.19999999999993
 20
105.39999999999998
 30
0.0
 11
-133.19999999999993
 21
130.39999999999998
 31
0.0
  0
LINE
  5
187
100
AcDbEntity
100
AcDbLine
  8
0
 62
256
370
-1
 48
1.0
  6
ByLayer
 10
-133.19999999999993
 20
130.39999999999998
 30
0.0
 11
-126.79999999999995
 21
130.39999999999998
 31
0.0
  0
LINE
  5
188
100
AcDbEntity
100
AcDbLine
  8
0
 62
256
370
-1
 48
1.0
  6
ByLayer
 10
-133.19999999999982
 20
-27.100000000000023
 30
0.0
 11
-139.59999999999985
 21
-27.100000000000023
 31
0.0
  0
LINE
  5
189
100
AcDbEntity
100
AcDbLine
  8
0
 62
256
370
-1
 48
1.0
  6
ByLayer
 10
-139.5999999999998
 20
-77.100000000000023
 30
0.0
 11
-133.19999999999976
 21
-77.100000000000023
 31
0.0
  0
LINE
  5
18A
100
AcDbEntity
100
AcDbLine
  8
0
 62
256
370
-1
 48
1.0
  6
ByLayer
 10
-133.19999999999976
 20
-77.100000000000023
 30
0.0
 11
-133.19999999999976
 21
-102.10000000000002
 31
0.0
  0
LINE
  5
18B
100
AcDbEntity
100
AcDbLine
  8
0
 62
256
370
-1
 48
1.0
  6
ByLayer
 10
-133.19999999999976
 20
-102.10000000000002
 30
0.0
 11
-139.5999999999998
 21
-102.10000000000002
 31
0.0
  0
LINE
  5
18C
100
AcDbEntity
100
AcDbLine
  8
0
 62
256
370
-1
 48
1.0
  6
ByLayer
 10
-139.59999999999985
 20
-145.7110115339932
 30
0.0
 11
83.200000000000102
 21
-149.59999999999991
 31
0.0
  0
LINE
  5
18D
100
AcDbEntity
100
AcDbLine
  8
0
 62
256
370
-1
 48
1.0
  6
ByLayer
 10
83.200000000000102
 20
-149.59999999999991
 30
0.0
 11
83.200000000000102
 21
-102.09999999999991
 31
0.0
  0
LINE
  5
18E
100
AcDbEntity
100
AcDbLine
  8
0
 62
256
370
-1
 48
1.0
  6
ByLayer
 10
83.200000000000102
 20
-102.09999999999991
 30
0.0
 11
76.800000000000125
 21
-102.09999999999991
 31
0.0
  0
LINE
  5
18F
100
AcDbEntity
100
AcDbLine
  8
0
 62
256
370
-1
 48
1.0
  6
ByLayer
 10
76.800000000000125
 20
-102.09999999999991
 30
0.0
 11
76.800000000000125
 21
-77.099999999999909
 31
0.0
  0
LINE
  5
190
100
AcDbEntity
100
AcDbLine
  8
0
 62
256
370
-1
 48
1.0
  6
ByLayer
 10
76.800000000000125
 20
-77.099999999999909
 30
0.0
 11
83.200000000000102
 21
-77.099999999999909
 31
0.0
  0
LINE
  5
191
100
AcDbEntity
100
AcDbLine
  8
0
 62
256
370
-1
 48
1.0
  6
ByLayer
 10
83.200000000000102
 20
-27.099999999999966
 30
0.0
 11
76.800000000000125
 21
-27.099999999999966
 31
0.0
  0
LINE
  5
192
100
AcDbEntity
100
AcDbLine
  8
0
 62
256
370
-1
 48
1.0
  6
ByLayer
 10
76.800000000000125
 20
-27.099999999999966
 30
0.0
 11
76.800000000000125
 21
-2.0999999999999233
 31
0.0
  0
LINE
  5
193
100
AcDbEntity
100
AcDbLine
  8
0
 62
256
370
-1
 48
1.0
  6
ByLayer
 10
76.800000000000125
 20
-2.0999999999999233
 30
0.0
 11
83.200000000000102
 21
-2.0999999999999233
 31
0.0
  0
LINE
  5
194
100
AcDbEntity
100
AcDbLine
  8
0
 62
256
370
-1
 48
1.0
  6
ByLayer
 10
83.200000000000102
 20
105.40000000000008
 30
0.0
 11
-139.59999999999997
 21
105.40000000000003
 31
0.0
  0
LINE
  5
195
100
AcDbEntity
100
AcDbLine
  8
0
 62
256
370
-1
 48
1.0
  6
ByLayer
 10
-139.59999999999985
 20
-2.1000000000000227
 30
0.0
 11
-133.19999999999987
 21
-2.1000000000000085
 31
0.0
  0
LINE
  5
196
100
AcDbEntity
100
AcDbLine
  8
0
 62
256
370
-1
 48
1.0
  6
ByLayer
 10
-133.19999999999987
 20
-2.1000000000000085
 30
0.0
 11
-133.19999999999982
 21
-27.100000000000023
 31
0.0
  0
LINE
  5
197
100
AcDbEntity
100
AcDbLine
  8
0
 62
256
370
-1
 48
1.0
  6
ByLayer
 10
-78.199999999999818
 20
43.400000000000063
 30
0.0
 11
-78.199999999999818
 21
49.800000000000061
 31
0.0
  0
LINE
  5
198
100
AcDbEntity
100
AcDbLine
  8
0
 62
256
370
-1
 48
1.0
  6
ByLayer
 10
-78.199999999999818
 20
49.800000000000061
 30
0.0
 11
-48.199999999999932
 21
49.800000000000061
 31
0.0
  0
LINE
  5
199
100
AcDbEntity
100
AcDbLine
  8
0
 62
256
370
-1
 48
1.0
  6
ByLayer
 10
-48.199999999999932
 20
49.800000000000061
 30
0.0
 11
-48.199999999999932
 21
43.400000000000063
 31
0.0
  0
LINE
  5
19A
100
AcDbEntity
100
AcDbLine
  8
0
 62
256
370
-1
 48
1.0
  6
ByLayer
 10
-48.199999999999932
 20
43.400000000000063
 30
0.0
 11
-78.199999999999818
 21
43.400000000000063
 31
0.0
  0
LINE
  5
19B
100
AcDbEntity
100
AcDbLine
  8
0
 62
256
370
-1
 48
1.0
  6
ByLayer
 10
-78.199999999999875
 20
-134.59999999999991
 30
0.0
 11
-78.199999999999875
 21
-128.19999999999993
 31
0.0
  0
LINE
  5
19C
100
AcDbEntity
100
AcDbLine
  8
0
 62
256
370
-1
 48
1.0
  6
ByLayer
 10
-78.199999999999875
 20
-128.19999999999993
 30
0.0
 11
-48.199999999999875
 21
-128.19999999999993
 31
0.0
  0
LINE
  5
19D
100
AcDbEntity
100
AcDbLine
  8
0
 62
256
370
-1
 48
1.0
  6
ByLayer
 10
-48.199999999999875
 20
-128.19999999999993
 30
0.0
 11
-48.199999999999875
 21
-134.59999999999991
 31
0.0
  0
LINE
  5
19E
100
AcDbEntity
100
AcDbLine
  8
0
 62
256
370
-1
 48
1.0
  6
ByLayer
 10
-48.199999999999875
 20
-134.59999999999991
 30
0.0
 11
-78.199999999999875
 21
-134.59999999999991
 31
0.0
  0
LINE
  5
19F
100
AcDbEntity
100
AcDbLine
  8
0
 62
256
370
-1
 48
1.0
  6
ByLayer
 10
-133.19999999999987
 20
49.800000000000203
 30
0.0
 11
-133.19999999999993
 21
59.800000000000132
 31
0.0
  0
LINE
  5
1A0
100
AcDbEntity
100
AcDbLine
  8
0
 62
256
370
-1
 48
1.0
  6
ByLayer
 10
-133.19999999999993
 20
59.800000000000132
 30
0.0
 11
-126.7999999999999
 21
59.800000000000132
 31
0.0
  0
LINE
  5
1A1
100
AcDbEntity
100
AcDbLine
  8
0
 62
256
370
-1
 48
1.0
  6
ByLayer
 10
-126.7999999999999
 20
59.800000000000132
 30
0.0
 11
-126.7999999999999
 21
49.800000000000203
 31
0.0
  0
LINE
  5
1A2
100
AcDbEntity
100
AcDbLine
  8
0
 62
256
370
-1
 48
1.0
  6
ByLayer
 10
-126.7999999999999
 20
49.800000000000203
 30
0.0
 11
-133.19999999999987
 21
49.800000000000203
 31
0.0
  0
LINE
  5
1A3
100
AcDbEntity
100
AcDbLine
  8
0
 62
256
370
-1
 48
1.0
  6
ByLayer
 10
70.400000000000148
 20
49.800000000000203
 30
0.0
 11
70.400000000000148
 21
59.800000000000139
 31
0.0
  0
LINE
  5
1A4
100
AcDbEntity
100
AcDbLine
  8
0
 62
256
370
-1
 48
1.0
  6
ByLayer
 10
70.400000000000148
 20
59.800000000000139
 30
0.0
 11
76.800000000000125
 21
59.800000000000139
 31
0.0
  0
LINE
  5
1A5
100
AcDbEntity
100
AcDbLine
  8
0
 62
256
370
-1
 48
1.0
  6
ByLayer
 10
76.800000000000125
 20
59.800000000000139
 30
0.0
 11
76.800000000000125
 21
49.800000000000203
 31
0.0
  0
LINE
  5
1A6
100
AcDbEntity
100
AcDbLine
  8
0
 62
256
370
-1
 48
1.0
  6
ByLayer
 10
76.800000000000125
 20
49.800000000000203
 30
0.0
 11
70.400000000000148
 21
49.800000000000203
 31
0.0
  0
LINE
  5
1A7
100
AcDbEntity
100
AcDbLine
  8
0
 62
256
370
-1
 48
1.0
  6
ByLayer
 10
-8.2000000000001023
 20
-134.59999999999991
 30
0.0
 11
-8.2000000000001023
 21
-128.19999999999993
 31
0.0
  0
LINE
  5
1A8
100
AcDbEntity
100
AcDbLine
  8
0
 62
256
370
-1
 48
1.0
  6
ByLayer
 10
-8.2000000000001023
 20
-128.19999999999993
 30
0.0
 11
21.800000000000011
 21
-128.19999999999993
 31
0.0
  0
LINE
  5
1A9
100
AcDbEntity
100
AcDbLine
  8
0
 62
256
370
-1
 48
1.0
  6
ByLayer
 10
21.800000000000011
 20
-128.19999999999993
 30
0.0
 11
21.800000000000011
 21
-134.59999999999991
 31
0.0
  0
LINE
  5
1AA
100
AcDbEntity
100
AcDbLine
  8
0
 62
256
370
-1
 48
1.0
  6
ByLayer
 10
21.800000000000011
 20
-134.59999999999991
 30
0.0
 11
-8.2000000000001023
 21
-134.59999999999991
 31
0.0
  0
LINE
  5
1AB
100
AcDbEntity
100
AcDbLine
  8
0
 62
256
370
-1
 48
1.0
  6
ByLayer
 10
-8.1999999999999886
 20
43.400000000000048
 30
0.0
 11
-8.1999999999999886
 21
49.800000000000061
 31
0.0
  0
LINE
  5
1AC
100
AcDbEntity
100
AcDbLine
  8
0
 62
256
370
-1
 48
1.0
  6
ByLayer
 10
-8.1999999999999886
 20
49.800000000000061
 30
0.0
 11
21.800000000000011
 21
49.800000000000061
 31
0.0
  0
LINE
  5
1AD
100
AcDbEntity
100
AcDbLine
  8
0
 62
256
370
-1
 48
1.0
  6
ByLayer
 10
21.800000000000011
 20
49.800000000000061
 30
0.0
 11
21.800000000000011
 21
43.400000000000063
 31
0.0
  0
LINE
  5
1AE
100
AcDbEntity
100
AcDbLine
  8
0
 62
256
370
-1
 48
1.0
  6
ByLayer
 10
21.800000000000011
 20
43.400000000000063
 30
0.0
 11
-8.1999999999999886
 21
43.400000000000048
 31
0.0
  0
CIRCLE
  5
1AF
100
AcDbEntity
100
AcDbCircle
  8
0
 62
256
370
-1
 48
1.0
  6
ByLayer
 10
92.799999999999997
 20
89.800000000000097
 30
0.0
 40
1.6499999999999999
  0
CIRCLE
  5
1B0
100
AcDbEntity
100
AcDbCircle
  8
0
 62
256
370
-1
 48
1.0
  6
ByLayer
 10
296.40000000000003
 20
89.800000000000125
 30
0.0
 40
1.6499999999999999
  0
CIRCLE
  5
1B1
100
AcDbEntity
100
AcDbCircle
  8
0
 62
256
370
-1
 48
1.0
  6
ByLayer
 10
124.60000000000009
 20
46.600000000000108
 30
0.0
 40
1.6499999999999999
  0
CIRCLE
  5
1B2
100
AcDbEntity
100
AcDbCircle
  8
0
 62
256
370
-1
 48
1.0
  6
ByLayer
 10
194.60000000000005
 20
46.600000000000136
 30
0.0
 40
1.6499999999999999
  0
CIRCLE
  5
1B3
100
AcDbEntity
100
AcDbCircle
  8
0
 62
256
370
-1
 48
1.0
  6
ByLayer
 10
264.60000000000008
 20
46.600000000000136
 30
0.0
 40
1.6499999999999999
  0
CIRCLE
  5
1B4
100
AcDbEntity
100
AcDbCircle
  8
0
 62
256
370
-1
 48
1.0
  6
ByLayer
 10
124.60000000000025
 20
-131.39999999999992
 30
0.0
 40
1.6499999999999999
  0
CIRCLE
  5
1B5
100
AcDbEntity
100
AcDbCircle
  8
0
 62
256
370
-1
 48
1.0
  6
ByLayer
 10
194.59999999999997
 20
-131.39999999999981
 30
0.0
 40
1.6499999999999999
  0
CIRCLE
  5
1B6
100
AcDbEntity
100
AcDbCircle
  8
0
 62
256
370
-1
 48
1.0
  6
ByLayer
 10
264.60000000000008
 20
-131.39999999999986
 30
0.0
 40
1.6499999999999999
  0
CIRCLE
  5
1B7
100
AcDbEntity
100
AcDbCircle
  8
0
 62
256
370
-1
 48
1.0
  6
ByLayer
 10
86.400000000000034
 20
4.1500000000000909
 30
0.0
 40
1.6499999999999999
  0
CIRCLE
  5
1B8
100
AcDbEntity
100
AcDbCircle
  8
0
 62
256
370
-1
 48
1.0
  6
ByLayer
 10
86.400000000000119
 20
-108.34999999999991
 30
0.0
 40
1.6499999999999999
  0
CIRCLE
  5
1B9
100
AcDbEntity
100
AcDbCircle
  8
0
 62
256
370
-1
 48
1.0
  6
ByLayer
 10
86.400000000000048
 20
-52.099999999999909
 30
0.0
 40
1.6499999999999999
  0
CIRCLE
  5
1BA
100
AcDbEntity
100
AcDbCircle
  8
0
 62
256
370
-1
 48
1.0
  6
ByLayer
 10
124.59999999999999
 20
102.59999999999999
 30
0.0
 40
1.6499999999999999
  0
CIRCLE
  5
1BB
100
AcDbEntity
100
AcDbCircle
  8
0
 62
256
370
-1
 48
1.0
  6
ByLayer
 10
264.60000000000008
 20
102.60000000000008
 30
0.0
 40
1.6499999999999999
  0
LINE
  5
1BC
100
AcDbEntity
100
AcDbLine
  8
0
 62
256
370
-1
 48
1.0
  6
ByLayer
 10
244.59999999999994
 20
43.400000000000148
 30
0.0
 11
244.59999999999994
 21
49.800000000000125
 31
0.0
  0
LINE
  5
1BD
100
AcDbEntity
100
AcDbLine
  8
0
 62
256
370
-1
 48
1.0
  6
ByLayer
 10
244.59999999999994
 20
49.800000000000125
 30
0.0
 11
214.60000000000008
 21
49.800000000000125
 31
0.0
  0
LINE
  5
1BE
100
AcDbEntity
100
AcDbLine
  8
0
 62
256
370
-1
 48
1.0
  6
ByLayer
 10
214.60000000000008
 20
49.800000000000125
 30
0.0
 11
214.60000000000008
 21
43.400000000000091
 31
0.0
  0
LINE
  5
1BF
100
AcDbEntity
100
AcDbLine
  8
0
 62
256
370
-1
 48
1.0
  6
ByLayer
 10
214.60000000000008
 20
43.400000000000091
 30
0.0
 11
244.59999999999994
 21
43.400000000000148
 31
0.0
  0
LINE
  5
1C0
100
AcDbEntity
100
AcDbLine
  8
0
 62
256
370
-1
 48
1.0
  6
ByLayer
 10
284.59999999999997
 20
-88.199999999999932
 30
0.0
 11
284.59999999999997
 21
-39.099999999999909
 31
0.0
  0
LINE
  5
1C1
100
AcDbEntity
100
AcDbLine
  8
0
 62
256
370
-1
 48
1.0
  6
ByLayer
 10
284.59999999999997
 20
-39.099999999999909
 30
0.0
 11
259.59999999999991
 21
-39.099999999999909
 31
0.0
  0
LINE
  5
1C2
100
AcDbEntity
100
AcDbLine
  8
0
 62
256
370
-1
 48
1.0
  6
ByLayer
 10
259.59999999999991
 20
-39.099999999999909
 30
0.0
 11
259.59999999999997
 21
-88.199999999999932
 31
0.0
  0
LINE
  5
1C3
100
AcDbEntity
100
AcDbLine
  8
0
 62
256
370
-1
 48
1.0
  6
ByLayer
 10
259.59999999999997
 20
-88.199999999999932
 30
0.0
 11
284.59999999999997
 21
-88.199999999999932
 31
0.0
  0
LINE
  5
1C4
100
AcDbEntity
100
AcDbLine
  8
0
 62
256
370
-1
 48
1.0
  6
ByLayer
 10
299.59999999999997
 20
-27.100000000000023
 30
0.0
 11
306.00000000000006
 21
-27.099999999999852
 31
0.0
  0
LINE
  5
1C5
100
AcDbEntity
100
AcDbLine
  8
0
 62
256
370
-1
 48
1.0
  6
ByLayer
 10
305.99999999999994
 20
-77.099999999999909
 30
0.0
 11
299.59999999999997
 21
-77.099999999999909
 31
0.0
  0
LINE
  5
1C6
100
AcDbEntity
100
AcDbLine
  8
0
 62
256
370
-1
 48
1.0
  6
ByLayer
 10
299.59999999999997
 20
-77.099999999999909
 30
0.0
 11
299.59999999999997
 21
-102.09999999999991
 31
0.0
  0
LINE
  5
1C7
100
AcDbEntity
100
AcDbLine
  8
0
 62
256
370
-1
 48
1.0
  6
ByLayer
 10
299.59999999999997
 20
-102.09999999999991
 30
0.0
 11
306.00000000000006
 21
-102.09999999999991
 31
0.0
  0
LINE
  5
1C8
100
AcDbEntity
100
AcDbLine
  8
0
 62
256
370
-1
 48
1.0
  6
ByLayer
 10
306.00000000000011
 20
-111.79999999999954
 30
0.0
 11
306.00000000000006
 21
-145.71101153399309
 31
0.0
  0
LINE
  5
1C9
100
AcDbEntity
100
AcDbLine
  8
0
 62
256
370
-1
 48
1.0
  6
ByLayer
 10
306.00000000000006
 20
-145.71101153399309
 30
0.0
 11
83.200000000000131
 21
-149.59999999999991
 31
0.0
  0
LINE
  5
1CA
100
AcDbEntity
100
AcDbLine
  8
0
 62
256
370
-1
 48
1.0
  6
ByLayer
 10
83.200000000000088
 20
-102.09999999999985
 30
0.0
 11
89.600000000000108
 21
-102.09999999999991
 31
0.0
  0
LINE
  5
1CB
100
AcDbEntity
100
AcDbLine
  8
0
 62
256
370
-1
 48
1.0
  6
ByLayer
 10
89.600000000000108
 20
-102.09999999999991
 30
0.0
 11
89.600000000000023
 21
-77.099999999999909
 31
0.0
  0
LINE
  5
1CC
100
AcDbEntity
100
AcDbLine
  8
0
 62
256
370
-1
 48
1.0
  6
ByLayer
 10
89.600000000000023
 20
-77.099999999999909
 30
0.0
 11
83.200000000000045
 21
-77.099999999999909
 31
0.0
  0
LINE
  5
1CD
100
AcDbEntity
100
AcDbLine
  8
0
 62
256
370
-1
 48
1.0
  6
ByLayer
 10
83.200000000000045
 20
-77.099999999999909
 30
0.0
 11
83.200000000000045
 21
-27.099999999999909
 31
0.0
  0
LINE
  5
1CE
100
AcDbEntity
100
AcDbLine
  8
0
 62
256
370
-1
 48
1.0
  6
ByLayer
 10
83.200000000000045
 20
-27.099999999999909
 30
0.0
 11
89.600000000000023
 21
-27.099999999999852
 31
0.0
  0
LINE
  5
1CF
100
AcDbEntity
100
AcDbLine
  8
0
 62
256
370
-1
 48
1.0
  6
ByLayer
 10
89.600000000000023
 20
-27.099999999999852
 30
0.0
 11
89.600000000000023
 21
-2.0999999999999091
 31
0.0
  0
LINE
  5
1D0
100
AcDbEntity
100
AcDbLine
  8
0
 62
256
370
-1
 48
1.0
  6
ByLayer
 10
89.600000000000023
 20
-2.0999999999999091
 30
0.0
 11
83.200000000000045
 21
-2.0999999999999091
 31
0.0
  0
LINE
  5
1D1
100
AcDbEntity
100
AcDbLine
  8
0
 62
256
370
-1
 48
1.0
  6
ByLayer
 10
83.200000000000045
 20
-2.0999999999999091
 30
0.0
 11
83.20000000000006
 21
105.40000000000009
 31
0.0
  0
LINE
  5
1D2
100
AcDbEntity
100
AcDbLine
  8
0
 62
256
370
-1
 48
1.0
  6
ByLayer
 10
83.20000000000006
 20
105.40000000000009
 30
0.0
 11
306.00000000000006
 21
105.40000000000006
 31
0.0
  0
LINE
  5
1D3
100
AcDbEntity
100
AcDbLine
  8
0
 62
256
370
-1
 48
1.0
  6
ByLayer
 10
306.00000000000006
 20
-2.0999999999999091
 30
0.0
 11
299.60000000000008
 21
-2.0999999999999659
 31
0.0
  0
LINE
  5
1D4
100
AcDbEntity
100
AcDbLine
  8
0
 62
256
370
-1
 48
1.0
  6
ByLayer
 10
299.60000000000008
 20
-2.0999999999999659
 30
0.0
 11
299.59999999999997
 21
-27.100000000000023
 31
0.0
  0
LINE
  5
1D5
100
AcDbEntity
100
AcDbLine
  8
0
 62
256
370
-1
 48
1.0
  6
ByLayer
 10
174.60000000000008
 20
43.400000000000091
 30
0.0
 11
174.60000000000005
 21
49.800000000000097
 31
0.0
  0
LINE
  5
1D6
100
AcDbEntity
100
AcDbLine
  8
0
 62
256
370
-1
 48
1.0
  6
ByLayer
 10
174.60000000000005
 20
49.800000000000097
 30
0.0
 11
144.60000000000008
 21
49.800000000000125
 31
0.0
  0
LINE
  5
1D7
100
AcDbEntity
100
AcDbLine
  8
0
 62
256
370
-1
 48
1.0
  6
ByLayer
 10
144.60000000000008
 20
49.800000000000125
 30
0.0
 11
144.60000000000008
 21
43.400000000000091
 31
0.0
  0
LINE
  5
1D8
100
AcDbEntity
100
AcDbLine
  8
0
 62
256
370
-1
 48
1.0
  6
ByLayer
 10
144.60000000000008
 20
43.400000000000091
 30
0.0
 11
174.60000000000008
 21
43.400000000000091
 31
0.0
  0
LINE
  5
1D9
100
AcDbEntity
100
AcDbLine
  8
0
 62
256
370
-1
 48
1.0
  6
ByLayer
 10
174.60000000000022
 20
-134.5999999999998
 30
0.0
 11
174.60000000000022
 21
-128.19999999999982
 31
0.0
  0
LINE
  5
1DA
100
AcDbEntity
100
AcDbLine
  8
0
 62
256
370
-1
 48
1.0
  6
ByLayer
 10
174.60000000000022
 20
-128.19999999999982
 30
0.0
 11
144.60000000000022
 21
-128.19999999999982
 31
0.0
  0
LINE
  5
1DB
100
AcDbEntity
100
AcDbLine
  8
0
 62
256
370
-1
 48
1.0
  6
ByLayer
 10
144.60000000000022
 20
-128.19999999999982
 30
0.0
 11
144.60000000000022
 21
-134.5999999999998
 31
0.0
  0
LINE
  5
1DC
100
AcDbEntity
100
AcDbLine
  8
0
 62
256
370
-1
 48
1.0
  6
ByLayer
 10
144.60000000000022
 20
-134.5999999999998
 30
0.0
 11
174.60000000000022
 21
-134.5999999999998
 31
0.0
  0
LINE
  5
1DD
100
AcDbEntity
100
AcDbLine
  8
0
 62
256
370
-1
 48
1.0
  6
ByLayer
 10
96.0
 20
49.80000000000021
 30
0.0
 11
96.000000000000028
 21
59.800000000000182
 31
0.0
  0
LINE
  5
1DE
100
AcDbEntity
100
AcDbLine
  8
0
 62
256
370
-1
 48
1.0
  6
ByLayer
 10
96.000000000000028
 20
59.800000000000182
 30
0.0
 11
89.600000000000051
 21
59.800000000000182
 31
0.0
  0
LINE
  5
1DF
100
AcDbEntity
100
AcDbLine
  8
0
 62
256
370
-1
 48
1.0
  6
ByLayer
 10
89.600000000000051
 20
59.800000000000182
 30
0.0
 11
89.600000000000037
 21
49.800000000000239
 31
0.0
  0
LINE
  5
1E0
100
AcDbEntity
100
AcDbLine
  8
0
 62
256
370
-1
 48
1.0
  6
ByLayer
 10
89.600000000000037
 20
49.800000000000239
 30
0.0
 11
96.0
 21
49.80000000000021
 31
0.0
  0
LINE
  5
1E1
100
AcDbEntity
100
AcDbLine
  8
0
 62
256
370
-1
 48
1.0
  6
ByLayer
 10
299.60000000000008
 20
49.800000000000296
 30
0.0
 11
299.60000000000008
 21
59.800000000000239
 31
0.0
  0
LINE
  5
1E2
100
AcDbEntity
100
AcDbLine
  8
0
 62
256
370
-1
 48
1.0
  6
ByLayer
 10
299.60000000000008
 20
59.800000000000239
 30
0.0
 11
293.20000000000005
 21
59.80000000000021
 31
0.0
  0
LINE
  5
1E3
100
AcDbEntity
100
AcDbLine
  8
0
 62
256
370
-1
 48
1.0
  6
ByLayer
 10
293.20000000000005
 20
59.80000000000021
 30
0.0
 11
293.20000000000005
 21
49.800000000000296
 31
0.0
  0
LINE
  5
1E4
100
AcDbEntity
100
AcDbLine
  8
0
 62
256
370
-1
 48
1.0
  6
ByLayer
 10
293.20000000000005
 20
49.800000000000296
 30
0.0
 11
299.60000000000008
 21
49.800000000000296
 31
0.0
  0
LINE
  5
1E5
100
AcDbEntity
100
AcDbLine
  8
0
 62
256
370
-1
 48
1.0
  6
ByLayer
 10
244.60000000000014
 20
-134.5999999999998
 30
0.0
 11
244.60000000000002
 21
-128.19999999999982
 31
0.0
  0
LINE
  5
1E6
100
AcDbEntity
100
AcDbLine
  8
0
 62
256
370
-1
 48
1.0
  6
ByLayer
 10
244.60000000000002
 20
-128.19999999999982
 30
0.0
 11
214.60000000000011
 21
-128.19999999999982
 31
0.0
  0
LINE
  5
1E7
100
AcDbEntity
100
AcDbLine
  8
0
 62
256
370
-1
 48
1.0
  6
ByLayer
 10
214.60000000000011
 20
-128.19999999999982
 30
0.0
 11
214.60000000000011
 21
-134.5999999999998
 31
0.0
  0
LINE
  5
1E8
100
AcDbEntity
100
AcDbLine
  8
0
 62
256
370
-1
 48
1.0
  6
ByLayer
 10
214.60000000000011
 20
-134.5999999999998
 30
0.0
 11
244.60000000000014
 21
-134.5999999999998
 31
0.0
  0
ENDSEC
  0
SECTION
  2
OBJECTS
  0
DICTIONARY
  5
C
100
AcDbDictionary
280
0
281
1
  3
ACAD_GROUP
350
D
  3
ACAD_LAYOUT
350
1A
  3
ACAD_MLINESTYLE
350
17
  3
ACAD_PLOTSETTINGS
350
19
  3
ACAD_PLOTSTYLENAME
350
E
  3
AcDbVariableDictionary
350
1E9
  3
QCAD_OBJECTS
350
1EA
  0
DICTIONARY
  5
D
100
AcDbDictionary
280
0
281
1
  0
ACDBDICTIONARYWDFLT
  5
E
100
AcDbDictionary
281
1
  3
Normal
350
F
100
AcDbDictionaryWithDefault
340
F
  0
ACDBPLACEHOLDER
  5
F
  0
DICTIONARY
  5
17
100
AcDbDictionary
280
0
281
1
  3
Standard
350
18
  0
MLINESTYLE
  5
18
100
AcDbMlineStyle
  2
STANDARD
 70
0
  3

 62
256
 51
90.0
 52
90.0
 71
2
 49
0.5
 62
256
  6
BYLAYER
 49
-0.5
 62
256
  6
BYLAYER
  0
DICTIONARY
  5
19
100
AcDbDictionary
280
0
281
1
  0
DICTIONARY
  5
1A
100
AcDbDictionary
281
1
  3
Layout1
350
1E
  3
Layout2
350
26
  3
Model
350
22
  0
LAYOUT
  5
1E
100
AcDbPlotSettings
  1

  2
none_device
  4

  6

 40
0.0
 41
0.0
 42
0.0
 43
0.0
 44
0.0
 45
0.0
 46
0.0
 47
0.0
 48
0.0
 49
0.0
140
0.0
141
0.0
142
1.0
143
1.0
 70
688
 72
0
 73
0
 74
5
  7

 75
16
147
1.0
148
0.0
149
0.0
100
AcDbLayout
  1
Layout1
 70
1
 71
1
 10
0.0
 20
0.0
 11
420.0
 21
297.0
 12
0.0
 22
0.0
 32
0.0
 14
100000000000000000000.0
 24
100000000000000000000.0
 34
100000000000000000000.0
 15
-100000000000000000000.0
 25
-100000000000000000000.0
 35
-100000000000000000000.0
146
0.0
 13
0.0
 23
0.0
 33
0.0
 16
1.0
 26
0.0
 36
0.0
 17
0.0
 27
1.0
 37
0.0
 76
0
330
1B
  0
LAYOUT
  5
22
100
AcDbPlotSettings
  1

  2
none_device
  4

  6

 40
0.0
 41
0.0
 42
0.0
 43
0.0
 44
0.0
 45
0.0
 46
0.0
 47
0.0
 48
0.0
 49
0.0
140
0.0
141
0.0
142
1.0
143
1.0
 70
1712
 72
0
 73
0
 74
0
  7

 75
0
147
1.0
148
0.0
149
0.0
100
AcDbLayout
  1
Model
 70
1
 71
0
 10
0.0
 20
0.0
 11
12.0
 21
9.0
 12
0.0
 22
0.0
 32
0.0
 14
0.0
 24
0.0
 34
0.0
 15
0.0
 25
0.0
 35
0.0
146
0.0
 13
0.0
 23
0.0
 33
0.0
 16
1.0
 26
0.0
 36
0.0
 17
0.0
 27
1.0
 37
0.0
 76
0
330
1F
  0
LAYOUT
  5
26
100
AcDbPlotSettings
  1

  2
none_device
  4

  6

 40
0.0
 41
0.0
 42
0.0
 43
0.0
 44
0.0
 45
0.0
 46
0.0
 47
0.0
 48
0.0
 49
0.0
140
0.0
141
0.0
142
1.0
143
1.0
 70
688
 72
0
 73
0
 74
5
  7

 75
16
147
1.0
148
0.0
149
0.0
100
AcDbLayout
  1
Layout2
 70
1
 71
2
 10
0.0
 20
0.0
 11
12.0
 21
9.0
 12
0.0
 22
0.0
 32
0.0
 14
0.0
 24
0.0
 34
0.0
 15
0.0
 25
0.0
 35
0.0
146
0.0
 13
0.0
 23
0.0
 33
0.0
 16
1.0
 26
0.0
 36
0.0
 17
0.0
 27
1.0
 37
0.0
 76
0
330
23
  0
DICTIONARY
  5
1E9
100
AcDbDictionary
281
1
  3
DIMASSOC
350
1EC
  3
HIDETEXT
350
1EB
  0
DICTIONARYVAR
  5
1EB
100
DictionaryVariables
280
0
  1
2
  0
DICTIONARYVAR
  5
1EC
100
DictionaryVariables
280
0
  1
1
  0
DICTIONARY
  5
1EA
100
AcDbDictionary
281
1
  3
Grid/DisplayGrid00
350
1ED
  3
Grid/DisplayGrid01
350
1EE
  3
Grid/DisplayGrid02
350
1EF
  3
Grid/DisplayGrid03
350
1F0
  3
Grid/GridSpacingX00
350
1F1
  3
Grid/GridSpacingX01
350
1F2
  3
Grid/GridSpacingX02
350
1F3
  3
Grid/GridSpacingX03
350
1F4
  3
Grid/GridSpacingY00
350
1F5
  3
Grid/GridSpacingY01
350
1F6
  3
Grid/GridSpacingY02
350
1F7
  3
Grid/GridSpacingY03
350
1F8
  3
Grid/IsometricGrid00
350
1F9
  3
Grid/IsometricGrid01
350
1FA
  3
Grid/IsometricGrid02
350
1FB
  3
Grid/IsometricGrid03
350
1FC
  3
Grid/IsometricProjection00
350
1FD
  3
Grid/IsometricProjection01
350
1FE
  3
Grid/IsometricProjection02
350
1FF
  3
Grid/IsometricProjection03
350
200
  3
Grid/MetaGridSpacingX00
350
201
  3
Grid/MetaGridSpacingX01
350
202
  3
Grid/MetaGridSpacingX02
350
203
  3
Grid/MetaGridSpacingX03
350
204
  3
Grid/MetaGridSpacingY00
350
205
  3
Grid/MetaGridSpacingY01
350
206
  3
Grid/MetaGridSpacingY02
350
207
  3
Grid/MetaGridSpacingY03
350
208
  3
MultiPageSettings/Columns
350
209
  3
MultiPageSettings/GlueMarginsBottom
350
20A
  3
MultiPageSettings/GlueMarginsLeft
350
20B
  3
MultiPageSettings/GlueMarginsRight
350
20C
  3
MultiPageSettings/GlueMarginsTop
350
20D
  3
MultiPageSettings/PrintCropMarks
350
20E
  3
MultiPageSettings/Rows
350
20F
  3
PageSettings/OffsetX
350
210
  3
PageSettings/OffsetY
350
211
  3
PageSettings/PageOrientation
350
212
  3
PageSettings/PaperHeight
350
213
  3
PageSettings/PaperWidth
350
214
  3
PageSettings/Scale
350
215
  3
PageSettings/ShowPaperBorders
350
216
  3
UnitSettings/PaperUnit
350
217
  0
XRECORD
  5
1ED
330
1EA
100
AcDbXrecord
280
1
290
1
  0
XRECORD
  5
1EE
330
1EA
100
AcDbXrecord
280
1
290
1
  0
XRECORD
  5
1EF
330
1EA
100
AcDbXrecord
280
1
290
1
  0
XRECORD
  5
1F0
330
1EA
100
AcDbXrecord
280
1
290
1
  0
XRECORD
  5
1F1
330
1EA
100
AcDbXrecord
280
1
1000
auto
  0
XRECORD
  5
1F2
330
1EA
100
AcDbXrecord
280
1
1000
auto
  0
XRECORD
  5
1F3
330
1EA
100
AcDbXrecord
280
1
1000
auto
  0
XRECORD
  5
1F4
330
1EA
100
AcDbXrecord
280
1
1000
auto
  0
XRECORD
  5
1F5
330
1EA
100
AcDbXrecord
280
1
1000
auto
  0
XRECORD
  5
1F6
330
1EA
100
AcDbXrecord
280
1
1000
auto
  0
XRECORD
  5
1F7
330
1EA
100
AcDbXrecord
280
1
1000
auto
  0
XRECORD
  5
1F8
330
1EA
100
AcDbXrecord
280
1
1000
auto
  0
XRECORD
  5
1F9
330
1EA
100
AcDbXrecord
280
1
290
0
  0
XRECORD
  5
1FA
330
1EA
100
AcDbXrecord
280
1
290
0
  0
XRECORD
  5
1FB
330
1EA
100
AcDbXrecord
280
1
290
0
  0
XRECORD
  5
1FC
330
1EA
100
AcDbXrecord
280
1
290
0
  0
XRECORD
  5
1FD
330
1EA
100
AcDbXrecord
280
1
 90
0
  0
XRECORD
  5
1FE
330
1EA
100
AcDbXrecord
280
1
 90
0
  0
XRECORD
  5
1FF
330
1EA
100
AcDbXrecord
280
1
 90
0
  0
XRECORD
  5
200
330
1EA
100
AcDbXrecord
280
1
 90
0
  0
XRECORD
  5
201
330
1EA
100
AcDbXrecord
280
1
1000
auto
  0
XRECORD
  5
202
330
1EA
100
AcDbXrecord
280
1
1000
auto
  0
XRECORD
  5
203
330
1EA
100
AcDbXrecord
280
1
1000
auto
  0
XRECORD
  5
204
330
1EA
100
AcDbXrecord
280
1
1000
auto
  0
XRECORD
  5
205
330
1EA
100
AcDbXrecord
280
1
1000
auto
  0
XRECORD
  5
206
330
1EA
100
AcDbXrecord
280
1
1000
auto
  0
XRECORD
  5
207
330
1EA
100
AcDbXrecord
280
1
1000
auto
  0
XRECORD
  5
208
330
1EA
100
AcDbXrecord
280
1
1000
auto
  0
XRECORD
  5
209
330
1EA
100
AcDbXrecord
280
1
 90
1
  0
XRECORD
  5
20A
330
1EA
100
AcDbXrecord
280
1
 40
10.0
  0
XRECORD
  5
20B
330
1EA
100
AcDbXrecord
280
1
 40
10.0
  0
XRECORD
  5
20C
330
1EA
100
AcDbXrecord
280
1
 40
10.0
  0
XRECORD
  5
20D
330
1EA
100
AcDbXrecord
280
1
 40
10.0
  0
XRECORD
  5
20E
330
1EA
100
AcDbXrecord
280
1
290
0
  0
XRECORD
  5
20F
330
1EA
100
AcDbXrecord
280
1
 90
1
  0
XRECORD
  5
210
330
1EA
100
AcDbXrecord
280
1
 40
0.0
  0
XRECORD
  5
211
330
1EA
100
AcDbXrecord
280
1
 40
0.0
  0
XRECORD
  5
212
330
1EA
100
AcDbXrecord
280
1
1000
Portrait
  0
XRECORD
  5
213
330
1EA
100
AcDbXrecord
280
1
 40
297.0
  0
XRECORD
  5
214
330
1EA
100
AcDbXrecord
280
1
 40
210.0
  0
XRECORD
  5
215
330
1EA
100
AcDbXrecord
280
1
1000
1:1
  0
XRECORD
  5
216
330
1EA
100
AcDbXrecord
280
1
290
1
  0
XRECORD
  5
217
330
1EA
100
AcDbXrecord
280
1
 90
4
  0
ENDSEC
  0
EOF
