<?xml version="1.0" encoding="UTF-8" standalone="no"?>
<!-- Created with Inkscape (http://www.inkscape.org/) -->

<svg
   xmlns:dc="http://purl.org/dc/elements/1.1/"
   xmlns:cc="http://creativecommons.org/ns#"
   xmlns:rdf="http://www.w3.org/1999/02/22-rdf-syntax-ns#"
   xmlns:svg="http://www.w3.org/2000/svg"
   xmlns="http://www.w3.org/2000/svg"
   xmlns:sodipodi="http://sodipodi.sourceforge.net/DTD/sodipodi-0.dtd"
   xmlns:inkscape="http://www.inkscape.org/namespaces/inkscape"
   width="181mm"
   height="181mm"
   viewBox="0 0 641.33858 641.33858"
   id="svg2"
   version="1.1"
   inkscape:version="0.92.1 r15371"
   sodipodi:docname="clear_acrylic.svg">
  <defs
     id="defs4">
    <marker
       orient="auto"
       id="DistanceX"
       style="overflow:visible"
       refX="0.0"
       refY="0.0">
      <path
         id="path4143"
         d="M 3,-3 L -3,3 M 0,-5 L  0,5"
         style="stroke:#000000; stroke-width:0.5" />
    </marker>
    <pattern
       id="Hatch"
       x="0"
       y="0"
       patternUnits="userSpaceOnUse"
       width="8"
       height="8">
      <path
         id="path4146"
         d="M8 4 l-4,4"
         stroke-width="0.25"
         stroke="#000000"
         linecap="square" />
      <path
         id="path4148"
         d="M6 2 l-4,4"
         stroke-width="0.25"
         stroke="#000000"
         linecap="square" />
      <path
         id="path4150"
         d="M4 0 l-4,4"
         stroke-width="0.25"
         stroke="#000000"
         linecap="square" />
    </pattern>
    <symbol
       id="*Model_Space" />
    <symbol
       id="*Paper_Space" />
    <symbol
       id="*Paper_Space0" />
    <symbol
       id="carrier_tray">
      <path
         id="path4156"
         d="M -311.368110,437.598425 A 9.301181,9.301181 -0.000000 1 0 -329.970472,437.598425 9.301181,9.301181 -0.000000 1 0 -311.368110,437.598425 z"
         style="stroke:#000000;fill:none;stroke-linecap: round" />
      <path
         id="path4158"
         d="M -535.039370,499.606299 A 17.716535,17.716535 -0.000000 1 0 -570.472441,499.606299 17.716535,17.716535 -0.000000 1 0 -535.039370,499.606299 z"
         style="stroke:#000000;fill:none;stroke-linecap: round" />
      <path
         id="path4160"
         d="M -641.338583,1052.362205 L 0.000000,1052.362205 L -0.000000,411.023622 L -641.338583,411.023622 L -641.338583,1052.362205 z"
         style="stroke:#000000;fill:none;stroke-linecap: round" />
      <path
         id="path4162"
         d="M -17.273622,437.598425 A 9.301181,9.301181 -0.000000 1 0 -35.875984,437.598425 9.301181,9.301181 -0.000000 1 0 -17.273622,437.598425 z"
         style="stroke:#000000;fill:none;stroke-linecap: round" />
      <path
         id="path4164"
         d="M -605.462598,437.598425 A 9.301181,9.301181 -0.000000 1 0 -624.064961,437.598425 9.301181,9.301181 -0.000000 1 0 -605.462598,437.598425 z"
         style="stroke:#000000;fill:none;stroke-linecap: round" />
      <path
         id="path4166"
         d="M -605.462598,731.692913 A 9.301181,9.301181 -0.000000 1 0 -624.064961,731.692913 9.301181,9.301181 -0.000000 1 0 -605.462598,731.692913 z"
         style="stroke:#000000;fill:none;stroke-linecap: round" />
      <path
         id="path4168"
         d="M -311.368110,1025.787402 A 9.301181,9.301181 -0.000000 1 0 -329.970472,1025.787402 9.301181,9.301181 -0.000000 1 0 -311.368110,1025.787402 z"
         style="stroke:#000000;fill:none;stroke-linecap: round" />
      <path
         id="path4170"
         d="M -605.462598,1025.787402 A 9.301181,9.301181 -0.000000 1 0 -624.064961,1025.787402 9.301181,9.301181 -0.000000 1 0 -605.462598,1025.787402 z"
         style="stroke:#000000;fill:none;stroke-linecap: round" />
      <path
         id="path4172"
         d="M -17.273622,1025.787402 A 9.301181,9.301181 -0.000000 1 0 -35.875984,1025.787402 9.301181,9.301181 -0.000000 1 0 -17.273622,1025.787402 z"
         style="stroke:#000000;fill:none;stroke-linecap: round" />
      <path
         id="path4174"
         d="M -17.273622,731.692913 A 9.301181,9.301181 -0.000000 1 0 -35.875984,731.692913 9.301181,9.301181 -0.000000 1 0 -17.273622,731.692913 z"
         style="stroke:#000000;fill:none;stroke-linecap: round" />
    </symbol>
    <marker
       orient="auto"
       id="DistanceX-8"
       style="overflow:visible"
       refX="0.0"
       refY="0.0">
      <path
         id="path4234"
         d="M 3,-3 L -3,3 M 0,-5 L  0,5"
         style="stroke:#000000; stroke-width:0.5" />
    </marker>
    <pattern
       id="Hatch-4"
       x="0"
       y="0"
       patternUnits="userSpaceOnUse"
       width="8"
       height="8">
      <path
         id="path4237"
         d="M8 4 l-4,4"
         stroke-width="0.25"
         stroke="#000000"
         linecap="square" />
      <path
         id="path4239"
         d="M6 2 l-4,4"
         stroke-width="0.25"
         stroke="#000000"
         linecap="square" />
      <path
         id="path4241"
         d="M4 0 l-4,4"
         stroke-width="0.25"
         stroke="#000000"
         linecap="square" />
    </pattern>
    <symbol
       id="*Model_Space-2" />
    <symbol
       id="*Paper_Space-7" />
    <symbol
       id="*Paper_Space0-9" />
    <symbol
       id="carrier_tray-4">
      <path
         id="path4247"
         d="M -311.368110,437.598425 A 9.301181,9.301181 -0.000000 1 0 -329.970472,437.598425 9.301181,9.301181 -0.000000 1 0 -311.368110,437.598425 z"
         style="stroke:#000000;fill:none;stroke-linecap: round" />
      <path
         id="path4249"
         d="M -535.039370,499.606299 A 17.716535,17.716535 -0.000000 1 0 -570.472441,499.606299 17.716535,17.716535 -0.000000 1 0 -535.039370,499.606299 z"
         style="stroke:#000000;fill:none;stroke-linecap: round" />
      <path
         id="path4251"
         d="M -641.338583,1052.362205 L 0.000000,1052.362205 L -0.000000,411.023622 L -641.338583,411.023622 L -641.338583,1052.362205 z"
         style="stroke:#000000;fill:none;stroke-linecap: round" />
      <path
         id="path4253"
         d="M -17.273622,437.598425 A 9.301181,9.301181 -0.000000 1 0 -35.875984,437.598425 9.301181,9.301181 -0.000000 1 0 -17.273622,437.598425 z"
         style="stroke:#000000;fill:none;stroke-linecap: round" />
      <path
         id="path4255"
         d="M -605.462598,437.598425 A 9.301181,9.301181 -0.000000 1 0 -624.064961,437.598425 9.301181,9.301181 -0.000000 1 0 -605.462598,437.598425 z"
         style="stroke:#000000;fill:none;stroke-linecap: round" />
      <path
         id="path4257"
         d="M -605.462598,731.692913 A 9.301181,9.301181 -0.000000 1 0 -624.064961,731.692913 9.301181,9.301181 -0.000000 1 0 -605.462598,731.692913 z"
         style="stroke:#000000;fill:none;stroke-linecap: round" />
      <path
         id="path4259"
         d="M -311.368110,1025.787402 A 9.301181,9.301181 -0.000000 1 0 -329.970472,1025.787402 9.301181,9.301181 -0.000000 1 0 -311.368110,1025.787402 z"
         style="stroke:#000000;fill:none;stroke-linecap: round" />
      <path
         id="path4261"
         d="M -605.462598,1025.787402 A 9.301181,9.301181 -0.000000 1 0 -624.064961,1025.787402 9.301181,9.301181 -0.000000 1 0 -605.462598,1025.787402 z"
         style="stroke:#000000;fill:none;stroke-linecap: round" />
      <path
         id="path4263"
         d="M -17.273622,1025.787402 A 9.301181,9.301181 -0.000000 1 0 -35.875984,1025.787402 9.301181,9.301181 -0.000000 1 0 -17.273622,1025.787402 z"
         style="stroke:#000000;fill:none;stroke-linecap: round" />
      <path
         id="path4265"
         d="M -17.273622,731.692913 A 9.301181,9.301181 -0.000000 1 0 -35.875984,731.692913 9.301181,9.301181 -0.000000 1 0 -17.273622,731.692913 z"
         style="stroke:#000000;fill:none;stroke-linecap: round" />
    </symbol>
    <marker
       orient="auto"
       id="DistanceX-1"
       style="overflow:visible"
       refX="0.0"
       refY="0.0">
      <path
         id="path4201"
         d="M 3,-3 L -3,3 M 0,-5 L  0,5"
         style="stroke:#000000; stroke-width:0.5" />
    </marker>
    <pattern
       id="Hatch-7"
       x="0"
       y="0"
       patternUnits="userSpaceOnUse"
       width="8"
       height="8">
      <path
         id="path4204"
         d="M8 4 l-4,4"
         stroke-width="0.25"
         stroke="#000000"
         linecap="square" />
      <path
         id="path4206"
         d="M6 2 l-4,4"
         stroke-width="0.25"
         stroke="#000000"
         linecap="square" />
      <path
         id="path4208"
         d="M4 0 l-4,4"
         stroke-width="0.25"
         stroke="#000000"
         linecap="square" />
    </pattern>
    <symbol
       id="*Model_Space-0" />
    <symbol
       id="*Paper_Space-73" />
    <symbol
       id="*Paper_Space0-3" />
    <marker
       refY="0.0"
       refX="0.0"
       style="overflow:visible"
       id="DistanceX-6"
       orient="auto">
      <path
         style="stroke:#000000; stroke-width:0.5"
         d="M 3,-3 L -3,3 M 0,-5 L  0,5"
         id="path4143-1" />
    </marker>
    <pattern
       height="8"
       width="8"
       patternUnits="userSpaceOnUse"
       y="0"
       x="0"
       id="Hatch-8">
      <path
         linecap="square"
         stroke="#000000"
         stroke-width="0.25"
         d="M8 4 l-4,4"
         id="path4146-2" />
      <path
         linecap="square"
         stroke="#000000"
         stroke-width="0.25"
         d="M6 2 l-4,4"
         id="path4148-1" />
      <path
         linecap="square"
         stroke="#000000"
         stroke-width="0.25"
         d="M4 0 l-4,4"
         id="path4150-3" />
    </pattern>
    <symbol
       id="*Model_Space-1" />
    <symbol
       id="*Paper_Space-4" />
    <symbol
       id="*Paper_Space0-5" />
    <symbol
       id="carrier_tray-8">
      <path
         style="stroke:#000000;fill:none;stroke-linecap: round"
         d="M -311.368110,437.598425 A 9.301181,9.301181 -0.000000 1 0 -329.970472,437.598425 9.301181,9.301181 -0.000000 1 0 -311.368110,437.598425 z"
         id="path4156-1" />
      <path
         style="stroke:#000000;fill:none;stroke-linecap: round"
         d="M -535.039370,499.606299 A 17.716535,17.716535 -0.000000 1 0 -570.472441,499.606299 17.716535,17.716535 -0.000000 1 0 -535.039370,499.606299 z"
         id="path4158-3" />
      <path
         style="stroke:#000000;fill:none;stroke-linecap: round"
         d="M -641.338583,1052.362205 L 0.000000,1052.362205 L -0.000000,411.023622 L -641.338583,411.023622 L -641.338583,1052.362205 z"
         id="path4160-4" />
      <path
         style="stroke:#000000;fill:none;stroke-linecap: round"
         d="M -17.273622,437.598425 A 9.301181,9.301181 -0.000000 1 0 -35.875984,437.598425 9.301181,9.301181 -0.000000 1 0 -17.273622,437.598425 z"
         id="path4162-3" />
      <path
         style="stroke:#000000;fill:none;stroke-linecap: round"
         d="M -605.462598,437.598425 A 9.301181,9.301181 -0.000000 1 0 -624.064961,437.598425 9.301181,9.301181 -0.000000 1 0 -605.462598,437.598425 z"
         id="path4164-8" />
      <path
         style="stroke:#000000;fill:none;stroke-linecap: round"
         d="M -605.462598,731.692913 A 9.301181,9.301181 -0.000000 1 0 -624.064961,731.692913 9.301181,9.301181 -0.000000 1 0 -605.462598,731.692913 z"
         id="path4166-7" />
      <path
         style="stroke:#000000;fill:none;stroke-linecap: round"
         d="M -311.368110,1025.787402 A 9.301181,9.301181 -0.000000 1 0 -329.970472,1025.787402 9.301181,9.301181 -0.000000 1 0 -311.368110,1025.787402 z"
         id="path4168-5" />
      <path
         style="stroke:#000000;fill:none;stroke-linecap: round"
         d="M -605.462598,1025.787402 A 9.301181,9.301181 -0.000000 1 0 -624.064961,1025.787402 9.301181,9.301181 -0.000000 1 0 -605.462598,1025.787402 z"
         id="path4170-6" />
      <path
         style="stroke:#000000;fill:none;stroke-linecap: round"
         d="M -17.273622,1025.787402 A 9.301181,9.301181 -0.000000 1 0 -35.875984,1025.787402 9.301181,9.301181 -0.000000 1 0 -17.273622,1025.787402 z"
         id="path4172-4" />
      <path
         style="stroke:#000000;fill:none;stroke-linecap: round"
         d="M -17.273622,731.692913 A 9.301181,9.301181 -0.000000 1 0 -35.875984,731.692913 9.301181,9.301181 -0.000000 1 0 -17.273622,731.692913 z"
         id="path4174-6" />
    </symbol>
    <marker
       refY="0.0"
       refX="0.0"
       style="overflow:visible"
       id="DistanceX-8-3"
       orient="auto">
      <path
         style="stroke:#000000; stroke-width:0.5"
         d="M 3,-3 L -3,3 M 0,-5 L  0,5"
         id="path4234-1" />
    </marker>
    <pattern
       height="8"
       width="8"
       patternUnits="userSpaceOnUse"
       y="0"
       x="0"
       id="Hatch-4-9">
      <path
         linecap="square"
         stroke="#000000"
         stroke-width="0.25"
         d="M8 4 l-4,4"
         id="path4237-1" />
      <path
         linecap="square"
         stroke="#000000"
         stroke-width="0.25"
         d="M6 2 l-4,4"
         id="path4239-7" />
      <path
         linecap="square"
         stroke="#000000"
         stroke-width="0.25"
         d="M4 0 l-4,4"
         id="path4241-4" />
    </pattern>
    <symbol
       id="*Model_Space-2-2" />
    <symbol
       id="*Paper_Space-7-6" />
    <symbol
       id="*Paper_Space0-9-3" />
    <symbol
       id="carrier_tray-4-7">
      <path
         style="stroke:#000000;fill:none;stroke-linecap: round"
         d="M -311.368110,437.598425 A 9.301181,9.301181 -0.000000 1 0 -329.970472,437.598425 9.301181,9.301181 -0.000000 1 0 -311.368110,437.598425 z"
         id="path4247-4" />
      <path
         style="stroke:#000000;fill:none;stroke-linecap: round"
         d="M -535.039370,499.606299 A 17.716535,17.716535 -0.000000 1 0 -570.472441,499.606299 17.716535,17.716535 -0.000000 1 0 -535.039370,499.606299 z"
         id="path4249-7" />
      <path
         style="stroke:#000000;fill:none;stroke-linecap: round"
         d="M -641.338583,1052.362205 L 0.000000,1052.362205 L -0.000000,411.023622 L -641.338583,411.023622 L -641.338583,1052.362205 z"
         id="path4251-7" />
      <path
         style="stroke:#000000;fill:none;stroke-linecap: round"
         d="M -17.273622,437.598425 A 9.301181,9.301181 -0.000000 1 0 -35.875984,437.598425 9.301181,9.301181 -0.000000 1 0 -17.273622,437.598425 z"
         id="path4253-9" />
      <path
         style="stroke:#000000;fill:none;stroke-linecap: round"
         d="M -605.462598,437.598425 A 9.301181,9.301181 -0.000000 1 0 -624.064961,437.598425 9.301181,9.301181 -0.000000 1 0 -605.462598,437.598425 z"
         id="path4255-3" />
      <path
         style="stroke:#000000;fill:none;stroke-linecap: round"
         d="M -605.462598,731.692913 A 9.301181,9.301181 -0.000000 1 0 -624.064961,731.692913 9.301181,9.301181 -0.000000 1 0 -605.462598,731.692913 z"
         id="path4257-2" />
      <path
         style="stroke:#000000;fill:none;stroke-linecap: round"
         d="M -311.368110,1025.787402 A 9.301181,9.301181 -0.000000 1 0 -329.970472,1025.787402 9.301181,9.301181 -0.000000 1 0 -311.368110,1025.787402 z"
         id="path4259-3" />
      <path
         style="stroke:#000000;fill:none;stroke-linecap: round"
         d="M -605.462598,1025.787402 A 9.301181,9.301181 -0.000000 1 0 -624.064961,1025.787402 9.301181,9.301181 -0.000000 1 0 -605.462598,1025.787402 z"
         id="path4261-2" />
      <path
         style="stroke:#000000;fill:none;stroke-linecap: round"
         d="M -17.273622,1025.787402 A 9.301181,9.301181 -0.000000 1 0 -35.875984,1025.787402 9.301181,9.301181 -0.000000 1 0 -17.273622,1025.787402 z"
         id="path4263-7" />
      <path
         style="stroke:#000000;fill:none;stroke-linecap: round"
         d="M -17.273622,731.692913 A 9.301181,9.301181 -0.000000 1 0 -35.875984,731.692913 9.301181,9.301181 -0.000000 1 0 -17.273622,731.692913 z"
         id="path4265-2" />
    </symbol>
    <marker
       refY="0.0"
       refX="0.0"
       style="overflow:visible"
       id="DistanceX-1-0"
       orient="auto">
      <path
         style="stroke:#000000; stroke-width:0.5"
         d="M 3,-3 L -3,3 M 0,-5 L  0,5"
         id="path4201-5" />
    </marker>
    <pattern
       height="8"
       width="8"
       patternUnits="userSpaceOnUse"
       y="0"
       x="0"
       id="Hatch-7-8">
      <path
         linecap="square"
         stroke="#000000"
         stroke-width="0.25"
         d="M8 4 l-4,4"
         id="path4204-0" />
      <path
         linecap="square"
         stroke="#000000"
         stroke-width="0.25"
         d="M6 2 l-4,4"
         id="path4206-4" />
      <path
         linecap="square"
         stroke="#000000"
         stroke-width="0.25"
         d="M4 0 l-4,4"
         id="path4208-0" />
    </pattern>
    <symbol
       id="*Model_Space-0-1" />
    <symbol
       id="*Paper_Space-73-3" />
    <symbol
       id="*Paper_Space0-3-3" />
    <marker
       orient="auto"
       id="DistanceX-4"
       style="overflow:visible"
       refX="0.0"
       refY="0.0">
      <path
         id="path15781"
         d="M 3,-3 L -3,3 M 0,-5 L  0,5"
         style="stroke:#000000; stroke-width:0.5" />
    </marker>
    <pattern
       id="Hatch-0"
       x="0"
       y="0"
       patternUnits="userSpaceOnUse"
       width="8"
       height="8">
      <path
         id="path15784"
         d="M8 4 l-4,4"
         stroke-width="0.25"
         stroke="#000000"
         linecap="square" />
      <path
         id="path15786"
         d="M6 2 l-4,4"
         stroke-width="0.25"
         stroke="#000000"
         linecap="square" />
      <path
         id="path15788"
         d="M4 0 l-4,4"
         stroke-width="0.25"
         stroke="#000000"
         linecap="square" />
    </pattern>
    <symbol
       id="*Model_Space-9" />
    <symbol
       id="*Paper_Space-77" />
    <symbol
       id="*Paper_Space0-0" />
    <marker
       style="overflow:visible"
       refY="0.0"
       refX="0.0"
       orient="auto"
       id="DistanceX-84">
      <path
         id="path4655"
         style="stroke:#000000; stroke-width:0.5"
         d="M 3,-3 L -3,3 M 0,-5 L  0,5" />
    </marker>
    <pattern
       y="0"
       x="0"
       width="8"
       patternUnits="userSpaceOnUse"
       id="Hatch-02"
       height="8">
      <path
         id="path4658"
         stroke-width="0.25"
         stroke="#000000"
         linecap="square"
         d="M8 4 l-4,4" />
      <path
         id="path4660"
         stroke-width="0.25"
         stroke="#000000"
         linecap="square"
         d="M6 2 l-4,4" />
      <path
         id="path4662"
         stroke-width="0.25"
         stroke="#000000"
         linecap="square"
         d="M4 0 l-4,4" />
    </pattern>
    <symbol
       id="*Model_Space-5" />
    <symbol
       id="*Paper_Space-44" />
    <symbol
       id="*Paper_Space0-32" />
    <symbol
       id="inner_tray_clear">
      <path
         id="path4668"
         style="stroke:#000000;fill:none;stroke-linecap: round"
         d="M -170.078740,914.645669 A 37.795276,37.795276 0.0 0 0 -207.874016,952.440945 L -207.874016,1292.598425 A 37.795276,37.795276 0.0 0 0 -170.078740,1330.393701 L 170.078740,1330.393701 A 37.795276,37.795276 0.0 0 0 207.874016,1292.598425 L 207.874016,952.440945 A 37.795276,37.795276 0.0 0 0 170.078740,914.645669 L -170.078740,914.645669 z" />
    </symbol>
    <marker
       style="overflow:visible"
       refY="0.0"
       refX="0.0"
       orient="auto"
       id="DistanceX-7">
      <path
         id="path4747"
         style="stroke:#000000; stroke-width:0.5"
         d="M 3,-3 L -3,3 M 0,-5 L  0,5" />
    </marker>
    <pattern
       y="0"
       x="0"
       width="8"
       patternUnits="userSpaceOnUse"
       id="Hatch-024"
       height="8">
      <path
         id="path4750"
         stroke-width="0.25"
         stroke="#000000"
         linecap="square"
         d="M8 4 l-4,4" />
      <path
         id="path4752"
         stroke-width="0.25"
         stroke="#000000"
         linecap="square"
         d="M6 2 l-4,4" />
      <path
         id="path4754"
         stroke-width="0.25"
         stroke="#000000"
         linecap="square"
         d="M4 0 l-4,4" />
    </pattern>
    <symbol
       id="*Model_Space-8" />
    <symbol
       id="*Paper_Space-0" />
    <symbol
       id="*Paper_Space0-326" />
    <symbol
       id="inner_tray_clear-4">
      <path
         id="path4760"
         style="stroke:#000000;fill:none;stroke-linecap: round"
         d="M -170.078740,914.645669 A 37.795276,37.795276 0.0 0 0 -207.874016,952.440945 L -207.874016,1292.598425 A 37.795276,37.795276 0.0 0 0 -170.078740,1330.393701 L 170.078740,1330.393701 A 37.795276,37.795276 0.0 0 0 207.874016,1292.598425 L 207.874016,952.440945 A 37.795276,37.795276 0.0 0 0 170.078740,914.645669 L -170.078740,914.645669 z" />
    </symbol>
    <marker
       style="overflow:visible"
       refY="0.0"
       refX="0.0"
       orient="auto"
       id="DistanceX-0">
      <path
         id="path4845"
         style="stroke:#000000; stroke-width:0.5"
         d="M 3,-3 L -3,3 M 0,-5 L  0,5" />
    </marker>
    <pattern
       y="0"
       x="0"
       width="8"
       patternUnits="userSpaceOnUse"
       id="Hatch-43"
       height="8">
      <path
         id="path4848"
         stroke-width="0.25"
         stroke="#000000"
         linecap="square"
         d="M8 4 l-4,4" />
      <path
         id="path4850"
         stroke-width="0.25"
         stroke="#000000"
         linecap="square"
         d="M6 2 l-4,4" />
      <path
         id="path4852"
         stroke-width="0.25"
         stroke="#000000"
         linecap="square"
         d="M4 0 l-4,4" />
    </pattern>
    <symbol
       id="*Model_Space-3" />
    <symbol
       id="*Paper_Space-42" />
    <symbol
       id="*Paper_Space0-06" />
    <symbol
       id="inner_tray_clear-7">
      <path
         id="path4858"
         style="stroke:#000000;fill:none;stroke-linecap: round"
         d="M -170.078740,914.645669 A 37.795276,37.795276 0.0 0 0 -207.874016,952.440945 L -207.874016,1292.598425 A 37.795276,37.795276 0.0 0 0 -170.078740,1330.393701 L 170.078740,1330.393701 A 37.795276,37.795276 0.0 0 0 207.874016,1292.598425 L 207.874016,952.440945 A 37.795276,37.795276 0.0 0 0 170.078740,914.645669 L -170.078740,914.645669 z" />
    </symbol>
  </defs>
  <sodipodi:namedview
     id="base"
     pagecolor="#ffffff"
     bordercolor="#666666"
     borderopacity="1.0"
     inkscape:pageopacity="0.0"
     inkscape:pageshadow="2"
     inkscape:zoom="0.5625"
     inkscape:cx="362.04186"
     inkscape:cy="356.72108"
     inkscape:document-units="px"
     inkscape:current-layer="layer1"
     showgrid="false"
     inkscape:window-width="1366"
     inkscape:window-height="706"
     inkscape:window-x="-8"
     inkscape:window-y="-8"
     inkscape:window-maximized="1" />
  <metadata
     id="metadata7">
    <rdf:RDF>
      <cc:Work
         rdf:about="">
        <dc:format>image/svg+xml</dc:format>
        <dc:type
           rdf:resource="http://purl.org/dc/dcmitype/StillImage" />
        <dc:title />
      </cc:Work>
    </rdf:RDF>
  </metadata>
  <g
     inkscape:label="Layer 1"
     inkscape:groupmode="layer"
     id="layer1"
     transform="translate(0,-411.02362)">
    <path
       inkscape:connector-curvature="0"
       d="m 157.21785,522.48032 a 35.433071,35.433071 0 0 0 -35.43307,35.43307 V 876.811 a 35.433071,35.433071 0 0 0 35.43307,35.43309 H 476.11549 A 35.433071,35.433071 0 0 0 511.54856,876.811 V 557.91339 a 35.433071,35.433071 0 0 0 -35.43307,-35.43307 z"
       style="fill:none;stroke:#0000ff;stroke-width:0.03543308;stroke-linecap:round;stroke-opacity:1;stroke-miterlimit:4;stroke-dasharray:none"
       id="path4863" />
  </g>
</svg>
