999
dxflib 3.7.5.0
  0
SECTION
  2
HEADER
  9
$ACADVER
  1
AC1015
  9
$HANDSEED
  5
FFFF
  9
$ANGBASE
 50
0.0
  9
$ATTMODE
 70
1
  9
$AUNITS
 70
0
  9
$AUPREC
 70
0
  9
$CELTSCALE
 40
1.0
  9
$CHAMFERA
 40
0.0
  9
$CHAMFERB
 40
0.0
  9
$CHAMFERC
 40
0.0
  9
$CHAMFERD
 40
0.0
  9
$CMLJUST
 70
0
  9
$CMLSCALE
 40
1.0
  9
$DIMADEC
 70
0
  9
$DIMALTD
 70
2
  9
$DIMALTF
 40
25.399999999999999
  9
$DIMALTRND
 40
0.0
  9
$DIMALTTD
 70
2
  9
$DIMALTTZ
 70
0
  9
$DIMALTU
 70
2
  9
$DIMALTZ
 70
0
  9
$DIMAPOST
  1

  9
$DIMASZ
 40
2.5
  9
$DIMATFIT
 70
3
  9
$DIMAUNIT
 70
0
  9
$DIMAZIN
 70
2
  9
$DIMCEN
 40
0.09
  9
$DIMDEC
 70
4
  9
$DIMDLE
 40
0.0
  9
$DIMDLI
 40
0.38
  9
$DIMDSEP
 70
46
  9
$DIMEXE
 40
1.25
  9
$DIMEXO
 40
0.625
  9
$DIMFRAC
 70
0
  9
$DIMGAP
 40
0.625
  9
$DIMJUST
 70
0
  9
$DIMLFAC
 40
1.0
  9
$DIMLUNIT
 70
2
  9
$DIMLWD
 70
-2
  9
$DIMLWE
 70
-2
  9
$DIMPOST
  1

  9
$DIMRND
 40
0.0
  9
$DIMSCALE
 40
1.0
  9
$DIMTAD
 70
0
  9
$DIMTDEC
 70
4
  9
$DIMTFAC
 40
1.0
  9
$DIMTM
 40
0.0
  9
$DIMTOLJ
 70
1
  9
$DIMTP
 40
0.0
  9
$DIMTSZ
 40
0.0
  9
$DIMTVP
 40
0.0
  9
$DIMTXT
 40
2.5
  9
$DIMTZIN
 70
0
  9
$DIMZIN
 70
8
  9
$DWGCODEPAGE
  3
ANSI_1252
  9
$ELEVATION
 40
0.0
  9
$EXTMAX
 10
-100000000000000000000.0
 20
-100000000000000000000.0
 30
-100000000000000000000.0
  9
$EXTMIN
 10
100000000000000000000.0
 20
100000000000000000000.0
 30
100000000000000000000.0
  9
$FILLETRAD
 40
0.5
  9
$INSBASE
 10
0.0
 20
0.0
 30
0.0
  9
$INSUNITS
 70
4
  9
$LIMMAX
 10
12.0
 20
9.0
  9
$LIMMIN
 10
0.0
 20
0.0
  9
$LTSCALE
 40
1.0
  9
$LUNITS
 70
2
  9
$LUPREC
 70
4
  9
$MAXACTVP
 70
2
  9
$PDMODE
 70
0
  9
$PDSIZE
 40
0.0
  9
$PELEVATION
 40
0.0
  9
$PEXTMAX
 10
-100000000000000000000.0
 20
-100000000000000000000.0
 30
-100000000000000000000.0
  9
$PEXTMIN
 10
100000000000000000000.0
 20
100000000000000000000.0
 30
100000000000000000000.0
  9
$PINSBASE
 10
0.0
 20
0.0
 30
0.0
  9
$PLIMMAX
 10
12.0
 20
9.0
  9
$PLIMMIN
 10
0.0
 20
0.0
  9
$PLINEWID
 40
0.0
  9
$PROXYGRAPHICS
 70
1
  9
$PUCSORG
 10
0.0
 20
0.0
 30
0.0
  9
$PUCSXDIR
 10
1.0
 20
0.0
 30
0.0
  9
$PUCSYDIR
 10
0.0
 20
1.0
 30
0.0
  9
$SHADEDGE
 70
3
  9
$SHADEDIF
 70
70
  9
$SKETCHINC
 40
0.1
  9
$SPLINESEGS
 70
8
  9
$SPLINETYPE
 70
6
  9
$SURFTAB1
 70
6
  9
$SURFTAB2
 70
6
  9
$SURFTYPE
 70
6
  9
$SURFU
 70
6
  9
$SURFV
 70
6
  9
$TEXTSIZE
 40
2.5
  9
$THICKNESS
 40
0.0
  9
$TRACEWID
 40
0.05
  9
$TREEDEPTH
 70
3020
  9
$UCSORG
 10
0.0
 20
0.0
 30
0.0
  9
$UCSXDIR
 10
1.0
 20
0.0
 30
0.0
  9
$UCSYDIR
 10
0.0
 20
1.0
 30
0.0
  9
$UNITMODE
 70
0
  9
$USERI1
 70
0
  9
$USERI2
 70
0
  9
$USERI3
 70
0
  9
$USERI4
 70
0
  9
$USERI5
 70
0
  9
$USERR1
 40
0.0
  9
$USERR2
 40
0.0
  9
$USERR3
 40
0.0
  9
$USERR4
 40
0.0
  9
$USERR5
 40
0.0
  0
ENDSEC
  0
SECTION
  2
TABLES
  0
TABLE
  2
VPORT
  5
8
100
AcDbSymbolTable
 70
1
  0
VPORT
  5
30
100
AcDbSymbolTableRecord
100
AcDbViewportTableRecord
  2
*Active
 70
0
 10
0.0
 20
0.0
 11
1.0
 21
1.0
 12
286.30555555555549
 22
148.5
 13
0.0
 23
0.0
 14
10.0
 24
10.0
 15
10.0
 25
10.0
 16
0.0
 26
0.0
 36
1.0
 17
0.0
 27
0.0
 37
0.0
 40
297.0
 41
1.92798353909465
 42
50.0
 43
0.0
 44
0.0
 50
0.0
 51
0.0
 71
0
 72
100
 73
1
 74
3
 75
1
 76
1
 77
0
 78
0
281
0
 65
1
110
0.0
120
0.0
130
0.0
111
1.0
121
0.0
131
0.0
112
0.0
122
1.0
132
0.0
 79
0
146
0.0
  0
ENDTAB
  0
TABLE
  2
LTYPE
  5
5
100
AcDbSymbolTable
 70
41
  0
LTYPE
  5
16
100
AcDbSymbolTableRecord
100
AcDbLinetypeTableRecord
  2
Continuous
 70
0
  3
Solid line
 72
65
 73
0
 40
0.0
  0
LTYPE
  5
31
100
AcDbSymbolTableRecord
100
AcDbLinetypeTableRecord
  2
ACAD_ISO15W100
 70
0
  3
ISO double-dash triple-dot __ __ . . . __ __ . .
 72
65
 73
10
 40
39.000000000000007
 49
12.0
 74
0
 49
-3.0
 74
0
 49
12.0
 74
0
 49
-2.9500000000000002
 74
0
 49
0.1
 74
0
 49
-2.9000000000000004
 74
0
 49
0.1
 74
0
 49
-2.9000000000000004
 74
0
 49
0.1
 74
0
 49
-2.9500000000000002
 74
0
  0
LTYPE
  5
32
100
AcDbSymbolTableRecord
100
AcDbLinetypeTableRecord
  2
DIVIDE
 70
0
  3
Divide ____ . . ____ . . ____ . . ____ . . ____
 72
65
 73
6
 40
31.750000000000004
 49
12.699999999999999
 74
0
 49
-6.2999999999999998
 74
0
 49
0.1
 74
0
 49
-6.25
 74
0
 49
0.1
 74
0
 49
-6.2999999999999998
 74
0
  0
LTYPE
  5
33
100
AcDbSymbolTableRecord
100
AcDbLinetypeTableRecord
  2
ACAD_ISO10W100
 70
0
  3
ISO dash dot __ . __ . __ . __ . __ . __ . __ . 
 72
65
 73
4
 40
18.0
 49
12.0
 74
0
 49
-2.9500000000000002
 74
0
 49
0.1
 74
0
 49
-2.9500000000000002
 74
0
  0
LTYPE
  5
34
100
AcDbSymbolTableRecord
100
AcDbLinetypeTableRecord
  2
ACAD_ISO04W100
 70
0
  3
ISO long-dash dot ____ . ____ . ____ . ____ . _
 72
65
 73
4
 40
30.0
 49
24.0
 74
0
 49
-2.9500000000000002
 74
0
 49
0.1
 74
0
 49
-2.9500000000000002
 74
0
  0
LTYPE
  5
14
100
AcDbSymbolTableRecord
100
AcDbLinetypeTableRecord
  2
ByBlock
 70
0
  3

 72
65
 73
0
 40
0.0
  0
LTYPE
  5
35
100
AcDbSymbolTableRecord
100
AcDbLinetypeTableRecord
  2
CENTER2
 70
0
  3
Center (.5x) ___ _ ___ _ ___ _ ___ _ ___ _ ___
 72
65
 73
4
 40
28.575000000000003
 49
19.050000000000001
 74
0
 49
-3.1749999999999998
 74
0
 49
3.1749999999999998
 74
0
 49
-3.1749999999999998
 74
0
  0
LTYPE
  5
36
100
AcDbSymbolTableRecord
100
AcDbLinetypeTableRecord
  2
ACAD_ISO11W100
 70
0
  3
ISO double-dash dot __ __ . __ __ . __ __ . __ _
 72
65
 73
6
 40
33.0
 49
12.0
 74
0
 49
-3.0
 74
0
 49
12.0
 74
0
 49
-2.9500000000000002
 74
0
 49
0.1
 74
0
 49
-2.9500000000000002
 74
0
  0
LTYPE
  5
37
100
AcDbSymbolTableRecord
100
AcDbLinetypeTableRecord
  2
HIDDEN2
 70
0
  3
Hidden (.5x) _ _ _ _ _ _ _ _ _ _ _ _ _ _ _ _ _ 
 72
65
 73
2
 40
4.7624999999999993
 49
3.1749999999999998
 74
0
 49
-1.5874999999999999
 74
0
  0
LTYPE
  5
38
100
AcDbSymbolTableRecord
100
AcDbLinetypeTableRecord
  2
BORDERX2
 70
0
  3
Border (2x) ____  ____  .  ____  ____  .  ___
 72
65
 73
6
 40
88.899999999999977
 49
25.399999999999999
 74
0
 49
-12.699999999999999
 74
0
 49
25.399999999999999
 74
0
 49
-12.649999999999999
 74
0
 49
0.1
 74
0
 49
-12.649999999999999
 74
0
  0
LTYPE
  5
39
100
AcDbSymbolTableRecord
100
AcDbLinetypeTableRecord
  2
ACAD_ISO05W100
 70
0
  3
ISO long-dash double-dot ____ .. ____ .. ____ . 
 72
65
 73
6
 40
33.000000000000007
 49
24.0
 74
0
 49
-2.9500000000000002
 74
0
 49
0.1
 74
0
 49
-2.9000000000000004
 74
0
 49
0.1
 74
0
 49
-2.9500000000000002
 74
0
  0
LTYPE
  5
3A
100
AcDbSymbolTableRecord
100
AcDbLinetypeTableRecord
  2
DASHDOTX2
 70
0
  3
Dash dot (2x) ____  .  ____  .  ____  .  ___
 72
65
 73
4
 40
50.799999999999997
 49
25.399999999999999
 74
0
 49
-12.649999999999999
 74
0
 49
0.1
 74
0
 49
-12.649999999999999
 74
0
  0
LTYPE
  5
3B
100
AcDbSymbolTableRecord
100
AcDbLinetypeTableRecord
  2
HIDDENX2
 70
0
  3
Hidden (2x) ____ ____ ____ ____ ____ ____ ____ 
 72
65
 73
2
 40
19.049999999999997
 49
12.699999999999999
 74
0
 49
-6.3499999999999996
 74
0
  0
LTYPE
  5
3C
100
AcDbSymbolTableRecord
100
AcDbLinetypeTableRecord
  2
CENTERX2
 70
0
  3
Center (2x) ________  __  ________  __  _____
 72
65
 73
4
 40
101.60000000000001
 49
63.5
 74
0
 49
-12.699999999999999
 74
0
 49
12.699999999999999
 74
0
 49
-12.699999999999999
 74
0
  0
LTYPE
  5
3D
100
AcDbSymbolTableRecord
100
AcDbLinetypeTableRecord
  2
BORDER2
 70
0
  3
Border (.5x) __.__.__.__.__.__.__.__.__.__.__.
 72
65
 73
6
 40
22.225000000000001
 49
6.3499999999999996
 74
0
 49
-3.1749999999999998
 74
0
 49
6.3499999999999996
 74
0
 49
-3.125
 74
0
 49
0.1
 74
0
 49
-3.125
 74
0
  0
LTYPE
  5
3E
100
AcDbSymbolTableRecord
100
AcDbLinetypeTableRecord
  2
DASHDOT2
 70
0
  3
Dash dot (.5x) _._._._._._._._._._._._._._._.
 72
65
 73
4
 40
12.699999999999999
 49
6.3499999999999996
 74
0
 49
-3.125
 74
0
 49
0.1
 74
0
 49
-3.125
 74
0
  0
LTYPE
  5
3F
100
AcDbSymbolTableRecord
100
AcDbLinetypeTableRecord
  2
ACAD_ISO12W100
 70
0
  3
ISO dash double-dot __ . . __ . . __ . . __ . . 
 72
65
 73
6
 40
21.0
 49
12.0
 74
0
 49
-2.9500000000000002
 74
0
 49
0.1
 74
0
 49
-2.9000000000000004
 74
0
 49
0.1
 74
0
 49
-2.9500000000000002
 74
0
  0
LTYPE
  5
40
100
AcDbSymbolTableRecord
100
AcDbLinetypeTableRecord
  2
ACAD_ISO07W100
 70
0
  3
ISO dot . . . . . . . . . . . . . . . . . . . . 
 72
65
 73
2
 40
3.0
 49
0.1
 74
0
 49
-2.8999999999999999
 74
0
  0
LTYPE
  5
41
100
AcDbSymbolTableRecord
100
AcDbLinetypeTableRecord
  2
HIDDEN
 70
0
  3
Hidden __ __ __ __ __ __ __ __ __ __ __ __ __ __
 72
65
 73
2
 40
9.5249999999999986
 49
6.3499999999999996
 74
0
 49
-3.1749999999999998
 74
0
  0
LTYPE
  5
42
100
AcDbSymbolTableRecord
100
AcDbLinetypeTableRecord
  2
ACAD_ISO06W100
 70
0
  3
ISO long-dash triple-dot ____ ... ____ ... ____
 72
65
 73
8
 40
36.000000000000007
 49
24.0
 74
0
 49
-2.9500000000000002
 74
0
 49
0.1
 74
0
 49
-2.9000000000000004
 74
0
 49
0.1
 74
0
 49
-2.9000000000000004
 74
0
 49
0.1
 74
0
 49
-2.9500000000000002
 74
0
  0
LTYPE
  5
43
100
AcDbSymbolTableRecord
100
AcDbLinetypeTableRecord
  2
CENTER
 70
0
  3
Center ____ _ ____ _ ____ _ ____ _ ____ _ ____
 72
65
 73
4
 40
50.800000000000004
 49
31.75
 74
0
 49
-6.3499999999999996
 74
0
 49
6.3499999999999996
 74
0
 49
-6.3499999999999996
 74
0
  0
LTYPE
  5
44
100
AcDbSymbolTableRecord
100
AcDbLinetypeTableRecord
  2
DOTX2
 70
0
  3
Dot (2x) .  .  .  .  .  .  .  .  .  .  .  .  .  .
 72
65
 73
2
 40
12.699999999999999
 49
0.1
 74
0
 49
-12.6
 74
0
  0
LTYPE
  5
45
100
AcDbSymbolTableRecord
100
AcDbLinetypeTableRecord
  2
PHANTOM
 70
0
  3
Phantom ______  __  __  ______  __  __  ______ 
 72
65
 73
6
 40
63.500000000000007
 49
31.75
 74
0
 49
-6.3499999999999996
 74
0
 49
6.3499999999999996
 74
0
 49
-6.3499999999999996
 74
0
 49
6.3499999999999996
 74
0
 49
-6.3499999999999996
 74
0
  0
LTYPE
  5
46
100
AcDbSymbolTableRecord
100
AcDbLinetypeTableRecord
  2
ACAD_ISO08W100
 70
0
  3
ISO long-dash short-dash ____ __ ____ __ ____ _
 72
65
 73
4
 40
36.0
 49
24.0
 74
0
 49
-3.0
 74
0
 49
6.0
 74
0
 49
-3.0
 74
0
  0
LTYPE
  5
47
100
AcDbSymbolTableRecord
100
AcDbLinetypeTableRecord
  2
DASHEDX2
 70
0
  3
Dashed (2x) ____  ____  ____  ____  ____  ___
 72
65
 73
2
 40
38.099999999999994
 49
25.399999999999999
 74
0
 49
-12.699999999999999
 74
0
  0
LTYPE
  5
48
100
AcDbSymbolTableRecord
100
AcDbLinetypeTableRecord
  2
ACAD_ISO02W100
 70
0
  3
ISO dash __ __ __ __ __ __ __ __ __ __ __ __ __
 72
65
 73
2
 40
15.0
 49
12.0
 74
0
 49
-3.0
 74
0
  0
LTYPE
  5
49
100
AcDbSymbolTableRecord
100
AcDbLinetypeTableRecord
  2
PHANTOM2
 70
0
  3
Phantom (.5x) ___ _ _ ___ _ _ ___ _ _ ___ _ _
 72
65
 73
6
 40
31.750000000000004
 49
15.875
 74
0
 49
-3.1749999999999998
 74
0
 49
3.1749999999999998
 74
0
 49
-3.1749999999999998
 74
0
 49
3.1749999999999998
 74
0
 49
-3.1749999999999998
 74
0
  0
LTYPE
  5
4A
100
AcDbSymbolTableRecord
100
AcDbLinetypeTableRecord
  2
DASHED2
 70
0
  3
Dashed (.5x) _ _ _ _ _ _ _ _ _ _ _ _ _ _ _ _ _ 
 72
65
 73
2
 40
9.5249999999999986
 49
6.3499999999999996
 74
0
 49
-3.1749999999999998
 74
0
  0
LTYPE
  5
4B
100
AcDbSymbolTableRecord
100
AcDbLinetypeTableRecord
  2
ACAD_ISO09W100
 70
0
  3
ISO long-dash double-short-dash ____ __ __ ____
 72
65
 73
6
 40
45.0
 49
24.0
 74
0
 49
-3.0
 74
0
 49
6.0
 74
0
 49
-3.0
 74
0
 49
6.0
 74
0
 49
-3.0
 74
0
  0
LTYPE
  5
4C
100
AcDbSymbolTableRecord
100
AcDbLinetypeTableRecord
  2
ACAD_ISO13W100
 70
0
  3
ISO double-dash double-dot __ __ . . __ __ . . _
 72
65
 73
8
 40
36.000000000000007
 49
12.0
 74
0
 49
-3.0
 74
0
 49
12.0
 74
0
 49
-2.9500000000000002
 74
0
 49
0.1
 74
0
 49
-2.9000000000000004
 74
0
 49
0.1
 74
0
 49
-2.9500000000000002
 74
0
  0
LTYPE
  5
4D
100
AcDbSymbolTableRecord
100
AcDbLinetypeTableRecord
  2
DOT2
 70
0
  3
Dot (.5x) ........................................
 72
65
 73
2
 40
3.1749999999999998
 49
0.1
 74
0
 49
-3.0749999999999997
 74
0
  0
LTYPE
  5
4E
100
AcDbSymbolTableRecord
100
AcDbLinetypeTableRecord
  2
DASHED
 70
0
  3
Dashed __ __ __ __ __ __ __ __ __ __ __ __ __ _
 72
65
 73
2
 40
19.049999999999997
 49
12.699999999999999
 74
0
 49
-6.3499999999999996
 74
0
  0
LTYPE
  5
4F
100
AcDbSymbolTableRecord
100
AcDbLinetypeTableRecord
  2
ACAD_ISO14W100
 70
0
  3
ISO dash triple-dot __ . . . __ . . . __ . . . _
 72
65
 73
8
 40
24.000000000000004
 49
12.0
 74
0
 49
-2.9500000000000002
 74
0
 49
0.1
 74
0
 49
-2.9000000000000004
 74
0
 49
0.1
 74
0
 49
-2.9000000000000004
 74
0
 49
0.1
 74
0
 49
-2.9500000000000002
 74
0
  0
LTYPE
  5
50
100
AcDbSymbolTableRecord
100
AcDbLinetypeTableRecord
  2
PHANTOMX2
 70
0
  3
Phantom (2x) ____________    ____    ____   _
 72
65
 73
6
 40
127.00000000000001
 49
63.5
 74
0
 49
-12.699999999999999
 74
0
 49
12.699999999999999
 74
0
 49
-12.699999999999999
 74
0
 49
12.699999999999999
 74
0
 49
-12.699999999999999
 74
0
  0
LTYPE
  5
51
100
AcDbSymbolTableRecord
100
AcDbLinetypeTableRecord
  2
DIVIDEX2
 70
0
  3
Divide (2x) ________  .  .  ________  .  .  _
 72
65
 73
6
 40
63.5
 49
25.399999999999999
 74
0
 49
-12.649999999999999
 74
0
 49
0.1
 74
0
 49
-12.599999999999998
 74
0
 49
0.1
 74
0
 49
-12.649999999999999
 74
0
  0
LTYPE
  5
52
100
AcDbSymbolTableRecord
100
AcDbLinetypeTableRecord
  2
BORDER
 70
0
  3
Border __ __ . __ __ . __ __ . __ __ . __ __ .
 72
65
 73
6
 40
44.449999999999996
 49
12.699999999999999
 74
0
 49
-6.3499999999999996
 74
0
 49
12.699999999999999
 74
0
 49
-6.2999999999999998
 74
0
 49
0.1
 74
0
 49
-6.2999999999999998
 74
0
  0
LTYPE
  5
53
100
AcDbSymbolTableRecord
100
AcDbLinetypeTableRecord
  2
DIVIDE2
 70
0
  3
Divide (.5x) __..__..__..__..__..__..__..__.._
 72
65
 73
6
 40
15.874999999999998
 49
6.3499999999999996
 74
0
 49
-3.125
 74
0
 49
0.1
 74
0
 49
-3.0750000000000002
 74
0
 49
0.1
 74
0
 49
-3.125
 74
0
  0
LTYPE
  5
54
100
AcDbSymbolTableRecord
100
AcDbLinetypeTableRecord
  2
DOT
 70
0
  3
Dot . . . . . . . . . . . . . . . . . . . . . . . .
 72
65
 73
2
 40
6.3499999999999996
 49
0.1
 74
0
 49
-6.25
 74
0
  0
LTYPE
  5
55
100
AcDbSymbolTableRecord
100
AcDbLinetypeTableRecord
  2
DASHDOT
 70
0
  3
Dash dot __ . __ . __ . __ . __ . __ . __ . __
 72
65
 73
4
 40
25.400000000000002
 49
12.699999999999999
 74
0
 49
-6.2999999999999998
 74
0
 49
0.1
 74
0
 49
-6.2999999999999998
 74
0
  0
LTYPE
  5
56
100
AcDbSymbolTableRecord
100
AcDbLinetypeTableRecord
  2
ACAD_ISO03W100
 70
0
  3
ISO dash space __    __    __    __    __    __
 72
65
 73
2
 40
30.0
 49
12.0
 74
0
 49
-18.0
 74
0
  0
LTYPE
  5
15
100
AcDbSymbolTableRecord
100
AcDbLinetypeTableRecord
  2
ByLayer
 70
0
  3

 72
65
 73
0
 40
0.0
  0
ENDTAB
  0
TABLE
  2
LAYER
  5
2
100
AcDbSymbolTable
 70
2
  0
LAYER
  5
57
100
AcDbSymbolTableRecord
100
AcDbLayerTableRecord
  2
Defpoints
 70
0
 62
7
420
16777215
  6
Continuous
290
0
370
-3
390
F
  0
LAYER
  5
10
100
AcDbSymbolTableRecord
100
AcDbLayerTableRecord
  2
0
 70
0
 62
7
420
16777215
  6
Continuous
370
25
390
F
  0
ENDTAB
  0
TABLE
  2
STYLE
  5
3
100
AcDbSymbolTable
 70
1
  0
STYLE
  5
58
100
AcDbSymbolTableRecord
100
AcDbTextStyleTableRecord
  2
Standard
 70
0
 40
0.0
 41
1.0
 50
0.0
 71
0
 42
2.5
  3

  4

1001
ACAD
1000
txt
1071
0
  0
ENDTAB
  0
TABLE
  2
VIEW
  5
6
100
AcDbSymbolTable
 70
0
  0
ENDTAB
  0
TABLE
  2
UCS
  5
7
100
AcDbSymbolTable
 70
0
  0
ENDTAB
  0
TABLE
  2
APPID
  5
9
100
AcDbSymbolTable
 70
1
  0
APPID
  5
12
100
AcDbSymbolTableRecord
100
AcDbRegAppTableRecord
  2
ACAD
 70
0
  0
APPID
  5
59
100
AcDbSymbolTableRecord
100
AcDbRegAppTableRecord
  2
QCAD
 70
0
  0
ENDTAB
  0
TABLE
  2
DIMSTYLE
  5
A
100
AcDbSymbolTable
 70
1
100
AcDbDimStyleTable
 71
0
  0
DIMSTYLE
105
27
100
AcDbSymbolTableRecord
100
AcDbDimStyleTableRecord
  2
Standard
 41
2.5
 42
0.625
 43
3.75
 44
1.25
 70
0
 73
0
 74
0
 77
1
 78
8
140
2.5
141
2.5
143
0.03937007874016
147
0.625
171
3
172
1
271
2
272
2
274
3
278
44
283
0
284
8
340
58
  0
ENDTAB
  0
TABLE
  2
BLOCK_RECORD
  5
1
100
AcDbSymbolTable
 70
1
  0
BLOCK_RECORD
  5
1F
100
AcDbSymbolTableRecord
100
AcDbBlockTableRecord
  2
*Model_Space
340
22
  0
BLOCK_RECORD
  5
1B
100
AcDbSymbolTableRecord
100
AcDbBlockTableRecord
  2
*Paper_Space
340
1E
  0
BLOCK_RECORD
  5
23
100
AcDbSymbolTableRecord
100
AcDbBlockTableRecord
  2
*Paper_Space0
340
26
  0
BLOCK_RECORD
  5
5A
100
AcDbSymbolTableRecord
100
AcDbBlockTableRecord
  2
bed_x
340
0
  0
BLOCK_RECORD
  5
5B
100
AcDbSymbolTableRecord
100
AcDbBlockTableRecord
  2
drawer_bottom
340
0
  0
BLOCK_RECORD
  5
5C
100
AcDbSymbolTableRecord
100
AcDbBlockTableRecord
  2
frame_bottom
340
0
  0
BLOCK_RECORD
  5
5D
100
AcDbSymbolTableRecord
100
AcDbBlockTableRecord
  2
drawer_right
340
0
  0
BLOCK_RECORD
  5
5E
100
AcDbSymbolTableRecord
100
AcDbBlockTableRecord
  2
frame_front
340
0
  0
BLOCK_RECORD
  5
5F
100
AcDbSymbolTableRecord
100
AcDbBlockTableRecord
  2
drawer_front
340
0
  0
BLOCK_RECORD
  5
60
100
AcDbSymbolTableRecord
100
AcDbBlockTableRecord
  2
drawer_support
340
0
  0
BLOCK_RECORD
  5
61
100
AcDbSymbolTableRecord
100
AcDbBlockTableRecord
  2
carrier
340
0
  0
BLOCK_RECORD
  5
62
100
AcDbSymbolTableRecord
100
AcDbBlockTableRecord
  2
bed_backing
340
0
  0
BLOCK_RECORD
  5
63
100
AcDbSymbolTableRecord
100
AcDbBlockTableRecord
  2
bed_interface
340
0
  0
BLOCK_RECORD
  5
64
100
AcDbSymbolTableRecord
100
AcDbBlockTableRecord
  2
frame_laser_big
340
0
  0
BLOCK_RECORD
  5
65
100
AcDbSymbolTableRecord
100
AcDbBlockTableRecord
  2
drawer_bottom2
340
0
  0
BLOCK_RECORD
  5
66
100
AcDbSymbolTableRecord
100
AcDbBlockTableRecord
  2
frame_right
340
0
  0
BLOCK_RECORD
  5
67
100
AcDbSymbolTableRecord
100
AcDbBlockTableRecord
  2
door
340
0
  0
BLOCK_RECORD
  5
68
100
AcDbSymbolTableRecord
100
AcDbBlockTableRecord
  2
frame_back
340
0
  0
BLOCK_RECORD
  5
69
100
AcDbSymbolTableRecord
100
AcDbBlockTableRecord
  2
frame_galvo
340
0
  0
BLOCK_RECORD
  5
6A
100
AcDbSymbolTableRecord
100
AcDbBlockTableRecord
  2
carrier_window
340
0
  0
BLOCK_RECORD
  5
6B
100
AcDbSymbolTableRecord
100
AcDbBlockTableRecord
  2
crane_switch
340
0
  0
BLOCK_RECORD
  5
6C
100
AcDbSymbolTableRecord
100
AcDbBlockTableRecord
  2
frame_foot1
340
0
  0
BLOCK_RECORD
  5
6D
100
AcDbSymbolTableRecord
100
AcDbBlockTableRecord
  2
drawer_left
340
0
  0
BLOCK_RECORD
  5
6E
100
AcDbSymbolTableRecord
100
AcDbBlockTableRecord
  2
frame_foot2
340
0
  0
BLOCK_RECORD
  5
6F
100
AcDbSymbolTableRecord
100
AcDbBlockTableRecord
  2
crane
340
0
  0
BLOCK_RECORD
  5
70
100
AcDbSymbolTableRecord
100
AcDbBlockTableRecord
  2
crane_flap
340
0
  0
BLOCK_RECORD
  5
71
100
AcDbSymbolTableRecord
100
AcDbBlockTableRecord
  2
crane_back
340
0
  0
BLOCK_RECORD
  5
72
100
AcDbSymbolTableRecord
100
AcDbBlockTableRecord
  2
p1
340
0
  0
BLOCK_RECORD
  5
73
100
AcDbSymbolTableRecord
100
AcDbBlockTableRecord
  2
drawer_back
340
0
  0
BLOCK_RECORD
  5
74
100
AcDbSymbolTableRecord
100
AcDbBlockTableRecord
  2
p2
340
0
  0
BLOCK_RECORD
  5
75
100
AcDbSymbolTableRecord
100
AcDbBlockTableRecord
  2
p3
340
0
  0
BLOCK_RECORD
  5
76
100
AcDbSymbolTableRecord
100
AcDbBlockTableRecord
  2
carrier_wall
340
0
  0
BLOCK_RECORD
  5
77
100
AcDbSymbolTableRecord
100
AcDbBlockTableRecord
  2
frame_top
340
0
  0
BLOCK_RECORD
  5
78
100
AcDbSymbolTableRecord
100
AcDbBlockTableRecord
  2
crane_front
340
0
  0
BLOCK_RECORD
  5
79
100
AcDbSymbolTableRecord
100
AcDbBlockTableRecord
  2
frame_laser
340
0
  0
BLOCK_RECORD
  5
7A
100
AcDbSymbolTableRecord
100
AcDbBlockTableRecord
  2
carrier_tray
340
0
  0
ENDTAB
  0
ENDSEC
  0
SECTION
  2
BLOCKS
  0
BLOCK
  5
20
100
AcDbEntity
  8
0
100
AcDbBlockBegin
  2
*Model_Space
 70
0
 10
0.0
 20
0.0
 30
0.0
  3
*Model_Space
  1

  0
ENDBLK
  5
21
100
AcDbEntity
  8
0
100
AcDbBlockEnd
  0
BLOCK
  5
1C
100
AcDbEntity
 67
1
  8
0
100
AcDbBlockBegin
  2
*Paper_Space
 70
0
 10
0.0
 20
0.0
 30
0.0
  3
*Paper_Space
  1

  0
ENDBLK
  5
1D
100
AcDbEntity
 67
1
  8
0
100
AcDbBlockEnd
  0
BLOCK
  5
24
100
AcDbEntity
  8
0
100
AcDbBlockBegin
  2
*Paper_Space0
 70
0
 10
0.0
 20
0.0
 30
0.0
  3
*Paper_Space0
  1

  0
ENDBLK
  5
25
100
AcDbEntity
  8
0
100
AcDbBlockEnd
  0
BLOCK
  5
7B
100
AcDbEntity
  8
0
100
AcDbBlockBegin
  2
bed_x
 70
0
 10
0.0
 20
0.0
 30
0.0
  3
bed_x
  1

  0
LWPOLYLINE
  5
7C
  8
0
 62
256
370
-1
 48
1.0
  6
ByLayer
100
AcDbEntity
100
AcDbPolyline
 90
19
 70
1
 10
-70.499999999999986
 20
-50.500000000000028
 30
0.0
 10
-121.00000000000004
 20
-0.0000000000000426
 30
0.0
 10
-141.0
 20
-0.0000000000000284
 30
0.0
 10
-141.0
 20
-20.000000000000028
 30
0.0
 10
-90.5
 20
-70.500000000000043
 30
0.0
 10
-141.0
 20
-121.00000000000009
 30
0.0
 10
-141.0
 20
-126.00000000000003
 30
0.0
 10
-136.0
 20
-126.00000000000003
 30
0.0
 42
-0.4142135623730951
 10
-126.0
 20
-136.00000000000003
 30
0.0
 10
-126.0
 20
-141.00000000000006
 30
0.0
 10
-121.0
 20
-141.00000000000003
 30
0.0
 10
-70.499999999999986
 20
-90.500000000000028
 30
0.0
 10
-19.999999999999943
 20
-141.00000000000003
 30
0.0
 10
0.0
 20
-141.00000000000003
 30
0.0
 10
0.0
 20
-121.00000000000003
 30
0.0
 10
-50.5
 20
-70.500000000000014
 30
0.0
 10
0.0
 20
-19.999999999999986
 30
0.0
 10
0.0
 20
0.0
 30
0.0
 10
-20.0
 20
0.0
 30
0.0
  0
CIRCLE
  5
7D
100
AcDbEntity
100
AcDbCircle
  8
0
 62
256
370
-1
 48
1.0
  6
ByLayer
 10
-110.99999999999997
 20
-111.00000000000003
 30
0.0
 40
1.9999999999999989
  0
CIRCLE
  5
7E
100
AcDbEntity
100
AcDbCircle
  8
0
 62
256
370
-1
 48
1.0
  6
ByLayer
 10
-30.0
 20
-30.00000000000005
 30
0.0
 40
1.9999999999999989
  0
CIRCLE
  5
7F
100
AcDbEntity
100
AcDbCircle
  8
0
 62
256
370
-1
 48
1.0
  6
ByLayer
 10
-120.99999999999997
 20
-121.00000000000003
 30
0.0
 40
1.5750000000000051
  0
CIRCLE
  5
80
100
AcDbEntity
100
AcDbCircle
  8
0
 62
256
370
-1
 48
1.0
  6
ByLayer
 10
-20.0
 20
-20.00000000000005
 30
0.0
 40
1.5750000000000051
  0
CIRCLE
  5
81
100
AcDbEntity
100
AcDbCircle
  8
0
 62
256
370
-1
 48
1.0
  6
ByLayer
 10
-121.0
 20
-20.000000000000057
 30
0.0
 40
1.5750000000000051
  0
CIRCLE
  5
82
100
AcDbEntity
100
AcDbCircle
  8
0
 62
256
370
-1
 48
1.0
  6
ByLayer
 10
-20.0
 20
-121.0
 30
0.0
 40
1.5750000000000051
  0
CIRCLE
  5
83
100
AcDbEntity
100
AcDbCircle
  8
0
 62
256
370
-1
 48
1.0
  6
ByLayer
 10
-111.0
 20
-30.000000000000057
 30
0.0
 40
1.9999999999999989
  0
CIRCLE
  5
84
100
AcDbEntity
100
AcDbCircle
  8
0
 62
256
370
-1
 48
1.0
  6
ByLayer
 10
-30.0
 20
-111.0
 30
0.0
 40
1.9999999999999989
  0
ENDBLK
  5
85
100
AcDbEntity
  8
0
100
AcDbBlockEnd
  0
BLOCK
  5
86
100
AcDbEntity
  8
0
100
AcDbBlockBegin
  2
drawer_bottom
 70
0
 10
0.0
 20
0.0
 30
0.0
  3
drawer_bottom
  1

  0
LWPOLYLINE
  5
87
  8
0
 62
256
370
-1
 48
1.0
  6
ByLayer
100
AcDbEntity
100
AcDbPolyline
 90
64
 70
1
 10
0.0000000000000142
 20
10.950000000000138
 30
0.0
 10
-4.2799999999999727
 20
10.950000000000138
 30
0.0
 10
-4.2799999999999727
 20
9.8500000000001506
 30
0.0
 42
-2.414213562373094
 10
-4.5299999999999727
 20
9.6000000000001506
 30
0.0
 10
-7.0299999999999727
 20
9.6000000000001506
 30
0.0
 42
-2.414213562373094
 10
-7.2799999999999869
 20
9.8500000000001506
 30
0.0
 10
-7.2799999999999869
 20
10.950000000000131
 30
0.0
 10
-9.2800000000000011
 20
10.950000000000131
 30
0.0
 10
-9.2800000000000011
 20
14.250000000000128
 30
0.0
 10
-7.2799999999999869
 20
14.250000000000128
 30
0.0
 10
-7.2799999999999869
 20
15.350000000000151
 30
0.0
 42
-2.414213562373094
 10
-7.0299999999999727
 20
15.600000000000151
 30
0.0
 10
-4.5299999999999727
 20
15.600000000000151
 30
0.0
 42
-2.414213562373094
 10
-4.2799999999999727
 20
15.350000000000151
 30
0.0
 10
-4.2799999999999727
 20
14.250000000000128
 30
0.0
 10
0.0000000000000142
 20
14.250000000000128
 30
0.0
 10
0.0000000000000284
 20
23.52000000000001
 30
0.0
 10
6.7200000000000415
 20
23.519999999999996
 30
0.0
 10
6.7200000000000983
 20
40.319999999999993
 30
0.0
 10
-6.7199999999999562
 20
40.320000000000036
 30
0.0
 10
-6.7199999999999704
 20
57.120000000000047
 30
0.0
 10
-174.27999999999997
 20
57.120000000000132
 30
0.0
 10
-174.28000000000003
 20
40.320000000000128
 30
0.0
 10
-187.72000000000003
 20
40.320000000000135
 30
0.0
 10
-187.72000000000003
 20
23.520000000000138
 30
0.0
 10
-181.00000000000006
 20
23.520000000000138
 30
0.0
 10
-181.0
 20
14.250000000000128
 30
0.0
 10
-176.72000000000003
 20
14.250000000000128
 30
0.0
 10
-176.72000000000003
 20
15.350000000000151
 30
0.0
 42
-2.414213562373094
 10
-176.47000000000003
 20
15.600000000000151
 30
0.0
 10
-173.97000000000003
 20
15.600000000000151
 30
0.0
 42
-2.414213562373094
 10
-173.71999999999997
 20
15.350000000000151
 30
0.0
 10
-173.71999999999997
 20
14.250000000000128
 30
0.0
 10
-171.71999999999997
 20
14.250000000000128
 30
0.0
 10
-171.71999999999997
 20
10.950000000000131
 30
0.0
 10
-173.71999999999997
 20
10.950000000000131
 30
0.0
 10
-173.71999999999997
 20
9.8500000000001506
 30
0.0
 42
-2.414213562373094
 10
-173.97000000000003
 20
9.6000000000001506
 30
0.0
 10
-176.47000000000003
 20
9.6000000000001506
 30
0.0
 42
-2.414213562373094
 10
-176.72000000000003
 20
9.8500000000001506
 30
0.0
 10
-176.72000000000003
 20
10.950000000000138
 30
0.0
 10
-181.0
 20
10.950000000000138
 30
0.0
 10
-181.0
 20
0.0000000000001279
 30
0.0
 10
-120.66666666666667
 20
0.0000000000001137
 30
0.0
 10
-120.66666666666667
 20
6.7200000000000841
 30
0.0
 10
-92.15000000000002
 20
6.7200000000000841
 30
0.0
 10
-92.15000000000002
 20
11.000000000000085
 30
0.0
 10
-93.250000000000014
 20
11.000000000000085
 30
0.0
 42
-2.4142135623731251
 10
-93.500000000000014
 20
11.250000000000085
 30
0.0
 10
-93.500000000000014
 20
13.750000000000085
 30
0.0
 42
-2.414213562373094
 10
-93.250000000000014
 20
14.000000000000085
 30
0.0
 10
-92.15000000000002
 20
14.000000000000085
 30
0.0
 10
-92.15000000000002
 20
16.000000000000085
 30
0.0
 10
-88.850000000000009
 20
16.000000000000085
 30
0.0
 10
-88.850000000000009
 20
14.000000000000085
 30
0.0
 10
-87.750000000000014
 20
14.000000000000085
 30
0.0
 42
-2.414213562373094
 10
-87.500000000000014
 20
13.750000000000085
 30
0.0
 10
-87.500000000000014
 20
11.250000000000085
 30
0.0
 42
-2.414213562373094
 10
-87.750000000000014
 20
11.000000000000085
 30
0.0
 10
-88.850000000000009
 20
11.000000000000085
 30
0.0
 10
-88.850000000000009
 20
6.7200000000000841
 30
0.0
 10
-60.333333333333336
 20
6.7200000000000415
 30
0.0
 10
-60.333333333333343
 20
0.0000000000000711
 30
0.0
 10
0.0
 20
0.0
 30
0.0
  0
CIRCLE
  5
88
100
AcDbEntity
100
AcDbCircle
  8
0
 62
256
370
-1
 48
1.0
  6
ByLayer
 10
-50.749999999999979
 20
36.540000000000092
 30
0.0
 40
2.0
  0
CIRCLE
  5
89
100
AcDbEntity
100
AcDbCircle
  8
0
 62
256
370
-1
 48
1.0
  6
ByLayer
 10
-108.74999999999999
 20
36.540000000000099
 30
0.0
 40
2.0
  0
ENDBLK
  5
8A
100
AcDbEntity
  8
0
100
AcDbBlockEnd
  0
BLOCK
  5
8B
100
AcDbEntity
  8
0
100
AcDbBlockBegin
  2
frame_bottom
 70
0
 10
0.0
 20
0.0
 30
0.0
  3
frame_bottom
  1

  0
LWPOLYLINE
  5
8C
  8
0
 62
256
370
-1
 48
1.0
  6
ByLayer
100
AcDbEntity
100
AcDbPolyline
 90
4
 70
1
 10
-39.5
 20
44.506666666666618
 30
0.0
 10
-39.500000000000028
 20
22.253333333333288
 30
0.0
 10
-46.220000000000013
 20
22.253333333333288
 30
0.0
 10
-46.219999999999999
 20
44.506666666666625
 30
0.0
  0
LWPOLYLINE
  5
8D
  8
0
 62
256
370
-1
 48
1.0
  6
ByLayer
100
AcDbEntity
100
AcDbPolyline
 90
4
 70
1
 10
-213.78
 20
44.506666666666717
 30
0.0
 10
-213.78
 20
22.253333333333387
 30
0.0
 10
-220.5
 20
22.253333333333387
 30
0.0
 10
-220.5
 20
44.506666666666703
 30
0.0
  0
LWPOLYLINE
  5
8E
  8
0
 62
256
370
-1
 48
1.0
  6
ByLayer
100
AcDbEntity
100
AcDbPolyline
 90
4
 70
1
 10
-117.00000000000001
 20
5.8800000000000097
 30
0.0
 10
-117.00000000000001
 20
0.0
 30
0.0
 10
-143.0
 20
0.0000000000000142
 30
0.0
 10
-143.0
 20
5.8800000000000239
 30
0.0
  0
LWPOLYLINE
  5
8F
  8
0
 62
256
370
-1
 48
1.0
  6
ByLayer
100
AcDbEntity
100
AcDbPolyline
 90
180
 70
1
 10
-6.7200000000000983
 20
31.730000000000047
 30
0.0
 10
-11.319999999999993
 20
31.730000000000047
 30
0.0
 10
-11.319999999999993
 20
30.630000000000038
 30
0.0
 42
-2.4142135623730971
 10
-11.569999999999993
 20
30.380000000000038
 30
0.0
 10
-14.070000000000107
 20
30.380000000000038
 30
0.0
 42
-2.414213562373094
 10
-14.319999999999993
 20
30.630000000000038
 30
0.0
 10
-14.319999999999993
 20
31.730000000000047
 30
0.0
 10
-16.319999999999993
 20
31.730000000000047
 30
0.0
 10
-16.319999999999993
 20
35.03000000000003
 30
0.0
 10
-14.319999999999993
 20
35.03000000000003
 30
0.0
 10
-14.319999999999993
 20
36.130000000000038
 30
0.0
 42
-2.414213562373094
 10
-14.070000000000107
 20
36.380000000000038
 30
0.0
 10
-11.569999999999993
 20
36.380000000000038
 30
0.0
 42
-2.414213562373094
 10
-11.319999999999993
 20
36.130000000000038
 30
0.0
 10
-11.319999999999993
 20
35.03000000000003
 30
0.0
 10
-6.7200000000000983
 20
35.03000000000003
 30
0.0
 10
-6.7199999999999989
 20
44.506666666666646
 30
0.0
 10
0.0
 20
44.506666666666646
 30
0.0
 10
0.0
 20
66.760000000000005
 30
0.0
 10
-18.100000000000193
 20
66.760000000000048
 30
0.0
 10
-18.100000000000193
 20
62.480000000000054
 30
0.0
 10
-17.000000000000099
 20
62.480000000000054
 30
0.0
 42
-2.414213562373094
 10
-16.750000000000099
 20
62.230000000000054
 30
0.0
 10
-16.750000000000099
 20
59.730000000000047
 30
0.0
 42
-2.414213562373094
 10
-17.000000000000099
 20
59.480000000000054
 30
0.0
 10
-18.100000000000193
 20
59.480000000000054
 30
0.0
 10
-18.100000000000193
 20
57.480000000000047
 30
0.0
 10
-21.400000000000205
 20
57.480000000000047
 30
0.0
 10
-21.400000000000205
 20
59.480000000000054
 30
0.0
 10
-22.500000000000099
 20
59.480000000000054
 30
0.0
 42
-2.414213562373094
 10
-22.750000000000099
 20
59.730000000000047
 30
0.0
 10
-22.750000000000099
 20
62.230000000000054
 30
0.0
 42
-2.414213562373094
 10
-22.500000000000099
 20
62.480000000000054
 30
0.0
 10
-21.400000000000205
 20
62.480000000000054
 30
0.0
 10
-21.400000000000205
 20
66.760000000000048
 30
0.0
 10
-65.266666666666822
 20
66.760000000000019
 30
0.0
 10
-65.266666666666822
 20
62.160000000000025
 30
0.0
 10
-64.166666666666828
 20
62.160000000000025
 30
0.0
 42
-2.414213562373094
 10
-63.916666666666814
 20
61.910000000000025
 30
0.0
 10
-63.916666666666814
 20
59.410000000000025
 30
0.0
 42
-2.414213562373094
 10
-64.166666666666828
 20
59.160000000000025
 30
0.0
 10
-65.266666666666822
 20
59.160000000000025
 30
0.0
 10
-65.266666666666822
 20
57.160000000000025
 30
0.0
 10
-68.566666666666819
 20
57.160000000000025
 30
0.0
 10
-68.566666666666819
 20
59.160000000000025
 30
0.0
 10
-69.666666666666828
 20
59.160000000000025
 30
0.0
 42
-2.414213562373094
 10
-69.916666666666828
 20
59.410000000000025
 30
0.0
 10
-69.916666666666828
 20
61.910000000000025
 30
0.0
 42
-2.414213562373094
 10
-69.666666666666828
 20
62.160000000000025
 30
0.0
 10
-68.566666666666819
 20
62.160000000000025
 30
0.0
 10
-68.566666666666819
 20
66.760000000000019
 30
0.0
 10
-86.666666666666657
 20
66.760000000000019
 30
0.0
 10
-86.666666666666657
 20
73.480000000000018
 30
0.0
 10
-173.33333333333331
 20
73.480000000000032
 30
0.0
 10
-173.33333333333331
 20
66.760000000000048
 30
0.0
 10
-191.43333333333317
 20
66.760000000000019
 30
0.0
 10
-191.43333333333317
 20
62.160000000000025
 30
0.0
 10
-190.33333333333317
 20
62.160000000000025
 30
0.0
 42
-2.414213562373094
 10
-190.08333333333317
 20
61.910000000000025
 30
0.0
 10
-190.08333333333317
 20
59.410000000000025
 30
0.0
 42
-2.414213562373094
 10
-190.33333333333317
 20
59.160000000000025
 30
0.0
 10
-191.43333333333317
 20
59.160000000000025
 30
0.0
 10
-191.43333333333317
 20
57.160000000000025
 30
0.0
 10
-194.73333333333318
 20
57.160000000000025
 30
0.0
 10
-194.73333333333318
 20
59.160000000000025
 30
0.0
 10
-195.83333333333317
 20
59.160000000000025
 30
0.0
 42
-2.414213562373094
 10
-196.0833333333332
 20
59.410000000000025
 30
0.0
 10
-196.0833333333332
 20
61.910000000000025
 30
0.0
 42
-2.414213562373094
 10
-195.83333333333317
 20
62.160000000000025
 30
0.0
 10
-194.73333333333318
 20
62.160000000000025
 30
0.0
 10
-194.73333333333318
 20
66.760000000000019
 30
0.0
 10
-238.5999999999998
 20
66.760000000000048
 30
0.0
 10
-238.5999999999998
 20
62.480000000000054
 30
0.0
 10
-237.49999999999989
 20
62.480000000000054
 30
0.0
 42
-2.414213562373094
 10
-237.24999999999989
 20
62.230000000000054
 30
0.0
 10
-237.24999999999989
 20
59.730000000000047
 30
0.0
 42
-2.414213562373094
 10
-237.49999999999989
 20
59.480000000000054
 30
0.0
 10
-238.5999999999998
 20
59.480000000000054
 30
0.0
 10
-238.5999999999998
 20
57.480000000000047
 30
0.0
 10
-241.89999999999981
 20
57.480000000000047
 30
0.0
 10
-241.89999999999981
 20
59.480000000000054
 30
0.0
 10
-242.99999999999989
 20
59.480000000000054
 30
0.0
 42
-2.414213562373094
 10
-243.24999999999989
 20
59.730000000000047
 30
0.0
 10
-243.24999999999989
 20
62.230000000000054
 30
0.0
 42
-2.414213562373094
 10
-242.99999999999989
 20
62.480000000000054
 30
0.0
 10
-241.89999999999981
 20
62.480000000000054
 30
0.0
 10
-241.89999999999981
 20
66.760000000000048
 30
0.0
 10
-260.0
 20
66.760000000000062
 30
0.0
 10
-260.0
 20
44.506666666666725
 30
0.0
 10
-253.28
 20
44.506666666666725
 30
0.0
 10
-253.27999999999992
 20
35.03000000000003
 30
0.0
 10
-248.68000000000001
 20
35.03000000000003
 30
0.0
 10
-248.68000000000001
 20
36.130000000000038
 30
0.0
 42
-2.414213562373094
 10
-248.43000000000001
 20
36.380000000000038
 30
0.0
 10
-245.92999999999989
 20
36.380000000000038
 30
0.0
 42
-2.414213562373094
 10
-245.68000000000001
 20
36.130000000000038
 30
0.0
 10
-245.68000000000001
 20
35.03000000000003
 30
0.0
 10
-243.68000000000001
 20
35.03000000000003
 30
0.0
 10
-243.68000000000001
 20
31.730000000000047
 30
0.0
 10
-245.68000000000001
 20
31.730000000000047
 30
0.0
 10
-245.68000000000001
 20
30.630000000000038
 30
0.0
 42
-2.414213562373094
 10
-245.92999999999989
 20
30.380000000000038
 30
0.0
 10
-248.43000000000001
 20
30.380000000000038
 30
0.0
 42
-2.4142135623730971
 10
-248.68000000000001
 20
30.630000000000038
 30
0.0
 10
-248.68000000000001
 20
31.730000000000047
 30
0.0
 10
-253.27999999999992
 20
31.730000000000047
 30
0.0
 10
-253.28
 20
22.253333333333359
 30
0.0
 10
-260.0
 20
22.253333333333359
 30
0.0
 10
-260.0
 20
0.0000000000000284
 30
0.0
 10
-241.89999999999981
 20
0.0
 30
0.0
 10
-241.89999999999981
 20
4.2800000000000011
 30
0.0
 10
-242.99999999999989
 20
4.2800000000000011
 30
0.0
 42
-2.414213562373094
 10
-243.24999999999989
 20
4.5300000000000011
 30
0.0
 10
-243.24999999999989
 20
7.0300000000000011
 30
0.0
 42
-2.414213562373094
 10
-242.99999999999989
 20
7.2800000000000011
 30
0.0
 10
-241.89999999999981
 20
7.2800000000000011
 30
0.0
 10
-241.89999999999981
 20
9.2800000000000011
 30
0.0
 10
-238.5999999999998
 20
9.2800000000000011
 30
0.0
 10
-238.5999999999998
 20
7.2800000000000011
 30
0.0
 10
-237.49999999999989
 20
7.2800000000000011
 30
0.0
 42
-2.414213562373094
 10
-237.24999999999989
 20
7.0300000000000011
 30
0.0
 10
-237.24999999999989
 20
4.5300000000000011
 30
0.0
 42
-2.414213562373094
 10
-237.49999999999989
 20
4.2800000000000011
 30
0.0
 10
-238.5999999999998
 20
4.2800000000000011
 30
0.0
 10
-238.5999999999998
 20
0.0
 30
0.0
 10
-194.73333333333318
 20
0.0000000000000284
 30
0.0
 10
-194.73333333333318
 20
4.6000000000000227
 30
0.0
 10
-195.83333333333317
 20
4.6000000000000227
 30
0.0
 42
-2.414213562373094
 10
-196.0833333333332
 20
4.8500000000000227
 30
0.0
 10
-196.0833333333332
 20
7.3500000000000227
 30
0.0
 42
-2.414213562373094
 10
-195.83333333333317
 20
7.6000000000000227
 30
0.0
 10
-194.73333333333318
 20
7.6000000000000227
 30
0.0
 10
-194.73333333333318
 20
9.6000000000000227
 30
0.0
 10
-191.43333333333317
 20
9.6000000000000227
 30
0.0
 10
-191.43333333333317
 20
7.6000000000000227
 30
0.0
 10
-190.33333333333317
 20
7.6000000000000227
 30
0.0
 42
-2.414213562373094
 10
-190.08333333333317
 20
7.3500000000000227
 30
0.0
 10
-190.08333333333317
 20
4.8500000000000227
 30
0.0
 42
-2.414213562373094
 10
-190.33333333333317
 20
4.6000000000000227
 30
0.0
 10
-191.43333333333317
 20
4.6000000000000227
 30
0.0
 10
-191.43333333333317
 20
0.0000000000000284
 30
0.0
 10
-173.33333333333331
 20
0.0000000000000284
 30
0.0
 10
-173.33333333333331
 20
-6.7199999999999562
 30
0.0
 10
-86.666666666666671
 20
-6.7199999999999989
 30
0.0
 10
-86.666666666666671
 20
0.0
 30
0.0
 10
-68.566666666666819
 20
0.0000000000000284
 30
0.0
 10
-68.566666666666819
 20
4.6000000000000227
 30
0.0
 10
-69.666666666666828
 20
4.6000000000000227
 30
0.0
 42
-2.414213562373094
 10
-69.916666666666828
 20
4.8500000000000227
 30
0.0
 10
-69.916666666666828
 20
7.3500000000000227
 30
0.0
 42
-2.414213562373094
 10
-69.666666666666828
 20
7.6000000000000227
 30
0.0
 10
-68.566666666666819
 20
7.6000000000000227
 30
0.0
 10
-68.566666666666819
 20
9.6000000000000227
 30
0.0
 10
-65.266666666666822
 20
9.6000000000000227
 30
0.0
 10
-65.266666666666822
 20
7.6000000000000227
 30
0.0
 10
-64.166666666666828
 20
7.6000000000000227
 30
0.0
 42
-2.414213562373094
 10
-63.916666666666814
 20
7.3500000000000227
 30
0.0
 10
-63.916666666666814
 20
4.8500000000000227
 30
0.0
 42
-2.414213562373094
 10
-64.166666666666828
 20
4.6000000000000227
 30
0.0
 10
-65.266666666666822
 20
4.6000000000000227
 30
0.0
 10
-65.266666666666822
 20
0.0000000000000284
 30
0.0
 10
-21.400000000000205
 20
0.0
 30
0.0
 10
-21.400000000000205
 20
4.2800000000000011
 30
0.0
 10
-22.500000000000099
 20
4.2800000000000011
 30
0.0
 42
-2.414213562373094
 10
-22.750000000000099
 20
4.5300000000000011
 30
0.0
 10
-22.750000000000099
 20
7.0300000000000011
 30
0.0
 42
-2.414213562373094
 10
-22.500000000000099
 20
7.2800000000000011
 30
0.0
 10
-21.400000000000205
 20
7.2800000000000011
 30
0.0
 10
-21.400000000000205
 20
9.2800000000000011
 30
0.0
 10
-18.100000000000193
 20
9.2800000000000011
 30
0.0
 10
-18.100000000000193
 20
7.2800000000000011
 30
0.0
 10
-17.000000000000099
 20
7.2800000000000011
 30
0.0
 42
-2.414213562373094
 10
-16.750000000000099
 20
7.0300000000000011
 30
0.0
 10
-16.750000000000099
 20
4.5300000000000011
 30
0.0
 42
-2.414213562373094
 10
-17.000000000000099
 20
4.2800000000000011
 30
0.0
 10
-18.100000000000193
 20
4.2800000000000011
 30
0.0
 10
-18.100000000000193
 20
0.0
 30
0.0
 10
0.0
 20
0.0
 30
0.0
 10
0.0
 20
22.253333333333387
 30
0.0
 10
-6.7199999999999989
 20
22.253333333333387
 30
0.0
  0
CIRCLE
  5
90
100
AcDbEntity
100
AcDbCircle
  8
0
 62
256
370
-1
 48
1.0
  6
ByLayer
 10
-217.14000000000001
 20
11.126666666666708
 30
0.0
 40
1.5750000000000011
  0
CIRCLE
  5
91
100
AcDbEntity
100
AcDbCircle
  8
0
 62
256
370
-1
 48
1.0
  6
ByLayer
 10
-217.14000000000001
 20
55.633333333333375
 30
0.0
 40
1.5750000000000011
  0
CIRCLE
  5
92
100
AcDbEntity
100
AcDbCircle
  8
0
 62
256
370
-1
 48
1.0
  6
ByLayer
 10
-42.859999999999957
 20
11.126666666666708
 30
0.0
 40
1.5750000000000011
  0
CIRCLE
  5
93
100
AcDbEntity
100
AcDbCircle
  8
0
 62
256
370
-1
 48
1.0
  6
ByLayer
 10
-42.859999999999957
 20
55.633333333333326
 30
0.0
 40
1.5750000000000011
  0
ENDBLK
  5
94
100
AcDbEntity
  8
0
100
AcDbBlockEnd
  0
BLOCK
  5
95
100
AcDbEntity
  8
0
100
AcDbBlockBegin
  2
drawer_right
 70
0
 10
0.0
 20
0.0
 30
0.0
  3
drawer_right
  1

  0
LWPOLYLINE
  5
96
  8
0
 62
256
370
-1
 48
1.0
  6
ByLayer
100
AcDbEntity
100
AcDbPolyline
 90
4
 70
1
 10
-6.7200000000006241
 20
155.03999999999999
 30
0.0
 10
-6.7200000000006099
 20
140.03999999999999
 30
0.0
 10
-13.440000000000623
 20
140.03999999999999
 30
0.0
 10
-13.440000000000623
 20
155.03999999999999
 30
0.0
  0
LWPOLYLINE
  5
97
  8
0
 62
256
370
-1
 48
1.0
  6
ByLayer
100
AcDbEntity
100
AcDbPolyline
 90
8
 70
1
 10
-0.0000000000000995
 20
206.52000000000001
 30
0.0
 10
-57.120000000000068
 20
206.52000000000001
 30
0.0
 10
-57.120000000000033
 20
0.0
 30
0.0
 10
-40.320000000000036
 20
0.000000000000007
 30
0.0
 10
-40.320000000000036
 20
6.7200000000000051
 30
0.0
 10
-23.520000000000039
 20
6.7200000000000051
 30
0.0
 10
-23.520000000000039
 20
0.0000000000000067
 30
0.0
 10
0.0
 20
0.0
 30
0.0
  0
CIRCLE
  5
98
100
AcDbEntity
100
AcDbCircle
  8
0
 62
256
370
-1
 48
1.0
  6
ByLayer
 10
-10.720000000000624
 20
162.53999999999991
 30
0.0
 40
1.5750000000000111
  0
CIRCLE
  5
99
100
AcDbEntity
100
AcDbCircle
  8
0
 62
256
370
-1
 48
1.0
  6
ByLayer
 10
-12.600000000000009
 20
3.3599999999999999
 30
0.0
 40
1.575
  0
CIRCLE
  5
9A
100
AcDbEntity
100
AcDbCircle
  8
0
 62
256
370
-1
 48
1.0
  6
ByLayer
 10
-47.120000000000033
 20
13.44000000000001
 30
0.0
 40
1.575
  0
ENDBLK
  5
9B
100
AcDbEntity
  8
0
100
AcDbBlockEnd
  0
BLOCK
  5
9C
100
AcDbEntity
  8
0
100
AcDbBlockBegin
  2
frame_front
 70
0
 10
0.0
 20
0.0
 30
0.0
  3
frame_front
  1

  0
LWPOLYLINE
  5
9D
  8
0
 62
256
370
-1
 48
1.0
  6
ByLayer
100
AcDbEntity
100
AcDbPolyline
 90
24
 70
1
 10
-220.49999999999994
 20
-294.99999999999994
 30
0.0
 10
-227.21999999999997
 20
-295.0
 30
0.0
 10
-227.21999999999997
 20
-289.12
 30
0.0
 10
-220.49999999999994
 20
-289.12
 30
0.0
 10
-220.50000000000006
 20
-154.12
 30
0.0
 10
-223.65000000000003
 20
-154.12
 30
0.0
 10
-223.65000000000003
 20
-104.12
 30
0.0
 10
-220.50000000000006
 20
-104.12
 30
0.0
 10
-220.50000000000006
 20
-39.499999999999886
 30
0.0
 10
-39.5
 20
-39.499999999999886
 30
0.0
 10
-39.5
 20
-104.12
 30
0.0
 10
-36.350000000000023
 20
-104.12
 30
0.0
 10
-36.350000000000023
 20
-154.12
 30
0.0
 10
-39.5
 20
-154.12
 30
0.0
 10
-39.5
 20
-289.12
 30
0.0
 10
-32.779999999999973
 20
-289.12
 30
0.0
 10
-32.779999999999973
 20
-295.0
 30
0.0
 10
-39.5
 20
-294.99999999999994
 30
0.0
 10
-39.5
 20
-506.56
 30
0.0
 10
-46.21999999999997
 20
-506.56
 30
0.0
 10
-46.21999999999997
 20
-480.5
 30
0.0
 10
-213.78000000000003
 20
-480.5
 30
0.0
 10
-213.78000000000003
 20
-506.56
 30
0.0
 10
-220.50000000000006
 20
-506.56
 30
0.0
  0
LWPOLYLINE
  5
9E
  8
0
 62
256
370
-1
 48
1.0
  6
ByLayer
100
AcDbEntity
100
AcDbPolyline
 90
16
 70
1
 10
-6.7200000000000841
 20
-520.0
 30
0.0
 10
-6.7199999999999704
 20
-295.0
 30
0.0
 10
0.0
 20
-295.0
 30
0.0
 10
0.0
 20
0.0
 30
0.0
 10
-86.666666666666856
 20
0.0
 30
0.0
 10
-86.666666666666856
 20
-6.7200000000000841
 30
0.0
 10
-173.33333333333354
 20
-6.7200000000000841
 30
0.0
 10
-173.33333333333354
 20
0.0
 30
0.0
 10
-259.99999999999994
 20
0.0
 30
0.0
 10
-259.99999999999994
 20
-295.0
 30
0.0
 10
-253.28000000000003
 20
-295.0
 30
0.0
 10
-253.27999999999992
 20
-520.0
 30
0.0
 10
-173.3333333333332
 20
-520.0
 30
0.0
 10
-173.3333333333332
 20
-513.27999999999997
 30
0.0
 10
-86.666666666666572
 20
-513.27999999999997
 30
0.0
 10
-86.666666666666572
 20
-520.0
 30
0.0
  0
CIRCLE
  5
9F
100
AcDbEntity
100
AcDbCircle
  8
0
 62
256
370
-1
 48
1.0
  6
ByLayer
 10
-26.5
 20
-292.06
 30
0.0
 40
1.575
  0
CIRCLE
  5
A0
100
AcDbEntity
100
AcDbCircle
  8
0
 62
256
370
-1
 48
1.0
  6
ByLayer
 10
-233.49999999999994
 20
-292.06
 30
0.0
 40
1.575
  0
CIRCLE
  5
A1
100
AcDbEntity
100
AcDbCircle
  8
0
 62
256
370
-1
 48
1.0
  6
ByLayer
 10
-193.0833333333332
 20
-516.63999999999987
 30
0.0
 40
1.5750000000000159
  0
CIRCLE
  5
A2
100
AcDbEntity
100
AcDbCircle
  8
0
 62
256
370
-1
 48
1.0
  6
ByLayer
 10
-193.08333333333354
 20
-3.3600000000000136
 30
0.0
 40
1.575
  0
CIRCLE
  5
A3
100
AcDbEntity
100
AcDbCircle
  8
0
 62
256
370
-1
 48
1.0
  6
ByLayer
 10
-256.64000000000004
 20
-19.75
 30
0.0
 40
1.575
  0
CIRCLE
  5
A4
100
AcDbEntity
100
AcDbCircle
  8
0
 62
256
370
-1
 48
1.0
  6
ByLayer
 10
-19.75
 20
-516.63999999999987
 30
0.0
 40
1.574999999999998
  0
CIRCLE
  5
A5
100
AcDbEntity
100
AcDbCircle
  8
0
 62
256
370
-1
 48
1.0
  6
ByLayer
 10
-256.64000000000004
 20
-275.25
 30
0.0
 40
1.574999999999996
  0
CIRCLE
  5
A6
100
AcDbEntity
100
AcDbCircle
  8
0
 62
256
370
-1
 48
1.0
  6
ByLayer
 10
-240.24999999999994
 20
-516.63999999999987
 30
0.0
 40
1.574999999999998
  0
CIRCLE
  5
A7
100
AcDbEntity
100
AcDbCircle
  8
0
 62
256
370
-1
 48
1.0
  6
ByLayer
 10
-3.3600000000000136
 20
-275.25
 30
0.0
 40
1.574999999999996
  0
CIRCLE
  5
A8
100
AcDbEntity
100
AcDbCircle
  8
0
 62
256
370
-1
 48
1.0
  6
ByLayer
 10
-3.3600000000000705
 20
-19.75
 30
0.0
 40
1.575
  0
CIRCLE
  5
A9
100
AcDbEntity
100
AcDbCircle
  8
0
 62
256
370
-1
 48
1.0
  6
ByLayer
 10
-66.916666666666515
 20
-3.3600000000000136
 30
0.0
 40
1.575
  0
CIRCLE
  5
AA
100
AcDbEntity
100
AcDbCircle
  8
0
 62
256
370
-1
 48
1.0
  6
ByLayer
 10
-66.916666666666742
 20
-516.63999999999987
 30
0.0
 40
1.5750000000000159
  0
ENDBLK
  5
AB
100
AcDbEntity
  8
0
100
AcDbBlockEnd
  0
BLOCK
  5
AC
100
AcDbEntity
  8
0
100
AcDbBlockBegin
  2
drawer_front
 70
0
 10
0.0
 20
0.0
 30
0.0
  3
drawer_front
  1

  0
LWPOLYLINE
  5
AD
  8
0
 62
256
370
-1
 48
1.0
  6
ByLayer
100
AcDbEntity
100
AcDbPolyline
 90
8
 70
1
 10
-60.333333333333258
 20
-217.6400000000001
 30
0.0
 10
0.0
 20
-217.6400000000001
 30
0.0
 10
0.0
 20
0.0
 30
0.0
 10
-181.0
 20
0.0
 30
0.0
 10
-181.0
 20
-217.6400000000001
 30
0.0
 10
-120.66666666666674
 20
-217.6400000000001
 30
0.0
 10
-120.66666666666674
 20
-224.36000000000013
 30
0.0
 10
-60.333333333333258
 20
-224.36000000000013
 30
0.0
  0
CIRCLE
  5
AE
100
AcDbEntity
100
AcDbCircle
  8
0
 62
256
370
-1
 48
1.0
  6
ByLayer
 10
-90.5
 20
-221.0
 30
0.0
 40
1.5749999999999991
  0
CIRCLE
  5
AF
100
AcDbEntity
100
AcDbCircle
  8
0
 62
256
370
-1
 48
1.0
  6
ByLayer
 10
-30.166666666666742
 20
-69.320000000000164
 30
0.0
 40
1.5750000000000011
  0
CIRCLE
  5
B0
100
AcDbEntity
100
AcDbCircle
  8
0
 62
256
370
-1
 48
1.0
  6
ByLayer
 10
-150.83333333333326
 20
-69.320000000000164
 30
0.0
 40
1.5750000000000011
  0
ENDBLK
  5
B1
100
AcDbEntity
  8
0
100
AcDbBlockEnd
  0
BLOCK
  5
B2
100
AcDbEntity
  8
0
100
AcDbBlockBegin
  2
drawer_support
 70
0
 10
0.0
 20
0.0
 30
0.0
  3
drawer_support
  1

  0
LWPOLYLINE
  5
B3
  8
0
 62
256
370
-1
 48
1.0
  6
ByLayer
100
AcDbEntity
100
AcDbPolyline
 90
40
 70
1
 10
-6.7199999999997999
 20
20.849999999999909
 30
0.0
 10
-11.0
 20
20.849999999999909
 30
0.0
 10
-11.0
 20
19.75
 30
0.0
 42
-2.414213562373094
 10
-11.25
 20
19.5
 30
0.0
 10
-13.75
 20
19.5
 30
0.0
 42
-2.414213562373094
 10
-14.0
 20
19.75
 30
0.0
 10
-14.0
 20
20.849999999999909
 30
0.0
 10
-16.0
 20
20.849999999999909
 30
0.0
 10
-16.0
 20
24.150000000000091
 30
0.0
 10
-14.0
 20
24.150000000000091
 30
0.0
 10
-14.0
 20
25.25
 30
0.0
 42
-2.414213562373094
 10
-13.75
 20
25.5
 30
0.0
 10
-11.25
 20
25.5
 30
0.0
 42
-2.414213562373094
 10
-11.0
 20
25.25
 30
0.0
 10
-11.0
 20
24.150000000000091
 30
0.0
 10
-6.7199999999997999
 20
24.150000000000091
 30
0.0
 10
-6.7199999999997999
 20
30.0
 30
0.0
 10
-187.7199999999998
 20
30.0
 30
0.0
 10
-187.7199999999998
 20
24.150000000000091
 30
0.0
 10
-183.4399999999996
 20
24.150000000000091
 30
0.0
 10
-183.4399999999996
 20
25.25
 30
0.0
 42
-2.414213562373094
 10
-183.1899999999996
 20
25.5
 30
0.0
 10
-180.6899999999996
 20
25.5
 30
0.0
 42
-2.414213562373094
 10
-180.4399999999996
 20
25.25
 30
0.0
 10
-180.4399999999996
 20
24.150000000000091
 30
0.0
 10
-178.4399999999996
 20
24.150000000000091
 30
0.0
 10
-178.4399999999996
 20
20.849999999999909
 30
0.0
 10
-180.4399999999996
 20
20.849999999999909
 30
0.0
 10
-180.4399999999996
 20
19.75
 30
0.0
 42
-2.414213562373094
 10
-180.6899999999996
 20
19.5
 30
0.0
 10
-183.1899999999996
 20
19.5
 30
0.0
 42
-2.414213562373094
 10
-183.4399999999996
 20
19.75
 30
0.0
 10
-183.4399999999996
 20
20.849999999999909
 30
0.0
 10
-187.7199999999998
 20
20.849999999999909
 30
0.0
 10
-187.7199999999998
 20
15.0
 30
0.0
 10
-194.43999999999983
 20
15.0
 30
0.0
 10
-194.43999999999983
 20
0.0
 30
0.0
 10
0.0
 20
0.0
 30
0.0
 10
0.0
 20
15.0
 30
0.0
 10
-6.7200000000000273
 20
15.0
 30
0.0
  0
CIRCLE
  5
B4
100
AcDbEntity
100
AcDbCircle
  8
0
 62
256
370
-1
 48
1.0
  6
ByLayer
 10
-36.886666666666315
 20
15.000000000002728
 30
0.0
 40
1.9999999999999989
  0
CIRCLE
  5
B5
100
AcDbEntity
100
AcDbCircle
  8
0
 62
256
370
-1
 48
1.0
  6
ByLayer
 10
-157.55333333333306
 20
15.000000000002501
 30
0.0
 40
1.9999999999999989
  0
ENDBLK
  5
B6
100
AcDbEntity
  8
0
100
AcDbBlockEnd
  0
BLOCK
  5
B7
100
AcDbEntity
  8
0
100
AcDbBlockBegin
  2
carrier
 70
0
 10
0.0
 20
0.0
 30
0.0
  3
carrier
  1

  0
LWPOLYLINE
  5
B8
  8
0
 62
256
370
-1
 48
1.0
  6
ByLayer
100
AcDbEntity
100
AcDbPolyline
 90
8
 70
1
 10
20.768099243547709
 20
69.71999999999997
 30
0.0
 42
-0.6741998624632394
 10
13.35190075645211
 20
69.71999999999997
 30
0.0
 10
11.059999999999917
 20
69.71999999999997
 30
0.0
 10
11.059999999999917
 20
72.71999999999997
 30
0.0
 10
13.35190075645211
 20
72.71999999999997
 30
0.0
 42
-0.6741998624632453
 10
20.768099243547709
 20
72.719999999999999
 30
0.0
 10
23.059999999999917
 20
72.719999999999999
 30
0.0
 10
23.059999999999917
 20
69.71999999999997
 30
0.0
  0
LWPOLYLINE
  5
B9
  8
0
 62
256
370
-1
 48
1.0
  6
ByLayer
100
AcDbEntity
100
AcDbPolyline
 90
8
 70
1
 10
-215.20809924354788
 20
72.719999999999914
 30
0.0
 42
-0.6741998624632453
 10
-207.79190075645226
 20
72.719999999999942
 30
0.0
 10
-205.50000000000009
 20
72.719999999999942
 30
0.0
 10
-205.50000000000009
 20
69.719999999999942
 30
0.0
 10
-207.79190075645226
 20
69.719999999999942
 30
0.0
 42
-0.6741998624632394
 10
-215.20809924354788
 20
69.719999999999942
 30
0.0
 10
-217.50000000000009
 20
69.719999999999942
 30
0.0
 10
-217.50000000000009
 20
72.719999999999942
 30
0.0
  0
LWPOLYLINE
  5
BA
  8
0
 62
256
370
-1
 48
1.0
  6
ByLayer
100
AcDbEntity
100
AcDbPolyline
 90
4
 70
1
 10
-21.72000000000007
 20
166.00000000000003
 30
0.0
 10
-21.720000000000041
 20
14.999999999999972
 30
0.0
 10
-172.72000000000008
 20
14.999999999999972
 30
0.0
 10
-172.72000000000008
 20
165.99999999999997
 30
0.0
  0
LWPOLYLINE
  5
BB
  8
0
 62
256
370
-1
 48
1.0
  6
ByLayer
100
AcDbEntity
100
AcDbPolyline
 90
4
 70
1
 10
-3.5700000000000784
 20
147.40000000000003
 30
0.0
 10
-6.7200000000000841
 20
147.40000000000001
 30
0.0
 10
-6.7200000000000841
 20
164.20000000000002
 30
0.0
 10
-3.5700000000000784
 20
164.20000000000002
 30
0.0
  0
LWPOLYLINE
  5
BC
  8
0
 62
256
370
-1
 48
1.0
  6
ByLayer
100
AcDbEntity
100
AcDbPolyline
 90
4
 70
1
 10
-187.72000000000008
 20
147.40000000000001
 30
0.0
 10
-190.87000000000009
 20
147.40000000000001
 30
0.0
 10
-190.87000000000009
 20
164.20000000000002
 30
0.0
 10
-187.72000000000008
 20
164.20000000000002
 30
0.0
  0
LWPOLYLINE
  5
BD
  8
0
 62
256
370
-1
 48
1.0
  6
ByLayer
100
AcDbEntity
100
AcDbPolyline
 90
4
 70
1
 10
-190.87000000000009
 20
33.599999999999937
 30
0.0
 10
-187.72000000000008
 20
33.599999999999937
 30
0.0
 10
-187.72000000000008
 20
16.799999999999926
 30
0.0
 10
-190.87000000000009
 20
16.799999999999926
 30
0.0
  0
LWPOLYLINE
  5
BE
  8
0
 62
256
370
-1
 48
1.0
  6
ByLayer
100
AcDbEntity
100
AcDbPolyline
 90
4
 70
1
 10
-3.5700000000000784
 20
16.799999999999926
 30
0.0
 10
-6.7200000000000841
 20
16.799999999999926
 30
0.0
 10
-6.7200000000000841
 20
33.599999999999937
 30
0.0
 10
-3.5700000000000784
 20
33.599999999999937
 30
0.0
  0
LWPOLYLINE
  5
BF
  8
0
 62
256
370
-1
 48
1.0
  6
ByLayer
100
AcDbEntity
100
AcDbPolyline
 90
84
 70
1
 10
7.9299999999999216
 20
123.88
 30
0.0
 10
7.9299999999999216
 20
119.59999999999999
 30
0.0
 10
9.0299999999999159
 20
119.59999999999999
 30
0.0
 42
-2.414213562373094
 10
9.2799999999999159
 20
119.34999999999998
 30
0.0
 10
9.2799999999999159
 20
116.84999999999999
 30
0.0
 42
-2.414213562373094
 10
9.0299999999999159
 20
116.59999999999998
 30
0.0
 10
7.9299999999999216
 20
116.59999999999998
 30
0.0
 10
7.9299999999999216
 20
114.59999999999998
 30
0.0
 10
4.6299999999999102
 20
114.59999999999998
 30
0.0
 10
4.6299999999999102
 20
116.59999999999998
 30
0.0
 10
3.5299999999999159
 20
116.59999999999998
 30
0.0
 42
-2.414213562373094
 10
3.2799999999999159
 20
116.84999999999999
 30
0.0
 10
3.2799999999999159
 20
119.34999999999998
 30
0.0
 42
-2.414213562373094
 10
3.5299999999999159
 20
119.59999999999999
 30
0.0
 10
4.6299999999999102
 20
119.59999999999999
 30
0.0
 10
4.6299999999999102
 20
123.88
 30
0.0
 10
-0.0000000000000568
 20
123.88000000000001
 30
0.0
 10
-0.0000000000001279
 20
181.00000000000009
 30
0.0
 10
-194.44000000000011
 20
181.0
 30
0.0
 10
-194.44000000000017
 20
123.87999999999994
 30
0.0
 10
-199.07000000000008
 20
123.88
 30
0.0
 10
-199.07000000000008
 20
119.59999999999999
 30
0.0
 10
-197.97000000000008
 20
119.59999999999999
 30
0.0
 42
-2.414213562373094
 10
-197.72000000000008
 20
119.34999999999998
 30
0.0
 10
-197.72000000000008
 20
116.84999999999999
 30
0.0
 42
-2.414213562373094
 10
-197.97000000000008
 20
116.59999999999998
 30
0.0
 10
-199.07000000000008
 20
116.59999999999998
 30
0.0
 10
-199.07000000000008
 20
114.59999999999998
 30
0.0
 10
-202.37000000000009
 20
114.59999999999998
 30
0.0
 10
-202.37000000000009
 20
116.59999999999998
 30
0.0
 10
-203.47000000000008
 20
116.59999999999998
 30
0.0
 42
-2.414213562373094
 10
-203.72000000000008
 20
116.84999999999999
 30
0.0
 10
-203.72000000000008
 20
119.34999999999998
 30
0.0
 42
-2.414213562373094
 10
-203.47000000000008
 20
119.59999999999999
 30
0.0
 10
-202.37000000000009
 20
119.59999999999999
 30
0.0
 10
-202.37000000000009
 20
123.88
 30
0.0
 10
-220.5
 20
123.87999999999995
 30
0.0
 10
-220.50000000000009
 20
101.62666666666661
 30
0.0
 10
-227.22000000000008
 20
101.62666666666661
 30
0.0
 10
-227.22000000000008
 20
79.373333333333306
 30
0.0
 10
-220.50000000000009
 20
79.373333333333306
 30
0.0
 10
-220.5
 20
57.119999999999948
 30
0.0
 10
-202.37000000000009
 20
57.119999999999948
 30
0.0
 10
-202.37000000000009
 20
61.399999999999949
 30
0.0
 10
-203.47000000000008
 20
61.399999999999949
 30
0.0
 42
-2.414213562373094
 10
-203.72000000000008
 20
61.649999999999949
 30
0.0
 10
-203.72000000000008
 20
64.149999999999949
 30
0.0
 42
-2.414213562373094
 10
-203.47000000000008
 20
64.399999999999949
 30
0.0
 10
-202.37000000000009
 20
64.399999999999949
 30
0.0
 10
-202.37000000000009
 20
66.399999999999949
 30
0.0
 10
-199.07000000000008
 20
66.399999999999949
 30
0.0
 10
-199.07000000000008
 20
64.399999999999949
 30
0.0
 10
-197.97000000000008
 20
64.399999999999949
 30
0.0
 42
-2.414213562373094
 10
-197.72000000000008
 20
64.149999999999949
 30
0.0
 10
-197.72000000000008
 20
61.649999999999949
 30
0.0
 42
-2.414213562373094
 10
-197.97000000000008
 20
61.399999999999949
 30
0.0
 10
-199.07000000000008
 20
61.399999999999949
 30
0.0
 10
-199.07000000000008
 20
57.119999999999948
 30
0.0
 10
-194.44000000000014
 20
57.119999999999976
 30
0.0
 10
-194.44000000000011
 20
-0.0000000000000853
 30
0.0
 10
0.0
 20
0.0
 30
0.0
 10
0.0
 20
57.120000000000061
 30
0.0
 10
4.6299999999999102
 20
57.119999999999948
 30
0.0
 10
4.6299999999999102
 20
61.399999999999949
 30
0.0
 10
3.5299999999999159
 20
61.399999999999949
 30
0.0
 42
-2.414213562373094
 10
3.2799999999999159
 20
61.649999999999949
 30
0.0
 10
3.2799999999999159
 20
64.149999999999949
 30
0.0
 42
-2.414213562373094
 10
3.5299999999999159
 20
64.399999999999949
 30
0.0
 10
4.6299999999999102
 20
64.399999999999949
 30
0.0
 10
4.6299999999999102
 20
66.399999999999949
 30
0.0
 10
7.9299999999999216
 20
66.399999999999949
 30
0.0
 10
7.9299999999999216
 20
64.399999999999949
 30
0.0
 10
9.0299999999999159
 20
64.399999999999949
 30
0.0
 42
-2.414213562373094
 10
9.2799999999999159
 20
64.149999999999949
 30
0.0
 10
9.2799999999999159
 20
61.649999999999949
 30
0.0
 42
-2.414213562373094
 10
9.0299999999999159
 20
61.399999999999949
 30
0.0
 10
7.9299999999999216
 20
61.399999999999949
 30
0.0
 10
7.9299999999999216
 20
57.119999999999948
 30
0.0
 10
26.059999999999818
 20
57.119999999999976
 30
0.0
 10
26.059999999999917
 20
79.373333333333306
 30
0.0
 10
32.779999999999916
 20
79.373333333333306
 30
0.0
 10
32.779999999999916
 20
101.62666666666667
 30
0.0
 10
26.059999999999917
 20
101.62666666666667
 30
0.0
 10
26.059999999999818
 20
123.88
 30
0.0
  0
CIRCLE
  5
C0
100
AcDbEntity
100
AcDbCircle
  8
0
 62
256
370
-1
 48
1.0
  6
ByLayer
 10
-200.72000000000008
 20
90.499999999999972
 30
0.0
 40
4.0
  0
CIRCLE
  5
C1
100
AcDbEntity
100
AcDbCircle
  8
0
 62
256
370
-1
 48
1.0
  6
ByLayer
 10
-200.72000000000008
 20
74.500000000000171
 30
0.0
 40
3.2000000000000002
  0
CIRCLE
  5
C2
100
AcDbEntity
100
AcDbCircle
  8
0
 62
256
370
-1
 48
1.0
  6
ByLayer
 10
-200.72000000000008
 20
106.49999999999974
 30
0.0
 40
3.2000000000000002
  0
CIRCLE
  5
C3
100
AcDbEntity
100
AcDbCircle
  8
0
 62
256
370
-1
 48
1.0
  6
ByLayer
 10
6.2799999999999159
 20
90.499999999999972
 30
0.0
 40
4.0
  0
CIRCLE
  5
C4
100
AcDbEntity
100
AcDbCircle
  8
0
 62
256
370
-1
 48
1.0
  6
ByLayer
 10
6.2799999999999159
 20
74.500000000000171
 30
0.0
 40
3.2000000000000002
  0
CIRCLE
  5
C5
100
AcDbEntity
100
AcDbCircle
  8
0
 62
256
370
-1
 48
1.0
  6
ByLayer
 10
6.2799999999999159
 20
106.49999999999974
 30
0.0
 40
3.2000000000000002
  0
CIRCLE
  5
C6
100
AcDbEntity
100
AcDbCircle
  8
0
 62
256
370
-1
 48
1.0
  6
ByLayer
 10
-97.220000000000084
 20
7.5
 30
0.0
 40
2.6249999999999969
  0
CIRCLE
  5
C7
100
AcDbEntity
100
AcDbCircle
  8
0
 62
256
370
-1
 48
1.0
  6
ByLayer
 10
-14.220000000000084
 20
90.500000000000028
 30
0.0
 40
2.6249999999999969
  0
CIRCLE
  5
C8
100
AcDbEntity
100
AcDbCircle
  8
0
 62
256
370
-1
 48
1.0
  6
ByLayer
 10
-14.220000000000084
 20
173.50000000000003
 30
0.0
 40
2.6249999999999969
  0
CIRCLE
  5
C9
100
AcDbEntity
100
AcDbCircle
  8
0
 62
256
370
-1
 48
1.0
  6
ByLayer
 10
-180.22000000000008
 20
173.5
 30
0.0
 40
2.6249999999999969
  0
CIRCLE
  5
CA
100
AcDbEntity
100
AcDbCircle
  8
0
 62
256
370
-1
 48
1.0
  6
ByLayer
 10
-97.220000000000084
 20
173.5
 30
0.0
 40
2.6249999999999969
  0
CIRCLE
  5
CB
100
AcDbEntity
100
AcDbCircle
  8
0
 62
256
370
-1
 48
1.0
  6
ByLayer
 10
-180.22000000000008
 20
90.5
 30
0.0
 40
2.6249999999999969
  0
CIRCLE
  5
CC
100
AcDbEntity
100
AcDbCircle
  8
0
 62
256
370
-1
 48
1.0
  6
ByLayer
 10
-180.22000000000008
 20
7.4999999999999716
 30
0.0
 40
2.6249999999999969
  0
CIRCLE
  5
CD
100
AcDbEntity
100
AcDbCircle
  8
0
 62
256
370
-1
 48
1.0
  6
ByLayer
 10
-14.220000000000084
 20
7.5000000000000284
 30
0.0
 40
2.6249999999999969
  0
ENDBLK
  5
CE
100
AcDbEntity
  8
0
100
AcDbBlockEnd
  0
BLOCK
  5
CF
100
AcDbEntity
  8
0
100
AcDbBlockBegin
  2
bed_backing
 70
0
 10
0.0
 20
0.0
 30
0.0
  3
bed_backing
  1

  0
LWPOLYLINE
  5
D0
  8
0
 62
256
370
-1
 48
1.0
  6
ByLayer
100
AcDbEntity
100
AcDbPolyline
 90
7
 70
1
 10
-126.0
 20
141.00000000000009
 30
0.0
 10
-126.0
 20
136.00000000000006
 30
0.0
 42
-0.4142135623730951
 10
-136.0
 20
126.00000000000006
 30
0.0
 10
-141.0
 20
126.00000000000006
 30
0.0
 10
-141.0
 20
0.0000000000000568
 30
0.0
 10
0.0
 20
0.0
 30
0.0
 10
0.0
 20
141.00000000000006
 30
0.0
  0
CIRCLE
  5
D1
100
AcDbEntity
100
AcDbCircle
  8
0
 62
256
370
-1
 48
1.0
  6
ByLayer
 10
-30.0
 20
111.00000000000006
 30
0.0
 40
4.0
  0
CIRCLE
  5
D2
100
AcDbEntity
100
AcDbCircle
  8
0
 62
256
370
-1
 48
1.0
  6
ByLayer
 10
-30.0
 20
30.000000000000057
 30
0.0
 40
4.0
  0
CIRCLE
  5
D3
100
AcDbEntity
100
AcDbCircle
  8
0
 62
256
370
-1
 48
1.0
  6
ByLayer
 10
-20.0
 20
121.00000000000006
 30
0.0
 40
2.0
  0
CIRCLE
  5
D4
100
AcDbEntity
100
AcDbCircle
  8
0
 62
256
370
-1
 48
1.0
  6
ByLayer
 10
-20.0
 20
20.000000000000057
 30
0.0
 40
2.0
  0
CIRCLE
  5
D5
100
AcDbEntity
100
AcDbCircle
  8
0
 62
256
370
-1
 48
1.0
  6
ByLayer
 10
-121.0
 20
20.000000000000057
 30
0.0
 40
2.0
  0
CIRCLE
  5
D6
100
AcDbEntity
100
AcDbCircle
  8
0
 62
256
370
-1
 48
1.0
  6
ByLayer
 10
-121.0
 20
121.00000000000011
 30
0.0
 40
2.0
  0
CIRCLE
  5
D7
100
AcDbEntity
100
AcDbCircle
  8
0
 62
256
370
-1
 48
1.0
  6
ByLayer
 10
-111.0
 20
30.000000000000057
 30
0.0
 40
4.0
  0
CIRCLE
  5
D8
100
AcDbEntity
100
AcDbCircle
  8
0
 62
256
370
-1
 48
1.0
  6
ByLayer
 10
-111.0
 20
111.00000000000009
 30
0.0
 40
4.0
  0
CIRCLE
  5
D9
100
AcDbEntity
100
AcDbCircle
  8
0
 62
256
370
-1
 48
1.0
  6
ByLayer
 10
-9.5
 20
55.220000000000084
 30
0.0
 40
2.0
  0
ENDBLK
  5
DA
100
AcDbEntity
  8
0
100
AcDbBlockEnd
  0
BLOCK
  5
DB
100
AcDbEntity
  8
0
100
AcDbBlockBegin
  2
bed_interface
 70
0
 10
0.0
 20
0.0
 30
0.0
  3
bed_interface
  1

  0
LWPOLYLINE
  5
DC
  8
0
 62
256
370
-1
 48
1.0
  6
ByLayer
100
AcDbEntity
100
AcDbPolyline
 90
7
 70
1
 10
-126.00000000000001
 20
141.00000000000006
 30
0.0
 10
-126.00000000000001
 20
136.00000000000006
 30
0.0
 42
-0.4142135623730951
 10
-136.00000000000006
 20
126.00000000000003
 30
0.0
 10
-141.0
 20
126.00000000000003
 30
0.0
 10
-141.00000000000006
 20
0.0000000000000284
 30
0.0
 10
0.0
 20
0.0
 30
0.0
 10
-0.0000000000000142
 20
141.0
 30
0.0
  0
CIRCLE
  5
DD
100
AcDbEntity
100
AcDbCircle
  8
0
 62
256
370
-1
 48
1.0
  6
ByLayer
 10
-20.000000000000014
 20
121.00000000000006
 30
0.0
 40
4.0000000000000018
  0
CIRCLE
  5
DE
100
AcDbEntity
100
AcDbCircle
  8
0
 62
256
370
-1
 48
1.0
  6
ByLayer
 10
-20.000000000000014
 20
20.0
 30
0.0
 40
4.0000000000000018
  0
CIRCLE
  5
DF
100
AcDbEntity
100
AcDbCircle
  8
0
 62
256
370
-1
 48
1.0
  6
ByLayer
 10
-121.00000000000001
 20
20.000000000000028
 30
0.0
 40
4.0000000000000018
  0
CIRCLE
  5
E0
100
AcDbEntity
100
AcDbCircle
  8
0
 62
256
370
-1
 48
1.0
  6
ByLayer
 10
-120.99999999999999
 20
121.00000000000007
 30
0.0
 40
4.0000000000000018
  0
ENDBLK
  5
E1
100
AcDbEntity
  8
0
100
AcDbBlockEnd
  0
BLOCK
  5
E2
100
AcDbEntity
  8
0
100
AcDbBlockBegin
  2
frame_laser_big
 70
0
 10
0.0
 20
0.0
 30
0.0
  3
frame_laser_big
  1

  0
LWPOLYLINE
  5
E3
  8
0
 62
256
370
-1
 48
1.0
  6
ByLayer
100
AcDbEntity
100
AcDbPolyline
 90
28
 70
1
 10
-12.499999999999922
 20
48.51925930159215
 30
0.0
 42
-0.9258200997725511
 10
-12.499999999999929
 20
61.48074069840785
 30
0.0
 10
-12.499999999999929
 20
78.0
 30
0.0
 10
-23.999999999999986
 20
78.0
 30
0.0
 10
-23.999999999999993
 20
73.0
 30
0.0
 10
-17.499999999999929
 20
73.0
 30
0.0
 10
-17.499999999999922
 20
67.000000000000014
 30
0.0
 10
-23.999999999999993
 20
67.000000000000014
 30
0.0
 10
-24.0
 20
43.0
 30
0.0
 10
-14.499999999999915
 20
43.0
 30
0.0
 10
-14.499999999999915
 20
40.0
 30
0.0
 10
-24.0
 20
40.0
 30
0.0
 10
-24.0
 20
0.0
 30
0.0
 10
0.0
 20
0.0
 30
0.0
 10
0.0000000000000284
 20
40.0
 30
0.0
 10
-9.5000000000000711
 20
40.0
 30
0.0
 10
-9.5000000000000711
 20
43.0
 30
0.0
 10
0.0000000000000284
 20
43.0
 30
0.0
 10
0.0000000000000284
 20
67.000000000000014
 30
0.0
 10
-6.5000000000000568
 20
67.000000000000014
 30
0.0
 10
-6.5000000000000497
 20
73.0
 30
0.0
 10
0.0000000000000284
 20
73.0
 30
0.0
 10
0.0000000000000284
 20
78.0
 30
0.0
 10
-11.499999999999929
 20
78.000000000000028
 30
0.0
 10
-11.499999999999929
 20
61.480740698407871
 30
0.0
 42
-0.9258200997725511
 10
-11.499999999999929
 20
48.51925930159215
 30
0.0
 10
-11.499999999999922
 20
40.0
 30
0.0
 10
-12.499999999999922
 20
40.0
 30
0.0
  0
CIRCLE
  5
E4
100
AcDbEntity
100
AcDbCircle
  8
0
 62
256
370
-1
 48
1.0
  6
ByLayer
 10
-3.9999999999999858
 20
36.060000000000016
 30
0.0
 40
1.9999999999999989
  0
CIRCLE
  5
E5
100
AcDbEntity
100
AcDbCircle
  8
0
 62
256
370
-1
 48
1.0
  6
ByLayer
 10
-19.999999999999993
 20
36.060000000000016
 30
0.0
 40
1.9999999999999989
  0
CIRCLE
  5
E6
100
AcDbEntity
100
AcDbCircle
  8
0
 62
256
370
-1
 48
1.0
  6
ByLayer
 10
-12.0
 20
25.0
 30
0.0
 40
1.575000000000004
  0
CIRCLE
  5
E7
100
AcDbEntity
100
AcDbCircle
  8
0
 62
256
370
-1
 48
1.0
  6
ByLayer
 10
-12.0
 20
10.0
 30
0.0
 40
1.574999999999996
  0
ENDBLK
  5
E8
100
AcDbEntity
  8
0
100
AcDbBlockEnd
  0
BLOCK
  5
E9
100
AcDbEntity
  8
0
100
AcDbBlockBegin
  2
drawer_bottom2
 70
0
 10
0.0
 20
0.0
 30
0.0
  3
drawer_bottom2
  1

  0
LWPOLYLINE
  5
EA
  8
0
 62
256
370
-1
 48
1.0
  6
ByLayer
100
AcDbEntity
100
AcDbPolyline
 90
64
 70
1
 10
181.0
 20
-10.950000000000017
 30
0.0
 10
176.72000000000003
 20
-10.950000000000003
 30
0.0
 10
176.72000000000003
 20
-9.8499999999999659
 30
0.0
 42
2.414213562373094
 10
176.47000000000003
 20
-9.6000000000000369
 30
0.0
 10
173.97000000000003
 20
-9.6000000000000227
 30
0.0
 42
2.414213562373094
 10
173.72000000000003
 20
-9.8500000000000227
 30
0.0
 10
173.71999999999997
 20
-10.949999999999946
 30
0.0
 10
171.71999999999997
 20
-10.950000000000003
 30
0.0
 10
171.71999999999997
 20
-14.249999999999986
 30
0.0
 10
173.72000000000003
 20
-14.250000000000028
 30
0.0
 10
173.71999999999997
 20
-15.34999999999998
 30
0.0
 42
2.414213562373094
 10
173.97000000000003
 20
-15.600000000000023
 30
0.0
 10
176.47000000000003
 20
-15.599999999999994
 30
0.0
 42
2.414213562373094
 10
176.72000000000003
 20
-15.350000000000023
 30
0.0
 10
176.72000000000003
 20
-14.249999999999972
 30
0.0
 10
181.0
 20
-14.250000000000014
 30
0.0
 10
181.0
 20
-23.519999999999911
 30
0.0
 10
187.72000000000003
 20
-23.519999999999797
 30
0.0
 10
187.72000000000008
 20
-40.319999999999794
 30
0.0
 10
174.28000000000003
 20
-40.319999999999894
 30
0.0
 10
174.28000000000003
 20
-57.119999999999933
 30
0.0
 10
6.7200000000000273
 20
-57.120000000000047
 30
0.0
 10
6.7199999999999847
 20
-40.319999999999979
 30
0.0
 10
-6.7200000000000415
 20
-40.32000000000005
 30
0.0
 10
-6.7200000000000415
 20
-23.520000000000053
 30
0.0
 10
-0.0000000000000284
 20
-23.520000000000294
 30
0.0
 10
0.0000000000000142
 20
-14.250000000000043
 30
0.0
 10
4.2800000000000011
 20
-14.25
 30
0.0
 10
4.2800000000000011
 20
-15.350000000000051
 30
0.0
 42
2.414213562373094
 10
4.5300000000000011
 20
-15.600000000000037
 30
0.0
 10
7.0300000000000011
 20
-15.60000000000008
 30
0.0
 42
2.414213562373094
 10
7.2800000000000153
 20
-15.350000000000037
 30
0.0
 10
7.2800000000000153
 20
-14.250000000000057
 30
0.0
 10
9.2800000000000296
 20
-14.250000000000014
 30
0.0
 10
9.2800000000000153
 20
-10.950000000000031
 30
0.0
 10
7.2800000000000011
 20
-10.950000000000088
 30
0.0
 10
7.2800000000000011
 20
-9.8500000000000512
 30
0.0
 42
2.414213562373094
 10
7.0300000000000011
 20
-9.6000000000000085
 30
0.0
 10
4.5300000000000011
 20
-9.6000000000000654
 30
0.0
 42
2.414213562373094
 10
4.2800000000000011
 20
-9.8500000000000369
 30
0.0
 10
4.2800000000000011
 20
-10.950000000000088
 30
0.0
 10
0.0
 20
-10.950000000000088
 30
0.0
 10
0.0
 20
0.0
 30
0.0
 10
60.333333333333329
 20
-0.0000000000000142
 30
0.0
 10
60.333333333333321
 20
-6.7199999999999847
 30
0.0
 10
88.84999999999998
 20
-6.7199999999999847
 30
0.0
 10
88.84999999999998
 20
-10.999999999999957
 30
0.0
 10
87.749999999999986
 20
-10.999999999999957
 30
0.0
 42
2.4142135623731251
 10
87.499999999999972
 20
-11.249999999999957
 30
0.0
 10
87.499999999999986
 20
-13.749999999999957
 30
0.0
 42
2.414213562373094
 10
87.749999999999972
 20
-13.999999999999972
 30
0.0
 10
88.84999999999998
 20
-13.999999999999972
 30
0.0
 10
88.84999999999998
 20
-15.999999999999972
 30
0.0
 10
92.149999999999991
 20
-15.999999999999972
 30
0.0
 10
92.149999999999977
 20
-13.999999999999972
 30
0.0
 10
93.249999999999986
 20
-13.999999999999972
 30
0.0
 42
2.414213562373094
 10
93.499999999999986
 20
-13.749999999999957
 30
0.0
 10
93.499999999999972
 20
-11.249999999999957
 30
0.0
 42
2.414213562373094
 10
93.249999999999986
 20
-10.999999999999957
 30
0.0
 10
92.149999999999991
 20
-10.999999999999957
 30
0.0
 10
92.149999999999991
 20
-6.7199999999999847
 30
0.0
 10
120.66666666666666
 20
-6.7199999999999136
 30
0.0
 10
120.66666666666664
 20
0.0000000000000426
 30
0.0
 10
181.0
 20
0.0000000000001847
 30
0.0
  0
ENDBLK
  5
EB
100
AcDbEntity
  8
0
100
AcDbBlockEnd
  0
BLOCK
  5
EC
100
AcDbEntity
  8
0
100
AcDbBlockBegin
  2
frame_right
 70
0
 10
0.0
 20
0.0
 30
0.0
  3
frame_right
  1

  0
LWPOLYLINE
  5
ED
  8
0
 62
256
370
-1
 48
1.0
  6
ByLayer
100
AcDbEntity
100
AcDbPolyline
 90
4
 70
1
 10
-28.973333333333471
 20
225.0
 30
0.0
 10
-51.226666666666802
 20
225.0
 30
0.0
 10
-51.226666666666802
 20
230.88
 30
0.0
 10
-28.973333333333471
 20
230.88
 30
0.0
  0
LWPOLYLINE
  5
EE
  8
0
 62
256
370
-1
 48
1.0
  6
ByLayer
100
AcDbEntity
100
AcDbPolyline
 90
84
 70
1
 10
-6.7200000000000841
 20
243.09999999999999
 30
0.0
 10
-11.000000000000085
 20
243.09999999999999
 30
0.0
 10
-11.000000000000085
 20
241.99999999999997
 30
0.0
 42
-2.41421356237311
 10
-11.250000000000085
 20
241.75
 30
0.0
 10
-13.750000000000085
 20
241.75
 30
0.0
 42
-2.414213562373094
 10
-14.000000000000085
 20
242.0
 30
0.0
 10
-14.000000000000085
 20
243.09999999999999
 30
0.0
 10
-16.000000000000085
 20
243.09999999999999
 30
0.0
 10
-16.000000000000085
 20
246.39999999999998
 30
0.0
 10
-14.000000000000085
 20
246.39999999999998
 30
0.0
 10
-14.000000000000085
 20
247.5
 30
0.0
 42
-2.414213562373094
 10
-13.750000000000085
 20
247.75
 30
0.0
 10
-11.250000000000085
 20
247.75
 30
0.0
 42
-2.414213562373094
 10
-11.000000000000085
 20
247.5
 30
0.0
 10
-11.000000000000085
 20
246.39999999999998
 30
0.0
 10
-6.7200000000000841
 20
246.39999999999998
 30
0.0
 10
-6.7199999999997999
 20
498.59999999999991
 30
0.0
 10
-11.319999999999823
 20
498.59999999999991
 30
0.0
 10
-11.319999999999823
 20
497.49999999999989
 30
0.0
 42
-2.414213562373094
 10
-11.569999999999823
 20
497.24999999999989
 30
0.0
 10
-14.069999999999823
 20
497.24999999999989
 30
0.0
 42
-2.414213562373094
 10
-14.319999999999823
 20
497.49999999999989
 30
0.0
 10
-14.319999999999823
 20
498.59999999999991
 30
0.0
 10
-16.319999999999823
 20
498.59999999999991
 30
0.0
 10
-16.319999999999823
 20
501.89999999999992
 30
0.0
 10
-14.319999999999823
 20
501.89999999999992
 30
0.0
 10
-14.319999999999823
 20
502.99999999999989
 30
0.0
 42
-2.414213562373094
 10
-14.069999999999823
 20
503.24999999999989
 30
0.0
 10
-11.569999999999823
 20
503.24999999999989
 30
0.0
 42
-2.414213562373094
 10
-11.319999999999823
 20
502.99999999999989
 30
0.0
 10
-11.319999999999823
 20
501.89999999999992
 30
0.0
 10
-6.7199999999997999
 20
501.89999999999992
 30
0.0
 10
-6.720000000000482
 20
513.27999999999997
 30
0.0
 10
-28.973333333333784
 20
513.27999999999997
 30
0.0
 10
-28.973333333333784
 20
520.0
 30
0.0
 10
-51.226666666667114
 20
519.99999999999989
 30
0.0
 10
-51.226666666667114
 20
513.27999999999997
 30
0.0
 10
-73.480000000000459
 20
513.27999999999997
 30
0.0
 10
-73.480000000000459
 20
501.89999999999992
 30
0.0
 10
-68.88000000000045
 20
501.89999999999992
 30
0.0
 10
-68.88000000000045
 20
502.99999999999989
 30
0.0
 42
-2.414213562373094
 10
-68.63000000000045
 20
503.24999999999989
 30
0.0
 10
-66.13000000000045
 20
503.24999999999989
 30
0.0
 42
-2.414213562373094
 10
-65.88000000000045
 20
502.99999999999989
 30
0.0
 10
-65.88000000000045
 20
501.89999999999992
 30
0.0
 10
-63.88000000000045
 20
501.89999999999992
 30
0.0
 10
-63.88000000000045
 20
498.59999999999991
 30
0.0
 10
-65.88000000000045
 20
498.59999999999991
 30
0.0
 10
-65.88000000000045
 20
497.49999999999989
 30
0.0
 42
-2.414213562373094
 10
-66.13000000000045
 20
497.24999999999989
 30
0.0
 10
-68.63000000000045
 20
497.24999999999989
 30
0.0
 42
-2.414213562373094
 10
-68.88000000000045
 20
497.49999999999989
 30
0.0
 10
-68.88000000000045
 20
498.59999999999991
 30
0.0
 10
-73.480000000000459
 20
498.59999999999991
 30
0.0
 10
-73.480000000000189
 20
246.40000000000001
 30
0.0
 10
-69.200000000000188
 20
246.39999999999998
 30
0.0
 10
-69.200000000000188
 20
247.5
 30
0.0
 42
-2.414213562373094
 10
-68.950000000000188
 20
247.75
 30
0.0
 10
-66.450000000000188
 20
247.75
 30
0.0
 42
-2.414213562373094
 10
-66.200000000000188
 20
247.5
 30
0.0
 10
-66.200000000000188
 20
246.39999999999998
 30
0.0
 10
-64.200000000000188
 20
246.39999999999998
 30
0.0
 10
-64.200000000000188
 20
243.09999999999999
 30
0.0
 10
-66.200000000000188
 20
243.09999999999999
 30
0.0
 10
-66.200000000000188
 20
242.0
 30
0.0
 42
-2.414213562373094
 10
-66.450000000000188
 20
241.75
 30
0.0
 10
-68.950000000000188
 20
241.75
 30
0.0
 42
-2.41421356237311
 10
-69.200000000000188
 20
241.99999999999997
 30
0.0
 10
-69.200000000000188
 20
243.09999999999999
 30
0.0
 10
-73.480000000000189
 20
243.09999999999999
 30
0.0
 10
-73.480000000000175
 20
225.0
 30
0.0
 10
-80.200000000000045
 20
225.0
 30
0.0
 10
-80.19999999999996
 20
0.0
 30
0.0
 10
-73.479999999999876
 20
0.0
 30
0.0
 10
-73.479999999999876
 20
6.7199999999999989
 30
0.0
 10
-51.226666666666532
 20
6.7199999999999989
 30
0.0
 10
-51.226666666666532
 20
0.0
 30
0.0
 10
-28.973333333333215
 20
0.0
 30
0.0
 10
-28.973333333333215
 20
6.7199999999999989
 30
0.0
 10
-6.7199999999998568
 20
6.7199999999999989
 30
0.0
 10
-6.7199999999998568
 20
0.0
 30
0.0
 10
0.0
 20
0.0
 30
0.0
 10
0.0
 20
225.0
 30
0.0
 10
-6.7200000000000841
 20
225.0
 30
0.0
  0
CIRCLE
  5
EF
100
AcDbEntity
100
AcDbCircle
  8
0
 62
256
370
-1
 48
1.0
  6
ByLayer
 10
-40.099999999999866
 20
3.3599999999999
 30
0.0
 40
1.5749999999999931
  0
CIRCLE
  5
F0
100
AcDbEntity
100
AcDbCircle
  8
0
 62
256
370
-1
 48
1.0
  6
ByLayer
 10
-40.100000000000449
 20
516.63999999999999
 30
0.0
 40
1.574999999999988
  0
ENDBLK
  5
F1
100
AcDbEntity
  8
0
100
AcDbBlockEnd
  0
BLOCK
  5
F2
100
AcDbEntity
  8
0
100
AcDbBlockBegin
  2
door
 70
0
 10
0.0
 20
0.0
 30
0.0
  3
door
  1

  0
LWPOLYLINE
  5
F3
  8
0
 62
256
370
-1
 48
1.0
  6
ByLayer
100
AcDbEntity
100
AcDbPolyline
 90
12
 70
1
 10
0.0
 20
0.0
 30
0.0
 10
-197.29999999999995
 20
-0.0000000000001137
 30
0.0
 10
-197.29999999999995
 20
-60.000000000000114
 30
0.0
 10
-192.29999999999995
 20
-60.000000000000114
 30
0.0
 10
-192.29999999999995
 20
-50.000000000000114
 30
0.0
 10
-189.14999999999986
 20
-50.000000000000114
 30
0.0
 10
-189.14999999999986
 20
-173.24000000000012
 30
0.0
 10
-8.1499999999998636
 20
-173.24000000000001
 30
0.0
 10
-8.1499999999998636
 20
-50.0
 30
0.0
 10
-5.0
 20
-50.0
 30
0.0
 10
-4.9999999999997726
 20
-60.0
 30
0.0
 10
0.0000000000002274
 20
-60.0
 30
0.0
  0
ENDBLK
  5
F4
100
AcDbEntity
  8
0
100
AcDbBlockEnd
  0
BLOCK
  5
F5
100
AcDbEntity
  8
0
100
AcDbBlockBegin
  2
frame_back
 70
0
 10
0.0
 20
0.0
 30
0.0
  3
frame_back
  1

  0
LWPOLYLINE
  5
F6
  8
0
 62
256
370
-1
 48
1.0
  6
ByLayer
100
AcDbEntity
100
AcDbPolyline
 90
16
 70
1
 10
-253.27999999999997
 20
-294.99999999999989
 30
0.0
 10
-253.27999999999997
 20
-519.99999999999989
 30
0.0
 10
-173.33333333333337
 20
-519.99999999999989
 30
0.0
 10
-173.33333333333337
 20
-513.27999999999986
 30
0.0
 10
-86.666666666666742
 20
-513.27999999999986
 30
0.0
 10
-86.666666666666742
 20
-519.99999999999989
 30
0.0
 10
-6.7199999999999704
 20
-519.99999999999989
 30
0.0
 10
-6.7199999999999704
 20
-294.99999999999989
 30
0.0
 10
0.0
 20
-294.99999999999989
 30
0.0
 10
0.0
 20
0.0
 30
0.0
 10
-86.666666666666401
 20
0.0
 30
0.0
 10
-86.666666666666401
 20
-6.7199999999999704
 30
0.0
 10
-173.33333333333309
 20
-6.7199999999999704
 30
0.0
 10
-173.33333333333309
 20
0.0
 30
0.0
 10
-260.0
 20
0.0
 30
0.0
 10
-260.0
 20
-294.99999999999989
 30
0.0
  0
LWPOLYLINE
  5
F7
  8
0
 62
256
370
-1
 48
1.0
  6
ByLayer
100
AcDbEntity
100
AcDbPolyline
 90
28
 70
1
 10
-123.99999999999994
 20
-480.49999999999989
 30
0.0
 10
-123.99999999999989
 20
-482.49999999999989
 30
0.0
 42
-0.9999999999999998
 10
-135.99999999999989
 20
-482.49999999999989
 30
0.0
 10
-135.99999999999989
 20
-480.49999999999989
 30
0.0
 10
-213.77999999999997
 20
-480.49999999999989
 30
0.0
 10
-213.77999999999997
 20
-506.55999999999983
 30
0.0
 10
-220.5
 20
-506.55999999999983
 30
0.0
 10
-220.5
 20
-294.99999999999989
 30
0.0
 10
-227.21999999999991
 20
-294.99999999999989
 30
0.0
 10
-227.21999999999991
 20
-289.11999999999989
 30
0.0
 10
-220.49999999999989
 20
-289.11999999999989
 30
0.0
 10
-220.5
 20
-154.11999999999983
 30
0.0
 10
-223.64999999999986
 20
-154.11999999999983
 30
0.0
 10
-223.64999999999986
 20
-104.11999999999995
 30
0.0
 10
-220.49999999999989
 20
-104.11999999999983
 30
0.0
 10
-220.49999999999989
 20
-39.499999999999886
 30
0.0
 10
-39.5
 20
-39.499999999999886
 30
0.0
 10
-39.5
 20
-104.11999999999983
 30
0.0
 10
-36.349999999999966
 20
-104.11999999999995
 30
0.0
 10
-36.349999999999966
 20
-154.11999999999983
 30
0.0
 10
-39.499999999999886
 20
-154.11999999999983
 30
0.0
 10
-39.5
 20
-289.11999999999989
 30
0.0
 10
-32.779999999999973
 20
-289.11999999999989
 30
0.0
 10
-32.779999999999973
 20
-294.99999999999989
 30
0.0
 10
-39.5
 20
-294.99999999999989
 30
0.0
 10
-39.5
 20
-506.55999999999983
 30
0.0
 10
-46.21999999999997
 20
-506.55999999999983
 30
0.0
 10
-46.21999999999997
 20
-480.49999999999989
 30
0.0
  0
LWPOLYLINE
  5
F8
  8
0
 62
256
370
-1
 48
1.0
  6
ByLayer
100
AcDbEntity
100
AcDbPolyline
 90
4
 70
1
 10
-155.11999999999989
 20
-485.64499999999987
 30
0.0
 42
-0.9999999999999998
 10
-155.11999999999989
 20
-488.7949999999999
 30
0.0
 10
-159.11999999999989
 20
-488.7949999999999
 30
0.0
 42
-0.9999999999999998
 10
-159.11999999999989
 20
-485.64499999999987
 30
0.0
  0
LWPOLYLINE
  5
F9
  8
0
 62
256
370
-1
 48
1.0
  6
ByLayer
100
AcDbEntity
100
AcDbPolyline
 90
4
 70
1
 10
-104.87999999999988
 20
-488.7949999999999
 30
0.0
 42
-0.9999999999999998
 10
-104.87999999999988
 20
-485.64499999999987
 30
0.0
 10
-100.87999999999988
 20
-485.64499999999987
 30
0.0
 42
-0.9999999999999998
 10
-100.87999999999988
 20
-488.7949999999999
 30
0.0
  0
CIRCLE
  5
FA
100
AcDbEntity
100
AcDbCircle
  8
0
 62
256
370
-1
 48
1.0
  6
ByLayer
 10
-193.08333333333326
 20
-516.63999999999987
 30
0.0
 40
1.5750000000000159
  0
CIRCLE
  5
FB
100
AcDbEntity
100
AcDbCircle
  8
0
 62
256
370
-1
 48
1.0
  6
ByLayer
 10
-193.08333333333337
 20
-3.3599999999998431
 30
0.0
 40
1.575
  0
CIRCLE
  5
FC
100
AcDbEntity
100
AcDbCircle
  8
0
 62
256
370
-1
 48
1.0
  6
ByLayer
 10
-256.63999999999987
 20
-19.749999999999943
 30
0.0
 40
1.575
  0
CIRCLE
  5
FD
100
AcDbEntity
100
AcDbCircle
  8
0
 62
256
370
-1
 48
1.0
  6
ByLayer
 10
-256.63999999999987
 20
-275.24999999999989
 30
0.0
 40
1.574999999999996
  0
CIRCLE
  5
FE
100
AcDbEntity
100
AcDbCircle
  8
0
 62
256
370
-1
 48
1.0
  6
ByLayer
 10
-19.75
 20
-516.63999999999987
 30
0.0
 40
1.574999999999998
  0
CIRCLE
  5
FF
100
AcDbEntity
100
AcDbCircle
  8
0
 62
256
370
-1
 48
1.0
  6
ByLayer
 10
-3.3600000000000136
 20
-275.24999999999989
 30
0.0
 40
1.574999999999996
  0
CIRCLE
  5
100
100
AcDbEntity
100
AcDbCircle
  8
0
 62
256
370
-1
 48
1.0
  6
ByLayer
 10
-240.25
 20
-516.63999999999987
 30
0.0
 40
1.574999999999998
  0
CIRCLE
  5
101
100
AcDbEntity
100
AcDbCircle
  8
0
 62
256
370
-1
 48
1.0
  6
ByLayer
 10
-3.3600000000000136
 20
-19.749999999999943
 30
0.0
 40
1.575
  0
CIRCLE
  5
102
100
AcDbEntity
100
AcDbCircle
  8
0
 62
256
370
-1
 48
1.0
  6
ByLayer
 10
-66.916666666666458
 20
-3.3599999999998431
 30
0.0
 40
1.575
  0
CIRCLE
  5
103
100
AcDbEntity
100
AcDbCircle
  8
0
 62
256
370
-1
 48
1.0
  6
ByLayer
 10
-66.916666666666742
 20
-516.63999999999987
 30
0.0
 40
1.5750000000000159
  0
CIRCLE
  5
104
100
AcDbEntity
100
AcDbCircle
  8
0
 62
256
370
-1
 48
1.0
  6
ByLayer
 10
-26.5
 20
-292.05999999999983
 30
0.0
 40
1.575
  0
CIRCLE
  5
105
100
AcDbEntity
100
AcDbCircle
  8
0
 62
256
370
-1
 48
1.0
  6
ByLayer
 10
-233.5
 20
-292.05999999999983
 30
0.0
 40
1.575
  0
ENDBLK
  5
106
100
AcDbEntity
  8
0
100
AcDbBlockEnd
  0
BLOCK
  5
107
100
AcDbEntity
  8
0
100
AcDbBlockBegin
  2
frame_galvo
 70
0
 10
0.0
 20
0.0
 30
0.0
  3
frame_galvo
  1

  0
LWPOLYLINE
  5
108
  8
0
 62
256
370
-1
 48
1.0
  6
ByLayer
100
AcDbEntity
100
AcDbPolyline
 90
4
 70
1
 10
-20.599999999999909
 20
-8.0000000000001137
 30
0.0
 42
-0.9999999999999998
 10
-16.399999999999864
 20
-8.0000000000001137
 30
0.0
 10
-16.399999999999864
 20
-12.000000000000114
 30
0.0
 42
-0.9999999999999998
 10
-20.599999999999909
 20
-12.000000000000114
 30
0.0
  0
LWPOLYLINE
  5
109
  8
0
 62
256
370
-1
 48
1.0
  6
ByLayer
100
AcDbEntity
100
AcDbPolyline
 90
4
 70
1
 10
-30.899999999999864
 20
-29.000000000000114
 30
0.0
 10
-30.899999999999864
 20
-33.000000000000114
 30
0.0
 42
-0.9999999999999998
 10
-35.099999999999909
 20
-33.000000000000114
 30
0.0
 10
-35.099999999999909
 20
-29.000000000000114
 30
0.0
 42
-0.9999999999999998
  0
LWPOLYLINE
  5
10A
  8
0
 62
256
370
-1
 48
1.0
  6
ByLayer
100
AcDbEntity
100
AcDbPolyline
 90
4
 70
1
 10
-20.599999999999909
 20
-20.500000000000114
 30
0.0
 42
-0.9999999999999998
 10
-16.399999999999864
 20
-20.500000000000114
 30
0.0
 10
-16.399999999999864
 20
-24.500000000000114
 30
0.0
 42
-0.9999999999999998
 10
-20.599999999999909
 20
-24.500000000000114
 30
0.0
  0
LWPOLYLINE
  5
10B
  8
0
 62
256
370
-1
 48
1.0
  6
ByLayer
100
AcDbEntity
100
AcDbPolyline
 90
8
 70
1
 10
-22.0
 20
-65.000000000000114
 30
0.0
 10
0.0
 20
-65.000000000000114
 30
0.0
 10
0.0
 20
0.0
 30
0.0
 10
-66.0
 20
-0.0000000000001137
 30
0.0
 10
-66.0
 20
-65.000000000000114
 30
0.0
 10
-44.0
 20
-65.000000000000114
 30
0.0
 10
-44.0
 20
-71.720000000000113
 30
0.0
 10
-22.0
 20
-71.720000000000113
 30
0.0
  0
CIRCLE
  5
10C
100
AcDbEntity
100
AcDbCircle
  8
0
 62
256
370
-1
 48
1.0
  6
ByLayer
 10
-60.119999999999891
 20
-38.940000000000111
 30
0.0
 40
2.0000000000000071
  0
CIRCLE
  5
10D
100
AcDbEntity
100
AcDbCircle
  8
0
 62
256
370
-1
 48
1.0
  6
ByLayer
 10
-5.8799999999998818
 20
-38.940000000000026
 30
0.0
 40
2.0000000000000071
  0
ENDBLK
  5
10E
100
AcDbEntity
  8
0
100
AcDbBlockEnd
  0
BLOCK
  5
10F
100
AcDbEntity
  8
0
100
AcDbBlockBegin
  2
carrier_window
 70
0
 10
0.0
 20
0.0
 30
0.0
  3
carrier_window
  1

  0
LWPOLYLINE
  5
110
  8
0
 62
256
370
-1
 48
1.0
  6
ByLayer
100
AcDbEntity
100
AcDbPolyline
 90
14
 70
1
 10
11.849999999999909
 20
-49.999999999999886
 30
0.0
 10
11.849999999999909
 20
0.0000000000001137
 30
0.0
 10
0.0
 20
0.0
 30
0.0
 10
0.0
 20
-185.0
 30
0.0
 10
16.799999999999955
 20
-185.0
 30
0.0
 10
16.799999999999955
 20
-190.87999999999988
 30
0.0
 10
33.600000000000136
 20
-190.87999999999988
 30
0.0
 10
33.600000000000136
 20
-185.0
 30
0.0
 10
50.400000000000091
 20
-184.99999999999989
 30
0.0
 10
50.400000000000091
 20
-49.999999999999886
 30
0.0
 10
57.120000000000118
 20
-49.999999999999886
 30
0.0
 10
57.120000000000118
 20
0.0000000000001137
 30
0.0
 10
15.0
 20
0.0000000000001137
 30
0.0
 10
15.0
 20
-49.999999999999886
 30
0.0
  0
ENDBLK
  5
111
100
AcDbEntity
  8
0
100
AcDbBlockEnd
  0
BLOCK
  5
112
100
AcDbEntity
  8
0
100
AcDbBlockBegin
  2
crane_switch
 70
0
 10
0.0
 20
0.0
 30
0.0
  3
crane_switch
  1

  0
LWPOLYLINE
  5
113
  8
0
 62
256
370
-1
 48
1.0
  6
ByLayer
100
AcDbEntity
100
AcDbPolyline
 90
4
 70
1
 10
-3.7500000000001137
 20
5.0000000000000142
 30
0.0
 42
-0.9999999999999998
 10
-6.75
 20
5.0000000000000284
 30
0.0
 10
-6.7500000000001137
 20
65.0
 30
0.0
 42
-0.9999999999999998
 10
-3.7500000000001137
 20
65.000000000000014
 30
0.0
  0
LWPOLYLINE
  5
114
  8
0
 62
256
370
-1
 48
1.0
  6
ByLayer
100
AcDbEntity
100
AcDbPolyline
 90
4
 70
1
 10
-16.250000000000114
 20
65.0
 30
0.0
 42
-0.9999999999999998
 10
-13.250000000000114
 20
65.0
 30
0.0
 10
-13.25
 20
5.0000000000000142
 30
0.0
 42
-0.9999999999999998
 10
-16.250000000000114
 20
5.0
 30
0.0
  0
LWPOLYLINE
  5
115
  8
0
 62
256
370
-1
 48
1.0
  6
ByLayer
100
AcDbEntity
100
AcDbPolyline
 90
4
 70
1
 10
-20.000000000000114
 20
70.0
 30
0.0
 10
-20.0
 20
0.0
 30
0.0
 10
0.0
 20
0.0
 30
0.0
 10
0.0
 20
70.0
 30
0.0
  0
ENDBLK
  5
116
100
AcDbEntity
  8
0
100
AcDbBlockEnd
  0
BLOCK
  5
117
100
AcDbEntity
  8
0
100
AcDbBlockBegin
  2
frame_foot1
 70
0
 10
0.0
 20
0.0
 30
0.0
  3
frame_foot1
  1

  0
LWPOLYLINE
  5
118
  8
0
 62
256
370
-1
 48
1.0
  6
ByLayer
100
AcDbEntity
100
AcDbPolyline
 90
4
 70
1
 10
-80.339999999999989
 20
-20.780000000000086
 30
0.0
 42
-0.9999999999999998
 10
-80.339999999999989
 20
-14.780000000000001
 30
0.0
 10
-60.339999999999989
 20
-14.780000000000086
 30
0.0
 42
-0.9999999999999998
 10
-60.339999999999989
 20
-20.780000000000086
 30
0.0
  0
LWPOLYLINE
  5
119
  8
0
 62
256
370
-1
 48
1.0
  6
ByLayer
100
AcDbEntity
100
AcDbPolyline
 90
4
 70
1
 10
-88.339999999999989
 20
-8.2950000000001012
 30
0.0
 42
-0.9999999999999998
 10
-88.339999999999989
 20
-5.1450000000000955
 30
0.0
 10
-52.339999999999989
 20
-5.1450000000000955
 30
0.0
 42
-0.9999999999999998
 10
-52.339999999999989
 20
-8.2950000000001012
 30
0.0
  0
LWPOLYLINE
  5
11A
  8
0
 62
256
370
-1
 48
1.0
  6
ByLayer
100
AcDbEntity
100
AcDbPolyline
 90
4
 70
1
 10
-80.339999999999989
 20
-35.780000000000086
 30
0.0
 42
-0.9999999999999998
 10
-80.339999999999989
 20
-29.780000000000001
 30
0.0
 10
-60.340000000000003
 20
-29.780000000000001
 30
0.0
 42
-0.9999999999999998
 10
-60.340000000000003
 20
-35.780000000000086
 30
0.0
  0
LWPOLYLINE
  5
11B
  8
0
 62
256
370
-1
 48
1.0
  6
ByLayer
100
AcDbEntity
100
AcDbPolyline
 90
58
 70
1
 10
-127.23999999999998
 20
-31.719999999999999
 30
0.0
 10
-167.55999999999997
 20
-31.720000000000113
 30
0.0
 10
-167.55999999999997
 20
-53.5
 30
0.0
 10
-110.52719697373956
 20
-54.495511279861205
 30
0.0
 10
-110.44
 20
-49.5
 30
0.0
 10
-110.44
 20
-36.060000000000088
 30
0.0
 10
-103.72
 20
-36.060000000000088
 30
0.0
 10
-103.72000000000003
 20
-42.780000000000086
 30
0.0
 10
-94.243333333333339
 20
-42.780000000000086
 30
0.0
 10
-94.243333333333339
 20
-38.500000000000114
 30
0.0
 10
-95.343333333333348
 20
-38.500000000000114
 30
0.0
 42
-2.414213562373094
 10
-95.593333333333348
 20
-38.250000000000114
 30
0.0
 10
-95.593333333333348
 20
-35.75
 30
0.0
 42
-2.414213562373094
 10
-95.343333333333348
 20
-35.500000000000114
 30
0.0
 10
-94.243333333333339
 20
-35.500000000000114
 30
0.0
 10
-94.243333333333339
 20
-33.500000000000114
 30
0.0
 10
-90.943333333333342
 20
-33.500000000000114
 30
0.0
 10
-90.943333333333342
 20
-35.500000000000114
 30
0.0
 10
-89.843333333333348
 20
-35.500000000000114
 30
0.0
 42
-2.414213562373094
 10
-89.593333333333348
 20
-35.75
 30
0.0
 10
-89.593333333333348
 20
-38.250000000000114
 30
0.0
 42
-2.414213562373094
 10
-89.843333333333348
 20
-38.500000000000114
 30
0.0
 10
-90.943333333333342
 20
-38.500000000000114
 30
0.0
 10
-90.943333333333342
 20
-42.780000000000086
 30
0.0
 10
-81.466666666666669
 20
-42.780000000000086
 30
0.0
 10
-81.466666666666669
 20
-49.5
 30
0.0
 10
-59.213333333333345
 20
-49.5
 30
0.0
 10
-59.213333333333345
 20
-42.780000000000086
 30
0.0
 10
-49.736666666666665
 20
-42.780000000000086
 30
0.0
 10
-49.736666666666665
 20
-38.500000000000114
 30
0.0
 10
-50.836666666666659
 20
-38.500000000000114
 30
0.0
 42
-2.414213562373094
 10
-51.086666666666659
 20
-38.250000000000114
 30
0.0
 10
-51.086666666666659
 20
-35.75
 30
0.0
 42
-2.414213562373094
 10
-50.836666666666659
 20
-35.500000000000114
 30
0.0
 10
-49.736666666666665
 20
-35.500000000000114
 30
0.0
 10
-49.736666666666665
 20
-33.500000000000114
 30
0.0
 10
-46.436666666666667
 20
-33.500000000000114
 30
0.0
 10
-46.436666666666667
 20
-35.500000000000114
 30
0.0
 10
-45.336666666666659
 20
-35.500000000000114
 30
0.0
 42
-2.414213562373094
 10
-45.086666666666659
 20
-35.75
 30
0.0
 10
-45.086666666666659
 20
-38.250000000000114
 30
0.0
 42
-2.414213562373094
 10
-45.336666666666659
 20
-38.500000000000114
 30
0.0
 10
-46.436666666666667
 20
-38.500000000000114
 30
0.0
 10
-46.436666666666667
 20
-42.780000000000086
 30
0.0
 10
-36.959999999999972
 20
-42.780000000000086
 30
0.0
 10
-36.960000000000001
 20
-36.060000000000088
 30
0.0
 10
-30.240000000000016
 20
-36.060000000000088
 30
0.0
 10
-30.240000000000016
 20
-49.5
 30
0.0
 10
-30.351624810273812
 20
-55.89498109763079
 30
0.0
 10
26.880000000000081
 20
-56.893962824641108
 30
0.0
 10
26.879999999999953
 20
-31.719999999999999
 30
0.0
 10
-13.440000000000026
 20
-31.719999999999999
 30
0.0
 10
-13.440000000000026
 20
-24.5
 30
0.0
 10
0.0000000000000142
 20
-24.5
 30
0.0
 10
0.0
 20
0.0
 30
0.0
 10
-140.68000000000001
 20
-0.0000000000001137
 30
0.0
 10
-140.68000000000001
 20
-24.5
 30
0.0
 10
-127.23999999999998
 20
-24.5
 30
0.0
  0
CIRCLE
  5
11C
100
AcDbEntity
100
AcDbCircle
  8
0
 62
256
370
-1
 48
1.0
  6
ByLayer
 10
-120.44000000000014
 20
-17.780000000000001
 30
0.0
 40
1.9999999999999989
  0
CIRCLE
  5
11D
100
AcDbEntity
100
AcDbCircle
  8
0
 62
256
370
-1
 48
1.0
  6
ByLayer
 10
-20.239999999999874
 20
-17.780000000000001
 30
0.0
 40
1.9999999999999989
  0
ENDBLK
  5
11E
100
AcDbEntity
  8
0
100
AcDbBlockEnd
  0
BLOCK
  5
11F
100
AcDbEntity
  8
0
100
AcDbBlockBegin
  2
drawer_left
 70
0
 10
0.0
 20
0.0
 30
0.0
  3
drawer_left
  1

  0
LWPOLYLINE
  5
120
  8
0
 62
256
370
-1
 48
1.0
  6
ByLayer
100
AcDbEntity
100
AcDbPolyline
 90
4
 70
1
 10
-50.400000000000034
 20
97.764999999999986
 30
0.0
 10
-35.40000000000002
 20
97.764999999999986
 30
0.0
 10
-35.400000000000006
 20
84.875
 30
0.0
 10
-50.40000000000002
 20
84.875
 30
0.0
  0
LWPOLYLINE
  5
121
  8
0
 62
256
370
-1
 48
1.0
  6
ByLayer
100
AcDbEntity
100
AcDbPolyline
 90
4
 70
1
 10
-30.40000000000002
 20
114.08499999999999
 30
0.0
 10
-50.400000000000041
 20
114.08499999999999
 30
0.0
 10
-50.400000000000034
 20
129.51499999999999
 30
0.0
 10
-30.40000000000002
 20
129.51499999999999
 30
0.0
  0
LWPOLYLINE
  5
122
  8
0
 62
256
370
-1
 48
1.0
  6
ByLayer
100
AcDbEntity
100
AcDbPolyline
 90
4
 70
1
 10
-50.399999999999473
 20
140.03999999999991
 30
0.0
 10
-50.399999999999473
 20
155.03999999999991
 30
0.0
 10
-43.679999999999474
 20
155.03999999999991
 30
0.0
 10
-43.679999999999474
 20
140.03999999999991
 30
0.0
  0
LWPOLYLINE
  5
123
  8
0
 62
256
370
-1
 48
1.0
  6
ByLayer
100
AcDbEntity
100
AcDbPolyline
 90
8
 70
1
 10
-0.0000000000000568
 20
206.52000000000001
 30
0.0
 10
-57.120000000000012
 20
206.52000000000001
 30
0.0
 10
-57.120000000000012
 20
-0.0000000000000355
 30
0.0
 10
-33.599999999999966
 20
-0.0000000000000082
 30
0.0
 10
-33.59999999999998
 20
6.7199999999999891
 30
0.0
 10
-16.799999999999983
 20
6.719999999999998
 30
0.0
 10
-16.799999999999983
 20
0.0
 30
0.0
 10
0.0
 20
0.0
 30
0.0
  0
CIRCLE
  5
124
100
AcDbEntity
100
AcDbCircle
  8
0
 62
256
370
-1
 48
1.0
  6
ByLayer
 10
-46.399999999999473
 20
162.53999999999991
 30
0.0
 40
1.5750000000000111
  0
CIRCLE
  5
125
100
AcDbEntity
100
AcDbCircle
  8
0
 62
256
370
-1
 48
1.0
  6
ByLayer
 10
-44.52000000000001
 20
3.359999999999979
 30
0.0
 40
1.575
  0
CIRCLE
  5
126
100
AcDbEntity
100
AcDbCircle
  8
0
 62
256
370
-1
 48
1.0
  6
ByLayer
 10
-9.9999999999999858
 20
13.44000000000001
 30
0.0
 40
1.575
  0
ENDBLK
  5
127
100
AcDbEntity
  8
0
100
AcDbBlockEnd
  0
BLOCK
  5
128
100
AcDbEntity
  8
0
100
AcDbBlockBegin
  2
frame_foot2
 70
0
 10
0.0
 20
0.0
 30
0.0
  3
frame_foot2
  1

  0
LWPOLYLINE
  5
129
  8
0
 62
256
370
-1
 48
1.0
  6
ByLayer
100
AcDbEntity
100
AcDbPolyline
 90
58
 70
1
 10
26.880000000000109
 20
-31.220000000000027
 30
0.0
 10
-13.440000000000055
 20
-31.220000000000027
 30
0.0
 10
-13.440000000000055
 20
-24.5
 30
0.0
 10
0.0
 20
-24.5
 30
0.0
 10
0.0
 20
0.0
 30
0.0
 10
-140.67999999999984
 20
0.0
 30
0.0
 10
-140.67999999999984
 20
-24.5
 30
0.0
 10
-127.23999999999978
 20
-24.5
 30
0.0
 10
-127.24000000000024
 20
-31.220000000000027
 30
0.0
 10
-167.55999999999995
 20
-31.220000000000027
 30
0.0
 10
-167.55999999999995
 20
-56.893962824640994
 30
0.0
 10
-110.3283751897261
 20
-55.894981097630762
 30
0.0
 10
-110.44000000000005
 20
-49.5
 30
0.0
 10
-110.44000000000005
 20
-36.059999999999945
 30
0.0
 10
-103.72000000000025
 20
-36.059999999999945
 30
0.0
 10
-103.72000000000025
 20
-42.779999999999973
 30
0.0
 10
-94.243333333333339
 20
-42.779999999999973
 30
0.0
 10
-94.243333333333339
 20
-38.5
 30
0.0
 10
-95.343333333333248
 20
-38.5
 30
0.0
 42
-2.414213562373094
 10
-95.593333333333248
 20
-38.25
 30
0.0
 10
-95.593333333333248
 20
-35.75
 30
0.0
 42
-2.414213562373094
 10
-95.343333333333248
 20
-35.5
 30
0.0
 10
-94.243333333333339
 20
-35.5
 30
0.0
 10
-94.243333333333339
 20
-33.5
 30
0.0
 10
-90.943333333333157
 20
-33.5
 30
0.0
 10
-90.943333333333157
 20
-35.5
 30
0.0
 10
-89.843333333333248
 20
-35.5
 30
0.0
 42
-2.414213562373094
 10
-89.593333333333248
 20
-35.75
 30
0.0
 10
-89.593333333333248
 20
-38.25
 30
0.0
 42
-2.414213562373094
 10
-89.843333333333248
 20
-38.5
 30
0.0
 10
-90.943333333333157
 20
-38.5
 30
0.0
 10
-90.943333333333157
 20
-42.779999999999973
 30
0.0
 10
-81.466666666666697
 20
-42.779999999999973
 30
0.0
 10
-81.466666666666697
 20
-49.5
 30
0.0
 10
-59.213333333333139
 20
-49.5
 30
0.0
 10
-59.213333333333139
 20
-42.779999999999973
 30
0.0
 10
-49.736666666666679
 20
-42.779999999999973
 30
0.0
 10
-49.736666666666679
 20
-38.5
 30
0.0
 10
-50.836666666666588
 20
-38.5
 30
0.0
 42
-2.414213562373094
 10
-51.086666666666588
 20
-38.25
 30
0.0
 10
-51.086666666666588
 20
-35.75
 30
0.0
 42
-2.414213562373094
 10
-50.836666666666588
 20
-35.5
 30
0.0
 10
-49.736666666666679
 20
-35.5
 30
0.0
 10
-49.736666666666679
 20
-33.5
 30
0.0
 10
-46.436666666666497
 20
-33.5
 30
0.0
 10
-46.436666666666497
 20
-35.5
 30
0.0
 10
-45.336666666666588
 20
-35.5
 30
0.0
 42
-2.414213562373094
 10
-45.086666666666588
 20
-35.75
 30
0.0
 10
-45.086666666666588
 20
-38.25
 30
0.0
 42
-2.414213562373094
 10
-45.336666666666588
 20
-38.5
 30
0.0
 10
-46.436666666666497
 20
-38.5
 30
0.0
 10
-46.436666666666497
 20
-42.779999999999973
 30
0.0
 10
-36.960000000000036
 20
-42.779999999999973
 30
0.0
 10
-36.960000000000036
 20
-36.059999999999945
 30
0.0
 10
-30.240000000000236
 20
-36.059999999999945
 30
0.0
 10
-30.240000000000236
 20
-49.5
 30
0.0
 10
-30.152803026260244
 20
-54.495511279861148
 30
0.0
 10
26.880000000000109
 20
-53.5
 30
0.0
  0
CIRCLE
  5
12A
100
AcDbEntity
100
AcDbCircle
  8
0
 62
256
370
-1
 48
1.0
  6
ByLayer
 10
-20.239999999999782
 20
-17.779999999999973
 30
0.0
 40
2.0
  0
CIRCLE
  5
12B
100
AcDbEntity
100
AcDbCircle
  8
0
 62
256
370
-1
 48
1.0
  6
ByLayer
 10
-120.44000000000005
 20
-17.779999999999973
 30
0.0
 40
2.0
  0
ENDBLK
  5
12C
100
AcDbEntity
  8
0
100
AcDbBlockEnd
  0
BLOCK
  5
12D
100
AcDbEntity
  8
0
100
AcDbBlockBegin
  2
crane
 70
0
 10
0.0
 20
0.0
 30
0.0
  3
crane
  1

  0
CIRCLE
  5
12E
100
AcDbEntity
100
AcDbCircle
  8
0
 62
256
370
-1
 48
1.0
  6
ByLayer
 10
-61.279999999999902
 20
14.720000000000041
 30
0.0
 40
1.9999999999999989
  0
CIRCLE
  5
12F
100
AcDbEntity
100
AcDbCircle
  8
0
 62
256
370
-1
 48
1.0
  6
ByLayer
 10
-61.279999999999902
 20
14.720000000000041
 30
0.0
 40
6.0
  0
LWPOLYLINE
  5
130
  8
0
 62
256
370
-1
 48
1.0
  6
ByLayer
100
AcDbEntity
100
AcDbPolyline
 90
8
 70
1
 10
-11.708099243547707
 20
47.779999999999845
 30
0.0
 42
0.6741998624632436
 10
-4.2919007564520086
 20
47.779999999999873
 30
0.0
 10
-1.9999999999999147
 20
47.779999999999916
 30
0.0
 10
-1.9999999999999005
 20
50.779999999999859
 30
0.0
 10
-4.2919007564520086
 20
50.779999999999873
 30
0.0
 42
0.6741998624632409
 10
-11.708099243547707
 20
50.779999999999831
 30
0.0
 10
-13.999999999999801
 20
50.779999999999873
 30
0.0
 10
-13.999999999999815
 20
47.779999999999873
 30
0.0
  0
LWPOLYLINE
  5
131
  8
0
 62
256
370
-1
 48
1.0
  6
ByLayer
100
AcDbEntity
100
AcDbPolyline
 90
8
 70
1
 10
-240.26809924354774
 20
47.779999999999916
 30
0.0
 42
0.6741998624632429
 10
-232.8519007564521
 20
47.780000000000001
 30
0.0
 10
-230.55999999999989
 20
47.780000000000001
 30
0.0
 10
-230.55999999999989
 20
50.779999999999944
 30
0.0
 10
-232.8519007564521
 20
50.78000000000003
 30
0.0
 42
0.67419986246324
 10
-240.26809924354774
 20
50.780000000000072
 30
0.0
 10
-242.55999999999989
 20
50.779999999999973
 30
0.0
 10
-242.55999999999989
 20
47.780000000000015
 30
0.0
  0
LWPOLYLINE
  5
132
  8
0
 62
256
370
-1
 48
1.0
  6
ByLayer
100
AcDbEntity
100
AcDbPolyline
 90
4
 70
1
 10
-117.2799999999999
 20
53.280000000000072
 30
0.0
 10
-117.2799999999999
 20
60.000000000000057
 30
0.0
 10
-127.2799999999999
 20
60.000000000000057
 30
0.0
 10
-127.2799999999999
 20
53.280000000000072
 30
0.0
  0
LWPOLYLINE
  5
133
  8
0
 62
256
370
-1
 48
1.0
  6
ByLayer
100
AcDbEntity
100
AcDbPolyline
 90
4
 70
1
 10
-75.529999999999902
 20
60.000000000000071
 30
0.0
 10
-75.529999999999902
 20
53.280000000000086
 30
0.0
 10
-65.529999999999902
 20
53.280000000000086
 30
0.0
 10
-65.529999999999916
 20
60.000000000000057
 30
0.0
  0
LWPOLYLINE
  5
134
  8
0
 62
256
370
-1
 48
1.0
  6
ByLayer
100
AcDbEntity
100
AcDbPolyline
 90
4
 70
1
 10
-169.02999999999992
 20
53.280000000000072
 30
0.0
 10
-169.02999999999992
 20
60.000000000000085
 30
0.0
 10
-179.02999999999992
 20
60.000000000000085
 30
0.0
 10
-179.02999999999992
 20
53.280000000000072
 30
0.0
  0
LWPOLYLINE
  5
135
  8
0
 62
256
370
-1
 48
1.0
  6
ByLayer
100
AcDbEntity
100
AcDbPolyline
 90
4
 70
1
 10
-75.529999999999902
 20
6.7200000000000131
 30
0.0
 10
-75.529999999999902
 20
0.0000000000000284
 30
0.0
 10
-65.529999999999902
 20
0.0000000000000568
 30
0.0
 10
-65.529999999999902
 20
6.7200000000000415
 30
0.0
  0
LWPOLYLINE
  5
136
  8
0
 62
256
370
-1
 48
1.0
  6
ByLayer
100
AcDbEntity
100
AcDbPolyline
 90
4
 70
1
 10
-127.2799999999999
 20
6.7200000000000415
 30
0.0
 10
-127.2799999999999
 20
0.0000000000000853
 30
0.0
 10
-117.2799999999999
 20
0.0000000000000853
 30
0.0
 10
-117.2799999999999
 20
6.7200000000000415
 30
0.0
  0
LWPOLYLINE
  5
137
  8
0
 62
256
370
-1
 48
1.0
  6
ByLayer
100
AcDbEntity
100
AcDbPolyline
 90
4
 70
1
 10
-169.02999999999992
 20
0.0000000000000568
 30
0.0
 10
-169.02999999999992
 20
6.7200000000000557
 30
0.0
 10
-179.02999999999992
 20
6.7200000000000557
 30
0.0
 10
-179.02999999999992
 20
0.0000000000000284
 30
0.0
  0
LWPOLYLINE
  5
138
  8
0
 62
256
370
-1
 48
1.0
  6
ByLayer
100
AcDbEntity
100
AcDbPolyline
 90
12
 70
1
 10
-210.77999999999992
 20
60.000000000000071
 30
0.0
 10
-210.77999999999997
 20
75.500000000000085
 30
0.0
 10
-33.779999999999944
 20
75.500000000000085
 30
0.0
 10
-33.779999999999944
 20
60.000000000000114
 30
0.0
 10
0.0
 20
60.000000000000071
 30
0.0
 10
0.0
 20
0.0
 30
0.0
 10
-33.779999999999916
 20
0.0000000000000284
 30
0.0
 10
-33.779999999999916
 20
-15.499999999999972
 30
0.0
 10
-210.77999999999997
 20
-15.499999999999915
 30
0.0
 10
-210.77999999999992
 20
0.0000000000000568
 30
0.0
 10
-244.55999999999989
 20
0.0000000000000853
 30
0.0
 10
-244.55999999999989
 20
60.000000000000028
 30
0.0
  0
CIRCLE
  5
139
100
AcDbEntity
100
AcDbCircle
  8
0
 62
256
370
-1
 48
1.0
  6
ByLayer
 10
-38.77999999999993
 20
-10.500000000000057
 30
0.0
 40
1.9999999999999989
  0
CIRCLE
  5
13A
100
AcDbEntity
100
AcDbCircle
  8
0
 62
256
370
-1
 48
1.0
  6
ByLayer
 10
-38.77999999999993
 20
70.500000000000227
 30
0.0
 40
1.9999999999999989
  0
CIRCLE
  5
13B
100
AcDbEntity
100
AcDbCircle
  8
0
 62
256
370
-1
 48
1.0
  6
ByLayer
 10
-122.27999999999993
 20
-10.499999999999943
 30
0.0
 40
1.9999999999999989
  0
CIRCLE
  5
13C
100
AcDbEntity
100
AcDbCircle
  8
0
 62
256
370
-1
 48
1.0
  6
ByLayer
 10
-122.2799999999999
 20
70.500000000000057
 30
0.0
 40
1.9999999999999989
  0
CIRCLE
  5
13D
100
AcDbEntity
100
AcDbCircle
  8
0
 62
256
370
-1
 48
1.0
  6
ByLayer
 10
-205.77999999999997
 20
70.500000000000085
 30
0.0
 40
1.9999999999999989
  0
CIRCLE
  5
13E
100
AcDbEntity
100
AcDbCircle
  8
0
 62
256
370
-1
 48
1.0
  6
ByLayer
 10
-205.77999999999997
 20
-10.499999999999943
 30
0.0
 40
1.9999999999999989
  0
CIRCLE
  5
13F
100
AcDbEntity
100
AcDbCircle
  8
0
 62
256
370
-1
 48
1.0
  6
ByLayer
 10
-18.780000000000001
 20
56.640000000000072
 30
0.0
 40
1.6499999999999999
  0
CIRCLE
  5
140
100
AcDbEntity
100
AcDbCircle
  8
0
 62
256
370
-1
 48
1.0
  6
ByLayer
 10
-156.77999999999997
 20
56.640000000000072
 30
0.0
 40
1.6499999999999999
  0
CIRCLE
  5
141
100
AcDbEntity
100
AcDbCircle
  8
0
 62
256
370
-1
 48
1.0
  6
ByLayer
 10
-18.780000000000001
 20
3.3600000000000136
 30
0.0
 40
1.6499999999999999
  0
CIRCLE
  5
142
100
AcDbEntity
100
AcDbCircle
  8
0
 62
256
370
-1
 48
1.0
  6
ByLayer
 10
-156.77999999999997
 20
3.3600000000000847
 30
0.0
 40
1.6499999999999999
  0
CIRCLE
  5
143
100
AcDbEntity
100
AcDbCircle
  8
0
 62
256
370
-1
 48
1.0
  6
ByLayer
 10
-81.77999999999993
 20
70.500000000000085
 30
0.0
 40
1.6499999999999999
  0
CIRCLE
  5
144
100
AcDbEntity
100
AcDbCircle
  8
0
 62
256
370
-1
 48
1.0
  6
ByLayer
 10
-81.779999999999859
 20
-10.499999999999915
 30
0.0
 40
1.6499999999999999
  0
CIRCLE
  5
145
100
AcDbEntity
100
AcDbCircle
  8
0
 62
256
370
-1
 48
1.0
  6
ByLayer
 10
-162.77999999999986
 20
-10.499999999999915
 30
0.0
 40
1.6499999999999999
  0
CIRCLE
  5
146
100
AcDbEntity
100
AcDbCircle
  8
0
 62
256
370
-1
 48
1.0
  6
ByLayer
 10
-162.77999999999997
 20
70.500000000000114
 30
0.0
 40
1.6499999999999999
  0
CIRCLE
  5
147
100
AcDbEntity
100
AcDbCircle
  8
0
 62
256
370
-1
 48
1.0
  6
ByLayer
 10
-225.77999999999992
 20
3.3600000000000705
 30
0.0
 40
1.6499999999999999
  0
CIRCLE
  5
148
100
AcDbEntity
100
AcDbCircle
  8
0
 62
256
370
-1
 48
1.0
  6
ByLayer
 10
-87.77999999999993
 20
3.3600000000000563
 30
0.0
 40
1.6499999999999999
  0
CIRCLE
  5
149
100
AcDbEntity
100
AcDbCircle
  8
0
 62
256
370
-1
 48
1.0
  6
ByLayer
 10
-225.77999999999992
 20
56.6400000000001
 30
0.0
 40
1.6499999999999999
  0
CIRCLE
  5
14A
100
AcDbEntity
100
AcDbCircle
  8
0
 62
256
370
-1
 48
1.0
  6
ByLayer
 10
-87.77999999999993
 20
56.640000000000086
 30
0.0
 40
1.6499999999999999
  0
CIRCLE
  5
14B
100
AcDbEntity
100
AcDbCircle
  8
0
 62
256
370
-1
 48
1.0
  6
ByLayer
 10
-106.77999999999992
 20
45.500000000000071
 30
0.0
 40
1.6499999999999999
  0
CIRCLE
  5
14C
100
AcDbEntity
100
AcDbCircle
  8
0
 62
256
370
-1
 48
1.0
  6
ByLayer
 10
-106.7799999999999
 20
14.500000000000057
 30
0.0
 40
1.6499999999999999
  0
CIRCLE
  5
14D
100
AcDbEntity
100
AcDbCircle
  8
0
 62
256
370
-1
 48
1.0
  6
ByLayer
 10
-137.77999999999992
 20
14.500000000000057
 30
0.0
 40
1.6499999999999999
  0
CIRCLE
  5
14E
100
AcDbEntity
100
AcDbCircle
  8
0
 62
256
370
-1
 48
1.0
  6
ByLayer
 10
-137.77999999999986
 20
45.500000000000057
 30
0.0
 40
1.6499999999999999
  0
CIRCLE
  5
14F
100
AcDbEntity
100
AcDbCircle
  8
0
 62
256
370
-1
 48
1.0
  6
ByLayer
 10
-225.77999999999992
 20
30.000000000000043
 30
0.0
 40
4.5
  0
CIRCLE
  5
150
100
AcDbEntity
100
AcDbCircle
  8
0
 62
256
370
-1
 48
1.0
  6
ByLayer
 10
-234.26528137423838
 20
38.485281374238468
 30
0.0
 40
2.0
  0
CIRCLE
  5
151
100
AcDbEntity
100
AcDbCircle
  8
0
 62
256
370
-1
 48
1.0
  6
ByLayer
 10
-217.29471862576133
 20
21.514718625761446
 30
0.0
 40
2.0
  0
CIRCLE
  5
152
100
AcDbEntity
100
AcDbCircle
  8
0
 62
256
370
-1
 48
1.0
  6
ByLayer
 10
-234.26528137423838
 20
21.514718625761645
 30
0.0
 40
2.0
  0
CIRCLE
  5
153
100
AcDbEntity
100
AcDbCircle
  8
0
 62
256
370
-1
 48
1.0
  6
ByLayer
 10
-217.29471862576133
 20
38.485281374238667
 30
0.0
 40
2.0
  0
CIRCLE
  5
154
100
AcDbEntity
100
AcDbCircle
  8
0
 62
256
370
-1
 48
1.0
  6
ByLayer
 10
-18.779999999999902
 20
30.000000000000043
 30
0.0
 40
4.5
  0
CIRCLE
  5
155
100
AcDbEntity
100
AcDbCircle
  8
0
 62
256
370
-1
 48
1.0
  6
ByLayer
 10
-10.294718625761405
 20
38.485281374238511
 30
0.0
 40
2.0
  0
CIRCLE
  5
156
100
AcDbEntity
100
AcDbCircle
  8
0
 62
256
370
-1
 48
1.0
  6
ByLayer
 10
-27.265281374238455
 20
21.514718625761461
 30
0.0
 40
2.0
  0
CIRCLE
  5
157
100
AcDbEntity
100
AcDbCircle
  8
0
 62
256
370
-1
 48
1.0
  6
ByLayer
 10
-10.294718625761405
 20
21.514718625761645
 30
0.0
 40
2.0
  0
CIRCLE
  5
158
100
AcDbEntity
100
AcDbCircle
  8
0
 62
256
370
-1
 48
1.0
  6
ByLayer
 10
-27.265281374238484
 20
38.48528137423871
 30
0.0
 40
2.0
  0
CIRCLE
  5
159
100
AcDbEntity
100
AcDbCircle
  8
0
 62
256
370
-1
 48
1.0
  6
ByLayer
 10
-61.279999999999902
 20
14.720000000000027
 30
0.0
 40
7.0
  0
ENDBLK
  5
15A
100
AcDbEntity
  8
0
100
AcDbBlockEnd
  0
BLOCK
  5
15B
100
AcDbEntity
  8
0
100
AcDbBlockBegin
  2
crane_flap
 70
0
 10
0.0
 20
0.0
 30
0.0
  3
crane_flap
  1

  0
LWPOLYLINE
  5
15C
  8
0
 62
256
370
-1
 48
1.0
  6
ByLayer
100
AcDbEntity
100
AcDbPolyline
 90
4
 70
1
 10
-0.0000000000000142
 20
43.499999999999972
 30
0.0
 10
-177.00000000000003
 20
43.499999999999929
 30
0.0
 10
-177.00000000000003
 20
-0.0000000000000568
 30
0.0
 10
0.0
 20
0.0
 30
0.0
  0
CIRCLE
  5
15D
100
AcDbEntity
100
AcDbCircle
  8
0
 62
256
370
-1
 48
1.0
  6
ByLayer
 10
-48.0
 20
32.999999999999993
 30
0.0
 40
4.9999999999999956
  0
CIRCLE
  5
15E
100
AcDbEntity
100
AcDbCircle
  8
0
 62
256
370
-1
 48
1.0
  6
ByLayer
 10
-5.0
 20
33.0
 30
0.0
 40
1.575
  0
CIRCLE
  5
15F
100
AcDbEntity
100
AcDbCircle
  8
0
 62
256
370
-1
 48
1.0
  6
ByLayer
 10
-88.500000000000028
 20
32.999999999999964
 30
0.0
 40
1.5749999999999971
  0
CIRCLE
  5
160
100
AcDbEntity
100
AcDbCircle
  8
0
 62
256
370
-1
 48
1.0
  6
ByLayer
 10
-172.00000000000003
 20
32.999999999999964
 30
0.0
 40
1.575
  0
CIRCLE
  5
161
100
AcDbEntity
100
AcDbCircle
  8
0
 62
256
370
-1
 48
1.0
  6
ByLayer
 10
-129.00000000000003
 20
32.999999999999943
 30
0.0
 40
4.9999999999999956
  0
ENDBLK
  5
162
100
AcDbEntity
  8
0
100
AcDbBlockEnd
  0
BLOCK
  5
163
100
AcDbEntity
  8
0
100
AcDbBlockBegin
  2
crane_back
 70
0
 10
0.0
 20
0.0
 30
0.0
  3
crane_back
  1

  0
LWPOLYLINE
  5
164
  8
0
 62
256
370
-1
 48
1.0
  6
ByLayer
100
AcDbEntity
100
AcDbPolyline
 90
4
 70
1
 10
191.28000000000009
 20
-8.0
 30
0.0
 42
-0.9999999999999998
 10
194.27999999999997
 20
-8.0
 30
0.0
 10
194.27999999999997
 20
-12.0
 30
0.0
 42
-0.9999999999999998
 10
191.28000000000009
 20
-12.0
 30
0.0
  0
LWPOLYLINE
  5
165
  8
0
 62
256
370
-1
 48
1.0
  6
ByLayer
100
AcDbEntity
100
AcDbPolyline
 90
4
 70
1
 10
184.77999999999997
 20
-12.0
 30
0.0
 42
-0.9999999999999998
 10
181.77999999999997
 20
-12.0
 30
0.0
 10
181.77999999999997
 20
-8.0
 30
0.0
 42
-0.9999999999999998
 10
184.77999999999997
 20
-8.0
 30
0.0
  0
LWPOLYLINE
  5
166
  8
0
 62
256
370
-1
 48
1.0
  6
ByLayer
100
AcDbEntity
100
AcDbPolyline
 90
80
 70
1
 10
17.129999999999995
 20
-25.0
 30
0.0
 10
17.129999999999995
 20
-19.880000000000109
 30
0.0
 10
16.03000000000003
 20
-19.880000000000109
 30
0.0
 42
-2.414213562373094
 10
15.78000000000003
 20
-19.630000000000109
 30
0.0
 10
15.78000000000003
 20
-17.129999999999882
 30
0.0
 42
-2.414213562373094
 10
16.03000000000003
 20
-16.879999999999882
 30
0.0
 10
17.129999999999995
 20
-16.880000000000109
 30
0.0
 10
17.129999999999995
 20
-14.879999999999882
 30
0.0
 10
20.430000000000007
 20
-14.879999999999882
 30
0.0
 10
20.430000000000007
 20
-16.879999999999882
 30
0.0
 10
21.53000000000003
 20
-16.879999999999882
 30
0.0
 42
-2.414213562373094
 10
21.78000000000003
 20
-17.129999999999882
 30
0.0
 10
21.78000000000003
 20
-19.630000000000109
 30
0.0
 42
-2.414213562373094
 10
21.53000000000003
 20
-19.880000000000109
 30
0.0
 10
20.430000000000007
 20
-19.880000000000109
 30
0.0
 10
20.430000000000007
 20
-25.0
 30
0.0
 10
65.529999999999973
 20
-25.0
 30
0.0
 10
65.529999999999973
 20
-31.720000000000027
 30
0.0
 10
75.529999999999973
 20
-31.720000000000027
 30
0.0
 10
75.529999999999973
 20
-25.0
 30
0.0
 10
86.129999999999995
 20
-25.0
 30
0.0
 10
86.129999999999995
 20
-19.880000000000109
 30
0.0
 10
85.029999999999973
 20
-19.880000000000109
 30
0.0
 42
-2.414213562373094
 10
84.779999999999973
 20
-19.630000000000109
 30
0.0
 10
84.779999999999973
 20
-17.129999999999882
 30
0.0
 42
-2.414213562373094
 10
85.029999999999973
 20
-16.879999999999882
 30
0.0
 10
86.129999999999995
 20
-16.880000000000109
 30
0.0
 10
86.129999999999995
 20
-14.879999999999882
 30
0.0
 10
89.430000000000064
 20
-14.879999999999882
 30
0.0
 10
89.430000000000064
 20
-16.879999999999882
 30
0.0
 10
90.529999999999973
 20
-16.879999999999882
 30
0.0
 42
-2.414213562373094
 10
90.779999999999973
 20
-17.129999999999882
 30
0.0
 10
90.779999999999973
 20
-19.630000000000109
 30
0.0
 42
-2.414213562373094
 10
90.529999999999973
 20
-19.880000000000109
 30
0.0
 10
89.430000000000064
 20
-19.880000000000109
 30
0.0
 10
89.430000000000064
 20
-25.0
 30
0.0
 10
117.27999999999997
 20
-25.0
 30
0.0
 10
117.27999999999997
 20
-31.720000000000027
 30
0.0
 10
127.27999999999997
 20
-31.720000000000027
 30
0.0
 10
127.27999999999997
 20
-25.0
 30
0.0
 10
155.13
 20
-25.0
 30
0.0
 10
155.13
 20
-19.880000000000109
 30
0.0
 10
154.02999999999997
 20
-19.880000000000109
 30
0.0
 42
-2.414213562373094
 10
153.77999999999997
 20
-19.630000000000109
 30
0.0
 10
153.77999999999997
 20
-17.129999999999882
 30
0.0
 42
-2.414213562373094
 10
154.02999999999997
 20
-16.879999999999882
 30
0.0
 10
155.13
 20
-16.880000000000109
 30
0.0
 10
155.13
 20
-14.879999999999882
 30
0.0
 10
158.43000000000006
 20
-14.879999999999882
 30
0.0
 10
158.43000000000006
 20
-16.879999999999882
 30
0.0
 10
159.52999999999997
 20
-16.879999999999882
 30
0.0
 42
-2.414213562373094
 10
159.77999999999997
 20
-17.129999999999882
 30
0.0
 10
159.77999999999997
 20
-19.630000000000109
 30
0.0
 42
-2.414213562373094
 10
159.52999999999997
 20
-19.880000000000109
 30
0.0
 10
158.43000000000006
 20
-19.880000000000109
 30
0.0
 10
158.43000000000006
 20
-25.0
 30
0.0
 10
169.02999999999997
 20
-25.0
 30
0.0
 10
169.02999999999997
 20
-31.720000000000027
 30
0.0
 10
179.02999999999997
 20
-31.720000000000027
 30
0.0
 10
179.02999999999997
 20
-25.0
 30
0.0
 10
224.13000000000011
 20
-25.0
 30
0.0
 10
224.13000000000011
 20
-19.880000000000109
 30
0.0
 10
223.02999999999997
 20
-19.880000000000109
 30
0.0
 42
-2.414213562373094
 10
222.77999999999997
 20
-19.630000000000109
 30
0.0
 10
222.77999999999997
 20
-17.129999999999882
 30
0.0
 42
-2.414213562373094
 10
223.02999999999997
 20
-16.879999999999882
 30
0.0
 10
224.13000000000011
 20
-16.880000000000109
 30
0.0
 10
224.13000000000011
 20
-14.879999999999882
 30
0.0
 10
227.43000000000006
 20
-14.879999999999882
 30
0.0
 10
227.43000000000006
 20
-16.879999999999882
 30
0.0
 10
228.52999999999997
 20
-16.879999999999882
 30
0.0
 42
-2.414213562373094
 10
228.77999999999997
 20
-17.129999999999882
 30
0.0
 10
228.77999999999997
 20
-19.630000000000109
 30
0.0
 42
-2.414213562373094
 10
228.53000000000009
 20
-19.880000000000109
 30
0.0
 10
227.43000000000006
 20
-19.880000000000109
 30
0.0
 10
227.43000000000006
 20
-25.0
 30
0.0
 10
244.55999999999995
 20
-25.0
 30
0.0
 10
244.55999999999995
 20
0.0
 30
0.0
 10
0.0
 20
0.0
 30
0.0
 10
0.0
 20
-25.0
 30
0.0
  0
CIRCLE
  5
167
100
AcDbEntity
100
AcDbCircle
  8
0
 62
256
370
-1
 48
1.0
  6
ByLayer
 10
221.02999999999997
 20
-6.7200000000000273
 30
0.0
 40
1.9999999999999989
  0
CIRCLE
  5
168
100
AcDbEntity
100
AcDbCircle
  8
0
 62
256
370
-1
 48
1.0
  6
ByLayer
 10
230.52999999999997
 20
-6.7200000000000273
 30
0.0
 40
1.9999999999999989
  0
ENDBLK
  5
169
100
AcDbEntity
  8
0
100
AcDbBlockEnd
  0
BLOCK
  5
16A
100
AcDbEntity
  8
0
100
AcDbBlockBegin
  2
p1
 70
0
 10
0.0
 20
0.0
 30
0.0
  3
p1
  1

  0
LINE
  5
16B
100
AcDbEntity
100
AcDbLine
  8
0
 62
256
370
-1
 48
1.0
  6
ByLayer
 10
0.0
 20
-181.0
 30
0.0
 11
181.0
 21
-181.0
 31
0.0
  0
LINE
  5
16C
100
AcDbEntity
100
AcDbLine
  8
0
 62
256
370
-1
 48
1.0
  6
ByLayer
 10
181.0
 20
-181.0
 30
0.0
 11
181.0
 21
0.0
 31
0.0
  0
LINE
  5
16D
100
AcDbEntity
100
AcDbLine
  8
0
 62
256
370
-1
 48
1.0
  6
ByLayer
 10
181.0
 20
0.0
 30
0.0
 11
0.0
 21
0.0
 31
0.0
  0
LINE
  5
16E
100
AcDbEntity
100
AcDbLine
  8
0
 62
256
370
-1
 48
1.0
  6
ByLayer
 10
0.0
 20
0.0
 30
0.0
 11
0.0
 21
-181.0
 31
0.0
  0
ENDBLK
  5
16F
100
AcDbEntity
  8
0
100
AcDbBlockEnd
  0
BLOCK
  5
170
100
AcDbEntity
  8
0
100
AcDbBlockBegin
  2
drawer_back
 70
0
 10
0.0
 20
0.0
 30
0.0
  3
drawer_back
  1

  0
LWPOLYLINE
  5
171
  8
0
 62
256
370
-1
 48
1.0
  6
ByLayer
100
AcDbEntity
100
AcDbPolyline
 90
8
 70
1
 10
-60.333333333333258
 20
-217.63999999999999
 30
0.0
 10
-60.333333333333258
 20
-224.35999999999996
 30
0.0
 10
-120.6666666666668
 20
-224.36000000000001
 30
0.0
 10
-120.66666666666679
 20
-217.63999999999999
 30
0.0
 10
-181.00000000000009
 20
-217.63999999999999
 30
0.0
 10
-181.0
 20
0.0000000000000426
 30
0.0
 10
0.0
 20
0.0
 30
0.0
 10
0.0000000000000284
 20
-217.63999999999999
 30
0.0
  0
CIRCLE
  5
172
100
AcDbEntity
100
AcDbCircle
  8
0
 62
256
370
-1
 48
1.0
  6
ByLayer
 10
-75.760000000000005
 20
-138.11999999999995
 30
0.0
 40
1.574999999999998
  0
CIRCLE
  5
173
100
AcDbEntity
100
AcDbCircle
  8
0
 62
256
370
-1
 48
1.0
  6
ByLayer
 10
-157.04000000000002
 20
-89.859999999999985
 30
0.0
 40
1.574999999999998
  0
CIRCLE
  5
174
100
AcDbEntity
100
AcDbCircle
  8
0
 62
256
370
-1
 48
1.0
  6
ByLayer
 10
-158.31
 20
-138.12
 30
0.0
 40
1.574999999999998
  0
CIRCLE
  5
175
100
AcDbEntity
100
AcDbCircle
  8
0
 62
256
370
-1
 48
1.0
  6
ByLayer
 10
-82.110000000000028
 20
-89.859999999999999
 30
0.0
 40
1.574999999999998
  0
CIRCLE
  5
176
100
AcDbEntity
100
AcDbCircle
  8
0
 62
256
370
-1
 48
1.0
  6
ByLayer
 10
-90.500000000000028
 20
-221.0
 30
0.0
 40
1.5749999999999991
  0
CIRCLE
  5
177
100
AcDbEntity
100
AcDbCircle
  8
0
 62
256
370
-1
 48
1.0
  6
ByLayer
 10
-30.166666666666714
 20
-69.320000000000022
 30
0.0
 40
1.5750000000000011
  0
CIRCLE
  5
178
100
AcDbEntity
100
AcDbCircle
  8
0
 62
256
370
-1
 48
1.0
  6
ByLayer
 10
-150.83333333333331
 20
-69.319999999999979
 30
0.0
 40
1.5750000000000011
  0
ENDBLK
  5
179
100
AcDbEntity
  8
0
100
AcDbBlockEnd
  0
BLOCK
  5
17A
100
AcDbEntity
  8
0
100
AcDbBlockBegin
  2
p2
 70
0
 10
0.0
 20
0.0
 30
0.0
  3
p2
  1

  0
LINE
  5
17B
100
AcDbEntity
100
AcDbLine
  8
0
 62
256
370
-1
 48
1.0
  6
ByLayer
 10
0.0
 20
0.0
 30
0.0
 11
384.0
 21
0.0
 31
0.0
  0
LINE
  5
17C
100
AcDbEntity
100
AcDbLine
  8
0
 62
256
370
-1
 48
1.0
  6
ByLayer
 10
384.0
 20
0.0
 30
0.0
 11
384.0
 21
-384.0
 31
0.0
  0
LINE
  5
17D
100
AcDbEntity
100
AcDbLine
  8
0
 62
256
370
-1
 48
1.0
  6
ByLayer
 10
384.0
 20
-384.0
 30
0.0
 11
0.0
 21
-384.0
 31
0.0
  0
LINE
  5
17E
100
AcDbEntity
100
AcDbLine
  8
0
 62
256
370
-1
 48
1.0
  6
ByLayer
 10
0.0
 20
-384.0
 30
0.0
 11
0.0
 21
0.0
 31
0.0
  0
ENDBLK
  5
17F
100
AcDbEntity
  8
0
100
AcDbBlockEnd
  0
BLOCK
  5
180
100
AcDbEntity
  8
0
100
AcDbBlockBegin
  2
p3
 70
0
 10
0.0
 20
0.0
 30
0.0
  3
p3
  1

  0
LINE
  5
181
100
AcDbEntity
100
AcDbLine
  8
0
 62
256
370
-1
 48
1.0
  6
ByLayer
 10
0.0
 20
0.0
 30
0.0
 11
790.0
 21
0.0
 31
0.0
  0
LINE
  5
182
100
AcDbEntity
100
AcDbLine
  8
0
 62
256
370
-1
 48
1.0
  6
ByLayer
 10
790.0
 20
0.0
 30
0.0
 11
790.0
 21
-384.0
 31
0.0
  0
LINE
  5
183
100
AcDbEntity
100
AcDbLine
  8
0
 62
256
370
-1
 48
1.0
  6
ByLayer
 10
790.0
 20
-384.0
 30
0.0
 11
0.0
 21
-384.0
 31
0.0
  0
LINE
  5
184
100
AcDbEntity
100
AcDbLine
  8
0
 62
256
370
-1
 48
1.0
  6
ByLayer
 10
0.0
 20
-384.0
 30
0.0
 11
0.0
 21
0.0
 31
0.0
  0
ENDBLK
  5
185
100
AcDbEntity
  8
0
100
AcDbBlockEnd
  0
BLOCK
  5
186
100
AcDbEntity
  8
0
100
AcDbBlockBegin
  2
carrier_wall
 70
0
 10
0.0
 20
0.0
 30
0.0
  3
carrier_wall
  1

  0
LWPOLYLINE
  5
187
  8
0
 62
256
370
-1
 48
1.0
  6
ByLayer
100
AcDbEntity
100
AcDbPolyline
 90
4
 70
1
 10
-166.00000000000011
 20
15.0
 30
0.0
 10
-166.00000000000011
 20
166.0
 30
0.0
 10
-15.000000000000114
 20
166.00000000000006
 30
0.0
 10
-15.000000000000114
 20
15.0
 30
0.0
  0
LWPOLYLINE
  5
188
  8
0
 62
256
370
-1
 48
1.0
  6
ByLayer
100
AcDbEntity
100
AcDbPolyline
 90
4
 70
1
 10
-181.00000000000011
 20
0.0
 30
0.0
 10
0.0
 20
0.0
 30
0.0
 10
-0.0000000000001137
 20
181.00000000000009
 30
0.0
 10
-181.00000000000011
 20
181.0
 30
0.0
  0
CIRCLE
  5
189
100
AcDbEntity
100
AcDbCircle
  8
0
 62
256
370
-1
 48
1.0
  6
ByLayer
 10
-90.500000000000114
 20
7.5
 30
0.0
 40
2.6249999999999969
  0
CIRCLE
  5
18A
100
AcDbEntity
100
AcDbCircle
  8
0
 62
256
370
-1
 48
1.0
  6
ByLayer
 10
-7.5000000000001137
 20
90.500000000000057
 30
0.0
 40
2.6249999999999969
  0
CIRCLE
  5
18B
100
AcDbEntity
100
AcDbCircle
  8
0
 62
256
370
-1
 48
1.0
  6
ByLayer
 10
-7.5000000000001137
 20
173.50000000000006
 30
0.0
 40
2.6249999999999969
  0
CIRCLE
  5
18C
100
AcDbEntity
100
AcDbCircle
  8
0
 62
256
370
-1
 48
1.0
  6
ByLayer
 10
-173.50000000000011
 20
173.5
 30
0.0
 40
2.6249999999999969
  0
CIRCLE
  5
18D
100
AcDbEntity
100
AcDbCircle
  8
0
 62
256
370
-1
 48
1.0
  6
ByLayer
 10
-90.500000000000114
 20
173.50000000000006
 30
0.0
 40
2.6249999999999969
  0
CIRCLE
  5
18E
100
AcDbEntity
100
AcDbCircle
  8
0
 62
256
370
-1
 48
1.0
  6
ByLayer
 10
-173.50000000000011
 20
90.500000000000028
 30
0.0
 40
2.6249999999999969
  0
CIRCLE
  5
18F
100
AcDbEntity
100
AcDbCircle
  8
0
 62
256
370
-1
 48
1.0
  6
ByLayer
 10
-173.50000000000011
 20
7.5
 30
0.0
 40
2.6249999999999969
  0
CIRCLE
  5
190
100
AcDbEntity
100
AcDbCircle
  8
0
 62
256
370
-1
 48
1.0
  6
ByLayer
 10
-7.5000000000001137
 20
7.5000000000000568
 30
0.0
 40
2.6249999999999969
  0
ENDBLK
  5
191
100
AcDbEntity
  8
0
100
AcDbBlockEnd
  0
BLOCK
  5
192
100
AcDbEntity
  8
0
100
AcDbBlockBegin
  2
frame_top
 70
0
 10
0.0
 20
0.0
 30
0.0
  3
frame_top
  1

  0
LWPOLYLINE
  5
193
  8
0
 62
256
370
-1
 48
1.0
  6
ByLayer
100
AcDbEntity
100
AcDbPolyline
 90
116
 70
1
 10
-6.7200000000000983
 20
31.729999999999976
 30
0.0
 10
-11.319999999999993
 20
31.729999999999976
 30
0.0
 10
-11.319999999999993
 20
30.629999999999995
 30
0.0
 42
-2.4142135623730971
 10
-11.569999999999993
 20
30.379999999999995
 30
0.0
 10
-14.070000000000107
 20
30.379999999999995
 30
0.0
 42
-2.414213562373094
 10
-14.319999999999993
 20
30.629999999999995
 30
0.0
 10
-14.319999999999993
 20
31.729999999999976
 30
0.0
 10
-16.319999999999993
 20
31.729999999999976
 30
0.0
 10
-16.319999999999993
 20
35.030000000000015
 30
0.0
 10
-14.319999999999993
 20
35.030000000000015
 30
0.0
 10
-14.319999999999993
 20
36.129999999999995
 30
0.0
 42
-2.4142135623730971
 10
-14.070000000000107
 20
36.379999999999995
 30
0.0
 10
-11.569999999999993
 20
36.379999999999995
 30
0.0
 42
-2.414213562373094
 10
-11.319999999999993
 20
36.129999999999995
 30
0.0
 10
-11.319999999999993
 20
35.030000000000015
 30
0.0
 10
-6.7200000000000983
 20
35.030000000000015
 30
0.0
 10
-6.7199999999999989
 20
44.506666666666661
 30
0.0
 10
0.0
 20
44.506666666666661
 30
0.0
 10
0.0
 20
66.760000000000019
 30
0.0
 10
-65.26666666666668
 20
66.759999999999977
 30
0.0
 10
-65.26666666666668
 20
62.479999999999976
 30
0.0
 10
-64.166666666666686
 20
62.479999999999976
 30
0.0
 42
-2.414213562373094
 10
-63.916666666666671
 20
62.229999999999976
 30
0.0
 10
-63.916666666666671
 20
59.72999999999999
 30
0.0
 42
-2.414213562373094
 10
-64.166666666666686
 20
59.47999999999999
 30
0.0
 10
-65.26666666666668
 20
59.47999999999999
 30
0.0
 10
-65.26666666666668
 20
57.47999999999999
 30
0.0
 10
-68.566666666666677
 20
57.47999999999999
 30
0.0
 10
-68.566666666666677
 20
59.47999999999999
 30
0.0
 10
-69.666666666666671
 20
59.47999999999999
 30
0.0
 42
-2.414213562373094
 10
-69.916666666666686
 20
59.72999999999999
 30
0.0
 10
-69.916666666666686
 20
62.22999999999999
 30
0.0
 42
-2.4142135623731549
 10
-69.666666666666671
 20
62.479999999999976
 30
0.0
 10
-68.566666666666677
 20
62.47999999999999
 30
0.0
 10
-68.566666666666677
 20
66.759999999999977
 30
0.0
 10
-86.666666666666671
 20
66.760000000000019
 30
0.0
 10
-86.666666666666671
 20
73.480000000000004
 30
0.0
 10
-173.33333333333331
 20
73.479999999999976
 30
0.0
 10
-173.33333333333331
 20
66.759999999999991
 30
0.0
 10
-191.43333333333334
 20
66.759999999999977
 30
0.0
 10
-191.43333333333334
 20
62.47999999999999
 30
0.0
 10
-190.33333333333331
 20
62.479999999999976
 30
0.0
 42
-2.4142135623731549
 10
-190.08333333333331
 20
62.22999999999999
 30
0.0
 10
-190.08333333333331
 20
59.72999999999999
 30
0.0
 42
-2.414213562373094
 10
-190.33333333333331
 20
59.47999999999999
 30
0.0
 10
-191.43333333333334
 20
59.47999999999999
 30
0.0
 10
-191.43333333333334
 20
57.47999999999999
 30
0.0
 10
-194.73333333333332
 20
57.47999999999999
 30
0.0
 10
-194.73333333333332
 20
59.47999999999999
 30
0.0
 10
-195.83333333333331
 20
59.47999999999999
 30
0.0
 42
-2.414213562373094
 10
-196.08333333333331
 20
59.72999999999999
 30
0.0
 10
-196.08333333333331
 20
62.229999999999976
 30
0.0
 42
-2.414213562373094
 10
-195.83333333333331
 20
62.479999999999976
 30
0.0
 10
-194.73333333333332
 20
62.479999999999976
 30
0.0
 10
-194.73333333333332
 20
66.759999999999977
 30
0.0
 10
-260.0
 20
66.759999999999991
 30
0.0
 10
-260.0
 20
44.506666666666661
 30
0.0
 10
-253.28
 20
44.506666666666661
 30
0.0
 10
-253.27999999999992
 20
35.030000000000015
 30
0.0
 10
-248.68000000000001
 20
35.030000000000015
 30
0.0
 10
-248.68000000000001
 20
36.129999999999995
 30
0.0
 42
-2.414213562373094
 10
-248.43000000000001
 20
36.379999999999995
 30
0.0
 10
-245.92999999999989
 20
36.379999999999995
 30
0.0
 42
-2.4142135623730971
 10
-245.68000000000001
 20
36.129999999999995
 30
0.0
 10
-245.68000000000001
 20
35.030000000000015
 30
0.0
 10
-243.68000000000001
 20
35.030000000000015
 30
0.0
 10
-243.68000000000001
 20
31.729999999999976
 30
0.0
 10
-245.68000000000001
 20
31.729999999999976
 30
0.0
 10
-245.68000000000001
 20
30.629999999999995
 30
0.0
 42
-2.414213562373094
 10
-245.92999999999989
 20
30.379999999999995
 30
0.0
 10
-248.43000000000001
 20
30.379999999999995
 30
0.0
 42
-2.4142135623730971
 10
-248.68000000000001
 20
30.629999999999995
 30
0.0
 10
-248.68000000000001
 20
31.729999999999976
 30
0.0
 10
-253.27999999999992
 20
31.729999999999976
 30
0.0
 10
-253.28
 20
22.25333333333333
 30
0.0
 10
-260.0
 20
22.25333333333333
 30
0.0
 10
-260.0
 20
-0.0000000000000568
 30
0.0
 10
-194.73333333333332
 20
0.0
 30
0.0
 10
-194.73333333333332
 20
4.2800000000000296
 30
0.0
 10
-195.83333333333331
 20
4.2800000000000296
 30
0.0
 42
-2.414213562373094
 10
-196.08333333333331
 20
4.5300000000000296
 30
0.0
 10
-196.08333333333331
 20
7.0300000000000011
 30
0.0
 42
-2.414213562373094
 10
-195.83333333333331
 20
7.2800000000000011
 30
0.0
 10
-194.73333333333332
 20
7.2800000000000011
 30
0.0
 10
-194.73333333333332
 20
9.2800000000000011
 30
0.0
 10
-191.43333333333334
 20
9.2800000000000011
 30
0.0
 10
-191.43333333333334
 20
7.2800000000000011
 30
0.0
 10
-190.33333333333331
 20
7.2800000000000011
 30
0.0
 42
-2.414213562373094
 10
-190.08333333333331
 20
7.0300000000000011
 30
0.0
 10
-190.08333333333331
 20
4.5300000000000011
 30
0.0
 42
-2.4142135623731549
 10
-190.33333333333331
 20
4.2800000000000296
 30
0.0
 10
-191.43333333333334
 20
4.2800000000000011
 30
0.0
 10
-191.43333333333334
 20
0.0
 30
0.0
 10
-173.33333333333334
 20
-0.0000000000000284
 30
0.0
 10
-173.33333333333334
 20
-6.7200000000000273
 30
0.0
 10
-86.666666666666671
 20
-6.7199999999999989
 30
0.0
 10
-86.666666666666671
 20
0.0
 30
0.0
 10
-68.566666666666677
 20
0.0
 30
0.0
 10
-68.566666666666677
 20
4.2800000000000011
 30
0.0
 10
-69.666666666666671
 20
4.2800000000000296
 30
0.0
 42
-2.4142135623731549
 10
-69.916666666666686
 20
4.5300000000000011
 30
0.0
 10
-69.916666666666686
 20
7.0300000000000011
 30
0.0
 42
-2.414213562373094
 10
-69.666666666666671
 20
7.2800000000000011
 30
0.0
 10
-68.566666666666677
 20
7.2800000000000011
 30
0.0
 10
-68.566666666666677
 20
9.2800000000000011
 30
0.0
 10
-65.26666666666668
 20
9.2800000000000011
 30
0.0
 10
-65.26666666666668
 20
7.2800000000000011
 30
0.0
 10
-64.166666666666686
 20
7.2800000000000011
 30
0.0
 42
-2.414213562373094
 10
-63.916666666666671
 20
7.0300000000000011
 30
0.0
 10
-63.916666666666671
 20
4.5300000000000296
 30
0.0
 42
-2.414213562373094
 10
-64.166666666666686
 20
4.2800000000000296
 30
0.0
 10
-65.26666666666668
 20
4.2800000000000296
 30
0.0
 10
-65.26666666666668
 20
0.0
 30
0.0
 10
0.0
 20
0.0
 30
0.0
 10
0.0
 20
22.25333333333333
 30
0.0
 10
-6.7199999999999989
 20
22.25333333333333
 30
0.0
  0
CIRCLE
  5
194
100
AcDbEntity
100
AcDbCircle
  8
0
 62
256
370
-1
 48
1.0
  6
ByLayer
 10
-26.5
 20
47.63000000000001
 30
0.0
 40
1.9999999999999989
  0
CIRCLE
  5
195
100
AcDbEntity
100
AcDbCircle
  8
0
 62
256
370
-1
 48
1.0
  6
ByLayer
 10
-233.5
 20
33.379999999999981
 30
0.0
 40
3.9999999999999938
  0
CIRCLE
  5
196
100
AcDbEntity
100
AcDbCircle
  8
0
 62
256
370
-1
 48
1.0
  6
ByLayer
 10
-26.5
 20
33.380000000000095
 30
0.0
 40
3.9999999999999938
  0
CIRCLE
  5
197
100
AcDbEntity
100
AcDbCircle
  8
0
 62
256
370
-1
 48
1.0
  6
ByLayer
 10
-130.0
 20
33.379999999999995
 30
0.0
 40
4.5
  0
CIRCLE
  5
198
100
AcDbEntity
100
AcDbCircle
  8
0
 62
256
370
-1
 48
1.0
  6
ByLayer
 10
-139.96466150102452
 20
27.626899999999992
 30
0.0
 40
2.0
  0
CIRCLE
  5
199
100
AcDbEntity
100
AcDbCircle
  8
0
 62
256
370
-1
 48
1.0
  6
ByLayer
 10
-130.0
 20
44.886200000000002
 30
0.0
 40
2.0
  0
CIRCLE
  5
19A
100
AcDbEntity
100
AcDbCircle
  8
0
 62
256
370
-1
 48
1.0
  6
ByLayer
 10
-120.03533849897549
 20
27.626899999999992
 30
0.0
 40
2.0
  0
ENDBLK
  5
19B
100
AcDbEntity
  8
0
100
AcDbBlockEnd
  0
BLOCK
  5
19C
100
AcDbEntity
  8
0
100
AcDbBlockBegin
  2
crane_front
 70
0
 10
0.0
 20
0.0
 30
0.0
  3
crane_front
  1

  0
LWPOLYLINE
  5
19D
  8
0
 62
256
370
-1
 48
1.0
  6
ByLayer
100
AcDbEntity
100
AcDbPolyline
 90
80
 70
1
 10
17.129999999999995
 20
-25.0
 30
0.0
 10
17.130000000000109
 20
-19.879999999999995
 30
0.0
 10
16.030000000000086
 20
-19.879999999999995
 30
0.0
 42
-2.414213562373094
 10
15.780000000000086
 20
-19.629999999999995
 30
0.0
 10
15.780000000000086
 20
-17.129999999999995
 30
0.0
 42
-2.414213562373094
 10
16.030000000000086
 20
-16.879999999999995
 30
0.0
 10
17.129999999999995
 20
-16.879999999999995
 30
0.0
 10
17.129999999999995
 20
-14.879999999999995
 30
0.0
 10
20.430000000000064
 20
-14.879999999999995
 30
0.0
 10
20.430000000000064
 20
-16.879999999999995
 30
0.0
 10
21.530000000000086
 20
-16.879999999999995
 30
0.0
 42
-2.414213562373094
 10
21.780000000000086
 20
-17.129999999999995
 30
0.0
 10
21.780000000000086
 20
-19.629999999999995
 30
0.0
 42
-2.414213562373094
 10
21.530000000000086
 20
-19.879999999999995
 30
0.0
 10
20.430000000000064
 20
-19.879999999999995
 30
0.0
 10
20.430000000000064
 20
-25.0
 30
0.0
 10
65.530000000000086
 20
-25.0
 30
0.0
 10
65.530000000000086
 20
-31.720000000000027
 30
0.0
 10
75.530000000000086
 20
-31.720000000000027
 30
0.0
 10
75.530000000000086
 20
-25.0
 30
0.0
 10
86.130000000000109
 20
-25.0
 30
0.0
 10
86.129999999999995
 20
-19.879999999999995
 30
0.0
 10
85.030000000000086
 20
-19.879999999999995
 30
0.0
 42
-2.414213562373094
 10
84.780000000000086
 20
-19.629999999999995
 30
0.0
 10
84.780000000000086
 20
-17.129999999999995
 30
0.0
 42
-2.414213562373094
 10
85.030000000000086
 20
-16.879999999999995
 30
0.0
 10
86.129999999999995
 20
-16.879999999999995
 30
0.0
 10
86.129999999999995
 20
-14.879999999999995
 30
0.0
 10
89.430000000000064
 20
-14.879999999999995
 30
0.0
 10
89.430000000000064
 20
-16.879999999999995
 30
0.0
 10
90.530000000000086
 20
-16.879999999999995
 30
0.0
 42
-2.414213562373094
 10
90.780000000000086
 20
-17.129999999999995
 30
0.0
 10
90.780000000000086
 20
-19.629999999999995
 30
0.0
 42
-2.414213562373094
 10
90.530000000000086
 20
-19.879999999999995
 30
0.0
 10
89.430000000000064
 20
-19.879999999999995
 30
0.0
 10
89.430000000000064
 20
-25.0
 30
0.0
 10
117.28000000000009
 20
-25.0
 30
0.0
 10
117.28000000000009
 20
-31.720000000000027
 30
0.0
 10
127.27999999999997
 20
-31.720000000000027
 30
0.0
 10
127.27999999999997
 20
-25.0
 30
0.0
 10
155.13
 20
-25.0
 30
0.0
 10
155.13
 20
-19.879999999999995
 30
0.0
 10
154.03000000000009
 20
-19.879999999999995
 30
0.0
 42
-2.414213562373094
 10
153.78000000000009
 20
-19.629999999999995
 30
0.0
 10
153.78000000000009
 20
-17.129999999999995
 30
0.0
 42
-2.414213562373094
 10
154.03000000000009
 20
-16.879999999999995
 30
0.0
 10
155.13
 20
-16.879999999999995
 30
0.0
 10
155.13
 20
-14.879999999999995
 30
0.0
 10
158.43000000000018
 20
-14.879999999999995
 30
0.0
 10
158.43000000000018
 20
-16.879999999999995
 30
0.0
 10
159.53000000000009
 20
-16.879999999999995
 30
0.0
 42
-2.414213562373094
 10
159.78000000000009
 20
-17.129999999999995
 30
0.0
 10
159.78000000000009
 20
-19.629999999999995
 30
0.0
 42
-2.414213562373094
 10
159.53000000000009
 20
-19.879999999999995
 30
0.0
 10
158.43000000000018
 20
-19.879999999999995
 30
0.0
 10
158.43000000000018
 20
-25.0
 30
0.0
 10
169.03000000000009
 20
-25.0
 30
0.0
 10
169.03000000000009
 20
-31.720000000000027
 30
0.0
 10
179.03000000000009
 20
-31.720000000000027
 30
0.0
 10
179.03000000000009
 20
-25.0
 30
0.0
 10
224.13
 20
-25.0
 30
0.0
 10
224.13
 20
-19.879999999999995
 30
0.0
 10
223.03000000000009
 20
-19.879999999999995
 30
0.0
 42
-2.414213562373094
 10
222.78000000000009
 20
-19.629999999999995
 30
0.0
 10
222.78000000000009
 20
-17.129999999999995
 30
0.0
 42
-2.414213562373094
 10
223.03000000000009
 20
-16.879999999999995
 30
0.0
 10
224.13
 20
-16.879999999999995
 30
0.0
 10
224.13
 20
-14.879999999999995
 30
0.0
 10
227.43000000000018
 20
-14.879999999999995
 30
0.0
 10
227.43000000000018
 20
-16.879999999999995
 30
0.0
 10
228.53000000000009
 20
-16.879999999999995
 30
0.0
 42
-2.414213562373094
 10
228.78000000000009
 20
-17.129999999999995
 30
0.0
 10
228.78000000000009
 20
-19.629999999999995
 30
0.0
 42
-2.414213562373094
 10
228.53000000000009
 20
-19.879999999999995
 30
0.0
 10
227.43000000000018
 20
-19.879999999999995
 30
0.0
 10
227.43000000000018
 20
-25.0
 30
0.0
 10
244.56000000000006
 20
-25.0
 30
0.0
 10
244.56000000000006
 20
0.0
 30
0.0
 10
0.0
 20
0.0
 30
0.0
 10
0.0
 20
-25.0
 30
0.0
  0
ENDBLK
  5
19E
100
AcDbEntity
  8
0
100
AcDbBlockEnd
  0
BLOCK
  5
19F
100
AcDbEntity
  8
0
100
AcDbBlockBegin
  2
frame_laser
 70
0
 10
0.0
 20
0.0
 30
0.0
  3
frame_laser
  1

  0
LWPOLYLINE
  5
1A0
  8
0
 62
256
370
-1
 48
1.0
  6
ByLayer
100
AcDbEntity
100
AcDbPolyline
 90
28
 70
1
 10
-11.499999999999936
 20
60.979130371550696
 30
0.0
 42
-0.9198662110078005
 10
-11.499999999999936
 20
49.020869628449304
 30
0.0
 10
-11.499999999999929
 20
40.0
 30
0.0
 10
-12.499999999999922
 20
40.0
 30
0.0
 10
-12.499999999999929
 20
49.020869628449304
 30
0.0
 42
-0.9198662110078002
 10
-12.499999999999936
 20
60.979130371550696
 30
0.0
 10
-12.499999999999943
 20
78.0
 30
0.0
 10
-24.0
 20
78.0
 30
0.0
 10
-24.000000000000007
 20
73.000000000000114
 30
0.0
 10
-17.499999999999936
 20
73.000000000000114
 30
0.0
 10
-17.499999999999936
 20
67.000000000000114
 30
0.0
 10
-24.000000000000007
 20
67.000000000000114
 30
0.0
 10
-24.000000000000007
 20
43.000000000000114
 30
0.0
 10
-14.499999999999922
 20
43.000000000000114
 30
0.0
 10
-14.499999999999922
 20
40.0
 30
0.0
 10
-24.000000000000007
 20
40.0
 30
0.0
 10
-24.0
 20
0.0
 30
0.0
 10
0.0
 20
0.0
 30
0.0
 10
0.0
 20
40.0
 30
0.0
 10
-9.5000000000000782
 20
40.0
 30
0.0
 10
-9.5000000000000782
 20
43.000000000000114
 30
0.0
 10
0.0
 20
43.000000000000114
 30
0.0
 10
0.0
 20
67.000000000000114
 30
0.0
 10
-6.5000000000000711
 20
67.000000000000114
 30
0.0
 10
-6.5000000000000639
 20
73.000000000000114
 30
0.0
 10
-0.0000000000000071
 20
73.000000000000114
 30
0.0
 10
-0.0000000000000071
 20
78.0
 30
0.0
 10
-11.499999999999943
 20
78.0
 30
0.0
  0
CIRCLE
  5
1A1
100
AcDbEntity
100
AcDbCircle
  8
0
 62
256
370
-1
 48
1.0
  6
ByLayer
 10
-4.0
 20
36.060000000000002
 30
0.0
 40
1.9999999999999989
  0
CIRCLE
  5
1A2
100
AcDbEntity
100
AcDbCircle
  8
0
 62
256
370
-1
 48
1.0
  6
ByLayer
 10
-20.0
 20
36.060000000000002
 30
0.0
 40
1.9999999999999989
  0
CIRCLE
  5
1A3
100
AcDbEntity
100
AcDbCircle
  8
0
 62
256
370
-1
 48
1.0
  6
ByLayer
 10
-12.0
 20
25.0
 30
0.0
 40
1.575000000000004
  0
CIRCLE
  5
1A4
100
AcDbEntity
100
AcDbCircle
  8
0
 62
256
370
-1
 48
1.0
  6
ByLayer
 10
-11.999999999999993
 20
10.0
 30
0.0
 40
1.574999999999996
  0
ENDBLK
  5
1A5
100
AcDbEntity
  8
0
100
AcDbBlockEnd
  0
BLOCK
  5
1A6
100
AcDbEntity
  8
0
100
AcDbBlockBegin
  2
carrier_tray
 70
0
 10
0.0
 20
0.0
 30
0.0
  3
carrier_tray
  1

  0
LWPOLYLINE
  5
1A7
  8
0
 62
256
370
-1
 48
1.0
  6
ByLayer
100
AcDbEntity
100
AcDbPolyline
 90
4
 70
1
 10
-181.00000000000006
 20
0.0
 30
0.0
 10
0.0
 20
0.0
 30
0.0
 10
-0.0000000000000568
 20
181.00000000000011
 30
0.0
 10
-181.00000000000006
 20
181.0
 30
0.0
  0
CIRCLE
  5
1A8
100
AcDbEntity
100
AcDbCircle
  8
0
 62
256
370
-1
 48
1.0
  6
ByLayer
 10
-7.5000000000000568
 20
173.49999999999994
 30
0.0
 40
2.6249999999999969
  0
CIRCLE
  5
1A9
100
AcDbEntity
100
AcDbCircle
  8
0
 62
256
370
-1
 48
1.0
  6
ByLayer
 10
-173.50000000000006
 20
173.5
 30
0.0
 40
2.6249999999999969
  0
CIRCLE
  5
1AA
100
AcDbEntity
100
AcDbCircle
  8
0
 62
256
370
-1
 48
1.0
  6
ByLayer
 10
-173.50000000000006
 20
90.5
 30
0.0
 40
2.6249999999999969
  0
CIRCLE
  5
1AB
100
AcDbEntity
100
AcDbCircle
  8
0
 62
256
370
-1
 48
1.0
  6
ByLayer
 10
-90.500000000000057
 20
7.5
 30
0.0
 40
2.6249999999999969
  0
CIRCLE
  5
1AC
100
AcDbEntity
100
AcDbCircle
  8
0
 62
256
370
-1
 48
1.0
  6
ByLayer
 10
-173.50000000000006
 20
7.5
 30
0.0
 40
2.6249999999999969
  0
CIRCLE
  5
1AD
100
AcDbEntity
100
AcDbCircle
  8
0
 62
256
370
-1
 48
1.0
  6
ByLayer
 10
-7.5000000000000568
 20
7.5
 30
0.0
 40
2.6249999999999969
  0
CIRCLE
  5
1AE
100
AcDbEntity
100
AcDbCircle
  8
0
 62
256
370
-1
 48
1.0
  6
ByLayer
 10
-7.5000000000000568
 20
90.5
 30
0.0
 40
2.6249999999999969
  0
CIRCLE
  5
1AF
100
AcDbEntity
100
AcDbCircle
  8
0
 62
256
370
-1
 48
1.0
  6
ByLayer
 10
-90.500000000000057
 20
173.5
 30
0.0
 40
2.6249999999999969
  0
CIRCLE
  5
1B0
100
AcDbEntity
100
AcDbCircle
  8
0
 62
256
370
-1
 48
1.0
  6
ByLayer
 10
-156.00000000000006
 20
156.0
 30
0.0
 40
5.0000000000000053
  0
ENDBLK
  5
1B1
100
AcDbEntity
  8
0
100
AcDbBlockEnd
  0
ENDSEC
  0
SECTION
  2
ENTITIES
  0
INSERT
  5
1B2
100
AcDbEntity
100
AcDbBlockReference
  8
0
 62
256
370
-1
 48
1.0
  6
ByLayer
  2
carrier_window
 10
754.42000000000041
 20
-673.23999999999978
 30
0.0
 50
180.0
  0
INSERT
  5
1B3
100
AcDbEntity
100
AcDbBlockReference
  8
0
 62
256
370
-1
 48
1.0
  6
ByLayer
  2
p2
 10
0.0
 20
0.0
 30
0.0
  0
INSERT
  5
1B4
100
AcDbEntity
100
AcDbBlockReference
  8
0
 62
256
370
-1
 48
1.0
  6
ByLayer
  2
p3
 10
-0.0000000000004547
 20
-1000.0000000000002
 30
0.0
 41
1.0
 42
-1.0
 43
1.0
 50
270.0
  0
INSERT
  5
1B5
100
AcDbEntity
100
AcDbBlockReference
  8
0
 62
256
370
-1
 48
1.0
  6
ByLayer
  2
p2
 10
1.5
 20
-513.10000000000002
 30
0.0
  0
INSERT
  5
1B6
100
AcDbEntity
100
AcDbBlockReference
  8
0
 62
256
370
-1
 48
1.0
  6
ByLayer
  2
p3
 10
600.0
 20
-1000.0
 30
0.0
 41
1.0
 42
-1.0
 43
1.0
 50
270.0
  0
INSERT
  5
1B7
100
AcDbEntity
100
AcDbBlockReference
  8
0
 62
256
370
-1
 48
1.0
  6
ByLayer
  2
p2
 10
500.00000000000006
 20
-481.24000000000001
 30
0.0
  0
INSERT
  5
1B8
100
AcDbEntity
100
AcDbBlockReference
  8
0
 62
256
370
-1
 48
1.0
  6
ByLayer
  2
carrier
 10
233.5
 20
-181.00000000000011
 30
0.0
  0
INSERT
  5
1B9
100
AcDbEntity
100
AcDbBlockReference
  8
0
 62
256
370
-1
 48
1.0
  6
ByLayer
  2
carrier_tray
 10
-247.30749537638943
 20
-514.32183590445629
 30
0.0
 50
180.0
  0
INSERT
  5
1BA
100
AcDbEntity
100
AcDbBlockReference
  8
0
 62
256
370
-1
 48
1.0
  6
ByLayer
  2
carrier_wall
 10
-0.0000000000000639
 20
-181.00000000000011
 30
0.0
 50
180.0
  0
INSERT
  5
1BB
100
AcDbEntity
100
AcDbBlockReference
  8
0
 62
256
370
-1
 48
1.0
  6
ByLayer
  2
door
 10
500.00000000000011
 20
-865.24000000000012
 30
0.0
 50
180.0
  0
INSERT
  5
1BC
100
AcDbEntity
100
AcDbBlockReference
  8
0
 62
256
370
-1
 48
1.0
  6
ByLayer
  2
drawer_back
 10
39.499999999999552
 20
-1039.4999999999998
 30
0.0
 41
1.0
 42
-1.0
 43
1.0
 50
180.0
  0
INSERT
  5
1BD
100
AcDbEntity
100
AcDbBlockReference
  8
0
 62
256
370
-1
 48
1.0
  6
ByLayer
  2
drawer_front
 10
639.50000000000023
 20
-1039.5
 30
0.0
 41
1.0
 42
-1.0
 43
1.0
 50
180.0
  0
INSERT
  5
1BE
100
AcDbEntity
100
AcDbBlockReference
  8
0
 62
256
370
-1
 48
1.0
  6
ByLayer
  2
drawer_bottom
 10
86.666666666666544
 20
-1707.7199999999993
 30
0.0
 41
1.0
 42
-1.0
 43
1.0
 50
180.0
  0
INSERT
  5
1BF
100
AcDbEntity
100
AcDbBlockReference
  8
0
 62
256
370
-1
 48
1.0
  6
ByLayer
  2
drawer_left
 10
96.619999999999592
 20
-1463.6599999999996
 30
0.0
  0
INSERT
  5
1C0
100
AcDbEntity
100
AcDbBlockReference
  8
0
 62
256
370
-1
 48
1.0
  6
ByLayer
  2
drawer_support
 10
126.61999999999969
 20
-1263.8599999999997
 30
0.0
 41
1.0
 42
-1.0
 43
1.0
 50
90.000000000000014
  0
INSERT
  5
1C1
100
AcDbEntity
100
AcDbBlockReference
  8
0
 62
256
370
-1
 48
1.0
  6
ByLayer
  2
frame_back
 10
-0.0000000000004547
 20
-1000.0000000000002
 30
0.0
 41
1.0
 42
-1.0
 43
1.0
 50
180.0
  0
INSERT
  5
1C2
100
AcDbEntity
100
AcDbBlockReference
  8
0
 62
256
370
-1
 48
1.0
  6
ByLayer
  2
frame_bottom
 10
-0.0000000000005134
 20
-1519.9999999999998
 30
0.0
 50
180.0
  0
INSERT
  5
1C3
100
AcDbEntity
100
AcDbBlockReference
  8
0
 62
256
370
-1
 48
1.0
  6
ByLayer
  2
frame_foot2
 10
667.71999999999991
 20
-1619.4999999999998
 30
0.0
 41
1.0
 42
-1.0
 43
1.0
 50
90.000000000000014
  0
INSERT
  5
1C4
100
AcDbEntity
100
AcDbBlockReference
  8
0
 62
256
370
-1
 48
1.0
  6
ByLayer
  2
frame_foot1
 10
912.27999999999997
 20
-1619.5
 30
0.0
 50
90.000000000000014
  0
INSERT
  5
1C5
100
AcDbEntity
100
AcDbBlockReference
  8
0
 62
256
370
-1
 48
1.0
  6
ByLayer
  2
frame_front
 10
600.00000000000011
 20
-1000.0
 30
0.0
 41
1.0
 42
-1.0
 43
1.0
 50
180.0
  0
INSERT
  5
1C6
100
AcDbEntity
100
AcDbBlockReference
  8
0
 62
256
370
-1
 48
1.0
  6
ByLayer
  2
frame_galvo
 10
290.28000000000003
 20
-181.00000000000023
 30
0.0
 41
1.0
 42
-1.0
 43
1.0
 50
270.0
  0
INSERT
  5
1C7
100
AcDbEntity
100
AcDbBlockReference
  8
0
 62
256
370
-1
 48
1.0
  6
ByLayer
  2
frame_laser
 10
290.28000000000003
 20
-115.00000000000021
 30
0.0
 50
270.0
  0
INSERT
  5
1C8
100
AcDbEntity
100
AcDbBlockReference
  8
0
 62
256
370
-1
 48
1.0
  6
ByLayer
  2
frame_right
 10
853.28000000000077
 20
-1519.9999999999998
 30
0.0
 41
1.0
 42
-1.0
 43
1.0
 50
180.0
  0
INSERT
  5
1C9
100
AcDbEntity
100
AcDbBlockReference
  8
0
 62
256
370
-1
 48
1.0
  6
ByLayer
  2
frame_top
 10
600.00000000000023
 20
-1519.9999999999998
 30
0.0
 50
180.0
  0
INSERT
  5
1CA
100
AcDbEntity
100
AcDbBlockReference
  8
0
 62
256
370
-1
 48
1.0
  6
ByLayer
  2
carrier_wall
 10
181.00000000000006
 20
-181.00000000000017
 30
0.0
 50
180.0
  0
INSERT
  5
1CB
100
AcDbEntity
100
AcDbBlockReference
  8
0
 62
256
370
-1
 48
1.0
  6
ByLayer
  2
frame_laser
 10
290.28000000000003
 20
-91.000000000000227
 30
0.0
 50
270.0
  0
INSERT
  5
1CC
100
AcDbEntity
100
AcDbBlockReference
  8
0
 62
256
370
-1
 48
1.0
  6
ByLayer
  2
frame_right
 10
253.28000000000029
 20
-1520.0
 30
0.0
 41
1.0
 42
-1.0
 43
1.0
 50
180.0
  0
INSERT
  5
1CD
100
AcDbEntity
100
AcDbBlockReference
  8
0
 62
256
370
-1
 48
1.0
  6
ByLayer
  2
drawer_right
 10
220.49999999999946
 20
-1463.6599999999996
 30
0.0
  0
INSERT
  5
1CE
100
AcDbEntity
100
AcDbBlockReference
  8
0
 62
256
370
-1
 48
1.0
  6
ByLayer
  2
drawer_right
 10
639.50000000000011
 20
-1463.6600000000003
 30
0.0
 41
1.0
 42
-1.0
 43
1.0
 50
180.0
  0
INSERT
  5
1CF
100
AcDbEntity
100
AcDbBlockReference
  8
0
 62
256
370
-1
 48
1.0
  6
ByLayer
  2
drawer_right
 10
820.50000000000023
 20
-1463.6600000000003
 30
0.0
  0
INSERT
  5
1D0
100
AcDbEntity
100
AcDbBlockReference
  8
0
 62
256
370
-1
 48
1.0
  6
ByLayer
  2
drawer_bottom2
 10
267.66666666666663
 20
-1593.4799999999996
 30
0.0
 41
1.0
 42
-1.0
 43
1.0
 50
180.0
  0
INSERT
  5
1D1
100
AcDbEntity
100
AcDbBlockReference
  8
0
 62
256
370
-1
 48
1.0
  6
ByLayer
  2
door
 10
500.00000000000011
 20
-481.24000000000007
 30
0.0
 41
1.0
 42
-1.0
 43
1.0
 50
180.0
  0
INSERT
  5
1D2
100
AcDbEntity
100
AcDbBlockReference
  8
0
 62
256
370
-1
 48
1.0
  6
ByLayer
  2
carrier_window
 10
797.92000000000053
 20
-673.23999999999978
 30
0.0
  0
INSERT
  5
1D3
100
AcDbEntity
100
AcDbBlockReference
  8
0
 62
256
370
-1
 48
1.0
  6
ByLayer
  2
carrier_window
 10
754.42000000000053
 20
-673.2399999999999
 30
0.0
 41
1.0
 42
-1.0
 43
1.0
 50
180.0
  0
INSERT
  5
1D4
100
AcDbEntity
100
AcDbBlockReference
  8
0
 62
256
370
-1
 48
1.0
  6
ByLayer
  2
carrier_window
 10
797.92000000000053
 20
-673.23999999999967
 30
0.0
 41
1.0
 42
-1.0
 43
1.0
  0
INSERT
  5
1D5
100
AcDbEntity
100
AcDbBlockReference
  8
0
 62
256
370
-1
 48
1.0
  6
ByLayer
  2
drawer_support
 10
126.61999999999966
 20
-1263.8599999999994
 30
0.0
 50
90.000000000000014
  0
INSERT
  5
1D6
100
AcDbEntity
100
AcDbBlockReference
  8
0
 62
256
370
-1
 48
1.0
  6
ByLayer
  2
bed_backing
 10
211.77999999999997
 20
-166.00000000000017
 30
0.0
  0
INSERT
  5
1D7
100
AcDbEntity
100
AcDbBlockReference
  8
0
 62
256
370
-1
 48
1.0
  6
ByLayer
  2
bed_interface
 10
198.50000000000003
 20
-714.10000000000025
 30
0.0
 41
1.0
 42
-1.0
 43
1.0
  0
INSERT
  5
1D8
100
AcDbEntity
100
AcDbBlockReference
  8
0
 62
256
370
-1
 48
1.0
  6
ByLayer
  2
bed_x
 10
166.0
 20
-196.0000000000004
 30
0.0
  0
INSERT
  5
1D9
100
AcDbEntity
100
AcDbBlockReference
  8
0
 62
256
370
-1
 48
1.0
  6
ByLayer
  2
bed_backing
 10
347.00000000000017
 20
-347.00000000000011
 30
0.0
  0
INSERT
  5
1DA
100
AcDbEntity
100
AcDbBlockReference
  8
0
 62
256
370
-1
 48
1.0
  6
ByLayer
  2
bed_interface
 10
198.50000000000003
 20
-714.10000000000025
 30
0.0
 50
180.0
  0
INSERT
  5
1DB
100
AcDbEntity
100
AcDbBlockReference
  8
0
 62
256
370
-1
 48
1.0
  6
ByLayer
  2
bed_interface
 10
198.50000000000003
 20
-714.10000000000025
 30
0.0
 41
1.0
 42
-1.0
 43
1.0
 50
180.0
  0
INSERT
  5
1DC
100
AcDbEntity
100
AcDbBlockReference
  8
0
 62
256
370
-1
 48
1.0
  6
ByLayer
  2
crane_flap
 10
754.42000000000053
 20
-673.23999999999978
 30
0.0
 50
270.0
  0
INSERT
  5
1DD
100
AcDbEntity
100
AcDbBlockReference
  8
0
 62
256
370
-1
 48
1.0
  6
ByLayer
  2
crane_front
 10
667.72000000000003
 20
-1644.5
 30
0.0
 41
1.0
 42
-1.0
 43
1.0
  0
INSERT
  5
1DE
100
AcDbEntity
100
AcDbBlockReference
  8
0
 62
256
370
-1
 48
1.0
  6
ByLayer
  2
crane_flap
 10
754.42000000000041
 20
-673.2399999999999
 30
0.0
 41
1.0
 42
-1.0
 43
1.0
 50
90.000000000000014
  0
INSERT
  5
1DF
100
AcDbEntity
100
AcDbBlockReference
  8
0
 62
256
370
-1
 48
1.0
  6
ByLayer
  2
crane
 10
667.72000000000003
 20
-1660.0
 30
0.0
 50
180.0
  0
INSERT
  5
1E0
100
AcDbEntity
100
AcDbBlockReference
  8
0
 62
256
370
-1
 48
1.0
  6
ByLayer
  2
bed_interface
 10
198.50000000000003
 20
-714.10000000000025
 30
0.0
  0
INSERT
  5
1E1
100
AcDbEntity
100
AcDbBlockReference
  8
0
 62
256
370
-1
 48
1.0
  6
ByLayer
  2
crane_back
 10
667.72000000000003
 20
-1735.5
 30
0.0
  0
INSERT
  5
1E2
100
AcDbEntity
100
AcDbBlockReference
  8
0
 62
256
370
-1
 48
1.0
  6
ByLayer
  2
frame_laser_big
 10
290.28000000000003
 20
-67.000000000000227
 30
0.0
 50
270.0
  0
INSERT
  5
1E3
100
AcDbEntity
100
AcDbBlockReference
  8
0
 62
256
370
-1
 48
1.0
  6
ByLayer
  2
frame_laser_big
 10
290.28000000000003
 20
-43.000000000000227
 30
0.0
 50
270.0
  0
INSERT
  5
1E4
100
AcDbEntity
100
AcDbBlockReference
  8
0
 62
256
370
-1
 48
1.0
  6
ByLayer
  2
carrier_wall
 10
-246.15191205362291
 20
-741.77818947737205
 30
0.0
 50
180.0
  0
INSERT
  5
1E5
100
AcDbEntity
100
AcDbBlockReference
  8
0
 62
256
370
-1
 48
1.0
  6
ByLayer
  2
bed_interface
 10
-80.151912053622766
 20
-756.77818947737239
 30
0.0
 41
1.0
 42
-1.0
 43
1.0
  0
DIMENSION
  5
1E6
100
AcDbEntity
  8
0
 62
256
370
-1
 48
1.0
  6
ByLayer
100
AcDbDimension
 10
607.15090523531546
 20
-654.48000000000002
 30
0.0
 11
605.27590523531546
 21
-673.24000000000001
 31
0.0
 70
0
 71
8
 72
2
 41
1.0
 42
0.0
  1

  3
Standard
100
AcDbAlignedDimension
 13
598.64999999999998
 23
-654.48000000000002
 33
0.0
 14
598.65000000000009
 24
-692.00000000000011
 34
0.0
 50
90.0
100
AcDbRotatedDimension
1001
ACAD
1000
DSTYLE
1002
{
1070
144
1040
1
1002
}
  0
ENDSEC
  0
SECTION
  2
OBJECTS
  0
DICTIONARY
  5
C
100
AcDbDictionary
280
0
281
1
  3
ACAD_GROUP
350
D
  3
ACAD_LAYOUT
350
1A
  3
ACAD_MLINESTYLE
350
17
  3
ACAD_PLOTSETTINGS
350
19
  3
ACAD_PLOTSTYLENAME
350
E
  3
AcDbVariableDictionary
350
1E7
  3
QCAD_OBJECTS
350
1E8
  0
DICTIONARY
  5
D
100
AcDbDictionary
280
0
281
1
  0
ACDBDICTIONARYWDFLT
  5
E
100
AcDbDictionary
281
1
  3
Normal
350
F
100
AcDbDictionaryWithDefault
340
F
  0
ACDBPLACEHOLDER
  5
F
  0
DICTIONARY
  5
17
100
AcDbDictionary
280
0
281
1
  3
Standard
350
18
  0
MLINESTYLE
  5
18
100
AcDbMlineStyle
  2
STANDARD
 70
0
  3

 62
256
 51
90.0
 52
90.0
 71
2
 49
0.5
 62
256
  6
BYLAYER
 49
-0.5
 62
256
  6
BYLAYER
  0
DICTIONARY
  5
19
100
AcDbDictionary
280
0
281
1
  0
DICTIONARY
  5
1A
100
AcDbDictionary
281
1
  3
Layout1
350
1E
  3
Layout2
350
26
  3
Model
350
22
  0
LAYOUT
  5
1E
100
AcDbPlotSettings
  1

  2
none_device
  4

  6

 40
0.0
 41
0.0
 42
0.0
 43
0.0
 44
0.0
 45
0.0
 46
0.0
 47
0.0
 48
0.0
 49
0.0
140
0.0
141
0.0
142
1.0
143
1.0
 70
688
 72
0
 73
0
 74
5
  7

 75
16
147
1.0
148
0.0
149
0.0
100
AcDbLayout
  1
Layout1
 70
1
 71
1
 10
0.0
 20
0.0
 11
420.0
 21
297.0
 12
0.0
 22
0.0
 32
0.0
 14
100000000000000000000.0
 24
100000000000000000000.0
 34
100000000000000000000.0
 15
-100000000000000000000.0
 25
-100000000000000000000.0
 35
-100000000000000000000.0
146
0.0
 13
0.0
 23
0.0
 33
0.0
 16
1.0
 26
0.0
 36
0.0
 17
0.0
 27
1.0
 37
0.0
 76
0
330
1B
  0
LAYOUT
  5
22
100
AcDbPlotSettings
  1

  2
none_device
  4

  6

 40
0.0
 41
0.0
 42
0.0
 43
0.0
 44
0.0
 45
0.0
 46
0.0
 47
0.0
 48
0.0
 49
0.0
140
0.0
141
0.0
142
1.0
143
1.0
 70
1712
 72
0
 73
0
 74
0
  7

 75
0
147
1.0
148
0.0
149
0.0
100
AcDbLayout
  1
Model
 70
1
 71
0
 10
0.0
 20
0.0
 11
12.0
 21
9.0
 12
0.0
 22
0.0
 32
0.0
 14
0.0
 24
0.0
 34
0.0
 15
0.0
 25
0.0
 35
0.0
146
0.0
 13
0.0
 23
0.0
 33
0.0
 16
1.0
 26
0.0
 36
0.0
 17
0.0
 27
1.0
 37
0.0
 76
0
330
1F
  0
LAYOUT
  5
26
100
AcDbPlotSettings
  1

  2
none_device
  4

  6

 40
0.0
 41
0.0
 42
0.0
 43
0.0
 44
0.0
 45
0.0
 46
0.0
 47
0.0
 48
0.0
 49
0.0
140
0.0
141
0.0
142
1.0
143
1.0
 70
688
 72
0
 73
0
 74
5
  7

 75
16
147
1.0
148
0.0
149
0.0
100
AcDbLayout
  1
Layout2
 70
1
 71
2
 10
0.0
 20
0.0
 11
12.0
 21
9.0
 12
0.0
 22
0.0
 32
0.0
 14
0.0
 24
0.0
 34
0.0
 15
0.0
 25
0.0
 35
0.0
146
0.0
 13
0.0
 23
0.0
 33
0.0
 16
1.0
 26
0.0
 36
0.0
 17
0.0
 27
1.0
 37
0.0
 76
0
330
23
  0
DICTIONARY
  5
1E7
100
AcDbDictionary
281
1
  3
DIMASSOC
350
1EA
  3
HIDETEXT
350
1E9
  0
DICTIONARYVAR
  5
1E9
100
DictionaryVariables
280
0
  1
2
  0
DICTIONARYVAR
  5
1EA
100
DictionaryVariables
280
0
  1
1
  0
DICTIONARY
  5
1E8
100
AcDbDictionary
281
1
  3
Grid/DisplayGrid00
350
1EB
  3
Grid/DisplayGrid01
350
1EC
  3
Grid/DisplayGrid02
350
1ED
  3
Grid/DisplayGrid03
350
1EE
  3
Grid/GridSpacingX00
350
1EF
  3
Grid/GridSpacingX01
350
1F0
  3
Grid/GridSpacingX02
350
1F1
  3
Grid/GridSpacingX03
350
1F2
  3
Grid/GridSpacingY00
350
1F3
  3
Grid/GridSpacingY01
350
1F4
  3
Grid/GridSpacingY02
350
1F5
  3
Grid/GridSpacingY03
350
1F6
  3
Grid/IsometricGrid00
350
1F7
  3
Grid/IsometricGrid01
350
1F8
  3
Grid/IsometricGrid02
350
1F9
  3
Grid/IsometricGrid03
350
1FA
  3
Grid/IsometricProjection00
350
1FB
  3
Grid/IsometricProjection01
350
1FC
  3
Grid/IsometricProjection02
350
1FD
  3
Grid/IsometricProjection03
350
1FE
  3
Grid/MetaGridSpacingX00
350
1FF
  3
Grid/MetaGridSpacingX01
350
200
  3
Grid/MetaGridSpacingX02
350
201
  3
Grid/MetaGridSpacingX03
350
202
  3
Grid/MetaGridSpacingY00
350
203
  3
Grid/MetaGridSpacingY01
350
204
  3
Grid/MetaGridSpacingY02
350
205
  3
Grid/MetaGridSpacingY03
350
206
  3
MultiPageSettings/Columns
350
207
  3
MultiPageSettings/GlueMarginsBottom
350
208
  3
MultiPageSettings/GlueMarginsLeft
350
209
  3
MultiPageSettings/GlueMarginsRight
350
20A
  3
MultiPageSettings/GlueMarginsTop
350
20B
  3
MultiPageSettings/PrintCropMarks
350
20C
  3
MultiPageSettings/Rows
350
20D
  3
PageSettings/OffsetX
350
20E
  3
PageSettings/OffsetY
350
20F
  3
PageSettings/PageOrientation
350
210
  3
PageSettings/PaperHeight
350
211
  3
PageSettings/PaperWidth
350
212
  3
PageSettings/Scale
350
213
  3
PageSettings/ShowPaperBorders
350
214
  3
QCADVersion
350
215
  3
UnitSettings/PaperUnit
350
216
  0
XRECORD
  5
1EB
330
1E8
100
AcDbXrecord
280
1
290
1
  0
XRECORD
  5
1EC
330
1E8
100
AcDbXrecord
280
1
290
1
  0
XRECORD
  5
1ED
330
1E8
100
AcDbXrecord
280
1
290
1
  0
XRECORD
  5
1EE
330
1E8
100
AcDbXrecord
280
1
290
1
  0
XRECORD
  5
1EF
330
1E8
100
AcDbXrecord
280
1
1000
auto
  0
XRECORD
  5
1F0
330
1E8
100
AcDbXrecord
280
1
1000
auto
  0
XRECORD
  5
1F1
330
1E8
100
AcDbXrecord
280
1
1000
auto
  0
XRECORD
  5
1F2
330
1E8
100
AcDbXrecord
280
1
1000
auto
  0
XRECORD
  5
1F3
330
1E8
100
AcDbXrecord
280
1
1000
auto
  0
XRECORD
  5
1F4
330
1E8
100
AcDbXrecord
280
1
1000
auto
  0
XRECORD
  5
1F5
330
1E8
100
AcDbXrecord
280
1
1000
auto
  0
XRECORD
  5
1F6
330
1E8
100
AcDbXrecord
280
1
1000
auto
  0
XRECORD
  5
1F7
330
1E8
100
AcDbXrecord
280
1
290
0
  0
XRECORD
  5
1F8
330
1E8
100
AcDbXrecord
280
1
290
0
  0
XRECORD
  5
1F9
330
1E8
100
AcDbXrecord
280
1
290
0
  0
XRECORD
  5
1FA
330
1E8
100
AcDbXrecord
280
1
290
0
  0
XRECORD
  5
1FB
330
1E8
100
AcDbXrecord
280
1
 90
0
  0
XRECORD
  5
1FC
330
1E8
100
AcDbXrecord
280
1
 90
0
  0
XRECORD
  5
1FD
330
1E8
100
AcDbXrecord
280
1
 90
0
  0
XRECORD
  5
1FE
330
1E8
100
AcDbXrecord
280
1
 90
0
  0
XRECORD
  5
1FF
330
1E8
100
AcDbXrecord
280
1
1000
auto
  0
XRECORD
  5
200
330
1E8
100
AcDbXrecord
280
1
1000
auto
  0
XRECORD
  5
201
330
1E8
100
AcDbXrecord
280
1
1000
auto
  0
XRECORD
  5
202
330
1E8
100
AcDbXrecord
280
1
1000
auto
  0
XRECORD
  5
203
330
1E8
100
AcDbXrecord
280
1
1000
auto
  0
XRECORD
  5
204
330
1E8
100
AcDbXrecord
280
1
1000
auto
  0
XRECORD
  5
205
330
1E8
100
AcDbXrecord
280
1
1000
auto
  0
XRECORD
  5
206
330
1E8
100
AcDbXrecord
280
1
1000
auto
  0
XRECORD
  5
207
330
1E8
100
AcDbXrecord
280
1
 90
1
  0
XRECORD
  5
208
330
1E8
100
AcDbXrecord
280
1
 40
10.0
  0
XRECORD
  5
209
330
1E8
100
AcDbXrecord
280
1
 40
10.0
  0
XRECORD
  5
20A
330
1E8
100
AcDbXrecord
280
1
 40
10.0
  0
XRECORD
  5
20B
330
1E8
100
AcDbXrecord
280
1
 40
10.0
  0
XRECORD
  5
20C
330
1E8
100
AcDbXrecord
280
1
290
0
  0
XRECORD
  5
20D
330
1E8
100
AcDbXrecord
280
1
 90
1
  0
XRECORD
  5
20E
330
1E8
100
AcDbXrecord
280
1
 40
0.0
  0
XRECORD
  5
20F
330
1E8
100
AcDbXrecord
280
1
 40
0.0
  0
XRECORD
  5
210
330
1E8
100
AcDbXrecord
280
1
1000
Portrait
  0
XRECORD
  5
211
330
1E8
100
AcDbXrecord
280
1
 40
297.0
  0
XRECORD
  5
212
330
1E8
100
AcDbXrecord
280
1
 40
210.0
  0
XRECORD
  5
213
330
1E8
100
AcDbXrecord
280
1
1000
1:1
  0
XRECORD
  5
214
330
1E8
100
AcDbXrecord
280
1
290
1
  0
XRECORD
  5
215
330
1E8
100
AcDbXrecord
280
1
1000
3.9.0
  0
XRECORD
  5
216
330
1E8
100
AcDbXrecord
280
1
 90
4
  0
ENDSEC
  0
EOF
