999
dxflib 3.12.2.0
  0
SECTION
  2
HEADER
  9
$ACADVER
  1
AC1015
  9
$HANDSEED
  5
FFFF
  9
$ANGBASE
 50
0.0
  9
$ATTMODE
 70
1
  9
$AUNITS
 70
0
  9
$AUPREC
 70
0
  9
$CELTSCALE
 40
1.0
  9
$CHAMFERA
 40
0.0
  9
$CHAMFERB
 40
0.0
  9
$CHAMFERC
 40
0.0
  9
$CHAMFERD
 40
0.0
  9
$CMLJUST
 70
0
  9
$CMLSCALE
 40
1.0
  9
$DIMADEC
 70
0
  9
$DIMALTD
 70
2
  9
$DIMALTF
 40
25.399999999999999
  9
$DIMALTRND
 40
0.0
  9
$DIMALTTD
 70
2
  9
$DIMALTTZ
 70
0
  9
$DIMALTU
 70
2
  9
$DIMALTZ
 70
0
  9
$DIMAPOST
  1

  9
$DIMASZ
 40
2.5
  9
$DIMATFIT
 70
3
  9
$DIMAUNIT
 70
0
  9
$DIMAZIN
 70
2
  9
$DIMCEN
 40
0.09
  9
$DIMDEC
 70
4
  9
$DIMDLE
 40
0.0
  9
$DIMDLI
 40
0.38
  9
$DIMDSEP
 70
46
  9
$DIMEXE
 40
1.25
  9
$DIMEXO
 40
0.625
  9
$DIMFRAC
 70
0
  9
$DIMGAP
 40
0.625
  9
$DIMJUST
 70
0
  9
$DIMLFAC
 40
1.0
  9
$DIMLUNIT
 70
2
  9
$DIMLWD
 70
-2
  9
$DIMLWE
 70
-2
  9
$DIMPOST
  1

  9
$DIMRND
 40
0.0
  9
$DIMSCALE
 40
1.0
  9
$DIMTAD
 70
0
  9
$DIMTDEC
 70
4
  9
$DIMTFAC
 40
1.0
  9
$DIMTM
 40
0.0
  9
$DIMTOLJ
 70
1
  9
$DIMTP
 40
0.0
  9
$DIMTSZ
 40
0.0
  9
$DIMTVP
 40
0.0
  9
$DIMTXT
 40
2.5
  9
$DIMTZIN
 70
0
  9
$DIMZIN
 70
8
  9
$DWGCODEPAGE
  3
ANSI_1252
  9
$ELEVATION
 40
0.0
  9
$EXTMAX
 10
-100000000000000000000.0
 20
-100000000000000000000.0
 30
-100000000000000000000.0
  9
$EXTMIN
 10
100000000000000000000.0
 20
100000000000000000000.0
 30
100000000000000000000.0
  9
$FILLETRAD
 40
0.5
  9
$INSBASE
 10
0.0
 20
0.0
 30
0.0
  9
$INSUNITS
 70
4
  9
$LIMMAX
 10
12.0
 20
9.0
  9
$LIMMIN
 10
0.0
 20
0.0
  9
$LTSCALE
 40
1.0
  9
$LUNITS
 70
2
  9
$LUPREC
 70
4
  9
$MAXACTVP
 70
2
  9
$MEASUREMENT
 70
1
  9
$PDMODE
 70
0
  9
$PDSIZE
 40
0
  9
$PELEVATION
 40
0.0
  9
$PEXTMAX
 10
-100000000000000000000.0
 20
-100000000000000000000.0
 30
-100000000000000000000.0
  9
$PEXTMIN
 10
100000000000000000000.0
 20
100000000000000000000.0
 30
100000000000000000000.0
  9
$PINSBASE
 10
0.0
 20
0.0
 30
0.0
  9
$PLIMMAX
 10
12.0
 20
9.0
  9
$PLIMMIN
 10
0.0
 20
0.0
  9
$PLINEWID
 40
0.0
  9
$PROXYGRAPHICS
 70
1
  9
$PUCSORG
 10
0.0
 20
0.0
 30
0.0
  9
$PUCSXDIR
 10
1.0
 20
0.0
 30
0.0
  9
$PUCSYDIR
 10
0.0
 20
1.0
 30
0.0
  9
$SHADEDGE
 70
3
  9
$SHADEDIF
 70
70
  9
$SKETCHINC
 40
0.1
  9
$SPLINESEGS
 70
8
  9
$SPLINETYPE
 70
6
  9
$SURFTAB1
 70
6
  9
$SURFTAB2
 70
6
  9
$SURFTYPE
 70
6
  9
$SURFU
 70
6
  9
$SURFV
 70
6
  9
$TEXTSIZE
 40
2.5
  9
$THICKNESS
 40
0.0
  9
$TRACEWID
 40
0.05
  9
$TREEDEPTH
 70
3020
  9
$UCSORG
 10
0.0
 20
0.0
 30
0.0
  9
$UCSXDIR
 10
1.0
 20
0.0
 30
0.0
  9
$UCSYDIR
 10
0.0
 20
1.0
 30
0.0
  9
$UNITMODE
 70
0
  9
$USERI1
 70
0
  9
$USERI2
 70
0
  9
$USERI3
 70
0
  9
$USERI4
 70
0
  9
$USERI5
 70
0
  9
$USERR1
 40
0.0
  9
$USERR2
 40
0.0
  9
$USERR3
 40
0.0
  9
$USERR4
 40
0.0
  9
$USERR5
 40
0.0
  0
ENDSEC
  0
SECTION
  2
TABLES
  0
TABLE
  2
VPORT
  5
8
100
AcDbSymbolTable
 70
1
  0
VPORT
  5
30
100
AcDbSymbolTableRecord
100
AcDbViewportTableRecord
  2
*Active
 70
0
 10
0.0
 20
0.0
 11
1.0
 21
1.0
 12
286.30555555555549
 22
148.5
 13
0.0
 23
0.0
 14
10.0
 24
10.0
 15
10.0
 25
10.0
 16
0.0
 26
0.0
 36
1.0
 17
0.0
 27
0.0
 37
0.0
 40
297.0
 41
1.92798353909465
 42
50.0
 43
0.0
 44
0.0
 50
0.0
 51
0.0
 71
0
 72
100
 73
1
 74
3
 75
1
 76
1
 77
0
 78
0
281
0
 65
1
110
0.0
120
0.0
130
0.0
111
1.0
121
0.0
131
0.0
112
0.0
122
1.0
132
0.0
 79
0
146
0.0
  0
ENDTAB
  0
TABLE
  2
LTYPE
  5
5
100
AcDbSymbolTable
 70
50
  0
LTYPE
  5
16
100
AcDbSymbolTableRecord
100
AcDbLinetypeTableRecord
  2
Continuous
 70
0
  3
Solid line
 72
65
 73
0
 40
0.0
  0
LTYPE
  5
31
100
AcDbSymbolTableRecord
100
AcDbLinetypeTableRecord
  2
DRAINAGE
 70
0
  3
Drainage ---->---->---->----
 72
65
 73
2
 40
10.16
 49
5.0800000000000001
 74
0
 49
5.0800000000000001
 74
0
  0
LTYPE
  5
32
100
AcDbSymbolTableRecord
100
AcDbLinetypeTableRecord
  2
ACAD_ISO15W100
 70
0
  3
ISO double-dash triple-dot __ __ . . . __ __ . .
 72
65
 73
10
 40
39.000000000000007
 49
12.0
 74
0
 49
-3.0
 74
0
 49
12.0
 74
0
 49
-2.9500000000000002
 74
0
 49
0.1
 74
0
 49
-2.8999999999999999
 74
0
 49
0.1
 74
0
 49
-2.8999999999999999
 74
0
 49
0.1
 74
0
 49
-2.9500000000000002
 74
0
  0
LTYPE
  5
33
100
AcDbSymbolTableRecord
100
AcDbLinetypeTableRecord
  2
ACAD_ISO10W100
 70
0
  3
ISO dash dot __ . __ . __ . __ . __ . __ . __ . 
 72
65
 73
4
 40
18.0
 49
12.0
 74
0
 49
-2.9500000000000002
 74
0
 49
0.1
 74
0
 49
-2.9500000000000002
 74
0
  0
LTYPE
  5
34
100
AcDbSymbolTableRecord
100
AcDbLinetypeTableRecord
  2
BORDERX2
 70
0
  3
Border (2x) ____  ____  .  ____  ____  .  ___
 72
65
 73
6
 40
88.899999999999991
 49
25.399999999999999
 74
0
 49
-12.699999999999999
 74
0
 49
25.399999999999999
 74
0
 49
-12.65
 74
0
 49
0.1
 74
0
 49
-12.65
 74
0
  0
LTYPE
  5
35
100
AcDbSymbolTableRecord
100
AcDbLinetypeTableRecord
  2
DIVIDE2
 70
0
  3
Divide (.5x) __..__..__..__..__..__..__..__.._
 72
65
 73
6
 40
15.874999999999998
 49
6.3499999999999996
 74
0
 49
-3.125
 74
0
 49
0.1
 74
0
 49
-3.0750000000000002
 74
0
 49
0.1
 74
0
 49
-3.125
 74
0
  0
LTYPE
  5
36
100
AcDbSymbolTableRecord
100
AcDbLinetypeTableRecord
  2
ACAD_ISO06W100
 70
0
  3
ISO long-dash triple-dot ____ ... ____ ... ____
 72
65
 73
8
 40
36.000000000000007
 49
24.0
 74
0
 49
-2.9500000000000002
 74
0
 49
0.1
 74
0
 49
-2.8999999999999999
 74
0
 49
0.1
 74
0
 49
-2.8999999999999999
 74
0
 49
0.1
 74
0
 49
-2.9500000000000002
 74
0
  0
LTYPE
  5
14
100
AcDbSymbolTableRecord
100
AcDbLinetypeTableRecord
  2
ByBlock
 70
0
  3

 72
65
 73
0
 40
0.0
  0
LTYPE
  5
37
100
AcDbSymbolTableRecord
100
AcDbLinetypeTableRecord
  2
DASHDOT
 70
0
  3
Dash dot __ . __ . __ . __ . __ . __ . __ . __
 72
65
 73
4
 40
25.400000000000002
 49
12.699999999999999
 74
0
 49
-6.2999999999999998
 74
0
 49
0.1
 74
0
 49
-6.2999999999999998
 74
0
  0
LTYPE
  5
38
100
AcDbSymbolTableRecord
100
AcDbLinetypeTableRecord
  2
FENCELINE1
 70
0
  3
Fenceline circle ----0-----0----0-----0----0-----0--
 72
65
 73
4
 40
36.829999999999998
 49
6.3499999999999996
 74
0
 49
-2.54
 74
0
 49
-2.54
 74
0
 49
25.399999999999999
 74
0
  0
LTYPE
  5
39
100
AcDbSymbolTableRecord
100
AcDbLinetypeTableRecord
  2
ACAD_ISO07W100
 70
0
  3
ISO dot . . . . . . . . . . . . . . . . . . . . 
 72
65
 73
2
 40
3.0
 49
0.1
 74
0
 49
-2.8999999999999999
 74
0
  0
LTYPE
  5
3A
100
AcDbSymbolTableRecord
100
AcDbLinetypeTableRecord
  2
ACAD_ISO03W100
 70
0
  3
ISO dash space __    __    __    __    __    __
 72
65
 73
2
 40
30.0
 49
12.0
 74
0
 49
-18.0
 74
0
  0
LTYPE
  5
3B
100
AcDbSymbolTableRecord
100
AcDbLinetypeTableRecord
  2
ACAD_ISO14W100
 70
0
  3
ISO dash triple-dot __ . . . __ . . . __ . . . _
 72
65
 73
8
 40
24.0
 49
12.0
 74
0
 49
-2.9500000000000002
 74
0
 49
0.1
 74
0
 49
-2.8999999999999999
 74
0
 49
0.1
 74
0
 49
-2.8999999999999999
 74
0
 49
0.1
 74
0
 49
-2.9500000000000002
 74
0
  0
LTYPE
  5
3C
100
AcDbSymbolTableRecord
100
AcDbLinetypeTableRecord
  2
DIVIDE
 70
0
  3
Divide ____ . . ____ . . ____ . . ____ . . ____
 72
65
 73
6
 40
31.750000000000004
 49
12.699999999999999
 74
0
 49
-6.2999999999999998
 74
0
 49
0.1
 74
0
 49
-6.25
 74
0
 49
0.1
 74
0
 49
-6.2999999999999998
 74
0
  0
LTYPE
  5
3D
100
AcDbSymbolTableRecord
100
AcDbLinetypeTableRecord
  2
DOTX2
 70
0
  3
Dot (2x) .  .  .  .  .  .  .  .  .  .  .  .  .  .
 72
65
 73
2
 40
12.699999999999999
 49
0.1
 74
0
 49
-12.6
 74
0
  0
LTYPE
  5
3E
100
AcDbSymbolTableRecord
100
AcDbLinetypeTableRecord
  2
TRACKS
 70
0
  3
Tracks -|-|-|-|-|-|-|-|-|-|-|-|-|-|-|-|-|-|-|-|-|-|-|-|-
 72
65
 73
2
 40
7.6200000000000001
 49
3.8100000000000001
 74
0
 49
3.8100000000000001
 74
0
  0
LTYPE
  5
3F
100
AcDbSymbolTableRecord
100
AcDbLinetypeTableRecord
  2
DASHED2
 70
0
  3
Dashed (.5x) _ _ _ _ _ _ _ _ _ _ _ _ _ _ _ _ _ 
 72
65
 73
2
 40
9.5249999999999986
 49
6.3499999999999996
 74
0
 49
-3.1749999999999998
 74
0
  0
LTYPE
  5
40
100
AcDbSymbolTableRecord
100
AcDbLinetypeTableRecord
  2
ACAD_ISO11W100
 70
0
  3
ISO double-dash dot __ __ . __ __ . __ __ . __ _
 72
65
 73
6
 40
33.0
 49
12.0
 74
0
 49
-3.0
 74
0
 49
12.0
 74
0
 49
-2.9500000000000002
 74
0
 49
0.1
 74
0
 49
-2.9500000000000002
 74
0
  0
LTYPE
  5
41
100
AcDbSymbolTableRecord
100
AcDbLinetypeTableRecord
  2
DASHDOTX2
 70
0
  3
Dash dot (2x) ____  .  ____  .  ____  .  ___
 72
65
 73
4
 40
50.799999999999997
 49
25.399999999999999
 74
0
 49
-12.65
 74
0
 49
0.1
 74
0
 49
-12.65
 74
0
  0
LTYPE
  5
42
100
AcDbSymbolTableRecord
100
AcDbLinetypeTableRecord
  2
CENTER2
 70
0
  3
Center (.5x) ___ _ ___ _ ___ _ ___ _ ___ _ ___
 72
65
 73
4
 40
28.575000000000003
 49
19.050000000000001
 74
0
 49
-3.1749999999999998
 74
0
 49
3.1749999999999998
 74
0
 49
-3.1749999999999998
 74
0
  0
LTYPE
  5
43
100
AcDbSymbolTableRecord
100
AcDbLinetypeTableRecord
  2
PHANTOM2
 70
0
  3
Phantom (.5x) ___ _ _ ___ _ _ ___ _ _ ___ _ _
 72
65
 73
6
 40
31.750000000000004
 49
15.875
 74
0
 49
-3.1749999999999998
 74
0
 49
3.1749999999999998
 74
0
 49
-3.1749999999999998
 74
0
 49
3.1749999999999998
 74
0
 49
-3.1749999999999998
 74
0
  0
LTYPE
  5
44
100
AcDbSymbolTableRecord
100
AcDbLinetypeTableRecord
  2
GAS_LINE
 70
0
  3
Gas line ----GAS----GAS----GAS----GAS----GAS----GAS--
 72
65
 73
3
 40
24.130000000000003
 49
12.699999999999999
 74
0
 49
-5.0800000000000001
 74
0
 49
-6.3499999999999996
 74
0
  0
LTYPE
  5
45
100
AcDbSymbolTableRecord
100
AcDbLinetypeTableRecord
  2
HIDDEN
 70
0
  3
Hidden __ __ __ __ __ __ __ __ __ __ __ __ __ __
 72
65
 73
2
 40
9.5249999999999986
 49
6.3499999999999996
 74
0
 49
-3.1749999999999998
 74
0
  0
LTYPE
  5
46
100
AcDbSymbolTableRecord
100
AcDbLinetypeTableRecord
  2
HOT_WATER_SUPPLY
 70
0
  3
Hot water supply ---- HW ---- HW ---- HW ----
 72
65
 73
3
 40
22.859999999999999
 49
12.699999999999999
 74
0
 49
-5.0800000000000001
 74
0
 49
-5.0800000000000001
 74
0
  0
LTYPE
  5
47
100
AcDbSymbolTableRecord
100
AcDbLinetypeTableRecord
  2
PHANTOM
 70
0
  3
Phantom ______  __  __  ______  __  __  ______ 
 72
65
 73
6
 40
63.500000000000007
 49
31.75
 74
0
 49
-6.3499999999999996
 74
0
 49
6.3499999999999996
 74
0
 49
-6.3499999999999996
 74
0
 49
6.3499999999999996
 74
0
 49
-6.3499999999999996
 74
0
  0
LTYPE
  5
15
100
AcDbSymbolTableRecord
100
AcDbLinetypeTableRecord
  2
ByLayer
 70
0
  3

 72
65
 73
0
 40
0.0
  0
LTYPE
  5
48
100
AcDbSymbolTableRecord
100
AcDbLinetypeTableRecord
  2
DRAINAGE2
 70
0
  3
Drainage reversed----<----<----<----
 72
65
 73
2
 40
10.16
 49
5.0800000000000001
 74
0
 49
5.0800000000000001
 74
0
  0
LTYPE
  5
49
100
AcDbSymbolTableRecord
100
AcDbLinetypeTableRecord
  2
DASHEDX2
 70
0
  3
Dashed (2x) ____  ____  ____  ____  ____  ___
 72
65
 73
2
 40
38.099999999999994
 49
25.399999999999999
 74
0
 49
-12.699999999999999
 74
0
  0
LTYPE
  5
4A
100
AcDbSymbolTableRecord
100
AcDbLinetypeTableRecord
  2
HIDDEN2
 70
0
  3
Hidden (.5x) _ _ _ _ _ _ _ _ _ _ _ _ _ _ _ _ _ 
 72
65
 73
2
 40
4.7624999999999993
 49
3.1749999999999998
 74
0
 49
-1.5874999999999999
 74
0
  0
LTYPE
  5
4B
100
AcDbSymbolTableRecord
100
AcDbLinetypeTableRecord
  2
BATTING
 70
0
  3
Batting SSSSSSSSSSSSSSSSSSSSSSSSSSSSSSSSSSSSSSSSSSSSSSS
 72
65
 73
4
 40
10.16254
 49
0.00254
 74
0
 49
-2.54
 74
0
 49
-5.0800000000000001
 74
0
 49
-2.54
 74
0
  0
LTYPE
  5
4C
100
AcDbSymbolTableRecord
100
AcDbLinetypeTableRecord
  2
DIVIDEX2
 70
0
  3
Divide (2x) ________  .  .  ________  .  .  _
 72
65
 73
6
 40
63.5
 49
25.399999999999999
 74
0
 49
-12.65
 74
0
 49
0.1
 74
0
 49
-12.6
 74
0
 49
0.1
 74
0
 49
-12.65
 74
0
  0
LTYPE
  5
4D
100
AcDbSymbolTableRecord
100
AcDbLinetypeTableRecord
  2
ACAD_ISO13W100
 70
0
  3
ISO double-dash double-dot __ __ . . __ __ . . _
 72
65
 73
8
 40
36.000000000000007
 49
12.0
 74
0
 49
-3.0
 74
0
 49
12.0
 74
0
 49
-2.9500000000000002
 74
0
 49
0.1
 74
0
 49
-2.8999999999999999
 74
0
 49
0.1
 74
0
 49
-2.9500000000000002
 74
0
  0
LTYPE
  5
4E
100
AcDbSymbolTableRecord
100
AcDbLinetypeTableRecord
  2
FENCELINE2
 70
0
  3
Fenceline square ----[]-----[]----[]-----[]----[]---
 72
65
 73
4
 40
36.829999999999998
 49
6.3499999999999996
 74
0
 49
-2.54
 74
0
 49
-2.54
 74
0
 49
25.399999999999999
 74
0
  0
LTYPE
  5
4F
100
AcDbSymbolTableRecord
100
AcDbLinetypeTableRecord
  2
ACAD_ISO02W100
 70
0
  3
ISO dash __ __ __ __ __ __ __ __ __ __ __ __ __
 72
65
 73
2
 40
15.0
 49
12.0
 74
0
 49
-3.0
 74
0
  0
LTYPE
  5
50
100
AcDbSymbolTableRecord
100
AcDbLinetypeTableRecord
  2
ACAD_ISO04W100
 70
0
  3
ISO long-dash dot ____ . ____ . ____ . ____ . _
 72
65
 73
4
 40
30.0
 49
24.0
 74
0
 49
-2.9500000000000002
 74
0
 49
0.1
 74
0
 49
-2.9500000000000002
 74
0
  0
LTYPE
  5
51
100
AcDbSymbolTableRecord
100
AcDbLinetypeTableRecord
  2
DOT
 70
0
  3
Dot . . . . . . . . . . . . . . . . . . . . . . . .
 72
65
 73
2
 40
6.3499999999999996
 49
0.1
 74
0
 49
-6.25
 74
0
  0
LTYPE
  5
52
100
AcDbSymbolTableRecord
100
AcDbLinetypeTableRecord
  2
ACAD_ISO12W100
 70
0
  3
ISO dash double-dot __ . . __ . . __ . . __ . . 
 72
65
 73
6
 40
21.0
 49
12.0
 74
0
 49
-2.9500000000000002
 74
0
 49
0.1
 74
0
 49
-2.8999999999999999
 74
0
 49
0.1
 74
0
 49
-2.9500000000000002
 74
0
  0
LTYPE
  5
53
100
AcDbSymbolTableRecord
100
AcDbLinetypeTableRecord
  2
DOT2
 70
0
  3
Dot (.5x) ........................................
 72
65
 73
2
 40
3.1750000000000003
 49
0.1
 74
0
 49
-3.0750000000000002
 74
0
  0
LTYPE
  5
54
100
AcDbSymbolTableRecord
100
AcDbLinetypeTableRecord
  2
ZIGZAG
 70
0
  3
Zig zag /\/\/\/\/\/\/\/\/\/\/\/\/\/\/\/\/\/\/\/\/\/\/\/
 72
65
 73
4
 40
20.32254
 49
0.00254
 74
0
 49
-5.0800000000000001
 74
0
 49
-10.16
 74
0
 49
-5.0800000000000001
 74
0
  0
LTYPE
  5
55
100
AcDbSymbolTableRecord
100
AcDbLinetypeTableRecord
  2
CENTERX2
 70
0
  3
Center (2x) ________  __  ________  __  _____
 72
65
 73
4
 40
101.60000000000001
 49
63.5
 74
0
 49
-12.699999999999999
 74
0
 49
12.699999999999999
 74
0
 49
-12.699999999999999
 74
0
  0
LTYPE
  5
56
100
AcDbSymbolTableRecord
100
AcDbLinetypeTableRecord
  2
PHANTOMX2
 70
0
  3
Phantom (2x) ____________    ____    ____   _
 72
65
 73
6
 40
127.00000000000001
 49
63.5
 74
0
 49
-12.699999999999999
 74
0
 49
12.699999999999999
 74
0
 49
-12.699999999999999
 74
0
 49
12.699999999999999
 74
0
 49
-12.699999999999999
 74
0
  0
LTYPE
  5
57
100
AcDbSymbolTableRecord
100
AcDbLinetypeTableRecord
  2
BORDER2
 70
0
  3
Border (.5x) __.__.__.__.__.__.__.__.__.__.__.
 72
65
 73
6
 40
22.225000000000001
 49
6.3499999999999996
 74
0
 49
-3.1749999999999998
 74
0
 49
6.3499999999999996
 74
0
 49
-3.125
 74
0
 49
0.1
 74
0
 49
-3.125
 74
0
  0
LTYPE
  5
58
100
AcDbSymbolTableRecord
100
AcDbLinetypeTableRecord
  2
CENTER
 70
0
  3
Center ____ _ ____ _ ____ _ ____ _ ____ _ ____
 72
65
 73
4
 40
50.800000000000004
 49
31.75
 74
0
 49
-6.3499999999999996
 74
0
 49
6.3499999999999996
 74
0
 49
-6.3499999999999996
 74
0
  0
LTYPE
  5
59
100
AcDbSymbolTableRecord
100
AcDbLinetypeTableRecord
  2
ACAD_ISO08W100
 70
0
  3
ISO long-dash short-dash ____ __ ____ __ ____ _
 72
65
 73
4
 40
36.0
 49
24.0
 74
0
 49
-3.0
 74
0
 49
6.0
 74
0
 49
-3.0
 74
0
  0
LTYPE
  5
5A
100
AcDbSymbolTableRecord
100
AcDbLinetypeTableRecord
  2
BORDER
 70
0
  3
Border __ __ . __ __ . __ __ . __ __ . __ __ .
 72
65
 73
6
 40
44.449999999999996
 49
12.699999999999999
 74
0
 49
-6.3499999999999996
 74
0
 49
12.699999999999999
 74
0
 49
-6.2999999999999998
 74
0
 49
0.1
 74
0
 49
-6.2999999999999998
 74
0
  0
LTYPE
  5
5B
100
AcDbSymbolTableRecord
100
AcDbLinetypeTableRecord
  2
ACAD_ISO09W100
 70
0
  3
ISO long-dash double-short-dash ____ __ __ ____
 72
65
 73
6
 40
45.0
 49
24.0
 74
0
 49
-3.0
 74
0
 49
6.0
 74
0
 49
-3.0
 74
0
 49
6.0
 74
0
 49
-3.0
 74
0
  0
LTYPE
  5
5C
100
AcDbSymbolTableRecord
100
AcDbLinetypeTableRecord
  2
DASHDOT2
 70
0
  3
Dash dot (.5x) _._._._._._._._._._._._._._._.
 72
65
 73
4
 40
12.699999999999999
 49
6.3499999999999996
 74
0
 49
-3.125
 74
0
 49
0.1
 74
0
 49
-3.125
 74
0
  0
LTYPE
  5
5D
100
AcDbSymbolTableRecord
100
AcDbLinetypeTableRecord
  2
DASHED
 70
0
  3
Dashed __ __ __ __ __ __ __ __ __ __ __ __ __ _
 72
65
 73
2
 40
19.049999999999997
 49
12.699999999999999
 74
0
 49
-6.3499999999999996
 74
0
  0
LTYPE
  5
5E
100
AcDbSymbolTableRecord
100
AcDbLinetypeTableRecord
  2
HIDDENX2
 70
0
  3
Hidden (2x) ____ ____ ____ ____ ____ ____ ____ 
 72
65
 73
2
 40
19.049999999999997
 49
12.699999999999999
 74
0
 49
-6.3499999999999996
 74
0
  0
LTYPE
  5
5F
100
AcDbSymbolTableRecord
100
AcDbLinetypeTableRecord
  2
ACAD_ISO05W100
 70
0
  3
ISO long-dash double-dot ____ .. ____ .. ____ . 
 72
65
 73
6
 40
33.0
 49
24.0
 74
0
 49
-2.9500000000000002
 74
0
 49
0.1
 74
0
 49
-2.8999999999999999
 74
0
 49
0.1
 74
0
 49
-2.9500000000000002
 74
0
  0
ENDTAB
  0
TABLE
  2
LAYER
  5
2
100
AcDbSymbolTable
 70
2
  0
LAYER
  5
10
100
AcDbSymbolTableRecord
100
AcDbLayerTableRecord
  2
0
 70
0
 62
7
420
16777215
  6
Continuous
370
25
390
F
  0
LAYER
  5
60
100
AcDbSymbolTableRecord
100
AcDbLayerTableRecord
  2
Defpoints
 70
0
 62
7
420
16777215
  6
Continuous
290
0
370
-3
390
F
  0
ENDTAB
  0
TABLE
  2
STYLE
  5
3
100
AcDbSymbolTable
 70
1
  0
STYLE
  5
61
100
AcDbSymbolTableRecord
100
AcDbTextStyleTableRecord
  2
Standard
 70
0
 40
0.0
 41
1.0
 50
0.0
 71
0
 42
2.5
  3

  4

1001
ACAD
1000
txt
1071
0
  0
ENDTAB
  0
TABLE
  2
VIEW
  5
6
100
AcDbSymbolTable
 70
0
  0
ENDTAB
  0
TABLE
  2
UCS
  5
7
100
AcDbSymbolTable
 70
0
  0
ENDTAB
  0
TABLE
  2
APPID
  5
9
100
AcDbSymbolTable
 70
1
  0
APPID
  5
12
100
AcDbSymbolTableRecord
100
AcDbRegAppTableRecord
  2
ACAD
 70
0
  0
APPID
  5
62
100
AcDbSymbolTableRecord
100
AcDbRegAppTableRecord
  2
QCAD
 70
0
  0
ENDTAB
  0
TABLE
  2
DIMSTYLE
  5
A
100
AcDbSymbolTable
 70
1
100
AcDbDimStyleTable
 71
0
  0
DIMSTYLE
105
27
100
AcDbSymbolTableRecord
100
AcDbDimStyleTableRecord
  2
Standard
 41
2.5
 42
0.625
 43
3.75
 44
1.25
 70
0
 73
0
 74
0
 77
1
 78
8
140
2.5
141
2.5
143
0.03937007874016
147
0.625
171
3
172
1
271
2
272
2
274
3
278
44
283
0
284
8
340
61
  0
ENDTAB
  0
TABLE
  2
BLOCK_RECORD
  5
1
100
AcDbSymbolTable
 70
1
  0
BLOCK_RECORD
  5
1F
100
AcDbSymbolTableRecord
100
AcDbBlockTableRecord
  2
*Model_Space
340
22
  0
BLOCK_RECORD
  5
1B
100
AcDbSymbolTableRecord
100
AcDbBlockTableRecord
  2
*Paper_Space
340
1E
  0
BLOCK_RECORD
  5
23
100
AcDbSymbolTableRecord
100
AcDbBlockTableRecord
  2
*Paper_Space0
340
26
  0
BLOCK_RECORD
  5
63
100
AcDbSymbolTableRecord
100
AcDbBlockTableRecord
  2
crane
340
0
  0
BLOCK_RECORD
  5
64
100
AcDbSymbolTableRecord
100
AcDbBlockTableRecord
  2
carrier_drain
340
0
  0
BLOCK_RECORD
  5
65
100
AcDbSymbolTableRecord
100
AcDbBlockTableRecord
  2
frame_laser
340
0
  0
BLOCK_RECORD
  5
66
100
AcDbSymbolTableRecord
100
AcDbBlockTableRecord
  2
crane_front
340
0
  0
BLOCK_RECORD
  5
67
100
AcDbSymbolTableRecord
100
AcDbBlockTableRecord
  2
frame_foot2
340
0
  0
BLOCK_RECORD
  5
68
100
AcDbSymbolTableRecord
100
AcDbBlockTableRecord
  2
crane_flap
340
0
  0
BLOCK_RECORD
  5
69
100
AcDbSymbolTableRecord
100
AcDbBlockTableRecord
  2
drawer_support
340
0
  0
BLOCK_RECORD
  5
6A
100
AcDbSymbolTableRecord
100
AcDbBlockTableRecord
  2
carrier
340
0
  0
BLOCK_RECORD
  5
6B
100
AcDbSymbolTableRecord
100
AcDbBlockTableRecord
  2
door
340
0
  0
BLOCK_RECORD
  5
6C
100
AcDbSymbolTableRecord
100
AcDbBlockTableRecord
  2
frame_top
340
0
  0
BLOCK_RECORD
  5
6D
100
AcDbSymbolTableRecord
100
AcDbBlockTableRecord
  2
drawer_back
340
0
  0
BLOCK_RECORD
  5
6E
100
AcDbSymbolTableRecord
100
AcDbBlockTableRecord
  2
frame_front
340
0
  0
BLOCK_RECORD
  5
6F
100
AcDbSymbolTableRecord
100
AcDbBlockTableRecord
  2
carrier_window
340
0
  0
BLOCK_RECORD
  5
70
100
AcDbSymbolTableRecord
100
AcDbBlockTableRecord
  2
frame_right
340
0
  0
BLOCK_RECORD
  5
71
100
AcDbSymbolTableRecord
100
AcDbBlockTableRecord
  2
carrier_wall
340
0
  0
BLOCK_RECORD
  5
72
100
AcDbSymbolTableRecord
100
AcDbBlockTableRecord
  2
frame_bottom
340
0
  0
BLOCK_RECORD
  5
73
100
AcDbSymbolTableRecord
100
AcDbBlockTableRecord
  2
carrier_tray
340
0
  0
BLOCK_RECORD
  5
74
100
AcDbSymbolTableRecord
100
AcDbBlockTableRecord
  2
p1
340
0
  0
BLOCK_RECORD
  5
75
100
AcDbSymbolTableRecord
100
AcDbBlockTableRecord
  2
frame_laser_big
340
0
  0
BLOCK_RECORD
  5
76
100
AcDbSymbolTableRecord
100
AcDbBlockTableRecord
  2
drawer_right
340
0
  0
BLOCK_RECORD
  5
77
100
AcDbSymbolTableRecord
100
AcDbBlockTableRecord
  2
frame_foot1
340
0
  0
BLOCK_RECORD
  5
78
100
AcDbSymbolTableRecord
100
AcDbBlockTableRecord
  2
drawer_left
340
0
  0
BLOCK_RECORD
  5
79
100
AcDbSymbolTableRecord
100
AcDbBlockTableRecord
  2
drawer_bottom
340
0
  0
BLOCK_RECORD
  5
7A
100
AcDbSymbolTableRecord
100
AcDbBlockTableRecord
  2
p3
340
0
  0
BLOCK_RECORD
  5
7B
100
AcDbSymbolTableRecord
100
AcDbBlockTableRecord
  2
p2
340
0
  0
BLOCK_RECORD
  5
7C
100
AcDbSymbolTableRecord
100
AcDbBlockTableRecord
  2
frame_back
340
0
  0
BLOCK_RECORD
  5
7D
100
AcDbSymbolTableRecord
100
AcDbBlockTableRecord
  2
frame_galvo
340
0
  0
ENDTAB
  0
ENDSEC
  0
SECTION
  2
BLOCKS
  0
BLOCK
  5
20
100
AcDbEntity
  8
0
100
AcDbBlockBegin
  2
*Model_Space
 70
0
 10
0.0
 20
0.0
 30
0.0
  3
*Model_Space
  1

  0
ENDBLK
  5
21
100
AcDbEntity
  8
0
100
AcDbBlockEnd
  0
BLOCK
  5
1C
100
AcDbEntity
 67
1
  8
0
100
AcDbBlockBegin
  2
*Paper_Space
 70
0
 10
0.0
 20
0.0
 30
0.0
  3
*Paper_Space
  1

  0
ENDBLK
  5
1D
100
AcDbEntity
 67
1
  8
0
100
AcDbBlockEnd
  0
BLOCK
  5
24
100
AcDbEntity
  8
0
100
AcDbBlockBegin
  2
*Paper_Space0
 70
0
 10
0.0
 20
0.0
 30
0.0
  3
*Paper_Space0
  1

  0
ENDBLK
  5
25
100
AcDbEntity
  8
0
100
AcDbBlockEnd
  0
BLOCK
  5
7E
100
AcDbEntity
  8
0
100
AcDbBlockBegin
  2
crane
 70
0
 10
0.0
 20
0.0
 30
0.0
  3
crane
  1

  0
LWPOLYLINE
  5
7F
  8
0
 62
256
370
-1
 48
1.0
  6
ByLayer
100
AcDbEntity
100
AcDbPolyline
 90
4
 70
1
 10
-117.2799999999999
 20
60.000000000000007
 30
0.0
 10
-117.2799999999999
 20
53.280000000000037
 30
0.0
 10
-127.2799999999999
 20
53.280000000000037
 30
0.0
 10
-127.2799999999999
 20
60.000000000000021
 30
0.0
  0
LWPOLYLINE
  5
80
  8
0
 62
256
370
-1
 48
1.0
  6
ByLayer
100
AcDbEntity
100
AcDbPolyline
 90
4
 70
1
 10
-75.529999999999902
 20
53.280000000000022
 30
0.0
 10
-75.529999999999902
 20
60.000000000000021
 30
0.0
 10
-65.529999999999902
 20
60.000000000000021
 30
0.0
 10
-65.529999999999902
 20
53.280000000000022
 30
0.0
  0
LWPOLYLINE
  5
81
  8
0
 62
256
370
-1
 48
1.0
  6
ByLayer
100
AcDbEntity
100
AcDbPolyline
 90
4
 70
1
 10
-169.02999999999992
 20
60.00000000000005
 30
0.0
 10
-169.02999999999992
 20
53.280000000000051
 30
0.0
 10
-179.02999999999992
 20
53.280000000000051
 30
0.0
 10
-179.02999999999992
 20
60.00000000000005
 30
0.0
  0
LWPOLYLINE
  5
82
  8
0
 62
256
370
-1
 48
1.0
  6
ByLayer
100
AcDbEntity
100
AcDbPolyline
 90
4
 70
1
 10
-75.529999999999902
 20
0.0
 30
0.0
 10
-75.529999999999902
 20
6.7199999999999918
 30
0.0
 10
-65.529999999999902
 20
6.7199999999999918
 30
0.0
 10
-65.529999999999902
 20
0.0
 30
0.0
  0
LWPOLYLINE
  5
83
  8
0
 62
256
370
-1
 48
1.0
  6
ByLayer
100
AcDbEntity
100
AcDbPolyline
 90
4
 70
1
 10
-127.2799999999999
 20
0.000000000000032
 30
0.0
 10
-127.2799999999999
 20
6.7200000000000024
 30
0.0
 10
-117.2799999999999
 20
6.7200000000000024
 30
0.0
 10
-117.2799999999999
 20
0.000000000000032
 30
0.0
  0
LWPOLYLINE
  5
84
  8
0
 62
256
370
-1
 48
1.0
  6
ByLayer
100
AcDbEntity
100
AcDbPolyline
 90
4
 70
1
 10
-169.02999999999992
 20
6.7200000000000202
 30
0.0
 10
-169.02999999999992
 20
0.0000000000000213
 30
0.0
 10
-179.02999999999992
 20
0.0000000000000213
 30
0.0
 10
-179.02999999999992
 20
6.7200000000000202
 30
0.0
  0
LWPOLYLINE
  5
85
  8
0
 62
256
370
-1
 48
1.0
  6
ByLayer
100
AcDbEntity
100
AcDbPolyline
 90
12
 70
1
 10
-33.779999999999916
 20
59.999999999999993
 30
0.0
 10
-33.779999999999916
 20
70.0
 30
0.0
 10
-210.77999999999992
 20
70.000000000000028
 30
0.0
 10
-210.77999999999992
 20
60.00000000000005
 30
0.0
 10
-244.55999999999989
 20
60.000000000000064
 30
0.0
 10
-244.55999999999989
 20
0.0000000000000213
 30
0.0
 10
-210.77999999999992
 20
0.0000000000000213
 30
0.0
 10
-210.77999999999992
 20
-9.9999999999999787
 30
0.0
 10
-33.779999999999887
 20
-9.9999999999999858
 30
0.0
 10
-33.779999999999887
 20
0.0
 30
0.0
 10
0.0
 20
0.0
 30
0.0
 10
0.0
 20
59.999999999999993
 30
0.0
  0
CIRCLE
  5
86
100
AcDbEntity
100
AcDbCircle
  8
0
 62
256
370
-1
 48
1.0
  6
ByLayer
 10
-122.27999999999993
 20
-4.9999999999999858
 30
0.0
 40
1.9999999999999989
  0
CIRCLE
  5
87
100
AcDbEntity
100
AcDbCircle
  8
0
 62
256
370
-1
 48
1.0
  6
ByLayer
 10
-122.2799999999999
 20
65.000000000000028
 30
0.0
 40
1.9999999999999989
  0
CIRCLE
  5
88
100
AcDbEntity
100
AcDbCircle
  8
0
 62
256
370
-1
 48
1.0
  6
ByLayer
 10
-18.780000000000001
 20
56.640000000000008
 30
0.0
 40
1.6499999999999999
  0
CIRCLE
  5
89
100
AcDbEntity
100
AcDbCircle
  8
0
 62
256
370
-1
 48
1.0
  6
ByLayer
 10
-156.77999999999997
 20
56.64000000000005
 30
0.0
 40
1.6499999999999999
  0
CIRCLE
  5
8A
100
AcDbEntity
100
AcDbCircle
  8
0
 62
256
370
-1
 48
1.0
  6
ByLayer
 10
-18.780000000000001
 20
3.360000000000003
 30
0.0
 40
1.6499999999999999
  0
CIRCLE
  5
8B
100
AcDbEntity
100
AcDbCircle
  8
0
 62
256
370
-1
 48
1.0
  6
ByLayer
 10
-156.77999999999997
 20
3.3600000000000527
 30
0.0
 40
1.6499999999999999
  0
CIRCLE
  5
8C
100
AcDbEntity
100
AcDbCircle
  8
0
 62
256
370
-1
 48
1.0
  6
ByLayer
 10
-225.77999999999992
 20
3.3600000000000811
 30
0.0
 40
1.6499999999999999
  0
CIRCLE
  5
8D
100
AcDbEntity
100
AcDbCircle
  8
0
 62
256
370
-1
 48
1.0
  6
ByLayer
 10
-87.77999999999993
 20
3.3600000000000207
 30
0.0
 40
1.6499999999999999
  0
CIRCLE
  5
8E
100
AcDbEntity
100
AcDbCircle
  8
0
 62
256
370
-1
 48
1.0
  6
ByLayer
 10
-225.77999999999992
 20
56.640000000000079
 30
0.0
 40
1.6499999999999999
  0
CIRCLE
  5
8F
100
AcDbEntity
100
AcDbCircle
  8
0
 62
256
370
-1
 48
1.0
  6
ByLayer
 10
-87.77999999999993
 20
56.640000000000036
 30
0.0
 40
1.6499999999999999
  0
CIRCLE
  5
90
100
AcDbEntity
100
AcDbCircle
  8
0
 62
256
370
-1
 48
1.0
  6
ByLayer
 10
-106.7799999999999
 20
45.500000000000021
 30
0.0
 40
1.6499999999999999
  0
CIRCLE
  5
91
100
AcDbEntity
100
AcDbCircle
  8
0
 62
256
370
-1
 48
1.0
  6
ByLayer
 10
-106.7799999999999
 20
14.500000000000021
 30
0.0
 40
1.6499999999999999
  0
CIRCLE
  5
92
100
AcDbEntity
100
AcDbCircle
  8
0
 62
256
370
-1
 48
1.0
  6
ByLayer
 10
-137.77999999999992
 20
14.500000000000021
 30
0.0
 40
1.6499999999999999
  0
CIRCLE
  5
93
100
AcDbEntity
100
AcDbCircle
  8
0
 62
256
370
-1
 48
1.0
  6
ByLayer
 10
-137.77999999999986
 20
45.500000000000021
 30
0.0
 40
1.6499999999999999
  0
CIRCLE
  5
94
100
AcDbEntity
100
AcDbCircle
  8
0
 62
256
370
-1
 48
1.0
  6
ByLayer
 10
-122.2799999999999
 20
30.000000000000021
 30
0.0
 40
11.5
  0
CIRCLE
  5
95
100
AcDbEntity
100
AcDbCircle
  8
0
 62
256
370
-1
 48
1.0
  6
ByLayer
 10
-225.77999999999992
 20
30.000000000000064
 30
0.0
 40
7.5
  0
CIRCLE
  5
96
100
AcDbEntity
100
AcDbCircle
  8
0
 62
256
370
-1
 48
1.0
  6
ByLayer
 10
-234.26528137423838
 20
38.485281374238646
 30
0.0
 40
2.0
  0
CIRCLE
  5
97
100
AcDbEntity
100
AcDbCircle
  8
0
 62
256
370
-1
 48
1.0
  6
ByLayer
 10
-217.29471862576133
 20
21.514718625761496
 30
0.0
 40
2.0
  0
CIRCLE
  5
98
100
AcDbEntity
100
AcDbCircle
  8
0
 62
256
370
-1
 48
1.0
  6
ByLayer
 10
-234.26528137423838
 20
21.514718625761496
 30
0.0
 40
2.0
  0
CIRCLE
  5
99
100
AcDbEntity
100
AcDbCircle
  8
0
 62
256
370
-1
 48
1.0
  6
ByLayer
 10
-217.29471862576133
 20
38.485281374238625
 30
0.0
 40
2.0
  0
CIRCLE
  5
9A
100
AcDbEntity
100
AcDbCircle
  8
0
 62
256
370
-1
 48
1.0
  6
ByLayer
 10
-18.779999999999902
 20
30.000000000000064
 30
0.0
 40
7.5
  0
CIRCLE
  5
9B
100
AcDbEntity
100
AcDbCircle
  8
0
 62
256
370
-1
 48
1.0
  6
ByLayer
 10
-10.294718625761405
 20
38.485281374238646
 30
0.0
 40
2.0
  0
CIRCLE
  5
9C
100
AcDbEntity
100
AcDbCircle
  8
0
 62
256
370
-1
 48
1.0
  6
ByLayer
 10
-27.265281374238455
 20
21.514718625761496
 30
0.0
 40
2.0
  0
CIRCLE
  5
9D
100
AcDbEntity
100
AcDbCircle
  8
0
 62
256
370
-1
 48
1.0
  6
ByLayer
 10
-10.294718625761405
 20
21.514718625761496
 30
0.0
 40
2.0
  0
CIRCLE
  5
9E
100
AcDbEntity
100
AcDbCircle
  8
0
 62
256
370
-1
 48
1.0
  6
ByLayer
 10
-27.265281374238484
 20
38.485281374238625
 30
0.0
 40
2.0
  0
ENDBLK
  5
9F
100
AcDbEntity
  8
0
100
AcDbBlockEnd
  0
BLOCK
  5
A0
100
AcDbEntity
  8
0
100
AcDbBlockBegin
  2
carrier_drain
 70
0
 10
0.0
 20
0.0
 30
0.0
  3
carrier_drain
  1

  0
LWPOLYLINE
  5
A1
  8
0
 62
256
370
-1
 48
1.0
  6
ByLayer
100
AcDbEntity
100
AcDbPolyline
 90
6
 70
1
 10
-8.0
 20
10.000000000000014
 30
0.0
 42
0.4142135623730951
 10
-10.0
 20
8.0000000000000142
 30
0.0
 10
-10.0
 20
-10.0
 30
0.0
 10
0.0
 20
-10.0
 30
0.0
 42
0.4142135623730951
 10
10.0
 20
0.0
 30
0.0
 10
10.0
 20
10.0
 30
0.0
  0
CIRCLE
  5
A2
100
AcDbEntity
100
AcDbCircle
  8
0
 62
256
370
-1
 48
1.0
  6
ByLayer
 10
0.0
 20
0.0
 30
0.0
 40
5.0
  0
ENDBLK
  5
A3
100
AcDbEntity
  8
0
100
AcDbBlockEnd
  0
BLOCK
  5
A4
100
AcDbEntity
  8
0
100
AcDbBlockBegin
  2
frame_laser
 70
0
 10
0.0
 20
0.0
 30
0.0
  3
frame_laser
  1

  0
LWPOLYLINE
  5
A5
  8
0
 62
256
370
-1
 48
1.0
  6
ByLayer
100
AcDbEntity
100
AcDbPolyline
 90
28
 70
1
 10
-11.499999999999936
 20
60.979130371550696
 30
0.0
 42
-0.9198662110078005
 10
-11.499999999999936
 20
49.020869628449304
 30
0.0
 10
-11.499999999999929
 20
40.0
 30
0.0
 10
-12.499999999999922
 20
40.0
 30
0.0
 10
-12.499999999999929
 20
49.020869628449304
 30
0.0
 42
-0.9198662110078002
 10
-12.499999999999936
 20
60.979130371550696
 30
0.0
 10
-12.499999999999943
 20
78.0
 30
0.0
 10
-24.0
 20
78.0
 30
0.0
 10
-24.000000000000007
 20
73.000000000000114
 30
0.0
 10
-17.499999999999936
 20
73.000000000000114
 30
0.0
 10
-17.499999999999936
 20
67.000000000000114
 30
0.0
 10
-24.000000000000007
 20
67.000000000000114
 30
0.0
 10
-24.0
 20
44.0
 30
0.0
 10
-15.499999999999929
 20
44.0
 30
0.0
 10
-15.499999999999922
 20
40.0
 30
0.0
 10
-24.000000000000007
 20
40.0
 30
0.0
 10
-24.0
 20
0.0
 30
0.0
 10
0.0
 20
0.0
 30
0.0
 10
0.0
 20
40.0
 30
0.0
 10
-8.5000000000000782
 20
40.0
 30
0.0
 10
-8.5000000000000782
 20
44.0
 30
0.0
 10
0.0
 20
44.0
 30
0.0
 10
0.0
 20
67.000000000000114
 30
0.0
 10
-6.5000000000000711
 20
67.000000000000114
 30
0.0
 10
-6.5000000000000639
 20
73.000000000000114
 30
0.0
 10
-0.0000000000000071
 20
73.000000000000114
 30
0.0
 10
-0.0000000000000071
 20
78.0
 30
0.0
 10
-11.499999999999943
 20
78.0
 30
0.0
  0
CIRCLE
  5
A6
100
AcDbEntity
100
AcDbCircle
  8
0
 62
256
370
-1
 48
1.0
  6
ByLayer
 10
-4.0
 20
36.060000000000002
 30
0.0
 40
1.9999999999999989
  0
CIRCLE
  5
A7
100
AcDbEntity
100
AcDbCircle
  8
0
 62
256
370
-1
 48
1.0
  6
ByLayer
 10
-20.0
 20
36.060000000000002
 30
0.0
 40
1.9999999999999989
  0
CIRCLE
  5
A8
100
AcDbEntity
100
AcDbCircle
  8
0
 62
256
370
-1
 48
1.0
  6
ByLayer
 10
-12.0
 20
25.0
 30
0.0
 40
1.575000000000004
  0
CIRCLE
  5
A9
100
AcDbEntity
100
AcDbCircle
  8
0
 62
256
370
-1
 48
1.0
  6
ByLayer
 10
-11.999999999999993
 20
10.0
 30
0.0
 40
1.574999999999996
  0
ENDBLK
  5
AA
100
AcDbEntity
  8
0
100
AcDbBlockEnd
  0
BLOCK
  5
AB
100
AcDbEntity
  8
0
100
AcDbBlockBegin
  2
crane_front
 70
0
 10
0.0
 20
0.0
 30
0.0
  3
crane_front
  1

  0
LWPOLYLINE
  5
AC
  8
0
 62
256
370
-1
 48
1.0
  6
ByLayer
100
AcDbEntity
100
AcDbPolyline
 90
4
 70
1
 10
18.704999999999899
 20
-3.0
 30
0.0
 42
-0.9999999999999998
 10
21.854999999999905
 20
-2.9999999999999929
 30
0.0
 10
21.854999999999905
 20
-3.1000000000000014
 30
0.0
 42
-0.9999999999999998
 10
18.704999999999899
 20
-3.0999999999999801
 30
0.0
  0
LWPOLYLINE
  5
AD
  8
0
 62
256
370
-1
 48
1.0
  6
ByLayer
100
AcDbEntity
100
AcDbPolyline
 90
4
 70
1
 10
40.854999999999905
 20
-3.1000000000000014
 30
0.0
 42
-0.9999999999999998
 10
37.705000000000013
 20
-3.1000000000000014
 30
0.0
 10
37.705000000000013
 20
-2.9999999999999929
 30
0.0
 42
-0.9999999999999998
 10
40.854999999999905
 20
-3.0
 30
0.0
  0
LWPOLYLINE
  5
AE
  8
0
 62
256
370
-1
 48
1.0
  6
ByLayer
100
AcDbEntity
100
AcDbPolyline
 90
88
 70
1
 10
224.20499999999998
 20
-50.0
 30
0.0
 10
224.20499999999998
 20
-45.219999999999999
 30
0.0
 10
223.18000000000001
 20
-45.219999999999999
 30
0.0
 42
-2.414213562373094
 10
222.93000000000001
 20
-44.969999999999999
 30
0.0
 10
222.93000000000001
 20
-42.969999999999999
 30
0.0
 42
-2.414213562373094
 10
223.18000000000001
 20
-42.719999999999999
 30
0.0
 10
224.20499999999998
 20
-42.719999999999999
 30
0.0
 10
224.20499999999998
 20
-41.719999999999999
 30
0.0
 10
227.35499999999999
 20
-41.719999999999999
 30
0.0
 10
227.35499999999999
 20
-42.719999999999999
 30
0.0
 10
228.38
 20
-42.719999999999992
 30
0.0
 42
-2.414213562373094
 10
228.63
 20
-42.969999999999992
 30
0.0
 10
228.63
 20
-44.969999999999999
 30
0.0
 42
-2.414213562373094
 10
228.38
 20
-45.219999999999999
 30
0.0
 10
227.35499999999996
 20
-45.219999999999999
 30
0.0
 10
227.35499999999996
 20
-50.0
 30
0.0
 10
244.56
 20
-50.0
 30
0.0
 10
244.56
 20
0.0
 30
0.0
 10
169.90499999999997
 20
0.0
 30
0.0
 10
169.90499999999997
 20
-7.5000000000000071
 30
0.0
 42
-0.9999999999999998
 10
164.65499999999997
 20
-7.5000000000000071
 30
0.0
 10
164.655
 20
0.0
 30
0.0
 10
79.905000000000001
 20
0.0
 30
0.0
 10
79.905000000000001
 20
-7.5
 30
0.0
 42
-0.9999999999999998
 10
74.655000000000001
 20
-7.5
 30
0.0
 10
74.655000000000001
 20
0.0
 30
0.0
 10
0.0
 20
0.0
 30
0.0
 10
0.0
 20
-50.0
 30
0.0
 10
17.205000000000013
 20
-50.0
 30
0.0
 10
17.205000000000013
 20
-45.219999999999999
 30
0.0
 10
16.180000000000007
 20
-45.219999999999999
 30
0.0
 42
-2.414213562373094
 10
15.930000000000007
 20
-44.969999999999999
 30
0.0
 10
15.930000000000007
 20
-42.969999999999999
 30
0.0
 42
-2.414213562373094
 10
16.179999999999893
 20
-42.719999999999999
 30
0.0
 10
17.205000000000013
 20
-42.719999999999999
 30
0.0
 10
17.205000000000013
 20
-41.719999999999999
 30
0.0
 10
20.35499999999999
 20
-41.719999999999999
 30
0.0
 10
20.35499999999999
 20
-42.719999999999999
 30
0.0
 10
21.37999999999991
 20
-42.719999999999992
 30
0.0
 42
-2.414213562373094
 10
21.629999999999995
 20
-42.969999999999992
 30
0.0
 10
21.629999999999995
 20
-44.969999999999999
 30
0.0
 42
-2.414213562373094
 10
21.379999999999995
 20
-45.219999999999999
 30
0.0
 10
20.35499999999999
 20
-45.219999999999999
 30
0.0
 10
20.35499999999999
 20
-50.0
 30
0.0
 10
65.530000000000001
 20
-50.0
 30
0.0
 10
65.530000000000001
 20
-56.719999999999999
 30
0.0
 10
75.530000000000001
 20
-56.719999999999999
 30
0.0
 10
75.530000000000001
 20
-50.0
 30
0.0
 10
86.205000000000013
 20
-50.0
 30
0.0
 10
86.205000000000013
 20
-45.219999999999999
 30
0.0
 10
85.180000000000007
 20
-45.219999999999999
 30
0.0
 42
-2.414213562373094
 10
84.930000000000007
 20
-44.969999999999999
 30
0.0
 10
84.930000000000007
 20
-42.969999999999999
 30
0.0
 42
-2.414213562373094
 10
85.180000000000007
 20
-42.719999999999999
 30
0.0
 10
86.205000000000013
 20
-42.719999999999999
 30
0.0
 10
86.205000000000013
 20
-41.719999999999999
 30
0.0
 10
89.35499999999999
 20
-41.719999999999999
 30
0.0
 10
89.35499999999999
 20
-42.719999999999999
 30
0.0
 10
90.379999999999995
 20
-42.719999999999992
 30
0.0
 42
-2.414213562373094
 10
90.629999999999995
 20
-42.969999999999992
 30
0.0
 10
90.629999999999995
 20
-44.969999999999999
 30
0.0
 42
-2.414213562373094
 10
90.379999999999995
 20
-45.219999999999999
 30
0.0
 10
89.35499999999999
 20
-45.219999999999999
 30
0.0
 10
89.35499999999999
 20
-50.0
 30
0.0
 10
117.2800000000001
 20
-50.0
 30
0.0
 10
117.2800000000001
 20
-56.719999999999999
 30
0.0
 10
127.28
 20
-56.719999999999999
 30
0.0
 10
127.28
 20
-50.0
 30
0.0
 10
155.20499999999998
 20
-50.0
 30
0.0
 10
155.20499999999998
 20
-45.219999999999999
 30
0.0
 10
154.17999999999998
 20
-45.219999999999999
 30
0.0
 42
-2.414213562373094
 10
153.92999999999998
 20
-44.969999999999999
 30
0.0
 10
153.92999999999998
 20
-42.969999999999999
 30
0.0
 42
-2.414213562373094
 10
154.17999999999998
 20
-42.719999999999999
 30
0.0
 10
155.20499999999998
 20
-42.719999999999999
 30
0.0
 10
155.20499999999998
 20
-41.719999999999999
 30
0.0
 10
158.35499999999996
 20
-41.719999999999999
 30
0.0
 10
158.35499999999996
 20
-42.719999999999999
 30
0.0
 10
159.38
 20
-42.719999999999992
 30
0.0
 42
-2.414213562373094
 10
159.63
 20
-42.969999999999992
 30
0.0
 10
159.63
 20
-44.969999999999999
 30
0.0
 42
-2.414213562373094
 10
159.38
 20
-45.219999999999999
 30
0.0
 10
158.35499999999996
 20
-45.219999999999999
 30
0.0
 10
158.35499999999996
 20
-50.0
 30
0.0
 10
169.03
 20
-50.0
 30
0.0
 10
169.03
 20
-56.719999999999999
 30
0.0
 10
179.03
 20
-56.719999999999999
 30
0.0
 10
179.03
 20
-50.0
 30
0.0
  0
ENDBLK
  5
AF
100
AcDbEntity
  8
0
100
AcDbBlockEnd
  0
BLOCK
  5
B0
100
AcDbEntity
  8
0
100
AcDbBlockBegin
  2
frame_foot2
 70
0
 10
0.0
 20
0.0
 30
0.0
  3
frame_foot2
  1

  0
LWPOLYLINE
  5
B1
  8
0
 62
256
370
-1
 48
1.0
  6
ByLayer
100
AcDbEntity
100
AcDbPolyline
 90
60
 70
1
 10
0.0
 20
-23.912076181105576
 30
0.0
 10
-6.7199999999999989
 20
-24.499999999999972
 30
0.0
 10
-13.440000000000026
 20
-24.5
 30
0.0
 10
-13.440000000000026
 20
-31.220000000000098
 30
0.0
 10
26.319999999999936
 20
-31.219999999999928
 30
0.0
 10
26.320000000000405
 20
-56.893962824640937
 30
0.0
 10
-30.071880662925736
 20
-55.909638886247194
 30
0.0
 10
-29.959999999999837
 20
-49.5
 30
0.0
 10
-29.95999999999983
 20
-36.059999999999988
 30
0.0
 10
-36.679999999999851
 20
-36.059999999999988
 30
0.0
 10
-36.679999999999829
 20
-42.779999999999973
 30
0.0
 10
-46.511666666666514
 20
-42.780000000000001
 30
0.0
 10
-46.5116666666665
 20
-37.999999999999972
 30
0.0
 10
-45.486666666666508
 20
-37.999999999999972
 30
0.0
 42
2.414213562373094
 10
-45.236666666666522
 20
-37.749999999999972
 30
0.0
 10
-45.236666666666522
 20
-35.749999999999957
 30
0.0
 42
2.414213562373094
 10
-45.486666666666508
 20
-35.499999999999972
 30
0.0
 10
-46.511666666666514
 20
-35.499999999999972
 30
0.0
 10
-46.511666666666514
 20
-34.499999999999986
 30
0.0
 10
-49.661666666666505
 20
-34.499999999999986
 30
0.0
 10
-49.661666666666505
 20
-35.499999999999972
 30
0.0
 10
-50.686666666666511
 20
-35.499999999999972
 30
0.0
 42
2.414213562373094
 10
-50.936666666666511
 20
-35.749999999999972
 30
0.0
 10
-50.936666666666511
 20
-37.75
 30
0.0
 42
2.414213562373094
 10
-50.686666666666511
 20
-37.999999999999972
 30
0.0
 10
-49.661666666666505
 20
-37.999999999999972
 30
0.0
 10
-49.661666666666505
 20
-42.780000000000001
 30
0.0
 10
-59.493333333333169
 20
-42.780000000000001
 30
0.0
 10
-59.493333333333169
 20
-49.500000000000028
 30
0.0
 10
-82.306666666666487
 20
-49.500000000000028
 30
0.0
 10
-82.306666666666501
 20
-42.780000000000001
 30
0.0
 10
-92.138333333332881
 20
-42.780000000000001
 30
0.0
 10
-92.138333333332881
 20
-37.999999999999972
 30
0.0
 10
-91.113333333332875
 20
-37.999999999999972
 30
0.0
 42
2.414213562373094
 10
-90.863333333332889
 20
-37.749999999999972
 30
0.0
 10
-90.863333333332889
 20
-35.749999999999957
 30
0.0
 42
2.414213562373094
 10
-91.113333333332875
 20
-35.499999999999972
 30
0.0
 10
-92.138333333332881
 20
-35.499999999999972
 30
0.0
 10
-92.138333333332881
 20
-34.5
 30
0.0
 10
-95.288333333332886
 20
-34.500000000000014
 30
0.0
 10
-95.288333333332886
 20
-35.499999999999972
 30
0.0
 10
-96.313333333332878
 20
-35.499999999999972
 30
0.0
 42
2.414213562373094
 10
-96.563333333332892
 20
-35.749999999999986
 30
0.0
 10
-96.563333333332892
 20
-37.75
 30
0.0
 42
2.414213562373094
 10
-96.313333333332892
 20
-37.999999999999972
 30
0.0
 10
-95.288333333332886
 20
-37.999999999999972
 30
0.0
 10
-95.288333333332886
 20
-42.780000000000001
 30
0.0
 10
-105.11999999999985
 20
-42.780000000000001
 30
0.0
 10
-105.11999999999983
 20
-36.05999999999996
 30
0.0
 10
-111.83999999999983
 20
-36.060000000000002
 30
0.0
 10
-111.83999999999982
 20
-49.500000000000028
 30
0.0
 10
-111.92694112108751
 20
-54.480853491246648
 30
0.0
 10
-168.11999999999966
 20
-53.499999999999915
 30
0.0
 10
-168.11999999999966
 20
-31.219999999999942
 30
0.0
 10
-128.35999999999964
 20
-31.220000000000113
 30
0.0
 10
-128.35999999999964
 20
-24.499999999999929
 30
0.0
 10
-135.07999999999967
 20
-24.499999999999943
 30
0.0
 10
-141.79999999999967
 20
-23.912076181105789
 30
0.0
 10
-141.79999999999967
 20
0.0
 30
0.0
 10
0.0
 20
0.0
 30
0.0
  0
CIRCLE
  5
B2
100
AcDbEntity
100
AcDbCircle
  8
0
 62
256
370
-1
 48
1.0
  6
ByLayer
 10
-121.83999999999983
 20
-17.779999999999944
 30
0.0
 40
1.9999999999999989
  0
CIRCLE
  5
B3
100
AcDbEntity
100
AcDbCircle
  8
0
 62
256
370
-1
 48
1.0
  6
ByLayer
 10
-19.959999999999866
 20
-17.779999999999916
 30
0.0
 40
1.9999999999999989
  0
ENDBLK
  5
B4
100
AcDbEntity
  8
0
100
AcDbBlockEnd
  0
BLOCK
  5
B5
100
AcDbEntity
  8
0
100
AcDbBlockBegin
  2
crane_flap
 70
0
 10
0.0
 20
0.0
 30
0.0
  3
crane_flap
  1

  0
LWPOLYLINE
  5
B6
  8
0
 62
256
370
-1
 48
1.0
  6
ByLayer
100
AcDbEntity
100
AcDbPolyline
 90
4
 70
1
 10
-177.00000000000006
 20
0.0000000000000391
 30
0.0
 10
0.0
 20
0.0
 30
0.0
 10
0.0
 20
55.350000000000009
 30
0.0
 10
-177.00000000000006
 20
55.350000000000009
 30
0.0
  0
CIRCLE
  5
B7
100
AcDbEntity
100
AcDbCircle
  8
0
 62
256
370
-1
 48
1.0
  6
ByLayer
 10
-88.500000000000014
 20
5.0000000000000071
 30
0.0
 40
1.5749999999999971
  0
ENDBLK
  5
B8
100
AcDbEntity
  8
0
100
AcDbBlockEnd
  0
BLOCK
  5
B9
100
AcDbEntity
  8
0
100
AcDbBlockBegin
  2
drawer_support
 70
0
 10
0.0
 20
0.0
 30
0.0
  3
drawer_support
  1

  0
LWPOLYLINE
  5
BA
  8
0
 62
256
370
-1
 48
1.0
  6
ByLayer
100
AcDbEntity
100
AcDbPolyline
 90
40
 70
1
 10
-6.7199999999999704
 20
20.925000000000011
 30
0.0
 10
-11.499999999999972
 20
20.925000000000011
 30
0.0
 10
-11.499999999999972
 20
19.900000000000006
 30
0.0
 42
-2.414213562373094
 10
-11.749999999999986
 20
19.650000000000006
 30
0.0
 10
-13.749999999999957
 20
19.650000000000006
 30
0.0
 42
-2.414213562373094
 10
-13.999999999999972
 20
19.900000000000006
 30
0.0
 10
-13.999999999999972
 20
20.925000000000011
 30
0.0
 10
-14.999999999999957
 20
20.925000000000011
 30
0.0
 10
-14.999999999999957
 20
24.075000000000017
 30
0.0
 10
-13.999999999999972
 20
24.075000000000017
 30
0.0
 10
-13.999999999999972
 20
25.099999999999994
 30
0.0
 42
-2.414213562373094
 10
-13.749999999999957
 20
25.349999999999994
 30
0.0
 10
-11.749999999999986
 20
25.349999999999994
 30
0.0
 42
-2.414213562373094
 10
-11.499999999999972
 20
25.099999999999994
 30
0.0
 10
-11.499999999999972
 20
24.075000000000017
 30
0.0
 10
-6.7199999999999704
 20
24.075000000000017
 30
0.0
 10
-6.7199999999997857
 20
30.0
 30
0.0
 10
-187.7199999999998
 20
29.999999999999915
 30
0.0
 10
-187.71999999999974
 20
24.075000000000017
 30
0.0
 10
-182.93999999999977
 20
24.075000000000017
 30
0.0
 10
-182.93999999999977
 20
25.099999999999994
 30
0.0
 42
-2.414213562373094
 10
-182.68999999999977
 20
25.349999999999994
 30
0.0
 10
-180.68999999999977
 20
25.349999999999994
 30
0.0
 42
-2.414213562373094
 10
-180.43999999999977
 20
25.099999999999994
 30
0.0
 10
-180.43999999999977
 20
24.075000000000017
 30
0.0
 10
-179.43999999999977
 20
24.075000000000017
 30
0.0
 10
-179.43999999999977
 20
20.925000000000011
 30
0.0
 10
-180.43999999999977
 20
20.925000000000011
 30
0.0
 10
-180.43999999999977
 20
19.900000000000006
 30
0.0
 42
-2.414213562373094
 10
-180.68999999999977
 20
19.650000000000006
 30
0.0
 10
-182.68999999999977
 20
19.650000000000006
 30
0.0
 42
-2.414213562373094
 10
-182.93999999999977
 20
19.900000000000006
 30
0.0
 10
-182.93999999999977
 20
20.925000000000011
 30
0.0
 10
-187.71999999999974
 20
20.925000000000011
 30
0.0
 10
-187.7199999999998
 20
15.0
 30
0.0
 10
-194.43999999999983
 20
15.0
 30
0.0
 10
-194.43999999999983
 20
0.0
 30
0.0
 10
0.0
 20
0.0
 30
0.0
 10
0.0
 20
15.0
 30
0.0
 10
-6.7200000000000273
 20
15.0
 30
0.0
  0
CIRCLE
  5
BB
100
AcDbEntity
100
AcDbCircle
  8
0
 62
256
370
-1
 48
1.0
  6
ByLayer
 10
-36.886666666666429
 20
15.000000000002615
 30
0.0
 40
1.9999999999999989
  0
CIRCLE
  5
BC
100
AcDbEntity
100
AcDbCircle
  8
0
 62
256
370
-1
 48
1.0
  6
ByLayer
 10
-157.55333333333311
 20
15.000000000002501
 30
0.0
 40
1.9999999999999989
  0
ENDBLK
  5
BD
100
AcDbEntity
  8
0
100
AcDbBlockEnd
  0
BLOCK
  5
BE
100
AcDbEntity
  8
0
100
AcDbBlockBegin
  2
carrier
 70
0
 10
0.0
 20
0.0
 30
0.0
  3
carrier
  1

  0
LWPOLYLINE
  5
BF
  8
0
 62
256
370
-1
 48
1.0
  6
ByLayer
100
AcDbEntity
100
AcDbPolyline
 90
8
 70
1
 10
20.768099243547709
 20
69.719999999999985
 30
0.0
 42
-0.6741998624632394
 10
13.35190075645211
 20
69.719999999999985
 30
0.0
 10
11.059999999999917
 20
69.719999999999985
 30
0.0
 10
11.059999999999917
 20
72.719999999999985
 30
0.0
 10
13.35190075645211
 20
72.719999999999985
 30
0.0
 42
-0.6741998624632453
 10
20.768099243547709
 20
72.719999999999985
 30
0.0
 10
23.059999999999917
 20
72.719999999999985
 30
0.0
 10
23.059999999999917
 20
69.719999999999985
 30
0.0
  0
LWPOLYLINE
  5
C0
  8
0
 62
256
370
-1
 48
1.0
  6
ByLayer
100
AcDbEntity
100
AcDbPolyline
 90
8
 70
1
 10
-215.20809924354788
 20
72.719999999999928
 30
0.0
 42
-0.6741998624632453
 10
-207.79190075645229
 20
72.719999999999928
 30
0.0
 10
-205.50000000000009
 20
72.719999999999928
 30
0.0
 10
-205.50000000000009
 20
69.719999999999928
 30
0.0
 10
-207.79190075645229
 20
69.719999999999928
 30
0.0
 42
-0.6741998624632394
 10
-215.20809924354788
 20
69.719999999999928
 30
0.0
 10
-217.50000000000009
 20
69.719999999999928
 30
0.0
 10
-217.50000000000009
 20
72.719999999999928
 30
0.0
  0
LWPOLYLINE
  5
C1
  8
0
 62
256
370
-1
 48
1.0
  6
ByLayer
100
AcDbEntity
100
AcDbPolyline
 90
8
 70
1
 10
-21.72000000000007
 20
164.00000000000006
 30
0.0
 10
-21.720000000000041
 20
17.0
 30
0.0
 42
-0.4142135623730951
 10
-23.720000000000041
 20
14.999999999999986
 30
0.0
 10
-170.72000000000011
 20
14.999999999999972
 30
0.0
 42
-0.4142135623730951
 10
-172.72000000000011
 20
16.999999999999972
 30
0.0
 10
-172.72000000000008
 20
164.0
 30
0.0
 42
-0.4142135623730964
 10
-170.72000000000008
 20
166.0
 30
0.0
 10
-23.720000000000084
 20
166.00000000000006
 30
0.0
 42
-0.4142135623730951
  0
LWPOLYLINE
  5
C2
  8
0
 62
256
370
-1
 48
1.0
  6
ByLayer
100
AcDbEntity
100
AcDbPolyline
 90
4
 70
1
 10
-3.5700000000000784
 20
156.22000000000003
 30
0.0
 10
-6.7200000000000983
 20
156.21999999999997
 30
0.0
 10
-6.7200000000000983
 20
172.74000000000001
 30
0.0
 10
-3.5700000000000784
 20
172.74000000000001
 30
0.0
  0
LWPOLYLINE
  5
C3
  8
0
 62
256
370
-1
 48
1.0
  6
ByLayer
100
AcDbEntity
100
AcDbPolyline
 90
4
 70
1
 10
-187.72000000000006
 20
156.21999999999997
 30
0.0
 10
-190.87000000000009
 20
156.22000000000003
 30
0.0
 10
-190.87000000000009
 20
172.74000000000001
 30
0.0
 10
-187.72000000000006
 20
172.74000000000001
 30
0.0
  0
LWPOLYLINE
  5
C4
  8
0
 62
256
370
-1
 48
1.0
  6
ByLayer
100
AcDbEntity
100
AcDbPolyline
 90
4
 70
1
 10
-190.87000000000009
 20
24.779999999999916
 30
0.0
 10
-187.72000000000006
 20
24.77999999999993
 30
0.0
 10
-187.72000000000006
 20
8.2599999999999199
 30
0.0
 10
-190.87000000000009
 20
8.2599999999999199
 30
0.0
  0
LWPOLYLINE
  5
C5
  8
0
 62
256
370
-1
 48
1.0
  6
ByLayer
100
AcDbEntity
100
AcDbPolyline
 90
4
 70
1
 10
-3.5700000000000784
 20
8.2599999999999199
 30
0.0
 10
-6.7200000000000983
 20
8.2599999999999199
 30
0.0
 10
-6.7200000000000983
 20
24.77999999999993
 30
0.0
 10
-3.5700000000000784
 20
24.77999999999993
 30
0.0
  0
LWPOLYLINE
  5
C6
  8
0
 62
256
370
-1
 48
1.0
  6
ByLayer
100
AcDbEntity
100
AcDbPolyline
 90
92
 70
1
 10
7.8549999999999187
 20
124.71999999999996
 30
0.0
 10
7.8549999999999187
 20
119.93999999999997
 30
0.0
 10
8.8799999999999102
 20
119.93999999999997
 30
0.0
 42
-2.414213562373094
 10
9.1299999999999102
 20
119.68999999999997
 30
0.0
 10
9.1299999999999102
 20
117.68999999999997
 30
0.0
 42
-2.414213562373094
 10
8.8799999999999102
 20
117.43999999999997
 30
0.0
 10
7.8549999999999187
 20
117.43999999999997
 30
0.0
 10
7.8549999999999187
 20
116.43999999999997
 30
0.0
 10
4.704999999999913
 20
116.43999999999997
 30
0.0
 10
4.704999999999913
 20
117.43999999999997
 30
0.0
 10
3.6799999999999216
 20
117.43999999999997
 30
0.0
 42
-2.414213562373094
 10
3.4299999999999216
 20
117.68999999999997
 30
0.0
 10
3.4299999999999216
 20
119.68999999999997
 30
0.0
 42
-2.414213562373094
 10
3.6799999999999216
 20
119.93999999999997
 30
0.0
 10
4.7049999999998136
 20
119.93999999999997
 30
0.0
 10
4.704999999999913
 20
124.71999999999996
 30
0.0
 10
-0.0000000000000711
 20
124.72000000000004
 30
0.0
 10
-0.0000000000001279
 20
181.00000000000011
 30
0.0
 10
-33.870000000000175
 20
181.00000000000006
 30
0.0
 10
-33.870000000000161
 20
177.85000000000002
 30
0.0
 10
-70.070000000000164
 20
177.84999999999997
 30
0.0
 10
-70.070000000000135
 20
181.0
 30
0.0
 10
-194.44000000000014
 20
181.0
 30
0.0
 10
-194.44000000000014
 20
124.71999999999996
 30
0.0
 10
-199.14500000000007
 20
124.71999999999996
 30
0.0
 10
-199.14499999999998
 20
119.93999999999997
 30
0.0
 10
-198.12000000000009
 20
119.93999999999997
 30
0.0
 42
-2.414213562373094
 10
-197.87000000000009
 20
119.68999999999997
 30
0.0
 10
-197.87000000000009
 20
117.68999999999997
 30
0.0
 42
-2.414213562373094
 10
-198.12000000000009
 20
117.43999999999997
 30
0.0
 10
-199.14500000000007
 20
117.43999999999997
 30
0.0
 10
-199.14500000000007
 20
116.43999999999997
 30
0.0
 10
-202.2950000000001
 20
116.43999999999997
 30
0.0
 10
-202.2950000000001
 20
117.43999999999997
 30
0.0
 10
-203.32000000000008
 20
117.43999999999997
 30
0.0
 42
-2.414213562373094
 10
-203.57000000000008
 20
117.68999999999997
 30
0.0
 10
-203.57000000000008
 20
119.68999999999997
 30
0.0
 42
-2.414213562373094
 10
-203.32000000000008
 20
119.93999999999997
 30
0.0
 10
-202.2950000000001
 20
119.93999999999997
 30
0.0
 10
-202.2950000000001
 20
124.71999999999996
 30
0.0
 10
-220.50000000000009
 20
124.71999999999996
 30
0.0
 10
-220.50000000000009
 20
101.9066666666666
 30
0.0
 10
-227.22000000000008
 20
101.9066666666666
 30
0.0
 10
-227.22000000000008
 20
79.093333333333305
 30
0.0
 10
-220.50000000000009
 20
79.09333333333332
 30
0.0
 10
-220.50000000000009
 20
56.279999999999973
 30
0.0
 10
-202.2950000000001
 20
56.279999999999973
 30
0.0
 10
-202.2950000000001
 20
61.059999999999974
 30
0.0
 10
-203.32000000000008
 20
61.059999999999974
 30
0.0
 42
-2.414213562373094
 10
-203.57000000000008
 20
61.309999999999974
 30
0.0
 10
-203.57000000000008
 20
63.309999999999974
 30
0.0
 42
-2.414213562373094
 10
-203.32000000000008
 20
63.559999999999974
 30
0.0
 10
-202.2950000000001
 20
63.559999999999974
 30
0.0
 10
-202.2950000000001
 20
64.559999999999974
 30
0.0
 10
-199.14500000000007
 20
64.559999999999974
 30
0.0
 10
-199.14500000000007
 20
63.559999999999974
 30
0.0
 10
-198.12000000000009
 20
63.559999999999974
 30
0.0
 42
-2.414213562373094
 10
-197.87000000000009
 20
63.309999999999974
 30
0.0
 10
-197.87000000000009
 20
61.309999999999974
 30
0.0
 42
-2.414213562373094
 10
-198.12000000000009
 20
61.059999999999974
 30
0.0
 10
-199.14499999999998
 20
61.059999999999974
 30
0.0
 10
-199.14500000000007
 20
56.279999999999973
 30
0.0
 10
-194.44000000000014
 20
56.279999999999959
 30
0.0
 10
-194.44000000000008
 20
-0.0000000000000711
 30
0.0
 10
-70.070000000000036
 20
-0.0000000000000284
 30
0.0
 10
-70.07000000000005
 20
3.1500000000000057
 30
0.0
 10
-33.870000000000047
 20
3.1500000000000057
 30
0.0
 10
-33.870000000000061
 20
-0.0000000000000142
 30
0.0
 10
0.0
 20
0.0
 30
0.0
 10
0.0
 20
56.280000000000044
 30
0.0
 10
4.704999999999913
 20
56.279999999999973
 30
0.0
 10
4.7049999999998136
 20
61.059999999999974
 30
0.0
 10
3.6799999999999216
 20
61.059999999999974
 30
0.0
 42
-2.414213562373094
 10
3.4299999999999216
 20
61.309999999999974
 30
0.0
 10
3.4299999999999216
 20
63.309999999999974
 30
0.0
 42
-2.414213562373094
 10
3.6799999999999216
 20
63.559999999999974
 30
0.0
 10
4.704999999999913
 20
63.559999999999974
 30
0.0
 10
4.704999999999913
 20
64.559999999999974
 30
0.0
 10
7.8549999999999187
 20
64.559999999999974
 30
0.0
 10
7.8549999999999187
 20
63.559999999999974
 30
0.0
 10
8.8799999999999102
 20
63.559999999999974
 30
0.0
 42
-2.414213562373094
 10
9.1299999999999102
 20
63.309999999999974
 30
0.0
 10
9.1299999999999102
 20
61.309999999999974
 30
0.0
 42
-2.414213562373094
 10
8.8799999999999102
 20
61.059999999999974
 30
0.0
 10
7.8549999999999187
 20
61.059999999999974
 30
0.0
 10
7.8549999999999187
 20
56.279999999999973
 30
0.0
 10
26.059999999999917
 20
56.280000000000072
 30
0.0
 10
26.059999999999917
 20
79.093333333333405
 30
0.0
 10
32.779999999999916
 20
79.093333333333405
 30
0.0
 10
32.779999999999916
 20
101.90666666666671
 30
0.0
 10
26.059999999999917
 20
101.90666666666671
 30
0.0
 10
26.059999999999818
 20
124.72000000000004
 30
0.0
  0
CIRCLE
  5
C7
100
AcDbEntity
100
AcDbCircle
  8
0
 62
256
370
-1
 48
1.0
  6
ByLayer
 10
-200.72000000000008
 20
90.499999999999957
 30
0.0
 40
4.04
  0
CIRCLE
  5
C8
100
AcDbEntity
100
AcDbCircle
  8
0
 62
256
370
-1
 48
1.0
  6
ByLayer
 10
-200.72000000000008
 20
74.500000000000185
 30
0.0
 40
3.3500000000000001
  0
CIRCLE
  5
C9
100
AcDbEntity
100
AcDbCircle
  8
0
 62
256
370
-1
 48
1.0
  6
ByLayer
 10
-200.72000000000008
 20
106.49999999999974
 30
0.0
 40
3.3500000000000001
  0
CIRCLE
  5
CA
100
AcDbEntity
100
AcDbCircle
  8
0
 62
256
370
-1
 48
1.0
  6
ByLayer
 10
6.2799999999999159
 20
90.499999999999957
 30
0.0
 40
4.04
  0
CIRCLE
  5
CB
100
AcDbEntity
100
AcDbCircle
  8
0
 62
256
370
-1
 48
1.0
  6
ByLayer
 10
6.2799999999999159
 20
74.500000000000185
 30
0.0
 40
3.3500000000000001
  0
CIRCLE
  5
CC
100
AcDbEntity
100
AcDbCircle
  8
0
 62
256
370
-1
 48
1.0
  6
ByLayer
 10
6.2799999999999159
 20
106.49999999999974
 30
0.0
 40
3.3500000000000001
  0
CIRCLE
  5
CD
100
AcDbEntity
100
AcDbCircle
  8
0
 62
256
370
-1
 48
1.0
  6
ByLayer
 10
-97.220000000000084
 20
7.5
 30
0.0
 40
2.6249999999999969
  0
CIRCLE
  5
CE
100
AcDbEntity
100
AcDbCircle
  8
0
 62
256
370
-1
 48
1.0
  6
ByLayer
 10
-14.220000000000084
 20
90.500000000000028
 30
0.0
 40
2.6249999999999969
  0
CIRCLE
  5
CF
100
AcDbEntity
100
AcDbCircle
  8
0
 62
256
370
-1
 48
1.0
  6
ByLayer
 10
-14.220000000000084
 20
173.50000000000006
 30
0.0
 40
2.6249999999999969
  0
CIRCLE
  5
D0
100
AcDbEntity
100
AcDbCircle
  8
0
 62
256
370
-1
 48
1.0
  6
ByLayer
 10
-180.22000000000008
 20
173.5
 30
0.0
 40
2.6249999999999969
  0
CIRCLE
  5
D1
100
AcDbEntity
100
AcDbCircle
  8
0
 62
256
370
-1
 48
1.0
  6
ByLayer
 10
-97.220000000000084
 20
173.5
 30
0.0
 40
2.6249999999999969
  0
CIRCLE
  5
D2
100
AcDbEntity
100
AcDbCircle
  8
0
 62
256
370
-1
 48
1.0
  6
ByLayer
 10
-180.22000000000008
 20
90.499999999999986
 30
0.0
 40
2.6249999999999969
  0
CIRCLE
  5
D3
100
AcDbEntity
100
AcDbCircle
  8
0
 62
256
370
-1
 48
1.0
  6
ByLayer
 10
-180.22000000000008
 20
7.4999999999999858
 30
0.0
 40
2.6249999999999969
  0
CIRCLE
  5
D4
100
AcDbEntity
100
AcDbCircle
  8
0
 62
256
370
-1
 48
1.0
  6
ByLayer
 10
-14.220000000000084
 20
7.5000000000000284
 30
0.0
 40
2.6249999999999969
  0
ENDBLK
  5
D5
100
AcDbEntity
  8
0
100
AcDbBlockEnd
  0
BLOCK
  5
D6
100
AcDbEntity
  8
0
100
AcDbBlockBegin
  2
door
 70
0
 10
0.0
 20
0.0
 30
0.0
  3
door
  1

  0
LWPOLYLINE
  5
D7
  8
0
 62
256
370
-1
 48
1.0
  6
ByLayer
100
AcDbEntity
100
AcDbPolyline
 90
16
 70
1
 10
0.0
 20
0.0
 30
0.0
 10
-197.30000000000001
 20
-0.0000000000000853
 30
0.0
 10
-197.30000000000001
 20
-35.000000000000099
 30
0.0
 10
-192.30000000000001
 20
-35.000000000000099
 30
0.0
 10
-192.29999999999995
 20
-23.000000000000099
 30
0.0
 10
-189.14999999999998
 20
-23.000000000000099
 30
0.0
 10
-189.14999999999992
 20
-173.24000000000007
 30
0.0
 10
-70.999999999999929
 20
-173.24000000000001
 30
0.0
 10
-70.999999999999901
 20
-207.63999999999999
 30
0.0
 10
-35.799999999999912
 20
-207.63999999999999
 30
0.0
 10
-35.799999999999933
 20
-173.24000000000001
 30
0.0
 10
-8.1499999999999204
 20
-173.24000000000001
 30
0.0
 10
-8.1500000000000199
 20
-23.000000000000028
 30
0.0
 10
-5.0000000000000284
 20
-23.000000000000007
 30
0.0
 10
-4.9999999999999574
 20
-35.0
 30
0.0
 10
0.0000000000000426
 20
-35.0
 30
0.0
  0
CIRCLE
  5
D8
100
AcDbEntity
100
AcDbCircle
  8
0
 62
256
370
-1
 48
1.0
  6
ByLayer
 10
-43.399999999999913
 20
-202.63999999999999
 30
0.0
 40
1.575
  0
ENDBLK
  5
D9
100
AcDbEntity
  8
0
100
AcDbBlockEnd
  0
BLOCK
  5
DA
100
AcDbEntity
  8
0
100
AcDbBlockBegin
  2
frame_top
 70
0
 10
0.0
 20
0.0
 30
0.0
  3
frame_top
  1

  0
LWPOLYLINE
  5
DB
  8
0
 62
256
370
-1
 48
1.0
  6
ByLayer
100
AcDbEntity
100
AcDbPolyline
 90
180
 70
1
 10
-6.7199999999999989
 20
32.644999999999953
 30
0.0
 10
-11.5
 20
32.644999999999953
 30
0.0
 10
-11.5
 20
31.619999999999948
 30
0.0
 42
-2.414213562373094
 10
-11.75
 20
31.369999999999948
 30
0.0
 10
-13.75
 20
31.369999999999948
 30
0.0
 42
-2.414213562373094
 10
-14.0
 20
31.619999999999948
 30
0.0
 10
-14.0
 20
32.644999999999953
 30
0.0
 10
-15.0
 20
32.644999999999953
 30
0.0
 10
-15.0
 20
35.794999999999959
 30
0.0
 10
-14.0
 20
35.794999999999959
 30
0.0
 10
-14.0
 20
36.819999999999936
 30
0.0
 42
-2.414213562373094
 10
-13.75
 20
37.069999999999936
 30
0.0
 10
-11.75
 20
37.069999999999936
 30
0.0
 42
-2.414213562373094
 10
-11.5
 20
36.819999999999936
 30
0.0
 10
-11.5
 20
35.794999999999959
 30
0.0
 10
-6.7199999999999989
 20
35.794999999999959
 30
0.0
 10
-6.7199999999999989
 20
45.626666666666694
 30
0.0
 10
0.0
 20
45.626666666666694
 30
0.0
 10
0.0
 20
68.439999999999998
 30
0.0
 10
-18.099999999999994
 20
68.439999999999941
 30
0.0
 10
-18.099999999999994
 20
64.15999999999994
 30
0.0
 10
-17.0
 20
64.15999999999994
 30
0.0
 42
-2.414213562373094
 10
-16.75
 20
63.90999999999994
 30
0.0
 10
-16.75
 20
61.40999999999994
 30
0.0
 42
-2.414213562373094
 10
-17.0
 20
61.15999999999994
 30
0.0
 10
-18.099999999999994
 20
61.15999999999994
 30
0.0
 10
-18.099999999999994
 20
59.15999999999994
 30
0.0
 10
-21.400000000000006
 20
59.15999999999994
 30
0.0
 10
-21.400000000000006
 20
61.15999999999994
 30
0.0
 10
-22.5
 20
61.159999999999968
 30
0.0
 42
-2.414213562373094
 10
-22.75
 20
61.40999999999994
 30
0.0
 10
-22.75
 20
63.90999999999994
 30
0.0
 42
-2.414213562373094
 10
-22.5
 20
64.15999999999994
 30
0.0
 10
-21.400000000000006
 20
64.15999999999994
 30
0.0
 10
-21.400000000000006
 20
68.439999999999941
 30
0.0
 10
-65.341666666666669
 20
68.439999999999969
 30
0.0
 10
-65.341666666666669
 20
63.659999999999968
 30
0.0
 10
-64.316666666666691
 20
63.659999999999968
 30
0.0
 42
-2.414213562373094
 10
-64.066666666666691
 20
63.409999999999968
 30
0.0
 10
-64.066666666666677
 20
61.409999999999968
 30
0.0
 42
-2.414213562373094
 10
-64.316666666666663
 20
61.159999999999968
 30
0.0
 10
-65.341666666666669
 20
61.159999999999968
 30
0.0
 10
-65.341666666666669
 20
60.159999999999968
 30
0.0
 10
-68.491666666666688
 20
60.159999999999968
 30
0.0
 10
-68.491666666666688
 20
61.159999999999968
 30
0.0
 10
-69.51666666666668
 20
61.159999999999968
 30
0.0
 42
-2.414213562373094
 10
-69.76666666666668
 20
61.409999999999968
 30
0.0
 10
-69.766666666666708
 20
63.409999999999968
 30
0.0
 42
-2.414213562373094
 10
-69.51666666666668
 20
63.659999999999968
 30
0.0
 10
-68.491666666666688
 20
63.659999999999968
 30
0.0
 10
-68.491666666666688
 20
68.439999999999969
 30
0.0
 10
-86.666666666666671
 20
68.439999999999998
 30
0.0
 10
-86.666666666666671
 20
75.159999999999997
 30
0.0
 10
-173.33333333333331
 20
75.159999999999968
 30
0.0
 10
-173.33333333333331
 20
68.439999999999969
 30
0.0
 10
-191.50833333333333
 20
68.439999999999969
 30
0.0
 10
-191.50833333333333
 20
63.659999999999968
 30
0.0
 10
-190.48333333333332
 20
63.659999999999968
 30
0.0
 42
-2.414213562373094
 10
-190.23333333333329
 20
63.409999999999968
 30
0.0
 10
-190.23333333333335
 20
61.409999999999968
 30
0.0
 42
-2.414213562373094
 10
-190.48333333333332
 20
61.159999999999968
 30
0.0
 10
-191.50833333333333
 20
61.159999999999968
 30
0.0
 10
-191.50833333333333
 20
60.159999999999968
 30
0.0
 10
-194.65833333333333
 20
60.159999999999968
 30
0.0
 10
-194.65833333333333
 20
61.159999999999968
 30
0.0
 10
-195.68333333333334
 20
61.159999999999968
 30
0.0
 42
-2.414213562373094
 10
-195.93333333333334
 20
61.409999999999968
 30
0.0
 10
-195.93333333333331
 20
63.409999999999968
 30
0.0
 42
-2.414213562373094
 10
-195.68333333333331
 20
63.659999999999968
 30
0.0
 10
-194.65833333333333
 20
63.659999999999968
 30
0.0
 10
-194.65833333333333
 20
68.439999999999969
 30
0.0
 10
-238.59999999999999
 20
68.439999999999941
 30
0.0
 10
-238.59999999999999
 20
64.15999999999994
 30
0.0
 10
-237.5
 20
64.15999999999994
 30
0.0
 42
-2.414213562373094
 10
-237.25
 20
63.90999999999994
 30
0.0
 10
-237.25
 20
61.40999999999994
 30
0.0
 42
-2.414213562373094
 10
-237.5
 20
61.159999999999968
 30
0.0
 10
-238.59999999999999
 20
61.15999999999994
 30
0.0
 10
-238.59999999999999
 20
59.15999999999994
 30
0.0
 10
-241.90000000000001
 20
59.15999999999994
 30
0.0
 10
-241.90000000000001
 20
61.15999999999994
 30
0.0
 10
-243.0
 20
61.15999999999994
 30
0.0
 42
-2.414213562373094
 10
-243.25
 20
61.40999999999994
 30
0.0
 10
-243.25
 20
63.90999999999994
 30
0.0
 42
-2.414213562373094
 10
-243.0
 20
64.15999999999994
 30
0.0
 10
-241.90000000000001
 20
64.15999999999994
 30
0.0
 10
-241.90000000000001
 20
68.439999999999941
 30
0.0
 10
-260.0
 20
68.439999999999969
 30
0.0
 10
-260.0
 20
45.626666666666608
 30
0.0
 10
-253.28
 20
45.626666666666608
 30
0.0
 10
-253.28
 20
35.794999999999959
 30
0.0
 10
-248.5
 20
35.794999999999959
 30
0.0
 10
-248.5
 20
36.819999999999936
 30
0.0
 42
-2.414213562373094
 10
-248.25
 20
37.069999999999936
 30
0.0
 10
-246.25
 20
37.069999999999936
 30
0.0
 42
-2.414213562373094
 10
-246.0
 20
36.819999999999936
 30
0.0
 10
-246.0
 20
35.794999999999959
 30
0.0
 10
-245.0
 20
35.794999999999959
 30
0.0
 10
-245.0
 20
32.644999999999953
 30
0.0
 10
-246.0
 20
32.644999999999953
 30
0.0
 10
-246.0
 20
31.619999999999948
 30
0.0
 42
-2.414213562373094
 10
-246.25
 20
31.369999999999948
 30
0.0
 10
-248.25
 20
31.369999999999948
 30
0.0
 42
-2.414213562373094
 10
-248.5
 20
31.619999999999948
 30
0.0
 10
-248.5
 20
32.644999999999953
 30
0.0
 10
-253.28
 20
32.644999999999953
 30
0.0
 10
-253.28
 20
22.813333333333276
 30
0.0
 10
-260.0
 20
22.813333333333276
 30
0.0
 10
-260.0
 20
-0.0000000000000711
 30
0.0
 10
-241.90000000000001
 20
0.0
 30
0.0
 10
-241.90000000000001
 20
4.2799999999999869
 30
0.0
 10
-243.0
 20
4.2799999999999869
 30
0.0
 42
-2.414213562373094
 10
-243.25
 20
4.5300000000000011
 30
0.0
 10
-243.25
 20
7.0299999999999869
 30
0.0
 42
-2.414213562373094
 10
-243.0
 20
7.2799999999999869
 30
0.0
 10
-241.90000000000001
 20
7.2799999999999869
 30
0.0
 10
-241.90000000000001
 20
9.2799999999999869
 30
0.0
 10
-238.59999999999999
 20
9.2799999999999869
 30
0.0
 10
-238.59999999999999
 20
7.2799999999999869
 30
0.0
 10
-237.5
 20
7.2799999999999727
 30
0.0
 42
-2.414213562373094
 10
-237.25
 20
7.0299999999999869
 30
0.0
 10
-237.25
 20
4.5300000000000011
 30
0.0
 42
-2.414213562373094
 10
-237.5
 20
4.2799999999999869
 30
0.0
 10
-238.59999999999999
 20
4.2799999999999869
 30
0.0
 10
-238.59999999999999
 20
0.0
 30
0.0
 10
-194.65833333333333
 20
-0.0000000000000284
 30
0.0
 10
-194.65833333333333
 20
4.7799999999999727
 30
0.0
 10
-195.68333333333331
 20
4.7799999999999727
 30
0.0
 42
-2.414213562373094
 10
-195.93333333333331
 20
5.0299999999999727
 30
0.0
 10
-195.93333333333334
 20
7.0299999999999727
 30
0.0
 42
-2.414213562373094
 10
-195.68333333333334
 20
7.2799999999999727
 30
0.0
 10
-194.65833333333333
 20
7.2799999999999727
 30
0.0
 10
-194.65833333333333
 20
8.2799999999999727
 30
0.0
 10
-191.50833333333333
 20
8.2799999999999727
 30
0.0
 10
-191.50833333333333
 20
7.2799999999999727
 30
0.0
 10
-190.48333333333332
 20
7.2799999999999727
 30
0.0
 42
-2.414213562373094
 10
-190.23333333333332
 20
7.0299999999999727
 30
0.0
 10
-190.23333333333329
 20
5.0299999999999727
 30
0.0
 42
-2.414213562373094
 10
-190.48333333333332
 20
4.7799999999999727
 30
0.0
 10
-191.50833333333333
 20
4.7799999999999727
 30
0.0
 10
-191.50833333333333
 20
-0.0000000000000284
 30
0.0
 10
-173.33333333333334
 20
-0.0000000000000568
 30
0.0
 10
-173.33333333333334
 20
-6.7200000000000415
 30
0.0
 10
-86.666666666666671
 20
-6.7200000000000273
 30
0.0
 10
-86.666666666666671
 20
-0.0000000000000284
 30
0.0
 10
-68.491666666666688
 20
-0.0000000000000284
 30
0.0
 10
-68.491666666666688
 20
4.7799999999999727
 30
0.0
 10
-69.51666666666668
 20
4.7799999999999727
 30
0.0
 42
-2.414213562373094
 10
-69.766666666666708
 20
5.0299999999999727
 30
0.0
 10
-69.766666666666652
 20
7.0299999999999727
 30
0.0
 42
-2.414213562373094
 10
-69.51666666666668
 20
7.2799999999999727
 30
0.0
 10
-68.491666666666688
 20
7.2799999999999727
 30
0.0
 10
-68.491666666666688
 20
8.2799999999999727
 30
0.0
 10
-65.341666666666669
 20
8.2799999999999727
 30
0.0
 10
-65.341666666666669
 20
7.2799999999999727
 30
0.0
 10
-64.316666666666663
 20
7.2799999999999727
 30
0.0
 42
-2.414213562373094
 10
-64.066666666666677
 20
7.0299999999999727
 30
0.0
 10
-64.066666666666691
 20
5.0299999999999727
 30
0.0
 42
-2.414213562373094
 10
-64.316666666666691
 20
4.7799999999999727
 30
0.0
 10
-65.341666666666669
 20
4.7799999999999727
 30
0.0
 10
-65.341666666666669
 20
-0.0000000000000284
 30
0.0
 10
-21.400000000000006
 20
0.0
 30
0.0
 10
-21.400000000000006
 20
4.2799999999999869
 30
0.0
 10
-22.5
 20
4.2799999999999869
 30
0.0
 42
-2.414213562373094
 10
-22.75
 20
4.5300000000000011
 30
0.0
 10
-22.75
 20
7.0299999999999869
 30
0.0
 42
-2.414213562373094
 10
-22.5
 20
7.2799999999999727
 30
0.0
 10
-21.400000000000006
 20
7.2799999999999869
 30
0.0
 10
-21.400000000000006
 20
9.2799999999999869
 30
0.0
 10
-18.099999999999994
 20
9.2799999999999869
 30
0.0
 10
-18.099999999999994
 20
7.2799999999999869
 30
0.0
 10
-17.0
 20
7.2799999999999869
 30
0.0
 42
-2.414213562373094
 10
-16.75
 20
7.0299999999999869
 30
0.0
 10
-16.75
 20
4.5300000000000011
 30
0.0
 42
-2.414213562373094
 10
-17.0
 20
4.2799999999999869
 30
0.0
 10
-18.099999999999994
 20
4.2799999999999869
 30
0.0
 10
-18.099999999999994
 20
0.0
 30
0.0
 10
0.0
 20
0.0
 30
0.0
 10
0.0
 20
22.813333333333361
 30
0.0
 10
-6.7199999999999989
 20
22.813333333333361
 30
0.0
  0
CIRCLE
  5
DC
100
AcDbEntity
100
AcDbCircle
  8
0
 62
256
370
-1
 48
1.0
  6
ByLayer
 10
-233.5
 20
34.219999999999942
 30
0.0
 40
4.04
  0
CIRCLE
  5
DD
100
AcDbEntity
100
AcDbCircle
  8
0
 62
256
370
-1
 48
1.0
  6
ByLayer
 10
-26.5
 20
34.220000000000056
 30
0.0
 40
4.04
  0
CIRCLE
  5
DE
100
AcDbEntity
100
AcDbCircle
  8
0
 62
256
370
-1
 48
1.0
  6
ByLayer
 10
-130.0
 20
34.21999999999997
 30
0.0
 40
5.0999999999999988
  0
CIRCLE
  5
DF
100
AcDbEntity
100
AcDbCircle
  8
0
 62
256
370
-1
 48
1.0
  6
ByLayer
 10
-130.0
 20
26.21999999999997
 30
0.0
 40
1.5
  0
CIRCLE
  5
E0
100
AcDbEntity
100
AcDbCircle
  8
0
 62
256
370
-1
 48
1.0
  6
ByLayer
 10
-130.0
 20
42.21999999999997
 30
0.0
 40
1.5
  0
CIRCLE
  5
E1
100
AcDbEntity
100
AcDbCircle
  8
0
 62
256
370
-1
 48
1.0
  6
ByLayer
 10
-138.0
 20
34.21999999999997
 30
0.0
 40
1.5
  0
CIRCLE
  5
E2
100
AcDbEntity
100
AcDbCircle
  8
0
 62
256
370
-1
 48
1.0
  6
ByLayer
 10
-122.00000000000001
 20
34.21999999999997
 30
0.0
 40
1.5
  0
ENDBLK
  5
E3
100
AcDbEntity
  8
0
100
AcDbBlockEnd
  0
BLOCK
  5
E4
100
AcDbEntity
  8
0
100
AcDbBlockBegin
  2
drawer_back
 70
0
 10
0.0
 20
0.0
 30
0.0
  3
drawer_back
  1

  0
LWPOLYLINE
  5
E5
  8
0
 62
256
370
-1
 48
1.0
  6
ByLayer
100
AcDbEntity
100
AcDbPolyline
 90
8
 70
1
 10
-120.66666666666676
 20
-217.63999999999999
 30
0.0
 10
-120.66666666666676
 20
-224.35999999999999
 30
0.0
 10
-60.333333333333229
 20
-224.36000000000001
 30
0.0
 10
-60.333333333333229
 20
-217.63999999999999
 30
0.0
 10
0.0000000000000995
 20
-217.63999999999999
 30
0.0
 10
0.0
 20
0.0
 30
0.0
 10
-181.0
 20
0.0
 30
0.0
 10
-181.00000000000006
 20
-217.63999999999999
 30
0.0
  0
CIRCLE
  5
E6
100
AcDbEntity
100
AcDbCircle
  8
0
 62
256
370
-1
 48
1.0
  6
ByLayer
 10
-54.749999999999986
 20
-37.400000000000006
 30
0.0
 40
1.575
  0
CIRCLE
  5
E7
100
AcDbEntity
100
AcDbCircle
  8
0
 62
256
370
-1
 48
1.0
  6
ByLayer
 10
-35.249999999999929
 20
-29.400000000000006
 30
0.0
 40
2.0
  0
CIRCLE
  5
E8
100
AcDbEntity
100
AcDbCircle
  8
0
 62
256
370
-1
 48
1.0
  6
ByLayer
 10
-35.749999999999979
 20
-37.400000000000006
 30
0.0
 40
1.575
  0
CIRCLE
  5
E9
100
AcDbEntity
100
AcDbCircle
  8
0
 62
256
370
-1
 48
1.0
  6
ByLayer
 10
-105.23999999999999
 20
-138.12
 30
0.0
 40
1.574999999999998
  0
CIRCLE
  5
EA
100
AcDbEntity
100
AcDbCircle
  8
0
 62
256
370
-1
 48
1.0
  6
ByLayer
 10
-22.690000000000012
 20
-138.12
 30
0.0
 40
1.574999999999998
  0
CIRCLE
  5
EB
100
AcDbEntity
100
AcDbCircle
  8
0
 62
256
370
-1
 48
1.0
  6
ByLayer
 10
-90.499999999999986
 20
-221.0
 30
0.0
 40
1.5749999999999991
  0
CIRCLE
  5
EC
100
AcDbEntity
100
AcDbCircle
  8
0
 62
256
370
-1
 48
1.0
  6
ByLayer
 10
-150.83333333333331
 20
-69.320000000000022
 30
0.0
 40
1.5750000000000011
  0
CIRCLE
  5
ED
100
AcDbEntity
100
AcDbCircle
  8
0
 62
256
370
-1
 48
1.0
  6
ByLayer
 10
-30.166666666666657
 20
-69.320000000000022
 30
0.0
 40
1.5750000000000011
  0
ENDBLK
  5
EE
100
AcDbEntity
  8
0
100
AcDbBlockEnd
  0
BLOCK
  5
EF
100
AcDbEntity
  8
0
100
AcDbBlockBegin
  2
frame_front
 70
0
 10
0.0
 20
0.0
 30
0.0
  3
frame_front
  1

  0
LWPOLYLINE
  5
F0
  8
0
 62
256
370
-1
 48
1.0
  6
ByLayer
100
AcDbEntity
100
AcDbPolyline
 90
16
 70
1
 10
253.27999999999997
 20
-520.0
 30
0.0
 10
253.27999999999997
 20
-295.0
 30
0.0
 10
260.0
 20
-295.0
 30
0.0
 10
260.0
 20
0.0
 30
0.0
 10
173.33333333333303
 20
0.0
 30
0.0
 10
173.33333333333303
 20
-6.7200000000000273
 30
0.0
 10
86.666666666666515
 20
-6.7200000000000273
 30
0.0
 10
86.666666666666515
 20
0.0
 30
0.0
 10
0.0
 20
0.0
 30
0.0
 10
0.0
 20
-295.0
 30
0.0
 10
6.7200000000000273
 20
-295.0
 30
0.0
 10
6.7200000000000273
 20
-520.0
 30
0.0
 10
86.666666666666742
 20
-520.0
 30
0.0
 10
86.666666666666742
 20
-513.27999999999997
 30
0.0
 10
173.33333333333348
 20
-513.27999999999997
 30
0.0
 10
173.33333333333348
 20
-520.0
 30
0.0
  0
LWPOLYLINE
  5
F1
  8
0
 62
256
370
-1
 48
1.0
  6
ByLayer
100
AcDbEntity
100
AcDbPolyline
 90
28
 70
1
 10
179.5
 20
-480.5
 30
0.0
 10
179.5
 20
-499.83999999999992
 30
0.0
 10
80.5
 20
-499.83999999999992
 30
0.0
 10
80.5
 20
-480.5
 30
0.0
 10
46.220000000000027
 20
-480.5
 30
0.0
 10
46.220000000000027
 20
-506.55999999999995
 30
0.0
 10
39.5
 20
-506.55999999999995
 30
0.0
 10
39.5
 20
-295.0
 30
0.0
 10
32.779999999999973
 20
-295.0
 30
0.0
 10
32.779999999999973
 20
-289.11999999999989
 30
0.0
 10
39.5
 20
-289.11999999999989
 30
0.0
 10
39.5
 20
-154.11999999999989
 30
0.0
 10
36.349999999999909
 20
-154.11999999999989
 30
0.0
 10
36.349999999999909
 20
-104.11999999999989
 30
0.0
 10
39.5
 20
-104.11999999999989
 30
0.0
 10
39.5
 20
-39.5
 30
0.0
 10
220.5
 20
-39.5
 30
0.0
 10
220.5
 20
-104.11999999999989
 30
0.0
 10
223.65000000000009
 20
-104.11999999999989
 30
0.0
 10
223.65000000000009
 20
-154.11999999999989
 30
0.0
 10
220.5
 20
-154.11999999999989
 30
0.0
 10
220.5
 20
-289.11999999999989
 30
0.0
 10
227.22000000000003
 20
-289.11999999999989
 30
0.0
 10
227.22000000000003
 20
-295.0
 30
0.0
 10
220.5
 20
-295.0
 30
0.0
 10
220.5
 20
-506.55999999999995
 30
0.0
 10
213.77999999999997
 20
-506.55999999999995
 30
0.0
 10
213.77999999999997
 20
-480.5
 30
0.0
  0
CIRCLE
  5
F2
100
AcDbEntity
100
AcDbCircle
  8
0
 62
256
370
-1
 48
1.0
  6
ByLayer
 10
193.08333333333326
 20
-516.63999999999987
 30
0.0
 40
1.5750000000000159
  0
CIRCLE
  5
F3
100
AcDbEntity
100
AcDbCircle
  8
0
 62
256
370
-1
 48
1.0
  6
ByLayer
 10
193.08333333333348
 20
-3.3600000000001273
 30
0.0
 40
1.575
  0
CIRCLE
  5
F4
100
AcDbEntity
100
AcDbCircle
  8
0
 62
256
370
-1
 48
1.0
  6
ByLayer
 10
256.63999999999987
 20
-19.75
 30
0.0
 40
1.575
  0
CIRCLE
  5
F5
100
AcDbEntity
100
AcDbCircle
  8
0
 62
256
370
-1
 48
1.0
  6
ByLayer
 10
256.6400000000001
 20
-275.25
 30
0.0
 40
1.574999999999996
  0
CIRCLE
  5
F6
100
AcDbEntity
100
AcDbCircle
  8
0
 62
256
370
-1
 48
1.0
  6
ByLayer
 10
19.75
 20
-516.63999999999987
 30
0.0
 40
1.574999999999998
  0
CIRCLE
  5
F7
100
AcDbEntity
100
AcDbCircle
  8
0
 62
256
370
-1
 48
1.0
  6
ByLayer
 10
240.25
 20
-3.3600000000001273
 30
0.0
 40
1.574999999999998
  0
CIRCLE
  5
F8
100
AcDbEntity
100
AcDbCircle
  8
0
 62
256
370
-1
 48
1.0
  6
ByLayer
 10
19.75
 20
-3.3600000000001273
 30
0.0
 40
1.574999999999998
  0
CIRCLE
  5
F9
100
AcDbEntity
100
AcDbCircle
  8
0
 62
256
370
-1
 48
1.0
  6
ByLayer
 10
3.3599999999999
 20
-275.25
 30
0.0
 40
1.574999999999996
  0
CIRCLE
  5
FA
100
AcDbEntity
100
AcDbCircle
  8
0
 62
256
370
-1
 48
1.0
  6
ByLayer
 10
240.25
 20
-516.63999999999987
 30
0.0
 40
1.574999999999998
  0
CIRCLE
  5
FB
100
AcDbEntity
100
AcDbCircle
  8
0
 62
256
370
-1
 48
1.0
  6
ByLayer
 10
3.3599999999999
 20
-19.75
 30
0.0
 40
1.575
  0
CIRCLE
  5
FC
100
AcDbEntity
100
AcDbCircle
  8
0
 62
256
370
-1
 48
1.0
  6
ByLayer
 10
66.916666666666515
 20
-3.3600000000001273
 30
0.0
 40
1.575
  0
CIRCLE
  5
FD
100
AcDbEntity
100
AcDbCircle
  8
0
 62
256
370
-1
 48
1.0
  6
ByLayer
 10
66.916666666666742
 20
-516.63999999999987
 30
0.0
 40
1.5750000000000159
  0
CIRCLE
  5
FE
100
AcDbEntity
100
AcDbCircle
  8
0
 62
256
370
-1
 48
1.0
  6
ByLayer
 10
26.5
 20
-292.05999999999995
 30
0.0
 40
1.575
  0
CIRCLE
  5
FF
100
AcDbEntity
100
AcDbCircle
  8
0
 62
256
370
-1
 48
1.0
  6
ByLayer
 10
233.5
 20
-292.05999999999995
 30
0.0
 40
1.575
  0
ENDBLK
  5
100
100
AcDbEntity
  8
0
100
AcDbBlockEnd
  0
BLOCK
  5
101
100
AcDbEntity
  8
0
100
AcDbBlockBegin
  2
carrier_window
 70
0
 10
0.0
 20
0.0
 30
0.0
  3
carrier_window
  1

  0
LWPOLYLINE
  5
102
  8
0
 62
256
370
-1
 48
1.0
  6
ByLayer
100
AcDbEntity
100
AcDbPolyline
 90
14
 70
1
 10
6.7200000000000841
 20
-25.0
 30
0.0
 10
6.7200000000000273
 20
0.0
 30
0.0
 10
0.0
 20
0.0
 30
0.0
 10
0.0000000000000711
 20
-184.99999999999997
 30
0.0
 10
14.980000000000075
 20
-184.99999999999997
 30
0.0
 10
14.980000000000075
 20
-190.87999999999997
 30
0.0
 10
31.500000000000043
 20
-190.87999999999991
 30
0.0
 10
31.500000000000071
 20
-184.99999999999994
 30
0.0
 10
56.280000000000243
 20
-184.99999999999994
 30
0.0
 10
56.280000000000143
 20
-50.0
 30
0.0
 10
63.000000000000156
 20
-50.0
 30
0.0
 10
63.000000000000114
 20
0.0
 30
0.0
 10
9.8700000000000614
 20
0.0
 30
0.0
 10
9.8700000000000756
 20
-25.0
 30
0.0
  0
ENDBLK
  5
103
100
AcDbEntity
  8
0
100
AcDbBlockEnd
  0
BLOCK
  5
104
100
AcDbEntity
  8
0
100
AcDbBlockBegin
  2
frame_right
 70
0
 10
0.0
 20
0.0
 30
0.0
  3
frame_right
  1

  0
LWPOLYLINE
  5
105
  8
0
 62
256
370
-1
 48
1.0
  6
ByLayer
100
AcDbEntity
100
AcDbPolyline
 90
4
 70
1
 10
-29.533333333333474
 20
225.0
 30
0.0
 10
-52.346666666666806
 20
225.0
 30
0.0
 10
-52.346666666666806
 20
230.88
 30
0.0
 10
-29.533333333333474
 20
230.88
 30
0.0
  0
LWPOLYLINE
  5
106
  8
0
 62
256
370
-1
 48
1.0
  6
ByLayer
100
AcDbEntity
100
AcDbPolyline
 90
84
 70
1
 10
-6.7200000000000841
 20
243.17500000000001
 30
0.0
 10
-11.500000000000085
 20
243.17500000000001
 30
0.0
 10
-11.500000000000085
 20
242.14999999999998
 30
0.0
 42
-2.4142135623730789
 10
-11.750000000000085
 20
241.89999999999998
 30
0.0
 10
-13.750000000000085
 20
241.89999999999998
 30
0.0
 42
-2.414213562373094
 10
-14.000000000000085
 20
242.14999999999998
 30
0.0
 10
-14.000000000000085
 20
243.17500000000001
 30
0.0
 10
-15.000000000000085
 20
243.17500000000001
 30
0.0
 10
-15.000000000000085
 20
246.32499999999999
 30
0.0
 10
-14.000000000000085
 20
246.32499999999999
 30
0.0
 10
-14.000000000000085
 20
247.35000000000002
 30
0.0
 42
-2.414213562373094
 10
-13.750000000000085
 20
247.60000000000002
 30
0.0
 10
-11.750000000000085
 20
247.59999999999997
 30
0.0
 42
-2.414213562373094
 10
-11.500000000000085
 20
247.34999999999997
 30
0.0
 10
-11.500000000000085
 20
246.32499999999999
 30
0.0
 10
-6.7200000000000841
 20
246.32499999999999
 30
0.0
 10
-6.7199999999998283
 20
498.67499999999984
 30
0.0
 10
-11.499999999999829
 20
498.67499999999984
 30
0.0
 10
-11.499999999999829
 20
497.64999999999975
 30
0.0
 42
-2.414213562373094
 10
-11.749999999999829
 20
497.39999999999998
 30
0.0
 10
-13.749999999999829
 20
497.39999999999998
 30
0.0
 42
-2.414213562373094
 10
-13.999999999999829
 20
497.64999999999975
 30
0.0
 10
-13.999999999999829
 20
498.67499999999984
 30
0.0
 10
-14.999999999999829
 20
498.67499999999984
 30
0.0
 10
-14.999999999999829
 20
501.82499999999993
 30
0.0
 10
-13.999999999999829
 20
501.82499999999993
 30
0.0
 10
-13.999999999999829
 20
502.8499999999998
 30
0.0
 42
-2.414213562373094
 10
-13.749999999999829
 20
503.0999999999998
 30
0.0
 10
-11.749999999999829
 20
503.0999999999998
 30
0.0
 42
-2.414213562373094
 10
-11.499999999999829
 20
502.8499999999998
 30
0.0
 10
-11.499999999999829
 20
501.82499999999993
 30
0.0
 10
-6.7199999999998283
 20
501.82499999999993
 30
0.0
 10
-6.720000000000482
 20
513.28000000000009
 30
0.0
 10
-29.533333333333871
 20
513.27999999999986
 30
0.0
 10
-29.533333333333871
 20
520.0
 30
0.0
 10
-52.346666666667176
 20
519.99999999999989
 30
0.0
 10
-52.346666666667176
 20
513.27999999999986
 30
0.0
 10
-75.160000000000451
 20
513.27999999999986
 30
0.0
 10
-75.160000000000451
 20
501.82499999999993
 30
0.0
 10
-70.38000000000045
 20
501.82499999999993
 30
0.0
 10
-70.38000000000045
 20
502.8499999999998
 30
0.0
 42
-2.414213562373094
 10
-70.13000000000045
 20
503.0999999999998
 30
0.0
 10
-68.13000000000045
 20
503.0999999999998
 30
0.0
 42
-2.414213562373094
 10
-67.88000000000045
 20
502.8499999999998
 30
0.0
 10
-67.88000000000045
 20
501.82499999999993
 30
0.0
 10
-66.88000000000045
 20
501.82499999999993
 30
0.0
 10
-66.88000000000045
 20
498.67499999999984
 30
0.0
 10
-67.88000000000045
 20
498.67499999999984
 30
0.0
 10
-67.88000000000045
 20
497.64999999999975
 30
0.0
 42
-2.414213562373094
 10
-68.13000000000045
 20
497.39999999999998
 30
0.0
 10
-70.13000000000045
 20
497.39999999999998
 30
0.0
 42
-2.414213562373094
 10
-70.38000000000045
 20
497.64999999999975
 30
0.0
 10
-70.38000000000045
 20
498.67499999999984
 30
0.0
 10
-75.160000000000451
 20
498.67499999999984
 30
0.0
 10
-75.160000000000196
 20
246.32499999999999
 30
0.0
 10
-70.380000000000194
 20
246.32499999999999
 30
0.0
 10
-70.380000000000194
 20
247.34999999999997
 30
0.0
 42
-2.414213562373094
 10
-70.130000000000194
 20
247.59999999999997
 30
0.0
 10
-68.130000000000194
 20
247.60000000000002
 30
0.0
 42
-2.414213562373094
 10
-67.880000000000194
 20
247.35000000000002
 30
0.0
 10
-67.880000000000194
 20
246.32499999999999
 30
0.0
 10
-66.880000000000194
 20
246.32499999999999
 30
0.0
 10
-66.880000000000194
 20
243.17500000000001
 30
0.0
 10
-67.880000000000194
 20
243.17500000000001
 30
0.0
 10
-67.880000000000194
 20
242.14999999999998
 30
0.0
 42
-2.414213562373094
 10
-68.130000000000194
 20
241.89999999999998
 30
0.0
 10
-70.130000000000194
 20
241.89999999999998
 30
0.0
 42
-2.4142135623730789
 10
-70.380000000000194
 20
242.14999999999998
 30
0.0
 10
-70.380000000000194
 20
243.17500000000001
 30
0.0
 10
-75.160000000000196
 20
243.17500000000001
 30
0.0
 10
-75.160000000000167
 20
225.0
 30
0.0
 10
-81.880000000000024
 20
225.0
 30
0.0
 10
-81.879999999999967
 20
0.0
 30
0.0
 10
-75.159999999999883
 20
0.0
 30
0.0
 10
-75.159999999999883
 20
6.7199999999999989
 30
0.0
 10
-52.34666666666655
 20
6.7199999999999989
 30
0.0
 10
-52.34666666666655
 20
0.0
 30
0.0
 10
-29.533333333333218
 20
0.0
 30
0.0
 10
-29.533333333333218
 20
6.7199999999999989
 30
0.0
 10
-6.7199999999998852
 20
6.7200000000001125
 30
0.0
 10
-6.7199999999998852
 20
0.0
 30
0.0
 10
0.0
 20
0.0
 30
0.0
 10
-0.0000000000000284
 20
225.0
 30
0.0
 10
-6.7200000000001125
 20
225.0
 30
0.0
  0
CIRCLE
  5
107
100
AcDbEntity
100
AcDbCircle
  8
0
 62
256
370
-1
 48
1.0
  6
ByLayer
 10
-40.939999999999884
 20
3.3599999999999
 30
0.0
 40
1.5749999999999931
  0
CIRCLE
  5
108
100
AcDbEntity
100
AcDbCircle
  8
0
 62
256
370
-1
 48
1.0
  6
ByLayer
 10
-40.940000000000452
 20
516.63999999999999
 30
0.0
 40
1.574999999999988
  0
ENDBLK
  5
109
100
AcDbEntity
  8
0
100
AcDbBlockEnd
  0
BLOCK
  5
10A
100
AcDbEntity
  8
0
100
AcDbBlockBegin
  2
carrier_wall
 70
0
 10
0.0
 20
0.0
 30
0.0
  3
carrier_wall
  1

  0
LWPOLYLINE
  5
10B
  8
0
 62
256
370
-1
 48
1.0
  6
ByLayer
100
AcDbEntity
100
AcDbPolyline
 90
12
 70
1
 10
-63.350000000000108
 20
177.84999999999988
 30
0.0
 10
-63.350000000000108
 20
180.99999999999989
 30
0.0
 10
-181.00000000000011
 20
180.99999999999989
 30
0.0
 10
-181.00000000000009
 20
-0.0000000000001137
 30
0.0
 10
-63.350000000000009
 20
0.0
 30
0.0
 10
-63.350000000000009
 20
3.1499999999999773
 30
0.0
 10
-27.150000000000006
 20
3.1499999999999773
 30
0.0
 10
-27.150000000000006
 20
0.0
 30
0.0
 10
0.0
 20
0.0
 30
0.0
 10
-0.0000000000001137
 20
181.00000000000003
 30
0.0
 10
-27.150000000000119
 20
180.99999999999991
 30
0.0
 10
-27.150000000000006
 20
177.84999999999991
 30
0.0
  0
LWPOLYLINE
  5
10C
  8
0
 62
256
370
-1
 48
1.0
  6
ByLayer
100
AcDbEntity
100
AcDbPolyline
 90
8
 70
1
 10
-17.0
 20
15.0
 30
0.0
 10
-164.00000000000006
 20
14.999999999999886
 30
0.0
 42
-0.4142135623730951
 10
-166.00000000000006
 20
16.999999999999886
 30
0.0
 10
-166.00000000000011
 20
163.99999999999989
 30
0.0
 42
-0.4142135623730951
 10
-164.00000000000011
 20
165.99999999999989
 30
0.0
 10
-17.000000000000114
 20
166.0
 30
0.0
 42
-0.4142135623730937
 10
-15.000000000000227
 20
164.0
 30
0.0
 10
-15.0
 20
17.0
 30
0.0
 42
-0.4142135623730951
  0
CIRCLE
  5
10D
100
AcDbEntity
100
AcDbCircle
  8
0
 62
256
370
-1
 48
1.0
  6
ByLayer
 10
-7.5
 20
7.5
 30
0.0
 40
2.6249999999999969
  0
CIRCLE
  5
10E
100
AcDbEntity
100
AcDbCircle
  8
0
 62
256
370
-1
 48
1.0
  6
ByLayer
 10
-173.50000000000006
 20
7.4999999999998863
 30
0.0
 40
2.6249999999999969
  0
CIRCLE
  5
10F
100
AcDbEntity
100
AcDbCircle
  8
0
 62
256
370
-1
 48
1.0
  6
ByLayer
 10
-173.50000000000009
 20
90.499999999999901
 30
0.0
 40
2.6249999999999969
  0
CIRCLE
  5
110
100
AcDbEntity
100
AcDbCircle
  8
0
 62
256
370
-1
 48
1.0
  6
ByLayer
 10
-90.500000000000128
 20
173.49999999999997
 30
0.0
 40
2.6249999999999969
  0
CIRCLE
  5
111
100
AcDbEntity
100
AcDbCircle
  8
0
 62
256
370
-1
 48
1.0
  6
ByLayer
 10
-173.50000000000014
 20
173.49999999999991
 30
0.0
 40
2.6249999999999969
  0
CIRCLE
  5
112
100
AcDbEntity
100
AcDbCircle
  8
0
 62
256
370
-1
 48
1.0
  6
ByLayer
 10
-7.5000000000001137
 20
173.5
 30
0.0
 40
2.6249999999999969
  0
CIRCLE
  5
113
100
AcDbEntity
100
AcDbCircle
  8
0
 62
256
370
-1
 48
1.0
  6
ByLayer
 10
-7.5000000000001137
 20
90.5
 30
0.0
 40
2.6249999999999969
  0
CIRCLE
  5
114
100
AcDbEntity
100
AcDbCircle
  8
0
 62
256
370
-1
 48
1.0
  6
ByLayer
 10
-90.500000000000057
 20
7.5
 30
0.0
 40
2.6249999999999969
  0
CIRCLE
  5
115
100
AcDbEntity
100
AcDbCircle
  8
0
 62
256
370
-1
 48
1.0
  6
ByLayer
 10
-7.5
 20
68.794999999999987
 30
0.0
 40
2.0
  0
ENDBLK
  5
116
100
AcDbEntity
  8
0
100
AcDbBlockEnd
  0
BLOCK
  5
117
100
AcDbEntity
  8
0
100
AcDbBlockBegin
  2
frame_bottom
 70
0
 10
0.0
 20
0.0
 30
0.0
  3
frame_bottom
  1

  0
LWPOLYLINE
  5
118
  8
0
 62
256
370
-1
 48
1.0
  6
ByLayer
100
AcDbEntity
100
AcDbPolyline
 90
4
 70
1
 10
-143.0
 20
61.720000000000027
 30
0.0
 10
-143.0
 20
68.440000000000026
 30
0.0
 10
-117.00000000000003
 20
68.44000000000004
 30
0.0
 10
-117.0
 20
61.720000000000041
 30
0.0
  0
LWPOLYLINE
  5
119
  8
0
 62
256
370
-1
 48
1.0
  6
ByLayer
100
AcDbEntity
100
AcDbPolyline
 90
4
 70
1
 10
-39.5
 20
45.62666666666658
 30
0.0
 10
-39.500000000000028
 20
22.813333333333262
 30
0.0
 10
-46.220000000000013
 20
22.813333333333262
 30
0.0
 10
-46.219999999999999
 20
45.626666666666587
 30
0.0
  0
LWPOLYLINE
  5
11A
  8
0
 62
256
370
-1
 48
1.0
  6
ByLayer
100
AcDbEntity
100
AcDbPolyline
 90
4
 70
1
 10
-213.78
 20
45.626666666666665
 30
0.0
 10
-213.78
 20
22.813333333333347
 30
0.0
 10
-220.5
 20
22.813333333333347
 30
0.0
 10
-220.5
 20
45.626666666666665
 30
0.0
  0
LWPOLYLINE
  5
11B
  8
0
 62
256
370
-1
 48
1.0
  6
ByLayer
100
AcDbEntity
100
AcDbPolyline
 90
4
 70
1
 10
-117.0
 20
6.7200000000000131
 30
0.0
 10
-117.00000000000003
 20
0.0000000000000142
 30
0.0
 10
-143.0
 20
0.0000000000000284
 30
0.0
 10
-143.0
 20
6.7200000000000273
 30
0.0
  0
LWPOLYLINE
  5
11C
  8
0
 62
256
370
-1
 48
1.0
  6
ByLayer
100
AcDbEntity
100
AcDbPolyline
 90
180
 70
1
 10
-6.7199999999999989
 20
32.645000000000039
 30
0.0
 10
-11.5
 20
32.645000000000039
 30
0.0
 10
-11.5
 20
31.62000000000004
 30
0.0
 42
-2.4142135623730909
 10
-11.75
 20
31.370000000000033
 30
0.0
 10
-13.75
 20
31.37000000000004
 30
0.0
 42
-2.414213562373094
 10
-14.0
 20
31.62000000000004
 30
0.0
 10
-14.0
 20
32.645000000000039
 30
0.0
 10
-15.0
 20
32.645000000000039
 30
0.0
 10
-15.0
 20
35.795000000000037
 30
0.0
 10
-14.0
 20
35.795000000000037
 30
0.0
 10
-14.0
 20
36.820000000000036
 30
0.0
 42
-2.414213562373094
 10
-13.75
 20
37.070000000000036
 30
0.0
 10
-11.75
 20
37.070000000000036
 30
0.0
 42
-2.414213562373094
 10
-11.5
 20
36.820000000000036
 30
0.0
 10
-11.5
 20
35.795000000000037
 30
0.0
 10
-6.7199999999999989
 20
35.795000000000037
 30
0.0
 10
-6.7199999999999989
 20
45.626666666666729
 30
0.0
 10
0.0
 20
45.626666666666736
 30
0.0
 10
0.0
 20
68.439999999999998
 30
0.0
 10
-18.174999999999997
 20
68.440000000000055
 30
0.0
 10
-18.174999999999997
 20
63.660000000000046
 30
0.0
 10
-17.150000000000006
 20
63.660000000000046
 30
0.0
 42
-2.414213562373094
 10
-16.900000000000006
 20
63.410000000000053
 30
0.0
 10
-16.900000000000006
 20
61.410000000000053
 30
0.0
 42
-2.414213562373094
 10
-17.150000000000105
 20
61.160000000000053
 30
0.0
 10
-18.174999999999997
 20
61.160000000000053
 30
0.0
 10
-18.174999999999997
 20
60.160000000000053
 30
0.0
 10
-21.325000000000003
 20
60.160000000000053
 30
0.0
 10
-21.325000000000003
 20
61.160000000000053
 30
0.0
 10
-22.349999999999994
 20
61.160000000000053
 30
0.0
 42
-2.414213562373094
 10
-22.600000000000094
 20
61.410000000000053
 30
0.0
 10
-22.599999999999994
 20
63.410000000000053
 30
0.0
 42
-2.414213562373094
 10
-22.349999999999994
 20
63.660000000000046
 30
0.0
 10
-21.325000000000003
 20
63.660000000000046
 30
0.0
 10
-21.325000000000003
 20
68.440000000000055
 30
0.0
 10
-65.341666666666654
 20
68.440000000000055
 30
0.0
 10
-65.341666666666654
 20
63.660000000000046
 30
0.0
 10
-64.316666666666649
 20
63.660000000000046
 30
0.0
 42
-2.414213562373094
 10
-64.066666666666649
 20
63.410000000000053
 30
0.0
 10
-64.066666666666649
 20
61.410000000000053
 30
0.0
 42
-2.414213562373094
 10
-64.316666666666649
 20
61.160000000000053
 30
0.0
 10
-65.341666666666654
 20
61.160000000000053
 30
0.0
 10
-65.341666666666654
 20
60.160000000000053
 30
0.0
 10
-68.491666666666674
 20
60.160000000000053
 30
0.0
 10
-68.491666666666674
 20
61.160000000000053
 30
0.0
 10
-69.516666666666652
 20
61.160000000000053
 30
0.0
 42
-2.414213562373094
 10
-69.766666666666652
 20
61.410000000000053
 30
0.0
 10
-69.766666666666652
 20
63.410000000000053
 30
0.0
 42
-2.414213562373094
 10
-69.516666666666652
 20
63.660000000000046
 30
0.0
 10
-68.491666666666674
 20
63.660000000000046
 30
0.0
 10
-68.491666666666674
 20
68.440000000000055
 30
0.0
 10
-86.666666666666671
 20
68.440000000000026
 30
0.0
 10
-86.666666666666671
 20
75.160000000000025
 30
0.0
 10
-173.33333333333331
 20
75.160000000000039
 30
0.0
 10
-173.33333333333331
 20
68.440000000000055
 30
0.0
 10
-191.50833333333333
 20
68.440000000000055
 30
0.0
 10
-191.50833333333333
 20
63.660000000000046
 30
0.0
 10
-190.48333333333335
 20
63.660000000000046
 30
0.0
 42
-2.414213562373094
 10
-190.23333333333335
 20
63.410000000000053
 30
0.0
 10
-190.23333333333335
 20
61.410000000000053
 30
0.0
 42
-2.414213562373094
 10
-190.48333333333335
 20
61.160000000000053
 30
0.0
 10
-191.50833333333333
 20
61.160000000000053
 30
0.0
 10
-191.50833333333333
 20
60.160000000000053
 30
0.0
 10
-194.65833333333336
 20
60.160000000000053
 30
0.0
 10
-194.65833333333336
 20
61.160000000000053
 30
0.0
 10
-195.68333333333334
 20
61.160000000000053
 30
0.0
 42
-2.414213562373094
 10
-195.93333333333334
 20
61.410000000000053
 30
0.0
 10
-195.93333333333334
 20
63.410000000000053
 30
0.0
 42
-2.414213562373094
 10
-195.68333333333334
 20
63.660000000000046
 30
0.0
 10
-194.65833333333336
 20
63.660000000000046
 30
0.0
 10
-194.65833333333336
 20
68.440000000000055
 30
0.0
 10
-238.67500000000001
 20
68.440000000000055
 30
0.0
 10
-238.67500000000001
 20
63.660000000000046
 30
0.0
 10
-237.64999999999998
 20
63.660000000000046
 30
0.0
 42
-2.414213562373094
 10
-237.39999999999998
 20
63.410000000000053
 30
0.0
 10
-237.39999999999992
 20
61.410000000000053
 30
0.0
 42
-2.414213562373094
 10
-237.64999999999998
 20
61.160000000000053
 30
0.0
 10
-238.67500000000001
 20
61.160000000000053
 30
0.0
 10
-238.67500000000001
 20
60.160000000000053
 30
0.0
 10
-241.82499999999999
 20
60.160000000000053
 30
0.0
 10
-241.82499999999999
 20
61.160000000000053
 30
0.0
 10
-242.84999999999991
 20
61.160000000000053
 30
0.0
 42
-2.414213562373094
 10
-243.10000000000002
 20
61.410000000000053
 30
0.0
 10
-243.10000000000002
 20
63.410000000000053
 30
0.0
 42
-2.414213562373094
 10
-242.85000000000002
 20
63.660000000000046
 30
0.0
 10
-241.82499999999999
 20
63.660000000000046
 30
0.0
 10
-241.82499999999999
 20
68.440000000000055
 30
0.0
 10
-260.0
 20
68.440000000000069
 30
0.0
 10
-260.0
 20
45.626666666666729
 30
0.0
 10
-253.27999999999997
 20
45.626666666666715
 30
0.0
 10
-253.27999999999997
 20
35.795000000000037
 30
0.0
 10
-248.5
 20
35.795000000000037
 30
0.0
 10
-248.5
 20
36.820000000000036
 30
0.0
 42
-2.414213562373094
 10
-248.25
 20
37.070000000000036
 30
0.0
 10
-246.25
 20
37.070000000000036
 30
0.0
 42
-2.414213562373094
 10
-246.0
 20
36.820000000000036
 30
0.0
 10
-246.0
 20
35.795000000000037
 30
0.0
 10
-245.0
 20
35.795000000000037
 30
0.0
 10
-245.0
 20
32.645000000000039
 30
0.0
 10
-246.0
 20
32.645000000000039
 30
0.0
 10
-246.0
 20
31.62000000000004
 30
0.0
 42
-2.414213562373094
 10
-246.25
 20
31.37000000000004
 30
0.0
 10
-248.25
 20
31.370000000000033
 30
0.0
 42
-2.4142135623730909
 10
-248.5
 20
31.62000000000004
 30
0.0
 10
-248.5
 20
32.645000000000039
 30
0.0
 10
-253.27999999999997
 20
32.645000000000039
 30
0.0
 10
-253.27999999999997
 20
22.813333333333361
 30
0.0
 10
-260.0
 20
22.813333333333361
 30
0.0
 10
-260.0
 20
0.0000000000000284
 30
0.0
 10
-241.82499999999999
 20
0.0
 30
0.0
 10
-241.82499999999999
 20
4.7800000000000011
 30
0.0
 10
-242.85000000000002
 20
4.7800000000000011
 30
0.0
 42
-2.414213562373094
 10
-243.10000000000002
 20
5.0300000000000011
 30
0.0
 10
-243.10000000000002
 20
7.0300000000000011
 30
0.0
 42
-2.414213562373094
 10
-242.84999999999991
 20
7.2800000000000011
 30
0.0
 10
-241.82499999999999
 20
7.2800000000000011
 30
0.0
 10
-241.82499999999999
 20
8.2800000000000011
 30
0.0
 10
-238.67500000000001
 20
8.2800000000000011
 30
0.0
 10
-238.67500000000001
 20
7.2800000000000011
 30
0.0
 10
-237.64999999999998
 20
7.2800000000000011
 30
0.0
 42
-2.414213562373094
 10
-237.39999999999992
 20
7.0300000000000011
 30
0.0
 10
-237.39999999999998
 20
5.0300000000000011
 30
0.0
 42
-2.414213562373094
 10
-237.64999999999998
 20
4.7800000000000011
 30
0.0
 10
-238.67500000000001
 20
4.7800000000000011
 30
0.0
 10
-238.67500000000001
 20
0.0
 30
0.0
 10
-194.65833333333336
 20
0.0
 30
0.0
 10
-194.65833333333336
 20
4.7800000000000011
 30
0.0
 10
-195.68333333333334
 20
4.7800000000000011
 30
0.0
 42
-2.414213562373094
 10
-195.93333333333334
 20
5.0300000000000011
 30
0.0
 10
-195.93333333333334
 20
7.0300000000000011
 30
0.0
 42
-2.414213562373094
 10
-195.68333333333334
 20
7.2800000000000011
 30
0.0
 10
-194.65833333333336
 20
7.2800000000000011
 30
0.0
 10
-194.65833333333336
 20
8.2800000000000011
 30
0.0
 10
-191.50833333333333
 20
8.2800000000000011
 30
0.0
 10
-191.50833333333333
 20
7.2800000000000011
 30
0.0
 10
-190.48333333333335
 20
7.2800000000000011
 30
0.0
 42
-2.414213562373094
 10
-190.23333333333335
 20
7.0300000000000011
 30
0.0
 10
-190.23333333333335
 20
5.0300000000000011
 30
0.0
 42
-2.414213562373094
 10
-190.48333333333335
 20
4.7800000000000011
 30
0.0
 10
-191.50833333333333
 20
4.7800000000000011
 30
0.0
 10
-191.50833333333333
 20
0.0
 30
0.0
 10
-173.33333333333331
 20
0.0000000000000284
 30
0.0
 10
-173.33333333333331
 20
-6.7199999999999704
 30
0.0
 10
-86.666666666666671
 20
-6.7199999999999847
 30
0.0
 10
-86.666666666666671
 20
0.0000000000000142
 30
0.0
 10
-68.491666666666674
 20
0.0
 30
0.0
 10
-68.491666666666674
 20
4.7800000000000011
 30
0.0
 10
-69.516666666666652
 20
4.7800000000000011
 30
0.0
 42
-2.414213562373094
 10
-69.766666666666652
 20
5.0300000000000011
 30
0.0
 10
-69.766666666666652
 20
7.0300000000000011
 30
0.0
 42
-2.414213562373094
 10
-69.516666666666652
 20
7.2800000000000011
 30
0.0
 10
-68.491666666666674
 20
7.2800000000000011
 30
0.0
 10
-68.491666666666674
 20
8.2800000000000011
 30
0.0
 10
-65.341666666666654
 20
8.2800000000000011
 30
0.0
 10
-65.341666666666654
 20
7.2800000000000011
 30
0.0
 10
-64.316666666666649
 20
7.2800000000000011
 30
0.0
 42
-2.414213562373094
 10
-64.066666666666649
 20
7.0300000000000011
 30
0.0
 10
-64.066666666666649
 20
5.0300000000000011
 30
0.0
 42
-2.414213562373094
 10
-64.316666666666649
 20
4.7800000000000011
 30
0.0
 10
-65.341666666666654
 20
4.7800000000000011
 30
0.0
 10
-65.341666666666654
 20
0.0
 30
0.0
 10
-21.325000000000003
 20
0.0
 30
0.0
 10
-21.325000000000003
 20
4.7800000000000011
 30
0.0
 10
-22.349999999999994
 20
4.7800000000000011
 30
0.0
 42
-2.414213562373094
 10
-22.599999999999994
 20
5.0300000000000011
 30
0.0
 10
-22.600000000000094
 20
7.0300000000000011
 30
0.0
 42
-2.414213562373094
 10
-22.349999999999994
 20
7.2800000000000011
 30
0.0
 10
-21.325000000000003
 20
7.2800000000000011
 30
0.0
 10
-21.325000000000003
 20
8.2800000000000011
 30
0.0
 10
-18.174999999999997
 20
8.2800000000000011
 30
0.0
 10
-18.174999999999997
 20
7.2800000000000011
 30
0.0
 10
-17.150000000000105
 20
7.2800000000000011
 30
0.0
 42
-2.414213562373094
 10
-16.900000000000006
 20
7.0300000000000011
 30
0.0
 10
-16.900000000000006
 20
5.0300000000000011
 30
0.0
 42
-2.414213562373094
 10
-17.150000000000006
 20
4.7800000000000011
 30
0.0
 10
-18.174999999999997
 20
4.7800000000000011
 30
0.0
 10
-18.174999999999997
 20
0.0
 30
0.0
 10
0.0
 20
0.0
 30
0.0
 10
0.0
 20
22.81333333333329
 30
0.0
 10
-6.7199999999999989
 20
22.813333333333304
 30
0.0
  0
CIRCLE
  5
11D
100
AcDbEntity
100
AcDbCircle
  8
0
 62
256
370
-1
 48
1.0
  6
ByLayer
 10
-217.13999999999999
 20
11.406666666666709
 30
0.0
 40
1.5750000000000011
  0
CIRCLE
  5
11E
100
AcDbEntity
100
AcDbCircle
  8
0
 62
256
370
-1
 48
1.0
  6
ByLayer
 10
-217.13999999999999
 20
57.033333333333367
 30
0.0
 40
1.5750000000000011
  0
CIRCLE
  5
11F
100
AcDbEntity
100
AcDbCircle
  8
0
 62
256
370
-1
 48
1.0
  6
ByLayer
 10
-42.859999999999957
 20
11.406666666666723
 30
0.0
 40
1.5750000000000011
  0
CIRCLE
  5
120
100
AcDbEntity
100
AcDbCircle
  8
0
 62
256
370
-1
 48
1.0
  6
ByLayer
 10
-42.859999999999957
 20
57.033333333333317
 30
0.0
 40
1.5750000000000011
  0
ENDBLK
  5
121
100
AcDbEntity
  8
0
100
AcDbBlockEnd
  0
BLOCK
  5
122
100
AcDbEntity
  8
0
100
AcDbBlockBegin
  2
carrier_tray
 70
0
 10
0.0
 20
0.0
 30
0.0
  3
carrier_tray
  1

  0
LWPOLYLINE
  5
123
  8
0
 62
256
370
-1
 48
1.0
  6
ByLayer
100
AcDbEntity
100
AcDbPolyline
 90
12
 70
1
 10
-27.149999999999942
 20
181.00000000000014
 30
0.0
 10
-27.149999999999942
 20
177.85000000000011
 30
0.0
 10
-63.349999999999966
 20
177.85000000000011
 30
0.0
 10
-63.349999999999966
 20
181.00000000000014
 30
0.0
 10
-181.0
 20
181.00000000000009
 30
0.0
 10
-181.0
 20
0.0000000000000853
 30
0.0
 10
-63.349999999999994
 20
0.0
 30
0.0
 10
-63.349999999999994
 20
3.1500000000000483
 30
0.0
 10
-27.149999999999991
 20
3.1500000000000199
 30
0.0
 10
-27.149999999999991
 20
0.0000000000000284
 30
0.0
 10
0.0
 20
0.0
 30
0.0
 10
0.0000000000000426
 20
181.00000000000006
 30
0.0
  0
CIRCLE
  5
124
100
AcDbEntity
100
AcDbCircle
  8
0
 62
256
370
-1
 48
1.0
  6
ByLayer
 10
-7.5000000000000142
 20
68.795000000000144
 30
0.0
 40
2.0
  0
CIRCLE
  5
125
100
AcDbEntity
100
AcDbCircle
  8
0
 62
256
370
-1
 48
1.0
  6
ByLayer
 10
-156.0
 20
25.000000000000085
 30
0.0
 40
6.0
  0
CIRCLE
  5
126
100
AcDbEntity
100
AcDbCircle
  8
0
 62
256
370
-1
 48
1.0
  6
ByLayer
 10
-90.500000000000014
 20
7.5000000000001137
 30
0.0
 40
2.6249999999999969
  0
CIRCLE
  5
127
100
AcDbEntity
100
AcDbCircle
  8
0
 62
256
370
-1
 48
1.0
  6
ByLayer
 10
-7.5000000000000142
 20
90.500000000000142
 30
0.0
 40
2.6249999999999969
  0
CIRCLE
  5
128
100
AcDbEntity
100
AcDbCircle
  8
0
 62
256
370
-1
 48
1.0
  6
ByLayer
 10
-7.5000000000000142
 20
173.50000000000014
 30
0.0
 40
2.6249999999999969
  0
CIRCLE
  5
129
100
AcDbEntity
100
AcDbCircle
  8
0
 62
256
370
-1
 48
1.0
  6
ByLayer
 10
-173.5
 20
173.50000000000009
 30
0.0
 40
2.6249999999999969
  0
CIRCLE
  5
12A
100
AcDbEntity
100
AcDbCircle
  8
0
 62
256
370
-1
 48
1.0
  6
ByLayer
 10
-90.500000000000014
 20
173.50000000000014
 30
0.0
 40
2.6249999999999969
  0
CIRCLE
  5
12B
100
AcDbEntity
100
AcDbCircle
  8
0
 62
256
370
-1
 48
1.0
  6
ByLayer
 10
-173.5
 20
90.500000000000099
 30
0.0
 40
2.6249999999999969
  0
CIRCLE
  5
12C
100
AcDbEntity
100
AcDbCircle
  8
0
 62
256
370
-1
 48
1.0
  6
ByLayer
 10
-173.5
 20
7.5000000000000995
 30
0.0
 40
2.6249999999999969
  0
CIRCLE
  5
12D
100
AcDbEntity
100
AcDbCircle
  8
0
 62
256
370
-1
 48
1.0
  6
ByLayer
 10
-7.5000000000000142
 20
7.5000000000001421
 30
0.0
 40
2.6249999999999969
  0
ENDBLK
  5
12E
100
AcDbEntity
  8
0
100
AcDbBlockEnd
  0
BLOCK
  5
12F
100
AcDbEntity
  8
0
100
AcDbBlockBegin
  2
p1
 70
0
 10
0.0
 20
0.0
 30
0.0
  3
p1
  1

  0
LINE
  5
130
100
AcDbEntity
100
AcDbLine
  8
0
 62
256
370
-1
 48
1.0
  6
ByLayer
 10
0.0
 20
-181.0
 30
0.0
 11
181.0
 21
-181.0
 31
0.0
  0
LINE
  5
131
100
AcDbEntity
100
AcDbLine
  8
0
 62
256
370
-1
 48
1.0
  6
ByLayer
 10
181.0
 20
-181.0
 30
0.0
 11
181.0
 21
0.0
 31
0.0
  0
LINE
  5
132
100
AcDbEntity
100
AcDbLine
  8
0
 62
256
370
-1
 48
1.0
  6
ByLayer
 10
181.0
 20
0.0
 30
0.0
 11
0.0
 21
0.0
 31
0.0
  0
LINE
  5
133
100
AcDbEntity
100
AcDbLine
  8
0
 62
256
370
-1
 48
1.0
  6
ByLayer
 10
0.0
 20
0.0
 30
0.0
 11
0.0
 21
-181.0
 31
0.0
  0
ENDBLK
  5
134
100
AcDbEntity
  8
0
100
AcDbBlockEnd
  0
BLOCK
  5
135
100
AcDbEntity
  8
0
100
AcDbBlockBegin
  2
frame_laser_big
 70
0
 10
0.0
 20
0.0
 30
0.0
  3
frame_laser_big
  1

  0
LWPOLYLINE
  5
136
  8
0
 62
256
370
-1
 48
1.0
  6
ByLayer
100
AcDbEntity
100
AcDbPolyline
 90
28
 70
1
 10
-11.499999999999929
 20
60.97913037155071
 30
0.0
 42
-0.9198662110078005
 10
-11.499999999999929
 20
49.02086962844929
 30
0.0
 10
-11.499999999999922
 20
40.0
 30
0.0
 10
-12.499999999999922
 20
40.0
 30
0.0
 10
-12.499999999999922
 20
49.02086962844929
 30
0.0
 42
-0.9198662110078
 10
-12.499999999999929
 20
60.97913037155071
 30
0.0
 10
-12.499999999999929
 20
78.0
 30
0.0
 10
-23.999999999999986
 20
78.0
 30
0.0
 10
-23.999999999999986
 20
73.0
 30
0.0
 10
-17.499999999999929
 20
73.0
 30
0.0
 10
-17.499999999999922
 20
67.000000000000014
 30
0.0
 10
-24.0
 20
67.000000000000014
 30
0.0
 10
-24.0
 20
43.999999999999979
 30
0.0
 10
-15.499999999999915
 20
43.999999999999979
 30
0.0
 10
-15.499999999999915
 20
40.0
 30
0.0
 10
-24.0
 20
40.0
 30
0.0
 10
-24.0
 20
0.0
 30
0.0
 10
0.0
 20
0.0
 30
0.0
 10
0.0000000000000213
 20
40.0
 30
0.0
 10
-8.5000000000000711
 20
40.0
 30
0.0
 10
-8.5000000000000711
 20
43.999999999999979
 30
0.0
 10
0.0000000000000142
 20
43.999999999999979
 30
0.0
 10
0.0000000000000213
 20
67.000000000000014
 30
0.0
 10
-6.5000000000000568
 20
67.000000000000014
 30
0.0
 10
-6.5000000000000497
 20
73.0
 30
0.0
 10
0.0000000000000213
 20
73.0
 30
0.0
 10
0.0000000000000213
 20
78.0
 30
0.0
 10
-11.499999999999929
 20
78.000000000000028
 30
0.0
  0
CIRCLE
  5
137
100
AcDbEntity
100
AcDbCircle
  8
0
 62
256
370
-1
 48
1.0
  6
ByLayer
 10
-3.9999999999999858
 20
36.060000000000016
 30
0.0
 40
1.9999999999999989
  0
CIRCLE
  5
138
100
AcDbEntity
100
AcDbCircle
  8
0
 62
256
370
-1
 48
1.0
  6
ByLayer
 10
-20.0
 20
36.060000000000016
 30
0.0
 40
1.9999999999999989
  0
CIRCLE
  5
139
100
AcDbEntity
100
AcDbCircle
  8
0
 62
256
370
-1
 48
1.0
  6
ByLayer
 10
-12.0
 20
25.0
 30
0.0
 40
1.575000000000004
  0
CIRCLE
  5
13A
100
AcDbEntity
100
AcDbCircle
  8
0
 62
256
370
-1
 48
1.0
  6
ByLayer
 10
-12.0
 20
10.0
 30
0.0
 40
1.574999999999996
  0
ENDBLK
  5
13B
100
AcDbEntity
  8
0
100
AcDbBlockEnd
  0
BLOCK
  5
13C
100
AcDbEntity
  8
0
100
AcDbBlockBegin
  2
drawer_right
 70
0
 10
0.0
 20
0.0
 30
0.0
  3
drawer_right
  1

  0
LWPOLYLINE
  5
13D
  8
0
 62
256
370
-1
 48
1.0
  6
ByLayer
100
AcDbEntity
100
AcDbPolyline
 90
4
 70
1
 10
-6.7200000000005886
 20
155.04000000000011
 30
0.0
 10
-6.7200000000005815
 20
140.04000000000011
 30
0.0
 10
-13.440000000000587
 20
140.04000000000011
 30
0.0
 10
-13.440000000000587
 20
155.04000000000011
 30
0.0
  0
LWPOLYLINE
  5
13E
  8
0
 62
256
370
-1
 48
1.0
  6
ByLayer
100
AcDbEntity
100
AcDbPolyline
 90
8
 70
1
 10
-0.0000000000001137
 20
206.52000000000001
 30
0.0
 10
-56.280000000000086
 20
206.52000000000001
 30
0.0
 10
-56.28000000000003
 20
0.0
 30
0.0
 10
-39.760000000000034
 20
0.0000000000000036
 30
0.0
 10
-39.760000000000034
 20
6.7199999999999989
 30
0.0
 10
-23.240000000000038
 20
6.7199999999999989
 30
0.0
 10
-23.240000000000038
 20
0.0000000000000071
 30
0.0
 10
0.0
 20
0.0
 30
0.0
  0
CIRCLE
  5
13F
100
AcDbEntity
100
AcDbCircle
  8
0
 62
256
370
-1
 48
1.0
  6
ByLayer
 10
-10.720000000000589
 20
162.53999999999999
 30
0.0
 40
1.5750000000000111
  0
CIRCLE
  5
140
100
AcDbEntity
100
AcDbCircle
  8
0
 62
256
370
-1
 48
1.0
  6
ByLayer
 10
-12.390000000000008
 20
3.3600000000000065
 30
0.0
 40
1.575
  0
CIRCLE
  5
141
100
AcDbEntity
100
AcDbCircle
  8
0
 62
256
370
-1
 48
1.0
  6
ByLayer
 10
-46.28000000000003
 20
13.440000000000012
 30
0.0
 40
1.575
  0
ENDBLK
  5
142
100
AcDbEntity
  8
0
100
AcDbBlockEnd
  0
BLOCK
  5
143
100
AcDbEntity
  8
0
100
AcDbBlockBegin
  2
frame_foot1
 70
0
 10
0.0
 20
0.0
 30
0.0
  3
frame_foot1
  1

  0
LWPOLYLINE
  5
144
  8
0
 62
256
370
-1
 48
1.0
  6
ByLayer
100
AcDbEntity
100
AcDbPolyline
 90
4
 70
1
 10
-80.899999999999679
 20
-20.780000000000086
 30
0.0
 42
-0.9999999999999998
 10
-80.899999999999679
 20
-14.780000000000001
 30
0.0
 10
-60.899999999999679
 20
-14.780000000000086
 30
0.0
 42
-0.9999999999999998
 10
-60.899999999999679
 20
-20.780000000000086
 30
0.0
  0
LWPOLYLINE
  5
145
  8
0
 62
256
370
-1
 48
1.0
  6
ByLayer
100
AcDbEntity
100
AcDbPolyline
 90
4
 70
1
 10
-88.899999999999679
 20
-8.2950000000001012
 30
0.0
 42
-0.9999999999999998
 10
-88.899999999999679
 20
-5.1450000000000955
 30
0.0
 10
-52.899999999999679
 20
-5.1450000000000955
 30
0.0
 42
-0.9999999999999998
 10
-52.899999999999679
 20
-8.2950000000001012
 30
0.0
  0
LWPOLYLINE
  5
146
  8
0
 62
256
370
-1
 48
1.0
  6
ByLayer
100
AcDbEntity
100
AcDbPolyline
 90
4
 70
1
 10
-80.899999999999679
 20
-35.780000000000086
 30
0.0
 42
-0.9999999999999998
 10
-80.899999999999679
 20
-29.780000000000001
 30
0.0
 10
-60.899999999999693
 20
-29.780000000000001
 30
0.0
 42
-0.9999999999999998
 10
-60.899999999999693
 20
-35.780000000000086
 30
0.0
  0
LWPOLYLINE
  5
147
  8
0
 62
256
370
-1
 48
1.0
  6
ByLayer
100
AcDbEntity
100
AcDbPolyline
 90
60
 70
1
 10
-6.7199999999999989
 20
-24.5
 30
0.0
 10
0.0000000000000284
 20
-23.912076181105789
 30
0.0
 10
0.0
 20
0.0
 30
0.0
 10
-141.7999999999997
 20
-0.0000000000001137
 30
0.0
 10
-141.79999999999967
 20
-23.912076181105789
 30
0.0
 10
-135.07999999999967
 20
-24.5
 30
0.0
 10
-128.35999999999964
 20
-24.500000000000114
 30
0.0
 10
-128.35999999999964
 20
-31.220000000000113
 30
0.0
 10
-168.11999999999966
 20
-31.220000000000113
 30
0.0
 10
-168.11999999999966
 20
-53.5
 30
0.0
 10
-111.92694112108749
 20
-54.480853491246705
 30
0.0
 10
-111.83999999999983
 20
-49.5
 30
0.0
 10
-111.83999999999983
 20
-36.060000000000088
 30
0.0
 10
-105.11999999999983
 20
-36.060000000000088
 30
0.0
 10
-105.11999999999986
 20
-42.780000000000086
 30
0.0
 10
-95.288333333332886
 20
-42.780000000000086
 30
0.0
 10
-95.288333333332886
 20
-38.000000000000114
 30
0.0
 10
-96.313333333332878
 20
-38.000000000000114
 30
0.0
 42
-2.414213562373094
 10
-96.563333333332878
 20
-37.750000000000114
 30
0.0
 10
-96.563333333332878
 20
-35.75
 30
0.0
 42
-2.414213562373094
 10
-96.313333333332878
 20
-35.500000000000114
 30
0.0
 10
-95.288333333332886
 20
-35.500000000000114
 30
0.0
 10
-95.288333333332886
 20
-34.5
 30
0.0
 10
-92.138333333332881
 20
-34.5
 30
0.0
 10
-92.138333333332881
 20
-35.500000000000114
 30
0.0
 10
-91.113333333332875
 20
-35.500000000000114
 30
0.0
 42
-2.414213562373094
 10
-90.863333333332875
 20
-35.75
 30
0.0
 10
-90.863333333332875
 20
-37.750000000000114
 30
0.0
 42
-2.414213562373094
 10
-91.113333333332875
 20
-38.000000000000114
 30
0.0
 10
-92.138333333332866
 20
-38.000000000000114
 30
0.0
 10
-92.138333333332881
 20
-42.780000000000086
 30
0.0
 10
-82.306666666666487
 20
-42.780000000000086
 30
0.0
 10
-82.306666666666487
 20
-49.500000000000114
 30
0.0
 10
-59.493333333333169
 20
-49.500000000000114
 30
0.0
 10
-59.493333333333169
 20
-42.780000000000086
 30
0.0
 10
-49.661666666666505
 20
-42.780000000000086
 30
0.0
 10
-49.661666666666505
 20
-38.000000000000114
 30
0.0
 10
-50.686666666666511
 20
-38.000000000000114
 30
0.0
 42
-2.414213562373094
 10
-50.936666666666511
 20
-37.750000000000114
 30
0.0
 10
-50.936666666666511
 20
-35.75
 30
0.0
 42
-2.414213562373094
 10
-50.686666666666511
 20
-35.500000000000114
 30
0.0
 10
-49.661666666666505
 20
-35.500000000000114
 30
0.0
 10
-49.661666666666505
 20
-34.5
 30
0.0
 10
-46.5116666666665
 20
-34.5
 30
0.0
 10
-46.5116666666665
 20
-35.500000000000114
 30
0.0
 10
-45.486666666666508
 20
-35.500000000000114
 30
0.0
 42
-2.414213562373094
 10
-45.236666666666508
 20
-35.75
 30
0.0
 10
-45.236666666666508
 20
-37.750000000000114
 30
0.0
 42
-2.414213562373094
 10
-45.486666666666508
 20
-38.000000000000114
 30
0.0
 10
-46.5116666666665
 20
-38.000000000000114
 30
0.0
 10
-46.5116666666665
 20
-42.780000000000086
 30
0.0
 10
-36.679999999999822
 20
-42.780000000000086
 30
0.0
 10
-36.679999999999836
 20
-36.060000000000088
 30
0.0
 10
-29.95999999999983
 20
-36.060000000000088
 30
0.0
 10
-29.95999999999983
 20
-49.5
 30
0.0
 10
-30.071880662925736
 20
-55.909638886247308
 30
0.0
 10
26.320000000000391
 20
-56.893962824641108
 30
0.0
 10
26.319999999999951
 20
-31.220000000000113
 30
0.0
 10
-13.440000000000026
 20
-31.220000000000113
 30
0.0
 10
-13.440000000000026
 20
-24.5
 30
0.0
  0
CIRCLE
  5
148
100
AcDbEntity
100
AcDbCircle
  8
0
 62
256
370
-1
 48
1.0
  6
ByLayer
 10
-121.83999999999983
 20
-17.780000000000001
 30
0.0
 40
1.9999999999999989
  0
CIRCLE
  5
149
100
AcDbEntity
100
AcDbCircle
  8
0
 62
256
370
-1
 48
1.0
  6
ByLayer
 10
-19.959999999999866
 20
-17.780000000000001
 30
0.0
 40
1.9999999999999989
  0
ENDBLK
  5
14A
100
AcDbEntity
  8
0
100
AcDbBlockEnd
  0
BLOCK
  5
14B
100
AcDbEntity
  8
0
100
AcDbBlockBegin
  2
drawer_left
 70
0
 10
0.0
 20
0.0
 30
0.0
  3
drawer_left
  1

  0
LWPOLYLINE
  5
14C
  8
0
 62
256
370
-1
 48
1.0
  6
ByLayer
100
AcDbEntity
100
AcDbPolyline
 90
4
 70
1
 10
-21.719999999999992
 20
97.765000000000043
 30
0.0
 10
-6.7199999999999989
 20
97.765000000000043
 30
0.0
 10
-6.7200000000000131
 20
84.875000000000057
 30
0.0
 10
-21.720000000000013
 20
84.875000000000057
 30
0.0
  0
LWPOLYLINE
  5
14D
  8
0
 62
256
370
-1
 48
1.0
  6
ByLayer
100
AcDbEntity
100
AcDbPolyline
 90
4
 70
1
 10
-6.7199999999999847
 20
114.08499999999999
 30
0.0
 10
-26.719999999999999
 20
114.08499999999999
 30
0.0
 10
-26.719999999999999
 20
129.51499999999999
 30
0.0
 10
-6.7199999999999847
 20
129.51499999999999
 30
0.0
  0
LWPOLYLINE
  5
14E
  8
0
 62
256
370
-1
 48
1.0
  6
ByLayer
100
AcDbEntity
100
AcDbPolyline
 90
4
 70
1
 10
-6.7200000000005105
 20
155.03999999999999
 30
0.0
 10
-6.7200000000005105
 20
140.03999999999999
 30
0.0
 10
-13.440000000000524
 20
140.03999999999999
 30
0.0
 10
-13.440000000000509
 20
155.03999999999999
 30
0.0
  0
LWPOLYLINE
  5
14F
  8
0
 62
256
370
-1
 48
1.0
  6
ByLayer
100
AcDbEntity
100
AcDbPolyline
 90
8
 70
1
 10
0.0
 20
206.52000000000001
 30
0.0
 10
-56.279999999999959
 20
206.52000000000001
 30
0.0
 10
-56.28000000000003
 20
0.0
 30
0.0
 10
-39.760000000000019
 20
0.0000000000000124
 30
0.0
 10
-39.760000000000019
 20
6.7200000000000095
 30
0.0
 10
-23.240000000000023
 20
6.7199999999999989
 30
0.0
 10
-23.24000000000003
 20
0.0000000000000071
 30
0.0
 10
0.0
 20
0.0
 30
0.0
  0
CIRCLE
  5
150
100
AcDbEntity
100
AcDbCircle
  8
0
 62
256
370
-1
 48
1.0
  6
ByLayer
 10
-10.720000000000496
 20
162.53999999999999
 30
0.0
 40
1.5750000000000111
  0
CIRCLE
  5
151
100
AcDbEntity
100
AcDbCircle
  8
0
 62
256
370
-1
 48
1.0
  6
ByLayer
 10
-12.390000000000001
 20
3.360000000000003
 30
0.0
 40
1.575
  0
CIRCLE
  5
152
100
AcDbEntity
100
AcDbCircle
  8
0
 62
256
370
-1
 48
1.0
  6
ByLayer
 10
-46.280000000000001
 20
13.440000000000019
 30
0.0
 40
1.575
  0
ENDBLK
  5
153
100
AcDbEntity
  8
0
100
AcDbBlockEnd
  0
BLOCK
  5
154
100
AcDbEntity
  8
0
100
AcDbBlockBegin
  2
drawer_bottom
 70
0
 10
0.0
 20
0.0
 30
0.0
  3
drawer_bottom
  1

  0
LWPOLYLINE
  5
155
  8
0
 62
256
370
-1
 48
1.0
  6
ByLayer
100
AcDbEntity
100
AcDbPolyline
 90
66
 70
1
 10
-173.55734363927587
 20
56.280000000000136
 30
0.0
 10
-174.28000000000003
 20
48.020000000000124
 30
0.0
 10
-174.28000000000003
 20
39.760000000000126
 30
0.0
 10
-187.72000000000008
 20
39.760000000000133
 30
0.0
 10
-187.72000000000008
 20
23.240000000000137
 30
0.0
 10
-181.00000000000006
 20
23.240000000000137
 30
0.0
 10
-181.0
 20
13.965000000000124
 30
0.0
 10
-176.22000000000003
 20
13.965000000000124
 30
0.0
 10
-176.22000000000003
 20
14.990000000000123
 30
0.0
 42
-2.41421356237311
 10
-175.97000000000003
 20
15.240000000000116
 30
0.0
 10
-173.97000000000003
 20
15.240000000000109
 30
0.0
 42
-2.414213562373094
 10
-173.72000000000003
 20
14.990000000000109
 30
0.0
 10
-173.72000000000003
 20
13.965000000000124
 30
0.0
 10
-172.72000000000003
 20
13.965000000000124
 30
0.0
 10
-172.72000000000003
 20
10.815000000000126
 30
0.0
 10
-173.72000000000003
 20
10.815000000000126
 30
0.0
 10
-173.72000000000003
 20
9.7900000000001057
 30
0.0
 42
-2.414213562373094
 10
-173.97000000000003
 20
9.5400000000001057
 30
0.0
 10
-175.97000000000003
 20
9.5400000000001199
 30
0.0
 42
-2.414213562373094
 10
-176.22000000000003
 20
9.7900000000001199
 30
0.0
 10
-176.22000000000003
 20
10.815000000000126
 30
0.0
 10
-181.0
 20
10.815000000000126
 30
0.0
 10
-181.00000000000006
 20
0.0000000000001279
 30
0.0
 10
-120.66666666666673
 20
0.0000000000001137
 30
0.0
 10
-120.66666666666673
 20
6.7200000000000841
 30
0.0
 10
-92.075000000000045
 20
6.7200000000000841
 30
0.0
 10
-92.075000000000045
 20
11.500000000000085
 30
0.0
 10
-93.100000000000051
 20
11.500000000000085
 30
0.0
 42
-2.4142135623731251
 10
-93.350000000000051
 20
11.750000000000071
 30
0.0
 10
-93.350000000000037
 20
13.750000000000085
 30
0.0
 42
-2.414213562373094
 10
-93.100000000000037
 20
14.000000000000085
 30
0.0
 10
-92.075000000000045
 20
14.000000000000085
 30
0.0
 10
-92.075000000000045
 20
15.000000000000085
 30
0.0
 10
-88.925000000000054
 20
15.000000000000085
 30
0.0
 10
-88.925000000000054
 20
14.000000000000085
 30
0.0
 10
-87.900000000000048
 20
14.000000000000085
 30
0.0
 42
-2.414213562373094
 10
-87.650000000000034
 20
13.750000000000085
 30
0.0
 10
-87.650000000000048
 20
11.750000000000085
 30
0.0
 42
-2.414213562373094
 10
-87.900000000000048
 20
11.500000000000085
 30
0.0
 10
-88.925000000000054
 20
11.500000000000085
 30
0.0
 10
-88.925000000000054
 20
6.7200000000000841
 30
0.0
 10
-60.333333333333329
 20
6.7200000000000273
 30
0.0
 10
-60.333333333333343
 20
0.0000000000000568
 30
0.0
 10
0.0
 20
0.0
 30
0.0
 10
-0.0000000000000142
 20
10.815000000000126
 30
0.0
 10
-4.7800000000000153
 20
10.815000000000126
 30
0.0
 10
-4.7800000000000153
 20
9.7900000000001199
 30
0.0
 42
-2.414213562373094
 10
-5.0300000000000153
 20
9.5400000000001199
 30
0.0
 10
-7.0300000000000011
 20
9.5400000000001057
 30
0.0
 42
-2.414213562373094
 10
-7.2800000000000153
 20
9.7900000000001057
 30
0.0
 10
-7.2800000000000153
 20
10.815000000000126
 30
0.0
 10
-8.2800000000000011
 20
10.815000000000126
 30
0.0
 10
-8.2800000000000011
 20
13.965000000000124
 30
0.0
 10
-7.2800000000000153
 20
13.965000000000124
 30
0.0
 10
-7.2800000000000153
 20
14.990000000000109
 30
0.0
 42
-2.414213562373094
 10
-7.0300000000000011
 20
15.240000000000109
 30
0.0
 10
-5.0300000000000153
 20
15.240000000000116
 30
0.0
 42
-2.41421356237311
 10
-4.7800000000000153
 20
14.990000000000123
 30
0.0
 10
-4.7800000000000153
 20
13.965000000000124
 30
0.0
 10
-0.0000000000000142
 20
13.965000000000124
 30
0.0
 10
-0.0000000000000142
 20
23.240000000000009
 30
0.0
 10
6.7199999999999989
 20
23.239999999999995
 30
0.0
 10
6.7200000000000415
 20
39.759999999999991
 30
0.0
 10
-6.7199999999999847
 20
39.760000000000034
 30
0.0
 10
-6.7199999999999847
 20
48.020000000000039
 30
0.0
 10
-7.4426563607241292
 20
56.280000000000037
 30
0.0
  0
CIRCLE
  5
156
100
AcDbEntity
100
AcDbCircle
  8
0
 62
256
370
-1
 48
1.0
  6
ByLayer
 10
-108.75000000000001
 20
36.540000000000092
 30
0.0
 40
2.0
  0
CIRCLE
  5
157
100
AcDbEntity
100
AcDbCircle
  8
0
 62
256
370
-1
 48
1.0
  6
ByLayer
 10
-50.750000000000007
 20
36.540000000000084
 30
0.0
 40
2.0
  0
ENDBLK
  5
158
100
AcDbEntity
  8
0
100
AcDbBlockEnd
  0
BLOCK
  5
159
100
AcDbEntity
  8
0
100
AcDbBlockBegin
  2
p3
 70
0
 10
0.0
 20
0.0
 30
0.0
  3
p3
  1

  0
LINE
  5
15A
100
AcDbEntity
100
AcDbLine
  8
0
 62
256
370
-1
 48
1.0
  6
ByLayer
 10
0.0
 20
0.0
 30
0.0
 11
790.0
 21
0.0
 31
0.0
  0
LINE
  5
15B
100
AcDbEntity
100
AcDbLine
  8
0
 62
256
370
-1
 48
1.0
  6
ByLayer
 10
790.0
 20
0.0
 30
0.0
 11
790.0
 21
-384.0
 31
0.0
  0
LINE
  5
15C
100
AcDbEntity
100
AcDbLine
  8
0
 62
256
370
-1
 48
1.0
  6
ByLayer
 10
790.0
 20
-384.0
 30
0.0
 11
0.0
 21
-384.0
 31
0.0
  0
LINE
  5
15D
100
AcDbEntity
100
AcDbLine
  8
0
 62
256
370
-1
 48
1.0
  6
ByLayer
 10
0.0
 20
-384.0
 30
0.0
 11
0.0
 21
0.0
 31
0.0
  0
ENDBLK
  5
15E
100
AcDbEntity
  8
0
100
AcDbBlockEnd
  0
BLOCK
  5
15F
100
AcDbEntity
  8
0
100
AcDbBlockBegin
  2
p2
 70
0
 10
0.0
 20
0.0
 30
0.0
  3
p2
  1

  0
LINE
  5
160
100
AcDbEntity
100
AcDbLine
  8
0
 62
256
370
-1
 48
1.0
  6
ByLayer
 10
0.0
 20
0.0
 30
0.0
 11
384.0
 21
0.0
 31
0.0
  0
LINE
  5
161
100
AcDbEntity
100
AcDbLine
  8
0
 62
256
370
-1
 48
1.0
  6
ByLayer
 10
384.0
 20
0.0
 30
0.0
 11
384.0
 21
-384.0
 31
0.0
  0
LINE
  5
162
100
AcDbEntity
100
AcDbLine
  8
0
 62
256
370
-1
 48
1.0
  6
ByLayer
 10
384.0
 20
-384.0
 30
0.0
 11
0.0
 21
-384.0
 31
0.0
  0
LINE
  5
163
100
AcDbEntity
100
AcDbLine
  8
0
 62
256
370
-1
 48
1.0
  6
ByLayer
 10
0.0
 20
-384.0
 30
0.0
 11
0.0
 21
0.0
 31
0.0
  0
ENDBLK
  5
164
100
AcDbEntity
  8
0
100
AcDbBlockEnd
  0
BLOCK
  5
165
100
AcDbEntity
  8
0
100
AcDbBlockBegin
  2
frame_back
 70
0
 10
0.0
 20
0.0
 30
0.0
  3
frame_back
  1

  0
LWPOLYLINE
  5
166
  8
0
 62
256
370
-1
 48
1.0
  6
ByLayer
100
AcDbEntity
100
AcDbPolyline
 90
28
 70
1
 10
-137.00000000000009
 20
-483.49999999999989
 30
0.0
 10
-137.00000000000006
 20
-480.49999999999989
 30
0.0
 10
-213.77999999999997
 20
-480.49999999999989
 30
0.0
 10
-213.77999999999997
 20
-506.55999999999989
 30
0.0
 10
-220.50000000000006
 20
-506.55999999999989
 30
0.0
 10
-220.49999999999994
 20
-294.99999999999989
 30
0.0
 10
-227.21999999999994
 20
-295.0
 30
0.0
 10
-227.21999999999994
 20
-289.12
 30
0.0
 10
-220.49999999999994
 20
-289.12
 30
0.0
 10
-220.49999999999994
 20
-154.12
 30
0.0
 10
-223.65000000000006
 20
-154.12
 30
0.0
 10
-223.65000000000006
 20
-104.12
 30
0.0
 10
-220.50000000000006
 20
-104.11999999999991
 30
0.0
 10
-220.49999999999994
 20
-39.499999999999957
 30
0.0
 10
-39.5
 20
-39.499999999999957
 30
0.0
 10
-39.5
 20
-104.11999999999991
 30
0.0
 10
-36.350000000000023
 20
-104.12
 30
0.0
 10
-36.350000000000023
 20
-154.12
 30
0.0
 10
-39.5
 20
-154.12
 30
0.0
 10
-39.5
 20
-289.12
 30
0.0
 10
-32.779999999999973
 20
-289.12
 30
0.0
 10
-32.779999999999973
 20
-295.0
 30
0.0
 10
-39.5
 20
-294.99999999999989
 30
0.0
 10
-39.5
 20
-506.55999999999989
 30
0.0
 10
-46.21999999999997
 20
-506.55999999999989
 30
0.0
 10
-46.220000000000027
 20
-480.49999999999989
 30
0.0
 10
-123.00000000000009
 20
-480.49999999999989
 30
0.0
 10
-123.00000000000011
 20
-483.49999999999989
 30
0.0
 42
-0.9999999999999998
  0
LWPOLYLINE
  5
167
  8
0
 62
256
370
-1
 48
1.0
  6
ByLayer
100
AcDbEntity
100
AcDbPolyline
 90
4
 70
1
 10
-153.28
 20
-485.64499999999992
 30
0.0
 42
-0.9999999999999998
 10
-153.28
 20
-488.79500000000002
 30
0.0
 10
-159.28
 20
-488.7950000000003
 30
0.0
 42
-0.9999999999999998
 10
-159.28
 20
-485.64499999999998
 30
0.0
  0
LWPOLYLINE
  5
168
  8
0
 62
256
370
-1
 48
1.0
  6
ByLayer
100
AcDbEntity
100
AcDbPolyline
 90
4
 70
1
 10
-106.72
 20
-488.79500000000002
 30
0.0
 42
-0.9999999999999998
 10
-106.72
 20
-485.64499999999992
 30
0.0
 10
-100.72
 20
-485.64500000000038
 30
0.0
 42
-0.9999999999999998
 10
-100.72
 20
-488.79500000000002
 30
0.0
  0
LWPOLYLINE
  5
169
  8
0
 62
256
370
-1
 48
1.0
  6
ByLayer
100
AcDbEntity
100
AcDbPolyline
 90
16
 70
1
 10
-6.7200000000000273
 20
-520.0
 30
0.0
 10
-6.7199999999999704
 20
-295.0
 30
0.0
 10
0.0
 20
-295.0
 30
0.0
 10
0.0
 20
0.0
 30
0.0
 10
-86.666666666666856
 20
0.0
 30
0.0
 10
-86.666666666666856
 20
-6.720000000000006
 30
0.0
 10
-173.33333333333354
 20
-6.720000000000006
 30
0.0
 10
-173.33333333333354
 20
0.0
 30
0.0
 10
-259.99999999999994
 20
0.0
 30
0.0
 10
-260.00000000000006
 20
-295.0
 30
0.0
 10
-253.27999999999994
 20
-295.0
 30
0.0
 10
-253.27999999999994
 20
-520.0
 30
0.0
 10
-173.3333333333332
 20
-520.0
 30
0.0
 10
-173.33333333333323
 20
-513.27999999999986
 30
0.0
 10
-86.666666666666572
 20
-513.27999999999986
 30
0.0
 10
-86.666666666666572
 20
-520.0
 30
0.0
  0
CIRCLE
  5
16A
100
AcDbEntity
100
AcDbCircle
  8
0
 62
256
370
-1
 48
1.0
  6
ByLayer
 10
-66.916666666666742
 20
-516.63999999999999
 30
0.0
 40
1.5750000000000159
  0
CIRCLE
  5
16B
100
AcDbEntity
100
AcDbCircle
  8
0
 62
256
370
-1
 48
1.0
  6
ByLayer
 10
-66.916666666666515
 20
-3.3599999999999852
 30
0.0
 40
1.575
  0
CIRCLE
  5
16C
100
AcDbEntity
100
AcDbCircle
  8
0
 62
256
370
-1
 48
1.0
  6
ByLayer
 10
-3.3600000000000136
 20
-19.750000000000011
 30
0.0
 40
1.575
  0
CIRCLE
  5
16D
100
AcDbEntity
100
AcDbCircle
  8
0
 62
256
370
-1
 48
1.0
  6
ByLayer
 10
-3.3600000000000136
 20
-275.25
 30
0.0
 40
1.574999999999996
  0
CIRCLE
  5
16E
100
AcDbEntity
100
AcDbCircle
  8
0
 62
256
370
-1
 48
1.0
  6
ByLayer
 10
-240.24999999999994
 20
-516.63999999999999
 30
0.0
 40
1.574999999999998
  0
CIRCLE
  5
16F
100
AcDbEntity
100
AcDbCircle
  8
0
 62
256
370
-1
 48
1.0
  6
ByLayer
 10
-19.75
 20
-3.3599999999999852
 30
0.0
 40
1.574999999999998
  0
CIRCLE
  5
170
100
AcDbEntity
100
AcDbCircle
  8
0
 62
256
370
-1
 48
1.0
  6
ByLayer
 10
-240.24999999999994
 20
-3.3599999999999852
 30
0.0
 40
1.574999999999998
  0
CIRCLE
  5
171
100
AcDbEntity
100
AcDbCircle
  8
0
 62
256
370
-1
 48
1.0
  6
ByLayer
 10
-256.63999999999999
 20
-275.25
 30
0.0
 40
1.574999999999996
  0
CIRCLE
  5
172
100
AcDbEntity
100
AcDbCircle
  8
0
 62
256
370
-1
 48
1.0
  6
ByLayer
 10
-19.749999999999943
 20
-516.63999999999999
 30
0.0
 40
1.574999999999998
  0
CIRCLE
  5
173
100
AcDbEntity
100
AcDbCircle
  8
0
 62
256
370
-1
 48
1.0
  6
ByLayer
 10
-256.63999999999999
 20
-19.750000000000011
 30
0.0
 40
1.575
  0
CIRCLE
  5
174
100
AcDbEntity
100
AcDbCircle
  8
0
 62
256
370
-1
 48
1.0
  6
ByLayer
 10
-193.08333333333346
 20
-3.3599999999999852
 30
0.0
 40
1.575
  0
CIRCLE
  5
175
100
AcDbEntity
100
AcDbCircle
  8
0
 62
256
370
-1
 48
1.0
  6
ByLayer
 10
-193.08333333333326
 20
-516.63999999999999
 30
0.0
 40
1.5750000000000159
  0
CIRCLE
  5
176
100
AcDbEntity
100
AcDbCircle
  8
0
 62
256
370
-1
 48
1.0
  6
ByLayer
 10
-233.49999999999994
 20
-292.05999999999989
 30
0.0
 40
1.575
  0
CIRCLE
  5
177
100
AcDbEntity
100
AcDbCircle
  8
0
 62
256
370
-1
 48
1.0
  6
ByLayer
 10
-26.5
 20
-292.05999999999989
 30
0.0
 40
1.575
  0
ENDBLK
  5
178
100
AcDbEntity
  8
0
100
AcDbBlockEnd
  0
BLOCK
  5
179
100
AcDbEntity
  8
0
100
AcDbBlockBegin
  2
frame_galvo
 70
0
 10
0.0
 20
0.0
 30
0.0
  3
frame_galvo
  1

  0
LWPOLYLINE
  5
17A
  8
0
 62
256
370
-1
 48
1.0
  6
ByLayer
100
AcDbEntity
100
AcDbPolyline
 90
4
 70
1
 10
-30.900000000000048
 20
-33.999999999999993
 30
0.0
 10
-30.900000000000048
 20
-28.00000000000011
 30
0.0
 42
0.9999999999999998
 10
-35.100000000000037
 20
-28.00000000000011
 30
0.0
 10
-35.100000000000037
 20
-33.999999999999993
 30
0.0
 42
0.9999999999999998
  0
LWPOLYLINE
  5
17B
  8
0
 62
256
370
-1
 48
1.0
  6
ByLayer
100
AcDbEntity
100
AcDbPolyline
 90
4
 70
1
 10
-16.40000000000002
 20
-7.0000000000001066
 30
0.0
 42
0.9999999999999998
 10
-20.600000000000041
 20
-7.0000000000001066
 30
0.0
 10
-20.600000000000041
 20
-25.50000000000011
 30
0.0
 42
0.9999999999999998
 10
-16.400000000000048
 20
-25.50000000000011
 30
0.0
  0
LWPOLYLINE
  5
17C
  8
0
 62
256
370
-1
 48
1.0
  6
ByLayer
100
AcDbEntity
100
AcDbPolyline
 90
8
 70
1
 10
-22.0
 20
-65.000000000000114
 30
0.0
 10
-22.000000000000011
 20
-71.720000000000113
 30
0.0
 10
-44.000000000000007
 20
-71.720000000000113
 30
0.0
 10
-44.000000000000007
 20
-65.000000000000114
 30
0.0
 10
-66.000000000000043
 20
-65.000000000000114
 30
0.0
 10
-66.000000000000043
 20
-0.0000000000000995
 30
0.0
 10
0.0
 20
0.0
 30
0.0
 10
-0.0000000000000142
 20
-65.000000000000114
 30
0.0
  0
CIRCLE
  5
17D
100
AcDbEntity
100
AcDbCircle
  8
0
 62
256
370
-1
 48
1.0
  6
ByLayer
 10
-6.7200000000000131
 20
-38.940000000000083
 30
0.0
 40
1.9999999999999989
  0
CIRCLE
  5
17E
100
AcDbEntity
100
AcDbCircle
  8
0
 62
256
370
-1
 48
1.0
  6
ByLayer
 10
-59.280000000000037
 20
-38.940000000000097
 30
0.0
 40
1.9999999999999989
  0
ENDBLK
  5
17F
100
AcDbEntity
  8
0
100
AcDbBlockEnd
  0
ENDSEC
  0
SECTION
  2
ENTITIES
  0
INSERT
  5
180
100
AcDbEntity
100
AcDbBlockReference
  8
0
 62
256
370
-1
 48
1.0
  6
ByLayer
  2
carrier_window
 10
753.58000000000038
 20
-672.12
 30
0.0
 50
180.0
  0
INSERT
  5
181
100
AcDbEntity
100
AcDbBlockReference
  8
0
 62
256
370
-1
 48
1.0
  6
ByLayer
  2
p2
 10
0.0
 20
0.0
 30
0.0
  0
INSERT
  5
182
100
AcDbEntity
100
AcDbBlockReference
  8
0
 62
256
370
-1
 48
1.0
  6
ByLayer
  2
p3
 10
-0.0000000000004547
 20
-1000.0
 30
0.0
 41
1.0
 42
-1.0
 43
1.0
 50
270.0
  0
INSERT
  5
183
100
AcDbEntity
100
AcDbBlockReference
  8
0
 62
256
370
-1
 48
1.0
  6
ByLayer
  2
p2
 10
1.5
 20
-513.10000000000002
 30
0.0
  0
INSERT
  5
184
100
AcDbEntity
100
AcDbBlockReference
  8
0
 62
256
370
-1
 48
1.0
  6
ByLayer
  2
p3
 10
600.0
 20
-1000.0
 30
0.0
 41
1.0
 42
-1.0
 43
1.0
 50
270.0
  0
INSERT
  5
185
100
AcDbEntity
100
AcDbBlockReference
  8
0
 62
256
370
-1
 48
1.0
  6
ByLayer
  2
p2
 10
500.00000000000011
 20
-481.24000000000001
 30
0.0
  0
INSERT
  5
186
100
AcDbEntity
100
AcDbBlockReference
  8
0
 62
256
370
-1
 48
1.0
  6
ByLayer
  2
carrier
 10
303.17500000000013
 20
-181.0000000000002
 30
0.0
  0
INSERT
  5
187
100
AcDbEntity
100
AcDbBlockReference
  8
0
 62
256
370
-1
 48
1.0
  6
ByLayer
  2
carrier_tray
 10
-247.3074953763894
 20
-514.32183590445629
 30
0.0
 50
180.0
  0
INSERT
  5
188
100
AcDbEntity
100
AcDbBlockReference
  8
0
 62
256
370
-1
 48
1.0
  6
ByLayer
  2
door
 10
697.30000000000007
 20
-862.12
 30
0.0
 41
1.0
 42
-1.0
 43
1.0
  0
INSERT
  5
189
100
AcDbEntity
100
AcDbBlockReference
  8
0
 62
256
370
-1
 48
1.0
  6
ByLayer
  2
drawer_back
 10
39.499999999999552
 20
-1039.5
 30
0.0
 41
1.0
 42
-1.0
 43
1.0
 50
180.0
  0
INSERT
  5
18A
100
AcDbEntity
100
AcDbBlockReference
  8
0
 62
256
370
-1
 48
1.0
  6
ByLayer
  2
drawer_bottom
 10
86.666666666666146
 20
-1767.7199999999991
 30
0.0
 41
1.0
 42
-1.0
 43
1.0
 50
180.0
  0
INSERT
  5
18B
100
AcDbEntity
100
AcDbBlockReference
  8
0
 62
256
370
-1
 48
1.0
  6
ByLayer
  2
drawer_left
 10
95.77999999999949
 20
-1463.6599999999999
 30
0.0
  0
INSERT
  5
18C
100
AcDbEntity
100
AcDbBlockReference
  8
0
 62
256
370
-1
 48
1.0
  6
ByLayer
  2
drawer_support
 10
87.389323027390532
 20
-1681.4399999999994
 30
0.0
 41
1.0
 42
-1.0
 43
1.0
 50
180.00000000000003
  0
INSERT
  5
18D
100
AcDbEntity
100
AcDbBlockReference
  8
0
 62
256
370
-1
 48
1.0
  6
ByLayer
  2
frame_back
 10
-0.0000000000004547
 20
-1000.0
 30
0.0
 41
1.0
 42
-1.0
 43
1.0
 50
180.0
  0
INSERT
  5
18E
100
AcDbEntity
100
AcDbBlockReference
  8
0
 62
256
370
-1
 48
1.0
  6
ByLayer
  2
frame_bottom
 10
-0.0000000000005134
 20
-1520.0
 30
0.0
 50
180.0
  0
INSERT
  5
18F
100
AcDbEntity
100
AcDbBlockReference
  8
0
 62
256
370
-1
 48
1.0
  6
ByLayer
  2
frame_foot2
 10
656.89396282464122
 20
-1621.3800000000003
 30
0.0
 41
1.0
 42
-1.0
 43
1.0
 50
90.000000000000014
  0
INSERT
  5
190
100
AcDbEntity
100
AcDbBlockReference
  8
0
 62
256
370
-1
 48
1.0
  6
ByLayer
  2
frame_foot1
 10
901.45396282464128
 20
-1621.3800000000003
 30
0.0
 50
90.000000000000014
  0
INSERT
  5
191
100
AcDbEntity
100
AcDbBlockReference
  8
0
 62
256
370
-1
 48
1.0
  6
ByLayer
  2
frame_galvo
 10
695.7800000000002
 20
-1263.8599999999999
 30
0.0
 41
1.0
 42
-1.0
 43
1.0
 50
180.0
  0
INSERT
  5
192
100
AcDbEntity
100
AcDbBlockReference
  8
0
 62
256
370
-1
 48
1.0
  6
ByLayer
  2
frame_right
 10
853.28000000000077
 20
-1520.0
 30
0.0
 41
1.0
 42
-1.0
 43
1.0
 50
180.0
  0
INSERT
  5
193
100
AcDbEntity
100
AcDbBlockReference
  8
0
 62
256
370
-1
 48
1.0
  6
ByLayer
  2
frame_top
 10
600.00000000000023
 20
-1520.0
 30
0.0
 50
180.0
  0
INSERT
  5
194
100
AcDbEntity
100
AcDbBlockReference
  8
0
 62
256
370
-1
 48
1.0
  6
ByLayer
  2
frame_right
 10
253.28000000000031
 20
-1520.0
 30
0.0
 41
1.0
 42
-1.0
 43
1.0
 50
180.0
  0
INSERT
  5
195
100
AcDbEntity
100
AcDbBlockReference
  8
0
 62
256
370
-1
 48
1.0
  6
ByLayer
  2
drawer_right
 10
220.49999999999949
 20
-1463.6600000000001
 30
0.0
  0
INSERT
  5
196
100
AcDbEntity
100
AcDbBlockReference
  8
0
 62
256
370
-1
 48
1.0
  6
ByLayer
  2
drawer_right
 10
639.50000000000011
 20
-1463.6600000000001
 30
0.0
 41
1.0
 42
-1.0
 43
1.0
 50
180.0
  0
INSERT
  5
197
100
AcDbEntity
100
AcDbBlockReference
  8
0
 62
256
370
-1
 48
1.0
  6
ByLayer
  2
drawer_right
 10
820.50000000000023
 20
-1463.6600000000001
 30
0.0
  0
INSERT
  5
198
100
AcDbEntity
100
AcDbBlockReference
  8
0
 62
256
370
-1
 48
1.0
  6
ByLayer
  2
door
 10
500.00000000000011
 20
-481.24000000000001
 30
0.0
 41
1.0
 42
-1.0
 43
1.0
 50
180.0
  0
INSERT
  5
199
100
AcDbEntity
100
AcDbBlockReference
  8
0
 62
256
370
-1
 48
1.0
  6
ByLayer
  2
carrier_window
 10
808.93000000000063
 20
-672.12000000000023
 30
0.0
  0
INSERT
  5
19A
100
AcDbEntity
100
AcDbBlockReference
  8
0
 62
256
370
-1
 48
1.0
  6
ByLayer
  2
carrier_window
 10
753.5800000000005
 20
-672.12000000000012
 30
0.0
 41
1.0
 42
-1.0
 43
1.0
 50
180.0
  0
INSERT
  5
19B
100
AcDbEntity
100
AcDbBlockReference
  8
0
 62
256
370
-1
 48
1.0
  6
ByLayer
  2
carrier_window
 10
808.93000000000052
 20
-672.11999999999989
 30
0.0
 41
1.0
 42
-1.0
 43
1.0
  0
INSERT
  5
19C
100
AcDbEntity
100
AcDbBlockReference
  8
0
 62
256
370
-1
 48
1.0
  6
ByLayer
  2
drawer_support
 10
87.389323027390532
 20
-1681.4399999999994
 30
0.0
 50
180.00000000000003
  0
INSERT
  5
19D
100
AcDbEntity
100
AcDbBlockReference
  8
0
 62
256
370
-1
 48
1.0
  6
ByLayer
  2
crane_flap
 10
753.5800000000005
 20
-672.12
 30
0.0
 50
270.0
  0
INSERT
  5
19E
100
AcDbEntity
100
AcDbBlockReference
  8
0
 62
256
370
-1
 48
1.0
  6
ByLayer
  2
crane_front
 10
656.89396282464133
 20
-1651.8800000000003
 30
0.0
 41
1.0
 42
-1.0
 43
1.0
  0
INSERT
  5
19F
100
AcDbEntity
100
AcDbBlockReference
  8
0
 62
256
370
-1
 48
1.0
  6
ByLayer
  2
crane_flap
 10
753.58000000000038
 20
-672.12000000000012
 30
0.0
 41
1.0
 42
-1.0
 43
1.0
 50
90.000000000000014
  0
INSERT
  5
1A0
100
AcDbEntity
100
AcDbBlockReference
  8
0
 62
256
370
-1
 48
1.0
  6
ByLayer
  2
crane
 10
656.89396282464133
 20
-1661.8800000000003
 30
0.0
 50
180.0
  0
INSERT
  5
1A1
100
AcDbEntity
100
AcDbBlockReference
  8
0
 62
256
370
-1
 48
1.0
  6
ByLayer
  2
carrier_wall
 10
-247.7351171714561
 20
-766.11460310677103
 30
0.0
 50
180.0
  0
INSERT
  5
1A2
100
AcDbEntity
100
AcDbBlockReference
  8
0
 62
256
370
-1
 48
1.0
  6
ByLayer
  2
carrier_wall
 10
0.0
 20
-0.0000000000002477
 30
0.0
 41
1.0
 42
-1.0
 43
1.0
 50
90.0
  0
INSERT
  5
1A3
100
AcDbEntity
100
AcDbBlockReference
  8
0
 62
256
370
-1
 48
1.0
  6
ByLayer
  2
frame_laser_big
 10
30.499999999999829
 20
-347.0000000000004
 30
0.0
 41
1.0
 42
-1.0
 43
1.0
 50
180.0
  0
INSERT
  5
1A4
100
AcDbEntity
100
AcDbBlockReference
  8
0
 62
256
370
-1
 48
1.0
  6
ByLayer
  2
frame_laser_big
 10
54.499999999999829
 20
-347.0000000000004
 30
0.0
 41
1.0
 42
-1.0
 43
1.0
 50
180.0
  0
INSERT
  5
1A5
100
AcDbEntity
100
AcDbBlockReference
  8
0
 62
256
370
-1
 48
1.0
  6
ByLayer
  2
carrier_wall
 10
0.0
 20
-181.00000000000031
 30
0.0
 41
1.0
 42
-1.0
 43
1.0
 50
90.0
  0
INSERT
  5
1A6
100
AcDbEntity
100
AcDbBlockReference
  8
0
 62
256
370
-1
 48
1.0
  6
ByLayer
  2
carrier_wall
 10
180.9999999999998
 20
-181.00000000000051
 30
0.0
 41
1.0
 42
-1.0
 43
1.0
 50
90.0
  0
INSERT
  5
1A7
100
AcDbEntity
100
AcDbBlockReference
  8
0
 62
256
370
-1
 48
1.0
  6
ByLayer
  2
carrier_wall
 10
194.43999999999991
 20
-0.000000000000469
 30
0.0
 41
1.0
 42
-1.0
 43
1.0
 50
90.0
  0
INSERT
  5
1A8
100
AcDbEntity
100
AcDbBlockReference
  8
0
 62
256
370
-1
 48
1.0
  6
ByLayer
  2
carrier_tray
 10
-880.99999999999989
 20
-499.99999999999989
 30
0.0
 50
180.0
  0
INSERT
  5
1A9
100
AcDbEntity
100
AcDbBlockReference
  8
0
 62
256
370
-1
 48
1.0
  6
ByLayer
  2
carrier_tray
 10
-699.99999999999989
 20
-499.99999999999989
 30
0.0
 50
180.0
  0
INSERT
  5
1AA
100
AcDbEntity
100
AcDbBlockReference
  8
0
 62
256
370
-1
 48
1.0
  6
ByLayer
  2
carrier_tray
 10
-699.99999999999989
 20
-318.99999999999977
 30
0.0
 50
180.0
  0
INSERT
  5
1AB
100
AcDbEntity
100
AcDbBlockReference
  8
0
 62
256
370
-1
 48
1.0
  6
ByLayer
  2
carrier_tray
 10
-880.99999999999989
 20
-318.99999999999977
 30
0.0
 50
180.0
  0
INSERT
  5
1AC
100
AcDbEntity
100
AcDbBlockReference
  8
0
 62
256
370
-1
 48
1.0
  6
ByLayer
  2
p2
 10
-891.99999999999989
 20
-307.99999999999989
 30
0.0
  0
INSERT
  5
1AD
100
AcDbEntity
100
AcDbBlockReference
  8
0
 62
256
370
-1
 48
1.0
  6
ByLayer
  2
carrier_tray
 10
-1181.0
 20
-1000.0
 30
0.0
 50
180.0
  0
INSERT
  5
1AE
100
AcDbEntity
100
AcDbBlockReference
  8
0
 62
256
370
-1
 48
1.0
  6
ByLayer
  2
carrier_tray
 10
-1000.0
 20
-1000.0
 30
0.0
 50
180.0
  0
INSERT
  5
1AF
100
AcDbEntity
100
AcDbBlockReference
  8
0
 62
256
370
-1
 48
1.0
  6
ByLayer
  2
carrier_tray
 10
-1000.0
 20
-818.99999999999977
 30
0.0
 50
180.0
  0
INSERT
  5
1B0
100
AcDbEntity
100
AcDbBlockReference
  8
0
 62
256
370
-1
 48
1.0
  6
ByLayer
  2
carrier_tray
 10
-1181.0
 20
-818.99999999999977
 30
0.0
 50
180.0
  0
INSERT
  5
1B1
100
AcDbEntity
100
AcDbBlockReference
  8
0
 62
256
370
-1
 48
1.0
  6
ByLayer
  2
carrier_tray
 10
-1543.0
 20
-1000.0
 30
0.0
 50
180.0
  0
INSERT
  5
1B2
100
AcDbEntity
100
AcDbBlockReference
  8
0
 62
256
370
-1
 48
1.0
  6
ByLayer
  2
carrier_tray
 10
-1362.0
 20
-1000.0
 30
0.0
 50
180.0
  0
INSERT
  5
1B3
100
AcDbEntity
100
AcDbBlockReference
  8
0
 62
256
370
-1
 48
1.0
  6
ByLayer
  2
carrier_tray
 10
-1362.0
 20
-818.99999999999977
 30
0.0
 50
180.0
  0
INSERT
  5
1B4
100
AcDbEntity
100
AcDbBlockReference
  8
0
 62
256
370
-1
 48
1.0
  6
ByLayer
  2
carrier_tray
 10
-1543.0
 20
-818.99999999999977
 30
0.0
 50
180.0
  0
INSERT
  5
1B5
100
AcDbEntity
100
AcDbBlockReference
  8
0
 62
256
370
-1
 48
1.0
  6
ByLayer
  2
drawer_bottom
 10
86.666666666666231
 20
-1595.1599999999999
 30
0.0
 50
180.0
  0
INSERT
  5
1B6
100
AcDbEntity
100
AcDbBlockReference
  8
0
 62
256
370
-1
 48
1.0
  6
ByLayer
  2
crane_front
 10
656.89396282464111
 20
-1731.8800000000003
 30
0.0
  0
INSERT
  5
1B7
100
AcDbEntity
100
AcDbBlockReference
  8
0
 62
256
370
-1
 48
1.0
  6
ByLayer
  2
drawer_back
 10
820.50000000000023
 20
-1039.5
 30
0.0
  0
INSERT
  5
1B8
100
AcDbEntity
100
AcDbBlockReference
  8
0
 62
256
370
-1
 48
1.0
  6
ByLayer
  2
frame_laser
 10
102.49999999999983
 20
-347.0000000000004
 30
0.0
  0
INSERT
  5
1B9
100
AcDbEntity
100
AcDbBlockReference
  8
0
 62
256
370
-1
 48
1.0
  6
ByLayer
  2
frame_laser
 10
126.49999999999983
 20
-347.0000000000004
 30
0.0
  0
INSERT
  5
1BA
100
AcDbEntity
100
AcDbBlockReference
  8
0
 62
256
370
-1
 48
1.0
  6
ByLayer
  2
frame_front
 10
600.0
 20
-1000.0
 30
0.0
  0
INSERT
  5
1BB
100
AcDbEntity
100
AcDbBlockReference
  8
0
 62
256
370
-1
 48
1.0
  6
ByLayer
  2
carrier_drain
 10
24.999999999999996
 20
-206.00000000000031
 30
0.0
  0
ENDSEC
  0
SECTION
  2
OBJECTS
  0
DICTIONARY
  5
C
100
AcDbDictionary
280
0
281
1
  3
ACAD_GROUP
350
D
  3
ACAD_LAYOUT
350
1A
  3
ACAD_MLINESTYLE
350
17
  3
ACAD_PLOTSETTINGS
350
19
  3
ACAD_PLOTSTYLENAME
350
E
  3
AcDbVariableDictionary
350
1BC
  3
QCAD_OBJECTS
350
1BD
  0
DICTIONARY
  5
D
100
AcDbDictionary
280
0
281
1
  0
ACDBDICTIONARYWDFLT
  5
E
100
AcDbDictionary
281
1
  3
Normal
350
F
100
AcDbDictionaryWithDefault
340
F
  0
ACDBPLACEHOLDER
  5
F
  0
DICTIONARY
  5
17
100
AcDbDictionary
280
0
281
1
  3
Standard
350
18
  0
MLINESTYLE
  5
18
100
AcDbMlineStyle
  2
STANDARD
 70
0
  3

 62
256
 51
90.0
 52
90.0
 71
2
 49
0.5
 62
256
  6
BYLAYER
 49
-0.5
 62
256
  6
BYLAYER
  0
DICTIONARY
  5
19
100
AcDbDictionary
280
0
281
1
  0
DICTIONARY
  5
1A
100
AcDbDictionary
281
1
  3
Layout1
350
1E
  3
Layout2
350
26
  3
Model
350
22
  0
LAYOUT
  5
1E
100
AcDbPlotSettings
  1

  2
none_device
  4

  6

 40
0.0
 41
0.0
 42
0.0
 43
0.0
 44
0.0
 45
0.0
 46
0.0
 47
0.0
 48
0.0
 49
0.0
140
0.0
141
0.0
142
1.0
143
1.0
 70
688
 72
0
 73
0
 74
5
  7

 75
16
147
1.0
148
0.0
149
0.0
100
AcDbLayout
  1
Layout1
 70
1
 71
1
 10
0.0
 20
0.0
 11
420.0
 21
297.0
 12
0.0
 22
0.0
 32
0.0
 14
100000000000000000000.0
 24
100000000000000000000.0
 34
100000000000000000000.0
 15
-100000000000000000000.0
 25
-100000000000000000000.0
 35
-100000000000000000000.0
146
0.0
 13
0.0
 23
0.0
 33
0.0
 16
1.0
 26
0.0
 36
0.0
 17
0.0
 27
1.0
 37
0.0
 76
0
330
1B
  0
LAYOUT
  5
22
100
AcDbPlotSettings
  1

  2
none_device
  4

  6

 40
0.0
 41
0.0
 42
0.0
 43
0.0
 44
0.0
 45
0.0
 46
0.0
 47
0.0
 48
0.0
 49
0.0
140
0.0
141
0.0
142
1.0
143
1.0
 70
1712
 72
0
 73
0
 74
0
  7

 75
0
147
1.0
148
0.0
149
0.0
100
AcDbLayout
  1
Model
 70
1
 71
0
 10
0.0
 20
0.0
 11
12.0
 21
9.0
 12
0.0
 22
0.0
 32
0.0
 14
0.0
 24
0.0
 34
0.0
 15
0.0
 25
0.0
 35
0.0
146
0.0
 13
0.0
 23
0.0
 33
0.0
 16
1.0
 26
0.0
 36
0.0
 17
0.0
 27
1.0
 37
0.0
 76
0
330
1F
  0
LAYOUT
  5
26
100
AcDbPlotSettings
  1

  2
none_device
  4

  6

 40
0.0
 41
0.0
 42
0.0
 43
0.0
 44
0.0
 45
0.0
 46
0.0
 47
0.0
 48
0.0
 49
0.0
140
0.0
141
0.0
142
1.0
143
1.0
 70
688
 72
0
 73
0
 74
5
  7

 75
16
147
1.0
148
0.0
149
0.0
100
AcDbLayout
  1
Layout2
 70
1
 71
2
 10
0.0
 20
0.0
 11
12.0
 21
9.0
 12
0.0
 22
0.0
 32
0.0
 14
0.0
 24
0.0
 34
0.0
 15
0.0
 25
0.0
 35
0.0
146
0.0
 13
0.0
 23
0.0
 33
0.0
 16
1.0
 26
0.0
 36
0.0
 17
0.0
 27
1.0
 37
0.0
 76
0
330
23
  0
DICTIONARY
  5
1BC
100
AcDbDictionary
281
1
  3
DIMASSOC
350
1BF
  3
HIDETEXT
350
1BE
  0
DICTIONARYVAR
  5
1BE
100
DictionaryVariables
280
0
  1
2
  0
DICTIONARYVAR
  5
1BF
100
DictionaryVariables
280
0
  1
1
  0
DICTIONARY
  5
1BD
100
AcDbDictionary
281
1
  3
ColorSettings/BackgroundColor
350
1C0
  3
ColorSettings/ColorMode
350
1C1
  3
Grid/DisplayGrid00
350
1C2
  3
Grid/DisplayGrid01
350
1C3
  3
Grid/DisplayGrid02
350
1C4
  3
Grid/DisplayGrid03
350
1C5
  3
Grid/GridSpacingX00
350
1C6
  3
Grid/GridSpacingX01
350
1C7
  3
Grid/GridSpacingX02
350
1C8
  3
Grid/GridSpacingX03
350
1C9
  3
Grid/GridSpacingY00
350
1CA
  3
Grid/GridSpacingY01
350
1CB
  3
Grid/GridSpacingY02
350
1CC
  3
Grid/GridSpacingY03
350
1CD
  3
Grid/IsometricGrid00
350
1CE
  3
Grid/IsometricGrid01
350
1CF
  3
Grid/IsometricGrid02
350
1D0
  3
Grid/IsometricGrid03
350
1D1
  3
Grid/IsometricProjection00
350
1D2
  3
Grid/IsometricProjection01
350
1D3
  3
Grid/IsometricProjection02
350
1D4
  3
Grid/IsometricProjection03
350
1D5
  3
Grid/MetaGridSpacingX00
350
1D6
  3
Grid/MetaGridSpacingX01
350
1D7
  3
Grid/MetaGridSpacingX02
350
1D8
  3
Grid/MetaGridSpacingX03
350
1D9
  3
Grid/MetaGridSpacingY00
350
1DA
  3
Grid/MetaGridSpacingY01
350
1DB
  3
Grid/MetaGridSpacingY02
350
1DC
  3
Grid/MetaGridSpacingY03
350
1DD
  3
MultiPageSettings/Columns
350
1DE
  3
MultiPageSettings/GlueMarginsBottom
350
1DF
  3
MultiPageSettings/GlueMarginsLeft
350
1E0
  3
MultiPageSettings/GlueMarginsRight
350
1E1
  3
MultiPageSettings/GlueMarginsTop
350
1E2
  3
MultiPageSettings/PrintCropMarks
350
1E3
  3
MultiPageSettings/Rows
350
1E4
  3
PageSettings/OffsetX
350
1E5
  3
PageSettings/OffsetY
350
1E6
  3
PageSettings/PageOrientation
350
1E7
  3
PageSettings/PaperHeight
350
1E8
  3
PageSettings/PaperWidth
350
1E9
  3
PageSettings/Scale
350
1EA
  3
PageSettings/ShowPaperBorders
350
1EB
  3
QCADVersion
350
1EC
  3
UnitSettings/PaperUnit
350
1ED
  3
ViewportCenter
350
1EE
  3
ViewportHeight
350
1EF
  3
ViewportWidth
350
1F0
  0
XRECORD
  5
1C0
330
1BD
100
AcDbXrecord
280
1
1000
White
  0
XRECORD
  5
1C1
330
1BD
100
AcDbXrecord
280
1
1000
FullColor
  0
XRECORD
  5
1C2
330
1BD
100
AcDbXrecord
280
1
290
1
  0
XRECORD
  5
1C3
330
1BD
100
AcDbXrecord
280
1
290
1
  0
XRECORD
  5
1C4
330
1BD
100
AcDbXrecord
280
1
290
1
  0
XRECORD
  5
1C5
330
1BD
100
AcDbXrecord
280
1
290
1
  0
XRECORD
  5
1C6
330
1BD
100
AcDbXrecord
280
1
1000
auto
  0
XRECORD
  5
1C7
330
1BD
100
AcDbXrecord
280
1
1000
auto
  0
XRECORD
  5
1C8
330
1BD
100
AcDbXrecord
280
1
1000
auto
  0
XRECORD
  5
1C9
330
1BD
100
AcDbXrecord
280
1
1000
auto
  0
XRECORD
  5
1CA
330
1BD
100
AcDbXrecord
280
1
1000
auto
  0
XRECORD
  5
1CB
330
1BD
100
AcDbXrecord
280
1
1000
auto
  0
XRECORD
  5
1CC
330
1BD
100
AcDbXrecord
280
1
1000
auto
  0
XRECORD
  5
1CD
330
1BD
100
AcDbXrecord
280
1
1000
auto
  0
XRECORD
  5
1CE
330
1BD
100
AcDbXrecord
280
1
290
0
  0
XRECORD
  5
1CF
330
1BD
100
AcDbXrecord
280
1
290
0
  0
XRECORD
  5
1D0
330
1BD
100
AcDbXrecord
280
1
290
0
  0
XRECORD
  5
1D1
330
1BD
100
AcDbXrecord
280
1
290
0
  0
XRECORD
  5
1D2
330
1BD
100
AcDbXrecord
280
1
 90
0
  0
XRECORD
  5
1D3
330
1BD
100
AcDbXrecord
280
1
 90
0
  0
XRECORD
  5
1D4
330
1BD
100
AcDbXrecord
280
1
 90
0
  0
XRECORD
  5
1D5
330
1BD
100
AcDbXrecord
280
1
 90
0
  0
XRECORD
  5
1D6
330
1BD
100
AcDbXrecord
280
1
1000
auto
  0
XRECORD
  5
1D7
330
1BD
100
AcDbXrecord
280
1
1000
auto
  0
XRECORD
  5
1D8
330
1BD
100
AcDbXrecord
280
1
1000
auto
  0
XRECORD
  5
1D9
330
1BD
100
AcDbXrecord
280
1
1000
auto
  0
XRECORD
  5
1DA
330
1BD
100
AcDbXrecord
280
1
1000
auto
  0
XRECORD
  5
1DB
330
1BD
100
AcDbXrecord
280
1
1000
auto
  0
XRECORD
  5
1DC
330
1BD
100
AcDbXrecord
280
1
1000
auto
  0
XRECORD
  5
1DD
330
1BD
100
AcDbXrecord
280
1
1000
auto
  0
XRECORD
  5
1DE
330
1BD
100
AcDbXrecord
280
1
 90
1
  0
XRECORD
  5
1DF
330
1BD
100
AcDbXrecord
280
1
 40
10.0
  0
XRECORD
  5
1E0
330
1BD
100
AcDbXrecord
280
1
 40
10.0
  0
XRECORD
  5
1E1
330
1BD
100
AcDbXrecord
280
1
 40
10.0
  0
XRECORD
  5
1E2
330
1BD
100
AcDbXrecord
280
1
 40
10.0
  0
XRECORD
  5
1E3
330
1BD
100
AcDbXrecord
280
1
290
0
  0
XRECORD
  5
1E4
330
1BD
100
AcDbXrecord
280
1
 90
1
  0
XRECORD
  5
1E5
330
1BD
100
AcDbXrecord
280
1
 40
0.0
  0
XRECORD
  5
1E6
330
1BD
100
AcDbXrecord
280
1
 40
0.0
  0
XRECORD
  5
1E7
330
1BD
100
AcDbXrecord
280
1
1000
Portrait
  0
XRECORD
  5
1E8
330
1BD
100
AcDbXrecord
280
1
 40
297.0
  0
XRECORD
  5
1E9
330
1BD
100
AcDbXrecord
280
1
 40
210.0
  0
XRECORD
  5
1EA
330
1BD
100
AcDbXrecord
280
1
1000
1:1
  0
XRECORD
  5
1EB
330
1BD
100
AcDbXrecord
280
1
290
1
  0
XRECORD
  5
1EC
330
1BD
100
AcDbXrecord
280
1
1000
3.15.2
  0
XRECORD
  5
1ED
330
1BD
100
AcDbXrecord
280
1
 90
4
  0
XRECORD
  5
1EF
330
1BD
100
AcDbXrecord
280
1
 40
441.71150569854029
  0
XRECORD
  5
1F0
330
1BD
100
AcDbXrecord
280
1
 40
723.67660003652918
  0
ENDSEC
  0
EOF
