999
dxflib 3.12.2.0
  0
SECTION
  2
HEADER
  9
$ACADVER
  1
AC1015
  9
$HANDSEED
  5
FFFF
  9
$ANGBASE
 50
0.0
  9
$ATTMODE
 70
1
  9
$AUNITS
 70
0
  9
$AUPREC
 70
0
  9
$CELTSCALE
 40
1.0
  9
$CHAMFERA
 40
0.0
  9
$CHAMFERB
 40
0.0
  9
$CHAMFERC
 40
0.0
  9
$CHAMFERD
 40
0.0
  9
$CMLJUST
 70
0
  9
$CMLSCALE
 40
1.0
  9
$DIMADEC
 70
0
  9
$DIMALTD
 70
2
  9
$DIMALTF
 40
25.399999999999999
  9
$DIMALTRND
 40
0.0
  9
$DIMALTTD
 70
2
  9
$DIMALTTZ
 70
0
  9
$DIMALTU
 70
2
  9
$DIMALTZ
 70
0
  9
$DIMAPOST
  1

  9
$DIMASZ
 40
2.5
  9
$DIMATFIT
 70
3
  9
$DIMAUNIT
 70
0
  9
$DIMAZIN
 70
2
  9
$DIMCEN
 40
0.09
  9
$DIMDEC
 70
4
  9
$DIMDLE
 40
0.0
  9
$DIMDLI
 40
0.38
  9
$DIMDSEP
 70
46
  9
$DIMEXE
 40
1.25
  9
$DIMEXO
 40
0.625
  9
$DIMFRAC
 70
0
  9
$DIMGAP
 40
0.625
  9
$DIMJUST
 70
0
  9
$DIMLFAC
 40
1.0
  9
$DIMLUNIT
 70
2
  9
$DIMLWD
 70
-2
  9
$DIMLWE
 70
-2
  9
$DIMPOST
  1

  9
$DIMRND
 40
0.0
  9
$DIMSCALE
 40
1.0
  9
$DIMTAD
 70
0
  9
$DIMTDEC
 70
4
  9
$DIMTFAC
 40
1.0
  9
$DIMTM
 40
0.0
  9
$DIMTOLJ
 70
1
  9
$DIMTP
 40
0.0
  9
$DIMTSZ
 40
0.0
  9
$DIMTVP
 40
0.0
  9
$DIMTXT
 40
2.5
  9
$DIMTZIN
 70
0
  9
$DIMZIN
 70
8
  9
$DWGCODEPAGE
  3
ANSI_1252
  9
$ELEVATION
 40
0.0
  9
$EXTMAX
 10
-100000000000000000000.0
 20
-100000000000000000000.0
 30
-100000000000000000000.0
  9
$EXTMIN
 10
100000000000000000000.0
 20
100000000000000000000.0
 30
100000000000000000000.0
  9
$FILLETRAD
 40
0.5
  9
$INSBASE
 10
0.0
 20
0.0
 30
0.0
  9
$INSUNITS
 70
4
  9
$LIMMAX
 10
12.0
 20
9.0
  9
$LIMMIN
 10
0.0
 20
0.0
  9
$LTSCALE
 40
1.0
  9
$LUNITS
 70
2
  9
$LUPREC
 70
4
  9
$MAXACTVP
 70
2
  9
$MEASUREMENT
 70
1
  9
$PDMODE
 70
0
  9
$PDSIZE
 40
0
  9
$PELEVATION
 40
0.0
  9
$PEXTMAX
 10
-100000000000000000000.0
 20
-100000000000000000000.0
 30
-100000000000000000000.0
  9
$PEXTMIN
 10
100000000000000000000.0
 20
100000000000000000000.0
 30
100000000000000000000.0
  9
$PINSBASE
 10
0.0
 20
0.0
 30
0.0
  9
$PLIMMAX
 10
12.0
 20
9.0
  9
$PLIMMIN
 10
0.0
 20
0.0
  9
$PLINEWID
 40
0.0
  9
$PROXYGRAPHICS
 70
1
  9
$PUCSORG
 10
0.0
 20
0.0
 30
0.0
  9
$PUCSXDIR
 10
1.0
 20
0.0
 30
0.0
  9
$PUCSYDIR
 10
0.0
 20
1.0
 30
0.0
  9
$SHADEDGE
 70
3
  9
$SHADEDIF
 70
70
  9
$SKETCHINC
 40
0.1
  9
$SPLINESEGS
 70
8
  9
$SPLINETYPE
 70
6
  9
$SURFTAB1
 70
6
  9
$SURFTAB2
 70
6
  9
$SURFTYPE
 70
6
  9
$SURFU
 70
6
  9
$SURFV
 70
6
  9
$TEXTSIZE
 40
2.5
  9
$THICKNESS
 40
0.0
  9
$TRACEWID
 40
0.05
  9
$TREEDEPTH
 70
3020
  9
$UCSORG
 10
0.0
 20
0.0
 30
0.0
  9
$UCSXDIR
 10
1.0
 20
0.0
 30
0.0
  9
$UCSYDIR
 10
0.0
 20
1.0
 30
0.0
  9
$UNITMODE
 70
0
  9
$USERI1
 70
0
  9
$USERI2
 70
0
  9
$USERI3
 70
0
  9
$USERI4
 70
0
  9
$USERI5
 70
0
  9
$USERR1
 40
0.0
  9
$USERR2
 40
0.0
  9
$USERR3
 40
0.0
  9
$USERR4
 40
0.0
  9
$USERR5
 40
0.0
  0
ENDSEC
  0
SECTION
  2
TABLES
  0
TABLE
  2
VPORT
  5
8
100
AcDbSymbolTable
 70
1
  0
VPORT
  5
30
100
AcDbSymbolTableRecord
100
AcDbViewportTableRecord
  2
*Active
 70
0
 10
0.0
 20
0.0
 11
1.0
 21
1.0
 12
286.30555555555549
 22
148.5
 13
0.0
 23
0.0
 14
10.0
 24
10.0
 15
10.0
 25
10.0
 16
0.0
 26
0.0
 36
1.0
 17
0.0
 27
0.0
 37
0.0
 40
297.0
 41
1.92798353909465
 42
50.0
 43
0.0
 44
0.0
 50
0.0
 51
0.0
 71
0
 72
100
 73
1
 74
3
 75
1
 76
1
 77
0
 78
0
281
0
 65
1
110
0.0
120
0.0
130
0.0
111
1.0
121
0.0
131
0.0
112
0.0
122
1.0
132
0.0
 79
0
146
0.0
  0
ENDTAB
  0
TABLE
  2
LTYPE
  5
5
100
AcDbSymbolTable
 70
50
  0
LTYPE
  5
16
100
AcDbSymbolTableRecord
100
AcDbLinetypeTableRecord
  2
Continuous
 70
0
  3
Solid line
 72
65
 73
0
 40
0.0
  0
LTYPE
  5
31
100
AcDbSymbolTableRecord
100
AcDbLinetypeTableRecord
  2
DRAINAGE
 70
0
  3
Drainage ---->---->---->----
 72
65
 73
2
 40
10.16
 49
5.0800000000000001
 74
0
 49
5.0800000000000001
 74
0
  0
LTYPE
  5
32
100
AcDbSymbolTableRecord
100
AcDbLinetypeTableRecord
  2
ACAD_ISO15W100
 70
0
  3
ISO double-dash triple-dot __ __ . . . __ __ . .
 72
65
 73
10
 40
39.000000000000007
 49
12.0
 74
0
 49
-3.0
 74
0
 49
12.0
 74
0
 49
-2.9500000000000002
 74
0
 49
0.1
 74
0
 49
-2.9000000000000004
 74
0
 49
0.1
 74
0
 49
-2.9000000000000004
 74
0
 49
0.1
 74
0
 49
-2.9500000000000002
 74
0
  0
LTYPE
  5
33
100
AcDbSymbolTableRecord
100
AcDbLinetypeTableRecord
  2
ACAD_ISO10W100
 70
0
  3
ISO dash dot __ . __ . __ . __ . __ . __ . __ . 
 72
65
 73
4
 40
18.0
 49
12.0
 74
0
 49
-2.9500000000000002
 74
0
 49
0.1
 74
0
 49
-2.9500000000000002
 74
0
  0
LTYPE
  5
34
100
AcDbSymbolTableRecord
100
AcDbLinetypeTableRecord
  2
BORDERX2
 70
0
  3
Border (2x) ____  ____  .  ____  ____  .  ___
 72
65
 73
6
 40
88.899999999999977
 49
25.399999999999999
 74
0
 49
-12.699999999999999
 74
0
 49
25.399999999999999
 74
0
 49
-12.649999999999999
 74
0
 49
0.1
 74
0
 49
-12.649999999999999
 74
0
  0
LTYPE
  5
35
100
AcDbSymbolTableRecord
100
AcDbLinetypeTableRecord
  2
DIVIDE2
 70
0
  3
Divide (.5x) __..__..__..__..__..__..__..__.._
 72
65
 73
6
 40
15.874999999999998
 49
6.3499999999999996
 74
0
 49
-3.125
 74
0
 49
0.1
 74
0
 49
-3.0750000000000002
 74
0
 49
0.1
 74
0
 49
-3.125
 74
0
  0
LTYPE
  5
36
100
AcDbSymbolTableRecord
100
AcDbLinetypeTableRecord
  2
ACAD_ISO06W100
 70
0
  3
ISO long-dash triple-dot ____ ... ____ ... ____
 72
65
 73
8
 40
36.000000000000007
 49
24.0
 74
0
 49
-2.9500000000000002
 74
0
 49
0.1
 74
0
 49
-2.9000000000000004
 74
0
 49
0.1
 74
0
 49
-2.9000000000000004
 74
0
 49
0.1
 74
0
 49
-2.9500000000000002
 74
0
  0
LTYPE
  5
37
100
AcDbSymbolTableRecord
100
AcDbLinetypeTableRecord
  2
DASHDOT
 70
0
  3
Dash dot __ . __ . __ . __ . __ . __ . __ . __
 72
65
 73
4
 40
25.400000000000002
 49
12.699999999999999
 74
0
 49
-6.2999999999999998
 74
0
 49
0.1
 74
0
 49
-6.2999999999999998
 74
0
  0
LTYPE
  5
38
100
AcDbSymbolTableRecord
100
AcDbLinetypeTableRecord
  2
FENCELINE1
 70
0
  3
Fenceline circle ----0-----0----0-----0----0-----0--
 72
65
 73
4
 40
36.829999999999998
 49
6.3499999999999996
 74
0
 49
-2.54
 74
0
 49
-2.54
 74
0
 49
25.399999999999999
 74
0
  0
LTYPE
  5
39
100
AcDbSymbolTableRecord
100
AcDbLinetypeTableRecord
  2
ACAD_ISO07W100
 70
0
  3
ISO dot . . . . . . . . . . . . . . . . . . . . 
 72
65
 73
2
 40
3.0
 49
0.1
 74
0
 49
-2.8999999999999999
 74
0
  0
LTYPE
  5
3A
100
AcDbSymbolTableRecord
100
AcDbLinetypeTableRecord
  2
ACAD_ISO03W100
 70
0
  3
ISO dash space __    __    __    __    __    __
 72
65
 73
2
 40
30.0
 49
12.0
 74
0
 49
-18.0
 74
0
  0
LTYPE
  5
3B
100
AcDbSymbolTableRecord
100
AcDbLinetypeTableRecord
  2
ACAD_ISO14W100
 70
0
  3
ISO dash triple-dot __ . . . __ . . . __ . . . _
 72
65
 73
8
 40
24.000000000000004
 49
12.0
 74
0
 49
-2.9500000000000002
 74
0
 49
0.1
 74
0
 49
-2.9000000000000004
 74
0
 49
0.1
 74
0
 49
-2.9000000000000004
 74
0
 49
0.1
 74
0
 49
-2.9500000000000002
 74
0
  0
LTYPE
  5
3C
100
AcDbSymbolTableRecord
100
AcDbLinetypeTableRecord
  2
DIVIDE
 70
0
  3
Divide ____ . . ____ . . ____ . . ____ . . ____
 72
65
 73
6
 40
31.750000000000004
 49
12.699999999999999
 74
0
 49
-6.2999999999999998
 74
0
 49
0.1
 74
0
 49
-6.25
 74
0
 49
0.1
 74
0
 49
-6.2999999999999998
 74
0
  0
LTYPE
  5
3D
100
AcDbSymbolTableRecord
100
AcDbLinetypeTableRecord
  2
DOTX2
 70
0
  3
Dot (2x) .  .  .  .  .  .  .  .  .  .  .  .  .  .
 72
65
 73
2
 40
12.699999999999999
 49
0.1
 74
0
 49
-12.6
 74
0
  0
LTYPE
  5
3E
100
AcDbSymbolTableRecord
100
AcDbLinetypeTableRecord
  2
TRACKS
 70
0
  3
Tracks -|-|-|-|-|-|-|-|-|-|-|-|-|-|-|-|-|-|-|-|-|-|-|-|-
 72
65
 73
2
 40
7.6200000000000001
 49
3.8100000000000001
 74
0
 49
3.8100000000000001
 74
0
  0
LTYPE
  5
3F
100
AcDbSymbolTableRecord
100
AcDbLinetypeTableRecord
  2
DASHED2
 70
0
  3
Dashed (.5x) _ _ _ _ _ _ _ _ _ _ _ _ _ _ _ _ _ 
 72
65
 73
2
 40
9.5249999999999986
 49
6.3499999999999996
 74
0
 49
-3.1749999999999998
 74
0
  0
LTYPE
  5
40
100
AcDbSymbolTableRecord
100
AcDbLinetypeTableRecord
  2
ACAD_ISO11W100
 70
0
  3
ISO double-dash dot __ __ . __ __ . __ __ . __ _
 72
65
 73
6
 40
33.0
 49
12.0
 74
0
 49
-3.0
 74
0
 49
12.0
 74
0
 49
-2.9500000000000002
 74
0
 49
0.1
 74
0
 49
-2.9500000000000002
 74
0
  0
LTYPE
  5
41
100
AcDbSymbolTableRecord
100
AcDbLinetypeTableRecord
  2
DASHDOTX2
 70
0
  3
Dash dot (2x) ____  .  ____  .  ____  .  ___
 72
65
 73
4
 40
50.799999999999997
 49
25.399999999999999
 74
0
 49
-12.649999999999999
 74
0
 49
0.1
 74
0
 49
-12.649999999999999
 74
0
  0
LTYPE
  5
42
100
AcDbSymbolTableRecord
100
AcDbLinetypeTableRecord
  2
CENTER2
 70
0
  3
Center (.5x) ___ _ ___ _ ___ _ ___ _ ___ _ ___
 72
65
 73
4
 40
28.575000000000003
 49
19.050000000000001
 74
0
 49
-3.1749999999999998
 74
0
 49
3.1749999999999998
 74
0
 49
-3.1749999999999998
 74
0
  0
LTYPE
  5
43
100
AcDbSymbolTableRecord
100
AcDbLinetypeTableRecord
  2
PHANTOM2
 70
0
  3
Phantom (.5x) ___ _ _ ___ _ _ ___ _ _ ___ _ _
 72
65
 73
6
 40
31.750000000000004
 49
15.875
 74
0
 49
-3.1749999999999998
 74
0
 49
3.1749999999999998
 74
0
 49
-3.1749999999999998
 74
0
 49
3.1749999999999998
 74
0
 49
-3.1749999999999998
 74
0
  0
LTYPE
  5
44
100
AcDbSymbolTableRecord
100
AcDbLinetypeTableRecord
  2
GAS_LINE
 70
0
  3
Gas line ----GAS----GAS----GAS----GAS----GAS----GAS--
 72
65
 73
3
 40
24.130000000000003
 49
12.699999999999999
 74
0
 49
-5.0800000000000001
 74
0
 49
-6.3499999999999996
 74
0
  0
LTYPE
  5
45
100
AcDbSymbolTableRecord
100
AcDbLinetypeTableRecord
  2
HIDDEN
 70
0
  3
Hidden __ __ __ __ __ __ __ __ __ __ __ __ __ __
 72
65
 73
2
 40
9.5249999999999986
 49
6.3499999999999996
 74
0
 49
-3.1749999999999998
 74
0
  0
LTYPE
  5
46
100
AcDbSymbolTableRecord
100
AcDbLinetypeTableRecord
  2
HOT_WATER_SUPPLY
 70
0
  3
Hot water supply ---- HW ---- HW ---- HW ----
 72
65
 73
3
 40
22.859999999999999
 49
12.699999999999999
 74
0
 49
-5.0800000000000001
 74
0
 49
-5.0800000000000001
 74
0
  0
LTYPE
  5
47
100
AcDbSymbolTableRecord
100
AcDbLinetypeTableRecord
  2
PHANTOM
 70
0
  3
Phantom ______  __  __  ______  __  __  ______ 
 72
65
 73
6
 40
63.500000000000007
 49
31.75
 74
0
 49
-6.3499999999999996
 74
0
 49
6.3499999999999996
 74
0
 49
-6.3499999999999996
 74
0
 49
6.3499999999999996
 74
0
 49
-6.3499999999999996
 74
0
  0
LTYPE
  5
15
100
AcDbSymbolTableRecord
100
AcDbLinetypeTableRecord
  2
ByLayer
 70
0
  3

 72
65
 73
0
 40
0.0
  0
LTYPE
  5
48
100
AcDbSymbolTableRecord
100
AcDbLinetypeTableRecord
  2
DRAINAGE2
 70
0
  3
Drainage reversed----<----<----<----
 72
65
 73
2
 40
10.16
 49
5.0800000000000001
 74
0
 49
5.0800000000000001
 74
0
  0
LTYPE
  5
49
100
AcDbSymbolTableRecord
100
AcDbLinetypeTableRecord
  2
DASHEDX2
 70
0
  3
Dashed (2x) ____  ____  ____  ____  ____  ___
 72
65
 73
2
 40
38.099999999999994
 49
25.399999999999999
 74
0
 49
-12.699999999999999
 74
0
  0
LTYPE
  5
4A
100
AcDbSymbolTableRecord
100
AcDbLinetypeTableRecord
  2
HIDDEN2
 70
0
  3
Hidden (.5x) _ _ _ _ _ _ _ _ _ _ _ _ _ _ _ _ _ 
 72
65
 73
2
 40
4.7624999999999993
 49
3.1749999999999998
 74
0
 49
-1.5874999999999999
 74
0
  0
LTYPE
  5
4B
100
AcDbSymbolTableRecord
100
AcDbLinetypeTableRecord
  2
BATTING
 70
0
  3
Batting SSSSSSSSSSSSSSSSSSSSSSSSSSSSSSSSSSSSSSSSSSSSSSS
 72
65
 73
4
 40
10.16254
 49
0.00254
 74
0
 49
-2.54
 74
0
 49
-5.0800000000000001
 74
0
 49
-2.54
 74
0
  0
LTYPE
  5
4C
100
AcDbSymbolTableRecord
100
AcDbLinetypeTableRecord
  2
DIVIDEX2
 70
0
  3
Divide (2x) ________  .  .  ________  .  .  _
 72
65
 73
6
 40
63.5
 49
25.399999999999999
 74
0
 49
-12.649999999999999
 74
0
 49
0.1
 74
0
 49
-12.599999999999998
 74
0
 49
0.1
 74
0
 49
-12.649999999999999
 74
0
  0
LTYPE
  5
4D
100
AcDbSymbolTableRecord
100
AcDbLinetypeTableRecord
  2
ACAD_ISO13W100
 70
0
  3
ISO double-dash double-dot __ __ . . __ __ . . _
 72
65
 73
8
 40
36.000000000000007
 49
12.0
 74
0
 49
-3.0
 74
0
 49
12.0
 74
0
 49
-2.9500000000000002
 74
0
 49
0.1
 74
0
 49
-2.9000000000000004
 74
0
 49
0.1
 74
0
 49
-2.9500000000000002
 74
0
  0
LTYPE
  5
4E
100
AcDbSymbolTableRecord
100
AcDbLinetypeTableRecord
  2
FENCELINE2
 70
0
  3
Fenceline square ----[]-----[]----[]-----[]----[]---
 72
65
 73
4
 40
36.829999999999998
 49
6.3499999999999996
 74
0
 49
-2.54
 74
0
 49
-2.54
 74
0
 49
25.399999999999999
 74
0
  0
LTYPE
  5
4F
100
AcDbSymbolTableRecord
100
AcDbLinetypeTableRecord
  2
ACAD_ISO02W100
 70
0
  3
ISO dash __ __ __ __ __ __ __ __ __ __ __ __ __
 72
65
 73
2
 40
15.0
 49
12.0
 74
0
 49
-3.0
 74
0
  0
LTYPE
  5
14
100
AcDbSymbolTableRecord
100
AcDbLinetypeTableRecord
  2
BYBLOCK
 70
0
  3

 72
65
 73
0
 40
0.0
  0
LTYPE
  5
50
100
AcDbSymbolTableRecord
100
AcDbLinetypeTableRecord
  2
ACAD_ISO04W100
 70
0
  3
ISO long-dash dot ____ . ____ . ____ . ____ . _
 72
65
 73
4
 40
30.0
 49
24.0
 74
0
 49
-2.9500000000000002
 74
0
 49
0.1
 74
0
 49
-2.9500000000000002
 74
0
  0
LTYPE
  5
51
100
AcDbSymbolTableRecord
100
AcDbLinetypeTableRecord
  2
DOT
 70
0
  3
Dot . . . . . . . . . . . . . . . . . . . . . . . .
 72
65
 73
2
 40
6.3499999999999996
 49
0.1
 74
0
 49
-6.25
 74
0
  0
LTYPE
  5
52
100
AcDbSymbolTableRecord
100
AcDbLinetypeTableRecord
  2
ACAD_ISO12W100
 70
0
  3
ISO dash double-dot __ . . __ . . __ . . __ . . 
 72
65
 73
6
 40
21.0
 49
12.0
 74
0
 49
-2.9500000000000002
 74
0
 49
0.1
 74
0
 49
-2.9000000000000004
 74
0
 49
0.1
 74
0
 49
-2.9500000000000002
 74
0
  0
LTYPE
  5
53
100
AcDbSymbolTableRecord
100
AcDbLinetypeTableRecord
  2
DOT2
 70
0
  3
Dot (.5x) ........................................
 72
65
 73
2
 40
3.1749999999999998
 49
0.1
 74
0
 49
-3.0749999999999997
 74
0
  0
LTYPE
  5
54
100
AcDbSymbolTableRecord
100
AcDbLinetypeTableRecord
  2
ZIGZAG
 70
0
  3
Zig zag /\/\/\/\/\/\/\/\/\/\/\/\/\/\/\/\/\/\/\/\/\/\/\/
 72
65
 73
4
 40
20.32254
 49
0.00254
 74
0
 49
-5.0800000000000001
 74
0
 49
-10.16
 74
0
 49
-5.0800000000000001
 74
0
  0
LTYPE
  5
55
100
AcDbSymbolTableRecord
100
AcDbLinetypeTableRecord
  2
CENTERX2
 70
0
  3
Center (2x) ________  __  ________  __  _____
 72
65
 73
4
 40
101.60000000000001
 49
63.5
 74
0
 49
-12.699999999999999
 74
0
 49
12.699999999999999
 74
0
 49
-12.699999999999999
 74
0
  0
LTYPE
  5
56
100
AcDbSymbolTableRecord
100
AcDbLinetypeTableRecord
  2
PHANTOMX2
 70
0
  3
Phantom (2x) ____________    ____    ____   _
 72
65
 73
6
 40
127.00000000000001
 49
63.5
 74
0
 49
-12.699999999999999
 74
0
 49
12.699999999999999
 74
0
 49
-12.699999999999999
 74
0
 49
12.699999999999999
 74
0
 49
-12.699999999999999
 74
0
  0
LTYPE
  5
57
100
AcDbSymbolTableRecord
100
AcDbLinetypeTableRecord
  2
BORDER2
 70
0
  3
Border (.5x) __.__.__.__.__.__.__.__.__.__.__.
 72
65
 73
6
 40
22.225000000000001
 49
6.3499999999999996
 74
0
 49
-3.1749999999999998
 74
0
 49
6.3499999999999996
 74
0
 49
-3.125
 74
0
 49
0.1
 74
0
 49
-3.125
 74
0
  0
LTYPE
  5
58
100
AcDbSymbolTableRecord
100
AcDbLinetypeTableRecord
  2
CENTER
 70
0
  3
Center ____ _ ____ _ ____ _ ____ _ ____ _ ____
 72
65
 73
4
 40
50.800000000000004
 49
31.75
 74
0
 49
-6.3499999999999996
 74
0
 49
6.3499999999999996
 74
0
 49
-6.3499999999999996
 74
0
  0
LTYPE
  5
59
100
AcDbSymbolTableRecord
100
AcDbLinetypeTableRecord
  2
ACAD_ISO08W100
 70
0
  3
ISO long-dash short-dash ____ __ ____ __ ____ _
 72
65
 73
4
 40
36.0
 49
24.0
 74
0
 49
-3.0
 74
0
 49
6.0
 74
0
 49
-3.0
 74
0
  0
LTYPE
  5
5A
100
AcDbSymbolTableRecord
100
AcDbLinetypeTableRecord
  2
BORDER
 70
0
  3
Border __ __ . __ __ . __ __ . __ __ . __ __ .
 72
65
 73
6
 40
44.449999999999996
 49
12.699999999999999
 74
0
 49
-6.3499999999999996
 74
0
 49
12.699999999999999
 74
0
 49
-6.2999999999999998
 74
0
 49
0.1
 74
0
 49
-6.2999999999999998
 74
0
  0
LTYPE
  5
5B
100
AcDbSymbolTableRecord
100
AcDbLinetypeTableRecord
  2
ACAD_ISO09W100
 70
0
  3
ISO long-dash double-short-dash ____ __ __ ____
 72
65
 73
6
 40
45.0
 49
24.0
 74
0
 49
-3.0
 74
0
 49
6.0
 74
0
 49
-3.0
 74
0
 49
6.0
 74
0
 49
-3.0
 74
0
  0
LTYPE
  5
5C
100
AcDbSymbolTableRecord
100
AcDbLinetypeTableRecord
  2
DASHDOT2
 70
0
  3
Dash dot (.5x) _._._._._._._._._._._._._._._.
 72
65
 73
4
 40
12.699999999999999
 49
6.3499999999999996
 74
0
 49
-3.125
 74
0
 49
0.1
 74
0
 49
-3.125
 74
0
  0
LTYPE
  5
5D
100
AcDbSymbolTableRecord
100
AcDbLinetypeTableRecord
  2
DASHED
 70
0
  3
Dashed __ __ __ __ __ __ __ __ __ __ __ __ __ _
 72
65
 73
2
 40
19.049999999999997
 49
12.699999999999999
 74
0
 49
-6.3499999999999996
 74
0
  0
LTYPE
  5
5E
100
AcDbSymbolTableRecord
100
AcDbLinetypeTableRecord
  2
HIDDENX2
 70
0
  3
Hidden (2x) ____ ____ ____ ____ ____ ____ ____ 
 72
65
 73
2
 40
19.049999999999997
 49
12.699999999999999
 74
0
 49
-6.3499999999999996
 74
0
  0
LTYPE
  5
5F
100
AcDbSymbolTableRecord
100
AcDbLinetypeTableRecord
  2
ACAD_ISO05W100
 70
0
  3
ISO long-dash double-dot ____ .. ____ .. ____ . 
 72
65
 73
6
 40
33.000000000000007
 49
24.0
 74
0
 49
-2.9500000000000002
 74
0
 49
0.1
 74
0
 49
-2.9000000000000004
 74
0
 49
0.1
 74
0
 49
-2.9500000000000002
 74
0
  0
ENDTAB
  0
TABLE
  2
LAYER
  5
2
100
AcDbSymbolTable
 70
1
  0
LAYER
  5
10
100
AcDbSymbolTableRecord
100
AcDbLayerTableRecord
  2
0
 70
0
 62
7
420
16777215
  6
Continuous
370
25
390
F
  0
ENDTAB
  0
TABLE
  2
STYLE
  5
3
100
AcDbSymbolTable
 70
1
  0
STYLE
  5
60
100
AcDbSymbolTableRecord
100
AcDbTextStyleTableRecord
  2
Standard
 70
0
 40
0.0
 41
1.0
 50
0.0
 71
0
 42
2.5
  3

  4

1001
ACAD
1000
txt
1071
0
  0
ENDTAB
  0
TABLE
  2
VIEW
  5
6
100
AcDbSymbolTable
 70
0
  0
ENDTAB
  0
TABLE
  2
UCS
  5
7
100
AcDbSymbolTable
 70
0
  0
ENDTAB
  0
TABLE
  2
APPID
  5
9
100
AcDbSymbolTable
 70
1
  0
APPID
  5
12
100
AcDbSymbolTableRecord
100
AcDbRegAppTableRecord
  2
ACAD
 70
0
  0
APPID
  5
61
100
AcDbSymbolTableRecord
100
AcDbRegAppTableRecord
  2
QCAD
 70
0
  0
ENDTAB
  0
TABLE
  2
DIMSTYLE
  5
A
100
AcDbSymbolTable
 70
1
100
AcDbDimStyleTable
 71
0
  0
DIMSTYLE
105
27
100
AcDbSymbolTableRecord
100
AcDbDimStyleTableRecord
  2
Standard
 41
2.5
 42
0.625
 43
3.75
 44
1.25
 70
0
 73
0
 74
0
 77
1
 78
8
140
2.5
141
2.5
143
0.03937007874016
147
0.625
171
3
172
1
271
2
272
2
274
3
278
44
283
0
284
8
340
60
  0
ENDTAB
  0
TABLE
  2
BLOCK_RECORD
  5
1
100
AcDbSymbolTable
 70
1
  0
BLOCK_RECORD
  5
1F
100
AcDbSymbolTableRecord
100
AcDbBlockTableRecord
  2
*Model_Space
340
22
  0
BLOCK_RECORD
  5
1B
100
AcDbSymbolTableRecord
100
AcDbBlockTableRecord
  2
*Paper_Space
340
1E
  0
BLOCK_RECORD
  5
23
100
AcDbSymbolTableRecord
100
AcDbBlockTableRecord
  2
*Paper_Space0
340
26
  0
ENDTAB
  0
ENDSEC
  0
SECTION
  2
BLOCKS
  0
BLOCK
  5
20
100
AcDbEntity
  8
0
100
AcDbBlockBegin
  2
*Model_Space
 70
0
 10
0.0
 20
0.0
 30
0.0
  3
*Model_Space
  1

  0
ENDBLK
  5
21
100
AcDbEntity
  8
0
100
AcDbBlockEnd
  0
BLOCK
  5
1C
100
AcDbEntity
 67
1
  8
0
100
AcDbBlockBegin
  2
*Paper_Space
 70
0
 10
0.0
 20
0.0
 30
0.0
  3
*Paper_Space
  1

  0
ENDBLK
  5
1D
100
AcDbEntity
 67
1
  8
0
100
AcDbBlockEnd
  0
BLOCK
  5
24
100
AcDbEntity
  8
0
100
AcDbBlockBegin
  2
*Paper_Space0
 70
0
 10
0.0
 20
0.0
 30
0.0
  3
*Paper_Space0
  1

  0
ENDBLK
  5
25
100
AcDbEntity
  8
0
100
AcDbBlockEnd
  0
ENDSEC
  0
SECTION
  2
ENTITIES
  0
LINE
  5
62
100
AcDbEntity
100
AcDbLine
  8
0
 62
256
370
-1
 48
1.0
  6
ByLayer
 10
183.43999999999997
 20
191.99999999999932
 30
0.0
 11
183.43999999999986
 21
164.84999999999934
 31
0.0
  0
LINE
  5
63
100
AcDbEntity
100
AcDbLine
  8
0
 62
256
370
-1
 48
1.0
  6
ByLayer
 10
183.43999999999986
 20
164.84999999999934
 30
0.0
 11
180.28999999999982
 21
164.8499999999994
 31
0.0
  0
LINE
  5
64
100
AcDbEntity
100
AcDbLine
  8
0
 62
256
370
-1
 48
1.0
  6
ByLayer
 10
180.28999999999982
 20
164.8499999999994
 30
0.0
 11
180.28999999999976
 21
128.6499999999993
 31
0.0
  0
LINE
  5
65
100
AcDbEntity
100
AcDbLine
  8
0
 62
256
370
-1
 48
1.0
  6
ByLayer
 10
180.28999999999976
 20
128.6499999999993
 30
0.0
 11
183.43999999999983
 21
128.64999999999941
 31
0.0
  0
LINE
  5
66
100
AcDbEntity
100
AcDbLine
  8
0
 62
256
370
-1
 48
1.0
  6
ByLayer
 10
183.43999999999983
 20
128.64999999999941
 30
0.0
 11
183.43999999999974
 21
10.999999999999318
 31
0.0
  0
LINE
  5
67
100
AcDbEntity
100
AcDbLine
  8
0
 62
256
370
-1
 48
1.0
  6
ByLayer
 10
-192.0
 20
10.999999999999659
 30
0.0
 11
-191.99999999999997
 21
128.64999999999975
 31
0.0
  0
LINE
  5
68
100
AcDbEntity
100
AcDbLine
  8
0
 62
256
370
-1
 48
1.0
  6
ByLayer
 10
-191.99999999999997
 20
128.64999999999975
 30
0.0
 11
-188.85000000000008
 21
128.64999999999975
 31
0.0
  0
LINE
  5
69
100
AcDbEntity
100
AcDbLine
  8
0
 62
256
370
-1
 48
1.0
  6
ByLayer
 10
-188.85000000000008
 20
128.64999999999975
 30
0.0
 11
-188.84999999999999
 21
164.84999999999974
 31
0.0
  0
LINE
  5
6A
100
AcDbEntity
100
AcDbLine
  8
0
 62
256
370
-1
 48
1.0
  6
ByLayer
 10
-188.84999999999999
 20
164.84999999999974
 30
0.0
 11
-191.99999999999997
 21
164.84999999999974
 31
0.0
  0
LINE
  5
6B
100
AcDbEntity
100
AcDbLine
  8
0
 62
256
370
-1
 48
1.0
  6
ByLayer
 10
-191.99999999999997
 20
164.84999999999974
 30
0.0
 11
-191.99999999999997
 21
191.99999999999974
 31
0.0
  0
LINE
  5
6C
100
AcDbEntity
100
AcDbLine
  8
0
 62
256
370
-1
 48
1.0
  6
ByLayer
 10
-191.99999999999997
 20
191.99999999999974
 30
0.0
 11
41.105000000000018
 21
191.9999999999998
 31
0.0
  0
ARC
  5
6D
100
AcDbEntity
  8
0
 62
256
370
-1
 48
1.0
  6
ByLayer
100
AcDbCircle
 10
128.23500000000007
 20
82.219999999999786
 30
0.0
 40
3.9999999999999711
100
AcDbArc
 50
202.02431283704232
 51
337.97568716295763
  0
LINE
  5
6E
100
AcDbEntity
100
AcDbLine
  8
0
 62
256
370
-1
 48
1.0
  6
ByLayer
 10
124.52690075645226
 20
80.719999999999786
 30
0.0
 11
122.23500000000007
 21
80.719999999999786
 31
0.0
  0
LINE
  5
6F
100
AcDbEntity
100
AcDbLine
  8
0
 62
256
370
-1
 48
1.0
  6
ByLayer
 10
122.23500000000007
 20
80.719999999999786
 30
0.0
 11
122.23500000000007
 21
83.719999999999786
 31
0.0
  0
LINE
  5
70
100
AcDbEntity
100
AcDbLine
  8
0
 62
256
370
-1
 48
1.0
  6
ByLayer
 10
122.23500000000007
 20
83.719999999999786
 30
0.0
 11
124.52690075645226
 21
83.719999999999786
 31
0.0
  0
LINE
  5
71
100
AcDbEntity
100
AcDbLine
  8
0
 62
256
370
-1
 48
1.0
  6
ByLayer
 10
-176.99999999999997
 20
-24.00000000000033
 30
0.0
 11
-166.99999999999997
 21
-24.00000000000033
 31
0.0
  0
ARC
  5
72
100
AcDbEntity
  8
0
 62
256
370
-1
 48
1.0
  6
ByLayer
100
AcDbCircle
 10
-166.99999999999997
 20
-14.00000000000033
 30
0.0
 40
10.0
100
AcDbArc
 50
270.0
 51
0.0
  0
LINE
  5
73
100
AcDbEntity
100
AcDbLine
  8
0
 62
256
370
-1
 48
1.0
  6
ByLayer
 10
-156.99999999999997
 20
-14.00000000000033
 30
0.0
 11
-156.99999999999997
 21
-4.0000000000003304
 31
0.0
  0
LINE
  5
74
100
AcDbEntity
100
AcDbLine
  8
0
 62
256
370
-1
 48
1.0
  6
ByLayer
 10
-14.150000000000148
 20
-52.350000000000541
 30
0.0
 11
-11.000000000000085
 21
-52.350000000000435
 31
0.0
  0
LINE
  5
75
100
AcDbEntity
100
AcDbLine
  8
0
 62
256
370
-1
 48
1.0
  6
ByLayer
 10
-11.000000000000085
 20
-52.350000000000435
 30
0.0
 11
-11.000000000000171
 21
-170.00000000000051
 31
0.0
  0
LINE
  5
76
100
AcDbEntity
100
AcDbLine
  8
0
 62
256
370
-1
 48
1.0
  6
ByLayer
 10
-11.000000000000171
 20
-170.00000000000051
 30
0.0
 11
-192.0
 21
-170.0000000000004
 31
0.0
  0
LINE
  5
77
100
AcDbEntity
100
AcDbLine
  8
0
 62
256
370
-1
 48
1.0
  6
ByLayer
 10
-192.0
 20
-170.0000000000004
 30
0.0
 11
-191.99999999999997
 21
-52.350000000000321
 31
0.0
  0
LINE
  5
78
100
AcDbEntity
100
AcDbLine
  8
0
 62
256
370
-1
 48
1.0
  6
ByLayer
 10
-191.99999999999997
 20
-52.350000000000321
 30
0.0
 11
-188.85000000000008
 21
-52.350000000000321
 31
0.0
  0
LINE
  5
79
100
AcDbEntity
100
AcDbLine
  8
0
 62
256
370
-1
 48
1.0
  6
ByLayer
 10
-188.85000000000008
 20
-52.350000000000321
 30
0.0
 11
-188.84999999999999
 21
-16.150000000000322
 31
0.0
  0
LINE
  5
7A
100
AcDbEntity
100
AcDbLine
  8
0
 62
256
370
-1
 48
1.0
  6
ByLayer
 10
-188.84999999999999
 20
-16.150000000000322
 30
0.0
 11
-191.99999999999997
 21
-16.150000000000318
 31
0.0
  0
LINE
  5
7B
100
AcDbEntity
100
AcDbLine
  8
0
 62
256
370
-1
 48
1.0
  6
ByLayer
 10
-191.99999999999997
 20
-16.150000000000318
 30
0.0
 11
-191.99999999999997
 21
10.999999999999687
 31
0.0
  0
LINE
  5
7C
100
AcDbEntity
100
AcDbLine
  8
0
 62
256
370
-1
 48
1.0
  6
ByLayer
 10
-191.99999999999997
 20
10.999999999999687
 30
0.0
 11
183.43999999999974
 21
10.999999999999318
 31
0.0
  0
LINE
  5
7D
100
AcDbEntity
100
AcDbLine
  8
0
 62
256
370
-1
 48
1.0
  6
ByLayer
 10
-10.999999999999943
 20
10.999999999999483
 30
0.0
 11
-11.000000000000057
 21
-16.150000000000485
 31
0.0
  0
LINE
  5
7E
100
AcDbEntity
100
AcDbLine
  8
0
 62
256
370
-1
 48
1.0
  6
ByLayer
 10
-11.000000000000057
 20
-16.150000000000485
 30
0.0
 11
-14.150000000000091
 21
-16.150000000000432
 31
0.0
  0
LINE
  5
7F
100
AcDbEntity
100
AcDbLine
  8
0
 62
256
370
-1
 48
1.0
  6
ByLayer
 10
-14.150000000000091
 20
-16.150000000000432
 30
0.0
 11
-14.150000000000148
 21
-52.350000000000541
 31
0.0
  0
LINE
  5
80
100
AcDbEntity
100
AcDbLine
  8
0
 62
256
370
-1
 48
1.0
  6
ByLayer
 10
166.84999999999965
 20
-52.35000000000074
 30
0.0
 11
169.99999999999972
 21
-52.350000000000634
 31
0.0
  0
LINE
  5
81
100
AcDbEntity
100
AcDbLine
  8
0
 62
256
370
-1
 48
1.0
  6
ByLayer
 10
169.99999999999972
 20
-52.350000000000634
 30
0.0
 11
169.99999999999963
 21
-170.00000000000071
 31
0.0
  0
LINE
  5
82
100
AcDbEntity
100
AcDbLine
  8
0
 62
256
370
-1
 48
1.0
  6
ByLayer
 10
169.99999999999963
 20
-170.00000000000071
 30
0.0
 11
-11.000000000000204
 21
-170.0000000000006
 31
0.0
  0
LINE
  5
83
100
AcDbEntity
100
AcDbLine
  8
0
 62
256
370
-1
 48
1.0
  6
ByLayer
 10
-11.000000000000183
 20
-52.35000000000052
 30
0.0
 11
-7.8500000000002785
 21
-52.35000000000052
 31
0.0
  0
LINE
  5
84
100
AcDbEntity
100
AcDbLine
  8
0
 62
256
370
-1
 48
1.0
  6
ByLayer
 10
-7.8500000000002785
 20
-52.35000000000052
 30
0.0
 11
-7.8500000000002039
 21
-16.150000000000521
 31
0.0
  0
LINE
  5
85
100
AcDbEntity
100
AcDbLine
  8
0
 62
256
370
-1
 48
1.0
  6
ByLayer
 10
-7.8500000000002039
 20
-16.150000000000521
 30
0.0
 11
-11.000000000000176
 21
-16.150000000000517
 31
0.0
  0
LINE
  5
86
100
AcDbEntity
100
AcDbLine
  8
0
 62
256
370
-1
 48
1.0
  6
ByLayer
 10
169.99999999999986
 20
10.999999999999284
 30
0.0
 11
169.99999999999974
 21
-16.150000000000684
 31
0.0
  0
LINE
  5
87
100
AcDbEntity
100
AcDbLine
  8
0
 62
256
370
-1
 48
1.0
  6
ByLayer
 10
169.99999999999974
 20
-16.150000000000684
 30
0.0
 11
166.84999999999971
 21
-16.150000000000631
 31
0.0
  0
LINE
  5
88
100
AcDbEntity
100
AcDbLine
  8
0
 62
256
370
-1
 48
1.0
  6
ByLayer
 10
166.84999999999971
 20
-16.150000000000631
 30
0.0
 11
166.84999999999965
 21
-52.35000000000074
 31
0.0
  0
ARC
  5
89
100
AcDbEntity
  8
0
 62
256
370
-1
 48
1.0
  6
ByLayer
100
AcDbCircle
 10
128.23500000000007
 20
82.219999999999814
 30
0.0
 40
3.9999999999999583
100
AcDbArc
 50
22.02431283704199
 51
157.97568716295808
  0
LINE
  5
8A
100
AcDbEntity
100
AcDbLine
  8
0
 62
256
370
-1
 48
1.0
  6
ByLayer
 10
131.94309924354786
 20
83.719999999999786
 30
0.0
 11
134.23500000000007
 21
83.719999999999786
 31
0.0
  0
LINE
  5
8B
100
AcDbEntity
100
AcDbLine
  8
0
 62
256
370
-1
 48
1.0
  6
ByLayer
 10
134.23500000000007
 20
83.719999999999786
 30
0.0
 11
134.23500000000007
 21
80.719999999999786
 31
0.0
  0
LINE
  5
8C
100
AcDbEntity
100
AcDbLine
  8
0
 62
256
370
-1
 48
1.0
  6
ByLayer
 10
134.23500000000007
 20
80.719999999999786
 30
0.0
 11
131.94309924354786
 21
80.719999999999786
 31
0.0
  0
LINE
  5
8D
100
AcDbEntity
100
AcDbLine
  8
0
 62
256
370
-1
 48
1.0
  6
ByLayer
 10
111.17500000000017
 20
25.999999999999428
 30
0.0
 11
166.4399999999998
 21
25.999999999999403
 31
0.0
  0
ARC
  5
8E
100
AcDbEntity
  8
0
 62
256
370
-1
 48
1.0
  6
ByLayer
100
AcDbCircle
 10
166.43999999999983
 20
27.999999999999275
 30
0.0
 40
1.9999999999998719
100
AcDbArc
 50
269.9999999999992
 51
360.0
  0
LINE
  5
8F
100
AcDbEntity
100
AcDbLine
  8
0
 62
256
370
-1
 48
1.0
  6
ByLayer
 10
168.43999999999969
 20
27.999999999999261
 30
0.0
 11
168.43999999999994
 21
174.99999999999935
 31
0.0
  0
ARC
  5
90
100
AcDbEntity
  8
0
 62
256
370
-1
 48
1.0
  6
ByLayer
100
AcDbCircle
 10
166.43999999999997
 20
174.99999999999932
 30
0.0
 40
1.999999999999962
100
AcDbArc
 50
0.0
 51
90.000000000000824
  0
LINE
  5
91
100
AcDbEntity
100
AcDbLine
  8
0
 62
256
370
-1
 48
1.0
  6
ByLayer
 10
166.43999999999994
 20
176.99999999999926
 30
0.0
 11
111.17500000000001
 21
176.99999999999935
 31
0.0
  0
LINE
  5
92
100
AcDbEntity
100
AcDbLine
  8
0
 62
256
370
-1
 48
1.0
  6
ByLayer
 10
-83.264999999999986
 20
176.99999999999957
 30
0.0
 11
-174.99999999999997
 21
176.99999999999974
 31
0.0
  0
ARC
  5
93
100
AcDbEntity
  8
0
 62
256
370
-1
 48
1.0
  6
ByLayer
100
AcDbCircle
 10
-174.99999999999997
 20
174.99999999999974
 30
0.0
 40
2.0
100
AcDbArc
 50
90.0
 51
180.0
  0
LINE
  5
94
100
AcDbEntity
100
AcDbLine
  8
0
 62
256
370
-1
 48
1.0
  6
ByLayer
 10
-176.99999999999997
 20
174.99999999999974
 30
0.0
 11
-177.00000000000023
 21
27.999999999999687
 31
0.0
  0
ARC
  5
95
100
AcDbEntity
  8
0
 62
256
370
-1
 48
1.0
  6
ByLayer
100
AcDbCircle
 10
-175.0000000000002
 20
27.999999999999716
 30
0.0
 40
2.0000000000000284
100
AcDbArc
 50
180.0
 51
270.0000000000008
  0
LINE
  5
96
100
AcDbEntity
100
AcDbLine
  8
0
 62
256
370
-1
 48
1.0
  6
ByLayer
 10
-175.00000000000017
 20
25.999999999999687
 30
0.0
 11
-83.264999999999958
 21
25.999999999999652
 31
0.0
  0
CIRCLE
  5
97
100
AcDbEntity
100
AcDbCircle
  8
0
 62
256
370
-1
 48
1.0
  6
ByLayer
 10
-166.99999999999997
 20
-14.00000000000033
 30
0.0
 40
5.0
  0
LINE
  5
98
100
AcDbEntity
100
AcDbLine
  8
0
 62
256
370
-1
 48
1.0
  6
ByLayer
 10
-26.000000000000227
 20
-153.00000000000057
 30
0.0
 11
-25.999999999999972
 21
-6.0000000000004796
 31
0.0
  0
ARC
  5
99
100
AcDbEntity
  8
0
 62
256
370
-1
 48
1.0
  6
ByLayer
100
AcDbCircle
 10
-27.99999999999994
 20
-6.0000000000005214
 30
0.0
 40
1.9999999999999674
100
AcDbArc
 50
0.0
 51
90.000000000000924
  0
LINE
  5
9A
100
AcDbEntity
100
AcDbLine
  8
0
 62
256
370
-1
 48
1.0
  6
ByLayer
 10
-27.999999999999972
 20
-4.0000000000005542
 30
0.0
 11
-174.99999999999997
 21
-4.0000000000003144
 31
0.0
  0
ARC
  5
9B
100
AcDbEntity
  8
0
 62
256
370
-1
 48
1.0
  6
ByLayer
100
AcDbCircle
 10
-174.99999999999997
 20
-6.000000000000318
 30
0.0
 40
2.0000000000000027
100
AcDbArc
 50
90.0
 51
180.0
  0
ARC
  5
9C
100
AcDbEntity
  8
0
 62
256
370
-1
 48
1.0
  6
ByLayer
100
AcDbCircle
 10
-100.32499999999993
 20
82.219999999999757
 30
0.0
 40
3.9999999999999507
100
AcDbArc
 50
22.02431283704199
 51
157.975687162958
  0
LINE
  5
9D
100
AcDbEntity
100
AcDbLine
  8
0
 62
256
370
-1
 48
1.0
  6
ByLayer
 10
-96.616900756452139
 20
83.719999999999729
 30
0.0
 11
-94.324999999999932
 21
83.719999999999729
 31
0.0
  0
LINE
  5
9E
100
AcDbEntity
100
AcDbLine
  8
0
 62
256
370
-1
 48
1.0
  6
ByLayer
 10
-94.324999999999932
 20
83.719999999999729
 30
0.0
 11
-94.324999999999932
 21
80.719999999999729
 31
0.0
  0
LINE
  5
9F
100
AcDbEntity
100
AcDbLine
  8
0
 62
256
370
-1
 48
1.0
  6
ByLayer
 10
-94.324999999999932
 20
80.719999999999729
 30
0.0
 11
-96.616900756452139
 21
80.719999999999729
 31
0.0
  0
ARC
  5
A0
100
AcDbEntity
  8
0
 62
256
370
-1
 48
1.0
  6
ByLayer
100
AcDbCircle
 10
-100.32499999999993
 20
82.219999999999729
 30
0.0
 40
3.9999999999999636
100
AcDbArc
 50
202.02431283704234
 51
337.97568716295763
  0
LINE
  5
A1
100
AcDbEntity
100
AcDbLine
  8
0
 62
256
370
-1
 48
1.0
  6
ByLayer
 10
-104.03309924354772
 20
80.719999999999729
 30
0.0
 11
-106.32499999999993
 21
80.719999999999729
 31
0.0
  0
LINE
  5
A2
100
AcDbEntity
100
AcDbLine
  8
0
 62
256
370
-1
 48
1.0
  6
ByLayer
 10
-106.32499999999993
 20
80.719999999999729
 30
0.0
 11
-106.32499999999993
 21
83.719999999999729
 31
0.0
  0
LINE
  5
A3
100
AcDbEntity
100
AcDbLine
  8
0
 62
256
370
-1
 48
1.0
  6
ByLayer
 10
-106.32499999999993
 20
83.719999999999729
 30
0.0
 11
-104.03309924354772
 21
83.719999999999729
 31
0.0
  0
LINE
  5
A4
100
AcDbEntity
100
AcDbLine
  8
0
 62
256
370
-1
 48
1.0
  6
ByLayer
 10
-176.99999999999997
 20
-6.0000000000003197
 30
0.0
 11
-177.00000000000023
 21
-153.00000000000037
 31
0.0
  0
ARC
  5
A5
100
AcDbEntity
  8
0
 62
256
370
-1
 48
1.0
  6
ByLayer
100
AcDbCircle
 10
-175.0000000000002
 20
-153.00000000000034
 30
0.0
 40
2.0000000000000284
100
AcDbArc
 50
180.0
 51
270.0000000000008
  0
LINE
  5
A6
100
AcDbEntity
100
AcDbLine
  8
0
 62
256
370
-1
 48
1.0
  6
ByLayer
 10
-175.00000000000017
 20
-155.00000000000037
 30
0.0
 11
-28.000000000000114
 21
-155.00000000000043
 31
0.0
  0
ARC
  5
A7
100
AcDbEntity
  8
0
 62
256
370
-1
 48
1.0
  6
ByLayer
100
AcDbCircle
 10
-28.000000000000099
 20
-153.00000000000057
 30
0.0
 40
1.9999999999998719
100
AcDbArc
 50
269.9999999999996
 51
0.0
  0
LINE
  5
A8
100
AcDbEntity
100
AcDbLine
  8
0
 62
256
370
-1
 48
1.0
  6
ByLayer
 10
3.9999999999998241
 20
-6.0000000000005187
 30
0.0
 11
3.9999999999995683
 21
-153.00000000000057
 31
0.0
  0
ARC
  5
A9
100
AcDbEntity
  8
0
 62
256
370
-1
 48
1.0
  6
ByLayer
100
AcDbCircle
 10
5.9999999999996021
 20
-153.00000000000054
 30
0.0
 40
2.0000000000000329
100
AcDbArc
 50
180.0
 51
270.00000000000091
  0
LINE
  5
AA
100
AcDbEntity
100
AcDbLine
  8
0
 62
256
370
-1
 48
1.0
  6
ByLayer
 10
5.9999999999996341
 20
-155.00000000000057
 30
0.0
 11
152.99999999999969
 21
-155.00000000000063
 31
0.0
  0
ARC
  5
AB
100
AcDbEntity
  8
0
 62
256
370
-1
 48
1.0
  6
ByLayer
100
AcDbCircle
 10
152.99999999999972
 20
-153.00000000000074
 30
0.0
 40
1.9999999999998719
100
AcDbArc
 50
269.9999999999992
 51
360.0
  0
LINE
  5
AC
100
AcDbEntity
100
AcDbLine
  8
0
 62
256
370
-1
 48
1.0
  6
ByLayer
 10
154.99999999999957
 20
-153.00000000000077
 30
0.0
 11
154.99999999999983
 21
-6.0000000000006786
 31
0.0
  0
ARC
  5
AD
100
AcDbEntity
  8
0
 62
256
370
-1
 48
1.0
  6
ByLayer
100
AcDbCircle
 10
152.99999999999986
 20
-6.0000000000007203
 30
0.0
 40
1.9999999999999674
100
AcDbArc
 50
0.0
 51
90.000000000000824
  0
LINE
  5
AE
100
AcDbEntity
100
AcDbLine
  8
0
 62
256
370
-1
 48
1.0
  6
ByLayer
 10
152.99999999999983
 20
-4.0000000000007532
 30
0.0
 11
5.9999999999998295
 21
-4.0000000000005134
 31
0.0
  0
ARC
  5
AF
100
AcDbEntity
  8
0
 62
256
370
-1
 48
1.0
  6
ByLayer
100
AcDbCircle
 10
5.9999999999998295
 20
-6.0000000000005187
 30
0.0
 40
2.0000000000000053
100
AcDbArc
 50
90.0
 51
180.0
  0
CIRCLE
  5
B0
100
AcDbEntity
100
AcDbCircle
  8
0
 62
256
370
-1
 48
1.0
  6
ByLayer
 10
-184.49999999999997
 20
184.49999999999974
 30
0.0
 40
2.6249999999999969
  0
LINE
  5
B1
100
AcDbEntity
100
AcDbLine
  8
0
 62
256
370
-1
 48
1.0
  6
ByLayer
 10
89.455000000000084
 20
174.99999999999986
 30
0.0
 11
89.455000000000112
 21
27.999999999999801
 31
0.0
  0
ARC
  5
B2
100
AcDbEntity
  8
0
 62
256
370
-1
 48
1.0
  6
ByLayer
100
AcDbCircle
 10
87.455000000000098
 20
27.999999999999794
 30
0.0
 40
2.0000000000000071
100
AcDbArc
 50
270.0000000000004
 51
0.0
  0
LINE
  5
B3
100
AcDbEntity
100
AcDbLine
  8
0
 62
256
370
-1
 48
1.0
  6
ByLayer
 10
87.455000000000112
 20
25.999999999999787
 30
0.0
 11
-59.544999999999959
 21
25.999999999999773
 31
0.0
  0
ARC
  5
B4
100
AcDbEntity
  8
0
 62
256
370
-1
 48
1.0
  6
ByLayer
100
AcDbCircle
 10
-59.544999999999959
 20
27.999999999999773
 30
0.0
 40
2.0
100
AcDbArc
 50
180.0
 51
270.0
  0
LINE
  5
B5
100
AcDbEntity
100
AcDbLine
  8
0
 62
256
370
-1
 48
1.0
  6
ByLayer
 10
-61.544999999999959
 20
27.999999999999773
 30
0.0
 11
-61.544999999999931
 21
174.9999999999998
 31
0.0
  0
ARC
  5
B6
100
AcDbEntity
  8
0
 62
256
370
-1
 48
1.0
  6
ByLayer
100
AcDbCircle
 10
-59.544999999999938
 20
174.9999999999998
 30
0.0
 40
1.9999999999999956
100
AcDbArc
 50
89.999999999999801
 51
180.0
  0
LINE
  5
B7
100
AcDbEntity
100
AcDbLine
  8
0
 62
256
370
-1
 48
1.0
  6
ByLayer
 10
-59.544999999999931
 20
176.9999999999998
 30
0.0
 11
87.455000000000069
 21
176.99999999999986
 31
0.0
  0
ARC
  5
B8
100
AcDbEntity
  8
0
 62
256
370
-1
 48
1.0
  6
ByLayer
100
AcDbCircle
 10
87.455000000000069
 20
174.99999999999986
 30
0.0
 40
2.0000000000000071
100
AcDbArc
 50
0.0
 51
90.0
  0
CIRCLE
  5
B9
100
AcDbEntity
100
AcDbCircle
  8
0
 62
256
370
-1
 48
1.0
  6
ByLayer
 10
-3.5000000000001723
 20
3.4999999999994866
 30
0.0
 40
2.6249999999999969
  0
CIRCLE
  5
BA
100
AcDbEntity
100
AcDbCircle
  8
0
 62
256
370
-1
 48
1.0
  6
ByLayer
 10
-184.49999999999997
 20
3.4999999999996856
 30
0.0
 40
2.6249999999999969
  0
CIRCLE
  5
BB
100
AcDbEntity
100
AcDbCircle
  8
0
 62
256
370
-1
 48
1.0
  6
ByLayer
 10
-184.50000000000017
 20
18.499999999999687
 30
0.0
 40
2.6249999999999969
  0
LINE
  5
BC
100
AcDbEntity
100
AcDbLine
  8
0
 62
256
370
-1
 48
1.0
  6
ByLayer
 10
107.60500000000008
 20
167.21999999999983
 30
0.0
 11
104.45500000000006
 21
167.21999999999977
 31
0.0
  0
LINE
  5
BD
100
AcDbEntity
100
AcDbLine
  8
0
 62
256
370
-1
 48
1.0
  6
ByLayer
 10
104.45500000000006
 20
167.21999999999977
 30
0.0
 11
104.45500000000006
 21
183.73999999999981
 31
0.0
  0
LINE
  5
BE
100
AcDbEntity
100
AcDbLine
  8
0
 62
256
370
-1
 48
1.0
  6
ByLayer
 10
104.45500000000006
 20
183.73999999999981
 30
0.0
 11
107.60500000000008
 21
183.73999999999981
 31
0.0
  0
LINE
  5
BF
100
AcDbEntity
100
AcDbLine
  8
0
 62
256
370
-1
 48
1.0
  6
ByLayer
 10
107.60500000000008
 20
183.73999999999981
 30
0.0
 11
107.60500000000008
 21
167.21999999999983
 31
0.0
  0
CIRCLE
  5
C0
100
AcDbEntity
100
AcDbCircle
  8
0
 62
256
370
-1
 48
1.0
  6
ByLayer
 10
-3.5000000000003677
 20
-162.50000000000057
 30
0.0
 40
2.6249999999999969
  0
CIRCLE
  5
C1
100
AcDbEntity
100
AcDbCircle
  8
0
 62
256
370
-1
 48
1.0
  6
ByLayer
 10
-184.50000000000017
 20
-162.50000000000037
 30
0.0
 40
2.6249999999999969
  0
LINE
  5
C2
100
AcDbEntity
100
AcDbLine
  8
0
 62
256
370
-1
 48
1.0
  6
ByLayer
 10
-76.544999999999902
 20
167.21999999999977
 30
0.0
 11
-79.694999999999936
 21
167.21999999999983
 31
0.0
  0
LINE
  5
C3
100
AcDbEntity
100
AcDbLine
  8
0
 62
256
370
-1
 48
1.0
  6
ByLayer
 10
-79.694999999999936
 20
167.21999999999983
 30
0.0
 11
-79.694999999999936
 21
183.73999999999981
 31
0.0
  0
LINE
  5
C4
100
AcDbEntity
100
AcDbLine
  8
0
 62
256
370
-1
 48
1.0
  6
ByLayer
 10
-79.694999999999936
 20
183.73999999999981
 30
0.0
 11
-76.544999999999902
 21
183.73999999999981
 31
0.0
  0
LINE
  5
C5
100
AcDbEntity
100
AcDbLine
  8
0
 62
256
370
-1
 48
1.0
  6
ByLayer
 10
-76.544999999999902
 20
183.73999999999981
 30
0.0
 11
-76.544999999999902
 21
167.21999999999977
 31
0.0
  0
CIRCLE
  5
C6
100
AcDbEntity
100
AcDbCircle
  8
0
 62
256
370
-1
 48
1.0
  6
ByLayer
 10
-101.50000000000018
 20
18.499999999999602
 30
0.0
 40
2.6249999999999969
  0
CIRCLE
  5
C7
100
AcDbEntity
100
AcDbCircle
  8
0
 62
256
370
-1
 48
1.0
  6
ByLayer
 10
79.499999999999616
 20
-162.50000000000065
 30
0.0
 40
2.6249999999999969
  0
CIRCLE
  5
C8
100
AcDbEntity
100
AcDbCircle
  8
0
 62
256
370
-1
 48
1.0
  6
ByLayer
 10
-101.50000000000018
 20
-162.50000000000045
 30
0.0
 40
2.6249999999999969
  0
LINE
  5
C9
100
AcDbEntity
100
AcDbLine
  8
0
 62
256
370
-1
 48
1.0
  6
ByLayer
 10
-79.694999999999936
 20
35.779999999999717
 30
0.0
 11
-76.544999999999902
 21
35.779999999999731
 31
0.0
  0
LINE
  5
CA
100
AcDbEntity
100
AcDbLine
  8
0
 62
256
370
-1
 48
1.0
  6
ByLayer
 10
-76.544999999999902
 20
35.779999999999731
 30
0.0
 11
-76.544999999999902
 21
19.259999999999721
 31
0.0
  0
LINE
  5
CB
100
AcDbEntity
100
AcDbLine
  8
0
 62
256
370
-1
 48
1.0
  6
ByLayer
 10
-76.544999999999902
 20
19.259999999999721
 30
0.0
 11
-79.694999999999936
 21
19.259999999999721
 31
0.0
  0
LINE
  5
CC
100
AcDbEntity
100
AcDbLine
  8
0
 62
256
370
-1
 48
1.0
  6
ByLayer
 10
-79.694999999999936
 20
19.259999999999721
 30
0.0
 11
-79.694999999999936
 21
35.779999999999717
 31
0.0
  0
CIRCLE
  5
CD
100
AcDbEntity
100
AcDbCircle
  8
0
 62
256
370
-1
 48
1.0
  6
ByLayer
 10
-18.500000000000028
 20
-79.500000000000483
 30
0.0
 40
2.6249999999999969
  0
CIRCLE
  5
CE
100
AcDbEntity
100
AcDbCircle
  8
0
 62
256
370
-1
 48
1.0
  6
ByLayer
 10
175.93999999999988
 20
101.49999999999935
 30
0.0
 40
2.6249999999999969
  0
CIRCLE
  5
CF
100
AcDbEntity
100
AcDbCircle
  8
0
 62
256
370
-1
 48
1.0
  6
ByLayer
 10
162.49999999999977
 20
-79.500000000000682
 30
0.0
 40
2.6249999999999969
  0
CIRCLE
  5
D0
100
AcDbEntity
100
AcDbCircle
  8
0
 62
256
370
-1
 48
1.0
  6
ByLayer
 10
175.9399999999998
 20
18.499999999999289
 30
0.0
 40
2.6249999999999969
  0
LINE
  5
D1
100
AcDbEntity
100
AcDbLine
  8
0
 62
256
370
-1
 48
1.0
  6
ByLayer
 10
107.60500000000008
 20
19.259999999999721
 30
0.0
 11
104.45500000000006
 21
19.259999999999721
 31
0.0
  0
LINE
  5
D2
100
AcDbEntity
100
AcDbLine
  8
0
 62
256
370
-1
 48
1.0
  6
ByLayer
 10
104.45500000000006
 20
19.259999999999721
 30
0.0
 11
104.45500000000006
 21
35.779999999999731
 31
0.0
  0
LINE
  5
D3
100
AcDbEntity
100
AcDbLine
  8
0
 62
256
370
-1
 48
1.0
  6
ByLayer
 10
104.45500000000006
 20
35.779999999999731
 30
0.0
 11
107.60500000000008
 21
35.779999999999731
 31
0.0
  0
LINE
  5
D4
100
AcDbEntity
100
AcDbLine
  8
0
 62
256
370
-1
 48
1.0
  6
ByLayer
 10
107.60500000000008
 20
35.779999999999731
 30
0.0
 11
107.60500000000008
 21
19.259999999999721
 31
0.0
  0
CIRCLE
  5
D5
100
AcDbEntity
100
AcDbCircle
  8
0
 62
256
370
-1
 48
1.0
  6
ByLayer
 10
-18.500000000000114
 20
-162.50000000000054
 30
0.0
 40
2.6249999999999969
  0
CIRCLE
  5
D6
100
AcDbEntity
100
AcDbCircle
  8
0
 62
256
370
-1
 48
1.0
  6
ByLayer
 10
162.49999999999969
 20
-162.50000000000074
 30
0.0
 40
2.6249999999999969
  0
CIRCLE
  5
D7
100
AcDbEntity
100
AcDbCircle
  8
0
 62
256
370
-1
 48
1.0
  6
ByLayer
 10
175.93999999999994
 20
184.49999999999935
 30
0.0
 40
2.6249999999999969
  0
ARC
  5
D8
100
AcDbEntity
  8
0
 62
256
370
-1
 48
1.0
  6
ByLayer
100
AcDbCircle
 10
120.30500000000006
 20
128.43999999999977
 30
0.0
 40
0.25
100
AcDbArc
 50
180.0
 51
90.0
  0
LINE
  5
D9
100
AcDbEntity
100
AcDbLine
  8
0
 62
256
370
-1
 48
1.0
  6
ByLayer
 10
120.05500000000006
 20
128.43999999999977
 30
0.0
 11
119.03000000000007
 21
128.43999999999977
 31
0.0
  0
LINE
  5
DA
100
AcDbEntity
100
AcDbLine
  8
0
 62
256
370
-1
 48
1.0
  6
ByLayer
 10
119.03000000000007
 20
128.43999999999977
 30
0.0
 11
119.03000000000007
 21
127.43999999999977
 31
0.0
  0
LINE
  5
DB
100
AcDbEntity
100
AcDbLine
  8
0
 62
256
370
-1
 48
1.0
  6
ByLayer
 10
119.03000000000007
 20
127.43999999999977
 30
0.0
 11
115.88000000000007
 21
127.43999999999977
 31
0.0
  0
LINE
  5
DC
100
AcDbEntity
100
AcDbLine
  8
0
 62
256
370
-1
 48
1.0
  6
ByLayer
 10
115.88000000000007
 20
127.43999999999977
 30
0.0
 11
115.88000000000007
 21
128.43999999999977
 31
0.0
  0
LINE
  5
DD
100
AcDbEntity
100
AcDbLine
  8
0
 62
256
370
-1
 48
1.0
  6
ByLayer
 10
115.88000000000007
 20
128.43999999999977
 30
0.0
 11
114.85500000000008
 21
128.43999999999977
 31
0.0
  0
ARC
  5
DE
100
AcDbEntity
  8
0
 62
256
370
-1
 48
1.0
  6
ByLayer
100
AcDbCircle
 10
114.60500000000008
 20
128.43999999999977
 30
0.0
 40
0.25
100
AcDbArc
 50
90.0
 51
0.0
  0
LINE
  5
DF
100
AcDbEntity
100
AcDbLine
  8
0
 62
256
370
-1
 48
1.0
  6
ByLayer
 10
114.60500000000008
 20
128.68999999999977
 30
0.0
 11
114.60500000000008
 21
130.68999999999977
 31
0.0
  0
ARC
  5
E0
100
AcDbEntity
  8
0
 62
256
370
-1
 48
1.0
  6
ByLayer
100
AcDbCircle
 10
114.60500000000008
 20
130.93999999999977
 30
0.0
 40
0.25
100
AcDbArc
 50
0.0
 51
270.0
  0
LINE
  5
E1
100
AcDbEntity
100
AcDbLine
  8
0
 62
256
370
-1
 48
1.0
  6
ByLayer
 10
114.85500000000008
 20
130.93999999999977
 30
0.0
 11
115.87999999999997
 21
130.93999999999977
 31
0.0
  0
LINE
  5
E2
100
AcDbEntity
100
AcDbLine
  8
0
 62
256
370
-1
 48
1.0
  6
ByLayer
 10
115.87999999999997
 20
130.93999999999977
 30
0.0
 11
115.88000000000007
 21
135.71999999999974
 31
0.0
  0
LINE
  5
E3
100
AcDbEntity
100
AcDbLine
  8
0
 62
256
370
-1
 48
1.0
  6
ByLayer
 10
115.88000000000007
 20
135.71999999999974
 30
0.0
 11
111.17500000000008
 21
135.71999999999986
 31
0.0
  0
LINE
  5
E4
100
AcDbEntity
100
AcDbLine
  8
0
 62
256
370
-1
 48
1.0
  6
ByLayer
 10
111.17500000000008
 20
135.71999999999986
 30
0.0
 11
111.17500000000003
 21
191.99999999999991
 31
0.0
  0
LINE
  5
E5
100
AcDbEntity
100
AcDbLine
  8
0
 62
256
370
-1
 48
1.0
  6
ByLayer
 10
183.43999999999997
 20
191.99999999999932
 30
0.0
 11
77.304999999999978
 21
191.99999999999986
 31
0.0
  0
LINE
  5
E6
100
AcDbEntity
100
AcDbLine
  8
0
 62
256
370
-1
 48
1.0
  6
ByLayer
 10
77.304999999999978
 20
191.99999999999986
 30
0.0
 11
77.304999999999993
 21
188.84999999999982
 31
0.0
  0
LINE
  5
E7
100
AcDbEntity
100
AcDbLine
  8
0
 62
256
370
-1
 48
1.0
  6
ByLayer
 10
77.304999999999993
 20
188.84999999999982
 30
0.0
 11
41.10499999999999
 21
188.84999999999977
 31
0.0
  0
LINE
  5
E8
100
AcDbEntity
100
AcDbLine
  8
0
 62
256
370
-1
 48
1.0
  6
ByLayer
 10
119.03000000000007
 20
135.71999999999974
 30
0.0
 11
119.03000000000007
 21
130.93999999999977
 31
0.0
  0
LINE
  5
E9
100
AcDbEntity
100
AcDbLine
  8
0
 62
256
370
-1
 48
1.0
  6
ByLayer
 10
119.03000000000007
 20
130.93999999999977
 30
0.0
 11
120.05500000000006
 21
130.93999999999977
 31
0.0
  0
ARC
  5
EA
100
AcDbEntity
  8
0
 62
256
370
-1
 48
1.0
  6
ByLayer
100
AcDbCircle
 10
120.30500000000006
 20
130.93999999999977
 30
0.0
 40
0.25
100
AcDbArc
 50
270.0
 51
180.0
  0
LINE
  5
EB
100
AcDbEntity
100
AcDbLine
  8
0
 62
256
370
-1
 48
1.0
  6
ByLayer
 10
120.30500000000006
 20
130.68999999999977
 30
0.0
 11
120.30500000000006
 21
128.68999999999977
 31
0.0
  0
ARC
  5
EC
100
AcDbEntity
  8
0
 62
256
370
-1
 48
1.0
  6
ByLayer
100
AcDbCircle
 10
-92.394999999999925
 20
130.93999999999977
 30
0.0
 40
0.25
100
AcDbArc
 50
0.0
 51
270.0
  0
LINE
  5
ED
100
AcDbEntity
100
AcDbLine
  8
0
 62
256
370
-1
 48
1.0
  6
ByLayer
 10
-92.144999999999925
 20
130.93999999999977
 30
0.0
 11
-91.119999999999948
 21
130.93999999999977
 31
0.0
  0
LINE
  5
EE
100
AcDbEntity
100
AcDbLine
  8
0
 62
256
370
-1
 48
1.0
  6
ByLayer
 10
-91.119999999999948
 20
130.93999999999977
 30
0.0
 11
-91.119999999999948
 21
135.71999999999974
 31
0.0
  0
LINE
  5
EF
100
AcDbEntity
100
AcDbLine
  8
0
 62
256
370
-1
 48
1.0
  6
ByLayer
 10
-91.119999999999948
 20
135.71999999999974
 30
0.0
 11
-109.32499999999993
 21
135.71999999999974
 31
0.0
  0
LINE
  5
F0
100
AcDbEntity
100
AcDbLine
  8
0
 62
256
370
-1
 48
1.0
  6
ByLayer
 10
-109.32499999999993
 20
135.71999999999974
 30
0.0
 11
-109.32499999999993
 21
112.9066666666664
 31
0.0
  0
LINE
  5
F1
100
AcDbEntity
100
AcDbLine
  8
0
 62
256
370
-1
 48
1.0
  6
ByLayer
 10
-109.32499999999993
 20
112.9066666666664
 30
0.0
 11
-116.04499999999993
 21
112.9066666666664
 31
0.0
  0
LINE
  5
F2
100
AcDbEntity
100
AcDbLine
  8
0
 62
256
370
-1
 48
1.0
  6
ByLayer
 10
-116.04499999999993
 20
112.9066666666664
 30
0.0
 11
-116.04499999999993
 21
90.093333333333106
 31
0.0
  0
LINE
  5
F3
100
AcDbEntity
100
AcDbLine
  8
0
 62
256
370
-1
 48
1.0
  6
ByLayer
 10
-116.04499999999993
 20
90.093333333333106
 30
0.0
 11
-109.32499999999993
 21
90.093333333333121
 31
0.0
  0
LINE
  5
F4
100
AcDbEntity
100
AcDbLine
  8
0
 62
256
370
-1
 48
1.0
  6
ByLayer
 10
-109.32499999999993
 20
90.093333333333121
 30
0.0
 11
-109.32499999999993
 21
67.279999999999774
 31
0.0
  0
LINE
  5
F5
100
AcDbEntity
100
AcDbLine
  8
0
 62
256
370
-1
 48
1.0
  6
ByLayer
 10
-109.32499999999993
 20
67.279999999999774
 30
0.0
 11
-91.119999999999948
 21
67.279999999999774
 31
0.0
  0
LINE
  5
F6
100
AcDbEntity
100
AcDbLine
  8
0
 62
256
370
-1
 48
1.0
  6
ByLayer
 10
-91.119999999999948
 20
67.279999999999774
 30
0.0
 11
-91.119999999999948
 21
72.059999999999775
 31
0.0
  0
LINE
  5
F7
100
AcDbEntity
100
AcDbLine
  8
0
 62
256
370
-1
 48
1.0
  6
ByLayer
 10
-91.119999999999948
 20
72.059999999999775
 30
0.0
 11
-92.144999999999925
 21
72.059999999999775
 31
0.0
  0
ARC
  5
F8
100
AcDbEntity
  8
0
 62
256
370
-1
 48
1.0
  6
ByLayer
100
AcDbCircle
 10
-92.394999999999925
 20
72.059999999999775
 30
0.0
 40
0.25
100
AcDbArc
 50
90.0
 51
0.0
  0
LINE
  5
F9
100
AcDbEntity
100
AcDbLine
  8
0
 62
256
370
-1
 48
1.0
  6
ByLayer
 10
-92.394999999999925
 20
72.309999999999775
 30
0.0
 11
-92.394999999999925
 21
74.309999999999775
 31
0.0
  0
ARC
  5
FA
100
AcDbEntity
  8
0
 62
256
370
-1
 48
1.0
  6
ByLayer
100
AcDbCircle
 10
-92.394999999999925
 20
74.559999999999775
 30
0.0
 40
0.25
100
AcDbArc
 50
0.0
 51
270.0
  0
LINE
  5
FB
100
AcDbEntity
100
AcDbLine
  8
0
 62
256
370
-1
 48
1.0
  6
ByLayer
 10
-92.144999999999925
 20
74.559999999999775
 30
0.0
 11
-91.119999999999948
 21
74.559999999999775
 31
0.0
  0
LINE
  5
FC
100
AcDbEntity
100
AcDbLine
  8
0
 62
256
370
-1
 48
1.0
  6
ByLayer
 10
41.10499999999999
 20
188.84999999999977
 30
0.0
 11
41.105000000000018
 21
191.9999999999998
 31
0.0
  0
LINE
  5
FD
100
AcDbEntity
100
AcDbLine
  8
0
 62
256
370
-1
 48
1.0
  6
ByLayer
 10
-83.264999999999986
 20
191.9999999999998
 30
0.0
 11
-83.264999999999986
 21
135.71999999999974
 31
0.0
  0
LINE
  5
FE
100
AcDbEntity
100
AcDbLine
  8
0
 62
256
370
-1
 48
1.0
  6
ByLayer
 10
-83.264999999999986
 20
135.71999999999974
 30
0.0
 11
-87.969999999999914
 21
135.71999999999974
 31
0.0
  0
LINE
  5
FF
100
AcDbEntity
100
AcDbLine
  8
0
 62
256
370
-1
 48
1.0
  6
ByLayer
 10
-87.969999999999914
 20
135.71999999999974
 30
0.0
 11
-87.969999999999828
 21
130.93999999999977
 31
0.0
  0
LINE
  5
100
100
AcDbEntity
100
AcDbLine
  8
0
 62
256
370
-1
 48
1.0
  6
ByLayer
 10
-87.969999999999828
 20
130.93999999999977
 30
0.0
 11
-86.944999999999936
 21
130.93999999999977
 31
0.0
  0
ARC
  5
101
100
AcDbEntity
  8
0
 62
256
370
-1
 48
1.0
  6
ByLayer
100
AcDbCircle
 10
-86.694999999999936
 20
130.93999999999977
 30
0.0
 40
0.25
100
AcDbArc
 50
270.0
 51
180.0
  0
LINE
  5
102
100
AcDbEntity
100
AcDbLine
  8
0
 62
256
370
-1
 48
1.0
  6
ByLayer
 10
-86.694999999999936
 20
130.68999999999977
 30
0.0
 11
-86.694999999999936
 21
128.68999999999977
 31
0.0
  0
ARC
  5
103
100
AcDbEntity
  8
0
 62
256
370
-1
 48
1.0
  6
ByLayer
100
AcDbCircle
 10
-86.694999999999936
 20
128.43999999999977
 30
0.0
 40
0.25
100
AcDbArc
 50
180.0
 51
90.0
  0
LINE
  5
104
100
AcDbEntity
100
AcDbLine
  8
0
 62
256
370
-1
 48
1.0
  6
ByLayer
 10
-86.944999999999936
 20
128.43999999999977
 30
0.0
 11
-87.969999999999914
 21
128.43999999999977
 31
0.0
  0
LINE
  5
105
100
AcDbEntity
100
AcDbLine
  8
0
 62
256
370
-1
 48
1.0
  6
ByLayer
 10
-87.969999999999914
 20
128.43999999999977
 30
0.0
 11
-87.969999999999914
 21
127.43999999999977
 31
0.0
  0
LINE
  5
106
100
AcDbEntity
100
AcDbLine
  8
0
 62
256
370
-1
 48
1.0
  6
ByLayer
 10
-87.969999999999914
 20
127.43999999999977
 30
0.0
 11
-91.119999999999948
 21
127.43999999999977
 31
0.0
  0
LINE
  5
107
100
AcDbEntity
100
AcDbLine
  8
0
 62
256
370
-1
 48
1.0
  6
ByLayer
 10
-91.119999999999948
 20
127.43999999999977
 30
0.0
 11
-91.119999999999948
 21
128.43999999999977
 31
0.0
  0
LINE
  5
108
100
AcDbEntity
100
AcDbLine
  8
0
 62
256
370
-1
 48
1.0
  6
ByLayer
 10
-91.119999999999948
 20
128.43999999999977
 30
0.0
 11
-92.144999999999925
 21
128.43999999999977
 31
0.0
  0
ARC
  5
109
100
AcDbEntity
  8
0
 62
256
370
-1
 48
1.0
  6
ByLayer
100
AcDbCircle
 10
-92.394999999999925
 20
128.43999999999977
 30
0.0
 40
0.25
100
AcDbArc
 50
90.0
 51
0.0
  0
LINE
  5
10A
100
AcDbEntity
100
AcDbLine
  8
0
 62
256
370
-1
 48
1.0
  6
ByLayer
 10
-92.394999999999925
 20
128.68999999999977
 30
0.0
 11
-92.394999999999925
 21
130.68999999999977
 31
0.0
  0
LINE
  5
10B
100
AcDbEntity
100
AcDbLine
  8
0
 62
256
370
-1
 48
1.0
  6
ByLayer
 10
111.17500000000015
 20
10.999999999999801
 30
0.0
 11
111.17500000000015
 21
67.279999999999845
 31
0.0
  0
LINE
  5
10C
100
AcDbEntity
100
AcDbLine
  8
0
 62
256
370
-1
 48
1.0
  6
ByLayer
 10
111.17500000000015
 20
67.279999999999845
 30
0.0
 11
115.88000000000007
 21
67.279999999999774
 31
0.0
  0
LINE
  5
10D
100
AcDbEntity
100
AcDbLine
  8
0
 62
256
370
-1
 48
1.0
  6
ByLayer
 10
115.88000000000007
 20
67.279999999999774
 30
0.0
 11
115.87999999999997
 21
72.059999999999775
 31
0.0
  0
LINE
  5
10E
100
AcDbEntity
100
AcDbLine
  8
0
 62
256
370
-1
 48
1.0
  6
ByLayer
 10
115.87999999999997
 20
72.059999999999775
 30
0.0
 11
114.85500000000008
 21
72.059999999999775
 31
0.0
  0
ARC
  5
10F
100
AcDbEntity
  8
0
 62
256
370
-1
 48
1.0
  6
ByLayer
100
AcDbCircle
 10
114.60500000000008
 20
72.059999999999775
 30
0.0
 40
0.25
100
AcDbArc
 50
90.0
 51
0.0
  0
LINE
  5
110
100
AcDbEntity
100
AcDbLine
  8
0
 62
256
370
-1
 48
1.0
  6
ByLayer
 10
114.60500000000008
 20
72.309999999999775
 30
0.0
 11
114.60500000000008
 21
74.309999999999775
 31
0.0
  0
ARC
  5
111
100
AcDbEntity
  8
0
 62
256
370
-1
 48
1.0
  6
ByLayer
100
AcDbCircle
 10
114.60500000000008
 20
74.559999999999775
 30
0.0
 40
0.25
100
AcDbArc
 50
0.0
 51
270.0
  0
LINE
  5
112
100
AcDbEntity
100
AcDbLine
  8
0
 62
256
370
-1
 48
1.0
  6
ByLayer
 10
114.85500000000008
 20
74.559999999999775
 30
0.0
 11
115.88000000000007
 21
74.559999999999775
 31
0.0
  0
LINE
  5
113
100
AcDbEntity
100
AcDbLine
  8
0
 62
256
370
-1
 48
1.0
  6
ByLayer
 10
115.88000000000007
 20
74.559999999999775
 30
0.0
 11
115.88000000000007
 21
75.559999999999775
 31
0.0
  0
LINE
  5
114
100
AcDbEntity
100
AcDbLine
  8
0
 62
256
370
-1
 48
1.0
  6
ByLayer
 10
115.88000000000007
 20
75.559999999999775
 30
0.0
 11
119.03000000000007
 21
75.559999999999775
 31
0.0
  0
LINE
  5
115
100
AcDbEntity
100
AcDbLine
  8
0
 62
256
370
-1
 48
1.0
  6
ByLayer
 10
119.03000000000007
 20
75.559999999999775
 30
0.0
 11
119.03000000000007
 21
74.559999999999775
 31
0.0
  0
LINE
  5
116
100
AcDbEntity
100
AcDbLine
  8
0
 62
256
370
-1
 48
1.0
  6
ByLayer
 10
119.03000000000007
 20
74.559999999999775
 30
0.0
 11
120.05500000000006
 21
74.559999999999775
 31
0.0
  0
ARC
  5
117
100
AcDbEntity
  8
0
 62
256
370
-1
 48
1.0
  6
ByLayer
100
AcDbCircle
 10
120.30500000000006
 20
74.559999999999775
 30
0.0
 40
0.25
100
AcDbArc
 50
270.0
 51
180.0
  0
LINE
  5
118
100
AcDbEntity
100
AcDbLine
  8
0
 62
256
370
-1
 48
1.0
  6
ByLayer
 10
120.30500000000006
 20
74.309999999999775
 30
0.0
 11
120.30500000000006
 21
72.309999999999775
 31
0.0
  0
ARC
  5
119
100
AcDbEntity
  8
0
 62
256
370
-1
 48
1.0
  6
ByLayer
100
AcDbCircle
 10
120.30500000000006
 20
72.059999999999775
 30
0.0
 40
0.25
100
AcDbArc
 50
180.0
 51
90.0
  0
LINE
  5
11A
100
AcDbEntity
100
AcDbLine
  8
0
 62
256
370
-1
 48
1.0
  6
ByLayer
 10
120.05500000000006
 20
72.059999999999775
 30
0.0
 11
119.03000000000007
 21
72.059999999999775
 31
0.0
  0
LINE
  5
11B
100
AcDbEntity
100
AcDbLine
  8
0
 62
256
370
-1
 48
1.0
  6
ByLayer
 10
-91.119999999999948
 20
74.559999999999775
 30
0.0
 11
-91.119999999999948
 21
75.559999999999775
 31
0.0
  0
LINE
  5
11C
100
AcDbEntity
100
AcDbLine
  8
0
 62
256
370
-1
 48
1.0
  6
ByLayer
 10
-91.119999999999948
 20
75.559999999999775
 30
0.0
 11
-87.969999999999914
 21
75.559999999999775
 31
0.0
  0
LINE
  5
11D
100
AcDbEntity
100
AcDbLine
  8
0
 62
256
370
-1
 48
1.0
  6
ByLayer
 10
-87.969999999999914
 20
75.559999999999775
 30
0.0
 11
-87.969999999999914
 21
74.559999999999775
 31
0.0
  0
LINE
  5
11E
100
AcDbEntity
100
AcDbLine
  8
0
 62
256
370
-1
 48
1.0
  6
ByLayer
 10
-87.969999999999914
 20
74.559999999999775
 30
0.0
 11
-86.944999999999936
 21
74.559999999999775
 31
0.0
  0
ARC
  5
11F
100
AcDbEntity
  8
0
 62
256
370
-1
 48
1.0
  6
ByLayer
100
AcDbCircle
 10
-86.694999999999936
 20
74.559999999999775
 30
0.0
 40
0.25
100
AcDbArc
 50
270.0
 51
180.0
  0
LINE
  5
120
100
AcDbEntity
100
AcDbLine
  8
0
 62
256
370
-1
 48
1.0
  6
ByLayer
 10
-86.694999999999936
 20
74.309999999999775
 30
0.0
 11
-86.694999999999936
 21
72.309999999999775
 31
0.0
  0
ARC
  5
121
100
AcDbEntity
  8
0
 62
256
370
-1
 48
1.0
  6
ByLayer
100
AcDbCircle
 10
-86.694999999999936
 20
72.059999999999775
 30
0.0
 40
0.25
100
AcDbArc
 50
180.0
 51
90.0
  0
LINE
  5
122
100
AcDbEntity
100
AcDbLine
  8
0
 62
256
370
-1
 48
1.0
  6
ByLayer
 10
-86.944999999999936
 20
72.059999999999775
 30
0.0
 11
-87.969999999999828
 21
72.059999999999775
 31
0.0
  0
LINE
  5
123
100
AcDbEntity
100
AcDbLine
  8
0
 62
256
370
-1
 48
1.0
  6
ByLayer
 10
-87.969999999999828
 20
72.059999999999775
 30
0.0
 11
-87.969999999999914
 21
67.279999999999774
 31
0.0
  0
LINE
  5
124
100
AcDbEntity
100
AcDbLine
  8
0
 62
256
370
-1
 48
1.0
  6
ByLayer
 10
-87.969999999999914
 20
67.279999999999774
 30
0.0
 11
-83.264999999999986
 21
67.27999999999976
 31
0.0
  0
LINE
  5
125
100
AcDbEntity
100
AcDbLine
  8
0
 62
256
370
-1
 48
1.0
  6
ByLayer
 10
-83.264999999999986
 20
67.27999999999976
 30
0.0
 11
-83.26499999999993
 21
10.99999999999973
 31
0.0
  0
LINE
  5
126
100
AcDbEntity
100
AcDbLine
  8
0
 62
256
370
-1
 48
1.0
  6
ByLayer
 10
41.105000000000118
 20
10.999999999999773
 30
0.0
 11
41.105000000000103
 21
14.149999999999807
 31
0.0
  0
LINE
  5
127
100
AcDbEntity
100
AcDbLine
  8
0
 62
256
370
-1
 48
1.0
  6
ByLayer
 10
41.105000000000103
 20
14.149999999999807
 30
0.0
 11
77.305000000000106
 21
14.149999999999807
 31
0.0
  0
LINE
  5
128
100
AcDbEntity
100
AcDbLine
  8
0
 62
256
370
-1
 48
1.0
  6
ByLayer
 10
77.305000000000106
 20
14.149999999999807
 30
0.0
 11
77.305000000000092
 21
10.999999999999787
 31
0.0
  0
LINE
  5
129
100
AcDbEntity
100
AcDbLine
  8
0
 62
256
370
-1
 48
1.0
  6
ByLayer
 10
119.03000000000007
 20
72.059999999999775
 30
0.0
 11
119.03000000000007
 21
67.279999999999774
 31
0.0
  0
LINE
  5
12A
100
AcDbEntity
100
AcDbLine
  8
0
 62
256
370
-1
 48
1.0
  6
ByLayer
 10
119.03000000000007
 20
67.279999999999774
 30
0.0
 11
137.23500000000007
 21
67.279999999999873
 31
0.0
  0
LINE
  5
12B
100
AcDbEntity
100
AcDbLine
  8
0
 62
256
370
-1
 48
1.0
  6
ByLayer
 10
137.23500000000007
 20
67.279999999999873
 30
0.0
 11
137.23500000000007
 21
90.093333333333206
 31
0.0
  0
LINE
  5
12C
100
AcDbEntity
100
AcDbLine
  8
0
 62
256
370
-1
 48
1.0
  6
ByLayer
 10
137.23500000000007
 20
90.093333333333206
 30
0.0
 11
143.95500000000007
 21
90.093333333333206
 31
0.0
  0
LINE
  5
12D
100
AcDbEntity
100
AcDbLine
  8
0
 62
256
370
-1
 48
1.0
  6
ByLayer
 10
143.95500000000007
 20
90.093333333333206
 30
0.0
 11
143.95500000000007
 21
112.90666666666651
 31
0.0
  0
LINE
  5
12E
100
AcDbEntity
100
AcDbLine
  8
0
 62
256
370
-1
 48
1.0
  6
ByLayer
 10
143.95500000000007
 20
112.90666666666651
 30
0.0
 11
137.23500000000007
 21
112.90666666666651
 31
0.0
  0
LINE
  5
12F
100
AcDbEntity
100
AcDbLine
  8
0
 62
256
370
-1
 48
1.0
  6
ByLayer
 10
137.23500000000007
 20
112.90666666666651
 30
0.0
 11
137.23499999999996
 21
135.71999999999986
 31
0.0
  0
LINE
  5
130
100
AcDbEntity
100
AcDbLine
  8
0
 62
256
370
-1
 48
1.0
  6
ByLayer
 10
137.23499999999996
 20
135.71999999999986
 30
0.0
 11
119.03000000000007
 21
135.71999999999974
 31
0.0
  0
CIRCLE
  5
131
100
AcDbEntity
100
AcDbCircle
  8
0
 62
256
370
-1
 48
1.0
  6
ByLayer
 10
-18.499999999999972
 20
3.4999999999995035
 30
0.0
 40
2.6249999999999969
  0
CIRCLE
  5
132
100
AcDbEntity
100
AcDbCircle
  8
0
 62
256
370
-1
 48
1.0
  6
ByLayer
 10
162.49999999999983
 20
3.4999999999993046
 30
0.0
 40
2.6249999999999969
  0
CIRCLE
  5
133
100
AcDbEntity
100
AcDbCircle
  8
0
 62
256
370
-1
 48
1.0
  6
ByLayer
 10
-89.544999999999931
 20
101.49999999999976
 30
0.0
 40
4.04
  0
CIRCLE
  5
134
100
AcDbEntity
100
AcDbCircle
  8
0
 62
256
370
-1
 48
1.0
  6
ByLayer
 10
-101.49999999999997
 20
184.4999999999996
 30
0.0
 40
2.6249999999999969
  0
CIRCLE
  5
135
100
AcDbEntity
100
AcDbCircle
  8
0
 62
256
370
-1
 48
1.0
  6
ByLayer
 10
-101.49999999999997
 20
3.4999999999995399
 30
0.0
 40
2.6249999999999969
  0
CIRCLE
  5
136
100
AcDbEntity
100
AcDbCircle
  8
0
 62
256
370
-1
 48
1.0
  6
ByLayer
 10
79.499999999999829
 20
3.499999999999341
 30
0.0
 40
2.6249999999999969
  0
CIRCLE
  5
137
100
AcDbEntity
100
AcDbCircle
  8
0
 62
256
370
-1
 48
1.0
  6
ByLayer
 10
-89.544999999999931
 20
85.499999999999986
 30
0.0
 40
3.3500000000000001
  0
CIRCLE
  5
138
100
AcDbEntity
100
AcDbCircle
  8
0
 62
256
370
-1
 48
1.0
  6
ByLayer
 10
-184.49999999999986
 20
101.49999999999969
 30
0.0
 40
2.6249999999999969
  0
CIRCLE
  5
139
100
AcDbEntity
100
AcDbCircle
  8
0
 62
256
370
-1
 48
1.0
  6
ByLayer
 10
-184.49999999999986
 20
-79.500000000000369
 30
0.0
 40
2.6249999999999969
  0
CIRCLE
  5
13A
100
AcDbEntity
100
AcDbCircle
  8
0
 62
256
370
-1
 48
1.0
  6
ByLayer
 10
-3.5000000000000577
 20
-79.500000000000568
 30
0.0
 40
2.6249999999999969
  0
CIRCLE
  5
13B
100
AcDbEntity
100
AcDbCircle
  8
0
 62
256
370
-1
 48
1.0
  6
ByLayer
 10
-123.20499999999998
 20
184.49999999999969
 30
0.0
 40
2.0
  0
CIRCLE
  5
13C
100
AcDbEntity
100
AcDbCircle
  8
0
 62
256
370
-1
 48
1.0
  6
ByLayer
 10
-123.20499999999998
 20
3.4999999999996367
 30
0.0
 40
2.0
  0
CIRCLE
  5
13D
100
AcDbEntity
100
AcDbCircle
  8
0
 62
256
370
-1
 48
1.0
  6
ByLayer
 10
57.794999999999817
 20
3.4999999999994378
 30
0.0
 40
2.0
  0
CIRCLE
  5
13E
100
AcDbEntity
100
AcDbCircle
  8
0
 62
256
370
-1
 48
1.0
  6
ByLayer
 10
-89.544999999999931
 20
117.49999999999955
 30
0.0
 40
3.3500000000000001
  0
CIRCLE
  5
13F
100
AcDbEntity
100
AcDbCircle
  8
0
 62
256
370
-1
 48
1.0
  6
ByLayer
 10
117.45500000000007
 20
101.49999999999976
 30
0.0
 40
4.04
  0
CIRCLE
  5
140
100
AcDbEntity
100
AcDbCircle
  8
0
 62
256
370
-1
 48
1.0
  6
ByLayer
 10
117.45500000000007
 20
85.499999999999986
 30
0.0
 40
3.3500000000000001
  0
CIRCLE
  5
141
100
AcDbEntity
100
AcDbCircle
  8
0
 62
256
370
-1
 48
1.0
  6
ByLayer
 10
117.45500000000007
 20
117.49999999999955
 30
0.0
 40
3.3500000000000001
  0
CIRCLE
  5
142
100
AcDbEntity
100
AcDbCircle
  8
0
 62
256
370
-1
 48
1.0
  6
ByLayer
 10
13.955000000000069
 20
18.499999999999801
 30
0.0
 40
2.6249999999999969
  0
CIRCLE
  5
143
100
AcDbEntity
100
AcDbCircle
  8
0
 62
256
370
-1
 48
1.0
  6
ByLayer
 10
96.955000000000069
 20
101.49999999999983
 30
0.0
 40
2.6249999999999969
  0
CIRCLE
  5
144
100
AcDbEntity
100
AcDbCircle
  8
0
 62
256
370
-1
 48
1.0
  6
ByLayer
 10
96.955000000000069
 20
184.49999999999986
 30
0.0
 40
2.6249999999999969
  0
CIRCLE
  5
145
100
AcDbEntity
100
AcDbCircle
  8
0
 62
256
370
-1
 48
1.0
  6
ByLayer
 10
-69.044999999999931
 20
184.4999999999998
 30
0.0
 40
2.6249999999999969
  0
CIRCLE
  5
146
100
AcDbEntity
100
AcDbCircle
  8
0
 62
256
370
-1
 48
1.0
  6
ByLayer
 10
13.955000000000069
 20
184.4999999999998
 30
0.0
 40
2.6249999999999969
  0
CIRCLE
  5
147
100
AcDbEntity
100
AcDbCircle
  8
0
 62
256
370
-1
 48
1.0
  6
ByLayer
 10
-69.044999999999931
 20
101.49999999999979
 30
0.0
 40
2.6249999999999969
  0
CIRCLE
  5
148
100
AcDbEntity
100
AcDbCircle
  8
0
 62
256
370
-1
 48
1.0
  6
ByLayer
 10
-69.044999999999931
 20
18.499999999999787
 30
0.0
 40
2.6249999999999969
  0
CIRCLE
  5
149
100
AcDbEntity
100
AcDbCircle
  8
0
 62
256
370
-1
 48
1.0
  6
ByLayer
 10
96.955000000000069
 20
18.499999999999829
 30
0.0
 40
2.6249999999999969
  0
LINE
  5
14A
100
AcDbEntity
100
AcDbLine
  8
0
 62
256
370
-1
 48
1.0
  6
ByLayer
 10
-155.00000000000006
 20
-82.000000000000412
 30
0.0
 11
-161.50000000000011
 21
-82.000000000000398
 31
0.0
  0
LINE
  5
14B
100
AcDbEntity
100
AcDbLine
  8
0
 62
256
370
-1
 48
1.0
  6
ByLayer
 10
-161.50000000000011
 20
-82.000000000000398
 30
0.0
 11
-161.50000000000011
 21
-77.000000000000398
 31
0.0
  0
LINE
  5
14C
100
AcDbEntity
100
AcDbLine
  8
0
 62
256
370
-1
 48
1.0
  6
ByLayer
 10
-161.50000000000011
 20
-77.000000000000398
 30
0.0
 11
-150.00000000000017
 21
-77.000000000000369
 31
0.0
  0
LINE
  5
14D
100
AcDbEntity
100
AcDbLine
  8
0
 62
256
370
-1
 48
1.0
  6
ByLayer
 10
-150.00000000000017
 20
-77.000000000000369
 30
0.0
 11
-150.00000000000017
 21
-94.020869628449702
 31
0.0
  0
LINE
  5
14E
100
AcDbEntity
100
AcDbLine
  8
0
 62
256
370
-1
 48
1.0
  6
ByLayer
 10
-137.50000000000011
 20
-82.000000000000426
 30
0.0
 11
-144.00000000000023
 21
-82.000000000000398
 31
0.0
  0
LINE
  5
14F
100
AcDbEntity
100
AcDbLine
  8
0
 62
256
370
-1
 48
1.0
  6
ByLayer
 10
-144.00000000000023
 20
-82.000000000000398
 30
0.0
 11
-144.0000000000002
 21
-88.000000000000384
 31
0.0
  0
LINE
  5
150
100
AcDbEntity
100
AcDbLine
  8
0
 62
256
370
-1
 48
1.0
  6
ByLayer
 10
-144.0000000000002
 20
-88.000000000000384
 30
0.0
 11
-137.50000000000011
 21
-88.000000000000398
 31
0.0
  0
LINE
  5
151
100
AcDbEntity
100
AcDbLine
  8
0
 62
256
370
-1
 48
1.0
  6
ByLayer
 10
-137.50000000000011
 20
-88.000000000000398
 30
0.0
 11
-137.50000000000014
 21
-111.00000000000043
 31
0.0
  0
LINE
  5
152
100
AcDbEntity
100
AcDbLine
  8
0
 62
256
370
-1
 48
1.0
  6
ByLayer
 10
-137.50000000000014
 20
-111.00000000000043
 30
0.0
 11
-146.00000000000023
 21
-111.00000000000043
 31
0.0
  0
LINE
  5
153
100
AcDbEntity
100
AcDbLine
  8
0
 62
256
370
-1
 48
1.0
  6
ByLayer
 10
-146.00000000000023
 20
-111.00000000000043
 30
0.0
 11
-146.0000000000002
 21
-115.00000000000041
 31
0.0
  0
LINE
  5
154
100
AcDbEntity
100
AcDbLine
  8
0
 62
256
370
-1
 48
1.0
  6
ByLayer
 10
-146.0000000000002
 20
-115.00000000000041
 30
0.0
 11
-137.50000000000014
 21
-115.0000000000004
 31
0.0
  0
LINE
  5
155
100
AcDbEntity
100
AcDbLine
  8
0
 62
256
370
-1
 48
1.0
  6
ByLayer
 10
-161.50000000000014
 20
-155.0000000000004
 30
0.0
 11
-161.50000000000014
 21
-115.0000000000004
 31
0.0
  0
LINE
  5
156
100
AcDbEntity
100
AcDbLine
  8
0
 62
256
370
-1
 48
1.0
  6
ByLayer
 10
-161.50000000000014
 20
-115.0000000000004
 30
0.0
 11
-153.00000000000006
 21
-115.0000000000004
 31
0.0
  0
LINE
  5
157
100
AcDbEntity
100
AcDbLine
  8
0
 62
256
370
-1
 48
1.0
  6
ByLayer
 10
-153.00000000000006
 20
-115.0000000000004
 30
0.0
 11
-153.00000000000006
 21
-111.00000000000043
 31
0.0
  0
LINE
  5
158
100
AcDbEntity
100
AcDbLine
  8
0
 62
256
370
-1
 48
1.0
  6
ByLayer
 10
-153.00000000000006
 20
-111.00000000000043
 30
0.0
 11
-161.50000000000014
 21
-111.00000000000043
 31
0.0
  0
LINE
  5
159
100
AcDbEntity
100
AcDbLine
  8
0
 62
256
370
-1
 48
1.0
  6
ByLayer
 10
-161.50000000000014
 20
-111.00000000000043
 30
0.0
 11
-161.50000000000011
 21
-88.000000000000384
 31
0.0
  0
LINE
  5
15A
100
AcDbEntity
100
AcDbLine
  8
0
 62
256
370
-1
 48
1.0
  6
ByLayer
 10
-161.50000000000011
 20
-88.000000000000384
 30
0.0
 11
-155.00000000000006
 21
-88.000000000000369
 31
0.0
  0
LINE
  5
15B
100
AcDbEntity
100
AcDbLine
  8
0
 62
256
370
-1
 48
1.0
  6
ByLayer
 10
-155.00000000000006
 20
-88.000000000000369
 30
0.0
 11
-155.00000000000006
 21
-82.000000000000412
 31
0.0
  0
ARC
  5
15C
100
AcDbEntity
  8
0
 62
256
370
-1
 48
1.0
  6
ByLayer
100
AcDbCircle
 10
-149.50000000000017
 20
-100.00000000000041
 30
0.0
 40
6.0000000000000107
100
AcDbArc
 50
94.780191847199163
 51
265.21980815280057
  0
LINE
  5
15D
100
AcDbEntity
100
AcDbLine
  8
0
 62
256
370
-1
 48
1.0
  6
ByLayer
 10
-150.0000000000002
 20
-105.97913037155112
 30
0.0
 11
-150.0000000000002
 21
-115.0000000000004
 31
0.0
  0
LINE
  5
15E
100
AcDbEntity
100
AcDbLine
  8
0
 62
256
370
-1
 48
1.0
  6
ByLayer
 10
-150.0000000000002
 20
-115.0000000000004
 30
0.0
 11
-149.0000000000002
 21
-115.0000000000004
 31
0.0
  0
LINE
  5
15F
100
AcDbEntity
100
AcDbLine
  8
0
 62
256
370
-1
 48
1.0
  6
ByLayer
 10
-149.0000000000002
 20
-115.0000000000004
 30
0.0
 11
-149.0000000000002
 21
-105.97913037155112
 31
0.0
  0
ARC
  5
160
100
AcDbEntity
  8
0
 62
256
370
-1
 48
1.0
  6
ByLayer
100
AcDbCircle
 10
-149.5000000000002
 20
-100.00000000000041
 30
0.0
 40
6.0000000000000107
100
AcDbArc
 50
274.78019184719915
 51
85.219808152800852
  0
LINE
  5
161
100
AcDbEntity
100
AcDbLine
  8
0
 62
256
370
-1
 48
1.0
  6
ByLayer
 10
-149.0000000000002
 20
-94.020869628449702
 30
0.0
 11
-149.0000000000002
 21
-77.000000000000412
 31
0.0
  0
LINE
  5
162
100
AcDbEntity
100
AcDbLine
  8
0
 62
256
370
-1
 48
1.0
  6
ByLayer
 10
-149.0000000000002
 20
-77.000000000000412
 30
0.0
 11
-137.50000000000011
 21
-77.000000000000412
 31
0.0
  0
LINE
  5
163
100
AcDbEntity
100
AcDbLine
  8
0
 62
256
370
-1
 48
1.0
  6
ByLayer
 10
-137.50000000000011
 20
-77.000000000000412
 30
0.0
 11
-137.50000000000011
 21
-82.000000000000426
 31
0.0
  0
LINE
  5
164
100
AcDbEntity
100
AcDbLine
  8
0
 62
256
370
-1
 48
1.0
  6
ByLayer
 10
-131.00000000000006
 20
-82.000000000000412
 30
0.0
 11
-137.50000000000011
 21
-82.000000000000398
 31
0.0
  0
LINE
  5
165
100
AcDbEntity
100
AcDbLine
  8
0
 62
256
370
-1
 48
1.0
  6
ByLayer
 10
-137.50000000000011
 20
-77.000000000000398
 30
0.0
 11
-126.00000000000017
 21
-77.000000000000369
 31
0.0
  0
LINE
  5
166
100
AcDbEntity
100
AcDbLine
  8
0
 62
256
370
-1
 48
1.0
  6
ByLayer
 10
-126.00000000000017
 20
-77.000000000000369
 30
0.0
 11
-126.00000000000018
 21
-94.020869628449702
 31
0.0
  0
LINE
  5
167
100
AcDbEntity
100
AcDbLine
  8
0
 62
256
370
-1
 48
1.0
  6
ByLayer
 10
-113.50000000000011
 20
-82.000000000000426
 30
0.0
 11
-120.00000000000023
 21
-82.000000000000398
 31
0.0
  0
LINE
  5
168
100
AcDbEntity
100
AcDbLine
  8
0
 62
256
370
-1
 48
1.0
  6
ByLayer
 10
-120.00000000000023
 20
-82.000000000000398
 30
0.0
 11
-120.0000000000002
 21
-88.000000000000384
 31
0.0
  0
LINE
  5
169
100
AcDbEntity
100
AcDbLine
  8
0
 62
256
370
-1
 48
1.0
  6
ByLayer
 10
-120.0000000000002
 20
-88.000000000000384
 30
0.0
 11
-113.50000000000011
 21
-88.000000000000398
 31
0.0
  0
LINE
  5
16A
100
AcDbEntity
100
AcDbLine
  8
0
 62
256
370
-1
 48
1.0
  6
ByLayer
 10
-113.50000000000011
 20
-88.000000000000398
 30
0.0
 11
-113.50000000000014
 21
-111.00000000000043
 31
0.0
  0
LINE
  5
16B
100
AcDbEntity
100
AcDbLine
  8
0
 62
256
370
-1
 48
1.0
  6
ByLayer
 10
-113.50000000000014
 20
-111.00000000000043
 30
0.0
 11
-122.00000000000023
 21
-111.00000000000043
 31
0.0
  0
LINE
  5
16C
100
AcDbEntity
100
AcDbLine
  8
0
 62
256
370
-1
 48
1.0
  6
ByLayer
 10
-122.00000000000023
 20
-111.00000000000043
 30
0.0
 11
-122.0000000000002
 21
-115.00000000000041
 31
0.0
  0
LINE
  5
16D
100
AcDbEntity
100
AcDbLine
  8
0
 62
256
370
-1
 48
1.0
  6
ByLayer
 10
-122.0000000000002
 20
-115.00000000000041
 30
0.0
 11
-113.50000000000013
 21
-115.0000000000004
 31
0.0
  0
LINE
  5
16E
100
AcDbEntity
100
AcDbLine
  8
0
 62
256
370
-1
 48
1.0
  6
ByLayer
 10
-113.50000000000013
 20
-115.0000000000004
 30
0.0
 11
-113.50000000000014
 21
-155.0000000000004
 31
0.0
  0
LINE
  5
16F
100
AcDbEntity
100
AcDbLine
  8
0
 62
256
370
-1
 48
1.0
  6
ByLayer
 10
-137.50000000000014
 20
-155.0000000000004
 30
0.0
 11
-137.50000000000014
 21
-115.0000000000004
 31
0.0
  0
LINE
  5
170
100
AcDbEntity
100
AcDbLine
  8
0
 62
256
370
-1
 48
1.0
  6
ByLayer
 10
-137.50000000000014
 20
-115.0000000000004
 30
0.0
 11
-129.00000000000006
 21
-115.0000000000004
 31
0.0
  0
LINE
  5
171
100
AcDbEntity
100
AcDbLine
  8
0
 62
256
370
-1
 48
1.0
  6
ByLayer
 10
-129.00000000000006
 20
-115.0000000000004
 30
0.0
 11
-129.00000000000006
 21
-111.00000000000043
 31
0.0
  0
LINE
  5
172
100
AcDbEntity
100
AcDbLine
  8
0
 62
256
370
-1
 48
1.0
  6
ByLayer
 10
-129.00000000000006
 20
-111.00000000000043
 30
0.0
 11
-137.50000000000014
 21
-111.00000000000043
 31
0.0
  0
LINE
  5
173
100
AcDbEntity
100
AcDbLine
  8
0
 62
256
370
-1
 48
1.0
  6
ByLayer
 10
-137.50000000000011
 20
-88.000000000000384
 30
0.0
 11
-131.00000000000006
 21
-88.000000000000369
 31
0.0
  0
LINE
  5
174
100
AcDbEntity
100
AcDbLine
  8
0
 62
256
370
-1
 48
1.0
  6
ByLayer
 10
-131.00000000000006
 20
-88.000000000000369
 30
0.0
 11
-131.00000000000006
 21
-82.000000000000412
 31
0.0
  0
ARC
  5
175
100
AcDbEntity
  8
0
 62
256
370
-1
 48
1.0
  6
ByLayer
100
AcDbCircle
 10
-125.50000000000018
 20
-100.00000000000041
 30
0.0
 40
6.0000000000000107
100
AcDbArc
 50
94.780191847199163
 51
265.21980815280079
  0
LINE
  5
176
100
AcDbEntity
100
AcDbLine
  8
0
 62
256
370
-1
 48
1.0
  6
ByLayer
 10
-126.00000000000018
 20
-105.97913037155112
 30
0.0
 11
-126.0000000000002
 21
-115.0000000000004
 31
0.0
  0
LINE
  5
177
100
AcDbEntity
100
AcDbLine
  8
0
 62
256
370
-1
 48
1.0
  6
ByLayer
 10
-126.0000000000002
 20
-115.0000000000004
 30
0.0
 11
-125.0000000000002
 21
-115.0000000000004
 31
0.0
  0
LINE
  5
178
100
AcDbEntity
100
AcDbLine
  8
0
 62
256
370
-1
 48
1.0
  6
ByLayer
 10
-125.0000000000002
 20
-115.0000000000004
 30
0.0
 11
-125.0000000000002
 21
-105.97913037155112
 31
0.0
  0
ARC
  5
179
100
AcDbEntity
  8
0
 62
256
370
-1
 48
1.0
  6
ByLayer
100
AcDbCircle
 10
-125.5000000000002
 20
-100.00000000000041
 30
0.0
 40
6.0000000000000107
100
AcDbArc
 50
274.78019184719915
 51
85.219808152800709
  0
LINE
  5
17A
100
AcDbEntity
100
AcDbLine
  8
0
 62
256
370
-1
 48
1.0
  6
ByLayer
 10
-125.00000000000018
 20
-94.020869628449702
 30
0.0
 11
-125.0000000000002
 21
-77.000000000000412
 31
0.0
  0
LINE
  5
17B
100
AcDbEntity
100
AcDbLine
  8
0
 62
256
370
-1
 48
1.0
  6
ByLayer
 10
-125.0000000000002
 20
-77.000000000000412
 30
0.0
 11
-113.50000000000011
 21
-77.000000000000412
 31
0.0
  0
LINE
  5
17C
100
AcDbEntity
100
AcDbLine
  8
0
 62
256
370
-1
 48
1.0
  6
ByLayer
 10
-113.50000000000011
 20
-77.000000000000412
 30
0.0
 11
-113.50000000000011
 21
-82.000000000000426
 31
0.0
  0
CIRCLE
  5
17D
100
AcDbEntity
100
AcDbCircle
  8
0
 62
256
370
-1
 48
1.0
  6
ByLayer
 10
-133.50000000000011
 20
-118.9400000000004
 30
0.0
 40
1.9999999999999989
  0
CIRCLE
  5
17E
100
AcDbEntity
100
AcDbCircle
  8
0
 62
256
370
-1
 48
1.0
  6
ByLayer
 10
-157.50000000000011
 20
-118.9400000000004
 30
0.0
 40
1.9999999999999989
  0
CIRCLE
  5
17F
100
AcDbEntity
100
AcDbCircle
  8
0
 62
256
370
-1
 48
1.0
  6
ByLayer
 10
-117.50000000000014
 20
-118.9400000000004
 30
0.0
 40
1.9999999999999989
  0
CIRCLE
  5
180
100
AcDbEntity
100
AcDbCircle
  8
0
 62
256
370
-1
 48
1.0
  6
ByLayer
 10
-141.50000000000014
 20
-118.9400000000004
 30
0.0
 40
1.9999999999999989
  0
CIRCLE
  5
181
100
AcDbEntity
100
AcDbCircle
  8
0
 62
256
370
-1
 48
1.0
  6
ByLayer
 10
-125.50000000000014
 20
-130.0000000000004
 30
0.0
 40
1.575000000000004
  0
CIRCLE
  5
182
100
AcDbEntity
100
AcDbCircle
  8
0
 62
256
370
-1
 48
1.0
  6
ByLayer
 10
-149.50000000000014
 20
-130.0000000000004
 30
0.0
 40
1.575000000000004
  0
CIRCLE
  5
183
100
AcDbEntity
100
AcDbCircle
  8
0
 62
256
370
-1
 48
1.0
  6
ByLayer
 10
-125.50000000000014
 20
-145.0000000000004
 30
0.0
 40
1.574999999999996
  0
CIRCLE
  5
184
100
AcDbEntity
100
AcDbCircle
  8
0
 62
256
370
-1
 48
1.0
  6
ByLayer
 10
-149.50000000000014
 20
-145.0000000000004
 30
0.0
 40
1.574999999999996
  0
LINE
  5
185
100
AcDbEntity
100
AcDbLine
  8
0
 62
256
370
-1
 48
1.0
  6
ByLayer
 10
-113.50000000000014
 20
-111.0000000000004
 30
0.0
 11
-105.00000000000007
 21
-111.0000000000004
 31
0.0
  0
LINE
  5
186
100
AcDbEntity
100
AcDbLine
  8
0
 62
256
370
-1
 48
1.0
  6
ByLayer
 10
-105.00000000000007
 20
-111.0000000000004
 30
0.0
 11
-105.00000000000006
 21
-115.0000000000004
 31
0.0
  0
LINE
  5
187
100
AcDbEntity
100
AcDbLine
  8
0
 62
256
370
-1
 48
1.0
  6
ByLayer
 10
-105.00000000000006
 20
-115.0000000000004
 30
0.0
 11
-113.50000000000014
 21
-115.0000000000004
 31
0.0
  0
LINE
  5
188
100
AcDbEntity
100
AcDbLine
  8
0
 62
256
370
-1
 48
1.0
  6
ByLayer
 10
-89.500000000000142
 20
-115.0000000000004
 30
0.0
 11
-98.000000000000227
 21
-115.0000000000004
 31
0.0
  0
LINE
  5
189
100
AcDbEntity
100
AcDbLine
  8
0
 62
256
370
-1
 48
1.0
  6
ByLayer
 10
-98.000000000000227
 20
-115.0000000000004
 30
0.0
 11
-98.000000000000227
 21
-111.0000000000004
 31
0.0
  0
LINE
  5
18A
100
AcDbEntity
100
AcDbLine
  8
0
 62
256
370
-1
 48
1.0
  6
ByLayer
 10
-98.000000000000227
 20
-111.0000000000004
 30
0.0
 11
-89.500000000000142
 21
-111.0000000000004
 31
0.0
  0
LINE
  5
18B
100
AcDbEntity
100
AcDbLine
  8
0
 62
256
370
-1
 48
1.0
  6
ByLayer
 10
-89.500000000000142
 20
-88.000000000000284
 30
0.0
 11
-96.000000000000213
 21
-88.000000000000284
 31
0.0
  0
LINE
  5
18C
100
AcDbEntity
100
AcDbLine
  8
0
 62
256
370
-1
 48
1.0
  6
ByLayer
 10
-96.000000000000213
 20
-88.000000000000284
 30
0.0
 11
-96.000000000000199
 21
-82.000000000000284
 31
0.0
  0
LINE
  5
18D
100
AcDbEntity
100
AcDbLine
  8
0
 62
256
370
-1
 48
1.0
  6
ByLayer
 10
-96.000000000000199
 20
-82.000000000000284
 30
0.0
 11
-89.500000000000142
 21
-82.000000000000284
 31
0.0
  0
LINE
  5
18E
100
AcDbEntity
100
AcDbLine
  8
0
 62
256
370
-1
 48
1.0
  6
ByLayer
 10
-89.500000000000142
 20
-82.000000000000284
 30
0.0
 11
-89.500000000000142
 21
-77.000000000000398
 31
0.0
  0
LINE
  5
18F
100
AcDbEntity
100
AcDbLine
  8
0
 62
256
370
-1
 48
1.0
  6
ByLayer
 10
-89.500000000000142
 20
-77.000000000000398
 30
0.0
 11
-101.00000000000009
 21
-77.000000000000398
 31
0.0
  0
LINE
  5
190
100
AcDbEntity
100
AcDbLine
  8
0
 62
256
370
-1
 48
1.0
  6
ByLayer
 10
-101.00000000000009
 20
-77.000000000000398
 30
0.0
 11
-101.00000000000009
 21
-94.020869628449702
 31
0.0
  0
ARC
  5
191
100
AcDbEntity
  8
0
 62
256
370
-1
 48
1.0
  6
ByLayer
100
AcDbCircle
 10
-101.50000000000009
 20
-100.0000000000004
 30
0.0
 40
5.9999999999999964
100
AcDbArc
 50
274.78019184719921
 51
85.219808152800837
  0
LINE
  5
192
100
AcDbEntity
100
AcDbLine
  8
0
 62
256
370
-1
 48
1.0
  6
ByLayer
 10
-101.00000000000009
 20
-105.97913037155109
 30
0.0
 11
-101.00000000000007
 21
-115.0000000000004
 31
0.0
  0
LINE
  5
193
100
AcDbEntity
100
AcDbLine
  8
0
 62
256
370
-1
 48
1.0
  6
ByLayer
 10
-101.00000000000007
 20
-115.0000000000004
 30
0.0
 11
-102.00000000000006
 21
-115.0000000000004
 31
0.0
  0
LINE
  5
194
100
AcDbEntity
100
AcDbLine
  8
0
 62
256
370
-1
 48
1.0
  6
ByLayer
 10
-102.00000000000006
 20
-115.0000000000004
 30
0.0
 11
-102.00000000000007
 21
-105.97913037155109
 31
0.0
  0
ARC
  5
195
100
AcDbEntity
  8
0
 62
256
370
-1
 48
1.0
  6
ByLayer
100
AcDbCircle
 10
-101.50000000000009
 20
-100.0000000000004
 30
0.0
 40
5.9999999999999964
100
AcDbArc
 50
94.780191847199163
 51
265.21980815280097
  0
LINE
  5
196
100
AcDbEntity
100
AcDbLine
  8
0
 62
256
370
-1
 48
1.0
  6
ByLayer
 10
-102.00000000000009
 20
-94.020869628449702
 30
0.0
 11
-102.00000000000009
 21
-77.000000000000398
 31
0.0
  0
LINE
  5
197
100
AcDbEntity
100
AcDbLine
  8
0
 62
256
370
-1
 48
1.0
  6
ByLayer
 10
-102.00000000000009
 20
-77.000000000000398
 30
0.0
 11
-113.50000000000014
 21
-77.000000000000398
 31
0.0
  0
LINE
  5
198
100
AcDbEntity
100
AcDbLine
  8
0
 62
256
370
-1
 48
1.0
  6
ByLayer
 10
-113.50000000000014
 20
-82.000000000000284
 30
0.0
 11
-107.00000000000009
 21
-82.000000000000284
 31
0.0
  0
LINE
  5
199
100
AcDbEntity
100
AcDbLine
  8
0
 62
256
370
-1
 48
1.0
  6
ByLayer
 10
-107.00000000000009
 20
-82.000000000000284
 30
0.0
 11
-107.00000000000009
 21
-88.000000000000284
 31
0.0
  0
LINE
  5
19A
100
AcDbEntity
100
AcDbLine
  8
0
 62
256
370
-1
 48
1.0
  6
ByLayer
 10
-107.00000000000009
 20
-88.000000000000284
 30
0.0
 11
-113.50000000000014
 21
-88.000000000000284
 31
0.0
  0
LINE
  5
19B
100
AcDbEntity
100
AcDbLine
  8
0
 62
256
370
-1
 48
1.0
  6
ByLayer
 10
-65.500000000000142
 20
-155.0000000000004
 30
0.0
 11
-65.500000000000142
 21
-115.0000000000004
 31
0.0
  0
LINE
  5
19C
100
AcDbEntity
100
AcDbLine
  8
0
 62
256
370
-1
 48
1.0
  6
ByLayer
 10
-65.500000000000142
 20
-115.0000000000004
 30
0.0
 11
-74.000000000000227
 21
-115.0000000000004
 31
0.0
  0
LINE
  5
19D
100
AcDbEntity
100
AcDbLine
  8
0
 62
256
370
-1
 48
1.0
  6
ByLayer
 10
-74.000000000000227
 20
-115.0000000000004
 30
0.0
 11
-74.000000000000227
 21
-111.0000000000004
 31
0.0
  0
LINE
  5
19E
100
AcDbEntity
100
AcDbLine
  8
0
 62
256
370
-1
 48
1.0
  6
ByLayer
 10
-74.000000000000227
 20
-111.0000000000004
 30
0.0
 11
-65.500000000000142
 21
-111.0000000000004
 31
0.0
  0
LINE
  5
19F
100
AcDbEntity
100
AcDbLine
  8
0
 62
256
370
-1
 48
1.0
  6
ByLayer
 10
-65.500000000000142
 20
-111.0000000000004
 30
0.0
 11
-65.500000000000142
 21
-88.000000000000284
 31
0.0
  0
LINE
  5
1A0
100
AcDbEntity
100
AcDbLine
  8
0
 62
256
370
-1
 48
1.0
  6
ByLayer
 10
-65.500000000000142
 20
-88.000000000000284
 30
0.0
 11
-72.000000000000213
 21
-88.000000000000284
 31
0.0
  0
LINE
  5
1A1
100
AcDbEntity
100
AcDbLine
  8
0
 62
256
370
-1
 48
1.0
  6
ByLayer
 10
-72.000000000000213
 20
-88.000000000000284
 30
0.0
 11
-72.000000000000199
 21
-82.000000000000284
 31
0.0
  0
LINE
  5
1A2
100
AcDbEntity
100
AcDbLine
  8
0
 62
256
370
-1
 48
1.0
  6
ByLayer
 10
-72.000000000000199
 20
-82.000000000000284
 30
0.0
 11
-65.500000000000142
 21
-82.000000000000284
 31
0.0
  0
LINE
  5
1A3
100
AcDbEntity
100
AcDbLine
  8
0
 62
256
370
-1
 48
1.0
  6
ByLayer
 10
-65.500000000000142
 20
-82.000000000000284
 30
0.0
 11
-65.500000000000142
 21
-77.000000000000398
 31
0.0
  0
LINE
  5
1A4
100
AcDbEntity
100
AcDbLine
  8
0
 62
256
370
-1
 48
1.0
  6
ByLayer
 10
-65.500000000000142
 20
-77.000000000000398
 30
0.0
 11
-77.000000000000085
 21
-77.000000000000398
 31
0.0
  0
LINE
  5
1A5
100
AcDbEntity
100
AcDbLine
  8
0
 62
256
370
-1
 48
1.0
  6
ByLayer
 10
-77.000000000000085
 20
-77.000000000000398
 30
0.0
 11
-77.000000000000085
 21
-94.020869628449702
 31
0.0
  0
ARC
  5
1A6
100
AcDbEntity
  8
0
 62
256
370
-1
 48
1.0
  6
ByLayer
100
AcDbCircle
 10
-77.500000000000085
 20
-100.0000000000004
 30
0.0
 40
5.9999999999999964
100
AcDbArc
 50
274.78019184719921
 51
85.219808152800837
  0
LINE
  5
1A7
100
AcDbEntity
100
AcDbLine
  8
0
 62
256
370
-1
 48
1.0
  6
ByLayer
 10
-77.000000000000085
 20
-105.97913037155109
 30
0.0
 11
-77.000000000000071
 21
-115.0000000000004
 31
0.0
  0
LINE
  5
1A8
100
AcDbEntity
100
AcDbLine
  8
0
 62
256
370
-1
 48
1.0
  6
ByLayer
 10
-77.000000000000071
 20
-115.0000000000004
 30
0.0
 11
-78.000000000000057
 21
-115.0000000000004
 31
0.0
  0
LINE
  5
1A9
100
AcDbEntity
100
AcDbLine
  8
0
 62
256
370
-1
 48
1.0
  6
ByLayer
 10
-78.000000000000057
 20
-115.0000000000004
 30
0.0
 11
-78.000000000000071
 21
-105.97913037155109
 31
0.0
  0
ARC
  5
1AA
100
AcDbEntity
  8
0
 62
256
370
-1
 48
1.0
  6
ByLayer
100
AcDbCircle
 10
-77.500000000000085
 20
-100.0000000000004
 30
0.0
 40
5.9999999999999964
100
AcDbArc
 50
94.780191847199163
 51
265.21980815280097
  0
LINE
  5
1AB
100
AcDbEntity
100
AcDbLine
  8
0
 62
256
370
-1
 48
1.0
  6
ByLayer
 10
-78.000000000000085
 20
-94.020869628449702
 30
0.0
 11
-78.000000000000085
 21
-77.000000000000398
 31
0.0
  0
LINE
  5
1AC
100
AcDbEntity
100
AcDbLine
  8
0
 62
256
370
-1
 48
1.0
  6
ByLayer
 10
-78.000000000000085
 20
-77.000000000000398
 30
0.0
 11
-89.500000000000142
 21
-77.000000000000398
 31
0.0
  0
LINE
  5
1AD
100
AcDbEntity
100
AcDbLine
  8
0
 62
256
370
-1
 48
1.0
  6
ByLayer
 10
-89.500000000000142
 20
-82.000000000000284
 30
0.0
 11
-83.000000000000085
 21
-82.000000000000284
 31
0.0
  0
LINE
  5
1AE
100
AcDbEntity
100
AcDbLine
  8
0
 62
256
370
-1
 48
1.0
  6
ByLayer
 10
-83.000000000000085
 20
-82.000000000000284
 30
0.0
 11
-83.000000000000085
 21
-88.000000000000284
 31
0.0
  0
LINE
  5
1AF
100
AcDbEntity
100
AcDbLine
  8
0
 62
256
370
-1
 48
1.0
  6
ByLayer
 10
-83.000000000000085
 20
-88.000000000000284
 30
0.0
 11
-89.500000000000142
 21
-88.000000000000284
 31
0.0
  0
LINE
  5
1B0
100
AcDbEntity
100
AcDbLine
  8
0
 62
256
370
-1
 48
1.0
  6
ByLayer
 10
-89.500000000000142
 20
-88.000000000000284
 30
0.0
 11
-89.500000000000142
 21
-111.0000000000004
 31
0.0
  0
LINE
  5
1B1
100
AcDbEntity
100
AcDbLine
  8
0
 62
256
370
-1
 48
1.0
  6
ByLayer
 10
-89.500000000000142
 20
-111.0000000000004
 30
0.0
 11
-81.000000000000071
 21
-111.0000000000004
 31
0.0
  0
LINE
  5
1B2
100
AcDbEntity
100
AcDbLine
  8
0
 62
256
370
-1
 48
1.0
  6
ByLayer
 10
-81.000000000000071
 20
-111.0000000000004
 30
0.0
 11
-81.000000000000057
 21
-115.0000000000004
 31
0.0
  0
LINE
  5
1B3
100
AcDbEntity
100
AcDbLine
  8
0
 62
256
370
-1
 48
1.0
  6
ByLayer
 10
-81.000000000000057
 20
-115.0000000000004
 30
0.0
 11
-89.500000000000142
 21
-115.0000000000004
 31
0.0
  0
LINE
  5
1B4
100
AcDbEntity
100
AcDbLine
  8
0
 62
256
370
-1
 48
1.0
  6
ByLayer
 10
-89.500000000000142
 20
-115.0000000000004
 30
0.0
 11
-89.500000000000142
 21
-155.0000000000004
 31
0.0
  0
CIRCLE
  5
1B5
100
AcDbEntity
100
AcDbCircle
  8
0
 62
256
370
-1
 48
1.0
  6
ByLayer
 10
-93.500000000000142
 20
-118.9400000000004
 30
0.0
 40
1.9999999999999989
  0
CIRCLE
  5
1B6
100
AcDbEntity
100
AcDbCircle
  8
0
 62
256
370
-1
 48
1.0
  6
ByLayer
 10
-69.500000000000142
 20
-118.9400000000004
 30
0.0
 40
1.9999999999999989
  0
CIRCLE
  5
1B7
100
AcDbEntity
100
AcDbCircle
  8
0
 62
256
370
-1
 48
1.0
  6
ByLayer
 10
-109.50000000000014
 20
-118.9400000000004
 30
0.0
 40
1.9999999999999989
  0
CIRCLE
  5
1B8
100
AcDbEntity
100
AcDbCircle
  8
0
 62
256
370
-1
 48
1.0
  6
ByLayer
 10
-85.500000000000142
 20
-118.9400000000004
 30
0.0
 40
1.9999999999999989
  0
CIRCLE
  5
1B9
100
AcDbEntity
100
AcDbCircle
  8
0
 62
256
370
-1
 48
1.0
  6
ByLayer
 10
-101.50000000000014
 20
-130.0000000000004
 30
0.0
 40
1.575000000000004
  0
CIRCLE
  5
1BA
100
AcDbEntity
100
AcDbCircle
  8
0
 62
256
370
-1
 48
1.0
  6
ByLayer
 10
-77.500000000000142
 20
-130.0000000000004
 30
0.0
 40
1.575000000000004
  0
CIRCLE
  5
1BB
100
AcDbEntity
100
AcDbCircle
  8
0
 62
256
370
-1
 48
1.0
  6
ByLayer
 10
-101.50000000000014
 20
-145.0000000000004
 30
0.0
 40
1.574999999999996
  0
CIRCLE
  5
1BC
100
AcDbEntity
100
AcDbCircle
  8
0
 62
256
370
-1
 48
1.0
  6
ByLayer
 10
-77.500000000000142
 20
-145.0000000000004
 30
0.0
 40
1.574999999999996
  0
ENDSEC
  0
SECTION
  2
OBJECTS
  0
DICTIONARY
  5
C
100
AcDbDictionary
280
0
281
1
  3
ACAD_GROUP
350
D
  3
ACAD_LAYOUT
350
1A
  3
ACAD_MLINESTYLE
350
17
  3
ACAD_PLOTSETTINGS
350
19
  3
ACAD_PLOTSTYLENAME
350
E
  3
AcDbVariableDictionary
350
1BD
  3
QCAD_OBJECTS
350
1BE
  0
DICTIONARY
  5
D
100
AcDbDictionary
280
0
281
1
  0
ACDBDICTIONARYWDFLT
  5
E
100
AcDbDictionary
281
1
  3
Normal
350
F
100
AcDbDictionaryWithDefault
340
F
  0
ACDBPLACEHOLDER
  5
F
  0
DICTIONARY
  5
17
100
AcDbDictionary
280
0
281
1
  3
Standard
350
18
  0
MLINESTYLE
  5
18
100
AcDbMlineStyle
  2
STANDARD
 70
0
  3

 62
256
 51
90.0
 52
90.0
 71
2
 49
0.5
 62
256
  6
BYLAYER
 49
-0.5
 62
256
  6
BYLAYER
  0
DICTIONARY
  5
19
100
AcDbDictionary
280
0
281
1
  0
DICTIONARY
  5
1A
100
AcDbDictionary
281
1
  3
Layout1
350
1E
  3
Layout2
350
26
  3
Model
350
22
  0
LAYOUT
  5
1E
100
AcDbPlotSettings
  1

  2
none_device
  4

  6

 40
0.0
 41
0.0
 42
0.0
 43
0.0
 44
0.0
 45
0.0
 46
0.0
 47
0.0
 48
0.0
 49
0.0
140
0.0
141
0.0
142
1.0
143
1.0
 70
688
 72
0
 73
0
 74
5
  7

 75
16
147
1.0
148
0.0
149
0.0
100
AcDbLayout
  1
Layout1
 70
1
 71
1
 10
0.0
 20
0.0
 11
420.0
 21
297.0
 12
0.0
 22
0.0
 32
0.0
 14
100000000000000000000.0
 24
100000000000000000000.0
 34
100000000000000000000.0
 15
-100000000000000000000.0
 25
-100000000000000000000.0
 35
-100000000000000000000.0
146
0.0
 13
0.0
 23
0.0
 33
0.0
 16
1.0
 26
0.0
 36
0.0
 17
0.0
 27
1.0
 37
0.0
 76
0
330
1B
  0
LAYOUT
  5
22
100
AcDbPlotSettings
  1

  2
none_device
  4

  6

 40
0.0
 41
0.0
 42
0.0
 43
0.0
 44
0.0
 45
0.0
 46
0.0
 47
0.0
 48
0.0
 49
0.0
140
0.0
141
0.0
142
1.0
143
1.0
 70
1712
 72
0
 73
0
 74
0
  7

 75
0
147
1.0
148
0.0
149
0.0
100
AcDbLayout
  1
Model
 70
1
 71
0
 10
0.0
 20
0.0
 11
12.0
 21
9.0
 12
0.0
 22
0.0
 32
0.0
 14
0.0
 24
0.0
 34
0.0
 15
0.0
 25
0.0
 35
0.0
146
0.0
 13
0.0
 23
0.0
 33
0.0
 16
1.0
 26
0.0
 36
0.0
 17
0.0
 27
1.0
 37
0.0
 76
0
330
1F
  0
LAYOUT
  5
26
100
AcDbPlotSettings
  1

  2
none_device
  4

  6

 40
0.0
 41
0.0
 42
0.0
 43
0.0
 44
0.0
 45
0.0
 46
0.0
 47
0.0
 48
0.0
 49
0.0
140
0.0
141
0.0
142
1.0
143
1.0
 70
688
 72
0
 73
0
 74
5
  7

 75
16
147
1.0
148
0.0
149
0.0
100
AcDbLayout
  1
Layout2
 70
1
 71
2
 10
0.0
 20
0.0
 11
12.0
 21
9.0
 12
0.0
 22
0.0
 32
0.0
 14
0.0
 24
0.0
 34
0.0
 15
0.0
 25
0.0
 35
0.0
146
0.0
 13
0.0
 23
0.0
 33
0.0
 16
1.0
 26
0.0
 36
0.0
 17
0.0
 27
1.0
 37
0.0
 76
0
330
23
  0
DICTIONARY
  5
1BD
100
AcDbDictionary
281
1
  3
DIMASSOC
350
1C0
  3
HIDETEXT
350
1BF
  0
DICTIONARYVAR
  5
1BF
100
DictionaryVariables
280
0
  1
2
  0
DICTIONARYVAR
  5
1C0
100
DictionaryVariables
280
0
  1
1
  0
DICTIONARY
  5
1BE
100
AcDbDictionary
281
1
  3
ColorSettings/BackgroundColor
350
1C1
  3
ColorSettings/ColorMode
350
1C2
  3
Grid/DisplayGrid00
350
1C3
  3
Grid/DisplayGrid01
350
1C4
  3
Grid/DisplayGrid02
350
1C5
  3
Grid/DisplayGrid03
350
1C6
  3
Grid/GridSpacingX00
350
1C7
  3
Grid/GridSpacingX01
350
1C8
  3
Grid/GridSpacingX02
350
1C9
  3
Grid/GridSpacingX03
350
1CA
  3
Grid/GridSpacingY00
350
1CB
  3
Grid/GridSpacingY01
350
1CC
  3
Grid/GridSpacingY02
350
1CD
  3
Grid/GridSpacingY03
350
1CE
  3
Grid/IsometricGrid00
350
1CF
  3
Grid/IsometricGrid01
350
1D0
  3
Grid/IsometricGrid02
350
1D1
  3
Grid/IsometricGrid03
350
1D2
  3
Grid/IsometricProjection00
350
1D3
  3
Grid/IsometricProjection01
350
1D4
  3
Grid/IsometricProjection02
350
1D5
  3
Grid/IsometricProjection03
350
1D6
  3
Grid/MetaGridSpacingX00
350
1D7
  3
Grid/MetaGridSpacingX01
350
1D8
  3
Grid/MetaGridSpacingX02
350
1D9
  3
Grid/MetaGridSpacingX03
350
1DA
  3
Grid/MetaGridSpacingY00
350
1DB
  3
Grid/MetaGridSpacingY01
350
1DC
  3
Grid/MetaGridSpacingY02
350
1DD
  3
Grid/MetaGridSpacingY03
350
1DE
  3
MultiPageSettings/Columns
350
1DF
  3
MultiPageSettings/GlueMarginsBottom
350
1E0
  3
MultiPageSettings/GlueMarginsLeft
350
1E1
  3
MultiPageSettings/GlueMarginsRight
350
1E2
  3
MultiPageSettings/GlueMarginsTop
350
1E3
  3
MultiPageSettings/PrintCropMarks
350
1E4
  3
MultiPageSettings/Rows
350
1E5
  3
PageSettings/OffsetX
350
1E6
  3
PageSettings/OffsetY
350
1E7
  3
PageSettings/PageOrientation
350
1E8
  3
PageSettings/PaperHeight
350
1E9
  3
PageSettings/PaperWidth
350
1EA
  3
PageSettings/Scale
350
1EB
  3
PageSettings/ShowPaperBorders
350
1EC
  3
QCADVersion
350
1ED
  3
UnitSettings/PaperUnit
350
1EE
  3
ViewportCenter
350
1EF
  3
ViewportHeight
350
1F0
  3
ViewportWidth
350
1F1
  0
XRECORD
  5
1C1
330
1BE
100
AcDbXrecord
280
1
1000
White
  0
XRECORD
  5
1C2
330
1BE
100
AcDbXrecord
280
1
1000
FullColor
  0
XRECORD
  5
1C3
330
1BE
100
AcDbXrecord
280
1
290
1
  0
XRECORD
  5
1C4
330
1BE
100
AcDbXrecord
280
1
290
1
  0
XRECORD
  5
1C5
330
1BE
100
AcDbXrecord
280
1
290
1
  0
XRECORD
  5
1C6
330
1BE
100
AcDbXrecord
280
1
290
1
  0
XRECORD
  5
1C7
330
1BE
100
AcDbXrecord
280
1
1000
auto
  0
XRECORD
  5
1C8
330
1BE
100
AcDbXrecord
280
1
1000
auto
  0
XRECORD
  5
1C9
330
1BE
100
AcDbXrecord
280
1
1000
auto
  0
XRECORD
  5
1CA
330
1BE
100
AcDbXrecord
280
1
1000
auto
  0
XRECORD
  5
1CB
330
1BE
100
AcDbXrecord
280
1
1000
auto
  0
XRECORD
  5
1CC
330
1BE
100
AcDbXrecord
280
1
1000
auto
  0
XRECORD
  5
1CD
330
1BE
100
AcDbXrecord
280
1
1000
auto
  0
XRECORD
  5
1CE
330
1BE
100
AcDbXrecord
280
1
1000
auto
  0
XRECORD
  5
1CF
330
1BE
100
AcDbXrecord
280
1
290
0
  0
XRECORD
  5
1D0
330
1BE
100
AcDbXrecord
280
1
290
0
  0
XRECORD
  5
1D1
330
1BE
100
AcDbXrecord
280
1
290
0
  0
XRECORD
  5
1D2
330
1BE
100
AcDbXrecord
280
1
290
0
  0
XRECORD
  5
1D3
330
1BE
100
AcDbXrecord
280
1
 90
0
  0
XRECORD
  5
1D4
330
1BE
100
AcDbXrecord
280
1
 90
0
  0
XRECORD
  5
1D5
330
1BE
100
AcDbXrecord
280
1
 90
0
  0
XRECORD
  5
1D6
330
1BE
100
AcDbXrecord
280
1
 90
0
  0
XRECORD
  5
1D7
330
1BE
100
AcDbXrecord
280
1
1000
auto
  0
XRECORD
  5
1D8
330
1BE
100
AcDbXrecord
280
1
1000
auto
  0
XRECORD
  5
1D9
330
1BE
100
AcDbXrecord
280
1
1000
auto
  0
XRECORD
  5
1DA
330
1BE
100
AcDbXrecord
280
1
1000
auto
  0
XRECORD
  5
1DB
330
1BE
100
AcDbXrecord
280
1
1000
auto
  0
XRECORD
  5
1DC
330
1BE
100
AcDbXrecord
280
1
1000
auto
  0
XRECORD
  5
1DD
330
1BE
100
AcDbXrecord
280
1
1000
auto
  0
XRECORD
  5
1DE
330
1BE
100
AcDbXrecord
280
1
1000
auto
  0
XRECORD
  5
1DF
330
1BE
100
AcDbXrecord
280
1
 90
1
  0
XRECORD
  5
1E0
330
1BE
100
AcDbXrecord
280
1
 40
10.0
  0
XRECORD
  5
1E1
330
1BE
100
AcDbXrecord
280
1
 40
10.0
  0
XRECORD
  5
1E2
330
1BE
100
AcDbXrecord
280
1
 40
10.0
  0
XRECORD
  5
1E3
330
1BE
100
AcDbXrecord
280
1
 40
10.0
  0
XRECORD
  5
1E4
330
1BE
100
AcDbXrecord
280
1
290
0
  0
XRECORD
  5
1E5
330
1BE
100
AcDbXrecord
280
1
 90
1
  0
XRECORD
  5
1E6
330
1BE
100
AcDbXrecord
280
1
 40
0.0
  0
XRECORD
  5
1E7
330
1BE
100
AcDbXrecord
280
1
 40
0.0
  0
XRECORD
  5
1E8
330
1BE
100
AcDbXrecord
280
1
1000
Portrait
  0
XRECORD
  5
1E9
330
1BE
100
AcDbXrecord
280
1
 40
297.0
  0
XRECORD
  5
1EA
330
1BE
100
AcDbXrecord
280
1
 40
210.0
  0
XRECORD
  5
1EB
330
1BE
100
AcDbXrecord
280
1
1000
1:1
  0
XRECORD
  5
1EC
330
1BE
100
AcDbXrecord
280
1
290
1
  0
XRECORD
  5
1ED
330
1BE
100
AcDbXrecord
280
1
1000
3.15.2
  0
XRECORD
  5
1EE
330
1BE
100
AcDbXrecord
280
1
 90
4
  0
XRECORD
  5
1F0
330
1BE
100
AcDbXrecord
280
1
 40
384.31151035322847
  0
XRECORD
  5
1F1
330
1BE
100
AcDbXrecord
280
1
 40
629.63550548112175
  0
ENDSEC
  0
EOF
