<?xml version="1.0" encoding="UTF-8" standalone="no"?>
<!-- Created with Inkscape (http://www.inkscape.org/) -->

<svg
   xmlns:dc="http://purl.org/dc/elements/1.1/"
   xmlns:cc="http://creativecommons.org/ns#"
   xmlns:rdf="http://www.w3.org/1999/02/22-rdf-syntax-ns#"
   xmlns:svg="http://www.w3.org/2000/svg"
   xmlns="http://www.w3.org/2000/svg"
   xmlns:sodipodi="http://sodipodi.sourceforge.net/DTD/sodipodi-0.dtd"
   xmlns:inkscape="http://www.inkscape.org/namespaces/inkscape"
   width="384mm"
   height="384mm"
   viewBox="0 0 1360.6299 1360.6299"
   id="svg5780"
   version="1.1"
   inkscape:version="0.91 r13725"
   sodipodi:docname="thin_acrylic_x4.svg">
  <defs
     id="defs5782">
    <marker
       orient="auto"
       id="DistanceX"
       style="overflow:visible"
       refX="0.0"
       refY="0.0">
      <path
         id="path8027"
         d="M 3,-3 L -3,3 M 0,-5 L  0,5"
         style="stroke:#000000; stroke-width:0.5" />
    </marker>
    <pattern
       id="Hatch"
       x="0"
       y="0"
       patternUnits="userSpaceOnUse"
       width="8"
       height="8">
      <path
         id="path8030"
         d="M8 4 l-4,4"
         stroke-width="0.25"
         stroke="#000000"
         linecap="square" />
      <path
         id="path8032"
         d="M6 2 l-4,4"
         stroke-width="0.25"
         stroke="#000000"
         linecap="square" />
      <path
         id="path8034"
         d="M4 0 l-4,4"
         stroke-width="0.25"
         stroke="#000000"
         linecap="square" />
    </pattern>
    <symbol
       id="*Model_Space" />
    <symbol
       id="*Paper_Space" />
    <symbol
       id="*Paper_Space0" />
    <symbol
       id="crane_flap">
      <path
         id="path8040"
         d="M -308.001969,928.346457 A 5.580709,5.580709 -0.000000 1 0 -319.163386,928.346457 5.580709,5.580709 -0.000000 1 0 -308.001969,928.346457 z"
         style="stroke:#000000;fill:none;stroke-linecap: round" />
      <path
         id="path8042"
         d="M -141.732283,928.346457 A 17.716535,17.716535 -0.000000 1 0 -177.165354,928.346457 17.716535,17.716535 -0.000000 1 0 -141.732283,928.346457 z"
         style="stroke:#000000;fill:none;stroke-linecap: round" />
      <path
         id="path8044"
         d="M 0.000000,898.228346 L -627.165354,898.228346 L -627.165354,1052.362205 L 0.000000,1052.362205 L 0.000000,898.228346 z"
         style="stroke:#000000;fill:none;stroke-linecap: round" />
      <path
         id="path8046"
         d="M -450.000000,928.346457 A 17.716535,17.716535 -0.000000 1 0 -485.433071,928.346457 17.716535,17.716535 -0.000000 1 0 -450.000000,928.346457 z"
         style="stroke:#000000;fill:none;stroke-linecap: round" />
    </symbol>
    <symbol
       id="p2">
      <path
         id="path8049"
         d="M 0.000000,2412.992126 0.000000,1052.362205"
         style="stroke:#000000;fill:none;stroke-linecap: round" />
      <path
         id="path8051"
         d="M 0.000000,1052.362205 1360.629921,1052.362205"
         style="stroke:#000000;fill:none;stroke-linecap: round" />
      <path
         id="path8053"
         d="M 1360.629921,1052.362205 1360.629921,2412.992126"
         style="stroke:#000000;fill:none;stroke-linecap: round" />
      <path
         id="path8055"
         d="M 1360.629921,2412.992126 0.000000,2412.992126"
         style="stroke:#000000;fill:none;stroke-linecap: round" />
    </symbol>
    <symbol
       id="carrier_window">
      <path
         id="path8058"
         d="M 41.988189,1229.527559 L 41.988189,1052.362205 L 0.000000,1052.362205 L 0.000000,1707.874016 L 59.527559,1707.874016 L 59.527559,1728.708661 L 119.055118,1728.708661 L 119.055118,1707.874016 L 178.582677,1707.874016 L 178.582677,1229.527559 L 202.393701,1229.527559 L 202.393701,1052.362205 L 53.149606,1052.362205 L 53.149606,1229.527559 L 41.988189,1229.527559 z"
         style="stroke:#000000;fill:none;stroke-linecap: round" />
    </symbol>
    <symbol
       id="door">
      <path
         id="path8061"
         d="M 0.000000,1052.362205 L -699.094488,1052.362205 L -699.094488,1264.960630 L -681.377953,1264.960630 L -681.377953,1229.527559 L -670.216535,1229.527559 L -670.216535,1666.204724 L -28.877953,1666.204724 L -28.877953,1229.527559 L -17.716535,1229.527559 L -17.716535,1264.960630 L 0.000000,1264.960630 L 0.000000,1052.362205 z"
         style="stroke:#000000;fill:none;stroke-linecap: round" />
    </symbol>
    <marker
       orient="auto"
       id="DistanceX-8"
       style="overflow:visible"
       refX="0.0"
       refY="0.0">
      <path
         id="path4870"
         d="M 3,-3 L -3,3 M 0,-5 L  0,5"
         style="stroke:#000000; stroke-width:0.5" />
    </marker>
    <pattern
       id="Hatch-6"
       x="0"
       y="0"
       patternUnits="userSpaceOnUse"
       width="8"
       height="8">
      <path
         id="path4873"
         d="M8 4 l-4,4"
         stroke-width="0.25"
         stroke="#000000"
         linecap="square" />
      <path
         id="path4875"
         d="M6 2 l-4,4"
         stroke-width="0.25"
         stroke="#000000"
         linecap="square" />
      <path
         id="path4877"
         d="M4 0 l-4,4"
         stroke-width="0.25"
         stroke="#000000"
         linecap="square" />
    </pattern>
    <symbol
       id="*Model_Space-2" />
    <symbol
       id="*Paper_Space-5" />
    <symbol
       id="*Paper_Space0-7" />
    <symbol
       id="crane_flap-7">
      <path
         id="path4883"
         d="M 0.000000,898.228346 L -627.165354,898.228346 L -627.165354,1052.362205 L 0.000000,1052.362205 L 0.000000,898.228346 z"
         style="stroke:#000000;fill:none;stroke-linecap: round" />
      <path
         id="path4885"
         d="M -439.370079,935.433071 A 17.716535,17.716535 -0.000000 1 0 -474.803150,935.433071 17.716535,17.716535 -0.000000 1 0 -439.370079,935.433071 z"
         style="stroke:#000000;fill:none;stroke-linecap: round" />
      <path
         id="path4887"
         d="M -308.001969,935.433071 A 5.580709,5.580709 -0.000000 1 0 -319.163386,935.433071 5.580709,5.580709 -0.000000 1 0 -308.001969,935.433071 z"
         style="stroke:#000000;fill:none;stroke-linecap: round" />
      <path
         id="path4889"
         d="M -152.362205,935.433071 A 17.716535,17.716535 -0.000000 1 0 -187.795276,935.433071 17.716535,17.716535 -0.000000 1 0 -152.362205,935.433071 z"
         style="stroke:#000000;fill:none;stroke-linecap: round" />
    </symbol>
    <symbol
       id="p2-1">
      <path
         id="path4892"
         d="M 1360.629921,2412.992126 0.000000,2412.992126"
         style="stroke:#000000;fill:none;stroke-linecap: round" />
      <path
         id="path4894"
         d="M 0.000000,2412.992126 0.000000,1052.362205"
         style="stroke:#000000;fill:none;stroke-linecap: round" />
      <path
         id="path4896"
         d="M 0.000000,1052.362205 1360.629921,1052.362205"
         style="stroke:#000000;fill:none;stroke-linecap: round" />
      <path
         id="path4898"
         d="M 1360.629921,1052.362205 1360.629921,2412.992126"
         style="stroke:#000000;fill:none;stroke-linecap: round" />
    </symbol>
    <symbol
       id="carrier_window-6">
      <path
         id="path4901"
         d="M 41.988189,1229.527559 L 41.988189,1052.362205 L 0.000000,1052.362205 L 0.000000,1707.874016 L 59.527559,1707.874016 L 59.527559,1728.708661 L 119.055118,1728.708661 L 119.055118,1707.874016 L 178.582677,1707.874016 L 178.582677,1229.527559 L 202.393701,1229.527559 L 202.393701,1052.362205 L 53.149606,1052.362205 L 53.149606,1229.527559 L 41.988189,1229.527559 z"
         style="stroke:#000000;fill:none;stroke-linecap: round" />
    </symbol>
    <symbol
       id="door-8">
      <path
         id="path4904"
         d="M 0.000000,1052.362205 L -699.094488,1052.362205 L -699.094488,1264.960630 L -681.377953,1264.960630 L -681.377953,1229.527559 L -670.216535,1229.527559 L -670.216535,1666.204724 L -28.877953,1666.204724 L -28.877953,1229.527559 L -17.716535,1229.527559 L -17.716535,1264.960630 L 0.000000,1264.960630 L 0.000000,1052.362205 z"
         style="stroke:#000000;fill:none;stroke-linecap: round" />
    </symbol>
    <marker
       orient="auto"
       id="DistanceX-0"
       style="overflow:visible"
       refX="0.0"
       refY="0.0">
      <path
         id="path5005"
         d="M 3,-3 L -3,3 M 0,-5 L  0,5"
         style="stroke:#000000; stroke-width:0.5" />
    </marker>
    <pattern
       id="Hatch-8"
       x="0"
       y="0"
       patternUnits="userSpaceOnUse"
       width="8"
       height="8">
      <path
         id="path5008"
         d="M8 4 l-4,4"
         stroke-width="0.25"
         stroke="#000000"
         linecap="square" />
      <path
         id="path5010"
         d="M6 2 l-4,4"
         stroke-width="0.25"
         stroke="#000000"
         linecap="square" />
      <path
         id="path5012"
         d="M4 0 l-4,4"
         stroke-width="0.25"
         stroke="#000000"
         linecap="square" />
    </pattern>
    <symbol
       id="*Model_Space-27" />
    <symbol
       id="*Paper_Space-0" />
    <symbol
       id="*Paper_Space0-5" />
    <marker
       orient="auto"
       id="DistanceX-2"
       style="overflow:visible"
       refX="0.0"
       refY="0.0">
      <path
         id="path4294"
         d="M 3,-3 L -3,3 M 0,-5 L  0,5"
         style="stroke:#000000; stroke-width:0.5" />
    </marker>
    <pattern
       id="Hatch-9"
       x="0"
       y="0"
       patternUnits="userSpaceOnUse"
       width="8"
       height="8">
      <path
         id="path4297"
         d="M8 4 l-4,4"
         stroke-width="0.25"
         stroke="#000000"
         linecap="square" />
      <path
         id="path4299"
         d="M6 2 l-4,4"
         stroke-width="0.25"
         stroke="#000000"
         linecap="square" />
      <path
         id="path4301"
         d="M4 0 l-4,4"
         stroke-width="0.25"
         stroke="#000000"
         linecap="square" />
    </pattern>
    <symbol
       id="*Model_Space-22" />
    <symbol
       id="*Paper_Space-54" />
    <symbol
       id="*Paper_Space0-6" />
    <marker
       refY="0.0"
       refX="0.0"
       style="overflow:visible"
       id="DistanceX-5"
       orient="auto">
      <path
         style="stroke:#000000; stroke-width:0.5"
         d="M 3,-3 L -3,3 M 0,-5 L  0,5"
         id="path8027-6" />
    </marker>
    <pattern
       height="8"
       width="8"
       patternUnits="userSpaceOnUse"
       y="0"
       x="0"
       id="Hatch-0">
      <path
         linecap="square"
         stroke="#000000"
         stroke-width="0.25"
         d="M8 4 l-4,4"
         id="path8030-8" />
      <path
         linecap="square"
         stroke="#000000"
         stroke-width="0.25"
         d="M6 2 l-4,4"
         id="path8032-9" />
      <path
         linecap="square"
         stroke="#000000"
         stroke-width="0.25"
         d="M4 0 l-4,4"
         id="path8034-4" />
    </pattern>
    <symbol
       id="*Model_Space-1" />
    <symbol
       id="*Paper_Space-58" />
    <symbol
       id="*Paper_Space0-4" />
    <symbol
       id="crane_flap-5">
      <path
         style="stroke:#000000;fill:none;stroke-linecap: round"
         d="M -308.001969,928.346457 A 5.580709,5.580709 -0.000000 1 0 -319.163386,928.346457 5.580709,5.580709 -0.000000 1 0 -308.001969,928.346457 z"
         id="path8040-2" />
      <path
         style="stroke:#000000;fill:none;stroke-linecap: round"
         d="M -141.732283,928.346457 A 17.716535,17.716535 -0.000000 1 0 -177.165354,928.346457 17.716535,17.716535 -0.000000 1 0 -141.732283,928.346457 z"
         id="path8042-3" />
      <path
         style="stroke:#000000;fill:none;stroke-linecap: round"
         d="M 0.000000,898.228346 L -627.165354,898.228346 L -627.165354,1052.362205 L 0.000000,1052.362205 L 0.000000,898.228346 z"
         id="path8044-2" />
      <path
         style="stroke:#000000;fill:none;stroke-linecap: round"
         d="M -450.000000,928.346457 A 17.716535,17.716535 -0.000000 1 0 -485.433071,928.346457 17.716535,17.716535 -0.000000 1 0 -450.000000,928.346457 z"
         id="path8046-3" />
    </symbol>
    <symbol
       id="p2-8">
      <path
         style="stroke:#000000;fill:none;stroke-linecap: round"
         d="M 0.000000,2412.992126 0.000000,1052.362205"
         id="path8049-9" />
      <path
         style="stroke:#000000;fill:none;stroke-linecap: round"
         d="M 0.000000,1052.362205 1360.629921,1052.362205"
         id="path8051-5" />
      <path
         style="stroke:#000000;fill:none;stroke-linecap: round"
         d="M 1360.629921,1052.362205 1360.629921,2412.992126"
         id="path8053-6" />
      <path
         style="stroke:#000000;fill:none;stroke-linecap: round"
         d="M 1360.629921,2412.992126 0.000000,2412.992126"
         id="path8055-3" />
    </symbol>
    <symbol
       id="carrier_window-7">
      <path
         style="stroke:#000000;fill:none;stroke-linecap: round"
         d="M 41.988189,1229.527559 L 41.988189,1052.362205 L 0.000000,1052.362205 L 0.000000,1707.874016 L 59.527559,1707.874016 L 59.527559,1728.708661 L 119.055118,1728.708661 L 119.055118,1707.874016 L 178.582677,1707.874016 L 178.582677,1229.527559 L 202.393701,1229.527559 L 202.393701,1052.362205 L 53.149606,1052.362205 L 53.149606,1229.527559 L 41.988189,1229.527559 z"
         id="path8058-7" />
    </symbol>
    <symbol
       id="door-9">
      <path
         style="stroke:#000000;fill:none;stroke-linecap: round"
         d="M 0.000000,1052.362205 L -699.094488,1052.362205 L -699.094488,1264.960630 L -681.377953,1264.960630 L -681.377953,1229.527559 L -670.216535,1229.527559 L -670.216535,1666.204724 L -28.877953,1666.204724 L -28.877953,1229.527559 L -17.716535,1229.527559 L -17.716535,1264.960630 L 0.000000,1264.960630 L 0.000000,1052.362205 z"
         id="path8061-8" />
    </symbol>
    <marker
       refY="0.0"
       refX="0.0"
       style="overflow:visible"
       id="DistanceX-8-8"
       orient="auto">
      <path
         style="stroke:#000000; stroke-width:0.5"
         d="M 3,-3 L -3,3 M 0,-5 L  0,5"
         id="path4870-4" />
    </marker>
    <pattern
       height="8"
       width="8"
       patternUnits="userSpaceOnUse"
       y="0"
       x="0"
       id="Hatch-6-6">
      <path
         linecap="square"
         stroke="#000000"
         stroke-width="0.25"
         d="M8 4 l-4,4"
         id="path4873-2" />
      <path
         linecap="square"
         stroke="#000000"
         stroke-width="0.25"
         d="M6 2 l-4,4"
         id="path4875-9" />
      <path
         linecap="square"
         stroke="#000000"
         stroke-width="0.25"
         d="M4 0 l-4,4"
         id="path4877-8" />
    </pattern>
    <symbol
       id="*Model_Space-2-1" />
    <symbol
       id="*Paper_Space-5-8" />
    <symbol
       id="*Paper_Space0-7-1" />
    <symbol
       id="crane_flap-7-4">
      <path
         style="stroke:#000000;fill:none;stroke-linecap: round"
         d="M 0.000000,898.228346 L -627.165354,898.228346 L -627.165354,1052.362205 L 0.000000,1052.362205 L 0.000000,898.228346 z"
         id="path4883-0" />
      <path
         style="stroke:#000000;fill:none;stroke-linecap: round"
         d="M -439.370079,935.433071 A 17.716535,17.716535 -0.000000 1 0 -474.803150,935.433071 17.716535,17.716535 -0.000000 1 0 -439.370079,935.433071 z"
         id="path4885-7" />
      <path
         style="stroke:#000000;fill:none;stroke-linecap: round"
         d="M -308.001969,935.433071 A 5.580709,5.580709 -0.000000 1 0 -319.163386,935.433071 5.580709,5.580709 -0.000000 1 0 -308.001969,935.433071 z"
         id="path4887-5" />
      <path
         style="stroke:#000000;fill:none;stroke-linecap: round"
         d="M -152.362205,935.433071 A 17.716535,17.716535 -0.000000 1 0 -187.795276,935.433071 17.716535,17.716535 -0.000000 1 0 -152.362205,935.433071 z"
         id="path4889-3" />
    </symbol>
    <symbol
       id="p2-1-9">
      <path
         style="stroke:#000000;fill:none;stroke-linecap: round"
         d="M 1360.629921,2412.992126 0.000000,2412.992126"
         id="path4892-2" />
      <path
         style="stroke:#000000;fill:none;stroke-linecap: round"
         d="M 0.000000,2412.992126 0.000000,1052.362205"
         id="path4894-0" />
      <path
         style="stroke:#000000;fill:none;stroke-linecap: round"
         d="M 0.000000,1052.362205 1360.629921,1052.362205"
         id="path4896-4" />
      <path
         style="stroke:#000000;fill:none;stroke-linecap: round"
         d="M 1360.629921,1052.362205 1360.629921,2412.992126"
         id="path4898-7" />
    </symbol>
    <symbol
       id="carrier_window-6-7">
      <path
         style="stroke:#000000;fill:none;stroke-linecap: round"
         d="M 41.988189,1229.527559 L 41.988189,1052.362205 L 0.000000,1052.362205 L 0.000000,1707.874016 L 59.527559,1707.874016 L 59.527559,1728.708661 L 119.055118,1728.708661 L 119.055118,1707.874016 L 178.582677,1707.874016 L 178.582677,1229.527559 L 202.393701,1229.527559 L 202.393701,1052.362205 L 53.149606,1052.362205 L 53.149606,1229.527559 L 41.988189,1229.527559 z"
         id="path4901-3" />
    </symbol>
    <symbol
       id="door-8-1">
      <path
         style="stroke:#000000;fill:none;stroke-linecap: round"
         d="M 0.000000,1052.362205 L -699.094488,1052.362205 L -699.094488,1264.960630 L -681.377953,1264.960630 L -681.377953,1229.527559 L -670.216535,1229.527559 L -670.216535,1666.204724 L -28.877953,1666.204724 L -28.877953,1229.527559 L -17.716535,1229.527559 L -17.716535,1264.960630 L 0.000000,1264.960630 L 0.000000,1052.362205 z"
         id="path4904-1" />
    </symbol>
    <marker
       refY="0.0"
       refX="0.0"
       style="overflow:visible"
       id="DistanceX-0-9"
       orient="auto">
      <path
         style="stroke:#000000; stroke-width:0.5"
         d="M 3,-3 L -3,3 M 0,-5 L  0,5"
         id="path5005-8" />
    </marker>
    <pattern
       height="8"
       width="8"
       patternUnits="userSpaceOnUse"
       y="0"
       x="0"
       id="Hatch-8-7">
      <path
         linecap="square"
         stroke="#000000"
         stroke-width="0.25"
         d="M8 4 l-4,4"
         id="path5008-5" />
      <path
         linecap="square"
         stroke="#000000"
         stroke-width="0.25"
         d="M6 2 l-4,4"
         id="path5010-4" />
      <path
         linecap="square"
         stroke="#000000"
         stroke-width="0.25"
         d="M4 0 l-4,4"
         id="path5012-0" />
    </pattern>
    <symbol
       id="*Model_Space-27-9" />
    <symbol
       id="*Paper_Space-0-5" />
    <symbol
       id="*Paper_Space0-5-7" />
    <marker
       refY="0.0"
       refX="0.0"
       style="overflow:visible"
       id="DistanceX-2-9"
       orient="auto">
      <path
         style="stroke:#000000; stroke-width:0.5"
         d="M 3,-3 L -3,3 M 0,-5 L  0,5"
         id="path4294-3" />
    </marker>
    <pattern
       height="8"
       width="8"
       patternUnits="userSpaceOnUse"
       y="0"
       x="0"
       id="Hatch-9-4">
      <path
         linecap="square"
         stroke="#000000"
         stroke-width="0.25"
         d="M8 4 l-4,4"
         id="path4297-0" />
      <path
         linecap="square"
         stroke="#000000"
         stroke-width="0.25"
         d="M6 2 l-4,4"
         id="path4299-5" />
      <path
         linecap="square"
         stroke="#000000"
         stroke-width="0.25"
         d="M4 0 l-4,4"
         id="path4301-1" />
    </pattern>
    <symbol
       id="*Model_Space-22-6" />
    <symbol
       id="*Paper_Space-54-6" />
    <symbol
       id="*Paper_Space0-6-3" />
    <marker
       orient="auto"
       id="DistanceX-7"
       style="overflow:visible"
       refX="0.0"
       refY="0.0">
      <path
         id="path6626"
         d="M 3,-3 L -3,3 M 0,-5 L  0,5"
         style="stroke:#000000; stroke-width:0.5" />
    </marker>
    <pattern
       id="Hatch-5"
       x="0"
       y="0"
       patternUnits="userSpaceOnUse"
       width="8"
       height="8">
      <path
         id="path6629"
         d="M8 4 l-4,4"
         stroke-width="0.25"
         stroke="#000000"
         linecap="square" />
      <path
         id="path6631"
         d="M6 2 l-4,4"
         stroke-width="0.25"
         stroke="#000000"
         linecap="square" />
      <path
         id="path6633"
         d="M4 0 l-4,4"
         stroke-width="0.25"
         stroke="#000000"
         linecap="square" />
    </pattern>
    <symbol
       id="*Model_Space-9" />
    <symbol
       id="*Paper_Space-4" />
    <symbol
       id="*Paper_Space0-52" />
    <symbol
       id="bed_interface">
      <path
         id="path6639"
         d="M -446.456693,570.472441 L -446.456693,552.755906 L 0.000000,552.755906 L 0.000000,1052.362205 L -499.606299,1052.362205 L -499.606299,605.905512 L -481.889764,605.905512 A 35.433071,35.433071 0.0 0 0 -446.456693,570.472441 z"
         style="stroke:#000000;fill:none;stroke-linecap: round" />
      <path
         id="path6641"
         d="M -56.692913,623.622047 A 14.173228,14.173228 -0.000000 1 0 -85.039370,623.622047 14.173228,14.173228 -0.000000 1 0 -56.692913,623.622047 z"
         style="stroke:#000000;fill:none;stroke-linecap: round" />
      <path
         id="path6643"
         d="M -56.692913,981.496063 A 14.173228,14.173228 -0.000000 1 0 -85.039370,981.496063 14.173228,14.173228 -0.000000 1 0 -56.692913,981.496063 z"
         style="stroke:#000000;fill:none;stroke-linecap: round" />
      <path
         id="path6645"
         d="M -414.566929,981.496063 A 14.173228,14.173228 -0.000000 1 0 -442.913386,981.496063 14.173228,14.173228 -0.000000 1 0 -414.566929,981.496063 z"
         style="stroke:#000000;fill:none;stroke-linecap: round" />
      <path
         id="path6647"
         d="M -414.566929,623.622047 A 14.173228,14.173228 -0.000000 1 0 -442.913386,623.622047 14.173228,14.173228 -0.000000 1 0 -414.566929,623.622047 z"
         style="stroke:#000000;fill:none;stroke-linecap: round" />
    </symbol>
  </defs>
  <sodipodi:namedview
     id="base"
     pagecolor="#ffffff"
     bordercolor="#666666"
     borderopacity="1.0"
     inkscape:pageopacity="0.0"
     inkscape:pageshadow="2"
     inkscape:zoom="0.28031616"
     inkscape:cx="1074.0706"
     inkscape:cy="575.8287"
     inkscape:document-units="px"
     inkscape:current-layer="layer1"
     showgrid="false"
     inkscape:window-width="1366"
     inkscape:window-height="706"
     inkscape:window-x="-8"
     inkscape:window-y="424"
     inkscape:window-maximized="1" />
  <metadata
     id="metadata5785">
    <rdf:RDF>
      <cc:Work
         rdf:about="">
        <dc:format>image/svg+xml</dc:format>
        <dc:type
           rdf:resource="http://purl.org/dc/dcmitype/StillImage" />
        <dc:title />
      </cc:Work>
    </rdf:RDF>
  </metadata>
  <g
     inkscape:label="Layer 1"
     inkscape:groupmode="layer"
     id="layer1"
     transform="translate(0,308.26772)">
    <path
       inkscape:connector-curvature="0"
       style="fill:none;stroke:#0000ff;stroke-linecap:round;stroke-opacity:1;stroke-width:0.03543307;stroke-miterlimit:4;stroke-dasharray:none"
       d="m 1140.3297,-44.90802 -17.7165,0"
       id="path6651" />
    <path
       inkscape:connector-curvature="0"
       style="fill:none;stroke:#0000ff;stroke-linecap:round;stroke-opacity:1;stroke-width:0.03543307;stroke-miterlimit:4;stroke-dasharray:none"
       d="m 1087.1801,-80.34109 a 35.433071,35.433071 0 0 0 35.4331,35.43307"
       id="path6653" />
    <path
       inkscape:connector-curvature="0"
       style="fill:none;stroke:#0000ff;stroke-linecap:round;stroke-opacity:1;stroke-width:0.03543307;stroke-miterlimit:4;stroke-dasharray:none"
       d="m 640.7234,901.15497 0,-499.6063"
       id="path6655" />
    <path
       inkscape:connector-curvature="0"
       style="fill:none;stroke:#0000ff;stroke-linecap:round;stroke-opacity:1;stroke-width:0.03543307;stroke-miterlimit:4;stroke-dasharray:none"
       d="m 1140.3297,401.54867 0,446.4567"
       id="path6657" />
    <path
       inkscape:connector-curvature="0"
       style="fill:none;stroke:#0000ff;stroke-linecap:round;stroke-opacity:1;stroke-width:0.03543307;stroke-miterlimit:4;stroke-dasharray:none"
       d="m 1140.3297,848.00537 -17.7165,0"
       id="path6659" />
    <path
       inkscape:connector-curvature="0"
       style="fill:none;stroke:#0000ff;stroke-linecap:round;stroke-opacity:1;stroke-width:0.03543307;stroke-miterlimit:4;stroke-dasharray:none"
       d="m 1122.6132,848.00537 a 35.433071,35.433071 0 0 0 -35.4331,35.4331"
       id="path6661" />
    <path
       inkscape:connector-curvature="0"
       style="fill:none;stroke:#0000ff;stroke-linecap:round;stroke-opacity:1;stroke-width:0.03543307;stroke-miterlimit:4;stroke-dasharray:none"
       d="m 194.26671,-80.34109 0,-17.71653"
       id="path6663" />
    <path
       inkscape:connector-curvature="0"
       style="fill:none;stroke:#0000ff;stroke-linecap:round;stroke-opacity:1;stroke-width:0.03543307;stroke-miterlimit:4;stroke-dasharray:none"
       d="m 194.26671,-98.05762 446.45669,0"
       id="path6665" />
    <path
       inkscape:connector-curvature="0"
       style="fill:none;stroke:#0000ff;stroke-linecap:round;stroke-opacity:1;stroke-width:0.03543307;stroke-miterlimit:4;stroke-dasharray:none"
       d="m 1087.1801,883.43847 0,17.7165"
       id="path6667" />
    <path
       inkscape:connector-curvature="0"
       style="fill:none;stroke:#0000ff;stroke-linecap:round;stroke-opacity:1;stroke-width:0.03543307;stroke-miterlimit:4;stroke-dasharray:none"
       d="m 1087.1801,901.15497 -446.4567,0"
       id="path6669" />
    <path
       inkscape:connector-curvature="0"
       style="fill:none;stroke:#0000ff;stroke-linecap:round;stroke-opacity:1;stroke-width:0.03543307;stroke-miterlimit:4;stroke-dasharray:none"
       d="m 141.1171,401.54867 0,446.4567"
       id="path6671" />
    <path
       inkscape:connector-curvature="0"
       style="fill:none;stroke:#0000ff;stroke-linecap:round;stroke-opacity:1;stroke-width:0.03543307;stroke-miterlimit:4;stroke-dasharray:none"
       d="m 141.1171,848.00537 17.71654,0"
       id="path6673" />
    <path
       inkscape:connector-curvature="0"
       style="fill:none;stroke:#0000ff;stroke-linecap:round;stroke-opacity:1;stroke-width:0.03543307;stroke-miterlimit:4;stroke-dasharray:none"
       d="m 194.26671,883.43847 a 35.433071,35.433071 0 0 0 -35.43307,-35.4331"
       id="path6675" />
    <path
       inkscape:connector-curvature="0"
       style="fill:none;stroke:#0000ff;stroke-linecap:round;stroke-opacity:1;stroke-width:0.03543307;stroke-miterlimit:4;stroke-dasharray:none"
       d="m 1087.1801,-80.34109 0,-17.71653"
       id="path6677" />
    <path
       inkscape:connector-curvature="0"
       style="fill:none;stroke:#0000ff;stroke-linecap:round;stroke-opacity:1;stroke-width:0.03543307;stroke-miterlimit:4;stroke-dasharray:none"
       d="m 1087.1801,-98.05762 -446.4567,0"
       id="path6679" />
    <path
       inkscape:connector-curvature="0"
       style="fill:none;stroke:#0000ff;stroke-linecap:round;stroke-opacity:1;stroke-width:0.03543307;stroke-miterlimit:4;stroke-dasharray:none"
       d="m 640.7234,-98.05762 0,499.60629"
       id="path6681" />
    <path
       inkscape:connector-curvature="0"
       style="fill:none;stroke:#0000ff;stroke-linecap:round;stroke-opacity:1;stroke-width:0.03543307;stroke-miterlimit:4;stroke-dasharray:none"
       d="m 640.7234,401.54867 499.6063,0"
       id="path6683" />
    <path
       inkscape:connector-curvature="0"
       style="fill:none;stroke:#0000ff;stroke-linecap:round;stroke-opacity:1;stroke-width:0.03543307;stroke-miterlimit:4;stroke-dasharray:none"
       d="m 1140.3297,401.54867 0,-446.45669"
       id="path6685" />
    <path
       inkscape:connector-curvature="0"
       style="fill:none;stroke:#0000ff;stroke-linecap:round;stroke-opacity:1;stroke-width:0.03543307;stroke-miterlimit:4;stroke-dasharray:none"
       d="m 640.7234,401.54867 -499.6063,0"
       id="path6687" />
    <path
       inkscape:connector-curvature="0"
       style="fill:none;stroke:#0000ff;stroke-linecap:round;stroke-opacity:1;stroke-width:0.03543307;stroke-miterlimit:4;stroke-dasharray:none"
       d="m 141.1171,401.54867 0,-446.45669"
       id="path6689" />
    <path
       inkscape:connector-curvature="0"
       style="fill:none;stroke:#0000ff;stroke-linecap:round;stroke-opacity:1;stroke-width:0.03543307;stroke-miterlimit:4;stroke-dasharray:none"
       d="m 141.1171,-44.90802 17.71654,0"
       id="path6691" />
    <path
       inkscape:connector-curvature="0"
       style="fill:none;stroke:#0000ff;stroke-linecap:round;stroke-opacity:1;stroke-width:0.03543307;stroke-miterlimit:4;stroke-dasharray:none"
       d="m 158.83364,-44.90802 a 35.433071,35.433071 0 0 0 35.43307,-35.43307"
       id="path6693" />
    <path
       inkscape:connector-curvature="0"
       style="fill:none;stroke:#0000ff;stroke-linecap:round;stroke-opacity:1;stroke-width:0.03543307;stroke-miterlimit:4;stroke-dasharray:none"
       d="m 194.26671,883.43847 0,17.7165"
       id="path6695" />
    <path
       inkscape:connector-curvature="0"
       style="fill:none;stroke:#0000ff;stroke-linecap:round;stroke-opacity:1;stroke-width:0.03543307;stroke-miterlimit:4;stroke-dasharray:none"
       d="m 194.26671,901.15497 446.45669,0"
       id="path6697" />
    <path
       inkscape:connector-curvature="0"
       style="fill:none;stroke:#0000ff;stroke-linecap:round;stroke-opacity:1;stroke-width:0.03543307;stroke-miterlimit:4;stroke-dasharray:none"
       d="m 584.03049,830.28887 a 14.173229,14.173229 0 1 0 -28.34646,0 14.173229,14.173229 0 1 0 28.34646,0 z"
       id="path6699" />
    <path
       inkscape:connector-curvature="0"
       style="fill:none;stroke:#0000ff;stroke-linecap:round;stroke-opacity:1;stroke-width:0.03543307;stroke-miterlimit:4;stroke-dasharray:none"
       d="m 584.03049,-27.19148 a 14.173229,14.173229 0 1 0 -28.34646,0 14.173229,14.173229 0 1 0 28.34646,0 z"
       id="path6701" />
    <path
       inkscape:connector-curvature="0"
       style="fill:none;stroke:#0000ff;stroke-linecap:round;stroke-opacity:1;stroke-width:0.03543307;stroke-miterlimit:4;stroke-dasharray:none"
       d="m 725.76277,830.28887 a 14.173229,14.173229 0 1 0 -28.34646,0 14.173229,14.173229 0 1 0 28.34646,0 z"
       id="path6703" />
    <path
       inkscape:connector-curvature="0"
       style="fill:none;stroke:#0000ff;stroke-linecap:round;stroke-opacity:1;stroke-width:0.03543307;stroke-miterlimit:4;stroke-dasharray:none"
       d="m 725.76277,-27.19148 a 14.173229,14.173229 0 1 0 -28.34646,0 14.173229,14.173229 0 1 0 28.34646,0 z"
       id="path6705" />
    <path
       inkscape:connector-curvature="0"
       style="fill:none;stroke:#0000ff;stroke-linecap:round;stroke-opacity:1;stroke-width:0.03543307;stroke-miterlimit:4;stroke-dasharray:none"
       d="m 584.03049,330.68253 a 14.173229,14.173229 0 1 0 -28.34646,0 14.173229,14.173229 0 1 0 28.34646,0 z"
       id="path6707" />
    <path
       inkscape:connector-curvature="0"
       style="fill:none;stroke:#0000ff;stroke-linecap:round;stroke-opacity:1;stroke-width:0.03543307;stroke-miterlimit:4;stroke-dasharray:none"
       d="m 725.76277,472.41477 a 14.173229,14.173229 0 1 0 -28.34646,0 14.173229,14.173229 0 1 0 28.34646,0 z"
       id="path6709" />
    <path
       inkscape:connector-curvature="0"
       style="fill:none;stroke:#0000ff;stroke-linecap:round;stroke-opacity:1;stroke-width:0.03543307;stroke-miterlimit:4;stroke-dasharray:none"
       d="m 584.03049,472.41477 a 14.173229,14.173229 0 1 0 -28.34646,0 14.173229,14.173229 0 1 0 28.34646,0 z"
       id="path6711" />
    <path
       inkscape:connector-curvature="0"
       style="fill:none;stroke:#0000ff;stroke-linecap:round;stroke-opacity:1;stroke-width:0.03543307;stroke-miterlimit:4;stroke-dasharray:none"
       d="m 725.76277,330.68253 a 14.173229,14.173229 0 1 0 -28.34646,0 14.173229,14.173229 0 1 0 28.34646,0 z"
       id="path6713" />
    <path
       inkscape:connector-curvature="0"
       style="fill:none;stroke:#0000ff;stroke-linecap:round;stroke-opacity:1;stroke-width:0.03543307;stroke-miterlimit:4;stroke-dasharray:none"
       d="m 226.15647,472.41477 a 14.17323,14.17323 0 1 0 -28.34646,0 14.17323,14.17323 0 1 0 28.34646,0 z"
       id="path6715" />
    <path
       inkscape:connector-curvature="0"
       style="fill:none;stroke:#0000ff;stroke-linecap:round;stroke-opacity:1;stroke-width:0.03543307;stroke-miterlimit:4;stroke-dasharray:none"
       d="m 1083.6368,472.41477 a 14.17323,14.17323 0 1 0 -28.3465,0 14.17323,14.17323 0 1 0 28.3465,0 z"
       id="path6717" />
    <path
       inkscape:connector-curvature="0"
       style="fill:none;stroke:#0000ff;stroke-linecap:round;stroke-opacity:1;stroke-width:0.03543307;stroke-miterlimit:4;stroke-dasharray:none"
       d="m 226.15647,330.68253 a 14.17323,14.17323 0 1 0 -28.34646,0 14.17323,14.17323 0 1 0 28.34646,0 z"
       id="path6719" />
    <path
       inkscape:connector-curvature="0"
       style="fill:none;stroke:#0000ff;stroke-linecap:round;stroke-opacity:1;stroke-width:0.03543307;stroke-miterlimit:4;stroke-dasharray:none"
       d="m 1083.6368,330.68253 a 14.17323,14.17323 0 1 0 -28.3465,0 14.17323,14.17323 0 1 0 28.3465,0 z"
       id="path6721" />
    <path
       inkscape:connector-curvature="0"
       style="fill:none;stroke:#0000ff;stroke-linecap:round;stroke-opacity:1;stroke-width:0.03543307;stroke-miterlimit:4;stroke-dasharray:none"
       d="m 226.15647,830.28887 a 14.17323,14.17323 0 1 0 -28.34646,0 14.17323,14.17323 0 1 0 28.34646,0 z"
       id="path6723" />
    <path
       inkscape:connector-curvature="0"
       style="fill:none;stroke:#0000ff;stroke-linecap:round;stroke-opacity:1;stroke-width:0.03543307;stroke-miterlimit:4;stroke-dasharray:none"
       d="m 226.15647,-27.19148 a 14.17323,14.17323 0 1 0 -28.34646,0 14.17323,14.17323 0 1 0 28.34646,0 z"
       id="path6725" />
    <path
       inkscape:connector-curvature="0"
       style="fill:none;stroke:#0000ff;stroke-linecap:round;stroke-opacity:1;stroke-width:0.03543307;stroke-miterlimit:4;stroke-dasharray:none"
       d="m 1083.6368,830.28887 a 14.17323,14.17323 0 1 0 -28.3465,0 14.17323,14.17323 0 1 0 28.3465,0 z"
       id="path6727" />
    <path
       inkscape:connector-curvature="0"
       style="fill:none;stroke:#0000ff;stroke-linecap:round;stroke-opacity:1;stroke-width:0.03543307;stroke-miterlimit:4;stroke-dasharray:none"
       d="m 1083.6368,-27.19148 a 14.17323,14.17323 0 1 0 -28.3465,0 14.17323,14.17323 0 1 0 28.3465,0 z"
       id="path6729" />
  </g>
</svg>
