999
dxflib 3.7.5.0
  0
SECTION
  2
HEADER
  9
$ACADVER
  1
AC1015
  9
$HANDSEED
  5
FFFF
  9
$DIMADEC
 70
0
  9
$DIMASZ
 40
2.5
  9
$DIMAUNIT
 70
0
  9
$DIMAZIN
 70
2
  9
$DIMDEC
 70
4
  9
$DIMEXE
 40
1.25
  9
$DIMEXO
 40
0.625
  9
$DIMGAP
 40
0.625
  9
$DIMLUNIT
 70
2
  9
$DIMSCALE
 40
1.0
  9
$DIMTSZ
 40
0.0
  9
$DIMTXT
 40
2.5
  9
$DIMZIN
 70
8
  9
$DWGCODEPAGE
  3
ANSI_1252
  9
$INSUNITS
 70
4
  9
$LTSCALE
 40
1
  0
ENDSEC
  0
SECTION
  2
TABLES
  0
TABLE
  2
VPORT
  5
8
100
AcDbSymbolTable
 70
1
  0
VPORT
  5
30
100
AcDbSymbolTableRecord
100
AcDbViewportTableRecord
  2
*Active
 70
0
 10
0.0
 20
0.0
 11
1.0
 21
1.0
 12
286.30555555555549
 22
148.5
 13
0.0
 23
0.0
 14
10.0
 24
10.0
 15
10.0
 25
10.0
 16
0.0
 26
0.0
 36
1.0
 17
0.0
 27
0.0
 37
0.0
 40
297.0
 41
1.92798353909465
 42
50.0
 43
0.0
 44
0.0
 50
0.0
 51
0.0
 71
0
 72
100
 73
1
 74
3
 75
1
 76
1
 77
0
 78
0
281
0
 65
1
110
0.0
120
0.0
130
0.0
111
1.0
121
0.0
131
0.0
112
0.0
122
1.0
132
0.0
 79
0
146
0.0
  0
ENDTAB
  0
TABLE
  2
LTYPE
  5
5
100
AcDbSymbolTable
 70
41
  0
LTYPE
  5
16
100
AcDbSymbolTableRecord
100
AcDbLinetypeTableRecord
  2
Continuous
 70
0
  3
Solid line
 72
65
 73
0
 40
0.0
  0
LTYPE
  5
31
100
AcDbSymbolTableRecord
100
AcDbLinetypeTableRecord
  2
ACAD_ISO15W100
 70
0
  3
ISO double-dash triple-dot __ __ . . . __ __ . .
 72
65
 73
10
 40
39.000000000000007
 49
12.0
 74
0
 49
-3.0
 74
0
 49
12.0
 74
0
 49
-2.9500000000000002
 74
0
 49
0.1
 74
0
 49
-2.9000000000000004
 74
0
 49
0.1
 74
0
 49
-2.9000000000000004
 74
0
 49
0.1
 74
0
 49
-2.9500000000000002
 74
0
  0
LTYPE
  5
32
100
AcDbSymbolTableRecord
100
AcDbLinetypeTableRecord
  2
DIVIDE
 70
0
  3
Divide ____ . . ____ . . ____ . . ____ . . ____
 72
65
 73
6
 40
31.750000000000004
 49
12.699999999999999
 74
0
 49
-6.2999999999999998
 74
0
 49
0.1
 74
0
 49
-6.25
 74
0
 49
0.1
 74
0
 49
-6.2999999999999998
 74
0
  0
LTYPE
  5
33
100
AcDbSymbolTableRecord
100
AcDbLinetypeTableRecord
  2
ACAD_ISO10W100
 70
0
  3
ISO dash dot __ . __ . __ . __ . __ . __ . __ . 
 72
65
 73
4
 40
18.0
 49
12.0
 74
0
 49
-2.9500000000000002
 74
0
 49
0.1
 74
0
 49
-2.9500000000000002
 74
0
  0
LTYPE
  5
34
100
AcDbSymbolTableRecord
100
AcDbLinetypeTableRecord
  2
ACAD_ISO04W100
 70
0
  3
ISO long-dash dot ____ . ____ . ____ . ____ . _
 72
65
 73
4
 40
30.0
 49
24.0
 74
0
 49
-2.9500000000000002
 74
0
 49
0.1
 74
0
 49
-2.9500000000000002
 74
0
  0
LTYPE
  5
35
100
AcDbSymbolTableRecord
100
AcDbLinetypeTableRecord
  2
CENTER2
 70
0
  3
Center (.5x) ___ _ ___ _ ___ _ ___ _ ___ _ ___
 72
65
 73
4
 40
28.575000000000003
 49
19.050000000000001
 74
0
 49
-3.1749999999999998
 74
0
 49
3.1749999999999998
 74
0
 49
-3.1749999999999998
 74
0
  0
LTYPE
  5
36
100
AcDbSymbolTableRecord
100
AcDbLinetypeTableRecord
  2
ACAD_ISO11W100
 70
0
  3
ISO double-dash dot __ __ . __ __ . __ __ . __ _
 72
65
 73
6
 40
33.0
 49
12.0
 74
0
 49
-3.0
 74
0
 49
12.0
 74
0
 49
-2.9500000000000002
 74
0
 49
0.1
 74
0
 49
-2.9500000000000002
 74
0
  0
LTYPE
  5
37
100
AcDbSymbolTableRecord
100
AcDbLinetypeTableRecord
  2
HIDDEN2
 70
0
  3
Hidden (.5x) _ _ _ _ _ _ _ _ _ _ _ _ _ _ _ _ _ 
 72
65
 73
2
 40
4.7624999999999993
 49
3.1749999999999998
 74
0
 49
-1.5874999999999999
 74
0
  0
LTYPE
  5
38
100
AcDbSymbolTableRecord
100
AcDbLinetypeTableRecord
  2
BORDERX2
 70
0
  3
Border (2x) ____  ____  .  ____  ____  .  ___
 72
65
 73
6
 40
88.899999999999977
 49
25.399999999999999
 74
0
 49
-12.699999999999999
 74
0
 49
25.399999999999999
 74
0
 49
-12.649999999999999
 74
0
 49
0.1
 74
0
 49
-12.649999999999999
 74
0
  0
LTYPE
  5
39
100
AcDbSymbolTableRecord
100
AcDbLinetypeTableRecord
  2
ACAD_ISO05W100
 70
0
  3
ISO long-dash double-dot ____ .. ____ .. ____ . 
 72
65
 73
6
 40
33.000000000000007
 49
24.0
 74
0
 49
-2.9500000000000002
 74
0
 49
0.1
 74
0
 49
-2.9000000000000004
 74
0
 49
0.1
 74
0
 49
-2.9500000000000002
 74
0
  0
LTYPE
  5
3A
100
AcDbSymbolTableRecord
100
AcDbLinetypeTableRecord
  2
DASHDOTX2
 70
0
  3
Dash dot (2x) ____  .  ____  .  ____  .  ___
 72
65
 73
4
 40
50.799999999999997
 49
25.399999999999999
 74
0
 49
-12.649999999999999
 74
0
 49
0.1
 74
0
 49
-12.649999999999999
 74
0
  0
LTYPE
  5
3B
100
AcDbSymbolTableRecord
100
AcDbLinetypeTableRecord
  2
HIDDENX2
 70
0
  3
Hidden (2x) ____ ____ ____ ____ ____ ____ ____ 
 72
65
 73
2
 40
19.049999999999997
 49
12.699999999999999
 74
0
 49
-6.3499999999999996
 74
0
  0
LTYPE
  5
3C
100
AcDbSymbolTableRecord
100
AcDbLinetypeTableRecord
  2
CENTERX2
 70
0
  3
Center (2x) ________  __  ________  __  _____
 72
65
 73
4
 40
101.60000000000001
 49
63.5
 74
0
 49
-12.699999999999999
 74
0
 49
12.699999999999999
 74
0
 49
-12.699999999999999
 74
0
  0
LTYPE
  5
3D
100
AcDbSymbolTableRecord
100
AcDbLinetypeTableRecord
  2
BORDER2
 70
0
  3
Border (.5x) __.__.__.__.__.__.__.__.__.__.__.
 72
65
 73
6
 40
22.225000000000001
 49
6.3499999999999996
 74
0
 49
-3.1749999999999998
 74
0
 49
6.3499999999999996
 74
0
 49
-3.125
 74
0
 49
0.1
 74
0
 49
-3.125
 74
0
  0
LTYPE
  5
3E
100
AcDbSymbolTableRecord
100
AcDbLinetypeTableRecord
  2
DASHDOT2
 70
0
  3
Dash dot (.5x) _._._._._._._._._._._._._._._.
 72
65
 73
4
 40
12.699999999999999
 49
6.3499999999999996
 74
0
 49
-3.125
 74
0
 49
0.1
 74
0
 49
-3.125
 74
0
  0
LTYPE
  5
3F
100
AcDbSymbolTableRecord
100
AcDbLinetypeTableRecord
  2
ACAD_ISO12W100
 70
0
  3
ISO dash double-dot __ . . __ . . __ . . __ . . 
 72
65
 73
6
 40
21.0
 49
12.0
 74
0
 49
-2.9500000000000002
 74
0
 49
0.1
 74
0
 49
-2.9000000000000004
 74
0
 49
0.1
 74
0
 49
-2.9500000000000002
 74
0
  0
LTYPE
  5
40
100
AcDbSymbolTableRecord
100
AcDbLinetypeTableRecord
  2
ACAD_ISO07W100
 70
0
  3
ISO dot . . . . . . . . . . . . . . . . . . . . 
 72
65
 73
2
 40
3.0
 49
0.1
 74
0
 49
-2.8999999999999999
 74
0
  0
LTYPE
  5
41
100
AcDbSymbolTableRecord
100
AcDbLinetypeTableRecord
  2
HIDDEN
 70
0
  3
Hidden __ __ __ __ __ __ __ __ __ __ __ __ __ __
 72
65
 73
2
 40
9.5249999999999986
 49
6.3499999999999996
 74
0
 49
-3.1749999999999998
 74
0
  0
LTYPE
  5
42
100
AcDbSymbolTableRecord
100
AcDbLinetypeTableRecord
  2
ACAD_ISO06W100
 70
0
  3
ISO long-dash triple-dot ____ ... ____ ... ____
 72
65
 73
8
 40
36.000000000000007
 49
24.0
 74
0
 49
-2.9500000000000002
 74
0
 49
0.1
 74
0
 49
-2.9000000000000004
 74
0
 49
0.1
 74
0
 49
-2.9000000000000004
 74
0
 49
0.1
 74
0
 49
-2.9500000000000002
 74
0
  0
LTYPE
  5
43
100
AcDbSymbolTableRecord
100
AcDbLinetypeTableRecord
  2
CENTER
 70
0
  3
Center ____ _ ____ _ ____ _ ____ _ ____ _ ____
 72
65
 73
4
 40
50.800000000000004
 49
31.75
 74
0
 49
-6.3499999999999996
 74
0
 49
6.3499999999999996
 74
0
 49
-6.3499999999999996
 74
0
  0
LTYPE
  5
44
100
AcDbSymbolTableRecord
100
AcDbLinetypeTableRecord
  2
DOTX2
 70
0
  3
Dot (2x) .  .  .  .  .  .  .  .  .  .  .  .  .  .
 72
65
 73
2
 40
12.699999999999999
 49
0.1
 74
0
 49
-12.6
 74
0
  0
LTYPE
  5
45
100
AcDbSymbolTableRecord
100
AcDbLinetypeTableRecord
  2
PHANTOM
 70
0
  3
Phantom ______  __  __  ______  __  __  ______ 
 72
65
 73
6
 40
63.500000000000007
 49
31.75
 74
0
 49
-6.3499999999999996
 74
0
 49
6.3499999999999996
 74
0
 49
-6.3499999999999996
 74
0
 49
6.3499999999999996
 74
0
 49
-6.3499999999999996
 74
0
  0
LTYPE
  5
46
100
AcDbSymbolTableRecord
100
AcDbLinetypeTableRecord
  2
ACAD_ISO08W100
 70
0
  3
ISO long-dash short-dash ____ __ ____ __ ____ _
 72
65
 73
4
 40
36.0
 49
24.0
 74
0
 49
-3.0
 74
0
 49
6.0
 74
0
 49
-3.0
 74
0
  0
LTYPE
  5
47
100
AcDbSymbolTableRecord
100
AcDbLinetypeTableRecord
  2
DASHEDX2
 70
0
  3
Dashed (2x) ____  ____  ____  ____  ____  ___
 72
65
 73
2
 40
38.099999999999994
 49
25.399999999999999
 74
0
 49
-12.699999999999999
 74
0
  0
LTYPE
  5
48
100
AcDbSymbolTableRecord
100
AcDbLinetypeTableRecord
  2
ACAD_ISO02W100
 70
0
  3
ISO dash __ __ __ __ __ __ __ __ __ __ __ __ __
 72
65
 73
2
 40
15.0
 49
12.0
 74
0
 49
-3.0
 74
0
  0
LTYPE
  5
49
100
AcDbSymbolTableRecord
100
AcDbLinetypeTableRecord
  2
PHANTOM2
 70
0
  3
Phantom (.5x) ___ _ _ ___ _ _ ___ _ _ ___ _ _
 72
65
 73
6
 40
31.750000000000004
 49
15.875
 74
0
 49
-3.1749999999999998
 74
0
 49
3.1749999999999998
 74
0
 49
-3.1749999999999998
 74
0
 49
3.1749999999999998
 74
0
 49
-3.1749999999999998
 74
0
  0
LTYPE
  5
4A
100
AcDbSymbolTableRecord
100
AcDbLinetypeTableRecord
  2
DASHED2
 70
0
  3
Dashed (.5x) _ _ _ _ _ _ _ _ _ _ _ _ _ _ _ _ _ 
 72
65
 73
2
 40
9.5249999999999986
 49
6.3499999999999996
 74
0
 49
-3.1749999999999998
 74
0
  0
LTYPE
  5
4B
100
AcDbSymbolTableRecord
100
AcDbLinetypeTableRecord
  2
ACAD_ISO09W100
 70
0
  3
ISO long-dash double-short-dash ____ __ __ ____
 72
65
 73
6
 40
45.0
 49
24.0
 74
0
 49
-3.0
 74
0
 49
6.0
 74
0
 49
-3.0
 74
0
 49
6.0
 74
0
 49
-3.0
 74
0
  0
LTYPE
  5
4C
100
AcDbSymbolTableRecord
100
AcDbLinetypeTableRecord
  2
ACAD_ISO13W100
 70
0
  3
ISO double-dash double-dot __ __ . . __ __ . . _
 72
65
 73
8
 40
36.000000000000007
 49
12.0
 74
0
 49
-3.0
 74
0
 49
12.0
 74
0
 49
-2.9500000000000002
 74
0
 49
0.1
 74
0
 49
-2.9000000000000004
 74
0
 49
0.1
 74
0
 49
-2.9500000000000002
 74
0
  0
LTYPE
  5
4D
100
AcDbSymbolTableRecord
100
AcDbLinetypeTableRecord
  2
DOT2
 70
0
  3
Dot (.5x) ........................................
 72
65
 73
2
 40
3.1749999999999998
 49
0.1
 74
0
 49
-3.0749999999999997
 74
0
  0
LTYPE
  5
4E
100
AcDbSymbolTableRecord
100
AcDbLinetypeTableRecord
  2
DASHED
 70
0
  3
Dashed __ __ __ __ __ __ __ __ __ __ __ __ __ _
 72
65
 73
2
 40
19.049999999999997
 49
12.699999999999999
 74
0
 49
-6.3499999999999996
 74
0
  0
LTYPE
  5
4F
100
AcDbSymbolTableRecord
100
AcDbLinetypeTableRecord
  2
ACAD_ISO14W100
 70
0
  3
ISO dash triple-dot __ . . . __ . . . __ . . . _
 72
65
 73
8
 40
24.000000000000004
 49
12.0
 74
0
 49
-2.9500000000000002
 74
0
 49
0.1
 74
0
 49
-2.9000000000000004
 74
0
 49
0.1
 74
0
 49
-2.9000000000000004
 74
0
 49
0.1
 74
0
 49
-2.9500000000000002
 74
0
  0
LTYPE
  5
50
100
AcDbSymbolTableRecord
100
AcDbLinetypeTableRecord
  2
PHANTOMX2
 70
0
  3
Phantom (2x) ____________    ____    ____   _
 72
65
 73
6
 40
127.00000000000001
 49
63.5
 74
0
 49
-12.699999999999999
 74
0
 49
12.699999999999999
 74
0
 49
-12.699999999999999
 74
0
 49
12.699999999999999
 74
0
 49
-12.699999999999999
 74
0
  0
LTYPE
  5
14
100
AcDbSymbolTableRecord
100
AcDbLinetypeTableRecord
  2
BYBLOCK
 70
0
  3

 72
65
 73
0
 40
0.0
  0
LTYPE
  5
51
100
AcDbSymbolTableRecord
100
AcDbLinetypeTableRecord
  2
DIVIDEX2
 70
0
  3
Divide (2x) ________  .  .  ________  .  .  _
 72
65
 73
6
 40
63.5
 49
25.399999999999999
 74
0
 49
-12.649999999999999
 74
0
 49
0.1
 74
0
 49
-12.599999999999998
 74
0
 49
0.1
 74
0
 49
-12.649999999999999
 74
0
  0
LTYPE
  5
52
100
AcDbSymbolTableRecord
100
AcDbLinetypeTableRecord
  2
BORDER
 70
0
  3
Border __ __ . __ __ . __ __ . __ __ . __ __ .
 72
65
 73
6
 40
44.449999999999996
 49
12.699999999999999
 74
0
 49
-6.3499999999999996
 74
0
 49
12.699999999999999
 74
0
 49
-6.2999999999999998
 74
0
 49
0.1
 74
0
 49
-6.2999999999999998
 74
0
  0
LTYPE
  5
53
100
AcDbSymbolTableRecord
100
AcDbLinetypeTableRecord
  2
DIVIDE2
 70
0
  3
Divide (.5x) __..__..__..__..__..__..__..__.._
 72
65
 73
6
 40
15.874999999999998
 49
6.3499999999999996
 74
0
 49
-3.125
 74
0
 49
0.1
 74
0
 49
-3.0750000000000002
 74
0
 49
0.1
 74
0
 49
-3.125
 74
0
  0
LTYPE
  5
54
100
AcDbSymbolTableRecord
100
AcDbLinetypeTableRecord
  2
DOT
 70
0
  3
Dot . . . . . . . . . . . . . . . . . . . . . . . .
 72
65
 73
2
 40
6.3499999999999996
 49
0.1
 74
0
 49
-6.25
 74
0
  0
LTYPE
  5
55
100
AcDbSymbolTableRecord
100
AcDbLinetypeTableRecord
  2
DASHDOT
 70
0
  3
Dash dot __ . __ . __ . __ . __ . __ . __ . __
 72
65
 73
4
 40
25.400000000000002
 49
12.699999999999999
 74
0
 49
-6.2999999999999998
 74
0
 49
0.1
 74
0
 49
-6.2999999999999998
 74
0
  0
LTYPE
  5
56
100
AcDbSymbolTableRecord
100
AcDbLinetypeTableRecord
  2
ACAD_ISO03W100
 70
0
  3
ISO dash space __    __    __    __    __    __
 72
65
 73
2
 40
30.0
 49
12.0
 74
0
 49
-18.0
 74
0
  0
LTYPE
  5
15
100
AcDbSymbolTableRecord
100
AcDbLinetypeTableRecord
  2
ByLayer
 70
0
  3

 72
65
 73
0
 40
0.0
  0
ENDTAB
  0
TABLE
  2
LAYER
  5
2
100
AcDbSymbolTable
 70
1
  0
LAYER
  5
10
100
AcDbSymbolTableRecord
100
AcDbLayerTableRecord
  2
0
 70
0
 62
7
420
16777215
  6
Continuous
370
25
390
F
  0
ENDTAB
  0
TABLE
  2
STYLE
  5
3
100
AcDbSymbolTable
 70
1
  0
STYLE
  5
57
100
AcDbSymbolTableRecord
100
AcDbTextStyleTableRecord
  2
Standard
 70
0
 40
0.0
 41
1.0
 50
0.0
 71
0
 42
2.5
  3

  4

1001
ACAD
1000
txt
1071
0
  0
ENDTAB
  0
TABLE
  2
VIEW
  5
6
100
AcDbSymbolTable
 70
0
  0
ENDTAB
  0
TABLE
  2
UCS
  5
7
100
AcDbSymbolTable
 70
0
  0
ENDTAB
  0
TABLE
  2
APPID
  5
9
100
AcDbSymbolTable
 70
1
  0
APPID
  5
12
100
AcDbSymbolTableRecord
100
AcDbRegAppTableRecord
  2
ACAD
 70
0
  0
APPID
  5
58
100
AcDbSymbolTableRecord
100
AcDbRegAppTableRecord
  2
QCAD
 70
0
  0
ENDTAB
  0
TABLE
  2
DIMSTYLE
  5
A
100
AcDbSymbolTable
 70
1
100
AcDbDimStyleTable
 71
0
  0
DIMSTYLE
105
27
100
AcDbSymbolTableRecord
100
AcDbDimStyleTableRecord
  2
Standard
 41
2.5
 42
0.625
 43
3.75
 44
1.25
 70
0
 73
0
 74
0
 77
1
 78
8
140
2.5
141
2.5
143
0.03937007874016
147
0.625
171
3
172
1
271
2
272
2
274
3
278
44
283
0
284
8
340
57
  0
ENDTAB
  0
TABLE
  2
BLOCK_RECORD
  5
1
100
AcDbSymbolTable
 70
1
  0
BLOCK_RECORD
  5
1F
100
AcDbSymbolTableRecord
100
AcDbBlockTableRecord
  2
*Model_Space
340
22
  0
BLOCK_RECORD
  5
1B
100
AcDbSymbolTableRecord
100
AcDbBlockTableRecord
  2
*Paper_Space
340
1E
  0
BLOCK_RECORD
  5
23
100
AcDbSymbolTableRecord
100
AcDbBlockTableRecord
  2
*Paper_Space0
340
26
  0
BLOCK_RECORD
  5
59
100
AcDbSymbolTableRecord
100
AcDbBlockTableRecord
  2
frame_laser
340
0
  0
BLOCK_RECORD
  5
5A
100
AcDbSymbolTableRecord
100
AcDbBlockTableRecord
  2
carrier
340
0
  0
BLOCK_RECORD
  5
5B
100
AcDbSymbolTableRecord
100
AcDbBlockTableRecord
  2
bed_x
340
0
  0
BLOCK_RECORD
  5
5C
100
AcDbSymbolTableRecord
100
AcDbBlockTableRecord
  2
p2
340
0
  0
BLOCK_RECORD
  5
5D
100
AcDbSymbolTableRecord
100
AcDbBlockTableRecord
  2
crane_switch
340
0
  0
BLOCK_RECORD
  5
5E
100
AcDbSymbolTableRecord
100
AcDbBlockTableRecord
  2
bed_backing
340
0
  0
BLOCK_RECORD
  5
5F
100
AcDbSymbolTableRecord
100
AcDbBlockTableRecord
  2
frame_galvo
340
0
  0
BLOCK_RECORD
  5
60
100
AcDbSymbolTableRecord
100
AcDbBlockTableRecord
  2
carrier_wall
340
0
  0
ENDTAB
  0
ENDSEC
  0
SECTION
  2
BLOCKS
  0
BLOCK
  5
20
100
AcDbEntity
  8
0
100
AcDbBlockBegin
  2
*Model_Space
 70
0
 10
0.0
 20
0.0
 30
0.0
  3
*Model_Space
  1

  0
ENDBLK
  5
21
100
AcDbEntity
  8
0
100
AcDbBlockEnd
  0
BLOCK
  5
1C
100
AcDbEntity
 67
1
  8
0
100
AcDbBlockBegin
  2
*Paper_Space
 70
0
 10
0.0
 20
0.0
 30
0.0
  3
*Paper_Space
  1

  0
ENDBLK
  5
1D
100
AcDbEntity
 67
1
  8
0
100
AcDbBlockEnd
  0
BLOCK
  5
24
100
AcDbEntity
  8
0
100
AcDbBlockBegin
  2
*Paper_Space0
 70
0
 10
0.0
 20
0.0
 30
0.0
  3
*Paper_Space0
  1

  0
ENDBLK
  5
25
100
AcDbEntity
  8
0
100
AcDbBlockEnd
  0
BLOCK
  5
61
100
AcDbEntity
  8
0
100
AcDbBlockBegin
  2
frame_laser
 70
0
 10
0.0
 20
0.0
 30
0.0
  3
frame_laser
  1

  0
LWPOLYLINE
  5
62
  8
0
 62
256
370
-1
 48
1.0
  6
ByLayer
100
AcDbEntity
100
AcDbPolyline
 90
28
 70
1
 10
-9.5
 20
60.979130371550696
 30
0.0
 42
-0.9198662110078005
 10
-9.5
 20
49.020869628449304
 30
0.0
 10
-9.5
 20
42.0
 30
0.0
 10
-10.5
 20
42.0
 30
0.0
 10
-10.5
 20
49.020869628449304
 30
0.0
 42
-0.9198662110078002
 10
-10.5
 20
60.979130371550696
 30
0.0
 10
-10.5
 20
69.0
 30
0.0
 10
-20.0
 20
69.0
 30
0.0
 10
-20.0
 20
66.0
 30
0.0
 10
-15.5
 20
66.0
 30
0.0
 10
-15.5
 20
63.0
 30
0.0
 10
-20.0
 20
63.0
 30
0.0
 10
-20.0
 20
45.0
 30
0.0
 10
-12.5
 20
45.0
 30
0.0
 10
-12.5
 20
42.0
 30
0.0
 10
-20.0
 20
42.0
 30
0.0
 10
-20.0
 20
0.0
 30
0.0
 10
0.0
 20
0.0
 30
0.0
 10
0.0
 20
42.0
 30
0.0
 10
-7.5000000000002274
 20
42.0
 30
0.0
 10
-7.5000000000002274
 20
45.0
 30
0.0
 10
0.0
 20
45.0
 30
0.0
 10
0.0
 20
63.0
 30
0.0
 10
-4.5000000000002274
 20
63.0
 30
0.0
 10
-4.5000000000002274
 20
66.0
 30
0.0
 10
0.0
 20
66.0
 30
0.0
 10
0.0
 20
69.0
 30
0.0
 10
-9.5
 20
69.000000000000114
 30
0.0
  0
CIRCLE
  5
63
100
AcDbEntity
100
AcDbCircle
  8
0
 62
256
370
-1
 48
1.0
  6
ByLayer
 10
-3.3333333333334849
 20
36.060000000000002
 30
0.0
 40
2.0
  0
CIRCLE
  5
64
100
AcDbEntity
100
AcDbCircle
  8
0
 62
256
370
-1
 48
1.0
  6
ByLayer
 10
-16.666666666666742
 20
36.060000000000002
 30
0.0
 40
2.0
  0
CIRCLE
  5
65
100
AcDbEntity
100
AcDbCircle
  8
0
 62
256
370
-1
 48
1.0
  6
ByLayer
 10
-10.0
 20
25.0
 30
0.0
 40
1.575000000000004
  0
CIRCLE
  5
66
100
AcDbEntity
100
AcDbCircle
  8
0
 62
256
370
-1
 48
1.0
  6
ByLayer
 10
-10.0
 20
10.0
 30
0.0
 40
1.574999999999996
  0
ENDBLK
  5
67
100
AcDbEntity
  8
0
100
AcDbBlockEnd
  0
BLOCK
  5
68
100
AcDbEntity
  8
0
100
AcDbBlockBegin
  2
carrier
 70
0
 10
0.0
 20
0.0
 30
0.0
  3
carrier
  1

  0
CIRCLE
  5
69
100
AcDbEntity
100
AcDbCircle
  8
0
 62
256
370
-1
 48
1.0
  6
ByLayer
 10
-198.0
 20
66.380000000000024
 30
0.0
 40
3.9999999999999991
  0
LWPOLYLINE
  5
6A
  8
0
 62
256
370
-1
 48
1.0
  6
ByLayer
100
AcDbEntity
100
AcDbPolyline
 90
4
 70
1
 10
-28.0
 20
166.00000000000011
 30
0.0
 10
-28.0
 20
15.000000000000057
 30
0.0
 10
-179.0
 20
15.000000000000057
 30
0.0
 10
-179.0
 20
166.00000000000006
 30
0.0
  0
LWPOLYLINE
  5
6B
  8
0
 62
256
370
-1
 48
1.0
  6
ByLayer
100
AcDbEntity
100
AcDbPolyline
 90
4
 70
1
 10
-9.8500000000000227
 20
147.40000000000009
 30
0.0
 10
-13.0
 20
147.40000000000009
 30
0.0
 10
-13.0
 20
164.2000000000001
 30
0.0
 10
-9.8500000000000227
 20
164.2000000000001
 30
0.0
  0
LWPOLYLINE
  5
6C
  8
0
 62
256
370
-1
 48
1.0
  6
ByLayer
100
AcDbEntity
100
AcDbPolyline
 90
4
 70
1
 10
-194.0
 20
147.40000000000009
 30
0.0
 10
-197.14999999999998
 20
147.40000000000009
 30
0.0
 10
-197.14999999999998
 20
164.2000000000001
 30
0.0
 10
-194.0
 20
164.2000000000001
 30
0.0
  0
LWPOLYLINE
  5
6D
  8
0
 62
256
370
-1
 48
1.0
  6
ByLayer
100
AcDbEntity
100
AcDbPolyline
 90
4
 70
1
 10
-197.14999999999998
 20
33.600000000000023
 30
0.0
 10
-194.0
 20
33.600000000000023
 30
0.0
 10
-194.0
 20
16.800000000000011
 30
0.0
 10
-197.14999999999998
 20
16.800000000000011
 30
0.0
  0
LWPOLYLINE
  5
6E
  8
0
 62
256
370
-1
 48
1.0
  6
ByLayer
100
AcDbEntity
100
AcDbPolyline
 90
4
 70
1
 10
-9.8500000000000227
 20
16.800000000000011
 30
0.0
 10
-13.0
 20
16.800000000000011
 30
0.0
 10
-13.0
 20
33.600000000000023
 30
0.0
 10
-9.8500000000000227
 20
33.600000000000023
 30
0.0
  0
LWPOLYLINE
  5
6F
  8
0
 62
256
370
-1
 48
1.0
  6
ByLayer
100
AcDbEntity
100
AcDbPolyline
 90
92
 70
1
 10
19.779999999999973
 20
111.1033333333334
 30
0.0
 10
15.5
 20
111.1033333333334
 30
0.0
 10
15.5
 20
110.0033333333334
 30
0.0
 42
-2.414213562373094
 10
15.25
 20
109.7533333333334
 30
0.0
 10
12.75
 20
109.7533333333334
 30
0.0
 42
-2.4142135623730789
 10
12.5
 20
110.0033333333334
 30
0.0
 10
12.5
 20
111.1033333333334
 30
0.0
 10
10.5
 20
111.1033333333334
 30
0.0
 10
10.5
 20
114.40333333333339
 30
0.0
 10
12.5
 20
114.40333333333339
 30
0.0
 10
12.5
 20
115.50333333333342
 30
0.0
 42
-2.414213562373094
 10
12.75
 20
115.7533333333334
 30
0.0
 10
15.25
 20
115.7533333333334
 30
0.0
 42
-2.414213562373094
 10
15.5
 20
115.50333333333342
 30
0.0
 10
15.5
 20
114.40333333333339
 30
0.0
 10
19.779999999999973
 20
114.40333333333339
 30
0.0
 10
19.779999999999859
 20
123.88000000000008
 30
0.0
 10
-6.5
 20
123.88000000000008
 30
0.0
 10
-6.5
 20
130.60000000000008
 30
0.0
 10
0.0
 20
130.60000000000008
 30
0.0
 10
0.0
 20
181.00000000000014
 30
0.0
 10
-207.0
 20
181.00000000000011
 30
0.0
 10
-207.0
 20
130.60000000000002
 30
0.0
 10
-200.5
 20
130.60000000000005
 30
0.0
 10
-200.5
 20
123.88000000000005
 30
0.0
 10
-226.77999999999992
 20
123.88000000000004
 30
0.0
 10
-226.77999999999997
 20
114.40333333333339
 30
0.0
 10
-222.5
 20
114.40333333333339
 30
0.0
 10
-222.5
 20
115.50333333333342
 30
0.0
 42
-2.414213562373094
 10
-222.25
 20
115.7533333333334
 30
0.0
 10
-219.75
 20
115.7533333333334
 30
0.0
 42
-2.414213562373094
 10
-219.5
 20
115.50333333333342
 30
0.0
 10
-219.5
 20
114.40333333333339
 30
0.0
 10
-217.5
 20
114.40333333333339
 30
0.0
 10
-217.5
 20
111.1033333333334
 30
0.0
 10
-219.5
 20
111.1033333333334
 30
0.0
 10
-219.5
 20
110.0033333333334
 30
0.0
 42
-2.4142135623730789
 10
-219.75
 20
109.7533333333334
 30
0.0
 10
-222.25
 20
109.7533333333334
 30
0.0
 42
-2.414213562373094
 10
-222.5
 20
110.0033333333334
 30
0.0
 10
-222.5
 20
111.1033333333334
 30
0.0
 10
-226.77999999999997
 20
111.1033333333334
 30
0.0
 10
-226.77999999999997
 20
101.62666666666669
 30
0.0
 10
-233.5
 20
101.62666666666669
 30
0.0
 10
-233.5
 20
79.373333333333392
 30
0.0
 10
-226.77999999999997
 20
79.373333333333392
 30
0.0
 10
-226.77999999999997
 20
69.896666666666704
 30
0.0
 10
-222.5
 20
69.896666666666704
 30
0.0
 10
-222.5
 20
70.996666666666727
 30
0.0
 42
-2.414213562373094
 10
-222.25
 20
71.246666666666727
 30
0.0
 10
-219.75
 20
71.246666666666727
 30
0.0
 42
-2.4142135623730789
 10
-219.5
 20
70.996666666666727
 30
0.0
 10
-219.5
 20
69.896666666666704
 30
0.0
 10
-217.5
 20
69.896666666666704
 30
0.0
 10
-217.5
 20
66.596666666666721
 30
0.0
 10
-219.5
 20
66.596666666666721
 30
0.0
 10
-219.5
 20
65.496666666666698
 30
0.0
 42
-2.414213562373094
 10
-219.75
 20
65.246666666666727
 30
0.0
 10
-222.25
 20
65.246666666666727
 30
0.0
 42
-2.414213562373094
 10
-222.5
 20
65.496666666666698
 30
0.0
 10
-222.5
 20
66.596666666666721
 30
0.0
 10
-226.77999999999997
 20
66.596666666666721
 30
0.0
 10
-226.77999999999992
 20
57.120000000000033
 30
0.0
 10
-200.5
 20
57.120000000000033
 30
0.0
 10
-200.5
 20
50.400000000000034
 30
0.0
 10
-207.0
 20
50.400000000000034
 30
0.0
 10
-207.0
 20
0.0
 30
0.0
 10
0.0
 20
0.0
 30
0.0
 10
0.0
 20
50.400000000000063
 30
0.0
 10
-6.5
 20
50.400000000000034
 30
0.0
 10
-6.5
 20
57.120000000000061
 30
0.0
 10
19.779999999999859
 20
57.120000000000061
 30
0.0
 10
19.779999999999973
 20
66.596666666666721
 30
0.0
 10
15.5
 20
66.596666666666721
 30
0.0
 10
15.5
 20
65.496666666666698
 30
0.0
 42
-2.414213562373094
 10
15.25
 20
65.246666666666727
 30
0.0
 10
12.75
 20
65.246666666666727
 30
0.0
 42
-2.414213562373094
 10
12.5
 20
65.496666666666698
 30
0.0
 10
12.5
 20
66.596666666666721
 30
0.0
 10
10.5
 20
66.596666666666721
 30
0.0
 10
10.5
 20
69.896666666666704
 30
0.0
 10
12.5
 20
69.896666666666704
 30
0.0
 10
12.5
 20
70.996666666666727
 30
0.0
 42
-2.4142135623730789
 10
12.75
 20
71.246666666666727
 30
0.0
 10
15.25
 20
71.246666666666727
 30
0.0
 42
-2.414213562373094
 10
15.5
 20
70.996666666666727
 30
0.0
 10
15.5
 20
69.896666666666704
 30
0.0
 10
19.779999999999973
 20
69.896666666666704
 30
0.0
 10
19.779999999999973
 20
79.373333333333392
 30
0.0
 10
26.5
 20
79.373333333333392
 30
0.0
 10
26.5
 20
101.62666666666675
 30
0.0
 10
19.779999999999973
 20
101.62666666666675
 30
0.0
  0
CIRCLE
  5
70
100
AcDbEntity
100
AcDbCircle
  8
0
 62
256
370
-1
 48
1.0
  6
ByLayer
 10
-207.0
 20
90.500000000000057
 30
0.0
 40
4.0
  0
CIRCLE
  5
71
100
AcDbEntity
100
AcDbCircle
  8
0
 62
256
370
-1
 48
1.0
  6
ByLayer
 10
-207.0
 20
74.500000000000256
 30
0.0
 40
2.5
  0
CIRCLE
  5
72
100
AcDbEntity
100
AcDbCircle
  8
0
 62
256
370
-1
 48
1.0
  6
ByLayer
 10
-207.0
 20
106.49999999999983
 30
0.0
 40
2.5
  0
CIRCLE
  5
73
100
AcDbEntity
100
AcDbCircle
  8
0
 62
256
370
-1
 48
1.0
  6
ByLayer
 10
0.0
 20
90.500000000000057
 30
0.0
 40
4.0
  0
CIRCLE
  5
74
100
AcDbEntity
100
AcDbCircle
  8
0
 62
256
370
-1
 48
1.0
  6
ByLayer
 10
0.0
 20
74.500000000000256
 30
0.0
 40
2.5
  0
CIRCLE
  5
75
100
AcDbEntity
100
AcDbCircle
  8
0
 62
256
370
-1
 48
1.0
  6
ByLayer
 10
0.0
 20
106.49999999999983
 30
0.0
 40
2.5
  0
CIRCLE
  5
76
100
AcDbEntity
100
AcDbCircle
  8
0
 62
256
370
-1
 48
1.0
  6
ByLayer
 10
-103.5
 20
7.5000000000000853
 30
0.0
 40
2.6249999999999969
  0
CIRCLE
  5
77
100
AcDbEntity
100
AcDbCircle
  8
0
 62
256
370
-1
 48
1.0
  6
ByLayer
 10
-20.5
 20
90.500000000000114
 30
0.0
 40
2.6249999999999969
  0
CIRCLE
  5
78
100
AcDbEntity
100
AcDbCircle
  8
0
 62
256
370
-1
 48
1.0
  6
ByLayer
 10
-20.5
 20
173.50000000000011
 30
0.0
 40
2.6249999999999969
  0
CIRCLE
  5
79
100
AcDbEntity
100
AcDbCircle
  8
0
 62
256
370
-1
 48
1.0
  6
ByLayer
 10
-186.5
 20
173.50000000000006
 30
0.0
 40
2.6249999999999969
  0
CIRCLE
  5
7A
100
AcDbEntity
100
AcDbCircle
  8
0
 62
256
370
-1
 48
1.0
  6
ByLayer
 10
-103.5
 20
173.50000000000011
 30
0.0
 40
2.6249999999999969
  0
CIRCLE
  5
7B
100
AcDbEntity
100
AcDbCircle
  8
0
 62
256
370
-1
 48
1.0
  6
ByLayer
 10
-186.5
 20
90.500000000000085
 30
0.0
 40
2.6249999999999969
  0
CIRCLE
  5
7C
100
AcDbEntity
100
AcDbCircle
  8
0
 62
256
370
-1
 48
1.0
  6
ByLayer
 10
-186.5
 20
7.5000000000000568
 30
0.0
 40
2.6249999999999969
  0
CIRCLE
  5
7D
100
AcDbEntity
100
AcDbCircle
  8
0
 62
256
370
-1
 48
1.0
  6
ByLayer
 10
-20.5
 20
7.5000000000001137
 30
0.0
 40
2.6249999999999969
  0
CIRCLE
  5
7E
100
AcDbEntity
100
AcDbCircle
  8
0
 62
256
370
-1
 48
1.0
  6
ByLayer
 10
-9.0
 20
66.380000000000052
 30
0.0
 40
3.9999999999999991
  0
ENDBLK
  5
7F
100
AcDbEntity
  8
0
100
AcDbBlockEnd
  0
BLOCK
  5
80
100
AcDbEntity
  8
0
100
AcDbBlockBegin
  2
bed_x
 70
0
 10
0.0
 20
0.0
 30
0.0
  3
bed_x
  1

  0
CIRCLE
  5
81
100
AcDbEntity
100
AcDbCircle
  8
0
 62
256
370
-1
 48
1.0
  6
ByLayer
 10
-20.000000000000014
 20
-121.00000000000003
 30
0.0
 40
1.5750000000000051
  0
CIRCLE
  5
82
100
AcDbEntity
100
AcDbCircle
  8
0
 62
256
370
-1
 48
1.0
  6
ByLayer
 10
-111.00000000000001
 20
-30.000000000000028
 30
0.0
 40
2.0
  0
CIRCLE
  5
83
100
AcDbEntity
100
AcDbCircle
  8
0
 62
256
370
-1
 48
1.0
  6
ByLayer
 10
-30.000000000000014
 20
-111.00000000000003
 30
0.0
 40
2.0
  0
LWPOLYLINE
  5
84
  8
0
 62
256
370
-1
 48
1.0
  6
ByLayer
100
AcDbEntity
100
AcDbPolyline
 90
19
 70
1
 10
-70.499999999999986
 20
-40.500000000000028
 30
0.0
 10
-111.00000000000001
 20
-0.0000000000000853
 30
0.0
 10
-141.0
 20
-0.0000000000000284
 30
0.0
 10
-141.00000000000006
 20
-30.000000000000028
 30
0.0
 10
-100.50000000000001
 20
-70.500000000000028
 30
0.0
 10
-141.0
 20
-111.00000000000009
 30
0.0
 10
-141.0
 20
-126.00000000000003
 30
0.0
 10
-136.0
 20
-126.00000000000003
 30
0.0
 42
-0.4142135623730951
 10
-126.00000000000001
 20
-136.00000000000003
 30
0.0
 10
-126.00000000000001
 20
-141.00000000000003
 30
0.0
 10
-110.99999999999999
 20
-140.99999999999997
 30
0.0
 10
-70.499999999999957
 20
-100.50000000000003
 30
0.0
 10
-30.000000000000014
 20
-141.00000000000003
 30
0.0
 10
-0.0000000000000142
 20
-141.00000000000003
 30
0.0
 10
-0.0000000000000142
 20
-111.00000000000009
 30
0.0
 10
-40.500000000000014
 20
-70.500000000000028
 30
0.0
 10
0.0
 20
-29.999999999999972
 30
0.0
 10
0.0
 20
0.0
 30
0.0
 10
-30.000000000000043
 20
-0.0000000000000284
 30
0.0
  0
CIRCLE
  5
85
100
AcDbEntity
100
AcDbCircle
  8
0
 62
256
370
-1
 48
1.0
  6
ByLayer
 10
-110.99999999999999
 20
-111.00000000000003
 30
0.0
 40
2.0
  0
CIRCLE
  5
86
100
AcDbEntity
100
AcDbCircle
  8
0
 62
256
370
-1
 48
1.0
  6
ByLayer
 10
-30.000000000000014
 20
-30.000000000000028
 30
0.0
 40
2.0
  0
CIRCLE
  5
87
100
AcDbEntity
100
AcDbCircle
  8
0
 62
256
370
-1
 48
1.0
  6
ByLayer
 10
-120.99999999999999
 20
-121.00000000000003
 30
0.0
 40
1.5750000000000051
  0
CIRCLE
  5
88
100
AcDbEntity
100
AcDbCircle
  8
0
 62
256
370
-1
 48
1.0
  6
ByLayer
 10
-20.000000000000014
 20
-20.000000000000028
 30
0.0
 40
1.5750000000000051
  0
CIRCLE
  5
89
100
AcDbEntity
100
AcDbCircle
  8
0
 62
256
370
-1
 48
1.0
  6
ByLayer
 10
-121.00000000000001
 20
-20.000000000000028
 30
0.0
 40
1.5750000000000051
  0
ENDBLK
  5
8A
100
AcDbEntity
  8
0
100
AcDbBlockEnd
  0
BLOCK
  5
8B
100
AcDbEntity
  8
0
100
AcDbBlockBegin
  2
p2
 70
0
 10
0.0
 20
0.0
 30
0.0
  3
p2
  1

  0
LINE
  5
8C
100
AcDbEntity
100
AcDbLine
  8
0
 62
256
370
-1
 48
1.0
  6
ByLayer
 10
0.0
 20
-384.0
 30
0.0
 11
0.0
 21
0.0
 31
0.0
  0
LINE
  5
8D
100
AcDbEntity
100
AcDbLine
  8
0
 62
256
370
-1
 48
1.0
  6
ByLayer
 10
0.0
 20
0.0
 30
0.0
 11
384.0
 21
0.0
 31
0.0
  0
LINE
  5
8E
100
AcDbEntity
100
AcDbLine
  8
0
 62
256
370
-1
 48
1.0
  6
ByLayer
 10
384.0
 20
0.0
 30
0.0
 11
384.0
 21
-384.0
 31
0.0
  0
LINE
  5
8F
100
AcDbEntity
100
AcDbLine
  8
0
 62
256
370
-1
 48
1.0
  6
ByLayer
 10
384.0
 20
-384.0
 30
0.0
 11
0.0
 21
-384.0
 31
0.0
  0
ENDBLK
  5
90
100
AcDbEntity
  8
0
100
AcDbBlockEnd
  0
BLOCK
  5
91
100
AcDbEntity
  8
0
100
AcDbBlockBegin
  2
crane_switch
 70
0
 10
0.0
 20
0.0
 30
0.0
  3
crane_switch
  1

  0
LWPOLYLINE
  5
92
  8
0
 62
256
370
-1
 48
1.0
  6
ByLayer
100
AcDbEntity
100
AcDbPolyline
 90
4
 70
1
 10
-3.7500000000001137
 20
5.0000000000000142
 30
0.0
 42
-0.9999999999999998
 10
-6.75
 20
5.0000000000000284
 30
0.0
 10
-6.7500000000001137
 20
65.0
 30
0.0
 42
-0.9999999999999998
 10
-3.7500000000001137
 20
65.000000000000014
 30
0.0
  0
LWPOLYLINE
  5
93
  8
0
 62
256
370
-1
 48
1.0
  6
ByLayer
100
AcDbEntity
100
AcDbPolyline
 90
4
 70
1
 10
-16.250000000000114
 20
65.0
 30
0.0
 42
-0.9999999999999998
 10
-13.250000000000114
 20
65.0
 30
0.0
 10
-13.25
 20
5.0000000000000142
 30
0.0
 42
-0.9999999999999998
 10
-16.250000000000114
 20
5.0
 30
0.0
  0
LWPOLYLINE
  5
94
  8
0
 62
256
370
-1
 48
1.0
  6
ByLayer
100
AcDbEntity
100
AcDbPolyline
 90
4
 70
1
 10
-20.000000000000114
 20
70.0
 30
0.0
 10
-20.0
 20
0.0
 30
0.0
 10
0.0
 20
0.0
 30
0.0
 10
0.0
 20
70.0
 30
0.0
  0
ENDBLK
  5
95
100
AcDbEntity
  8
0
100
AcDbBlockEnd
  0
BLOCK
  5
96
100
AcDbEntity
  8
0
100
AcDbBlockBegin
  2
bed_backing
 70
0
 10
0.0
 20
0.0
 30
0.0
  3
bed_backing
  1

  0
CIRCLE
  5
97
100
AcDbEntity
100
AcDbCircle
  8
0
 62
256
370
-1
 48
1.0
  6
ByLayer
 10
-30.0
 20
30.000000000000057
 30
0.0
 40
4.0
  0
CIRCLE
  5
98
100
AcDbEntity
100
AcDbCircle
  8
0
 62
256
370
-1
 48
1.0
  6
ByLayer
 10
-20.0
 20
121.00000000000006
 30
0.0
 40
2.0
  0
CIRCLE
  5
99
100
AcDbEntity
100
AcDbCircle
  8
0
 62
256
370
-1
 48
1.0
  6
ByLayer
 10
-20.0
 20
20.000000000000057
 30
0.0
 40
2.0
  0
CIRCLE
  5
9A
100
AcDbEntity
100
AcDbCircle
  8
0
 62
256
370
-1
 48
1.0
  6
ByLayer
 10
-121.0
 20
20.000000000000057
 30
0.0
 40
2.0
  0
CIRCLE
  5
9B
100
AcDbEntity
100
AcDbCircle
  8
0
 62
256
370
-1
 48
1.0
  6
ByLayer
 10
-121.0
 20
121.00000000000011
 30
0.0
 40
2.0
  0
CIRCLE
  5
9C
100
AcDbEntity
100
AcDbCircle
  8
0
 62
256
370
-1
 48
1.0
  6
ByLayer
 10
-111.0
 20
30.000000000000057
 30
0.0
 40
4.0
  0
CIRCLE
  5
9D
100
AcDbEntity
100
AcDbCircle
  8
0
 62
256
370
-1
 48
1.0
  6
ByLayer
 10
-111.0
 20
111.00000000000009
 30
0.0
 40
4.0
  0
CIRCLE
  5
9E
100
AcDbEntity
100
AcDbCircle
  8
0
 62
256
370
-1
 48
1.0
  6
ByLayer
 10
-9.5
 20
55.220000000000084
 30
0.0
 40
2.0
  0
LWPOLYLINE
  5
9F
  8
0
 62
256
370
-1
 48
1.0
  6
ByLayer
100
AcDbEntity
100
AcDbPolyline
 90
7
 70
1
 10
-126.0
 20
141.00000000000009
 30
0.0
 10
-126.0
 20
136.00000000000006
 30
0.0
 42
-0.4142135623730951
 10
-136.0
 20
126.00000000000006
 30
0.0
 10
-141.0
 20
126.00000000000006
 30
0.0
 10
-141.0
 20
0.0000000000000568
 30
0.0
 10
0.0
 20
0.0
 30
0.0
 10
0.0
 20
141.00000000000006
 30
0.0
  0
CIRCLE
  5
A0
100
AcDbEntity
100
AcDbCircle
  8
0
 62
256
370
-1
 48
1.0
  6
ByLayer
 10
-30.0
 20
111.00000000000006
 30
0.0
 40
4.0
  0
ENDBLK
  5
A1
100
AcDbEntity
  8
0
100
AcDbBlockEnd
  0
BLOCK
  5
A2
100
AcDbEntity
  8
0
100
AcDbBlockBegin
  2
frame_galvo
 70
0
 10
0.0
 20
0.0
 30
0.0
  3
frame_galvo
  1

  0
LWPOLYLINE
  5
A3
  8
0
 62
256
370
-1
 48
1.0
  6
ByLayer
100
AcDbEntity
100
AcDbPolyline
 90
4
 70
1
 10
-20.599999999999909
 20
-8.0000000000001137
 30
0.0
 42
-0.9999999999999998
 10
-16.399999999999864
 20
-8.0000000000001137
 30
0.0
 10
-16.399999999999864
 20
-12.000000000000114
 30
0.0
 42
-0.9999999999999998
 10
-20.599999999999909
 20
-12.000000000000114
 30
0.0
  0
LWPOLYLINE
  5
A4
  8
0
 62
256
370
-1
 48
1.0
  6
ByLayer
100
AcDbEntity
100
AcDbPolyline
 90
4
 70
1
 10
-30.899999999999864
 20
-29.000000000000114
 30
0.0
 10
-30.899999999999864
 20
-33.000000000000114
 30
0.0
 42
-0.9999999999999998
 10
-35.099999999999909
 20
-33.000000000000114
 30
0.0
 10
-35.099999999999909
 20
-29.000000000000114
 30
0.0
 42
-0.9999999999999998
  0
LWPOLYLINE
  5
A5
  8
0
 62
256
370
-1
 48
1.0
  6
ByLayer
100
AcDbEntity
100
AcDbPolyline
 90
4
 70
1
 10
-20.599999999999909
 20
-20.500000000000114
 30
0.0
 42
-0.9999999999999998
 10
-16.399999999999864
 20
-20.500000000000114
 30
0.0
 10
-16.399999999999864
 20
-24.500000000000114
 30
0.0
 42
-0.9999999999999998
 10
-20.599999999999909
 20
-24.500000000000114
 30
0.0
  0
LWPOLYLINE
  5
A6
  8
0
 62
256
370
-1
 48
1.0
  6
ByLayer
100
AcDbEntity
100
AcDbPolyline
 90
8
 70
1
 10
-22.0
 20
-65.000000000000114
 30
0.0
 10
0.0
 20
-65.000000000000114
 30
0.0
 10
0.0
 20
0.0
 30
0.0
 10
-66.0
 20
-0.0000000000001137
 30
0.0
 10
-66.0
 20
-65.000000000000114
 30
0.0
 10
-44.0
 20
-65.000000000000114
 30
0.0
 10
-44.0
 20
-71.720000000000113
 30
0.0
 10
-22.0
 20
-71.720000000000113
 30
0.0
  0
CIRCLE
  5
A7
100
AcDbEntity
100
AcDbCircle
  8
0
 62
256
370
-1
 48
1.0
  6
ByLayer
 10
-60.119999999999891
 20
-38.940000000000111
 30
0.0
 40
2.0000000000000071
  0
CIRCLE
  5
A8
100
AcDbEntity
100
AcDbCircle
  8
0
 62
256
370
-1
 48
1.0
  6
ByLayer
 10
-5.8799999999998818
 20
-38.940000000000026
 30
0.0
 40
2.0000000000000071
  0
ENDBLK
  5
A9
100
AcDbEntity
  8
0
100
AcDbBlockEnd
  0
BLOCK
  5
AA
100
AcDbEntity
  8
0
100
AcDbBlockBegin
  2
carrier_wall
 70
0
 10
0.0
 20
0.0
 30
0.0
  3
carrier_wall
  1

  0
LWPOLYLINE
  5
AB
  8
0
 62
256
370
-1
 48
1.0
  6
ByLayer
100
AcDbEntity
100
AcDbPolyline
 90
4
 70
1
 10
-166.00000000000011
 20
15.0
 30
0.0
 10
-166.00000000000011
 20
166.0
 30
0.0
 10
-15.000000000000114
 20
166.00000000000006
 30
0.0
 10
-15.000000000000114
 20
15.0
 30
0.0
  0
LWPOLYLINE
  5
AC
  8
0
 62
256
370
-1
 48
1.0
  6
ByLayer
100
AcDbEntity
100
AcDbPolyline
 90
4
 70
1
 10
-181.00000000000011
 20
0.0
 30
0.0
 10
0.0
 20
0.0
 30
0.0
 10
-0.0000000000001137
 20
181.00000000000009
 30
0.0
 10
-181.00000000000011
 20
181.0
 30
0.0
  0
CIRCLE
  5
AD
100
AcDbEntity
100
AcDbCircle
  8
0
 62
256
370
-1
 48
1.0
  6
ByLayer
 10
-90.500000000000114
 20
7.5
 30
0.0
 40
2.6249999999999969
  0
CIRCLE
  5
AE
100
AcDbEntity
100
AcDbCircle
  8
0
 62
256
370
-1
 48
1.0
  6
ByLayer
 10
-7.5000000000001137
 20
90.500000000000057
 30
0.0
 40
2.6249999999999969
  0
CIRCLE
  5
AF
100
AcDbEntity
100
AcDbCircle
  8
0
 62
256
370
-1
 48
1.0
  6
ByLayer
 10
-7.5000000000001137
 20
173.50000000000006
 30
0.0
 40
2.6249999999999969
  0
CIRCLE
  5
B0
100
AcDbEntity
100
AcDbCircle
  8
0
 62
256
370
-1
 48
1.0
  6
ByLayer
 10
-173.50000000000011
 20
173.5
 30
0.0
 40
2.6249999999999969
  0
CIRCLE
  5
B1
100
AcDbEntity
100
AcDbCircle
  8
0
 62
256
370
-1
 48
1.0
  6
ByLayer
 10
-90.500000000000114
 20
173.50000000000006
 30
0.0
 40
2.6249999999999969
  0
CIRCLE
  5
B2
100
AcDbEntity
100
AcDbCircle
  8
0
 62
256
370
-1
 48
1.0
  6
ByLayer
 10
-173.50000000000011
 20
90.500000000000028
 30
0.0
 40
2.6249999999999969
  0
CIRCLE
  5
B3
100
AcDbEntity
100
AcDbCircle
  8
0
 62
256
370
-1
 48
1.0
  6
ByLayer
 10
-173.50000000000011
 20
7.5
 30
0.0
 40
2.6249999999999969
  0
CIRCLE
  5
B4
100
AcDbEntity
100
AcDbCircle
  8
0
 62
256
370
-1
 48
1.0
  6
ByLayer
 10
-7.5000000000001137
 20
7.5000000000000568
 30
0.0
 40
2.6249999999999969
  0
ENDBLK
  5
B5
100
AcDbEntity
  8
0
100
AcDbBlockEnd
  0
ENDSEC
  0
SECTION
  2
ENTITIES
  0
CIRCLE
  5
B6
100
AcDbEntity
100
AcDbCircle
  8
0
 62
256
370
-1
 48
1.0
  6
ByLayer
 10
134.34000000000006
 20
140.33333333333326
 30
0.0
 40
2.0
  0
CIRCLE
  5
B7
100
AcDbEntity
100
AcDbCircle
  8
0
 62
256
370
-1
 48
1.0
  6
ByLayer
 10
134.34000000000006
 20
153.66666666666654
 30
0.0
 40
2.0
  0
CIRCLE
  5
B8
100
AcDbEntity
100
AcDbCircle
  8
0
 62
256
370
-1
 48
1.0
  6
ByLayer
 10
123.28000000000006
 20
146.9999999999998
 30
0.0
 40
1.575000000000004
  0
CIRCLE
  5
B9
100
AcDbEntity
100
AcDbCircle
  8
0
 62
256
370
-1
 48
1.0
  6
ByLayer
 10
108.28000000000006
 20
146.9999999999998
 30
0.0
 40
1.574999999999996
  0
CIRCLE
  5
BA
100
AcDbEntity
100
AcDbCircle
  8
0
 62
256
370
-1
 48
1.0
  6
ByLayer
 10
-16.499999999999943
 20
56.0
 30
0.0
 40
4.0
  0
CIRCLE
  5
BB
100
AcDbEntity
100
AcDbCircle
  8
0
 62
256
370
-1
 48
1.0
  6
ByLayer
 10
-6.4999999999999432
 20
147.0
 30
0.0
 40
2.0
  0
CIRCLE
  5
BC
100
AcDbEntity
100
AcDbCircle
  8
0
 62
256
370
-1
 48
1.0
  6
ByLayer
 10
-6.4999999999999432
 20
46.0
 30
0.0
 40
2.0
  0
CIRCLE
  5
BD
100
AcDbEntity
100
AcDbCircle
  8
0
 62
256
370
-1
 48
1.0
  6
ByLayer
 10
-107.49999999999994
 20
46.0
 30
0.0
 40
2.0
  0
CIRCLE
  5
BE
100
AcDbEntity
100
AcDbCircle
  8
0
 62
256
370
-1
 48
1.0
  6
ByLayer
 10
-107.49999999999994
 20
147.00000000000006
 30
0.0
 40
2.0
  0
CIRCLE
  5
BF
100
AcDbEntity
100
AcDbCircle
  8
0
 62
256
370
-1
 48
1.0
  6
ByLayer
 10
-97.499999999999943
 20
56.0
 30
0.0
 40
4.0
  0
CIRCLE
  5
C0
100
AcDbEntity
100
AcDbCircle
  8
0
 62
256
370
-1
 48
1.0
  6
ByLayer
 10
-97.499999999999943
 20
137.00000000000003
 30
0.0
 40
4.0
  0
CIRCLE
  5
C1
100
AcDbEntity
100
AcDbCircle
  8
0
 62
256
370
-1
 48
1.0
  6
ByLayer
 10
4.0000000000000568
 20
81.220000000000027
 30
0.0
 40
2.0
  0
CIRCLE
  5
C2
100
AcDbEntity
100
AcDbCircle
  8
0
 62
256
370
-1
 48
1.0
  6
ByLayer
 10
-16.499999999999943
 20
137.0
 30
0.0
 40
4.0
  0
CIRCLE
  5
C3
100
AcDbEntity
100
AcDbCircle
  8
0
 62
256
370
-1
 48
1.0
  6
ByLayer
 10
-136.99999999999994
 20
-115.00000000000043
 30
0.0
 40
2.0
  0
CIRCLE
  5
C4
100
AcDbEntity
100
AcDbCircle
  8
0
 62
256
370
-1
 48
1.0
  6
ByLayer
 10
-55.999999999999986
 20
-34.000000000000426
 30
0.0
 40
2.0
  0
CIRCLE
  5
C5
100
AcDbEntity
100
AcDbCircle
  8
0
 62
256
370
-1
 48
1.0
  6
ByLayer
 10
-146.99999999999994
 20
-125.00000000000043
 30
0.0
 40
1.5750000000000051
  0
CIRCLE
  5
C6
100
AcDbEntity
100
AcDbCircle
  8
0
 62
256
370
-1
 48
1.0
  6
ByLayer
 10
-45.999999999999986
 20
-24.000000000000426
 30
0.0
 40
1.5750000000000051
  0
CIRCLE
  5
C7
100
AcDbEntity
100
AcDbCircle
  8
0
 62
256
370
-1
 48
1.0
  6
ByLayer
 10
-147.0
 20
-24.000000000000426
 30
0.0
 40
1.5750000000000051
  0
CIRCLE
  5
C8
100
AcDbEntity
100
AcDbCircle
  8
0
 62
256
370
-1
 48
1.0
  6
ByLayer
 10
-45.999999999999986
 20
-125.00000000000043
 30
0.0
 40
1.5750000000000051
  0
CIRCLE
  5
C9
100
AcDbEntity
100
AcDbCircle
  8
0
 62
256
370
-1
 48
1.0
  6
ByLayer
 10
-137.0
 20
-34.000000000000426
 30
0.0
 40
2.0
  0
CIRCLE
  5
CA
100
AcDbEntity
100
AcDbCircle
  8
0
 62
256
370
-1
 48
1.0
  6
ByLayer
 10
-55.999999999999986
 20
-115.00000000000043
 30
0.0
 40
2.0
  0
CIRCLE
  5
CB
100
AcDbEntity
100
AcDbCircle
  8
0
 62
256
370
-1
 48
1.0
  6
ByLayer
 10
125.0000000000002
 20
-125.00000000000006
 30
0.0
 40
4.0
  0
CIRCLE
  5
CC
100
AcDbEntity
100
AcDbCircle
  8
0
 62
256
370
-1
 48
1.0
  6
ByLayer
 10
135.0000000000002
 20
-34.000000000000057
 30
0.0
 40
2.0
  0
CIRCLE
  5
CD
100
AcDbEntity
100
AcDbCircle
  8
0
 62
256
370
-1
 48
1.0
  6
ByLayer
 10
135.0000000000002
 20
-135.00000000000006
 30
0.0
 40
2.0
  0
CIRCLE
  5
CE
100
AcDbEntity
100
AcDbCircle
  8
0
 62
256
370
-1
 48
1.0
  6
ByLayer
 10
34.000000000000199
 20
-135.00000000000006
 30
0.0
 40
2.0
  0
CIRCLE
  5
CF
100
AcDbEntity
100
AcDbCircle
  8
0
 62
256
370
-1
 48
1.0
  6
ByLayer
 10
34.000000000000199
 20
-34.0
 30
0.0
 40
2.0
  0
CIRCLE
  5
D0
100
AcDbEntity
100
AcDbCircle
  8
0
 62
256
370
-1
 48
1.0
  6
ByLayer
 10
44.000000000000199
 20
-125.00000000000006
 30
0.0
 40
4.0
  0
CIRCLE
  5
D1
100
AcDbEntity
100
AcDbCircle
  8
0
 62
256
370
-1
 48
1.0
  6
ByLayer
 10
44.000000000000199
 20
-44.000000000000028
 30
0.0
 40
4.0
  0
CIRCLE
  5
D2
100
AcDbEntity
100
AcDbCircle
  8
0
 62
256
370
-1
 48
1.0
  6
ByLayer
 10
145.5000000000002
 20
-99.78000000000003
 30
0.0
 40
2.0
  0
CIRCLE
  5
D3
100
AcDbEntity
100
AcDbCircle
  8
0
 62
256
370
-1
 48
1.0
  6
ByLayer
 10
125.0000000000002
 20
-44.000000000000057
 30
0.0
 40
4.0
  0
CIRCLE
  5
D4
100
AcDbEntity
100
AcDbCircle
  8
0
 62
256
370
-1
 48
1.0
  6
ByLayer
 10
21.000000000000028
 20
101.5
 30
0.0
 40
2.6249999999999969
  0
CIRCLE
  5
D5
100
AcDbEntity
100
AcDbCircle
  8
0
 62
256
370
-1
 48
1.0
  6
ByLayer
 10
21.000000000000028
 20
184.5
 30
0.0
 40
2.6249999999999969
  0
CIRCLE
  5
D6
100
AcDbEntity
100
AcDbCircle
  8
0
 62
256
370
-1
 48
1.0
  6
ByLayer
 10
-144.99999999999997
 20
184.49999999999994
 30
0.0
 40
2.6249999999999969
  0
CIRCLE
  5
D7
100
AcDbEntity
100
AcDbCircle
  8
0
 62
256
370
-1
 48
1.0
  6
ByLayer
 10
-61.999999999999972
 20
184.5
 30
0.0
 40
2.6249999999999969
  0
CIRCLE
  5
D8
100
AcDbEntity
100
AcDbCircle
  8
0
 62
256
370
-1
 48
1.0
  6
ByLayer
 10
-144.99999999999997
 20
101.49999999999997
 30
0.0
 40
2.6249999999999969
  0
CIRCLE
  5
D9
100
AcDbEntity
100
AcDbCircle
  8
0
 62
256
370
-1
 48
1.0
  6
ByLayer
 10
-144.99999999999997
 20
18.499999999999943
 30
0.0
 40
2.6249999999999969
  0
CIRCLE
  5
DA
100
AcDbEntity
100
AcDbCircle
  8
0
 62
256
370
-1
 48
1.0
  6
ByLayer
 10
21.000000000000028
 20
18.5
 30
0.0
 40
2.6249999999999969
  0
CIRCLE
  5
DB
100
AcDbEntity
100
AcDbCircle
  8
0
 62
256
370
-1
 48
1.0
  6
ByLayer
 10
32.500000000000028
 20
77.379999999999939
 30
0.0
 40
3.9999999999999991
  0
CIRCLE
  5
DC
100
AcDbEntity
100
AcDbCircle
  8
0
 62
256
370
-1
 48
1.0
  6
ByLayer
 10
-156.49999999999997
 20
77.37999999999991
 30
0.0
 40
3.9999999999999991
  0
CIRCLE
  5
DD
100
AcDbEntity
100
AcDbCircle
  8
0
 62
256
370
-1
 48
1.0
  6
ByLayer
 10
-165.49999999999997
 20
101.49999999999994
 30
0.0
 40
4.0
  0
CIRCLE
  5
DE
100
AcDbEntity
100
AcDbCircle
  8
0
 62
256
370
-1
 48
1.0
  6
ByLayer
 10
-165.49999999999997
 20
85.500000000000142
 30
0.0
 40
2.5
  0
CIRCLE
  5
DF
100
AcDbEntity
100
AcDbCircle
  8
0
 62
256
370
-1
 48
1.0
  6
ByLayer
 10
-165.49999999999997
 20
117.49999999999972
 30
0.0
 40
2.5
  0
CIRCLE
  5
E0
100
AcDbEntity
100
AcDbCircle
  8
0
 62
256
370
-1
 48
1.0
  6
ByLayer
 10
41.500000000000028
 20
101.49999999999994
 30
0.0
 40
4.0
  0
CIRCLE
  5
E1
100
AcDbEntity
100
AcDbCircle
  8
0
 62
256
370
-1
 48
1.0
  6
ByLayer
 10
41.500000000000028
 20
85.500000000000142
 30
0.0
 40
2.5
  0
CIRCLE
  5
E2
100
AcDbEntity
100
AcDbCircle
  8
0
 62
256
370
-1
 48
1.0
  6
ByLayer
 10
41.500000000000028
 20
117.49999999999972
 30
0.0
 40
2.5
  0
CIRCLE
  5
E3
100
AcDbEntity
100
AcDbCircle
  8
0
 62
256
370
-1
 48
1.0
  6
ByLayer
 10
-61.999999999999972
 20
18.499999999999972
 30
0.0
 40
2.6249999999999969
  0
CIRCLE
  5
E4
100
AcDbEntity
100
AcDbCircle
  8
0
 62
256
370
-1
 48
1.0
  6
ByLayer
 10
-101.49999999999991
 20
3.49999999999973
 30
0.0
 40
2.6249999999999969
  0
CIRCLE
  5
E5
100
AcDbEntity
100
AcDbCircle
  8
0
 62
256
370
-1
 48
1.0
  6
ByLayer
 10
-184.49999999999991
 20
-79.500000000000171
 30
0.0
 40
2.6249999999999969
  0
CIRCLE
  5
E6
100
AcDbEntity
100
AcDbCircle
  8
0
 62
256
370
-1
 48
1.0
  6
ByLayer
 10
-184.49999999999991
 20
-162.50000000000017
 30
0.0
 40
2.6249999999999969
  0
CIRCLE
  5
E7
100
AcDbEntity
100
AcDbCircle
  8
0
 62
256
370
-1
 48
1.0
  6
ByLayer
 10
-18.499999999999858
 20
-162.50000000000006
 30
0.0
 40
2.6249999999999969
  0
CIRCLE
  5
E8
100
AcDbEntity
100
AcDbCircle
  8
0
 62
256
370
-1
 48
1.0
  6
ByLayer
 10
-101.49999999999991
 20
-162.50000000000014
 30
0.0
 40
2.6249999999999969
  0
CIRCLE
  5
E9
100
AcDbEntity
100
AcDbCircle
  8
0
 62
256
370
-1
 48
1.0
  6
ByLayer
 10
-18.499999999999943
 20
-79.500000000000171
 30
0.0
 40
2.6249999999999969
  0
CIRCLE
  5
EA
100
AcDbEntity
100
AcDbCircle
  8
0
 62
256
370
-1
 48
1.0
  6
ByLayer
 10
-18.499999999999915
 20
3.5000000000000062
 30
0.0
 40
2.6249999999999969
  0
CIRCLE
  5
EB
100
AcDbEntity
100
AcDbCircle
  8
0
 62
256
370
-1
 48
1.0
  6
ByLayer
 10
-184.49999999999991
 20
3.4999999999998259
 30
0.0
 40
2.6249999999999969
  0
CIRCLE
  5
EC
100
AcDbEntity
100
AcDbCircle
  8
0
 62
256
370
-1
 48
1.0
  6
ByLayer
 10
137.22000000000008
 20
16.87999999999964
 30
0.0
 40
2.0000000000000071
  0
CIRCLE
  5
ED
100
AcDbEntity
100
AcDbCircle
  8
0
 62
256
370
-1
 48
1.0
  6
ByLayer
 10
137.2200000000002
 20
71.119999999999649
 30
0.0
 40
2.0000000000000071
  0
CIRCLE
  5
EE
100
AcDbEntity
100
AcDbCircle
  8
0
 62
256
370
-1
 48
1.0
  6
ByLayer
 10
134.34000000000006
 20
80.333333333333243
 30
0.0
 40
2.0
  0
CIRCLE
  5
EF
100
AcDbEntity
100
AcDbCircle
  8
0
 62
256
370
-1
 48
1.0
  6
ByLayer
 10
134.34000000000006
 20
93.666666666666529
 30
0.0
 40
2.0
  0
CIRCLE
  5
F0
100
AcDbEntity
100
AcDbCircle
  8
0
 62
256
370
-1
 48
1.0
  6
ByLayer
 10
123.28000000000006
 20
86.999999999999773
 30
0.0
 40
1.575000000000004
  0
CIRCLE
  5
F1
100
AcDbEntity
100
AcDbCircle
  8
0
 62
256
370
-1
 48
1.0
  6
ByLayer
 10
108.28000000000006
 20
86.999999999999787
 30
0.0
 40
1.574999999999996
  0
CIRCLE
  5
F2
100
AcDbEntity
100
AcDbCircle
  8
0
 62
256
370
-1
 48
1.0
  6
ByLayer
 10
79.500000000000199
 20
3.4999999999996732
 30
0.0
 40
2.6249999999999969
  0
CIRCLE
  5
F3
100
AcDbEntity
100
AcDbCircle
  8
0
 62
256
370
-1
 48
1.0
  6
ByLayer
 10
-3.4999999999998019
 20
-79.500000000000227
 30
0.0
 40
2.6249999999999969
  0
CIRCLE
  5
F4
100
AcDbEntity
100
AcDbCircle
  8
0
 62
256
370
-1
 48
1.0
  6
ByLayer
 10
-3.4999999999998028
 20
-162.50000000000023
 30
0.0
 40
2.6249999999999969
  0
CIRCLE
  5
F5
100
AcDbEntity
100
AcDbCircle
  8
0
 62
256
370
-1
 48
1.0
  6
ByLayer
 10
162.50000000000026
 20
-162.50000000000011
 30
0.0
 40
2.6249999999999969
  0
CIRCLE
  5
F6
100
AcDbEntity
100
AcDbCircle
  8
0
 62
256
370
-1
 48
1.0
  6
ByLayer
 10
79.500000000000199
 20
-162.5000000000002
 30
0.0
 40
2.6249999999999969
  0
CIRCLE
  5
F7
100
AcDbEntity
100
AcDbCircle
  8
0
 62
256
370
-1
 48
1.0
  6
ByLayer
 10
162.50000000000017
 20
-79.500000000000227
 30
0.0
 40
2.6249999999999969
  0
CIRCLE
  5
F8
100
AcDbEntity
100
AcDbCircle
  8
0
 62
256
370
-1
 48
1.0
  6
ByLayer
 10
162.5000000000002
 20
3.4999999999999494
 30
0.0
 40
2.6249999999999969
  0
CIRCLE
  5
F9
100
AcDbEntity
100
AcDbCircle
  8
0
 62
256
370
-1
 48
1.0
  6
ByLayer
 10
-3.4999999999998037
 20
3.4999999999997691
 30
0.0
 40
2.6249999999999969
  0
CIRCLE
  5
FA
100
AcDbEntity
100
AcDbCircle
  8
0
 62
256
370
-1
 48
1.0
  6
ByLayer
 10
134.34000000000006
 20
100.33333333333324
 30
0.0
 40
2.0
  0
CIRCLE
  5
FB
100
AcDbEntity
100
AcDbCircle
  8
0
 62
256
370
-1
 48
1.0
  6
ByLayer
 10
134.34000000000006
 20
113.66666666666653
 30
0.0
 40
2.0
  0
CIRCLE
  5
FC
100
AcDbEntity
100
AcDbCircle
  8
0
 62
256
370
-1
 48
1.0
  6
ByLayer
 10
123.28000000000006
 20
106.99999999999977
 30
0.0
 40
1.575000000000004
  0
CIRCLE
  5
FD
100
AcDbEntity
100
AcDbCircle
  8
0
 62
256
370
-1
 48
1.0
  6
ByLayer
 10
108.28000000000006
 20
106.99999999999979
 30
0.0
 40
1.574999999999996
  0
CIRCLE
  5
FE
100
AcDbEntity
100
AcDbCircle
  8
0
 62
256
370
-1
 48
1.0
  6
ByLayer
 10
134.34000000000006
 20
120.33333333333324
 30
0.0
 40
2.0
  0
CIRCLE
  5
FF
100
AcDbEntity
100
AcDbCircle
  8
0
 62
256
370
-1
 48
1.0
  6
ByLayer
 10
134.34000000000006
 20
133.66666666666652
 30
0.0
 40
2.0
  0
CIRCLE
  5
100
100
AcDbEntity
100
AcDbCircle
  8
0
 62
256
370
-1
 48
1.0
  6
ByLayer
 10
123.28000000000006
 20
126.99999999999977
 30
0.0
 40
1.575000000000004
  0
CIRCLE
  5
101
100
AcDbEntity
100
AcDbCircle
  8
0
 62
256
370
-1
 48
1.0
  6
ByLayer
 10
108.28000000000006
 20
126.99999999999979
 30
0.0
 40
1.574999999999996
  0
LINE
  5
102
100
AcDbEntity
100
AcDbLine
  8
0
 62
256
370
-1
 48
1.0
  6
ByLayer
 10
13.500000000000028
 20
177.0
 30
0.0
 11
13.500000000000028
 21
25.999999999999943
 31
0.0
  0
LINE
  5
103
100
AcDbEntity
100
AcDbLine
  8
0
 62
256
370
-1
 48
1.0
  6
ByLayer
 10
13.500000000000028
 20
25.999999999999943
 30
0.0
 11
-137.49999999999997
 21
25.999999999999943
 31
0.0
  0
LINE
  5
104
100
AcDbEntity
100
AcDbLine
  8
0
 62
256
370
-1
 48
1.0
  6
ByLayer
 10
-137.49999999999997
 20
25.999999999999943
 30
0.0
 11
-137.49999999999997
 21
176.99999999999994
 31
0.0
  0
LINE
  5
105
100
AcDbEntity
100
AcDbLine
  8
0
 62
256
370
-1
 48
1.0
  6
ByLayer
 10
-137.49999999999997
 20
176.99999999999994
 30
0.0
 11
13.500000000000028
 21
177.0
 31
0.0
  0
LINE
  5
106
100
AcDbEntity
100
AcDbLine
  8
0
 62
256
370
-1
 48
1.0
  6
ByLayer
 10
31.650000000000006
 20
158.39999999999998
 30
0.0
 11
28.500000000000028
 21
158.39999999999998
 31
0.0
  0
LINE
  5
107
100
AcDbEntity
100
AcDbLine
  8
0
 62
256
370
-1
 48
1.0
  6
ByLayer
 10
28.500000000000028
 20
158.39999999999998
 30
0.0
 11
28.500000000000028
 21
175.19999999999999
 31
0.0
  0
LINE
  5
108
100
AcDbEntity
100
AcDbLine
  8
0
 62
256
370
-1
 48
1.0
  6
ByLayer
 10
28.500000000000028
 20
175.19999999999999
 30
0.0
 11
31.650000000000006
 21
175.19999999999999
 31
0.0
  0
LINE
  5
109
100
AcDbEntity
100
AcDbLine
  8
0
 62
256
370
-1
 48
1.0
  6
ByLayer
 10
31.650000000000006
 20
175.19999999999999
 30
0.0
 11
31.650000000000006
 21
158.39999999999998
 31
0.0
  0
LINE
  5
10A
100
AcDbEntity
100
AcDbLine
  8
0
 62
256
370
-1
 48
1.0
  6
ByLayer
 10
-152.49999999999997
 20
158.39999999999998
 30
0.0
 11
-155.64999999999995
 21
158.39999999999998
 31
0.0
  0
LINE
  5
10B
100
AcDbEntity
100
AcDbLine
  8
0
 62
256
370
-1
 48
1.0
  6
ByLayer
 10
-155.64999999999995
 20
158.39999999999998
 30
0.0
 11
-155.64999999999995
 21
175.19999999999999
 31
0.0
  0
LINE
  5
10C
100
AcDbEntity
100
AcDbLine
  8
0
 62
256
370
-1
 48
1.0
  6
ByLayer
 10
-155.64999999999995
 20
175.19999999999999
 30
0.0
 11
-152.49999999999997
 21
175.19999999999999
 31
0.0
  0
LINE
  5
10D
100
AcDbEntity
100
AcDbLine
  8
0
 62
256
370
-1
 48
1.0
  6
ByLayer
 10
-152.49999999999997
 20
175.19999999999999
 30
0.0
 11
-152.49999999999997
 21
158.39999999999998
 31
0.0
  0
LINE
  5
10E
100
AcDbEntity
100
AcDbLine
  8
0
 62
256
370
-1
 48
1.0
  6
ByLayer
 10
-155.64999999999995
 20
44.599999999999909
 30
0.0
 11
-152.49999999999997
 21
44.599999999999909
 31
0.0
  0
LINE
  5
10F
100
AcDbEntity
100
AcDbLine
  8
0
 62
256
370
-1
 48
1.0
  6
ByLayer
 10
-152.49999999999997
 20
44.599999999999909
 30
0.0
 11
-152.49999999999997
 21
27.799999999999898
 31
0.0
  0
LINE
  5
110
100
AcDbEntity
100
AcDbLine
  8
0
 62
256
370
-1
 48
1.0
  6
ByLayer
 10
-152.49999999999997
 20
27.799999999999898
 30
0.0
 11
-155.64999999999995
 21
27.799999999999898
 31
0.0
  0
LINE
  5
111
100
AcDbEntity
100
AcDbLine
  8
0
 62
256
370
-1
 48
1.0
  6
ByLayer
 10
-155.64999999999995
 20
27.799999999999898
 30
0.0
 11
-155.64999999999995
 21
44.599999999999909
 31
0.0
  0
LINE
  5
112
100
AcDbEntity
100
AcDbLine
  8
0
 62
256
370
-1
 48
1.0
  6
ByLayer
 10
31.650000000000006
 20
27.799999999999898
 30
0.0
 11
28.500000000000028
 21
27.799999999999898
 31
0.0
  0
LINE
  5
113
100
AcDbEntity
100
AcDbLine
  8
0
 62
256
370
-1
 48
1.0
  6
ByLayer
 10
28.500000000000028
 20
27.799999999999898
 30
0.0
 11
28.500000000000028
 21
44.599999999999909
 31
0.0
  0
LINE
  5
114
100
AcDbEntity
100
AcDbLine
  8
0
 62
256
370
-1
 48
1.0
  6
ByLayer
 10
28.500000000000028
 20
44.599999999999909
 30
0.0
 11
31.650000000000006
 21
44.599999999999909
 31
0.0
  0
LINE
  5
115
100
AcDbEntity
100
AcDbLine
  8
0
 62
256
370
-1
 48
1.0
  6
ByLayer
 10
31.650000000000006
 20
44.599999999999909
 30
0.0
 11
31.650000000000006
 21
27.799999999999898
 31
0.0
  0
LINE
  5
116
100
AcDbEntity
100
AcDbLine
  8
0
 62
256
370
-1
 48
1.0
  6
ByLayer
 10
61.280000000000001
 20
122.10333333333328
 30
0.0
 11
57.000000000000028
 21
122.10333333333328
 31
0.0
  0
LINE
  5
117
100
AcDbEntity
100
AcDbLine
  8
0
 62
256
370
-1
 48
1.0
  6
ByLayer
 10
57.000000000000028
 20
122.10333333333328
 30
0.0
 11
57.000000000000028
 21
121.00333333333329
 31
0.0
  0
ARC
  5
118
100
AcDbEntity
  8
0
 62
256
370
-1
 48
1.0
  6
ByLayer
100
AcDbCircle
 10
57.000000000000028
 20
120.75333333333329
 30
0.0
 40
0.25
100
AcDbArc
 50
180.0
 51
90.0
  0
LINE
  5
119
100
AcDbEntity
100
AcDbLine
  8
0
 62
256
370
-1
 48
1.0
  6
ByLayer
 10
56.750000000000028
 20
120.75333333333329
 30
0.0
 11
54.250000000000028
 21
120.75333333333329
 31
0.0
  0
ARC
  5
11A
100
AcDbEntity
  8
0
 62
256
370
-1
 48
1.0
  6
ByLayer
100
AcDbCircle
 10
54.000000000000028
 20
120.75333333333329
 30
0.0
 40
0.2499999999999989
100
AcDbArc
 50
90.0
 51
0.0
  0
LINE
  5
11B
100
AcDbEntity
100
AcDbLine
  8
0
 62
256
370
-1
 48
1.0
  6
ByLayer
 10
54.000000000000028
 20
121.00333333333329
 30
0.0
 11
54.000000000000028
 21
122.10333333333328
 31
0.0
  0
LINE
  5
11C
100
AcDbEntity
100
AcDbLine
  8
0
 62
256
370
-1
 48
1.0
  6
ByLayer
 10
54.000000000000028
 20
122.10333333333328
 30
0.0
 11
52.000000000000028
 21
122.10333333333328
 31
0.0
  0
LINE
  5
11D
100
AcDbEntity
100
AcDbLine
  8
0
 62
256
370
-1
 48
1.0
  6
ByLayer
 10
52.000000000000028
 20
122.10333333333328
 30
0.0
 11
52.000000000000028
 21
125.40333333333328
 31
0.0
  0
LINE
  5
11E
100
AcDbEntity
100
AcDbLine
  8
0
 62
256
370
-1
 48
1.0
  6
ByLayer
 10
52.000000000000028
 20
125.40333333333328
 30
0.0
 11
54.000000000000028
 21
125.40333333333328
 31
0.0
  0
LINE
  5
11F
100
AcDbEntity
100
AcDbLine
  8
0
 62
256
370
-1
 48
1.0
  6
ByLayer
 10
54.000000000000028
 20
125.40333333333328
 30
0.0
 11
54.000000000000028
 21
126.5033333333333
 31
0.0
  0
ARC
  5
120
100
AcDbEntity
  8
0
 62
256
370
-1
 48
1.0
  6
ByLayer
100
AcDbCircle
 10
54.000000000000036
 20
126.7533333333333
 30
0.0
 40
0.2499999999999929
100
AcDbArc
 50
360.0
 51
269.99999999999835
  0
LINE
  5
121
100
AcDbEntity
100
AcDbLine
  8
0
 62
256
370
-1
 48
1.0
  6
ByLayer
 10
54.250000000000028
 20
126.75333333333329
 30
0.0
 11
56.750000000000028
 21
126.75333333333329
 31
0.0
  0
ARC
  5
122
100
AcDbEntity
  8
0
 62
256
370
-1
 48
1.0
  6
ByLayer
100
AcDbCircle
 10
57.000000000000021
 20
126.7533333333333
 30
0.0
 40
0.2499999999999929
100
AcDbArc
 50
270.00000000000165
 51
180.0
  0
LINE
  5
123
100
AcDbEntity
100
AcDbLine
  8
0
 62
256
370
-1
 48
1.0
  6
ByLayer
 10
57.000000000000028
 20
126.5033333333333
 30
0.0
 11
57.000000000000028
 21
125.40333333333328
 31
0.0
  0
LINE
  5
124
100
AcDbEntity
100
AcDbLine
  8
0
 62
256
370
-1
 48
1.0
  6
ByLayer
 10
57.000000000000028
 20
125.40333333333328
 30
0.0
 11
61.280000000000001
 21
125.40333333333328
 31
0.0
  0
LINE
  5
125
100
AcDbEntity
100
AcDbLine
  8
0
 62
256
370
-1
 48
1.0
  6
ByLayer
 10
61.280000000000001
 20
125.40333333333328
 30
0.0
 11
61.279999999999887
 21
134.87999999999997
 31
0.0
  0
LINE
  5
126
100
AcDbEntity
100
AcDbLine
  8
0
 62
256
370
-1
 48
1.0
  6
ByLayer
 10
61.279999999999887
 20
134.87999999999997
 30
0.0
 11
35.000000000000028
 21
134.87999999999997
 31
0.0
  0
LINE
  5
127
100
AcDbEntity
100
AcDbLine
  8
0
 62
256
370
-1
 48
1.0
  6
ByLayer
 10
35.000000000000028
 20
134.87999999999997
 30
0.0
 11
35.000000000000028
 21
141.59999999999997
 31
0.0
  0
LINE
  5
128
100
AcDbEntity
100
AcDbLine
  8
0
 62
256
370
-1
 48
1.0
  6
ByLayer
 10
35.000000000000028
 20
141.59999999999997
 30
0.0
 11
41.500000000000028
 21
141.59999999999997
 31
0.0
  0
LINE
  5
129
100
AcDbEntity
100
AcDbLine
  8
0
 62
256
370
-1
 48
1.0
  6
ByLayer
 10
41.500000000000028
 20
141.59999999999997
 30
0.0
 11
41.500000000000028
 21
192.00000000000003
 31
0.0
  0
LINE
  5
12A
100
AcDbEntity
100
AcDbLine
  8
0
 62
256
370
-1
 48
1.0
  6
ByLayer
 10
41.500000000000028
 20
192.00000000000003
 30
0.0
 11
-165.49999999999997
 21
192.0
 31
0.0
  0
LINE
  5
12B
100
AcDbEntity
100
AcDbLine
  8
0
 62
256
370
-1
 48
1.0
  6
ByLayer
 10
-165.49999999999997
 20
192.0
 30
0.0
 11
-165.49999999999997
 21
141.59999999999991
 31
0.0
  0
LINE
  5
12C
100
AcDbEntity
100
AcDbLine
  8
0
 62
256
370
-1
 48
1.0
  6
ByLayer
 10
-165.49999999999997
 20
141.59999999999991
 30
0.0
 11
-158.99999999999997
 21
141.59999999999994
 31
0.0
  0
LINE
  5
12D
100
AcDbEntity
100
AcDbLine
  8
0
 62
256
370
-1
 48
1.0
  6
ByLayer
 10
-158.99999999999997
 20
141.59999999999994
 30
0.0
 11
-158.99999999999997
 21
134.87999999999994
 31
0.0
  0
LINE
  5
12E
100
AcDbEntity
100
AcDbLine
  8
0
 62
256
370
-1
 48
1.0
  6
ByLayer
 10
-158.99999999999997
 20
134.87999999999994
 30
0.0
 11
-185.27999999999989
 21
134.87999999999994
 31
0.0
  0
LINE
  5
12F
100
AcDbEntity
100
AcDbLine
  8
0
 62
256
370
-1
 48
1.0
  6
ByLayer
 10
-185.27999999999989
 20
134.87999999999994
 30
0.0
 11
-185.27999999999994
 21
125.40333333333328
 31
0.0
  0
LINE
  5
130
100
AcDbEntity
100
AcDbLine
  8
0
 62
256
370
-1
 48
1.0
  6
ByLayer
 10
-185.27999999999994
 20
125.40333333333328
 30
0.0
 11
-180.99999999999997
 21
125.40333333333328
 31
0.0
  0
LINE
  5
131
100
AcDbEntity
100
AcDbLine
  8
0
 62
256
370
-1
 48
1.0
  6
ByLayer
 10
-180.99999999999997
 20
125.40333333333328
 30
0.0
 11
-180.99999999999997
 21
126.5033333333333
 31
0.0
  0
ARC
  5
132
100
AcDbEntity
  8
0
 62
256
370
-1
 48
1.0
  6
ByLayer
100
AcDbCircle
 10
-180.99999999999997
 20
126.7533333333333
 30
0.0
 40
0.2499999999999929
100
AcDbArc
 50
360.0
 51
270.0
  0
LINE
  5
133
100
AcDbEntity
100
AcDbLine
  8
0
 62
256
370
-1
 48
1.0
  6
ByLayer
 10
-180.74999999999997
 20
126.75333333333329
 30
0.0
 11
-178.24999999999997
 21
126.75333333333329
 31
0.0
  0
ARC
  5
134
100
AcDbEntity
  8
0
 62
256
370
-1
 48
1.0
  6
ByLayer
100
AcDbCircle
 10
-177.99999999999997
 20
126.7533333333333
 30
0.0
 40
0.2499999999999929
100
AcDbArc
 50
270.0
 51
180.0
  0
LINE
  5
135
100
AcDbEntity
100
AcDbLine
  8
0
 62
256
370
-1
 48
1.0
  6
ByLayer
 10
-177.99999999999997
 20
126.5033333333333
 30
0.0
 11
-177.99999999999997
 21
125.40333333333328
 31
0.0
  0
LINE
  5
136
100
AcDbEntity
100
AcDbLine
  8
0
 62
256
370
-1
 48
1.0
  6
ByLayer
 10
-177.99999999999997
 20
125.40333333333328
 30
0.0
 11
-175.99999999999997
 21
125.40333333333328
 31
0.0
  0
LINE
  5
137
100
AcDbEntity
100
AcDbLine
  8
0
 62
256
370
-1
 48
1.0
  6
ByLayer
 10
-175.99999999999997
 20
125.40333333333328
 30
0.0
 11
-175.99999999999997
 21
122.10333333333328
 31
0.0
  0
LINE
  5
138
100
AcDbEntity
100
AcDbLine
  8
0
 62
256
370
-1
 48
1.0
  6
ByLayer
 10
-175.99999999999997
 20
122.10333333333328
 30
0.0
 11
-177.99999999999997
 21
122.10333333333328
 31
0.0
  0
LINE
  5
139
100
AcDbEntity
100
AcDbLine
  8
0
 62
256
370
-1
 48
1.0
  6
ByLayer
 10
-177.99999999999997
 20
122.10333333333328
 30
0.0
 11
-177.99999999999997
 21
121.00333333333329
 31
0.0
  0
ARC
  5
13A
100
AcDbEntity
  8
0
 62
256
370
-1
 48
1.0
  6
ByLayer
100
AcDbCircle
 10
-177.99999999999997
 20
120.75333333333329
 30
0.0
 40
0.2499999999999989
100
AcDbArc
 50
180.0
 51
90.0
  0
LINE
  5
13B
100
AcDbEntity
100
AcDbLine
  8
0
 62
256
370
-1
 48
1.0
  6
ByLayer
 10
-178.24999999999997
 20
120.75333333333329
 30
0.0
 11
-180.74999999999997
 21
120.75333333333329
 31
0.0
  0
ARC
  5
13C
100
AcDbEntity
  8
0
 62
256
370
-1
 48
1.0
  6
ByLayer
100
AcDbCircle
 10
-180.99999999999997
 20
120.75333333333329
 30
0.0
 40
0.25
100
AcDbArc
 50
90.0
 51
0.0
  0
LINE
  5
13D
100
AcDbEntity
100
AcDbLine
  8
0
 62
256
370
-1
 48
1.0
  6
ByLayer
 10
-180.99999999999997
 20
121.00333333333329
 30
0.0
 11
-180.99999999999997
 21
122.10333333333328
 31
0.0
  0
LINE
  5
13E
100
AcDbEntity
100
AcDbLine
  8
0
 62
256
370
-1
 48
1.0
  6
ByLayer
 10
-180.99999999999997
 20
122.10333333333328
 30
0.0
 11
-185.27999999999994
 21
122.10333333333328
 31
0.0
  0
LINE
  5
13F
100
AcDbEntity
100
AcDbLine
  8
0
 62
256
370
-1
 48
1.0
  6
ByLayer
 10
-185.27999999999994
 20
122.10333333333328
 30
0.0
 11
-185.27999999999994
 21
112.62666666666658
 31
0.0
  0
LINE
  5
140
100
AcDbEntity
100
AcDbLine
  8
0
 62
256
370
-1
 48
1.0
  6
ByLayer
 10
-185.27999999999994
 20
112.62666666666658
 30
0.0
 11
-191.99999999999997
 21
112.62666666666658
 31
0.0
  0
LINE
  5
141
100
AcDbEntity
100
AcDbLine
  8
0
 62
256
370
-1
 48
1.0
  6
ByLayer
 10
-191.99999999999997
 20
112.62666666666658
 30
0.0
 11
-191.99999999999997
 21
90.373333333333278
 31
0.0
  0
LINE
  5
142
100
AcDbEntity
100
AcDbLine
  8
0
 62
256
370
-1
 48
1.0
  6
ByLayer
 10
-191.99999999999997
 20
90.373333333333278
 30
0.0
 11
-185.27999999999994
 21
90.373333333333278
 31
0.0
  0
LINE
  5
143
100
AcDbEntity
100
AcDbLine
  8
0
 62
256
370
-1
 48
1.0
  6
ByLayer
 10
-185.27999999999994
 20
90.373333333333278
 30
0.0
 11
-185.27999999999994
 21
80.89666666666659
 31
0.0
  0
LINE
  5
144
100
AcDbEntity
100
AcDbLine
  8
0
 62
256
370
-1
 48
1.0
  6
ByLayer
 10
-185.27999999999994
 20
80.89666666666659
 30
0.0
 11
-180.99999999999997
 21
80.89666666666659
 31
0.0
  0
LINE
  5
145
100
AcDbEntity
100
AcDbLine
  8
0
 62
256
370
-1
 48
1.0
  6
ByLayer
 10
-180.99999999999997
 20
80.89666666666659
 30
0.0
 11
-180.99999999999997
 21
81.996666666666613
 31
0.0
  0
ARC
  5
146
100
AcDbEntity
  8
0
 62
256
370
-1
 48
1.0
  6
ByLayer
100
AcDbCircle
 10
-180.99999999999997
 20
82.246666666666613
 30
0.0
 40
0.25
100
AcDbArc
 50
0.0
 51
270.0
  0
LINE
  5
147
100
AcDbEntity
100
AcDbLine
  8
0
 62
256
370
-1
 48
1.0
  6
ByLayer
 10
-180.74999999999997
 20
82.246666666666613
 30
0.0
 11
-178.24999999999997
 21
82.246666666666613
 31
0.0
  0
ARC
  5
148
100
AcDbEntity
  8
0
 62
256
370
-1
 48
1.0
  6
ByLayer
100
AcDbCircle
 10
-177.99999999999997
 20
82.246666666666613
 30
0.0
 40
0.2499999999999989
100
AcDbArc
 50
270.0
 51
180.0
  0
LINE
  5
149
100
AcDbEntity
100
AcDbLine
  8
0
 62
256
370
-1
 48
1.0
  6
ByLayer
 10
-177.99999999999997
 20
81.996666666666613
 30
0.0
 11
-177.99999999999997
 21
80.89666666666659
 31
0.0
  0
LINE
  5
14A
100
AcDbEntity
100
AcDbLine
  8
0
 62
256
370
-1
 48
1.0
  6
ByLayer
 10
-177.99999999999997
 20
80.89666666666659
 30
0.0
 11
-175.99999999999997
 21
80.89666666666659
 31
0.0
  0
LINE
  5
14B
100
AcDbEntity
100
AcDbLine
  8
0
 62
256
370
-1
 48
1.0
  6
ByLayer
 10
-175.99999999999997
 20
80.89666666666659
 30
0.0
 11
-175.99999999999997
 21
77.596666666666607
 31
0.0
  0
LINE
  5
14C
100
AcDbEntity
100
AcDbLine
  8
0
 62
256
370
-1
 48
1.0
  6
ByLayer
 10
-175.99999999999997
 20
77.596666666666607
 30
0.0
 11
-177.99999999999997
 21
77.596666666666607
 31
0.0
  0
LINE
  5
14D
100
AcDbEntity
100
AcDbLine
  8
0
 62
256
370
-1
 48
1.0
  6
ByLayer
 10
-177.99999999999997
 20
77.596666666666607
 30
0.0
 11
-177.99999999999997
 21
76.496666666666584
 31
0.0
  0
ARC
  5
14E
100
AcDbEntity
  8
0
 62
256
370
-1
 48
1.0
  6
ByLayer
100
AcDbCircle
 10
-178.0
 20
76.246666666666599
 30
0.0
 40
0.2499999999999858
100
AcDbArc
 50
180.0
 51
89.999999999993491
  0
LINE
  5
14F
100
AcDbEntity
100
AcDbLine
  8
0
 62
256
370
-1
 48
1.0
  6
ByLayer
 10
-178.24999999999997
 20
76.246666666666613
 30
0.0
 11
-180.74999999999997
 21
76.246666666666613
 31
0.0
  0
ARC
  5
150
100
AcDbEntity
  8
0
 62
256
370
-1
 48
1.0
  6
ByLayer
100
AcDbCircle
 10
-180.99999999999994
 20
76.246666666666599
 30
0.0
 40
0.2499999999999858
100
AcDbArc
 50
90.000000000006509
 51
0.0
  0
LINE
  5
151
100
AcDbEntity
100
AcDbLine
  8
0
 62
256
370
-1
 48
1.0
  6
ByLayer
 10
-180.99999999999997
 20
76.496666666666584
 30
0.0
 11
-180.99999999999997
 21
77.596666666666607
 31
0.0
  0
LINE
  5
152
100
AcDbEntity
100
AcDbLine
  8
0
 62
256
370
-1
 48
1.0
  6
ByLayer
 10
-180.99999999999997
 20
77.596666666666607
 30
0.0
 11
-185.27999999999994
 21
77.596666666666607
 31
0.0
  0
LINE
  5
153
100
AcDbEntity
100
AcDbLine
  8
0
 62
256
370
-1
 48
1.0
  6
ByLayer
 10
-185.27999999999994
 20
77.596666666666607
 30
0.0
 11
-185.27999999999989
 21
68.119999999999919
 31
0.0
  0
LINE
  5
154
100
AcDbEntity
100
AcDbLine
  8
0
 62
256
370
-1
 48
1.0
  6
ByLayer
 10
-185.27999999999989
 20
68.119999999999919
 30
0.0
 11
-158.99999999999997
 21
68.119999999999919
 31
0.0
  0
LINE
  5
155
100
AcDbEntity
100
AcDbLine
  8
0
 62
256
370
-1
 48
1.0
  6
ByLayer
 10
-158.99999999999997
 20
68.119999999999919
 30
0.0
 11
-158.99999999999997
 21
61.39999999999992
 31
0.0
  0
LINE
  5
156
100
AcDbEntity
100
AcDbLine
  8
0
 62
256
370
-1
 48
1.0
  6
ByLayer
 10
-158.99999999999997
 20
61.39999999999992
 30
0.0
 11
-165.49999999999997
 21
61.39999999999992
 31
0.0
  0
LINE
  5
157
100
AcDbEntity
100
AcDbLine
  8
0
 62
256
370
-1
 48
1.0
  6
ByLayer
 10
-165.49999999999997
 20
61.39999999999992
 30
0.0
 11
-165.49999999999997
 21
10.999999999999886
 31
0.0
  0
LINE
  5
158
100
AcDbEntity
100
AcDbLine
  8
0
 62
256
370
-1
 48
1.0
  6
ByLayer
 10
41.500000000000028
 20
10.999999999999886
 30
0.0
 11
41.500000000000028
 21
61.399999999999949
 31
0.0
  0
LINE
  5
159
100
AcDbEntity
100
AcDbLine
  8
0
 62
256
370
-1
 48
1.0
  6
ByLayer
 10
41.500000000000028
 20
61.399999999999949
 30
0.0
 11
35.000000000000028
 21
61.39999999999992
 31
0.0
  0
LINE
  5
15A
100
AcDbEntity
100
AcDbLine
  8
0
 62
256
370
-1
 48
1.0
  6
ByLayer
 10
35.000000000000028
 20
61.39999999999992
 30
0.0
 11
35.000000000000028
 21
68.119999999999948
 31
0.0
  0
LINE
  5
15B
100
AcDbEntity
100
AcDbLine
  8
0
 62
256
370
-1
 48
1.0
  6
ByLayer
 10
35.000000000000028
 20
68.119999999999948
 30
0.0
 11
61.279999999999887
 21
68.119999999999948
 31
0.0
  0
LINE
  5
15C
100
AcDbEntity
100
AcDbLine
  8
0
 62
256
370
-1
 48
1.0
  6
ByLayer
 10
61.279999999999887
 20
68.119999999999948
 30
0.0
 11
61.280000000000001
 21
77.596666666666607
 31
0.0
  0
LINE
  5
15D
100
AcDbEntity
100
AcDbLine
  8
0
 62
256
370
-1
 48
1.0
  6
ByLayer
 10
61.280000000000001
 20
77.596666666666607
 30
0.0
 11
57.000000000000028
 21
77.596666666666607
 31
0.0
  0
LINE
  5
15E
100
AcDbEntity
100
AcDbLine
  8
0
 62
256
370
-1
 48
1.0
  6
ByLayer
 10
57.000000000000028
 20
77.596666666666607
 30
0.0
 11
57.000000000000028
 21
76.496666666666584
 31
0.0
  0
ARC
  5
15F
100
AcDbEntity
  8
0
 62
256
370
-1
 48
1.0
  6
ByLayer
100
AcDbCircle
 10
57.000000000000014
 20
76.246666666666599
 30
0.0
 40
0.2499999999999858
100
AcDbArc
 50
180.0
 51
89.999999999996746
  0
LINE
  5
160
100
AcDbEntity
100
AcDbLine
  8
0
 62
256
370
-1
 48
1.0
  6
ByLayer
 10
56.750000000000028
 20
76.246666666666613
 30
0.0
 11
54.250000000000028
 21
76.246666666666613
 31
0.0
  0
ARC
  5
161
100
AcDbEntity
  8
0
 62
256
370
-1
 48
1.0
  6
ByLayer
100
AcDbCircle
 10
54.000000000000043
 20
76.246666666666599
 30
0.0
 40
0.2499999999999858
100
AcDbArc
 50
90.000000000003254
 51
0.0
  0
LINE
  5
162
100
AcDbEntity
100
AcDbLine
  8
0
 62
256
370
-1
 48
1.0
  6
ByLayer
 10
54.000000000000028
 20
76.496666666666584
 30
0.0
 11
54.000000000000028
 21
77.596666666666607
 31
0.0
  0
LINE
  5
163
100
AcDbEntity
100
AcDbLine
  8
0
 62
256
370
-1
 48
1.0
  6
ByLayer
 10
54.000000000000028
 20
77.596666666666607
 30
0.0
 11
52.000000000000028
 21
77.596666666666607
 31
0.0
  0
LINE
  5
164
100
AcDbEntity
100
AcDbLine
  8
0
 62
256
370
-1
 48
1.0
  6
ByLayer
 10
52.000000000000028
 20
77.596666666666607
 30
0.0
 11
52.000000000000028
 21
80.89666666666659
 31
0.0
  0
LINE
  5
165
100
AcDbEntity
100
AcDbLine
  8
0
 62
256
370
-1
 48
1.0
  6
ByLayer
 10
52.000000000000028
 20
80.89666666666659
 30
0.0
 11
54.000000000000028
 21
80.89666666666659
 31
0.0
  0
LINE
  5
166
100
AcDbEntity
100
AcDbLine
  8
0
 62
256
370
-1
 48
1.0
  6
ByLayer
 10
54.000000000000028
 20
80.89666666666659
 30
0.0
 11
54.000000000000028
 21
81.996666666666613
 31
0.0
  0
ARC
  5
167
100
AcDbEntity
  8
0
 62
256
370
-1
 48
1.0
  6
ByLayer
100
AcDbCircle
 10
54.000000000000028
 20
82.246666666666613
 30
0.0
 40
0.2499999999999989
100
AcDbArc
 50
0.0
 51
270.0
  0
LINE
  5
168
100
AcDbEntity
100
AcDbLine
  8
0
 62
256
370
-1
 48
1.0
  6
ByLayer
 10
54.250000000000028
 20
82.246666666666613
 30
0.0
 11
56.750000000000028
 21
82.246666666666613
 31
0.0
  0
ARC
  5
169
100
AcDbEntity
  8
0
 62
256
370
-1
 48
1.0
  6
ByLayer
100
AcDbCircle
 10
57.000000000000028
 20
82.246666666666613
 30
0.0
 40
0.25
100
AcDbArc
 50
270.0
 51
180.0
  0
LINE
  5
16A
100
AcDbEntity
100
AcDbLine
  8
0
 62
256
370
-1
 48
1.0
  6
ByLayer
 10
57.000000000000028
 20
81.996666666666613
 30
0.0
 11
57.000000000000028
 21
80.89666666666659
 31
0.0
  0
LINE
  5
16B
100
AcDbEntity
100
AcDbLine
  8
0
 62
256
370
-1
 48
1.0
  6
ByLayer
 10
57.000000000000028
 20
80.89666666666659
 30
0.0
 11
61.280000000000001
 21
80.89666666666659
 31
0.0
  0
LINE
  5
16C
100
AcDbEntity
100
AcDbLine
  8
0
 62
256
370
-1
 48
1.0
  6
ByLayer
 10
61.280000000000001
 20
80.89666666666659
 30
0.0
 11
61.280000000000001
 21
90.373333333333278
 31
0.0
  0
LINE
  5
16D
100
AcDbEntity
100
AcDbLine
  8
0
 62
256
370
-1
 48
1.0
  6
ByLayer
 10
61.280000000000001
 20
90.373333333333278
 30
0.0
 11
68.000000000000028
 21
90.373333333333278
 31
0.0
  0
LINE
  5
16E
100
AcDbEntity
100
AcDbLine
  8
0
 62
256
370
-1
 48
1.0
  6
ByLayer
 10
68.000000000000028
 20
90.373333333333278
 30
0.0
 11
68.000000000000028
 21
112.62666666666664
 31
0.0
  0
LINE
  5
16F
100
AcDbEntity
100
AcDbLine
  8
0
 62
256
370
-1
 48
1.0
  6
ByLayer
 10
68.000000000000028
 20
112.62666666666664
 30
0.0
 11
61.280000000000001
 21
112.62666666666664
 31
0.0
  0
LINE
  5
170
100
AcDbEntity
100
AcDbLine
  8
0
 62
256
370
-1
 48
1.0
  6
ByLayer
 10
61.280000000000001
 20
112.62666666666664
 30
0.0
 11
61.280000000000001
 21
122.10333333333328
 31
0.0
  0
LINE
  5
171
100
AcDbEntity
100
AcDbLine
  8
0
 62
256
370
-1
 48
1.0
  6
ByLayer
 10
-25.999999999999943
 20
-4.0000000000004015
 30
0.0
 11
-25.999999999999858
 21
-155.00000000000006
 31
0.0
  0
LINE
  5
172
100
AcDbEntity
100
AcDbLine
  8
0
 62
256
370
-1
 48
1.0
  6
ByLayer
 10
-25.999999999999858
 20
-155.00000000000006
 30
0.0
 11
-176.99999999999997
 21
-155.00000000000017
 31
0.0
  0
LINE
  5
173
100
AcDbEntity
100
AcDbLine
  8
0
 62
256
370
-1
 48
1.0
  6
ByLayer
 10
-176.99999999999997
 20
-155.00000000000017
 30
0.0
 11
-176.99999999999991
 21
-4.0000000000001066
 31
0.0
  0
LINE
  5
174
100
AcDbEntity
100
AcDbLine
  8
0
 62
256
370
-1
 48
1.0
  6
ByLayer
 10
-176.99999999999991
 20
-4.0000000000001066
 30
0.0
 11
-25.999999999999943
 21
-4.0000000000004015
 31
0.0
  0
LINE
  5
175
100
AcDbEntity
100
AcDbLine
  8
0
 62
256
370
-1
 48
1.0
  6
ByLayer
 10
-10.999999999999915
 20
10.999999999999842
 30
0.0
 11
-192.00000000000003
 21
10.999999999999886
 31
0.0
  0
LINE
  5
176
100
AcDbEntity
100
AcDbLine
  8
0
 62
256
370
-1
 48
1.0
  6
ByLayer
 10
-192.00000000000003
 20
10.999999999999886
 30
0.0
 11
-191.99999999999991
 21
-170.0000000000002
 31
0.0
  0
LINE
  5
177
100
AcDbEntity
100
AcDbLine
  8
0
 62
256
370
-1
 48
1.0
  6
ByLayer
 10
-191.99999999999991
 20
-170.0000000000002
 30
0.0
 11
-10.999999999999858
 21
-170.00000000000003
 31
0.0
  0
ARC
  5
178
100
AcDbEntity
  8
0
 62
256
370
-1
 48
1.0
  6
ByLayer
100
AcDbCircle
 10
106.28000000000017
 20
29.499999999999659
 30
0.0
 40
2.1000000000000245
100
AcDbArc
 50
90.0
 51
270.0
  0
LINE
  5
179
100
AcDbEntity
100
AcDbLine
  8
0
 62
256
370
-1
 48
1.0
  6
ByLayer
 10
106.28000000000017
 20
27.399999999999633
 30
0.0
 11
110.28000000000017
 21
27.399999999999636
 31
0.0
  0
ARC
  5
17A
100
AcDbEntity
  8
0
 62
256
370
-1
 48
1.0
  6
ByLayer
100
AcDbCircle
 10
110.28000000000017
 20
29.499999999999659
 30
0.0
 40
2.1000000000000227
100
AcDbArc
 50
270.0
 51
90.0
  0
LINE
  5
17B
100
AcDbEntity
100
AcDbLine
  8
0
 62
256
370
-1
 48
1.0
  6
ByLayer
 10
110.28000000000017
 20
31.599999999999682
 30
0.0
 11
106.28000000000017
 21
31.599999999999682
 31
0.0
  0
LINE
  5
17C
100
AcDbEntity
100
AcDbLine
  8
0
 62
256
370
-1
 48
1.0
  6
ByLayer
 10
127.28000000000019
 20
41.899999999999622
 30
0.0
 11
131.28000000000017
 21
41.899999999999629
 31
0.0
  0
ARC
  5
17D
100
AcDbEntity
  8
0
 62
256
370
-1
 48
1.0
  6
ByLayer
100
AcDbCircle
 10
131.2800000000002
 20
43.999999999999645
 30
0.0
 40
2.1000000000000192
100
AcDbArc
 50
269.99999999999926
 51
90.0
  0
LINE
  5
17E
100
AcDbEntity
100
AcDbLine
  8
0
 62
256
370
-1
 48
1.0
  6
ByLayer
 10
131.2800000000002
 20
46.099999999999667
 30
0.0
 11
127.28000000000019
 21
46.099999999999667
 31
0.0
  0
ARC
  5
17F
100
AcDbEntity
  8
0
 62
256
370
-1
 48
1.0
  6
ByLayer
100
AcDbCircle
 10
127.28000000000019
 20
43.999999999999645
 30
0.0
 40
2.1000000000000227
100
AcDbArc
 50
90.0
 51
270.0
  0
ARC
  5
180
100
AcDbEntity
  8
0
 62
256
370
-1
 48
1.0
  6
ByLayer
100
AcDbCircle
 10
118.78000000000019
 20
29.499999999999641
 30
0.0
 40
2.1000000000000227
100
AcDbArc
 50
90.0
 51
270.0
  0
LINE
  5
181
100
AcDbEntity
100
AcDbLine
  8
0
 62
256
370
-1
 48
1.0
  6
ByLayer
 10
118.78000000000019
 20
27.399999999999618
 30
0.0
 11
122.78000000000017
 21
27.39999999999964
 31
0.0
  0
ARC
  5
182
100
AcDbEntity
  8
0
 62
256
370
-1
 48
1.0
  6
ByLayer
100
AcDbCircle
 10
122.78000000000017
 20
29.499999999999652
 30
0.0
 40
2.1000000000000121
100
AcDbArc
 50
270.0
 51
89.999999999999616
  0
LINE
  5
183
100
AcDbEntity
100
AcDbLine
  8
0
 62
256
370
-1
 48
1.0
  6
ByLayer
 10
122.78000000000019
 20
31.599999999999664
 30
0.0
 11
118.78000000000019
 21
31.599999999999664
 31
0.0
  0
LINE
  5
184
100
AcDbEntity
100
AcDbLine
  8
0
 62
256
370
-1
 48
1.0
  6
ByLayer
 10
163.2800000000002
 20
32.99999999999973
 30
0.0
 11
163.28000000000017
 21
10.999999999999757
 31
0.0
  0
LINE
  5
185
100
AcDbEntity
100
AcDbLine
  8
0
 62
256
370
-1
 48
1.0
  6
ByLayer
 10
98.280000000000058
 20
10.999999999999773
 30
0.0
 11
98.280000000000072
 21
76.999999999999773
 31
0.0
  0
LINE
  5
186
100
AcDbEntity
100
AcDbLine
  8
0
 62
256
370
-1
 48
1.0
  6
ByLayer
 10
98.280000000000072
 20
76.999999999999773
 30
0.0
 11
163.2800000000002
 21
76.999999999999744
 31
0.0
  0
LINE
  5
187
100
AcDbEntity
100
AcDbLine
  8
0
 62
256
370
-1
 48
1.0
  6
ByLayer
 10
163.2800000000002
 20
76.999999999999744
 30
0.0
 11
163.28000000000014
 21
54.999999999999801
 31
0.0
  0
LINE
  5
188
100
AcDbEntity
100
AcDbLine
  8
0
 62
256
370
-1
 48
1.0
  6
ByLayer
 10
163.28000000000014
 20
54.999999999999801
 30
0.0
 11
170.00000000000017
 21
54.999999999999758
 31
0.0
  0
LINE
  5
189
100
AcDbEntity
100
AcDbLine
  8
0
 62
256
370
-1
 48
1.0
  6
ByLayer
 10
170.00000000000017
 20
54.999999999999758
 30
0.0
 11
170.00000000000017
 21
32.999999999999751
 31
0.0
  0
LINE
  5
18A
100
AcDbEntity
100
AcDbLine
  8
0
 62
256
370
-1
 48
1.0
  6
ByLayer
 10
170.00000000000017
 20
32.999999999999751
 30
0.0
 11
163.2800000000002
 21
32.99999999999973
 31
0.0
  0
ARC
  5
18B
100
AcDbEntity
  8
0
 62
256
370
-1
 48
1.0
  6
ByLayer
100
AcDbCircle
 10
153.28000000000006
 20
86.999999999999773
 30
0.0
 40
5.9999999999999964
100
AcDbArc
 50
184.78019184719926
 51
355.21980815280119
  0
LINE
  5
18C
100
AcDbEntity
100
AcDbLine
  8
0
 62
256
370
-1
 48
1.0
  6
ByLayer
 10
147.30086962844936
 20
86.499999999999758
 30
0.0
 11
140.28000000000006
 21
86.499999999999773
 31
0.0
  0
LINE
  5
18D
100
AcDbEntity
100
AcDbLine
  8
0
 62
256
370
-1
 48
1.0
  6
ByLayer
 10
140.28000000000006
 20
86.499999999999773
 30
0.0
 11
140.28000000000006
 21
87.499999999999773
 31
0.0
  0
LINE
  5
18E
100
AcDbEntity
100
AcDbLine
  8
0
 62
256
370
-1
 48
1.0
  6
ByLayer
 10
140.28000000000006
 20
87.499999999999773
 30
0.0
 11
147.30086962844936
 21
87.499999999999787
 31
0.0
  0
ARC
  5
18F
100
AcDbEntity
  8
0
 62
256
370
-1
 48
1.0
  6
ByLayer
100
AcDbCircle
 10
153.28000000000006
 20
86.999999999999787
 30
0.0
 40
5.9999999999999964
100
AcDbArc
 50
4.7801918471991174
 51
175.21980815280088
  0
LINE
  5
190
100
AcDbEntity
100
AcDbLine
  8
0
 62
256
370
-1
 48
1.0
  6
ByLayer
 10
159.25913037155075
 20
87.499999999999787
 30
0.0
 11
167.28000000000003
 21
87.499999999999801
 31
0.0
  0
LINE
  5
191
100
AcDbEntity
100
AcDbLine
  8
0
 62
256
370
-1
 48
1.0
  6
ByLayer
 10
167.28000000000003
 20
87.499999999999801
 30
0.0
 11
167.28000000000006
 21
96.999999999999787
 31
0.0
  0
LINE
  5
192
100
AcDbEntity
100
AcDbLine
  8
0
 62
256
370
-1
 48
1.0
  6
ByLayer
 10
164.28000000000006
 20
96.999999999999744
 30
0.0
 11
164.28000000000006
 21
92.499999999999801
 31
0.0
  0
LINE
  5
193
100
AcDbEntity
100
AcDbLine
  8
0
 62
256
370
-1
 48
1.0
  6
ByLayer
 10
164.28000000000006
 20
92.499999999999801
 30
0.0
 11
161.28000000000006
 21
92.499999999999773
 31
0.0
  0
LINE
  5
194
100
AcDbEntity
100
AcDbLine
  8
0
 62
256
370
-1
 48
1.0
  6
ByLayer
 10
161.28000000000006
 20
92.499999999999773
 30
0.0
 11
161.28000000000006
 21
96.999999999999787
 31
0.0
  0
LINE
  5
195
100
AcDbEntity
100
AcDbLine
  8
0
 62
256
370
-1
 48
1.0
  6
ByLayer
 10
143.28000000000006
 20
96.999999999999773
 30
0.0
 11
143.28000000000006
 21
89.499999999999773
 31
0.0
  0
LINE
  5
196
100
AcDbEntity
100
AcDbLine
  8
0
 62
256
370
-1
 48
1.0
  6
ByLayer
 10
143.28000000000006
 20
89.499999999999773
 30
0.0
 11
140.28000000000006
 21
89.499999999999787
 31
0.0
  0
LINE
  5
197
100
AcDbEntity
100
AcDbLine
  8
0
 62
256
370
-1
 48
1.0
  6
ByLayer
 10
140.28000000000006
 20
89.499999999999787
 30
0.0
 11
140.28000000000006
 21
96.999999999999787
 31
0.0
  0
LINE
  5
198
100
AcDbEntity
100
AcDbLine
  8
0
 62
256
370
-1
 48
1.0
  6
ByLayer
 10
140.28000000000006
 20
96.999999999999787
 30
0.0
 11
98.280000000000058
 21
96.999999999999787
 31
0.0
  0
LINE
  5
199
100
AcDbEntity
100
AcDbLine
  8
0
 62
256
370
-1
 48
1.0
  6
ByLayer
 10
98.280000000000058
 20
96.999999999999787
 30
0.0
 11
98.280000000000058
 21
76.999999999999787
 31
0.0
  0
LINE
  5
19A
100
AcDbEntity
100
AcDbLine
  8
0
 62
256
370
-1
 48
1.0
  6
ByLayer
 10
140.28000000000006
 20
76.999999999999773
 30
0.0
 11
140.28000000000006
 21
84.500000000000014
 31
0.0
  0
LINE
  5
19B
100
AcDbEntity
100
AcDbLine
  8
0
 62
256
370
-1
 48
1.0
  6
ByLayer
 10
140.28000000000006
 20
84.500000000000014
 30
0.0
 11
143.28000000000006
 21
84.499999999999986
 31
0.0
  0
LINE
  5
19C
100
AcDbEntity
100
AcDbLine
  8
0
 62
256
370
-1
 48
1.0
  6
ByLayer
 10
143.28000000000006
 20
84.499999999999986
 30
0.0
 11
143.28000000000006
 21
76.999999999999773
 31
0.0
  0
LINE
  5
19D
100
AcDbEntity
100
AcDbLine
  8
0
 62
256
370
-1
 48
1.0
  6
ByLayer
 10
161.28000000000006
 20
76.999999999999773
 30
0.0
 11
161.28000000000006
 21
81.5
 31
0.0
  0
LINE
  5
19E
100
AcDbEntity
100
AcDbLine
  8
0
 62
256
370
-1
 48
1.0
  6
ByLayer
 10
161.28000000000006
 20
81.5
 30
0.0
 11
164.28000000000006
 21
81.499999999999986
 31
0.0
  0
LINE
  5
19F
100
AcDbEntity
100
AcDbLine
  8
0
 62
256
370
-1
 48
1.0
  6
ByLayer
 10
164.28000000000006
 20
81.499999999999986
 30
0.0
 11
164.28000000000006
 21
76.999999999999773
 31
0.0
  0
LINE
  5
1A0
100
AcDbEntity
100
AcDbLine
  8
0
 62
256
370
-1
 48
1.0
  6
ByLayer
 10
164.28000000000006
 20
76.999999999999773
 30
0.0
 11
167.28000000000006
 21
76.999999999999773
 31
0.0
  0
LINE
  5
1A1
100
AcDbEntity
100
AcDbLine
  8
0
 62
256
370
-1
 48
1.0
  6
ByLayer
 10
167.28000000000006
 20
76.999999999999773
 30
0.0
 11
167.28000000000017
 21
86.499999999999773
 31
0.0
  0
LINE
  5
1A2
100
AcDbEntity
100
AcDbLine
  8
0
 62
256
370
-1
 48
1.0
  6
ByLayer
 10
167.28000000000017
 20
86.499999999999773
 30
0.0
 11
159.25913037155075
 21
86.499999999999801
 31
0.0
  0
LINE
  5
1A3
100
AcDbEntity
100
AcDbLine
  8
0
 62
256
370
-1
 48
1.0
  6
ByLayer
 10
155.00000000000017
 20
-4.0000000000004583
 30
0.0
 11
155.00000000000026
 21
-155.00000000000011
 31
0.0
  0
LINE
  5
1A4
100
AcDbEntity
100
AcDbLine
  8
0
 62
256
370
-1
 48
1.0
  6
ByLayer
 10
155.00000000000026
 20
-155.00000000000011
 30
0.0
 11
4.000000000000151
 21
-155.00000000000023
 31
0.0
  0
LINE
  5
1A5
100
AcDbEntity
100
AcDbLine
  8
0
 62
256
370
-1
 48
1.0
  6
ByLayer
 10
4.000000000000151
 20
-155.00000000000023
 30
0.0
 11
4.0000000000002025
 21
-4.0000000000001634
 31
0.0
  0
LINE
  5
1A6
100
AcDbEntity
100
AcDbLine
  8
0
 62
256
370
-1
 48
1.0
  6
ByLayer
 10
4.0000000000002025
 20
-4.0000000000001634
 30
0.0
 11
155.00000000000017
 21
-4.0000000000004583
 31
0.0
  0
LINE
  5
1A7
100
AcDbEntity
100
AcDbLine
  8
0
 62
256
370
-1
 48
1.0
  6
ByLayer
 10
170.0000000000002
 20
10.999999999999785
 30
0.0
 11
-10.999999999999915
 21
10.999999999999829
 31
0.0
  0
LINE
  5
1A8
100
AcDbEntity
100
AcDbLine
  8
0
 62
256
370
-1
 48
1.0
  6
ByLayer
 10
-10.999999999999915
 20
10.999999999999829
 30
0.0
 11
-10.999999999999787
 21
-170.00000000000026
 31
0.0
  0
LINE
  5
1A9
100
AcDbEntity
100
AcDbLine
  8
0
 62
256
370
-1
 48
1.0
  6
ByLayer
 10
-10.999999999999787
 20
-170.00000000000026
 30
0.0
 11
170.00000000000026
 21
-170.00000000000009
 31
0.0
  0
LINE
  5
1AA
100
AcDbEntity
100
AcDbLine
  8
0
 62
256
370
-1
 48
1.0
  6
ByLayer
 10
170.00000000000026
 20
-170.00000000000009
 30
0.0
 11
170.0000000000002
 21
10.999999999999785
 31
0.0
  0
ARC
  5
1AB
100
AcDbEntity
  8
0
 62
256
370
-1
 48
1.0
  6
ByLayer
100
AcDbCircle
 10
93.030000000000001
 20
15.999999999999822
 30
0.0
 40
1.4999999999999432
100
AcDbArc
 50
180.0
 51
360.0
  0
LINE
  5
1AC
100
AcDbEntity
100
AcDbLine
  8
0
 62
256
370
-1
 48
1.0
  6
ByLayer
 10
91.530000000000058
 20
15.999999999999829
 30
0.0
 11
91.529999999999944
 21
75.999999999999801
 31
0.0
  0
ARC
  5
1AD
100
AcDbEntity
  8
0
 62
256
370
-1
 48
1.0
  6
ByLayer
100
AcDbCircle
 10
93.029999999999944
 20
75.999999999999801
 30
0.0
 40
1.5
100
AcDbArc
 50
0.0
 51
180.0
  0
LINE
  5
1AE
100
AcDbEntity
100
AcDbLine
  8
0
 62
256
370
-1
 48
1.0
  6
ByLayer
 10
94.529999999999944
 20
75.999999999999815
 30
0.0
 11
94.529999999999944
 21
15.999999999999815
 31
0.0
  0
ARC
  5
1AF
100
AcDbEntity
  8
0
 62
256
370
-1
 48
1.0
  6
ByLayer
100
AcDbCircle
 10
83.529999999999944
 20
75.999999999999801
 30
0.0
 40
1.5
100
AcDbArc
 50
0.0
 51
180.0
  0
LINE
  5
1B0
100
AcDbEntity
100
AcDbLine
  8
0
 62
256
370
-1
 48
1.0
  6
ByLayer
 10
85.029999999999944
 20
75.999999999999801
 30
0.0
 11
85.030000000000058
 21
15.999999999999815
 31
0.0
  0
ARC
  5
1B1
100
AcDbEntity
  8
0
 62
256
370
-1
 48
1.0
  6
ByLayer
100
AcDbCircle
 10
83.530000000000001
 20
15.999999999999808
 30
0.0
 40
1.5000000000000568
100
AcDbArc
 50
180.0
 51
0.0
  0
LINE
  5
1B2
100
AcDbEntity
100
AcDbLine
  8
0
 62
256
370
-1
 48
1.0
  6
ByLayer
 10
82.029999999999944
 20
15.999999999999801
 30
0.0
 11
82.029999999999944
 21
75.999999999999801
 31
0.0
  0
LINE
  5
1B3
100
AcDbEntity
100
AcDbLine
  8
0
 62
256
370
-1
 48
1.0
  6
ByLayer
 10
78.279999999999944
 20
80.999999999999801
 30
0.0
 11
78.280000000000058
 21
10.999999999999801
 31
0.0
  0
LINE
  5
1B4
100
AcDbEntity
100
AcDbLine
  8
0
 62
256
370
-1
 48
1.0
  6
ByLayer
 10
98.280000000000058
 20
80.999999999999801
 30
0.0
 11
78.279999999999944
 21
80.999999999999801
 31
0.0
  0
ARC
  5
1B5
100
AcDbEntity
  8
0
 62
256
370
-1
 48
1.0
  6
ByLayer
100
AcDbCircle
 10
153.28000000000006
 20
106.99999999999977
 30
0.0
 40
5.9999999999999964
100
AcDbArc
 50
184.78019184719926
 51
355.21980815280119
  0
LINE
  5
1B6
100
AcDbEntity
100
AcDbLine
  8
0
 62
256
370
-1
 48
1.0
  6
ByLayer
 10
147.30086962844936
 20
106.49999999999976
 30
0.0
 11
140.28000000000006
 21
106.49999999999977
 31
0.0
  0
LINE
  5
1B7
100
AcDbEntity
100
AcDbLine
  8
0
 62
256
370
-1
 48
1.0
  6
ByLayer
 10
140.28000000000006
 20
106.49999999999977
 30
0.0
 11
140.28000000000006
 21
107.49999999999977
 31
0.0
  0
LINE
  5
1B8
100
AcDbEntity
100
AcDbLine
  8
0
 62
256
370
-1
 48
1.0
  6
ByLayer
 10
140.28000000000006
 20
107.49999999999977
 30
0.0
 11
147.30086962844936
 21
107.49999999999979
 31
0.0
  0
ARC
  5
1B9
100
AcDbEntity
  8
0
 62
256
370
-1
 48
1.0
  6
ByLayer
100
AcDbCircle
 10
153.28000000000006
 20
106.99999999999979
 30
0.0
 40
5.9999999999999964
100
AcDbArc
 50
4.7801918471991174
 51
175.21980815280088
  0
LINE
  5
1BA
100
AcDbEntity
100
AcDbLine
  8
0
 62
256
370
-1
 48
1.0
  6
ByLayer
 10
159.25913037155075
 20
107.49999999999979
 30
0.0
 11
167.28000000000003
 21
107.4999999999998
 31
0.0
  0
LINE
  5
1BB
100
AcDbEntity
100
AcDbLine
  8
0
 62
256
370
-1
 48
1.0
  6
ByLayer
 10
167.28000000000003
 20
107.4999999999998
 30
0.0
 11
167.28000000000006
 21
116.99999999999979
 31
0.0
  0
LINE
  5
1BC
100
AcDbEntity
100
AcDbLine
  8
0
 62
256
370
-1
 48
1.0
  6
ByLayer
 10
167.28000000000006
 20
116.99999999999979
 30
0.0
 11
164.28000000000006
 21
116.99999999999974
 31
0.0
  0
LINE
  5
1BD
100
AcDbEntity
100
AcDbLine
  8
0
 62
256
370
-1
 48
1.0
  6
ByLayer
 10
164.28000000000006
 20
116.99999999999974
 30
0.0
 11
164.28000000000006
 21
112.4999999999998
 31
0.0
  0
LINE
  5
1BE
100
AcDbEntity
100
AcDbLine
  8
0
 62
256
370
-1
 48
1.0
  6
ByLayer
 10
164.28000000000006
 20
112.4999999999998
 30
0.0
 11
161.28000000000006
 21
112.49999999999977
 31
0.0
  0
LINE
  5
1BF
100
AcDbEntity
100
AcDbLine
  8
0
 62
256
370
-1
 48
1.0
  6
ByLayer
 10
161.28000000000006
 20
112.49999999999977
 30
0.0
 11
161.28000000000006
 21
116.99999999999979
 31
0.0
  0
LINE
  5
1C0
100
AcDbEntity
100
AcDbLine
  8
0
 62
256
370
-1
 48
1.0
  6
ByLayer
 10
143.28000000000006
 20
116.99999999999977
 30
0.0
 11
143.28000000000006
 21
109.49999999999977
 31
0.0
  0
LINE
  5
1C1
100
AcDbEntity
100
AcDbLine
  8
0
 62
256
370
-1
 48
1.0
  6
ByLayer
 10
143.28000000000006
 20
109.49999999999977
 30
0.0
 11
140.28000000000006
 21
109.49999999999979
 31
0.0
  0
LINE
  5
1C2
100
AcDbEntity
100
AcDbLine
  8
0
 62
256
370
-1
 48
1.0
  6
ByLayer
 10
140.28000000000006
 20
109.49999999999979
 30
0.0
 11
140.28000000000006
 21
116.99999999999979
 31
0.0
  0
LINE
  5
1C3
100
AcDbEntity
100
AcDbLine
  8
0
 62
256
370
-1
 48
1.0
  6
ByLayer
 10
140.28000000000006
 20
116.99999999999979
 30
0.0
 11
98.280000000000058
 21
116.99999999999979
 31
0.0
  0
LINE
  5
1C4
100
AcDbEntity
100
AcDbLine
  8
0
 62
256
370
-1
 48
1.0
  6
ByLayer
 10
98.280000000000058
 20
116.99999999999979
 30
0.0
 11
98.280000000000058
 21
96.999999999999787
 31
0.0
  0
LINE
  5
1C5
100
AcDbEntity
100
AcDbLine
  8
0
 62
256
370
-1
 48
1.0
  6
ByLayer
 10
140.28000000000006
 20
96.999999999999773
 30
0.0
 11
140.28000000000006
 21
104.50000000000001
 31
0.0
  0
LINE
  5
1C6
100
AcDbEntity
100
AcDbLine
  8
0
 62
256
370
-1
 48
1.0
  6
ByLayer
 10
140.28000000000006
 20
104.50000000000001
 30
0.0
 11
143.28000000000006
 21
104.49999999999999
 31
0.0
  0
LINE
  5
1C7
100
AcDbEntity
100
AcDbLine
  8
0
 62
256
370
-1
 48
1.0
  6
ByLayer
 10
143.28000000000006
 20
104.49999999999999
 30
0.0
 11
143.28000000000006
 21
96.999999999999773
 31
0.0
  0
LINE
  5
1C8
100
AcDbEntity
100
AcDbLine
  8
0
 62
256
370
-1
 48
1.0
  6
ByLayer
 10
143.28000000000006
 20
96.999999999999773
 30
0.0
 11
161.28000000000006
 21
96.999999999999773
 31
0.0
  0
LINE
  5
1C9
100
AcDbEntity
100
AcDbLine
  8
0
 62
256
370
-1
 48
1.0
  6
ByLayer
 10
161.28000000000006
 20
96.999999999999773
 30
0.0
 11
161.28000000000006
 21
101.5
 31
0.0
  0
LINE
  5
1CA
100
AcDbEntity
100
AcDbLine
  8
0
 62
256
370
-1
 48
1.0
  6
ByLayer
 10
161.28000000000006
 20
101.5
 30
0.0
 11
164.28000000000006
 21
101.49999999999999
 31
0.0
  0
LINE
  5
1CB
100
AcDbEntity
100
AcDbLine
  8
0
 62
256
370
-1
 48
1.0
  6
ByLayer
 10
164.28000000000006
 20
101.49999999999999
 30
0.0
 11
164.28000000000006
 21
96.999999999999773
 31
0.0
  0
LINE
  5
1CC
100
AcDbEntity
100
AcDbLine
  8
0
 62
256
370
-1
 48
1.0
  6
ByLayer
 10
164.28000000000006
 20
96.999999999999773
 30
0.0
 11
167.28000000000006
 21
96.999999999999773
 31
0.0
  0
LINE
  5
1CD
100
AcDbEntity
100
AcDbLine
  8
0
 62
256
370
-1
 48
1.0
  6
ByLayer
 10
167.28000000000006
 20
96.999999999999773
 30
0.0
 11
167.28000000000017
 21
106.49999999999977
 31
0.0
  0
LINE
  5
1CE
100
AcDbEntity
100
AcDbLine
  8
0
 62
256
370
-1
 48
1.0
  6
ByLayer
 10
167.28000000000017
 20
106.49999999999977
 30
0.0
 11
159.25913037155075
 21
106.4999999999998
 31
0.0
  0
ARC
  5
1CF
100
AcDbEntity
  8
0
 62
256
370
-1
 48
1.0
  6
ByLayer
100
AcDbCircle
 10
153.28000000000006
 20
126.99999999999977
 30
0.0
 40
5.9999999999999964
100
AcDbArc
 50
184.78019184719926
 51
355.21980815280119
  0
LINE
  5
1D0
100
AcDbEntity
100
AcDbLine
  8
0
 62
256
370
-1
 48
1.0
  6
ByLayer
 10
147.30086962844936
 20
126.49999999999976
 30
0.0
 11
140.28000000000006
 21
126.49999999999977
 31
0.0
  0
LINE
  5
1D1
100
AcDbEntity
100
AcDbLine
  8
0
 62
256
370
-1
 48
1.0
  6
ByLayer
 10
140.28000000000006
 20
126.49999999999977
 30
0.0
 11
140.28000000000006
 21
127.49999999999977
 31
0.0
  0
LINE
  5
1D2
100
AcDbEntity
100
AcDbLine
  8
0
 62
256
370
-1
 48
1.0
  6
ByLayer
 10
140.28000000000006
 20
127.49999999999977
 30
0.0
 11
147.30086962844936
 21
127.49999999999979
 31
0.0
  0
ARC
  5
1D3
100
AcDbEntity
  8
0
 62
256
370
-1
 48
1.0
  6
ByLayer
100
AcDbCircle
 10
153.28000000000006
 20
126.99999999999979
 30
0.0
 40
5.9999999999999964
100
AcDbArc
 50
4.7801918471991174
 51
175.21980815280088
  0
LINE
  5
1D4
100
AcDbEntity
100
AcDbLine
  8
0
 62
256
370
-1
 48
1.0
  6
ByLayer
 10
159.25913037155075
 20
127.49999999999979
 30
0.0
 11
167.28000000000003
 21
127.4999999999998
 31
0.0
  0
LINE
  5
1D5
100
AcDbEntity
100
AcDbLine
  8
0
 62
256
370
-1
 48
1.0
  6
ByLayer
 10
167.28000000000003
 20
127.4999999999998
 30
0.0
 11
167.28000000000006
 21
136.99999999999977
 31
0.0
  0
LINE
  5
1D6
100
AcDbEntity
100
AcDbLine
  8
0
 62
256
370
-1
 48
1.0
  6
ByLayer
 10
164.28000000000006
 20
136.99999999999974
 30
0.0
 11
164.28000000000006
 21
132.4999999999998
 31
0.0
  0
LINE
  5
1D7
100
AcDbEntity
100
AcDbLine
  8
0
 62
256
370
-1
 48
1.0
  6
ByLayer
 10
164.28000000000006
 20
132.4999999999998
 30
0.0
 11
161.28000000000006
 21
132.49999999999977
 31
0.0
  0
LINE
  5
1D8
100
AcDbEntity
100
AcDbLine
  8
0
 62
256
370
-1
 48
1.0
  6
ByLayer
 10
161.28000000000006
 20
132.49999999999977
 30
0.0
 11
161.28000000000006
 21
136.99999999999977
 31
0.0
  0
LINE
  5
1D9
100
AcDbEntity
100
AcDbLine
  8
0
 62
256
370
-1
 48
1.0
  6
ByLayer
 10
143.28000000000006
 20
136.99999999999977
 30
0.0
 11
143.28000000000006
 21
129.49999999999977
 31
0.0
  0
LINE
  5
1DA
100
AcDbEntity
100
AcDbLine
  8
0
 62
256
370
-1
 48
1.0
  6
ByLayer
 10
143.28000000000006
 20
129.49999999999977
 30
0.0
 11
140.28000000000006
 21
129.49999999999977
 31
0.0
  0
LINE
  5
1DB
100
AcDbEntity
100
AcDbLine
  8
0
 62
256
370
-1
 48
1.0
  6
ByLayer
 10
140.28000000000006
 20
129.49999999999977
 30
0.0
 11
140.28000000000006
 21
136.99999999999977
 31
0.0
  0
LINE
  5
1DC
100
AcDbEntity
100
AcDbLine
  8
0
 62
256
370
-1
 48
1.0
  6
ByLayer
 10
98.280000000000058
 20
136.99999999999977
 30
0.0
 11
98.280000000000058
 21
116.99999999999979
 31
0.0
  0
LINE
  5
1DD
100
AcDbEntity
100
AcDbLine
  8
0
 62
256
370
-1
 48
1.0
  6
ByLayer
 10
140.28000000000006
 20
116.99999999999977
 30
0.0
 11
140.28000000000006
 21
124.50000000000001
 31
0.0
  0
LINE
  5
1DE
100
AcDbEntity
100
AcDbLine
  8
0
 62
256
370
-1
 48
1.0
  6
ByLayer
 10
140.28000000000006
 20
124.50000000000001
 30
0.0
 11
143.28000000000006
 21
124.49999999999999
 31
0.0
  0
LINE
  5
1DF
100
AcDbEntity
100
AcDbLine
  8
0
 62
256
370
-1
 48
1.0
  6
ByLayer
 10
143.28000000000006
 20
124.49999999999999
 30
0.0
 11
143.28000000000006
 21
116.99999999999977
 31
0.0
  0
LINE
  5
1E0
100
AcDbEntity
100
AcDbLine
  8
0
 62
256
370
-1
 48
1.0
  6
ByLayer
 10
143.28000000000006
 20
116.99999999999977
 30
0.0
 11
161.28000000000006
 21
116.99999999999977
 31
0.0
  0
LINE
  5
1E1
100
AcDbEntity
100
AcDbLine
  8
0
 62
256
370
-1
 48
1.0
  6
ByLayer
 10
161.28000000000006
 20
116.99999999999977
 30
0.0
 11
161.28000000000006
 21
121.5
 31
0.0
  0
LINE
  5
1E2
100
AcDbEntity
100
AcDbLine
  8
0
 62
256
370
-1
 48
1.0
  6
ByLayer
 10
161.28000000000006
 20
121.5
 30
0.0
 11
164.28000000000006
 21
121.49999999999999
 31
0.0
  0
LINE
  5
1E3
100
AcDbEntity
100
AcDbLine
  8
0
 62
256
370
-1
 48
1.0
  6
ByLayer
 10
164.28000000000006
 20
121.49999999999999
 30
0.0
 11
164.28000000000006
 21
116.99999999999977
 31
0.0
  0
LINE
  5
1E4
100
AcDbEntity
100
AcDbLine
  8
0
 62
256
370
-1
 48
1.0
  6
ByLayer
 10
167.28000000000006
 20
116.99999999999977
 30
0.0
 11
167.28000000000017
 21
126.49999999999977
 31
0.0
  0
LINE
  5
1E5
100
AcDbEntity
100
AcDbLine
  8
0
 62
256
370
-1
 48
1.0
  6
ByLayer
 10
167.28000000000017
 20
126.49999999999977
 30
0.0
 11
159.25913037155075
 21
126.4999999999998
 31
0.0
  0
ARC
  5
1E6
100
AcDbEntity
  8
0
 62
256
370
-1
 48
1.0
  6
ByLayer
100
AcDbCircle
 10
153.28000000000006
 20
146.9999999999998
 30
0.0
 40
5.9999999999999964
100
AcDbArc
 50
184.78019184719943
 51
355.21980815280119
  0
LINE
  5
1E7
100
AcDbEntity
100
AcDbLine
  8
0
 62
256
370
-1
 48
1.0
  6
ByLayer
 10
147.30086962844936
 20
146.49999999999977
 30
0.0
 11
140.28000000000006
 21
146.49999999999977
 31
0.0
  0
LINE
  5
1E8
100
AcDbEntity
100
AcDbLine
  8
0
 62
256
370
-1
 48
1.0
  6
ByLayer
 10
140.28000000000006
 20
146.49999999999977
 30
0.0
 11
140.28000000000006
 21
147.4999999999998
 31
0.0
  0
LINE
  5
1E9
100
AcDbEntity
100
AcDbLine
  8
0
 62
256
370
-1
 48
1.0
  6
ByLayer
 10
140.28000000000006
 20
147.4999999999998
 30
0.0
 11
147.30086962844936
 21
147.4999999999998
 31
0.0
  0
ARC
  5
1EA
100
AcDbEntity
  8
0
 62
256
370
-1
 48
1.0
  6
ByLayer
100
AcDbCircle
 10
153.28000000000006
 20
146.9999999999998
 30
0.0
 40
5.9999999999999964
100
AcDbArc
 50
4.7801918471991174
 51
175.21980815280088
  0
LINE
  5
1EB
100
AcDbEntity
100
AcDbLine
  8
0
 62
256
370
-1
 48
1.0
  6
ByLayer
 10
159.25913037155075
 20
147.4999999999998
 30
0.0
 11
167.28000000000003
 21
147.49999999999983
 31
0.0
  0
LINE
  5
1EC
100
AcDbEntity
100
AcDbLine
  8
0
 62
256
370
-1
 48
1.0
  6
ByLayer
 10
167.28000000000003
 20
147.49999999999983
 30
0.0
 11
167.28000000000006
 21
156.9999999999998
 31
0.0
  0
LINE
  5
1ED
100
AcDbEntity
100
AcDbLine
  8
0
 62
256
370
-1
 48
1.0
  6
ByLayer
 10
167.28000000000006
 20
156.9999999999998
 30
0.0
 11
164.28000000000006
 21
156.99999999999977
 31
0.0
  0
LINE
  5
1EE
100
AcDbEntity
100
AcDbLine
  8
0
 62
256
370
-1
 48
1.0
  6
ByLayer
 10
164.28000000000006
 20
156.99999999999977
 30
0.0
 11
164.28000000000006
 21
152.49999999999983
 31
0.0
  0
LINE
  5
1EF
100
AcDbEntity
100
AcDbLine
  8
0
 62
256
370
-1
 48
1.0
  6
ByLayer
 10
164.28000000000006
 20
152.49999999999983
 30
0.0
 11
161.28000000000006
 21
152.4999999999998
 31
0.0
  0
LINE
  5
1F0
100
AcDbEntity
100
AcDbLine
  8
0
 62
256
370
-1
 48
1.0
  6
ByLayer
 10
161.28000000000006
 20
152.4999999999998
 30
0.0
 11
161.28000000000006
 21
156.9999999999998
 31
0.0
  0
LINE
  5
1F1
100
AcDbEntity
100
AcDbLine
  8
0
 62
256
370
-1
 48
1.0
  6
ByLayer
 10
161.28000000000006
 20
156.9999999999998
 30
0.0
 11
143.28000000000006
 21
156.9999999999998
 31
0.0
  0
LINE
  5
1F2
100
AcDbEntity
100
AcDbLine
  8
0
 62
256
370
-1
 48
1.0
  6
ByLayer
 10
143.28000000000006
 20
156.9999999999998
 30
0.0
 11
143.28000000000006
 21
149.4999999999998
 31
0.0
  0
LINE
  5
1F3
100
AcDbEntity
100
AcDbLine
  8
0
 62
256
370
-1
 48
1.0
  6
ByLayer
 10
143.28000000000006
 20
149.4999999999998
 30
0.0
 11
140.28000000000006
 21
149.4999999999998
 31
0.0
  0
LINE
  5
1F4
100
AcDbEntity
100
AcDbLine
  8
0
 62
256
370
-1
 48
1.0
  6
ByLayer
 10
140.28000000000006
 20
149.4999999999998
 30
0.0
 11
140.28000000000006
 21
156.9999999999998
 31
0.0
  0
LINE
  5
1F5
100
AcDbEntity
100
AcDbLine
  8
0
 62
256
370
-1
 48
1.0
  6
ByLayer
 10
140.28000000000006
 20
156.9999999999998
 30
0.0
 11
98.280000000000058
 21
156.9999999999998
 31
0.0
  0
LINE
  5
1F6
100
AcDbEntity
100
AcDbLine
  8
0
 62
256
370
-1
 48
1.0
  6
ByLayer
 10
98.280000000000058
 20
156.9999999999998
 30
0.0
 11
98.280000000000058
 21
136.9999999999998
 31
0.0
  0
LINE
  5
1F7
100
AcDbEntity
100
AcDbLine
  8
0
 62
256
370
-1
 48
1.0
  6
ByLayer
 10
98.280000000000058
 20
136.9999999999998
 30
0.0
 11
140.28000000000006
 21
136.9999999999998
 31
0.0
  0
LINE
  5
1F8
100
AcDbEntity
100
AcDbLine
  8
0
 62
256
370
-1
 48
1.0
  6
ByLayer
 10
140.28000000000006
 20
136.9999999999998
 30
0.0
 11
140.28000000000006
 21
144.50000000000003
 31
0.0
  0
LINE
  5
1F9
100
AcDbEntity
100
AcDbLine
  8
0
 62
256
370
-1
 48
1.0
  6
ByLayer
 10
140.28000000000006
 20
144.50000000000003
 30
0.0
 11
143.28000000000006
 21
144.5
 31
0.0
  0
LINE
  5
1FA
100
AcDbEntity
100
AcDbLine
  8
0
 62
256
370
-1
 48
1.0
  6
ByLayer
 10
143.28000000000006
 20
144.5
 30
0.0
 11
143.28000000000006
 21
136.9999999999998
 31
0.0
  0
LINE
  5
1FB
100
AcDbEntity
100
AcDbLine
  8
0
 62
256
370
-1
 48
1.0
  6
ByLayer
 10
143.28000000000006
 20
136.9999999999998
 30
0.0
 11
161.28000000000006
 21
136.99999999999977
 31
0.0
  0
LINE
  5
1FC
100
AcDbEntity
100
AcDbLine
  8
0
 62
256
370
-1
 48
1.0
  6
ByLayer
 10
161.28000000000006
 20
136.99999999999977
 30
0.0
 11
161.28000000000006
 21
141.5
 31
0.0
  0
LINE
  5
1FD
100
AcDbEntity
100
AcDbLine
  8
0
 62
256
370
-1
 48
1.0
  6
ByLayer
 10
161.28000000000006
 20
141.5
 30
0.0
 11
164.28000000000006
 21
141.5
 31
0.0
  0
LINE
  5
1FE
100
AcDbEntity
100
AcDbLine
  8
0
 62
256
370
-1
 48
1.0
  6
ByLayer
 10
164.28000000000006
 20
141.5
 30
0.0
 11
164.28000000000006
 21
136.99999999999977
 31
0.0
  0
LINE
  5
1FF
100
AcDbEntity
100
AcDbLine
  8
0
 62
256
370
-1
 48
1.0
  6
ByLayer
 10
164.28000000000006
 20
136.99999999999977
 30
0.0
 11
167.28000000000006
 21
136.99999999999977
 31
0.0
  0
LINE
  5
200
100
AcDbEntity
100
AcDbLine
  8
0
 62
256
370
-1
 48
1.0
  6
ByLayer
 10
167.28000000000006
 20
136.99999999999977
 30
0.0
 11
167.28000000000017
 21
146.4999999999998
 31
0.0
  0
LINE
  5
201
100
AcDbEntity
100
AcDbLine
  8
0
 62
256
370
-1
 48
1.0
  6
ByLayer
 10
167.28000000000017
 20
146.4999999999998
 30
0.0
 11
159.25913037155075
 21
146.49999999999983
 31
0.0
  0
LINE
  5
202
100
AcDbEntity
100
AcDbLine
  8
0
 62
256
370
-1
 48
1.0
  6
ByLayer
 10
-112.49999999999994
 20
167.00000000000003
 30
0.0
 11
-112.49999999999994
 21
162.0
 31
0.0
  0
ARC
  5
203
100
AcDbEntity
  8
0
 62
256
370
-1
 48
1.0
  6
ByLayer
100
AcDbCircle
 10
-122.49999999999994
 20
162.0
 30
0.0
 40
10.0
100
AcDbArc
 50
270.0
 51
0.0
  0
LINE
  5
204
100
AcDbEntity
100
AcDbLine
  8
0
 62
256
370
-1
 48
1.0
  6
ByLayer
 10
-122.49999999999994
 20
152.0
 30
0.0
 11
-127.49999999999994
 21
152.0
 31
0.0
  0
LINE
  5
205
100
AcDbEntity
100
AcDbLine
  8
0
 62
256
370
-1
 48
1.0
  6
ByLayer
 10
-127.49999999999994
 20
152.0
 30
0.0
 11
-127.49999999999994
 21
26.0
 31
0.0
  0
LINE
  5
206
100
AcDbEntity
100
AcDbLine
  8
0
 62
256
370
-1
 48
1.0
  6
ByLayer
 10
13.500000000000057
 20
167.0
 30
0.0
 11
-112.49999999999994
 21
167.00000000000003
 31
0.0
  0
LINE
  5
207
100
AcDbEntity
100
AcDbLine
  8
0
 62
256
370
-1
 48
1.0
  6
ByLayer
 10
-96.499999999999957
 20
-44.500000000000426
 30
0.0
 11
-137.0
 21
-4.0000000000004832
 31
0.0
  0
LINE
  5
208
100
AcDbEntity
100
AcDbLine
  8
0
 62
256
370
-1
 48
1.0
  6
ByLayer
 10
-166.99999999999997
 20
-4.0000000000004263
 30
0.0
 11
-167.00000000000003
 21
-34.000000000000426
 31
0.0
  0
LINE
  5
209
100
AcDbEntity
100
AcDbLine
  8
0
 62
256
370
-1
 48
1.0
  6
ByLayer
 10
-167.00000000000003
 20
-34.000000000000426
 30
0.0
 11
-126.49999999999999
 21
-74.500000000000426
 31
0.0
  0
LINE
  5
20A
100
AcDbEntity
100
AcDbLine
  8
0
 62
256
370
-1
 48
1.0
  6
ByLayer
 10
-126.49999999999999
 20
-74.500000000000426
 30
0.0
 11
-166.99999999999997
 21
-115.00000000000048
 31
0.0
  0
LINE
  5
20B
100
AcDbEntity
100
AcDbLine
  8
0
 62
256
370
-1
 48
1.0
  6
ByLayer
 10
-166.99999999999997
 20
-115.00000000000048
 30
0.0
 11
-166.99999999999997
 21
-130.00000000000043
 31
0.0
  0
LINE
  5
20C
100
AcDbEntity
100
AcDbLine
  8
0
 62
256
370
-1
 48
1.0
  6
ByLayer
 10
-166.99999999999997
 20
-130.00000000000043
 30
0.0
 11
-161.99999999999997
 21
-130.00000000000043
 31
0.0
  0
ARC
  5
20D
100
AcDbEntity
  8
0
 62
256
370
-1
 48
1.0
  6
ByLayer
100
AcDbCircle
 10
-162.0
 20
-140.00000000000043
 30
0.0
 40
9.999999999999984
100
AcDbArc
 50
0.0
 51
89.999999999999829
  0
LINE
  5
20E
100
AcDbEntity
100
AcDbLine
  8
0
 62
256
370
-1
 48
1.0
  6
ByLayer
 10
-152.0
 20
-140.00000000000043
 30
0.0
 11
-152.0
 21
-145.00000000000043
 31
0.0
  0
LINE
  5
20F
100
AcDbEntity
100
AcDbLine
  8
0
 62
256
370
-1
 48
1.0
  6
ByLayer
 10
-152.0
 20
-145.00000000000043
 30
0.0
 11
-136.99999999999994
 21
-145.00000000000037
 31
0.0
  0
LINE
  5
210
100
AcDbEntity
100
AcDbLine
  8
0
 62
256
370
-1
 48
1.0
  6
ByLayer
 10
-136.99999999999994
 20
-145.00000000000037
 30
0.0
 11
-96.499999999999929
 21
-104.50000000000043
 31
0.0
  0
LINE
  5
211
100
AcDbEntity
100
AcDbLine
  8
0
 62
256
370
-1
 48
1.0
  6
ByLayer
 10
-96.499999999999929
 20
-104.50000000000043
 30
0.0
 11
-55.999999999999986
 21
-145.00000000000043
 31
0.0
  0
LINE
  5
212
100
AcDbEntity
100
AcDbLine
  8
0
 62
256
370
-1
 48
1.0
  6
ByLayer
 10
-55.999999999999986
 20
-145.00000000000043
 30
0.0
 11
-25.999999999999986
 21
-145.00000000000043
 31
0.0
  0
LINE
  5
213
100
AcDbEntity
100
AcDbLine
  8
0
 62
256
370
-1
 48
1.0
  6
ByLayer
 10
-25.999999999999986
 20
-115.00000000000048
 30
0.0
 11
-66.499999999999986
 21
-74.500000000000426
 31
0.0
  0
LINE
  5
214
100
AcDbEntity
100
AcDbLine
  8
0
 62
256
370
-1
 48
1.0
  6
ByLayer
 10
-66.499999999999986
 20
-74.500000000000426
 30
0.0
 11
-25.999999999999972
 21
-34.000000000000369
 31
0.0
  0
LINE
  5
215
100
AcDbEntity
100
AcDbLine
  8
0
 62
256
370
-1
 48
1.0
  6
ByLayer
 10
-56.000000000000014
 20
-4.0000000000004263
 30
0.0
 11
-96.499999999999957
 21
-44.500000000000426
 31
0.0
  0
LINE
  5
216
100
AcDbEntity
100
AcDbLine
  8
0
 62
256
370
-1
 48
1.0
  6
ByLayer
 10
29.000000000000199
 20
-14.000000000000028
 30
0.0
 11
29.000000000000199
 21
-19.000000000000057
 31
0.0
  0
ARC
  5
217
100
AcDbEntity
  8
0
 62
256
370
-1
 48
1.0
  6
ByLayer
100
AcDbCircle
 10
19.000000000000199
 20
-19.000000000000057
 30
0.0
 40
10.0
100
AcDbArc
 50
270.0
 51
0.0
  0
LINE
  5
218
100
AcDbEntity
100
AcDbLine
  8
0
 62
256
370
-1
 48
1.0
  6
ByLayer
 10
19.000000000000199
 20
-29.000000000000057
 30
0.0
 11
14.000000000000199
 21
-29.000000000000057
 31
0.0
  0
LINE
  5
219
100
AcDbEntity
100
AcDbLine
  8
0
 62
256
370
-1
 48
1.0
  6
ByLayer
 10
14.000000000000199
 20
-29.000000000000057
 30
0.0
 11
14.000000000000199
 21
-155.00000000000006
 31
0.0
  0
LINE
  5
21A
100
AcDbEntity
100
AcDbLine
  8
0
 62
256
370
-1
 48
1.0
  6
ByLayer
 10
155.0000000000002
 20
-14.000000000000057
 30
0.0
 11
29.000000000000199
 21
-14.000000000000028
 31
0.0
  0
ENDSEC
  0
SECTION
  2
OBJECTS
  0
DICTIONARY
  5
C
100
AcDbDictionary
280
0
281
1
  3
ACAD_GROUP
350
D
  3
ACAD_LAYOUT
350
1A
  3
ACAD_MLINESTYLE
350
17
  3
ACAD_PLOTSETTINGS
350
19
  3
ACAD_PLOTSTYLENAME
350
E
  3
AcDbVariableDictionary
350
21B
  3
QCAD_OBJECTS
350
21C
  0
DICTIONARY
  5
D
100
AcDbDictionary
280
0
281
1
  0
ACDBDICTIONARYWDFLT
  5
E
100
AcDbDictionary
281
1
  3
Normal
350
F
100
AcDbDictionaryWithDefault
340
F
  0
ACDBPLACEHOLDER
  5
F
  0
DICTIONARY
  5
17
100
AcDbDictionary
280
0
281
1
  3
Standard
350
18
  0
MLINESTYLE
  5
18
100
AcDbMlineStyle
  2
STANDARD
 70
0
  3

 62
256
 51
90.0
 52
90.0
 71
2
 49
0.5
 62
256
  6
BYLAYER
 49
-0.5
 62
256
  6
BYLAYER
  0
DICTIONARY
  5
19
100
AcDbDictionary
280
0
281
1
  0
DICTIONARY
  5
1A
100
AcDbDictionary
281
1
  3
Layout1
350
1E
  3
Layout2
350
26
  3
Model
350
22
  0
LAYOUT
  5
1E
100
AcDbPlotSettings
  1

  2
none_device
  4

  6

 40
0.0
 41
0.0
 42
0.0
 43
0.0
 44
0.0
 45
0.0
 46
0.0
 47
0.0
 48
0.0
 49
0.0
140
0.0
141
0.0
142
1.0
143
1.0
 70
688
 72
0
 73
0
 74
5
  7

 75
16
147
1.0
148
0.0
149
0.0
100
AcDbLayout
  1
Layout1
 70
1
 71
1
 10
0.0
 20
0.0
 11
420.0
 21
297.0
 12
0.0
 22
0.0
 32
0.0
 14
100000000000000000000.0
 24
100000000000000000000.0
 34
100000000000000000000.0
 15
-100000000000000000000.0
 25
-100000000000000000000.0
 35
-100000000000000000000.0
146
0.0
 13
0.0
 23
0.0
 33
0.0
 16
1.0
 26
0.0
 36
0.0
 17
0.0
 27
1.0
 37
0.0
 76
0
330
1B
  0
LAYOUT
  5
22
100
AcDbPlotSettings
  1

  2
none_device
  4

  6

 40
0.0
 41
0.0
 42
0.0
 43
0.0
 44
0.0
 45
0.0
 46
0.0
 47
0.0
 48
0.0
 49
0.0
140
0.0
141
0.0
142
1.0
143
1.0
 70
1712
 72
0
 73
0
 74
0
  7

 75
0
147
1.0
148
0.0
149
0.0
100
AcDbLayout
  1
Model
 70
1
 71
0
 10
0.0
 20
0.0
 11
12.0
 21
9.0
 12
0.0
 22
0.0
 32
0.0
 14
0.0
 24
0.0
 34
0.0
 15
0.0
 25
0.0
 35
0.0
146
0.0
 13
0.0
 23
0.0
 33
0.0
 16
1.0
 26
0.0
 36
0.0
 17
0.0
 27
1.0
 37
0.0
 76
0
330
1F
  0
LAYOUT
  5
26
100
AcDbPlotSettings
  1

  2
none_device
  4

  6

 40
0.0
 41
0.0
 42
0.0
 43
0.0
 44
0.0
 45
0.0
 46
0.0
 47
0.0
 48
0.0
 49
0.0
140
0.0
141
0.0
142
1.0
143
1.0
 70
688
 72
0
 73
0
 74
5
  7

 75
16
147
1.0
148
0.0
149
0.0
100
AcDbLayout
  1
Layout2
 70
1
 71
2
 10
0.0
 20
0.0
 11
12.0
 21
9.0
 12
0.0
 22
0.0
 32
0.0
 14
0.0
 24
0.0
 34
0.0
 15
0.0
 25
0.0
 35
0.0
146
0.0
 13
0.0
 23
0.0
 33
0.0
 16
1.0
 26
0.0
 36
0.0
 17
0.0
 27
1.0
 37
0.0
 76
0
330
23
  0
DICTIONARY
  5
21B
100
AcDbDictionary
281
1
  3
DIMASSOC
350
21E
  3
HIDETEXT
350
21D
  0
DICTIONARYVAR
  5
21D
100
DictionaryVariables
280
0
  1
2
  0
DICTIONARYVAR
  5
21E
100
DictionaryVariables
280
0
  1
1
  0
DICTIONARY
  5
21C
100
AcDbDictionary
281
1
  3
Grid/DisplayGrid00
350
21F
  3
Grid/DisplayGrid01
350
220
  3
Grid/DisplayGrid02
350
221
  3
Grid/DisplayGrid03
350
222
  3
Grid/GridSpacingX00
350
223
  3
Grid/GridSpacingX01
350
224
  3
Grid/GridSpacingX02
350
225
  3
Grid/GridSpacingX03
350
226
  3
Grid/GridSpacingY00
350
227
  3
Grid/GridSpacingY01
350
228
  3
Grid/GridSpacingY02
350
229
  3
Grid/GridSpacingY03
350
22A
  3
Grid/IsometricGrid00
350
22B
  3
Grid/IsometricGrid01
350
22C
  3
Grid/IsometricGrid02
350
22D
  3
Grid/IsometricGrid03
350
22E
  3
Grid/IsometricProjection00
350
22F
  3
Grid/IsometricProjection01
350
230
  3
Grid/IsometricProjection02
350
231
  3
Grid/IsometricProjection03
350
232
  3
Grid/MetaGridSpacingX00
350
233
  3
Grid/MetaGridSpacingX01
350
234
  3
Grid/MetaGridSpacingX02
350
235
  3
Grid/MetaGridSpacingX03
350
236
  3
Grid/MetaGridSpacingY00
350
237
  3
Grid/MetaGridSpacingY01
350
238
  3
Grid/MetaGridSpacingY02
350
239
  3
Grid/MetaGridSpacingY03
350
23A
  3
MultiPageSettings/Columns
350
23B
  3
MultiPageSettings/GlueMarginsBottom
350
23C
  3
MultiPageSettings/GlueMarginsLeft
350
23D
  3
MultiPageSettings/GlueMarginsRight
350
23E
  3
MultiPageSettings/GlueMarginsTop
350
23F
  3
MultiPageSettings/PrintCropMarks
350
240
  3
MultiPageSettings/Rows
350
241
  3
PageSettings/OffsetX
350
242
  3
PageSettings/OffsetY
350
243
  3
PageSettings/PageOrientation
350
244
  3
PageSettings/PaperHeight
350
245
  3
PageSettings/PaperWidth
350
246
  3
PageSettings/Scale
350
247
  3
PageSettings/ShowPaperBorders
350
248
  3
UnitSettings/PaperUnit
350
249
  0
XRECORD
  5
21F
330
21C
100
AcDbXrecord
280
1
290
1
  0
XRECORD
  5
220
330
21C
100
AcDbXrecord
280
1
290
1
  0
XRECORD
  5
221
330
21C
100
AcDbXrecord
280
1
290
1
  0
XRECORD
  5
222
330
21C
100
AcDbXrecord
280
1
290
1
  0
XRECORD
  5
223
330
21C
100
AcDbXrecord
280
1
1000
auto
  0
XRECORD
  5
224
330
21C
100
AcDbXrecord
280
1
1000
auto
  0
XRECORD
  5
225
330
21C
100
AcDbXrecord
280
1
1000
auto
  0
XRECORD
  5
226
330
21C
100
AcDbXrecord
280
1
1000
auto
  0
XRECORD
  5
227
330
21C
100
AcDbXrecord
280
1
1000
auto
  0
XRECORD
  5
228
330
21C
100
AcDbXrecord
280
1
1000
auto
  0
XRECORD
  5
229
330
21C
100
AcDbXrecord
280
1
1000
auto
  0
XRECORD
  5
22A
330
21C
100
AcDbXrecord
280
1
1000
auto
  0
XRECORD
  5
22B
330
21C
100
AcDbXrecord
280
1
290
0
  0
XRECORD
  5
22C
330
21C
100
AcDbXrecord
280
1
290
0
  0
XRECORD
  5
22D
330
21C
100
AcDbXrecord
280
1
290
0
  0
XRECORD
  5
22E
330
21C
100
AcDbXrecord
280
1
290
0
  0
XRECORD
  5
22F
330
21C
100
AcDbXrecord
280
1
 90
0
  0
XRECORD
  5
230
330
21C
100
AcDbXrecord
280
1
 90
0
  0
XRECORD
  5
231
330
21C
100
AcDbXrecord
280
1
 90
0
  0
XRECORD
  5
232
330
21C
100
AcDbXrecord
280
1
 90
0
  0
XRECORD
  5
233
330
21C
100
AcDbXrecord
280
1
1000
auto
  0
XRECORD
  5
234
330
21C
100
AcDbXrecord
280
1
1000
auto
  0
XRECORD
  5
235
330
21C
100
AcDbXrecord
280
1
1000
auto
  0
XRECORD
  5
236
330
21C
100
AcDbXrecord
280
1
1000
auto
  0
XRECORD
  5
237
330
21C
100
AcDbXrecord
280
1
1000
auto
  0
XRECORD
  5
238
330
21C
100
AcDbXrecord
280
1
1000
auto
  0
XRECORD
  5
239
330
21C
100
AcDbXrecord
280
1
1000
auto
  0
XRECORD
  5
23A
330
21C
100
AcDbXrecord
280
1
1000
auto
  0
XRECORD
  5
23B
330
21C
100
AcDbXrecord
280
1
 90
1
  0
XRECORD
  5
23C
330
21C
100
AcDbXrecord
280
1
 40
10.0
  0
XRECORD
  5
23D
330
21C
100
AcDbXrecord
280
1
 40
10.0
  0
XRECORD
  5
23E
330
21C
100
AcDbXrecord
280
1
 40
10.0
  0
XRECORD
  5
23F
330
21C
100
AcDbXrecord
280
1
 40
10.0
  0
XRECORD
  5
240
330
21C
100
AcDbXrecord
280
1
290
0
  0
XRECORD
  5
241
330
21C
100
AcDbXrecord
280
1
 90
1
  0
XRECORD
  5
242
330
21C
100
AcDbXrecord
280
1
 40
0.0
  0
XRECORD
  5
243
330
21C
100
AcDbXrecord
280
1
 40
0.0
  0
XRECORD
  5
244
330
21C
100
AcDbXrecord
280
1
1000
Portrait
  0
XRECORD
  5
245
330
21C
100
AcDbXrecord
280
1
 40
297.0
  0
XRECORD
  5
246
330
21C
100
AcDbXrecord
280
1
 40
210.0
  0
XRECORD
  5
247
330
21C
100
AcDbXrecord
280
1
1000
1:1
  0
XRECORD
  5
248
330
21C
100
AcDbXrecord
280
1
290
1
  0
XRECORD
  5
249
330
21C
100
AcDbXrecord
280
1
 90
4
  0
ENDSEC
  0
EOF
