999
dxflib 3.7.5.0
  0
SECTION
  2
HEADER
  9
$ACADVER
  1
AC1015
  9
$HANDSEED
  5
FFFF
  9
$ANGBASE
 50
0.0
  9
$ATTMODE
 70
1
  9
$AUNITS
 70
0
  9
$AUPREC
 70
0
  9
$CELTSCALE
 40
1.0
  9
$CHAMFERA
 40
0.0
  9
$CHAMFERB
 40
0.0
  9
$CHAMFERC
 40
0.0
  9
$CHAMFERD
 40
0.0
  9
$CMLJUST
 70
0
  9
$CMLSCALE
 40
1.0
  9
$DIMADEC
 70
0
  9
$DIMALTD
 70
2
  9
$DIMALTF
 40
25.399999999999999
  9
$DIMALTRND
 40
0.0
  9
$DIMALTTD
 70
2
  9
$DIMALTTZ
 70
0
  9
$DIMALTU
 70
2
  9
$DIMALTZ
 70
0
  9
$DIMAPOST
  1

  9
$DIMASZ
 40
2.5
  9
$DIMATFIT
 70
3
  9
$DIMAUNIT
 70
0
  9
$DIMAZIN
 70
2
  9
$DIMCEN
 40
0.09
  9
$DIMDEC
 70
4
  9
$DIMDLE
 40
0.0
  9
$DIMDLI
 40
0.38
  9
$DIMDSEP
 70
46
  9
$DIMEXE
 40
1.25
  9
$DIMEXO
 40
0.625
  9
$DIMFRAC
 70
0
  9
$DIMGAP
 40
0.625
  9
$DIMJUST
 70
0
  9
$DIMLFAC
 40
1.0
  9
$DIMLUNIT
 70
2
  9
$DIMLWD
 70
-2
  9
$DIMLWE
 70
-2
  9
$DIMPOST
  1

  9
$DIMRND
 40
0.0
  9
$DIMSCALE
 40
1.0
  9
$DIMTAD
 70
0
  9
$DIMTDEC
 70
4
  9
$DIMTFAC
 40
1.0
  9
$DIMTM
 40
0.0
  9
$DIMTOLJ
 70
1
  9
$DIMTP
 40
0.0
  9
$DIMTSZ
 40
0.0
  9
$DIMTVP
 40
0.0
  9
$DIMTXT
 40
2.5
  9
$DIMTZIN
 70
0
  9
$DIMZIN
 70
8
  9
$DWGCODEPAGE
  3
ANSI_1252
  9
$ELEVATION
 40
0.0
  9
$EXTMAX
 10
-100000000000000000000.0
 20
-100000000000000000000.0
 30
-100000000000000000000.0
  9
$EXTMIN
 10
100000000000000000000.0
 20
100000000000000000000.0
 30
100000000000000000000.0
  9
$FILLETRAD
 40
0.5
  9
$INSBASE
 10
0.0
 20
0.0
 30
0.0
  9
$INSUNITS
 70
4
  9
$LIMMAX
 10
12.0
 20
9.0
  9
$LIMMIN
 10
0.0
 20
0.0
  9
$LTSCALE
 40
1
  9
$LUNITS
 70
2
  9
$LUPREC
 70
4
  9
$MAXACTVP
 70
2
  9
$PDMODE
 70
0
  9
$PDSIZE
 40
0.0
  9
$PELEVATION
 40
0.0
  9
$PEXTMAX
 10
-100000000000000000000.0
 20
-100000000000000000000.0
 30
-100000000000000000000.0
  9
$PEXTMIN
 10
100000000000000000000.0
 20
100000000000000000000.0
 30
100000000000000000000.0
  9
$PINSBASE
 10
0.0
 20
0.0
 30
0.0
  9
$PLIMMAX
 10
12.0
 20
9.0
  9
$PLIMMIN
 10
0.0
 20
0.0
  9
$PLINEWID
 40
0.0
  9
$PROXYGRAPHICS
 70
1
  9
$PUCSORG
 10
0.0
 20
0.0
 30
0.0
  9
$PUCSXDIR
 10
1.0
 20
0.0
 30
0.0
  9
$PUCSYDIR
 10
0.0
 20
1.0
 30
0.0
  9
$SHADEDGE
 70
3
  9
$SHADEDIF
 70
70
  9
$SKETCHINC
 40
0.1
  9
$SPLINESEGS
 70
8
  9
$SPLINETYPE
 70
6
  9
$SURFTAB1
 70
6
  9
$SURFTAB2
 70
6
  9
$SURFTYPE
 70
6
  9
$SURFU
 70
6
  9
$SURFV
 70
6
  9
$TEXTSIZE
 40
2.5
  9
$THICKNESS
 40
0.0
  9
$TRACEWID
 40
0.05
  9
$TREEDEPTH
 70
3020
  9
$UCSORG
 10
0.0
 20
0.0
 30
0.0
  9
$UCSXDIR
 10
1.0
 20
0.0
 30
0.0
  9
$UCSYDIR
 10
0.0
 20
1.0
 30
0.0
  9
$UNITMODE
 70
0
  9
$USERI1
 70
0
  9
$USERI2
 70
0
  9
$USERI3
 70
0
  9
$USERI4
 70
0
  9
$USERI5
 70
0
  9
$USERR1
 40
0.0
  9
$USERR2
 40
0.0
  9
$USERR3
 40
0.0
  9
$USERR4
 40
0.0
  9
$USERR5
 40
0.0
  0
ENDSEC
  0
SECTION
  2
TABLES
  0
TABLE
  2
VPORT
  5
8
100
AcDbSymbolTable
 70
1
  0
VPORT
  5
30
100
AcDbSymbolTableRecord
100
AcDbViewportTableRecord
  2
*Active
 70
0
 10
0.0
 20
0.0
 11
1.0
 21
1.0
 12
286.30555555555549
 22
148.5
 13
0.0
 23
0.0
 14
10.0
 24
10.0
 15
10.0
 25
10.0
 16
0.0
 26
0.0
 36
1.0
 17
0.0
 27
0.0
 37
0.0
 40
297.0
 41
1.92798353909465
 42
50.0
 43
0.0
 44
0.0
 50
0.0
 51
0.0
 71
0
 72
100
 73
1
 74
3
 75
1
 76
1
 77
0
 78
0
281
0
 65
1
110
0.0
120
0.0
130
0.0
111
1.0
121
0.0
131
0.0
112
0.0
122
1.0
132
0.0
 79
0
146
0.0
  0
ENDTAB
  0
TABLE
  2
LTYPE
  5
5
100
AcDbSymbolTable
 70
41
  0
LTYPE
  5
16
100
AcDbSymbolTableRecord
100
AcDbLinetypeTableRecord
  2
Continuous
 70
0
  3
Solid line
 72
65
 73
0
 40
0.0
  0
LTYPE
  5
31
100
AcDbSymbolTableRecord
100
AcDbLinetypeTableRecord
  2
ACAD_ISO15W100
 70
0
  3
ISO double-dash triple-dot __ __ . . . __ __ . .
 72
65
 73
10
 40
39.000000000000007
 49
12.0
 74
0
 49
-3.0
 74
0
 49
12.0
 74
0
 49
-2.9500000000000002
 74
0
 49
0.1
 74
0
 49
-2.9000000000000004
 74
0
 49
0.1
 74
0
 49
-2.9000000000000004
 74
0
 49
0.1
 74
0
 49
-2.9500000000000002
 74
0
  0
LTYPE
  5
32
100
AcDbSymbolTableRecord
100
AcDbLinetypeTableRecord
  2
DIVIDE
 70
0
  3
Divide ____ . . ____ . . ____ . . ____ . . ____
 72
65
 73
6
 40
31.750000000000004
 49
12.699999999999999
 74
0
 49
-6.2999999999999998
 74
0
 49
0.1
 74
0
 49
-6.25
 74
0
 49
0.1
 74
0
 49
-6.2999999999999998
 74
0
  0
LTYPE
  5
33
100
AcDbSymbolTableRecord
100
AcDbLinetypeTableRecord
  2
ACAD_ISO10W100
 70
0
  3
ISO dash dot __ . __ . __ . __ . __ . __ . __ . 
 72
65
 73
4
 40
18.0
 49
12.0
 74
0
 49
-2.9500000000000002
 74
0
 49
0.1
 74
0
 49
-2.9500000000000002
 74
0
  0
LTYPE
  5
34
100
AcDbSymbolTableRecord
100
AcDbLinetypeTableRecord
  2
ACAD_ISO04W100
 70
0
  3
ISO long-dash dot ____ . ____ . ____ . ____ . _
 72
65
 73
4
 40
30.0
 49
24.0
 74
0
 49
-2.9500000000000002
 74
0
 49
0.1
 74
0
 49
-2.9500000000000002
 74
0
  0
LTYPE
  5
35
100
AcDbSymbolTableRecord
100
AcDbLinetypeTableRecord
  2
CENTER2
 70
0
  3
Center (.5x) ___ _ ___ _ ___ _ ___ _ ___ _ ___
 72
65
 73
4
 40
28.575000000000003
 49
19.050000000000001
 74
0
 49
-3.1749999999999998
 74
0
 49
3.1749999999999998
 74
0
 49
-3.1749999999999998
 74
0
  0
LTYPE
  5
36
100
AcDbSymbolTableRecord
100
AcDbLinetypeTableRecord
  2
ACAD_ISO11W100
 70
0
  3
ISO double-dash dot __ __ . __ __ . __ __ . __ _
 72
65
 73
6
 40
33.0
 49
12.0
 74
0
 49
-3.0
 74
0
 49
12.0
 74
0
 49
-2.9500000000000002
 74
0
 49
0.1
 74
0
 49
-2.9500000000000002
 74
0
  0
LTYPE
  5
37
100
AcDbSymbolTableRecord
100
AcDbLinetypeTableRecord
  2
HIDDEN2
 70
0
  3
Hidden (.5x) _ _ _ _ _ _ _ _ _ _ _ _ _ _ _ _ _ 
 72
65
 73
2
 40
4.7624999999999993
 49
3.1749999999999998
 74
0
 49
-1.5874999999999999
 74
0
  0
LTYPE
  5
38
100
AcDbSymbolTableRecord
100
AcDbLinetypeTableRecord
  2
BORDERX2
 70
0
  3
Border (2x) ____  ____  .  ____  ____  .  ___
 72
65
 73
6
 40
88.899999999999977
 49
25.399999999999999
 74
0
 49
-12.699999999999999
 74
0
 49
25.399999999999999
 74
0
 49
-12.649999999999999
 74
0
 49
0.1
 74
0
 49
-12.649999999999999
 74
0
  0
LTYPE
  5
39
100
AcDbSymbolTableRecord
100
AcDbLinetypeTableRecord
  2
ACAD_ISO05W100
 70
0
  3
ISO long-dash double-dot ____ .. ____ .. ____ . 
 72
65
 73
6
 40
33.000000000000007
 49
24.0
 74
0
 49
-2.9500000000000002
 74
0
 49
0.1
 74
0
 49
-2.9000000000000004
 74
0
 49
0.1
 74
0
 49
-2.9500000000000002
 74
0
  0
LTYPE
  5
3A
100
AcDbSymbolTableRecord
100
AcDbLinetypeTableRecord
  2
DASHDOTX2
 70
0
  3
Dash dot (2x) ____  .  ____  .  ____  .  ___
 72
65
 73
4
 40
50.799999999999997
 49
25.399999999999999
 74
0
 49
-12.649999999999999
 74
0
 49
0.1
 74
0
 49
-12.649999999999999
 74
0
  0
LTYPE
  5
3B
100
AcDbSymbolTableRecord
100
AcDbLinetypeTableRecord
  2
HIDDENX2
 70
0
  3
Hidden (2x) ____ ____ ____ ____ ____ ____ ____ 
 72
65
 73
2
 40
19.049999999999997
 49
12.699999999999999
 74
0
 49
-6.3499999999999996
 74
0
  0
LTYPE
  5
3C
100
AcDbSymbolTableRecord
100
AcDbLinetypeTableRecord
  2
CENTERX2
 70
0
  3
Center (2x) ________  __  ________  __  _____
 72
65
 73
4
 40
101.60000000000001
 49
63.5
 74
0
 49
-12.699999999999999
 74
0
 49
12.699999999999999
 74
0
 49
-12.699999999999999
 74
0
  0
LTYPE
  5
3D
100
AcDbSymbolTableRecord
100
AcDbLinetypeTableRecord
  2
BORDER2
 70
0
  3
Border (.5x) __.__.__.__.__.__.__.__.__.__.__.
 72
65
 73
6
 40
22.225000000000001
 49
6.3499999999999996
 74
0
 49
-3.1749999999999998
 74
0
 49
6.3499999999999996
 74
0
 49
-3.125
 74
0
 49
0.1
 74
0
 49
-3.125
 74
0
  0
LTYPE
  5
3E
100
AcDbSymbolTableRecord
100
AcDbLinetypeTableRecord
  2
DASHDOT2
 70
0
  3
Dash dot (.5x) _._._._._._._._._._._._._._._.
 72
65
 73
4
 40
12.699999999999999
 49
6.3499999999999996
 74
0
 49
-3.125
 74
0
 49
0.1
 74
0
 49
-3.125
 74
0
  0
LTYPE
  5
3F
100
AcDbSymbolTableRecord
100
AcDbLinetypeTableRecord
  2
ACAD_ISO12W100
 70
0
  3
ISO dash double-dot __ . . __ . . __ . . __ . . 
 72
65
 73
6
 40
21.0
 49
12.0
 74
0
 49
-2.9500000000000002
 74
0
 49
0.1
 74
0
 49
-2.9000000000000004
 74
0
 49
0.1
 74
0
 49
-2.9500000000000002
 74
0
  0
LTYPE
  5
40
100
AcDbSymbolTableRecord
100
AcDbLinetypeTableRecord
  2
ACAD_ISO07W100
 70
0
  3
ISO dot . . . . . . . . . . . . . . . . . . . . 
 72
65
 73
2
 40
3.0
 49
0.1
 74
0
 49
-2.8999999999999999
 74
0
  0
LTYPE
  5
41
100
AcDbSymbolTableRecord
100
AcDbLinetypeTableRecord
  2
HIDDEN
 70
0
  3
Hidden __ __ __ __ __ __ __ __ __ __ __ __ __ __
 72
65
 73
2
 40
9.5249999999999986
 49
6.3499999999999996
 74
0
 49
-3.1749999999999998
 74
0
  0
LTYPE
  5
42
100
AcDbSymbolTableRecord
100
AcDbLinetypeTableRecord
  2
ACAD_ISO06W100
 70
0
  3
ISO long-dash triple-dot ____ ... ____ ... ____
 72
65
 73
8
 40
36.000000000000007
 49
24.0
 74
0
 49
-2.9500000000000002
 74
0
 49
0.1
 74
0
 49
-2.9000000000000004
 74
0
 49
0.1
 74
0
 49
-2.9000000000000004
 74
0
 49
0.1
 74
0
 49
-2.9500000000000002
 74
0
  0
LTYPE
  5
43
100
AcDbSymbolTableRecord
100
AcDbLinetypeTableRecord
  2
CENTER
 70
0
  3
Center ____ _ ____ _ ____ _ ____ _ ____ _ ____
 72
65
 73
4
 40
50.800000000000004
 49
31.75
 74
0
 49
-6.3499999999999996
 74
0
 49
6.3499999999999996
 74
0
 49
-6.3499999999999996
 74
0
  0
LTYPE
  5
44
100
AcDbSymbolTableRecord
100
AcDbLinetypeTableRecord
  2
DOTX2
 70
0
  3
Dot (2x) .  .  .  .  .  .  .  .  .  .  .  .  .  .
 72
65
 73
2
 40
12.699999999999999
 49
0.1
 74
0
 49
-12.6
 74
0
  0
LTYPE
  5
45
100
AcDbSymbolTableRecord
100
AcDbLinetypeTableRecord
  2
PHANTOM
 70
0
  3
Phantom ______  __  __  ______  __  __  ______ 
 72
65
 73
6
 40
63.500000000000007
 49
31.75
 74
0
 49
-6.3499999999999996
 74
0
 49
6.3499999999999996
 74
0
 49
-6.3499999999999996
 74
0
 49
6.3499999999999996
 74
0
 49
-6.3499999999999996
 74
0
  0
LTYPE
  5
46
100
AcDbSymbolTableRecord
100
AcDbLinetypeTableRecord
  2
ACAD_ISO08W100
 70
0
  3
ISO long-dash short-dash ____ __ ____ __ ____ _
 72
65
 73
4
 40
36.0
 49
24.0
 74
0
 49
-3.0
 74
0
 49
6.0
 74
0
 49
-3.0
 74
0
  0
LTYPE
  5
47
100
AcDbSymbolTableRecord
100
AcDbLinetypeTableRecord
  2
DASHEDX2
 70
0
  3
Dashed (2x) ____  ____  ____  ____  ____  ___
 72
65
 73
2
 40
38.099999999999994
 49
25.399999999999999
 74
0
 49
-12.699999999999999
 74
0
  0
LTYPE
  5
48
100
AcDbSymbolTableRecord
100
AcDbLinetypeTableRecord
  2
ACAD_ISO02W100
 70
0
  3
ISO dash __ __ __ __ __ __ __ __ __ __ __ __ __
 72
65
 73
2
 40
15.0
 49
12.0
 74
0
 49
-3.0
 74
0
  0
LTYPE
  5
49
100
AcDbSymbolTableRecord
100
AcDbLinetypeTableRecord
  2
PHANTOM2
 70
0
  3
Phantom (.5x) ___ _ _ ___ _ _ ___ _ _ ___ _ _
 72
65
 73
6
 40
31.750000000000004
 49
15.875
 74
0
 49
-3.1749999999999998
 74
0
 49
3.1749999999999998
 74
0
 49
-3.1749999999999998
 74
0
 49
3.1749999999999998
 74
0
 49
-3.1749999999999998
 74
0
  0
LTYPE
  5
4A
100
AcDbSymbolTableRecord
100
AcDbLinetypeTableRecord
  2
DASHED2
 70
0
  3
Dashed (.5x) _ _ _ _ _ _ _ _ _ _ _ _ _ _ _ _ _ 
 72
65
 73
2
 40
9.5249999999999986
 49
6.3499999999999996
 74
0
 49
-3.1749999999999998
 74
0
  0
LTYPE
  5
4B
100
AcDbSymbolTableRecord
100
AcDbLinetypeTableRecord
  2
ACAD_ISO09W100
 70
0
  3
ISO long-dash double-short-dash ____ __ __ ____
 72
65
 73
6
 40
45.0
 49
24.0
 74
0
 49
-3.0
 74
0
 49
6.0
 74
0
 49
-3.0
 74
0
 49
6.0
 74
0
 49
-3.0
 74
0
  0
LTYPE
  5
4C
100
AcDbSymbolTableRecord
100
AcDbLinetypeTableRecord
  2
ACAD_ISO13W100
 70
0
  3
ISO double-dash double-dot __ __ . . __ __ . . _
 72
65
 73
8
 40
36.000000000000007
 49
12.0
 74
0
 49
-3.0
 74
0
 49
12.0
 74
0
 49
-2.9500000000000002
 74
0
 49
0.1
 74
0
 49
-2.9000000000000004
 74
0
 49
0.1
 74
0
 49
-2.9500000000000002
 74
0
  0
LTYPE
  5
4D
100
AcDbSymbolTableRecord
100
AcDbLinetypeTableRecord
  2
DOT2
 70
0
  3
Dot (.5x) ........................................
 72
65
 73
2
 40
3.1749999999999998
 49
0.1
 74
0
 49
-3.0749999999999997
 74
0
  0
LTYPE
  5
4E
100
AcDbSymbolTableRecord
100
AcDbLinetypeTableRecord
  2
DASHED
 70
0
  3
Dashed __ __ __ __ __ __ __ __ __ __ __ __ __ _
 72
65
 73
2
 40
19.049999999999997
 49
12.699999999999999
 74
0
 49
-6.3499999999999996
 74
0
  0
LTYPE
  5
4F
100
AcDbSymbolTableRecord
100
AcDbLinetypeTableRecord
  2
ACAD_ISO14W100
 70
0
  3
ISO dash triple-dot __ . . . __ . . . __ . . . _
 72
65
 73
8
 40
24.000000000000004
 49
12.0
 74
0
 49
-2.9500000000000002
 74
0
 49
0.1
 74
0
 49
-2.9000000000000004
 74
0
 49
0.1
 74
0
 49
-2.9000000000000004
 74
0
 49
0.1
 74
0
 49
-2.9500000000000002
 74
0
  0
LTYPE
  5
50
100
AcDbSymbolTableRecord
100
AcDbLinetypeTableRecord
  2
PHANTOMX2
 70
0
  3
Phantom (2x) ____________    ____    ____   _
 72
65
 73
6
 40
127.00000000000001
 49
63.5
 74
0
 49
-12.699999999999999
 74
0
 49
12.699999999999999
 74
0
 49
-12.699999999999999
 74
0
 49
12.699999999999999
 74
0
 49
-12.699999999999999
 74
0
  0
LTYPE
  5
14
100
AcDbSymbolTableRecord
100
AcDbLinetypeTableRecord
  2
BYBLOCK
 70
0
  3

 72
65
 73
0
 40
0.0
  0
LTYPE
  5
51
100
AcDbSymbolTableRecord
100
AcDbLinetypeTableRecord
  2
DIVIDEX2
 70
0
  3
Divide (2x) ________  .  .  ________  .  .  _
 72
65
 73
6
 40
63.5
 49
25.399999999999999
 74
0
 49
-12.649999999999999
 74
0
 49
0.1
 74
0
 49
-12.599999999999998
 74
0
 49
0.1
 74
0
 49
-12.649999999999999
 74
0
  0
LTYPE
  5
52
100
AcDbSymbolTableRecord
100
AcDbLinetypeTableRecord
  2
BORDER
 70
0
  3
Border __ __ . __ __ . __ __ . __ __ . __ __ .
 72
65
 73
6
 40
44.449999999999996
 49
12.699999999999999
 74
0
 49
-6.3499999999999996
 74
0
 49
12.699999999999999
 74
0
 49
-6.2999999999999998
 74
0
 49
0.1
 74
0
 49
-6.2999999999999998
 74
0
  0
LTYPE
  5
53
100
AcDbSymbolTableRecord
100
AcDbLinetypeTableRecord
  2
DIVIDE2
 70
0
  3
Divide (.5x) __..__..__..__..__..__..__..__.._
 72
65
 73
6
 40
15.874999999999998
 49
6.3499999999999996
 74
0
 49
-3.125
 74
0
 49
0.1
 74
0
 49
-3.0750000000000002
 74
0
 49
0.1
 74
0
 49
-3.125
 74
0
  0
LTYPE
  5
54
100
AcDbSymbolTableRecord
100
AcDbLinetypeTableRecord
  2
DOT
 70
0
  3
Dot . . . . . . . . . . . . . . . . . . . . . . . .
 72
65
 73
2
 40
6.3499999999999996
 49
0.1
 74
0
 49
-6.25
 74
0
  0
LTYPE
  5
55
100
AcDbSymbolTableRecord
100
AcDbLinetypeTableRecord
  2
DASHDOT
 70
0
  3
Dash dot __ . __ . __ . __ . __ . __ . __ . __
 72
65
 73
4
 40
25.400000000000002
 49
12.699999999999999
 74
0
 49
-6.2999999999999998
 74
0
 49
0.1
 74
0
 49
-6.2999999999999998
 74
0
  0
LTYPE
  5
56
100
AcDbSymbolTableRecord
100
AcDbLinetypeTableRecord
  2
ACAD_ISO03W100
 70
0
  3
ISO dash space __    __    __    __    __    __
 72
65
 73
2
 40
30.0
 49
12.0
 74
0
 49
-18.0
 74
0
  0
LTYPE
  5
15
100
AcDbSymbolTableRecord
100
AcDbLinetypeTableRecord
  2
ByLayer
 70
0
  3

 72
65
 73
0
 40
0.0
  0
ENDTAB
  0
TABLE
  2
LAYER
  5
2
100
AcDbSymbolTable
 70
1
  0
LAYER
  5
10
100
AcDbSymbolTableRecord
100
AcDbLayerTableRecord
  2
0
 70
0
 62
7
420
16777215
  6
Continuous
370
25
390
F
  0
ENDTAB
  0
TABLE
  2
STYLE
  5
3
100
AcDbSymbolTable
 70
1
  0
STYLE
  5
57
100
AcDbSymbolTableRecord
100
AcDbTextStyleTableRecord
  2
Standard
 70
0
 40
0.0
 41
1.0
 50
0.0
 71
0
 42
2.5
  3

  4

1001
ACAD
1000
txt
1071
0
  0
ENDTAB
  0
TABLE
  2
VIEW
  5
6
100
AcDbSymbolTable
 70
0
  0
ENDTAB
  0
TABLE
  2
UCS
  5
7
100
AcDbSymbolTable
 70
0
  0
ENDTAB
  0
TABLE
  2
APPID
  5
9
100
AcDbSymbolTable
 70
1
  0
APPID
  5
12
100
AcDbSymbolTableRecord
100
AcDbRegAppTableRecord
  2
ACAD
 70
0
  0
APPID
  5
58
100
AcDbSymbolTableRecord
100
AcDbRegAppTableRecord
  2
QCAD
 70
0
  0
ENDTAB
  0
TABLE
  2
DIMSTYLE
  5
A
100
AcDbSymbolTable
 70
1
100
AcDbDimStyleTable
 71
0
  0
DIMSTYLE
105
27
100
AcDbSymbolTableRecord
100
AcDbDimStyleTableRecord
  2
Standard
 41
2.5
 42
0.625
 43
3.75
 44
1.25
 70
0
 73
0
 74
0
 77
1
 78
8
140
2.5
141
2.5
143
0.03937007874016
147
0.625
171
3
172
1
271
2
272
2
274
3
278
44
283
0
284
8
340
57
  0
ENDTAB
  0
TABLE
  2
BLOCK_RECORD
  5
1
100
AcDbSymbolTable
 70
1
  0
BLOCK_RECORD
  5
1F
100
AcDbSymbolTableRecord
100
AcDbBlockTableRecord
  2
*Model_Space
340
22
  0
BLOCK_RECORD
  5
1B
100
AcDbSymbolTableRecord
100
AcDbBlockTableRecord
  2
*Paper_Space
340
1E
  0
BLOCK_RECORD
  5
23
100
AcDbSymbolTableRecord
100
AcDbBlockTableRecord
  2
*Paper_Space0
340
26
  0
BLOCK_RECORD
  5
59
100
AcDbSymbolTableRecord
100
AcDbBlockTableRecord
  2
drawer_support
340
0
  0
BLOCK_RECORD
  5
5A
100
AcDbSymbolTableRecord
100
AcDbBlockTableRecord
  2
drawer_bottom
340
0
  0
BLOCK_RECORD
  5
5B
100
AcDbSymbolTableRecord
100
AcDbBlockTableRecord
  2
frame_back
340
0
  0
BLOCK_RECORD
  5
5C
100
AcDbSymbolTableRecord
100
AcDbBlockTableRecord
  2
drawer_back
340
0
  0
BLOCK_RECORD
  5
5D
100
AcDbSymbolTableRecord
100
AcDbBlockTableRecord
  2
p3
340
0
  0
BLOCK_RECORD
  5
5E
100
AcDbSymbolTableRecord
100
AcDbBlockTableRecord
  2
frame_bottom
340
0
  0
BLOCK_RECORD
  5
5F
100
AcDbSymbolTableRecord
100
AcDbBlockTableRecord
  2
drawer_left
340
0
  0
BLOCK_RECORD
  5
60
100
AcDbSymbolTableRecord
100
AcDbBlockTableRecord
  2
drawer_right
340
0
  0
BLOCK_RECORD
  5
61
100
AcDbSymbolTableRecord
100
AcDbBlockTableRecord
  2
drawer_bottom2
340
0
  0
BLOCK_RECORD
  5
62
100
AcDbSymbolTableRecord
100
AcDbBlockTableRecord
  2
frame_right
340
0
  0
ENDTAB
  0
ENDSEC
  0
SECTION
  2
BLOCKS
  0
BLOCK
  5
20
100
AcDbEntity
  8
0
100
AcDbBlockBegin
  2
*Model_Space
 70
0
 10
0.0
 20
0.0
 30
0.0
  3
*Model_Space
  1

  0
ENDBLK
  5
21
100
AcDbEntity
  8
0
100
AcDbBlockEnd
  0
BLOCK
  5
1C
100
AcDbEntity
 67
1
  8
0
100
AcDbBlockBegin
  2
*Paper_Space
 70
0
 10
0.0
 20
0.0
 30
0.0
  3
*Paper_Space
  1

  0
ENDBLK
  5
1D
100
AcDbEntity
 67
1
  8
0
100
AcDbBlockEnd
  0
BLOCK
  5
24
100
AcDbEntity
  8
0
100
AcDbBlockBegin
  2
*Paper_Space0
 70
0
 10
0.0
 20
0.0
 30
0.0
  3
*Paper_Space0
  1

  0
ENDBLK
  5
25
100
AcDbEntity
  8
0
100
AcDbBlockEnd
  0
BLOCK
  5
63
100
AcDbEntity
  8
0
100
AcDbBlockBegin
  2
drawer_support
 70
0
 10
0.0
 20
0.0
 30
0.0
  3
drawer_support
  1

  0
LWPOLYLINE
  5
64
  8
0
 62
256
370
-1
 48
1.0
  6
ByLayer
100
AcDbEntity
100
AcDbPolyline
 90
40
 70
1
 10
-6.7199999999997999
 20
20.849999999999909
 30
0.0
 10
-11.0
 20
20.849999999999909
 30
0.0
 10
-11.0
 20
19.75
 30
0.0
 42
-2.414213562373094
 10
-11.25
 20
19.5
 30
0.0
 10
-13.75
 20
19.5
 30
0.0
 42
-2.414213562373094
 10
-14.0
 20
19.75
 30
0.0
 10
-14.0
 20
20.849999999999909
 30
0.0
 10
-16.0
 20
20.849999999999909
 30
0.0
 10
-16.0
 20
24.150000000000091
 30
0.0
 10
-14.0
 20
24.150000000000091
 30
0.0
 10
-14.0
 20
25.25
 30
0.0
 42
-2.414213562373094
 10
-13.75
 20
25.5
 30
0.0
 10
-11.25
 20
25.5
 30
0.0
 42
-2.414213562373094
 10
-11.0
 20
25.25
 30
0.0
 10
-11.0
 20
24.150000000000091
 30
0.0
 10
-6.7199999999997999
 20
24.150000000000091
 30
0.0
 10
-6.7199999999997999
 20
30.0
 30
0.0
 10
-187.7199999999998
 20
30.0
 30
0.0
 10
-187.7199999999998
 20
24.150000000000091
 30
0.0
 10
-183.4399999999996
 20
24.150000000000091
 30
0.0
 10
-183.4399999999996
 20
25.25
 30
0.0
 42
-2.414213562373094
 10
-183.1899999999996
 20
25.5
 30
0.0
 10
-180.6899999999996
 20
25.5
 30
0.0
 42
-2.414213562373094
 10
-180.4399999999996
 20
25.25
 30
0.0
 10
-180.4399999999996
 20
24.150000000000091
 30
0.0
 10
-178.4399999999996
 20
24.150000000000091
 30
0.0
 10
-178.4399999999996
 20
20.849999999999909
 30
0.0
 10
-180.4399999999996
 20
20.849999999999909
 30
0.0
 10
-180.4399999999996
 20
19.75
 30
0.0
 42
-2.414213562373094
 10
-180.6899999999996
 20
19.5
 30
0.0
 10
-183.1899999999996
 20
19.5
 30
0.0
 42
-2.414213562373094
 10
-183.4399999999996
 20
19.75
 30
0.0
 10
-183.4399999999996
 20
20.849999999999909
 30
0.0
 10
-187.7199999999998
 20
20.849999999999909
 30
0.0
 10
-187.7199999999998
 20
15.0
 30
0.0
 10
-194.43999999999983
 20
15.0
 30
0.0
 10
-194.43999999999983
 20
0.0
 30
0.0
 10
0.0
 20
0.0
 30
0.0
 10
0.0
 20
15.0
 30
0.0
 10
-6.7200000000000273
 20
15.0
 30
0.0
  0
CIRCLE
  5
65
100
AcDbEntity
100
AcDbCircle
  8
0
 62
256
370
-1
 48
1.0
  6
ByLayer
 10
-36.886666666666315
 20
15.000000000002728
 30
0.0
 40
1.9999999999999989
  0
CIRCLE
  5
66
100
AcDbEntity
100
AcDbCircle
  8
0
 62
256
370
-1
 48
1.0
  6
ByLayer
 10
-157.55333333333306
 20
15.000000000002501
 30
0.0
 40
1.9999999999999989
  0
ENDBLK
  5
67
100
AcDbEntity
  8
0
100
AcDbBlockEnd
  0
BLOCK
  5
68
100
AcDbEntity
  8
0
100
AcDbBlockBegin
  2
drawer_bottom
 70
0
 10
0.0
 20
0.0
 30
0.0
  3
drawer_bottom
  1

  0
LWPOLYLINE
  5
69
  8
0
 62
256
370
-1
 48
1.0
  6
ByLayer
100
AcDbEntity
100
AcDbPolyline
 90
60
 70
1
 10
0.0
 20
10.950000000000045
 30
0.0
 10
-4.2799999999999727
 20
10.950000000000045
 30
0.0
 10
-4.2799999999999727
 20
9.8500000000001364
 30
0.0
 42
-2.414213562373094
 10
-4.5299999999999727
 20
9.6000000000001364
 30
0.0
 10
-7.0299999999999727
 20
9.6000000000001364
 30
0.0
 42
-2.414213562373094
 10
-7.2799999999999727
 20
9.8500000000001364
 30
0.0
 10
-7.2799999999999727
 20
10.950000000000045
 30
0.0
 10
-9.2799999999999727
 20
10.950000000000045
 30
0.0
 10
-9.2799999999999727
 20
14.25
 30
0.0
 10
-7.2799999999999727
 20
14.25
 30
0.0
 10
-7.2799999999999727
 20
15.350000000000136
 30
0.0
 42
-2.414213562373094
 10
-7.0299999999999727
 20
15.600000000000136
 30
0.0
 10
-4.5299999999999727
 20
15.600000000000136
 30
0.0
 42
-2.414213562373094
 10
-4.2799999999999727
 20
15.350000000000136
 30
0.0
 10
-4.2799999999999727
 20
14.25
 30
0.0
 10
0.0
 20
14.25
 30
0.0
 10
0.0
 20
40.319999999999936
 30
0.0
 10
-6.7200000000000273
 20
40.319999999999936
 30
0.0
 10
-6.7200000000000273
 20
57.120000000000118
 30
0.0
 10
-174.27999999999997
 20
57.120000000000118
 30
0.0
 10
-174.27999999999997
 20
40.320000000000164
 30
0.0
 10
-181.0
 20
40.320000000000164
 30
0.0
 10
-181.0
 20
14.25
 30
0.0
 10
-176.72000000000003
 20
14.25
 30
0.0
 10
-176.72000000000003
 20
15.350000000000136
 30
0.0
 42
-2.414213562373094
 10
-176.47000000000003
 20
15.600000000000136
 30
0.0
 10
-173.97000000000003
 20
15.600000000000136
 30
0.0
 42
-2.414213562373094
 10
-173.72000000000003
 20
15.350000000000136
 30
0.0
 10
-173.72000000000003
 20
14.25
 30
0.0
 10
-171.72000000000003
 20
14.25
 30
0.0
 10
-171.72000000000003
 20
10.950000000000045
 30
0.0
 10
-173.72000000000003
 20
10.950000000000045
 30
0.0
 10
-173.72000000000003
 20
9.8500000000001364
 30
0.0
 42
-2.414213562373094
 10
-173.97000000000003
 20
9.6000000000001364
 30
0.0
 10
-176.47000000000003
 20
9.6000000000001364
 30
0.0
 42
-2.414213562373094
 10
-176.72000000000003
 20
9.8500000000001364
 30
0.0
 10
-176.72000000000003
 20
10.950000000000045
 30
0.0
 10
-181.0
 20
10.950000000000045
 30
0.0
 10
-181.0
 20
0.0
 30
0.0
 10
-120.66666666666674
 20
0.0
 30
0.0
 10
-120.66666666666674
 20
6.7200000000000273
 30
0.0
 10
-92.150000000000091
 20
6.7200000000000273
 30
0.0
 10
-92.150000000000091
 20
11.0
 30
0.0
 10
-93.25
 20
11.0
 30
0.0
 42
-2.4142135623731251
 10
-93.5
 20
11.25
 30
0.0
 10
-93.5
 20
13.75
 30
0.0
 42
-2.414213562373094
 10
-93.25
 20
14.0
 30
0.0
 10
-92.150000000000091
 20
14.0
 30
0.0
 10
-92.150000000000091
 20
16.0
 30
0.0
 10
-88.850000000000136
 20
16.0
 30
0.0
 10
-88.850000000000136
 20
14.0
 30
0.0
 10
-87.75
 20
14.0
 30
0.0
 42
-2.414213562373094
 10
-87.5
 20
13.75
 30
0.0
 10
-87.5
 20
11.25
 30
0.0
 42
-2.414213562373094
 10
-87.75
 20
11.0
 30
0.0
 10
-88.850000000000136
 20
11.0
 30
0.0
 10
-88.850000000000136
 20
6.7200000000000273
 30
0.0
 10
-60.333333333333258
 20
6.7200000000000273
 30
0.0
 10
-60.333333333333258
 20
0.0
 30
0.0
 10
0.0
 20
0.0
 30
0.0
  0
CIRCLE
  5
6A
100
AcDbEntity
100
AcDbCircle
  8
0
 62
256
370
-1
 48
1.0
  6
ByLayer
 10
-50.75
 20
36.539999999999964
 30
0.0
 40
1.5750000000000011
  0
CIRCLE
  5
6B
100
AcDbEntity
100
AcDbCircle
  8
0
 62
256
370
-1
 48
1.0
  6
ByLayer
 10
-108.75
 20
36.540000000000191
 30
0.0
 40
1.5750000000000011
  0
ENDBLK
  5
6C
100
AcDbEntity
  8
0
100
AcDbBlockEnd
  0
BLOCK
  5
6D
100
AcDbEntity
  8
0
100
AcDbBlockBegin
  2
frame_back
 70
0
 10
0.0
 20
0.0
 30
0.0
  3
frame_back
  1

  0
LWPOLYLINE
  5
6E
  8
0
 62
256
370
-1
 48
1.0
  6
ByLayer
100
AcDbEntity
100
AcDbPolyline
 90
16
 70
1
 10
-253.2800000000002
 20
-294.99999999999989
 30
0.0
 10
-253.2800000000002
 20
-519.99999999999989
 30
0.0
 10
-173.33333333333348
 20
-519.99999999999989
 30
0.0
 10
-173.33333333333348
 20
-513.27999999999986
 30
0.0
 10
-86.66666666666697
 20
-513.27999999999986
 30
0.0
 10
-86.66666666666697
 20
-519.99999999999989
 30
0.0
 10
-6.7200000000002547
 20
-519.99999999999989
 30
0.0
 10
-6.7200000000002547
 20
-294.99999999999989
 30
0.0
 10
0.0
 20
-294.99999999999989
 30
0.0
 10
0.0
 20
0.0
 30
0.0
 10
-86.666666666666515
 20
0.0
 30
0.0
 10
-86.666666666666515
 20
-6.7199999999999136
 30
0.0
 10
-173.33333333333303
 20
-6.7199999999999136
 30
0.0
 10
-173.33333333333303
 20
0.0
 30
0.0
 10
-260.0
 20
0.0
 30
0.0
 10
-260.0
 20
-294.99999999999989
 30
0.0
  0
LWPOLYLINE
  5
6F
  8
0
 62
256
370
-1
 48
1.0
  6
ByLayer
100
AcDbEntity
100
AcDbPolyline
 90
28
 70
1
 10
-124.0
 20
-480.49999999999989
 30
0.0
 10
-124.0
 20
-482.49999999999989
 30
0.0
 42
-0.9999999999999998
 10
-136.0
 20
-482.49999999999989
 30
0.0
 10
-136.0
 20
-480.49999999999989
 30
0.0
 10
-213.7800000000002
 20
-480.49999999999989
 30
0.0
 10
-213.7800000000002
 20
-506.55999999999983
 30
0.0
 10
-220.5
 20
-506.55999999999983
 30
0.0
 10
-220.5
 20
-294.99999999999989
 30
0.0
 10
-227.0
 20
-294.99999999999989
 30
0.0
 10
-227.0
 20
-289.11999999999978
 30
0.0
 10
-220.5
 20
-289.11999999999978
 30
0.0
 10
-220.5
 20
-154.11999999999978
 30
0.0
 10
-223.65000000000009
 20
-154.11999999999978
 30
0.0
 10
-223.65000000000009
 20
-104.12
 30
0.0
 10
-220.5
 20
-104.11999999999978
 30
0.0
 10
-220.5
 20
-39.499999999999886
 30
0.0
 10
-39.5
 20
-39.499999999999886
 30
0.0
 10
-39.5
 20
-104.11999999999978
 30
0.0
 10
-36.349999999999909
 20
-104.12
 30
0.0
 10
-36.349999999999909
 20
-154.11999999999978
 30
0.0
 10
-39.5
 20
-154.11999999999978
 30
0.0
 10
-39.5
 20
-289.11999999999978
 30
0.0
 10
-33.0
 20
-289.11999999999978
 30
0.0
 10
-33.0
 20
-294.99999999999989
 30
0.0
 10
-39.5
 20
-294.99999999999989
 30
0.0
 10
-39.5
 20
-506.55999999999983
 30
0.0
 10
-46.220000000000255
 20
-506.55999999999983
 30
0.0
 10
-46.220000000000255
 20
-480.49999999999989
 30
0.0
  0
LWPOLYLINE
  5
70
  8
0
 62
256
370
-1
 48
1.0
  6
ByLayer
100
AcDbEntity
100
AcDbPolyline
 90
4
 70
1
 10
-155.11999999999989
 20
-485.64499999999987
 30
0.0
 42
-0.9999999999999998
 10
-155.11999999999989
 20
-488.79499999999996
 30
0.0
 10
-159.11999999999989
 20
-488.79499999999996
 30
0.0
 42
-0.9999999999999998
 10
-159.11999999999989
 20
-485.64499999999987
 30
0.0
  0
LWPOLYLINE
  5
71
  8
0
 62
256
370
-1
 48
1.0
  6
ByLayer
100
AcDbEntity
100
AcDbPolyline
 90
4
 70
1
 10
-104.88000000000011
 20
-488.79499999999996
 30
0.0
 42
-0.9999999999999998
 10
-104.88000000000011
 20
-485.64499999999987
 30
0.0
 10
-100.88000000000011
 20
-485.64499999999987
 30
0.0
 42
-0.9999999999999998
 10
-100.88000000000011
 20
-488.79499999999996
 30
0.0
  0
CIRCLE
  5
72
100
AcDbEntity
100
AcDbCircle
  8
0
 62
256
370
-1
 48
1.0
  6
ByLayer
 10
-193.08333333333348
 20
-516.63999999999999
 30
0.0
 40
1.5750000000000159
  0
CIRCLE
  5
73
100
AcDbEntity
100
AcDbCircle
  8
0
 62
256
370
-1
 48
1.0
  6
ByLayer
 10
-193.08333333333348
 20
-3.3599999999997863
 30
0.0
 40
1.575
  0
CIRCLE
  5
74
100
AcDbEntity
100
AcDbCircle
  8
0
 62
256
370
-1
 48
1.0
  6
ByLayer
 10
-256.63999999999987
 20
-19.749999999999886
 30
0.0
 40
1.575
  0
CIRCLE
  5
75
100
AcDbEntity
100
AcDbCircle
  8
0
 62
256
370
-1
 48
1.0
  6
ByLayer
 10
-256.63999999999987
 20
-275.24999999999989
 30
0.0
 40
1.574999999999996
  0
CIRCLE
  5
76
100
AcDbEntity
100
AcDbCircle
  8
0
 62
256
370
-1
 48
1.0
  6
ByLayer
 10
-19.75
 20
-516.63999999999999
 30
0.0
 40
1.574999999999998
  0
CIRCLE
  5
77
100
AcDbEntity
100
AcDbCircle
  8
0
 62
256
370
-1
 48
1.0
  6
ByLayer
 10
-240.25
 20
-3.3599999999997863
 30
0.0
 40
1.574999999999998
  0
CIRCLE
  5
78
100
AcDbEntity
100
AcDbCircle
  8
0
 62
256
370
-1
 48
1.0
  6
ByLayer
 10
-19.75
 20
-3.3599999999997863
 30
0.0
 40
1.574999999999998
  0
CIRCLE
  5
79
100
AcDbEntity
100
AcDbCircle
  8
0
 62
256
370
-1
 48
1.0
  6
ByLayer
 10
-3.3600000000001273
 20
-275.24999999999989
 30
0.0
 40
1.574999999999996
  0
CIRCLE
  5
7A
100
AcDbEntity
100
AcDbCircle
  8
0
 62
256
370
-1
 48
1.0
  6
ByLayer
 10
-240.25
 20
-516.63999999999999
 30
0.0
 40
1.574999999999998
  0
CIRCLE
  5
7B
100
AcDbEntity
100
AcDbCircle
  8
0
 62
256
370
-1
 48
1.0
  6
ByLayer
 10
-3.3600000000001273
 20
-19.749999999999886
 30
0.0
 40
1.575
  0
CIRCLE
  5
7C
100
AcDbEntity
100
AcDbCircle
  8
0
 62
256
370
-1
 48
1.0
  6
ByLayer
 10
-66.916666666666515
 20
-3.3599999999997863
 30
0.0
 40
1.575
  0
CIRCLE
  5
7D
100
AcDbEntity
100
AcDbCircle
  8
0
 62
256
370
-1
 48
1.0
  6
ByLayer
 10
-66.91666666666697
 20
-516.63999999999999
 30
0.0
 40
1.5750000000000159
  0
ENDBLK
  5
7E
100
AcDbEntity
  8
0
100
AcDbBlockEnd
  0
BLOCK
  5
7F
100
AcDbEntity
  8
0
100
AcDbBlockBegin
  2
drawer_back
 70
0
 10
0.0
 20
0.0
 30
0.0
  3
drawer_back
  1

  0
LWPOLYLINE
  5
80
  8
0
 62
256
370
-1
 48
1.0
  6
ByLayer
100
AcDbEntity
100
AcDbPolyline
 90
8
 70
1
 10
-60.333333333333258
 20
-217.63999999999987
 30
0.0
 10
0.0
 20
-217.63999999999987
 30
0.0
 10
0.0
 20
0.0
 30
0.0
 10
-181.0
 20
0.0
 30
0.0
 10
-181.0
 20
-217.63999999999987
 30
0.0
 10
-120.66666666666674
 20
-217.63999999999987
 30
0.0
 10
-120.66666666666674
 20
-224.3599999999999
 30
0.0
 10
-60.333333333333258
 20
-224.3599999999999
 30
0.0
  0
CIRCLE
  5
81
100
AcDbEntity
100
AcDbCircle
  8
0
 62
256
370
-1
 48
1.0
  6
ByLayer
 10
-75.759999999999991
 20
-151.09999999999991
 30
0.0
 40
1.574999999999998
  0
CIRCLE
  5
82
100
AcDbEntity
100
AcDbCircle
  8
0
 62
256
370
-1
 48
1.0
  6
ByLayer
 10
-157.03999999999996
 20
-102.83999999999992
 30
0.0
 40
1.574999999999998
  0
CIRCLE
  5
83
100
AcDbEntity
100
AcDbCircle
  8
0
 62
256
370
-1
 48
1.0
  6
ByLayer
 10
-158.30999999999995
 20
-151.09999999999991
 30
0.0
 40
1.574999999999998
  0
CIRCLE
  5
84
100
AcDbEntity
100
AcDbCircle
  8
0
 62
256
370
-1
 48
1.0
  6
ByLayer
 10
-82.1099999999999
 20
-102.83999999999992
 30
0.0
 40
1.574999999999998
  0
CIRCLE
  5
85
100
AcDbEntity
100
AcDbCircle
  8
0
 62
256
370
-1
 48
1.0
  6
ByLayer
 10
-90.5
 20
-220.99999999999977
 30
0.0
 40
1.5749999999999991
  0
CIRCLE
  5
86
100
AcDbEntity
100
AcDbCircle
  8
0
 62
256
370
-1
 48
1.0
  6
ByLayer
 10
-30.166666666666742
 20
-69.319999999999936
 30
0.0
 40
1.5750000000000011
  0
CIRCLE
  5
87
100
AcDbEntity
100
AcDbCircle
  8
0
 62
256
370
-1
 48
1.0
  6
ByLayer
 10
-150.83333333333326
 20
-69.319999999999936
 30
0.0
 40
1.5750000000000011
  0
ENDBLK
  5
88
100
AcDbEntity
  8
0
100
AcDbBlockEnd
  0
BLOCK
  5
89
100
AcDbEntity
  8
0
100
AcDbBlockBegin
  2
p3
 70
0
 10
0.0
 20
0.0
 30
0.0
  3
p3
  1

  0
LINE
  5
8A
100
AcDbEntity
100
AcDbLine
  8
0
 62
256
370
-1
 48
1.0
  6
ByLayer
 10
0.0
 20
0.0
 30
0.0
 11
790.0
 21
0.0
 31
0.0
  0
LINE
  5
8B
100
AcDbEntity
100
AcDbLine
  8
0
 62
256
370
-1
 48
1.0
  6
ByLayer
 10
790.0
 20
0.0
 30
0.0
 11
790.0
 21
-384.0
 31
0.0
  0
LINE
  5
8C
100
AcDbEntity
100
AcDbLine
  8
0
 62
256
370
-1
 48
1.0
  6
ByLayer
 10
790.0
 20
-384.0
 30
0.0
 11
0.0
 21
-384.0
 31
0.0
  0
LINE
  5
8D
100
AcDbEntity
100
AcDbLine
  8
0
 62
256
370
-1
 48
1.0
  6
ByLayer
 10
0.0
 20
-384.0
 30
0.0
 11
0.0
 21
0.0
 31
0.0
  0
ENDBLK
  5
8E
100
AcDbEntity
  8
0
100
AcDbBlockEnd
  0
BLOCK
  5
8F
100
AcDbEntity
  8
0
100
AcDbBlockBegin
  2
frame_bottom
 70
0
 10
0.0
 20
0.0
 30
0.0
  3
frame_bottom
  1

  0
CIRCLE
  5
90
100
AcDbEntity
100
AcDbCircle
  8
0
 62
256
370
-1
 48
1.0
  6
ByLayer
 10
-36.140000000000327
 20
55.633333333333212
 30
0.0
 40
1.5750000000000011
  0
CIRCLE
  5
91
100
AcDbEntity
100
AcDbCircle
  8
0
 62
256
370
-1
 48
1.0
  6
ByLayer
 10
3.3599999999996726
 20
33.379999999999882
 30
0.0
 40
1.5749999999999971
  0
CIRCLE
  5
92
100
AcDbEntity
100
AcDbCircle
  8
0
 62
256
370
-1
 48
1.0
  6
ByLayer
 10
-36.140000000000327
 20
11.126666666666551
 30
0.0
 40
1.5750000000000011
  0
CIRCLE
  5
93
100
AcDbEntity
100
AcDbCircle
  8
0
 62
256
370
-1
 48
1.0
  6
ByLayer
 10
-210.42000000000007
 20
11.126666666666551
 30
0.0
 40
1.5750000000000011
  0
CIRCLE
  5
94
100
AcDbEntity
100
AcDbCircle
  8
0
 62
256
370
-1
 48
1.0
  6
ByLayer
 10
-210.42000000000007
 20
55.633333333333212
 30
0.0
 40
1.5750000000000011
  0
CIRCLE
  5
95
100
AcDbEntity
100
AcDbCircle
  8
0
 62
256
370
-1
 48
1.0
  6
ByLayer
 10
-249.92000000000007
 20
33.379999999999882
 30
0.0
 40
1.5749999999999971
  0
LWPOLYLINE
  5
96
  8
0
 62
256
370
-1
 48
1.0
  6
ByLayer
100
AcDbEntity
100
AcDbPolyline
 90
4
 70
1
 10
-110.2800000000002
 20
5.8799999999998818
 30
0.0
 10
-110.2800000000002
 20
-0.0000000000002274
 30
0.0
 10
-136.2800000000002
 20
-0.0000000000002274
 30
0.0
 10
-136.2800000000002
 20
5.8799999999998818
 30
0.0
  0
LWPOLYLINE
  5
97
  8
0
 62
256
370
-1
 48
1.0
  6
ByLayer
100
AcDbEntity
100
AcDbPolyline
 90
148
 70
1
 10
0.0
 20
44.506666666666433
 30
0.0
 10
0.0
 20
66.759999999999764
 30
0.0
 10
-11.380000000000564
 20
66.759999999999991
 30
0.0
 10
-11.380000000000564
 20
62.480000000000018
 30
0.0
 10
-10.2800000000002
 20
62.480000000000018
 30
0.0
 42
-2.414213562373094
 10
-10.0300000000002
 20
62.230000000000018
 30
0.0
 10
-10.0300000000002
 20
59.729999999999791
 30
0.0
 42
-2.414213562373094
 10
-10.2800000000002
 20
59.480000000000018
 30
0.0
 10
-11.380000000000564
 20
59.480000000000018
 30
0.0
 10
-11.380000000000564
 20
57.479999999999791
 30
0.0
 10
-14.680000000000291
 20
57.479999999999791
 30
0.0
 10
-14.680000000000291
 20
59.480000000000018
 30
0.0
 10
-15.7800000000002
 20
59.480000000000018
 30
0.0
 42
-2.414213562373094
 10
-16.0300000000002
 20
59.729999999999791
 30
0.0
 10
-16.0300000000002
 20
62.230000000000018
 30
0.0
 42
-2.414213562373094
 10
-15.7800000000002
 20
62.480000000000018
 30
0.0
 10
-14.680000000000291
 20
62.480000000000018
 30
0.0
 10
-14.680000000000291
 20
66.759999999999991
 30
0.0
 10
-58.546666666667079
 20
66.759999999999991
 30
0.0
 10
-58.546666666667079
 20
62.159999999999854
 30
0.0
 10
-57.44666666666717
 20
62.159999999999854
 30
0.0
 42
-2.414213562373094
 10
-57.19666666666717
 20
61.909999999999854
 30
0.0
 10
-57.19666666666717
 20
59.409999999999854
 30
0.0
 42
-2.414213562373094
 10
-57.44666666666717
 20
59.159999999999854
 30
0.0
 10
-58.546666666667079
 20
59.159999999999854
 30
0.0
 10
-58.546666666667079
 20
57.159999999999854
 30
0.0
 10
-61.846666666666806
 20
57.159999999999854
 30
0.0
 10
-61.846666666666806
 20
59.159999999999854
 30
0.0
 10
-62.94666666666717
 20
59.159999999999854
 30
0.0
 42
-2.414213562373094
 10
-63.19666666666717
 20
59.409999999999854
 30
0.0
 10
-63.19666666666717
 20
61.909999999999854
 30
0.0
 42
-2.414213562373094
 10
-62.94666666666717
 20
62.159999999999854
 30
0.0
 10
-61.846666666666806
 20
62.159999999999854
 30
0.0
 10
-61.846666666666806
 20
66.759999999999991
 30
0.0
 10
-79.946666666666715
 20
66.759999999999991
 30
0.0
 10
-79.946666666666715
 20
73.479999999999791
 30
0.0
 10
-166.61333333333369
 20
73.479999999999791
 30
0.0
 10
-166.61333333333369
 20
66.759999999999991
 30
0.0
 10
-184.71333333333359
 20
66.759999999999991
 30
0.0
 10
-184.71333333333359
 20
62.159999999999854
 30
0.0
 10
-183.61333333333323
 20
62.159999999999854
 30
0.0
 42
-2.414213562373094
 10
-183.36333333333323
 20
61.909999999999854
 30
0.0
 10
-183.36333333333323
 20
59.409999999999854
 30
0.0
 42
-2.414213562373094
 10
-183.61333333333323
 20
59.159999999999854
 30
0.0
 10
-184.71333333333359
 20
59.159999999999854
 30
0.0
 10
-184.71333333333359
 20
57.159999999999854
 30
0.0
 10
-188.01333333333332
 20
57.159999999999854
 30
0.0
 10
-188.01333333333332
 20
59.159999999999854
 30
0.0
 10
-189.11333333333323
 20
59.159999999999854
 30
0.0
 42
-2.414213562373094
 10
-189.36333333333323
 20
59.409999999999854
 30
0.0
 10
-189.36333333333323
 20
61.909999999999854
 30
0.0
 42
-2.414213562373094
 10
-189.11333333333323
 20
62.159999999999854
 30
0.0
 10
-188.01333333333332
 20
62.159999999999854
 30
0.0
 10
-188.01333333333332
 20
66.759999999999991
 30
0.0
 10
-231.88000000000011
 20
66.759999999999991
 30
0.0
 10
-231.88000000000011
 20
62.480000000000018
 30
0.0
 10
-230.7800000000002
 20
62.480000000000018
 30
0.0
 42
-2.414213562373094
 10
-230.5300000000002
 20
62.230000000000018
 30
0.0
 10
-230.5300000000002
 20
59.729999999999791
 30
0.0
 42
-2.414213562373094
 10
-230.7800000000002
 20
59.480000000000018
 30
0.0
 10
-231.88000000000011
 20
59.480000000000018
 30
0.0
 10
-231.88000000000011
 20
57.479999999999791
 30
0.0
 10
-235.17999999999984
 20
57.479999999999791
 30
0.0
 10
-235.17999999999984
 20
59.480000000000018
 30
0.0
 10
-236.2800000000002
 20
59.480000000000018
 30
0.0
 42
-2.414213562373094
 10
-236.5300000000002
 20
59.729999999999791
 30
0.0
 10
-236.5300000000002
 20
62.230000000000018
 30
0.0
 42
-2.414213562373094
 10
-236.2800000000002
 20
62.480000000000018
 30
0.0
 10
-235.17999999999984
 20
62.480000000000018
 30
0.0
 10
-235.17999999999984
 20
66.759999999999991
 30
0.0
 10
-246.5600000000004
 20
66.759999999999991
 30
0.0
 10
-246.5600000000004
 20
44.506666666666661
 30
0.0
 10
-253.2800000000002
 20
44.506666666666661
 30
0.0
 10
-253.2800000000002
 20
22.25333333333333
 30
0.0
 10
-246.5600000000004
 20
22.25333333333333
 30
0.0
 10
-246.5600000000004
 20
-0.0000000000002274
 30
0.0
 10
-235.17999999999984
 20
-0.0000000000002274
 30
0.0
 10
-235.17999999999984
 20
4.2799999999997453
 30
0.0
 10
-236.2800000000002
 20
4.2799999999997453
 30
0.0
 42
-2.414213562373094
 10
-236.5300000000002
 20
4.5299999999997453
 30
0.0
 10
-236.5300000000002
 20
7.0299999999999727
 30
0.0
 42
-2.414213562373094
 10
-236.2800000000002
 20
7.2799999999997453
 30
0.0
 10
-235.17999999999984
 20
7.2799999999997453
 30
0.0
 10
-235.17999999999984
 20
9.2799999999999727
 30
0.0
 10
-231.88000000000011
 20
9.2799999999999727
 30
0.0
 10
-231.88000000000011
 20
7.2799999999997453
 30
0.0
 10
-230.7800000000002
 20
7.2799999999997453
 30
0.0
 42
-2.414213562373094
 10
-230.5300000000002
 20
7.0299999999999727
 30
0.0
 10
-230.5300000000002
 20
4.5299999999997453
 30
0.0
 42
-2.414213562373094
 10
-230.7800000000002
 20
4.2799999999997453
 30
0.0
 10
-231.88000000000011
 20
4.2799999999997453
 30
0.0
 10
-231.88000000000011
 20
-0.0000000000002274
 30
0.0
 10
-188.01333333333332
 20
-0.0000000000002274
 30
0.0
 10
-188.01333333333332
 20
4.5999999999999091
 30
0.0
 10
-189.11333333333323
 20
4.5999999999999091
 30
0.0
 42
-2.414213562373094
 10
-189.36333333333323
 20
4.8499999999999091
 30
0.0
 10
-189.36333333333323
 20
7.3499999999999091
 30
0.0
 42
-2.414213562373094
 10
-189.11333333333323
 20
7.5999999999999091
 30
0.0
 10
-188.01333333333332
 20
7.5999999999999091
 30
0.0
 10
-188.01333333333332
 20
9.5999999999999091
 30
0.0
 10
-184.71333333333359
 20
9.5999999999999091
 30
0.0
 10
-184.71333333333359
 20
7.5999999999999091
 30
0.0
 10
-183.61333333333323
 20
7.5999999999999091
 30
0.0
 42
-2.414213562373094
 10
-183.36333333333323
 20
7.3499999999999091
 30
0.0
 10
-183.36333333333323
 20
4.8499999999999091
 30
0.0
 42
-2.414213562373094
 10
-183.61333333333323
 20
4.5999999999999091
 30
0.0
 10
-184.71333333333359
 20
4.5999999999999091
 30
0.0
 10
-184.71333333333359
 20
-0.0000000000002274
 30
0.0
 10
-166.61333333333369
 20
-0.0000000000002274
 30
0.0
 10
-166.61333333333369
 20
-6.7200000000000273
 30
0.0
 10
-79.946666666666715
 20
-6.7200000000002547
 30
0.0
 10
-79.946666666666715
 20
-0.0000000000002274
 30
0.0
 10
-61.846666666666806
 20
-0.0000000000002274
 30
0.0
 10
-61.846666666666806
 20
4.5999999999999091
 30
0.0
 10
-62.94666666666717
 20
4.5999999999999091
 30
0.0
 42
-2.414213562373094
 10
-63.19666666666717
 20
4.8499999999999091
 30
0.0
 10
-63.19666666666717
 20
7.3499999999999091
 30
0.0
 42
-2.414213562373094
 10
-62.94666666666717
 20
7.5999999999999091
 30
0.0
 10
-61.846666666666806
 20
7.5999999999999091
 30
0.0
 10
-61.846666666666806
 20
9.5999999999999091
 30
0.0
 10
-58.546666666667079
 20
9.5999999999999091
 30
0.0
 10
-58.546666666667079
 20
7.5999999999999091
 30
0.0
 10
-57.44666666666717
 20
7.5999999999999091
 30
0.0
 42
-2.414213562373094
 10
-57.19666666666717
 20
7.3499999999999091
 30
0.0
 10
-57.19666666666717
 20
4.8499999999999091
 30
0.0
 42
-2.414213562373094
 10
-57.44666666666717
 20
4.5999999999999091
 30
0.0
 10
-58.546666666667079
 20
4.5999999999999091
 30
0.0
 10
-58.546666666667079
 20
-0.0000000000002274
 30
0.0
 10
-14.680000000000291
 20
-0.0000000000002274
 30
0.0
 10
-14.680000000000291
 20
4.2799999999997453
 30
0.0
 10
-15.7800000000002
 20
4.2799999999997453
 30
0.0
 42
-2.414213562373094
 10
-16.0300000000002
 20
4.5299999999997453
 30
0.0
 10
-16.0300000000002
 20
7.0299999999999727
 30
0.0
 42
-2.414213562373094
 10
-15.7800000000002
 20
7.2799999999997453
 30
0.0
 10
-14.680000000000291
 20
7.2799999999997453
 30
0.0
 10
-14.680000000000291
 20
9.2799999999999727
 30
0.0
 10
-11.380000000000564
 20
9.2799999999999727
 30
0.0
 10
-11.380000000000564
 20
7.2799999999997453
 30
0.0
 10
-10.2800000000002
 20
7.2799999999997453
 30
0.0
 42
-2.414213562373094
 10
-10.0300000000002
 20
7.0299999999999727
 30
0.0
 10
-10.0300000000002
 20
4.5299999999997453
 30
0.0
 42
-2.414213562373094
 10
-10.2800000000002
 20
4.2799999999997453
 30
0.0
 10
-11.380000000000564
 20
4.2799999999997453
 30
0.0
 10
-11.380000000000564
 20
-0.0000000000002274
 30
0.0
 10
0.0
 20
0.0
 30
0.0
 10
0.0
 20
22.25333333333333
 30
0.0
 10
6.7199999999997999
 20
22.25333333333333
 30
0.0
 10
6.7199999999997999
 20
44.506666666666433
 30
0.0
  0
LWPOLYLINE
  5
98
  8
0
 62
256
370
-1
 48
1.0
  6
ByLayer
100
AcDbEntity
100
AcDbPolyline
 90
4
 70
1
 10
-207.0600000000004
 20
44.506666666666661
 30
0.0
 10
-207.0600000000004
 20
22.25333333333333
 30
0.0
 10
-213.7800000000002
 20
22.25333333333333
 30
0.0
 10
-213.7800000000002
 20
44.506666666666661
 30
0.0
  0
LWPOLYLINE
  5
99
  8
0
 62
256
370
-1
 48
1.0
  6
ByLayer
100
AcDbEntity
100
AcDbPolyline
 90
4
 70
1
 10
-32.7800000000002
 20
44.506666666666433
 30
0.0
 10
-32.7800000000002
 20
22.253333333333103
 30
0.0
 10
-39.5
 20
22.253333333333103
 30
0.0
 10
-39.5
 20
44.506666666666433
 30
0.0
  0
ENDBLK
  5
9A
100
AcDbEntity
  8
0
100
AcDbBlockEnd
  0
BLOCK
  5
9B
100
AcDbEntity
  8
0
100
AcDbBlockBegin
  2
drawer_left
 70
0
 10
0.0
 20
0.0
 30
0.0
  3
drawer_left
  1

  0
LWPOLYLINE
  5
9C
  8
0
 62
256
370
-1
 48
1.0
  6
ByLayer
100
AcDbEntity
100
AcDbPolyline
 90
4
 70
1
 10
-50.399999999999409
 20
140.03999999999996
 30
0.0
 10
-50.399999999999409
 20
155.03999999999996
 30
0.0
 10
-43.679999999999382
 20
155.03999999999996
 30
0.0
 10
-43.679999999999382
 20
140.03999999999996
 30
0.0
  0
LWPOLYLINE
  5
9D
  8
0
 62
256
370
-1
 48
1.0
  6
ByLayer
100
AcDbEntity
100
AcDbPolyline
 90
4
 70
1
 10
-57.120000000000118
 20
0.0
 30
0.0
 10
0.0
 20
0.0
 30
0.0
 10
0.0
 20
206.72000000000003
 30
0.0
 10
-57.119999999999891
 20
206.72000000000003
 30
0.0
  0
CIRCLE
  5
9E
100
AcDbEntity
100
AcDbCircle
  8
0
 62
256
370
-1
 48
1.0
  6
ByLayer
 10
-46.399999999999409
 20
162.53999999999996
 30
0.0
 40
1.5750000000000111
  0
CIRCLE
  5
9F
100
AcDbEntity
100
AcDbCircle
  8
0
 62
256
370
-1
 48
1.0
  6
ByLayer
 10
-44.519999999999982
 20
3.3599999999999
 30
0.0
 40
1.575
  0
CIRCLE
  5
A0
100
AcDbEntity
100
AcDbCircle
  8
0
 62
256
370
-1
 48
1.0
  6
ByLayer
 10
-10.0
 20
13.440000000000055
 30
0.0
 40
1.575
  0
LWPOLYLINE
  5
A1
  8
0
 62
256
370
-1
 48
1.0
  6
ByLayer
100
AcDbEntity
100
AcDbPolyline
 90
4
 70
1
 10
-50.400000000000091
 20
84.785000000000082
 30
0.0
 10
-35.400000000000091
 20
84.785000000000082
 30
0.0
 10
-35.400000000000091
 20
71.894999999999982
 30
0.0
 10
-50.400000000000091
 20
71.894999999999982
 30
0.0
  0
LWPOLYLINE
  5
A2
  8
0
 62
256
370
-1
 48
1.0
  6
ByLayer
100
AcDbEntity
100
AcDbPolyline
 90
4
 70
1
 10
-35.400000000000091
 20
101.10500000000002
 30
0.0
 10
-50.400000000000091
 20
101.10500000000002
 30
0.0
 10
-50.400000000000091
 20
116.53500000000008
 30
0.0
 10
-35.400000000000091
 20
116.53499999999985
 30
0.0
  0
ENDBLK
  5
A3
100
AcDbEntity
  8
0
100
AcDbBlockEnd
  0
BLOCK
  5
A4
100
AcDbEntity
  8
0
100
AcDbBlockBegin
  2
drawer_right
 70
0
 10
0.0
 20
0.0
 30
0.0
  3
drawer_right
  1

  0
CIRCLE
  5
A5
100
AcDbEntity
100
AcDbCircle
  8
0
 62
256
370
-1
 48
1.0
  6
ByLayer
 10
-47.120000000000118
 20
13.440000000000055
 30
0.0
 40
1.575
  0
LWPOLYLINE
  5
A6
  8
0
 62
256
370
-1
 48
1.0
  6
ByLayer
100
AcDbEntity
100
AcDbPolyline
 90
4
 70
1
 10
-6.7200000000007094
 20
155.03999999999996
 30
0.0
 10
-6.7200000000007094
 20
140.03999999999996
 30
0.0
 10
-13.440000000000737
 20
140.03999999999996
 30
0.0
 10
-13.440000000000737
 20
155.03999999999996
 30
0.0
  0
LWPOLYLINE
  5
A7
  8
0
 62
256
370
-1
 48
1.0
  6
ByLayer
100
AcDbEntity
100
AcDbPolyline
 90
4
 70
1
 10
-57.120000000000118
 20
0.0
 30
0.0
 10
0.0
 20
0.0
 30
0.0
 10
-0.0000000000002274
 20
206.72000000000003
 30
0.0
 10
-57.120000000000118
 20
206.72000000000003
 30
0.0
  0
CIRCLE
  5
A8
100
AcDbEntity
100
AcDbCircle
  8
0
 62
256
370
-1
 48
1.0
  6
ByLayer
 10
-10.720000000000709
 20
162.53999999999996
 30
0.0
 40
1.5750000000000111
  0
CIRCLE
  5
A9
100
AcDbEntity
100
AcDbCircle
  8
0
 62
256
370
-1
 48
1.0
  6
ByLayer
 10
-12.600000000000136
 20
3.3599999999999
 30
0.0
 40
1.575
  0
ENDBLK
  5
AA
100
AcDbEntity
  8
0
100
AcDbBlockEnd
  0
BLOCK
  5
AB
100
AcDbEntity
  8
0
100
AcDbBlockBegin
  2
drawer_bottom2
 70
0
 10
0.0
 20
0.0
 30
0.0
  3
drawer_bottom2
  1

  0
LWPOLYLINE
  5
AC
  8
0
 62
256
370
-1
 48
1.0
  6
ByLayer
100
AcDbEntity
100
AcDbPolyline
 90
60
 70
1
 10
0.0
 20
-10.950000000000045
 30
0.0
 10
4.2799999999999727
 20
-10.950000000000045
 30
0.0
 10
4.2799999999999727
 20
-9.8500000000001364
 30
0.0
 42
-2.414213562373094
 10
4.5299999999999727
 20
-9.6000000000001364
 30
0.0
 10
7.0299999999999727
 20
-9.6000000000001364
 30
0.0
 42
-2.414213562373094
 10
7.2799999999999727
 20
-9.8500000000001364
 30
0.0
 10
7.2799999999999727
 20
-10.950000000000045
 30
0.0
 10
9.2799999999999727
 20
-10.950000000000045
 30
0.0
 10
9.2799999999999727
 20
-14.25
 30
0.0
 10
7.2799999999999727
 20
-14.25
 30
0.0
 10
7.2799999999999727
 20
-15.350000000000136
 30
0.0
 42
-2.414213562373094
 10
7.0299999999999727
 20
-15.600000000000136
 30
0.0
 10
4.5299999999999727
 20
-15.600000000000136
 30
0.0
 42
-2.414213562373094
 10
4.2799999999999727
 20
-15.350000000000136
 30
0.0
 10
4.2799999999999727
 20
-14.25
 30
0.0
 10
0.0
 20
-14.25
 30
0.0
 10
0.0
 20
-40.319999999999936
 30
0.0
 10
6.7200000000000273
 20
-40.319999999999936
 30
0.0
 10
6.7200000000000273
 20
-57.120000000000118
 30
0.0
 10
174.27999999999997
 20
-57.119999999999891
 30
0.0
 10
174.27999999999997
 20
-40.320000000000164
 30
0.0
 10
181.0
 20
-40.320000000000164
 30
0.0
 10
181.0
 20
-14.249999999999773
 30
0.0
 10
176.72000000000003
 20
-14.25
 30
0.0
 10
176.72000000000003
 20
-15.350000000000136
 30
0.0
 42
-2.414213562373094
 10
176.47000000000003
 20
-15.600000000000364
 30
0.0
 10
173.97000000000003
 20
-15.600000000000364
 30
0.0
 42
-2.414213562373094
 10
173.72000000000003
 20
-15.350000000000136
 30
0.0
 10
173.72000000000003
 20
-14.25
 30
0.0
 10
171.72000000000003
 20
-14.25
 30
0.0
 10
171.72000000000003
 20
-10.950000000000273
 30
0.0
 10
173.72000000000003
 20
-10.950000000000273
 30
0.0
 10
173.72000000000003
 20
-9.8500000000005912
 30
0.0
 42
-2.414213562373094
 10
173.97000000000003
 20
-9.6000000000001364
 30
0.0
 10
176.47000000000003
 20
-9.6000000000001364
 30
0.0
 42
-2.414213562373094
 10
176.72000000000003
 20
-9.8500000000003638
 30
0.0
 10
176.72000000000003
 20
-10.950000000000045
 30
0.0
 10
181.0
 20
-10.950000000000045
 30
0.0
 10
181.0
 20
0.0
 30
0.0
 10
120.66666666666674
 20
0.0
 30
0.0
 10
120.66666666666674
 20
-6.7200000000000273
 30
0.0
 10
92.150000000000091
 20
-6.7200000000000273
 30
0.0
 10
92.150000000000091
 20
-11.0
 30
0.0
 10
93.25
 20
-11.0
 30
0.0
 42
-2.4142135623731251
 10
93.5
 20
-11.25
 30
0.0
 10
93.5
 20
-13.75
 30
0.0
 42
-2.414213562373094
 10
93.25
 20
-14.0
 30
0.0
 10
92.150000000000091
 20
-14.0
 30
0.0
 10
92.150000000000091
 20
-16.0
 30
0.0
 10
88.850000000000136
 20
-16.0
 30
0.0
 10
88.850000000000136
 20
-14.0
 30
0.0
 10
87.75
 20
-14.0
 30
0.0
 42
-2.414213562373094
 10
87.5
 20
-13.75
 30
0.0
 10
87.5
 20
-11.25
 30
0.0
 42
-2.414213562373094
 10
87.75
 20
-11.0
 30
0.0
 10
88.850000000000136
 20
-11.0
 30
0.0
 10
88.850000000000136
 20
-6.7200000000000273
 30
0.0
 10
60.333333333333258
 20
-6.7200000000000273
 30
0.0
 10
60.333333333333258
 20
0.0
 30
0.0
 10
0.0
 20
0.0
 30
0.0
  0
ENDBLK
  5
AD
100
AcDbEntity
  8
0
100
AcDbBlockEnd
  0
BLOCK
  5
AE
100
AcDbEntity
  8
0
100
AcDbBlockBegin
  2
frame_right
 70
0
 10
0.0
 20
0.0
 30
0.0
  3
frame_right
  1

  0
LWPOLYLINE
  5
AF
  8
0
 62
256
370
-1
 48
1.0
  6
ByLayer
100
AcDbEntity
100
AcDbPolyline
 90
4
 70
1
 10
-51.226666666666915
 20
230.88000000000011
 30
0.0
 10
-28.973333333333812
 20
230.88000000000011
 30
0.0
 10
-28.973333333333812
 20
225.0
 30
0.0
 10
-51.226666666666915
 20
225.0
 30
0.0
  0
LWPOLYLINE
  5
B0
  8
0
 62
256
370
-1
 48
1.0
  6
ByLayer
100
AcDbEntity
100
AcDbPolyline
 90
112
 70
1
 10
-6.7200000000002547
 20
243.09999999999991
 30
0.0
 10
-11.000000000000455
 20
243.09999999999991
 30
0.0
 10
-11.000000000000455
 20
242.0
 30
0.0
 42
-2.41421356237311
 10
-11.250000000000455
 20
241.75
 30
0.0
 10
-13.750000000000455
 20
241.75
 30
0.0
 42
-2.414213562373094
 10
-14.000000000000455
 20
242.0
 30
0.0
 10
-14.000000000000455
 20
243.09999999999991
 30
0.0
 10
-16.000000000000455
 20
243.09999999999991
 30
0.0
 10
-16.000000000000455
 20
246.40000000000009
 30
0.0
 10
-14.000000000000455
 20
246.40000000000009
 30
0.0
 10
-14.000000000000455
 20
247.5
 30
0.0
 42
-2.414213562373094
 10
-13.750000000000455
 20
247.75
 30
0.0
 10
-11.250000000000455
 20
247.75
 30
0.0
 42
-2.414213562373094
 10
-11.000000000000455
 20
247.5
 30
0.0
 10
-11.000000000000455
 20
246.40000000000009
 30
0.0
 10
-6.7200000000002547
 20
246.40000000000009
 30
0.0
 10
-6.7200000000002547
 20
498.59999999999991
 30
0.0
 10
-11.320000000000164
 20
498.59999999999991
 30
0.0
 10
-11.320000000000164
 20
497.5
 30
0.0
 42
-2.414213562373094
 10
-11.570000000000164
 20
497.25
 30
0.0
 10
-14.070000000000164
 20
497.25
 30
0.0
 42
-2.414213562373094
 10
-14.320000000000164
 20
497.5
 30
0.0
 10
-14.320000000000164
 20
498.59999999999991
 30
0.0
 10
-16.320000000000164
 20
498.59999999999991
 30
0.0
 10
-16.320000000000164
 20
501.89999999999986
 30
0.0
 10
-14.320000000000164
 20
501.89999999999986
 30
0.0
 10
-14.320000000000164
 20
502.99999999999989
 30
0.0
 42
-2.414213562373094
 10
-14.070000000000164
 20
503.24999999999989
 30
0.0
 10
-11.570000000000164
 20
503.24999999999989
 30
0.0
 42
-2.414213562373094
 10
-11.320000000000164
 20
502.99999999999989
 30
0.0
 10
-11.320000000000164
 20
501.89999999999986
 30
0.0
 10
-6.7200000000002547
 20
501.89999999999986
 30
0.0
 10
-6.7200000000007094
 20
520.0
 30
0.0
 10
-28.973333333333812
 20
519.99999999999989
 30
0.0
 10
-28.973333333333812
 20
513.27999999999997
 30
0.0
 10
-38.450000000000728
 20
513.27999999999997
 30
0.0
 10
-38.450000000000728
 20
508.68000000000006
 30
0.0
 10
-37.350000000000819
 20
508.68000000000006
 30
0.0
 42
-2.414213562373094
 10
-37.100000000000819
 20
508.42999999999984
 30
0.0
 10
-37.100000000000819
 20
505.92999999999984
 30
0.0
 42
-2.414213562373094
 10
-37.350000000000819
 20
505.67999999999984
 30
0.0
 10
-38.450000000000728
 20
505.67999999999984
 30
0.0
 10
-38.450000000000728
 20
503.67999999999984
 30
0.0
 10
-41.750000000000909
 20
503.67999999999984
 30
0.0
 10
-41.750000000000909
 20
505.67999999999984
 30
0.0
 10
-42.850000000000819
 20
505.67999999999984
 30
0.0
 42
-2.414213562373094
 10
-43.100000000000819
 20
505.92999999999984
 30
0.0
 10
-43.100000000000819
 20
508.42999999999984
 30
0.0
 42
-2.414213562373094
 10
-42.850000000000819
 20
508.68000000000006
 30
0.0
 10
-41.750000000000909
 20
508.68000000000006
 30
0.0
 10
-41.750000000000909
 20
513.27999999999997
 30
0.0
 10
-51.22666666666737
 20
513.27999999999997
 30
0.0
 10
-51.22666666666737
 20
519.99999999999989
 30
0.0
 10
-73.480000000000473
 20
519.99999999999989
 30
0.0
 10
-73.480000000000473
 20
501.89999999999986
 30
0.0
 10
-68.880000000000564
 20
501.89999999999986
 30
0.0
 10
-68.880000000000564
 20
502.99999999999989
 30
0.0
 42
-2.414213562373094
 10
-68.630000000000564
 20
503.24999999999989
 30
0.0
 10
-66.130000000000564
 20
503.24999999999989
 30
0.0
 42
-2.414213562373094
 10
-65.880000000000564
 20
502.99999999999989
 30
0.0
 10
-65.880000000000564
 20
501.89999999999986
 30
0.0
 10
-63.880000000000564
 20
501.89999999999986
 30
0.0
 10
-63.880000000000564
 20
498.59999999999991
 30
0.0
 10
-65.880000000000564
 20
498.59999999999991
 30
0.0
 10
-65.880000000000564
 20
497.5
 30
0.0
 42
-2.414213562373094
 10
-66.130000000000564
 20
497.25
 30
0.0
 10
-68.630000000000564
 20
497.25
 30
0.0
 42
-2.414213562373094
 10
-68.880000000000564
 20
497.5
 30
0.0
 10
-68.880000000000564
 20
498.59999999999991
 30
0.0
 10
-73.480000000000473
 20
498.59999999999991
 30
0.0
 10
-73.480000000000473
 20
246.40000000000009
 30
0.0
 10
-69.200000000000273
 20
246.40000000000009
 30
0.0
 10
-69.200000000000273
 20
247.5
 30
0.0
 42
-2.414213562373094
 10
-68.950000000000273
 20
247.75
 30
0.0
 10
-66.450000000000273
 20
247.75
 30
0.0
 42
-2.414213562373094
 10
-66.200000000000273
 20
247.5
 30
0.0
 10
-66.200000000000273
 20
246.40000000000009
 30
0.0
 10
-64.200000000000273
 20
246.40000000000009
 30
0.0
 10
-64.200000000000273
 20
243.09999999999991
 30
0.0
 10
-66.200000000000273
 20
243.09999999999991
 30
0.0
 10
-66.200000000000273
 20
242.0
 30
0.0
 42
-2.414213562373094
 10
-66.450000000000273
 20
241.75
 30
0.0
 10
-68.950000000000273
 20
241.75
 30
0.0
 42
-2.41421356237311
 10
-69.200000000000273
 20
242.0
 30
0.0
 10
-69.200000000000273
 20
243.09999999999991
 30
0.0
 10
-73.480000000000473
 20
243.09999999999991
 30
0.0
 10
-73.480000000000473
 20
225.0
 30
0.0
 10
-80.200000000000273
 20
225.0
 30
0.0
 10
-80.200000000000273
 20
0.0
 30
0.0
 10
-51.226666666666915
 20
0.0
 30
0.0
 10
-51.226666666666915
 20
6.7200000000000273
 30
0.0
 10
-41.75
 20
6.7200000000000273
 30
0.0
 10
-41.75
 20
11.319999999999936
 30
0.0
 10
-42.850000000000364
 20
11.319999999999936
 30
0.0
 42
-2.414213562373094
 10
-43.100000000000364
 20
11.569999999999936
 30
0.0
 10
-43.100000000000364
 20
14.069999999999936
 30
0.0
 42
-2.414213562373094
 10
-42.850000000000364
 20
14.319999999999936
 30
0.0
 10
-41.75
 20
14.319999999999936
 30
0.0
 10
-41.75
 20
16.319999999999936
 30
0.0
 10
-38.450000000000273
 20
16.319999999999936
 30
0.0
 10
-38.450000000000273
 20
14.319999999999936
 30
0.0
 10
-37.350000000000364
 20
14.319999999999936
 30
0.0
 42
-2.414213562373094
 10
-37.100000000000364
 20
14.069999999999936
 30
0.0
 10
-37.100000000000364
 20
11.569999999999936
 30
0.0
 42
-2.414213562373094
 10
-37.350000000000364
 20
11.319999999999936
 30
0.0
 10
-38.450000000000273
 20
11.319999999999936
 30
0.0
 10
-38.450000000000273
 20
6.7200000000000273
 30
0.0
 10
-28.973333333333358
 20
6.7200000000000273
 30
0.0
 10
-28.973333333333358
 20
0.0
 30
0.0
 10
0.0
 20
0.0
 30
0.0
 10
-0.0000000000004547
 20
225.0
 30
0.0
 10
-6.7200000000002547
 20
225.0
 30
0.0
  0
CIRCLE
  5
B1
100
AcDbEntity
100
AcDbCircle
  8
0
 62
256
370
-1
 48
1.0
  6
ByLayer
 10
-17.846666666667261
 20
227.94000000000005
 30
0.0
 40
1.575
  0
CIRCLE
  5
B2
100
AcDbEntity
100
AcDbCircle
  8
0
 62
256
370
-1
 48
1.0
  6
ByLayer
 10
-62.353333333333467
 20
227.94000000000005
 30
0.0
 40
1.575
  0
ENDBLK
  5
B3
100
AcDbEntity
  8
0
100
AcDbBlockEnd
  0
ENDSEC
  0
SECTION
  2
ENTITIES
  0
CIRCLE
  5
B4
100
AcDbEntity
100
AcDbCircle
  8
0
 62
256
370
-1
 48
1.0
  6
ByLayer
 10
-18.620000000000232
 20
124.4200000000003
 30
0.0
 40
1.575
  0
CIRCLE
  5
B5
100
AcDbEntity
100
AcDbCircle
  8
0
 62
256
370
-1
 48
1.0
  6
ByLayer
 10
17.779999999999177
 20
-24.679999999999609
 30
0.0
 40
1.5750000000000111
  0
CIRCLE
  5
B6
100
AcDbEntity
100
AcDbCircle
  8
0
 62
256
370
-1
 48
1.0
  6
ByLayer
 10
15.89999999999975
 20
134.50000000000045
 30
0.0
 40
1.575
  0
CIRCLE
  5
B7
100
AcDbEntity
100
AcDbCircle
  8
0
 62
256
370
-1
 48
1.0
  6
ByLayer
 10
-106.10000000000062
 20
-24.679999999999609
 30
0.0
 40
1.5750000000000111
  0
CIRCLE
  5
B8
100
AcDbEntity
100
AcDbCircle
  8
0
 62
256
370
-1
 48
1.0
  6
ByLayer
 10
-107.98000000000002
 20
134.50000000000051
 30
0.0
 40
1.575
  0
CIRCLE
  5
B9
100
AcDbEntity
100
AcDbCircle
  8
0
 62
256
370
-1
 48
1.0
  6
ByLayer
 10
-142.5
 20
124.4200000000003
 30
0.0
 40
1.575
  0
CIRCLE
  5
BA
100
AcDbEntity
100
AcDbCircle
  8
0
 62
256
370
-1
 48
1.0
  6
ByLayer
 10
-188.63999999999939
 20
-158.37999999999965
 30
0.0
 40
1.5749999999999971
  0
CIRCLE
  5
BB
100
AcDbEntity
100
AcDbCircle
  8
0
 62
256
370
-1
 48
1.0
  6
ByLayer
 10
-149.13999999999939
 20
-136.12666666666632
 30
0.0
 40
1.5750000000000011
  0
CIRCLE
  5
BC
100
AcDbEntity
100
AcDbCircle
  8
0
 62
256
370
-1
 48
1.0
  6
ByLayer
 10
25.140000000000356
 20
-136.12666666666627
 30
0.0
 40
1.5750000000000011
  0
CIRCLE
  5
BD
100
AcDbEntity
100
AcDbCircle
  8
0
 62
256
370
-1
 48
1.0
  6
ByLayer
 10
25.140000000000356
 20
-180.63333333333293
 30
0.0
 40
1.5750000000000011
  0
CIRCLE
  5
BE
100
AcDbEntity
100
AcDbCircle
  8
0
 62
256
370
-1
 48
1.0
  6
ByLayer
 10
64.640000000000356
 20
-158.37999999999971
 30
0.0
 40
1.5749999999999971
  0
CIRCLE
  5
BF
100
AcDbEntity
100
AcDbCircle
  8
0
 62
256
370
-1
 48
1.0
  6
ByLayer
 10
-149.13999999999942
 20
-180.63333333333301
 30
0.0
 40
1.5750000000000011
  0
CIRCLE
  5
C0
100
AcDbEntity
100
AcDbCircle
  8
0
 62
256
370
-1
 48
1.0
  6
ByLayer
 10
-80.380000000002639
 20
94.25333333333424
 30
0.0
 40
1.9999999999999989
  0
CIRCLE
  5
C1
100
AcDbEntity
100
AcDbCircle
  8
0
 62
256
370
-1
 48
1.0
  6
ByLayer
 10
-80.380000000002212
 20
-26.413333333332531
 30
0.0
 40
1.9999999999999989
  0
CIRCLE
  5
C2
100
AcDbEntity
100
AcDbCircle
  8
0
 62
256
370
-1
 48
1.0
  6
ByLayer
 10
-76.740000000000137
 20
204.40000000000023
 30
0.0
 40
1.574999999999998
  0
CIRCLE
  5
C3
100
AcDbEntity
100
AcDbCircle
  8
0
 62
256
370
-1
 48
1.0
  6
ByLayer
 10
4.5399999999999352
 20
252.66000000000031
 30
0.0
 40
1.574999999999998
  0
CIRCLE
  5
C4
100
AcDbEntity
100
AcDbCircle
  8
0
 62
256
370
-1
 48
1.0
  6
ByLayer
 10
5.8099999999999739
 20
204.40000000000038
 30
0.0
 40
1.574999999999998
  0
CIRCLE
  5
C5
100
AcDbEntity
100
AcDbCircle
  8
0
 62
256
370
-1
 48
1.0
  6
ByLayer
 10
-70.390000000000157
 20
252.66000000000025
 30
0.0
 40
1.574999999999998
  0
CIRCLE
  5
C6
100
AcDbEntity
100
AcDbCircle
  8
0
 62
256
370
-1
 48
1.0
  6
ByLayer
 10
-62.000000000000099
 20
134.50000000000043
 30
0.0
 40
1.5749999999999991
  0
CIRCLE
  5
C7
100
AcDbEntity
100
AcDbCircle
  8
0
 62
256
370
-1
 48
1.0
  6
ByLayer
 10
-122.33333333333326
 20
286.18000000000029
 30
0.0
 40
1.5750000000000011
  0
CIRCLE
  5
C8
100
AcDbEntity
100
AcDbCircle
  8
0
 62
256
370
-1
 48
1.0
  6
ByLayer
 10
-1.6666666666667425
 20
286.1800000000004
 30
0.0
 40
1.5750000000000011
  0
CIRCLE
  5
C9
100
AcDbEntity
100
AcDbCircle
  8
0
 62
256
370
-1
 48
1.0
  6
ByLayer
 10
-50.379999999997167
 20
94.253333333334012
 30
0.0
 40
1.9999999999999989
  0
CIRCLE
  5
CA
100
AcDbEntity
100
AcDbCircle
  8
0
 62
256
370
-1
 48
1.0
  6
ByLayer
 10
-50.379999999997352
 20
-26.41333333333273
 30
0.0
 40
1.9999999999999989
  0
CIRCLE
  5
CB
100
AcDbEntity
100
AcDbCircle
  8
0
 62
256
370
-1
 48
1.0
  6
ByLayer
 10
1.0833333333334849
 20
-121.64000000000033
 30
0.0
 40
1.5750000000000159
  0
CIRCLE
  5
CC
100
AcDbEntity
100
AcDbCircle
  8
0
 62
256
370
-1
 48
1.0
  6
ByLayer
 10
1.0833333333334565
 20
391.64000000000163
 30
0.0
 40
1.575
  0
CIRCLE
  5
CD
100
AcDbEntity
100
AcDbCircle
  8
0
 62
256
370
-1
 48
1.0
  6
ByLayer
 10
64.639999999999844
 20
375.24999999999989
 30
0.0
 40
1.575
  0
CIRCLE
  5
CE
100
AcDbEntity
100
AcDbCircle
  8
0
 62
256
370
-1
 48
1.0
  6
ByLayer
 10
64.639999999999674
 20
119.74999999999977
 30
0.0
 40
1.574999999999996
  0
CIRCLE
  5
CF
100
AcDbEntity
100
AcDbCircle
  8
0
 62
256
370
-1
 48
1.0
  6
ByLayer
 10
-172.25000000000011
 20
-121.64000000000033
 30
0.0
 40
1.574999999999998
  0
CIRCLE
  5
D0
100
AcDbEntity
100
AcDbCircle
  8
0
 62
256
370
-1
 48
1.0
  6
ByLayer
 10
48.249999999999972
 20
391.63999999999862
 30
0.0
 40
1.574999999999998
  0
CIRCLE
  5
D1
100
AcDbEntity
100
AcDbCircle
  8
0
 62
256
370
-1
 48
1.0
  6
ByLayer
 10
-172.25000000000003
 20
391.63999999999999
 30
0.0
 40
1.574999999999998
  0
CIRCLE
  5
D2
100
AcDbEntity
100
AcDbCircle
  8
0
 62
256
370
-1
 48
1.0
  6
ByLayer
 10
-188.63999999999996
 20
119.74999999999983
 30
0.0
 40
1.574999999999996
  0
CIRCLE
  5
D3
100
AcDbEntity
100
AcDbCircle
  8
0
 62
256
370
-1
 48
1.0
  6
ByLayer
 10
48.250000000000142
 20
-121.64000000000021
 30
0.0
 40
1.574999999999998
  0
CIRCLE
  5
D4
100
AcDbEntity
100
AcDbCircle
  8
0
 62
256
370
-1
 48
1.0
  6
ByLayer
 10
-188.6399999999999
 20
375.24999999999989
 30
0.0
 40
1.575
  0
CIRCLE
  5
D5
100
AcDbEntity
100
AcDbCircle
  8
0
 62
256
370
-1
 48
1.0
  6
ByLayer
 10
-125.08333333333351
 20
391.63999999999999
 30
0.0
 40
1.575
  0
CIRCLE
  5
D6
100
AcDbEntity
100
AcDbCircle
  8
0
 62
256
370
-1
 48
1.0
  6
ByLayer
 10
-125.08333333333319
 20
-121.64000000000021
 30
0.0
 40
1.5750000000000159
  0
CIRCLE
  5
D7
100
AcDbEntity
100
AcDbCircle
  8
0
 62
256
370
-1
 48
1.0
  6
ByLayer
 10
79.1266666666681
 20
102.94000000000005
 30
0.0
 40
1.575
  0
CIRCLE
  5
D8
100
AcDbEntity
100
AcDbCircle
  8
0
 62
256
370
-1
 48
1.0
  6
ByLayer
 10
123.63333333333421
 20
102.94000000000005
 30
0.0
 40
1.575
  0
CIRCLE
  5
D9
100
AcDbEntity
100
AcDbCircle
  8
0
 62
256
370
-1
 48
1.0
  6
ByLayer
 10
-54.583333333333023
 20
-276.17999999999938
 30
0.0
 40
1.5750000000000011
  0
CIRCLE
  5
DA
100
AcDbEntity
100
AcDbCircle
  8
0
 62
256
370
-1
 48
1.0
  6
ByLayer
 10
3.4166666666669698
 20
-276.17999999999915
 30
0.0
 40
1.5750000000000011
  0
LINE
  5
DB
100
AcDbEntity
100
AcDbLine
  8
0
 62
256
370
-1
 48
1.0
  6
ByLayer
 10
-102.09999999999988
 20
53.075000000000301
 30
0.0
 11
-117.09999999999988
 21
53.075000000000287
 31
0.0
  0
LINE
  5
DC
100
AcDbEntity
100
AcDbLine
  8
0
 62
256
370
-1
 48
1.0
  6
ByLayer
 10
-117.09999999999988
 20
53.075000000000287
 30
0.0
 11
-117.09999999999991
 21
65.965000000000359
 31
0.0
  0
LINE
  5
DD
100
AcDbEntity
100
AcDbLine
  8
0
 62
256
370
-1
 48
1.0
  6
ByLayer
 10
-117.09999999999991
 20
65.965000000000359
 30
0.0
 11
-102.09999999999991
 21
65.965000000000401
 31
0.0
  0
LINE
  5
DE
100
AcDbEntity
100
AcDbLine
  8
0
 62
256
370
-1
 48
1.0
  6
ByLayer
 10
-102.09999999999991
 20
65.965000000000401
 30
0.0
 11
-102.09999999999988
 21
53.075000000000301
 31
0.0
  0
LINE
  5
DF
100
AcDbEntity
100
AcDbLine
  8
0
 62
256
370
-1
 48
1.0
  6
ByLayer
 10
-117.09999999999994
 20
36.755000000000322
 30
0.0
 11
-102.09999999999992
 21
36.755000000000322
 31
0.0
  0
LINE
  5
E0
100
AcDbEntity
100
AcDbLine
  8
0
 62
256
370
-1
 48
1.0
  6
ByLayer
 10
-102.09999999999992
 20
36.755000000000322
 30
0.0
 11
-102.09999999999997
 21
21.325000000000244
 31
0.0
  0
LINE
  5
E1
100
AcDbEntity
100
AcDbLine
  8
0
 62
256
370
-1
 48
1.0
  6
ByLayer
 10
-102.09999999999997
 20
21.325000000000244
 30
0.0
 11
-117.09999999999988
 21
21.3250000000005
 31
0.0
  0
LINE
  5
E2
100
AcDbEntity
100
AcDbLine
  8
0
 62
256
370
-1
 48
1.0
  6
ByLayer
 10
-117.09999999999988
 20
21.3250000000005
 30
0.0
 11
-117.09999999999994
 21
36.755000000000322
 31
0.0
  0
LINE
  5
E3
100
AcDbEntity
100
AcDbLine
  8
0
 62
256
370
-1
 48
1.0
  6
ByLayer
 10
-74.999999999999517
 20
-130.87999999999982
 30
0.0
 11
-74.999999999999517
 21
-124.9999999999998
 31
0.0
  0
LINE
  5
E4
100
AcDbEntity
100
AcDbLine
  8
0
 62
256
370
-1
 48
1.0
  6
ByLayer
 10
-74.999999999999517
 20
-124.9999999999998
 30
0.0
 11
-48.999999999999517
 21
-124.9999999999998
 31
0.0
  0
LINE
  5
E5
100
AcDbEntity
100
AcDbLine
  8
0
 62
256
370
-1
 48
1.0
  6
ByLayer
 10
-48.999999999999517
 20
-124.9999999999998
 30
0.0
 11
-48.999999999999517
 21
-130.87999999999965
 31
0.0
  0
LINE
  5
E6
100
AcDbEntity
100
AcDbLine
  8
0
 62
256
370
-1
 48
1.0
  6
ByLayer
 10
-48.999999999999517
 20
-130.87999999999965
 30
0.0
 11
-74.999999999999517
 21
-130.87999999999982
 31
0.0
  0
LINE
  5
E7
100
AcDbEntity
100
AcDbLine
  8
0
 62
256
370
-1
 48
1.0
  6
ByLayer
 10
-185.27999999999972
 20
-169.50666666666621
 30
0.0
 11
-185.27999999999972
 21
-191.75999999999954
 31
0.0
  0
LINE
  5
E8
100
AcDbEntity
100
AcDbLine
  8
0
 62
256
370
-1
 48
1.0
  6
ByLayer
 10
-185.27999999999972
 20
-191.75999999999954
 30
0.0
 11
-173.89999999999918
 21
-191.75999999999976
 31
0.0
  0
LINE
  5
E9
100
AcDbEntity
100
AcDbLine
  8
0
 62
256
370
-1
 48
1.0
  6
ByLayer
 10
-173.89999999999918
 20
-191.75999999999976
 30
0.0
 11
-173.89999999999918
 21
-187.47999999999979
 31
0.0
  0
LINE
  5
EA
100
AcDbEntity
100
AcDbLine
  8
0
 62
256
370
-1
 48
1.0
  6
ByLayer
 10
-173.89999999999918
 20
-187.47999999999979
 30
0.0
 11
-174.99999999999955
 21
-187.47999999999979
 31
0.0
  0
ARC
  5
EB
100
AcDbEntity
  8
0
 62
256
370
-1
 48
1.0
  6
ByLayer
100
AcDbCircle
 10
-175.24999999999955
 20
-187.47999999999979
 30
0.0
 40
0.25
100
AcDbArc
 50
90.0
 51
0.0
  0
LINE
  5
EC
100
AcDbEntity
100
AcDbLine
  8
0
 62
256
370
-1
 48
1.0
  6
ByLayer
 10
-175.24999999999955
 20
-187.22999999999979
 30
0.0
 11
-175.24999999999949
 21
-184.72999999999956
 31
0.0
  0
ARC
  5
ED
100
AcDbEntity
  8
0
 62
256
370
-1
 48
1.0
  6
ByLayer
100
AcDbCircle
 10
-175.24999999999937
 20
-184.47999999999971
 30
0.0
 40
0.2499999999998721
100
AcDbArc
 50
360.0
 51
269.99999999997397
  0
LINE
  5
EE
100
AcDbEntity
100
AcDbLine
  8
0
 62
256
370
-1
 48
1.0
  6
ByLayer
 10
-174.99999999999952
 20
-184.47999999999979
 30
0.0
 11
-173.89999999999918
 21
-184.47999999999979
 31
0.0
  0
LINE
  5
EF
100
AcDbEntity
100
AcDbLine
  8
0
 62
256
370
-1
 48
1.0
  6
ByLayer
 10
-173.89999999999918
 20
-184.47999999999979
 30
0.0
 11
-173.89999999999915
 21
-182.47999999999956
 31
0.0
  0
LINE
  5
F0
100
AcDbEntity
100
AcDbLine
  8
0
 62
256
370
-1
 48
1.0
  6
ByLayer
 10
-173.89999999999915
 20
-182.47999999999956
 30
0.0
 11
-170.59999999999943
 21
-182.47999999999956
 31
0.0
  0
LINE
  5
F1
100
AcDbEntity
100
AcDbLine
  8
0
 62
256
370
-1
 48
1.0
  6
ByLayer
 10
-170.59999999999943
 20
-182.47999999999956
 30
0.0
 11
-170.59999999999943
 21
-184.47999999999979
 31
0.0
  0
LINE
  5
F2
100
AcDbEntity
100
AcDbLine
  8
0
 62
256
370
-1
 48
1.0
  6
ByLayer
 10
-170.59999999999943
 20
-184.47999999999979
 30
0.0
 11
-169.49999999999949
 21
-184.47999999999979
 31
0.0
  0
ARC
  5
F3
100
AcDbEntity
  8
0
 62
256
370
-1
 48
1.0
  6
ByLayer
100
AcDbCircle
 10
-169.2499999999996
 20
-184.47999999999968
 30
0.0
 40
0.2499999999998863
100
AcDbArc
 50
270.00000000002603
 51
180.0
  0
LINE
  5
F4
100
AcDbEntity
100
AcDbLine
  8
0
 62
256
370
-1
 48
1.0
  6
ByLayer
 10
-169.24999999999949
 20
-184.72999999999956
 30
0.0
 11
-169.24999999999955
 21
-187.22999999999979
 31
0.0
  0
ARC
  5
F5
100
AcDbEntity
  8
0
 62
256
370
-1
 48
1.0
  6
ByLayer
100
AcDbCircle
 10
-169.24999999999955
 20
-187.47999999999979
 30
0.0
 40
0.25
100
AcDbArc
 50
180.0
 51
90.0
  0
LINE
  5
F6
100
AcDbEntity
100
AcDbLine
  8
0
 62
256
370
-1
 48
1.0
  6
ByLayer
 10
-169.49999999999955
 20
-187.47999999999979
 30
0.0
 11
-170.59999999999945
 21
-187.47999999999979
 31
0.0
  0
LINE
  5
F7
100
AcDbEntity
100
AcDbLine
  8
0
 62
256
370
-1
 48
1.0
  6
ByLayer
 10
-170.59999999999945
 20
-187.47999999999979
 30
0.0
 11
-170.59999999999943
 21
-191.75999999999976
 31
0.0
  0
LINE
  5
F8
100
AcDbEntity
100
AcDbLine
  8
0
 62
256
370
-1
 48
1.0
  6
ByLayer
 10
-170.59999999999943
 20
-191.75999999999976
 30
0.0
 11
-126.73333333333264
 21
-191.75999999999976
 31
0.0
  0
LINE
  5
F9
100
AcDbEntity
100
AcDbLine
  8
0
 62
256
370
-1
 48
1.0
  6
ByLayer
 10
-126.73333333333264
 20
-191.75999999999976
 30
0.0
 11
-126.73333333333267
 21
-187.15999999999966
 31
0.0
  0
LINE
  5
FA
100
AcDbEntity
100
AcDbLine
  8
0
 62
256
370
-1
 48
1.0
  6
ByLayer
 10
-126.73333333333267
 20
-187.15999999999966
 30
0.0
 11
-127.83333333333252
 21
-187.15999999999963
 31
0.0
  0
ARC
  5
FB
100
AcDbEntity
  8
0
 62
256
370
-1
 48
1.0
  6
ByLayer
100
AcDbCircle
 10
-128.08333333333252
 20
-187.15999999999963
 30
0.0
 40
0.2500000000000142
100
AcDbArc
 50
90.000000000006509
 51
0.0
  0
LINE
  5
FC
100
AcDbEntity
100
AcDbLine
  8
0
 62
256
370
-1
 48
1.0
  6
ByLayer
 10
-128.08333333333255
 20
-186.90999999999963
 30
0.0
 11
-128.08333333333258
 21
-184.40999999999966
 31
0.0
  0
ARC
  5
FD
100
AcDbEntity
  8
0
 62
256
370
-1
 48
1.0
  6
ByLayer
100
AcDbCircle
 10
-128.08333333333258
 20
-184.15999999999963
 30
0.0
 40
0.2500000000000284
100
AcDbArc
 50
0.0
 51
270.0
  0
LINE
  5
FE
100
AcDbEntity
100
AcDbLine
  8
0
 62
256
370
-1
 48
1.0
  6
ByLayer
 10
-127.83333333333255
 20
-184.15999999999963
 30
0.0
 11
-126.73333333333268
 21
-184.15999999999968
 31
0.0
  0
LINE
  5
FF
100
AcDbEntity
100
AcDbLine
  8
0
 62
256
370
-1
 48
1.0
  6
ByLayer
 10
-126.73333333333268
 20
-184.15999999999968
 30
0.0
 11
-126.73333333333264
 21
-182.1599999999996
 31
0.0
  0
LINE
  5
100
100
AcDbEntity
100
AcDbLine
  8
0
 62
256
370
-1
 48
1.0
  6
ByLayer
 10
-126.73333333333264
 20
-182.1599999999996
 30
0.0
 11
-123.43333333333291
 21
-182.15999999999963
 31
0.0
  0
LINE
  5
101
100
AcDbEntity
100
AcDbLine
  8
0
 62
256
370
-1
 48
1.0
  6
ByLayer
 10
-123.43333333333291
 20
-182.15999999999963
 30
0.0
 11
-123.43333333333294
 21
-184.15999999999966
 31
0.0
  0
LINE
  5
102
100
AcDbEntity
100
AcDbLine
  8
0
 62
256
370
-1
 48
1.0
  6
ByLayer
 10
-123.43333333333294
 20
-184.15999999999966
 30
0.0
 11
-122.33333333333252
 21
-184.1599999999996
 31
0.0
  0
ARC
  5
103
100
AcDbEntity
  8
0
 62
256
370
-1
 48
1.0
  6
ByLayer
100
AcDbCircle
 10
-122.08333333333252
 20
-184.15999999999966
 30
0.0
 40
0.25
100
AcDbArc
 50
269.99999999999346
 51
180.0
  0
LINE
  5
104
100
AcDbEntity
100
AcDbLine
  8
0
 62
256
370
-1
 48
1.0
  6
ByLayer
 10
-122.08333333333255
 20
-184.40999999999963
 30
0.0
 11
-122.08333333333258
 21
-186.90999999999966
 31
0.0
  0
ARC
  5
105
100
AcDbEntity
  8
0
 62
256
370
-1
 48
1.0
  6
ByLayer
100
AcDbCircle
 10
-122.08333333333258
 20
-187.1599999999996
 30
0.0
 40
0.2499999999999431
100
AcDbArc
 50
180.0
 51
90.0
  0
LINE
  5
106
100
AcDbEntity
100
AcDbLine
  8
0
 62
256
370
-1
 48
1.0
  6
ByLayer
 10
-122.33333333333252
 20
-187.1599999999996
 30
0.0
 11
-123.43333333333295
 21
-187.15999999999968
 31
0.0
  0
LINE
  5
107
100
AcDbEntity
100
AcDbLine
  8
0
 62
256
370
-1
 48
1.0
  6
ByLayer
 10
-123.43333333333295
 20
-187.15999999999968
 30
0.0
 11
-123.43333333333295
 21
-191.75999999999979
 31
0.0
  0
LINE
  5
108
100
AcDbEntity
100
AcDbLine
  8
0
 62
256
370
-1
 48
1.0
  6
ByLayer
 10
-123.43333333333295
 20
-191.75999999999979
 30
0.0
 11
-105.33333333333302
 21
-191.75999999999976
 31
0.0
  0
LINE
  5
109
100
AcDbEntity
100
AcDbLine
  8
0
 62
256
370
-1
 48
1.0
  6
ByLayer
 10
-105.33333333333302
 20
-191.75999999999976
 30
0.0
 11
-105.333333333333
 21
-198.47999999999956
 31
0.0
  0
LINE
  5
10A
100
AcDbEntity
100
AcDbLine
  8
0
 62
256
370
-1
 48
1.0
  6
ByLayer
 10
-105.333333333333
 20
-198.47999999999956
 30
0.0
 11
-18.66666666666606
 21
-198.47999999999968
 31
0.0
  0
LINE
  5
10B
100
AcDbEntity
100
AcDbLine
  8
0
 62
256
370
-1
 48
1.0
  6
ByLayer
 10
-18.66666666666606
 20
-198.47999999999968
 30
0.0
 11
-18.66666666666606
 21
-191.75999999999985
 31
0.0
  0
LINE
  5
10C
100
AcDbEntity
100
AcDbLine
  8
0
 62
256
370
-1
 48
1.0
  6
ByLayer
 10
-18.66666666666606
 20
-191.75999999999985
 30
0.0
 11
-0.5666666666661229
 21
-191.75999999999982
 31
0.0
  0
LINE
  5
10D
100
AcDbEntity
100
AcDbLine
  8
0
 62
256
370
-1
 48
1.0
  6
ByLayer
 10
-0.5666666666661229
 20
-191.75999999999982
 30
0.0
 11
-0.5666666666661513
 21
-187.15999999999977
 31
0.0
  0
LINE
  5
10E
100
AcDbEntity
100
AcDbLine
  8
0
 62
256
370
-1
 48
1.0
  6
ByLayer
 10
-0.5666666666661513
 20
-187.15999999999977
 30
0.0
 11
-1.6666666666664867
 21
-187.15999999999963
 31
0.0
  0
ARC
  5
10F
100
AcDbEntity
  8
0
 62
256
370
-1
 48
1.0
  6
ByLayer
100
AcDbCircle
 10
-1.9166666666665009
 20
-187.15999999999963
 30
0.0
 40
0.2500000000000142
100
AcDbArc
 50
90.000000000003254
 51
0.0
  0
LINE
  5
110
100
AcDbEntity
100
AcDbLine
  8
0
 62
256
370
-1
 48
1.0
  6
ByLayer
 10
-1.9166666666665151
 20
-186.90999999999963
 30
0.0
 11
-1.9166666666664582
 21
-184.40999999999951
 31
0.0
  0
ARC
  5
111
100
AcDbEntity
  8
0
 62
256
370
-1
 48
1.0
  6
ByLayer
100
AcDbCircle
 10
-1.9166666666664014
 20
-184.1599999999996
 30
0.0
 40
0.2499999999999147
100
AcDbArc
 50
360.0
 51
269.99999999998698
  0
LINE
  5
112
100
AcDbEntity
100
AcDbLine
  8
0
 62
256
370
-1
 48
1.0
  6
ByLayer
 10
-1.6666666666664867
 20
-184.15999999999966
 30
0.0
 11
-0.5666666666661513
 21
-184.1599999999998
 31
0.0
  0
LINE
  5
113
100
AcDbEntity
100
AcDbLine
  8
0
 62
256
370
-1
 48
1.0
  6
ByLayer
 10
-0.5666666666661513
 20
-184.1599999999998
 30
0.0
 11
-0.5666666666660944
 21
-182.15999999999963
 31
0.0
  0
LINE
  5
114
100
AcDbEntity
100
AcDbLine
  8
0
 62
256
370
-1
 48
1.0
  6
ByLayer
 10
-0.5666666666660944
 20
-182.15999999999963
 30
0.0
 11
2.7333333333335759
 21
-182.15999999999966
 31
0.0
  0
LINE
  5
115
100
AcDbEntity
100
AcDbLine
  8
0
 62
256
370
-1
 48
1.0
  6
ByLayer
 10
2.7333333333335759
 20
-182.15999999999966
 30
0.0
 11
2.7333333333336043
 21
-184.15999999999966
 31
0.0
  0
LINE
  5
116
100
AcDbEntity
100
AcDbLine
  8
0
 62
256
370
-1
 48
1.0
  6
ByLayer
 10
2.7333333333336043
 20
-184.15999999999966
 30
0.0
 11
3.8333333333335133
 21
-184.15999999999968
 31
0.0
  0
ARC
  5
117
100
AcDbEntity
  8
0
 62
256
370
-1
 48
1.0
  6
ByLayer
100
AcDbCircle
 10
4.083333333333556
 20
-184.15999999999977
 30
0.0
 40
0.2500000000000426
100
AcDbArc
 50
269.99999999998374
 51
180.0
  0
LINE
  5
118
100
AcDbEntity
100
AcDbLine
  8
0
 62
256
370
-1
 48
1.0
  6
ByLayer
 10
4.0833333333334849
 20
-184.4099999999998
 30
0.0
 11
4.0833333333335133
 21
-186.90999999999963
 31
0.0
  0
ARC
  5
119
100
AcDbEntity
  8
0
 62
256
370
-1
 48
1.0
  6
ByLayer
100
AcDbCircle
 10
4.0833333333334991
 20
-187.15999999999963
 30
0.0
 40
0.2499999999999858
100
AcDbArc
 50
180.0
 51
89.999999999996746
  0
LINE
  5
11A
100
AcDbEntity
100
AcDbLine
  8
0
 62
256
370
-1
 48
1.0
  6
ByLayer
 10
3.8333333333335133
 20
-187.1599999999996
 30
0.0
 11
2.7333333333336043
 21
-187.15999999999966
 31
0.0
  0
LINE
  5
11B
100
AcDbEntity
100
AcDbLine
  8
0
 62
256
370
-1
 48
1.0
  6
ByLayer
 10
2.7333333333336043
 20
-187.15999999999966
 30
0.0
 11
2.7333333333336043
 21
-191.75999999999979
 31
0.0
  0
LINE
  5
11C
100
AcDbEntity
100
AcDbLine
  8
0
 62
256
370
-1
 48
1.0
  6
ByLayer
 10
2.7333333333336043
 20
-191.75999999999979
 30
0.0
 11
46.600000000000392
 21
-191.75999999999976
 31
0.0
  0
LINE
  5
11D
100
AcDbEntity
100
AcDbLine
  8
0
 62
256
370
-1
 48
1.0
  6
ByLayer
 10
46.600000000000392
 20
-191.75999999999976
 30
0.0
 11
46.600000000000364
 21
-187.47999999999985
 31
0.0
  0
LINE
  5
11E
100
AcDbEntity
100
AcDbLine
  8
0
 62
256
370
-1
 48
1.0
  6
ByLayer
 10
46.600000000000364
 20
-187.47999999999985
 30
0.0
 11
45.500000000000455
 21
-187.4799999999999
 31
0.0
  0
ARC
  5
11F
100
AcDbEntity
  8
0
 62
256
370
-1
 48
1.0
  6
ByLayer
100
AcDbCircle
 10
45.250000000000426
 20
-187.47999999999982
 30
0.0
 40
0.2500000000000284
100
AcDbArc
 50
89.999999999986969
 51
360.0
  0
LINE
  5
120
100
AcDbEntity
100
AcDbLine
  8
0
 62
256
370
-1
 48
1.0
  6
ByLayer
 10
45.250000000000483
 20
-187.22999999999982
 30
0.0
 11
45.250000000000455
 21
-184.72999999999956
 31
0.0
  0
ARC
  5
121
100
AcDbEntity
  8
0
 62
256
370
-1
 48
1.0
  6
ByLayer
100
AcDbCircle
 10
45.250000000000597
 20
-184.47999999999968
 30
0.0
 40
0.2499999999998863
100
AcDbArc
 50
360.0
 51
269.99999999996743
  0
LINE
  5
122
100
AcDbEntity
100
AcDbLine
  8
0
 62
256
370
-1
 48
1.0
  6
ByLayer
 10
45.500000000000483
 20
-184.47999999999982
 30
0.0
 11
46.600000000000364
 21
-184.4799999999999
 31
0.0
  0
LINE
  5
123
100
AcDbEntity
100
AcDbLine
  8
0
 62
256
370
-1
 48
1.0
  6
ByLayer
 10
46.600000000000364
 20
-184.4799999999999
 30
0.0
 11
46.600000000000364
 21
-182.47999999999956
 31
0.0
  0
LINE
  5
124
100
AcDbEntity
100
AcDbLine
  8
0
 62
256
370
-1
 48
1.0
  6
ByLayer
 10
46.600000000000364
 20
-182.47999999999956
 30
0.0
 11
49.900000000000119
 21
-182.47999999999965
 31
0.0
  0
LINE
  5
125
100
AcDbEntity
100
AcDbLine
  8
0
 62
256
370
-1
 48
1.0
  6
ByLayer
 10
49.900000000000119
 20
-182.47999999999965
 30
0.0
 11
49.900000000000119
 21
-184.47999999999976
 31
0.0
  0
LINE
  5
126
100
AcDbEntity
100
AcDbLine
  8
0
 62
256
370
-1
 48
1.0
  6
ByLayer
 10
49.900000000000119
 20
-184.47999999999976
 30
0.0
 11
51.000000000000512
 21
-184.47999999999973
 31
0.0
  0
ARC
  5
127
100
AcDbEntity
  8
0
 62
256
370
-1
 48
1.0
  6
ByLayer
100
AcDbCircle
 10
51.250000000000398
 20
-184.47999999999965
 30
0.0
 40
0.2499999999998863
100
AcDbArc
 50
270.00000000001955
 51
180.0
  0
LINE
  5
128
100
AcDbEntity
100
AcDbLine
  8
0
 62
256
370
-1
 48
1.0
  6
ByLayer
 10
51.250000000000483
 20
-184.72999999999954
 30
0.0
 11
51.250000000000512
 21
-187.22999999999971
 31
0.0
  0
ARC
  5
129
100
AcDbEntity
  8
0
 62
256
370
-1
 48
1.0
  6
ByLayer
100
AcDbCircle
 10
51.250000000000583
 20
-187.47999999999982
 30
0.0
 40
0.2500000000001279
100
AcDbArc
 50
180.0
 51
90.000000000016286
  0
LINE
  5
12A
100
AcDbEntity
100
AcDbLine
  8
0
 62
256
370
-1
 48
1.0
  6
ByLayer
 10
51.000000000000455
 20
-187.4799999999999
 30
0.0
 11
49.900000000000119
 21
-187.47999999999973
 31
0.0
  0
LINE
  5
12B
100
AcDbEntity
100
AcDbLine
  8
0
 62
256
370
-1
 48
1.0
  6
ByLayer
 10
49.900000000000119
 20
-187.47999999999973
 30
0.0
 11
49.900000000000119
 21
-191.75999999999976
 31
0.0
  0
LINE
  5
12C
100
AcDbEntity
100
AcDbLine
  8
0
 62
256
370
-1
 48
1.0
  6
ByLayer
 10
49.900000000000119
 20
-191.75999999999976
 30
0.0
 11
61.280000000000683
 21
-191.75999999999976
 31
0.0
  0
LINE
  5
12D
100
AcDbEntity
100
AcDbLine
  8
0
 62
256
370
-1
 48
1.0
  6
ByLayer
 10
61.280000000000683
 20
-191.75999999999976
 30
0.0
 11
61.280000000000683
 21
-169.50666666666638
 31
0.0
  0
LINE
  5
12E
100
AcDbEntity
100
AcDbLine
  8
0
 62
256
370
-1
 48
1.0
  6
ByLayer
 10
61.280000000000683
 20
-169.50666666666638
 30
0.0
 11
68.000000000000483
 21
-169.50666666666643
 31
0.0
  0
LINE
  5
12F
100
AcDbEntity
100
AcDbLine
  8
0
 62
256
370
-1
 48
1.0
  6
ByLayer
 10
68.000000000000483
 20
-169.50666666666643
 30
0.0
 11
68.000000000000483
 21
-147.25333333333322
 31
0.0
  0
LINE
  5
130
100
AcDbEntity
100
AcDbLine
  8
0
 62
256
370
-1
 48
1.0
  6
ByLayer
 10
68.000000000000483
 20
-147.25333333333322
 30
0.0
 11
61.280000000000683
 21
-147.25333333333339
 31
0.0
  0
LINE
  5
131
100
AcDbEntity
100
AcDbLine
  8
0
 62
256
370
-1
 48
1.0
  6
ByLayer
 10
61.280000000000683
 20
-147.25333333333339
 30
0.0
 11
61.280000000000683
 21
-124.99999999999983
 31
0.0
  0
LINE
  5
132
100
AcDbEntity
100
AcDbLine
  8
0
 62
256
370
-1
 48
1.0
  6
ByLayer
 10
49.900000000000119
 20
-124.99999999999983
 30
0.0
 11
49.900000000000119
 21
-129.28000000000014
 31
0.0
  0
LINE
  5
133
100
AcDbEntity
100
AcDbLine
  8
0
 62
256
370
-1
 48
1.0
  6
ByLayer
 10
49.900000000000119
 20
-129.28000000000014
 30
0.0
 11
51.000000000000483
 21
-129.28000000000063
 31
0.0
  0
ARC
  5
134
100
AcDbEntity
  8
0
 62
256
370
-1
 48
1.0
  6
ByLayer
100
AcDbCircle
 10
51.250000000000099
 20
-129.28000000000026
 30
0.0
 40
0.2499999999996163
100
AcDbArc
 50
270.00000000008794
 51
180.0
  0
LINE
  5
135
100
AcDbEntity
100
AcDbLine
  8
0
 62
256
370
-1
 48
1.0
  6
ByLayer
 10
51.250000000000483
 20
-129.52999999999986
 30
0.0
 11
51.250000000000483
 21
-132.02999999999997
 31
0.0
  0
ARC
  5
136
100
AcDbEntity
  8
0
 62
256
370
-1
 48
1.0
  6
ByLayer
100
AcDbCircle
 10
51.250000000000725
 20
-132.2800000000002
 30
0.0
 40
0.2500000000002416
100
AcDbArc
 50
180.0
 51
90.00000000005538
  0
LINE
  5
137
100
AcDbEntity
100
AcDbLine
  8
0
 62
256
370
-1
 48
1.0
  6
ByLayer
 10
51.000000000000483
 20
-132.28000000000046
 30
0.0
 11
49.900000000000119
 21
-132.27999999999955
 31
0.0
  0
LINE
  5
138
100
AcDbEntity
100
AcDbLine
  8
0
 62
256
370
-1
 48
1.0
  6
ByLayer
 10
49.900000000000119
 20
-132.27999999999955
 30
0.0
 11
49.900000000000119
 21
-134.27999999999963
 31
0.0
  0
LINE
  5
139
100
AcDbEntity
100
AcDbLine
  8
0
 62
256
370
-1
 48
1.0
  6
ByLayer
 10
49.900000000000119
 20
-134.27999999999963
 30
0.0
 11
46.600000000000392
 21
-134.28000000000009
 31
0.0
  0
LINE
  5
13A
100
AcDbEntity
100
AcDbLine
  8
0
 62
256
370
-1
 48
1.0
  6
ByLayer
 10
46.600000000000392
 20
-134.28000000000009
 30
0.0
 11
46.600000000000392
 21
-132.27999999999952
 31
0.0
  0
LINE
  5
13B
100
AcDbEntity
100
AcDbLine
  8
0
 62
256
370
-1
 48
1.0
  6
ByLayer
 10
46.600000000000392
 20
-132.27999999999952
 30
0.0
 11
45.500000000000483
 21
-132.27999999999957
 31
0.0
  0
ARC
  5
13C
100
AcDbEntity
  8
0
 62
256
370
-1
 48
1.0
  6
ByLayer
100
AcDbCircle
 10
45.250000000000725
 20
-132.2799999999998
 30
0.0
 40
0.2499999999997584
100
AcDbArc
 50
90.00000000005538
 51
0.0
  0
LINE
  5
13D
100
AcDbEntity
100
AcDbLine
  8
0
 62
256
370
-1
 48
1.0
  6
ByLayer
 10
45.250000000000483
 20
-132.03000000000006
 30
0.0
 11
45.250000000000483
 21
-129.52999999999975
 31
0.0
  0
ARC
  5
13E
100
AcDbEntity
  8
0
 62
256
370
-1
 48
1.0
  6
ByLayer
100
AcDbCircle
 10
45.250000000000256
 20
-129.27999999999952
 30
0.0
 40
0.2500000000002274
100
AcDbArc
 50
0.0
 51
270.00000000005213
  0
LINE
  5
13F
100
AcDbEntity
100
AcDbLine
  8
0
 62
256
370
-1
 48
1.0
  6
ByLayer
 10
45.500000000000483
 20
-129.27999999999929
 30
0.0
 11
46.600000000000392
 21
-129.28000000000043
 31
0.0
  0
LINE
  5
140
100
AcDbEntity
100
AcDbLine
  8
0
 62
256
370
-1
 48
1.0
  6
ByLayer
 10
46.600000000000392
 20
-129.28000000000043
 30
0.0
 11
46.600000000000392
 21
-124.99999999999983
 31
0.0
  0
LINE
  5
141
100
AcDbEntity
100
AcDbLine
  8
0
 62
256
370
-1
 48
1.0
  6
ByLayer
 10
2.7333333333336043
 20
-124.99999999999982
 30
0.0
 11
2.7333333333336043
 21
-129.59999999999965
 31
0.0
  0
LINE
  5
142
100
AcDbEntity
100
AcDbLine
  8
0
 62
256
370
-1
 48
1.0
  6
ByLayer
 10
2.7333333333336043
 20
-129.59999999999965
 30
0.0
 11
3.8333333333335133
 21
-129.59999999999917
 31
0.0
  0
ARC
  5
143
100
AcDbEntity
  8
0
 62
256
370
-1
 48
1.0
  6
ByLayer
100
AcDbCircle
 10
4.0833333333337265
 20
-129.5999999999994
 30
0.0
 40
0.2500000000002132
100
AcDbArc
 50
269.99999999995117
 51
180.0
  0
LINE
  5
144
100
AcDbEntity
100
AcDbLine
  8
0
 62
256
370
-1
 48
1.0
  6
ByLayer
 10
4.0833333333335133
 20
-129.8499999999996
 30
0.0
 11
4.0833333333335133
 21
-132.34999999999926
 31
0.0
  0
ARC
  5
145
100
AcDbEntity
  8
0
 62
256
370
-1
 48
1.0
  6
ByLayer
100
AcDbCircle
 10
4.0833333333338402
 20
-132.59999999999957
 30
0.0
 40
0.2500000000003268
100
AcDbArc
 50
180.0
 51
90.000000000074905
  0
LINE
  5
146
100
AcDbEntity
100
AcDbLine
  8
0
 62
256
370
-1
 48
1.0
  6
ByLayer
 10
3.8333333333335133
 20
-132.59999999999991
 30
0.0
 11
2.7333333333336043
 21
-132.59999999999999
 31
0.0
  0
LINE
  5
147
100
AcDbEntity
100
AcDbLine
  8
0
 62
256
370
-1
 48
1.0
  6
ByLayer
 10
2.7333333333336043
 20
-132.59999999999999
 30
0.0
 11
2.7333333333336043
 21
-134.59999999999982
 31
0.0
  0
LINE
  5
148
100
AcDbEntity
100
AcDbLine
  8
0
 62
256
370
-1
 48
1.0
  6
ByLayer
 10
2.7333333333336043
 20
-134.59999999999982
 30
0.0
 11
-0.5666666666661229
 21
-134.59999999999965
 31
0.0
  0
LINE
  5
149
100
AcDbEntity
100
AcDbLine
  8
0
 62
256
370
-1
 48
1.0
  6
ByLayer
 10
-0.5666666666661229
 20
-134.59999999999965
 30
0.0
 11
-0.5666666666661229
 21
-132.5999999999998
 31
0.0
  0
LINE
  5
14A
100
AcDbEntity
100
AcDbLine
  8
0
 62
256
370
-1
 48
1.0
  6
ByLayer
 10
-0.5666666666661229
 20
-132.5999999999998
 30
0.0
 11
-1.6666666666664867
 21
-132.60000000000019
 31
0.0
  0
ARC
  5
14B
100
AcDbEntity
  8
0
 62
256
370
-1
 48
1.0
  6
ByLayer
100
AcDbCircle
 10
-1.9166666666667425
 20
-132.59999999999994
 30
0.0
 40
0.2500000000002558
100
AcDbArc
 50
89.99999999994138
 51
360.0
  0
LINE
  5
14C
100
AcDbEntity
100
AcDbLine
  8
0
 62
256
370
-1
 48
1.0
  6
ByLayer
 10
-1.9166666666664867
 20
-132.34999999999968
 30
0.0
 11
-1.9166666666664867
 21
-129.84999999999977
 31
0.0
  0
ARC
  5
14D
100
AcDbEntity
  8
0
 62
256
370
-1
 48
1.0
  6
ByLayer
100
AcDbCircle
 10
-1.9166666666668846
 20
-129.59999999999937
 30
0.0
 40
0.2500000000003979
100
AcDbArc
 50
0.0
 51
270.00000000009123
  0
LINE
  5
14E
100
AcDbEntity
100
AcDbLine
  8
0
 62
256
370
-1
 48
1.0
  6
ByLayer
 10
-1.6666666666664867
 20
-129.59999999999897
 30
0.0
 11
-0.5666666666661229
 21
-129.5999999999992
 31
0.0
  0
LINE
  5
14F
100
AcDbEntity
100
AcDbLine
  8
0
 62
256
370
-1
 48
1.0
  6
ByLayer
 10
-0.5666666666661229
 20
-129.5999999999992
 30
0.0
 11
-0.5666666666661229
 21
-124.99999999999982
 31
0.0
  0
LINE
  5
150
100
AcDbEntity
100
AcDbLine
  8
0
 62
256
370
-1
 48
1.0
  6
ByLayer
 10
-18.666666666666032
 20
-124.99999999999982
 30
0.0
 11
-18.666666666666032
 21
-118.27999999999984
 31
0.0
  0
LINE
  5
151
100
AcDbEntity
100
AcDbLine
  8
0
 62
256
370
-1
 48
1.0
  6
ByLayer
 10
-18.666666666666032
 20
-118.27999999999984
 30
0.0
 11
-105.333333333333
 21
-118.2799999999996
 31
0.0
  0
LINE
  5
152
100
AcDbEntity
100
AcDbLine
  8
0
 62
256
370
-1
 48
1.0
  6
ByLayer
 10
-123.43333333333291
 20
-124.99999999999979
 30
0.0
 11
-123.43333333333291
 21
-129.59999999999968
 31
0.0
  0
LINE
  5
153
100
AcDbEntity
100
AcDbLine
  8
0
 62
256
370
-1
 48
1.0
  6
ByLayer
 10
-123.43333333333291
 20
-129.59999999999968
 30
0.0
 11
-122.33333333333255
 21
-129.59999999999965
 31
0.0
  0
ARC
  5
154
100
AcDbEntity
  8
0
 62
256
370
-1
 48
1.0
  6
ByLayer
100
AcDbCircle
 10
-122.08333333333252
 20
-129.59999999999968
 30
0.0
 40
0.2500000000000284
100
AcDbArc
 50
269.99999999999346
 51
180.0
  0
LINE
  5
155
100
AcDbEntity
100
AcDbLine
  8
0
 62
256
370
-1
 48
1.0
  6
ByLayer
 10
-122.08333333333255
 20
-129.84999999999971
 30
0.0
 11
-122.08333333333255
 21
-132.34999999999965
 31
0.0
  0
ARC
  5
156
100
AcDbEntity
  8
0
 62
256
370
-1
 48
1.0
  6
ByLayer
100
AcDbCircle
 10
-122.0833333333325
 20
-132.59999999999968
 30
0.0
 40
0.2500000000000426
100
AcDbArc
 50
180.0
 51
90.000000000009777
  0
LINE
  5
157
100
AcDbEntity
100
AcDbLine
  8
0
 62
256
370
-1
 48
1.0
  6
ByLayer
 10
-122.33333333333255
 20
-132.59999999999974
 30
0.0
 11
-123.43333333333291
 21
-132.59999999999965
 31
0.0
  0
LINE
  5
158
100
AcDbEntity
100
AcDbLine
  8
0
 62
256
370
-1
 48
1.0
  6
ByLayer
 10
-123.43333333333291
 20
-132.59999999999965
 30
0.0
 11
-123.43333333333291
 21
-134.59999999999971
 31
0.0
  0
LINE
  5
159
100
AcDbEntity
100
AcDbLine
  8
0
 62
256
370
-1
 48
1.0
  6
ByLayer
 10
-123.43333333333291
 20
-134.59999999999971
 30
0.0
 11
-126.73333333333264
 21
-134.59999999999965
 31
0.0
  0
LINE
  5
15A
100
AcDbEntity
100
AcDbLine
  8
0
 62
256
370
-1
 48
1.0
  6
ByLayer
 10
-126.73333333333264
 20
-134.59999999999965
 30
0.0
 11
-126.73333333333264
 21
-132.59999999999968
 31
0.0
  0
LINE
  5
15B
100
AcDbEntity
100
AcDbLine
  8
0
 62
256
370
-1
 48
1.0
  6
ByLayer
 10
-126.73333333333264
 20
-132.59999999999968
 30
0.0
 11
-127.83333333333255
 21
-132.5999999999996
 31
0.0
  0
ARC
  5
15C
100
AcDbEntity
  8
0
 62
256
370
-1
 48
1.0
  6
ByLayer
100
AcDbCircle
 10
-128.08333333333246
 20
-132.59999999999968
 30
0.0
 40
0.2499999999999289
100
AcDbArc
 50
90.00000000001954
 51
0.0
  0
LINE
  5
15D
100
AcDbEntity
100
AcDbLine
  8
0
 62
256
370
-1
 48
1.0
  6
ByLayer
 10
-128.08333333333255
 20
-132.34999999999974
 30
0.0
 11
-128.08333333333255
 21
-129.84999999999968
 31
0.0
  0
ARC
  5
15E
100
AcDbEntity
  8
0
 62
256
370
-1
 48
1.0
  6
ByLayer
100
AcDbCircle
 10
-128.0833333333326
 20
-129.59999999999962
 30
0.0
 40
0.2500000000000426
100
AcDbArc
 50
0.0
 51
270.00000000001302
  0
LINE
  5
15F
100
AcDbEntity
100
AcDbLine
  8
0
 62
256
370
-1
 48
1.0
  6
ByLayer
 10
-127.83333333333255
 20
-129.5999999999996
 30
0.0
 11
-126.73333333333264
 21
-129.59999999999971
 31
0.0
  0
LINE
  5
160
100
AcDbEntity
100
AcDbLine
  8
0
 62
256
370
-1
 48
1.0
  6
ByLayer
 10
-126.73333333333264
 20
-129.59999999999971
 30
0.0
 11
-126.73333333333264
 21
-124.99999999999979
 31
0.0
  0
LINE
  5
161
100
AcDbEntity
100
AcDbLine
  8
0
 62
256
370
-1
 48
1.0
  6
ByLayer
 10
-170.59999999999943
 20
-124.99999999999977
 30
0.0
 11
-170.59999999999943
 21
-129.27999999999952
 31
0.0
  0
LINE
  5
162
100
AcDbEntity
100
AcDbLine
  8
0
 62
256
370
-1
 48
1.0
  6
ByLayer
 10
-170.59999999999943
 20
-129.27999999999952
 30
0.0
 11
-169.49999999999952
 21
-129.27999999999952
 31
0.0
  0
ARC
  5
163
100
AcDbEntity
  8
0
 62
256
370
-1
 48
1.0
  6
ByLayer
100
AcDbCircle
 10
-169.24999999999952
 20
-129.27999999999952
 30
0.0
 40
0.25
100
AcDbArc
 50
270.0
 51
180.0
  0
LINE
  5
164
100
AcDbEntity
100
AcDbLine
  8
0
 62
256
370
-1
 48
1.0
  6
ByLayer
 10
-169.24999999999952
 20
-129.52999999999952
 30
0.0
 11
-169.24999999999952
 21
-132.02999999999975
 31
0.0
  0
ARC
  5
165
100
AcDbEntity
  8
0
 62
256
370
-1
 48
1.0
  6
ByLayer
100
AcDbCircle
 10
-169.24999999999963
 20
-132.27999999999963
 30
0.0
 40
0.2499999999998863
100
AcDbArc
 50
180.0
 51
89.999999999973937
  0
LINE
  5
166
100
AcDbEntity
100
AcDbLine
  8
0
 62
256
370
-1
 48
1.0
  6
ByLayer
 10
-169.49999999999952
 20
-132.27999999999952
 30
0.0
 11
-170.59999999999943
 21
-132.27999999999952
 31
0.0
  0
LINE
  5
167
100
AcDbEntity
100
AcDbLine
  8
0
 62
256
370
-1
 48
1.0
  6
ByLayer
 10
-170.59999999999943
 20
-132.27999999999952
 30
0.0
 11
-170.59999999999943
 21
-134.27999999999975
 31
0.0
  0
LINE
  5
168
100
AcDbEntity
100
AcDbLine
  8
0
 62
256
370
-1
 48
1.0
  6
ByLayer
 10
-170.59999999999943
 20
-134.27999999999975
 30
0.0
 11
-173.89999999999915
 21
-134.27999999999975
 31
0.0
  0
LINE
  5
169
100
AcDbEntity
100
AcDbLine
  8
0
 62
256
370
-1
 48
1.0
  6
ByLayer
 10
-173.89999999999915
 20
-134.27999999999975
 30
0.0
 11
-173.89999999999915
 21
-132.27999999999952
 31
0.0
  0
LINE
  5
16A
100
AcDbEntity
100
AcDbLine
  8
0
 62
256
370
-1
 48
1.0
  6
ByLayer
 10
-173.89999999999915
 20
-132.27999999999952
 30
0.0
 11
-174.99999999999952
 21
-132.27999999999952
 31
0.0
  0
ARC
  5
16B
100
AcDbEntity
  8
0
 62
256
370
-1
 48
1.0
  6
ByLayer
100
AcDbCircle
 10
-175.2499999999994
 20
-132.27999999999963
 30
0.0
 40
0.2499999999998863
100
AcDbArc
 50
90.000000000026063
 51
0.0
  0
LINE
  5
16C
100
AcDbEntity
100
AcDbLine
  8
0
 62
256
370
-1
 48
1.0
  6
ByLayer
 10
-175.24999999999952
 20
-132.02999999999975
 30
0.0
 11
-175.24999999999952
 21
-129.52999999999952
 31
0.0
  0
ARC
  5
16D
100
AcDbEntity
  8
0
 62
256
370
-1
 48
1.0
  6
ByLayer
100
AcDbCircle
 10
-175.24999999999952
 20
-129.27999999999952
 30
0.0
 40
0.25
100
AcDbArc
 50
0.0
 51
270.0
  0
LINE
  5
16E
100
AcDbEntity
100
AcDbLine
  8
0
 62
256
370
-1
 48
1.0
  6
ByLayer
 10
-174.99999999999952
 20
-129.27999999999952
 30
0.0
 11
-173.89999999999915
 21
-129.27999999999952
 31
0.0
  0
LINE
  5
16F
100
AcDbEntity
100
AcDbLine
  8
0
 62
256
370
-1
 48
1.0
  6
ByLayer
 10
-173.89999999999915
 20
-129.27999999999952
 30
0.0
 11
-173.89999999999915
 21
-124.99999999999977
 31
0.0
  0
LINE
  5
170
100
AcDbEntity
100
AcDbLine
  8
0
 62
256
370
-1
 48
1.0
  6
ByLayer
 10
-185.27999999999972
 20
-124.99999999999977
 30
0.0
 11
-185.27999999999972
 21
-147.2533333333331
 31
0.0
  0
LINE
  5
171
100
AcDbEntity
100
AcDbLine
  8
0
 62
256
370
-1
 48
1.0
  6
ByLayer
 10
-185.27999999999972
 20
-147.2533333333331
 30
0.0
 11
-191.99999999999952
 21
-147.2533333333331
 31
0.0
  0
LINE
  5
172
100
AcDbEntity
100
AcDbLine
  8
0
 62
256
370
-1
 48
1.0
  6
ByLayer
 10
-191.99999999999952
 20
-147.2533333333331
 30
0.0
 11
-191.99999999999949
 21
-169.50666666666621
 31
0.0
  0
LINE
  5
173
100
AcDbEntity
100
AcDbLine
  8
0
 62
256
370
-1
 48
1.0
  6
ByLayer
 10
-191.99999999999949
 20
-169.50666666666621
 30
0.0
 11
-185.27999999999972
 21
-169.50666666666621
 31
0.0
  0
LINE
  5
174
100
AcDbEntity
100
AcDbLine
  8
0
 62
256
370
-1
 48
1.0
  6
ByLayer
 10
21.780000000000712
 20
-169.5066666666664
 30
0.0
 11
21.780000000000683
 21
-147.25333333333293
 31
0.0
  0
LINE
  5
175
100
AcDbEntity
100
AcDbLine
  8
0
 62
256
370
-1
 48
1.0
  6
ByLayer
 10
21.780000000000683
 20
-147.25333333333293
 30
0.0
 11
28.500000000000483
 21
-147.25333333333313
 31
0.0
  0
LINE
  5
176
100
AcDbEntity
100
AcDbLine
  8
0
 62
256
370
-1
 48
1.0
  6
ByLayer
 10
28.500000000000483
 20
-147.25333333333313
 30
0.0
 11
28.500000000000512
 21
-169.50666666666632
 31
0.0
  0
LINE
  5
177
100
AcDbEntity
100
AcDbLine
  8
0
 62
256
370
-1
 48
1.0
  6
ByLayer
 10
28.500000000000512
 20
-169.50666666666632
 30
0.0
 11
21.780000000000712
 21
-169.5066666666664
 31
0.0
  0
LINE
  5
178
100
AcDbEntity
100
AcDbLine
  8
0
 62
256
370
-1
 48
1.0
  6
ByLayer
 10
-152.49999999999949
 20
-169.50666666666621
 30
0.0
 11
-152.49999999999952
 21
-147.25333333333288
 31
0.0
  0
LINE
  5
179
100
AcDbEntity
100
AcDbLine
  8
0
 62
256
370
-1
 48
1.0
  6
ByLayer
 10
-152.49999999999952
 20
-147.25333333333288
 30
0.0
 11
-145.77999999999972
 21
-147.25333333333288
 31
0.0
  0
LINE
  5
17A
100
AcDbEntity
100
AcDbLine
  8
0
 62
256
370
-1
 48
1.0
  6
ByLayer
 10
-145.77999999999972
 20
-147.25333333333288
 30
0.0
 11
-145.77999999999975
 21
-169.50666666666623
 31
0.0
  0
LINE
  5
17B
100
AcDbEntity
100
AcDbLine
  8
0
 62
256
370
-1
 48
1.0
  6
ByLayer
 10
-145.77999999999975
 20
-169.50666666666623
 30
0.0
 11
-152.49999999999949
 21
-169.50666666666621
 31
0.0
  0
LINE
  5
17C
100
AcDbEntity
100
AcDbLine
  8
0
 62
256
370
-1
 48
1.0
  6
ByLayer
 10
-86.229999999999819
 20
124.42000000000074
 30
0.0
 11
-86.229999999999819
 21
120.14000000000054
 31
0.0
  0
LINE
  5
17D
100
AcDbEntity
100
AcDbLine
  8
0
 62
256
370
-1
 48
1.0
  6
ByLayer
 10
-86.229999999999819
 20
120.14000000000054
 30
0.0
 11
-85.12999999999991
 21
120.14000000000055
 31
0.0
  0
ARC
  5
17E
100
AcDbEntity
  8
0
 62
256
370
-1
 48
1.0
  6
ByLayer
100
AcDbCircle
 10
-84.879999999999896
 20
120.14000000000055
 30
0.0
 40
0.2500000000000071
100
AcDbArc
 50
269.99999999999676
 51
180.0
  0
LINE
  5
17F
100
AcDbEntity
100
AcDbLine
  8
0
 62
256
370
-1
 48
1.0
  6
ByLayer
 10
-84.87999999999991
 20
119.89000000000054
 30
0.0
 11
-84.87999999999991
 21
117.39000000000055
 31
0.0
  0
ARC
  5
180
100
AcDbEntity
  8
0
 62
256
370
-1
 48
1.0
  6
ByLayer
100
AcDbCircle
 10
-84.87999999999991
 20
117.14000000000055
 30
0.0
 40
0.25
100
AcDbArc
 50
180.0
 51
90.0
  0
LINE
  5
181
100
AcDbEntity
100
AcDbLine
  8
0
 62
256
370
-1
 48
1.0
  6
ByLayer
 10
-85.12999999999991
 20
117.14000000000055
 30
0.0
 11
-86.229999999999819
 21
117.14000000000054
 31
0.0
  0
LINE
  5
182
100
AcDbEntity
100
AcDbLine
  8
0
 62
256
370
-1
 48
1.0
  6
ByLayer
 10
-86.229999999999819
 20
117.14000000000054
 30
0.0
 11
-86.229999999999819
 21
115.14000000000055
 31
0.0
  0
LINE
  5
183
100
AcDbEntity
100
AcDbLine
  8
0
 62
256
370
-1
 48
1.0
  6
ByLayer
 10
-86.229999999999819
 20
115.14000000000055
 30
0.0
 11
-89.530000000000001
 21
115.14000000000054
 31
0.0
  0
LINE
  5
184
100
AcDbEntity
100
AcDbLine
  8
0
 62
256
370
-1
 48
1.0
  6
ByLayer
 10
-89.530000000000001
 20
115.14000000000054
 30
0.0
 11
-89.530000000000001
 21
117.14000000000054
 31
0.0
  0
LINE
  5
185
100
AcDbEntity
100
AcDbLine
  8
0
 62
256
370
-1
 48
1.0
  6
ByLayer
 10
-89.530000000000001
 20
117.14000000000054
 30
0.0
 11
-90.62999999999991
 21
117.14000000000054
 31
0.0
  0
ARC
  5
186
100
AcDbEntity
  8
0
 62
256
370
-1
 48
1.0
  6
ByLayer
100
AcDbCircle
 10
-90.87999999999991
 20
117.14000000000054
 30
0.0
 40
0.25
100
AcDbArc
 50
90.0
 51
0.0
  0
LINE
  5
187
100
AcDbEntity
100
AcDbLine
  8
0
 62
256
370
-1
 48
1.0
  6
ByLayer
 10
-90.87999999999991
 20
117.39000000000054
 30
0.0
 11
-90.87999999999991
 21
119.89000000000054
 31
0.0
  0
ARC
  5
188
100
AcDbEntity
  8
0
 62
256
370
-1
 48
1.0
  6
ByLayer
100
AcDbCircle
 10
-90.87999999999991
 20
120.14000000000054
 30
0.0
 40
0.25
100
AcDbArc
 50
0.0
 51
270.0
  0
LINE
  5
189
100
AcDbEntity
100
AcDbLine
  8
0
 62
256
370
-1
 48
1.0
  6
ByLayer
 10
-90.62999999999991
 20
120.14000000000054
 30
0.0
 11
-89.530000000000001
 21
120.14000000000055
 31
0.0
  0
LINE
  5
18A
100
AcDbEntity
100
AcDbLine
  8
0
 62
256
370
-1
 48
1.0
  6
ByLayer
 10
-89.530000000000001
 20
120.14000000000055
 30
0.0
 11
-89.530000000000001
 21
124.42000000000075
 31
0.0
  0
LINE
  5
18B
100
AcDbEntity
100
AcDbLine
  8
0
 62
256
370
-1
 48
1.0
  6
ByLayer
 10
-89.530000000000001
 20
124.42000000000075
 30
0.0
 11
-95.37999999999991
 21
124.42000000000074
 31
0.0
  0
LINE
  5
18C
100
AcDbEntity
100
AcDbLine
  8
0
 62
256
370
-1
 48
1.0
  6
ByLayer
 10
-95.379999999999882
 20
-56.579999999999274
 30
0.0
 11
-89.52999999999993
 21
-56.579999999999245
 31
0.0
  0
LINE
  5
18D
100
AcDbEntity
100
AcDbLine
  8
0
 62
256
370
-1
 48
1.0
  6
ByLayer
 10
-89.52999999999993
 20
-56.579999999999245
 30
0.0
 11
-89.530000000000044
 21
-52.299999999999045
 31
0.0
  0
LINE
  5
18E
100
AcDbEntity
100
AcDbLine
  8
0
 62
256
370
-1
 48
1.0
  6
ByLayer
 10
-89.530000000000044
 20
-52.299999999999045
 30
0.0
 11
-90.629999999999825
 21
-52.299999999999045
 31
0.0
  0
ARC
  5
18F
100
AcDbEntity
  8
0
 62
256
370
-1
 48
1.0
  6
ByLayer
100
AcDbCircle
 10
-90.879999999999839
 20
-52.299999999999095
 30
0.0
 40
0.2500000000000213
100
AcDbArc
 50
90.000000000013031
 51
0.0
  0
LINE
  5
190
100
AcDbEntity
100
AcDbLine
  8
0
 62
256
370
-1
 48
1.0
  6
ByLayer
 10
-90.879999999999896
 20
-52.049999999999073
 30
0.0
 11
-90.879999999999939
 21
-49.549999999999045
 31
0.0
  0
ARC
  5
191
100
AcDbEntity
  8
0
 62
256
370
-1
 48
1.0
  6
ByLayer
100
AcDbCircle
 10
-90.879999999999896
 20
-49.299999999999002
 30
0.0
 40
0.2500000000000426
100
AcDbArc
 50
360.0
 51
269.99999999999022
  0
LINE
  5
192
100
AcDbEntity
100
AcDbLine
  8
0
 62
256
370
-1
 48
1.0
  6
ByLayer
 10
-90.629999999999853
 20
-49.299999999999045
 30
0.0
 11
-89.530000000000015
 21
-49.299999999999045
 31
0.0
  0
LINE
  5
193
100
AcDbEntity
100
AcDbLine
  8
0
 62
256
370
-1
 48
1.0
  6
ByLayer
 10
-89.530000000000015
 20
-49.299999999999045
 30
0.0
 11
-89.529999999999816
 21
-47.299999999999045
 31
0.0
  0
LINE
  5
194
100
AcDbEntity
100
AcDbLine
  8
0
 62
256
370
-1
 48
1.0
  6
ByLayer
 10
-89.529999999999816
 20
-47.299999999999045
 30
0.0
 11
-86.229999999999876
 21
-47.299999999999045
 31
0.0
  0
LINE
  5
195
100
AcDbEntity
100
AcDbLine
  8
0
 62
256
370
-1
 48
1.0
  6
ByLayer
 10
-86.229999999999876
 20
-47.299999999999045
 30
0.0
 11
-86.229999999999748
 21
-49.299999999999045
 31
0.0
  0
LINE
  5
196
100
AcDbEntity
100
AcDbLine
  8
0
 62
256
370
-1
 48
1.0
  6
ByLayer
 10
-86.229999999999748
 20
-49.299999999999045
 30
0.0
 11
-85.129999999999868
 21
-49.299999999999045
 31
0.0
  0
ARC
  5
197
100
AcDbEntity
  8
0
 62
256
370
-1
 48
1.0
  6
ByLayer
100
AcDbCircle
 10
-84.879999999999825
 20
-49.299999999998995
 30
0.0
 40
0.2500000000000497
100
AcDbArc
 50
270.00000000001302
 51
180.0
  0
LINE
  5
198
100
AcDbEntity
100
AcDbLine
  8
0
 62
256
370
-1
 48
1.0
  6
ByLayer
 10
-84.879999999999768
 20
-49.549999999999045
 30
0.0
 11
-84.879999999999995
 21
-52.049999999999045
 31
0.0
  0
ARC
  5
199
100
AcDbEntity
  8
0
 62
256
370
-1
 48
1.0
  6
ByLayer
100
AcDbCircle
 10
-84.88000000000001
 20
-52.299999999999059
 30
0.0
 40
0.2500000000000142
100
AcDbArc
 50
180.0
 51
89.999999999996746
  0
LINE
  5
19A
100
AcDbEntity
100
AcDbLine
  8
0
 62
256
370
-1
 48
1.0
  6
ByLayer
 10
-85.130000000000024
 20
-52.299999999999045
 30
0.0
 11
-86.229999999999706
 21
-52.299999999999045
 31
0.0
  0
LINE
  5
19B
100
AcDbEntity
100
AcDbLine
  8
0
 62
256
370
-1
 48
1.0
  6
ByLayer
 10
-86.229999999999706
 20
-52.299999999999045
 30
0.0
 11
-86.229999999999805
 21
-56.579999999999245
 31
0.0
  0
LINE
  5
19C
100
AcDbEntity
100
AcDbLine
  8
0
 62
256
370
-1
 48
1.0
  6
ByLayer
 10
-86.229999999999805
 20
-56.579999999999245
 30
0.0
 11
-80.380000000000052
 21
-56.579999999999245
 31
0.0
  0
LINE
  5
19D
100
AcDbEntity
100
AcDbLine
  8
0
 62
256
370
-1
 48
1.0
  6
ByLayer
 10
-80.380000000000052
 20
-56.579999999999245
 30
0.0
 11
-80.379999999999683
 21
-63.299999999999301
 31
0.0
  0
LINE
  5
19E
100
AcDbEntity
100
AcDbLine
  8
0
 62
256
370
-1
 48
1.0
  6
ByLayer
 10
-80.379999999999683
 20
-63.299999999999301
 30
0.0
 11
-65.379999999999953
 21
-63.299999999999272
 31
0.0
  0
LINE
  5
19F
100
AcDbEntity
100
AcDbLine
  8
0
 62
256
370
-1
 48
1.0
  6
ByLayer
 10
-65.379999999999953
 20
-63.299999999999272
 30
0.0
 11
-65.37999999999991
 21
131.14000000000055
 31
0.0
  0
LINE
  5
1A0
100
AcDbEntity
100
AcDbLine
  8
0
 62
256
370
-1
 48
1.0
  6
ByLayer
 10
-80.37999999999991
 20
131.14000000000055
 30
0.0
 11
-80.37999999999991
 21
124.42000000000053
 31
0.0
  0
LINE
  5
1A1
100
AcDbEntity
100
AcDbLine
  8
0
 62
256
370
-1
 48
1.0
  6
ByLayer
 10
-80.37999999999991
 20
124.42000000000053
 30
0.0
 11
-86.229999999999819
 21
124.42000000000074
 31
0.0
  0
LINE
  5
1A2
100
AcDbEntity
100
AcDbLine
  8
0
 62
256
370
-1
 48
1.0
  6
ByLayer
 10
-92.166666666666885
 20
137.86000000000033
 30
0.0
 11
-152.50000000000006
 21
137.86000000000035
 31
0.0
  0
LINE
  5
1A3
100
AcDbEntity
100
AcDbLine
  8
0
 62
256
370
-1
 48
1.0
  6
ByLayer
 10
-152.50000000000006
 20
137.86000000000035
 30
0.0
 11
-152.50000000000003
 21
355.50000000000023
 31
0.0
  0
LINE
  5
1A4
100
AcDbEntity
100
AcDbLine
  8
0
 62
256
370
-1
 48
1.0
  6
ByLayer
 10
-152.50000000000003
 20
355.50000000000023
 30
0.0
 11
28.499999999999972
 21
355.50000000000017
 31
0.0
  0
LINE
  5
1A5
100
AcDbEntity
100
AcDbLine
  8
0
 62
256
370
-1
 48
1.0
  6
ByLayer
 10
28.499999999999972
 20
355.50000000000017
 30
0.0
 11
28.499999999999886
 21
137.8600000000003
 31
0.0
  0
LINE
  5
1A6
100
AcDbEntity
100
AcDbLine
  8
0
 62
256
370
-1
 48
1.0
  6
ByLayer
 10
28.499999999999886
 20
137.8600000000003
 30
0.0
 11
-31.833333333333329
 21
137.86000000000035
 31
0.0
  0
LINE
  5
1A7
100
AcDbEntity
100
AcDbLine
  8
0
 62
256
370
-1
 48
1.0
  6
ByLayer
 10
-31.833333333333329
 20
137.86000000000035
 30
0.0
 11
-31.833333333333329
 21
131.1400000000003
 31
0.0
  0
LINE
  5
1A8
100
AcDbEntity
100
AcDbLine
  8
0
 62
256
370
-1
 48
1.0
  6
ByLayer
 10
-31.833333333333329
 20
131.1400000000003
 30
0.0
 11
-92.166666666666742
 21
131.14000000000033
 31
0.0
  0
LINE
  5
1A9
100
AcDbEntity
100
AcDbLine
  8
0
 62
256
370
-1
 48
1.0
  6
ByLayer
 10
-92.166666666666742
 20
131.14000000000033
 30
0.0
 11
-92.166666666666885
 21
137.86000000000033
 31
0.0
  0
LINE
  5
1AA
100
AcDbEntity
100
AcDbLine
  8
0
 62
256
370
-1
 48
1.0
  6
ByLayer
 10
-44.529999999999973
 20
124.42000000000054
 30
0.0
 11
-44.52999999999998
 21
120.14000000000031
 31
0.0
  0
LINE
  5
1AB
100
AcDbEntity
100
AcDbLine
  8
0
 62
256
370
-1
 48
1.0
  6
ByLayer
 10
-44.52999999999998
 20
120.14000000000031
 30
0.0
 11
-45.629999999999882
 21
120.14000000000033
 31
0.0
  0
ARC
  5
1AC
100
AcDbEntity
  8
0
 62
256
370
-1
 48
1.0
  6
ByLayer
100
AcDbCircle
 10
-45.879999999999882
 20
120.14000000000033
 30
0.0
 40
0.2500000000000036
100
AcDbArc
 50
0.0
 51
269.99999999999835
  0
LINE
  5
1AD
100
AcDbEntity
100
AcDbLine
  8
0
 62
256
370
-1
 48
1.0
  6
ByLayer
 10
-45.879999999999889
 20
119.89000000000033
 30
0.0
 11
-45.879999999999882
 21
117.39000000000033
 31
0.0
  0
ARC
  5
1AE
100
AcDbEntity
  8
0
 62
256
370
-1
 48
1.0
  6
ByLayer
100
AcDbCircle
 10
-45.879999999999882
 20
117.14000000000033
 30
0.0
 40
0.2500000000000036
100
AcDbArc
 50
90.0
 51
0.0
  0
LINE
  5
1AF
100
AcDbEntity
100
AcDbLine
  8
0
 62
256
370
-1
 48
1.0
  6
ByLayer
 10
-45.629999999999875
 20
117.14000000000033
 30
0.0
 11
-44.529999999999973
 21
117.14000000000033
 31
0.0
  0
LINE
  5
1B0
100
AcDbEntity
100
AcDbLine
  8
0
 62
256
370
-1
 48
1.0
  6
ByLayer
 10
-44.529999999999973
 20
117.14000000000033
 30
0.0
 11
-44.529999999999973
 21
115.14000000000033
 31
0.0
  0
LINE
  5
1B1
100
AcDbEntity
100
AcDbLine
  8
0
 62
256
370
-1
 48
1.0
  6
ByLayer
 10
-44.529999999999973
 20
115.14000000000033
 30
0.0
 11
-41.229999999999798
 21
115.14000000000031
 31
0.0
  0
LINE
  5
1B2
100
AcDbEntity
100
AcDbLine
  8
0
 62
256
370
-1
 48
1.0
  6
ByLayer
 10
-41.229999999999798
 20
115.14000000000031
 30
0.0
 11
-41.229999999999805
 21
117.14000000000031
 31
0.0
  0
LINE
  5
1B3
100
AcDbEntity
100
AcDbLine
  8
0
 62
256
370
-1
 48
1.0
  6
ByLayer
 10
-41.229999999999805
 20
117.14000000000031
 30
0.0
 11
-40.129999999999875
 21
117.14000000000034
 31
0.0
  0
ARC
  5
1B4
100
AcDbEntity
  8
0
 62
256
370
-1
 48
1.0
  6
ByLayer
100
AcDbCircle
 10
-39.879999999999889
 20
117.14000000000033
 30
0.0
 40
0.2499999999999893
100
AcDbArc
 50
180.0
 51
89.999999999998366
  0
LINE
  5
1B5
100
AcDbEntity
100
AcDbLine
  8
0
 62
256
370
-1
 48
1.0
  6
ByLayer
 10
-39.879999999999882
 20
117.39000000000033
 30
0.0
 11
-39.879999999999896
 21
119.8900000000003
 31
0.0
  0
ARC
  5
1B6
100
AcDbEntity
  8
0
 62
256
370
-1
 48
1.0
  6
ByLayer
100
AcDbCircle
 10
-39.879999999999853
 20
120.14000000000031
 30
0.0
 40
0.2500000000000142
100
AcDbArc
 50
269.99999999999022
 51
180.0
  0
LINE
  5
1B7
100
AcDbEntity
100
AcDbLine
  8
0
 62
256
370
-1
 48
1.0
  6
ByLayer
 10
-40.129999999999868
 20
120.14000000000036
 30
0.0
 11
-41.229999999999791
 21
120.14000000000031
 31
0.0
  0
LINE
  5
1B8
100
AcDbEntity
100
AcDbLine
  8
0
 62
256
370
-1
 48
1.0
  6
ByLayer
 10
-41.229999999999791
 20
120.14000000000031
 30
0.0
 11
-41.229999999999791
 21
124.42000000000051
 31
0.0
  0
LINE
  5
1B9
100
AcDbEntity
100
AcDbLine
  8
0
 62
256
370
-1
 48
1.0
  6
ByLayer
 10
-41.229999999999791
 20
124.42000000000051
 30
0.0
 11
-35.379999999999882
 21
124.42000000000051
 31
0.0
  0
LINE
  5
1BA
100
AcDbEntity
100
AcDbLine
  8
0
 62
256
370
-1
 48
1.0
  6
ByLayer
 10
-35.379999999999882
 20
124.42000000000051
 30
0.0
 11
-35.379999999999654
 21
-56.579999999999444
 31
0.0
  0
LINE
  5
1BB
100
AcDbEntity
100
AcDbLine
  8
0
 62
256
370
-1
 48
1.0
  6
ByLayer
 10
-35.379999999999654
 20
-56.579999999999444
 30
0.0
 11
-41.229999999999769
 21
-56.579999999999472
 31
0.0
  0
LINE
  5
1BC
100
AcDbEntity
100
AcDbLine
  8
0
 62
256
370
-1
 48
1.0
  6
ByLayer
 10
-41.229999999999769
 20
-56.579999999999472
 30
0.0
 11
-41.229999999999819
 21
-52.299999999999272
 31
0.0
  0
LINE
  5
1BD
100
AcDbEntity
100
AcDbLine
  8
0
 62
256
370
-1
 48
1.0
  6
ByLayer
 10
-41.229999999999819
 20
-52.299999999999272
 30
0.0
 11
-40.129999999999711
 21
-52.299999999999244
 31
0.0
  0
ARC
  5
1BE
100
AcDbEntity
  8
0
 62
256
370
-1
 48
1.0
  6
ByLayer
100
AcDbCircle
 10
-39.879999999999768
 20
-52.299999999999216
 30
0.0
 40
0.2499999999999396
100
AcDbArc
 50
180.0
 51
90.000000000008129
  0
LINE
  5
1BF
100
AcDbEntity
100
AcDbLine
  8
0
 62
256
370
-1
 48
1.0
  6
ByLayer
 10
-39.879999999999804
 20
-52.049999999999272
 30
0.0
 11
-39.879999999999917
 21
-49.549999999999272
 31
0.0
  0
ARC
  5
1C0
100
AcDbEntity
  8
0
 62
256
370
-1
 48
1.0
  6
ByLayer
100
AcDbCircle
 10
-39.879999999999882
 20
-49.299999999999308
 30
0.0
 40
0.2499999999999645
100
AcDbArc
 50
269.99999999999187
 51
180.0
  0
LINE
  5
1C1
100
AcDbEntity
100
AcDbLine
  8
0
 62
256
370
-1
 48
1.0
  6
ByLayer
 10
-40.129999999999846
 20
-49.299999999999272
 30
0.0
 11
-41.229999999999833
 21
-49.299999999999272
 31
0.0
  0
LINE
  5
1C2
100
AcDbEntity
100
AcDbLine
  8
0
 62
256
370
-1
 48
1.0
  6
ByLayer
 10
-41.229999999999833
 20
-49.299999999999272
 30
0.0
 11
-41.229999999999883
 21
-47.299999999999272
 31
0.0
  0
LINE
  5
1C3
100
AcDbEntity
100
AcDbLine
  8
0
 62
256
370
-1
 48
1.0
  6
ByLayer
 10
-41.229999999999883
 20
-47.299999999999272
 30
0.0
 11
-44.52999999999998
 21
-47.299999999999272
 31
0.0
  0
LINE
  5
1C4
100
AcDbEntity
100
AcDbLine
  8
0
 62
256
370
-1
 48
1.0
  6
ByLayer
 10
-44.52999999999998
 20
-47.299999999999272
 30
0.0
 11
-44.530000000000115
 21
-49.299999999999272
 31
0.0
  0
LINE
  5
1C5
100
AcDbEntity
100
AcDbLine
  8
0
 62
256
370
-1
 48
1.0
  6
ByLayer
 10
-44.530000000000115
 20
-49.299999999999272
 30
0.0
 11
-45.629999999999825
 21
-49.299999999999272
 31
0.0
  0
ARC
  5
1C6
100
AcDbEntity
  8
0
 62
256
370
-1
 48
1.0
  6
ByLayer
100
AcDbCircle
 10
-45.879999999999953
 20
-49.299999999999145
 30
0.0
 40
0.2500000000001279
100
AcDbArc
 50
360.0
 51
269.99999999997073
  0
LINE
  5
1C7
100
AcDbEntity
100
AcDbLine
  8
0
 62
256
370
-1
 48
1.0
  6
ByLayer
 10
-45.880000000000081
 20
-49.549999999999272
 30
0.0
 11
-45.879999999999711
 21
-52.049999999999272
 31
0.0
  0
ARC
  5
1C8
100
AcDbEntity
  8
0
 62
256
370
-1
 48
1.0
  6
ByLayer
100
AcDbCircle
 10
-45.879999999999782
 20
-52.299999999999201
 30
0.0
 40
0.2499999999999325
100
AcDbArc
 50
89.999999999983714
 51
360.0
  0
LINE
  5
1C9
100
AcDbEntity
100
AcDbLine
  8
0
 62
256
370
-1
 48
1.0
  6
ByLayer
 10
-45.629999999999846
 20
-52.299999999999272
 30
0.0
 11
-44.529999999999838
 21
-52.299999999999244
 31
0.0
  0
LINE
  5
1CA
100
AcDbEntity
100
AcDbLine
  8
0
 62
256
370
-1
 48
1.0
  6
ByLayer
 10
-44.529999999999838
 20
-52.299999999999244
 30
0.0
 11
-44.530000000000058
 21
-56.579999999999472
 31
0.0
  0
LINE
  5
1CB
100
AcDbEntity
100
AcDbLine
  8
0
 62
256
370
-1
 48
1.0
  6
ByLayer
 10
-44.530000000000058
 20
-56.579999999999472
 30
0.0
 11
-50.379999999999477
 21
-56.579999999999472
 31
0.0
  0
LINE
  5
1CC
100
AcDbEntity
100
AcDbLine
  8
0
 62
256
370
-1
 48
1.0
  6
ByLayer
 10
-50.379999999999477
 20
-56.579999999999472
 30
0.0
 11
-50.379999999999832
 21
-63.2999999999995
 31
0.0
  0
LINE
  5
1CD
100
AcDbEntity
100
AcDbLine
  8
0
 62
256
370
-1
 48
1.0
  6
ByLayer
 10
-50.379999999999832
 20
-63.2999999999995
 30
0.0
 11
-65.379999999999924
 21
-63.2999999999995
 31
0.0
  0
LINE
  5
1CE
100
AcDbEntity
100
AcDbLine
  8
0
 62
256
370
-1
 48
1.0
  6
ByLayer
 10
-50.379999999999882
 20
131.14000000000033
 30
0.0
 11
-50.379999999999882
 21
124.4200000000003
 31
0.0
  0
LINE
  5
1CF
100
AcDbEntity
100
AcDbLine
  8
0
 62
256
370
-1
 48
1.0
  6
ByLayer
 10
-50.379999999999882
 20
124.4200000000003
 30
0.0
 11
-44.529999999999973
 21
124.42000000000054
 31
0.0
  0
ARC
  5
1D0
100
AcDbEntity
  8
0
 62
256
370
-1
 48
1.0
  6
ByLayer
100
AcDbCircle
 10
-36.880000000000138
 20
-92.220000000000113
 30
0.0
 40
1.5749999999999602
100
AcDbArc
 50
90.000000000005173
 51
270.00000000000517
  0
LINE
  5
1D1
100
AcDbEntity
100
AcDbLine
  8
0
 62
256
370
-1
 48
1.0
  6
ByLayer
 10
-36.879999999999995
 20
-93.795000000000073
 30
0.0
 11
-32.880000000000422
 21
-93.7950000000003
 31
0.0
  0
ARC
  5
1D2
100
AcDbEntity
  8
0
 62
256
370
-1
 48
1.0
  6
ByLayer
100
AcDbCircle
 10
-32.880000000000351
 20
-92.220000000000198
 30
0.0
 40
1.5750000000001023
100
AcDbArc
 50
269.99999999999739
 51
89.999999999997428
  0
LINE
  5
1D3
100
AcDbEntity
100
AcDbLine
  8
0
 62
256
370
-1
 48
1.0
  6
ByLayer
 10
-32.88000000000028
 20
-90.645000000000095
 30
0.0
 11
-36.88000000000028
 21
-90.645000000000152
 31
0.0
  0
ARC
  5
1D4
100
AcDbEntity
  8
0
 62
256
370
-1
 48
1.0
  6
ByLayer
100
AcDbCircle
 10
-87.119999999999976
 20
-92.220000000000198
 30
0.0
 40
1.5750000000000455
100
AcDbArc
 50
269.99999999999898
 51
89.999999999999488
  0
LINE
  5
1D5
100
AcDbEntity
100
AcDbLine
  8
0
 62
256
370
-1
 48
1.0
  6
ByLayer
 10
-87.119999999999962
 20
-90.645000000000152
 30
0.0
 11
-91.119999999999791
 21
-90.644999999999982
 31
0.0
  0
ARC
  5
1D6
100
AcDbEntity
  8
0
 62
256
370
-1
 48
1.0
  6
ByLayer
100
AcDbCircle
 10
-91.119999999999834
 20
-92.220000000000056
 30
0.0
 40
1.5750000000000739
100
AcDbArc
 50
89.999999999998451
 51
269.99999999999847
  0
LINE
  5
1D7
100
AcDbEntity
100
AcDbLine
  8
0
 62
256
370
-1
 48
1.0
  6
ByLayer
 10
-91.119999999999877
 20
-93.79500000000013
 30
0.0
 11
-87.120000000000005
 21
-93.795000000000243
 31
0.0
  0
LINE
  5
1D8
100
AcDbEntity
100
AcDbLine
  8
0
 62
256
370
-1
 48
1.0
  6
ByLayer
 10
61.280000000000229
 20
99.999999999999943
 30
0.0
 11
61.280000000000456
 21
-125.0
 31
0.0
  0
LINE
  5
1D9
100
AcDbEntity
100
AcDbLine
  8
0
 62
256
370
-1
 48
1.0
  6
ByLayer
 10
61.280000000000456
 20
-125.0
 30
0.0
 11
-18.666666666666828
 21
-125.00000000000023
 31
0.0
  0
LINE
  5
1DA
100
AcDbEntity
100
AcDbLine
  8
0
 62
256
370
-1
 48
1.0
  6
ByLayer
 10
-105.33333333333312
 20
-118.2800000000002
 30
0.0
 11
-105.33333333333297
 21
-125.00000000000011
 31
0.0
  0
LINE
  5
1DB
100
AcDbEntity
100
AcDbLine
  8
0
 62
256
370
-1
 48
1.0
  6
ByLayer
 10
-105.33333333333297
 20
-125.00000000000011
 30
0.0
 11
-185.27999999999972
 21
-125.00000000000011
 31
0.0
  0
LINE
  5
1DC
100
AcDbEntity
100
AcDbLine
  8
0
 62
256
370
-1
 48
1.0
  6
ByLayer
 10
-185.27999999999972
 20
-125.00000000000011
 30
0.0
 11
-185.27999999999989
 21
99.999999999999886
 31
0.0
  0
LINE
  5
1DD
100
AcDbEntity
100
AcDbLine
  8
0
 62
256
370
-1
 48
1.0
  6
ByLayer
 10
-185.27999999999989
 20
99.999999999999886
 30
0.0
 11
-192.00000000000009
 21
99.999999999999886
 31
0.0
  0
LINE
  5
1DE
100
AcDbEntity
100
AcDbLine
  8
0
 62
256
370
-1
 48
1.0
  6
ByLayer
 10
-192.00000000000009
 20
99.999999999999886
 30
0.0
 11
-192.00000000000003
 21
394.99999999999977
 31
0.0
  0
LINE
  5
1DF
100
AcDbEntity
100
AcDbLine
  8
0
 62
256
370
-1
 48
1.0
  6
ByLayer
 10
-192.00000000000003
 20
394.99999999999977
 30
0.0
 11
-105.33333333333351
 21
394.99999999999977
 31
0.0
  0
LINE
  5
1E0
100
AcDbEntity
100
AcDbLine
  8
0
 62
256
370
-1
 48
1.0
  6
ByLayer
 10
-105.33333333333351
 20
394.99999999999977
 30
0.0
 11
-105.33333333333351
 21
388.27999999999986
 31
0.0
  0
LINE
  5
1E1
100
AcDbEntity
100
AcDbLine
  8
0
 62
256
370
-1
 48
1.0
  6
ByLayer
 10
-105.33333333333351
 20
388.27999999999986
 30
0.0
 11
-18.666666666666998
 21
388.27999999999975
 31
0.0
  0
LINE
  5
1E2
100
AcDbEntity
100
AcDbLine
  8
0
 62
256
370
-1
 48
1.0
  6
ByLayer
 10
-18.666666666666998
 20
388.27999999999975
 30
0.0
 11
-18.666666666666998
 21
394.99999999999972
 31
0.0
  0
LINE
  5
1E3
100
AcDbEntity
100
AcDbLine
  8
0
 62
256
370
-1
 48
1.0
  6
ByLayer
 10
-18.666666666666998
 20
394.99999999999972
 30
0.0
 11
67.999999999999972
 21
394.99999999999972
 31
0.0
  0
LINE
  5
1E4
100
AcDbEntity
100
AcDbLine
  8
0
 62
256
370
-1
 48
1.0
  6
ByLayer
 10
67.999999999999972
 20
394.99999999999972
 30
0.0
 11
67.999999999999915
 21
99.999999999999829
 31
0.0
  0
LINE
  5
1E5
100
AcDbEntity
100
AcDbLine
  8
0
 62
256
370
-1
 48
1.0
  6
ByLayer
 10
67.999999999999915
 20
99.999999999999829
 30
0.0
 11
61.280000000000229
 21
99.999999999999943
 31
0.0
  0
LINE
  5
1E6
100
AcDbEntity
100
AcDbLine
  8
0
 62
256
370
-1
 48
1.0
  6
ByLayer
 10
-67.999999999999986
 20
-85.500000000000114
 30
0.0
 11
-68.000000000000099
 21
-87.500000000000171
 31
0.0
  0
ARC
  5
1E7
100
AcDbEntity
  8
0
 62
256
370
-1
 48
1.0
  6
ByLayer
100
AcDbCircle
 10
-62.000000000000078
 20
-87.500000000000142
 30
0.0
 40
6.0000000000000213
100
AcDbArc
 50
180.0
 51
0.0
  0
LINE
  5
1E8
100
AcDbEntity
100
AcDbLine
  8
0
 62
256
370
-1
 48
1.0
  6
ByLayer
 10
-56.000000000000057
 20
-87.500000000000114
 30
0.0
 11
-56.000000000000057
 21
-85.500000000000114
 31
0.0
  0
LINE
  5
1E9
100
AcDbEntity
100
AcDbLine
  8
0
 62
256
370
-1
 48
1.0
  6
ByLayer
 10
-56.000000000000057
 20
-85.500000000000114
 30
0.0
 11
21.779999999999973
 21
-85.500000000000114
 31
0.0
  0
LINE
  5
1EA
100
AcDbEntity
100
AcDbLine
  8
0
 62
256
370
-1
 48
1.0
  6
ByLayer
 10
21.779999999999973
 20
-85.500000000000114
 30
0.0
 11
21.7800000000002
 21
-111.56000000000006
 31
0.0
  0
LINE
  5
1EB
100
AcDbEntity
100
AcDbLine
  8
0
 62
256
370
-1
 48
1.0
  6
ByLayer
 10
21.7800000000002
 20
-111.56000000000006
 30
0.0
 11
28.499999999999858
 21
-111.56000000000012
 31
0.0
  0
LINE
  5
1EC
100
AcDbEntity
100
AcDbLine
  8
0
 62
256
370
-1
 48
1.0
  6
ByLayer
 10
28.499999999999858
 20
-111.56000000000012
 30
0.0
 11
28.500000000000142
 21
100.0
 31
0.0
  0
LINE
  5
1ED
100
AcDbEntity
100
AcDbLine
  8
0
 62
256
370
-1
 48
1.0
  6
ByLayer
 10
28.500000000000142
 20
100.0
 30
0.0
 11
35.0
 21
99.999999999999829
 31
0.0
  0
LINE
  5
1EE
100
AcDbEntity
100
AcDbLine
  8
0
 62
256
370
-1
 48
1.0
  6
ByLayer
 10
35.0
 20
99.999999999999829
 30
0.0
 11
34.999999999999773
 21
105.87999999999982
 31
0.0
  0
LINE
  5
1EF
100
AcDbEntity
100
AcDbLine
  8
0
 62
256
370
-1
 48
1.0
  6
ByLayer
 10
34.999999999999773
 20
105.87999999999982
 30
0.0
 11
28.500000000000114
 21
105.88000000000017
 31
0.0
  0
LINE
  5
1F0
100
AcDbEntity
100
AcDbLine
  8
0
 62
256
370
-1
 48
1.0
  6
ByLayer
 10
28.499999999999915
 20
240.87999999999991
 30
0.0
 11
31.650000000000034
 21
240.87999999999991
 31
0.0
  0
LINE
  5
1F1
100
AcDbEntity
100
AcDbLine
  8
0
 62
256
370
-1
 48
1.0
  6
ByLayer
 10
31.650000000000034
 20
240.87999999999991
 30
0.0
 11
31.650000000000034
 21
290.87999999999977
 31
0.0
  0
LINE
  5
1F2
100
AcDbEntity
100
AcDbLine
  8
0
 62
256
370
-1
 48
1.0
  6
ByLayer
 10
31.650000000000034
 20
290.87999999999977
 30
0.0
 11
28.499999999999972
 21
290.88
 31
0.0
  0
LINE
  5
1F3
100
AcDbEntity
100
AcDbLine
  8
0
 62
256
370
-1
 48
1.0
  6
ByLayer
 10
-152.5
 20
290.88
 30
0.0
 11
-155.65000000000009
 21
290.87999999999977
 31
0.0
  0
LINE
  5
1F4
100
AcDbEntity
100
AcDbLine
  8
0
 62
256
370
-1
 48
1.0
  6
ByLayer
 10
-155.65000000000009
 20
290.87999999999977
 30
0.0
 11
-155.65000000000012
 21
240.87999999999997
 31
0.0
  0
LINE
  5
1F5
100
AcDbEntity
100
AcDbLine
  8
0
 62
256
370
-1
 48
1.0
  6
ByLayer
 10
-155.65000000000012
 20
240.87999999999997
 30
0.0
 11
-152.50000000000003
 21
240.88
 31
0.0
  0
LINE
  5
1F6
100
AcDbEntity
100
AcDbLine
  8
0
 62
256
370
-1
 48
1.0
  6
ByLayer
 10
-152.5
 20
105.88
 30
0.0
 11
-159.00000000000003
 21
105.88
 31
0.0
  0
LINE
  5
1F7
100
AcDbEntity
100
AcDbLine
  8
0
 62
256
370
-1
 48
1.0
  6
ByLayer
 10
-159.00000000000003
 20
105.88
 30
0.0
 11
-159.00000000000017
 21
99.999999999999886
 31
0.0
  0
LINE
  5
1F8
100
AcDbEntity
100
AcDbLine
  8
0
 62
256
370
-1
 48
1.0
  6
ByLayer
 10
-159.00000000000017
 20
99.999999999999886
 30
0.0
 11
-152.50000000000009
 21
99.999999999999886
 31
0.0
  0
LINE
  5
1F9
100
AcDbEntity
100
AcDbLine
  8
0
 62
256
370
-1
 48
1.0
  6
ByLayer
 10
-152.50000000000009
 20
99.999999999999886
 30
0.0
 11
-152.49999999999994
 21
-111.56000000000006
 31
0.0
  0
LINE
  5
1FA
100
AcDbEntity
100
AcDbLine
  8
0
 62
256
370
-1
 48
1.0
  6
ByLayer
 10
-152.49999999999994
 20
-111.56000000000006
 30
0.0
 11
-145.77999999999969
 21
-111.56
 31
0.0
  0
LINE
  5
1FB
100
AcDbEntity
100
AcDbLine
  8
0
 62
256
370
-1
 48
1.0
  6
ByLayer
 10
-145.77999999999969
 20
-111.56
 30
0.0
 11
-145.77999999999986
 21
-85.500000000000114
 31
0.0
  0
LINE
  5
1FC
100
AcDbEntity
100
AcDbLine
  8
0
 62
256
370
-1
 48
1.0
  6
ByLayer
 10
-145.77999999999986
 20
-85.500000000000114
 30
0.0
 11
-67.999999999999986
 21
-85.500000000000114
 31
0.0
  0
LINE
  5
1FD
100
AcDbEntity
100
AcDbLine
  8
0
 62
256
370
-1
 48
1.0
  6
ByLayer
 10
112.50666666666774
 20
105.88000000000008
 30
0.0
 11
90.253333333334695
 21
105.88000000000008
 31
0.0
  0
LINE
  5
1FE
100
AcDbEntity
100
AcDbLine
  8
0
 62
256
370
-1
 48
1.0
  6
ByLayer
 10
90.253333333334695
 20
105.88000000000008
 30
0.0
 11
90.253333333334567
 21
99.999999999999972
 31
0.0
  0
LINE
  5
1FF
100
AcDbEntity
100
AcDbLine
  8
0
 62
256
370
-1
 48
1.0
  6
ByLayer
 10
90.253333333334567
 20
99.999999999999972
 30
0.0
 11
112.5066666666676
 21
100.00000000000003
 31
0.0
  0
LINE
  5
200
100
AcDbEntity
100
AcDbLine
  8
0
 62
256
370
-1
 48
1.0
  6
ByLayer
 10
112.5066666666676
 20
100.00000000000003
 30
0.0
 11
112.50666666666774
 21
105.88000000000008
 31
0.0
  0
LINE
  5
201
100
AcDbEntity
100
AcDbLine
  8
0
 62
256
370
-1
 48
1.0
  6
ByLayer
 10
68.000000000001094
 20
118.09999999999991
 30
0.0
 11
72.280000000001209
 21
118.09999999999991
 31
0.0
  0
LINE
  5
202
100
AcDbEntity
100
AcDbLine
  8
0
 62
256
370
-1
 48
1.0
  6
ByLayer
 10
72.280000000001209
 20
118.09999999999991
 30
0.0
 11
72.280000000001209
 21
117.0
 31
0.0
  0
ARC
  5
203
100
AcDbEntity
  8
0
 62
256
370
-1
 48
1.0
  6
ByLayer
100
AcDbCircle
 10
72.280000000001237
 20
116.74999999999993
 30
0.0
 40
0.2500000000000651
100
AcDbArc
 50
90.000000000006509
 51
0.0
  0
LINE
  5
204
100
AcDbEntity
100
AcDbLine
  8
0
 62
256
370
-1
 48
1.0
  6
ByLayer
 10
72.530000000001309
 20
116.74999999999997
 30
0.0
 11
75.030000000001223
 21
116.75
 31
0.0
  0
ARC
  5
205
100
AcDbEntity
  8
0
 62
256
370
-1
 48
1.0
  6
ByLayer
100
AcDbCircle
 10
75.280000000001195
 20
116.75000000000003
 30
0.0
 40
0.2499999999999787
100
AcDbArc
 50
180.0
 51
90.000000000003254
  0
LINE
  5
206
100
AcDbEntity
100
AcDbLine
  8
0
 62
256
370
-1
 48
1.0
  6
ByLayer
 10
75.280000000001181
 20
117.0
 30
0.0
 11
75.280000000001294
 21
118.09999999999991
 31
0.0
  0
LINE
  5
207
100
AcDbEntity
100
AcDbLine
  8
0
 62
256
370
-1
 48
1.0
  6
ByLayer
 10
75.280000000001294
 20
118.09999999999991
 30
0.0
 11
77.280000000001337
 21
118.09999999999991
 31
0.0
  0
LINE
  5
208
100
AcDbEntity
100
AcDbLine
  8
0
 62
256
370
-1
 48
1.0
  6
ByLayer
 10
77.280000000001337
 20
118.09999999999991
 30
0.0
 11
77.280000000001223
 21
121.40000000000006
 31
0.0
  0
LINE
  5
209
100
AcDbEntity
100
AcDbLine
  8
0
 62
256
370
-1
 48
1.0
  6
ByLayer
 10
77.280000000001223
 20
121.40000000000006
 30
0.0
 11
75.280000000001223
 21
121.40000000000009
 31
0.0
  0
LINE
  5
20A
100
AcDbEntity
100
AcDbLine
  8
0
 62
256
370
-1
 48
1.0
  6
ByLayer
 10
75.280000000001223
 20
121.40000000000009
 30
0.0
 11
75.280000000001337
 21
122.49999999999997
 31
0.0
  0
ARC
  5
20B
100
AcDbEntity
  8
0
 62
256
370
-1
 48
1.0
  6
ByLayer
100
AcDbCircle
 10
75.280000000001323
 20
122.75000000000001
 30
0.0
 40
0.2500000000000426
100
AcDbArc
 50
270.00000000000324
 51
180.0
  0
LINE
  5
20C
100
AcDbEntity
100
AcDbLine
  8
0
 62
256
370
-1
 48
1.0
  6
ByLayer
 10
75.03000000000128
 20
122.75
 30
0.0
 11
72.530000000001223
 21
122.74999999999997
 31
0.0
  0
ARC
  5
20D
100
AcDbEntity
  8
0
 62
256
370
-1
 48
1.0
  6
ByLayer
100
AcDbCircle
 10
72.280000000001237
 20
122.74999999999999
 30
0.0
 40
0.2499999999999858
100
AcDbArc
 50
360.0
 51
269.99999999999676
  0
LINE
  5
20E
100
AcDbEntity
100
AcDbLine
  8
0
 62
256
370
-1
 48
1.0
  6
ByLayer
 10
72.280000000001223
 20
122.5
 30
0.0
 11
72.280000000001138
 21
121.40000000000009
 31
0.0
  0
LINE
  5
20F
100
AcDbEntity
100
AcDbLine
  8
0
 62
256
370
-1
 48
1.0
  6
ByLayer
 10
72.280000000001138
 20
121.40000000000009
 30
0.0
 11
68.000000000001066
 21
121.40000000000006
 31
0.0
  0
LINE
  5
210
100
AcDbEntity
100
AcDbLine
  8
0
 62
256
370
-1
 48
1.0
  6
ByLayer
 10
68.00000000000108
 20
373.59999999999991
 30
0.0
 11
72.600000000001316
 21
373.59999999999991
 31
0.0
  0
LINE
  5
211
100
AcDbEntity
100
AcDbLine
  8
0
 62
256
370
-1
 48
1.0
  6
ByLayer
 10
72.600000000001316
 20
373.59999999999991
 30
0.0
 11
72.600000000000904
 21
372.5
 31
0.0
  0
ARC
  5
212
100
AcDbEntity
  8
0
 62
256
370
-1
 48
1.0
  6
ByLayer
100
AcDbCircle
 10
72.600000000000875
 20
372.25
 30
0.0
 40
0.2499999999999787
100
AcDbArc
 50
89.999999999993491
 51
0.0
  0
LINE
  5
213
100
AcDbEntity
100
AcDbLine
  8
0
 62
256
370
-1
 48
1.0
  6
ByLayer
 10
72.850000000000861
 20
372.25
 30
0.0
 11
75.350000000001103
 21
372.25
 31
0.0
  0
ARC
  5
214
100
AcDbEntity
  8
0
 62
256
370
-1
 48
1.0
  6
ByLayer
100
AcDbCircle
 10
75.60000000000116
 20
372.24999999999994
 30
0.0
 40
0.2500000000000568
100
AcDbArc
 50
180.0
 51
89.999999999986969
  0
LINE
  5
215
100
AcDbEntity
100
AcDbLine
  8
0
 62
256
370
-1
 48
1.0
  6
ByLayer
 10
75.600000000001216
 20
372.5
 30
0.0
 11
75.600000000000989
 21
373.59999999999985
 31
0.0
  0
LINE
  5
216
100
AcDbEntity
100
AcDbLine
  8
0
 62
256
370
-1
 48
1.0
  6
ByLayer
 10
75.600000000000989
 20
373.59999999999985
 30
0.0
 11
77.600000000001131
 21
373.59999999999991
 31
0.0
  0
LINE
  5
217
100
AcDbEntity
100
AcDbLine
  8
0
 62
256
370
-1
 48
1.0
  6
ByLayer
 10
77.600000000001131
 20
373.59999999999991
 30
0.0
 11
77.600000000000975
 21
376.89999999999986
 31
0.0
  0
LINE
  5
218
100
AcDbEntity
100
AcDbLine
  8
0
 62
256
370
-1
 48
1.0
  6
ByLayer
 10
77.600000000000975
 20
376.89999999999986
 30
0.0
 11
75.600000000001174
 21
376.89999999999981
 31
0.0
  0
LINE
  5
219
100
AcDbEntity
100
AcDbLine
  8
0
 62
256
370
-1
 48
1.0
  6
ByLayer
 10
75.600000000001174
 20
376.89999999999981
 30
0.0
 11
75.600000000001103
 21
377.99999999999989
 31
0.0
  0
ARC
  5
21A
100
AcDbEntity
  8
0
 62
256
370
-1
 48
1.0
  6
ByLayer
100
AcDbCircle
 10
75.600000000001017
 20
378.25
 30
0.0
 40
0.2500000000000924
100
AcDbArc
 50
270.00000000001955
 51
180.0
  0
LINE
  5
21B
100
AcDbEntity
100
AcDbLine
  8
0
 62
256
370
-1
 48
1.0
  6
ByLayer
 10
75.350000000000918
 20
378.24999999999989
 30
0.0
 11
72.850000000001074
 21
378.24999999999994
 31
0.0
  0
ARC
  5
21C
100
AcDbEntity
  8
0
 62
256
370
-1
 48
1.0
  6
ByLayer
100
AcDbCircle
 10
72.600000000000904
 20
378.25
 30
0.0
 40
0.2500000000001634
100
AcDbArc
 50
360.0
 51
269.99999999997721
  0
LINE
  5
21D
100
AcDbEntity
100
AcDbLine
  8
0
 62
256
370
-1
 48
1.0
  6
ByLayer
 10
72.600000000000804
 20
377.99999999999989
 30
0.0
 11
72.600000000001046
 21
376.89999999999986
 31
0.0
  0
LINE
  5
21E
100
AcDbEntity
100
AcDbLine
  8
0
 62
256
370
-1
 48
1.0
  6
ByLayer
 10
72.600000000001046
 20
376.89999999999986
 30
0.0
 11
68.000000000001236
 21
376.89999999999986
 31
0.0
  0
LINE
  5
21F
100
AcDbEntity
100
AcDbLine
  8
0
 62
256
370
-1
 48
1.0
  6
ByLayer
 10
68.000000000001748
 20
395.0
 30
0.0
 11
90.253333333334751
 21
394.99999999999977
 31
0.0
  0
LINE
  5
220
100
AcDbEntity
100
AcDbLine
  8
0
 62
256
370
-1
 48
1.0
  6
ByLayer
 10
90.253333333334751
 20
394.99999999999977
 30
0.0
 11
90.253333333334908
 21
388.27999999999997
 31
0.0
  0
LINE
  5
221
100
AcDbEntity
100
AcDbLine
  8
0
 62
256
370
-1
 48
1.0
  6
ByLayer
 10
90.253333333334908
 20
388.27999999999997
 30
0.0
 11
99.730000000001496
 21
388.27999999999997
 31
0.0
  0
LINE
  5
222
100
AcDbEntity
100
AcDbLine
  8
0
 62
256
370
-1
 48
1.0
  6
ByLayer
 10
99.730000000001496
 20
388.27999999999997
 30
0.0
 11
99.730000000001738
 21
383.68000000000001
 31
0.0
  0
LINE
  5
223
100
AcDbEntity
100
AcDbLine
  8
0
 62
256
370
-1
 48
1.0
  6
ByLayer
 10
99.730000000001738
 20
383.68000000000001
 30
0.0
 11
98.630000000001445
 21
383.68000000000001
 31
0.0
  0
ARC
  5
224
100
AcDbEntity
  8
0
 62
256
370
-1
 48
1.0
  6
ByLayer
100
AcDbCircle
 10
98.380000000001573
 20
383.67999999999967
 30
0.0
 40
0.2499999999998721
100
AcDbArc
 50
0.0
 51
270.0000000000814
  0
LINE
  5
225
100
AcDbEntity
100
AcDbLine
  8
0
 62
256
370
-1
 48
1.0
  6
ByLayer
 10
98.380000000001928
 20
383.42999999999978
 30
0.0
 11
98.380000000001615
 21
380.92999999999978
 31
0.0
  0
ARC
  5
226
100
AcDbEntity
  8
0
 62
256
370
-1
 48
1.0
  6
ByLayer
100
AcDbCircle
 10
98.380000000001729
 20
380.67999999999978
 30
0.0
 40
0.2500000000000568
100
AcDbArc
 50
90.000000000026063
 51
0.0
  0
LINE
  5
227
100
AcDbEntity
100
AcDbLine
  8
0
 62
256
370
-1
 48
1.0
  6
ByLayer
 10
98.630000000001786
 20
380.67999999999984
 30
0.0
 11
99.730000000001482
 21
380.67999999999984
 31
0.0
  0
LINE
  5
228
100
AcDbEntity
100
AcDbLine
  8
0
 62
256
370
-1
 48
1.0
  6
ByLayer
 10
99.730000000001482
 20
380.67999999999984
 30
0.0
 11
99.730000000001553
 21
378.67999999999978
 31
0.0
  0
LINE
  5
229
100
AcDbEntity
100
AcDbLine
  8
0
 62
256
370
-1
 48
1.0
  6
ByLayer
 10
99.730000000001553
 20
378.67999999999978
 30
0.0
 11
103.03000000000183
 21
378.67999999999984
 31
0.0
  0
LINE
  5
22A
100
AcDbEntity
100
AcDbLine
  8
0
 62
256
370
-1
 48
1.0
  6
ByLayer
 10
103.03000000000183
 20
378.67999999999984
 30
0.0
 11
103.03000000000208
 21
380.67999999999984
 31
0.0
  0
LINE
  5
22B
100
AcDbEntity
100
AcDbLine
  8
0
 62
256
370
-1
 48
1.0
  6
ByLayer
 10
103.03000000000208
 20
380.67999999999984
 30
0.0
 11
104.13000000000184
 21
380.67999999999978
 31
0.0
  0
ARC
  5
22C
100
AcDbEntity
  8
0
 62
256
370
-1
 48
1.0
  6
ByLayer
100
AcDbCircle
 10
104.38000000000171
 20
380.68000000000001
 30
0.0
 40
0.2499999999998721
100
AcDbArc
 50
180.0
 51
90.000000000042348
  0
LINE
  5
22D
100
AcDbEntity
100
AcDbLine
  8
0
 62
256
370
-1
 48
1.0
  6
ByLayer
 10
104.38000000000153
 20
380.92999999999984
 30
0.0
 11
104.38000000000159
 21
383.42999999999984
 31
0.0
  0
ARC
  5
22E
100
AcDbEntity
  8
0
 62
256
370
-1
 48
1.0
  6
ByLayer
100
AcDbCircle
 10
104.38000000000167
 20
383.67999999999995
 30
0.0
 40
0.2500000000000782
100
AcDbArc
 50
269.99999999998045
 51
180.0
  0
LINE
  5
22F
100
AcDbEntity
100
AcDbLine
  8
0
 62
256
370
-1
 48
1.0
  6
ByLayer
 10
104.1300000000016
 20
383.68000000000001
 30
0.0
 11
103.03000000000192
 21
383.68000000000006
 31
0.0
  0
LINE
  5
230
100
AcDbEntity
100
AcDbLine
  8
0
 62
256
370
-1
 48
1.0
  6
ByLayer
 10
103.03000000000192
 20
383.68000000000006
 30
0.0
 11
103.03000000000183
 21
388.27999999999997
 31
0.0
  0
LINE
  5
231
100
AcDbEntity
100
AcDbLine
  8
0
 62
256
370
-1
 48
1.0
  6
ByLayer
 10
103.03000000000183
 20
388.27999999999997
 30
0.0
 11
112.50666666666814
 21
388.27999999999997
 31
0.0
  0
LINE
  5
232
100
AcDbEntity
100
AcDbLine
  8
0
 62
256
370
-1
 48
1.0
  6
ByLayer
 10
112.50666666666814
 20
388.27999999999997
 30
0.0
 11
112.50666666666834
 21
394.99999999999989
 31
0.0
  0
LINE
  5
233
100
AcDbEntity
100
AcDbLine
  8
0
 62
256
370
-1
 48
1.0
  6
ByLayer
 10
112.50666666666834
 20
394.99999999999989
 30
0.0
 11
134.76000000000124
 21
394.99999999999989
 31
0.0
  0
LINE
  5
234
100
AcDbEntity
100
AcDbLine
  8
0
 62
256
370
-1
 48
1.0
  6
ByLayer
 10
134.76000000000124
 20
394.99999999999989
 30
0.0
 11
134.76000000000136
 21
376.89999999999986
 31
0.0
  0
LINE
  5
235
100
AcDbEntity
100
AcDbLine
  8
0
 62
256
370
-1
 48
1.0
  6
ByLayer
 10
134.76000000000136
 20
376.89999999999986
 30
0.0
 11
130.1600000000015
 21
376.89999999999981
 31
0.0
  0
LINE
  5
236
100
AcDbEntity
100
AcDbLine
  8
0
 62
256
370
-1
 48
1.0
  6
ByLayer
 10
130.1600000000015
 20
376.89999999999981
 30
0.0
 11
130.16000000000133
 21
377.99999999999989
 31
0.0
  0
ARC
  5
237
100
AcDbEntity
  8
0
 62
256
370
-1
 48
1.0
  6
ByLayer
100
AcDbCircle
 10
130.16000000000133
 20
378.24999999999989
 30
0.0
 40
0.25
100
AcDbArc
 50
270.0
 51
180.0
  0
LINE
  5
238
100
AcDbEntity
100
AcDbLine
  8
0
 62
256
370
-1
 48
1.0
  6
ByLayer
 10
129.91000000000133
 20
378.24999999999989
 30
0.0
 11
127.41000000000135
 21
378.24999999999983
 31
0.0
  0
ARC
  5
239
100
AcDbEntity
  8
0
 62
256
370
-1
 48
1.0
  6
ByLayer
100
AcDbCircle
 10
127.16000000000136
 20
378.24999999999983
 30
0.0
 40
0.2499999999999858
100
AcDbArc
 50
0.0
 51
270.00000000000324
  0
LINE
  5
23A
100
AcDbEntity
100
AcDbLine
  8
0
 62
256
370
-1
 48
1.0
  6
ByLayer
 10
127.16000000000138
 20
377.99999999999983
 30
0.0
 11
127.16000000000153
 21
376.89999999999981
 31
0.0
  0
LINE
  5
23B
100
AcDbEntity
100
AcDbLine
  8
0
 62
256
370
-1
 48
1.0
  6
ByLayer
 10
127.16000000000153
 20
376.89999999999981
 30
0.0
 11
125.16000000000155
 21
376.89999999999986
 31
0.0
  0
LINE
  5
23C
100
AcDbEntity
100
AcDbLine
  8
0
 62
256
370
-1
 48
1.0
  6
ByLayer
 10
125.16000000000155
 20
376.89999999999986
 30
0.0
 11
125.1600000000013
 21
373.59999999999985
 31
0.0
  0
LINE
  5
23D
100
AcDbEntity
100
AcDbLine
  8
0
 62
256
370
-1
 48
1.0
  6
ByLayer
 10
125.1600000000013
 20
373.59999999999985
 30
0.0
 11
127.1600000000016
 21
373.59999999999985
 31
0.0
  0
LINE
  5
23E
100
AcDbEntity
100
AcDbLine
  8
0
 62
256
370
-1
 48
1.0
  6
ByLayer
 10
127.1600000000016
 20
373.59999999999985
 30
0.0
 11
127.16000000000126
 21
372.5
 31
0.0
  0
ARC
  5
23F
100
AcDbEntity
  8
0
 62
256
370
-1
 48
1.0
  6
ByLayer
100
AcDbCircle
 10
127.16000000000138
 20
372.24999999999989
 30
0.0
 40
0.2500000000001705
100
AcDbArc
 50
90.000000000026063
 51
0.0
  0
LINE
  5
240
100
AcDbEntity
100
AcDbLine
  8
0
 62
256
370
-1
 48
1.0
  6
ByLayer
 10
127.41000000000155
 20
372.24999999999994
 30
0.0
 11
129.91000000000162
 21
372.24999999999994
 31
0.0
  0
ARC
  5
241
100
AcDbEntity
  8
0
 62
256
370
-1
 48
1.0
  6
ByLayer
100
AcDbCircle
 10
130.16000000000159
 20
372.25000000000006
 30
0.0
 40
0.2499999999999858
100
AcDbArc
 50
180.0
 51
90.000000000013031
  0
LINE
  5
242
100
AcDbEntity
100
AcDbLine
  8
0
 62
256
370
-1
 48
1.0
  6
ByLayer
 10
130.16000000000153
 20
372.5
 30
0.0
 11
130.16000000000116
 21
373.59999999999991
 31
0.0
  0
LINE
  5
243
100
AcDbEntity
100
AcDbLine
  8
0
 62
256
370
-1
 48
1.0
  6
ByLayer
 10
130.16000000000116
 20
373.59999999999991
 30
0.0
 11
134.7600000000013
 21
373.59999999999985
 31
0.0
  0
LINE
  5
244
100
AcDbEntity
100
AcDbLine
  8
0
 62
256
370
-1
 48
1.0
  6
ByLayer
 10
134.7600000000013
 20
373.59999999999985
 30
0.0
 11
134.76000000000141
 21
121.40000000000003
 31
0.0
  0
LINE
  5
245
100
AcDbEntity
100
AcDbLine
  8
0
 62
256
370
-1
 48
1.0
  6
ByLayer
 10
134.76000000000141
 20
121.40000000000003
 30
0.0
 11
130.48000000000118
 21
121.40000000000001
 31
0.0
  0
LINE
  5
246
100
AcDbEntity
100
AcDbLine
  8
0
 62
256
370
-1
 48
1.0
  6
ByLayer
 10
130.48000000000118
 20
121.40000000000001
 30
0.0
 11
130.48000000000101
 21
122.49999999999997
 31
0.0
  0
ARC
  5
247
100
AcDbEntity
  8
0
 62
256
370
-1
 48
1.0
  6
ByLayer
100
AcDbCircle
 10
130.48000000000104
 20
122.74999999999991
 30
0.0
 40
0.2499999999999431
100
AcDbArc
 50
269.99999999999346
 51
180.0
  0
LINE
  5
248
100
AcDbEntity
100
AcDbLine
  8
0
 62
256
370
-1
 48
1.0
  6
ByLayer
 10
130.2300000000011
 20
122.74999999999994
 30
0.0
 11
127.73000000000116
 21
122.74999999999997
 31
0.0
  0
ARC
  5
249
100
AcDbEntity
  8
0
 62
256
370
-1
 48
1.0
  6
ByLayer
100
AcDbCircle
 10
127.4800000000011
 20
122.75000000000006
 30
0.0
 40
0.2500000000000568
100
AcDbArc
 50
360.0
 51
269.99999999998045
  0
LINE
  5
24A
100
AcDbEntity
100
AcDbLine
  8
0
 62
256
370
-1
 48
1.0
  6
ByLayer
 10
127.48000000000101
 20
122.5
 30
0.0
 11
127.48000000000111
 21
121.40000000000003
 31
0.0
  0
LINE
  5
24B
100
AcDbEntity
100
AcDbLine
  8
0
 62
256
370
-1
 48
1.0
  6
ByLayer
 10
127.48000000000111
 20
121.40000000000003
 30
0.0
 11
125.4800000000011
 21
121.40000000000006
 31
0.0
  0
LINE
  5
24C
100
AcDbEntity
100
AcDbLine
  8
0
 62
256
370
-1
 48
1.0
  6
ByLayer
 10
125.4800000000011
 20
121.40000000000006
 30
0.0
 11
125.48000000000118
 21
118.09999999999985
 31
0.0
  0
LINE
  5
24D
100
AcDbEntity
100
AcDbLine
  8
0
 62
256
370
-1
 48
1.0
  6
ByLayer
 10
125.48000000000118
 20
118.09999999999985
 30
0.0
 11
127.48000000000111
 21
118.09999999999991
 31
0.0
  0
LINE
  5
24E
100
AcDbEntity
100
AcDbLine
  8
0
 62
256
370
-1
 48
1.0
  6
ByLayer
 10
127.48000000000111
 20
118.09999999999991
 30
0.0
 11
127.480000000001
 21
116.99999999999997
 31
0.0
  0
ARC
  5
24F
100
AcDbEntity
  8
0
 62
256
370
-1
 48
1.0
  6
ByLayer
100
AcDbCircle
 10
127.48000000000107
 20
116.74999999999987
 30
0.0
 40
0.2500000000000995
100
AcDbArc
 50
90.000000000016286
 51
0.0
  0
LINE
  5
250
100
AcDbEntity
100
AcDbLine
  8
0
 62
256
370
-1
 48
1.0
  6
ByLayer
 10
127.73000000000117
 20
116.74999999999994
 30
0.0
 11
130.23000000000113
 21
116.74999999999994
 31
0.0
  0
ARC
  5
251
100
AcDbEntity
  8
0
 62
256
370
-1
 48
1.0
  6
ByLayer
100
AcDbCircle
 10
130.48000000000113
 20
116.74999999999997
 30
0.0
 40
0.2500000000000011
100
AcDbArc
 50
180.0
 51
90.000000000006509
  0
LINE
  5
252
100
AcDbEntity
100
AcDbLine
  8
0
 62
256
370
-1
 48
1.0
  6
ByLayer
 10
130.4800000000011
 20
116.99999999999997
 30
0.0
 11
130.4800000000011
 21
118.09999999999988
 31
0.0
  0
LINE
  5
253
100
AcDbEntity
100
AcDbLine
  8
0
 62
256
370
-1
 48
1.0
  6
ByLayer
 10
130.4800000000011
 20
118.09999999999988
 30
0.0
 11
134.76000000000127
 21
118.09999999999991
 31
0.0
  0
LINE
  5
254
100
AcDbEntity
100
AcDbLine
  8
0
 62
256
370
-1
 48
1.0
  6
ByLayer
 10
134.76000000000127
 20
118.09999999999991
 30
0.0
 11
134.76000000000127
 21
99.999999999999972
 31
0.0
  0
LINE
  5
255
100
AcDbEntity
100
AcDbLine
  8
0
 62
256
370
-1
 48
1.0
  6
ByLayer
 10
134.76000000000127
 20
99.999999999999972
 30
0.0
 11
141.48000000000104
 21
99.999999999999972
 31
0.0
  0
LINE
  5
256
100
AcDbEntity
100
AcDbLine
  8
0
 62
256
370
-1
 48
1.0
  6
ByLayer
 10
141.48000000000104
 20
99.999999999999972
 30
0.0
 11
141.48000000000098
 21
-125.00000000000001
 31
0.0
  0
LINE
  5
257
100
AcDbEntity
100
AcDbLine
  8
0
 62
256
370
-1
 48
1.0
  6
ByLayer
 10
141.48000000000098
 20
-125.00000000000001
 30
0.0
 11
112.50666666666763
 21
-125.00000000000001
 31
0.0
  0
LINE
  5
258
100
AcDbEntity
100
AcDbLine
  8
0
 62
256
370
-1
 48
1.0
  6
ByLayer
 10
112.50666666666763
 20
-125.00000000000001
 30
0.0
 11
112.50666666666763
 21
-118.27999999999997
 31
0.0
  0
LINE
  5
259
100
AcDbEntity
100
AcDbLine
  8
0
 62
256
370
-1
 48
1.0
  6
ByLayer
 10
112.50666666666763
 20
-118.27999999999997
 30
0.0
 11
103.03000000000071
 21
-118.28
 31
0.0
  0
LINE
  5
25A
100
AcDbEntity
100
AcDbLine
  8
0
 62
256
370
-1
 48
1.0
  6
ByLayer
 10
103.03000000000071
 20
-118.28
 30
0.0
 11
103.03000000000073
 21
-113.68000000000011
 31
0.0
  0
LINE
  5
25B
100
AcDbEntity
100
AcDbLine
  8
0
 62
256
370
-1
 48
1.0
  6
ByLayer
 10
103.03000000000073
 20
-113.68000000000011
 30
0.0
 11
104.13000000000108
 21
-113.68000000000008
 31
0.0
  0
ARC
  5
25C
100
AcDbEntity
  8
0
 62
256
370
-1
 48
1.0
  6
ByLayer
100
AcDbCircle
 10
104.38000000000106
 20
-113.68000000000009
 30
0.0
 40
0.2499999999999929
100
AcDbArc
 50
180.0
 51
89.999999999996746
  0
LINE
  5
25D
100
AcDbEntity
100
AcDbLine
  8
0
 62
256
370
-1
 48
1.0
  6
ByLayer
 10
104.38000000000108
 20
-113.43000000000009
 30
0.0
 11
104.38000000000108
 21
-110.93000000000006
 31
0.0
  0
ARC
  5
25E
100
AcDbEntity
  8
0
 62
256
370
-1
 48
1.0
  6
ByLayer
100
AcDbCircle
 10
104.38000000000108
 20
-110.68000000000006
 30
0.0
 40
0.2499999999999929
100
AcDbArc
 50
270.0
 51
180.0
  0
LINE
  5
25F
100
AcDbEntity
100
AcDbLine
  8
0
 62
256
370
-1
 48
1.0
  6
ByLayer
 10
104.13000000000108
 20
-110.68000000000008
 30
0.0
 11
103.03000000000071
 21
-110.68000000000008
 31
0.0
  0
LINE
  5
260
100
AcDbEntity
100
AcDbLine
  8
0
 62
256
370
-1
 48
1.0
  6
ByLayer
 10
103.03000000000071
 20
-110.68000000000008
 30
0.0
 11
103.03000000000073
 21
-108.68000000000009
 31
0.0
  0
LINE
  5
261
100
AcDbEntity
100
AcDbLine
  8
0
 62
256
370
-1
 48
1.0
  6
ByLayer
 10
103.03000000000073
 20
-108.68000000000009
 30
0.0
 11
99.730000000000999
 21
-108.68000000000009
 31
0.0
  0
LINE
  5
262
100
AcDbEntity
100
AcDbLine
  8
0
 62
256
370
-1
 48
1.0
  6
ByLayer
 10
99.730000000000999
 20
-108.68000000000009
 30
0.0
 11
99.730000000000985
 21
-110.68000000000008
 31
0.0
  0
LINE
  5
263
100
AcDbEntity
100
AcDbLine
  8
0
 62
256
370
-1
 48
1.0
  6
ByLayer
 10
99.730000000000985
 20
-110.68000000000008
 30
0.0
 11
98.63000000000109
 21
-110.68000000000009
 31
0.0
  0
ARC
  5
264
100
AcDbEntity
  8
0
 62
256
370
-1
 48
1.0
  6
ByLayer
100
AcDbCircle
 10
98.38000000000109
 20
-110.68000000000008
 30
0.0
 40
0.25
100
AcDbArc
 50
360.0
 51
269.99999999999676
  0
LINE
  5
265
100
AcDbEntity
100
AcDbLine
  8
0
 62
256
370
-1
 48
1.0
  6
ByLayer
 10
98.380000000001075
 20
-110.93000000000008
 30
0.0
 11
98.380000000001075
 21
-113.43000000000006
 31
0.0
  0
ARC
  5
266
100
AcDbEntity
  8
0
 62
256
370
-1
 48
1.0
  6
ByLayer
100
AcDbCircle
 10
98.380000000001075
 20
-113.68000000000006
 30
0.0
 40
0.25
100
AcDbArc
 50
90.0
 51
0.0
  0
LINE
  5
267
100
AcDbEntity
100
AcDbLine
  8
0
 62
256
370
-1
 48
1.0
  6
ByLayer
 10
98.630000000001075
 20
-113.68000000000006
 30
0.0
 11
99.730000000000985
 21
-113.68000000000006
 31
0.0
  0
LINE
  5
268
100
AcDbEntity
100
AcDbLine
  8
0
 62
256
370
-1
 48
1.0
  6
ByLayer
 10
99.730000000000985
 20
-113.68000000000006
 30
0.0
 11
99.730000000000985
 21
-118.28
 31
0.0
  0
LINE
  5
269
100
AcDbEntity
100
AcDbLine
  8
0
 62
256
370
-1
 48
1.0
  6
ByLayer
 10
99.730000000000985
 20
-118.28
 30
0.0
 11
90.253333333334069
 21
-118.27999999999999
 31
0.0
  0
LINE
  5
26A
100
AcDbEntity
100
AcDbLine
  8
0
 62
256
370
-1
 48
1.0
  6
ByLayer
 10
90.253333333334069
 20
-118.27999999999999
 30
0.0
 11
90.253333333334069
 21
-125.0
 31
0.0
  0
LINE
  5
26B
100
AcDbEntity
100
AcDbLine
  8
0
 62
256
370
-1
 48
1.0
  6
ByLayer
 10
90.253333333334069
 20
-125.0
 30
0.0
 11
61.280000000000712
 21
-125.0
 31
0.0
  0
LINE
  5
26C
100
AcDbEntity
100
AcDbLine
  8
0
 62
256
370
-1
 48
1.0
  6
ByLayer
 10
-105.33333333333303
 20
-301.7699999999993
 30
0.0
 11
-101.05333333333306
 21
-301.7699999999993
 31
0.0
  0
LINE
  5
26D
100
AcDbEntity
100
AcDbLine
  8
0
 62
256
370
-1
 48
1.0
  6
ByLayer
 10
-101.05333333333306
 20
-301.7699999999993
 30
0.0
 11
-101.05333333333306
 21
-302.86999999999921
 31
0.0
  0
ARC
  5
26E
100
AcDbEntity
  8
0
 62
256
370
-1
 48
1.0
  6
ByLayer
100
AcDbCircle
 10
-101.05333333333306
 20
-303.11999999999921
 30
0.0
 40
0.25
100
AcDbArc
 50
90.0
 51
0.0
  0
LINE
  5
26F
100
AcDbEntity
100
AcDbLine
  8
0
 62
256
370
-1
 48
1.0
  6
ByLayer
 10
-100.80333333333306
 20
-303.11999999999921
 30
0.0
 11
-98.303333333333057
 21
-303.11999999999921
 31
0.0
  0
ARC
  5
270
100
AcDbEntity
  8
0
 62
256
370
-1
 48
1.0
  6
ByLayer
100
AcDbCircle
 10
-98.053333333333057
 20
-303.11999999999921
 30
0.0
 40
0.25
100
AcDbArc
 50
180.0
 51
90.0
  0
LINE
  5
271
100
AcDbEntity
100
AcDbLine
  8
0
 62
256
370
-1
 48
1.0
  6
ByLayer
 10
-98.053333333333057
 20
-302.86999999999921
 30
0.0
 11
-98.053333333333057
 21
-301.7699999999993
 31
0.0
  0
LINE
  5
272
100
AcDbEntity
100
AcDbLine
  8
0
 62
256
370
-1
 48
1.0
  6
ByLayer
 10
-98.053333333333057
 20
-301.7699999999993
 30
0.0
 11
-96.053333333333057
 21
-301.7699999999993
 31
0.0
  0
LINE
  5
273
100
AcDbEntity
100
AcDbLine
  8
0
 62
256
370
-1
 48
1.0
  6
ByLayer
 10
-96.053333333333057
 20
-301.7699999999993
 30
0.0
 11
-96.053333333333057
 21
-298.46999999999935
 31
0.0
  0
LINE
  5
274
100
AcDbEntity
100
AcDbLine
  8
0
 62
256
370
-1
 48
1.0
  6
ByLayer
 10
-96.053333333333057
 20
-298.46999999999935
 30
0.0
 11
-98.053333333333057
 21
-298.46999999999935
 31
0.0
  0
LINE
  5
275
100
AcDbEntity
100
AcDbLine
  8
0
 62
256
370
-1
 48
1.0
  6
ByLayer
 10
-98.053333333333057
 20
-298.46999999999935
 30
0.0
 11
-98.053333333333057
 21
-297.36999999999921
 31
0.0
  0
ARC
  5
276
100
AcDbEntity
  8
0
 62
256
370
-1
 48
1.0
  6
ByLayer
100
AcDbCircle
 10
-98.053333333333057
 20
-297.11999999999921
 30
0.0
 40
0.2499999999999929
100
AcDbArc
 50
270.0
 51
180.0
  0
LINE
  5
277
100
AcDbEntity
100
AcDbLine
  8
0
 62
256
370
-1
 48
1.0
  6
ByLayer
 10
-98.303333333333043
 20
-297.11999999999921
 30
0.0
 11
-100.80333333333304
 21
-297.11999999999921
 31
0.0
  0
ARC
  5
278
100
AcDbEntity
  8
0
 62
256
370
-1
 48
1.0
  6
ByLayer
100
AcDbCircle
 10
-101.05333333333304
 20
-297.11999999999921
 30
0.0
 40
0.25
100
AcDbArc
 50
0.0
 51
270.0
  0
LINE
  5
279
100
AcDbEntity
100
AcDbLine
  8
0
 62
256
370
-1
 48
1.0
  6
ByLayer
 10
-101.05333333333304
 20
-297.36999999999921
 30
0.0
 11
-101.05333333333306
 21
-298.46999999999935
 31
0.0
  0
LINE
  5
27A
100
AcDbEntity
100
AcDbLine
  8
0
 62
256
370
-1
 48
1.0
  6
ByLayer
 10
-101.05333333333306
 20
-298.46999999999935
 30
0.0
 11
-105.33333333333303
 21
-298.46999999999935
 31
0.0
  0
LINE
  5
27B
100
AcDbEntity
100
AcDbLine
  8
0
 62
256
370
-1
 48
1.0
  6
ByLayer
 10
-105.33333333333303
 20
-298.46999999999935
 30
0.0
 11
-105.33333333333302
 21
-272.39999999999941
 31
0.0
  0
LINE
  5
27C
100
AcDbEntity
100
AcDbLine
  8
0
 62
256
370
-1
 48
1.0
  6
ByLayer
 10
-105.33333333333302
 20
-272.39999999999941
 30
0.0
 11
-98.613333333332989
 21
-272.39999999999941
 31
0.0
  0
LINE
  5
27D
100
AcDbEntity
100
AcDbLine
  8
0
 62
256
370
-1
 48
1.0
  6
ByLayer
 10
-98.613333333332989
 20
-272.39999999999941
 30
0.0
 11
-98.61333333333296
 21
-255.59999999999923
 31
0.0
  0
LINE
  5
27E
100
AcDbEntity
100
AcDbLine
  8
0
 62
256
370
-1
 48
1.0
  6
ByLayer
 10
68.946666666666999
 20
-255.59999999999945
 30
0.0
 11
68.946666666666943
 21
-272.3999999999993
 31
0.0
  0
LINE
  5
27F
100
AcDbEntity
100
AcDbLine
  8
0
 62
256
370
-1
 48
1.0
  6
ByLayer
 10
68.946666666666943
 20
-272.3999999999993
 30
0.0
 11
75.66666666666697
 21
-272.39999999999918
 31
0.0
  0
LINE
  5
280
100
AcDbEntity
100
AcDbLine
  8
0
 62
256
370
-1
 48
1.0
  6
ByLayer
 10
75.66666666666697
 20
-272.39999999999918
 30
0.0
 11
75.66666666666697
 21
-298.46999999999957
 31
0.0
  0
LINE
  5
281
100
AcDbEntity
100
AcDbLine
  8
0
 62
256
370
-1
 48
1.0
  6
ByLayer
 10
75.66666666666697
 20
-298.46999999999957
 30
0.0
 11
71.386666666666997
 21
-298.4699999999994
 31
0.0
  0
LINE
  5
282
100
AcDbEntity
100
AcDbLine
  8
0
 62
256
370
-1
 48
1.0
  6
ByLayer
 10
71.386666666666997
 20
-298.4699999999994
 30
0.0
 11
71.386666666667026
 21
-297.36999999999932
 31
0.0
  0
ARC
  5
283
100
AcDbEntity
  8
0
 62
256
370
-1
 48
1.0
  6
ByLayer
100
AcDbCircle
 10
71.386666666667153
 20
-297.11999999999921
 30
0.0
 40
0.2500000000001563
100
AcDbArc
 50
269.99999999997073
 51
180.0
  0
LINE
  5
284
100
AcDbEntity
100
AcDbLine
  8
0
 62
256
370
-1
 48
1.0
  6
ByLayer
 10
71.136666666666997
 20
-297.11999999999904
 30
0.0
 11
68.636666666666997
 21
-297.11999999999904
 31
0.0
  0
ARC
  5
285
100
AcDbEntity
  8
0
 62
256
370
-1
 48
1.0
  6
ByLayer
100
AcDbCircle
 10
68.386666666666912
 20
-297.1199999999991
 30
0.0
 40
0.2500000000000853
100
AcDbArc
 50
0.0
 51
270.00000000001955
  0
LINE
  5
286
100
AcDbEntity
100
AcDbLine
  8
0
 62
256
370
-1
 48
1.0
  6
ByLayer
 10
68.386666666666997
 20
-297.36999999999921
 30
0.0
 11
68.386666666666997
 21
-298.46999999999946
 31
0.0
  0
LINE
  5
287
100
AcDbEntity
100
AcDbLine
  8
0
 62
256
370
-1
 48
1.0
  6
ByLayer
 10
68.386666666666997
 20
-298.46999999999946
 30
0.0
 11
66.386666666666997
 21
-298.4699999999994
 31
0.0
  0
LINE
  5
288
100
AcDbEntity
100
AcDbLine
  8
0
 62
256
370
-1
 48
1.0
  6
ByLayer
 10
66.386666666666997
 20
-298.4699999999994
 30
0.0
 11
66.386666666666997
 21
-301.76999999999924
 31
0.0
  0
LINE
  5
289
100
AcDbEntity
100
AcDbLine
  8
0
 62
256
370
-1
 48
1.0
  6
ByLayer
 10
66.386666666666997
 20
-301.76999999999924
 30
0.0
 11
68.386666666666997
 21
-301.76999999999907
 31
0.0
  0
LINE
  5
28A
100
AcDbEntity
100
AcDbLine
  8
0
 62
256
370
-1
 48
1.0
  6
ByLayer
 10
68.386666666666997
 20
-301.76999999999907
 30
0.0
 11
68.386666666666997
 21
-302.86999999999875
 31
0.0
  0
ARC
  5
28B
100
AcDbEntity
  8
0
 62
256
370
-1
 48
1.0
  6
ByLayer
100
AcDbCircle
 10
68.386666666666713
 20
-303.11999999999904
 30
0.0
 40
0.2500000000002842
100
AcDbArc
 50
89.999999999934857
 51
360.0
  0
LINE
  5
28C
100
AcDbEntity
100
AcDbLine
  8
0
 62
256
370
-1
 48
1.0
  6
ByLayer
 10
68.636666666666997
 20
-303.11999999999932
 30
0.0
 11
71.136666666666997
 21
-303.11999999999921
 31
0.0
  0
ARC
  5
28D
100
AcDbEntity
  8
0
 62
256
370
-1
 48
1.0
  6
ByLayer
100
AcDbCircle
 10
71.386666666667054
 20
-303.11999999999915
 30
0.0
 40
0.2500000000000568
100
AcDbArc
 50
180.0
 51
90.000000000013031
  0
LINE
  5
28E
100
AcDbEntity
100
AcDbLine
  8
0
 62
256
370
-1
 48
1.0
  6
ByLayer
 10
71.386666666666997
 20
-302.8699999999991
 30
0.0
 11
71.386666666666997
 21
-301.76999999999936
 31
0.0
  0
LINE
  5
28F
100
AcDbEntity
100
AcDbLine
  8
0
 62
256
370
-1
 48
1.0
  6
ByLayer
 10
71.386666666666997
 20
-301.76999999999936
 30
0.0
 11
75.666666666666998
 21
-301.76999999999941
 31
0.0
  0
LINE
  5
290
100
AcDbEntity
100
AcDbLine
  8
0
 62
256
370
-1
 48
1.0
  6
ByLayer
 10
75.666666666666998
 20
-301.76999999999941
 30
0.0
 11
75.66666666666697
 21
-312.7199999999994
 31
0.0
  0
LINE
  5
291
100
AcDbEntity
100
AcDbLine
  8
0
 62
256
370
-1
 48
1.0
  6
ByLayer
 10
75.66666666666697
 20
-312.7199999999994
 30
0.0
 11
15.333333333333712
 21
-312.7199999999994
 31
0.0
  0
LINE
  5
292
100
AcDbEntity
100
AcDbLine
  8
0
 62
256
370
-1
 48
1.0
  6
ByLayer
 10
15.333333333333712
 20
-312.7199999999994
 30
0.0
 11
15.333333333333712
 21
-305.99999999999932
 31
0.0
  0
LINE
  5
293
100
AcDbEntity
100
AcDbLine
  8
0
 62
256
370
-1
 48
1.0
  6
ByLayer
 10
15.333333333333712
 20
-305.99999999999932
 30
0.0
 11
-13.183333333332939
 21
-305.99999999999937
 31
0.0
  0
LINE
  5
294
100
AcDbEntity
100
AcDbLine
  8
0
 62
256
370
-1
 48
1.0
  6
ByLayer
 10
-13.183333333332939
 20
-305.99999999999937
 30
0.0
 11
-13.183333333332939
 21
-301.71999999999935
 31
0.0
  0
LINE
  5
295
100
AcDbEntity
100
AcDbLine
  8
0
 62
256
370
-1
 48
1.0
  6
ByLayer
 10
-13.183333333332939
 20
-301.71999999999935
 30
0.0
 11
-12.08333333333303
 21
-301.7199999999994
 31
0.0
  0
ARC
  5
296
100
AcDbEntity
  8
0
 62
256
370
-1
 48
1.0
  6
ByLayer
100
AcDbCircle
 10
-11.83333333333305
 20
-301.71999999999946
 30
0.0
 40
0.2499999999999809
100
AcDbArc
 50
180.0
 51
89.999999999992269
  0
LINE
  5
297
100
AcDbEntity
100
AcDbLine
  8
0
 62
256
370
-1
 48
1.0
  6
ByLayer
 10
-11.833333333333016
 20
-301.46999999999946
 30
0.0
 11
-11.833333333333016
 21
-298.9699999999994
 31
0.0
  0
ARC
  5
298
100
AcDbEntity
  8
0
 62
256
370
-1
 48
1.0
  6
ByLayer
100
AcDbCircle
 10
-11.833333333332995
 20
-298.71999999999935
 30
0.0
 40
0.2500000000000355
100
AcDbArc
 50
269.99999999999511
 51
180.0
  0
LINE
  5
299
100
AcDbEntity
100
AcDbLine
  8
0
 62
256
370
-1
 48
1.0
  6
ByLayer
 10
-12.08333333333303
 20
-298.71999999999935
 30
0.0
 11
-13.183333333332939
 21
-298.7199999999994
 31
0.0
  0
LINE
  5
29A
100
AcDbEntity
100
AcDbLine
  8
0
 62
256
370
-1
 48
1.0
  6
ByLayer
 10
-13.183333333332939
 20
-298.7199999999994
 30
0.0
 11
-13.183333333332939
 21
-296.7199999999994
 31
0.0
  0
LINE
  5
29B
100
AcDbEntity
100
AcDbLine
  8
0
 62
256
370
-1
 48
1.0
  6
ByLayer
 10
-13.183333333332939
 20
-296.7199999999994
 30
0.0
 11
-16.483333333332894
 21
-296.71999999999935
 31
0.0
  0
LINE
  5
29C
100
AcDbEntity
100
AcDbLine
  8
0
 62
256
370
-1
 48
1.0
  6
ByLayer
 10
-16.483333333332894
 20
-296.71999999999935
 30
0.0
 11
-16.483333333332894
 21
-298.71999999999935
 31
0.0
  0
LINE
  5
29D
100
AcDbEntity
100
AcDbLine
  8
0
 62
256
370
-1
 48
1.0
  6
ByLayer
 10
-16.483333333332894
 20
-298.71999999999935
 30
0.0
 11
-17.58333333333303
 21
-298.71999999999935
 31
0.0
  0
ARC
  5
29E
100
AcDbEntity
  8
0
 62
256
370
-1
 48
1.0
  6
ByLayer
100
AcDbCircle
 10
-17.833333333333051
 20
-298.71999999999935
 30
0.0
 40
0.2500000000000213
100
AcDbArc
 50
0.0
 51
270.00000000000813
  0
LINE
  5
29F
100
AcDbEntity
100
AcDbLine
  8
0
 62
256
370
-1
 48
1.0
  6
ByLayer
 10
-17.833333333333016
 20
-298.9699999999994
 30
0.0
 11
-17.83333333333303
 21
-301.46999999999935
 31
0.0
  0
ARC
  5
2A0
100
AcDbEntity
  8
0
 62
256
370
-1
 48
1.0
  6
ByLayer
100
AcDbCircle
 10
-17.83333333333303
 20
-301.71999999999935
 30
0.0
 40
0.25
100
AcDbArc
 50
90.0
 51
0.0
  0
LINE
  5
2A1
100
AcDbEntity
100
AcDbLine
  8
0
 62
256
370
-1
 48
1.0
  6
ByLayer
 10
-17.58333333333303
 20
-301.71999999999935
 30
0.0
 11
-16.483333333332894
 21
-301.7199999999994
 31
0.0
  0
LINE
  5
2A2
100
AcDbEntity
100
AcDbLine
  8
0
 62
256
370
-1
 48
1.0
  6
ByLayer
 10
-16.483333333332894
 20
-301.7199999999994
 30
0.0
 11
-16.483333333332894
 21
-305.99999999999932
 31
0.0
  0
LINE
  5
2A3
100
AcDbEntity
100
AcDbLine
  8
0
 62
256
370
-1
 48
1.0
  6
ByLayer
 10
-16.483333333332894
 20
-305.99999999999932
 30
0.0
 11
-44.999999999999773
 21
-305.99999999999937
 31
0.0
  0
LINE
  5
2A4
100
AcDbEntity
100
AcDbLine
  8
0
 62
256
370
-1
 48
1.0
  6
ByLayer
 10
-44.999999999999773
 20
-305.99999999999937
 30
0.0
 11
-44.999999999999773
 21
-312.71999999999935
 31
0.0
  0
LINE
  5
2A5
100
AcDbEntity
100
AcDbLine
  8
0
 62
256
370
-1
 48
1.0
  6
ByLayer
 10
-44.999999999999773
 20
-312.71999999999935
 30
0.0
 11
-105.33333333333303
 21
-312.71999999999935
 31
0.0
  0
LINE
  5
2A6
100
AcDbEntity
100
AcDbLine
  8
0
 62
256
370
-1
 48
1.0
  6
ByLayer
 10
-105.33333333333303
 20
-312.71999999999935
 30
0.0
 11
-105.33333333333303
 21
-301.7699999999993
 31
0.0
  0
LINE
  5
2A7
100
AcDbEntity
100
AcDbLine
  8
0
 62
256
370
-1
 48
1.0
  6
ByLayer
 10
21.779999999999177
 20
-17.179999999999609
 30
0.0
 11
21.779999999999177
 21
-2.1799999999996089
 31
0.0
  0
LINE
  5
2A8
100
AcDbEntity
100
AcDbLine
  8
0
 62
256
370
-1
 48
1.0
  6
ByLayer
 10
21.779999999999177
 20
-2.1799999999996089
 30
0.0
 11
15.05999999999915
 21
-2.1799999999996089
 31
0.0
  0
LINE
  5
2A9
100
AcDbEntity
100
AcDbLine
  8
0
 62
256
370
-1
 48
1.0
  6
ByLayer
 10
15.05999999999915
 20
-2.1799999999996089
 30
0.0
 11
15.05999999999915
 21
-17.179999999999609
 31
0.0
  0
LINE
  5
2AA
100
AcDbEntity
100
AcDbLine
  8
0
 62
256
370
-1
 48
1.0
  6
ByLayer
 10
15.05999999999915
 20
-17.179999999999609
 30
0.0
 11
21.779999999999177
 21
-17.179999999999609
 31
0.0
  0
LINE
  5
2AB
100
AcDbEntity
100
AcDbLine
  8
0
 62
256
370
-1
 48
1.0
  6
ByLayer
 10
28.499999999999883
 20
137.8600000000003
 30
0.0
 11
28.500000000000139
 21
100.00000000000001
 31
0.0
  0
LINE
  5
2AC
100
AcDbEntity
100
AcDbLine
  8
0
 62
256
370
-1
 48
1.0
  6
ByLayer
 10
28.499999999999659
 20
-68.859999999999673
 30
0.0
 11
-28.620000000000232
 21
-68.859999999999673
 31
0.0
  0
LINE
  5
2AD
100
AcDbEntity
100
AcDbLine
  8
0
 62
256
370
-1
 48
1.0
  6
ByLayer
 10
-28.620000000000232
 20
-68.859999999999673
 30
0.0
 11
-28.620000000000232
 21
137.86000000000035
 31
0.0
  0
LINE
  5
2AE
100
AcDbEntity
100
AcDbLine
  8
0
 62
256
370
-1
 48
1.0
  6
ByLayer
 10
75.666666666667055
 20
-209.42999999999961
 30
0.0
 11
71.386666666667082
 21
-209.42999999999961
 31
0.0
  0
LINE
  5
2AF
100
AcDbEntity
100
AcDbLine
  8
0
 62
256
370
-1
 48
1.0
  6
ByLayer
 10
71.386666666667082
 20
-209.42999999999961
 30
0.0
 11
71.386666666667082
 21
-208.3299999999997
 31
0.0
  0
ARC
  5
2B0
100
AcDbEntity
  8
0
 62
256
370
-1
 48
1.0
  6
ByLayer
100
AcDbCircle
 10
71.386666666667082
 20
-208.0799999999997
 30
0.0
 40
0.25
100
AcDbArc
 50
270.0
 51
180.0
  0
LINE
  5
2B1
100
AcDbEntity
100
AcDbLine
  8
0
 62
256
370
-1
 48
1.0
  6
ByLayer
 10
71.136666666667082
 20
-208.0799999999997
 30
0.0
 11
68.636666666667082
 21
-208.0799999999997
 31
0.0
  0
ARC
  5
2B2
100
AcDbEntity
  8
0
 62
256
370
-1
 48
1.0
  6
ByLayer
100
AcDbCircle
 10
68.386666666667082
 20
-208.0799999999997
 30
0.0
 40
0.25
100
AcDbArc
 50
0.0
 51
270.0
  0
LINE
  5
2B3
100
AcDbEntity
100
AcDbLine
  8
0
 62
256
370
-1
 48
1.0
  6
ByLayer
 10
68.386666666667082
 20
-208.3299999999997
 30
0.0
 11
68.386666666667082
 21
-209.42999999999961
 31
0.0
  0
LINE
  5
2B4
100
AcDbEntity
100
AcDbLine
  8
0
 62
256
370
-1
 48
1.0
  6
ByLayer
 10
68.386666666667082
 20
-209.42999999999961
 30
0.0
 11
66.386666666667082
 21
-209.42999999999961
 31
0.0
  0
LINE
  5
2B5
100
AcDbEntity
100
AcDbLine
  8
0
 62
256
370
-1
 48
1.0
  6
ByLayer
 10
66.386666666667082
 20
-209.42999999999961
 30
0.0
 11
66.386666666667082
 21
-212.72999999999956
 31
0.0
  0
LINE
  5
2B6
100
AcDbEntity
100
AcDbLine
  8
0
 62
256
370
-1
 48
1.0
  6
ByLayer
 10
66.386666666667082
 20
-212.72999999999956
 30
0.0
 11
68.386666666667082
 21
-212.72999999999956
 31
0.0
  0
LINE
  5
2B7
100
AcDbEntity
100
AcDbLine
  8
0
 62
256
370
-1
 48
1.0
  6
ByLayer
 10
68.386666666667082
 20
-212.72999999999956
 30
0.0
 11
68.386666666667082
 21
-213.8299999999997
 31
0.0
  0
ARC
  5
2B8
100
AcDbEntity
  8
0
 62
256
370
-1
 48
1.0
  6
ByLayer
100
AcDbCircle
 10
68.386666666667082
 20
-214.0799999999997
 30
0.0
 40
0.2499999999999929
100
AcDbArc
 50
90.0
 51
0.0
  0
LINE
  5
2B9
100
AcDbEntity
100
AcDbLine
  8
0
 62
256
370
-1
 48
1.0
  6
ByLayer
 10
68.636666666667068
 20
-214.0799999999997
 30
0.0
 11
71.136666666667068
 21
-214.0799999999997
 31
0.0
  0
ARC
  5
2BA
100
AcDbEntity
  8
0
 62
256
370
-1
 48
1.0
  6
ByLayer
100
AcDbCircle
 10
71.386666666667068
 20
-214.0799999999997
 30
0.0
 40
0.25
100
AcDbArc
 50
180.0
 51
90.0
  0
LINE
  5
2BB
100
AcDbEntity
100
AcDbLine
  8
0
 62
256
370
-1
 48
1.0
  6
ByLayer
 10
71.386666666667068
 20
-213.8299999999997
 30
0.0
 11
71.386666666667082
 21
-212.72999999999956
 31
0.0
  0
LINE
  5
2BC
100
AcDbEntity
100
AcDbLine
  8
0
 62
256
370
-1
 48
1.0
  6
ByLayer
 10
71.386666666667082
 20
-212.72999999999956
 30
0.0
 11
75.666666666667055
 21
-212.72999999999956
 31
0.0
  0
LINE
  5
2BD
100
AcDbEntity
100
AcDbLine
  8
0
 62
256
370
-1
 48
1.0
  6
ByLayer
 10
75.666666666667055
 20
-212.72999999999956
 30
0.0
 11
75.666666666667041
 21
-238.7999999999995
 31
0.0
  0
LINE
  5
2BE
100
AcDbEntity
100
AcDbLine
  8
0
 62
256
370
-1
 48
1.0
  6
ByLayer
 10
75.666666666667041
 20
-238.7999999999995
 30
0.0
 11
68.946666666667014
 21
-238.7999999999995
 31
0.0
  0
LINE
  5
2BF
100
AcDbEntity
100
AcDbLine
  8
0
 62
256
370
-1
 48
1.0
  6
ByLayer
 10
68.946666666667014
 20
-238.7999999999995
 30
0.0
 11
68.946666666667042
 21
-255.59999999999968
 31
0.0
  0
LINE
  5
2C0
100
AcDbEntity
100
AcDbLine
  8
0
 62
256
370
-1
 48
1.0
  6
ByLayer
 10
68.946666666667042
 20
-255.59999999999968
 30
0.0
 11
-98.613333333332918
 21
-255.59999999999945
 31
0.0
  0
LINE
  5
2C1
100
AcDbEntity
100
AcDbLine
  8
0
 62
256
370
-1
 48
1.0
  6
ByLayer
 10
-98.613333333332918
 20
-255.59999999999945
 30
0.0
 11
-98.613333333332918
 21
-238.79999999999964
 31
0.0
  0
LINE
  5
2C2
100
AcDbEntity
100
AcDbLine
  8
0
 62
256
370
-1
 48
1.0
  6
ByLayer
 10
-98.613333333332918
 20
-238.79999999999964
 30
0.0
 11
-105.33333333333294
 21
-238.79999999999976
 31
0.0
  0
LINE
  5
2C3
100
AcDbEntity
100
AcDbLine
  8
0
 62
256
370
-1
 48
1.0
  6
ByLayer
 10
-105.33333333333294
 20
-238.79999999999976
 30
0.0
 11
-105.33333333333294
 21
-212.72999999999914
 31
0.0
  0
LINE
  5
2C4
100
AcDbEntity
100
AcDbLine
  8
0
 62
256
370
-1
 48
1.0
  6
ByLayer
 10
-105.33333333333294
 20
-212.72999999999914
 30
0.0
 11
-101.05333333333297
 21
-212.72999999999962
 31
0.0
  0
LINE
  5
2C5
100
AcDbEntity
100
AcDbLine
  8
0
 62
256
370
-1
 48
1.0
  6
ByLayer
 10
-101.05333333333297
 20
-212.72999999999962
 30
0.0
 11
-101.05333333333297
 21
-213.82999999999967
 31
0.0
  0
ARC
  5
2C6
100
AcDbEntity
  8
0
 62
256
370
-1
 48
1.0
  6
ByLayer
100
AcDbCircle
 10
-101.05333333333309
 20
-214.07999999999979
 30
0.0
 40
0.2500000000001137
100
AcDbArc
 50
89.999999999973937
 51
360.0
  0
LINE
  5
2C7
100
AcDbEntity
100
AcDbLine
  8
0
 62
256
370
-1
 48
1.0
  6
ByLayer
 10
-100.80333333333297
 20
-214.0799999999999
 30
0.0
 11
-98.303333333332972
 21
-214.08000000000007
 31
0.0
  0
ARC
  5
2C8
100
AcDbEntity
  8
0
 62
256
370
-1
 48
1.0
  6
ByLayer
100
AcDbCircle
 10
-98.053333333332759
 20
-214.07999999999987
 30
0.0
 40
0.2500000000002132
100
AcDbArc
 50
180.0
 51
90.000000000048857
  0
LINE
  5
2C9
100
AcDbEntity
100
AcDbLine
  8
0
 62
256
370
-1
 48
1.0
  6
ByLayer
 10
-98.053333333332972
 20
-213.82999999999964
 30
0.0
 11
-98.053333333332972
 21
-212.72999999999948
 31
0.0
  0
LINE
  5
2CA
100
AcDbEntity
100
AcDbLine
  8
0
 62
256
370
-1
 48
1.0
  6
ByLayer
 10
-98.053333333332972
 20
-212.72999999999948
 30
0.0
 11
-96.053333333332972
 21
-212.72999999999951
 31
0.0
  0
LINE
  5
2CB
100
AcDbEntity
100
AcDbLine
  8
0
 62
256
370
-1
 48
1.0
  6
ByLayer
 10
-96.053333333332972
 20
-212.72999999999951
 30
0.0
 11
-96.053333333332972
 21
-209.42999999999989
 31
0.0
  0
LINE
  5
2CC
100
AcDbEntity
100
AcDbLine
  8
0
 62
256
370
-1
 48
1.0
  6
ByLayer
 10
-96.053333333332972
 20
-209.42999999999989
 30
0.0
 11
-98.053333333332972
 21
-209.42999999999992
 31
0.0
  0
LINE
  5
2CD
100
AcDbEntity
100
AcDbLine
  8
0
 62
256
370
-1
 48
1.0
  6
ByLayer
 10
-98.053333333332972
 20
-209.42999999999992
 30
0.0
 11
-98.053333333332972
 21
-208.3300000000001
 31
0.0
  0
ARC
  5
2CE
100
AcDbEntity
  8
0
 62
256
370
-1
 48
1.0
  6
ByLayer
100
AcDbCircle
 10
-98.053333333332731
 20
-208.07999999999987
 30
0.0
 40
0.2500000000002416
100
AcDbArc
 50
269.99999999994463
 51
180.0
  0
LINE
  5
2CF
100
AcDbEntity
100
AcDbLine
  8
0
 62
256
370
-1
 48
1.0
  6
ByLayer
 10
-98.303333333332972
 20
-208.07999999999961
 30
0.0
 11
-100.80333333333297
 21
-208.07999999999981
 31
0.0
  0
ARC
  5
2D0
100
AcDbEntity
  8
0
 62
256
370
-1
 48
1.0
  6
ByLayer
100
AcDbCircle
 10
-101.05333333333303
 20
-208.07999999999987
 30
0.0
 40
0.2500000000000568
100
AcDbArc
 50
0.0
 51
270.00000000001302
  0
LINE
  5
2D1
100
AcDbEntity
100
AcDbLine
  8
0
 62
256
370
-1
 48
1.0
  6
ByLayer
 10
-101.05333333333297
 20
-208.32999999999993
 30
0.0
 11
-101.05333333333297
 21
-209.42999999999955
 31
0.0
  0
LINE
  5
2D2
100
AcDbEntity
100
AcDbLine
  8
0
 62
256
370
-1
 48
1.0
  6
ByLayer
 10
-101.05333333333297
 20
-209.42999999999955
 30
0.0
 11
-105.33333333333294
 21
-209.42999999999967
 31
0.0
  0
LINE
  5
2D3
100
AcDbEntity
100
AcDbLine
  8
0
 62
256
370
-1
 48
1.0
  6
ByLayer
 10
-105.33333333333294
 20
-209.42999999999967
 30
0.0
 11
-105.33333333333294
 21
-198.47999999999954
 31
0.0
  0
LINE
  5
2D4
100
AcDbEntity
100
AcDbLine
  8
0
 62
256
370
-1
 48
1.0
  6
ByLayer
 10
-44.999999999999687
 20
-198.47999999999954
 30
0.0
 11
-44.999999999999687
 21
-205.19999999999962
 31
0.0
  0
LINE
  5
2D5
100
AcDbEntity
100
AcDbLine
  8
0
 62
256
370
-1
 48
1.0
  6
ByLayer
 10
-44.999999999999687
 20
-205.19999999999962
 30
0.0
 11
-16.483333333333036
 21
-205.19999999999953
 31
0.0
  0
LINE
  5
2D6
100
AcDbEntity
100
AcDbLine
  8
0
 62
256
370
-1
 48
1.0
  6
ByLayer
 10
-16.483333333333036
 20
-205.19999999999953
 30
0.0
 11
-16.483333333333036
 21
-209.47999999999956
 31
0.0
  0
LINE
  5
2D7
100
AcDbEntity
100
AcDbLine
  8
0
 62
256
370
-1
 48
1.0
  6
ByLayer
 10
-16.483333333333036
 20
-209.47999999999956
 30
0.0
 11
-17.583333333332945
 21
-209.47999999999951
 31
0.0
  0
ARC
  5
2D8
100
AcDbEntity
  8
0
 62
256
370
-1
 48
1.0
  6
ByLayer
100
AcDbCircle
 10
-17.833333333332948
 20
-209.47999999999951
 30
0.0
 40
0.2500000000000022
100
AcDbArc
 50
0.0
 51
270.0000000000008
  0
LINE
  5
2D9
100
AcDbEntity
100
AcDbLine
  8
0
 62
256
370
-1
 48
1.0
  6
ByLayer
 10
-17.833333333332945
 20
-209.72999999999951
 30
0.0
 11
-17.833333333332945
 21
-212.22999999999954
 31
0.0
  0
ARC
  5
2DA
100
AcDbEntity
  8
0
 62
256
370
-1
 48
1.0
  6
ByLayer
100
AcDbCircle
 10
-17.833333333332959
 20
-212.47999999999956
 30
0.0
 40
0.2500000000000142
100
AcDbArc
 50
89.999999999996746
 51
0.0
  0
LINE
  5
2DB
100
AcDbEntity
100
AcDbLine
  8
0
 62
256
370
-1
 48
1.0
  6
ByLayer
 10
-17.583333333332945
 20
-212.47999999999956
 30
0.0
 11
-16.483333333333036
 21
-212.47999999999951
 31
0.0
  0
LINE
  5
2DC
100
AcDbEntity
100
AcDbLine
  8
0
 62
256
370
-1
 48
1.0
  6
ByLayer
 10
-16.483333333333036
 20
-212.47999999999951
 30
0.0
 11
-16.483333333333036
 21
-214.47999999999954
 31
0.0
  0
LINE
  5
2DD
100
AcDbEntity
100
AcDbLine
  8
0
 62
256
370
-1
 48
1.0
  6
ByLayer
 10
-16.483333333333036
 20
-214.47999999999954
 30
0.0
 11
-13.183333333333081
 21
-214.47999999999954
 31
0.0
  0
LINE
  5
2DE
100
AcDbEntity
100
AcDbLine
  8
0
 62
256
370
-1
 48
1.0
  6
ByLayer
 10
-13.183333333333081
 20
-214.47999999999954
 30
0.0
 11
-13.183333333333081
 21
-212.47999999999959
 31
0.0
  0
LINE
  5
2DF
100
AcDbEntity
100
AcDbLine
  8
0
 62
256
370
-1
 48
1.0
  6
ByLayer
 10
-13.183333333333081
 20
-212.47999999999959
 30
0.0
 11
-12.083333333332945
 21
-212.47999999999959
 31
0.0
  0
ARC
  5
2E0
100
AcDbEntity
  8
0
 62
256
370
-1
 48
1.0
  6
ByLayer
100
AcDbCircle
 10
-11.833333333332916
 20
-212.47999999999956
 30
0.0
 40
0.2500000000000284
100
AcDbArc
 50
180.0
 51
90.000000000006509
  0
LINE
  5
2E1
100
AcDbEntity
100
AcDbLine
  8
0
 62
256
370
-1
 48
1.0
  6
ByLayer
 10
-11.833333333332945
 20
-212.22999999999954
 30
0.0
 11
-11.833333333332945
 21
-209.72999999999956
 31
0.0
  0
ARC
  5
2E2
100
AcDbEntity
  8
0
 62
256
370
-1
 48
1.0
  6
ByLayer
100
AcDbCircle
 10
-11.833333333332959
 20
-209.47999999999956
 30
0.0
 40
0.2499999999999858
100
AcDbArc
 50
270.00000000000324
 51
180.0
  0
LINE
  5
2E3
100
AcDbEntity
100
AcDbLine
  8
0
 62
256
370
-1
 48
1.0
  6
ByLayer
 10
-12.083333333332945
 20
-209.47999999999959
 30
0.0
 11
-13.183333333333081
 21
-209.47999999999959
 31
0.0
  0
LINE
  5
2E4
100
AcDbEntity
100
AcDbLine
  8
0
 62
256
370
-1
 48
1.0
  6
ByLayer
 10
-13.183333333333081
 20
-209.47999999999959
 30
0.0
 11
-13.183333333333081
 21
-205.19999999999956
 31
0.0
  0
LINE
  5
2E5
100
AcDbEntity
100
AcDbLine
  8
0
 62
256
370
-1
 48
1.0
  6
ByLayer
 10
-13.183333333333081
 20
-205.19999999999956
 30
0.0
 11
15.333333333333798
 21
-205.19999999999956
 31
0.0
  0
LINE
  5
2E6
100
AcDbEntity
100
AcDbLine
  8
0
 62
256
370
-1
 48
1.0
  6
ByLayer
 10
15.333333333333798
 20
-205.19999999999956
 30
0.0
 11
15.333333333333798
 21
-198.47999999999956
 31
0.0
  0
LINE
  5
2E7
100
AcDbEntity
100
AcDbLine
  8
0
 62
256
370
-1
 48
1.0
  6
ByLayer
 10
15.333333333333798
 20
-198.47999999999956
 30
0.0
 11
75.666666666667055
 21
-198.47999999999956
 31
0.0
  0
LINE
  5
2E8
100
AcDbEntity
100
AcDbLine
  8
0
 62
256
370
-1
 48
1.0
  6
ByLayer
 10
75.666666666667055
 20
-198.47999999999956
 30
0.0
 11
75.666666666667055
 21
-209.42999999999961
 31
0.0
  0
LINE
  5
2E9
100
AcDbEntity
100
AcDbLine
  8
0
 62
256
370
-1
 48
1.0
  6
ByLayer
 10
-102.10000000000058
 20
-2.1799999999996089
 30
0.0
 11
-102.10000000000069
 21
-17.179999999999637
 31
0.0
  0
LINE
  5
2EA
100
AcDbEntity
100
AcDbLine
  8
0
 62
256
370
-1
 48
1.0
  6
ByLayer
 10
-102.10000000000069
 20
-17.179999999999637
 30
0.0
 11
-108.82000000000062
 21
-17.179999999999609
 31
0.0
  0
LINE
  5
2EB
100
AcDbEntity
100
AcDbLine
  8
0
 62
256
370
-1
 48
1.0
  6
ByLayer
 10
-108.82000000000062
 20
-17.179999999999609
 30
0.0
 11
-108.82000000000066
 21
-2.1799999999996373
 31
0.0
  0
LINE
  5
2EC
100
AcDbEntity
100
AcDbLine
  8
0
 62
256
370
-1
 48
1.0
  6
ByLayer
 10
-108.82000000000066
 20
-2.1799999999996373
 30
0.0
 11
-102.10000000000058
 21
-2.1799999999996089
 31
0.0
  0
LINE
  5
2ED
100
AcDbEntity
100
AcDbLine
  8
0
 62
256
370
-1
 48
1.0
  6
ByLayer
 10
-152.5
 20
137.86000000000035
 30
0.0
 11
-152.50000000000009
 21
99.999999999999886
 31
0.0
  0
LINE
  5
2EE
100
AcDbEntity
100
AcDbLine
  8
0
 62
256
370
-1
 48
1.0
  6
ByLayer
 10
-152.50000000000003
 20
-68.859999999999673
 30
0.0
 11
-95.380000000000166
 21
-68.859999999999701
 31
0.0
  0
LINE
  5
2EF
100
AcDbEntity
100
AcDbLine
  8
0
 62
256
370
-1
 48
1.0
  6
ByLayer
 10
-95.380000000000166
 20
-68.859999999999701
 30
0.0
 11
-95.379999999999882
 21
137.86000000000035
 31
0.0
  0
ENDSEC
  0
SECTION
  2
OBJECTS
  0
DICTIONARY
  5
C
100
AcDbDictionary
280
0
281
1
  3
ACAD_GROUP
350
D
  3
ACAD_LAYOUT
350
1A
  3
ACAD_MLINESTYLE
350
17
  3
ACAD_PLOTSETTINGS
350
19
  3
ACAD_PLOTSTYLENAME
350
E
  3
AcDbVariableDictionary
350
2F0
  3
QCAD_OBJECTS
350
2F1
  0
DICTIONARY
  5
D
100
AcDbDictionary
280
0
281
1
  0
ACDBDICTIONARYWDFLT
  5
E
100
AcDbDictionary
281
1
  3
Normal
350
F
100
AcDbDictionaryWithDefault
340
F
  0
ACDBPLACEHOLDER
  5
F
  0
DICTIONARY
  5
17
100
AcDbDictionary
280
0
281
1
  3
Standard
350
18
  0
MLINESTYLE
  5
18
100
AcDbMlineStyle
  2
STANDARD
 70
0
  3

 62
256
 51
90.0
 52
90.0
 71
2
 49
0.5
 62
256
  6
BYLAYER
 49
-0.5
 62
256
  6
BYLAYER
  0
DICTIONARY
  5
19
100
AcDbDictionary
280
0
281
1
  0
DICTIONARY
  5
1A
100
AcDbDictionary
281
1
  3
Layout1
350
1E
  3
Layout2
350
26
  3
Model
350
22
  0
LAYOUT
  5
1E
100
AcDbPlotSettings
  1

  2
none_device
  4

  6

 40
0.0
 41
0.0
 42
0.0
 43
0.0
 44
0.0
 45
0.0
 46
0.0
 47
0.0
 48
0.0
 49
0.0
140
0.0
141
0.0
142
1.0
143
1.0
 70
688
 72
0
 73
0
 74
5
  7

 75
16
147
1.0
148
0.0
149
0.0
100
AcDbLayout
  1
Layout1
 70
1
 71
1
 10
0.0
 20
0.0
 11
420.0
 21
297.0
 12
0.0
 22
0.0
 32
0.0
 14
100000000000000000000.0
 24
100000000000000000000.0
 34
100000000000000000000.0
 15
-100000000000000000000.0
 25
-100000000000000000000.0
 35
-100000000000000000000.0
146
0.0
 13
0.0
 23
0.0
 33
0.0
 16
1.0
 26
0.0
 36
0.0
 17
0.0
 27
1.0
 37
0.0
 76
0
330
1B
  0
LAYOUT
  5
22
100
AcDbPlotSettings
  1

  2
none_device
  4

  6

 40
0.0
 41
0.0
 42
0.0
 43
0.0
 44
0.0
 45
0.0
 46
0.0
 47
0.0
 48
0.0
 49
0.0
140
0.0
141
0.0
142
1.0
143
1.0
 70
1712
 72
0
 73
0
 74
0
  7

 75
0
147
1.0
148
0.0
149
0.0
100
AcDbLayout
  1
Model
 70
1
 71
0
 10
0.0
 20
0.0
 11
12.0
 21
9.0
 12
0.0
 22
0.0
 32
0.0
 14
0.0
 24
0.0
 34
0.0
 15
0.0
 25
0.0
 35
0.0
146
0.0
 13
0.0
 23
0.0
 33
0.0
 16
1.0
 26
0.0
 36
0.0
 17
0.0
 27
1.0
 37
0.0
 76
0
330
1F
  0
LAYOUT
  5
26
100
AcDbPlotSettings
  1

  2
none_device
  4

  6

 40
0.0
 41
0.0
 42
0.0
 43
0.0
 44
0.0
 45
0.0
 46
0.0
 47
0.0
 48
0.0
 49
0.0
140
0.0
141
0.0
142
1.0
143
1.0
 70
688
 72
0
 73
0
 74
5
  7

 75
16
147
1.0
148
0.0
149
0.0
100
AcDbLayout
  1
Layout2
 70
1
 71
2
 10
0.0
 20
0.0
 11
12.0
 21
9.0
 12
0.0
 22
0.0
 32
0.0
 14
0.0
 24
0.0
 34
0.0
 15
0.0
 25
0.0
 35
0.0
146
0.0
 13
0.0
 23
0.0
 33
0.0
 16
1.0
 26
0.0
 36
0.0
 17
0.0
 27
1.0
 37
0.0
 76
0
330
23
  0
DICTIONARY
  5
2F0
100
AcDbDictionary
281
1
  3
DIMASSOC
350
2F3
  3
HIDETEXT
350
2F2
  0
DICTIONARYVAR
  5
2F2
100
DictionaryVariables
280
0
  1
2
  0
DICTIONARYVAR
  5
2F3
100
DictionaryVariables
280
0
  1
1
  0
DICTIONARY
  5
2F1
100
AcDbDictionary
281
1
  3
Grid/DisplayGrid00
350
2F4
  3
Grid/DisplayGrid01
350
2F5
  3
Grid/DisplayGrid02
350
2F6
  3
Grid/DisplayGrid03
350
2F7
  3
Grid/GridSpacingX00
350
2F8
  3
Grid/GridSpacingX01
350
2F9
  3
Grid/GridSpacingX02
350
2FA
  3
Grid/GridSpacingX03
350
2FB
  3
Grid/GridSpacingY00
350
2FC
  3
Grid/GridSpacingY01
350
2FD
  3
Grid/GridSpacingY02
350
2FE
  3
Grid/GridSpacingY03
350
2FF
  3
Grid/IsometricGrid00
350
300
  3
Grid/IsometricGrid01
350
301
  3
Grid/IsometricGrid02
350
302
  3
Grid/IsometricGrid03
350
303
  3
Grid/IsometricProjection00
350
304
  3
Grid/IsometricProjection01
350
305
  3
Grid/IsometricProjection02
350
306
  3
Grid/IsometricProjection03
350
307
  3
Grid/MetaGridSpacingX00
350
308
  3
Grid/MetaGridSpacingX01
350
309
  3
Grid/MetaGridSpacingX02
350
30A
  3
Grid/MetaGridSpacingX03
350
30B
  3
Grid/MetaGridSpacingY00
350
30C
  3
Grid/MetaGridSpacingY01
350
30D
  3
Grid/MetaGridSpacingY02
350
30E
  3
Grid/MetaGridSpacingY03
350
30F
  3
MultiPageSettings/Columns
350
310
  3
MultiPageSettings/GlueMarginsBottom
350
311
  3
MultiPageSettings/GlueMarginsLeft
350
312
  3
MultiPageSettings/GlueMarginsRight
350
313
  3
MultiPageSettings/GlueMarginsTop
350
314
  3
MultiPageSettings/PrintCropMarks
350
315
  3
MultiPageSettings/Rows
350
316
  3
PageSettings/OffsetX
350
317
  3
PageSettings/OffsetY
350
318
  3
PageSettings/PageOrientation
350
319
  3
PageSettings/PaperHeight
350
31A
  3
PageSettings/PaperWidth
350
31B
  3
PageSettings/Scale
350
31C
  3
PageSettings/ShowPaperBorders
350
31D
  3
UnitSettings/PaperUnit
350
31E
  0
XRECORD
  5
2F4
330
2F1
100
AcDbXrecord
280
1
290
1
  0
XRECORD
  5
2F5
330
2F1
100
AcDbXrecord
280
1
290
1
  0
XRECORD
  5
2F6
330
2F1
100
AcDbXrecord
280
1
290
1
  0
XRECORD
  5
2F7
330
2F1
100
AcDbXrecord
280
1
290
1
  0
XRECORD
  5
2F8
330
2F1
100
AcDbXrecord
280
1
1000
auto
  0
XRECORD
  5
2F9
330
2F1
100
AcDbXrecord
280
1
1000
auto
  0
XRECORD
  5
2FA
330
2F1
100
AcDbXrecord
280
1
1000
auto
  0
XRECORD
  5
2FB
330
2F1
100
AcDbXrecord
280
1
1000
auto
  0
XRECORD
  5
2FC
330
2F1
100
AcDbXrecord
280
1
1000
auto
  0
XRECORD
  5
2FD
330
2F1
100
AcDbXrecord
280
1
1000
auto
  0
XRECORD
  5
2FE
330
2F1
100
AcDbXrecord
280
1
1000
auto
  0
XRECORD
  5
2FF
330
2F1
100
AcDbXrecord
280
1
1000
auto
  0
XRECORD
  5
300
330
2F1
100
AcDbXrecord
280
1
290
0
  0
XRECORD
  5
301
330
2F1
100
AcDbXrecord
280
1
290
0
  0
XRECORD
  5
302
330
2F1
100
AcDbXrecord
280
1
290
0
  0
XRECORD
  5
303
330
2F1
100
AcDbXrecord
280
1
290
0
  0
XRECORD
  5
304
330
2F1
100
AcDbXrecord
280
1
 90
0
  0
XRECORD
  5
305
330
2F1
100
AcDbXrecord
280
1
 90
0
  0
XRECORD
  5
306
330
2F1
100
AcDbXrecord
280
1
 90
0
  0
XRECORD
  5
307
330
2F1
100
AcDbXrecord
280
1
 90
0
  0
XRECORD
  5
308
330
2F1
100
AcDbXrecord
280
1
1000
auto
  0
XRECORD
  5
309
330
2F1
100
AcDbXrecord
280
1
1000
auto
  0
XRECORD
  5
30A
330
2F1
100
AcDbXrecord
280
1
1000
auto
  0
XRECORD
  5
30B
330
2F1
100
AcDbXrecord
280
1
1000
auto
  0
XRECORD
  5
30C
330
2F1
100
AcDbXrecord
280
1
1000
auto
  0
XRECORD
  5
30D
330
2F1
100
AcDbXrecord
280
1
1000
auto
  0
XRECORD
  5
30E
330
2F1
100
AcDbXrecord
280
1
1000
auto
  0
XRECORD
  5
30F
330
2F1
100
AcDbXrecord
280
1
1000
auto
  0
XRECORD
  5
310
330
2F1
100
AcDbXrecord
280
1
 90
1
  0
XRECORD
  5
311
330
2F1
100
AcDbXrecord
280
1
 40
10.0
  0
XRECORD
  5
312
330
2F1
100
AcDbXrecord
280
1
 40
10.0
  0
XRECORD
  5
313
330
2F1
100
AcDbXrecord
280
1
 40
10.0
  0
XRECORD
  5
314
330
2F1
100
AcDbXrecord
280
1
 40
10.0
  0
XRECORD
  5
315
330
2F1
100
AcDbXrecord
280
1
290
0
  0
XRECORD
  5
316
330
2F1
100
AcDbXrecord
280
1
 90
1
  0
XRECORD
  5
317
330
2F1
100
AcDbXrecord
280
1
 40
0.0
  0
XRECORD
  5
318
330
2F1
100
AcDbXrecord
280
1
 40
0.0
  0
XRECORD
  5
319
330
2F1
100
AcDbXrecord
280
1
1000
Portrait
  0
XRECORD
  5
31A
330
2F1
100
AcDbXrecord
280
1
 40
297.0
  0
XRECORD
  5
31B
330
2F1
100
AcDbXrecord
280
1
 40
210.0
  0
XRECORD
  5
31C
330
2F1
100
AcDbXrecord
280
1
1000
1:1
  0
XRECORD
  5
31D
330
2F1
100
AcDbXrecord
280
1
290
1
  0
XRECORD
  5
31E
330
2F1
100
AcDbXrecord
280
1
 90
4
  0
ENDSEC
  0
EOF
