999
dxflib 3.7.5.0
  0
SECTION
  2
HEADER
  9
$ACADVER
  1
AC1015
  9
$HANDSEED
  5
FFFF
  9
$DIMADEC
 70
0
  9
$DIMASZ
 40
2.5
  9
$DIMAUNIT
 70
0
  9
$DIMAZIN
 70
2
  9
$DIMDEC
 70
4
  9
$DIMEXE
 40
1.25
  9
$DIMEXO
 40
0.625
  9
$DIMGAP
 40
0.625
  9
$DIMLUNIT
 70
2
  9
$DIMSCALE
 40
1.0
  9
$DIMTSZ
 40
0.0
  9
$DIMTXT
 40
2.5
  9
$DIMZIN
 70
8
  9
$DWGCODEPAGE
  3
ANSI_1252
  9
$INSUNITS
 70
4
  9
$LTSCALE
 40
1
  0
ENDSEC
  0
SECTION
  2
TABLES
  0
TABLE
  2
VPORT
  5
8
100
AcDbSymbolTable
 70
1
  0
VPORT
  5
30
100
AcDbSymbolTableRecord
100
AcDbViewportTableRecord
  2
*Active
 70
0
 10
0.0
 20
0.0
 11
1.0
 21
1.0
 12
286.30555555555549
 22
148.5
 13
0.0
 23
0.0
 14
10.0
 24
10.0
 15
10.0
 25
10.0
 16
0.0
 26
0.0
 36
1.0
 17
0.0
 27
0.0
 37
0.0
 40
297.0
 41
1.92798353909465
 42
50.0
 43
0.0
 44
0.0
 50
0.0
 51
0.0
 71
0
 72
100
 73
1
 74
3
 75
1
 76
1
 77
0
 78
0
281
0
 65
1
110
0.0
120
0.0
130
0.0
111
1.0
121
0.0
131
0.0
112
0.0
122
1.0
132
0.0
 79
0
146
0.0
  0
ENDTAB
  0
TABLE
  2
LTYPE
  5
5
100
AcDbSymbolTable
 70
41
  0
LTYPE
  5
16
100
AcDbSymbolTableRecord
100
AcDbLinetypeTableRecord
  2
Continuous
 70
0
  3
Solid line
 72
65
 73
0
 40
0.0
  0
LTYPE
  5
31
100
AcDbSymbolTableRecord
100
AcDbLinetypeTableRecord
  2
ACAD_ISO15W100
 70
0
  3
ISO double-dash triple-dot __ __ . . . __ __ . .
 72
65
 73
10
 40
39.000000000000007
 49
12.0
 74
0
 49
-3.0
 74
0
 49
12.0
 74
0
 49
-2.9500000000000002
 74
0
 49
0.1
 74
0
 49
-2.9000000000000004
 74
0
 49
0.1
 74
0
 49
-2.9000000000000004
 74
0
 49
0.1
 74
0
 49
-2.9500000000000002
 74
0
  0
LTYPE
  5
32
100
AcDbSymbolTableRecord
100
AcDbLinetypeTableRecord
  2
DIVIDE
 70
0
  3
Divide ____ . . ____ . . ____ . . ____ . . ____
 72
65
 73
6
 40
31.750000000000004
 49
12.699999999999999
 74
0
 49
-6.2999999999999998
 74
0
 49
0.1
 74
0
 49
-6.25
 74
0
 49
0.1
 74
0
 49
-6.2999999999999998
 74
0
  0
LTYPE
  5
33
100
AcDbSymbolTableRecord
100
AcDbLinetypeTableRecord
  2
ACAD_ISO10W100
 70
0
  3
ISO dash dot __ . __ . __ . __ . __ . __ . __ . 
 72
65
 73
4
 40
18.0
 49
12.0
 74
0
 49
-2.9500000000000002
 74
0
 49
0.1
 74
0
 49
-2.9500000000000002
 74
0
  0
LTYPE
  5
34
100
AcDbSymbolTableRecord
100
AcDbLinetypeTableRecord
  2
ACAD_ISO04W100
 70
0
  3
ISO long-dash dot ____ . ____ . ____ . ____ . _
 72
65
 73
4
 40
30.0
 49
24.0
 74
0
 49
-2.9500000000000002
 74
0
 49
0.1
 74
0
 49
-2.9500000000000002
 74
0
  0
LTYPE
  5
35
100
AcDbSymbolTableRecord
100
AcDbLinetypeTableRecord
  2
CENTER2
 70
0
  3
Center (.5x) ___ _ ___ _ ___ _ ___ _ ___ _ ___
 72
65
 73
4
 40
28.575000000000003
 49
19.050000000000001
 74
0
 49
-3.1749999999999998
 74
0
 49
3.1749999999999998
 74
0
 49
-3.1749999999999998
 74
0
  0
LTYPE
  5
36
100
AcDbSymbolTableRecord
100
AcDbLinetypeTableRecord
  2
ACAD_ISO11W100
 70
0
  3
ISO double-dash dot __ __ . __ __ . __ __ . __ _
 72
65
 73
6
 40
33.0
 49
12.0
 74
0
 49
-3.0
 74
0
 49
12.0
 74
0
 49
-2.9500000000000002
 74
0
 49
0.1
 74
0
 49
-2.9500000000000002
 74
0
  0
LTYPE
  5
37
100
AcDbSymbolTableRecord
100
AcDbLinetypeTableRecord
  2
HIDDEN2
 70
0
  3
Hidden (.5x) _ _ _ _ _ _ _ _ _ _ _ _ _ _ _ _ _ 
 72
65
 73
2
 40
4.7624999999999993
 49
3.1749999999999998
 74
0
 49
-1.5874999999999999
 74
0
  0
LTYPE
  5
38
100
AcDbSymbolTableRecord
100
AcDbLinetypeTableRecord
  2
BORDERX2
 70
0
  3
Border (2x) ____  ____  .  ____  ____  .  ___
 72
65
 73
6
 40
88.899999999999977
 49
25.399999999999999
 74
0
 49
-12.699999999999999
 74
0
 49
25.399999999999999
 74
0
 49
-12.649999999999999
 74
0
 49
0.1
 74
0
 49
-12.649999999999999
 74
0
  0
LTYPE
  5
39
100
AcDbSymbolTableRecord
100
AcDbLinetypeTableRecord
  2
ACAD_ISO05W100
 70
0
  3
ISO long-dash double-dot ____ .. ____ .. ____ . 
 72
65
 73
6
 40
33.000000000000007
 49
24.0
 74
0
 49
-2.9500000000000002
 74
0
 49
0.1
 74
0
 49
-2.9000000000000004
 74
0
 49
0.1
 74
0
 49
-2.9500000000000002
 74
0
  0
LTYPE
  5
3A
100
AcDbSymbolTableRecord
100
AcDbLinetypeTableRecord
  2
DASHDOTX2
 70
0
  3
Dash dot (2x) ____  .  ____  .  ____  .  ___
 72
65
 73
4
 40
50.799999999999997
 49
25.399999999999999
 74
0
 49
-12.649999999999999
 74
0
 49
0.1
 74
0
 49
-12.649999999999999
 74
0
  0
LTYPE
  5
3B
100
AcDbSymbolTableRecord
100
AcDbLinetypeTableRecord
  2
HIDDENX2
 70
0
  3
Hidden (2x) ____ ____ ____ ____ ____ ____ ____ 
 72
65
 73
2
 40
19.049999999999997
 49
12.699999999999999
 74
0
 49
-6.3499999999999996
 74
0
  0
LTYPE
  5
3C
100
AcDbSymbolTableRecord
100
AcDbLinetypeTableRecord
  2
CENTERX2
 70
0
  3
Center (2x) ________  __  ________  __  _____
 72
65
 73
4
 40
101.60000000000001
 49
63.5
 74
0
 49
-12.699999999999999
 74
0
 49
12.699999999999999
 74
0
 49
-12.699999999999999
 74
0
  0
LTYPE
  5
3D
100
AcDbSymbolTableRecord
100
AcDbLinetypeTableRecord
  2
BORDER2
 70
0
  3
Border (.5x) __.__.__.__.__.__.__.__.__.__.__.
 72
65
 73
6
 40
22.225000000000001
 49
6.3499999999999996
 74
0
 49
-3.1749999999999998
 74
0
 49
6.3499999999999996
 74
0
 49
-3.125
 74
0
 49
0.1
 74
0
 49
-3.125
 74
0
  0
LTYPE
  5
3E
100
AcDbSymbolTableRecord
100
AcDbLinetypeTableRecord
  2
DASHDOT2
 70
0
  3
Dash dot (.5x) _._._._._._._._._._._._._._._.
 72
65
 73
4
 40
12.699999999999999
 49
6.3499999999999996
 74
0
 49
-3.125
 74
0
 49
0.1
 74
0
 49
-3.125
 74
0
  0
LTYPE
  5
3F
100
AcDbSymbolTableRecord
100
AcDbLinetypeTableRecord
  2
ACAD_ISO12W100
 70
0
  3
ISO dash double-dot __ . . __ . . __ . . __ . . 
 72
65
 73
6
 40
21.0
 49
12.0
 74
0
 49
-2.9500000000000002
 74
0
 49
0.1
 74
0
 49
-2.9000000000000004
 74
0
 49
0.1
 74
0
 49
-2.9500000000000002
 74
0
  0
LTYPE
  5
40
100
AcDbSymbolTableRecord
100
AcDbLinetypeTableRecord
  2
ACAD_ISO07W100
 70
0
  3
ISO dot . . . . . . . . . . . . . . . . . . . . 
 72
65
 73
2
 40
3.0
 49
0.1
 74
0
 49
-2.8999999999999999
 74
0
  0
LTYPE
  5
41
100
AcDbSymbolTableRecord
100
AcDbLinetypeTableRecord
  2
HIDDEN
 70
0
  3
Hidden __ __ __ __ __ __ __ __ __ __ __ __ __ __
 72
65
 73
2
 40
9.5249999999999986
 49
6.3499999999999996
 74
0
 49
-3.1749999999999998
 74
0
  0
LTYPE
  5
42
100
AcDbSymbolTableRecord
100
AcDbLinetypeTableRecord
  2
ACAD_ISO06W100
 70
0
  3
ISO long-dash triple-dot ____ ... ____ ... ____
 72
65
 73
8
 40
36.000000000000007
 49
24.0
 74
0
 49
-2.9500000000000002
 74
0
 49
0.1
 74
0
 49
-2.9000000000000004
 74
0
 49
0.1
 74
0
 49
-2.9000000000000004
 74
0
 49
0.1
 74
0
 49
-2.9500000000000002
 74
0
  0
LTYPE
  5
43
100
AcDbSymbolTableRecord
100
AcDbLinetypeTableRecord
  2
CENTER
 70
0
  3
Center ____ _ ____ _ ____ _ ____ _ ____ _ ____
 72
65
 73
4
 40
50.800000000000004
 49
31.75
 74
0
 49
-6.3499999999999996
 74
0
 49
6.3499999999999996
 74
0
 49
-6.3499999999999996
 74
0
  0
LTYPE
  5
44
100
AcDbSymbolTableRecord
100
AcDbLinetypeTableRecord
  2
DOTX2
 70
0
  3
Dot (2x) .  .  .  .  .  .  .  .  .  .  .  .  .  .
 72
65
 73
2
 40
12.699999999999999
 49
0.1
 74
0
 49
-12.6
 74
0
  0
LTYPE
  5
45
100
AcDbSymbolTableRecord
100
AcDbLinetypeTableRecord
  2
PHANTOM
 70
0
  3
Phantom ______  __  __  ______  __  __  ______ 
 72
65
 73
6
 40
63.500000000000007
 49
31.75
 74
0
 49
-6.3499999999999996
 74
0
 49
6.3499999999999996
 74
0
 49
-6.3499999999999996
 74
0
 49
6.3499999999999996
 74
0
 49
-6.3499999999999996
 74
0
  0
LTYPE
  5
46
100
AcDbSymbolTableRecord
100
AcDbLinetypeTableRecord
  2
ACAD_ISO08W100
 70
0
  3
ISO long-dash short-dash ____ __ ____ __ ____ _
 72
65
 73
4
 40
36.0
 49
24.0
 74
0
 49
-3.0
 74
0
 49
6.0
 74
0
 49
-3.0
 74
0
  0
LTYPE
  5
47
100
AcDbSymbolTableRecord
100
AcDbLinetypeTableRecord
  2
DASHEDX2
 70
0
  3
Dashed (2x) ____  ____  ____  ____  ____  ___
 72
65
 73
2
 40
38.099999999999994
 49
25.399999999999999
 74
0
 49
-12.699999999999999
 74
0
  0
LTYPE
  5
48
100
AcDbSymbolTableRecord
100
AcDbLinetypeTableRecord
  2
ACAD_ISO02W100
 70
0
  3
ISO dash __ __ __ __ __ __ __ __ __ __ __ __ __
 72
65
 73
2
 40
15.0
 49
12.0
 74
0
 49
-3.0
 74
0
  0
LTYPE
  5
49
100
AcDbSymbolTableRecord
100
AcDbLinetypeTableRecord
  2
PHANTOM2
 70
0
  3
Phantom (.5x) ___ _ _ ___ _ _ ___ _ _ ___ _ _
 72
65
 73
6
 40
31.750000000000004
 49
15.875
 74
0
 49
-3.1749999999999998
 74
0
 49
3.1749999999999998
 74
0
 49
-3.1749999999999998
 74
0
 49
3.1749999999999998
 74
0
 49
-3.1749999999999998
 74
0
  0
LTYPE
  5
4A
100
AcDbSymbolTableRecord
100
AcDbLinetypeTableRecord
  2
DASHED2
 70
0
  3
Dashed (.5x) _ _ _ _ _ _ _ _ _ _ _ _ _ _ _ _ _ 
 72
65
 73
2
 40
9.5249999999999986
 49
6.3499999999999996
 74
0
 49
-3.1749999999999998
 74
0
  0
LTYPE
  5
4B
100
AcDbSymbolTableRecord
100
AcDbLinetypeTableRecord
  2
ACAD_ISO09W100
 70
0
  3
ISO long-dash double-short-dash ____ __ __ ____
 72
65
 73
6
 40
45.0
 49
24.0
 74
0
 49
-3.0
 74
0
 49
6.0
 74
0
 49
-3.0
 74
0
 49
6.0
 74
0
 49
-3.0
 74
0
  0
LTYPE
  5
4C
100
AcDbSymbolTableRecord
100
AcDbLinetypeTableRecord
  2
ACAD_ISO13W100
 70
0
  3
ISO double-dash double-dot __ __ . . __ __ . . _
 72
65
 73
8
 40
36.000000000000007
 49
12.0
 74
0
 49
-3.0
 74
0
 49
12.0
 74
0
 49
-2.9500000000000002
 74
0
 49
0.1
 74
0
 49
-2.9000000000000004
 74
0
 49
0.1
 74
0
 49
-2.9500000000000002
 74
0
  0
LTYPE
  5
4D
100
AcDbSymbolTableRecord
100
AcDbLinetypeTableRecord
  2
DOT2
 70
0
  3
Dot (.5x) ........................................
 72
65
 73
2
 40
3.1749999999999998
 49
0.1
 74
0
 49
-3.0749999999999997
 74
0
  0
LTYPE
  5
4E
100
AcDbSymbolTableRecord
100
AcDbLinetypeTableRecord
  2
DASHED
 70
0
  3
Dashed __ __ __ __ __ __ __ __ __ __ __ __ __ _
 72
65
 73
2
 40
19.049999999999997
 49
12.699999999999999
 74
0
 49
-6.3499999999999996
 74
0
  0
LTYPE
  5
4F
100
AcDbSymbolTableRecord
100
AcDbLinetypeTableRecord
  2
ACAD_ISO14W100
 70
0
  3
ISO dash triple-dot __ . . . __ . . . __ . . . _
 72
65
 73
8
 40
24.000000000000004
 49
12.0
 74
0
 49
-2.9500000000000002
 74
0
 49
0.1
 74
0
 49
-2.9000000000000004
 74
0
 49
0.1
 74
0
 49
-2.9000000000000004
 74
0
 49
0.1
 74
0
 49
-2.9500000000000002
 74
0
  0
LTYPE
  5
50
100
AcDbSymbolTableRecord
100
AcDbLinetypeTableRecord
  2
PHANTOMX2
 70
0
  3
Phantom (2x) ____________    ____    ____   _
 72
65
 73
6
 40
127.00000000000001
 49
63.5
 74
0
 49
-12.699999999999999
 74
0
 49
12.699999999999999
 74
0
 49
-12.699999999999999
 74
0
 49
12.699999999999999
 74
0
 49
-12.699999999999999
 74
0
  0
LTYPE
  5
14
100
AcDbSymbolTableRecord
100
AcDbLinetypeTableRecord
  2
BYBLOCK
 70
0
  3

 72
65
 73
0
 40
0.0
  0
LTYPE
  5
51
100
AcDbSymbolTableRecord
100
AcDbLinetypeTableRecord
  2
DIVIDEX2
 70
0
  3
Divide (2x) ________  .  .  ________  .  .  _
 72
65
 73
6
 40
63.5
 49
25.399999999999999
 74
0
 49
-12.649999999999999
 74
0
 49
0.1
 74
0
 49
-12.599999999999998
 74
0
 49
0.1
 74
0
 49
-12.649999999999999
 74
0
  0
LTYPE
  5
52
100
AcDbSymbolTableRecord
100
AcDbLinetypeTableRecord
  2
BORDER
 70
0
  3
Border __ __ . __ __ . __ __ . __ __ . __ __ .
 72
65
 73
6
 40
44.449999999999996
 49
12.699999999999999
 74
0
 49
-6.3499999999999996
 74
0
 49
12.699999999999999
 74
0
 49
-6.2999999999999998
 74
0
 49
0.1
 74
0
 49
-6.2999999999999998
 74
0
  0
LTYPE
  5
53
100
AcDbSymbolTableRecord
100
AcDbLinetypeTableRecord
  2
DIVIDE2
 70
0
  3
Divide (.5x) __..__..__..__..__..__..__..__.._
 72
65
 73
6
 40
15.874999999999998
 49
6.3499999999999996
 74
0
 49
-3.125
 74
0
 49
0.1
 74
0
 49
-3.0750000000000002
 74
0
 49
0.1
 74
0
 49
-3.125
 74
0
  0
LTYPE
  5
54
100
AcDbSymbolTableRecord
100
AcDbLinetypeTableRecord
  2
DOT
 70
0
  3
Dot . . . . . . . . . . . . . . . . . . . . . . . .
 72
65
 73
2
 40
6.3499999999999996
 49
0.1
 74
0
 49
-6.25
 74
0
  0
LTYPE
  5
55
100
AcDbSymbolTableRecord
100
AcDbLinetypeTableRecord
  2
DASHDOT
 70
0
  3
Dash dot __ . __ . __ . __ . __ . __ . __ . __
 72
65
 73
4
 40
25.400000000000002
 49
12.699999999999999
 74
0
 49
-6.2999999999999998
 74
0
 49
0.1
 74
0
 49
-6.2999999999999998
 74
0
  0
LTYPE
  5
56
100
AcDbSymbolTableRecord
100
AcDbLinetypeTableRecord
  2
ACAD_ISO03W100
 70
0
  3
ISO dash space __    __    __    __    __    __
 72
65
 73
2
 40
30.0
 49
12.0
 74
0
 49
-18.0
 74
0
  0
LTYPE
  5
15
100
AcDbSymbolTableRecord
100
AcDbLinetypeTableRecord
  2
ByLayer
 70
0
  3

 72
65
 73
0
 40
0.0
  0
ENDTAB
  0
TABLE
  2
LAYER
  5
2
100
AcDbSymbolTable
 70
1
  0
LAYER
  5
10
100
AcDbSymbolTableRecord
100
AcDbLayerTableRecord
  2
0
 70
0
 62
7
420
16777215
  6
Continuous
370
25
390
F
  0
ENDTAB
  0
TABLE
  2
STYLE
  5
3
100
AcDbSymbolTable
 70
1
  0
STYLE
  5
57
100
AcDbSymbolTableRecord
100
AcDbTextStyleTableRecord
  2
Standard
 70
0
 40
0.0
 41
1.0
 50
0.0
 71
0
 42
2.5
  3

  4

1001
ACAD
1000
txt
1071
0
  0
ENDTAB
  0
TABLE
  2
VIEW
  5
6
100
AcDbSymbolTable
 70
0
  0
ENDTAB
  0
TABLE
  2
UCS
  5
7
100
AcDbSymbolTable
 70
0
  0
ENDTAB
  0
TABLE
  2
APPID
  5
9
100
AcDbSymbolTable
 70
1
  0
APPID
  5
12
100
AcDbSymbolTableRecord
100
AcDbRegAppTableRecord
  2
ACAD
 70
0
  0
APPID
  5
58
100
AcDbSymbolTableRecord
100
AcDbRegAppTableRecord
  2
QCAD
 70
0
  0
ENDTAB
  0
TABLE
  2
DIMSTYLE
  5
A
100
AcDbSymbolTable
 70
1
100
AcDbDimStyleTable
 71
0
  0
DIMSTYLE
105
27
100
AcDbSymbolTableRecord
100
AcDbDimStyleTableRecord
  2
Standard
 41
2.5
 42
0.625
 43
3.75
 44
1.25
 70
0
 73
0
 74
0
 77
1
 78
8
140
2.5
141
2.5
143
0.03937007874016
147
0.625
171
3
172
1
271
2
272
2
274
3
278
44
283
0
284
8
340
57
  0
ENDTAB
  0
TABLE
  2
BLOCK_RECORD
  5
1
100
AcDbSymbolTable
 70
1
  0
BLOCK_RECORD
  5
1F
100
AcDbSymbolTableRecord
100
AcDbBlockTableRecord
  2
*Model_Space
340
22
  0
BLOCK_RECORD
  5
1B
100
AcDbSymbolTableRecord
100
AcDbBlockTableRecord
  2
*Paper_Space
340
1E
  0
BLOCK_RECORD
  5
23
100
AcDbSymbolTableRecord
100
AcDbBlockTableRecord
  2
*Paper_Space0
340
26
  0
BLOCK_RECORD
  5
59
100
AcDbSymbolTableRecord
100
AcDbBlockTableRecord
  2
crane_front
340
0
  0
BLOCK_RECORD
  5
5A
100
AcDbSymbolTableRecord
100
AcDbBlockTableRecord
  2
crane
340
0
  0
BLOCK_RECORD
  5
5B
100
AcDbSymbolTableRecord
100
AcDbBlockTableRecord
  2
drawer_front
340
0
  0
BLOCK_RECORD
  5
5C
100
AcDbSymbolTableRecord
100
AcDbBlockTableRecord
  2
p3
340
0
  0
BLOCK_RECORD
  5
5D
100
AcDbSymbolTableRecord
100
AcDbBlockTableRecord
  2
frame_foot1
340
0
  0
BLOCK_RECORD
  5
5E
100
AcDbSymbolTableRecord
100
AcDbBlockTableRecord
  2
frame_front
340
0
  0
BLOCK_RECORD
  5
5F
100
AcDbSymbolTableRecord
100
AcDbBlockTableRecord
  2
frame_foot2
340
0
  0
BLOCK_RECORD
  5
60
100
AcDbSymbolTableRecord
100
AcDbBlockTableRecord
  2
drawer_right
340
0
  0
BLOCK_RECORD
  5
61
100
AcDbSymbolTableRecord
100
AcDbBlockTableRecord
  2
frame_right
340
0
  0
BLOCK_RECORD
  5
62
100
AcDbSymbolTableRecord
100
AcDbBlockTableRecord
  2
frame_top
340
0
  0
ENDTAB
  0
ENDSEC
  0
SECTION
  2
BLOCKS
  0
BLOCK
  5
20
100
AcDbEntity
  8
0
100
AcDbBlockBegin
  2
*Model_Space
 70
0
 10
0.0
 20
0.0
 30
0.0
  3
*Model_Space
  1

  0
ENDBLK
  5
21
100
AcDbEntity
  8
0
100
AcDbBlockEnd
  0
BLOCK
  5
1C
100
AcDbEntity
 67
1
  8
0
100
AcDbBlockBegin
  2
*Paper_Space
 70
0
 10
0.0
 20
0.0
 30
0.0
  3
*Paper_Space
  1

  0
ENDBLK
  5
1D
100
AcDbEntity
 67
1
  8
0
100
AcDbBlockEnd
  0
BLOCK
  5
24
100
AcDbEntity
  8
0
100
AcDbBlockBegin
  2
*Paper_Space0
 70
0
 10
0.0
 20
0.0
 30
0.0
  3
*Paper_Space0
  1

  0
ENDBLK
  5
25
100
AcDbEntity
  8
0
100
AcDbBlockEnd
  0
BLOCK
  5
63
100
AcDbEntity
  8
0
100
AcDbBlockBegin
  2
crane_front
 70
0
 10
0.0
 20
0.0
 30
0.0
  3
crane_front
  1

  0
LWPOLYLINE
  5
64
  8
0
 62
256
370
-1
 48
1.0
  6
ByLayer
100
AcDbEntity
100
AcDbPolyline
 90
80
 70
1
 10
17.129999999999995
 20
-25.0
 30
0.0
 10
17.130000000000109
 20
-19.879999999999995
 30
0.0
 10
16.030000000000086
 20
-19.879999999999995
 30
0.0
 42
-2.414213562373094
 10
15.780000000000086
 20
-19.629999999999995
 30
0.0
 10
15.780000000000086
 20
-17.129999999999995
 30
0.0
 42
-2.414213562373094
 10
16.030000000000086
 20
-16.879999999999995
 30
0.0
 10
17.129999999999995
 20
-16.879999999999995
 30
0.0
 10
17.129999999999995
 20
-14.879999999999995
 30
0.0
 10
20.430000000000064
 20
-14.879999999999995
 30
0.0
 10
20.430000000000064
 20
-16.879999999999995
 30
0.0
 10
21.530000000000086
 20
-16.879999999999995
 30
0.0
 42
-2.414213562373094
 10
21.780000000000086
 20
-17.129999999999995
 30
0.0
 10
21.780000000000086
 20
-19.629999999999995
 30
0.0
 42
-2.414213562373094
 10
21.530000000000086
 20
-19.879999999999995
 30
0.0
 10
20.430000000000064
 20
-19.879999999999995
 30
0.0
 10
20.430000000000064
 20
-25.0
 30
0.0
 10
65.530000000000086
 20
-25.0
 30
0.0
 10
65.530000000000086
 20
-31.720000000000027
 30
0.0
 10
75.530000000000086
 20
-31.720000000000027
 30
0.0
 10
75.530000000000086
 20
-25.0
 30
0.0
 10
86.130000000000109
 20
-25.0
 30
0.0
 10
86.129999999999995
 20
-19.879999999999995
 30
0.0
 10
85.030000000000086
 20
-19.879999999999995
 30
0.0
 42
-2.414213562373094
 10
84.780000000000086
 20
-19.629999999999995
 30
0.0
 10
84.780000000000086
 20
-17.129999999999995
 30
0.0
 42
-2.414213562373094
 10
85.030000000000086
 20
-16.879999999999995
 30
0.0
 10
86.129999999999995
 20
-16.879999999999995
 30
0.0
 10
86.129999999999995
 20
-14.879999999999995
 30
0.0
 10
89.430000000000064
 20
-14.879999999999995
 30
0.0
 10
89.430000000000064
 20
-16.879999999999995
 30
0.0
 10
90.530000000000086
 20
-16.879999999999995
 30
0.0
 42
-2.414213562373094
 10
90.780000000000086
 20
-17.129999999999995
 30
0.0
 10
90.780000000000086
 20
-19.629999999999995
 30
0.0
 42
-2.414213562373094
 10
90.530000000000086
 20
-19.879999999999995
 30
0.0
 10
89.430000000000064
 20
-19.879999999999995
 30
0.0
 10
89.430000000000064
 20
-25.0
 30
0.0
 10
117.28000000000009
 20
-25.0
 30
0.0
 10
117.28000000000009
 20
-31.720000000000027
 30
0.0
 10
127.27999999999997
 20
-31.720000000000027
 30
0.0
 10
127.27999999999997
 20
-25.0
 30
0.0
 10
155.13
 20
-25.0
 30
0.0
 10
155.13
 20
-19.879999999999995
 30
0.0
 10
154.03000000000009
 20
-19.879999999999995
 30
0.0
 42
-2.414213562373094
 10
153.78000000000009
 20
-19.629999999999995
 30
0.0
 10
153.78000000000009
 20
-17.129999999999995
 30
0.0
 42
-2.414213562373094
 10
154.03000000000009
 20
-16.879999999999995
 30
0.0
 10
155.13
 20
-16.879999999999995
 30
0.0
 10
155.13
 20
-14.879999999999995
 30
0.0
 10
158.43000000000018
 20
-14.879999999999995
 30
0.0
 10
158.43000000000018
 20
-16.879999999999995
 30
0.0
 10
159.53000000000009
 20
-16.879999999999995
 30
0.0
 42
-2.414213562373094
 10
159.78000000000009
 20
-17.129999999999995
 30
0.0
 10
159.78000000000009
 20
-19.629999999999995
 30
0.0
 42
-2.414213562373094
 10
159.53000000000009
 20
-19.879999999999995
 30
0.0
 10
158.43000000000018
 20
-19.879999999999995
 30
0.0
 10
158.43000000000018
 20
-25.0
 30
0.0
 10
169.03000000000009
 20
-25.0
 30
0.0
 10
169.03000000000009
 20
-31.720000000000027
 30
0.0
 10
179.03000000000009
 20
-31.720000000000027
 30
0.0
 10
179.03000000000009
 20
-25.0
 30
0.0
 10
224.13
 20
-25.0
 30
0.0
 10
224.13
 20
-19.879999999999995
 30
0.0
 10
223.03000000000009
 20
-19.879999999999995
 30
0.0
 42
-2.414213562373094
 10
222.78000000000009
 20
-19.629999999999995
 30
0.0
 10
222.78000000000009
 20
-17.129999999999995
 30
0.0
 42
-2.414213562373094
 10
223.03000000000009
 20
-16.879999999999995
 30
0.0
 10
224.13
 20
-16.879999999999995
 30
0.0
 10
224.13
 20
-14.879999999999995
 30
0.0
 10
227.43000000000018
 20
-14.879999999999995
 30
0.0
 10
227.43000000000018
 20
-16.879999999999995
 30
0.0
 10
228.53000000000009
 20
-16.879999999999995
 30
0.0
 42
-2.414213562373094
 10
228.78000000000009
 20
-17.129999999999995
 30
0.0
 10
228.78000000000009
 20
-19.629999999999995
 30
0.0
 42
-2.414213562373094
 10
228.53000000000009
 20
-19.879999999999995
 30
0.0
 10
227.43000000000018
 20
-19.879999999999995
 30
0.0
 10
227.43000000000018
 20
-25.0
 30
0.0
 10
244.56000000000006
 20
-25.0
 30
0.0
 10
244.56000000000006
 20
0.0
 30
0.0
 10
0.0
 20
0.0
 30
0.0
 10
0.0
 20
-25.0
 30
0.0
  0
ENDBLK
  5
65
100
AcDbEntity
  8
0
100
AcDbBlockEnd
  0
BLOCK
  5
66
100
AcDbEntity
  8
0
100
AcDbBlockBegin
  2
crane
 70
0
 10
0.0
 20
0.0
 30
0.0
  3
crane
  1

  0
LWPOLYLINE
  5
67
  8
0
 62
256
370
-1
 48
1.0
  6
ByLayer
100
AcDbEntity
100
AcDbPolyline
 90
12
 70
1
 10
-33.779999999999973
 20
60.0
 30
0.0
 10
-33.779999999999973
 20
75.5
 30
0.0
 10
-210.77999999999997
 20
75.5
 30
0.0
 10
-210.77999999999997
 20
60.0
 30
0.0
 10
-244.55999999999995
 20
60.0
 30
0.0
 10
-244.55999999999995
 20
0.0
 30
0.0
 10
-210.77999999999997
 20
0.0
 30
0.0
 10
-210.77999999999997
 20
-15.5
 30
0.0
 10
-33.779999999999973
 20
-15.5
 30
0.0
 10
-33.779999999999973
 20
0.0
 30
0.0
 10
0.0
 20
0.0
 30
0.0
 10
0.0
 20
60.0
 30
0.0
  0
CIRCLE
  5
68
100
AcDbEntity
100
AcDbCircle
  8
0
 62
256
370
-1
 48
1.0
  6
ByLayer
 10
-122.27999999999997
 20
70.5
 30
0.0
 40
1.9999999999999989
  0
CIRCLE
  5
69
100
AcDbEntity
100
AcDbCircle
  8
0
 62
256
370
-1
 48
1.0
  6
ByLayer
 10
-122.27999999999997
 20
-10.5
 30
0.0
 40
1.9999999999999989
  0
CIRCLE
  5
6A
100
AcDbEntity
100
AcDbCircle
  8
0
 62
256
370
-1
 48
1.0
  6
ByLayer
 10
-18.779999999999973
 20
56.639999999999986
 30
0.0
 40
1.6499999999999999
  0
CIRCLE
  5
6B
100
AcDbEntity
100
AcDbCircle
  8
0
 62
256
370
-1
 48
1.0
  6
ByLayer
 10
-156.77999999999997
 20
56.639999999999986
 30
0.0
 40
1.6499999999999999
  0
CIRCLE
  5
6C
100
AcDbEntity
100
AcDbCircle
  8
0
 62
256
370
-1
 48
1.0
  6
ByLayer
 10
-18.779999999999973
 20
3.3600000000000136
 30
0.0
 40
1.6499999999999999
  0
CIRCLE
  5
6D
100
AcDbEntity
100
AcDbCircle
  8
0
 62
256
370
-1
 48
1.0
  6
ByLayer
 10
-156.77999999999997
 20
3.3600000000000136
 30
0.0
 40
1.6499999999999999
  0
CIRCLE
  5
6E
100
AcDbEntity
100
AcDbCircle
  8
0
 62
256
370
-1
 48
1.0
  6
ByLayer
 10
-81.779999999999973
 20
70.5
 30
0.0
 40
1.6499999999999999
  0
CIRCLE
  5
6F
100
AcDbEntity
100
AcDbCircle
  8
0
 62
256
370
-1
 48
1.0
  6
ByLayer
 10
-81.779999999999973
 20
-10.5
 30
0.0
 40
1.6499999999999999
  0
CIRCLE
  5
70
100
AcDbEntity
100
AcDbCircle
  8
0
 62
256
370
-1
 48
1.0
  6
ByLayer
 10
-162.77999999999997
 20
-10.5
 30
0.0
 40
1.6499999999999999
  0
CIRCLE
  5
71
100
AcDbEntity
100
AcDbCircle
  8
0
 62
256
370
-1
 48
1.0
  6
ByLayer
 10
-162.77999999999997
 20
70.5
 30
0.0
 40
1.6499999999999999
  0
CIRCLE
  5
72
100
AcDbEntity
100
AcDbCircle
  8
0
 62
256
370
-1
 48
1.0
  6
ByLayer
 10
-225.77999999999997
 20
3.3600000000000136
 30
0.0
 40
1.6499999999999999
  0
CIRCLE
  5
73
100
AcDbEntity
100
AcDbCircle
  8
0
 62
256
370
-1
 48
1.0
  6
ByLayer
 10
-87.779999999999973
 20
3.3600000000000136
 30
0.0
 40
1.6499999999999999
  0
CIRCLE
  5
74
100
AcDbEntity
100
AcDbCircle
  8
0
 62
256
370
-1
 48
1.0
  6
ByLayer
 10
-225.77999999999997
 20
56.6400000000001
 30
0.0
 40
1.6499999999999999
  0
CIRCLE
  5
75
100
AcDbEntity
100
AcDbCircle
  8
0
 62
256
370
-1
 48
1.0
  6
ByLayer
 10
-87.779999999999973
 20
56.639999999999986
 30
0.0
 40
1.6499999999999999
  0
CIRCLE
  5
76
100
AcDbEntity
100
AcDbCircle
  8
0
 62
256
370
-1
 48
1.0
  6
ByLayer
 10
-106.77999999999997
 20
45.5
 30
0.0
 40
1.6499999999999999
  0
CIRCLE
  5
77
100
AcDbEntity
100
AcDbCircle
  8
0
 62
256
370
-1
 48
1.0
  6
ByLayer
 10
-106.77999999999997
 20
14.5
 30
0.0
 40
1.6499999999999999
  0
CIRCLE
  5
78
100
AcDbEntity
100
AcDbCircle
  8
0
 62
256
370
-1
 48
1.0
  6
ByLayer
 10
-137.77999999999997
 20
14.5
 30
0.0
 40
1.6499999999999999
  0
CIRCLE
  5
79
100
AcDbEntity
100
AcDbCircle
  8
0
 62
256
370
-1
 48
1.0
  6
ByLayer
 10
-137.77999999999997
 20
45.5
 30
0.0
 40
1.6499999999999999
  0
CIRCLE
  5
7A
100
AcDbEntity
100
AcDbCircle
  8
0
 62
256
370
-1
 48
1.0
  6
ByLayer
 10
-122.27999999999997
 20
30.0
 30
0.0
 40
11.5
  0
CIRCLE
  5
7B
100
AcDbEntity
100
AcDbCircle
  8
0
 62
256
370
-1
 48
1.0
  6
ByLayer
 10
-225.77999999999997
 20
30.0
 30
0.0
 40
4.5
  0
CIRCLE
  5
7C
100
AcDbEntity
100
AcDbCircle
  8
0
 62
256
370
-1
 48
1.0
  6
ByLayer
 10
-234.2652813742385
 20
38.485281374238639
 30
0.0
 40
1.6499999999999999
  0
CIRCLE
  5
7D
100
AcDbEntity
100
AcDbCircle
  8
0
 62
256
370
-1
 48
1.0
  6
ByLayer
 10
-217.29471862576145
 20
21.514718625761475
 30
0.0
 40
1.6499999999999999
  0
CIRCLE
  5
7E
100
AcDbEntity
100
AcDbCircle
  8
0
 62
256
370
-1
 48
1.0
  6
ByLayer
 10
-234.2652813742385
 20
21.514718625761475
 30
0.0
 40
1.6499999999999999
  0
CIRCLE
  5
7F
100
AcDbEntity
100
AcDbCircle
  8
0
 62
256
370
-1
 48
1.0
  6
ByLayer
 10
-217.29471862576133
 20
38.485281374238639
 30
0.0
 40
1.6499999999999999
  0
CIRCLE
  5
80
100
AcDbEntity
100
AcDbCircle
  8
0
 62
256
370
-1
 48
1.0
  6
ByLayer
 10
-18.779999999999973
 20
30.0
 30
0.0
 40
4.5
  0
CIRCLE
  5
81
100
AcDbEntity
100
AcDbCircle
  8
0
 62
256
370
-1
 48
1.0
  6
ByLayer
 10
-10.294718625761561
 20
38.485281374238639
 30
0.0
 40
1.6499999999999999
  0
CIRCLE
  5
82
100
AcDbEntity
100
AcDbCircle
  8
0
 62
256
370
-1
 48
1.0
  6
ByLayer
 10
-27.265281374238612
 20
21.514718625761475
 30
0.0
 40
1.6499999999999999
  0
CIRCLE
  5
83
100
AcDbEntity
100
AcDbCircle
  8
0
 62
256
370
-1
 48
1.0
  6
ByLayer
 10
-10.294718625761561
 20
21.514718625761475
 30
0.0
 40
1.6499999999999999
  0
CIRCLE
  5
84
100
AcDbEntity
100
AcDbCircle
  8
0
 62
256
370
-1
 48
1.0
  6
ByLayer
 10
-27.265281374238612
 20
38.485281374238639
 30
0.0
 40
1.6499999999999999
  0
CIRCLE
  5
85
100
AcDbEntity
100
AcDbCircle
  8
0
 62
256
370
-1
 48
1.0
  6
ByLayer
 10
-61.279999999999973
 20
14.720000000000027
 30
0.0
 40
7.0
  0
CIRCLE
  5
86
100
AcDbEntity
100
AcDbCircle
  8
0
 62
256
370
-1
 48
1.0
  6
ByLayer
 10
-236.55999999999995
 20
49.279999999999973
 30
0.0
 40
4.0000000000000018
  0
CIRCLE
  5
87
100
AcDbEntity
100
AcDbCircle
  8
0
 62
256
370
-1
 48
1.0
  6
ByLayer
 10
-7.9999999999997726
 20
49.279999999999745
 30
0.0
 40
4.0000000000000018
  0
LWPOLYLINE
  5
88
  8
0
 62
256
370
-1
 48
1.0
  6
ByLayer
100
AcDbEntity
100
AcDbPolyline
 90
4
 70
1
 10
-117.27999999999997
 20
60.0
 30
0.0
 10
-117.27999999999997
 20
53.279999999999973
 30
0.0
 10
-127.27999999999997
 20
53.279999999999973
 30
0.0
 10
-127.27999999999997
 20
60.0
 30
0.0
  0
LWPOLYLINE
  5
89
  8
0
 62
256
370
-1
 48
1.0
  6
ByLayer
100
AcDbEntity
100
AcDbPolyline
 90
4
 70
1
 10
-75.529999999999973
 20
53.279999999999973
 30
0.0
 10
-75.529999999999973
 20
60.0
 30
0.0
 10
-65.529999999999973
 20
60.0
 30
0.0
 10
-65.529999999999973
 20
53.279999999999973
 30
0.0
  0
LWPOLYLINE
  5
8A
  8
0
 62
256
370
-1
 48
1.0
  6
ByLayer
100
AcDbEntity
100
AcDbPolyline
 90
4
 70
1
 10
-169.02999999999997
 20
60.0
 30
0.0
 10
-169.02999999999997
 20
53.279999999999973
 30
0.0
 10
-179.02999999999997
 20
53.279999999999973
 30
0.0
 10
-179.02999999999997
 20
60.0
 30
0.0
  0
LWPOLYLINE
  5
8B
  8
0
 62
256
370
-1
 48
1.0
  6
ByLayer
100
AcDbEntity
100
AcDbPolyline
 90
4
 70
1
 10
-75.529999999999973
 20
0.0
 30
0.0
 10
-75.529999999999973
 20
6.7200000000000273
 30
0.0
 10
-65.529999999999973
 20
6.7200000000000273
 30
0.0
 10
-65.529999999999973
 20
0.0
 30
0.0
  0
LWPOLYLINE
  5
8C
  8
0
 62
256
370
-1
 48
1.0
  6
ByLayer
100
AcDbEntity
100
AcDbPolyline
 90
4
 70
1
 10
-127.27999999999997
 20
0.0
 30
0.0
 10
-127.27999999999997
 20
6.7200000000000273
 30
0.0
 10
-117.27999999999997
 20
6.7200000000000273
 30
0.0
 10
-117.27999999999997
 20
0.0
 30
0.0
  0
LWPOLYLINE
  5
8D
  8
0
 62
256
370
-1
 48
1.0
  6
ByLayer
100
AcDbEntity
100
AcDbPolyline
 90
4
 70
1
 10
-169.02999999999997
 20
6.7200000000000273
 30
0.0
 10
-169.02999999999997
 20
0.0
 30
0.0
 10
-179.02999999999997
 20
0.0
 30
0.0
 10
-179.02999999999997
 20
6.7200000000000273
 30
0.0
  0
ENDBLK
  5
8E
100
AcDbEntity
  8
0
100
AcDbBlockEnd
  0
BLOCK
  5
8F
100
AcDbEntity
  8
0
100
AcDbBlockBegin
  2
drawer_front
 70
0
 10
0.0
 20
0.0
 30
0.0
  3
drawer_front
  1

  0
LWPOLYLINE
  5
90
  8
0
 62
256
370
-1
 48
1.0
  6
ByLayer
100
AcDbEntity
100
AcDbPolyline
 90
8
 70
1
 10
-60.333333333333258
 20
-217.6400000000001
 30
0.0
 10
0.0
 20
-217.6400000000001
 30
0.0
 10
0.0
 20
0.0
 30
0.0
 10
-181.0
 20
0.0
 30
0.0
 10
-181.0
 20
-217.6400000000001
 30
0.0
 10
-120.66666666666674
 20
-217.6400000000001
 30
0.0
 10
-120.66666666666674
 20
-224.36000000000013
 30
0.0
 10
-60.333333333333258
 20
-224.36000000000013
 30
0.0
  0
CIRCLE
  5
91
100
AcDbEntity
100
AcDbCircle
  8
0
 62
256
370
-1
 48
1.0
  6
ByLayer
 10
-90.5
 20
-221.0
 30
0.0
 40
1.5749999999999991
  0
CIRCLE
  5
92
100
AcDbEntity
100
AcDbCircle
  8
0
 62
256
370
-1
 48
1.0
  6
ByLayer
 10
-30.166666666666742
 20
-69.320000000000164
 30
0.0
 40
1.5750000000000011
  0
CIRCLE
  5
93
100
AcDbEntity
100
AcDbCircle
  8
0
 62
256
370
-1
 48
1.0
  6
ByLayer
 10
-150.83333333333326
 20
-69.320000000000164
 30
0.0
 40
1.5750000000000011
  0
ENDBLK
  5
94
100
AcDbEntity
  8
0
100
AcDbBlockEnd
  0
BLOCK
  5
95
100
AcDbEntity
  8
0
100
AcDbBlockBegin
  2
p3
 70
0
 10
0.0
 20
0.0
 30
0.0
  3
p3
  1

  0
LINE
  5
96
100
AcDbEntity
100
AcDbLine
  8
0
 62
256
370
-1
 48
1.0
  6
ByLayer
 10
0.0
 20
0.0
 30
0.0
 11
790.0
 21
0.0
 31
0.0
  0
LINE
  5
97
100
AcDbEntity
100
AcDbLine
  8
0
 62
256
370
-1
 48
1.0
  6
ByLayer
 10
790.0
 20
0.0
 30
0.0
 11
790.0
 21
-384.0
 31
0.0
  0
LINE
  5
98
100
AcDbEntity
100
AcDbLine
  8
0
 62
256
370
-1
 48
1.0
  6
ByLayer
 10
790.0
 20
-384.0
 30
0.0
 11
0.0
 21
-384.0
 31
0.0
  0
LINE
  5
99
100
AcDbEntity
100
AcDbLine
  8
0
 62
256
370
-1
 48
1.0
  6
ByLayer
 10
0.0
 20
-384.0
 30
0.0
 11
0.0
 21
0.0
 31
0.0
  0
ENDBLK
  5
9A
100
AcDbEntity
  8
0
100
AcDbBlockEnd
  0
BLOCK
  5
9B
100
AcDbEntity
  8
0
100
AcDbBlockBegin
  2
frame_foot1
 70
0
 10
0.0
 20
0.0
 30
0.0
  3
frame_foot1
  1

  0
CIRCLE
  5
9C
100
AcDbEntity
100
AcDbCircle
  8
0
 62
256
370
-1
 48
1.0
  6
ByLayer
 10
-20.240000000000236
 20
-17.779999999999973
 30
0.0
 40
2.0
  0
LWPOLYLINE
  5
9D
  8
0
 62
256
370
-1
 48
1.0
  6
ByLayer
100
AcDbEntity
100
AcDbPolyline
 90
4
 70
1
 10
-72.340000000000146
 20
-20.7800000000002
 30
0.0
 42
-0.9999999999999998
 10
-72.340000000000146
 20
-14.779999999999973
 30
0.0
 10
-68.340000000000146
 20
-14.779999999999973
 30
0.0
 42
-0.9999999999999998
 10
-68.340000000000146
 20
-20.7800000000002
 30
0.0
  0
LWPOLYLINE
  5
9E
  8
0
 62
256
370
-1
 48
1.0
  6
ByLayer
100
AcDbEntity
100
AcDbPolyline
 90
4
 70
1
 10
-65.67333333333363
 20
-8.2950000000000728
 30
0.0
 42
-0.9999999999999998
 10
-65.67333333333363
 20
-5.1449999999999818
 30
0.0
 10
-61.67333333333363
 20
-5.1449999999999818
 30
0.0
 42
-0.9999999999999998
 10
-61.67333333333363
 20
-8.2950000000000728
 30
0.0
  0
LWPOLYLINE
  5
9F
  8
0
 62
256
370
-1
 48
1.0
  6
ByLayer
100
AcDbEntity
100
AcDbPolyline
 90
4
 70
1
 10
-79.006666666666661
 20
-8.2950000000000728
 30
0.0
 42
-0.9999999999999998
 10
-79.006666666666661
 20
-5.1449999999999818
 30
0.0
 10
-75.006666666666661
 20
-5.1449999999999818
 30
0.0
 42
-0.9999999999999998
 10
-75.006666666666661
 20
-8.2950000000000728
 30
0.0
  0
LWPOLYLINE
  5
A0
  8
0
 62
256
370
-1
 48
1.0
  6
ByLayer
100
AcDbEntity
100
AcDbPolyline
 90
4
 70
1
 10
-72.340000000000146
 20
-35.7800000000002
 30
0.0
 42
-0.9999999999999998
 10
-72.340000000000146
 20
-29.779999999999973
 30
0.0
 10
-68.340000000000146
 20
-29.779999999999973
 30
0.0
 42
-0.9999999999999998
 10
-68.340000000000146
 20
-35.7800000000002
 30
0.0
  0
LWPOLYLINE
  5
A1
  8
0
 62
256
370
-1
 48
1.0
  6
ByLayer
100
AcDbEntity
100
AcDbPolyline
 90
58
 70
1
 10
-127.24000000000024
 20
-31.220000000000027
 30
0.0
 10
-167.55999999999995
 20
-31.220000000000027
 30
0.0
 10
-167.55999999999995
 20
-53.5
 30
0.0
 10
-110.52719697373959
 20
-54.495511279861148
 30
0.0
 10
-110.44000000000005
 20
-49.5
 30
0.0
 10
-110.44000000000005
 20
-36.060000000000173
 30
0.0
 10
-103.72000000000025
 20
-36.060000000000173
 30
0.0
 10
-103.72000000000025
 20
-42.7800000000002
 30
0.0
 10
-94.243333333333339
 20
-42.7800000000002
 30
0.0
 10
-94.243333333333339
 20
-38.5
 30
0.0
 10
-95.343333333333703
 20
-38.5
 30
0.0
 42
-2.414213562373094
 10
-95.593333333333703
 20
-38.25
 30
0.0
 10
-95.593333333333703
 20
-35.75
 30
0.0
 42
-2.414213562373094
 10
-95.343333333333703
 20
-35.5
 30
0.0
 10
-94.243333333333339
 20
-35.5
 30
0.0
 10
-94.243333333333339
 20
-33.5
 30
0.0
 10
-90.943333333333612
 20
-33.5
 30
0.0
 10
-90.943333333333612
 20
-35.5
 30
0.0
 10
-89.843333333333703
 20
-35.5
 30
0.0
 42
-2.414213562373094
 10
-89.593333333333703
 20
-35.75
 30
0.0
 10
-89.593333333333703
 20
-38.25
 30
0.0
 42
-2.414213562373094
 10
-89.843333333333703
 20
-38.5
 30
0.0
 10
-90.943333333333612
 20
-38.5
 30
0.0
 10
-90.943333333333612
 20
-42.7800000000002
 30
0.0
 10
-81.466666666666697
 20
-42.7800000000002
 30
0.0
 10
-81.466666666666697
 20
-49.5
 30
0.0
 10
-59.213333333333594
 20
-49.5
 30
0.0
 10
-59.213333333333594
 20
-42.7800000000002
 30
0.0
 10
-49.736666666666679
 20
-42.7800000000002
 30
0.0
 10
-49.736666666666679
 20
-38.5
 30
0.0
 10
-50.836666666666588
 20
-38.5
 30
0.0
 42
-2.414213562373094
 10
-51.086666666666588
 20
-38.25
 30
0.0
 10
-51.086666666666588
 20
-35.75
 30
0.0
 42
-2.414213562373094
 10
-50.836666666666588
 20
-35.5
 30
0.0
 10
-49.736666666666679
 20
-35.5
 30
0.0
 10
-49.736666666666679
 20
-33.5
 30
0.0
 10
-46.436666666666952
 20
-33.5
 30
0.0
 10
-46.436666666666952
 20
-35.5
 30
0.0
 10
-45.336666666666588
 20
-35.5
 30
0.0
 42
-2.414213562373094
 10
-45.086666666666588
 20
-35.75
 30
0.0
 10
-45.086666666666588
 20
-38.25
 30
0.0
 42
-2.414213562373094
 10
-45.336666666666588
 20
-38.5
 30
0.0
 10
-46.436666666666952
 20
-38.5
 30
0.0
 10
-46.436666666666952
 20
-42.7800000000002
 30
0.0
 10
-36.960000000000036
 20
-42.7800000000002
 30
0.0
 10
-36.960000000000036
 20
-36.060000000000173
 30
0.0
 10
-30.240000000000236
 20
-36.060000000000173
 30
0.0
 10
-30.240000000000236
 20
-49.5
 30
0.0
 10
-30.351624810273734
 20
-55.894981097630762
 30
0.0
 10
26.880000000000109
 20
-56.893962824641221
 30
0.0
 10
26.879999999999654
 20
-31.220000000000027
 30
0.0
 10
-13.440000000000055
 20
-31.220000000000027
 30
0.0
 10
-13.440000000000055
 20
-24.5
 30
0.0
 10
0.0
 20
-24.5
 30
0.0
 10
0.0
 20
0.0
 30
0.0
 10
-140.68000000000029
 20
0.0
 30
0.0
 10
-140.68000000000029
 20
-24.5
 30
0.0
 10
-127.24000000000024
 20
-24.5
 30
0.0
  0
CIRCLE
  5
A2
100
AcDbEntity
100
AcDbCircle
  8
0
 62
256
370
-1
 48
1.0
  6
ByLayer
 10
-120.44000000000005
 20
-17.779999999999973
 30
0.0
 40
2.0
  0
ENDBLK
  5
A3
100
AcDbEntity
  8
0
100
AcDbBlockEnd
  0
BLOCK
  5
A4
100
AcDbEntity
  8
0
100
AcDbBlockBegin
  2
frame_front
 70
0
 10
0.0
 20
0.0
 30
0.0
  3
frame_front
  1

  0
CIRCLE
  5
A5
100
AcDbEntity
100
AcDbCircle
  8
0
 62
256
370
-1
 48
1.0
  6
ByLayer
 10
-66.91666666666697
 20
-516.63999999999987
 30
0.0
 40
1.5750000000000159
  0
LWPOLYLINE
  5
A6
  8
0
 62
256
370
-1
 48
1.0
  6
ByLayer
100
AcDbEntity
100
AcDbPolyline
 90
24
 70
1
 10
-39.5
 20
-289.11999999999989
 30
0.0
 10
-33.0
 20
-289.11999999999989
 30
0.0
 10
-33.0
 20
-295.0
 30
0.0
 10
-39.5
 20
-295.0
 30
0.0
 10
-39.5
 20
-506.55999999999995
 30
0.0
 10
-46.2199999999998
 20
-506.55999999999995
 30
0.0
 10
-46.2199999999998
 20
-480.5
 30
0.0
 10
-213.7800000000002
 20
-480.5
 30
0.0
 10
-213.7800000000002
 20
-506.55999999999995
 30
0.0
 10
-220.5
 20
-506.55999999999995
 30
0.0
 10
-220.5
 20
-295.0
 30
0.0
 10
-227.0
 20
-295.0
 30
0.0
 10
-227.0
 20
-289.11999999999989
 30
0.0
 10
-220.5
 20
-289.11999999999989
 30
0.0
 10
-220.5
 20
-154.11999999999989
 30
0.0
 10
-223.65000000000009
 20
-154.11999999999989
 30
0.0
 10
-223.65000000000009
 20
-104.11999999999989
 30
0.0
 10
-220.5
 20
-104.11999999999989
 30
0.0
 10
-220.5
 20
-39.5
 30
0.0
 10
-39.5
 20
-39.5
 30
0.0
 10
-39.5
 20
-104.11999999999989
 30
0.0
 10
-36.349999999999909
 20
-104.11999999999989
 30
0.0
 10
-36.349999999999909
 20
-154.11999999999989
 30
0.0
 10
-39.5
 20
-154.11999999999989
 30
0.0
  0
LWPOLYLINE
  5
A7
  8
0
 62
256
370
-1
 48
1.0
  6
ByLayer
100
AcDbEntity
100
AcDbPolyline
 90
16
 70
1
 10
-6.7200000000002547
 20
-520.0
 30
0.0
 10
-6.7199999999997999
 20
-295.0
 30
0.0
 10
0.0
 20
-295.0
 30
0.0
 10
0.0
 20
0.0
 30
0.0
 10
-86.66666666666697
 20
0.0
 30
0.0
 10
-86.66666666666697
 20
-6.7200000000000273
 30
0.0
 10
-173.33333333333348
 20
-6.7200000000000273
 30
0.0
 10
-173.33333333333348
 20
0.0
 30
0.0
 10
-260.0
 20
0.0
 30
0.0
 10
-260.0
 20
-295.0
 30
0.0
 10
-253.2800000000002
 20
-295.0
 30
0.0
 10
-253.27999999999975
 20
-520.0
 30
0.0
 10
-173.33333333333303
 20
-520.0
 30
0.0
 10
-173.33333333333303
 20
-513.27999999999997
 30
0.0
 10
-86.666666666666515
 20
-513.27999999999997
 30
0.0
 10
-86.666666666666515
 20
-520.0
 30
0.0
  0
CIRCLE
  5
A8
100
AcDbEntity
100
AcDbCircle
  8
0
 62
256
370
-1
 48
1.0
  6
ByLayer
 10
-193.08333333333303
 20
-516.63999999999987
 30
0.0
 40
1.5750000000000159
  0
CIRCLE
  5
A9
100
AcDbEntity
100
AcDbCircle
  8
0
 62
256
370
-1
 48
1.0
  6
ByLayer
 10
-193.08333333333348
 20
-3.3600000000000136
 30
0.0
 40
1.575
  0
CIRCLE
  5
AA
100
AcDbEntity
100
AcDbCircle
  8
0
 62
256
370
-1
 48
1.0
  6
ByLayer
 10
-256.63999999999987
 20
-19.75
 30
0.0
 40
1.575
  0
CIRCLE
  5
AB
100
AcDbEntity
100
AcDbCircle
  8
0
 62
256
370
-1
 48
1.0
  6
ByLayer
 10
-19.75
 20
-516.63999999999987
 30
0.0
 40
1.574999999999998
  0
CIRCLE
  5
AC
100
AcDbEntity
100
AcDbCircle
  8
0
 62
256
370
-1
 48
1.0
  6
ByLayer
 10
-256.63999999999987
 20
-275.25
 30
0.0
 40
1.574999999999996
  0
CIRCLE
  5
AD
100
AcDbEntity
100
AcDbCircle
  8
0
 62
256
370
-1
 48
1.0
  6
ByLayer
 10
-240.25
 20
-3.3600000000000136
 30
0.0
 40
1.574999999999998
  0
CIRCLE
  5
AE
100
AcDbEntity
100
AcDbCircle
  8
0
 62
256
370
-1
 48
1.0
  6
ByLayer
 10
-19.75
 20
-3.3600000000000136
 30
0.0
 40
1.574999999999998
  0
CIRCLE
  5
AF
100
AcDbEntity
100
AcDbCircle
  8
0
 62
256
370
-1
 48
1.0
  6
ByLayer
 10
-240.25
 20
-516.63999999999987
 30
0.0
 40
1.574999999999998
  0
CIRCLE
  5
B0
100
AcDbEntity
100
AcDbCircle
  8
0
 62
256
370
-1
 48
1.0
  6
ByLayer
 10
-3.3600000000001273
 20
-275.25
 30
0.0
 40
1.574999999999996
  0
CIRCLE
  5
B1
100
AcDbEntity
100
AcDbCircle
  8
0
 62
256
370
-1
 48
1.0
  6
ByLayer
 10
-3.3600000000001273
 20
-19.75
 30
0.0
 40
1.575
  0
CIRCLE
  5
B2
100
AcDbEntity
100
AcDbCircle
  8
0
 62
256
370
-1
 48
1.0
  6
ByLayer
 10
-66.916666666666515
 20
-3.3600000000000136
 30
0.0
 40
1.575
  0
ENDBLK
  5
B3
100
AcDbEntity
  8
0
100
AcDbBlockEnd
  0
BLOCK
  5
B4
100
AcDbEntity
  8
0
100
AcDbBlockBegin
  2
frame_foot2
 70
0
 10
0.0
 20
0.0
 30
0.0
  3
frame_foot2
  1

  0
LWPOLYLINE
  5
B5
  8
0
 62
256
370
-1
 48
1.0
  6
ByLayer
100
AcDbEntity
100
AcDbPolyline
 90
58
 70
1
 10
26.880000000000109
 20
-31.220000000000027
 30
0.0
 10
-13.440000000000055
 20
-31.220000000000027
 30
0.0
 10
-13.440000000000055
 20
-24.5
 30
0.0
 10
0.0
 20
-24.5
 30
0.0
 10
0.0
 20
0.0
 30
0.0
 10
-140.67999999999984
 20
0.0
 30
0.0
 10
-140.67999999999984
 20
-24.5
 30
0.0
 10
-127.23999999999978
 20
-24.5
 30
0.0
 10
-127.24000000000024
 20
-31.220000000000027
 30
0.0
 10
-167.55999999999995
 20
-31.220000000000027
 30
0.0
 10
-167.55999999999995
 20
-56.893962824640994
 30
0.0
 10
-110.3283751897261
 20
-55.894981097630762
 30
0.0
 10
-110.44000000000005
 20
-49.5
 30
0.0
 10
-110.44000000000005
 20
-36.059999999999945
 30
0.0
 10
-103.72000000000025
 20
-36.059999999999945
 30
0.0
 10
-103.72000000000025
 20
-42.779999999999973
 30
0.0
 10
-94.243333333333339
 20
-42.779999999999973
 30
0.0
 10
-94.243333333333339
 20
-38.5
 30
0.0
 10
-95.343333333333248
 20
-38.5
 30
0.0
 42
-2.414213562373094
 10
-95.593333333333248
 20
-38.25
 30
0.0
 10
-95.593333333333248
 20
-35.75
 30
0.0
 42
-2.414213562373094
 10
-95.343333333333248
 20
-35.5
 30
0.0
 10
-94.243333333333339
 20
-35.5
 30
0.0
 10
-94.243333333333339
 20
-33.5
 30
0.0
 10
-90.943333333333157
 20
-33.5
 30
0.0
 10
-90.943333333333157
 20
-35.5
 30
0.0
 10
-89.843333333333248
 20
-35.5
 30
0.0
 42
-2.414213562373094
 10
-89.593333333333248
 20
-35.75
 30
0.0
 10
-89.593333333333248
 20
-38.25
 30
0.0
 42
-2.414213562373094
 10
-89.843333333333248
 20
-38.5
 30
0.0
 10
-90.943333333333157
 20
-38.5
 30
0.0
 10
-90.943333333333157
 20
-42.779999999999973
 30
0.0
 10
-81.466666666666697
 20
-42.779999999999973
 30
0.0
 10
-81.466666666666697
 20
-49.5
 30
0.0
 10
-59.213333333333139
 20
-49.5
 30
0.0
 10
-59.213333333333139
 20
-42.779999999999973
 30
0.0
 10
-49.736666666666679
 20
-42.779999999999973
 30
0.0
 10
-49.736666666666679
 20
-38.5
 30
0.0
 10
-50.836666666666588
 20
-38.5
 30
0.0
 42
-2.414213562373094
 10
-51.086666666666588
 20
-38.25
 30
0.0
 10
-51.086666666666588
 20
-35.75
 30
0.0
 42
-2.414213562373094
 10
-50.836666666666588
 20
-35.5
 30
0.0
 10
-49.736666666666679
 20
-35.5
 30
0.0
 10
-49.736666666666679
 20
-33.5
 30
0.0
 10
-46.436666666666497
 20
-33.5
 30
0.0
 10
-46.436666666666497
 20
-35.5
 30
0.0
 10
-45.336666666666588
 20
-35.5
 30
0.0
 42
-2.414213562373094
 10
-45.086666666666588
 20
-35.75
 30
0.0
 10
-45.086666666666588
 20
-38.25
 30
0.0
 42
-2.414213562373094
 10
-45.336666666666588
 20
-38.5
 30
0.0
 10
-46.436666666666497
 20
-38.5
 30
0.0
 10
-46.436666666666497
 20
-42.779999999999973
 30
0.0
 10
-36.960000000000036
 20
-42.779999999999973
 30
0.0
 10
-36.960000000000036
 20
-36.059999999999945
 30
0.0
 10
-30.240000000000236
 20
-36.059999999999945
 30
0.0
 10
-30.240000000000236
 20
-49.5
 30
0.0
 10
-30.152803026260244
 20
-54.495511279861148
 30
0.0
 10
26.880000000000109
 20
-53.5
 30
0.0
  0
CIRCLE
  5
B6
100
AcDbEntity
100
AcDbCircle
  8
0
 62
256
370
-1
 48
1.0
  6
ByLayer
 10
-20.239999999999782
 20
-17.779999999999973
 30
0.0
 40
2.0
  0
CIRCLE
  5
B7
100
AcDbEntity
100
AcDbCircle
  8
0
 62
256
370
-1
 48
1.0
  6
ByLayer
 10
-120.44000000000005
 20
-17.779999999999973
 30
0.0
 40
2.0
  0
ENDBLK
  5
B8
100
AcDbEntity
  8
0
100
AcDbBlockEnd
  0
BLOCK
  5
B9
100
AcDbEntity
  8
0
100
AcDbBlockBegin
  2
drawer_right
 70
0
 10
0.0
 20
0.0
 30
0.0
  3
drawer_right
  1

  0
LWPOLYLINE
  5
BA
  8
0
 62
256
370
-1
 48
1.0
  6
ByLayer
100
AcDbEntity
100
AcDbPolyline
 90
4
 70
1
 10
-57.120000000000118
 20
0.0
 30
0.0
 10
0.0
 20
0.0
 30
0.0
 10
-0.0000000000002274
 20
206.72000000000003
 30
0.0
 10
-57.120000000000118
 20
206.72000000000003
 30
0.0
  0
CIRCLE
  5
BB
100
AcDbEntity
100
AcDbCircle
  8
0
 62
256
370
-1
 48
1.0
  6
ByLayer
 10
-10.720000000000709
 20
162.53999999999996
 30
0.0
 40
1.5750000000000111
  0
CIRCLE
  5
BC
100
AcDbEntity
100
AcDbCircle
  8
0
 62
256
370
-1
 48
1.0
  6
ByLayer
 10
-12.600000000000136
 20
3.3599999999999
 30
0.0
 40
1.575
  0
CIRCLE
  5
BD
100
AcDbEntity
100
AcDbCircle
  8
0
 62
256
370
-1
 48
1.0
  6
ByLayer
 10
-47.120000000000118
 20
13.440000000000055
 30
0.0
 40
1.575
  0
LWPOLYLINE
  5
BE
  8
0
 62
256
370
-1
 48
1.0
  6
ByLayer
100
AcDbEntity
100
AcDbPolyline
 90
4
 70
1
 10
-6.7200000000007094
 20
155.03999999999996
 30
0.0
 10
-6.7200000000007094
 20
140.03999999999996
 30
0.0
 10
-13.440000000000737
 20
140.03999999999996
 30
0.0
 10
-13.440000000000737
 20
155.03999999999996
 30
0.0
  0
ENDBLK
  5
BF
100
AcDbEntity
  8
0
100
AcDbBlockEnd
  0
BLOCK
  5
C0
100
AcDbEntity
  8
0
100
AcDbBlockBegin
  2
frame_right
 70
0
 10
0.0
 20
0.0
 30
0.0
  3
frame_right
  1

  0
LWPOLYLINE
  5
C1
  8
0
 62
256
370
-1
 48
1.0
  6
ByLayer
100
AcDbEntity
100
AcDbPolyline
 90
4
 70
1
 10
-51.226666666666915
 20
230.88000000000011
 30
0.0
 10
-28.973333333333812
 20
230.88000000000011
 30
0.0
 10
-28.973333333333812
 20
225.0
 30
0.0
 10
-51.226666666666915
 20
225.0
 30
0.0
  0
LWPOLYLINE
  5
C2
  8
0
 62
256
370
-1
 48
1.0
  6
ByLayer
100
AcDbEntity
100
AcDbPolyline
 90
112
 70
1
 10
-6.7200000000002547
 20
243.09999999999991
 30
0.0
 10
-11.000000000000455
 20
243.09999999999991
 30
0.0
 10
-11.000000000000455
 20
242.0
 30
0.0
 42
-2.41421356237311
 10
-11.250000000000455
 20
241.75
 30
0.0
 10
-13.750000000000455
 20
241.75
 30
0.0
 42
-2.414213562373094
 10
-14.000000000000455
 20
242.0
 30
0.0
 10
-14.000000000000455
 20
243.09999999999991
 30
0.0
 10
-16.000000000000455
 20
243.09999999999991
 30
0.0
 10
-16.000000000000455
 20
246.40000000000009
 30
0.0
 10
-14.000000000000455
 20
246.40000000000009
 30
0.0
 10
-14.000000000000455
 20
247.5
 30
0.0
 42
-2.414213562373094
 10
-13.750000000000455
 20
247.75
 30
0.0
 10
-11.250000000000455
 20
247.75
 30
0.0
 42
-2.414213562373094
 10
-11.000000000000455
 20
247.5
 30
0.0
 10
-11.000000000000455
 20
246.40000000000009
 30
0.0
 10
-6.7200000000002547
 20
246.40000000000009
 30
0.0
 10
-6.7200000000002547
 20
498.59999999999991
 30
0.0
 10
-11.320000000000164
 20
498.59999999999991
 30
0.0
 10
-11.320000000000164
 20
497.5
 30
0.0
 42
-2.414213562373094
 10
-11.570000000000164
 20
497.25
 30
0.0
 10
-14.070000000000164
 20
497.25
 30
0.0
 42
-2.414213562373094
 10
-14.320000000000164
 20
497.5
 30
0.0
 10
-14.320000000000164
 20
498.59999999999991
 30
0.0
 10
-16.320000000000164
 20
498.59999999999991
 30
0.0
 10
-16.320000000000164
 20
501.89999999999986
 30
0.0
 10
-14.320000000000164
 20
501.89999999999986
 30
0.0
 10
-14.320000000000164
 20
502.99999999999989
 30
0.0
 42
-2.414213562373094
 10
-14.070000000000164
 20
503.24999999999989
 30
0.0
 10
-11.570000000000164
 20
503.24999999999989
 30
0.0
 42
-2.414213562373094
 10
-11.320000000000164
 20
502.99999999999989
 30
0.0
 10
-11.320000000000164
 20
501.89999999999986
 30
0.0
 10
-6.7200000000002547
 20
501.89999999999986
 30
0.0
 10
-6.7200000000007094
 20
520.0
 30
0.0
 10
-28.973333333333812
 20
519.99999999999989
 30
0.0
 10
-28.973333333333812
 20
513.27999999999997
 30
0.0
 10
-38.450000000000728
 20
513.27999999999997
 30
0.0
 10
-38.450000000000728
 20
508.68000000000006
 30
0.0
 10
-37.350000000000819
 20
508.68000000000006
 30
0.0
 42
-2.414213562373094
 10
-37.100000000000819
 20
508.42999999999984
 30
0.0
 10
-37.100000000000819
 20
505.92999999999984
 30
0.0
 42
-2.414213562373094
 10
-37.350000000000819
 20
505.67999999999984
 30
0.0
 10
-38.450000000000728
 20
505.67999999999984
 30
0.0
 10
-38.450000000000728
 20
503.67999999999984
 30
0.0
 10
-41.750000000000909
 20
503.67999999999984
 30
0.0
 10
-41.750000000000909
 20
505.67999999999984
 30
0.0
 10
-42.850000000000819
 20
505.67999999999984
 30
0.0
 42
-2.414213562373094
 10
-43.100000000000819
 20
505.92999999999984
 30
0.0
 10
-43.100000000000819
 20
508.42999999999984
 30
0.0
 42
-2.414213562373094
 10
-42.850000000000819
 20
508.68000000000006
 30
0.0
 10
-41.750000000000909
 20
508.68000000000006
 30
0.0
 10
-41.750000000000909
 20
513.27999999999997
 30
0.0
 10
-51.22666666666737
 20
513.27999999999997
 30
0.0
 10
-51.22666666666737
 20
519.99999999999989
 30
0.0
 10
-73.480000000000473
 20
519.99999999999989
 30
0.0
 10
-73.480000000000473
 20
501.89999999999986
 30
0.0
 10
-68.880000000000564
 20
501.89999999999986
 30
0.0
 10
-68.880000000000564
 20
502.99999999999989
 30
0.0
 42
-2.414213562373094
 10
-68.630000000000564
 20
503.24999999999989
 30
0.0
 10
-66.130000000000564
 20
503.24999999999989
 30
0.0
 42
-2.414213562373094
 10
-65.880000000000564
 20
502.99999999999989
 30
0.0
 10
-65.880000000000564
 20
501.89999999999986
 30
0.0
 10
-63.880000000000564
 20
501.89999999999986
 30
0.0
 10
-63.880000000000564
 20
498.59999999999991
 30
0.0
 10
-65.880000000000564
 20
498.59999999999991
 30
0.0
 10
-65.880000000000564
 20
497.5
 30
0.0
 42
-2.414213562373094
 10
-66.130000000000564
 20
497.25
 30
0.0
 10
-68.630000000000564
 20
497.25
 30
0.0
 42
-2.414213562373094
 10
-68.880000000000564
 20
497.5
 30
0.0
 10
-68.880000000000564
 20
498.59999999999991
 30
0.0
 10
-73.480000000000473
 20
498.59999999999991
 30
0.0
 10
-73.480000000000473
 20
246.40000000000009
 30
0.0
 10
-69.200000000000273
 20
246.40000000000009
 30
0.0
 10
-69.200000000000273
 20
247.5
 30
0.0
 42
-2.414213562373094
 10
-68.950000000000273
 20
247.75
 30
0.0
 10
-66.450000000000273
 20
247.75
 30
0.0
 42
-2.414213562373094
 10
-66.200000000000273
 20
247.5
 30
0.0
 10
-66.200000000000273
 20
246.40000000000009
 30
0.0
 10
-64.200000000000273
 20
246.40000000000009
 30
0.0
 10
-64.200000000000273
 20
243.09999999999991
 30
0.0
 10
-66.200000000000273
 20
243.09999999999991
 30
0.0
 10
-66.200000000000273
 20
242.0
 30
0.0
 42
-2.414213562373094
 10
-66.450000000000273
 20
241.75
 30
0.0
 10
-68.950000000000273
 20
241.75
 30
0.0
 42
-2.41421356237311
 10
-69.200000000000273
 20
242.0
 30
0.0
 10
-69.200000000000273
 20
243.09999999999991
 30
0.0
 10
-73.480000000000473
 20
243.09999999999991
 30
0.0
 10
-73.480000000000473
 20
225.0
 30
0.0
 10
-80.200000000000273
 20
225.0
 30
0.0
 10
-80.200000000000273
 20
0.0
 30
0.0
 10
-51.226666666666915
 20
0.0
 30
0.0
 10
-51.226666666666915
 20
6.7200000000000273
 30
0.0
 10
-41.75
 20
6.7200000000000273
 30
0.0
 10
-41.75
 20
11.319999999999936
 30
0.0
 10
-42.850000000000364
 20
11.319999999999936
 30
0.0
 42
-2.414213562373094
 10
-43.100000000000364
 20
11.569999999999936
 30
0.0
 10
-43.100000000000364
 20
14.069999999999936
 30
0.0
 42
-2.414213562373094
 10
-42.850000000000364
 20
14.319999999999936
 30
0.0
 10
-41.75
 20
14.319999999999936
 30
0.0
 10
-41.75
 20
16.319999999999936
 30
0.0
 10
-38.450000000000273
 20
16.319999999999936
 30
0.0
 10
-38.450000000000273
 20
14.319999999999936
 30
0.0
 10
-37.350000000000364
 20
14.319999999999936
 30
0.0
 42
-2.414213562373094
 10
-37.100000000000364
 20
14.069999999999936
 30
0.0
 10
-37.100000000000364
 20
11.569999999999936
 30
0.0
 42
-2.414213562373094
 10
-37.350000000000364
 20
11.319999999999936
 30
0.0
 10
-38.450000000000273
 20
11.319999999999936
 30
0.0
 10
-38.450000000000273
 20
6.7200000000000273
 30
0.0
 10
-28.973333333333358
 20
6.7200000000000273
 30
0.0
 10
-28.973333333333358
 20
0.0
 30
0.0
 10
0.0
 20
0.0
 30
0.0
 10
-0.0000000000004547
 20
225.0
 30
0.0
 10
-6.7200000000002547
 20
225.0
 30
0.0
  0
CIRCLE
  5
C3
100
AcDbEntity
100
AcDbCircle
  8
0
 62
256
370
-1
 48
1.0
  6
ByLayer
 10
-17.846666666667261
 20
227.94000000000005
 30
0.0
 40
1.575
  0
CIRCLE
  5
C4
100
AcDbEntity
100
AcDbCircle
  8
0
 62
256
370
-1
 48
1.0
  6
ByLayer
 10
-62.353333333333467
 20
227.94000000000005
 30
0.0
 40
1.575
  0
ENDBLK
  5
C5
100
AcDbEntity
  8
0
100
AcDbBlockEnd
  0
BLOCK
  5
C6
100
AcDbEntity
  8
0
100
AcDbBlockBegin
  2
frame_top
 70
0
 10
0.0
 20
0.0
 30
0.0
  3
frame_top
  1

  0
CIRCLE
  5
C7
100
AcDbEntity
100
AcDbCircle
  8
0
 62
256
370
-1
 48
1.0
  6
ByLayer
 10
-249.92000000000007
 20
33.379999999999882
 30
0.0
 40
1.5750000000000011
  0
CIRCLE
  5
C8
100
AcDbEntity
100
AcDbCircle
  8
0
 62
256
370
-1
 48
1.0
  6
ByLayer
 10
3.3599999999996726
 20
33.379999999999882
 30
0.0
 40
1.5750000000000011
  0
CIRCLE
  5
C9
100
AcDbEntity
100
AcDbCircle
  8
0
 62
256
370
-1
 48
1.0
  6
ByLayer
 10
-19.7800000000002
 20
47.629999999999882
 30
0.0
 40
2.0
  0
CIRCLE
  5
CA
100
AcDbEntity
100
AcDbCircle
  8
0
 62
256
370
-1
 48
1.0
  6
ByLayer
 10
-226.7800000000002
 20
33.379999999999882
 30
0.0
 40
3.9999999999999938
  0
CIRCLE
  5
CB
100
AcDbEntity
100
AcDbCircle
  8
0
 62
256
370
-1
 48
1.0
  6
ByLayer
 10
-19.7800000000002
 20
33.379999999999882
 30
0.0
 40
3.9999999999999938
  0
CIRCLE
  5
CC
100
AcDbEntity
100
AcDbCircle
  8
0
 62
256
370
-1
 48
1.0
  6
ByLayer
 10
-123.2800000000002
 20
33.379999999999882
 30
0.0
 40
4.5
  0
CIRCLE
  5
CD
100
AcDbEntity
100
AcDbCircle
  8
0
 62
256
370
-1
 48
1.0
  6
ByLayer
 10
-133.24466150102489
 20
27.626899999999978
 30
0.0
 40
1.854199999999999
  0
CIRCLE
  5
CE
100
AcDbEntity
100
AcDbCircle
  8
0
 62
256
370
-1
 48
1.0
  6
ByLayer
 10
-123.2800000000002
 20
44.886199999999917
 30
0.0
 40
1.854199999999999
  0
CIRCLE
  5
CF
100
AcDbEntity
100
AcDbCircle
  8
0
 62
256
370
-1
 48
1.0
  6
ByLayer
 10
-113.31533849897551
 20
27.626899999999978
 30
0.0
 40
1.854199999999999
  0
LWPOLYLINE
  5
D0
  8
0
 62
256
370
-1
 48
1.0
  6
ByLayer
100
AcDbEntity
100
AcDbPolyline
 90
148
 70
1
 10
0.0
 20
0.0
 30
0.0
 10
0.0
 20
22.25333333333333
 30
0.0
 10
6.7199999999997999
 20
22.25333333333333
 30
0.0
 10
6.7199999999997999
 20
44.506666666666661
 30
0.0
 10
0.0
 20
44.506666666666661
 30
0.0
 10
0.0
 20
66.759999999999991
 30
0.0
 10
-11.380000000000109
 20
66.759999999999764
 30
0.0
 10
-11.380000000000109
 20
62.479999999999791
 30
0.0
 10
-10.2800000000002
 20
62.479999999999791
 30
0.0
 42
-2.414213562373094
 10
-10.0300000000002
 20
62.229999999999791
 30
0.0
 10
-10.0300000000002
 20
59.729999999999791
 30
0.0
 42
-2.414213562373094
 10
-10.2800000000002
 20
59.479999999999791
 30
0.0
 10
-11.380000000000109
 20
59.479999999999791
 30
0.0
 10
-11.380000000000109
 20
57.479999999999791
 30
0.0
 10
-14.680000000000291
 20
57.479999999999791
 30
0.0
 10
-14.680000000000291
 20
59.479999999999791
 30
0.0
 10
-15.7800000000002
 20
59.479999999999791
 30
0.0
 42
-2.414213562373094
 10
-16.0300000000002
 20
59.729999999999791
 30
0.0
 10
-16.0300000000002
 20
62.229999999999791
 30
0.0
 42
-2.414213562373094
 10
-15.7800000000002
 20
62.479999999999791
 30
0.0
 10
-14.680000000000291
 20
62.479999999999791
 30
0.0
 10
-14.680000000000291
 20
66.759999999999764
 30
0.0
 10
-58.546666666667079
 20
66.759999999999764
 30
0.0
 10
-58.546666666667079
 20
62.479999999999791
 30
0.0
 10
-57.446666666666715
 20
62.479999999999791
 30
0.0
 42
-2.414213562373094
 10
-57.196666666666715
 20
62.229999999999791
 30
0.0
 10
-57.196666666666715
 20
59.729999999999791
 30
0.0
 42
-2.414213562373094
 10
-57.446666666666715
 20
59.479999999999791
 30
0.0
 10
-58.546666666667079
 20
59.479999999999791
 30
0.0
 10
-58.546666666667079
 20
57.479999999999791
 30
0.0
 10
-61.846666666666806
 20
57.479999999999791
 30
0.0
 10
-61.846666666666806
 20
59.479999999999791
 30
0.0
 10
-62.946666666666715
 20
59.479999999999791
 30
0.0
 42
-2.414213562373094
 10
-63.196666666666715
 20
59.729999999999791
 30
0.0
 10
-63.196666666666715
 20
62.229999999999791
 30
0.0
 42
-2.4142135623731549
 10
-62.946666666666715
 20
62.479999999999791
 30
0.0
 10
-61.846666666666806
 20
62.479999999999791
 30
0.0
 10
-61.846666666666806
 20
66.759999999999764
 30
0.0
 10
-79.946666666666715
 20
66.759999999999991
 30
0.0
 10
-79.946666666666715
 20
73.479999999999791
 30
0.0
 10
-166.61333333333369
 20
73.479999999999791
 30
0.0
 10
-166.61333333333369
 20
66.759999999999991
 30
0.0
 10
-184.71333333333359
 20
66.759999999999764
 30
0.0
 10
-184.71333333333359
 20
62.479999999999791
 30
0.0
 10
-183.61333333333369
 20
62.479999999999791
 30
0.0
 42
-2.4142135623731549
 10
-183.36333333333369
 20
62.229999999999791
 30
0.0
 10
-183.36333333333369
 20
59.729999999999791
 30
0.0
 42
-2.414213562373094
 10
-183.61333333333369
 20
59.479999999999791
 30
0.0
 10
-184.71333333333359
 20
59.479999999999791
 30
0.0
 10
-184.71333333333359
 20
57.479999999999791
 30
0.0
 10
-188.01333333333332
 20
57.479999999999791
 30
0.0
 10
-188.01333333333332
 20
59.479999999999791
 30
0.0
 10
-189.11333333333369
 20
59.479999999999791
 30
0.0
 42
-2.414213562373094
 10
-189.36333333333369
 20
59.729999999999791
 30
0.0
 10
-189.36333333333369
 20
62.229999999999791
 30
0.0
 42
-2.414213562373094
 10
-189.11333333333369
 20
62.479999999999791
 30
0.0
 10
-188.01333333333332
 20
62.479999999999791
 30
0.0
 10
-188.01333333333332
 20
66.759999999999764
 30
0.0
 10
-231.88000000000011
 20
66.759999999999764
 30
0.0
 10
-231.88000000000011
 20
62.479999999999791
 30
0.0
 10
-230.7800000000002
 20
62.479999999999791
 30
0.0
 42
-2.414213562373094
 10
-230.5300000000002
 20
62.229999999999791
 30
0.0
 10
-230.5300000000002
 20
59.729999999999791
 30
0.0
 42
-2.414213562373094
 10
-230.7800000000002
 20
59.479999999999791
 30
0.0
 10
-231.88000000000011
 20
59.479999999999791
 30
0.0
 10
-231.88000000000011
 20
57.479999999999791
 30
0.0
 10
-235.18000000000029
 20
57.479999999999791
 30
0.0
 10
-235.18000000000029
 20
59.479999999999791
 30
0.0
 10
-236.2800000000002
 20
59.479999999999791
 30
0.0
 42
-2.414213562373094
 10
-236.5300000000002
 20
59.729999999999791
 30
0.0
 10
-236.5300000000002
 20
62.229999999999791
 30
0.0
 42
-2.414213562373094
 10
-236.2800000000002
 20
62.479999999999791
 30
0.0
 10
-235.18000000000029
 20
62.479999999999791
 30
0.0
 10
-235.18000000000029
 20
66.759999999999764
 30
0.0
 10
-246.5600000000004
 20
66.759999999999991
 30
0.0
 10
-246.5600000000004
 20
44.506666666666433
 30
0.0
 10
-253.2800000000002
 20
44.506666666666433
 30
0.0
 10
-253.2800000000002
 20
22.253333333333103
 30
0.0
 10
-246.5600000000004
 20
22.253333333333103
 30
0.0
 10
-246.5600000000004
 20
-0.0000000000002274
 30
0.0
 10
-235.18000000000029
 20
0.0
 30
0.0
 10
-235.18000000000029
 20
4.2799999999999727
 30
0.0
 10
-236.2800000000002
 20
4.2799999999999727
 30
0.0
 42
-2.414213562373094
 10
-236.5300000000002
 20
4.5299999999999727
 30
0.0
 10
-236.5300000000002
 20
7.0299999999999727
 30
0.0
 42
-2.414213562373094
 10
-236.2800000000002
 20
7.2799999999999727
 30
0.0
 10
-235.18000000000029
 20
7.2799999999999727
 30
0.0
 10
-235.18000000000029
 20
9.2799999999999727
 30
0.0
 10
-231.88000000000011
 20
9.2799999999999727
 30
0.0
 10
-231.88000000000011
 20
7.2799999999999727
 30
0.0
 10
-230.7800000000002
 20
7.2799999999999727
 30
0.0
 42
-2.414213562373094
 10
-230.5300000000002
 20
7.0299999999999727
 30
0.0
 10
-230.5300000000002
 20
4.5299999999999727
 30
0.0
 42
-2.414213562373094
 10
-230.7800000000002
 20
4.2799999999999727
 30
0.0
 10
-231.88000000000011
 20
4.2799999999999727
 30
0.0
 10
-231.88000000000011
 20
0.0
 30
0.0
 10
-188.01333333333332
 20
0.0
 30
0.0
 10
-188.01333333333332
 20
4.2799999999999727
 30
0.0
 10
-189.11333333333369
 20
4.2799999999999727
 30
0.0
 42
-2.414213562373094
 10
-189.36333333333369
 20
4.5299999999999727
 30
0.0
 10
-189.36333333333369
 20
7.0299999999999727
 30
0.0
 42
-2.414213562373094
 10
-189.11333333333369
 20
7.2799999999999727
 30
0.0
 10
-188.01333333333332
 20
7.2799999999999727
 30
0.0
 10
-188.01333333333332
 20
9.2799999999999727
 30
0.0
 10
-184.71333333333359
 20
9.2799999999999727
 30
0.0
 10
-184.71333333333359
 20
7.2799999999999727
 30
0.0
 10
-183.61333333333369
 20
7.2799999999999727
 30
0.0
 42
-2.414213562373094
 10
-183.36333333333369
 20
7.0299999999999727
 30
0.0
 10
-183.36333333333369
 20
4.5299999999999727
 30
0.0
 42
-2.4142135623731549
 10
-183.61333333333369
 20
4.2799999999999727
 30
0.0
 10
-184.71333333333359
 20
4.2799999999999727
 30
0.0
 10
-184.71333333333359
 20
0.0
 30
0.0
 10
-166.61333333333369
 20
-0.0000000000002274
 30
0.0
 10
-166.61333333333369
 20
-6.7200000000000273
 30
0.0
 10
-79.946666666666715
 20
-6.7200000000000273
 30
0.0
 10
-79.946666666666715
 20
-0.0000000000002274
 30
0.0
 10
-61.846666666666806
 20
0.0
 30
0.0
 10
-61.846666666666806
 20
4.2799999999999727
 30
0.0
 10
-62.946666666666715
 20
4.2799999999999727
 30
0.0
 42
-2.4142135623731549
 10
-63.196666666666715
 20
4.5299999999999727
 30
0.0
 10
-63.196666666666715
 20
7.0299999999999727
 30
0.0
 42
-2.414213562373094
 10
-62.946666666666715
 20
7.2799999999999727
 30
0.0
 10
-61.846666666666806
 20
7.2799999999999727
 30
0.0
 10
-61.846666666666806
 20
9.2799999999999727
 30
0.0
 10
-58.546666666667079
 20
9.2799999999999727
 30
0.0
 10
-58.546666666667079
 20
7.2799999999999727
 30
0.0
 10
-57.446666666666715
 20
7.2799999999999727
 30
0.0
 42
-2.414213562373094
 10
-57.196666666666715
 20
7.0299999999999727
 30
0.0
 10
-57.196666666666715
 20
4.5299999999999727
 30
0.0
 42
-2.414213562373094
 10
-57.446666666666715
 20
4.2799999999999727
 30
0.0
 10
-58.546666666667079
 20
4.2799999999999727
 30
0.0
 10
-58.546666666667079
 20
0.0
 30
0.0
 10
-14.680000000000291
 20
0.0
 30
0.0
 10
-14.680000000000291
 20
4.2799999999999727
 30
0.0
 10
-15.7800000000002
 20
4.2799999999999727
 30
0.0
 42
-2.414213562373094
 10
-16.0300000000002
 20
4.5299999999999727
 30
0.0
 10
-16.0300000000002
 20
7.0299999999999727
 30
0.0
 42
-2.414213562373094
 10
-15.7800000000002
 20
7.2799999999999727
 30
0.0
 10
-14.680000000000291
 20
7.2799999999999727
 30
0.0
 10
-14.680000000000291
 20
9.2799999999999727
 30
0.0
 10
-11.380000000000109
 20
9.2799999999999727
 30
0.0
 10
-11.380000000000109
 20
7.2799999999999727
 30
0.0
 10
-10.2800000000002
 20
7.2799999999999727
 30
0.0
 42
-2.414213562373094
 10
-10.0300000000002
 20
7.0299999999999727
 30
0.0
 10
-10.0300000000002
 20
4.5299999999999727
 30
0.0
 42
-2.414213562373094
 10
-10.2800000000002
 20
4.2799999999999727
 30
0.0
 10
-11.380000000000109
 20
4.2799999999999727
 30
0.0
 10
-11.380000000000109
 20
0.0
 30
0.0
  0
ENDBLK
  5
D1
100
AcDbEntity
  8
0
100
AcDbBlockEnd
  0
ENDSEC
  0
SECTION
  2
ENTITIES
  0
CIRCLE
  5
D2
100
AcDbEntity
100
AcDbCircle
  8
0
 62
256
370
-1
 48
1.0
  6
ByLayer
 10
-142.06000000000006
 20
-244.73999999999955
 30
0.0
 40
2.0
  0
CIRCLE
  5
D3
100
AcDbEntity
100
AcDbCircle
  8
0
 62
256
370
-1
 48
1.0
  6
ByLayer
 10
-142.06000000000006
 20
-344.93999999999983
 30
0.0
 40
2.0
  0
CIRCLE
  5
D4
100
AcDbEntity
100
AcDbCircle
  8
0
 62
256
370
-1
 48
1.0
  6
ByLayer
 10
17.779999999999518
 20
-24.680000000000291
 30
0.0
 40
1.5750000000000111
  0
CIRCLE
  5
D5
100
AcDbEntity
100
AcDbCircle
  8
0
 62
256
370
-1
 48
1.0
  6
ByLayer
 10
15.900000000000091
 20
134.49999999999977
 30
0.0
 40
1.575
  0
CIRCLE
  5
D6
100
AcDbEntity
100
AcDbCircle
  8
0
 62
256
370
-1
 48
1.0
  6
ByLayer
 10
-18.619999999999891
 20
124.41999999999962
 30
0.0
 40
1.575
  0
CIRCLE
  5
D7
100
AcDbEntity
100
AcDbCircle
  8
0
 62
256
370
-1
 48
1.0
  6
ByLayer
 10
-172.24999999999997
 20
-121.63999999999999
 30
0.0
 40
1.574999999999998
  0
CIRCLE
  5
D8
100
AcDbEntity
100
AcDbCircle
  8
0
 62
256
370
-1
 48
1.0
  6
ByLayer
 10
64.63999999999993
 20
119.74999999999989
 30
0.0
 40
1.574999999999996
  0
CIRCLE
  5
D9
100
AcDbEntity
100
AcDbCircle
  8
0
 62
256
370
-1
 48
1.0
  6
ByLayer
 10
48.250000000000114
 20
391.63999999999885
 30
0.0
 40
1.574999999999998
  0
CIRCLE
  5
DA
100
AcDbEntity
100
AcDbCircle
  8
0
 62
256
370
-1
 48
1.0
  6
ByLayer
 10
-172.24999999999989
 20
391.63999999999999
 30
0.0
 40
1.574999999999998
  0
CIRCLE
  5
DB
100
AcDbEntity
100
AcDbCircle
  8
0
 62
256
370
-1
 48
1.0
  6
ByLayer
 10
48.250000000000227
 20
-121.63999999999987
 30
0.0
 40
1.574999999999998
  0
CIRCLE
  5
DC
100
AcDbEntity
100
AcDbCircle
  8
0
 62
256
370
-1
 48
1.0
  6
ByLayer
 10
-188.63999999999982
 20
119.75
 30
0.0
 40
1.574999999999996
  0
CIRCLE
  5
DD
100
AcDbEntity
100
AcDbCircle
  8
0
 62
256
370
-1
 48
1.0
  6
ByLayer
 10
-188.63999999999976
 20
375.25
 30
0.0
 40
1.575
  0
CIRCLE
  5
DE
100
AcDbEntity
100
AcDbCircle
  8
0
 62
256
370
-1
 48
1.0
  6
ByLayer
 10
-125.08333333333337
 20
391.63999999999993
 30
0.0
 40
1.575
  0
CIRCLE
  5
DF
100
AcDbEntity
100
AcDbCircle
  8
0
 62
256
370
-1
 48
1.0
  6
ByLayer
 10
-125.08333333333306
 20
-121.63999999999987
 30
0.0
 40
1.5750000000000159
  0
CIRCLE
  5
E0
100
AcDbEntity
100
AcDbCircle
  8
0
 62
256
370
-1
 48
1.0
  6
ByLayer
 10
1.0833333333330302
 20
-121.63999999999987
 30
0.0
 40
1.5750000000000159
  0
CIRCLE
  5
E1
100
AcDbEntity
100
AcDbCircle
  8
0
 62
256
370
-1
 48
1.0
  6
ByLayer
 10
1.0833333333335986
 20
391.63999999999925
 30
0.0
 40
1.575
  0
CIRCLE
  5
E2
100
AcDbEntity
100
AcDbCircle
  8
0
 62
256
370
-1
 48
1.0
  6
ByLayer
 10
64.639999999999986
 20
375.25000000000011
 30
0.0
 40
1.575
  0
CIRCLE
  5
E3
100
AcDbEntity
100
AcDbCircle
  8
0
 62
256
370
-1
 48
1.0
  6
ByLayer
 10
138.05999999999995
 20
-244.74000000000024
 30
0.0
 40
2.0
  0
CIRCLE
  5
E4
100
AcDbEntity
100
AcDbCircle
  8
0
 62
256
370
-1
 48
1.0
  6
ByLayer
 10
138.06
 20
-344.94000000000005
 30
0.0
 40
2.0
  0
CIRCLE
  5
E5
100
AcDbEntity
100
AcDbCircle
  8
0
 62
256
370
-1
 48
1.0
  6
ByLayer
 10
-188.63999999999919
 20
-158.37999999999965
 30
0.0
 40
1.5750000000000011
  0
CIRCLE
  5
E6
100
AcDbEntity
100
AcDbCircle
  8
0
 62
256
370
-1
 48
1.0
  6
ByLayer
 10
-165.49999999999932
 20
-172.62999999999965
 30
0.0
 40
2.0
  0
CIRCLE
  5
E7
100
AcDbEntity
100
AcDbCircle
  8
0
 62
256
370
-1
 48
1.0
  6
ByLayer
 10
41.500000000000682
 20
-158.3799999999996
 30
0.0
 40
3.9999999999999938
  0
CIRCLE
  5
E8
100
AcDbEntity
100
AcDbCircle
  8
0
 62
256
370
-1
 48
1.0
  6
ByLayer
 10
-165.49999999999932
 20
-158.37999999999965
 30
0.0
 40
3.9999999999999938
  0
CIRCLE
  5
E9
100
AcDbEntity
100
AcDbCircle
  8
0
 62
256
370
-1
 48
1.0
  6
ByLayer
 10
-61.999999999999318
 20
-158.37999999999965
 30
0.0
 40
4.5
  0
CIRCLE
  5
EA
100
AcDbEntity
100
AcDbCircle
  8
0
 62
256
370
-1
 48
1.0
  6
ByLayer
 10
-52.035338498974625
 20
-152.62689999999969
 30
0.0
 40
1.854199999999999
  0
CIRCLE
  5
EB
100
AcDbEntity
100
AcDbCircle
  8
0
 62
256
370
-1
 48
1.0
  6
ByLayer
 10
-61.999999999999304
 20
-169.88619999999963
 30
0.0
 40
1.854199999999999
  0
CIRCLE
  5
EC
100
AcDbEntity
100
AcDbCircle
  8
0
 62
256
370
-1
 48
1.0
  6
ByLayer
 10
-71.964661501024025
 20
-152.62689999999981
 30
0.0
 40
1.854199999999999
  0
CIRCLE
  5
ED
100
AcDbEntity
100
AcDbCircle
  8
0
 62
256
370
-1
 48
1.0
  6
ByLayer
 10
64.640000000000555
 20
-158.37999999999971
 30
0.0
 40
1.5750000000000011
  0
CIRCLE
  5
EE
100
AcDbEntity
100
AcDbCircle
  8
0
 62
256
370
-1
 48
1.0
  6
ByLayer
 10
-2.0
 20
-335.5
 30
0.0
 40
1.9999999999999989
  0
CIRCLE
  5
EF
100
AcDbEntity
100
AcDbCircle
  8
0
 62
256
370
-1
 48
1.0
  6
ByLayer
 10
-2.0
 20
-254.50000000000003
 30
0.0
 40
1.9999999999999989
  0
CIRCLE
  5
F0
100
AcDbEntity
100
AcDbCircle
  8
0
 62
256
370
-1
 48
1.0
  6
ByLayer
 10
-105.50000000000001
 20
-321.63999999999999
 30
0.0
 40
1.6499999999999999
  0
CIRCLE
  5
F1
100
AcDbEntity
100
AcDbCircle
  8
0
 62
256
370
-1
 48
1.0
  6
ByLayer
 10
32.500000000000028
 20
-321.63999999999987
 30
0.0
 40
1.6499999999999999
  0
CIRCLE
  5
F2
100
AcDbEntity
100
AcDbCircle
  8
0
 62
256
370
-1
 48
1.0
  6
ByLayer
 10
-105.5
 20
-268.36000000000001
 30
0.0
 40
1.6499999999999999
  0
CIRCLE
  5
F3
100
AcDbEntity
100
AcDbCircle
  8
0
 62
256
370
-1
 48
1.0
  6
ByLayer
 10
32.5
 20
-268.36000000000058
 30
0.0
 40
1.6499999999999999
  0
CIRCLE
  5
F4
100
AcDbEntity
100
AcDbCircle
  8
0
 62
256
370
-1
 48
1.0
  6
ByLayer
 10
-42.499999999999957
 20
-335.49999999999994
 30
0.0
 40
1.6499999999999999
  0
CIRCLE
  5
F5
100
AcDbEntity
100
AcDbCircle
  8
0
 62
256
370
-1
 48
1.0
  6
ByLayer
 10
-42.5
 20
-254.50000000000009
 30
0.0
 40
1.6499999999999999
  0
CIRCLE
  5
F6
100
AcDbEntity
100
AcDbCircle
  8
0
 62
256
370
-1
 48
1.0
  6
ByLayer
 10
38.5
 20
-254.49999999999983
 30
0.0
 40
1.6499999999999999
  0
CIRCLE
  5
F7
100
AcDbEntity
100
AcDbCircle
  8
0
 62
256
370
-1
 48
1.0
  6
ByLayer
 10
38.499999999999972
 20
-335.50000000000006
 30
0.0
 40
1.6499999999999999
  0
CIRCLE
  5
F8
100
AcDbEntity
100
AcDbCircle
  8
0
 62
256
370
-1
 48
1.0
  6
ByLayer
 10
101.5
 20
-268.36000000000024
 30
0.0
 40
1.6499999999999999
  0
CIRCLE
  5
F9
100
AcDbEntity
100
AcDbCircle
  8
0
 62
256
370
-1
 48
1.0
  6
ByLayer
 10
-36.5
 20
-268.36000000000007
 30
0.0
 40
1.6499999999999999
  0
CIRCLE
  5
FA
100
AcDbEntity
100
AcDbCircle
  8
0
 62
256
370
-1
 48
1.0
  6
ByLayer
 10
101.49999999999997
 20
-321.64000000000033
 30
0.0
 40
1.6499999999999999
  0
CIRCLE
  5
FB
100
AcDbEntity
100
AcDbCircle
  8
0
 62
256
370
-1
 48
1.0
  6
ByLayer
 10
-36.499999999999986
 20
-321.63999999999999
 30
0.0
 40
1.6499999999999999
  0
CIRCLE
  5
FC
100
AcDbEntity
100
AcDbCircle
  8
0
 62
256
370
-1
 48
1.0
  6
ByLayer
 10
-17.500000000000014
 20
-310.5
 30
0.0
 40
1.6499999999999999
  0
CIRCLE
  5
FD
100
AcDbEntity
100
AcDbCircle
  8
0
 62
256
370
-1
 48
1.0
  6
ByLayer
 10
-17.5
 20
-279.5
 30
0.0
 40
1.6499999999999999
  0
CIRCLE
  5
FE
100
AcDbEntity
100
AcDbCircle
  8
0
 62
256
370
-1
 48
1.0
  6
ByLayer
 10
13.5
 20
-279.49999999999989
 30
0.0
 40
1.6499999999999999
  0
CIRCLE
  5
FF
100
AcDbEntity
100
AcDbCircle
  8
0
 62
256
370
-1
 48
1.0
  6
ByLayer
 10
13.5
 20
-310.5
 30
0.0
 40
1.6499999999999999
  0
CIRCLE
  5
100
100
AcDbEntity
100
AcDbCircle
  8
0
 62
256
370
-1
 48
1.0
  6
ByLayer
 10
-2.0
 20
-295.0
 30
0.0
 40
11.5
  0
CIRCLE
  5
101
100
AcDbEntity
100
AcDbCircle
  8
0
 62
256
370
-1
 48
1.0
  6
ByLayer
 10
101.5
 20
-295.00000000000017
 30
0.0
 40
4.5
  0
CIRCLE
  5
102
100
AcDbEntity
100
AcDbCircle
  8
0
 62
256
370
-1
 48
1.0
  6
ByLayer
 10
109.98528137423853
 20
-303.48528137423864
 30
0.0
 40
1.6499999999999999
  0
CIRCLE
  5
103
100
AcDbEntity
100
AcDbCircle
  8
0
 62
256
370
-1
 48
1.0
  6
ByLayer
 10
93.014718625761475
 20
-286.51471862576153
 30
0.0
 40
1.6499999999999999
  0
CIRCLE
  5
104
100
AcDbEntity
100
AcDbCircle
  8
0
 62
256
370
-1
 48
1.0
  6
ByLayer
 10
109.98528137423853
 20
-286.51471862576147
 30
0.0
 40
1.6499999999999999
  0
CIRCLE
  5
105
100
AcDbEntity
100
AcDbCircle
  8
0
 62
256
370
-1
 48
1.0
  6
ByLayer
 10
93.014718625761361
 20
-303.48528137423875
 30
0.0
 40
1.6499999999999999
  0
CIRCLE
  5
106
100
AcDbEntity
100
AcDbCircle
  8
0
 62
256
370
-1
 48
1.0
  6
ByLayer
 10
-105.50000000000001
 20
-295.0
 30
0.0
 40
4.5
  0
CIRCLE
  5
107
100
AcDbEntity
100
AcDbCircle
  8
0
 62
256
370
-1
 48
1.0
  6
ByLayer
 10
-113.98528137423841
 20
-303.48528137423864
 30
0.0
 40
1.6499999999999999
  0
CIRCLE
  5
108
100
AcDbEntity
100
AcDbCircle
  8
0
 62
256
370
-1
 48
1.0
  6
ByLayer
 10
-97.014718625761375
 20
-286.51471862576147
 30
0.0
 40
1.6499999999999999
  0
CIRCLE
  5
109
100
AcDbEntity
100
AcDbCircle
  8
0
 62
256
370
-1
 48
1.0
  6
ByLayer
 10
-113.98528137423841
 20
-286.51471862576147
 30
0.0
 40
1.6499999999999999
  0
CIRCLE
  5
10A
100
AcDbEntity
100
AcDbCircle
  8
0
 62
256
370
-1
 48
1.0
  6
ByLayer
 10
-97.014718625761361
 20
-303.48528137423864
 30
0.0
 40
1.6499999999999999
  0
CIRCLE
  5
10B
100
AcDbEntity
100
AcDbCircle
  8
0
 62
256
370
-1
 48
1.0
  6
ByLayer
 10
-63.0
 20
-279.72000000000003
 30
0.0
 40
7.0
  0
CIRCLE
  5
10C
100
AcDbEntity
100
AcDbCircle
  8
0
 62
256
370
-1
 48
1.0
  6
ByLayer
 10
112.27999999999994
 20
-314.28000000000009
 30
0.0
 40
4.0000000000000018
  0
CIRCLE
  5
10D
100
AcDbEntity
100
AcDbCircle
  8
0
 62
256
370
-1
 48
1.0
  6
ByLayer
 10
-116.2800000000002
 20
-314.27999999999975
 30
0.0
 40
4.0000000000000018
  0
CIRCLE
  5
10E
100
AcDbEntity
100
AcDbCircle
  8
0
 62
256
370
-1
 48
1.0
  6
ByLayer
 10
-61.999999999999758
 20
134.50000000000003
 30
0.0
 40
1.5749999999999991
  0
CIRCLE
  5
10F
100
AcDbEntity
100
AcDbCircle
  8
0
 62
256
370
-1
 48
1.0
  6
ByLayer
 10
-122.33333333333304
 20
286.17999999999984
 30
0.0
 40
1.5750000000000011
  0
CIRCLE
  5
110
100
AcDbEntity
100
AcDbCircle
  8
0
 62
256
370
-1
 48
1.0
  6
ByLayer
 10
-1.6666666666665435
 20
286.17999999999984
 30
0.0
 40
1.5750000000000011
  0
CIRCLE
  5
111
100
AcDbEntity
100
AcDbCircle
  8
0
 62
256
370
-1
 48
1.0
  6
ByLayer
 10
79.126666666668157
 20
102.94000000000028
 30
0.0
 40
1.575
  0
CIRCLE
  5
112
100
AcDbEntity
100
AcDbCircle
  8
0
 62
256
370
-1
 48
1.0
  6
ByLayer
 10
123.63333333333426
 20
102.94000000000028
 30
0.0
 40
1.575
  0
CIRCLE
  5
113
100
AcDbEntity
100
AcDbCircle
  8
0
 62
256
370
-1
 48
1.0
  6
ByLayer
 10
-141.77999999999921
 20
-24.680000000000291
 30
0.0
 40
1.5750000000000111
  0
CIRCLE
  5
114
100
AcDbEntity
100
AcDbCircle
  8
0
 62
256
370
-1
 48
1.0
  6
ByLayer
 10
-139.89999999999975
 20
134.49999999999977
 30
0.0
 40
1.575
  0
CIRCLE
  5
115
100
AcDbEntity
100
AcDbCircle
  8
0
 62
256
370
-1
 48
1.0
  6
ByLayer
 10
-105.37999999999977
 20
124.4199999999996
 30
0.0
 40
1.575
  0
LINE
  5
116
100
AcDbEntity
100
AcDbLine
  8
0
 62
256
370
-1
 48
1.0
  6
ByLayer
 10
-155.50000000000011
 20
-197.61999999999966
 30
0.0
 11
-155.50000000000011
 21
-237.93999999999986
 31
0.0
  0
LINE
  5
117
100
AcDbEntity
100
AcDbLine
  8
0
 62
256
370
-1
 48
1.0
  6
ByLayer
 10
-155.50000000000011
 20
-237.93999999999986
 30
0.0
 11
-148.78000000000009
 21
-237.93999999999983
 31
0.0
  0
LINE
  5
118
100
AcDbEntity
100
AcDbLine
  8
0
 62
256
370
-1
 48
1.0
  6
ByLayer
 10
-148.78000000000009
 20
-237.93999999999983
 30
0.0
 11
-148.78000000000009
 21
-224.49999999999977
 31
0.0
  0
LINE
  5
119
100
AcDbEntity
100
AcDbLine
  8
0
 62
256
370
-1
 48
1.0
  6
ByLayer
 10
-148.78000000000009
 20
-224.49999999999977
 30
0.0
 11
-124.28000000000009
 21
-224.49999999999977
 31
0.0
  0
LINE
  5
11A
100
AcDbEntity
100
AcDbLine
  8
0
 62
256
370
-1
 48
1.0
  6
ByLayer
 10
-124.28000000000009
 20
-224.49999999999977
 30
0.0
 11
-124.28000000000011
 21
-365.17999999999961
 31
0.0
  0
LINE
  5
11B
100
AcDbEntity
100
AcDbLine
  8
0
 62
256
370
-1
 48
1.0
  6
ByLayer
 10
-124.28000000000011
 20
-365.17999999999961
 30
0.0
 11
-148.77999999999997
 21
-365.17999999999961
 31
0.0
  0
LINE
  5
11C
100
AcDbEntity
100
AcDbLine
  8
0
 62
256
370
-1
 48
1.0
  6
ByLayer
 10
-148.77999999999997
 20
-365.17999999999961
 30
0.0
 11
-148.77999999999992
 21
-351.73999999999955
 31
0.0
  0
LINE
  5
11D
100
AcDbEntity
100
AcDbLine
  8
0
 62
256
370
-1
 48
1.0
  6
ByLayer
 10
-148.77999999999992
 20
-351.73999999999955
 30
0.0
 11
-155.50000000000003
 21
-351.74000000000001
 31
0.0
  0
LINE
  5
11E
100
AcDbEntity
100
AcDbLine
  8
0
 62
256
370
-1
 48
1.0
  6
ByLayer
 10
-155.50000000000003
 20
-351.74000000000001
 30
0.0
 11
-155.50000000000014
 21
-392.05999999999972
 31
0.0
  0
LINE
  5
11F
100
AcDbEntity
100
AcDbLine
  8
0
 62
256
370
-1
 48
1.0
  6
ByLayer
 10
-155.50000000000014
 20
-392.05999999999972
 30
0.0
 11
-181.17396282464099
 21
-392.05999999999972
 31
0.0
  0
LINE
  5
120
100
AcDbEntity
100
AcDbLine
  8
0
 62
256
370
-1
 48
1.0
  6
ByLayer
 10
-181.17396282464099
 20
-392.05999999999972
 30
0.0
 11
-180.17498109763079
 21
-334.82837518972588
 31
0.0
  0
LINE
  5
121
100
AcDbEntity
100
AcDbLine
  8
0
 62
256
370
-1
 48
1.0
  6
ByLayer
 10
-180.17498109763079
 20
-334.82837518972588
 30
0.0
 11
-173.78000000000006
 21
-334.93999999999983
 31
0.0
  0
LINE
  5
122
100
AcDbEntity
100
AcDbLine
  8
0
 62
256
370
-1
 48
1.0
  6
ByLayer
 10
-173.78000000000006
 20
-334.93999999999983
 30
0.0
 11
-160.33999999999992
 21
-334.93999999999988
 31
0.0
  0
LINE
  5
123
100
AcDbEntity
100
AcDbLine
  8
0
 62
256
370
-1
 48
1.0
  6
ByLayer
 10
-160.33999999999992
 20
-334.93999999999988
 30
0.0
 11
-160.34
 21
-328.22000000000003
 31
0.0
  0
LINE
  5
124
100
AcDbEntity
100
AcDbLine
  8
0
 62
256
370
-1
 48
1.0
  6
ByLayer
 10
-160.34
 20
-328.22000000000003
 30
0.0
 11
-167.06
 21
-328.22000000000003
 31
0.0
  0
LINE
  5
125
100
AcDbEntity
100
AcDbLine
  8
0
 62
256
370
-1
 48
1.0
  6
ByLayer
 10
-167.06
 20
-328.22000000000003
 30
0.0
 11
-167.06000000000003
 21
-318.74333333333311
 31
0.0
  0
LINE
  5
126
100
AcDbEntity
100
AcDbLine
  8
0
 62
256
370
-1
 48
1.0
  6
ByLayer
 10
-167.06000000000003
 20
-318.74333333333311
 30
0.0
 11
-162.78000000000003
 21
-318.74333333333311
 31
0.0
  0
LINE
  5
127
100
AcDbEntity
100
AcDbLine
  8
0
 62
256
370
-1
 48
1.0
  6
ByLayer
 10
-162.78000000000003
 20
-318.74333333333311
 30
0.0
 11
-162.78000000000003
 21
-319.84333333333302
 31
0.0
  0
ARC
  5
128
100
AcDbEntity
  8
0
 62
256
370
-1
 48
1.0
  6
ByLayer
100
AcDbCircle
 10
-162.78000000000003
 20
-320.09333333333302
 30
0.0
 40
0.25
100
AcDbArc
 50
90.0
 51
0.0
  0
LINE
  5
129
100
AcDbEntity
100
AcDbLine
  8
0
 62
256
370
-1
 48
1.0
  6
ByLayer
 10
-162.53000000000003
 20
-320.09333333333302
 30
0.0
 11
-160.03000000000003
 21
-320.09333333333302
 31
0.0
  0
ARC
  5
12A
100
AcDbEntity
  8
0
 62
256
370
-1
 48
1.0
  6
ByLayer
100
AcDbCircle
 10
-159.78000000000003
 20
-320.09333333333302
 30
0.0
 40
0.25
100
AcDbArc
 50
180.0
 51
90.0
  0
LINE
  5
12B
100
AcDbEntity
100
AcDbLine
  8
0
 62
256
370
-1
 48
1.0
  6
ByLayer
 10
-159.78000000000003
 20
-319.84333333333302
 30
0.0
 11
-159.78000000000003
 21
-318.74333333333311
 31
0.0
  0
LINE
  5
12C
100
AcDbEntity
100
AcDbLine
  8
0
 62
256
370
-1
 48
1.0
  6
ByLayer
 10
-159.78000000000003
 20
-318.74333333333311
 30
0.0
 11
-157.78000000000003
 21
-318.74333333333311
 31
0.0
  0
LINE
  5
12D
100
AcDbEntity
100
AcDbLine
  8
0
 62
256
370
-1
 48
1.0
  6
ByLayer
 10
-157.78000000000003
 20
-318.74333333333311
 30
0.0
 11
-157.78000000000006
 21
-315.44333333333293
 31
0.0
  0
LINE
  5
12E
100
AcDbEntity
100
AcDbLine
  8
0
 62
256
370
-1
 48
1.0
  6
ByLayer
 10
-157.78000000000006
 20
-315.44333333333293
 30
0.0
 11
-159.78000000000009
 21
-315.44333333333293
 31
0.0
  0
LINE
  5
12F
100
AcDbEntity
100
AcDbLine
  8
0
 62
256
370
-1
 48
1.0
  6
ByLayer
 10
-159.78000000000009
 20
-315.44333333333293
 30
0.0
 11
-159.78
 21
-314.34333333333302
 31
0.0
  0
ARC
  5
130
100
AcDbEntity
  8
0
 62
256
370
-1
 48
1.0
  6
ByLayer
100
AcDbCircle
 10
-159.78
 20
-314.09333333333302
 30
0.0
 40
0.25
100
AcDbArc
 50
270.0
 51
180.0
  0
LINE
  5
131
100
AcDbEntity
100
AcDbLine
  8
0
 62
256
370
-1
 48
1.0
  6
ByLayer
 10
-160.03
 20
-314.09333333333302
 30
0.0
 11
-162.53
 21
-314.09333333333302
 31
0.0
  0
ARC
  5
132
100
AcDbEntity
  8
0
 62
256
370
-1
 48
1.0
  6
ByLayer
100
AcDbCircle
 10
-162.78000000000003
 20
-314.09333333333302
 30
0.0
 40
0.2500000000000142
100
AcDbArc
 50
0.0
 51
270.0
  0
LINE
  5
133
100
AcDbEntity
100
AcDbLine
  8
0
 62
256
370
-1
 48
1.0
  6
ByLayer
 10
-162.78000000000003
 20
-314.34333333333302
 30
0.0
 11
-162.78000000000006
 21
-315.44333333333293
 31
0.0
  0
LINE
  5
134
100
AcDbEntity
100
AcDbLine
  8
0
 62
256
370
-1
 48
1.0
  6
ByLayer
 10
-162.78000000000006
 20
-315.44333333333293
 30
0.0
 11
-167.06
 21
-315.44333333333299
 31
0.0
  0
LINE
  5
135
100
AcDbEntity
100
AcDbLine
  8
0
 62
256
370
-1
 48
1.0
  6
ByLayer
 10
-167.06
 20
-315.44333333333299
 30
0.0
 11
-167.06
 21
-305.96666666666647
 31
0.0
  0
LINE
  5
136
100
AcDbEntity
100
AcDbLine
  8
0
 62
256
370
-1
 48
1.0
  6
ByLayer
 10
-167.06
 20
-305.96666666666647
 30
0.0
 11
-173.78000000000003
 21
-305.96666666666647
 31
0.0
  0
LINE
  5
137
100
AcDbEntity
100
AcDbLine
  8
0
 62
256
370
-1
 48
1.0
  6
ByLayer
 10
-173.78000000000003
 20
-305.96666666666647
 30
0.0
 11
-173.78000000000006
 21
-283.71333333333291
 31
0.0
  0
LINE
  5
138
100
AcDbEntity
100
AcDbLine
  8
0
 62
256
370
-1
 48
1.0
  6
ByLayer
 10
-173.78000000000006
 20
-283.71333333333291
 30
0.0
 11
-167.06000000000006
 21
-283.71333333333291
 31
0.0
  0
LINE
  5
139
100
AcDbEntity
100
AcDbLine
  8
0
 62
256
370
-1
 48
1.0
  6
ByLayer
 10
-167.06000000000006
 20
-283.71333333333291
 30
0.0
 11
-167.06000000000006
 21
-274.23666666666645
 31
0.0
  0
LINE
  5
13A
100
AcDbEntity
100
AcDbLine
  8
0
 62
256
370
-1
 48
1.0
  6
ByLayer
 10
-167.06000000000006
 20
-274.23666666666645
 30
0.0
 11
-162.78000000000009
 21
-274.23666666666645
 31
0.0
  0
LINE
  5
13B
100
AcDbEntity
100
AcDbLine
  8
0
 62
256
370
-1
 48
1.0
  6
ByLayer
 10
-162.78000000000009
 20
-274.23666666666645
 30
0.0
 11
-162.78000000000006
 21
-275.33666666666636
 31
0.0
  0
ARC
  5
13C
100
AcDbEntity
  8
0
 62
256
370
-1
 48
1.0
  6
ByLayer
100
AcDbCircle
 10
-162.78000000000006
 20
-275.58666666666636
 30
0.0
 40
0.25
100
AcDbArc
 50
90.0
 51
0.0
  0
LINE
  5
13D
100
AcDbEntity
100
AcDbLine
  8
0
 62
256
370
-1
 48
1.0
  6
ByLayer
 10
-162.53000000000006
 20
-275.58666666666636
 30
0.0
 11
-160.03000000000006
 21
-275.58666666666636
 31
0.0
  0
ARC
  5
13E
100
AcDbEntity
  8
0
 62
256
370
-1
 48
1.0
  6
ByLayer
100
AcDbCircle
 10
-159.78000000000009
 20
-275.5866666666663
 30
0.0
 40
0.2499999999999716
100
AcDbArc
 50
180.0
 51
90.000000000006509
  0
LINE
  5
13F
100
AcDbEntity
100
AcDbLine
  8
0
 62
256
370
-1
 48
1.0
  6
ByLayer
 10
-159.78000000000011
 20
-275.33666666666636
 30
0.0
 11
-159.78000000000003
 21
-274.23666666666651
 31
0.0
  0
LINE
  5
140
100
AcDbEntity
100
AcDbLine
  8
0
 62
256
370
-1
 48
1.0
  6
ByLayer
 10
-159.78000000000003
 20
-274.23666666666651
 30
0.0
 11
-157.78000000000009
 21
-274.23666666666645
 31
0.0
  0
LINE
  5
141
100
AcDbEntity
100
AcDbLine
  8
0
 62
256
370
-1
 48
1.0
  6
ByLayer
 10
-157.78000000000009
 20
-274.23666666666645
 30
0.0
 11
-157.78000000000009
 21
-270.93666666666627
 31
0.0
  0
LINE
  5
142
100
AcDbEntity
100
AcDbLine
  8
0
 62
256
370
-1
 48
1.0
  6
ByLayer
 10
-157.78000000000009
 20
-270.93666666666627
 30
0.0
 11
-159.78000000000009
 21
-270.93666666666627
 31
0.0
  0
LINE
  5
143
100
AcDbEntity
100
AcDbLine
  8
0
 62
256
370
-1
 48
1.0
  6
ByLayer
 10
-159.78000000000009
 20
-270.93666666666627
 30
0.0
 11
-159.78000000000006
 21
-269.83666666666636
 31
0.0
  0
ARC
  5
144
100
AcDbEntity
  8
0
 62
256
370
-1
 48
1.0
  6
ByLayer
100
AcDbCircle
 10
-159.78000000000009
 20
-269.58666666666636
 30
0.0
 40
0.2500000000000142
100
AcDbArc
 50
270.00000000000654
 51
180.0
  0
LINE
  5
145
100
AcDbEntity
100
AcDbLine
  8
0
 62
256
370
-1
 48
1.0
  6
ByLayer
 10
-160.03000000000009
 20
-269.58666666666636
 30
0.0
 11
-162.53000000000006
 21
-269.58666666666636
 31
0.0
  0
ARC
  5
146
100
AcDbEntity
  8
0
 62
256
370
-1
 48
1.0
  6
ByLayer
100
AcDbCircle
 10
-162.78000000000006
 20
-269.58666666666636
 30
0.0
 40
0.25
100
AcDbArc
 50
0.0
 51
270.0
  0
LINE
  5
147
100
AcDbEntity
100
AcDbLine
  8
0
 62
256
370
-1
 48
1.0
  6
ByLayer
 10
-162.78000000000006
 20
-269.83666666666636
 30
0.0
 11
-162.78000000000009
 21
-270.93666666666627
 31
0.0
  0
LINE
  5
148
100
AcDbEntity
100
AcDbLine
  8
0
 62
256
370
-1
 48
1.0
  6
ByLayer
 10
-162.78000000000009
 20
-270.93666666666627
 30
0.0
 11
-167.06000000000006
 21
-270.93666666666627
 31
0.0
  0
LINE
  5
149
100
AcDbEntity
100
AcDbLine
  8
0
 62
256
370
-1
 48
1.0
  6
ByLayer
 10
-167.06000000000006
 20
-270.93666666666627
 30
0.0
 11
-167.06000000000003
 21
-261.45999999999981
 31
0.0
  0
LINE
  5
14A
100
AcDbEntity
100
AcDbLine
  8
0
 62
256
370
-1
 48
1.0
  6
ByLayer
 10
-167.06000000000003
 20
-261.45999999999981
 30
0.0
 11
-160.34
 21
-261.45999999999981
 31
0.0
  0
LINE
  5
14B
100
AcDbEntity
100
AcDbLine
  8
0
 62
256
370
-1
 48
1.0
  6
ByLayer
 10
-160.34
 20
-261.45999999999981
 30
0.0
 11
-160.34000000000003
 21
-254.74000000000001
 31
0.0
  0
LINE
  5
14C
100
AcDbEntity
100
AcDbLine
  8
0
 62
256
370
-1
 48
1.0
  6
ByLayer
 10
-160.34000000000003
 20
-254.74000000000001
 30
0.0
 11
-173.78000000000009
 21
-254.74000000000004
 31
0.0
  0
LINE
  5
14D
100
AcDbEntity
100
AcDbLine
  8
0
 62
256
370
-1
 48
1.0
  6
ByLayer
 10
-173.78000000000009
 20
-254.74000000000004
 30
0.0
 11
-178.77551127986123
 21
-254.65280302626002
 31
0.0
  0
LINE
  5
14E
100
AcDbEntity
100
AcDbLine
  8
0
 62
256
370
-1
 48
1.0
  6
ByLayer
 10
-178.77551127986123
 20
-254.65280302626002
 30
0.0
 11
-177.78000000000011
 21
-197.61999999999969
 31
0.0
  0
LINE
  5
14F
100
AcDbEntity
100
AcDbLine
  8
0
 62
256
370
-1
 48
1.0
  6
ByLayer
 10
-177.78000000000011
 20
-197.61999999999969
 30
0.0
 11
-155.50000000000011
 21
-197.61999999999966
 31
0.0
  0
LINE
  5
150
100
AcDbEntity
100
AcDbLine
  8
0
 62
256
370
-1
 48
1.0
  6
ByLayer
 10
28.500000000000227
 20
137.85999999999967
 30
0.0
 11
28.500000000000028
 21
99.999999999999957
 31
0.0
  0
LINE
  5
151
100
AcDbEntity
100
AcDbLine
  8
0
 62
256
370
-1
 48
1.0
  6
ByLayer
 10
28.5
 20
-68.860000000000355
 30
0.0
 11
-28.619999999999891
 21
-68.860000000000355
 31
0.0
  0
LINE
  5
152
100
AcDbEntity
100
AcDbLine
  8
0
 62
256
370
-1
 48
1.0
  6
ByLayer
 10
-28.619999999999891
 20
-68.860000000000355
 30
0.0
 11
-28.619999999999891
 21
137.85999999999967
 31
0.0
  0
LINE
  5
153
100
AcDbEntity
100
AcDbLine
  8
0
 62
256
370
-1
 48
1.0
  6
ByLayer
 10
21.779999999999518
 20
-17.180000000000291
 30
0.0
 11
21.779999999999518
 21
-2.180000000000291
 31
0.0
  0
LINE
  5
154
100
AcDbEntity
100
AcDbLine
  8
0
 62
256
370
-1
 48
1.0
  6
ByLayer
 10
21.779999999999518
 20
-2.180000000000291
 30
0.0
 11
15.059999999999491
 21
-2.180000000000291
 31
0.0
  0
LINE
  5
155
100
AcDbEntity
100
AcDbLine
  8
0
 62
256
370
-1
 48
1.0
  6
ByLayer
 10
15.059999999999491
 20
-2.180000000000291
 30
0.0
 11
15.059999999999491
 21
-17.180000000000291
 31
0.0
  0
LINE
  5
156
100
AcDbEntity
100
AcDbLine
  8
0
 62
256
370
-1
 48
1.0
  6
ByLayer
 10
15.059999999999491
 20
-17.180000000000291
 30
0.0
 11
21.779999999999518
 21
-17.180000000000291
 31
0.0
  0
LINE
  5
157
100
AcDbEntity
100
AcDbLine
  8
0
 62
256
370
-1
 48
1.0
  6
ByLayer
 10
-107.14999999999998
 20
-224.5
 30
0.0
 11
-107.14999999999986
 21
-229.62
 31
0.0
  0
LINE
  5
158
100
AcDbEntity
100
AcDbLine
  8
0
 62
256
370
-1
 48
1.0
  6
ByLayer
 10
-107.14999999999986
 20
-229.62
 30
0.0
 11
-108.24999999999989
 21
-229.62
 31
0.0
  0
ARC
  5
159
100
AcDbEntity
  8
0
 62
256
370
-1
 48
1.0
  6
ByLayer
100
AcDbCircle
 10
-108.49999999999989
 20
-229.62
 30
0.0
 40
0.25
100
AcDbArc
 50
0.0
 51
270.0
  0
LINE
  5
15A
100
AcDbEntity
100
AcDbLine
  8
0
 62
256
370
-1
 48
1.0
  6
ByLayer
 10
-108.49999999999989
 20
-229.87
 30
0.0
 11
-108.49999999999989
 21
-232.37
 31
0.0
  0
ARC
  5
15B
100
AcDbEntity
  8
0
 62
256
370
-1
 48
1.0
  6
ByLayer
100
AcDbCircle
 10
-108.49999999999989
 20
-232.62
 30
0.0
 40
0.25
100
AcDbArc
 50
90.0
 51
0.0
  0
LINE
  5
15C
100
AcDbEntity
100
AcDbLine
  8
0
 62
256
370
-1
 48
1.0
  6
ByLayer
 10
-108.24999999999989
 20
-232.62
 30
0.0
 11
-107.14999999999998
 21
-232.62
 31
0.0
  0
LINE
  5
15D
100
AcDbEntity
100
AcDbLine
  8
0
 62
256
370
-1
 48
1.0
  6
ByLayer
 10
-107.14999999999998
 20
-232.62
 30
0.0
 11
-107.14999999999998
 21
-234.62
 31
0.0
  0
LINE
  5
15E
100
AcDbEntity
100
AcDbLine
  8
0
 62
256
370
-1
 48
1.0
  6
ByLayer
 10
-107.14999999999998
 20
-234.62
 30
0.0
 11
-103.84999999999991
 21
-234.62
 31
0.0
  0
LINE
  5
15F
100
AcDbEntity
100
AcDbLine
  8
0
 62
256
370
-1
 48
1.0
  6
ByLayer
 10
-103.84999999999991
 20
-234.62
 30
0.0
 11
-103.84999999999991
 21
-232.62
 31
0.0
  0
LINE
  5
160
100
AcDbEntity
100
AcDbLine
  8
0
 62
256
370
-1
 48
1.0
  6
ByLayer
 10
-103.84999999999991
 20
-232.62
 30
0.0
 11
-102.74999999999989
 21
-232.62
 31
0.0
  0
ARC
  5
161
100
AcDbEntity
  8
0
 62
256
370
-1
 48
1.0
  6
ByLayer
100
AcDbCircle
 10
-102.49999999999989
 20
-232.62
 30
0.0
 40
0.25
100
AcDbArc
 50
180.0
 51
90.0
  0
LINE
  5
162
100
AcDbEntity
100
AcDbLine
  8
0
 62
256
370
-1
 48
1.0
  6
ByLayer
 10
-102.49999999999989
 20
-232.37
 30
0.0
 11
-102.49999999999989
 21
-229.87
 31
0.0
  0
ARC
  5
163
100
AcDbEntity
  8
0
 62
256
370
-1
 48
1.0
  6
ByLayer
100
AcDbCircle
 10
-102.49999999999989
 20
-229.62
 30
0.0
 40
0.25
100
AcDbArc
 50
270.0
 51
180.0
  0
LINE
  5
164
100
AcDbEntity
100
AcDbLine
  8
0
 62
256
370
-1
 48
1.0
  6
ByLayer
 10
-102.74999999999989
 20
-229.62
 30
0.0
 11
-103.84999999999991
 21
-229.62
 31
0.0
  0
LINE
  5
165
100
AcDbEntity
100
AcDbLine
  8
0
 62
256
370
-1
 48
1.0
  6
ByLayer
 10
-103.84999999999991
 20
-229.62
 30
0.0
 11
-103.84999999999991
 21
-224.5
 31
0.0
  0
LINE
  5
166
100
AcDbEntity
100
AcDbLine
  8
0
 62
256
370
-1
 48
1.0
  6
ByLayer
 10
-103.84999999999991
 20
-224.5
 30
0.0
 11
-58.749999999999886
 21
-224.5
 31
0.0
  0
LINE
  5
167
100
AcDbEntity
100
AcDbLine
  8
0
 62
256
370
-1
 48
1.0
  6
ByLayer
 10
-58.749999999999886
 20
-224.5
 30
0.0
 11
-58.749999999999886
 21
-217.77999999999997
 31
0.0
  0
LINE
  5
168
100
AcDbEntity
100
AcDbLine
  8
0
 62
256
370
-1
 48
1.0
  6
ByLayer
 10
-58.749999999999886
 20
-217.77999999999997
 30
0.0
 11
-48.749999999999886
 21
-217.77999999999997
 31
0.0
  0
LINE
  5
169
100
AcDbEntity
100
AcDbLine
  8
0
 62
256
370
-1
 48
1.0
  6
ByLayer
 10
-48.749999999999886
 20
-217.77999999999997
 30
0.0
 11
-48.749999999999886
 21
-224.5
 31
0.0
  0
LINE
  5
16A
100
AcDbEntity
100
AcDbLine
  8
0
 62
256
370
-1
 48
1.0
  6
ByLayer
 10
-48.749999999999886
 20
-224.5
 30
0.0
 11
-38.149999999999864
 21
-224.5
 31
0.0
  0
LINE
  5
16B
100
AcDbEntity
100
AcDbLine
  8
0
 62
256
370
-1
 48
1.0
  6
ByLayer
 10
-38.149999999999864
 20
-224.5
 30
0.0
 11
-38.149999999999977
 21
-229.62
 31
0.0
  0
LINE
  5
16C
100
AcDbEntity
100
AcDbLine
  8
0
 62
256
370
-1
 48
1.0
  6
ByLayer
 10
-38.149999999999977
 20
-229.62
 30
0.0
 11
-39.249999999999886
 21
-229.62
 31
0.0
  0
ARC
  5
16D
100
AcDbEntity
  8
0
 62
256
370
-1
 48
1.0
  6
ByLayer
100
AcDbCircle
 10
-39.499999999999886
 20
-229.62
 30
0.0
 40
0.25
100
AcDbArc
 50
0.0
 51
270.0
  0
LINE
  5
16E
100
AcDbEntity
100
AcDbLine
  8
0
 62
256
370
-1
 48
1.0
  6
ByLayer
 10
-39.499999999999886
 20
-229.87
 30
0.0
 11
-39.499999999999886
 21
-232.37
 31
0.0
  0
ARC
  5
16F
100
AcDbEntity
  8
0
 62
256
370
-1
 48
1.0
  6
ByLayer
100
AcDbCircle
 10
-39.499999999999886
 20
-232.62
 30
0.0
 40
0.25
100
AcDbArc
 50
90.0
 51
0.0
  0
LINE
  5
170
100
AcDbEntity
100
AcDbLine
  8
0
 62
256
370
-1
 48
1.0
  6
ByLayer
 10
-39.249999999999886
 20
-232.62
 30
0.0
 11
-38.149999999999977
 21
-232.62
 31
0.0
  0
LINE
  5
171
100
AcDbEntity
100
AcDbLine
  8
0
 62
256
370
-1
 48
1.0
  6
ByLayer
 10
-38.149999999999977
 20
-232.62
 30
0.0
 11
-38.149999999999977
 21
-234.62
 31
0.0
  0
LINE
  5
172
100
AcDbEntity
100
AcDbLine
  8
0
 62
256
370
-1
 48
1.0
  6
ByLayer
 10
-38.149999999999977
 20
-234.62
 30
0.0
 11
-34.849999999999909
 21
-234.62
 31
0.0
  0
LINE
  5
173
100
AcDbEntity
100
AcDbLine
  8
0
 62
256
370
-1
 48
1.0
  6
ByLayer
 10
-34.849999999999909
 20
-234.62
 30
0.0
 11
-34.849999999999909
 21
-232.62
 31
0.0
  0
LINE
  5
174
100
AcDbEntity
100
AcDbLine
  8
0
 62
256
370
-1
 48
1.0
  6
ByLayer
 10
-34.849999999999909
 20
-232.62
 30
0.0
 11
-33.749999999999886
 21
-232.62
 31
0.0
  0
ARC
  5
175
100
AcDbEntity
  8
0
 62
256
370
-1
 48
1.0
  6
ByLayer
100
AcDbCircle
 10
-33.499999999999886
 20
-232.62
 30
0.0
 40
0.25
100
AcDbArc
 50
180.0
 51
90.0
  0
LINE
  5
176
100
AcDbEntity
100
AcDbLine
  8
0
 62
256
370
-1
 48
1.0
  6
ByLayer
 10
-33.499999999999886
 20
-232.37
 30
0.0
 11
-33.499999999999886
 21
-229.87
 31
0.0
  0
ARC
  5
177
100
AcDbEntity
  8
0
 62
256
370
-1
 48
1.0
  6
ByLayer
100
AcDbCircle
 10
-33.499999999999886
 20
-229.62
 30
0.0
 40
0.25
100
AcDbArc
 50
270.0
 51
180.0
  0
LINE
  5
178
100
AcDbEntity
100
AcDbLine
  8
0
 62
256
370
-1
 48
1.0
  6
ByLayer
 10
-33.749999999999886
 20
-229.62
 30
0.0
 11
-34.849999999999909
 21
-229.62
 31
0.0
  0
LINE
  5
179
100
AcDbEntity
100
AcDbLine
  8
0
 62
256
370
-1
 48
1.0
  6
ByLayer
 10
-34.849999999999909
 20
-229.62
 30
0.0
 11
-34.849999999999909
 21
-224.5
 31
0.0
  0
LINE
  5
17A
100
AcDbEntity
100
AcDbLine
  8
0
 62
256
370
-1
 48
1.0
  6
ByLayer
 10
-34.849999999999909
 20
-224.5
 30
0.0
 11
-6.9999999999998863
 21
-224.5
 31
0.0
  0
LINE
  5
17B
100
AcDbEntity
100
AcDbLine
  8
0
 62
256
370
-1
 48
1.0
  6
ByLayer
 10
-6.9999999999998863
 20
-224.5
 30
0.0
 11
-6.9999999999998863
 21
-217.77999999999997
 31
0.0
  0
LINE
  5
17C
100
AcDbEntity
100
AcDbLine
  8
0
 62
256
370
-1
 48
1.0
  6
ByLayer
 10
-6.9999999999998863
 20
-217.77999999999997
 30
0.0
 11
3.0
 21
-217.77999999999997
 31
0.0
  0
LINE
  5
17D
100
AcDbEntity
100
AcDbLine
  8
0
 62
256
370
-1
 48
1.0
  6
ByLayer
 10
3.0
 20
-217.77999999999997
 30
0.0
 11
3.0
 21
-224.5
 31
0.0
  0
LINE
  5
17E
100
AcDbEntity
100
AcDbLine
  8
0
 62
256
370
-1
 48
1.0
  6
ByLayer
 10
3.0
 20
-224.5
 30
0.0
 11
30.850000000000023
 21
-224.5
 31
0.0
  0
LINE
  5
17F
100
AcDbEntity
100
AcDbLine
  8
0
 62
256
370
-1
 48
1.0
  6
ByLayer
 10
30.850000000000023
 20
-224.5
 30
0.0
 11
30.850000000000023
 21
-229.62
 31
0.0
  0
LINE
  5
180
100
AcDbEntity
100
AcDbLine
  8
0
 62
256
370
-1
 48
1.0
  6
ByLayer
 10
30.850000000000023
 20
-229.62
 30
0.0
 11
29.750000000000114
 21
-229.62
 31
0.0
  0
ARC
  5
181
100
AcDbEntity
  8
0
 62
256
370
-1
 48
1.0
  6
ByLayer
100
AcDbCircle
 10
29.500000000000114
 20
-229.62
 30
0.0
 40
0.25
100
AcDbArc
 50
0.0
 51
270.0
  0
LINE
  5
182
100
AcDbEntity
100
AcDbLine
  8
0
 62
256
370
-1
 48
1.0
  6
ByLayer
 10
29.500000000000114
 20
-229.87
 30
0.0
 11
29.500000000000114
 21
-232.37
 31
0.0
  0
ARC
  5
183
100
AcDbEntity
  8
0
 62
256
370
-1
 48
1.0
  6
ByLayer
100
AcDbCircle
 10
29.500000000000114
 20
-232.62
 30
0.0
 40
0.25
100
AcDbArc
 50
90.0
 51
0.0
  0
LINE
  5
184
100
AcDbEntity
100
AcDbLine
  8
0
 62
256
370
-1
 48
1.0
  6
ByLayer
 10
29.750000000000114
 20
-232.62
 30
0.0
 11
30.850000000000023
 21
-232.62
 31
0.0
  0
LINE
  5
185
100
AcDbEntity
100
AcDbLine
  8
0
 62
256
370
-1
 48
1.0
  6
ByLayer
 10
30.850000000000023
 20
-232.62
 30
0.0
 11
30.850000000000023
 21
-234.62
 31
0.0
  0
LINE
  5
186
100
AcDbEntity
100
AcDbLine
  8
0
 62
256
370
-1
 48
1.0
  6
ByLayer
 10
30.850000000000023
 20
-234.62
 30
0.0
 11
34.150000000000205
 21
-234.62
 31
0.0
  0
LINE
  5
187
100
AcDbEntity
100
AcDbLine
  8
0
 62
256
370
-1
 48
1.0
  6
ByLayer
 10
34.150000000000205
 20
-234.62
 30
0.0
 11
34.150000000000205
 21
-232.62
 31
0.0
  0
LINE
  5
188
100
AcDbEntity
100
AcDbLine
  8
0
 62
256
370
-1
 48
1.0
  6
ByLayer
 10
34.150000000000205
 20
-232.62
 30
0.0
 11
35.250000000000114
 21
-232.62
 31
0.0
  0
ARC
  5
189
100
AcDbEntity
  8
0
 62
256
370
-1
 48
1.0
  6
ByLayer
100
AcDbCircle
 10
35.500000000000114
 20
-232.62
 30
0.0
 40
0.25
100
AcDbArc
 50
180.0
 51
90.0
  0
LINE
  5
18A
100
AcDbEntity
100
AcDbLine
  8
0
 62
256
370
-1
 48
1.0
  6
ByLayer
 10
35.500000000000114
 20
-232.37
 30
0.0
 11
35.500000000000114
 21
-229.87
 31
0.0
  0
ARC
  5
18B
100
AcDbEntity
  8
0
 62
256
370
-1
 48
1.0
  6
ByLayer
100
AcDbCircle
 10
35.500000000000114
 20
-229.62
 30
0.0
 40
0.25
100
AcDbArc
 50
270.0
 51
180.0
  0
LINE
  5
18C
100
AcDbEntity
100
AcDbLine
  8
0
 62
256
370
-1
 48
1.0
  6
ByLayer
 10
35.250000000000114
 20
-229.62
 30
0.0
 11
34.150000000000205
 21
-229.62
 31
0.0
  0
LINE
  5
18D
100
AcDbEntity
100
AcDbLine
  8
0
 62
256
370
-1
 48
1.0
  6
ByLayer
 10
34.150000000000205
 20
-229.62
 30
0.0
 11
34.150000000000205
 21
-224.5
 31
0.0
  0
LINE
  5
18E
100
AcDbEntity
100
AcDbLine
  8
0
 62
256
370
-1
 48
1.0
  6
ByLayer
 10
34.150000000000205
 20
-224.5
 30
0.0
 11
44.750000000000114
 21
-224.5
 31
0.0
  0
LINE
  5
18F
100
AcDbEntity
100
AcDbLine
  8
0
 62
256
370
-1
 48
1.0
  6
ByLayer
 10
44.750000000000114
 20
-224.5
 30
0.0
 11
44.750000000000114
 21
-217.77999999999997
 31
0.0
  0
LINE
  5
190
100
AcDbEntity
100
AcDbLine
  8
0
 62
256
370
-1
 48
1.0
  6
ByLayer
 10
44.750000000000114
 20
-217.77999999999997
 30
0.0
 11
54.750000000000114
 21
-217.77999999999997
 31
0.0
  0
LINE
  5
191
100
AcDbEntity
100
AcDbLine
  8
0
 62
256
370
-1
 48
1.0
  6
ByLayer
 10
54.750000000000114
 20
-217.77999999999997
 30
0.0
 11
54.750000000000114
 21
-224.5
 31
0.0
  0
LINE
  5
192
100
AcDbEntity
100
AcDbLine
  8
0
 62
256
370
-1
 48
1.0
  6
ByLayer
 10
54.750000000000114
 20
-224.5
 30
0.0
 11
99.850000000000023
 21
-224.5
 31
0.0
  0
LINE
  5
193
100
AcDbEntity
100
AcDbLine
  8
0
 62
256
370
-1
 48
1.0
  6
ByLayer
 10
99.850000000000023
 20
-224.5
 30
0.0
 11
99.850000000000023
 21
-229.62
 31
0.0
  0
LINE
  5
194
100
AcDbEntity
100
AcDbLine
  8
0
 62
256
370
-1
 48
1.0
  6
ByLayer
 10
99.850000000000023
 20
-229.62
 30
0.0
 11
98.750000000000114
 21
-229.62
 31
0.0
  0
ARC
  5
195
100
AcDbEntity
  8
0
 62
256
370
-1
 48
1.0
  6
ByLayer
100
AcDbCircle
 10
98.500000000000114
 20
-229.62
 30
0.0
 40
0.25
100
AcDbArc
 50
0.0
 51
270.0
  0
LINE
  5
196
100
AcDbEntity
100
AcDbLine
  8
0
 62
256
370
-1
 48
1.0
  6
ByLayer
 10
98.500000000000114
 20
-229.87
 30
0.0
 11
98.500000000000114
 21
-232.37
 31
0.0
  0
ARC
  5
197
100
AcDbEntity
  8
0
 62
256
370
-1
 48
1.0
  6
ByLayer
100
AcDbCircle
 10
98.500000000000114
 20
-232.62
 30
0.0
 40
0.25
100
AcDbArc
 50
90.0
 51
0.0
  0
LINE
  5
198
100
AcDbEntity
100
AcDbLine
  8
0
 62
256
370
-1
 48
1.0
  6
ByLayer
 10
98.750000000000114
 20
-232.62
 30
0.0
 11
99.850000000000023
 21
-232.62
 31
0.0
  0
LINE
  5
199
100
AcDbEntity
100
AcDbLine
  8
0
 62
256
370
-1
 48
1.0
  6
ByLayer
 10
99.850000000000023
 20
-232.62
 30
0.0
 11
99.850000000000023
 21
-234.62
 31
0.0
  0
LINE
  5
19A
100
AcDbEntity
100
AcDbLine
  8
0
 62
256
370
-1
 48
1.0
  6
ByLayer
 10
99.850000000000023
 20
-234.62
 30
0.0
 11
103.1500000000002
 21
-234.62
 31
0.0
  0
LINE
  5
19B
100
AcDbEntity
100
AcDbLine
  8
0
 62
256
370
-1
 48
1.0
  6
ByLayer
 10
103.1500000000002
 20
-234.62
 30
0.0
 11
103.1500000000002
 21
-232.62
 31
0.0
  0
LINE
  5
19C
100
AcDbEntity
100
AcDbLine
  8
0
 62
256
370
-1
 48
1.0
  6
ByLayer
 10
103.1500000000002
 20
-232.62
 30
0.0
 11
104.25000000000011
 21
-232.62
 31
0.0
  0
ARC
  5
19D
100
AcDbEntity
  8
0
 62
256
370
-1
 48
1.0
  6
ByLayer
100
AcDbCircle
 10
104.50000000000011
 20
-232.62
 30
0.0
 40
0.25
100
AcDbArc
 50
180.0
 51
90.0
  0
LINE
  5
19E
100
AcDbEntity
100
AcDbLine
  8
0
 62
256
370
-1
 48
1.0
  6
ByLayer
 10
104.50000000000011
 20
-232.37
 30
0.0
 11
104.50000000000011
 21
-229.87
 31
0.0
  0
ARC
  5
19F
100
AcDbEntity
  8
0
 62
256
370
-1
 48
1.0
  6
ByLayer
100
AcDbCircle
 10
104.50000000000011
 20
-229.62
 30
0.0
 40
0.25
100
AcDbArc
 50
270.0
 51
180.0
  0
LINE
  5
1A0
100
AcDbEntity
100
AcDbLine
  8
0
 62
256
370
-1
 48
1.0
  6
ByLayer
 10
104.25000000000011
 20
-229.62
 30
0.0
 11
103.1500000000002
 21
-229.62
 31
0.0
  0
LINE
  5
1A1
100
AcDbEntity
100
AcDbLine
  8
0
 62
256
370
-1
 48
1.0
  6
ByLayer
 10
103.1500000000002
 20
-229.62
 30
0.0
 11
103.1500000000002
 21
-224.5
 31
0.0
  0
LINE
  5
1A2
100
AcDbEntity
100
AcDbLine
  8
0
 62
256
370
-1
 48
1.0
  6
ByLayer
 10
103.1500000000002
 20
-224.5
 30
0.0
 11
120.28000000000009
 21
-224.5
 31
0.0
  0
LINE
  5
1A3
100
AcDbEntity
100
AcDbLine
  8
0
 62
256
370
-1
 48
1.0
  6
ByLayer
 10
120.28000000000009
 20
-249.5
 30
0.0
 11
-124.27999999999997
 21
-249.5
 31
0.0
  0
LINE
  5
1A4
100
AcDbEntity
100
AcDbLine
  8
0
 62
256
370
-1
 48
1.0
  6
ByLayer
 10
-124.27999999999997
 20
-224.5
 30
0.0
 11
-107.14999999999998
 21
-224.5
 31
0.0
  0
LINE
  5
1A5
100
AcDbEntity
100
AcDbLine
  8
0
 62
256
370
-1
 48
1.0
  6
ByLayer
 10
-152.49999999999986
 20
105.88000000000011
 30
0.0
 11
-158.99999999999989
 21
105.88000000000011
 31
0.0
  0
LINE
  5
1A6
100
AcDbEntity
100
AcDbLine
  8
0
 62
256
370
-1
 48
1.0
  6
ByLayer
 10
-158.99999999999989
 20
105.88000000000011
 30
0.0
 11
-159.0
 21
100.0
 31
0.0
  0
LINE
  5
1A7
100
AcDbEntity
100
AcDbLine
  8
0
 62
256
370
-1
 48
1.0
  6
ByLayer
 10
-159.0
 20
100.0
 30
0.0
 11
-152.49999999999994
 21
100.0
 31
0.0
  0
LINE
  5
1A8
100
AcDbEntity
100
AcDbLine
  8
0
 62
256
370
-1
 48
1.0
  6
ByLayer
 10
-152.49999999999994
 20
100.0
 30
0.0
 11
-152.49999999999977
 21
-111.55999999999995
 31
0.0
  0
LINE
  5
1A9
100
AcDbEntity
100
AcDbLine
  8
0
 62
256
370
-1
 48
1.0
  6
ByLayer
 10
-152.49999999999977
 20
-111.55999999999995
 30
0.0
 11
-145.77999999999997
 21
-111.55999999999995
 31
0.0
  0
LINE
  5
1AA
100
AcDbEntity
100
AcDbLine
  8
0
 62
256
370
-1
 48
1.0
  6
ByLayer
 10
-145.77999999999997
 20
-111.55999999999995
 30
0.0
 11
-145.78000000000011
 21
-85.5
 31
0.0
  0
LINE
  5
1AB
100
AcDbEntity
100
AcDbLine
  8
0
 62
256
370
-1
 48
1.0
  6
ByLayer
 10
-145.78000000000011
 20
-85.5
 30
0.0
 11
21.780000000000143
 21
-85.5
 31
0.0
  0
LINE
  5
1AC
100
AcDbEntity
100
AcDbLine
  8
0
 62
256
370
-1
 48
1.0
  6
ByLayer
 10
21.780000000000143
 20
-85.5
 30
0.0
 11
21.780000000000399
 21
-111.55999999999995
 31
0.0
  0
LINE
  5
1AD
100
AcDbEntity
100
AcDbLine
  8
0
 62
256
370
-1
 48
1.0
  6
ByLayer
 10
21.780000000000399
 20
-111.55999999999995
 30
0.0
 11
28.500000000000057
 21
-111.56
 31
0.0
  0
LINE
  5
1AE
100
AcDbEntity
100
AcDbLine
  8
0
 62
256
370
-1
 48
1.0
  6
ByLayer
 10
28.500000000000057
 20
-111.56
 30
0.0
 11
28.500000000000028
 21
99.999999999999943
 31
0.0
  0
LINE
  5
1AF
100
AcDbEntity
100
AcDbLine
  8
0
 62
256
370
-1
 48
1.0
  6
ByLayer
 10
28.500000000000028
 20
99.999999999999943
 30
0.0
 11
35.000000000000171
 21
100.00000000000006
 31
0.0
  0
LINE
  5
1B0
100
AcDbEntity
100
AcDbLine
  8
0
 62
256
370
-1
 48
1.0
  6
ByLayer
 10
35.000000000000171
 20
100.00000000000006
 30
0.0
 11
35.0
 21
105.88
 31
0.0
  0
LINE
  5
1B1
100
AcDbEntity
100
AcDbLine
  8
0
 62
256
370
-1
 48
1.0
  6
ByLayer
 10
35.0
 20
105.88
 30
0.0
 11
28.500000000000085
 21
105.88000000000005
 31
0.0
  0
LINE
  5
1B2
100
AcDbEntity
100
AcDbLine
  8
0
 62
256
370
-1
 48
1.0
  6
ByLayer
 10
28.500000000000114
 20
240.88000000000011
 30
0.0
 11
31.650000000000205
 21
240.88000000000011
 31
0.0
  0
LINE
  5
1B3
100
AcDbEntity
100
AcDbLine
  8
0
 62
256
370
-1
 48
1.0
  6
ByLayer
 10
31.650000000000205
 20
240.88000000000011
 30
0.0
 11
31.650000000000233
 21
290.88000000000022
 31
0.0
  0
LINE
  5
1B4
100
AcDbEntity
100
AcDbLine
  8
0
 62
256
370
-1
 48
1.0
  6
ByLayer
 10
31.650000000000233
 20
290.88000000000022
 30
0.0
 11
28.500000000000171
 21
290.88000000000022
 31
0.0
  0
LINE
  5
1B5
100
AcDbEntity
100
AcDbLine
  8
0
 62
256
370
-1
 48
1.0
  6
ByLayer
 10
-152.49999999999991
 20
290.88000000000011
 30
0.0
 11
-155.65000000000001
 21
290.88000000000011
 31
0.0
  0
LINE
  5
1B6
100
AcDbEntity
100
AcDbLine
  8
0
 62
256
370
-1
 48
1.0
  6
ByLayer
 10
-155.65000000000001
 20
290.88000000000011
 30
0.0
 11
-155.64999999999995
 21
240.88000000000011
 31
0.0
  0
LINE
  5
1B7
100
AcDbEntity
100
AcDbLine
  8
0
 62
256
370
-1
 48
1.0
  6
ByLayer
 10
-155.64999999999995
 20
240.88000000000011
 30
0.0
 11
-152.49999999999986
 21
240.88000000000011
 31
0.0
  0
LINE
  5
1B8
100
AcDbEntity
100
AcDbLine
  8
0
 62
256
370
-1
 48
1.0
  6
ByLayer
 10
-185.27999999999957
 20
-125.0
 30
0.0
 11
-185.28000000000026
 21
100.0
 31
0.0
  0
LINE
  5
1B9
100
AcDbEntity
100
AcDbLine
  8
0
 62
256
370
-1
 48
1.0
  6
ByLayer
 10
-185.28000000000026
 20
100.0
 30
0.0
 11
-191.99999999999994
 21
100.0
 31
0.0
  0
LINE
  5
1BA
100
AcDbEntity
100
AcDbLine
  8
0
 62
256
370
-1
 48
1.0
  6
ByLayer
 10
-191.99999999999994
 20
100.0
 30
0.0
 11
-191.99999999999989
 21
395.0
 31
0.0
  0
LINE
  5
1BB
100
AcDbEntity
100
AcDbLine
  8
0
 62
256
370
-1
 48
1.0
  6
ByLayer
 10
-191.99999999999989
 20
395.0
 30
0.0
 11
-105.33333333333292
 21
395.0
 31
0.0
  0
LINE
  5
1BC
100
AcDbEntity
100
AcDbLine
  8
0
 62
256
370
-1
 48
1.0
  6
ByLayer
 10
-105.33333333333292
 20
395.0
 30
0.0
 11
-105.33333333333292
 21
388.2799999999998
 31
0.0
  0
LINE
  5
1BD
100
AcDbEntity
100
AcDbLine
  8
0
 62
256
370
-1
 48
1.0
  6
ByLayer
 10
-105.33333333333292
 20
388.2799999999998
 30
0.0
 11
-18.666666666666401
 21
388.27999999999997
 31
0.0
  0
LINE
  5
1BE
100
AcDbEntity
100
AcDbLine
  8
0
 62
256
370
-1
 48
1.0
  6
ByLayer
 10
-18.666666666666401
 20
388.27999999999997
 30
0.0
 11
-18.666666666666401
 21
394.99999999999994
 31
0.0
  0
LINE
  5
1BF
100
AcDbEntity
100
AcDbLine
  8
0
 62
256
370
-1
 48
1.0
  6
ByLayer
 10
-18.666666666666401
 20
394.99999999999994
 30
0.0
 11
68.000000000000114
 21
394.99999999999994
 31
0.0
  0
LINE
  5
1C0
100
AcDbEntity
100
AcDbLine
  8
0
 62
256
370
-1
 48
1.0
  6
ByLayer
 10
68.000000000000114
 20
394.99999999999994
 30
0.0
 11
68.000000000000057
 21
100.0
 31
0.0
  0
LINE
  5
1C1
100
AcDbEntity
100
AcDbLine
  8
0
 62
256
370
-1
 48
1.0
  6
ByLayer
 10
68.000000000000057
 20
100.0
 30
0.0
 11
61.280000000000456
 21
100.00000000000006
 31
0.0
  0
LINE
  5
1C2
100
AcDbEntity
100
AcDbLine
  8
0
 62
256
370
-1
 48
1.0
  6
ByLayer
 10
61.279999999999632
 20
-125.00000000000011
 30
0.0
 11
-18.666666666666714
 21
-124.99999999999989
 31
0.0
  0
LINE
  5
1C3
100
AcDbEntity
100
AcDbLine
  8
0
 62
256
370
-1
 48
1.0
  6
ByLayer
 10
-105.33333333333343
 20
-118.27999999999997
 30
0.0
 11
-105.33333333333329
 21
-125.0
 31
0.0
  0
LINE
  5
1C4
100
AcDbEntity
100
AcDbLine
  8
0
 62
256
370
-1
 48
1.0
  6
ByLayer
 10
-105.33333333333329
 20
-125.0
 30
0.0
 11
-185.27999999999957
 21
-125.0
 31
0.0
  0
ARC
  5
1C5
100
AcDbEntity
  8
0
 62
256
370
-1
 48
1.0
  6
ByLayer
100
AcDbCircle
 10
138.06000000000006
 20
-296.84000000000015
 30
0.0
 40
3.0000000000000853
100
AcDbArc
 50
180.0
 51
0.0
  0
LINE
  5
1C6
100
AcDbEntity
100
AcDbLine
  8
0
 62
256
370
-1
 48
1.0
  6
ByLayer
 10
135.05999999999997
 20
-296.84000000000015
 30
0.0
 11
135.05999999999995
 21
-292.84000000000015
 31
0.0
  0
ARC
  5
1C7
100
AcDbEntity
  8
0
 62
256
370
-1
 48
1.0
  6
ByLayer
100
AcDbCircle
 10
138.06000000000006
 20
-292.84000000000015
 30
0.0
 40
3.0000000000000995
100
AcDbArc
 50
0.0
 51
180.0
  0
LINE
  5
1C8
100
AcDbEntity
100
AcDbLine
  8
0
 62
256
370
-1
 48
1.0
  6
ByLayer
 10
141.06000000000014
 20
-292.84000000000015
 30
0.0
 11
141.06000000000014
 21
-296.84000000000015
 31
0.0
  0
ARC
  5
1C9
100
AcDbEntity
  8
0
 62
256
370
-1
 48
1.0
  6
ByLayer
100
AcDbCircle
 10
126.99999999999997
 20
-290.17333333333363
 30
0.0
 40
1.5750000000000526
100
AcDbArc
 50
180.0
 51
0.0
  0
LINE
  5
1CA
100
AcDbEntity
100
AcDbLine
  8
0
 62
256
370
-1
 48
1.0
  6
ByLayer
 10
125.42499999999991
 20
-290.17333333333363
 30
0.0
 11
125.42499999999994
 21
-286.17333333333363
 31
0.0
  0
ARC
  5
1CB
100
AcDbEntity
  8
0
 62
256
370
-1
 48
1.0
  6
ByLayer
100
AcDbCircle
 10
127.0
 20
-286.17333333333363
 30
0.0
 40
1.5750000000000668
100
AcDbArc
 50
0.0
 51
180.0
  0
LINE
  5
1CC
100
AcDbEntity
100
AcDbLine
  8
0
 62
256
370
-1
 48
1.0
  6
ByLayer
 10
128.57500000000007
 20
-286.17333333333363
 30
0.0
 11
128.57500000000002
 21
-290.17333333333363
 31
0.0
  0
ARC
  5
1CD
100
AcDbEntity
  8
0
 62
256
370
-1
 48
1.0
  6
ByLayer
100
AcDbCircle
 10
127.0
 20
-303.50666666666666
 30
0.0
 40
1.5750000000000384
100
AcDbArc
 50
180.0
 51
0.0
  0
LINE
  5
1CE
100
AcDbEntity
100
AcDbLine
  8
0
 62
256
370
-1
 48
1.0
  6
ByLayer
 10
125.42499999999997
 20
-303.50666666666666
 30
0.0
 11
125.425
 21
-299.50666666666666
 31
0.0
  0
ARC
  5
1CF
100
AcDbEntity
  8
0
 62
256
370
-1
 48
1.0
  6
ByLayer
100
AcDbCircle
 10
127.00000000000006
 20
-299.50666666666666
 30
0.0
 40
1.5750000000000526
100
AcDbArc
 50
0.0
 51
180.0
  0
LINE
  5
1D0
100
AcDbEntity
100
AcDbLine
  8
0
 62
256
370
-1
 48
1.0
  6
ByLayer
 10
128.5750000000001
 20
-299.50666666666666
 30
0.0
 11
128.57500000000005
 21
-303.50666666666666
 31
0.0
  0
ARC
  5
1D1
100
AcDbEntity
  8
0
 62
256
370
-1
 48
1.0
  6
ByLayer
100
AcDbCircle
 10
153.06000000000006
 20
-296.84000000000015
 30
0.0
 40
3.0000000000001137
100
AcDbArc
 50
180.0
 51
0.0
  0
LINE
  5
1D2
100
AcDbEntity
100
AcDbLine
  8
0
 62
256
370
-1
 48
1.0
  6
ByLayer
 10
150.05999999999995
 20
-296.84000000000015
 30
0.0
 11
150.05999999999997
 21
-292.84000000000015
 31
0.0
  0
ARC
  5
1D3
100
AcDbEntity
  8
0
 62
256
370
-1
 48
1.0
  6
ByLayer
100
AcDbCircle
 10
153.06000000000006
 20
-292.84000000000015
 30
0.0
 40
3.0000000000000995
100
AcDbArc
 50
0.0
 51
180.0
  0
LINE
  5
1D4
100
AcDbEntity
100
AcDbLine
  8
0
 62
256
370
-1
 48
1.0
  6
ByLayer
 10
156.06000000000017
 20
-292.84000000000015
 30
0.0
 11
156.06000000000017
 21
-296.84000000000015
 31
0.0
  0
LINE
  5
1D5
100
AcDbEntity
100
AcDbLine
  8
0
 62
256
370
-1
 48
1.0
  6
ByLayer
 10
151.50000000000011
 20
-351.74000000000024
 30
0.0
 11
151.50000000000011
 21
-392.05999999999995
 31
0.0
  0
LINE
  5
1D6
100
AcDbEntity
100
AcDbLine
  8
0
 62
256
370
-1
 48
1.0
  6
ByLayer
 10
151.50000000000011
 20
-392.05999999999995
 30
0.0
 11
173.77999999999986
 21
-392.05999999999995
 31
0.0
  0
LINE
  5
1D7
100
AcDbEntity
100
AcDbLine
  8
0
 62
256
370
-1
 48
1.0
  6
ByLayer
 10
173.77999999999986
 20
-392.05999999999995
 30
0.0
 11
174.77551127986112
 21
-335.02719697373959
 31
0.0
  0
LINE
  5
1D8
100
AcDbEntity
100
AcDbLine
  8
0
 62
256
370
-1
 48
1.0
  6
ByLayer
 10
174.77551127986112
 20
-335.02719697373959
 30
0.0
 11
169.78
 21
-334.94000000000005
 31
0.0
  0
LINE
  5
1D9
100
AcDbEntity
100
AcDbLine
  8
0
 62
256
370
-1
 48
1.0
  6
ByLayer
 10
169.78
 20
-334.94000000000005
 30
0.0
 11
156.3400000000002
 21
-334.94000000000005
 31
0.0
  0
LINE
  5
1DA
100
AcDbEntity
100
AcDbLine
  8
0
 62
256
370
-1
 48
1.0
  6
ByLayer
 10
156.3400000000002
 20
-334.94000000000005
 30
0.0
 11
156.34000000000026
 21
-328.22000000000025
 31
0.0
  0
LINE
  5
1DB
100
AcDbEntity
100
AcDbLine
  8
0
 62
256
370
-1
 48
1.0
  6
ByLayer
 10
156.34000000000026
 20
-328.22000000000025
 30
0.0
 11
163.06000000000026
 21
-328.2200000000002
 31
0.0
  0
LINE
  5
1DC
100
AcDbEntity
100
AcDbLine
  8
0
 62
256
370
-1
 48
1.0
  6
ByLayer
 10
163.06000000000026
 20
-328.2200000000002
 30
0.0
 11
163.06000000000017
 21
-318.74333333333334
 31
0.0
  0
LINE
  5
1DD
100
AcDbEntity
100
AcDbLine
  8
0
 62
256
370
-1
 48
1.0
  6
ByLayer
 10
163.06000000000017
 20
-318.74333333333334
 30
0.0
 11
158.77999999999997
 21
-318.74333333333334
 31
0.0
  0
LINE
  5
1DE
100
AcDbEntity
100
AcDbLine
  8
0
 62
256
370
-1
 48
1.0
  6
ByLayer
 10
158.77999999999997
 20
-318.74333333333334
 30
0.0
 11
158.78000000000003
 21
-319.8433333333337
 31
0.0
  0
ARC
  5
1DF
100
AcDbEntity
  8
0
 62
256
370
-1
 48
1.0
  6
ByLayer
100
AcDbCircle
 10
158.77999999999997
 20
-320.09333333333376
 30
0.0
 40
0.2500000000000426
100
AcDbArc
 50
180.0
 51
89.999999999986969
  0
LINE
  5
1E0
100
AcDbEntity
100
AcDbLine
  8
0
 62
256
370
-1
 48
1.0
  6
ByLayer
 10
158.52999999999994
 20
-320.0933333333337
 30
0.0
 11
156.02999999999994
 21
-320.0933333333337
 31
0.0
  0
ARC
  5
1E1
100
AcDbEntity
  8
0
 62
256
370
-1
 48
1.0
  6
ByLayer
100
AcDbCircle
 10
155.77999999999997
 20
-320.0933333333337
 30
0.0
 40
0.2499999999999858
100
AcDbArc
 50
90.0
 51
0.0
  0
LINE
  5
1E2
100
AcDbEntity
100
AcDbLine
  8
0
 62
256
370
-1
 48
1.0
  6
ByLayer
 10
155.77999999999997
 20
-319.8433333333337
 30
0.0
 11
155.77999999999997
 21
-318.74333333333334
 31
0.0
  0
LINE
  5
1E3
100
AcDbEntity
100
AcDbLine
  8
0
 62
256
370
-1
 48
1.0
  6
ByLayer
 10
155.77999999999997
 20
-318.74333333333334
 30
0.0
 11
153.77999999999997
 21
-318.74333333333334
 31
0.0
  0
LINE
  5
1E4
100
AcDbEntity
100
AcDbLine
  8
0
 62
256
370
-1
 48
1.0
  6
ByLayer
 10
153.77999999999997
 20
-318.74333333333334
 30
0.0
 11
153.77999999999997
 21
-315.44333333333361
 31
0.0
  0
LINE
  5
1E5
100
AcDbEntity
100
AcDbLine
  8
0
 62
256
370
-1
 48
1.0
  6
ByLayer
 10
153.77999999999997
 20
-315.44333333333361
 30
0.0
 11
155.78
 21
-315.44333333333361
 31
0.0
  0
LINE
  5
1E6
100
AcDbEntity
100
AcDbLine
  8
0
 62
256
370
-1
 48
1.0
  6
ByLayer
 10
155.78
 20
-315.44333333333361
 30
0.0
 11
155.78000000000003
 21
-314.3433333333337
 31
0.0
  0
ARC
  5
1E7
100
AcDbEntity
  8
0
 62
256
370
-1
 48
1.0
  6
ByLayer
100
AcDbCircle
 10
155.78000000000003
 20
-314.0933333333337
 30
0.0
 40
0.25
100
AcDbArc
 50
0.0
 51
270.0
  0
LINE
  5
1E8
100
AcDbEntity
100
AcDbLine
  8
0
 62
256
370
-1
 48
1.0
  6
ByLayer
 10
156.03000000000003
 20
-314.0933333333337
 30
0.0
 11
158.53000000000003
 21
-314.0933333333337
 31
0.0
  0
ARC
  5
1E9
100
AcDbEntity
  8
0
 62
256
370
-1
 48
1.0
  6
ByLayer
100
AcDbCircle
 10
158.78
 20
-314.09333333333376
 30
0.0
 40
0.2499999999999716
100
AcDbArc
 50
269.99999999999346
 51
180.0
  0
LINE
  5
1EA
100
AcDbEntity
100
AcDbLine
  8
0
 62
256
370
-1
 48
1.0
  6
ByLayer
 10
158.77999999999997
 20
-314.3433333333337
 30
0.0
 11
158.77999999999997
 21
-315.44333333333361
 31
0.0
  0
LINE
  5
1EB
100
AcDbEntity
100
AcDbLine
  8
0
 62
256
370
-1
 48
1.0
  6
ByLayer
 10
158.77999999999997
 20
-315.44333333333361
 30
0.0
 11
163.06000000000023
 21
-315.44333333333361
 31
0.0
  0
LINE
  5
1EC
100
AcDbEntity
100
AcDbLine
  8
0
 62
256
370
-1
 48
1.0
  6
ByLayer
 10
163.06000000000023
 20
-315.44333333333361
 30
0.0
 11
163.0600000000002
 21
-305.9666666666667
 31
0.0
  0
LINE
  5
1ED
100
AcDbEntity
100
AcDbLine
  8
0
 62
256
370
-1
 48
1.0
  6
ByLayer
 10
163.0600000000002
 20
-305.9666666666667
 30
0.0
 11
169.77999999999994
 21
-305.9666666666667
 31
0.0
  0
LINE
  5
1EE
100
AcDbEntity
100
AcDbLine
  8
0
 62
256
370
-1
 48
1.0
  6
ByLayer
 10
169.77999999999994
 20
-305.9666666666667
 30
0.0
 11
169.77999999999997
 21
-283.71333333333359
 31
0.0
  0
LINE
  5
1EF
100
AcDbEntity
100
AcDbLine
  8
0
 62
256
370
-1
 48
1.0
  6
ByLayer
 10
169.77999999999997
 20
-283.71333333333359
 30
0.0
 11
163.06000000000014
 21
-283.71333333333359
 31
0.0
  0
LINE
  5
1F0
100
AcDbEntity
100
AcDbLine
  8
0
 62
256
370
-1
 48
1.0
  6
ByLayer
 10
163.06000000000014
 20
-283.71333333333359
 30
0.0
 11
163.0600000000002
 21
-274.23666666666668
 31
0.0
  0
LINE
  5
1F1
100
AcDbEntity
100
AcDbLine
  8
0
 62
256
370
-1
 48
1.0
  6
ByLayer
 10
163.0600000000002
 20
-274.23666666666668
 30
0.0
 11
158.77999999999997
 21
-274.23666666666668
 31
0.0
  0
LINE
  5
1F2
100
AcDbEntity
100
AcDbLine
  8
0
 62
256
370
-1
 48
1.0
  6
ByLayer
 10
158.77999999999997
 20
-274.23666666666668
 30
0.0
 11
158.78000000000003
 21
-275.33666666666659
 31
0.0
  0
ARC
  5
1F3
100
AcDbEntity
  8
0
 62
256
370
-1
 48
1.0
  6
ByLayer
100
AcDbCircle
 10
158.78
 20
-275.58666666666659
 30
0.0
 40
0.2500000000000284
100
AcDbArc
 50
180.0
 51
89.999999999993491
  0
LINE
  5
1F4
100
AcDbEntity
100
AcDbLine
  8
0
 62
256
370
-1
 48
1.0
  6
ByLayer
 10
158.52999999999997
 20
-275.58666666666659
 30
0.0
 11
156.02999999999997
 21
-275.58666666666659
 31
0.0
  0
ARC
  5
1F5
100
AcDbEntity
  8
0
 62
256
370
-1
 48
1.0
  6
ByLayer
100
AcDbCircle
 10
155.77999999999997
 20
-275.58666666666659
 30
0.0
 40
0.25
100
AcDbArc
 50
90.0
 51
0.0
  0
LINE
  5
1F6
100
AcDbEntity
100
AcDbLine
  8
0
 62
256
370
-1
 48
1.0
  6
ByLayer
 10
155.77999999999997
 20
-275.33666666666659
 30
0.0
 11
155.78
 21
-274.23666666666668
 31
0.0
  0
LINE
  5
1F7
100
AcDbEntity
100
AcDbLine
  8
0
 62
256
370
-1
 48
1.0
  6
ByLayer
 10
155.78
 20
-274.23666666666668
 30
0.0
 11
153.77999999999994
 21
-274.23666666666668
 31
0.0
  0
LINE
  5
1F8
100
AcDbEntity
100
AcDbLine
  8
0
 62
256
370
-1
 48
1.0
  6
ByLayer
 10
153.77999999999994
 20
-274.23666666666668
 30
0.0
 11
153.78
 21
-270.93666666666695
 31
0.0
  0
LINE
  5
1F9
100
AcDbEntity
100
AcDbLine
  8
0
 62
256
370
-1
 48
1.0
  6
ByLayer
 10
153.78
 20
-270.93666666666695
 30
0.0
 11
155.78
 21
-270.93666666666695
 31
0.0
  0
LINE
  5
1FA
100
AcDbEntity
100
AcDbLine
  8
0
 62
256
370
-1
 48
1.0
  6
ByLayer
 10
155.78
 20
-270.93666666666695
 30
0.0
 11
155.78
 21
-269.83666666666659
 31
0.0
  0
ARC
  5
1FB
100
AcDbEntity
  8
0
 62
256
370
-1
 48
1.0
  6
ByLayer
100
AcDbCircle
 10
155.77999999999997
 20
-269.58666666666664
 30
0.0
 40
0.2499999999999716
100
AcDbArc
 50
0.0
 51
270.00000000000654
  0
LINE
  5
1FC
100
AcDbEntity
100
AcDbLine
  8
0
 62
256
370
-1
 48
1.0
  6
ByLayer
 10
156.02999999999994
 20
-269.58666666666659
 30
0.0
 11
158.52999999999997
 21
-269.58666666666659
 31
0.0
  0
ARC
  5
1FD
100
AcDbEntity
  8
0
 62
256
370
-1
 48
1.0
  6
ByLayer
100
AcDbCircle
 10
158.77999999999997
 20
-269.58666666666659
 30
0.0
 40
0.25
100
AcDbArc
 50
270.0
 51
180.0
  0
LINE
  5
1FE
100
AcDbEntity
100
AcDbLine
  8
0
 62
256
370
-1
 48
1.0
  6
ByLayer
 10
158.77999999999997
 20
-269.83666666666659
 30
0.0
 11
158.77999999999997
 21
-270.93666666666695
 31
0.0
  0
LINE
  5
1FF
100
AcDbEntity
100
AcDbLine
  8
0
 62
256
370
-1
 48
1.0
  6
ByLayer
 10
158.77999999999997
 20
-270.93666666666695
 30
0.0
 11
163.0600000000002
 21
-270.93666666666695
 31
0.0
  0
LINE
  5
200
100
AcDbEntity
100
AcDbLine
  8
0
 62
256
370
-1
 48
1.0
  6
ByLayer
 10
163.0600000000002
 20
-270.93666666666695
 30
0.0
 11
163.06000000000017
 21
-261.46000000000004
 31
0.0
  0
LINE
  5
201
100
AcDbEntity
100
AcDbLine
  8
0
 62
256
370
-1
 48
1.0
  6
ByLayer
 10
163.06000000000017
 20
-261.46000000000004
 30
0.0
 11
156.34000000000015
 21
-261.46000000000004
 31
0.0
  0
LINE
  5
202
100
AcDbEntity
100
AcDbLine
  8
0
 62
256
370
-1
 48
1.0
  6
ByLayer
 10
156.34000000000015
 20
-261.46000000000004
 30
0.0
 11
156.34000000000012
 21
-254.74000000000026
 31
0.0
  0
LINE
  5
203
100
AcDbEntity
100
AcDbLine
  8
0
 62
256
370
-1
 48
1.0
  6
ByLayer
 10
156.34000000000012
 20
-254.74000000000026
 30
0.0
 11
169.78
 21
-254.74000000000021
 31
0.0
  0
LINE
  5
204
100
AcDbEntity
100
AcDbLine
  8
0
 62
256
370
-1
 48
1.0
  6
ByLayer
 10
169.78
 20
-254.74000000000021
 30
0.0
 11
176.17498109763073
 21
-254.85162481027373
 31
0.0
  0
LINE
  5
205
100
AcDbEntity
100
AcDbLine
  8
0
 62
256
370
-1
 48
1.0
  6
ByLayer
 10
176.17498109763073
 20
-254.85162481027373
 30
0.0
 11
177.17396282464117
 21
-197.61999999999986
 31
0.0
  0
LINE
  5
206
100
AcDbEntity
100
AcDbLine
  8
0
 62
256
370
-1
 48
1.0
  6
ByLayer
 10
177.17396282464117
 20
-197.61999999999986
 30
0.0
 11
151.50000000000003
 21
-197.62000000000037
 31
0.0
  0
LINE
  5
207
100
AcDbEntity
100
AcDbLine
  8
0
 62
256
370
-1
 48
1.0
  6
ByLayer
 10
151.50000000000003
 20
-197.62000000000037
 30
0.0
 11
151.5
 21
-237.94000000000003
 31
0.0
  0
LINE
  5
208
100
AcDbEntity
100
AcDbLine
  8
0
 62
256
370
-1
 48
1.0
  6
ByLayer
 10
151.5
 20
-237.94000000000003
 30
0.0
 11
144.77999999999997
 21
-237.94000000000005
 31
0.0
  0
LINE
  5
209
100
AcDbEntity
100
AcDbLine
  8
0
 62
256
370
-1
 48
1.0
  6
ByLayer
 10
144.77999999999997
 20
-237.94000000000005
 30
0.0
 11
144.77999999999997
 21
-224.5
 31
0.0
  0
LINE
  5
20A
100
AcDbEntity
100
AcDbLine
  8
0
 62
256
370
-1
 48
1.0
  6
ByLayer
 10
144.77999999999997
 20
-224.5
 30
0.0
 11
120.27999999999997
 21
-224.5
 31
0.0
  0
LINE
  5
20B
100
AcDbEntity
100
AcDbLine
  8
0
 62
256
370
-1
 48
1.0
  6
ByLayer
 10
120.27999999999997
 20
-224.5
 30
0.0
 11
120.27999999999994
 21
-365.18000000000029
 31
0.0
  0
LINE
  5
20C
100
AcDbEntity
100
AcDbLine
  8
0
 62
256
370
-1
 48
1.0
  6
ByLayer
 10
120.27999999999994
 20
-365.18000000000029
 30
0.0
 11
144.78
 21
-365.18000000000029
 31
0.0
  0
LINE
  5
20D
100
AcDbEntity
100
AcDbLine
  8
0
 62
256
370
-1
 48
1.0
  6
ByLayer
 10
144.78
 20
-365.18000000000029
 30
0.0
 11
144.78000000000006
 21
-351.74000000000024
 31
0.0
  0
LINE
  5
20E
100
AcDbEntity
100
AcDbLine
  8
0
 62
256
370
-1
 48
1.0
  6
ByLayer
 10
144.78000000000006
 20
-351.74000000000024
 30
0.0
 11
151.50000000000011
 21
-351.74000000000024
 31
0.0
  0
LINE
  5
20F
100
AcDbEntity
100
AcDbLine
  8
0
 62
256
370
-1
 48
1.0
  6
ByLayer
 10
-185.27999999999952
 20
-124.99999999999977
 30
0.0
 11
-185.27999999999952
 21
-147.2533333333331
 31
0.0
  0
LINE
  5
210
100
AcDbEntity
100
AcDbLine
  8
0
 62
256
370
-1
 48
1.0
  6
ByLayer
 10
-185.27999999999952
 20
-147.2533333333331
 30
0.0
 11
-191.99999999999932
 21
-147.2533333333331
 31
0.0
  0
LINE
  5
211
100
AcDbEntity
100
AcDbLine
  8
0
 62
256
370
-1
 48
1.0
  6
ByLayer
 10
-191.99999999999932
 20
-147.2533333333331
 30
0.0
 11
-191.99999999999935
 21
-169.50666666666643
 31
0.0
  0
LINE
  5
212
100
AcDbEntity
100
AcDbLine
  8
0
 62
256
370
-1
 48
1.0
  6
ByLayer
 10
-191.99999999999935
 20
-169.50666666666643
 30
0.0
 11
-185.27999999999952
 21
-169.50666666666643
 31
0.0
  0
LINE
  5
213
100
AcDbEntity
100
AcDbLine
  8
0
 62
256
370
-1
 48
1.0
  6
ByLayer
 10
-185.27999999999952
 20
-169.50666666666643
 30
0.0
 11
-185.27999999999952
 21
-191.75999999999976
 31
0.0
  0
LINE
  5
214
100
AcDbEntity
100
AcDbLine
  8
0
 62
256
370
-1
 48
1.0
  6
ByLayer
 10
-185.27999999999952
 20
-191.75999999999976
 30
0.0
 11
-173.89999999999944
 21
-191.75999999999954
 31
0.0
  0
LINE
  5
215
100
AcDbEntity
100
AcDbLine
  8
0
 62
256
370
-1
 48
1.0
  6
ByLayer
 10
-173.89999999999944
 20
-191.75999999999954
 30
0.0
 11
-173.89999999999941
 21
-187.47999999999956
 31
0.0
  0
LINE
  5
216
100
AcDbEntity
100
AcDbLine
  8
0
 62
256
370
-1
 48
1.0
  6
ByLayer
 10
-173.89999999999941
 20
-187.47999999999956
 30
0.0
 11
-174.99999999999932
 21
-187.47999999999956
 31
0.0
  0
ARC
  5
217
100
AcDbEntity
  8
0
 62
256
370
-1
 48
1.0
  6
ByLayer
100
AcDbCircle
 10
-175.24999999999932
 20
-187.47999999999956
 30
0.0
 40
0.25
100
AcDbArc
 50
90.0
 51
0.0
  0
LINE
  5
218
100
AcDbEntity
100
AcDbLine
  8
0
 62
256
370
-1
 48
1.0
  6
ByLayer
 10
-175.24999999999932
 20
-187.22999999999956
 30
0.0
 11
-175.24999999999929
 21
-184.72999999999956
 31
0.0
  0
ARC
  5
219
100
AcDbEntity
  8
0
 62
256
370
-1
 48
1.0
  6
ByLayer
100
AcDbCircle
 10
-175.24999999999932
 20
-184.47999999999959
 30
0.0
 40
0.2499999999999858
100
AcDbArc
 50
0.0
 51
270.00000000000654
  0
LINE
  5
21A
100
AcDbEntity
100
AcDbLine
  8
0
 62
256
370
-1
 48
1.0
  6
ByLayer
 10
-174.99999999999932
 20
-184.47999999999956
 30
0.0
 11
-173.89999999999941
 21
-184.47999999999956
 31
0.0
  0
LINE
  5
21B
100
AcDbEntity
100
AcDbLine
  8
0
 62
256
370
-1
 48
1.0
  6
ByLayer
 10
-173.89999999999941
 20
-184.47999999999956
 30
0.0
 11
-173.89999999999938
 21
-182.47999999999956
 31
0.0
  0
LINE
  5
21C
100
AcDbEntity
100
AcDbLine
  8
0
 62
256
370
-1
 48
1.0
  6
ByLayer
 10
-173.89999999999938
 20
-182.47999999999956
 30
0.0
 11
-170.59999999999923
 21
-182.47999999999956
 31
0.0
  0
LINE
  5
21D
100
AcDbEntity
100
AcDbLine
  8
0
 62
256
370
-1
 48
1.0
  6
ByLayer
 10
-170.59999999999923
 20
-182.47999999999956
 30
0.0
 11
-170.59999999999923
 21
-184.47999999999956
 31
0.0
  0
LINE
  5
21E
100
AcDbEntity
100
AcDbLine
  8
0
 62
256
370
-1
 48
1.0
  6
ByLayer
 10
-170.59999999999923
 20
-184.47999999999956
 30
0.0
 11
-169.49999999999932
 21
-184.47999999999956
 31
0.0
  0
ARC
  5
21F
100
AcDbEntity
  8
0
 62
256
370
-1
 48
1.0
  6
ByLayer
100
AcDbCircle
 10
-169.24999999999932
 20
-184.47999999999956
 30
0.0
 40
0.2500000000000142
100
AcDbArc
 50
270.00000000000654
 51
180.0
  0
LINE
  5
220
100
AcDbEntity
100
AcDbLine
  8
0
 62
256
370
-1
 48
1.0
  6
ByLayer
 10
-169.24999999999929
 20
-184.72999999999956
 30
0.0
 11
-169.24999999999935
 21
-187.22999999999956
 31
0.0
  0
ARC
  5
221
100
AcDbEntity
  8
0
 62
256
370
-1
 48
1.0
  6
ByLayer
100
AcDbCircle
 10
-169.24999999999935
 20
-187.47999999999956
 30
0.0
 40
0.25
100
AcDbArc
 50
180.0
 51
90.0
  0
LINE
  5
222
100
AcDbEntity
100
AcDbLine
  8
0
 62
256
370
-1
 48
1.0
  6
ByLayer
 10
-169.49999999999935
 20
-187.47999999999956
 30
0.0
 11
-170.59999999999926
 21
-187.47999999999956
 31
0.0
  0
LINE
  5
223
100
AcDbEntity
100
AcDbLine
  8
0
 62
256
370
-1
 48
1.0
  6
ByLayer
 10
-170.59999999999926
 20
-187.47999999999956
 30
0.0
 11
-170.59999999999926
 21
-191.75999999999954
 31
0.0
  0
LINE
  5
224
100
AcDbEntity
100
AcDbLine
  8
0
 62
256
370
-1
 48
1.0
  6
ByLayer
 10
-170.59999999999926
 20
-191.75999999999954
 30
0.0
 11
-126.73333333333244
 21
-191.75999999999954
 31
0.0
  0
LINE
  5
225
100
AcDbEntity
100
AcDbLine
  8
0
 62
256
370
-1
 48
1.0
  6
ByLayer
 10
-126.73333333333244
 20
-191.75999999999954
 30
0.0
 11
-126.73333333333244
 21
-187.47999999999956
 31
0.0
  0
LINE
  5
226
100
AcDbEntity
100
AcDbLine
  8
0
 62
256
370
-1
 48
1.0
  6
ByLayer
 10
-126.73333333333244
 20
-187.47999999999956
 30
0.0
 11
-127.8333333333328
 21
-187.47999999999956
 31
0.0
  0
ARC
  5
227
100
AcDbEntity
  8
0
 62
256
370
-1
 48
1.0
  6
ByLayer
100
AcDbCircle
 10
-128.0833333333328
 20
-187.47999999999956
 30
0.0
 40
0.25
100
AcDbArc
 50
90.0
 51
0.0
  0
LINE
  5
228
100
AcDbEntity
100
AcDbLine
  8
0
 62
256
370
-1
 48
1.0
  6
ByLayer
 10
-128.0833333333328
 20
-187.22999999999956
 30
0.0
 11
-128.08333333333277
 21
-184.72999999999956
 31
0.0
  0
ARC
  5
229
100
AcDbEntity
  8
0
 62
256
370
-1
 48
1.0
  6
ByLayer
100
AcDbCircle
 10
-128.0833333333328
 20
-184.47999999999959
 30
0.0
 40
0.2499999999999787
100
AcDbArc
 50
0.0
 51
270.00000000000654
  0
LINE
  5
22A
100
AcDbEntity
100
AcDbLine
  8
0
 62
256
370
-1
 48
1.0
  6
ByLayer
 10
-127.83333333333282
 20
-184.47999999999956
 30
0.0
 11
-126.73333333333244
 21
-184.47999999999956
 31
0.0
  0
LINE
  5
22B
100
AcDbEntity
100
AcDbLine
  8
0
 62
256
370
-1
 48
1.0
  6
ByLayer
 10
-126.73333333333244
 20
-184.47999999999956
 30
0.0
 11
-126.73333333333244
 21
-182.47999999999956
 31
0.0
  0
LINE
  5
22C
100
AcDbEntity
100
AcDbLine
  8
0
 62
256
370
-1
 48
1.0
  6
ByLayer
 10
-126.73333333333244
 20
-182.47999999999956
 30
0.0
 11
-123.43333333333274
 21
-182.47999999999959
 31
0.0
  0
LINE
  5
22D
100
AcDbEntity
100
AcDbLine
  8
0
 62
256
370
-1
 48
1.0
  6
ByLayer
 10
-123.43333333333274
 20
-182.47999999999959
 30
0.0
 11
-123.4333333333327
 21
-184.47999999999954
 31
0.0
  0
LINE
  5
22E
100
AcDbEntity
100
AcDbLine
  8
0
 62
256
370
-1
 48
1.0
  6
ByLayer
 10
-123.4333333333327
 20
-184.47999999999954
 30
0.0
 11
-122.33333333333283
 21
-184.47999999999959
 31
0.0
  0
ARC
  5
22F
100
AcDbEntity
  8
0
 62
256
370
-1
 48
1.0
  6
ByLayer
100
AcDbCircle
 10
-122.08333333333285
 20
-184.47999999999956
 30
0.0
 40
0.2499999999999929
100
AcDbArc
 50
270.00000000000654
 51
180.0
  0
LINE
  5
230
100
AcDbEntity
100
AcDbLine
  8
0
 62
256
370
-1
 48
1.0
  6
ByLayer
 10
-122.08333333333282
 20
-184.72999999999956
 30
0.0
 11
-122.08333333333279
 21
-187.22999999999956
 31
0.0
  0
ARC
  5
231
100
AcDbEntity
  8
0
 62
256
370
-1
 48
1.0
  6
ByLayer
100
AcDbCircle
 10
-122.08333333333279
 20
-187.47999999999959
 30
0.0
 40
0.25000000000004
100
AcDbArc
 50
180.0
 51
90.0
  0
LINE
  5
232
100
AcDbEntity
100
AcDbLine
  8
0
 62
256
370
-1
 48
1.0
  6
ByLayer
 10
-122.33333333333283
 20
-187.47999999999959
 30
0.0
 11
-123.43333333333271
 21
-187.47999999999956
 31
0.0
  0
LINE
  5
233
100
AcDbEntity
100
AcDbLine
  8
0
 62
256
370
-1
 48
1.0
  6
ByLayer
 10
-123.43333333333271
 20
-187.47999999999956
 30
0.0
 11
-123.43333333333274
 21
-191.75999999999959
 31
0.0
  0
LINE
  5
234
100
AcDbEntity
100
AcDbLine
  8
0
 62
256
370
-1
 48
1.0
  6
ByLayer
 10
-123.43333333333274
 20
-191.75999999999959
 30
0.0
 11
-105.33333333333282
 21
-191.75999999999976
 31
0.0
  0
LINE
  5
235
100
AcDbEntity
100
AcDbLine
  8
0
 62
256
370
-1
 48
1.0
  6
ByLayer
 10
-105.33333333333282
 20
-191.75999999999976
 30
0.0
 11
-105.3333333333328
 21
-198.47999999999956
 31
0.0
  0
LINE
  5
236
100
AcDbEntity
100
AcDbLine
  8
0
 62
256
370
-1
 48
1.0
  6
ByLayer
 10
-105.3333333333328
 20
-198.47999999999956
 30
0.0
 11
-18.666666666665861
 21
-198.47999999999968
 31
0.0
  0
LINE
  5
237
100
AcDbEntity
100
AcDbLine
  8
0
 62
256
370
-1
 48
1.0
  6
ByLayer
 10
-18.666666666665861
 20
-198.47999999999968
 30
0.0
 11
-18.666666666665861
 21
-191.75999999999985
 31
0.0
  0
LINE
  5
238
100
AcDbEntity
100
AcDbLine
  8
0
 62
256
370
-1
 48
1.0
  6
ByLayer
 10
-18.666666666665861
 20
-191.75999999999985
 30
0.0
 11
-0.5666666666658955
 21
-191.75999999999945
 31
0.0
  0
LINE
  5
239
100
AcDbEntity
100
AcDbLine
  8
0
 62
256
370
-1
 48
1.0
  6
ByLayer
 10
-0.5666666666658955
 20
-191.75999999999945
 30
0.0
 11
-0.5666666666659808
 21
-187.47999999999976
 31
0.0
  0
LINE
  5
23A
100
AcDbEntity
100
AcDbLine
  8
0
 62
256
370
-1
 48
1.0
  6
ByLayer
 10
-0.5666666666659808
 20
-187.47999999999976
 30
0.0
 11
-1.6666666666658045
 21
-187.47999999999956
 31
0.0
  0
ARC
  5
23B
100
AcDbEntity
  8
0
 62
256
370
-1
 48
1.0
  6
ByLayer
100
AcDbCircle
 10
-1.916666666665809
 20
-187.47999999999962
 30
0.0
 40
0.2500000000000044
100
AcDbArc
 50
90.000000000012008
 51
0.0
  0
LINE
  5
23C
100
AcDbEntity
100
AcDbLine
  8
0
 62
256
370
-1
 48
1.0
  6
ByLayer
 10
-1.9166666666658614
 20
-187.22999999999962
 30
0.0
 11
-1.9166666666658614
 21
-184.72999999999962
 31
0.0
  0
ARC
  5
23D
100
AcDbEntity
  8
0
 62
256
370
-1
 48
1.0
  6
ByLayer
100
AcDbCircle
 10
-1.9166666666658614
 20
-184.47999999999962
 30
0.0
 40
0.2500000000000284
100
AcDbArc
 50
0.0
 51
270.0
  0
LINE
  5
23E
100
AcDbEntity
100
AcDbLine
  8
0
 62
256
370
-1
 48
1.0
  6
ByLayer
 10
-1.666666666665833
 20
-184.47999999999959
 30
0.0
 11
-0.5666666666659523
 21
-184.47999999999971
 31
0.0
  0
LINE
  5
23F
100
AcDbEntity
100
AcDbLine
  8
0
 62
256
370
-1
 48
1.0
  6
ByLayer
 10
-0.5666666666659523
 20
-184.47999999999971
 30
0.0
 11
-0.5666666666658955
 21
-182.47999999999945
 31
0.0
  0
LINE
  5
240
100
AcDbEntity
100
AcDbLine
  8
0
 62
256
370
-1
 48
1.0
  6
ByLayer
 10
-0.5666666666658955
 20
-182.47999999999945
 30
0.0
 11
2.7333333333338032
 21
-182.47999999999962
 31
0.0
  0
LINE
  5
241
100
AcDbEntity
100
AcDbLine
  8
0
 62
256
370
-1
 48
1.0
  6
ByLayer
 10
2.7333333333338032
 20
-182.47999999999962
 30
0.0
 11
2.7333333333338032
 21
-184.47999999999956
 31
0.0
  0
LINE
  5
242
100
AcDbEntity
100
AcDbLine
  8
0
 62
256
370
-1
 48
1.0
  6
ByLayer
 10
2.7333333333338032
 20
-184.47999999999956
 30
0.0
 11
3.8333333333341955
 21
-184.47999999999945
 31
0.0
  0
ARC
  5
243
100
AcDbEntity
  8
0
 62
256
370
-1
 48
1.0
  6
ByLayer
100
AcDbCircle
 10
4.0833333333342807
 20
-184.47999999999959
 30
0.0
 40
0.2500000000000853
100
AcDbArc
 50
269.99999999996743
 51
180.0
  0
LINE
  5
244
100
AcDbEntity
100
AcDbLine
  8
0
 62
256
370
-1
 48
1.0
  6
ByLayer
 10
4.0833333333341386
 20
-184.72999999999968
 30
0.0
 11
4.083333333334167
 21
-187.22999999999959
 31
0.0
  0
ARC
  5
245
100
AcDbEntity
  8
0
 62
256
370
-1
 48
1.0
  6
ByLayer
100
AcDbCircle
 10
4.083333333334167
 20
-187.47999999999959
 30
0.0
 40
0.25
100
AcDbArc
 50
180.0
 51
90.0
  0
LINE
  5
246
100
AcDbEntity
100
AcDbLine
  8
0
 62
256
370
-1
 48
1.0
  6
ByLayer
 10
3.833333333334167
 20
-187.47999999999959
 30
0.0
 11
2.7333333333337748
 21
-187.47999999999968
 31
0.0
  0
LINE
  5
247
100
AcDbEntity
100
AcDbLine
  8
0
 62
256
370
-1
 48
1.0
  6
ByLayer
 10
2.7333333333337748
 20
-187.47999999999968
 30
0.0
 11
2.7333333333337748
 21
-191.75999999999959
 31
0.0
  0
LINE
  5
248
100
AcDbEntity
100
AcDbLine
  8
0
 62
256
370
-1
 48
1.0
  6
ByLayer
 10
2.7333333333337748
 20
-191.75999999999959
 30
0.0
 11
46.600000000000591
 21
-191.75999999999954
 31
0.0
  0
LINE
  5
249
100
AcDbEntity
100
AcDbLine
  8
0
 62
256
370
-1
 48
1.0
  6
ByLayer
 10
46.600000000000591
 20
-191.75999999999954
 30
0.0
 11
46.600000000000563
 21
-187.47999999999962
 31
0.0
  0
LINE
  5
24A
100
AcDbEntity
100
AcDbLine
  8
0
 62
256
370
-1
 48
1.0
  6
ByLayer
 10
46.600000000000563
 20
-187.47999999999962
 30
0.0
 11
45.500000000000654
 21
-187.47999999999968
 31
0.0
  0
ARC
  5
24B
100
AcDbEntity
  8
0
 62
256
370
-1
 48
1.0
  6
ByLayer
100
AcDbCircle
 10
45.250000000000625
 20
-187.47999999999959
 30
0.0
 40
0.2500000000000284
100
AcDbArc
 50
89.999999999986969
 51
360.0
  0
LINE
  5
24C
100
AcDbEntity
100
AcDbLine
  8
0
 62
256
370
-1
 48
1.0
  6
ByLayer
 10
45.250000000000682
 20
-187.22999999999959
 30
0.0
 11
45.250000000000654
 21
-184.72999999999956
 31
0.0
  0
ARC
  5
24D
100
AcDbEntity
  8
0
 62
256
370
-1
 48
1.0
  6
ByLayer
100
AcDbCircle
 10
45.250000000000782
 20
-184.47999999999968
 30
0.0
 40
0.2499999999998721
100
AcDbArc
 50
360.0
 51
269.99999999997073
  0
LINE
  5
24E
100
AcDbEntity
100
AcDbLine
  8
0
 62
256
370
-1
 48
1.0
  6
ByLayer
 10
45.500000000000654
 20
-184.47999999999982
 30
0.0
 11
46.60000000000062
 21
-184.47999999999948
 31
0.0
  0
LINE
  5
24F
100
AcDbEntity
100
AcDbLine
  8
0
 62
256
370
-1
 48
1.0
  6
ByLayer
 10
46.60000000000062
 20
-184.47999999999948
 30
0.0
 11
46.600000000000563
 21
-182.47999999999956
 31
0.0
  0
LINE
  5
250
100
AcDbEntity
100
AcDbLine
  8
0
 62
256
370
-1
 48
1.0
  6
ByLayer
 10
46.600000000000563
 20
-182.47999999999956
 30
0.0
 11
49.900000000000745
 21
-182.47999999999976
 31
0.0
  0
LINE
  5
251
100
AcDbEntity
100
AcDbLine
  8
0
 62
256
370
-1
 48
1.0
  6
ByLayer
 10
49.900000000000745
 20
-182.47999999999976
 30
0.0
 11
49.900000000000773
 21
-184.47999999999965
 31
0.0
  0
LINE
  5
252
100
AcDbEntity
100
AcDbLine
  8
0
 62
256
370
-1
 48
1.0
  6
ByLayer
 10
49.900000000000773
 20
-184.47999999999965
 30
0.0
 11
51.000000000000654
 21
-184.47999999999973
 31
0.0
  0
ARC
  5
253
100
AcDbEntity
  8
0
 62
256
370
-1
 48
1.0
  6
ByLayer
100
AcDbCircle
 10
51.250000000000568
 20
-184.47999999999962
 30
0.0
 40
0.2499999999999147
100
AcDbArc
 50
270.00000000002603
 51
180.0
  0
LINE
  5
254
100
AcDbEntity
100
AcDbLine
  8
0
 62
256
370
-1
 48
1.0
  6
ByLayer
 10
51.250000000000682
 20
-184.72999999999954
 30
0.0
 11
51.250000000000654
 21
-187.22999999999968
 31
0.0
  0
ARC
  5
255
100
AcDbEntity
  8
0
 62
256
370
-1
 48
1.0
  6
ByLayer
100
AcDbCircle
 10
51.250000000000654
 20
-187.47999999999968
 30
0.0
 40
0.25
100
AcDbArc
 50
180.0
 51
90.0
  0
LINE
  5
256
100
AcDbEntity
100
AcDbLine
  8
0
 62
256
370
-1
 48
1.0
  6
ByLayer
 10
51.000000000000654
 20
-187.47999999999968
 30
0.0
 11
49.900000000000716
 21
-187.47999999999982
 31
0.0
  0
LINE
  5
257
100
AcDbEntity
100
AcDbLine
  8
0
 62
256
370
-1
 48
1.0
  6
ByLayer
 10
49.900000000000716
 20
-187.47999999999982
 30
0.0
 11
49.900000000000801
 21
-191.75999999999945
 31
0.0
  0
LINE
  5
258
100
AcDbEntity
100
AcDbLine
  8
0
 62
256
370
-1
 48
1.0
  6
ByLayer
 10
49.900000000000801
 20
-191.75999999999945
 30
0.0
 11
61.280000000000882
 21
-191.75999999999976
 31
0.0
  0
LINE
  5
259
100
AcDbEntity
100
AcDbLine
  8
0
 62
256
370
-1
 48
1.0
  6
ByLayer
 10
61.280000000000882
 20
-191.75999999999976
 30
0.0
 11
61.280000000000854
 21
-169.50666666666615
 31
0.0
  0
LINE
  5
25A
100
AcDbEntity
100
AcDbLine
  8
0
 62
256
370
-1
 48
1.0
  6
ByLayer
 10
61.280000000000854
 20
-169.50666666666615
 30
0.0
 11
68.000000000000682
 21
-169.50666666666643
 31
0.0
  0
LINE
  5
25B
100
AcDbEntity
100
AcDbLine
  8
0
 62
256
370
-1
 48
1.0
  6
ByLayer
 10
68.000000000000682
 20
-169.50666666666643
 30
0.0
 11
68.000000000000682
 21
-147.25333333333276
 31
0.0
  0
LINE
  5
25C
100
AcDbEntity
100
AcDbLine
  8
0
 62
256
370
-1
 48
1.0
  6
ByLayer
 10
68.000000000000682
 20
-147.25333333333276
 30
0.0
 11
61.280000000000882
 21
-147.25333333333296
 31
0.0
  0
LINE
  5
25D
100
AcDbEntity
100
AcDbLine
  8
0
 62
256
370
-1
 48
1.0
  6
ByLayer
 10
61.280000000000882
 20
-147.25333333333296
 30
0.0
 11
61.280000000000882
 21
-124.99999999999983
 31
0.0
  0
LINE
  5
25E
100
AcDbEntity
100
AcDbLine
  8
0
 62
256
370
-1
 48
1.0
  6
ByLayer
 10
49.900000000000773
 20
-124.99999999999983
 30
0.0
 11
49.900000000000773
 21
-129.28000000000014
 31
0.0
  0
LINE
  5
25F
100
AcDbEntity
100
AcDbLine
  8
0
 62
256
370
-1
 48
1.0
  6
ByLayer
 10
49.900000000000773
 20
-129.28000000000014
 30
0.0
 11
51.000000000000682
 21
-129.28000000000063
 31
0.0
  0
ARC
  5
260
100
AcDbEntity
  8
0
 62
256
370
-1
 48
1.0
  6
ByLayer
100
AcDbCircle
 10
51.250000000000298
 20
-129.28000000000026
 30
0.0
 40
0.2499999999996163
100
AcDbArc
 50
270.00000000008794
 51
180.0
  0
LINE
  5
261
100
AcDbEntity
100
AcDbLine
  8
0
 62
256
370
-1
 48
1.0
  6
ByLayer
 10
51.250000000000682
 20
-129.52999999999986
 30
0.0
 11
51.250000000000682
 21
-132.02999999999997
 31
0.0
  0
ARC
  5
262
100
AcDbEntity
  8
0
 62
256
370
-1
 48
1.0
  6
ByLayer
100
AcDbCircle
 10
51.250000000000924
 20
-132.2800000000002
 30
0.0
 40
0.2500000000002416
100
AcDbArc
 50
180.0
 51
90.00000000005538
  0
LINE
  5
263
100
AcDbEntity
100
AcDbLine
  8
0
 62
256
370
-1
 48
1.0
  6
ByLayer
 10
51.000000000000682
 20
-132.28000000000046
 30
0.0
 11
49.900000000000773
 21
-132.27999999999957
 31
0.0
  0
LINE
  5
264
100
AcDbEntity
100
AcDbLine
  8
0
 62
256
370
-1
 48
1.0
  6
ByLayer
 10
49.900000000000773
 20
-132.27999999999957
 30
0.0
 11
49.900000000000773
 21
-134.27999999999966
 31
0.0
  0
LINE
  5
265
100
AcDbEntity
100
AcDbLine
  8
0
 62
256
370
-1
 48
1.0
  6
ByLayer
 10
49.900000000000773
 20
-134.27999999999966
 30
0.0
 11
46.600000000000591
 21
-134.28000000000009
 31
0.0
  0
LINE
  5
266
100
AcDbEntity
100
AcDbLine
  8
0
 62
256
370
-1
 48
1.0
  6
ByLayer
 10
46.600000000000591
 20
-134.28000000000009
 30
0.0
 11
46.600000000000591
 21
-132.27999999999952
 31
0.0
  0
LINE
  5
267
100
AcDbEntity
100
AcDbLine
  8
0
 62
256
370
-1
 48
1.0
  6
ByLayer
 10
46.600000000000591
 20
-132.27999999999952
 30
0.0
 11
45.500000000000682
 21
-132.27999999999957
 31
0.0
  0
ARC
  5
268
100
AcDbEntity
  8
0
 62
256
370
-1
 48
1.0
  6
ByLayer
100
AcDbCircle
 10
45.250000000000924
 20
-132.2799999999998
 30
0.0
 40
0.2499999999997584
100
AcDbArc
 50
90.00000000005538
 51
0.0
  0
LINE
  5
269
100
AcDbEntity
100
AcDbLine
  8
0
 62
256
370
-1
 48
1.0
  6
ByLayer
 10
45.250000000000682
 20
-132.03000000000006
 30
0.0
 11
45.250000000000682
 21
-129.53000000000097
 31
0.0
  0
ARC
  5
26A
100
AcDbEntity
  8
0
 62
256
370
-1
 48
1.0
  6
ByLayer
100
AcDbCircle
 10
45.249999999999844
 20
-129.28000000000014
 30
0.0
 40
0.2500000000008384
100
AcDbArc
 50
0.0
 51
270.00000000019219
  0
LINE
  5
26B
100
AcDbEntity
100
AcDbLine
  8
0
 62
256
370
-1
 48
1.0
  6
ByLayer
 10
45.500000000000682
 20
-129.27999999999929
 30
0.0
 11
46.600000000000591
 21
-129.28000000000043
 31
0.0
  0
LINE
  5
26C
100
AcDbEntity
100
AcDbLine
  8
0
 62
256
370
-1
 48
1.0
  6
ByLayer
 10
46.600000000000591
 20
-129.28000000000043
 30
0.0
 11
46.600000000000591
 21
-124.99999999999983
 31
0.0
  0
LINE
  5
26D
100
AcDbEntity
100
AcDbLine
  8
0
 62
256
370
-1
 48
1.0
  6
ByLayer
 10
2.7333333333338032
 20
-124.99999999999982
 30
0.0
 11
2.7333333333338032
 21
-129.28000000000026
 31
0.0
  0
LINE
  5
26E
100
AcDbEntity
100
AcDbLine
  8
0
 62
256
370
-1
 48
1.0
  6
ByLayer
 10
2.7333333333338032
 20
-129.28000000000026
 30
0.0
 11
3.833333333334167
 21
-129.27999999999952
 31
0.0
  0
ARC
  5
26F
100
AcDbEntity
  8
0
 62
256
370
-1
 48
1.0
  6
ByLayer
100
AcDbCircle
 10
4.0833333333348207
 20
-129.28000000000017
 30
0.0
 40
0.2500000000006536
100
AcDbArc
 50
269.99999999985022
 51
180.0
  0
LINE
  5
270
100
AcDbEntity
100
AcDbLine
  8
0
 62
256
370
-1
 48
1.0
  6
ByLayer
 10
4.083333333334167
 20
-129.53000000000083
 30
0.0
 11
4.083333333334167
 21
-132.03000000000023
 31
0.0
  0
ARC
  5
271
100
AcDbEntity
  8
0
 62
256
370
-1
 48
1.0
  6
ByLayer
100
AcDbCircle
 10
4.0833333333337549
 20
-132.2799999999998
 30
0.0
 40
0.2499999999995879
100
AcDbArc
 50
180.0
 51
89.99999999990554
  0
LINE
  5
272
100
AcDbEntity
100
AcDbLine
  8
0
 62
256
370
-1
 48
1.0
  6
ByLayer
 10
3.833333333334167
 20
-132.2799999999994
 30
0.0
 11
2.7333333333338032
 21
-132.2799999999998
 31
0.0
  0
LINE
  5
273
100
AcDbEntity
100
AcDbLine
  8
0
 62
256
370
-1
 48
1.0
  6
ByLayer
 10
2.7333333333338032
 20
-132.2799999999998
 30
0.0
 11
2.7333333333338032
 21
-134.2800000000002
 31
0.0
  0
LINE
  5
274
100
AcDbEntity
100
AcDbLine
  8
0
 62
256
370
-1
 48
1.0
  6
ByLayer
 10
2.7333333333338032
 20
-134.2800000000002
 30
0.0
 11
-0.5666666666659239
 21
-134.27999999999989
 31
0.0
  0
LINE
  5
275
100
AcDbEntity
100
AcDbLine
  8
0
 62
256
370
-1
 48
1.0
  6
ByLayer
 10
-0.5666666666659239
 20
-134.27999999999989
 30
0.0
 11
-0.5666666666659239
 21
-132.28000000000023
 31
0.0
  0
LINE
  5
276
100
AcDbEntity
100
AcDbLine
  8
0
 62
256
370
-1
 48
1.0
  6
ByLayer
 10
-0.5666666666659239
 20
-132.28000000000023
 30
0.0
 11
-1.666666666665833
 21
-132.27999999999972
 31
0.0
  0
ARC
  5
277
100
AcDbEntity
  8
0
 62
256
370
-1
 48
1.0
  6
ByLayer
100
AcDbCircle
 10
-1.9166666666660461
 20
-132.27999999999952
 30
0.0
 40
0.2500000000002132
100
AcDbArc
 50
89.999999999951143
 51
360.0
  0
LINE
  5
278
100
AcDbEntity
100
AcDbLine
  8
0
 62
256
370
-1
 48
1.0
  6
ByLayer
 10
-1.916666666665833
 20
-132.02999999999929
 30
0.0
 11
-1.916666666665833
 21
-129.52999999999969
 31
0.0
  0
ARC
  5
279
100
AcDbEntity
  8
0
 62
256
370
-1
 48
1.0
  6
ByLayer
100
AcDbCircle
 10
-1.9166666666659937
 20
-129.27999999999952
 30
0.0
 40
0.2500000000001608
100
AcDbArc
 50
0.0
 51
270.00000000003683
  0
LINE
  5
27A
100
AcDbEntity
100
AcDbLine
  8
0
 62
256
370
-1
 48
1.0
  6
ByLayer
 10
-1.666666666665833
 20
-129.27999999999938
 30
0.0
 11
-0.5666666666659239
 21
-129.28000000000006
 31
0.0
  0
LINE
  5
27B
100
AcDbEntity
100
AcDbLine
  8
0
 62
256
370
-1
 48
1.0
  6
ByLayer
 10
-0.5666666666659239
 20
-129.28000000000006
 30
0.0
 11
-0.5666666666659239
 21
-124.99999999999982
 31
0.0
  0
LINE
  5
27C
100
AcDbEntity
100
AcDbLine
  8
0
 62
256
370
-1
 48
1.0
  6
ByLayer
 10
-18.666666666665833
 20
-124.99999999999982
 30
0.0
 11
-18.666666666665833
 21
-118.27999999999984
 31
0.0
  0
LINE
  5
27D
100
AcDbEntity
100
AcDbLine
  8
0
 62
256
370
-1
 48
1.0
  6
ByLayer
 10
-18.666666666665833
 20
-118.27999999999984
 30
0.0
 11
-105.3333333333328
 21
-118.27999999999983
 31
0.0
  0
LINE
  5
27E
100
AcDbEntity
100
AcDbLine
  8
0
 62
256
370
-1
 48
1.0
  6
ByLayer
 10
-123.43333333333271
 20
-124.99999999999979
 30
0.0
 11
-123.43333333333271
 21
-129.27999999999975
 31
0.0
  0
LINE
  5
27F
100
AcDbEntity
100
AcDbLine
  8
0
 62
256
370
-1
 48
1.0
  6
ByLayer
 10
-123.43333333333271
 20
-129.27999999999975
 30
0.0
 11
-122.3333333333328
 21
-129.27999999999972
 31
0.0
  0
ARC
  5
280
100
AcDbEntity
  8
0
 62
256
370
-1
 48
1.0
  6
ByLayer
100
AcDbCircle
 10
-122.08333333333279
 20
-129.27999999999975
 30
0.0
 40
0.2500000000000187
100
AcDbArc
 50
269.99999999999676
 51
180.0
  0
LINE
  5
281
100
AcDbEntity
100
AcDbLine
  8
0
 62
256
370
-1
 48
1.0
  6
ByLayer
 10
-122.0833333333328
 20
-129.52999999999975
 30
0.0
 11
-122.0833333333328
 21
-132.02999999999966
 31
0.0
  0
ARC
  5
282
100
AcDbEntity
  8
0
 62
256
370
-1
 48
1.0
  6
ByLayer
100
AcDbCircle
 10
-122.08333333333277
 20
-132.27999999999969
 30
0.0
 40
0.2500000000000284
100
AcDbArc
 50
180.0
 51
90.000000000006509
  0
LINE
  5
283
100
AcDbEntity
100
AcDbLine
  8
0
 62
256
370
-1
 48
1.0
  6
ByLayer
 10
-122.3333333333328
 20
-132.27999999999972
 30
0.0
 11
-123.43333333333271
 21
-132.27999999999966
 31
0.0
  0
LINE
  5
284
100
AcDbEntity
100
AcDbLine
  8
0
 62
256
370
-1
 48
1.0
  6
ByLayer
 10
-123.43333333333271
 20
-132.27999999999966
 30
0.0
 11
-123.43333333333271
 21
-134.27999999999972
 31
0.0
  0
LINE
  5
285
100
AcDbEntity
100
AcDbLine
  8
0
 62
256
370
-1
 48
1.0
  6
ByLayer
 10
-123.43333333333271
 20
-134.27999999999972
 30
0.0
 11
-126.73333333333244
 21
-134.27999999999972
 31
0.0
  0
LINE
  5
286
100
AcDbEntity
100
AcDbLine
  8
0
 62
256
370
-1
 48
1.0
  6
ByLayer
 10
-126.73333333333244
 20
-134.27999999999972
 30
0.0
 11
-126.73333333333244
 21
-132.27999999999977
 31
0.0
  0
LINE
  5
287
100
AcDbEntity
100
AcDbLine
  8
0
 62
256
370
-1
 48
1.0
  6
ByLayer
 10
-126.73333333333244
 20
-132.27999999999977
 30
0.0
 11
-127.8333333333328
 21
-132.27999999999975
 31
0.0
  0
ARC
  5
288
100
AcDbEntity
  8
0
 62
256
370
-1
 48
1.0
  6
ByLayer
100
AcDbCircle
 10
-128.0833333333328
 20
-132.27999999999975
 30
0.0
 40
0.2500000000000142
100
AcDbArc
 50
90.0
 51
0.0
  0
LINE
  5
289
100
AcDbEntity
100
AcDbLine
  8
0
 62
256
370
-1
 48
1.0
  6
ByLayer
 10
-128.0833333333328
 20
-132.02999999999972
 30
0.0
 11
-128.0833333333328
 21
-129.52999999999966
 31
0.0
  0
ARC
  5
28A
100
AcDbEntity
  8
0
 62
256
370
-1
 48
1.0
  6
ByLayer
100
AcDbCircle
 10
-128.0833333333328
 20
-129.27999999999969
 30
0.0
 40
0.2499999999999858
100
AcDbArc
 50
0.0
 51
270.0
  0
LINE
  5
28B
100
AcDbEntity
100
AcDbLine
  8
0
 62
256
370
-1
 48
1.0
  6
ByLayer
 10
-127.8333333333328
 20
-129.27999999999969
 30
0.0
 11
-126.73333333333244
 21
-129.27999999999977
 31
0.0
  0
LINE
  5
28C
100
AcDbEntity
100
AcDbLine
  8
0
 62
256
370
-1
 48
1.0
  6
ByLayer
 10
-126.73333333333244
 20
-129.27999999999977
 30
0.0
 11
-126.73333333333244
 21
-124.99999999999979
 31
0.0
  0
LINE
  5
28D
100
AcDbEntity
100
AcDbLine
  8
0
 62
256
370
-1
 48
1.0
  6
ByLayer
 10
-170.59999999999923
 20
-124.99999999999977
 30
0.0
 11
-170.59999999999923
 21
-129.27999999999975
 31
0.0
  0
LINE
  5
28E
100
AcDbEntity
100
AcDbLine
  8
0
 62
256
370
-1
 48
1.0
  6
ByLayer
 10
-170.59999999999923
 20
-129.27999999999975
 30
0.0
 11
-169.49999999999932
 21
-129.27999999999975
 31
0.0
  0
ARC
  5
28F
100
AcDbEntity
  8
0
 62
256
370
-1
 48
1.0
  6
ByLayer
100
AcDbCircle
 10
-169.24999999999932
 20
-129.27999999999975
 30
0.0
 40
0.25
100
AcDbArc
 50
270.0
 51
180.0
  0
LINE
  5
290
100
AcDbEntity
100
AcDbLine
  8
0
 62
256
370
-1
 48
1.0
  6
ByLayer
 10
-169.24999999999932
 20
-129.52999999999975
 30
0.0
 11
-169.24999999999932
 21
-132.02999999999975
 31
0.0
  0
ARC
  5
291
100
AcDbEntity
  8
0
 62
256
370
-1
 48
1.0
  6
ByLayer
100
AcDbCircle
 10
-169.24999999999932
 20
-132.27999999999975
 30
0.0
 40
0.25
100
AcDbArc
 50
180.0
 51
90.0
  0
LINE
  5
292
100
AcDbEntity
100
AcDbLine
  8
0
 62
256
370
-1
 48
1.0
  6
ByLayer
 10
-169.49999999999932
 20
-132.27999999999975
 30
0.0
 11
-170.59999999999923
 21
-132.27999999999975
 31
0.0
  0
LINE
  5
293
100
AcDbEntity
100
AcDbLine
  8
0
 62
256
370
-1
 48
1.0
  6
ByLayer
 10
-170.59999999999923
 20
-132.27999999999975
 30
0.0
 11
-170.59999999999923
 21
-134.27999999999975
 31
0.0
  0
LINE
  5
294
100
AcDbEntity
100
AcDbLine
  8
0
 62
256
370
-1
 48
1.0
  6
ByLayer
 10
-170.59999999999923
 20
-134.27999999999975
 30
0.0
 11
-173.89999999999941
 21
-134.27999999999975
 31
0.0
  0
LINE
  5
295
100
AcDbEntity
100
AcDbLine
  8
0
 62
256
370
-1
 48
1.0
  6
ByLayer
 10
-173.89999999999941
 20
-134.27999999999975
 30
0.0
 11
-173.89999999999941
 21
-132.27999999999975
 31
0.0
  0
LINE
  5
296
100
AcDbEntity
100
AcDbLine
  8
0
 62
256
370
-1
 48
1.0
  6
ByLayer
 10
-173.89999999999941
 20
-132.27999999999975
 30
0.0
 11
-174.99999999999932
 21
-132.27999999999975
 31
0.0
  0
ARC
  5
297
100
AcDbEntity
  8
0
 62
256
370
-1
 48
1.0
  6
ByLayer
100
AcDbCircle
 10
-175.24999999999932
 20
-132.27999999999975
 30
0.0
 40
0.25
100
AcDbArc
 50
90.0
 51
0.0
  0
LINE
  5
298
100
AcDbEntity
100
AcDbLine
  8
0
 62
256
370
-1
 48
1.0
  6
ByLayer
 10
-175.24999999999932
 20
-132.02999999999975
 30
0.0
 11
-175.24999999999932
 21
-129.52999999999975
 31
0.0
  0
ARC
  5
299
100
AcDbEntity
  8
0
 62
256
370
-1
 48
1.0
  6
ByLayer
100
AcDbCircle
 10
-175.24999999999932
 20
-129.27999999999975
 30
0.0
 40
0.25
100
AcDbArc
 50
0.0
 51
270.0
  0
LINE
  5
29A
100
AcDbEntity
100
AcDbLine
  8
0
 62
256
370
-1
 48
1.0
  6
ByLayer
 10
-174.99999999999932
 20
-129.27999999999975
 30
0.0
 11
-173.89999999999941
 21
-129.27999999999975
 31
0.0
  0
LINE
  5
29B
100
AcDbEntity
100
AcDbLine
  8
0
 62
256
370
-1
 48
1.0
  6
ByLayer
 10
-173.89999999999941
 20
-129.27999999999975
 30
0.0
 11
-173.89999999999941
 21
-124.99999999999977
 31
0.0
  0
LINE
  5
29C
100
AcDbEntity
100
AcDbLine
  8
0
 62
256
370
-1
 48
1.0
  6
ByLayer
 10
-48.75
 20
-265.0
 30
0.0
 11
-48.750000000000014
 21
-271.72000000000014
 31
0.0
  0
LINE
  5
29D
100
AcDbEntity
100
AcDbLine
  8
0
 62
256
370
-1
 48
1.0
  6
ByLayer
 10
-48.750000000000014
 20
-271.72000000000014
 30
0.0
 11
-58.75
 21
-271.71999999999997
 31
0.0
  0
LINE
  5
29E
100
AcDbEntity
100
AcDbLine
  8
0
 62
256
370
-1
 48
1.0
  6
ByLayer
 10
-58.75
 20
-271.71999999999997
 30
0.0
 11
-58.75
 21
-265.0
 31
0.0
  0
LINE
  5
29F
100
AcDbEntity
100
AcDbLine
  8
0
 62
256
370
-1
 48
1.0
  6
ByLayer
 10
-58.75
 20
-265.0
 30
0.0
 11
-48.75
 21
-265.0
 31
0.0
  0
LINE
  5
2A0
100
AcDbEntity
100
AcDbLine
  8
0
 62
256
370
-1
 48
1.0
  6
ByLayer
 10
3.0
 20
-265.00000000000006
 30
0.0
 11
3.0
 21
-271.72000000000008
 31
0.0
  0
LINE
  5
2A1
100
AcDbEntity
100
AcDbLine
  8
0
 62
256
370
-1
 48
1.0
  6
ByLayer
 10
3.0
 20
-271.72000000000008
 30
0.0
 11
-7.0
 21
-271.72000000000014
 31
0.0
  0
LINE
  5
2A2
100
AcDbEntity
100
AcDbLine
  8
0
 62
256
370
-1
 48
1.0
  6
ByLayer
 10
-7.0
 20
-271.72000000000014
 30
0.0
 11
-7.0
 21
-265.00000000000006
 31
0.0
  0
LINE
  5
2A3
100
AcDbEntity
100
AcDbLine
  8
0
 62
256
370
-1
 48
1.0
  6
ByLayer
 10
-7.0
 20
-265.00000000000006
 30
0.0
 11
3.0
 21
-265.00000000000006
 31
0.0
  0
LINE
  5
2A4
100
AcDbEntity
100
AcDbLine
  8
0
 62
256
370
-1
 48
1.0
  6
ByLayer
 10
44.75
 20
-271.72000000000003
 30
0.0
 11
44.75
 21
-265.00000000000006
 31
0.0
  0
LINE
  5
2A5
100
AcDbEntity
100
AcDbLine
  8
0
 62
256
370
-1
 48
1.0
  6
ByLayer
 10
44.75
 20
-265.00000000000006
 30
0.0
 11
54.75
 21
-265.00000000000006
 31
0.0
  0
LINE
  5
2A6
100
AcDbEntity
100
AcDbLine
  8
0
 62
256
370
-1
 48
1.0
  6
ByLayer
 10
54.75
 20
-265.00000000000006
 30
0.0
 11
54.75
 21
-271.71999999999946
 31
0.0
  0
LINE
  5
2A7
100
AcDbEntity
100
AcDbLine
  8
0
 62
256
370
-1
 48
1.0
  6
ByLayer
 10
54.75
 20
-271.71999999999946
 30
0.0
 11
44.75
 21
-271.72000000000003
 31
0.0
  0
LINE
  5
2A8
100
AcDbEntity
100
AcDbLine
  8
0
 62
256
370
-1
 48
1.0
  6
ByLayer
 10
-90.500000000000014
 20
-325.0
 30
0.0
 11
-90.499999999999972
 21
-340.5
 31
0.0
  0
LINE
  5
2A9
100
AcDbEntity
100
AcDbLine
  8
0
 62
256
370
-1
 48
1.0
  6
ByLayer
 10
86.499999999999972
 20
-340.50000000000011
 30
0.0
 11
86.5
 21
-325.0
 31
0.0
  0
LINE
  5
2AA
100
AcDbEntity
100
AcDbLine
  8
0
 62
256
370
-1
 48
1.0
  6
ByLayer
 10
86.5
 20
-325.0
 30
0.0
 11
120.27999999999997
 21
-325.0
 31
0.0
  0
LINE
  5
2AB
100
AcDbEntity
100
AcDbLine
  8
0
 62
256
370
-1
 48
1.0
  6
ByLayer
 10
120.27999999999997
 20
-265.00000000000006
 30
0.0
 11
86.5
 21
-265.00000000000006
 31
0.0
  0
LINE
  5
2AC
100
AcDbEntity
100
AcDbLine
  8
0
 62
256
370
-1
 48
1.0
  6
ByLayer
 10
86.5
 20
-265.00000000000006
 30
0.0
 11
86.5
 21
-249.5000000000002
 31
0.0
  0
LINE
  5
2AD
100
AcDbEntity
100
AcDbLine
  8
0
 62
256
370
-1
 48
1.0
  6
ByLayer
 10
-90.5
 20
-249.5
 30
0.0
 11
-90.5
 21
-265.0
 31
0.0
  0
LINE
  5
2AE
100
AcDbEntity
100
AcDbLine
  8
0
 62
256
370
-1
 48
1.0
  6
ByLayer
 10
-90.5
 20
-265.0
 30
0.0
 11
-124.27999999999997
 21
-265.0
 31
0.0
  0
LINE
  5
2AF
100
AcDbEntity
100
AcDbLine
  8
0
 62
256
370
-1
 48
1.0
  6
ByLayer
 10
-124.27999999999999
 20
-325.0
 30
0.0
 11
-90.500000000000014
 21
-325.0
 31
0.0
  0
LINE
  5
2B0
100
AcDbEntity
100
AcDbLine
  8
0
 62
256
370
-1
 48
1.0
  6
ByLayer
 10
-7.0
 20
-325.0
 30
0.0
 11
-7.0000000000000142
 21
-318.28000000000003
 31
0.0
  0
LINE
  5
2B1
100
AcDbEntity
100
AcDbLine
  8
0
 62
256
370
-1
 48
1.0
  6
ByLayer
 10
-7.0000000000000142
 20
-318.28000000000003
 30
0.0
 11
2.9999999999999716
 21
-318.28000000000009
 31
0.0
  0
LINE
  5
2B2
100
AcDbEntity
100
AcDbLine
  8
0
 62
256
370
-1
 48
1.0
  6
ByLayer
 10
2.9999999999999716
 20
-318.28000000000009
 30
0.0
 11
2.9999999999999716
 21
-325.00000000000006
 31
0.0
  0
LINE
  5
2B3
100
AcDbEntity
100
AcDbLine
  8
0
 62
256
370
-1
 48
1.0
  6
ByLayer
 10
2.9999999999999716
 20
-325.00000000000006
 30
0.0
 11
-7.0
 21
-325.0
 31
0.0
  0
LINE
  5
2B4
100
AcDbEntity
100
AcDbLine
  8
0
 62
256
370
-1
 48
1.0
  6
ByLayer
 10
-48.749999999999986
 20
-318.27999999999997
 30
0.0
 11
-48.750000000000014
 21
-325.0
 31
0.0
  0
LINE
  5
2B5
100
AcDbEntity
100
AcDbLine
  8
0
 62
256
370
-1
 48
1.0
  6
ByLayer
 10
-48.750000000000014
 20
-325.0
 30
0.0
 11
-58.749999999999986
 21
-325.0
 31
0.0
  0
LINE
  5
2B6
100
AcDbEntity
100
AcDbLine
  8
0
 62
256
370
-1
 48
1.0
  6
ByLayer
 10
-58.749999999999986
 20
-325.0
 30
0.0
 11
-58.75
 21
-318.27999999999997
 31
0.0
  0
LINE
  5
2B7
100
AcDbEntity
100
AcDbLine
  8
0
 62
256
370
-1
 48
1.0
  6
ByLayer
 10
-58.75
 20
-318.27999999999997
 30
0.0
 11
-48.749999999999986
 21
-318.27999999999997
 31
0.0
  0
LINE
  5
2B8
100
AcDbEntity
100
AcDbLine
  8
0
 62
256
370
-1
 48
1.0
  6
ByLayer
 10
44.749999999999972
 20
-325.00000000000011
 30
0.0
 11
44.749999999999972
 21
-318.28000000000003
 31
0.0
  0
LINE
  5
2B9
100
AcDbEntity
100
AcDbLine
  8
0
 62
256
370
-1
 48
1.0
  6
ByLayer
 10
44.749999999999972
 20
-318.28000000000003
 30
0.0
 11
54.750000000000028
 21
-318.27999999999992
 31
0.0
  0
LINE
  5
2BA
100
AcDbEntity
100
AcDbLine
  8
0
 62
256
370
-1
 48
1.0
  6
ByLayer
 10
54.750000000000028
 20
-318.27999999999992
 30
0.0
 11
54.75
 21
-325.0
 31
0.0
  0
LINE
  5
2BB
100
AcDbEntity
100
AcDbLine
  8
0
 62
256
370
-1
 48
1.0
  6
ByLayer
 10
54.75
 20
-325.0
 30
0.0
 11
44.749999999999972
 21
-325.00000000000011
 31
0.0
  0
LINE
  5
2BC
100
AcDbEntity
100
AcDbLine
  8
0
 62
256
370
-1
 48
1.0
  6
ByLayer
 10
-107.14999999999998
 20
-365.5
 30
0.0
 11
-107.14999999999986
 21
-360.38
 31
0.0
  0
LINE
  5
2BD
100
AcDbEntity
100
AcDbLine
  8
0
 62
256
370
-1
 48
1.0
  6
ByLayer
 10
-107.14999999999986
 20
-360.38
 30
0.0
 11
-108.24999999999989
 21
-360.38
 31
0.0
  0
ARC
  5
2BE
100
AcDbEntity
  8
0
 62
256
370
-1
 48
1.0
  6
ByLayer
100
AcDbCircle
 10
-108.49999999999989
 20
-360.38
 30
0.0
 40
0.25
100
AcDbArc
 50
90.0
 51
0.0
  0
LINE
  5
2BF
100
AcDbEntity
100
AcDbLine
  8
0
 62
256
370
-1
 48
1.0
  6
ByLayer
 10
-108.49999999999989
 20
-360.13
 30
0.0
 11
-108.49999999999989
 21
-357.63
 31
0.0
  0
ARC
  5
2C0
100
AcDbEntity
  8
0
 62
256
370
-1
 48
1.0
  6
ByLayer
100
AcDbCircle
 10
-108.49999999999989
 20
-357.38
 30
0.0
 40
0.25
100
AcDbArc
 50
0.0
 51
270.0
  0
LINE
  5
2C1
100
AcDbEntity
100
AcDbLine
  8
0
 62
256
370
-1
 48
1.0
  6
ByLayer
 10
-108.24999999999989
 20
-357.38
 30
0.0
 11
-107.14999999999998
 21
-357.38
 31
0.0
  0
LINE
  5
2C2
100
AcDbEntity
100
AcDbLine
  8
0
 62
256
370
-1
 48
1.0
  6
ByLayer
 10
-107.14999999999998
 20
-357.38
 30
0.0
 11
-107.14999999999998
 21
-355.38
 31
0.0
  0
LINE
  5
2C3
100
AcDbEntity
100
AcDbLine
  8
0
 62
256
370
-1
 48
1.0
  6
ByLayer
 10
-107.14999999999998
 20
-355.38
 30
0.0
 11
-103.84999999999991
 21
-355.38
 31
0.0
  0
LINE
  5
2C4
100
AcDbEntity
100
AcDbLine
  8
0
 62
256
370
-1
 48
1.0
  6
ByLayer
 10
-103.84999999999991
 20
-355.38
 30
0.0
 11
-103.84999999999991
 21
-357.38
 31
0.0
  0
LINE
  5
2C5
100
AcDbEntity
100
AcDbLine
  8
0
 62
256
370
-1
 48
1.0
  6
ByLayer
 10
-103.84999999999991
 20
-357.38
 30
0.0
 11
-102.74999999999989
 21
-357.38
 31
0.0
  0
ARC
  5
2C6
100
AcDbEntity
  8
0
 62
256
370
-1
 48
1.0
  6
ByLayer
100
AcDbCircle
 10
-102.49999999999989
 20
-357.38
 30
0.0
 40
0.25
100
AcDbArc
 50
270.0
 51
180.0
  0
LINE
  5
2C7
100
AcDbEntity
100
AcDbLine
  8
0
 62
256
370
-1
 48
1.0
  6
ByLayer
 10
-102.49999999999989
 20
-357.63
 30
0.0
 11
-102.49999999999989
 21
-360.13
 31
0.0
  0
ARC
  5
2C8
100
AcDbEntity
  8
0
 62
256
370
-1
 48
1.0
  6
ByLayer
100
AcDbCircle
 10
-102.49999999999989
 20
-360.38
 30
0.0
 40
0.25
100
AcDbArc
 50
180.0
 51
90.0
  0
LINE
  5
2C9
100
AcDbEntity
100
AcDbLine
  8
0
 62
256
370
-1
 48
1.0
  6
ByLayer
 10
-102.74999999999989
 20
-360.38
 30
0.0
 11
-103.84999999999991
 21
-360.38
 31
0.0
  0
LINE
  5
2CA
100
AcDbEntity
100
AcDbLine
  8
0
 62
256
370
-1
 48
1.0
  6
ByLayer
 10
-103.84999999999991
 20
-360.38
 30
0.0
 11
-103.84999999999991
 21
-365.5
 31
0.0
  0
LINE
  5
2CB
100
AcDbEntity
100
AcDbLine
  8
0
 62
256
370
-1
 48
1.0
  6
ByLayer
 10
-103.84999999999991
 20
-365.5
 30
0.0
 11
-58.749999999999886
 21
-365.5
 31
0.0
  0
LINE
  5
2CC
100
AcDbEntity
100
AcDbLine
  8
0
 62
256
370
-1
 48
1.0
  6
ByLayer
 10
-58.749999999999886
 20
-365.5
 30
0.0
 11
-58.749999999999886
 21
-372.22000000000003
 31
0.0
  0
LINE
  5
2CD
100
AcDbEntity
100
AcDbLine
  8
0
 62
256
370
-1
 48
1.0
  6
ByLayer
 10
-58.749999999999886
 20
-372.22000000000003
 30
0.0
 11
-48.749999999999886
 21
-372.22000000000003
 31
0.0
  0
LINE
  5
2CE
100
AcDbEntity
100
AcDbLine
  8
0
 62
256
370
-1
 48
1.0
  6
ByLayer
 10
-48.749999999999886
 20
-372.22000000000003
 30
0.0
 11
-48.749999999999886
 21
-365.5
 31
0.0
  0
LINE
  5
2CF
100
AcDbEntity
100
AcDbLine
  8
0
 62
256
370
-1
 48
1.0
  6
ByLayer
 10
-48.749999999999886
 20
-365.5
 30
0.0
 11
-38.149999999999864
 21
-365.5
 31
0.0
  0
LINE
  5
2D0
100
AcDbEntity
100
AcDbLine
  8
0
 62
256
370
-1
 48
1.0
  6
ByLayer
 10
-38.149999999999864
 20
-365.5
 30
0.0
 11
-38.149999999999977
 21
-360.38
 31
0.0
  0
LINE
  5
2D1
100
AcDbEntity
100
AcDbLine
  8
0
 62
256
370
-1
 48
1.0
  6
ByLayer
 10
-38.149999999999977
 20
-360.38
 30
0.0
 11
-39.249999999999886
 21
-360.38
 31
0.0
  0
ARC
  5
2D2
100
AcDbEntity
  8
0
 62
256
370
-1
 48
1.0
  6
ByLayer
100
AcDbCircle
 10
-39.499999999999886
 20
-360.38
 30
0.0
 40
0.25
100
AcDbArc
 50
90.0
 51
0.0
  0
LINE
  5
2D3
100
AcDbEntity
100
AcDbLine
  8
0
 62
256
370
-1
 48
1.0
  6
ByLayer
 10
-39.499999999999886
 20
-360.13
 30
0.0
 11
-39.499999999999886
 21
-357.63
 31
0.0
  0
ARC
  5
2D4
100
AcDbEntity
  8
0
 62
256
370
-1
 48
1.0
  6
ByLayer
100
AcDbCircle
 10
-39.499999999999886
 20
-357.38
 30
0.0
 40
0.25
100
AcDbArc
 50
0.0
 51
270.0
  0
LINE
  5
2D5
100
AcDbEntity
100
AcDbLine
  8
0
 62
256
370
-1
 48
1.0
  6
ByLayer
 10
-39.249999999999886
 20
-357.38
 30
0.0
 11
-38.149999999999977
 21
-357.38
 31
0.0
  0
LINE
  5
2D6
100
AcDbEntity
100
AcDbLine
  8
0
 62
256
370
-1
 48
1.0
  6
ByLayer
 10
-38.149999999999977
 20
-357.38
 30
0.0
 11
-38.149999999999977
 21
-355.38
 31
0.0
  0
LINE
  5
2D7
100
AcDbEntity
100
AcDbLine
  8
0
 62
256
370
-1
 48
1.0
  6
ByLayer
 10
-38.149999999999977
 20
-355.38
 30
0.0
 11
-34.849999999999909
 21
-355.38
 31
0.0
  0
LINE
  5
2D8
100
AcDbEntity
100
AcDbLine
  8
0
 62
256
370
-1
 48
1.0
  6
ByLayer
 10
-34.849999999999909
 20
-355.38
 30
0.0
 11
-34.849999999999909
 21
-357.38
 31
0.0
  0
LINE
  5
2D9
100
AcDbEntity
100
AcDbLine
  8
0
 62
256
370
-1
 48
1.0
  6
ByLayer
 10
-34.849999999999909
 20
-357.38
 30
0.0
 11
-33.749999999999886
 21
-357.38
 31
0.0
  0
ARC
  5
2DA
100
AcDbEntity
  8
0
 62
256
370
-1
 48
1.0
  6
ByLayer
100
AcDbCircle
 10
-33.499999999999886
 20
-357.38
 30
0.0
 40
0.25
100
AcDbArc
 50
270.0
 51
180.0
  0
LINE
  5
2DB
100
AcDbEntity
100
AcDbLine
  8
0
 62
256
370
-1
 48
1.0
  6
ByLayer
 10
-33.499999999999886
 20
-357.63
 30
0.0
 11
-33.499999999999886
 21
-360.13
 31
0.0
  0
ARC
  5
2DC
100
AcDbEntity
  8
0
 62
256
370
-1
 48
1.0
  6
ByLayer
100
AcDbCircle
 10
-33.499999999999886
 20
-360.38
 30
0.0
 40
0.25
100
AcDbArc
 50
180.0
 51
90.0
  0
LINE
  5
2DD
100
AcDbEntity
100
AcDbLine
  8
0
 62
256
370
-1
 48
1.0
  6
ByLayer
 10
-33.749999999999886
 20
-360.38
 30
0.0
 11
-34.849999999999909
 21
-360.38
 31
0.0
  0
LINE
  5
2DE
100
AcDbEntity
100
AcDbLine
  8
0
 62
256
370
-1
 48
1.0
  6
ByLayer
 10
-34.849999999999909
 20
-360.38
 30
0.0
 11
-34.849999999999909
 21
-365.5
 31
0.0
  0
LINE
  5
2DF
100
AcDbEntity
100
AcDbLine
  8
0
 62
256
370
-1
 48
1.0
  6
ByLayer
 10
-34.849999999999909
 20
-365.5
 30
0.0
 11
-6.9999999999998863
 21
-365.5
 31
0.0
  0
LINE
  5
2E0
100
AcDbEntity
100
AcDbLine
  8
0
 62
256
370
-1
 48
1.0
  6
ByLayer
 10
-6.9999999999998863
 20
-365.5
 30
0.0
 11
-6.9999999999998863
 21
-372.22000000000003
 31
0.0
  0
LINE
  5
2E1
100
AcDbEntity
100
AcDbLine
  8
0
 62
256
370
-1
 48
1.0
  6
ByLayer
 10
-6.9999999999998863
 20
-372.22000000000003
 30
0.0
 11
3.0
 21
-372.22000000000003
 31
0.0
  0
LINE
  5
2E2
100
AcDbEntity
100
AcDbLine
  8
0
 62
256
370
-1
 48
1.0
  6
ByLayer
 10
3.0
 20
-372.22000000000003
 30
0.0
 11
3.0
 21
-365.5
 31
0.0
  0
LINE
  5
2E3
100
AcDbEntity
100
AcDbLine
  8
0
 62
256
370
-1
 48
1.0
  6
ByLayer
 10
3.0
 20
-365.5
 30
0.0
 11
30.850000000000023
 21
-365.5
 31
0.0
  0
LINE
  5
2E4
100
AcDbEntity
100
AcDbLine
  8
0
 62
256
370
-1
 48
1.0
  6
ByLayer
 10
30.850000000000023
 20
-365.5
 30
0.0
 11
30.850000000000023
 21
-360.38
 31
0.0
  0
LINE
  5
2E5
100
AcDbEntity
100
AcDbLine
  8
0
 62
256
370
-1
 48
1.0
  6
ByLayer
 10
30.850000000000023
 20
-360.38
 30
0.0
 11
29.750000000000114
 21
-360.38
 31
0.0
  0
ARC
  5
2E6
100
AcDbEntity
  8
0
 62
256
370
-1
 48
1.0
  6
ByLayer
100
AcDbCircle
 10
29.500000000000114
 20
-360.38
 30
0.0
 40
0.25
100
AcDbArc
 50
90.0
 51
0.0
  0
LINE
  5
2E7
100
AcDbEntity
100
AcDbLine
  8
0
 62
256
370
-1
 48
1.0
  6
ByLayer
 10
29.500000000000114
 20
-360.13
 30
0.0
 11
29.500000000000114
 21
-357.63
 31
0.0
  0
ARC
  5
2E8
100
AcDbEntity
  8
0
 62
256
370
-1
 48
1.0
  6
ByLayer
100
AcDbCircle
 10
29.500000000000114
 20
-357.38
 30
0.0
 40
0.25
100
AcDbArc
 50
0.0
 51
270.0
  0
LINE
  5
2E9
100
AcDbEntity
100
AcDbLine
  8
0
 62
256
370
-1
 48
1.0
  6
ByLayer
 10
29.750000000000114
 20
-357.38
 30
0.0
 11
30.850000000000023
 21
-357.38
 31
0.0
  0
LINE
  5
2EA
100
AcDbEntity
100
AcDbLine
  8
0
 62
256
370
-1
 48
1.0
  6
ByLayer
 10
30.850000000000023
 20
-357.38
 30
0.0
 11
30.850000000000023
 21
-355.38
 31
0.0
  0
LINE
  5
2EB
100
AcDbEntity
100
AcDbLine
  8
0
 62
256
370
-1
 48
1.0
  6
ByLayer
 10
30.850000000000023
 20
-355.38
 30
0.0
 11
34.150000000000205
 21
-355.38
 31
0.0
  0
LINE
  5
2EC
100
AcDbEntity
100
AcDbLine
  8
0
 62
256
370
-1
 48
1.0
  6
ByLayer
 10
34.150000000000205
 20
-355.38
 30
0.0
 11
34.150000000000205
 21
-357.38
 31
0.0
  0
LINE
  5
2ED
100
AcDbEntity
100
AcDbLine
  8
0
 62
256
370
-1
 48
1.0
  6
ByLayer
 10
34.150000000000205
 20
-357.38
 30
0.0
 11
35.250000000000114
 21
-357.38
 31
0.0
  0
ARC
  5
2EE
100
AcDbEntity
  8
0
 62
256
370
-1
 48
1.0
  6
ByLayer
100
AcDbCircle
 10
35.500000000000114
 20
-357.38
 30
0.0
 40
0.25
100
AcDbArc
 50
270.0
 51
180.0
  0
LINE
  5
2EF
100
AcDbEntity
100
AcDbLine
  8
0
 62
256
370
-1
 48
1.0
  6
ByLayer
 10
35.500000000000114
 20
-357.63
 30
0.0
 11
35.500000000000114
 21
-360.13
 31
0.0
  0
ARC
  5
2F0
100
AcDbEntity
  8
0
 62
256
370
-1
 48
1.0
  6
ByLayer
100
AcDbCircle
 10
35.500000000000114
 20
-360.38
 30
0.0
 40
0.25
100
AcDbArc
 50
180.0
 51
90.0
  0
LINE
  5
2F1
100
AcDbEntity
100
AcDbLine
  8
0
 62
256
370
-1
 48
1.0
  6
ByLayer
 10
35.250000000000114
 20
-360.38
 30
0.0
 11
34.150000000000205
 21
-360.38
 31
0.0
  0
LINE
  5
2F2
100
AcDbEntity
100
AcDbLine
  8
0
 62
256
370
-1
 48
1.0
  6
ByLayer
 10
34.150000000000205
 20
-360.38
 30
0.0
 11
34.150000000000205
 21
-365.5
 31
0.0
  0
LINE
  5
2F3
100
AcDbEntity
100
AcDbLine
  8
0
 62
256
370
-1
 48
1.0
  6
ByLayer
 10
34.150000000000205
 20
-365.5
 30
0.0
 11
44.750000000000114
 21
-365.5
 31
0.0
  0
LINE
  5
2F4
100
AcDbEntity
100
AcDbLine
  8
0
 62
256
370
-1
 48
1.0
  6
ByLayer
 10
44.750000000000114
 20
-365.5
 30
0.0
 11
44.750000000000114
 21
-372.22000000000003
 31
0.0
  0
LINE
  5
2F5
100
AcDbEntity
100
AcDbLine
  8
0
 62
256
370
-1
 48
1.0
  6
ByLayer
 10
44.750000000000114
 20
-372.22000000000003
 30
0.0
 11
54.750000000000114
 21
-372.22000000000003
 31
0.0
  0
LINE
  5
2F6
100
AcDbEntity
100
AcDbLine
  8
0
 62
256
370
-1
 48
1.0
  6
ByLayer
 10
54.750000000000114
 20
-372.22000000000003
 30
0.0
 11
54.750000000000114
 21
-365.5
 31
0.0
  0
LINE
  5
2F7
100
AcDbEntity
100
AcDbLine
  8
0
 62
256
370
-1
 48
1.0
  6
ByLayer
 10
54.750000000000114
 20
-365.5
 30
0.0
 11
99.850000000000023
 21
-365.5
 31
0.0
  0
LINE
  5
2F8
100
AcDbEntity
100
AcDbLine
  8
0
 62
256
370
-1
 48
1.0
  6
ByLayer
 10
99.850000000000023
 20
-365.5
 30
0.0
 11
99.850000000000023
 21
-360.38
 31
0.0
  0
LINE
  5
2F9
100
AcDbEntity
100
AcDbLine
  8
0
 62
256
370
-1
 48
1.0
  6
ByLayer
 10
99.850000000000023
 20
-360.38
 30
0.0
 11
98.750000000000114
 21
-360.38
 31
0.0
  0
ARC
  5
2FA
100
AcDbEntity
  8
0
 62
256
370
-1
 48
1.0
  6
ByLayer
100
AcDbCircle
 10
98.500000000000114
 20
-360.38
 30
0.0
 40
0.25
100
AcDbArc
 50
90.0
 51
0.0
  0
LINE
  5
2FB
100
AcDbEntity
100
AcDbLine
  8
0
 62
256
370
-1
 48
1.0
  6
ByLayer
 10
98.500000000000114
 20
-360.13
 30
0.0
 11
98.500000000000114
 21
-357.63
 31
0.0
  0
ARC
  5
2FC
100
AcDbEntity
  8
0
 62
256
370
-1
 48
1.0
  6
ByLayer
100
AcDbCircle
 10
98.500000000000114
 20
-357.38
 30
0.0
 40
0.25
100
AcDbArc
 50
0.0
 51
270.0
  0
LINE
  5
2FD
100
AcDbEntity
100
AcDbLine
  8
0
 62
256
370
-1
 48
1.0
  6
ByLayer
 10
98.750000000000114
 20
-357.38
 30
0.0
 11
99.850000000000023
 21
-357.38
 31
0.0
  0
LINE
  5
2FE
100
AcDbEntity
100
AcDbLine
  8
0
 62
256
370
-1
 48
1.0
  6
ByLayer
 10
99.850000000000023
 20
-357.38
 30
0.0
 11
99.850000000000023
 21
-355.38
 31
0.0
  0
LINE
  5
2FF
100
AcDbEntity
100
AcDbLine
  8
0
 62
256
370
-1
 48
1.0
  6
ByLayer
 10
99.850000000000023
 20
-355.38
 30
0.0
 11
103.1500000000002
 21
-355.38
 31
0.0
  0
LINE
  5
300
100
AcDbEntity
100
AcDbLine
  8
0
 62
256
370
-1
 48
1.0
  6
ByLayer
 10
103.1500000000002
 20
-355.38
 30
0.0
 11
103.1500000000002
 21
-357.38
 31
0.0
  0
LINE
  5
301
100
AcDbEntity
100
AcDbLine
  8
0
 62
256
370
-1
 48
1.0
  6
ByLayer
 10
103.1500000000002
 20
-357.38
 30
0.0
 11
104.25000000000011
 21
-357.38
 31
0.0
  0
ARC
  5
302
100
AcDbEntity
  8
0
 62
256
370
-1
 48
1.0
  6
ByLayer
100
AcDbCircle
 10
104.50000000000011
 20
-357.38
 30
0.0
 40
0.25
100
AcDbArc
 50
270.0
 51
180.0
  0
LINE
  5
303
100
AcDbEntity
100
AcDbLine
  8
0
 62
256
370
-1
 48
1.0
  6
ByLayer
 10
104.50000000000011
 20
-357.63
 30
0.0
 11
104.50000000000011
 21
-360.13
 31
0.0
  0
ARC
  5
304
100
AcDbEntity
  8
0
 62
256
370
-1
 48
1.0
  6
ByLayer
100
AcDbCircle
 10
104.50000000000011
 20
-360.38
 30
0.0
 40
0.25
100
AcDbArc
 50
180.0
 51
90.0
  0
LINE
  5
305
100
AcDbEntity
100
AcDbLine
  8
0
 62
256
370
-1
 48
1.0
  6
ByLayer
 10
104.25000000000011
 20
-360.38
 30
0.0
 11
103.1500000000002
 21
-360.38
 31
0.0
  0
LINE
  5
306
100
AcDbEntity
100
AcDbLine
  8
0
 62
256
370
-1
 48
1.0
  6
ByLayer
 10
103.1500000000002
 20
-360.38
 30
0.0
 11
103.1500000000002
 21
-365.5
 31
0.0
  0
LINE
  5
307
100
AcDbEntity
100
AcDbLine
  8
0
 62
256
370
-1
 48
1.0
  6
ByLayer
 10
103.1500000000002
 20
-365.5
 30
0.0
 11
120.28000000000009
 21
-365.5
 31
0.0
  0
LINE
  5
308
100
AcDbEntity
100
AcDbLine
  8
0
 62
256
370
-1
 48
1.0
  6
ByLayer
 10
120.28000000000009
 20
-365.5
 30
0.0
 11
120.27999999999996
 21
-365.18000000000029
 31
0.0
  0
LINE
  5
309
100
AcDbEntity
100
AcDbLine
  8
0
 62
256
370
-1
 48
1.0
  6
ByLayer
 10
120.28000000000009
 20
-340.5
 30
0.0
 11
-124.27999999999997
 21
-340.5
 31
0.0
  0
LINE
  5
30A
100
AcDbEntity
100
AcDbLine
  8
0
 62
256
370
-1
 48
1.0
  6
ByLayer
 10
-124.2800000000001
 20
-365.17999999999955
 30
0.0
 11
-124.27999999999997
 21
-365.5
 31
0.0
  0
LINE
  5
30B
100
AcDbEntity
100
AcDbLine
  8
0
 62
256
370
-1
 48
1.0
  6
ByLayer
 10
-124.27999999999997
 20
-365.5
 30
0.0
 11
-107.14999999999998
 21
-365.5
 31
0.0
  0
LINE
  5
30C
100
AcDbEntity
100
AcDbLine
  8
0
 62
256
370
-1
 48
1.0
  6
ByLayer
 10
-92.166666666666558
 20
137.85999999999987
 30
0.0
 11
-152.4999999999998
 21
137.8599999999999
 31
0.0
  0
LINE
  5
30D
100
AcDbEntity
100
AcDbLine
  8
0
 62
256
370
-1
 48
1.0
  6
ByLayer
 10
-152.4999999999998
 20
137.8599999999999
 30
0.0
 11
-152.49999999999977
 21
355.5
 31
0.0
  0
LINE
  5
30E
100
AcDbEntity
100
AcDbLine
  8
0
 62
256
370
-1
 48
1.0
  6
ByLayer
 10
-152.49999999999977
 20
355.5
 30
0.0
 11
28.500000000000227
 21
355.49999999999994
 31
0.0
  0
LINE
  5
30F
100
AcDbEntity
100
AcDbLine
  8
0
 62
256
370
-1
 48
1.0
  6
ByLayer
 10
28.500000000000227
 20
355.49999999999994
 30
0.0
 11
28.500000000000256
 21
137.85999999999996
 31
0.0
  0
LINE
  5
310
100
AcDbEntity
100
AcDbLine
  8
0
 62
256
370
-1
 48
1.0
  6
ByLayer
 10
28.500000000000256
 20
137.85999999999996
 30
0.0
 11
-31.833333333332988
 21
137.85999999999996
 31
0.0
  0
LINE
  5
311
100
AcDbEntity
100
AcDbLine
  8
0
 62
256
370
-1
 48
1.0
  6
ByLayer
 10
-31.833333333332988
 20
137.85999999999996
 30
0.0
 11
-31.833333333333172
 21
131.13999999999979
 31
0.0
  0
LINE
  5
312
100
AcDbEntity
100
AcDbLine
  8
0
 62
256
370
-1
 48
1.0
  6
ByLayer
 10
-31.833333333333172
 20
131.13999999999979
 30
0.0
 11
-92.16666666666643
 21
131.1399999999999
 31
0.0
  0
LINE
  5
313
100
AcDbEntity
100
AcDbLine
  8
0
 62
256
370
-1
 48
1.0
  6
ByLayer
 10
-92.16666666666643
 20
131.1399999999999
 30
0.0
 11
-92.166666666666558
 21
137.85999999999987
 31
0.0
  0
LINE
  5
314
100
AcDbEntity
100
AcDbLine
  8
0
 62
256
370
-1
 48
1.0
  6
ByLayer
 10
112.5066666666678
 20
105.88000000000031
 30
0.0
 11
90.253333333334751
 21
105.88000000000031
 31
0.0
  0
LINE
  5
315
100
AcDbEntity
100
AcDbLine
  8
0
 62
256
370
-1
 48
1.0
  6
ByLayer
 10
90.253333333334751
 20
105.88000000000031
 30
0.0
 11
90.253333333334623
 21
100.0000000000002
 31
0.0
  0
LINE
  5
316
100
AcDbEntity
100
AcDbLine
  8
0
 62
256
370
-1
 48
1.0
  6
ByLayer
 10
90.253333333334623
 20
100.0000000000002
 30
0.0
 11
112.50666666666766
 21
100.00000000000026
 31
0.0
  0
LINE
  5
317
100
AcDbEntity
100
AcDbLine
  8
0
 62
256
370
-1
 48
1.0
  6
ByLayer
 10
112.50666666666766
 20
100.00000000000026
 30
0.0
 11
112.5066666666678
 21
105.88000000000031
 31
0.0
  0
LINE
  5
318
100
AcDbEntity
100
AcDbLine
  8
0
 62
256
370
-1
 48
1.0
  6
ByLayer
 10
68.000000000001151
 20
118.10000000000014
 30
0.0
 11
72.280000000001266
 21
118.10000000000014
 31
0.0
  0
LINE
  5
319
100
AcDbEntity
100
AcDbLine
  8
0
 62
256
370
-1
 48
1.0
  6
ByLayer
 10
72.280000000001266
 20
118.10000000000014
 30
0.0
 11
72.280000000001266
 21
117.00000000000023
 31
0.0
  0
ARC
  5
31A
100
AcDbEntity
  8
0
 62
256
370
-1
 48
1.0
  6
ByLayer
100
AcDbCircle
 10
72.280000000001294
 20
116.75000000000016
 30
0.0
 40
0.2500000000000651
100
AcDbArc
 50
90.000000000006509
 51
0.0
  0
LINE
  5
31B
100
AcDbEntity
100
AcDbLine
  8
0
 62
256
370
-1
 48
1.0
  6
ByLayer
 10
72.530000000001365
 20
116.7500000000002
 30
0.0
 11
75.03000000000128
 21
116.75000000000023
 31
0.0
  0
ARC
  5
31C
100
AcDbEntity
  8
0
 62
256
370
-1
 48
1.0
  6
ByLayer
100
AcDbCircle
 10
75.280000000001252
 20
116.75000000000026
 30
0.0
 40
0.2499999999999787
100
AcDbArc
 50
180.0
 51
90.000000000003254
  0
LINE
  5
31D
100
AcDbEntity
100
AcDbLine
  8
0
 62
256
370
-1
 48
1.0
  6
ByLayer
 10
75.280000000001237
 20
117.00000000000023
 30
0.0
 11
75.280000000001351
 21
118.10000000000014
 31
0.0
  0
LINE
  5
31E
100
AcDbEntity
100
AcDbLine
  8
0
 62
256
370
-1
 48
1.0
  6
ByLayer
 10
75.280000000001351
 20
118.10000000000014
 30
0.0
 11
77.280000000001394
 21
118.10000000000014
 31
0.0
  0
LINE
  5
31F
100
AcDbEntity
100
AcDbLine
  8
0
 62
256
370
-1
 48
1.0
  6
ByLayer
 10
77.280000000001394
 20
118.10000000000014
 30
0.0
 11
77.28000000000128
 21
121.40000000000029
 31
0.0
  0
LINE
  5
320
100
AcDbEntity
100
AcDbLine
  8
0
 62
256
370
-1
 48
1.0
  6
ByLayer
 10
77.28000000000128
 20
121.40000000000029
 30
0.0
 11
75.28000000000128
 21
121.40000000000032
 31
0.0
  0
LINE
  5
321
100
AcDbEntity
100
AcDbLine
  8
0
 62
256
370
-1
 48
1.0
  6
ByLayer
 10
75.28000000000128
 20
121.40000000000032
 30
0.0
 11
75.280000000001394
 21
122.5000000000002
 31
0.0
  0
ARC
  5
322
100
AcDbEntity
  8
0
 62
256
370
-1
 48
1.0
  6
ByLayer
100
AcDbCircle
 10
75.28000000000138
 20
122.75000000000024
 30
0.0
 40
0.2500000000000426
100
AcDbArc
 50
270.00000000000324
 51
180.0
  0
LINE
  5
323
100
AcDbEntity
100
AcDbLine
  8
0
 62
256
370
-1
 48
1.0
  6
ByLayer
 10
75.030000000001337
 20
122.75000000000023
 30
0.0
 11
72.53000000000128
 21
122.7500000000002
 31
0.0
  0
ARC
  5
324
100
AcDbEntity
  8
0
 62
256
370
-1
 48
1.0
  6
ByLayer
100
AcDbCircle
 10
72.280000000001294
 20
122.75000000000021
 30
0.0
 40
0.2499999999999858
100
AcDbArc
 50
360.0
 51
269.99999999999676
  0
LINE
  5
325
100
AcDbEntity
100
AcDbLine
  8
0
 62
256
370
-1
 48
1.0
  6
ByLayer
 10
72.28000000000128
 20
122.50000000000023
 30
0.0
 11
72.280000000001195
 21
121.40000000000032
 31
0.0
  0
LINE
  5
326
100
AcDbEntity
100
AcDbLine
  8
0
 62
256
370
-1
 48
1.0
  6
ByLayer
 10
72.280000000001195
 20
121.40000000000032
 30
0.0
 11
68.000000000001123
 21
121.40000000000029
 31
0.0
  0
LINE
  5
327
100
AcDbEntity
100
AcDbLine
  8
0
 62
256
370
-1
 48
1.0
  6
ByLayer
 10
68.000000000001137
 20
373.60000000000014
 30
0.0
 11
72.600000000001373
 21
373.60000000000014
 31
0.0
  0
LINE
  5
328
100
AcDbEntity
100
AcDbLine
  8
0
 62
256
370
-1
 48
1.0
  6
ByLayer
 10
72.600000000001373
 20
373.60000000000014
 30
0.0
 11
72.600000000000961
 21
372.50000000000023
 31
0.0
  0
ARC
  5
329
100
AcDbEntity
  8
0
 62
256
370
-1
 48
1.0
  6
ByLayer
100
AcDbCircle
 10
72.600000000000932
 20
372.25000000000023
 30
0.0
 40
0.2499999999999787
100
AcDbArc
 50
89.999999999993491
 51
0.0
  0
LINE
  5
32A
100
AcDbEntity
100
AcDbLine
  8
0
 62
256
370
-1
 48
1.0
  6
ByLayer
 10
72.850000000000918
 20
372.25000000000023
 30
0.0
 11
75.35000000000116
 21
372.25000000000023
 31
0.0
  0
ARC
  5
32B
100
AcDbEntity
  8
0
 62
256
370
-1
 48
1.0
  6
ByLayer
100
AcDbCircle
 10
75.600000000001216
 20
372.25000000000017
 30
0.0
 40
0.2500000000000568
100
AcDbArc
 50
180.0
 51
89.999999999986969
  0
LINE
  5
32C
100
AcDbEntity
100
AcDbLine
  8
0
 62
256
370
-1
 48
1.0
  6
ByLayer
 10
75.600000000001273
 20
372.50000000000023
 30
0.0
 11
75.600000000001046
 21
373.60000000000008
 31
0.0
  0
LINE
  5
32D
100
AcDbEntity
100
AcDbLine
  8
0
 62
256
370
-1
 48
1.0
  6
ByLayer
 10
75.600000000001046
 20
373.60000000000008
 30
0.0
 11
77.600000000001188
 21
373.60000000000014
 31
0.0
  0
LINE
  5
32E
100
AcDbEntity
100
AcDbLine
  8
0
 62
256
370
-1
 48
1.0
  6
ByLayer
 10
77.600000000001188
 20
373.60000000000014
 30
0.0
 11
77.600000000001032
 21
376.90000000000009
 31
0.0
  0
LINE
  5
32F
100
AcDbEntity
100
AcDbLine
  8
0
 62
256
370
-1
 48
1.0
  6
ByLayer
 10
77.600000000001032
 20
376.90000000000009
 30
0.0
 11
75.600000000001231
 21
376.90000000000003
 31
0.0
  0
LINE
  5
330
100
AcDbEntity
100
AcDbLine
  8
0
 62
256
370
-1
 48
1.0
  6
ByLayer
 10
75.600000000001231
 20
376.90000000000003
 30
0.0
 11
75.60000000000116
 21
378.00000000000011
 31
0.0
  0
ARC
  5
331
100
AcDbEntity
  8
0
 62
256
370
-1
 48
1.0
  6
ByLayer
100
AcDbCircle
 10
75.600000000001074
 20
378.25000000000023
 30
0.0
 40
0.2500000000000924
100
AcDbArc
 50
270.00000000001955
 51
180.0
  0
LINE
  5
332
100
AcDbEntity
100
AcDbLine
  8
0
 62
256
370
-1
 48
1.0
  6
ByLayer
 10
75.350000000000975
 20
378.25000000000011
 30
0.0
 11
72.850000000001131
 21
378.25000000000017
 31
0.0
  0
ARC
  5
333
100
AcDbEntity
  8
0
 62
256
370
-1
 48
1.0
  6
ByLayer
100
AcDbCircle
 10
72.600000000000961
 20
378.25000000000023
 30
0.0
 40
0.2500000000001634
100
AcDbArc
 50
360.0
 51
269.99999999997721
  0
LINE
  5
334
100
AcDbEntity
100
AcDbLine
  8
0
 62
256
370
-1
 48
1.0
  6
ByLayer
 10
72.600000000000861
 20
378.00000000000011
 30
0.0
 11
72.600000000001103
 21
376.90000000000009
 31
0.0
  0
LINE
  5
335
100
AcDbEntity
100
AcDbLine
  8
0
 62
256
370
-1
 48
1.0
  6
ByLayer
 10
72.600000000001103
 20
376.90000000000009
 30
0.0
 11
68.000000000001293
 21
376.90000000000009
 31
0.0
  0
LINE
  5
336
100
AcDbEntity
100
AcDbLine
  8
0
 62
256
370
-1
 48
1.0
  6
ByLayer
 10
68.000000000001805
 20
395.00000000000023
 30
0.0
 11
90.253333333334808
 21
395.0
 31
0.0
  0
LINE
  5
337
100
AcDbEntity
100
AcDbLine
  8
0
 62
256
370
-1
 48
1.0
  6
ByLayer
 10
90.253333333334808
 20
395.0
 30
0.0
 11
90.253333333334965
 21
388.2800000000002
 31
0.0
  0
LINE
  5
338
100
AcDbEntity
100
AcDbLine
  8
0
 62
256
370
-1
 48
1.0
  6
ByLayer
 10
90.253333333334965
 20
388.2800000000002
 30
0.0
 11
99.730000000001553
 21
388.2800000000002
 31
0.0
  0
LINE
  5
339
100
AcDbEntity
100
AcDbLine
  8
0
 62
256
370
-1
 48
1.0
  6
ByLayer
 10
99.730000000001553
 20
388.2800000000002
 30
0.0
 11
99.730000000001795
 21
383.68000000000023
 31
0.0
  0
LINE
  5
33A
100
AcDbEntity
100
AcDbLine
  8
0
 62
256
370
-1
 48
1.0
  6
ByLayer
 10
99.730000000001795
 20
383.68000000000023
 30
0.0
 11
98.630000000001502
 21
383.68000000000023
 31
0.0
  0
ARC
  5
33B
100
AcDbEntity
  8
0
 62
256
370
-1
 48
1.0
  6
ByLayer
100
AcDbCircle
 10
98.38000000000163
 20
383.67999999999989
 30
0.0
 40
0.2499999999998721
100
AcDbArc
 50
0.0
 51
270.0000000000814
  0
LINE
  5
33C
100
AcDbEntity
100
AcDbLine
  8
0
 62
256
370
-1
 48
1.0
  6
ByLayer
 10
98.380000000001985
 20
383.43000000000001
 30
0.0
 11
98.380000000001672
 21
380.93000000000001
 31
0.0
  0
ARC
  5
33D
100
AcDbEntity
  8
0
 62
256
370
-1
 48
1.0
  6
ByLayer
100
AcDbCircle
 10
98.380000000001786
 20
380.68000000000001
 30
0.0
 40
0.2500000000000568
100
AcDbArc
 50
90.000000000026063
 51
0.0
  0
LINE
  5
33E
100
AcDbEntity
100
AcDbLine
  8
0
 62
256
370
-1
 48
1.0
  6
ByLayer
 10
98.630000000001843
 20
380.68000000000006
 30
0.0
 11
99.730000000001539
 21
380.68000000000006
 31
0.0
  0
LINE
  5
33F
100
AcDbEntity
100
AcDbLine
  8
0
 62
256
370
-1
 48
1.0
  6
ByLayer
 10
99.730000000001539
 20
380.68000000000006
 30
0.0
 11
99.73000000000161
 21
378.68000000000001
 31
0.0
  0
LINE
  5
340
100
AcDbEntity
100
AcDbLine
  8
0
 62
256
370
-1
 48
1.0
  6
ByLayer
 10
99.73000000000161
 20
378.68000000000001
 30
0.0
 11
103.03000000000189
 21
378.68000000000006
 31
0.0
  0
LINE
  5
341
100
AcDbEntity
100
AcDbLine
  8
0
 62
256
370
-1
 48
1.0
  6
ByLayer
 10
103.03000000000189
 20
378.68000000000006
 30
0.0
 11
103.03000000000213
 21
380.68000000000006
 31
0.0
  0
LINE
  5
342
100
AcDbEntity
100
AcDbLine
  8
0
 62
256
370
-1
 48
1.0
  6
ByLayer
 10
103.03000000000213
 20
380.68000000000006
 30
0.0
 11
104.1300000000019
 21
380.68000000000001
 31
0.0
  0
ARC
  5
343
100
AcDbEntity
  8
0
 62
256
370
-1
 48
1.0
  6
ByLayer
100
AcDbCircle
 10
104.38000000000177
 20
380.68000000000023
 30
0.0
 40
0.2499999999998721
100
AcDbArc
 50
180.0
 51
90.000000000042348
  0
LINE
  5
344
100
AcDbEntity
100
AcDbLine
  8
0
 62
256
370
-1
 48
1.0
  6
ByLayer
 10
104.38000000000159
 20
380.93000000000006
 30
0.0
 11
104.38000000000164
 21
383.43000000000006
 31
0.0
  0
ARC
  5
345
100
AcDbEntity
  8
0
 62
256
370
-1
 48
1.0
  6
ByLayer
100
AcDbCircle
 10
104.38000000000173
 20
383.68000000000018
 30
0.0
 40
0.2500000000000782
100
AcDbArc
 50
269.99999999998045
 51
180.0
  0
LINE
  5
346
100
AcDbEntity
100
AcDbLine
  8
0
 62
256
370
-1
 48
1.0
  6
ByLayer
 10
104.13000000000166
 20
383.68000000000023
 30
0.0
 11
103.03000000000198
 21
383.68000000000029
 31
0.0
  0
LINE
  5
347
100
AcDbEntity
100
AcDbLine
  8
0
 62
256
370
-1
 48
1.0
  6
ByLayer
 10
103.03000000000198
 20
383.68000000000029
 30
0.0
 11
103.03000000000189
 21
388.2800000000002
 31
0.0
  0
LINE
  5
348
100
AcDbEntity
100
AcDbLine
  8
0
 62
256
370
-1
 48
1.0
  6
ByLayer
 10
103.03000000000189
 20
388.2800000000002
 30
0.0
 11
112.5066666666682
 21
388.2800000000002
 31
0.0
  0
LINE
  5
349
100
AcDbEntity
100
AcDbLine
  8
0
 62
256
370
-1
 48
1.0
  6
ByLayer
 10
112.5066666666682
 20
388.2800000000002
 30
0.0
 11
112.50666666666839
 21
395.00000000000011
 31
0.0
  0
LINE
  5
34A
100
AcDbEntity
100
AcDbLine
  8
0
 62
256
370
-1
 48
1.0
  6
ByLayer
 10
112.50666666666839
 20
395.00000000000011
 30
0.0
 11
134.7600000000013
 21
395.00000000000011
 31
0.0
  0
LINE
  5
34B
100
AcDbEntity
100
AcDbLine
  8
0
 62
256
370
-1
 48
1.0
  6
ByLayer
 10
134.7600000000013
 20
395.00000000000011
 30
0.0
 11
134.76000000000141
 21
376.90000000000009
 31
0.0
  0
LINE
  5
34C
100
AcDbEntity
100
AcDbLine
  8
0
 62
256
370
-1
 48
1.0
  6
ByLayer
 10
134.76000000000141
 20
376.90000000000009
 30
0.0
 11
130.16000000000156
 21
376.90000000000003
 31
0.0
  0
LINE
  5
34D
100
AcDbEntity
100
AcDbLine
  8
0
 62
256
370
-1
 48
1.0
  6
ByLayer
 10
130.16000000000156
 20
376.90000000000003
 30
0.0
 11
130.16000000000139
 21
378.00000000000011
 31
0.0
  0
ARC
  5
34E
100
AcDbEntity
  8
0
 62
256
370
-1
 48
1.0
  6
ByLayer
100
AcDbCircle
 10
130.16000000000139
 20
378.25000000000011
 30
0.0
 40
0.25
100
AcDbArc
 50
270.0
 51
180.0
  0
LINE
  5
34F
100
AcDbEntity
100
AcDbLine
  8
0
 62
256
370
-1
 48
1.0
  6
ByLayer
 10
129.91000000000139
 20
378.25000000000011
 30
0.0
 11
127.4100000000014
 21
378.25000000000006
 31
0.0
  0
ARC
  5
350
100
AcDbEntity
  8
0
 62
256
370
-1
 48
1.0
  6
ByLayer
100
AcDbCircle
 10
127.16000000000142
 20
378.25000000000006
 30
0.0
 40
0.2499999999999858
100
AcDbArc
 50
0.0
 51
270.00000000000324
  0
LINE
  5
351
100
AcDbEntity
100
AcDbLine
  8
0
 62
256
370
-1
 48
1.0
  6
ByLayer
 10
127.16000000000143
 20
378.00000000000006
 30
0.0
 11
127.16000000000159
 21
376.90000000000003
 31
0.0
  0
LINE
  5
352
100
AcDbEntity
100
AcDbLine
  8
0
 62
256
370
-1
 48
1.0
  6
ByLayer
 10
127.16000000000159
 20
376.90000000000003
 30
0.0
 11
125.1600000000016
 21
376.90000000000009
 31
0.0
  0
LINE
  5
353
100
AcDbEntity
100
AcDbLine
  8
0
 62
256
370
-1
 48
1.0
  6
ByLayer
 10
125.1600000000016
 20
376.90000000000009
 30
0.0
 11
125.16000000000136
 21
373.60000000000008
 31
0.0
  0
LINE
  5
354
100
AcDbEntity
100
AcDbLine
  8
0
 62
256
370
-1
 48
1.0
  6
ByLayer
 10
125.16000000000136
 20
373.60000000000008
 30
0.0
 11
127.16000000000166
 21
373.60000000000008
 31
0.0
  0
LINE
  5
355
100
AcDbEntity
100
AcDbLine
  8
0
 62
256
370
-1
 48
1.0
  6
ByLayer
 10
127.16000000000166
 20
373.60000000000008
 30
0.0
 11
127.16000000000132
 21
372.50000000000023
 31
0.0
  0
ARC
  5
356
100
AcDbEntity
  8
0
 62
256
370
-1
 48
1.0
  6
ByLayer
100
AcDbCircle
 10
127.16000000000143
 20
372.25000000000011
 30
0.0
 40
0.2500000000001705
100
AcDbArc
 50
90.000000000026063
 51
0.0
  0
LINE
  5
357
100
AcDbEntity
100
AcDbLine
  8
0
 62
256
370
-1
 48
1.0
  6
ByLayer
 10
127.4100000000016
 20
372.25000000000017
 30
0.0
 11
129.91000000000167
 21
372.25000000000017
 31
0.0
  0
ARC
  5
358
100
AcDbEntity
  8
0
 62
256
370
-1
 48
1.0
  6
ByLayer
100
AcDbCircle
 10
130.16000000000165
 20
372.25000000000028
 30
0.0
 40
0.2499999999999858
100
AcDbArc
 50
180.0
 51
90.000000000013031
  0
LINE
  5
359
100
AcDbEntity
100
AcDbLine
  8
0
 62
256
370
-1
 48
1.0
  6
ByLayer
 10
130.16000000000159
 20
372.50000000000023
 30
0.0
 11
130.16000000000122
 21
373.60000000000014
 31
0.0
  0
LINE
  5
35A
100
AcDbEntity
100
AcDbLine
  8
0
 62
256
370
-1
 48
1.0
  6
ByLayer
 10
130.16000000000122
 20
373.60000000000014
 30
0.0
 11
134.76000000000136
 21
373.60000000000008
 31
0.0
  0
LINE
  5
35B
100
AcDbEntity
100
AcDbLine
  8
0
 62
256
370
-1
 48
1.0
  6
ByLayer
 10
134.76000000000136
 20
373.60000000000008
 30
0.0
 11
134.76000000000147
 21
121.40000000000026
 31
0.0
  0
LINE
  5
35C
100
AcDbEntity
100
AcDbLine
  8
0
 62
256
370
-1
 48
1.0
  6
ByLayer
 10
134.76000000000147
 20
121.40000000000026
 30
0.0
 11
130.48000000000124
 21
121.40000000000023
 31
0.0
  0
LINE
  5
35D
100
AcDbEntity
100
AcDbLine
  8
0
 62
256
370
-1
 48
1.0
  6
ByLayer
 10
130.48000000000124
 20
121.40000000000023
 30
0.0
 11
130.48000000000107
 21
122.5000000000002
 31
0.0
  0
ARC
  5
35E
100
AcDbEntity
  8
0
 62
256
370
-1
 48
1.0
  6
ByLayer
100
AcDbCircle
 10
130.4800000000011
 20
122.75000000000014
 30
0.0
 40
0.2499999999999431
100
AcDbArc
 50
269.99999999999346
 51
180.0
  0
LINE
  5
35F
100
AcDbEntity
100
AcDbLine
  8
0
 62
256
370
-1
 48
1.0
  6
ByLayer
 10
130.23000000000116
 20
122.75000000000017
 30
0.0
 11
127.73000000000121
 21
122.7500000000002
 31
0.0
  0
ARC
  5
360
100
AcDbEntity
  8
0
 62
256
370
-1
 48
1.0
  6
ByLayer
100
AcDbCircle
 10
127.48000000000116
 20
122.75000000000028
 30
0.0
 40
0.2500000000000568
100
AcDbArc
 50
360.0
 51
269.99999999998045
  0
LINE
  5
361
100
AcDbEntity
100
AcDbLine
  8
0
 62
256
370
-1
 48
1.0
  6
ByLayer
 10
127.48000000000107
 20
122.50000000000023
 30
0.0
 11
127.48000000000117
 21
121.40000000000026
 31
0.0
  0
LINE
  5
362
100
AcDbEntity
100
AcDbLine
  8
0
 62
256
370
-1
 48
1.0
  6
ByLayer
 10
127.48000000000117
 20
121.40000000000026
 30
0.0
 11
125.48000000000116
 21
121.40000000000029
 31
0.0
  0
LINE
  5
363
100
AcDbEntity
100
AcDbLine
  8
0
 62
256
370
-1
 48
1.0
  6
ByLayer
 10
125.48000000000116
 20
121.40000000000029
 30
0.0
 11
125.48000000000124
 21
118.10000000000008
 31
0.0
  0
LINE
  5
364
100
AcDbEntity
100
AcDbLine
  8
0
 62
256
370
-1
 48
1.0
  6
ByLayer
 10
125.48000000000124
 20
118.10000000000008
 30
0.0
 11
127.48000000000117
 21
118.10000000000014
 31
0.0
  0
LINE
  5
365
100
AcDbEntity
100
AcDbLine
  8
0
 62
256
370
-1
 48
1.0
  6
ByLayer
 10
127.48000000000117
 20
118.10000000000014
 30
0.0
 11
127.48000000000106
 21
117.0000000000002
 31
0.0
  0
ARC
  5
366
100
AcDbEntity
  8
0
 62
256
370
-1
 48
1.0
  6
ByLayer
100
AcDbCircle
 10
127.48000000000113
 20
116.7500000000001
 30
0.0
 40
0.2500000000000995
100
AcDbArc
 50
90.000000000016286
 51
0.0
  0
LINE
  5
367
100
AcDbEntity
100
AcDbLine
  8
0
 62
256
370
-1
 48
1.0
  6
ByLayer
 10
127.73000000000123
 20
116.75000000000017
 30
0.0
 11
130.23000000000118
 21
116.75000000000017
 31
0.0
  0
ARC
  5
368
100
AcDbEntity
  8
0
 62
256
370
-1
 48
1.0
  6
ByLayer
100
AcDbCircle
 10
130.48000000000118
 20
116.7500000000002
 30
0.0
 40
0.2500000000000011
100
AcDbArc
 50
180.0
 51
90.000000000006509
  0
LINE
  5
369
100
AcDbEntity
100
AcDbLine
  8
0
 62
256
370
-1
 48
1.0
  6
ByLayer
 10
130.48000000000116
 20
117.0000000000002
 30
0.0
 11
130.48000000000116
 21
118.10000000000011
 31
0.0
  0
LINE
  5
36A
100
AcDbEntity
100
AcDbLine
  8
0
 62
256
370
-1
 48
1.0
  6
ByLayer
 10
130.48000000000116
 20
118.10000000000011
 30
0.0
 11
134.76000000000133
 21
118.10000000000014
 31
0.0
  0
LINE
  5
36B
100
AcDbEntity
100
AcDbLine
  8
0
 62
256
370
-1
 48
1.0
  6
ByLayer
 10
134.76000000000133
 20
118.10000000000014
 30
0.0
 11
134.76000000000133
 21
100.0000000000002
 31
0.0
  0
LINE
  5
36C
100
AcDbEntity
100
AcDbLine
  8
0
 62
256
370
-1
 48
1.0
  6
ByLayer
 10
134.76000000000133
 20
100.0000000000002
 30
0.0
 11
141.4800000000011
 21
100.0000000000002
 31
0.0
  0
LINE
  5
36D
100
AcDbEntity
100
AcDbLine
  8
0
 62
256
370
-1
 48
1.0
  6
ByLayer
 10
141.4800000000011
 20
100.0000000000002
 30
0.0
 11
141.48000000000104
 21
-124.99999999999979
 31
0.0
  0
LINE
  5
36E
100
AcDbEntity
100
AcDbLine
  8
0
 62
256
370
-1
 48
1.0
  6
ByLayer
 10
141.48000000000104
 20
-124.99999999999979
 30
0.0
 11
112.50666666666768
 21
-124.99999999999979
 31
0.0
  0
LINE
  5
36F
100
AcDbEntity
100
AcDbLine
  8
0
 62
256
370
-1
 48
1.0
  6
ByLayer
 10
112.50666666666768
 20
-124.99999999999979
 30
0.0
 11
112.50666666666768
 21
-118.27999999999975
 31
0.0
  0
LINE
  5
370
100
AcDbEntity
100
AcDbLine
  8
0
 62
256
370
-1
 48
1.0
  6
ByLayer
 10
112.50666666666768
 20
-118.27999999999975
 30
0.0
 11
103.03000000000077
 21
-118.27999999999977
 31
0.0
  0
LINE
  5
371
100
AcDbEntity
100
AcDbLine
  8
0
 62
256
370
-1
 48
1.0
  6
ByLayer
 10
103.03000000000077
 20
-118.27999999999977
 30
0.0
 11
103.03000000000078
 21
-113.67999999999988
 31
0.0
  0
LINE
  5
372
100
AcDbEntity
100
AcDbLine
  8
0
 62
256
370
-1
 48
1.0
  6
ByLayer
 10
103.03000000000078
 20
-113.67999999999988
 30
0.0
 11
104.13000000000113
 21
-113.67999999999985
 31
0.0
  0
ARC
  5
373
100
AcDbEntity
  8
0
 62
256
370
-1
 48
1.0
  6
ByLayer
100
AcDbCircle
 10
104.38000000000112
 20
-113.67999999999986
 30
0.0
 40
0.2499999999999929
100
AcDbArc
 50
180.0
 51
89.999999999996746
  0
LINE
  5
374
100
AcDbEntity
100
AcDbLine
  8
0
 62
256
370
-1
 48
1.0
  6
ByLayer
 10
104.38000000000113
 20
-113.42999999999986
 30
0.0
 11
104.38000000000113
 21
-110.92999999999984
 31
0.0
  0
ARC
  5
375
100
AcDbEntity
  8
0
 62
256
370
-1
 48
1.0
  6
ByLayer
100
AcDbCircle
 10
104.38000000000113
 20
-110.67999999999984
 30
0.0
 40
0.2499999999999929
100
AcDbArc
 50
270.0
 51
180.0
  0
LINE
  5
376
100
AcDbEntity
100
AcDbLine
  8
0
 62
256
370
-1
 48
1.0
  6
ByLayer
 10
104.13000000000113
 20
-110.67999999999985
 30
0.0
 11
103.03000000000077
 21
-110.67999999999985
 31
0.0
  0
LINE
  5
377
100
AcDbEntity
100
AcDbLine
  8
0
 62
256
370
-1
 48
1.0
  6
ByLayer
 10
103.03000000000077
 20
-110.67999999999985
 30
0.0
 11
103.03000000000078
 21
-108.67999999999986
 31
0.0
  0
LINE
  5
378
100
AcDbEntity
100
AcDbLine
  8
0
 62
256
370
-1
 48
1.0
  6
ByLayer
 10
103.03000000000078
 20
-108.67999999999986
 30
0.0
 11
99.730000000001056
 21
-108.67999999999986
 31
0.0
  0
LINE
  5
379
100
AcDbEntity
100
AcDbLine
  8
0
 62
256
370
-1
 48
1.0
  6
ByLayer
 10
99.730000000001056
 20
-108.67999999999986
 30
0.0
 11
99.730000000001041
 21
-110.67999999999985
 31
0.0
  0
LINE
  5
37A
100
AcDbEntity
100
AcDbLine
  8
0
 62
256
370
-1
 48
1.0
  6
ByLayer
 10
99.730000000001041
 20
-110.67999999999985
 30
0.0
 11
98.630000000001147
 21
-110.67999999999986
 31
0.0
  0
ARC
  5
37B
100
AcDbEntity
  8
0
 62
256
370
-1
 48
1.0
  6
ByLayer
100
AcDbCircle
 10
98.380000000001147
 20
-110.67999999999985
 30
0.0
 40
0.25
100
AcDbArc
 50
360.0
 51
269.99999999999676
  0
LINE
  5
37C
100
AcDbEntity
100
AcDbLine
  8
0
 62
256
370
-1
 48
1.0
  6
ByLayer
 10
98.380000000001132
 20
-110.92999999999985
 30
0.0
 11
98.380000000001132
 21
-113.42999999999984
 31
0.0
  0
ARC
  5
37D
100
AcDbEntity
  8
0
 62
256
370
-1
 48
1.0
  6
ByLayer
100
AcDbCircle
 10
98.380000000001132
 20
-113.67999999999984
 30
0.0
 40
0.25
100
AcDbArc
 50
90.0
 51
0.0
  0
LINE
  5
37E
100
AcDbEntity
100
AcDbLine
  8
0
 62
256
370
-1
 48
1.0
  6
ByLayer
 10
98.630000000001132
 20
-113.67999999999984
 30
0.0
 11
99.730000000001041
 21
-113.67999999999984
 31
0.0
  0
LINE
  5
37F
100
AcDbEntity
100
AcDbLine
  8
0
 62
256
370
-1
 48
1.0
  6
ByLayer
 10
99.730000000001041
 20
-113.67999999999984
 30
0.0
 11
99.730000000001041
 21
-118.27999999999977
 31
0.0
  0
LINE
  5
380
100
AcDbEntity
100
AcDbLine
  8
0
 62
256
370
-1
 48
1.0
  6
ByLayer
 10
99.730000000001041
 20
-118.27999999999977
 30
0.0
 11
90.253333333334126
 21
-118.27999999999976
 31
0.0
  0
LINE
  5
381
100
AcDbEntity
100
AcDbLine
  8
0
 62
256
370
-1
 48
1.0
  6
ByLayer
 10
90.253333333334126
 20
-118.27999999999976
 30
0.0
 11
90.253333333334126
 21
-124.99999999999977
 31
0.0
  0
LINE
  5
382
100
AcDbEntity
100
AcDbLine
  8
0
 62
256
370
-1
 48
1.0
  6
ByLayer
 10
90.253333333334126
 20
-124.99999999999977
 30
0.0
 11
61.280000000000769
 21
-124.99999999999977
 31
0.0
  0
LINE
  5
383
100
AcDbEntity
100
AcDbLine
  8
0
 62
256
370
-1
 48
1.0
  6
ByLayer
 10
61.280000000000769
 20
-124.99999999999977
 30
0.0
 11
61.280000000001237
 21
100.00000000000023
 31
0.0
  0
LINE
  5
384
100
AcDbEntity
100
AcDbLine
  8
0
 62
256
370
-1
 48
1.0
  6
ByLayer
 10
-152.49999999999989
 20
137.85999999999967
 30
0.0
 11
-152.49999999999994
 21
100.0
 31
0.0
  0
LINE
  5
385
100
AcDbEntity
100
AcDbLine
  8
0
 62
256
370
-1
 48
1.0
  6
ByLayer
 10
-152.49999999999974
 20
-68.860000000000355
 30
0.0
 11
-95.379999999999853
 21
-68.860000000000412
 31
0.0
  0
LINE
  5
386
100
AcDbEntity
100
AcDbLine
  8
0
 62
256
370
-1
 48
1.0
  6
ByLayer
 10
-95.379999999999853
 20
-68.860000000000412
 30
0.0
 11
-95.379999999999768
 21
137.85999999999967
 31
0.0
  0
LINE
  5
387
100
AcDbEntity
100
AcDbLine
  8
0
 62
256
370
-1
 48
1.0
  6
ByLayer
 10
-145.77999999999915
 20
-17.180000000000291
 30
0.0
 11
-145.77999999999918
 21
-2.180000000000291
 31
0.0
  0
LINE
  5
388
100
AcDbEntity
100
AcDbLine
  8
0
 62
256
370
-1
 48
1.0
  6
ByLayer
 10
-145.77999999999918
 20
-2.180000000000291
 30
0.0
 11
-139.05999999999912
 21
-2.180000000000291
 31
0.0
  0
LINE
  5
389
100
AcDbEntity
100
AcDbLine
  8
0
 62
256
370
-1
 48
1.0
  6
ByLayer
 10
-139.05999999999912
 20
-2.180000000000291
 30
0.0
 11
-139.05999999999912
 21
-17.180000000000291
 31
0.0
  0
LINE
  5
38A
100
AcDbEntity
100
AcDbLine
  8
0
 62
256
370
-1
 48
1.0
  6
ByLayer
 10
-139.05999999999912
 20
-17.180000000000291
 30
0.0
 11
-145.77999999999915
 21
-17.180000000000291
 31
0.0
  0
ENDSEC
  0
SECTION
  2
OBJECTS
  0
DICTIONARY
  5
C
100
AcDbDictionary
280
0
281
1
  3
ACAD_GROUP
350
D
  3
ACAD_LAYOUT
350
1A
  3
ACAD_MLINESTYLE
350
17
  3
ACAD_PLOTSETTINGS
350
19
  3
ACAD_PLOTSTYLENAME
350
E
  3
AcDbVariableDictionary
350
38B
  3
QCAD_OBJECTS
350
38C
  0
DICTIONARY
  5
D
100
AcDbDictionary
280
0
281
1
  0
ACDBDICTIONARYWDFLT
  5
E
100
AcDbDictionary
281
1
  3
Normal
350
F
100
AcDbDictionaryWithDefault
340
F
  0
ACDBPLACEHOLDER
  5
F
  0
DICTIONARY
  5
17
100
AcDbDictionary
280
0
281
1
  3
Standard
350
18
  0
MLINESTYLE
  5
18
100
AcDbMlineStyle
  2
STANDARD
 70
0
  3

 62
256
 51
90.0
 52
90.0
 71
2
 49
0.5
 62
256
  6
BYLAYER
 49
-0.5
 62
256
  6
BYLAYER
  0
DICTIONARY
  5
19
100
AcDbDictionary
280
0
281
1
  0
DICTIONARY
  5
1A
100
AcDbDictionary
281
1
  3
Layout1
350
1E
  3
Layout2
350
26
  3
Model
350
22
  0
LAYOUT
  5
1E
100
AcDbPlotSettings
  1

  2
none_device
  4

  6

 40
0.0
 41
0.0
 42
0.0
 43
0.0
 44
0.0
 45
0.0
 46
0.0
 47
0.0
 48
0.0
 49
0.0
140
0.0
141
0.0
142
1.0
143
1.0
 70
688
 72
0
 73
0
 74
5
  7

 75
16
147
1.0
148
0.0
149
0.0
100
AcDbLayout
  1
Layout1
 70
1
 71
1
 10
0.0
 20
0.0
 11
420.0
 21
297.0
 12
0.0
 22
0.0
 32
0.0
 14
100000000000000000000.0
 24
100000000000000000000.0
 34
100000000000000000000.0
 15
-100000000000000000000.0
 25
-100000000000000000000.0
 35
-100000000000000000000.0
146
0.0
 13
0.0
 23
0.0
 33
0.0
 16
1.0
 26
0.0
 36
0.0
 17
0.0
 27
1.0
 37
0.0
 76
0
330
1B
  0
LAYOUT
  5
22
100
AcDbPlotSettings
  1

  2
none_device
  4

  6

 40
0.0
 41
0.0
 42
0.0
 43
0.0
 44
0.0
 45
0.0
 46
0.0
 47
0.0
 48
0.0
 49
0.0
140
0.0
141
0.0
142
1.0
143
1.0
 70
1712
 72
0
 73
0
 74
0
  7

 75
0
147
1.0
148
0.0
149
0.0
100
AcDbLayout
  1
Model
 70
1
 71
0
 10
0.0
 20
0.0
 11
12.0
 21
9.0
 12
0.0
 22
0.0
 32
0.0
 14
0.0
 24
0.0
 34
0.0
 15
0.0
 25
0.0
 35
0.0
146
0.0
 13
0.0
 23
0.0
 33
0.0
 16
1.0
 26
0.0
 36
0.0
 17
0.0
 27
1.0
 37
0.0
 76
0
330
1F
  0
LAYOUT
  5
26
100
AcDbPlotSettings
  1

  2
none_device
  4

  6

 40
0.0
 41
0.0
 42
0.0
 43
0.0
 44
0.0
 45
0.0
 46
0.0
 47
0.0
 48
0.0
 49
0.0
140
0.0
141
0.0
142
1.0
143
1.0
 70
688
 72
0
 73
0
 74
5
  7

 75
16
147
1.0
148
0.0
149
0.0
100
AcDbLayout
  1
Layout2
 70
1
 71
2
 10
0.0
 20
0.0
 11
12.0
 21
9.0
 12
0.0
 22
0.0
 32
0.0
 14
0.0
 24
0.0
 34
0.0
 15
0.0
 25
0.0
 35
0.0
146
0.0
 13
0.0
 23
0.0
 33
0.0
 16
1.0
 26
0.0
 36
0.0
 17
0.0
 27
1.0
 37
0.0
 76
0
330
23
  0
DICTIONARY
  5
38B
100
AcDbDictionary
281
1
  3
DIMASSOC
350
38E
  3
HIDETEXT
350
38D
  0
DICTIONARYVAR
  5
38D
100
DictionaryVariables
280
0
  1
2
  0
DICTIONARYVAR
  5
38E
100
DictionaryVariables
280
0
  1
1
  0
DICTIONARY
  5
38C
100
AcDbDictionary
281
1
  3
Grid/DisplayGrid00
350
38F
  3
Grid/DisplayGrid01
350
390
  3
Grid/DisplayGrid02
350
391
  3
Grid/DisplayGrid03
350
392
  3
Grid/GridSpacingX00
350
393
  3
Grid/GridSpacingX01
350
394
  3
Grid/GridSpacingX02
350
395
  3
Grid/GridSpacingX03
350
396
  3
Grid/GridSpacingY00
350
397
  3
Grid/GridSpacingY01
350
398
  3
Grid/GridSpacingY02
350
399
  3
Grid/GridSpacingY03
350
39A
  3
Grid/IsometricGrid00
350
39B
  3
Grid/IsometricGrid01
350
39C
  3
Grid/IsometricGrid02
350
39D
  3
Grid/IsometricGrid03
350
39E
  3
Grid/IsometricProjection00
350
39F
  3
Grid/IsometricProjection01
350
3A0
  3
Grid/IsometricProjection02
350
3A1
  3
Grid/IsometricProjection03
350
3A2
  3
Grid/MetaGridSpacingX00
350
3A3
  3
Grid/MetaGridSpacingX01
350
3A4
  3
Grid/MetaGridSpacingX02
350
3A5
  3
Grid/MetaGridSpacingX03
350
3A6
  3
Grid/MetaGridSpacingY00
350
3A7
  3
Grid/MetaGridSpacingY01
350
3A8
  3
Grid/MetaGridSpacingY02
350
3A9
  3
Grid/MetaGridSpacingY03
350
3AA
  3
MultiPageSettings/Columns
350
3AB
  3
MultiPageSettings/GlueMarginsBottom
350
3AC
  3
MultiPageSettings/GlueMarginsLeft
350
3AD
  3
MultiPageSettings/GlueMarginsRight
350
3AE
  3
MultiPageSettings/GlueMarginsTop
350
3AF
  3
MultiPageSettings/PrintCropMarks
350
3B0
  3
MultiPageSettings/Rows
350
3B1
  3
PageSettings/OffsetX
350
3B2
  3
PageSettings/OffsetY
350
3B3
  3
PageSettings/PageOrientation
350
3B4
  3
PageSettings/PaperHeight
350
3B5
  3
PageSettings/PaperWidth
350
3B6
  3
PageSettings/Scale
350
3B7
  3
PageSettings/ShowPaperBorders
350
3B8
  3
UnitSettings/PaperUnit
350
3B9
  0
XRECORD
  5
38F
330
38C
100
AcDbXrecord
280
1
290
1
  0
XRECORD
  5
390
330
38C
100
AcDbXrecord
280
1
290
1
  0
XRECORD
  5
391
330
38C
100
AcDbXrecord
280
1
290
1
  0
XRECORD
  5
392
330
38C
100
AcDbXrecord
280
1
290
1
  0
XRECORD
  5
393
330
38C
100
AcDbXrecord
280
1
1000
auto
  0
XRECORD
  5
394
330
38C
100
AcDbXrecord
280
1
1000
auto
  0
XRECORD
  5
395
330
38C
100
AcDbXrecord
280
1
1000
auto
  0
XRECORD
  5
396
330
38C
100
AcDbXrecord
280
1
1000
auto
  0
XRECORD
  5
397
330
38C
100
AcDbXrecord
280
1
1000
auto
  0
XRECORD
  5
398
330
38C
100
AcDbXrecord
280
1
1000
auto
  0
XRECORD
  5
399
330
38C
100
AcDbXrecord
280
1
1000
auto
  0
XRECORD
  5
39A
330
38C
100
AcDbXrecord
280
1
1000
auto
  0
XRECORD
  5
39B
330
38C
100
AcDbXrecord
280
1
290
0
  0
XRECORD
  5
39C
330
38C
100
AcDbXrecord
280
1
290
0
  0
XRECORD
  5
39D
330
38C
100
AcDbXrecord
280
1
290
0
  0
XRECORD
  5
39E
330
38C
100
AcDbXrecord
280
1
290
0
  0
XRECORD
  5
39F
330
38C
100
AcDbXrecord
280
1
 90
0
  0
XRECORD
  5
3A0
330
38C
100
AcDbXrecord
280
1
 90
0
  0
XRECORD
  5
3A1
330
38C
100
AcDbXrecord
280
1
 90
0
  0
XRECORD
  5
3A2
330
38C
100
AcDbXrecord
280
1
 90
0
  0
XRECORD
  5
3A3
330
38C
100
AcDbXrecord
280
1
1000
auto
  0
XRECORD
  5
3A4
330
38C
100
AcDbXrecord
280
1
1000
auto
  0
XRECORD
  5
3A5
330
38C
100
AcDbXrecord
280
1
1000
auto
  0
XRECORD
  5
3A6
330
38C
100
AcDbXrecord
280
1
1000
auto
  0
XRECORD
  5
3A7
330
38C
100
AcDbXrecord
280
1
1000
auto
  0
XRECORD
  5
3A8
330
38C
100
AcDbXrecord
280
1
1000
auto
  0
XRECORD
  5
3A9
330
38C
100
AcDbXrecord
280
1
1000
auto
  0
XRECORD
  5
3AA
330
38C
100
AcDbXrecord
280
1
1000
auto
  0
XRECORD
  5
3AB
330
38C
100
AcDbXrecord
280
1
 90
1
  0
XRECORD
  5
3AC
330
38C
100
AcDbXrecord
280
1
 40
10.0
  0
XRECORD
  5
3AD
330
38C
100
AcDbXrecord
280
1
 40
10.0
  0
XRECORD
  5
3AE
330
38C
100
AcDbXrecord
280
1
 40
10.0
  0
XRECORD
  5
3AF
330
38C
100
AcDbXrecord
280
1
 40
10.0
  0
XRECORD
  5
3B0
330
38C
100
AcDbXrecord
280
1
290
0
  0
XRECORD
  5
3B1
330
38C
100
AcDbXrecord
280
1
 90
1
  0
XRECORD
  5
3B2
330
38C
100
AcDbXrecord
280
1
 40
0.0
  0
XRECORD
  5
3B3
330
38C
100
AcDbXrecord
280
1
 40
0.0
  0
XRECORD
  5
3B4
330
38C
100
AcDbXrecord
280
1
1000
Portrait
  0
XRECORD
  5
3B5
330
38C
100
AcDbXrecord
280
1
 40
297.0
  0
XRECORD
  5
3B6
330
38C
100
AcDbXrecord
280
1
 40
210.0
  0
XRECORD
  5
3B7
330
38C
100
AcDbXrecord
280
1
1000
1:1
  0
XRECORD
  5
3B8
330
38C
100
AcDbXrecord
280
1
290
1
  0
XRECORD
  5
3B9
330
38C
100
AcDbXrecord
280
1
 90
4
  0
ENDSEC
  0
EOF
