999
dxflib 3.7.5.0
  0
SECTION
  2
HEADER
  9
$ACADVER
  1
AC1015
  9
$HANDSEED
  5
FFFF
  9
$DIMADEC
 70
0
  9
$DIMASZ
 40
2.5
  9
$DIMAUNIT
 70
0
  9
$DIMAZIN
 70
2
  9
$DIMDEC
 70
4
  9
$DIMEXE
 40
1.25
  9
$DIMEXO
 40
0.625
  9
$DIMGAP
 40
0.625
  9
$DIMLUNIT
 70
2
  9
$DIMSCALE
 40
1.0
  9
$DIMTSZ
 40
0.0
  9
$DIMTXT
 40
2.5
  9
$DIMZIN
 70
8
  9
$DWGCODEPAGE
  3
ANSI_1252
  9
$INSUNITS
 70
4
  0
ENDSEC
  0
SECTION
  2
TABLES
  0
TABLE
  2
VPORT
  5
8
100
AcDbSymbolTable
 70
1
  0
VPORT
  5
30
100
AcDbSymbolTableRecord
100
AcDbViewportTableRecord
  2
*Active
 70
0
 10
0.0
 20
0.0
 11
1.0
 21
1.0
 12
286.30555555555549
 22
148.5
 13
0.0
 23
0.0
 14
10.0
 24
10.0
 15
10.0
 25
10.0
 16
0.0
 26
0.0
 36
1.0
 17
0.0
 27
0.0
 37
0.0
 40
297.0
 41
1.92798353909465
 42
50.0
 43
0.0
 44
0.0
 50
0.0
 51
0.0
 71
0
 72
100
 73
1
 74
3
 75
1
 76
1
 77
0
 78
0
281
0
 65
1
110
0.0
120
0.0
130
0.0
111
1.0
121
0.0
131
0.0
112
0.0
122
1.0
132
0.0
 79
0
146
0.0
  0
ENDTAB
  0
TABLE
  2
LTYPE
  5
5
100
AcDbSymbolTable
 70
41
  0
LTYPE
  5
16
100
AcDbSymbolTableRecord
100
AcDbLinetypeTableRecord
  2
Continuous
 70
0
  3
Solid line
 72
65
 73
0
 40
0.0
  0
LTYPE
  5
31
100
AcDbSymbolTableRecord
100
AcDbLinetypeTableRecord
  2
ACAD_ISO15W100
 70
0
  3
ISO double-dash triple-dot __ __ . . . __ __ . .
 72
65
 73
10
 40
39.0
 49
12.0
 74
0
 49
-3.0
 74
0
 49
12.0
 74
0
 49
-3.0
 74
0
 49
0.0
 74
0
 49
-3.0
 74
0
 49
0.0
 74
0
 49
-3.0
 74
0
 49
0.0
 74
0
 49
-3.0
 74
0
  0
LTYPE
  5
32
100
AcDbSymbolTableRecord
100
AcDbLinetypeTableRecord
  2
DIVIDE
 70
0
  3
Divide ____ . . ____ . . ____ . . ____ . . ____
 72
65
 73
6
 40
31.75
 49
12.699999999999999
 74
0
 49
-6.3499999999999996
 74
0
 49
0.0
 74
0
 49
-6.3499999999999996
 74
0
 49
0.0
 74
0
 49
-6.3499999999999996
 74
0
  0
LTYPE
  5
33
100
AcDbSymbolTableRecord
100
AcDbLinetypeTableRecord
  2
ACAD_ISO10W100
 70
0
  3
ISO dash dot __ . __ . __ . __ . __ . __ . __ . 
 72
65
 73
4
 40
18.0
 49
12.0
 74
0
 49
-3.0
 74
0
 49
0.0
 74
0
 49
-3.0
 74
0
  0
LTYPE
  5
34
100
AcDbSymbolTableRecord
100
AcDbLinetypeTableRecord
  2
ACAD_ISO04W100
 70
0
  3
ISO long-dash dot ____ . ____ . ____ . ____ . _
 72
65
 73
4
 40
30.0
 49
24.0
 74
0
 49
-3.0
 74
0
 49
0.0
 74
0
 49
-3.0
 74
0
  0
LTYPE
  5
35
100
AcDbSymbolTableRecord
100
AcDbLinetypeTableRecord
  2
CENTER2
 70
0
  3
Center (.5x) ___ _ ___ _ ___ _ ___ _ ___ _ ___
 72
65
 73
4
 40
28.575000000000003
 49
19.050000000000001
 74
0
 49
-3.1749999999999998
 74
0
 49
3.1749999999999998
 74
0
 49
-3.1749999999999998
 74
0
  0
LTYPE
  5
36
100
AcDbSymbolTableRecord
100
AcDbLinetypeTableRecord
  2
ACAD_ISO11W100
 70
0
  3
ISO double-dash dot __ __ . __ __ . __ __ . __ _
 72
65
 73
6
 40
33.0
 49
12.0
 74
0
 49
-3.0
 74
0
 49
12.0
 74
0
 49
-3.0
 74
0
 49
0.0
 74
0
 49
-3.0
 74
0
  0
LTYPE
  5
37
100
AcDbSymbolTableRecord
100
AcDbLinetypeTableRecord
  2
HIDDEN2
 70
0
  3
Hidden (.5x) _ _ _ _ _ _ _ _ _ _ _ _ _ _ _ _ _ 
 72
65
 73
2
 40
4.7624999999999993
 49
3.1749999999999998
 74
0
 49
-1.5874999999999999
 74
0
  0
LTYPE
  5
38
100
AcDbSymbolTableRecord
100
AcDbLinetypeTableRecord
  2
BORDERX2
 70
0
  3
Border (2x) ____  ____  .  ____  ____  .  ___
 72
65
 73
6
 40
88.899999999999991
 49
25.399999999999999
 74
0
 49
-12.699999999999999
 74
0
 49
25.399999999999999
 74
0
 49
-12.699999999999999
 74
0
 49
0.0
 74
0
 49
-12.699999999999999
 74
0
  0
LTYPE
  5
39
100
AcDbSymbolTableRecord
100
AcDbLinetypeTableRecord
  2
ACAD_ISO05W100
 70
0
  3
ISO long-dash double-dot ____ .. ____ .. ____ . 
 72
65
 73
6
 40
33.0
 49
24.0
 74
0
 49
-3.0
 74
0
 49
0.0
 74
0
 49
-3.0
 74
0
 49
0.0
 74
0
 49
-3.0
 74
0
  0
LTYPE
  5
3A
100
AcDbSymbolTableRecord
100
AcDbLinetypeTableRecord
  2
DASHDOTX2
 70
0
  3
Dash dot (2x) ____  .  ____  .  ____  .  ___
 72
65
 73
4
 40
50.799999999999997
 49
25.399999999999999
 74
0
 49
-12.699999999999999
 74
0
 49
0.0
 74
0
 49
-12.699999999999999
 74
0
  0
LTYPE
  5
3B
100
AcDbSymbolTableRecord
100
AcDbLinetypeTableRecord
  2
HIDDENX2
 70
0
  3
Hidden (2x) ____ ____ ____ ____ ____ ____ ____ 
 72
65
 73
2
 40
19.049999999999997
 49
12.699999999999999
 74
0
 49
-6.3499999999999996
 74
0
  0
LTYPE
  5
3C
100
AcDbSymbolTableRecord
100
AcDbLinetypeTableRecord
  2
CENTERX2
 70
0
  3
Center (2x) ________  __  ________  __  _____
 72
65
 73
4
 40
101.60000000000001
 49
63.5
 74
0
 49
-12.699999999999999
 74
0
 49
12.699999999999999
 74
0
 49
-12.699999999999999
 74
0
  0
LTYPE
  5
3D
100
AcDbSymbolTableRecord
100
AcDbLinetypeTableRecord
  2
BORDER2
 70
0
  3
Border (.5x) __.__.__.__.__.__.__.__.__.__.__.
 72
65
 73
6
 40
22.224999999999998
 49
6.3499999999999996
 74
0
 49
-3.1749999999999998
 74
0
 49
6.3499999999999996
 74
0
 49
-3.1749999999999998
 74
0
 49
0.0
 74
0
 49
-3.1749999999999998
 74
0
  0
LTYPE
  5
3E
100
AcDbSymbolTableRecord
100
AcDbLinetypeTableRecord
  2
DASHDOT2
 70
0
  3
Dash dot (.5x) _._._._._._._._._._._._._._._.
 72
65
 73
4
 40
12.699999999999999
 49
6.3499999999999996
 74
0
 49
-3.1749999999999998
 74
0
 49
0.0
 74
0
 49
-3.1749999999999998
 74
0
  0
LTYPE
  5
3F
100
AcDbSymbolTableRecord
100
AcDbLinetypeTableRecord
  2
ACAD_ISO12W100
 70
0
  3
ISO dash double-dot __ . . __ . . __ . . __ . . 
 72
65
 73
6
 40
21.0
 49
12.0
 74
0
 49
-3.0
 74
0
 49
0.0
 74
0
 49
-3.0
 74
0
 49
0.0
 74
0
 49
-3.0
 74
0
  0
LTYPE
  5
40
100
AcDbSymbolTableRecord
100
AcDbLinetypeTableRecord
  2
ACAD_ISO07W100
 70
0
  3
ISO dot . . . . . . . . . . . . . . . . . . . . 
 72
65
 73
2
 40
3.0
 49
0.0
 74
0
 49
-3.0
 74
0
  0
LTYPE
  5
41
100
AcDbSymbolTableRecord
100
AcDbLinetypeTableRecord
  2
HIDDEN
 70
0
  3
Hidden __ __ __ __ __ __ __ __ __ __ __ __ __ __
 72
65
 73
2
 40
9.5249999999999986
 49
6.3499999999999996
 74
0
 49
-3.1749999999999998
 74
0
  0
LTYPE
  5
42
100
AcDbSymbolTableRecord
100
AcDbLinetypeTableRecord
  2
ACAD_ISO06W100
 70
0
  3
ISO long-dash triple-dot ____ ... ____ ... ____
 72
65
 73
8
 40
36.0
 49
24.0
 74
0
 49
-3.0
 74
0
 49
0.0
 74
0
 49
-3.0
 74
0
 49
0.0
 74
0
 49
-3.0
 74
0
 49
0.0
 74
0
 49
-3.0
 74
0
  0
LTYPE
  5
43
100
AcDbSymbolTableRecord
100
AcDbLinetypeTableRecord
  2
CENTER
 70
0
  3
Center ____ _ ____ _ ____ _ ____ _ ____ _ ____
 72
65
 73
4
 40
50.800000000000004
 49
31.75
 74
0
 49
-6.3499999999999996
 74
0
 49
6.3499999999999996
 74
0
 49
-6.3499999999999996
 74
0
  0
LTYPE
  5
44
100
AcDbSymbolTableRecord
100
AcDbLinetypeTableRecord
  2
DOTX2
 70
0
  3
Dot (2x) .  .  .  .  .  .  .  .  .  .  .  .  .  .
 72
65
 73
2
 40
12.699999999999999
 49
0.0
 74
0
 49
-12.699999999999999
 74
0
  0
LTYPE
  5
45
100
AcDbSymbolTableRecord
100
AcDbLinetypeTableRecord
  2
PHANTOM
 70
0
  3
Phantom ______  __  __  ______  __  __  ______ 
 72
65
 73
6
 40
63.500000000000007
 49
31.75
 74
0
 49
-6.3499999999999996
 74
0
 49
6.3499999999999996
 74
0
 49
-6.3499999999999996
 74
0
 49
6.3499999999999996
 74
0
 49
-6.3499999999999996
 74
0
  0
LTYPE
  5
46
100
AcDbSymbolTableRecord
100
AcDbLinetypeTableRecord
  2
ACAD_ISO08W100
 70
0
  3
ISO long-dash short-dash ____ __ ____ __ ____ _
 72
65
 73
4
 40
36.0
 49
24.0
 74
0
 49
-3.0
 74
0
 49
6.0
 74
0
 49
-3.0
 74
0
  0
LTYPE
  5
47
100
AcDbSymbolTableRecord
100
AcDbLinetypeTableRecord
  2
DASHEDX2
 70
0
  3
Dashed (2x) ____  ____  ____  ____  ____  ___
 72
65
 73
2
 40
38.099999999999994
 49
25.399999999999999
 74
0
 49
-12.699999999999999
 74
0
  0
LTYPE
  5
48
100
AcDbSymbolTableRecord
100
AcDbLinetypeTableRecord
  2
ACAD_ISO02W100
 70
0
  3
ISO dash __ __ __ __ __ __ __ __ __ __ __ __ __
 72
65
 73
2
 40
15.0
 49
12.0
 74
0
 49
-3.0
 74
0
  0
LTYPE
  5
49
100
AcDbSymbolTableRecord
100
AcDbLinetypeTableRecord
  2
PHANTOM2
 70
0
  3
Phantom (.5x) ___ _ _ ___ _ _ ___ _ _ ___ _ _
 72
65
 73
6
 40
31.750000000000004
 49
15.875
 74
0
 49
-3.1749999999999998
 74
0
 49
3.1749999999999998
 74
0
 49
-3.1749999999999998
 74
0
 49
3.1749999999999998
 74
0
 49
-3.1749999999999998
 74
0
  0
LTYPE
  5
4A
100
AcDbSymbolTableRecord
100
AcDbLinetypeTableRecord
  2
DASHED2
 70
0
  3
Dashed (.5x) _ _ _ _ _ _ _ _ _ _ _ _ _ _ _ _ _ 
 72
65
 73
2
 40
9.5249999999999986
 49
6.3499999999999996
 74
0
 49
-3.1749999999999998
 74
0
  0
LTYPE
  5
4B
100
AcDbSymbolTableRecord
100
AcDbLinetypeTableRecord
  2
ACAD_ISO09W100
 70
0
  3
ISO long-dash double-short-dash ____ __ __ ____
 72
65
 73
6
 40
45.0
 49
24.0
 74
0
 49
-3.0
 74
0
 49
6.0
 74
0
 49
-3.0
 74
0
 49
6.0
 74
0
 49
-3.0
 74
0
  0
LTYPE
  5
4C
100
AcDbSymbolTableRecord
100
AcDbLinetypeTableRecord
  2
ACAD_ISO13W100
 70
0
  3
ISO double-dash double-dot __ __ . . __ __ . . _
 72
65
 73
8
 40
36.0
 49
12.0
 74
0
 49
-3.0
 74
0
 49
12.0
 74
0
 49
-3.0
 74
0
 49
0.0
 74
0
 49
-3.0
 74
0
 49
0.0
 74
0
 49
-3.0
 74
0
  0
LTYPE
  5
4D
100
AcDbSymbolTableRecord
100
AcDbLinetypeTableRecord
  2
DOT2
 70
0
  3
Dot (.5x) ........................................
 72
65
 73
2
 40
3.1749999999999998
 49
0.0
 74
0
 49
-3.1749999999999998
 74
0
  0
LTYPE
  5
4E
100
AcDbSymbolTableRecord
100
AcDbLinetypeTableRecord
  2
DASHED
 70
0
  3
Dashed __ __ __ __ __ __ __ __ __ __ __ __ __ _
 72
65
 73
2
 40
19.049999999999997
 49
12.699999999999999
 74
0
 49
-6.3499999999999996
 74
0
  0
LTYPE
  5
4F
100
AcDbSymbolTableRecord
100
AcDbLinetypeTableRecord
  2
ACAD_ISO14W100
 70
0
  3
ISO dash triple-dot __ . . . __ . . . __ . . . _
 72
65
 73
8
 40
24.0
 49
12.0
 74
0
 49
-3.0
 74
0
 49
0.0
 74
0
 49
-3.0
 74
0
 49
0.0
 74
0
 49
-3.0
 74
0
 49
0.0
 74
0
 49
-3.0
 74
0
  0
LTYPE
  5
50
100
AcDbSymbolTableRecord
100
AcDbLinetypeTableRecord
  2
PHANTOMX2
 70
0
  3
Phantom (2x) ____________    ____    ____   _
 72
65
 73
6
 40
127.00000000000001
 49
63.5
 74
0
 49
-12.699999999999999
 74
0
 49
12.699999999999999
 74
0
 49
-12.699999999999999
 74
0
 49
12.699999999999999
 74
0
 49
-12.699999999999999
 74
0
  0
LTYPE
  5
14
100
AcDbSymbolTableRecord
100
AcDbLinetypeTableRecord
  2
BYBLOCK
 70
0
  3

 72
65
 73
0
 40
0.0
  0
LTYPE
  5
51
100
AcDbSymbolTableRecord
100
AcDbLinetypeTableRecord
  2
DIVIDEX2
 70
0
  3
Divide (2x) ________  .  .  ________  .  .  _
 72
65
 73
6
 40
63.5
 49
25.399999999999999
 74
0
 49
-12.699999999999999
 74
0
 49
0.0
 74
0
 49
-12.699999999999999
 74
0
 49
0.0
 74
0
 49
-12.699999999999999
 74
0
  0
LTYPE
  5
52
100
AcDbSymbolTableRecord
100
AcDbLinetypeTableRecord
  2
BORDER
 70
0
  3
Border __ __ . __ __ . __ __ . __ __ . __ __ .
 72
65
 73
6
 40
44.449999999999996
 49
12.699999999999999
 74
0
 49
-6.3499999999999996
 74
0
 49
12.699999999999999
 74
0
 49
-6.3499999999999996
 74
0
 49
0.0
 74
0
 49
-6.3499999999999996
 74
0
  0
LTYPE
  5
53
100
AcDbSymbolTableRecord
100
AcDbLinetypeTableRecord
  2
DIVIDE2
 70
0
  3
Divide (.5x) __..__..__..__..__..__..__..__.._
 72
65
 73
6
 40
15.875
 49
6.3499999999999996
 74
0
 49
-3.1749999999999998
 74
0
 49
0.0
 74
0
 49
-3.1749999999999998
 74
0
 49
0.0
 74
0
 49
-3.1749999999999998
 74
0
  0
LTYPE
  5
54
100
AcDbSymbolTableRecord
100
AcDbLinetypeTableRecord
  2
DOT
 70
0
  3
Dot . . . . . . . . . . . . . . . . . . . . . . . .
 72
65
 73
2
 40
6.3499999999999996
 49
0.0
 74
0
 49
-6.3499999999999996
 74
0
  0
LTYPE
  5
55
100
AcDbSymbolTableRecord
100
AcDbLinetypeTableRecord
  2
DASHDOT
 70
0
  3
Dash dot __ . __ . __ . __ . __ . __ . __ . __
 72
65
 73
4
 40
25.399999999999999
 49
12.699999999999999
 74
0
 49
-6.3499999999999996
 74
0
 49
0.0
 74
0
 49
-6.3499999999999996
 74
0
  0
LTYPE
  5
56
100
AcDbSymbolTableRecord
100
AcDbLinetypeTableRecord
  2
ACAD_ISO03W100
 70
0
  3
ISO dash space __    __    __    __    __    __
 72
65
 73
2
 40
30.0
 49
12.0
 74
0
 49
-18.0
 74
0
  0
LTYPE
  5
15
100
AcDbSymbolTableRecord
100
AcDbLinetypeTableRecord
  2
ByLayer
 70
0
  3

 72
65
 73
0
 40
0.0
  0
ENDTAB
  0
TABLE
  2
LAYER
  5
2
100
AcDbSymbolTable
 70
1
  0
LAYER
  5
10
100
AcDbSymbolTableRecord
100
AcDbLayerTableRecord
  2
0
 70
0
 62
7
420
16777215
  6
Continuous
370
25
390
F
  0
ENDTAB
  0
TABLE
  2
STYLE
  5
3
100
AcDbSymbolTable
 70
1
  0
STYLE
  5
57
100
AcDbSymbolTableRecord
100
AcDbTextStyleTableRecord
  2
Standard
 70
0
 40
0.0
 41
1.0
 50
0.0
 71
0
 42
2.5
  3

  4

1001
ACAD
1000
txt
1071
0
  0
ENDTAB
  0
TABLE
  2
VIEW
  5
6
100
AcDbSymbolTable
 70
0
  0
ENDTAB
  0
TABLE
  2
UCS
  5
7
100
AcDbSymbolTable
 70
0
  0
ENDTAB
  0
TABLE
  2
APPID
  5
9
100
AcDbSymbolTable
 70
1
  0
APPID
  5
12
100
AcDbSymbolTableRecord
100
AcDbRegAppTableRecord
  2
ACAD
 70
0
  0
APPID
  5
58
100
AcDbSymbolTableRecord
100
AcDbRegAppTableRecord
  2
QCAD
 70
0
  0
ENDTAB
  0
TABLE
  2
DIMSTYLE
  5
A
100
AcDbSymbolTable
 70
1
100
AcDbDimStyleTable
 71
0
  0
DIMSTYLE
105
27
100
AcDbSymbolTableRecord
100
AcDbDimStyleTableRecord
  2
Standard
 41
2.5
 42
0.625
 43
3.75
 44
1.25
 70
0
 73
0
 74
0
 77
1
 78
8
140
2.5
141
2.5
143
0.03937007874016
147
0.625
171
3
172
1
271
2
272
2
274
3
278
44
283
0
284
8
340
57
  0
ENDTAB
  0
TABLE
  2
BLOCK_RECORD
  5
1
100
AcDbSymbolTable
 70
1
  0
BLOCK_RECORD
  5
1F
100
AcDbSymbolTableRecord
100
AcDbBlockTableRecord
  2
*Model_Space
340
22
  0
BLOCK_RECORD
  5
1B
100
AcDbSymbolTableRecord
100
AcDbBlockTableRecord
  2
*Paper_Space
340
1E
  0
BLOCK_RECORD
  5
23
100
AcDbSymbolTableRecord
100
AcDbBlockTableRecord
  2
*Paper_Space0
340
26
  0
ENDTAB
  0
ENDSEC
  0
SECTION
  2
BLOCKS
  0
BLOCK
  5
20
100
AcDbEntity
  8
0
100
AcDbBlockBegin
  2
*Model_Space
 70
0
 10
0.0
 20
0.0
 30
0.0
  3
*Model_Space
  1

  0
ENDBLK
  5
21
100
AcDbEntity
  8
0
100
AcDbBlockEnd
  0
BLOCK
  5
1C
100
AcDbEntity
 67
1
  8
0
100
AcDbBlockBegin
  2
*Paper_Space
 70
0
 10
0.0
 20
0.0
 30
0.0
  3
*Paper_Space
  1

  0
ENDBLK
  5
1D
100
AcDbEntity
 67
1
  8
0
100
AcDbBlockEnd
  0
BLOCK
  5
24
100
AcDbEntity
  8
0
100
AcDbBlockBegin
  2
*Paper_Space0
 70
0
 10
0.0
 20
0.0
 30
0.0
  3
*Paper_Space0
  1

  0
ENDBLK
  5
25
100
AcDbEntity
  8
0
100
AcDbBlockEnd
  0
ENDSEC
  0
SECTION
  2
ENTITIES
  0
CIRCLE
  5
59
100
AcDbEntity
100
AcDbCircle
  8
0
 62
256
370
-1
 48
1.0
  6
ByLayer
 10
97.119999999999834
 20
-164.28
 30
0.0
 40
1.9999999999999989
  0
CIRCLE
  5
5A
100
AcDbEntity
100
AcDbCircle
  8
0
 62
256
370
-1
 48
1.0
  6
ByLayer
 10
197.32000000000011
 20
-164.28
 30
0.0
 40
1.9999999999999989
  0
CIRCLE
  5
5B
100
AcDbEntity
100
AcDbCircle
  8
0
 62
256
370
-1
 48
1.0
  6
ByLayer
 10
97.119999999999834
 20
-128.72000000000023
 30
0.0
 40
1.9999999999999989
  0
CIRCLE
  5
5C
100
AcDbEntity
100
AcDbCircle
  8
0
 62
256
370
-1
 48
1.0
  6
ByLayer
 10
197.32000000000011
 20
-128.7200000000002
 30
0.0
 40
1.9999999999999989
  0
CIRCLE
  5
5D
100
AcDbEntity
100
AcDbCircle
  8
0
 62
256
370
-1
 48
1.0
  6
ByLayer
 10
121.12000000000005
 20
-263.0800000000001
 30
0.0
 40
1.9999999999999989
  0
CIRCLE
  5
5E
100
AcDbEntity
100
AcDbCircle
  8
0
 62
256
370
-1
 48
1.0
  6
ByLayer
 10
66.879999999999981
 20
-263.08000000000021
 30
0.0
 40
1.9999999999999989
  0
CIRCLE
  5
5F
100
AcDbEntity
100
AcDbCircle
  8
0
 62
256
370
-1
 48
1.0
  6
ByLayer
 10
187.12000000000006
 20
-263.07999999999998
 30
0.0
 40
1.9999999999999989
  0
CIRCLE
  5
60
100
AcDbEntity
100
AcDbCircle
  8
0
 62
256
370
-1
 48
1.0
  6
ByLayer
 10
132.88
 20
-263.0800000000001
 30
0.0
 40
1.9999999999999989
  0
ARC
  5
61
100
AcDbEntity
  8
0
 62
256
370
-1
 48
1.0
  6
ByLayer
100
AcDbCircle
 10
137.21999999999997
 20
-164.28000000000003
 30
0.0
 40
3.0000000000000426
100
AcDbArc
 50
90.0
 51
270.0
  0
LINE
  5
62
100
AcDbEntity
100
AcDbLine
  8
0
 62
256
370
-1
 48
1.0
  6
ByLayer
 10
137.21999999999997
 20
-161.28
 30
0.0
 11
157.21999999999997
 21
-161.28000000000009
 31
0.0
  0
ARC
  5
63
100
AcDbEntity
  8
0
 62
256
370
-1
 48
1.0
  6
ByLayer
100
AcDbCircle
 10
157.21999999999997
 20
-164.28000000000009
 30
0.0
 40
3.0
100
AcDbArc
 50
270.0
 51
90.0
  0
LINE
  5
64
100
AcDbEntity
100
AcDbLine
  8
0
 62
256
370
-1
 48
1.0
  6
ByLayer
 10
157.21999999999997
 20
-167.28000000000009
 30
0.0
 11
137.21999999999997
 21
-167.28000000000009
 31
0.0
  0
ARC
  5
65
100
AcDbEntity
  8
0
 62
256
370
-1
 48
1.0
  6
ByLayer
100
AcDbCircle
 10
129.21999999999997
 20
-153.22000000000008
 30
0.0
 40
1.5750000000000028
100
AcDbArc
 50
90.0
 51
270.0
  0
LINE
  5
66
100
AcDbEntity
100
AcDbLine
  8
0
 62
256
370
-1
 48
1.0
  6
ByLayer
 10
129.21999999999997
 20
-151.6450000000001
 30
0.0
 11
165.21999999999997
 21
-151.6450000000001
 31
0.0
  0
ARC
  5
67
100
AcDbEntity
  8
0
 62
256
370
-1
 48
1.0
  6
ByLayer
100
AcDbCircle
 10
165.21999999999997
 20
-153.22000000000008
 30
0.0
 40
1.5750000000000028
100
AcDbArc
 50
270.0
 51
90.0
  0
LINE
  5
68
100
AcDbEntity
100
AcDbLine
  8
0
 62
256
370
-1
 48
1.0
  6
ByLayer
 10
165.21999999999997
 20
-154.7950000000001
 30
0.0
 11
129.21999999999997
 21
-154.7950000000001
 31
0.0
  0
ARC
  5
69
100
AcDbEntity
  8
0
 62
256
370
-1
 48
1.0
  6
ByLayer
100
AcDbCircle
 10
137.21999999999997
 20
-179.28000000000003
 30
0.0
 40
3.0000000000000426
100
AcDbArc
 50
90.0
 51
270.0
  0
LINE
  5
6A
100
AcDbEntity
100
AcDbLine
  8
0
 62
256
370
-1
 48
1.0
  6
ByLayer
 10
137.21999999999997
 20
-176.28
 30
0.0
 11
157.21999999999997
 21
-176.28
 31
0.0
  0
ARC
  5
6B
100
AcDbEntity
  8
0
 62
256
370
-1
 48
1.0
  6
ByLayer
100
AcDbCircle
 10
157.21999999999997
 20
-179.28000000000003
 30
0.0
 40
3.0000000000000426
100
AcDbArc
 50
270.0
 51
90.0
  0
LINE
  5
6C
100
AcDbEntity
100
AcDbLine
  8
0
 62
256
370
-1
 48
1.0
  6
ByLayer
 10
157.21999999999997
 20
-182.28000000000009
 30
0.0
 11
137.21999999999997
 21
-182.28000000000009
 31
0.0
  0
LINE
  5
6D
100
AcDbEntity
100
AcDbLine
  8
0
 62
256
370
-1
 48
1.0
  6
ByLayer
 10
90.319999999999993
 20
-178.22
 30
0.0
 11
50.0
 21
-178.22000000000011
 31
0.0
  0
LINE
  5
6E
100
AcDbEntity
100
AcDbLine
  8
0
 62
256
370
-1
 48
1.0
  6
ByLayer
 10
50.0
 20
-178.22000000000011
 30
0.0
 11
50.0
 21
-200.0
 31
0.0
  0
LINE
  5
6F
100
AcDbEntity
100
AcDbLine
  8
0
 62
256
370
-1
 48
1.0
  6
ByLayer
 10
50.0
 20
-200.0
 30
0.0
 11
107.03280302626041
 21
-200.9955112798612
 31
0.0
  0
LINE
  5
70
100
AcDbEntity
100
AcDbLine
  8
0
 62
256
370
-1
 48
1.0
  6
ByLayer
 10
107.03280302626041
 20
-200.9955112798612
 30
0.0
 11
107.11999999999998
 21
-196.0
 31
0.0
  0
LINE
  5
71
100
AcDbEntity
100
AcDbLine
  8
0
 62
256
370
-1
 48
1.0
  6
ByLayer
 10
107.11999999999998
 20
-196.0
 30
0.0
 11
107.11999999999998
 21
-182.56000000000009
 31
0.0
  0
LINE
  5
72
100
AcDbEntity
100
AcDbLine
  8
0
 62
256
370
-1
 48
1.0
  6
ByLayer
 10
107.11999999999998
 20
-182.56000000000009
 30
0.0
 11
113.83999999999997
 21
-182.56000000000009
 31
0.0
  0
LINE
  5
73
100
AcDbEntity
100
AcDbLine
  8
0
 62
256
370
-1
 48
1.0
  6
ByLayer
 10
113.83999999999997
 20
-182.56000000000009
 30
0.0
 11
113.83999999999997
 21
-189.28000000000009
 31
0.0
  0
LINE
  5
74
100
AcDbEntity
100
AcDbLine
  8
0
 62
256
370
-1
 48
1.0
  6
ByLayer
 10
113.83999999999997
 20
-189.28000000000009
 30
0.0
 11
123.31666666666661
 21
-189.28000000000009
 31
0.0
  0
LINE
  5
75
100
AcDbEntity
100
AcDbLine
  8
0
 62
256
370
-1
 48
1.0
  6
ByLayer
 10
123.31666666666661
 20
-189.28000000000009
 30
0.0
 11
123.31666666666661
 21
-185.00000000000011
 31
0.0
  0
LINE
  5
76
100
AcDbEntity
100
AcDbLine
  8
0
 62
256
370
-1
 48
1.0
  6
ByLayer
 10
123.31666666666661
 20
-185.00000000000011
 30
0.0
 11
122.21666666666664
 21
-185.00000000000011
 31
0.0
  0
ARC
  5
77
100
AcDbEntity
  8
0
 62
256
370
-1
 48
1.0
  6
ByLayer
100
AcDbCircle
 10
121.96666666666664
 20
-185.00000000000011
 30
0.0
 40
0.25
100
AcDbArc
 50
90.0
 51
0.0
  0
LINE
  5
78
100
AcDbEntity
100
AcDbLine
  8
0
 62
256
370
-1
 48
1.0
  6
ByLayer
 10
121.96666666666664
 20
-184.75000000000011
 30
0.0
 11
121.96666666666664
 21
-182.25
 31
0.0
  0
ARC
  5
79
100
AcDbEntity
  8
0
 62
256
370
-1
 48
1.0
  6
ByLayer
100
AcDbCircle
 10
121.9666666666667
 20
-182.00000000000006
 30
0.0
 40
0.2499999999999431
100
AcDbArc
 50
360.0
 51
269.99999999998698
  0
LINE
  5
7A
100
AcDbEntity
100
AcDbLine
  8
0
 62
256
370
-1
 48
1.0
  6
ByLayer
 10
122.21666666666664
 20
-182.00000000000011
 30
0.0
 11
123.31666666666661
 21
-182.00000000000011
 31
0.0
  0
LINE
  5
7B
100
AcDbEntity
100
AcDbLine
  8
0
 62
256
370
-1
 48
1.0
  6
ByLayer
 10
123.31666666666661
 20
-182.00000000000011
 30
0.0
 11
123.31666666666661
 21
-180.00000000000011
 31
0.0
  0
LINE
  5
7C
100
AcDbEntity
100
AcDbLine
  8
0
 62
256
370
-1
 48
1.0
  6
ByLayer
 10
123.31666666666661
 20
-180.00000000000011
 30
0.0
 11
126.61666666666662
 21
-180.00000000000011
 31
0.0
  0
LINE
  5
7D
100
AcDbEntity
100
AcDbLine
  8
0
 62
256
370
-1
 48
1.0
  6
ByLayer
 10
126.61666666666662
 20
-180.00000000000011
 30
0.0
 11
126.61666666666662
 21
-182.00000000000011
 31
0.0
  0
LINE
  5
7E
100
AcDbEntity
100
AcDbLine
  8
0
 62
256
370
-1
 48
1.0
  6
ByLayer
 10
126.61666666666662
 20
-182.00000000000011
 30
0.0
 11
127.71666666666664
 21
-182.00000000000011
 31
0.0
  0
ARC
  5
7F
100
AcDbEntity
  8
0
 62
256
370
-1
 48
1.0
  6
ByLayer
100
AcDbCircle
 10
127.96666666666658
 20
-182.00000000000006
 30
0.0
 40
0.2499999999999431
100
AcDbArc
 50
270.00000000001302
 51
180.0
  0
LINE
  5
80
100
AcDbEntity
100
AcDbLine
  8
0
 62
256
370
-1
 48
1.0
  6
ByLayer
 10
127.96666666666664
 20
-182.25
 30
0.0
 11
127.96666666666664
 21
-184.75000000000011
 31
0.0
  0
ARC
  5
81
100
AcDbEntity
  8
0
 62
256
370
-1
 48
1.0
  6
ByLayer
100
AcDbCircle
 10
127.96666666666664
 20
-185.00000000000011
 30
0.0
 40
0.25
100
AcDbArc
 50
180.0
 51
90.0
  0
LINE
  5
82
100
AcDbEntity
100
AcDbLine
  8
0
 62
256
370
-1
 48
1.0
  6
ByLayer
 10
127.71666666666664
 20
-185.00000000000011
 30
0.0
 11
126.61666666666662
 21
-185.00000000000011
 31
0.0
  0
LINE
  5
83
100
AcDbEntity
100
AcDbLine
  8
0
 62
256
370
-1
 48
1.0
  6
ByLayer
 10
126.61666666666662
 20
-185.00000000000011
 30
0.0
 11
126.61666666666662
 21
-189.28000000000009
 31
0.0
  0
LINE
  5
84
100
AcDbEntity
100
AcDbLine
  8
0
 62
256
370
-1
 48
1.0
  6
ByLayer
 10
126.61666666666662
 20
-189.28000000000009
 30
0.0
 11
136.09333333333331
 21
-189.28000000000009
 31
0.0
  0
LINE
  5
85
100
AcDbEntity
100
AcDbLine
  8
0
 62
256
370
-1
 48
1.0
  6
ByLayer
 10
136.09333333333331
 20
-189.28000000000009
 30
0.0
 11
136.09333333333331
 21
-196.0
 31
0.0
  0
LINE
  5
86
100
AcDbEntity
100
AcDbLine
  8
0
 62
256
370
-1
 48
1.0
  6
ByLayer
 10
136.09333333333331
 20
-196.0
 30
0.0
 11
158.34666666666664
 21
-196.0
 31
0.0
  0
LINE
  5
87
100
AcDbEntity
100
AcDbLine
  8
0
 62
256
370
-1
 48
1.0
  6
ByLayer
 10
158.34666666666664
 20
-196.0
 30
0.0
 11
158.34666666666664
 21
-189.28000000000009
 31
0.0
  0
LINE
  5
88
100
AcDbEntity
100
AcDbLine
  8
0
 62
256
370
-1
 48
1.0
  6
ByLayer
 10
158.34666666666664
 20
-189.28000000000009
 30
0.0
 11
167.82333333333332
 21
-189.28000000000009
 31
0.0
  0
LINE
  5
89
100
AcDbEntity
100
AcDbLine
  8
0
 62
256
370
-1
 48
1.0
  6
ByLayer
 10
167.82333333333332
 20
-189.28000000000009
 30
0.0
 11
167.82333333333332
 21
-185.00000000000011
 31
0.0
  0
LINE
  5
8A
100
AcDbEntity
100
AcDbLine
  8
0
 62
256
370
-1
 48
1.0
  6
ByLayer
 10
167.82333333333332
 20
-185.00000000000011
 30
0.0
 11
166.7233333333333
 21
-185.00000000000011
 31
0.0
  0
ARC
  5
8B
100
AcDbEntity
  8
0
 62
256
370
-1
 48
1.0
  6
ByLayer
100
AcDbCircle
 10
166.4733333333333
 20
-185.00000000000011
 30
0.0
 40
0.25
100
AcDbArc
 50
90.0
 51
0.0
  0
LINE
  5
8C
100
AcDbEntity
100
AcDbLine
  8
0
 62
256
370
-1
 48
1.0
  6
ByLayer
 10
166.4733333333333
 20
-184.75000000000011
 30
0.0
 11
166.4733333333333
 21
-182.25
 31
0.0
  0
ARC
  5
8D
100
AcDbEntity
  8
0
 62
256
370
-1
 48
1.0
  6
ByLayer
100
AcDbCircle
 10
166.47333333333336
 20
-182.00000000000006
 30
0.0
 40
0.2499999999999431
100
AcDbArc
 50
360.0
 51
269.99999999998698
  0
LINE
  5
8E
100
AcDbEntity
100
AcDbLine
  8
0
 62
256
370
-1
 48
1.0
  6
ByLayer
 10
166.7233333333333
 20
-182.00000000000011
 30
0.0
 11
167.82333333333332
 21
-182.00000000000011
 31
0.0
  0
LINE
  5
8F
100
AcDbEntity
100
AcDbLine
  8
0
 62
256
370
-1
 48
1.0
  6
ByLayer
 10
167.82333333333332
 20
-182.00000000000011
 30
0.0
 11
167.82333333333332
 21
-180.00000000000011
 31
0.0
  0
LINE
  5
90
100
AcDbEntity
100
AcDbLine
  8
0
 62
256
370
-1
 48
1.0
  6
ByLayer
 10
167.82333333333332
 20
-180.00000000000011
 30
0.0
 11
171.12333333333333
 21
-180.00000000000011
 31
0.0
  0
LINE
  5
91
100
AcDbEntity
100
AcDbLine
  8
0
 62
256
370
-1
 48
1.0
  6
ByLayer
 10
171.12333333333333
 20
-180.00000000000011
 30
0.0
 11
171.12333333333333
 21
-182.00000000000011
 31
0.0
  0
LINE
  5
92
100
AcDbEntity
100
AcDbLine
  8
0
 62
256
370
-1
 48
1.0
  6
ByLayer
 10
171.12333333333333
 20
-182.00000000000011
 30
0.0
 11
172.2233333333333
 21
-182.00000000000011
 31
0.0
  0
ARC
  5
93
100
AcDbEntity
  8
0
 62
256
370
-1
 48
1.0
  6
ByLayer
100
AcDbCircle
 10
172.47333333333324
 20
-182.00000000000006
 30
0.0
 40
0.2499999999999431
100
AcDbArc
 50
270.00000000001302
 51
180.0
  0
LINE
  5
94
100
AcDbEntity
100
AcDbLine
  8
0
 62
256
370
-1
 48
1.0
  6
ByLayer
 10
172.4733333333333
 20
-182.25
 30
0.0
 11
172.4733333333333
 21
-184.75000000000011
 31
0.0
  0
ARC
  5
95
100
AcDbEntity
  8
0
 62
256
370
-1
 48
1.0
  6
ByLayer
100
AcDbCircle
 10
172.4733333333333
 20
-185.00000000000011
 30
0.0
 40
0.25
100
AcDbArc
 50
180.0
 51
90.0
  0
LINE
  5
96
100
AcDbEntity
100
AcDbLine
  8
0
 62
256
370
-1
 48
1.0
  6
ByLayer
 10
172.2233333333333
 20
-185.00000000000011
 30
0.0
 11
171.12333333333333
 21
-185.00000000000011
 31
0.0
  0
LINE
  5
97
100
AcDbEntity
100
AcDbLine
  8
0
 62
256
370
-1
 48
1.0
  6
ByLayer
 10
171.12333333333333
 20
-185.00000000000011
 30
0.0
 11
171.12333333333333
 21
-189.28000000000009
 31
0.0
  0
LINE
  5
98
100
AcDbEntity
100
AcDbLine
  8
0
 62
256
370
-1
 48
1.0
  6
ByLayer
 10
171.12333333333333
 20
-189.28000000000009
 30
0.0
 11
180.60000000000002
 21
-189.28000000000009
 31
0.0
  0
LINE
  5
99
100
AcDbEntity
100
AcDbLine
  8
0
 62
256
370
-1
 48
1.0
  6
ByLayer
 10
180.60000000000002
 20
-189.28000000000009
 30
0.0
 11
180.59999999999997
 21
-182.56000000000009
 31
0.0
  0
LINE
  5
9A
100
AcDbEntity
100
AcDbLine
  8
0
 62
256
370
-1
 48
1.0
  6
ByLayer
 10
180.59999999999997
 20
-182.56000000000009
 30
0.0
 11
187.31999999999994
 21
-182.56000000000009
 31
0.0
  0
LINE
  5
9B
100
AcDbEntity
100
AcDbLine
  8
0
 62
256
370
-1
 48
1.0
  6
ByLayer
 10
187.31999999999994
 20
-182.56000000000009
 30
0.0
 11
187.31999999999994
 21
-196.0
 31
0.0
  0
LINE
  5
9C
100
AcDbEntity
100
AcDbLine
  8
0
 62
256
370
-1
 48
1.0
  6
ByLayer
 10
187.31999999999994
 20
-196.0
 30
0.0
 11
187.20837518972615
 21
-202.39498109763079
 31
0.0
  0
LINE
  5
9D
100
AcDbEntity
100
AcDbLine
  8
0
 62
256
370
-1
 48
1.0
  6
ByLayer
 10
187.20837518972615
 20
-202.39498109763079
 30
0.0
 11
244.44000000000005
 21
-203.39396282464111
 31
0.0
  0
LINE
  5
9E
100
AcDbEntity
100
AcDbLine
  8
0
 62
256
370
-1
 48
1.0
  6
ByLayer
 10
244.44000000000005
 20
-203.39396282464111
 30
0.0
 11
244.43999999999994
 21
-178.22
 31
0.0
  0
LINE
  5
9F
100
AcDbEntity
100
AcDbLine
  8
0
 62
256
370
-1
 48
1.0
  6
ByLayer
 10
244.43999999999994
 20
-178.22
 30
0.0
 11
204.11999999999995
 21
-178.22
 31
0.0
  0
LINE
  5
A0
100
AcDbEntity
100
AcDbLine
  8
0
 62
256
370
-1
 48
1.0
  6
ByLayer
 10
204.11999999999995
 20
-178.22
 30
0.0
 11
204.11999999999995
 21
-171.0
 31
0.0
  0
LINE
  5
A1
100
AcDbEntity
100
AcDbLine
  8
0
 62
256
370
-1
 48
1.0
  6
ByLayer
 10
204.11999999999995
 20
-171.0
 30
0.0
 11
217.56
 21
-171.0
 31
0.0
  0
LINE
  5
A2
100
AcDbEntity
100
AcDbLine
  8
0
 62
256
370
-1
 48
1.0
  6
ByLayer
 10
217.56
 20
-171.0
 30
0.0
 11
217.56
 21
-146.5
 31
0.0
  0
LINE
  5
A3
100
AcDbEntity
100
AcDbLine
  8
0
 62
256
370
-1
 48
1.0
  6
ByLayer
 10
217.56
 20
-146.5
 30
0.0
 11
76.879999999999967
 21
-146.50000000000011
 31
0.0
  0
LINE
  5
A4
100
AcDbEntity
100
AcDbLine
  8
0
 62
256
370
-1
 48
1.0
  6
ByLayer
 10
76.879999999999967
 20
-146.50000000000011
 30
0.0
 11
76.879999999999967
 21
-171.0
 31
0.0
  0
LINE
  5
A5
100
AcDbEntity
100
AcDbLine
  8
0
 62
256
370
-1
 48
1.0
  6
ByLayer
 10
76.879999999999967
 20
-171.0
 30
0.0
 11
90.319999999999993
 21
-171.0
 31
0.0
  0
LINE
  5
A6
100
AcDbEntity
100
AcDbLine
  8
0
 62
256
370
-1
 48
1.0
  6
ByLayer
 10
90.319999999999993
 20
-171.0
 30
0.0
 11
90.319999999999993
 21
-178.22
 31
0.0
  0
ARC
  5
A7
100
AcDbEntity
  8
0
 62
256
370
-1
 48
1.0
  6
ByLayer
100
AcDbCircle
 10
137.21999999999997
 20
-128.7200000000002
 30
0.0
 40
3.0000000000000426
100
AcDbArc
 50
90.0
 51
270.0
  0
LINE
  5
A8
100
AcDbEntity
100
AcDbLine
  8
0
 62
256
370
-1
 48
1.0
  6
ByLayer
 10
137.21999999999997
 20
-131.72000000000023
 30
0.0
 11
157.21999999999997
 21
-131.72000000000014
 31
0.0
  0
ARC
  5
A9
100
AcDbEntity
  8
0
 62
256
370
-1
 48
1.0
  6
ByLayer
100
AcDbCircle
 10
157.21999999999997
 20
-128.72000000000014
 30
0.0
 40
3.0
100
AcDbArc
 50
270.0
 51
90.0
  0
LINE
  5
AA
100
AcDbEntity
100
AcDbLine
  8
0
 62
256
370
-1
 48
1.0
  6
ByLayer
 10
157.21999999999997
 20
-125.72000000000014
 30
0.0
 11
137.21999999999997
 21
-125.72000000000014
 31
0.0
  0
ARC
  5
AB
100
AcDbEntity
  8
0
 62
256
370
-1
 48
1.0
  6
ByLayer
100
AcDbCircle
 10
129.21999999999997
 20
-139.78000000000014
 30
0.0
 40
1.5750000000000028
100
AcDbArc
 50
90.0
 51
270.0
  0
LINE
  5
AC
100
AcDbEntity
100
AcDbLine
  8
0
 62
256
370
-1
 48
1.0
  6
ByLayer
 10
129.21999999999997
 20
-141.35500000000013
 30
0.0
 11
165.21999999999997
 21
-141.35500000000013
 31
0.0
  0
ARC
  5
AD
100
AcDbEntity
  8
0
 62
256
370
-1
 48
1.0
  6
ByLayer
100
AcDbCircle
 10
165.21999999999997
 20
-139.78000000000014
 30
0.0
 40
1.5750000000000028
100
AcDbArc
 50
270.0
 51
90.0
  0
LINE
  5
AE
100
AcDbEntity
100
AcDbLine
  8
0
 62
256
370
-1
 48
1.0
  6
ByLayer
 10
165.21999999999997
 20
-138.20500000000013
 30
0.0
 11
129.21999999999997
 21
-138.20500000000013
 31
0.0
  0
ARC
  5
AF
100
AcDbEntity
  8
0
 62
256
370
-1
 48
1.0
  6
ByLayer
100
AcDbCircle
 10
137.21999999999997
 20
-113.7200000000002
 30
0.0
 40
3.0000000000000497
100
AcDbArc
 50
90.0
 51
270.0
  0
LINE
  5
B0
100
AcDbEntity
100
AcDbLine
  8
0
 62
256
370
-1
 48
1.0
  6
ByLayer
 10
137.21999999999997
 20
-116.72000000000024
 30
0.0
 11
157.21999999999997
 21
-116.72000000000023
 31
0.0
  0
ARC
  5
B1
100
AcDbEntity
  8
0
 62
256
370
-1
 48
1.0
  6
ByLayer
100
AcDbCircle
 10
157.21999999999997
 20
-113.72000000000018
 30
0.0
 40
3.0000000000000426
100
AcDbArc
 50
270.0
 51
90.0
  0
LINE
  5
B2
100
AcDbEntity
100
AcDbLine
  8
0
 62
256
370
-1
 48
1.0
  6
ByLayer
 10
157.21999999999997
 20
-110.72000000000014
 30
0.0
 11
137.21999999999997
 21
-110.72000000000014
 31
0.0
  0
LINE
  5
B3
100
AcDbEntity
100
AcDbLine
  8
0
 62
256
370
-1
 48
1.0
  6
ByLayer
 10
90.319999999999993
 20
-114.7800000000003
 30
0.0
 11
50.0
 21
-114.77999999999992
 31
0.0
  0
LINE
  5
B4
100
AcDbEntity
100
AcDbLine
  8
0
 62
256
370
-1
 48
1.0
  6
ByLayer
 10
50.0
 20
-114.77999999999992
 30
0.0
 11
50.0
 21
-93.00000000000027
 31
0.0
  0
LINE
  5
B5
100
AcDbEntity
100
AcDbLine
  8
0
 62
256
370
-1
 48
1.0
  6
ByLayer
 10
50.0
 20
-93.00000000000027
 30
0.0
 11
107.0328030262604
 21
-92.004488720139037
 31
0.0
  0
LINE
  5
B6
100
AcDbEntity
100
AcDbLine
  8
0
 62
256
370
-1
 48
1.0
  6
ByLayer
 10
107.0328030262604
 20
-92.004488720139037
 30
0.0
 11
107.11999999999996
 21
-97.000000000000256
 31
0.0
  0
LINE
  5
B7
100
AcDbEntity
100
AcDbLine
  8
0
 62
256
370
-1
 48
1.0
  6
ByLayer
 10
107.11999999999996
 20
-97.000000000000256
 30
0.0
 11
107.11999999999998
 21
-110.44000000000015
 31
0.0
  0
LINE
  5
B8
100
AcDbEntity
100
AcDbLine
  8
0
 62
256
370
-1
 48
1.0
  6
ByLayer
 10
107.11999999999998
 20
-110.44000000000015
 30
0.0
 11
113.83999999999997
 21
-110.44000000000015
 31
0.0
  0
LINE
  5
B9
100
AcDbEntity
100
AcDbLine
  8
0
 62
256
370
-1
 48
1.0
  6
ByLayer
 10
113.83999999999997
 20
-110.44000000000015
 30
0.0
 11
113.83999999999997
 21
-103.72000000000014
 31
0.0
  0
LINE
  5
BA
100
AcDbEntity
100
AcDbLine
  8
0
 62
256
370
-1
 48
1.0
  6
ByLayer
 10
113.83999999999997
 20
-103.72000000000014
 30
0.0
 11
123.31666666666661
 21
-103.72000000000014
 31
0.0
  0
LINE
  5
BB
100
AcDbEntity
100
AcDbLine
  8
0
 62
256
370
-1
 48
1.0
  6
ByLayer
 10
123.31666666666661
 20
-103.72000000000014
 30
0.0
 11
123.31666666666661
 21
-108.00000000000013
 31
0.0
  0
LINE
  5
BC
100
AcDbEntity
100
AcDbLine
  8
0
 62
256
370
-1
 48
1.0
  6
ByLayer
 10
123.31666666666661
 20
-108.00000000000013
 30
0.0
 11
122.21666666666664
 21
-108.00000000000011
 31
0.0
  0
ARC
  5
BD
100
AcDbEntity
  8
0
 62
256
370
-1
 48
1.0
  6
ByLayer
100
AcDbCircle
 10
121.96666666666664
 20
-108.00000000000011
 30
0.0
 40
0.2500000000000071
100
AcDbArc
 50
0.0
 51
270.0
  0
LINE
  5
BE
100
AcDbEntity
100
AcDbLine
  8
0
 62
256
370
-1
 48
1.0
  6
ByLayer
 10
121.96666666666664
 20
-108.25000000000013
 30
0.0
 11
121.96666666666664
 21
-110.75000000000023
 31
0.0
  0
ARC
  5
BF
100
AcDbEntity
  8
0
 62
256
370
-1
 48
1.0
  6
ByLayer
100
AcDbCircle
 10
121.9666666666667
 20
-111.00000000000017
 30
0.0
 40
0.2499999999999431
100
AcDbArc
 50
90.000000000013031
 51
0.0
  0
LINE
  5
C0
100
AcDbEntity
100
AcDbLine
  8
0
 62
256
370
-1
 48
1.0
  6
ByLayer
 10
122.21666666666664
 20
-111.00000000000011
 30
0.0
 11
123.31666666666661
 21
-111.00000000000011
 31
0.0
  0
LINE
  5
C1
100
AcDbEntity
100
AcDbLine
  8
0
 62
256
370
-1
 48
1.0
  6
ByLayer
 10
123.31666666666661
 20
-111.00000000000011
 30
0.0
 11
123.31666666666661
 21
-113.00000000000013
 31
0.0
  0
LINE
  5
C2
100
AcDbEntity
100
AcDbLine
  8
0
 62
256
370
-1
 48
1.0
  6
ByLayer
 10
123.31666666666661
 20
-113.00000000000013
 30
0.0
 11
126.61666666666662
 21
-113.00000000000011
 31
0.0
  0
LINE
  5
C3
100
AcDbEntity
100
AcDbLine
  8
0
 62
256
370
-1
 48
1.0
  6
ByLayer
 10
126.61666666666662
 20
-113.00000000000011
 30
0.0
 11
126.61666666666662
 21
-111.00000000000011
 31
0.0
  0
LINE
  5
C4
100
AcDbEntity
100
AcDbLine
  8
0
 62
256
370
-1
 48
1.0
  6
ByLayer
 10
126.61666666666662
 20
-111.00000000000011
 30
0.0
 11
127.71666666666664
 21
-111.00000000000011
 31
0.0
  0
ARC
  5
C5
100
AcDbEntity
  8
0
 62
256
370
-1
 48
1.0
  6
ByLayer
100
AcDbCircle
 10
127.96666666666658
 20
-111.00000000000017
 30
0.0
 40
0.2499999999999431
100
AcDbArc
 50
180.0
 51
89.999999999986969
  0
LINE
  5
C6
100
AcDbEntity
100
AcDbLine
  8
0
 62
256
370
-1
 48
1.0
  6
ByLayer
 10
127.96666666666664
 20
-110.75000000000023
 30
0.0
 11
127.96666666666664
 21
-108.25000000000013
 31
0.0
  0
ARC
  5
C7
100
AcDbEntity
  8
0
 62
256
370
-1
 48
1.0
  6
ByLayer
100
AcDbCircle
 10
127.96666666666664
 20
-108.00000000000013
 30
0.0
 40
0.25
100
AcDbArc
 50
270.0
 51
180.0
  0
LINE
  5
C8
100
AcDbEntity
100
AcDbLine
  8
0
 62
256
370
-1
 48
1.0
  6
ByLayer
 10
127.71666666666664
 20
-108.00000000000013
 30
0.0
 11
126.61666666666662
 21
-108.00000000000011
 31
0.0
  0
LINE
  5
C9
100
AcDbEntity
100
AcDbLine
  8
0
 62
256
370
-1
 48
1.0
  6
ByLayer
 10
126.61666666666662
 20
-108.00000000000011
 30
0.0
 11
126.61666666666662
 21
-103.72000000000014
 31
0.0
  0
LINE
  5
CA
100
AcDbEntity
100
AcDbLine
  8
0
 62
256
370
-1
 48
1.0
  6
ByLayer
 10
126.61666666666662
 20
-103.72000000000014
 30
0.0
 11
136.09333333333331
 21
-103.72000000000014
 31
0.0
  0
LINE
  5
CB
100
AcDbEntity
100
AcDbLine
  8
0
 62
256
370
-1
 48
1.0
  6
ByLayer
 10
136.09333333333331
 20
-103.72000000000014
 30
0.0
 11
136.09333333333331
 21
-97.000000000000227
 31
0.0
  0
LINE
  5
CC
100
AcDbEntity
100
AcDbLine
  8
0
 62
256
370
-1
 48
1.0
  6
ByLayer
 10
136.09333333333331
 20
-97.000000000000227
 30
0.0
 11
158.34666666666664
 21
-97.000000000000227
 31
0.0
  0
LINE
  5
CD
100
AcDbEntity
100
AcDbLine
  8
0
 62
256
370
-1
 48
1.0
  6
ByLayer
 10
158.34666666666664
 20
-97.000000000000227
 30
0.0
 11
158.34666666666664
 21
-103.72000000000014
 31
0.0
  0
LINE
  5
CE
100
AcDbEntity
100
AcDbLine
  8
0
 62
256
370
-1
 48
1.0
  6
ByLayer
 10
158.34666666666664
 20
-103.72000000000014
 30
0.0
 11
167.82333333333332
 21
-103.72000000000013
 31
0.0
  0
LINE
  5
CF
100
AcDbEntity
100
AcDbLine
  8
0
 62
256
370
-1
 48
1.0
  6
ByLayer
 10
167.82333333333332
 20
-103.72000000000013
 30
0.0
 11
167.82333333333332
 21
-108.0000000000001
 31
0.0
  0
LINE
  5
D0
100
AcDbEntity
100
AcDbLine
  8
0
 62
256
370
-1
 48
1.0
  6
ByLayer
 10
167.82333333333332
 20
-108.0000000000001
 30
0.0
 11
166.7233333333333
 21
-108.00000000000011
 31
0.0
  0
ARC
  5
D1
100
AcDbEntity
  8
0
 62
256
370
-1
 48
1.0
  6
ByLayer
100
AcDbCircle
 10
166.4733333333333
 20
-108.00000000000011
 30
0.0
 40
0.25
100
AcDbArc
 50
0.0
 51
270.0
  0
LINE
  5
D2
100
AcDbEntity
100
AcDbLine
  8
0
 62
256
370
-1
 48
1.0
  6
ByLayer
 10
166.4733333333333
 20
-108.25000000000011
 30
0.0
 11
166.4733333333333
 21
-110.75000000000021
 31
0.0
  0
ARC
  5
D3
100
AcDbEntity
  8
0
 62
256
370
-1
 48
1.0
  6
ByLayer
100
AcDbCircle
 10
166.47333333333336
 20
-111.00000000000016
 30
0.0
 40
0.2499999999999431
100
AcDbArc
 50
90.000000000013031
 51
0.0
  0
LINE
  5
D4
100
AcDbEntity
100
AcDbLine
  8
0
 62
256
370
-1
 48
1.0
  6
ByLayer
 10
166.7233333333333
 20
-111.0000000000001
 30
0.0
 11
167.82333333333332
 21
-111.00000000000011
 31
0.0
  0
LINE
  5
D5
100
AcDbEntity
100
AcDbLine
  8
0
 62
256
370
-1
 48
1.0
  6
ByLayer
 10
167.82333333333332
 20
-111.00000000000011
 30
0.0
 11
167.82333333333332
 21
-113.00000000000011
 31
0.0
  0
LINE
  5
D6
100
AcDbEntity
100
AcDbLine
  8
0
 62
256
370
-1
 48
1.0
  6
ByLayer
 10
167.82333333333332
 20
-113.00000000000011
 30
0.0
 11
171.12333333333333
 21
-113.0000000000001
 31
0.0
  0
LINE
  5
D7
100
AcDbEntity
100
AcDbLine
  8
0
 62
256
370
-1
 48
1.0
  6
ByLayer
 10
171.12333333333333
 20
-113.0000000000001
 30
0.0
 11
171.12333333333333
 21
-111.0000000000001
 31
0.0
  0
LINE
  5
D8
100
AcDbEntity
100
AcDbLine
  8
0
 62
256
370
-1
 48
1.0
  6
ByLayer
 10
171.12333333333333
 20
-111.0000000000001
 30
0.0
 11
172.2233333333333
 21
-111.00000000000011
 31
0.0
  0
ARC
  5
D9
100
AcDbEntity
  8
0
 62
256
370
-1
 48
1.0
  6
ByLayer
100
AcDbCircle
 10
172.47333333333324
 20
-111.00000000000017
 30
0.0
 40
0.2499999999999431
100
AcDbArc
 50
180.0
 51
89.999999999986969
  0
LINE
  5
DA
100
AcDbEntity
100
AcDbLine
  8
0
 62
256
370
-1
 48
1.0
  6
ByLayer
 10
172.4733333333333
 20
-110.75000000000023
 30
0.0
 11
172.4733333333333
 21
-108.25000000000011
 31
0.0
  0
ARC
  5
DB
100
AcDbEntity
  8
0
 62
256
370
-1
 48
1.0
  6
ByLayer
100
AcDbCircle
 10
172.4733333333333
 20
-108.00000000000011
 30
0.0
 40
0.25
100
AcDbArc
 50
270.0
 51
180.0
  0
LINE
  5
DC
100
AcDbEntity
100
AcDbLine
  8
0
 62
256
370
-1
 48
1.0
  6
ByLayer
 10
172.2233333333333
 20
-108.00000000000011
 30
0.0
 11
171.12333333333333
 21
-108.0000000000001
 31
0.0
  0
LINE
  5
DD
100
AcDbEntity
100
AcDbLine
  8
0
 62
256
370
-1
 48
1.0
  6
ByLayer
 10
171.12333333333333
 20
-108.0000000000001
 30
0.0
 11
171.12333333333333
 21
-103.72000000000014
 31
0.0
  0
LINE
  5
DE
100
AcDbEntity
100
AcDbLine
  8
0
 62
256
370
-1
 48
1.0
  6
ByLayer
 10
171.12333333333333
 20
-103.72000000000014
 30
0.0
 11
180.60000000000002
 21
-103.72000000000016
 31
0.0
  0
LINE
  5
DF
100
AcDbEntity
100
AcDbLine
  8
0
 62
256
370
-1
 48
1.0
  6
ByLayer
 10
180.60000000000002
 20
-103.72000000000016
 30
0.0
 11
180.59999999999997
 21
-110.44000000000014
 31
0.0
  0
LINE
  5
E0
100
AcDbEntity
100
AcDbLine
  8
0
 62
256
370
-1
 48
1.0
  6
ByLayer
 10
180.59999999999997
 20
-110.44000000000014
 30
0.0
 11
187.31999999999994
 21
-110.44000000000011
 31
0.0
  0
LINE
  5
E1
100
AcDbEntity
100
AcDbLine
  8
0
 62
256
370
-1
 48
1.0
  6
ByLayer
 10
187.31999999999994
 20
-110.44000000000011
 30
0.0
 11
187.31999999999994
 21
-97.000000000000199
 31
0.0
  0
LINE
  5
E2
100
AcDbEntity
100
AcDbLine
  8
0
 62
256
370
-1
 48
1.0
  6
ByLayer
 10
187.31999999999994
 20
-97.000000000000199
 30
0.0
 11
187.20837518972615
 21
-90.605018902369409
 31
0.0
  0
LINE
  5
E3
100
AcDbEntity
100
AcDbLine
  8
0
 62
256
370
-1
 48
1.0
  6
ByLayer
 10
187.20837518972615
 20
-90.605018902369409
 30
0.0
 11
244.44000000000005
 21
-89.606037175359134
 31
0.0
  0
LINE
  5
E4
100
AcDbEntity
100
AcDbLine
  8
0
 62
256
370
-1
 48
1.0
  6
ByLayer
 10
244.44000000000005
 20
-89.606037175359134
 30
0.0
 11
244.43999999999994
 21
-114.77999999999989
 31
0.0
  0
LINE
  5
E5
100
AcDbEntity
100
AcDbLine
  8
0
 62
256
370
-1
 48
1.0
  6
ByLayer
 10
244.43999999999994
 20
-114.77999999999989
 30
0.0
 11
204.11999999999995
 21
-114.78000000000016
 31
0.0
  0
LINE
  5
E6
100
AcDbEntity
100
AcDbLine
  8
0
 62
256
370
-1
 48
1.0
  6
ByLayer
 10
204.11999999999995
 20
-114.78000000000016
 30
0.0
 11
204.11999999999995
 21
-122.00000000000024
 31
0.0
  0
LINE
  5
E7
100
AcDbEntity
100
AcDbLine
  8
0
 62
256
370
-1
 48
1.0
  6
ByLayer
 10
204.11999999999995
 20
-122.00000000000024
 30
0.0
 11
217.56
 21
-122.0000000000003
 31
0.0
  0
LINE
  5
E8
100
AcDbEntity
100
AcDbLine
  8
0
 62
256
370
-1
 48
1.0
  6
ByLayer
 10
217.56
 20
-122.0000000000003
 30
0.0
 11
217.56
 21
-146.50000000000026
 31
0.0
  0
LINE
  5
E9
100
AcDbEntity
100
AcDbLine
  8
0
 62
256
370
-1
 48
1.0
  6
ByLayer
 10
76.879999999999967
 20
-146.50000000000011
 30
0.0
 11
76.879999999999967
 21
-122.00000000000028
 31
0.0
  0
LINE
  5
EA
100
AcDbEntity
100
AcDbLine
  8
0
 62
256
370
-1
 48
1.0
  6
ByLayer
 10
76.879999999999967
 20
-122.00000000000028
 30
0.0
 11
90.319999999999993
 21
-122.00000000000024
 31
0.0
  0
LINE
  5
EB
100
AcDbEntity
100
AcDbLine
  8
0
 62
256
370
-1
 48
1.0
  6
ByLayer
 10
90.319999999999993
 20
-122.00000000000024
 30
0.0
 11
90.319999999999993
 21
-114.7800000000003
 31
0.0
  0
LINE
  5
EC
100
AcDbEntity
100
AcDbLine
  8
0
 62
256
370
-1
 48
1.0
  6
ByLayer
 10
96.09999999999998
 20
-252.14000000000019
 30
0.0
 11
96.09999999999998
 21
-258.14000000000004
 31
0.0
  0
ARC
  5
ED
100
AcDbEntity
  8
0
 62
256
370
-1
 48
1.0
  6
ByLayer
100
AcDbCircle
 10
93.999999999999972
 20
-258.14000000000004
 30
0.0
 40
2.1000000000000014
100
AcDbArc
 50
180.0
 51
0.0
  0
LINE
  5
EE
100
AcDbEntity
100
AcDbLine
  8
0
 62
256
370
-1
 48
1.0
  6
ByLayer
 10
91.899999999999977
 20
-258.14000000000004
 30
0.0
 11
91.899999999999977
 21
-252.14000000000019
 31
0.0
  0
ARC
  5
EF
100
AcDbEntity
  8
0
 62
256
370
-1
 48
1.0
  6
ByLayer
100
AcDbCircle
 10
93.999999999999972
 20
-252.14000000000019
 30
0.0
 40
2.1000000000000014
100
AcDbArc
 50
0.0
 51
180.0
  0
ARC
  5
F0
100
AcDbEntity
  8
0
 62
256
370
-1
 48
1.0
  6
ByLayer
100
AcDbCircle
 10
108.49999999999997
 20
-231.14000000000019
 30
0.0
 40
2.1000000000000014
100
AcDbArc
 50
0.0
 51
180.0
  0
LINE
  5
F1
100
AcDbEntity
100
AcDbLine
  8
0
 62
256
370
-1
 48
1.0
  6
ByLayer
 10
110.59999999999998
 20
-231.14000000000019
 30
0.0
 11
110.59999999999997
 21
-249.64000000000019
 31
0.0
  0
ARC
  5
F2
100
AcDbEntity
  8
0
 62
256
370
-1
 48
1.0
  6
ByLayer
100
AcDbCircle
 10
108.49999999999997
 20
-249.64000000000019
 30
0.0
 40
2.0999999999999943
100
AcDbArc
 50
180.0
 51
0.0
  0
LINE
  5
F3
100
AcDbEntity
100
AcDbLine
  8
0
 62
256
370
-1
 48
1.0
  6
ByLayer
 10
106.39999999999998
 20
-249.64000000000019
 30
0.0
 11
106.39999999999998
 21
-231.14000000000019
 31
0.0
  0
LINE
  5
F4
100
AcDbEntity
100
AcDbLine
  8
0
 62
256
370
-1
 48
1.0
  6
ByLayer
 10
105.0
 20
-289.14000000000016
 30
0.0
 11
127.0
 21
-289.14000000000016
 31
0.0
  0
LINE
  5
F5
100
AcDbEntity
100
AcDbLine
  8
0
 62
256
370
-1
 48
1.0
  6
ByLayer
 10
126.99999999999999
 20
-224.14000000000007
 30
0.0
 11
60.999999999999972
 21
-224.14000000000019
 31
0.0
  0
LINE
  5
F6
100
AcDbEntity
100
AcDbLine
  8
0
 62
256
370
-1
 48
1.0
  6
ByLayer
 10
60.999999999999972
 20
-224.14000000000019
 30
0.0
 11
60.999999999999986
 21
-289.14000000000016
 31
0.0
  0
LINE
  5
F7
100
AcDbEntity
100
AcDbLine
  8
0
 62
256
370
-1
 48
1.0
  6
ByLayer
 10
60.999999999999986
 20
-289.14000000000016
 30
0.0
 11
83.0
 21
-289.14000000000016
 31
0.0
  0
LINE
  5
F8
100
AcDbEntity
100
AcDbLine
  8
0
 62
256
370
-1
 48
1.0
  6
ByLayer
 10
83.0
 20
-289.14000000000016
 30
0.0
 11
83.0
 21
-295.86000000000018
 31
0.0
  0
LINE
  5
F9
100
AcDbEntity
100
AcDbLine
  8
0
 62
256
370
-1
 48
1.0
  6
ByLayer
 10
83.0
 20
-295.86000000000018
 30
0.0
 11
104.99999999999999
 21
-295.86000000000018
 31
0.0
  0
LINE
  5
FA
100
AcDbEntity
100
AcDbLine
  8
0
 62
256
370
-1
 48
1.0
  6
ByLayer
 10
104.99999999999999
 20
-295.86000000000018
 30
0.0
 11
105.0
 21
-289.14000000000016
 31
0.0
  0
LINE
  5
FB
100
AcDbEntity
100
AcDbLine
  8
0
 62
256
370
-1
 48
1.0
  6
ByLayer
 10
162.09999999999999
 20
-252.14000000000007
 30
0.0
 11
162.09999999999999
 21
-258.13999999999993
 31
0.0
  0
ARC
  5
FC
100
AcDbEntity
  8
0
 62
256
370
-1
 48
1.0
  6
ByLayer
100
AcDbCircle
 10
160.0
 20
-258.13999999999993
 30
0.0
 40
2.1000000000000085
100
AcDbArc
 50
180.0
 51
0.0
  0
LINE
  5
FD
100
AcDbEntity
100
AcDbLine
  8
0
 62
256
370
-1
 48
1.0
  6
ByLayer
 10
157.89999999999998
 20
-258.13999999999993
 30
0.0
 11
157.89999999999998
 21
-252.14000000000007
 31
0.0
  0
ARC
  5
FE
100
AcDbEntity
  8
0
 62
256
370
-1
 48
1.0
  6
ByLayer
100
AcDbCircle
 10
160.0
 20
-252.14000000000007
 30
0.0
 40
2.1000000000000085
100
AcDbArc
 50
0.0
 51
180.0
  0
ARC
  5
FF
100
AcDbEntity
  8
0
 62
256
370
-1
 48
1.0
  6
ByLayer
100
AcDbCircle
 10
174.5
 20
-231.14000000000007
 30
0.0
 40
2.1000000000000085
100
AcDbArc
 50
0.0
 51
180.0
  0
LINE
  5
100
100
AcDbEntity
100
AcDbLine
  8
0
 62
256
370
-1
 48
1.0
  6
ByLayer
 10
176.59999999999999
 20
-231.14000000000007
 30
0.0
 11
176.59999999999997
 21
-249.64000000000007
 31
0.0
  0
ARC
  5
101
100
AcDbEntity
  8
0
 62
256
370
-1
 48
1.0
  6
ByLayer
100
AcDbCircle
 10
174.49999999999997
 20
-249.64000000000007
 30
0.0
 40
2.0999999999999943
100
AcDbArc
 50
180.0
 51
0.0
  0
LINE
  5
102
100
AcDbEntity
100
AcDbLine
  8
0
 62
256
370
-1
 48
1.0
  6
ByLayer
 10
172.39999999999998
 20
-249.64000000000007
 30
0.0
 11
172.39999999999998
 21
-231.14000000000007
 31
0.0
  0
LINE
  5
103
100
AcDbEntity
100
AcDbLine
  8
0
 62
256
370
-1
 48
1.0
  6
ByLayer
 10
171.0
 20
-289.14000000000004
 30
0.0
 11
193.0
 21
-289.14000000000004
 31
0.0
  0
LINE
  5
104
100
AcDbEntity
100
AcDbLine
  8
0
 62
256
370
-1
 48
1.0
  6
ByLayer
 10
193.0
 20
-289.14000000000004
 30
0.0
 11
193.0
 21
-224.13999999999996
 31
0.0
  0
LINE
  5
105
100
AcDbEntity
100
AcDbLine
  8
0
 62
256
370
-1
 48
1.0
  6
ByLayer
 10
193.0
 20
-224.13999999999996
 30
0.0
 11
126.99999999999999
 21
-224.14000000000007
 31
0.0
  0
LINE
  5
106
100
AcDbEntity
100
AcDbLine
  8
0
 62
256
370
-1
 48
1.0
  6
ByLayer
 10
126.99999999999999
 20
-224.14000000000007
 30
0.0
 11
127.0
 21
-289.14000000000004
 31
0.0
  0
LINE
  5
107
100
AcDbEntity
100
AcDbLine
  8
0
 62
256
370
-1
 48
1.0
  6
ByLayer
 10
127.0
 20
-289.14000000000004
 30
0.0
 11
149.0
 21
-289.14000000000004
 31
0.0
  0
LINE
  5
108
100
AcDbEntity
100
AcDbLine
  8
0
 62
256
370
-1
 48
1.0
  6
ByLayer
 10
149.0
 20
-289.14000000000004
 30
0.0
 11
149.0
 21
-295.86000000000007
 31
0.0
  0
LINE
  5
109
100
AcDbEntity
100
AcDbLine
  8
0
 62
256
370
-1
 48
1.0
  6
ByLayer
 10
149.0
 20
-295.86000000000007
 30
0.0
 11
171.0
 21
-295.86000000000007
 31
0.0
  0
LINE
  5
10A
100
AcDbEntity
100
AcDbLine
  8
0
 62
256
370
-1
 48
1.0
  6
ByLayer
 10
171.0
 20
-295.86000000000007
 30
0.0
 11
171.0
 21
-289.14000000000004
 31
0.0
  0
ENDSEC
  0
SECTION
  2
OBJECTS
  0
DICTIONARY
  5
C
100
AcDbDictionary
280
0
281
1
  3
ACAD_GROUP
350
D
  3
ACAD_LAYOUT
350
1A
  3
ACAD_MLINESTYLE
350
17
  3
ACAD_PLOTSETTINGS
350
19
  3
ACAD_PLOTSTYLENAME
350
E
  3
AcDbVariableDictionary
350
10B
  3
QCAD_OBJECTS
350
10C
  0
DICTIONARY
  5
D
100
AcDbDictionary
280
0
281
1
  0
ACDBDICTIONARYWDFLT
  5
E
100
AcDbDictionary
281
1
  3
Normal
350
F
100
AcDbDictionaryWithDefault
340
F
  0
ACDBPLACEHOLDER
  5
F
  0
DICTIONARY
  5
17
100
AcDbDictionary
280
0
281
1
  3
Standard
350
18
  0
MLINESTYLE
  5
18
100
AcDbMlineStyle
  2
STANDARD
 70
0
  3

 62
256
 51
90.0
 52
90.0
 71
2
 49
0.5
 62
256
  6
BYLAYER
 49
-0.5
 62
256
  6
BYLAYER
  0
DICTIONARY
  5
19
100
AcDbDictionary
280
0
281
1
  0
DICTIONARY
  5
1A
100
AcDbDictionary
281
1
  3
Layout1
350
1E
  3
Layout2
350
26
  3
Model
350
22
  0
LAYOUT
  5
1E
100
AcDbPlotSettings
  1

  2
none_device
  4

  6

 40
0.0
 41
0.0
 42
0.0
 43
0.0
 44
0.0
 45
0.0
 46
0.0
 47
0.0
 48
0.0
 49
0.0
140
0.0
141
0.0
142
1.0
143
1.0
 70
688
 72
0
 73
0
 74
5
  7

 75
16
147
1.0
148
0.0
149
0.0
100
AcDbLayout
  1
Layout1
 70
1
 71
1
 10
0.0
 20
0.0
 11
420.0
 21
297.0
 12
0.0
 22
0.0
 32
0.0
 14
100000000000000000000.0
 24
100000000000000000000.0
 34
100000000000000000000.0
 15
-100000000000000000000.0
 25
-100000000000000000000.0
 35
-100000000000000000000.0
146
0.0
 13
0.0
 23
0.0
 33
0.0
 16
1.0
 26
0.0
 36
0.0
 17
0.0
 27
1.0
 37
0.0
 76
0
330
1B
  0
LAYOUT
  5
22
100
AcDbPlotSettings
  1

  2
none_device
  4

  6

 40
0.0
 41
0.0
 42
0.0
 43
0.0
 44
0.0
 45
0.0
 46
0.0
 47
0.0
 48
0.0
 49
0.0
140
0.0
141
0.0
142
1.0
143
1.0
 70
1712
 72
0
 73
0
 74
0
  7

 75
0
147
1.0
148
0.0
149
0.0
100
AcDbLayout
  1
Model
 70
1
 71
0
 10
0.0
 20
0.0
 11
12.0
 21
9.0
 12
0.0
 22
0.0
 32
0.0
 14
0.0
 24
0.0
 34
0.0
 15
0.0
 25
0.0
 35
0.0
146
0.0
 13
0.0
 23
0.0
 33
0.0
 16
1.0
 26
0.0
 36
0.0
 17
0.0
 27
1.0
 37
0.0
 76
0
330
1F
  0
LAYOUT
  5
26
100
AcDbPlotSettings
  1

  2
none_device
  4

  6

 40
0.0
 41
0.0
 42
0.0
 43
0.0
 44
0.0
 45
0.0
 46
0.0
 47
0.0
 48
0.0
 49
0.0
140
0.0
141
0.0
142
1.0
143
1.0
 70
688
 72
0
 73
0
 74
5
  7

 75
16
147
1.0
148
0.0
149
0.0
100
AcDbLayout
  1
Layout2
 70
1
 71
2
 10
0.0
 20
0.0
 11
12.0
 21
9.0
 12
0.0
 22
0.0
 32
0.0
 14
0.0
 24
0.0
 34
0.0
 15
0.0
 25
0.0
 35
0.0
146
0.0
 13
0.0
 23
0.0
 33
0.0
 16
1.0
 26
0.0
 36
0.0
 17
0.0
 27
1.0
 37
0.0
 76
0
330
23
  0
DICTIONARY
  5
10B
100
AcDbDictionary
281
1
  3
DIMASSOC
350
10E
  3
HIDETEXT
350
10D
  0
DICTIONARYVAR
  5
10D
100
DictionaryVariables
280
0
  1
2
  0
DICTIONARYVAR
  5
10E
100
DictionaryVariables
280
0
  1
1
  0
DICTIONARY
  5
10C
100
AcDbDictionary
281
1
  3
Grid/DisplayGrid00
350
10F
  3
Grid/DisplayGrid01
350
110
  3
Grid/DisplayGrid02
350
111
  3
Grid/DisplayGrid03
350
112
  3
Grid/GridSpacingX00
350
113
  3
Grid/GridSpacingX01
350
114
  3
Grid/GridSpacingX02
350
115
  3
Grid/GridSpacingX03
350
116
  3
Grid/GridSpacingY00
350
117
  3
Grid/GridSpacingY01
350
118
  3
Grid/GridSpacingY02
350
119
  3
Grid/GridSpacingY03
350
11A
  3
Grid/IsometricGrid00
350
11B
  3
Grid/IsometricGrid01
350
11C
  3
Grid/IsometricGrid02
350
11D
  3
Grid/IsometricGrid03
350
11E
  3
Grid/IsometricProjection00
350
11F
  3
Grid/IsometricProjection01
350
120
  3
Grid/IsometricProjection02
350
121
  3
Grid/IsometricProjection03
350
122
  3
Grid/MetaGridSpacingX00
350
123
  3
Grid/MetaGridSpacingX01
350
124
  3
Grid/MetaGridSpacingX02
350
125
  3
Grid/MetaGridSpacingX03
350
126
  3
Grid/MetaGridSpacingY00
350
127
  3
Grid/MetaGridSpacingY01
350
128
  3
Grid/MetaGridSpacingY02
350
129
  3
Grid/MetaGridSpacingY03
350
12A
  3
MultiPageSettings/Columns
350
12B
  3
MultiPageSettings/GlueMarginsBottom
350
12C
  3
MultiPageSettings/GlueMarginsLeft
350
12D
  3
MultiPageSettings/GlueMarginsRight
350
12E
  3
MultiPageSettings/GlueMarginsTop
350
12F
  3
MultiPageSettings/PrintCropMarks
350
130
  3
MultiPageSettings/Rows
350
131
  3
PageSettings/OffsetX
350
132
  3
PageSettings/OffsetY
350
133
  3
PageSettings/PageOrientation
350
134
  3
PageSettings/PaperHeight
350
135
  3
PageSettings/PaperWidth
350
136
  3
PageSettings/Scale
350
137
  3
PageSettings/ShowPaperBorders
350
138
  3
UnitSettings/PaperUnit
350
139
  0
XRECORD
  5
10F
330
10C
100
AcDbXrecord
280
1
290
1
  0
XRECORD
  5
110
330
10C
100
AcDbXrecord
280
1
290
1
  0
XRECORD
  5
111
330
10C
100
AcDbXrecord
280
1
290
1
  0
XRECORD
  5
112
330
10C
100
AcDbXrecord
280
1
290
1
  0
XRECORD
  5
113
330
10C
100
AcDbXrecord
280
1
1000
auto
  0
XRECORD
  5
114
330
10C
100
AcDbXrecord
280
1
1000
auto
  0
XRECORD
  5
115
330
10C
100
AcDbXrecord
280
1
1000
auto
  0
XRECORD
  5
116
330
10C
100
AcDbXrecord
280
1
1000
auto
  0
XRECORD
  5
117
330
10C
100
AcDbXrecord
280
1
1000
auto
  0
XRECORD
  5
118
330
10C
100
AcDbXrecord
280
1
1000
auto
  0
XRECORD
  5
119
330
10C
100
AcDbXrecord
280
1
1000
auto
  0
XRECORD
  5
11A
330
10C
100
AcDbXrecord
280
1
1000
auto
  0
XRECORD
  5
11B
330
10C
100
AcDbXrecord
280
1
290
0
  0
XRECORD
  5
11C
330
10C
100
AcDbXrecord
280
1
290
0
  0
XRECORD
  5
11D
330
10C
100
AcDbXrecord
280
1
290
0
  0
XRECORD
  5
11E
330
10C
100
AcDbXrecord
280
1
290
0
  0
XRECORD
  5
11F
330
10C
100
AcDbXrecord
280
1
 90
0
  0
XRECORD
  5
120
330
10C
100
AcDbXrecord
280
1
 90
0
  0
XRECORD
  5
121
330
10C
100
AcDbXrecord
280
1
 90
0
  0
XRECORD
  5
122
330
10C
100
AcDbXrecord
280
1
 90
0
  0
XRECORD
  5
123
330
10C
100
AcDbXrecord
280
1
1000
auto
  0
XRECORD
  5
124
330
10C
100
AcDbXrecord
280
1
1000
auto
  0
XRECORD
  5
125
330
10C
100
AcDbXrecord
280
1
1000
auto
  0
XRECORD
  5
126
330
10C
100
AcDbXrecord
280
1
1000
auto
  0
XRECORD
  5
127
330
10C
100
AcDbXrecord
280
1
1000
auto
  0
XRECORD
  5
128
330
10C
100
AcDbXrecord
280
1
1000
auto
  0
XRECORD
  5
129
330
10C
100
AcDbXrecord
280
1
1000
auto
  0
XRECORD
  5
12A
330
10C
100
AcDbXrecord
280
1
1000
auto
  0
XRECORD
  5
12B
330
10C
100
AcDbXrecord
280
1
 90
1
  0
XRECORD
  5
12C
330
10C
100
AcDbXrecord
280
1
 40
10.0
  0
XRECORD
  5
12D
330
10C
100
AcDbXrecord
280
1
 40
10.0
  0
XRECORD
  5
12E
330
10C
100
AcDbXrecord
280
1
 40
10.0
  0
XRECORD
  5
12F
330
10C
100
AcDbXrecord
280
1
 40
10.0
  0
XRECORD
  5
130
330
10C
100
AcDbXrecord
280
1
290
0
  0
XRECORD
  5
131
330
10C
100
AcDbXrecord
280
1
 90
1
  0
XRECORD
  5
132
330
10C
100
AcDbXrecord
280
1
 40
0.0
  0
XRECORD
  5
133
330
10C
100
AcDbXrecord
280
1
 40
0.0
  0
XRECORD
  5
134
330
10C
100
AcDbXrecord
280
1
1000
Portrait
  0
XRECORD
  5
135
330
10C
100
AcDbXrecord
280
1
 40
297.0
  0
XRECORD
  5
136
330
10C
100
AcDbXrecord
280
1
 40
210.0
  0
XRECORD
  5
137
330
10C
100
AcDbXrecord
280
1
1000
1:1
  0
XRECORD
  5
138
330
10C
100
AcDbXrecord
280
1
290
1
  0
XRECORD
  5
139
330
10C
100
AcDbXrecord
280
1
 90
4
  0
ENDSEC
  0
EOF
