999
dxflib 3.7.5.0
  0
SECTION
  2
HEADER
  9
$ACADVER
  1
AC1015
  9
$HANDSEED
  5
FFFF
  9
$ANGBASE
 50
0.0
  9
$ATTMODE
 70
1
  9
$AUNITS
 70
0
  9
$AUPREC
 70
0
  9
$CELTSCALE
 40
1.0
  9
$CHAMFERA
 40
0.0
  9
$CHAMFERB
 40
0.0
  9
$CHAMFERC
 40
0.0
  9
$CHAMFERD
 40
0.0
  9
$CMLJUST
 70
0
  9
$CMLSCALE
 40
1.0
  9
$DIMADEC
 70
0
  9
$DIMALTD
 70
2
  9
$DIMALTF
 40
25.399999999999999
  9
$DIMALTRND
 40
0.0
  9
$DIMALTTD
 70
2
  9
$DIMALTTZ
 70
0
  9
$DIMALTU
 70
2
  9
$DIMALTZ
 70
0
  9
$DIMAPOST
  1

  9
$DIMASZ
 40
2.5
  9
$DIMATFIT
 70
3
  9
$DIMAUNIT
 70
0
  9
$DIMAZIN
 70
2
  9
$DIMCEN
 40
0.09
  9
$DIMDEC
 70
4
  9
$DIMDLE
 40
0.0
  9
$DIMDLI
 40
0.38
  9
$DIMDSEP
 70
46
  9
$DIMEXE
 40
1.25
  9
$DIMEXO
 40
0.625
  9
$DIMFRAC
 70
0
  9
$DIMGAP
 40
0.625
  9
$DIMJUST
 70
0
  9
$DIMLFAC
 40
1.0
  9
$DIMLUNIT
 70
2
  9
$DIMLWD
 70
-2
  9
$DIMLWE
 70
-2
  9
$DIMPOST
  1

  9
$DIMRND
 40
0.0
  9
$DIMSCALE
 40
1.0
  9
$DIMTAD
 70
0
  9
$DIMTDEC
 70
4
  9
$DIMTFAC
 40
1.0
  9
$DIMTM
 40
0.0
  9
$DIMTOLJ
 70
1
  9
$DIMTP
 40
0.0
  9
$DIMTSZ
 40
0.0
  9
$DIMTVP
 40
0.0
  9
$DIMTXT
 40
2.5
  9
$DIMTZIN
 70
0
  9
$DIMZIN
 70
8
  9
$DWGCODEPAGE
  3
ANSI_1252
  9
$ELEVATION
 40
0.0
  9
$EXTMAX
 10
-100000000000000000000.0
 20
-100000000000000000000.0
 30
-100000000000000000000.0
  9
$EXTMIN
 10
100000000000000000000.0
 20
100000000000000000000.0
 30
100000000000000000000.0
  9
$FILLETRAD
 40
0.5
  9
$INSBASE
 10
0.0
 20
0.0
 30
0.0
  9
$INSUNITS
 70
4
  9
$LIMMAX
 10
12.0
 20
9.0
  9
$LIMMIN
 10
0.0
 20
0.0
  9
$LTSCALE
 40
1
  9
$LUNITS
 70
2
  9
$LUPREC
 70
4
  9
$MAXACTVP
 70
2
  9
$PDMODE
 70
0
  9
$PDSIZE
 40
0.0
  9
$PELEVATION
 40
0.0
  9
$PEXTMAX
 10
-100000000000000000000.0
 20
-100000000000000000000.0
 30
-100000000000000000000.0
  9
$PEXTMIN
 10
100000000000000000000.0
 20
100000000000000000000.0
 30
100000000000000000000.0
  9
$PINSBASE
 10
0.0
 20
0.0
 30
0.0
  9
$PLIMMAX
 10
12.0
 20
9.0
  9
$PLIMMIN
 10
0.0
 20
0.0
  9
$PLINEWID
 40
0.0
  9
$PROXYGRAPHICS
 70
1
  9
$PUCSORG
 10
0.0
 20
0.0
 30
0.0
  9
$PUCSXDIR
 10
1.0
 20
0.0
 30
0.0
  9
$PUCSYDIR
 10
0.0
 20
1.0
 30
0.0
  9
$SHADEDGE
 70
3
  9
$SHADEDIF
 70
70
  9
$SKETCHINC
 40
0.1
  9
$SPLINESEGS
 70
8
  9
$SPLINETYPE
 70
6
  9
$SURFTAB1
 70
6
  9
$SURFTAB2
 70
6
  9
$SURFTYPE
 70
6
  9
$SURFU
 70
6
  9
$SURFV
 70
6
  9
$TEXTSIZE
 40
2.5
  9
$THICKNESS
 40
0.0
  9
$TRACEWID
 40
0.05
  9
$TREEDEPTH
 70
3020
  9
$UCSORG
 10
0.0
 20
0.0
 30
0.0
  9
$UCSXDIR
 10
1.0
 20
0.0
 30
0.0
  9
$UCSYDIR
 10
0.0
 20
1.0
 30
0.0
  9
$UNITMODE
 70
0
  9
$USERI1
 70
0
  9
$USERI2
 70
0
  9
$USERI3
 70
0
  9
$USERI4
 70
0
  9
$USERI5
 70
0
  9
$USERR1
 40
0.0
  9
$USERR2
 40
0.0
  9
$USERR3
 40
0.0
  9
$USERR4
 40
0.0
  9
$USERR5
 40
0.0
  0
ENDSEC
  0
SECTION
  2
TABLES
  0
TABLE
  2
VPORT
  5
8
100
AcDbSymbolTable
 70
1
  0
VPORT
  5
30
100
AcDbSymbolTableRecord
100
AcDbViewportTableRecord
  2
*Active
 70
0
 10
0.0
 20
0.0
 11
1.0
 21
1.0
 12
286.30555555555549
 22
148.5
 13
0.0
 23
0.0
 14
10.0
 24
10.0
 15
10.0
 25
10.0
 16
0.0
 26
0.0
 36
1.0
 17
0.0
 27
0.0
 37
0.0
 40
297.0
 41
1.92798353909465
 42
50.0
 43
0.0
 44
0.0
 50
0.0
 51
0.0
 71
0
 72
100
 73
1
 74
3
 75
1
 76
1
 77
0
 78
0
281
0
 65
1
110
0.0
120
0.0
130
0.0
111
1.0
121
0.0
131
0.0
112
0.0
122
1.0
132
0.0
 79
0
146
0.0
  0
ENDTAB
  0
TABLE
  2
LTYPE
  5
5
100
AcDbSymbolTable
 70
41
  0
LTYPE
  5
16
100
AcDbSymbolTableRecord
100
AcDbLinetypeTableRecord
  2
Continuous
 70
0
  3
Solid line
 72
65
 73
0
 40
0.0
  0
LTYPE
  5
31
100
AcDbSymbolTableRecord
100
AcDbLinetypeTableRecord
  2
ACAD_ISO15W100
 70
0
  3
ISO double-dash triple-dot __ __ . . . __ __ . .
 72
65
 73
10
 40
39.000000000000007
 49
12.0
 74
0
 49
-3.0
 74
0
 49
12.0
 74
0
 49
-2.9500000000000002
 74
0
 49
0.1
 74
0
 49
-2.9000000000000004
 74
0
 49
0.1
 74
0
 49
-2.9000000000000004
 74
0
 49
0.1
 74
0
 49
-2.9500000000000002
 74
0
  0
LTYPE
  5
32
100
AcDbSymbolTableRecord
100
AcDbLinetypeTableRecord
  2
DIVIDE
 70
0
  3
Divide ____ . . ____ . . ____ . . ____ . . ____
 72
65
 73
6
 40
31.750000000000004
 49
12.699999999999999
 74
0
 49
-6.2999999999999998
 74
0
 49
0.1
 74
0
 49
-6.25
 74
0
 49
0.1
 74
0
 49
-6.2999999999999998
 74
0
  0
LTYPE
  5
33
100
AcDbSymbolTableRecord
100
AcDbLinetypeTableRecord
  2
ACAD_ISO10W100
 70
0
  3
ISO dash dot __ . __ . __ . __ . __ . __ . __ . 
 72
65
 73
4
 40
18.0
 49
12.0
 74
0
 49
-2.9500000000000002
 74
0
 49
0.1
 74
0
 49
-2.9500000000000002
 74
0
  0
LTYPE
  5
34
100
AcDbSymbolTableRecord
100
AcDbLinetypeTableRecord
  2
ACAD_ISO04W100
 70
0
  3
ISO long-dash dot ____ . ____ . ____ . ____ . _
 72
65
 73
4
 40
30.0
 49
24.0
 74
0
 49
-2.9500000000000002
 74
0
 49
0.1
 74
0
 49
-2.9500000000000002
 74
0
  0
LTYPE
  5
35
100
AcDbSymbolTableRecord
100
AcDbLinetypeTableRecord
  2
CENTER2
 70
0
  3
Center (.5x) ___ _ ___ _ ___ _ ___ _ ___ _ ___
 72
65
 73
4
 40
28.575000000000003
 49
19.050000000000001
 74
0
 49
-3.1749999999999998
 74
0
 49
3.1749999999999998
 74
0
 49
-3.1749999999999998
 74
0
  0
LTYPE
  5
36
100
AcDbSymbolTableRecord
100
AcDbLinetypeTableRecord
  2
ACAD_ISO11W100
 70
0
  3
ISO double-dash dot __ __ . __ __ . __ __ . __ _
 72
65
 73
6
 40
33.0
 49
12.0
 74
0
 49
-3.0
 74
0
 49
12.0
 74
0
 49
-2.9500000000000002
 74
0
 49
0.1
 74
0
 49
-2.9500000000000002
 74
0
  0
LTYPE
  5
37
100
AcDbSymbolTableRecord
100
AcDbLinetypeTableRecord
  2
HIDDEN2
 70
0
  3
Hidden (.5x) _ _ _ _ _ _ _ _ _ _ _ _ _ _ _ _ _ 
 72
65
 73
2
 40
4.7624999999999993
 49
3.1749999999999998
 74
0
 49
-1.5874999999999999
 74
0
  0
LTYPE
  5
38
100
AcDbSymbolTableRecord
100
AcDbLinetypeTableRecord
  2
BORDERX2
 70
0
  3
Border (2x) ____  ____  .  ____  ____  .  ___
 72
65
 73
6
 40
88.899999999999977
 49
25.399999999999999
 74
0
 49
-12.699999999999999
 74
0
 49
25.399999999999999
 74
0
 49
-12.649999999999999
 74
0
 49
0.1
 74
0
 49
-12.649999999999999
 74
0
  0
LTYPE
  5
39
100
AcDbSymbolTableRecord
100
AcDbLinetypeTableRecord
  2
ACAD_ISO05W100
 70
0
  3
ISO long-dash double-dot ____ .. ____ .. ____ . 
 72
65
 73
6
 40
33.000000000000007
 49
24.0
 74
0
 49
-2.9500000000000002
 74
0
 49
0.1
 74
0
 49
-2.9000000000000004
 74
0
 49
0.1
 74
0
 49
-2.9500000000000002
 74
0
  0
LTYPE
  5
3A
100
AcDbSymbolTableRecord
100
AcDbLinetypeTableRecord
  2
DASHDOTX2
 70
0
  3
Dash dot (2x) ____  .  ____  .  ____  .  ___
 72
65
 73
4
 40
50.799999999999997
 49
25.399999999999999
 74
0
 49
-12.649999999999999
 74
0
 49
0.1
 74
0
 49
-12.649999999999999
 74
0
  0
LTYPE
  5
3B
100
AcDbSymbolTableRecord
100
AcDbLinetypeTableRecord
  2
HIDDENX2
 70
0
  3
Hidden (2x) ____ ____ ____ ____ ____ ____ ____ 
 72
65
 73
2
 40
19.049999999999997
 49
12.699999999999999
 74
0
 49
-6.3499999999999996
 74
0
  0
LTYPE
  5
3C
100
AcDbSymbolTableRecord
100
AcDbLinetypeTableRecord
  2
CENTERX2
 70
0
  3
Center (2x) ________  __  ________  __  _____
 72
65
 73
4
 40
101.60000000000001
 49
63.5
 74
0
 49
-12.699999999999999
 74
0
 49
12.699999999999999
 74
0
 49
-12.699999999999999
 74
0
  0
LTYPE
  5
3D
100
AcDbSymbolTableRecord
100
AcDbLinetypeTableRecord
  2
BORDER2
 70
0
  3
Border (.5x) __.__.__.__.__.__.__.__.__.__.__.
 72
65
 73
6
 40
22.225000000000001
 49
6.3499999999999996
 74
0
 49
-3.1749999999999998
 74
0
 49
6.3499999999999996
 74
0
 49
-3.125
 74
0
 49
0.1
 74
0
 49
-3.125
 74
0
  0
LTYPE
  5
3E
100
AcDbSymbolTableRecord
100
AcDbLinetypeTableRecord
  2
DASHDOT2
 70
0
  3
Dash dot (.5x) _._._._._._._._._._._._._._._.
 72
65
 73
4
 40
12.699999999999999
 49
6.3499999999999996
 74
0
 49
-3.125
 74
0
 49
0.1
 74
0
 49
-3.125
 74
0
  0
LTYPE
  5
3F
100
AcDbSymbolTableRecord
100
AcDbLinetypeTableRecord
  2
ACAD_ISO12W100
 70
0
  3
ISO dash double-dot __ . . __ . . __ . . __ . . 
 72
65
 73
6
 40
21.0
 49
12.0
 74
0
 49
-2.9500000000000002
 74
0
 49
0.1
 74
0
 49
-2.9000000000000004
 74
0
 49
0.1
 74
0
 49
-2.9500000000000002
 74
0
  0
LTYPE
  5
40
100
AcDbSymbolTableRecord
100
AcDbLinetypeTableRecord
  2
ACAD_ISO07W100
 70
0
  3
ISO dot . . . . . . . . . . . . . . . . . . . . 
 72
65
 73
2
 40
3.0
 49
0.1
 74
0
 49
-2.8999999999999999
 74
0
  0
LTYPE
  5
41
100
AcDbSymbolTableRecord
100
AcDbLinetypeTableRecord
  2
HIDDEN
 70
0
  3
Hidden __ __ __ __ __ __ __ __ __ __ __ __ __ __
 72
65
 73
2
 40
9.5249999999999986
 49
6.3499999999999996
 74
0
 49
-3.1749999999999998
 74
0
  0
LTYPE
  5
42
100
AcDbSymbolTableRecord
100
AcDbLinetypeTableRecord
  2
ACAD_ISO06W100
 70
0
  3
ISO long-dash triple-dot ____ ... ____ ... ____
 72
65
 73
8
 40
36.000000000000007
 49
24.0
 74
0
 49
-2.9500000000000002
 74
0
 49
0.1
 74
0
 49
-2.9000000000000004
 74
0
 49
0.1
 74
0
 49
-2.9000000000000004
 74
0
 49
0.1
 74
0
 49
-2.9500000000000002
 74
0
  0
LTYPE
  5
43
100
AcDbSymbolTableRecord
100
AcDbLinetypeTableRecord
  2
CENTER
 70
0
  3
Center ____ _ ____ _ ____ _ ____ _ ____ _ ____
 72
65
 73
4
 40
50.800000000000004
 49
31.75
 74
0
 49
-6.3499999999999996
 74
0
 49
6.3499999999999996
 74
0
 49
-6.3499999999999996
 74
0
  0
LTYPE
  5
44
100
AcDbSymbolTableRecord
100
AcDbLinetypeTableRecord
  2
DOTX2
 70
0
  3
Dot (2x) .  .  .  .  .  .  .  .  .  .  .  .  .  .
 72
65
 73
2
 40
12.699999999999999
 49
0.1
 74
0
 49
-12.6
 74
0
  0
LTYPE
  5
45
100
AcDbSymbolTableRecord
100
AcDbLinetypeTableRecord
  2
PHANTOM
 70
0
  3
Phantom ______  __  __  ______  __  __  ______ 
 72
65
 73
6
 40
63.500000000000007
 49
31.75
 74
0
 49
-6.3499999999999996
 74
0
 49
6.3499999999999996
 74
0
 49
-6.3499999999999996
 74
0
 49
6.3499999999999996
 74
0
 49
-6.3499999999999996
 74
0
  0
LTYPE
  5
46
100
AcDbSymbolTableRecord
100
AcDbLinetypeTableRecord
  2
ACAD_ISO08W100
 70
0
  3
ISO long-dash short-dash ____ __ ____ __ ____ _
 72
65
 73
4
 40
36.0
 49
24.0
 74
0
 49
-3.0
 74
0
 49
6.0
 74
0
 49
-3.0
 74
0
  0
LTYPE
  5
47
100
AcDbSymbolTableRecord
100
AcDbLinetypeTableRecord
  2
DASHEDX2
 70
0
  3
Dashed (2x) ____  ____  ____  ____  ____  ___
 72
65
 73
2
 40
38.099999999999994
 49
25.399999999999999
 74
0
 49
-12.699999999999999
 74
0
  0
LTYPE
  5
48
100
AcDbSymbolTableRecord
100
AcDbLinetypeTableRecord
  2
ACAD_ISO02W100
 70
0
  3
ISO dash __ __ __ __ __ __ __ __ __ __ __ __ __
 72
65
 73
2
 40
15.0
 49
12.0
 74
0
 49
-3.0
 74
0
  0
LTYPE
  5
49
100
AcDbSymbolTableRecord
100
AcDbLinetypeTableRecord
  2
PHANTOM2
 70
0
  3
Phantom (.5x) ___ _ _ ___ _ _ ___ _ _ ___ _ _
 72
65
 73
6
 40
31.750000000000004
 49
15.875
 74
0
 49
-3.1749999999999998
 74
0
 49
3.1749999999999998
 74
0
 49
-3.1749999999999998
 74
0
 49
3.1749999999999998
 74
0
 49
-3.1749999999999998
 74
0
  0
LTYPE
  5
4A
100
AcDbSymbolTableRecord
100
AcDbLinetypeTableRecord
  2
DASHED2
 70
0
  3
Dashed (.5x) _ _ _ _ _ _ _ _ _ _ _ _ _ _ _ _ _ 
 72
65
 73
2
 40
9.5249999999999986
 49
6.3499999999999996
 74
0
 49
-3.1749999999999998
 74
0
  0
LTYPE
  5
4B
100
AcDbSymbolTableRecord
100
AcDbLinetypeTableRecord
  2
ACAD_ISO09W100
 70
0
  3
ISO long-dash double-short-dash ____ __ __ ____
 72
65
 73
6
 40
45.0
 49
24.0
 74
0
 49
-3.0
 74
0
 49
6.0
 74
0
 49
-3.0
 74
0
 49
6.0
 74
0
 49
-3.0
 74
0
  0
LTYPE
  5
4C
100
AcDbSymbolTableRecord
100
AcDbLinetypeTableRecord
  2
ACAD_ISO13W100
 70
0
  3
ISO double-dash double-dot __ __ . . __ __ . . _
 72
65
 73
8
 40
36.000000000000007
 49
12.0
 74
0
 49
-3.0
 74
0
 49
12.0
 74
0
 49
-2.9500000000000002
 74
0
 49
0.1
 74
0
 49
-2.9000000000000004
 74
0
 49
0.1
 74
0
 49
-2.9500000000000002
 74
0
  0
LTYPE
  5
4D
100
AcDbSymbolTableRecord
100
AcDbLinetypeTableRecord
  2
DOT2
 70
0
  3
Dot (.5x) ........................................
 72
65
 73
2
 40
3.1749999999999998
 49
0.1
 74
0
 49
-3.0749999999999997
 74
0
  0
LTYPE
  5
4E
100
AcDbSymbolTableRecord
100
AcDbLinetypeTableRecord
  2
DASHED
 70
0
  3
Dashed __ __ __ __ __ __ __ __ __ __ __ __ __ _
 72
65
 73
2
 40
19.049999999999997
 49
12.699999999999999
 74
0
 49
-6.3499999999999996
 74
0
  0
LTYPE
  5
4F
100
AcDbSymbolTableRecord
100
AcDbLinetypeTableRecord
  2
ACAD_ISO14W100
 70
0
  3
ISO dash triple-dot __ . . . __ . . . __ . . . _
 72
65
 73
8
 40
24.000000000000004
 49
12.0
 74
0
 49
-2.9500000000000002
 74
0
 49
0.1
 74
0
 49
-2.9000000000000004
 74
0
 49
0.1
 74
0
 49
-2.9000000000000004
 74
0
 49
0.1
 74
0
 49
-2.9500000000000002
 74
0
  0
LTYPE
  5
50
100
AcDbSymbolTableRecord
100
AcDbLinetypeTableRecord
  2
PHANTOMX2
 70
0
  3
Phantom (2x) ____________    ____    ____   _
 72
65
 73
6
 40
127.00000000000001
 49
63.5
 74
0
 49
-12.699999999999999
 74
0
 49
12.699999999999999
 74
0
 49
-12.699999999999999
 74
0
 49
12.699999999999999
 74
0
 49
-12.699999999999999
 74
0
  0
LTYPE
  5
14
100
AcDbSymbolTableRecord
100
AcDbLinetypeTableRecord
  2
BYBLOCK
 70
0
  3

 72
65
 73
0
 40
0.0
  0
LTYPE
  5
51
100
AcDbSymbolTableRecord
100
AcDbLinetypeTableRecord
  2
DIVIDEX2
 70
0
  3
Divide (2x) ________  .  .  ________  .  .  _
 72
65
 73
6
 40
63.5
 49
25.399999999999999
 74
0
 49
-12.649999999999999
 74
0
 49
0.1
 74
0
 49
-12.599999999999998
 74
0
 49
0.1
 74
0
 49
-12.649999999999999
 74
0
  0
LTYPE
  5
52
100
AcDbSymbolTableRecord
100
AcDbLinetypeTableRecord
  2
BORDER
 70
0
  3
Border __ __ . __ __ . __ __ . __ __ . __ __ .
 72
65
 73
6
 40
44.449999999999996
 49
12.699999999999999
 74
0
 49
-6.3499999999999996
 74
0
 49
12.699999999999999
 74
0
 49
-6.2999999999999998
 74
0
 49
0.1
 74
0
 49
-6.2999999999999998
 74
0
  0
LTYPE
  5
53
100
AcDbSymbolTableRecord
100
AcDbLinetypeTableRecord
  2
DIVIDE2
 70
0
  3
Divide (.5x) __..__..__..__..__..__..__..__.._
 72
65
 73
6
 40
15.874999999999998
 49
6.3499999999999996
 74
0
 49
-3.125
 74
0
 49
0.1
 74
0
 49
-3.0750000000000002
 74
0
 49
0.1
 74
0
 49
-3.125
 74
0
  0
LTYPE
  5
54
100
AcDbSymbolTableRecord
100
AcDbLinetypeTableRecord
  2
DOT
 70
0
  3
Dot . . . . . . . . . . . . . . . . . . . . . . . .
 72
65
 73
2
 40
6.3499999999999996
 49
0.1
 74
0
 49
-6.25
 74
0
  0
LTYPE
  5
55
100
AcDbSymbolTableRecord
100
AcDbLinetypeTableRecord
  2
DASHDOT
 70
0
  3
Dash dot __ . __ . __ . __ . __ . __ . __ . __
 72
65
 73
4
 40
25.400000000000002
 49
12.699999999999999
 74
0
 49
-6.2999999999999998
 74
0
 49
0.1
 74
0
 49
-6.2999999999999998
 74
0
  0
LTYPE
  5
56
100
AcDbSymbolTableRecord
100
AcDbLinetypeTableRecord
  2
ACAD_ISO03W100
 70
0
  3
ISO dash space __    __    __    __    __    __
 72
65
 73
2
 40
30.0
 49
12.0
 74
0
 49
-18.0
 74
0
  0
LTYPE
  5
15
100
AcDbSymbolTableRecord
100
AcDbLinetypeTableRecord
  2
ByLayer
 70
0
  3

 72
65
 73
0
 40
0.0
  0
ENDTAB
  0
TABLE
  2
LAYER
  5
2
100
AcDbSymbolTable
 70
1
  0
LAYER
  5
10
100
AcDbSymbolTableRecord
100
AcDbLayerTableRecord
  2
0
 70
0
 62
7
420
16777215
  6
Continuous
370
25
390
F
  0
ENDTAB
  0
TABLE
  2
STYLE
  5
3
100
AcDbSymbolTable
 70
1
  0
STYLE
  5
57
100
AcDbSymbolTableRecord
100
AcDbTextStyleTableRecord
  2
Standard
 70
0
 40
0.0
 41
1.0
 50
0.0
 71
0
 42
2.5
  3

  4

1001
ACAD
1000
txt
1071
0
  0
ENDTAB
  0
TABLE
  2
VIEW
  5
6
100
AcDbSymbolTable
 70
0
  0
ENDTAB
  0
TABLE
  2
UCS
  5
7
100
AcDbSymbolTable
 70
0
  0
ENDTAB
  0
TABLE
  2
APPID
  5
9
100
AcDbSymbolTable
 70
1
  0
APPID
  5
12
100
AcDbSymbolTableRecord
100
AcDbRegAppTableRecord
  2
ACAD
 70
0
  0
APPID
  5
58
100
AcDbSymbolTableRecord
100
AcDbRegAppTableRecord
  2
QCAD
 70
0
  0
ENDTAB
  0
TABLE
  2
DIMSTYLE
  5
A
100
AcDbSymbolTable
 70
1
100
AcDbDimStyleTable
 71
0
  0
DIMSTYLE
105
27
100
AcDbSymbolTableRecord
100
AcDbDimStyleTableRecord
  2
Standard
 41
2.5
 42
0.625
 43
3.75
 44
1.25
 70
0
 73
0
 74
0
 77
1
 78
8
140
2.5
141
2.5
143
0.03937007874016
147
0.625
171
3
172
1
271
2
272
2
274
3
278
44
283
0
284
8
340
57
  0
ENDTAB
  0
TABLE
  2
BLOCK_RECORD
  5
1
100
AcDbSymbolTable
 70
1
  0
BLOCK_RECORD
  5
1F
100
AcDbSymbolTableRecord
100
AcDbBlockTableRecord
  2
*Model_Space
340
22
  0
BLOCK_RECORD
  5
1B
100
AcDbSymbolTableRecord
100
AcDbBlockTableRecord
  2
*Paper_Space
340
1E
  0
BLOCK_RECORD
  5
23
100
AcDbSymbolTableRecord
100
AcDbBlockTableRecord
  2
*Paper_Space0
340
26
  0
ENDTAB
  0
ENDSEC
  0
SECTION
  2
BLOCKS
  0
BLOCK
  5
20
100
AcDbEntity
  8
0
100
AcDbBlockBegin
  2
*Model_Space
 70
0
 10
0.0
 20
0.0
 30
0.0
  3
*Model_Space
  1

  0
ENDBLK
  5
21
100
AcDbEntity
  8
0
100
AcDbBlockEnd
  0
BLOCK
  5
1C
100
AcDbEntity
 67
1
  8
0
100
AcDbBlockBegin
  2
*Paper_Space
 70
0
 10
0.0
 20
0.0
 30
0.0
  3
*Paper_Space
  1

  0
ENDBLK
  5
1D
100
AcDbEntity
 67
1
  8
0
100
AcDbBlockEnd
  0
BLOCK
  5
24
100
AcDbEntity
  8
0
100
AcDbBlockBegin
  2
*Paper_Space0
 70
0
 10
0.0
 20
0.0
 30
0.0
  3
*Paper_Space0
  1

  0
ENDBLK
  5
25
100
AcDbEntity
  8
0
100
AcDbBlockEnd
  0
ENDSEC
  0
SECTION
  2
ENTITIES
  0
CIRCLE
  5
59
100
AcDbEntity
100
AcDbCircle
  8
0
 62
256
370
-1
 48
1.0
  6
ByLayer
 10
-136.99999999999994
 20
-115.00000000000043
 30
0.0
 40
2.0
  0
CIRCLE
  5
5A
100
AcDbEntity
100
AcDbCircle
  8
0
 62
256
370
-1
 48
1.0
  6
ByLayer
 10
-55.999999999999986
 20
-34.000000000000426
 30
0.0
 40
2.0
  0
CIRCLE
  5
5B
100
AcDbEntity
100
AcDbCircle
  8
0
 62
256
370
-1
 48
1.0
  6
ByLayer
 10
-146.99999999999994
 20
-125.00000000000043
 30
0.0
 40
1.5750000000000051
  0
CIRCLE
  5
5C
100
AcDbEntity
100
AcDbCircle
  8
0
 62
256
370
-1
 48
1.0
  6
ByLayer
 10
-45.999999999999986
 20
-24.000000000000426
 30
0.0
 40
1.5750000000000051
  0
CIRCLE
  5
5D
100
AcDbEntity
100
AcDbCircle
  8
0
 62
256
370
-1
 48
1.0
  6
ByLayer
 10
-147.0
 20
-24.000000000000426
 30
0.0
 40
1.5750000000000051
  0
CIRCLE
  5
5E
100
AcDbEntity
100
AcDbCircle
  8
0
 62
256
370
-1
 48
1.0
  6
ByLayer
 10
-45.999999999999986
 20
-125.00000000000043
 30
0.0
 40
1.5750000000000051
  0
CIRCLE
  5
5F
100
AcDbEntity
100
AcDbCircle
  8
0
 62
256
370
-1
 48
1.0
  6
ByLayer
 10
-137.0
 20
-34.000000000000426
 30
0.0
 40
2.0
  0
CIRCLE
  5
60
100
AcDbEntity
100
AcDbCircle
  8
0
 62
256
370
-1
 48
1.0
  6
ByLayer
 10
-55.999999999999986
 20
-115.00000000000043
 30
0.0
 40
2.0
  0
CIRCLE
  5
61
100
AcDbEntity
100
AcDbCircle
  8
0
 62
256
370
-1
 48
1.0
  6
ByLayer
 10
125.0000000000002
 20
-125.00000000000006
 30
0.0
 40
4.0
  0
CIRCLE
  5
62
100
AcDbEntity
100
AcDbCircle
  8
0
 62
256
370
-1
 48
1.0
  6
ByLayer
 10
135.0000000000002
 20
-34.000000000000057
 30
0.0
 40
2.0
  0
CIRCLE
  5
63
100
AcDbEntity
100
AcDbCircle
  8
0
 62
256
370
-1
 48
1.0
  6
ByLayer
 10
135.0000000000002
 20
-135.00000000000006
 30
0.0
 40
2.0
  0
CIRCLE
  5
64
100
AcDbEntity
100
AcDbCircle
  8
0
 62
256
370
-1
 48
1.0
  6
ByLayer
 10
34.000000000000199
 20
-135.00000000000006
 30
0.0
 40
2.0
  0
CIRCLE
  5
65
100
AcDbEntity
100
AcDbCircle
  8
0
 62
256
370
-1
 48
1.0
  6
ByLayer
 10
34.000000000000199
 20
-34.0
 30
0.0
 40
2.0
  0
CIRCLE
  5
66
100
AcDbEntity
100
AcDbCircle
  8
0
 62
256
370
-1
 48
1.0
  6
ByLayer
 10
44.000000000000199
 20
-125.00000000000006
 30
0.0
 40
4.0
  0
CIRCLE
  5
67
100
AcDbEntity
100
AcDbCircle
  8
0
 62
256
370
-1
 48
1.0
  6
ByLayer
 10
44.000000000000199
 20
-44.000000000000028
 30
0.0
 40
4.0
  0
CIRCLE
  5
68
100
AcDbEntity
100
AcDbCircle
  8
0
 62
256
370
-1
 48
1.0
  6
ByLayer
 10
145.5000000000002
 20
-99.78000000000003
 30
0.0
 40
2.0
  0
CIRCLE
  5
69
100
AcDbEntity
100
AcDbCircle
  8
0
 62
256
370
-1
 48
1.0
  6
ByLayer
 10
125.0000000000002
 20
-44.000000000000057
 30
0.0
 40
4.0
  0
CIRCLE
  5
6A
100
AcDbEntity
100
AcDbCircle
  8
0
 62
256
370
-1
 48
1.0
  6
ByLayer
 10
-101.49999999999991
 20
3.49999999999973
 30
0.0
 40
2.6249999999999969
  0
CIRCLE
  5
6B
100
AcDbEntity
100
AcDbCircle
  8
0
 62
256
370
-1
 48
1.0
  6
ByLayer
 10
-184.49999999999991
 20
-79.500000000000171
 30
0.0
 40
2.6249999999999969
  0
CIRCLE
  5
6C
100
AcDbEntity
100
AcDbCircle
  8
0
 62
256
370
-1
 48
1.0
  6
ByLayer
 10
-184.49999999999991
 20
-162.50000000000017
 30
0.0
 40
2.6249999999999969
  0
CIRCLE
  5
6D
100
AcDbEntity
100
AcDbCircle
  8
0
 62
256
370
-1
 48
1.0
  6
ByLayer
 10
-18.499999999999858
 20
-162.50000000000006
 30
0.0
 40
2.6249999999999969
  0
CIRCLE
  5
6E
100
AcDbEntity
100
AcDbCircle
  8
0
 62
256
370
-1
 48
1.0
  6
ByLayer
 10
-101.49999999999991
 20
-162.50000000000014
 30
0.0
 40
2.6249999999999969
  0
CIRCLE
  5
6F
100
AcDbEntity
100
AcDbCircle
  8
0
 62
256
370
-1
 48
1.0
  6
ByLayer
 10
-18.499999999999943
 20
-79.500000000000171
 30
0.0
 40
2.6249999999999969
  0
CIRCLE
  5
70
100
AcDbEntity
100
AcDbCircle
  8
0
 62
256
370
-1
 48
1.0
  6
ByLayer
 10
-18.499999999999915
 20
3.5000000000000062
 30
0.0
 40
2.6249999999999969
  0
CIRCLE
  5
71
100
AcDbEntity
100
AcDbCircle
  8
0
 62
256
370
-1
 48
1.0
  6
ByLayer
 10
-184.49999999999991
 20
3.4999999999998259
 30
0.0
 40
2.6249999999999969
  0
CIRCLE
  5
72
100
AcDbEntity
100
AcDbCircle
  8
0
 62
256
370
-1
 48
1.0
  6
ByLayer
 10
79.500000000000199
 20
3.4999999999996732
 30
0.0
 40
2.6249999999999969
  0
CIRCLE
  5
73
100
AcDbEntity
100
AcDbCircle
  8
0
 62
256
370
-1
 48
1.0
  6
ByLayer
 10
-3.4999999999998019
 20
-79.500000000000227
 30
0.0
 40
2.6249999999999969
  0
CIRCLE
  5
74
100
AcDbEntity
100
AcDbCircle
  8
0
 62
256
370
-1
 48
1.0
  6
ByLayer
 10
-3.4999999999998028
 20
-162.50000000000023
 30
0.0
 40
2.6249999999999969
  0
CIRCLE
  5
75
100
AcDbEntity
100
AcDbCircle
  8
0
 62
256
370
-1
 48
1.0
  6
ByLayer
 10
162.50000000000026
 20
-162.50000000000011
 30
0.0
 40
2.6249999999999969
  0
CIRCLE
  5
76
100
AcDbEntity
100
AcDbCircle
  8
0
 62
256
370
-1
 48
1.0
  6
ByLayer
 10
79.500000000000199
 20
-162.5000000000002
 30
0.0
 40
2.6249999999999969
  0
CIRCLE
  5
77
100
AcDbEntity
100
AcDbCircle
  8
0
 62
256
370
-1
 48
1.0
  6
ByLayer
 10
162.50000000000017
 20
-79.500000000000227
 30
0.0
 40
2.6249999999999969
  0
CIRCLE
  5
78
100
AcDbEntity
100
AcDbCircle
  8
0
 62
256
370
-1
 48
1.0
  6
ByLayer
 10
162.5000000000002
 20
3.4999999999999494
 30
0.0
 40
2.6249999999999969
  0
CIRCLE
  5
79
100
AcDbEntity
100
AcDbCircle
  8
0
 62
256
370
-1
 48
1.0
  6
ByLayer
 10
-3.4999999999998037
 20
3.4999999999997691
 30
0.0
 40
2.6249999999999969
  0
LINE
  5
7A
100
AcDbEntity
100
AcDbLine
  8
0
 62
256
370
-1
 48
1.0
  6
ByLayer
 10
-25.999999999999943
 20
-4.0000000000004015
 30
0.0
 11
-25.999999999999858
 21
-155.00000000000006
 31
0.0
  0
LINE
  5
7B
100
AcDbEntity
100
AcDbLine
  8
0
 62
256
370
-1
 48
1.0
  6
ByLayer
 10
-25.999999999999858
 20
-155.00000000000006
 30
0.0
 11
-176.99999999999997
 21
-155.00000000000017
 31
0.0
  0
LINE
  5
7C
100
AcDbEntity
100
AcDbLine
  8
0
 62
256
370
-1
 48
1.0
  6
ByLayer
 10
-176.99999999999997
 20
-155.00000000000017
 30
0.0
 11
-176.99999999999991
 21
-4.0000000000001066
 31
0.0
  0
LINE
  5
7D
100
AcDbEntity
100
AcDbLine
  8
0
 62
256
370
-1
 48
1.0
  6
ByLayer
 10
-176.99999999999991
 20
-4.0000000000001066
 30
0.0
 11
-25.999999999999943
 21
-4.0000000000004015
 31
0.0
  0
LINE
  5
7E
100
AcDbEntity
100
AcDbLine
  8
0
 62
256
370
-1
 48
1.0
  6
ByLayer
 10
-10.999999999999915
 20
10.999999999999842
 30
0.0
 11
-192.00000000000003
 21
10.999999999999886
 31
0.0
  0
LINE
  5
7F
100
AcDbEntity
100
AcDbLine
  8
0
 62
256
370
-1
 48
1.0
  6
ByLayer
 10
-192.00000000000003
 20
10.999999999999886
 30
0.0
 11
-191.99999999999991
 21
-170.0000000000002
 31
0.0
  0
LINE
  5
80
100
AcDbEntity
100
AcDbLine
  8
0
 62
256
370
-1
 48
1.0
  6
ByLayer
 10
-191.99999999999991
 20
-170.0000000000002
 30
0.0
 11
-10.999999999999858
 21
-170.00000000000003
 31
0.0
  0
LINE
  5
81
100
AcDbEntity
100
AcDbLine
  8
0
 62
256
370
-1
 48
1.0
  6
ByLayer
 10
155.00000000000017
 20
-4.0000000000004583
 30
0.0
 11
155.00000000000026
 21
-155.00000000000011
 31
0.0
  0
LINE
  5
82
100
AcDbEntity
100
AcDbLine
  8
0
 62
256
370
-1
 48
1.0
  6
ByLayer
 10
155.00000000000026
 20
-155.00000000000011
 30
0.0
 11
4.000000000000151
 21
-155.00000000000023
 31
0.0
  0
LINE
  5
83
100
AcDbEntity
100
AcDbLine
  8
0
 62
256
370
-1
 48
1.0
  6
ByLayer
 10
4.000000000000151
 20
-155.00000000000023
 30
0.0
 11
4.0000000000002025
 21
-4.0000000000001634
 31
0.0
  0
LINE
  5
84
100
AcDbEntity
100
AcDbLine
  8
0
 62
256
370
-1
 48
1.0
  6
ByLayer
 10
4.0000000000002025
 20
-4.0000000000001634
 30
0.0
 11
155.00000000000017
 21
-4.0000000000004583
 31
0.0
  0
LINE
  5
85
100
AcDbEntity
100
AcDbLine
  8
0
 62
256
370
-1
 48
1.0
  6
ByLayer
 10
170.0000000000002
 20
10.999999999999785
 30
0.0
 11
-10.999999999999915
 21
10.999999999999829
 31
0.0
  0
LINE
  5
86
100
AcDbEntity
100
AcDbLine
  8
0
 62
256
370
-1
 48
1.0
  6
ByLayer
 10
-10.999999999999915
 20
10.999999999999829
 30
0.0
 11
-10.999999999999787
 21
-170.00000000000026
 31
0.0
  0
LINE
  5
87
100
AcDbEntity
100
AcDbLine
  8
0
 62
256
370
-1
 48
1.0
  6
ByLayer
 10
-10.999999999999787
 20
-170.00000000000026
 30
0.0
 11
170.00000000000026
 21
-170.00000000000009
 31
0.0
  0
LINE
  5
88
100
AcDbEntity
100
AcDbLine
  8
0
 62
256
370
-1
 48
1.0
  6
ByLayer
 10
170.00000000000026
 20
-170.00000000000009
 30
0.0
 11
170.0000000000002
 21
10.999999999999785
 31
0.0
  0
LINE
  5
89
100
AcDbEntity
100
AcDbLine
  8
0
 62
256
370
-1
 48
1.0
  6
ByLayer
 10
-96.499999999999957
 20
-44.500000000000426
 30
0.0
 11
-137.0
 21
-4.0000000000004832
 31
0.0
  0
LINE
  5
8A
100
AcDbEntity
100
AcDbLine
  8
0
 62
256
370
-1
 48
1.0
  6
ByLayer
 10
-166.99999999999997
 20
-4.0000000000004263
 30
0.0
 11
-167.00000000000003
 21
-34.000000000000426
 31
0.0
  0
LINE
  5
8B
100
AcDbEntity
100
AcDbLine
  8
0
 62
256
370
-1
 48
1.0
  6
ByLayer
 10
-167.00000000000003
 20
-34.000000000000426
 30
0.0
 11
-126.49999999999999
 21
-74.500000000000426
 31
0.0
  0
LINE
  5
8C
100
AcDbEntity
100
AcDbLine
  8
0
 62
256
370
-1
 48
1.0
  6
ByLayer
 10
-126.49999999999999
 20
-74.500000000000426
 30
0.0
 11
-166.99999999999997
 21
-115.00000000000048
 31
0.0
  0
LINE
  5
8D
100
AcDbEntity
100
AcDbLine
  8
0
 62
256
370
-1
 48
1.0
  6
ByLayer
 10
-166.99999999999997
 20
-115.00000000000048
 30
0.0
 11
-166.99999999999997
 21
-130.00000000000043
 31
0.0
  0
LINE
  5
8E
100
AcDbEntity
100
AcDbLine
  8
0
 62
256
370
-1
 48
1.0
  6
ByLayer
 10
-166.99999999999997
 20
-130.00000000000043
 30
0.0
 11
-161.99999999999997
 21
-130.00000000000043
 31
0.0
  0
ARC
  5
8F
100
AcDbEntity
  8
0
 62
256
370
-1
 48
1.0
  6
ByLayer
100
AcDbCircle
 10
-162.0
 20
-140.00000000000043
 30
0.0
 40
9.999999999999984
100
AcDbArc
 50
0.0
 51
89.999999999999815
  0
LINE
  5
90
100
AcDbEntity
100
AcDbLine
  8
0
 62
256
370
-1
 48
1.0
  6
ByLayer
 10
-152.0
 20
-140.00000000000043
 30
0.0
 11
-152.0
 21
-145.00000000000043
 31
0.0
  0
LINE
  5
91
100
AcDbEntity
100
AcDbLine
  8
0
 62
256
370
-1
 48
1.0
  6
ByLayer
 10
-152.0
 20
-145.00000000000043
 30
0.0
 11
-136.99999999999994
 21
-145.00000000000037
 31
0.0
  0
LINE
  5
92
100
AcDbEntity
100
AcDbLine
  8
0
 62
256
370
-1
 48
1.0
  6
ByLayer
 10
-136.99999999999994
 20
-145.00000000000037
 30
0.0
 11
-96.499999999999929
 21
-104.50000000000043
 31
0.0
  0
LINE
  5
93
100
AcDbEntity
100
AcDbLine
  8
0
 62
256
370
-1
 48
1.0
  6
ByLayer
 10
-96.499999999999929
 20
-104.50000000000043
 30
0.0
 11
-55.999999999999986
 21
-145.00000000000043
 31
0.0
  0
LINE
  5
94
100
AcDbEntity
100
AcDbLine
  8
0
 62
256
370
-1
 48
1.0
  6
ByLayer
 10
-55.999999999999986
 20
-145.00000000000043
 30
0.0
 11
-25.999999999999986
 21
-145.00000000000043
 31
0.0
  0
LINE
  5
95
100
AcDbEntity
100
AcDbLine
  8
0
 62
256
370
-1
 48
1.0
  6
ByLayer
 10
-25.999999999999986
 20
-115.00000000000048
 30
0.0
 11
-66.499999999999986
 21
-74.500000000000426
 31
0.0
  0
LINE
  5
96
100
AcDbEntity
100
AcDbLine
  8
0
 62
256
370
-1
 48
1.0
  6
ByLayer
 10
-66.499999999999986
 20
-74.500000000000426
 30
0.0
 11
-25.999999999999972
 21
-34.000000000000369
 31
0.0
  0
LINE
  5
97
100
AcDbEntity
100
AcDbLine
  8
0
 62
256
370
-1
 48
1.0
  6
ByLayer
 10
-56.000000000000014
 20
-4.0000000000004263
 30
0.0
 11
-96.499999999999957
 21
-44.500000000000426
 31
0.0
  0
LINE
  5
98
100
AcDbEntity
100
AcDbLine
  8
0
 62
256
370
-1
 48
1.0
  6
ByLayer
 10
29.000000000000199
 20
-14.000000000000028
 30
0.0
 11
29.000000000000199
 21
-19.000000000000057
 31
0.0
  0
ARC
  5
99
100
AcDbEntity
  8
0
 62
256
370
-1
 48
1.0
  6
ByLayer
100
AcDbCircle
 10
19.000000000000199
 20
-19.000000000000057
 30
0.0
 40
10.0
100
AcDbArc
 50
270.0
 51
0.0
  0
LINE
  5
9A
100
AcDbEntity
100
AcDbLine
  8
0
 62
256
370
-1
 48
1.0
  6
ByLayer
 10
19.000000000000199
 20
-29.000000000000057
 30
0.0
 11
14.000000000000199
 21
-29.000000000000057
 31
0.0
  0
LINE
  5
9B
100
AcDbEntity
100
AcDbLine
  8
0
 62
256
370
-1
 48
1.0
  6
ByLayer
 10
14.000000000000199
 20
-29.000000000000057
 30
0.0
 11
14.000000000000199
 21
-155.00000000000006
 31
0.0
  0
LINE
  5
9C
100
AcDbEntity
100
AcDbLine
  8
0
 62
256
370
-1
 48
1.0
  6
ByLayer
 10
155.0000000000002
 20
-14.000000000000057
 30
0.0
 11
29.000000000000199
 21
-14.000000000000028
 31
0.0
  0
CIRCLE
  5
9D
100
AcDbEntity
100
AcDbCircle
  8
0
 62
256
370
-1
 48
1.0
  6
ByLayer
 10
128.8579254461493
 20
104.99999999999987
 30
0.0
 40
1.9999999999999989
  0
CIRCLE
  5
9E
100
AcDbEntity
100
AcDbCircle
  8
0
 62
256
370
-1
 48
1.0
  6
ByLayer
 10
128.8579254461493
 20
120.99999999999989
 30
0.0
 40
1.9999999999999989
  0
CIRCLE
  5
9F
100
AcDbEntity
100
AcDbCircle
  8
0
 62
256
370
-1
 48
1.0
  6
ByLayer
 10
117.79792544614929
 20
112.99999999999986
 30
0.0
 40
1.575000000000004
  0
CIRCLE
  5
A0
100
AcDbEntity
100
AcDbCircle
  8
0
 62
256
370
-1
 48
1.0
  6
ByLayer
 10
102.79792544614929
 20
112.99999999999986
 30
0.0
 40
1.574999999999996
  0
CIRCLE
  5
A1
100
AcDbEntity
100
AcDbCircle
  8
0
 62
256
370
-1
 48
1.0
  6
ByLayer
 10
128.8579254461493
 20
128.99999999999986
 30
0.0
 40
1.9999999999999989
  0
CIRCLE
  5
A2
100
AcDbEntity
100
AcDbCircle
  8
0
 62
256
370
-1
 48
1.0
  6
ByLayer
 10
128.8579254461493
 20
144.99999999999986
 30
0.0
 40
1.9999999999999989
  0
CIRCLE
  5
A3
100
AcDbEntity
100
AcDbCircle
  8
0
 62
256
370
-1
 48
1.0
  6
ByLayer
 10
117.79792544614929
 20
136.99999999999986
 30
0.0
 40
1.575000000000004
  0
CIRCLE
  5
A4
100
AcDbEntity
100
AcDbCircle
  8
0
 62
256
370
-1
 48
1.0
  6
ByLayer
 10
102.79792544614929
 20
136.99999999999986
 30
0.0
 40
1.574999999999996
  0
CIRCLE
  5
A5
100
AcDbEntity
100
AcDbCircle
  8
0
 62
256
370
-1
 48
1.0
  6
ByLayer
 10
128.8579254461493
 20
152.99999999999986
 30
0.0
 40
1.9999999999999989
  0
CIRCLE
  5
A6
100
AcDbEntity
100
AcDbCircle
  8
0
 62
256
370
-1
 48
1.0
  6
ByLayer
 10
128.8579254461493
 20
168.99999999999986
 30
0.0
 40
1.9999999999999989
  0
CIRCLE
  5
A7
100
AcDbEntity
100
AcDbCircle
  8
0
 62
256
370
-1
 48
1.0
  6
ByLayer
 10
117.79792544614929
 20
160.99999999999986
 30
0.0
 40
1.575000000000004
  0
CIRCLE
  5
A8
100
AcDbEntity
100
AcDbCircle
  8
0
 62
256
370
-1
 48
1.0
  6
ByLayer
 10
102.79792544614929
 20
160.99999999999986
 30
0.0
 40
1.574999999999996
  0
CIRCLE
  5
A9
100
AcDbEntity
100
AcDbCircle
  8
0
 62
256
370
-1
 48
1.0
  6
ByLayer
 10
131.73792544614943
 20
71.119999999999749
 30
0.0
 40
2.0000000000000071
  0
CIRCLE
  5
AA
100
AcDbEntity
100
AcDbCircle
  8
0
 62
256
370
-1
 48
1.0
  6
ByLayer
 10
131.73792544614932
 20
16.879999999999743
 30
0.0
 40
2.0000000000000071
  0
CIRCLE
  5
AB
100
AcDbEntity
100
AcDbCircle
  8
0
 62
256
370
-1
 48
1.0
  6
ByLayer
 10
128.8579254461493
 20
80.999999999999886
 30
0.0
 40
1.9999999999999989
  0
CIRCLE
  5
AC
100
AcDbEntity
100
AcDbCircle
  8
0
 62
256
370
-1
 48
1.0
  6
ByLayer
 10
128.8579254461493
 20
96.999999999999901
 30
0.0
 40
1.9999999999999989
  0
CIRCLE
  5
AD
100
AcDbEntity
100
AcDbCircle
  8
0
 62
256
370
-1
 48
1.0
  6
ByLayer
 10
117.79792544614929
 20
88.999999999999886
 30
0.0
 40
1.575000000000004
  0
CIRCLE
  5
AE
100
AcDbEntity
100
AcDbCircle
  8
0
 62
256
370
-1
 48
1.0
  6
ByLayer
 10
102.79792544614929
 20
88.999999999999872
 30
0.0
 40
1.574999999999996
  0
CIRCLE
  5
AF
100
AcDbEntity
100
AcDbCircle
  8
0
 62
256
370
-1
 48
1.0
  6
ByLayer
 10
-15.702074553850764
 20
137.0
 30
0.0
 40
4.0
  0
CIRCLE
  5
B0
100
AcDbEntity
100
AcDbCircle
  8
0
 62
256
370
-1
 48
1.0
  6
ByLayer
 10
-15.702074553850764
 20
55.999999999999993
 30
0.0
 40
4.0
  0
CIRCLE
  5
B1
100
AcDbEntity
100
AcDbCircle
  8
0
 62
256
370
-1
 48
1.0
  6
ByLayer
 10
-5.702074553850764
 20
147.0
 30
0.0
 40
2.0
  0
CIRCLE
  5
B2
100
AcDbEntity
100
AcDbCircle
  8
0
 62
256
370
-1
 48
1.0
  6
ByLayer
 10
-5.702074553850764
 20
45.999999999999993
 30
0.0
 40
2.0
  0
CIRCLE
  5
B3
100
AcDbEntity
100
AcDbCircle
  8
0
 62
256
370
-1
 48
1.0
  6
ByLayer
 10
-106.70207455385076
 20
45.999999999999993
 30
0.0
 40
2.0
  0
CIRCLE
  5
B4
100
AcDbEntity
100
AcDbCircle
  8
0
 62
256
370
-1
 48
1.0
  6
ByLayer
 10
-106.70207455385076
 20
147.00000000000006
 30
0.0
 40
2.0
  0
CIRCLE
  5
B5
100
AcDbEntity
100
AcDbCircle
  8
0
 62
256
370
-1
 48
1.0
  6
ByLayer
 10
-96.702074553850764
 20
55.999999999999993
 30
0.0
 40
4.0
  0
CIRCLE
  5
B6
100
AcDbEntity
100
AcDbCircle
  8
0
 62
256
370
-1
 48
1.0
  6
ByLayer
 10
-96.702074553850764
 20
137.00000000000003
 30
0.0
 40
4.0
  0
CIRCLE
  5
B7
100
AcDbEntity
100
AcDbCircle
  8
0
 62
256
370
-1
 48
1.0
  6
ByLayer
 10
4.797925446149236
 20
81.220000000000027
 30
0.0
 40
2.0
  0
CIRCLE
  5
B8
100
AcDbEntity
100
AcDbCircle
  8
0
 62
256
370
-1
 48
1.0
  6
ByLayer
 10
42.297925446149179
 20
101.49999999999999
 30
0.0
 40
4.0
  0
CIRCLE
  5
B9
100
AcDbEntity
100
AcDbCircle
  8
0
 62
256
370
-1
 48
1.0
  6
ByLayer
 10
42.297925446149179
 20
85.500000000000099
 30
0.0
 40
3.2000000000000002
  0
CIRCLE
  5
BA
100
AcDbEntity
100
AcDbCircle
  8
0
 62
256
370
-1
 48
1.0
  6
ByLayer
 10
42.297925446149179
 20
117.49999999999966
 30
0.0
 40
3.2000000000000002
  0
CIRCLE
  5
BB
100
AcDbEntity
100
AcDbCircle
  8
0
 62
256
370
-1
 48
1.0
  6
ByLayer
 10
-61.202074553850821
 20
18.499999999999964
 30
0.0
 40
2.6249999999999969
  0
CIRCLE
  5
BC
100
AcDbEntity
100
AcDbCircle
  8
0
 62
256
370
-1
 48
1.0
  6
ByLayer
 10
21.797925446149179
 20
101.49999999999993
 30
0.0
 40
2.6249999999999969
  0
CIRCLE
  5
BD
100
AcDbEntity
100
AcDbCircle
  8
0
 62
256
370
-1
 48
1.0
  6
ByLayer
 10
21.797925446149165
 20
184.5
 30
0.0
 40
2.6249999999999969
  0
CIRCLE
  5
BE
100
AcDbEntity
100
AcDbCircle
  8
0
 62
256
370
-1
 48
1.0
  6
ByLayer
 10
-144.20207455385085
 20
184.49999999999991
 30
0.0
 40
2.6249999999999969
  0
CIRCLE
  5
BF
100
AcDbEntity
100
AcDbCircle
  8
0
 62
256
370
-1
 48
1.0
  6
ByLayer
 10
-61.202074553850835
 20
184.5
 30
0.0
 40
2.6249999999999969
  0
CIRCLE
  5
C0
100
AcDbEntity
100
AcDbCircle
  8
0
 62
256
370
-1
 48
1.0
  6
ByLayer
 10
-144.20207455385082
 20
101.49999999999996
 30
0.0
 40
2.6249999999999969
  0
CIRCLE
  5
C1
100
AcDbEntity
100
AcDbCircle
  8
0
 62
256
370
-1
 48
1.0
  6
ByLayer
 10
-144.20207455385082
 20
18.499999999999936
 30
0.0
 40
2.6249999999999969
  0
CIRCLE
  5
C2
100
AcDbEntity
100
AcDbCircle
  8
0
 62
256
370
-1
 48
1.0
  6
ByLayer
 10
21.797925446149179
 20
18.499999999999993
 30
0.0
 40
2.6249999999999969
  0
CIRCLE
  5
C3
100
AcDbEntity
100
AcDbCircle
  8
0
 62
256
370
-1
 48
1.0
  6
ByLayer
 10
-164.70207455385082
 20
101.49999999999999
 30
0.0
 40
4.0
  0
CIRCLE
  5
C4
100
AcDbEntity
100
AcDbCircle
  8
0
 62
256
370
-1
 48
1.0
  6
ByLayer
 10
-164.70207455385082
 20
85.500000000000128
 30
0.0
 40
3.2000000000000002
  0
CIRCLE
  5
C5
100
AcDbEntity
100
AcDbCircle
  8
0
 62
256
370
-1
 48
1.0
  6
ByLayer
 10
-164.70207455385082
 20
117.49999999999962
 30
0.0
 40
3.2000000000000002
  0
LINE
  5
C6
100
AcDbEntity
100
AcDbLine
  8
0
 62
256
370
-1
 48
1.0
  6
ByLayer
 10
14.297925446149222
 20
25.999999999999936
 30
0.0
 11
14.297925446149193
 21
177.0
 31
0.0
  0
LINE
  5
C7
100
AcDbEntity
100
AcDbLine
  8
0
 62
256
370
-1
 48
1.0
  6
ByLayer
 10
14.297925446149193
 20
177.0
 30
0.0
 11
-136.70207455385085
 21
176.99999999999991
 31
0.0
  0
LINE
  5
C8
100
AcDbEntity
100
AcDbLine
  8
0
 62
256
370
-1
 48
1.0
  6
ByLayer
 10
-136.70207455385085
 20
176.99999999999991
 30
0.0
 11
-136.70207455385082
 21
25.999999999999936
 31
0.0
  0
LINE
  5
C9
100
AcDbEntity
100
AcDbLine
  8
0
 62
256
370
-1
 48
1.0
  6
ByLayer
 10
-136.70207455385082
 20
25.999999999999936
 30
0.0
 11
14.297925446149222
 21
25.999999999999936
 31
0.0
  0
LINE
  5
CA
100
AcDbEntity
100
AcDbLine
  8
0
 62
256
370
-1
 48
1.0
  6
ByLayer
 10
29.297925446149179
 20
158.39999999999998
 30
0.0
 11
32.447925446149199
 21
158.39999999999995
 31
0.0
  0
LINE
  5
CB
100
AcDbEntity
100
AcDbLine
  8
0
 62
256
370
-1
 48
1.0
  6
ByLayer
 10
32.447925446149199
 20
158.39999999999995
 30
0.0
 11
32.447925446149142
 21
175.20000000000002
 31
0.0
  0
LINE
  5
CC
100
AcDbEntity
100
AcDbLine
  8
0
 62
256
370
-1
 48
1.0
  6
ByLayer
 10
32.447925446149142
 20
175.20000000000002
 30
0.0
 11
29.297925446149122
 21
175.20000000000005
 31
0.0
  0
LINE
  5
CD
100
AcDbEntity
100
AcDbLine
  8
0
 62
256
370
-1
 48
1.0
  6
ByLayer
 10
29.297925446149122
 20
175.20000000000005
 30
0.0
 11
29.297925446149179
 21
158.39999999999998
 31
0.0
  0
LINE
  5
CE
100
AcDbEntity
100
AcDbLine
  8
0
 62
256
370
-1
 48
1.0
  6
ByLayer
 10
-154.85207455385083
 20
158.39999999999995
 30
0.0
 11
-151.70207455385085
 21
158.39999999999992
 31
0.0
  0
LINE
  5
CF
100
AcDbEntity
100
AcDbLine
  8
0
 62
256
370
-1
 48
1.0
  6
ByLayer
 10
-151.70207455385085
 20
158.39999999999992
 30
0.0
 11
-151.70207455385082
 21
175.19999999999999
 31
0.0
  0
LINE
  5
D0
100
AcDbEntity
100
AcDbLine
  8
0
 62
256
370
-1
 48
1.0
  6
ByLayer
 10
-151.70207455385082
 20
175.19999999999999
 30
0.0
 11
-154.85207455385085
 21
175.19999999999993
 31
0.0
  0
LINE
  5
D1
100
AcDbEntity
100
AcDbLine
  8
0
 62
256
370
-1
 48
1.0
  6
ByLayer
 10
-154.85207455385085
 20
175.19999999999993
 30
0.0
 11
-154.85207455385083
 21
158.39999999999995
 31
0.0
  0
LINE
  5
D2
100
AcDbEntity
100
AcDbLine
  8
0
 62
256
370
-1
 48
1.0
  6
ByLayer
 10
-151.70207455385082
 20
44.599999999999874
 30
0.0
 11
-154.8520745538508
 21
44.599999999999902
 31
0.0
  0
LINE
  5
D3
100
AcDbEntity
100
AcDbLine
  8
0
 62
256
370
-1
 48
1.0
  6
ByLayer
 10
-154.8520745538508
 20
44.599999999999902
 30
0.0
 11
-154.85207455385085
 21
27.799999999999891
 31
0.0
  0
LINE
  5
D4
100
AcDbEntity
100
AcDbLine
  8
0
 62
256
370
-1
 48
1.0
  6
ByLayer
 10
-154.85207455385085
 20
27.799999999999891
 30
0.0
 11
-151.70207455385082
 21
27.799999999999891
 31
0.0
  0
LINE
  5
D5
100
AcDbEntity
100
AcDbLine
  8
0
 62
256
370
-1
 48
1.0
  6
ByLayer
 10
-151.70207455385082
 20
27.799999999999891
 30
0.0
 11
-151.70207455385082
 21
44.599999999999874
 31
0.0
  0
LINE
  5
D6
100
AcDbEntity
100
AcDbLine
  8
0
 62
256
370
-1
 48
1.0
  6
ByLayer
 10
29.297925446149179
 20
27.799999999999891
 30
0.0
 11
32.447925446149185
 21
27.799999999999891
 31
0.0
  0
LINE
  5
D7
100
AcDbEntity
100
AcDbLine
  8
0
 62
256
370
-1
 48
1.0
  6
ByLayer
 10
32.447925446149185
 20
27.799999999999891
 30
0.0
 11
32.447925446149185
 21
44.59999999999993
 31
0.0
  0
LINE
  5
D8
100
AcDbEntity
100
AcDbLine
  8
0
 62
256
370
-1
 48
1.0
  6
ByLayer
 10
32.447925446149185
 20
44.59999999999993
 30
0.0
 11
29.297925446149179
 21
44.599999999999902
 31
0.0
  0
LINE
  5
D9
100
AcDbEntity
100
AcDbLine
  8
0
 62
256
370
-1
 48
1.0
  6
ByLayer
 10
29.297925446149179
 20
44.599999999999902
 30
0.0
 11
29.297925446149179
 21
27.799999999999891
 31
0.0
  0
LINE
  5
DA
100
AcDbEntity
100
AcDbLine
  8
0
 62
256
370
-1
 48
1.0
  6
ByLayer
 10
43.947925446149171
 20
130.59999999999999
 30
0.0
 11
43.947925446149171
 21
134.88
 31
0.0
  0
LINE
  5
DB
100
AcDbEntity
100
AcDbLine
  8
0
 62
256
370
-1
 48
1.0
  6
ByLayer
 10
43.947925446149171
 20
134.88
 30
0.0
 11
62.077925446149067
 21
134.88
 31
0.0
  0
LINE
  5
DC
100
AcDbEntity
100
AcDbLine
  8
0
 62
256
370
-1
 48
1.0
  6
ByLayer
 10
62.077925446149067
 20
134.88
 30
0.0
 11
62.07792544614918
 21
112.62666666666675
 31
0.0
  0
LINE
  5
DD
100
AcDbEntity
100
AcDbLine
  8
0
 62
256
370
-1
 48
1.0
  6
ByLayer
 10
62.07792544614918
 20
112.62666666666675
 30
0.0
 11
68.797925446149179
 21
112.62666666666651
 31
0.0
  0
LINE
  5
DE
100
AcDbEntity
100
AcDbLine
  8
0
 62
256
370
-1
 48
1.0
  6
ByLayer
 10
68.797925446149179
 20
112.62666666666651
 30
0.0
 11
68.797925446149179
 21
90.373333333333434
 31
0.0
  0
LINE
  5
DF
100
AcDbEntity
100
AcDbLine
  8
0
 62
256
370
-1
 48
1.0
  6
ByLayer
 10
68.797925446149179
 20
90.373333333333434
 30
0.0
 11
62.07792544614918
 21
90.373333333333207
 31
0.0
  0
LINE
  5
E0
100
AcDbEntity
100
AcDbLine
  8
0
 62
256
370
-1
 48
1.0
  6
ByLayer
 10
62.07792544614918
 20
90.373333333333207
 30
0.0
 11
62.077925446149081
 21
68.11999999999999
 31
0.0
  0
LINE
  5
E1
100
AcDbEntity
100
AcDbLine
  8
0
 62
256
370
-1
 48
1.0
  6
ByLayer
 10
62.077925446149081
 20
68.11999999999999
 30
0.0
 11
43.947925446149185
 21
68.119999999999905
 31
0.0
  0
LINE
  5
E2
100
AcDbEntity
100
AcDbLine
  8
0
 62
256
370
-1
 48
1.0
  6
ByLayer
 10
43.947925446149185
 20
68.119999999999905
 30
0.0
 11
43.947925446149185
 21
72.399999999999906
 31
0.0
  0
LINE
  5
E3
100
AcDbEntity
100
AcDbLine
  8
0
 62
256
370
-1
 48
1.0
  6
ByLayer
 10
43.947925446149185
 20
72.399999999999906
 30
0.0
 11
45.047925446149179
 21
72.399999999999906
 31
0.0
  0
ARC
  5
E4
100
AcDbEntity
  8
0
 62
256
370
-1
 48
1.0
  6
ByLayer
100
AcDbCircle
 10
45.297925446149179
 20
72.399999999999906
 30
0.0
 40
0.25
100
AcDbArc
 50
180.0
 51
90.0
  0
LINE
  5
E5
100
AcDbEntity
100
AcDbLine
  8
0
 62
256
370
-1
 48
1.0
  6
ByLayer
 10
45.297925446149179
 20
72.649999999999906
 30
0.0
 11
45.297925446149179
 21
75.149999999999963
 31
0.0
  0
ARC
  5
E6
100
AcDbEntity
  8
0
 62
256
370
-1
 48
1.0
  6
ByLayer
100
AcDbCircle
 10
45.297925446149122
 20
75.399999999999906
 30
0.0
 40
0.2499999999999431
100
AcDbArc
 50
270.00000000001302
 51
180.0
  0
LINE
  5
E7
100
AcDbEntity
100
AcDbLine
  8
0
 62
256
370
-1
 48
1.0
  6
ByLayer
 10
45.047925446149179
 20
75.399999999999849
 30
0.0
 11
43.947925446149185
 21
75.399999999999935
 31
0.0
  0
LINE
  5
E8
100
AcDbEntity
100
AcDbLine
  8
0
 62
256
370
-1
 48
1.0
  6
ByLayer
 10
43.947925446149185
 20
75.399999999999935
 30
0.0
 11
43.947925446149185
 21
77.399999999999935
 31
0.0
  0
LINE
  5
E9
100
AcDbEntity
100
AcDbLine
  8
0
 62
256
370
-1
 48
1.0
  6
ByLayer
 10
43.947925446149185
 20
77.399999999999935
 30
0.0
 11
40.647925446149173
 21
77.399999999999963
 31
0.0
  0
LINE
  5
EA
100
AcDbEntity
100
AcDbLine
  8
0
 62
256
370
-1
 48
1.0
  6
ByLayer
 10
40.647925446149173
 20
77.399999999999963
 30
0.0
 11
40.647925446149173
 21
75.399999999999878
 31
0.0
  0
LINE
  5
EB
100
AcDbEntity
100
AcDbLine
  8
0
 62
256
370
-1
 48
1.0
  6
ByLayer
 10
40.647925446149173
 20
75.399999999999878
 30
0.0
 11
39.547925446149179
 21
75.399999999999935
 31
0.0
  0
ARC
  5
EC
100
AcDbEntity
  8
0
 62
256
370
-1
 48
1.0
  6
ByLayer
100
AcDbCircle
 10
39.297925446149165
 20
75.39999999999992
 30
0.0
 40
0.2500000000000142
100
AcDbArc
 50
0.0
 51
270.00000000000324
  0
LINE
  5
ED
100
AcDbEntity
100
AcDbLine
  8
0
 62
256
370
-1
 48
1.0
  6
ByLayer
 10
39.297925446149179
 20
75.149999999999906
 30
0.0
 11
39.297925446149179
 21
72.649999999999906
 31
0.0
  0
ARC
  5
EE
100
AcDbEntity
  8
0
 62
256
370
-1
 48
1.0
  6
ByLayer
100
AcDbCircle
 10
39.297925446149179
 20
72.399999999999906
 30
0.0
 40
0.25
100
AcDbArc
 50
90.0
 51
0.0
  0
LINE
  5
EF
100
AcDbEntity
100
AcDbLine
  8
0
 62
256
370
-1
 48
1.0
  6
ByLayer
 10
39.547925446149179
 20
72.399999999999906
 30
0.0
 11
40.647925446149173
 21
72.399999999999906
 31
0.0
  0
LINE
  5
F0
100
AcDbEntity
100
AcDbLine
  8
0
 62
256
370
-1
 48
1.0
  6
ByLayer
 10
40.647925446149173
 20
72.399999999999906
 30
0.0
 11
40.647925446149173
 21
68.119999999999933
 31
0.0
  0
LINE
  5
F1
100
AcDbEntity
100
AcDbLine
  8
0
 62
256
370
-1
 48
1.0
  6
ByLayer
 10
40.647925446149173
 20
68.119999999999933
 30
0.0
 11
36.017925446149263
 21
68.120000000000019
 31
0.0
  0
LINE
  5
F2
100
AcDbEntity
100
AcDbLine
  8
0
 62
256
370
-1
 48
1.0
  6
ByLayer
 10
36.017925446149263
 20
68.120000000000019
 30
0.0
 11
36.017925446149263
 21
10.999999999999991
 31
0.0
  0
LINE
  5
F3
100
AcDbEntity
100
AcDbLine
  8
0
 62
256
370
-1
 48
1.0
  6
ByLayer
 10
-158.42207455385085
 20
10.999999999999877
 30
0.0
 11
-158.42207455385088
 21
68.119999999999933
 31
0.0
  0
LINE
  5
F4
100
AcDbEntity
100
AcDbLine
  8
0
 62
256
370
-1
 48
1.0
  6
ByLayer
 10
-158.42207455385088
 20
68.119999999999933
 30
0.0
 11
-163.05207455385079
 21
68.119999999999933
 31
0.0
  0
LINE
  5
F5
100
AcDbEntity
100
AcDbLine
  8
0
 62
256
370
-1
 48
1.0
  6
ByLayer
 10
-163.05207455385079
 20
68.119999999999933
 30
0.0
 11
-163.05207455385084
 21
72.399999999999935
 31
0.0
  0
LINE
  5
F6
100
AcDbEntity
100
AcDbLine
  8
0
 62
256
370
-1
 48
1.0
  6
ByLayer
 10
-163.05207455385084
 20
72.399999999999935
 30
0.0
 11
-161.95207455385082
 21
72.399999999999906
 31
0.0
  0
ARC
  5
F7
100
AcDbEntity
  8
0
 62
256
370
-1
 48
1.0
  6
ByLayer
100
AcDbCircle
 10
-161.70207455385082
 20
72.399999999999906
 30
0.0
 40
0.25
100
AcDbArc
 50
180.0
 51
90.0
  0
LINE
  5
F8
100
AcDbEntity
100
AcDbLine
  8
0
 62
256
370
-1
 48
1.0
  6
ByLayer
 10
-161.70207455385082
 20
72.649999999999906
 30
0.0
 11
-161.70207455385082
 21
75.149999999999906
 31
0.0
  0
ARC
  5
F9
100
AcDbEntity
  8
0
 62
256
370
-1
 48
1.0
  6
ByLayer
100
AcDbCircle
 10
-161.70207455385082
 20
75.399999999999906
 30
0.0
 40
0.25
100
AcDbArc
 50
270.0
 51
180.0
  0
LINE
  5
FA
100
AcDbEntity
100
AcDbLine
  8
0
 62
256
370
-1
 48
1.0
  6
ByLayer
 10
-161.95207455385082
 20
75.399999999999906
 30
0.0
 11
-163.05207455385082
 21
75.399999999999849
 31
0.0
  0
LINE
  5
FB
100
AcDbEntity
100
AcDbLine
  8
0
 62
256
370
-1
 48
1.0
  6
ByLayer
 10
-163.05207455385082
 20
75.399999999999849
 30
0.0
 11
-163.05207455385082
 21
77.399999999999963
 31
0.0
  0
LINE
  5
FC
100
AcDbEntity
100
AcDbLine
  8
0
 62
256
370
-1
 48
1.0
  6
ByLayer
 10
-163.05207455385082
 20
77.399999999999963
 30
0.0
 11
-166.35207455385083
 21
77.399999999999935
 31
0.0
  0
LINE
  5
FD
100
AcDbEntity
100
AcDbLine
  8
0
 62
256
370
-1
 48
1.0
  6
ByLayer
 10
-166.35207455385083
 20
77.399999999999935
 30
0.0
 11
-166.35207455385083
 21
75.399999999999963
 31
0.0
  0
LINE
  5
FE
100
AcDbEntity
100
AcDbLine
  8
0
 62
256
370
-1
 48
1.0
  6
ByLayer
 10
-166.35207455385083
 20
75.399999999999963
 30
0.0
 11
-167.45207455385082
 21
75.399999999999849
 31
0.0
  0
ARC
  5
FF
100
AcDbEntity
  8
0
 62
256
370
-1
 48
1.0
  6
ByLayer
100
AcDbCircle
 10
-167.70207455385076
 20
75.399999999999892
 30
0.0
 40
0.2499999999999573
100
AcDbArc
 50
360.0
 51
269.99999999998698
  0
LINE
  5
100
100
AcDbEntity
100
AcDbLine
  8
0
 62
256
370
-1
 48
1.0
  6
ByLayer
 10
-167.70207455385082
 20
75.149999999999935
 30
0.0
 11
-167.70207455385082
 21
72.649999999999906
 31
0.0
  0
ARC
  5
101
100
AcDbEntity
  8
0
 62
256
370
-1
 48
1.0
  6
ByLayer
100
AcDbCircle
 10
-167.70207455385082
 20
72.39999999999992
 30
0.0
 40
0.2499999999999858
100
AcDbArc
 50
90.0
 51
0.0
  0
LINE
  5
102
100
AcDbEntity
100
AcDbLine
  8
0
 62
256
370
-1
 48
1.0
  6
ByLayer
 10
-167.45207455385082
 20
72.399999999999935
 30
0.0
 11
-166.35207455385085
 21
72.399999999999935
 31
0.0
  0
LINE
  5
103
100
AcDbEntity
100
AcDbLine
  8
0
 62
256
370
-1
 48
1.0
  6
ByLayer
 10
-166.35207455385085
 20
72.399999999999935
 30
0.0
 11
-166.35207455385083
 21
68.119999999999933
 31
0.0
  0
LINE
  5
104
100
AcDbEntity
100
AcDbLine
  8
0
 62
256
370
-1
 48
1.0
  6
ByLayer
 10
-166.35207455385083
 20
68.119999999999933
 30
0.0
 11
-184.48207455385074
 21
68.119999999999933
 31
0.0
  0
LINE
  5
105
100
AcDbEntity
100
AcDbLine
  8
0
 62
256
370
-1
 48
1.0
  6
ByLayer
 10
-184.48207455385074
 20
68.119999999999933
 30
0.0
 11
-184.48207455385082
 21
90.373333333333235
 31
0.0
  0
LINE
  5
106
100
AcDbEntity
100
AcDbLine
  8
0
 62
256
370
-1
 48
1.0
  6
ByLayer
 10
-184.48207455385082
 20
90.373333333333235
 30
0.0
 11
-191.20207455385082
 21
90.373333333333434
 31
0.0
  0
LINE
  5
107
100
AcDbEntity
100
AcDbLine
  8
0
 62
256
370
-1
 48
1.0
  6
ByLayer
 10
-191.20207455385082
 20
90.373333333333434
 30
0.0
 11
-191.20207455385082
 21
112.62666666666645
 31
0.0
  0
LINE
  5
108
100
AcDbEntity
100
AcDbLine
  8
0
 62
256
370
-1
 48
1.0
  6
ByLayer
 10
-191.20207455385082
 20
112.62666666666645
 30
0.0
 11
-184.48207455385082
 21
112.62666666666654
 31
0.0
  0
LINE
  5
109
100
AcDbEntity
100
AcDbLine
  8
0
 62
256
370
-1
 48
1.0
  6
ByLayer
 10
-184.48207455385082
 20
112.62666666666654
 30
0.0
 11
-184.48207455385074
 21
134.87999999999985
 31
0.0
  0
LINE
  5
10A
100
AcDbEntity
100
AcDbLine
  8
0
 62
256
370
-1
 48
1.0
  6
ByLayer
 10
-184.48207455385074
 20
134.87999999999985
 30
0.0
 11
-166.35207455385083
 21
134.87999999999997
 31
0.0
  0
LINE
  5
10B
100
AcDbEntity
100
AcDbLine
  8
0
 62
256
370
-1
 48
1.0
  6
ByLayer
 10
-166.35207455385083
 20
134.87999999999997
 30
0.0
 11
-166.35207455385083
 21
130.59999999999997
 31
0.0
  0
LINE
  5
10C
100
AcDbEntity
100
AcDbLine
  8
0
 62
256
370
-1
 48
1.0
  6
ByLayer
 10
-166.35207455385083
 20
130.59999999999997
 30
0.0
 11
-167.45207455385082
 21
130.59999999999997
 31
0.0
  0
ARC
  5
10D
100
AcDbEntity
  8
0
 62
256
370
-1
 48
1.0
  6
ByLayer
100
AcDbCircle
 10
-167.70207455385079
 20
130.59999999999997
 30
0.0
 40
0.2499999999999858
100
AcDbArc
 50
0.0
 51
269.99999999999346
  0
LINE
  5
10E
100
AcDbEntity
100
AcDbLine
  8
0
 62
256
370
-1
 48
1.0
  6
ByLayer
 10
-167.70207455385082
 20
130.34999999999999
 30
0.0
 11
-167.70207455385082
 21
127.84999999999995
 31
0.0
  0
ARC
  5
10F
100
AcDbEntity
  8
0
 62
256
370
-1
 48
1.0
  6
ByLayer
100
AcDbCircle
 10
-167.70207455385088
 20
127.59999999999991
 30
0.0
 40
0.2500000000000497
100
AcDbArc
 50
89.999999999986969
 51
360.0
  0
LINE
  5
110
100
AcDbEntity
100
AcDbLine
  8
0
 62
256
370
-1
 48
1.0
  6
ByLayer
 10
-167.45207455385082
 20
127.59999999999985
 30
0.0
 11
-166.35207455385085
 21
127.59999999999989
 31
0.0
  0
LINE
  5
111
100
AcDbEntity
100
AcDbLine
  8
0
 62
256
370
-1
 48
1.0
  6
ByLayer
 10
-166.35207455385085
 20
127.59999999999989
 30
0.0
 11
-166.35207455385083
 21
125.59999999999991
 31
0.0
  0
LINE
  5
112
100
AcDbEntity
100
AcDbLine
  8
0
 62
256
370
-1
 48
1.0
  6
ByLayer
 10
-166.35207455385083
 20
125.59999999999991
 30
0.0
 11
-163.05207455385084
 21
125.59999999999987
 31
0.0
  0
LINE
  5
113
100
AcDbEntity
100
AcDbLine
  8
0
 62
256
370
-1
 48
1.0
  6
ByLayer
 10
-163.05207455385084
 20
125.59999999999987
 30
0.0
 11
-163.05207455385082
 21
127.59999999999989
 31
0.0
  0
LINE
  5
114
100
AcDbEntity
100
AcDbLine
  8
0
 62
256
370
-1
 48
1.0
  6
ByLayer
 10
-163.05207455385082
 20
127.59999999999989
 30
0.0
 11
-161.95207455385082
 21
127.59999999999992
 31
0.0
  0
ARC
  5
115
100
AcDbEntity
  8
0
 62
256
370
-1
 48
1.0
  6
ByLayer
100
AcDbCircle
 10
-161.70207455385082
 20
127.59999999999994
 30
0.0
 40
0.2500000000000142
100
AcDbArc
 50
180.0
 51
90.0
  0
LINE
  5
116
100
AcDbEntity
100
AcDbLine
  8
0
 62
256
370
-1
 48
1.0
  6
ByLayer
 10
-161.70207455385082
 20
127.84999999999995
 30
0.0
 11
-161.70207455385082
 21
130.34999999999994
 31
0.0
  0
ARC
  5
117
100
AcDbEntity
  8
0
 62
256
370
-1
 48
1.0
  6
ByLayer
100
AcDbCircle
 10
-161.70207455385082
 20
130.59999999999994
 30
0.0
 40
0.25
100
AcDbArc
 50
270.0
 51
180.0
  0
LINE
  5
118
100
AcDbEntity
100
AcDbLine
  8
0
 62
256
370
-1
 48
1.0
  6
ByLayer
 10
-161.95207455385082
 20
130.59999999999994
 30
0.0
 11
-163.05207455385082
 21
130.59999999999997
 31
0.0
  0
LINE
  5
119
100
AcDbEntity
100
AcDbLine
  8
0
 62
256
370
-1
 48
1.0
  6
ByLayer
 10
-163.05207455385082
 20
130.59999999999997
 30
0.0
 11
-163.05207455385082
 21
134.87999999999994
 31
0.0
  0
LINE
  5
11A
100
AcDbEntity
100
AcDbLine
  8
0
 62
256
370
-1
 48
1.0
  6
ByLayer
 10
-163.05207455385082
 20
134.87999999999994
 30
0.0
 11
-158.4220745538509
 21
134.87999999999988
 31
0.0
  0
LINE
  5
11B
100
AcDbEntity
100
AcDbLine
  8
0
 62
256
370
-1
 48
1.0
  6
ByLayer
 10
-158.4220745538509
 20
134.87999999999988
 30
0.0
 11
-158.42207455385085
 21
192.0
 31
0.0
  0
LINE
  5
11C
100
AcDbEntity
100
AcDbLine
  8
0
 62
256
370
-1
 48
1.0
  6
ByLayer
 10
-158.42207455385085
 20
192.0
 30
0.0
 11
36.017925446149121
 21
192.00000000000006
 31
0.0
  0
LINE
  5
11D
100
AcDbEntity
100
AcDbLine
  8
0
 62
256
370
-1
 48
1.0
  6
ByLayer
 10
36.017925446149121
 20
192.00000000000006
 30
0.0
 11
36.017925446149206
 21
134.88
 31
0.0
  0
LINE
  5
11E
100
AcDbEntity
100
AcDbLine
  8
0
 62
256
370
-1
 48
1.0
  6
ByLayer
 10
36.017925446149206
 20
134.88
 30
0.0
 11
40.647925446149159
 21
134.87999999999997
 31
0.0
  0
LINE
  5
11F
100
AcDbEntity
100
AcDbLine
  8
0
 62
256
370
-1
 48
1.0
  6
ByLayer
 10
40.647925446149159
 20
134.87999999999997
 30
0.0
 11
40.647925446149159
 21
130.59999999999999
 31
0.0
  0
LINE
  5
120
100
AcDbEntity
100
AcDbLine
  8
0
 62
256
370
-1
 48
1.0
  6
ByLayer
 10
40.647925446149159
 20
130.59999999999999
 30
0.0
 11
39.547925446149165
 21
130.60000000000002
 31
0.0
  0
ARC
  5
121
100
AcDbEntity
  8
0
 62
256
370
-1
 48
1.0
  6
ByLayer
100
AcDbCircle
 10
39.297925446149151
 20
130.60000000000002
 30
0.0
 40
0.2500000000000142
100
AcDbArc
 50
0.0
 51
270.00000000000324
  0
LINE
  5
122
100
AcDbEntity
100
AcDbLine
  8
0
 62
256
370
-1
 48
1.0
  6
ByLayer
 10
39.297925446149165
 20
130.34999999999999
 30
0.0
 11
39.297925446149165
 21
127.85000000000004
 31
0.0
  0
ARC
  5
123
100
AcDbEntity
  8
0
 62
256
370
-1
 48
1.0
  6
ByLayer
100
AcDbCircle
 10
39.297925446149137
 20
127.59999999999999
 30
0.0
 40
0.2500000000000426
100
AcDbArc
 50
89.999999999993491
 51
360.0
  0
LINE
  5
124
100
AcDbEntity
100
AcDbLine
  8
0
 62
256
370
-1
 48
1.0
  6
ByLayer
 10
39.547925446149179
 20
127.59999999999997
 30
0.0
 11
40.647925446149173
 21
127.59999999999992
 31
0.0
  0
LINE
  5
125
100
AcDbEntity
100
AcDbLine
  8
0
 62
256
370
-1
 48
1.0
  6
ByLayer
 10
40.647925446149173
 20
127.59999999999992
 30
0.0
 11
40.647925446149173
 21
125.59999999999991
 31
0.0
  0
LINE
  5
126
100
AcDbEntity
100
AcDbLine
  8
0
 62
256
370
-1
 48
1.0
  6
ByLayer
 10
40.647925446149173
 20
125.59999999999991
 30
0.0
 11
43.947925446149185
 21
125.59999999999989
 31
0.0
  0
LINE
  5
127
100
AcDbEntity
100
AcDbLine
  8
0
 62
256
370
-1
 48
1.0
  6
ByLayer
 10
43.947925446149185
 20
125.59999999999989
 30
0.0
 11
43.947925446149185
 21
127.59999999999992
 31
0.0
  0
LINE
  5
128
100
AcDbEntity
100
AcDbLine
  8
0
 62
256
370
-1
 48
1.0
  6
ByLayer
 10
43.947925446149185
 20
127.59999999999992
 30
0.0
 11
45.047925446149165
 21
127.59999999999994
 31
0.0
  0
ARC
  5
129
100
AcDbEntity
  8
0
 62
256
370
-1
 48
1.0
  6
ByLayer
100
AcDbCircle
 10
45.297925446149215
 20
127.59999999999999
 30
0.0
 40
0.2500000000000497
100
AcDbArc
 50
180.0
 51
90.000000000011397
  0
LINE
  5
12A
100
AcDbEntity
100
AcDbLine
  8
0
 62
256
370
-1
 48
1.0
  6
ByLayer
 10
45.297925446149165
 20
127.85000000000004
 30
0.0
 11
45.297925446149179
 21
130.35000000000002
 31
0.0
  0
ARC
  5
12B
100
AcDbEntity
  8
0
 62
256
370
-1
 48
1.0
  6
ByLayer
100
AcDbCircle
 10
45.297925446149151
 20
130.59999999999999
 30
0.0
 40
0.2499999999999716
100
AcDbArc
 50
270.00000000000654
 51
180.0
  0
LINE
  5
12C
100
AcDbEntity
100
AcDbLine
  8
0
 62
256
370
-1
 48
1.0
  6
ByLayer
 10
45.047925446149179
 20
130.59999999999997
 30
0.0
 11
43.947925446149171
 21
130.59999999999999
 31
0.0
  0
LINE
  5
12D
100
AcDbEntity
100
AcDbLine
  8
0
 62
256
370
-1
 48
1.0
  6
ByLayer
 10
92.797925446149179
 20
80.999999999999901
 30
0.0
 11
72.797925446149179
 21
80.999999999999901
 31
0.0
  0
LINE
  5
12E
100
AcDbEntity
100
AcDbLine
  8
0
 62
256
370
-1
 48
1.0
  6
ByLayer
 10
72.797925446149179
 20
80.999999999999901
 30
0.0
 11
72.797925446149165
 21
10.999999999999901
 31
0.0
  0
ARC
  5
12F
100
AcDbEntity
  8
0
 62
256
370
-1
 48
1.0
  6
ByLayer
100
AcDbCircle
 10
78.047925446149236
 20
75.999999999999886
 30
0.0
 40
1.4999999999999432
100
AcDbArc
 50
360.0
 51
180.0
  0
LINE
  5
130
100
AcDbEntity
100
AcDbLine
  8
0
 62
256
370
-1
 48
1.0
  6
ByLayer
 10
79.547925446149179
 20
75.999999999999872
 30
0.0
 11
79.547925446149307
 21
15.999999999999901
 31
0.0
  0
ARC
  5
131
100
AcDbEntity
  8
0
 62
256
370
-1
 48
1.0
  6
ByLayer
100
AcDbCircle
 10
78.047925446149293
 20
15.999999999999893
 30
0.0
 40
1.5000000000000071
100
AcDbArc
 50
180.0
 51
0.0
  0
LINE
  5
132
100
AcDbEntity
100
AcDbLine
  8
0
 62
256
370
-1
 48
1.0
  6
ByLayer
 10
76.547925446149293
 20
15.999999999999886
 30
0.0
 11
76.547925446149293
 21
75.999999999999886
 31
0.0
  0
ARC
  5
133
100
AcDbEntity
  8
0
 62
256
370
-1
 48
1.0
  6
ByLayer
100
AcDbCircle
 10
87.547925446149307
 20
15.999999999999908
 30
0.0
 40
1.4999999999999858
100
AcDbArc
 50
180.0
 51
360.0
  0
LINE
  5
134
100
AcDbEntity
100
AcDbLine
  8
0
 62
256
370
-1
 48
1.0
  6
ByLayer
 10
86.047925446149321
 20
15.999999999999915
 30
0.0
 11
86.047925446149179
 21
75.999999999999886
 31
0.0
  0
ARC
  5
135
100
AcDbEntity
  8
0
 62
256
370
-1
 48
1.0
  6
ByLayer
100
AcDbCircle
 10
87.547925446149236
 20
75.999999999999886
 30
0.0
 40
1.5000000000000568
100
AcDbArc
 50
0.0
 51
180.0
  0
LINE
  5
136
100
AcDbEntity
100
AcDbLine
  8
0
 62
256
370
-1
 48
1.0
  6
ByLayer
 10
89.047925446149293
 20
75.999999999999901
 30
0.0
 11
89.047925446149293
 21
15.999999999999901
 31
0.0
  0
ARC
  5
137
100
AcDbEntity
  8
0
 62
256
370
-1
 48
1.0
  6
ByLayer
100
AcDbCircle
 10
147.79792544614929
 20
112.9999999999998
 30
0.0
 40
5.9999999999999964
100
AcDbArc
 50
184.78019184719912
 51
355.21980815280068
  0
LINE
  5
138
100
AcDbEntity
100
AcDbLine
  8
0
 62
256
370
-1
 48
1.0
  6
ByLayer
 10
141.8187950745986
 20
112.4999999999998
 30
0.0
 11
132.79792544614929
 21
112.4999999999998
 31
0.0
  0
LINE
  5
139
100
AcDbEntity
100
AcDbLine
  8
0
 62
256
370
-1
 48
1.0
  6
ByLayer
 10
132.79792544614929
 20
112.4999999999998
 30
0.0
 11
132.79792544614929
 21
113.4999999999998
 31
0.0
  0
LINE
  5
13A
100
AcDbEntity
100
AcDbLine
  8
0
 62
256
370
-1
 48
1.0
  6
ByLayer
 10
132.79792544614929
 20
113.4999999999998
 30
0.0
 11
141.8187950745986
 21
113.4999999999998
 31
0.0
  0
ARC
  5
13B
100
AcDbEntity
  8
0
 62
256
370
-1
 48
1.0
  6
ByLayer
100
AcDbCircle
 10
147.79792544614929
 20
112.9999999999998
 30
0.0
 40
5.9999999999999964
100
AcDbArc
 50
4.780191847199041
 51
175.21980815280088
  0
LINE
  5
13C
100
AcDbEntity
100
AcDbLine
  8
0
 62
256
370
-1
 48
1.0
  6
ByLayer
 10
153.77705581769999
 20
113.49999999999979
 30
0.0
 11
165.79792544614941
 21
113.49999999999979
 31
0.0
  0
LINE
  5
13D
100
AcDbEntity
100
AcDbLine
  8
0
 62
256
370
-1
 48
1.0
  6
ByLayer
 10
165.79792544614941
 20
113.49999999999979
 30
0.0
 11
165.79792544614941
 21
124.99999999999983
 31
0.0
  0
LINE
  5
13E
100
AcDbEntity
100
AcDbLine
  8
0
 62
256
370
-1
 48
1.0
  6
ByLayer
 10
162.79792544614929
 20
124.99999999999986
 30
0.0
 11
162.79792544614929
 21
118.4999999999998
 31
0.0
  0
LINE
  5
13F
100
AcDbEntity
100
AcDbLine
  8
0
 62
256
370
-1
 48
1.0
  6
ByLayer
 10
162.79792544614929
 20
118.4999999999998
 30
0.0
 11
159.79792544614929
 21
118.49999999999977
 31
0.0
  0
LINE
  5
140
100
AcDbEntity
100
AcDbLine
  8
0
 62
256
370
-1
 48
1.0
  6
ByLayer
 10
159.79792544614929
 20
118.49999999999977
 30
0.0
 11
159.79792544614929
 21
124.99999999999986
 31
0.0
  0
LINE
  5
141
100
AcDbEntity
100
AcDbLine
  8
0
 62
256
370
-1
 48
1.0
  6
ByLayer
 10
159.79792544614929
 20
124.99999999999986
 30
0.0
 11
135.79792544614941
 21
124.99999999999987
 31
0.0
  0
LINE
  5
142
100
AcDbEntity
100
AcDbLine
  8
0
 62
256
370
-1
 48
1.0
  6
ByLayer
 10
135.79792544614941
 20
124.99999999999987
 30
0.0
 11
135.79792544614941
 21
115.49999999999979
 31
0.0
  0
LINE
  5
143
100
AcDbEntity
100
AcDbLine
  8
0
 62
256
370
-1
 48
1.0
  6
ByLayer
 10
135.79792544614941
 20
115.49999999999979
 30
0.0
 11
132.79792544614929
 21
115.4999999999998
 31
0.0
  0
LINE
  5
144
100
AcDbEntity
100
AcDbLine
  8
0
 62
256
370
-1
 48
1.0
  6
ByLayer
 10
132.79792544614929
 20
115.4999999999998
 30
0.0
 11
132.79792544614929
 21
124.99999999999986
 31
0.0
  0
LINE
  5
145
100
AcDbEntity
100
AcDbLine
  8
0
 62
256
370
-1
 48
1.0
  6
ByLayer
 10
132.79792544614929
 20
124.99999999999986
 30
0.0
 11
92.797925446149307
 21
124.99999999999986
 31
0.0
  0
LINE
  5
146
100
AcDbEntity
100
AcDbLine
  8
0
 62
256
370
-1
 48
1.0
  6
ByLayer
 10
92.797925446149307
 20
124.99999999999986
 30
0.0
 11
92.797925446149293
 21
100.99999999999987
 31
0.0
  0
LINE
  5
147
100
AcDbEntity
100
AcDbLine
  8
0
 62
256
370
-1
 48
1.0
  6
ByLayer
 10
132.79792544614929
 20
100.99999999999986
 30
0.0
 11
132.79792544614929
 21
110.49999999999993
 31
0.0
  0
LINE
  5
148
100
AcDbEntity
100
AcDbLine
  8
0
 62
256
370
-1
 48
1.0
  6
ByLayer
 10
132.79792544614929
 20
110.49999999999993
 30
0.0
 11
135.79792544614941
 21
110.49999999999991
 31
0.0
  0
LINE
  5
149
100
AcDbEntity
100
AcDbLine
  8
0
 62
256
370
-1
 48
1.0
  6
ByLayer
 10
135.79792544614941
 20
110.49999999999991
 30
0.0
 11
135.79792544614941
 21
100.99999999999986
 31
0.0
  0
LINE
  5
14A
100
AcDbEntity
100
AcDbLine
  8
0
 62
256
370
-1
 48
1.0
  6
ByLayer
 10
159.79792544614929
 20
100.99999999999986
 30
0.0
 11
159.79792544614929
 21
107.49999999999996
 31
0.0
  0
LINE
  5
14B
100
AcDbEntity
100
AcDbLine
  8
0
 62
256
370
-1
 48
1.0
  6
ByLayer
 10
159.79792544614929
 20
107.49999999999996
 30
0.0
 11
162.79792544614929
 21
107.49999999999996
 31
0.0
  0
LINE
  5
14C
100
AcDbEntity
100
AcDbLine
  8
0
 62
256
370
-1
 48
1.0
  6
ByLayer
 10
162.79792544614929
 20
107.49999999999996
 30
0.0
 11
162.79792544614929
 21
100.99999999999986
 31
0.0
  0
LINE
  5
14D
100
AcDbEntity
100
AcDbLine
  8
0
 62
256
370
-1
 48
1.0
  6
ByLayer
 10
165.79792544614941
 20
100.99999999999986
 30
0.0
 11
165.79792544614929
 21
112.49999999999984
 31
0.0
  0
LINE
  5
14E
100
AcDbEntity
100
AcDbLine
  8
0
 62
256
370
-1
 48
1.0
  6
ByLayer
 10
165.79792544614929
 20
112.49999999999984
 30
0.0
 11
153.77705581769999
 21
112.49999999999979
 31
0.0
  0
ARC
  5
14F
100
AcDbEntity
  8
0
 62
256
370
-1
 48
1.0
  6
ByLayer
100
AcDbCircle
 10
147.79792544614929
 20
136.9999999999998
 30
0.0
 40
8.9999999999999982
100
AcDbArc
 50
3.1847385367203693
 51
176.81526146327963
  0
LINE
  5
150
100
AcDbEntity
100
AcDbLine
  8
0
 62
256
370
-1
 48
1.0
  6
ByLayer
 10
156.78402582395501
 20
137.4999999999998
 30
0.0
 11
165.79792544614929
 21
137.4999999999998
 31
0.0
  0
LINE
  5
151
100
AcDbEntity
100
AcDbLine
  8
0
 62
256
370
-1
 48
1.0
  6
ByLayer
 10
165.79792544614929
 20
137.4999999999998
 30
0.0
 11
165.79792544614929
 21
148.99999999999986
 31
0.0
  0
LINE
  5
152
100
AcDbEntity
100
AcDbLine
  8
0
 62
256
370
-1
 48
1.0
  6
ByLayer
 10
165.79792544614929
 20
148.99999999999986
 30
0.0
 11
162.79792544614929
 21
148.99999999999986
 31
0.0
  0
LINE
  5
153
100
AcDbEntity
100
AcDbLine
  8
0
 62
256
370
-1
 48
1.0
  6
ByLayer
 10
162.79792544614929
 20
148.99999999999986
 30
0.0
 11
162.79792544614929
 21
142.4999999999998
 31
0.0
  0
LINE
  5
154
100
AcDbEntity
100
AcDbLine
  8
0
 62
256
370
-1
 48
1.0
  6
ByLayer
 10
162.79792544614929
 20
142.4999999999998
 30
0.0
 11
159.79792544614929
 21
142.4999999999998
 31
0.0
  0
LINE
  5
155
100
AcDbEntity
100
AcDbLine
  8
0
 62
256
370
-1
 48
1.0
  6
ByLayer
 10
159.79792544614929
 20
142.4999999999998
 30
0.0
 11
159.79792544614929
 21
148.99999999999986
 31
0.0
  0
LINE
  5
156
100
AcDbEntity
100
AcDbLine
  8
0
 62
256
370
-1
 48
1.0
  6
ByLayer
 10
159.79792544614929
 20
148.99999999999986
 30
0.0
 11
135.79792544614929
 21
148.99999999999986
 31
0.0
  0
LINE
  5
157
100
AcDbEntity
100
AcDbLine
  8
0
 62
256
370
-1
 48
1.0
  6
ByLayer
 10
135.79792544614929
 20
148.99999999999986
 30
0.0
 11
135.79792544614929
 21
139.4999999999998
 31
0.0
  0
LINE
  5
158
100
AcDbEntity
100
AcDbLine
  8
0
 62
256
370
-1
 48
1.0
  6
ByLayer
 10
135.79792544614929
 20
139.4999999999998
 30
0.0
 11
132.79792544614929
 21
139.4999999999998
 31
0.0
  0
LINE
  5
159
100
AcDbEntity
100
AcDbLine
  8
0
 62
256
370
-1
 48
1.0
  6
ByLayer
 10
132.79792544614929
 20
139.4999999999998
 30
0.0
 11
132.79792544614929
 21
148.99999999999986
 31
0.0
  0
LINE
  5
15A
100
AcDbEntity
100
AcDbLine
  8
0
 62
256
370
-1
 48
1.0
  6
ByLayer
 10
92.797925446149293
 20
148.99999999999986
 30
0.0
 11
92.797925446149293
 21
124.99999999999986
 31
0.0
  0
LINE
  5
15B
100
AcDbEntity
100
AcDbLine
  8
0
 62
256
370
-1
 48
1.0
  6
ByLayer
 10
132.79792544614929
 20
124.99999999999986
 30
0.0
 11
132.79792544614929
 21
134.49999999999991
 31
0.0
  0
LINE
  5
15C
100
AcDbEntity
100
AcDbLine
  8
0
 62
256
370
-1
 48
1.0
  6
ByLayer
 10
132.79792544614929
 20
134.49999999999991
 30
0.0
 11
135.79792544614929
 21
134.49999999999991
 31
0.0
  0
LINE
  5
15D
100
AcDbEntity
100
AcDbLine
  8
0
 62
256
370
-1
 48
1.0
  6
ByLayer
 10
135.79792544614929
 20
134.49999999999991
 30
0.0
 11
135.79792544614929
 21
124.99999999999986
 31
0.0
  0
LINE
  5
15E
100
AcDbEntity
100
AcDbLine
  8
0
 62
256
370
-1
 48
1.0
  6
ByLayer
 10
159.79792544614929
 20
124.99999999999986
 30
0.0
 11
159.79792544614929
 21
131.49999999999991
 31
0.0
  0
LINE
  5
15F
100
AcDbEntity
100
AcDbLine
  8
0
 62
256
370
-1
 48
1.0
  6
ByLayer
 10
159.79792544614929
 20
131.49999999999991
 30
0.0
 11
162.79792544614929
 21
131.49999999999991
 31
0.0
  0
LINE
  5
160
100
AcDbEntity
100
AcDbLine
  8
0
 62
256
370
-1
 48
1.0
  6
ByLayer
 10
162.79792544614929
 20
131.49999999999991
 30
0.0
 11
162.79792544614929
 21
124.99999999999986
 31
0.0
  0
LINE
  5
161
100
AcDbEntity
100
AcDbLine
  8
0
 62
256
370
-1
 48
1.0
  6
ByLayer
 10
162.79792544614929
 20
124.99999999999986
 30
0.0
 11
165.79792544614929
 21
124.99999999999986
 31
0.0
  0
LINE
  5
162
100
AcDbEntity
100
AcDbLine
  8
0
 62
256
370
-1
 48
1.0
  6
ByLayer
 10
165.79792544614929
 20
124.99999999999986
 30
0.0
 11
165.79792544614929
 21
136.4999999999998
 31
0.0
  0
LINE
  5
163
100
AcDbEntity
100
AcDbLine
  8
0
 62
256
370
-1
 48
1.0
  6
ByLayer
 10
165.79792544614929
 20
136.4999999999998
 30
0.0
 11
156.78402582395501
 21
136.4999999999998
 31
0.0
  0
ARC
  5
164
100
AcDbEntity
  8
0
 62
256
370
-1
 48
1.0
  6
ByLayer
100
AcDbCircle
 10
147.79792544614929
 20
136.9999999999998
 30
0.0
 40
8.9999999999999982
100
AcDbArc
 50
183.18473853672037
 51
356.81526146327968
  0
LINE
  5
165
100
AcDbEntity
100
AcDbLine
  8
0
 62
256
370
-1
 48
1.0
  6
ByLayer
 10
138.81182506834358
 20
136.4999999999998
 30
0.0
 11
132.79792544614929
 21
136.4999999999998
 31
0.0
  0
LINE
  5
166
100
AcDbEntity
100
AcDbLine
  8
0
 62
256
370
-1
 48
1.0
  6
ByLayer
 10
132.79792544614929
 20
136.4999999999998
 30
0.0
 11
132.79792544614929
 21
137.4999999999998
 31
0.0
  0
LINE
  5
167
100
AcDbEntity
100
AcDbLine
  8
0
 62
256
370
-1
 48
1.0
  6
ByLayer
 10
132.79792544614929
 20
137.4999999999998
 30
0.0
 11
138.81182506834358
 21
137.4999999999998
 31
0.0
  0
ARC
  5
168
100
AcDbEntity
  8
0
 62
256
370
-1
 48
1.0
  6
ByLayer
100
AcDbCircle
 10
147.79792544614929
 20
160.9999999999998
 30
0.0
 40
8.9999999999999982
100
AcDbArc
 50
3.1847385367203693
 51
176.81526146327963
  0
LINE
  5
169
100
AcDbEntity
100
AcDbLine
  8
0
 62
256
370
-1
 48
1.0
  6
ByLayer
 10
156.78402582395501
 20
161.4999999999998
 30
0.0
 11
165.79792544614929
 21
161.4999999999998
 31
0.0
  0
LINE
  5
16A
100
AcDbEntity
100
AcDbLine
  8
0
 62
256
370
-1
 48
1.0
  6
ByLayer
 10
165.79792544614929
 20
161.4999999999998
 30
0.0
 11
165.79792544614929
 21
172.99999999999986
 31
0.0
  0
LINE
  5
16B
100
AcDbEntity
100
AcDbLine
  8
0
 62
256
370
-1
 48
1.0
  6
ByLayer
 10
165.79792544614929
 20
172.99999999999986
 30
0.0
 11
162.79792544614929
 21
172.99999999999986
 31
0.0
  0
LINE
  5
16C
100
AcDbEntity
100
AcDbLine
  8
0
 62
256
370
-1
 48
1.0
  6
ByLayer
 10
162.79792544614929
 20
172.99999999999986
 30
0.0
 11
162.79792544614929
 21
166.4999999999998
 31
0.0
  0
LINE
  5
16D
100
AcDbEntity
100
AcDbLine
  8
0
 62
256
370
-1
 48
1.0
  6
ByLayer
 10
162.79792544614929
 20
166.4999999999998
 30
0.0
 11
159.79792544614929
 21
166.4999999999998
 31
0.0
  0
LINE
  5
16E
100
AcDbEntity
100
AcDbLine
  8
0
 62
256
370
-1
 48
1.0
  6
ByLayer
 10
159.79792544614929
 20
166.4999999999998
 30
0.0
 11
159.79792544614929
 21
172.99999999999986
 31
0.0
  0
LINE
  5
16F
100
AcDbEntity
100
AcDbLine
  8
0
 62
256
370
-1
 48
1.0
  6
ByLayer
 10
159.79792544614929
 20
172.99999999999986
 30
0.0
 11
135.79792544614929
 21
172.99999999999986
 31
0.0
  0
LINE
  5
170
100
AcDbEntity
100
AcDbLine
  8
0
 62
256
370
-1
 48
1.0
  6
ByLayer
 10
135.79792544614929
 20
172.99999999999986
 30
0.0
 11
135.79792544614929
 21
163.4999999999998
 31
0.0
  0
LINE
  5
171
100
AcDbEntity
100
AcDbLine
  8
0
 62
256
370
-1
 48
1.0
  6
ByLayer
 10
135.79792544614929
 20
163.4999999999998
 30
0.0
 11
132.79792544614929
 21
163.4999999999998
 31
0.0
  0
LINE
  5
172
100
AcDbEntity
100
AcDbLine
  8
0
 62
256
370
-1
 48
1.0
  6
ByLayer
 10
132.79792544614929
 20
163.4999999999998
 30
0.0
 11
132.79792544614929
 21
172.99999999999986
 31
0.0
  0
LINE
  5
173
100
AcDbEntity
100
AcDbLine
  8
0
 62
256
370
-1
 48
1.0
  6
ByLayer
 10
132.79792544614929
 20
172.99999999999986
 30
0.0
 11
92.797925446149293
 21
172.99999999999986
 31
0.0
  0
LINE
  5
174
100
AcDbEntity
100
AcDbLine
  8
0
 62
256
370
-1
 48
1.0
  6
ByLayer
 10
92.797925446149293
 20
172.99999999999986
 30
0.0
 11
92.797925446149293
 21
148.99999999999986
 31
0.0
  0
LINE
  5
175
100
AcDbEntity
100
AcDbLine
  8
0
 62
256
370
-1
 48
1.0
  6
ByLayer
 10
92.797925446149293
 20
148.99999999999986
 30
0.0
 11
132.79792544614929
 21
148.99999999999986
 31
0.0
  0
LINE
  5
176
100
AcDbEntity
100
AcDbLine
  8
0
 62
256
370
-1
 48
1.0
  6
ByLayer
 10
132.79792544614929
 20
148.99999999999986
 30
0.0
 11
132.79792544614929
 21
158.49999999999991
 31
0.0
  0
LINE
  5
177
100
AcDbEntity
100
AcDbLine
  8
0
 62
256
370
-1
 48
1.0
  6
ByLayer
 10
132.79792544614929
 20
158.49999999999991
 30
0.0
 11
135.79792544614929
 21
158.49999999999991
 31
0.0
  0
LINE
  5
178
100
AcDbEntity
100
AcDbLine
  8
0
 62
256
370
-1
 48
1.0
  6
ByLayer
 10
135.79792544614929
 20
158.49999999999991
 30
0.0
 11
135.79792544614929
 21
148.99999999999986
 31
0.0
  0
LINE
  5
179
100
AcDbEntity
100
AcDbLine
  8
0
 62
256
370
-1
 48
1.0
  6
ByLayer
 10
159.79792544614929
 20
148.99999999999986
 30
0.0
 11
159.79792544614929
 21
155.49999999999991
 31
0.0
  0
LINE
  5
17A
100
AcDbEntity
100
AcDbLine
  8
0
 62
256
370
-1
 48
1.0
  6
ByLayer
 10
159.79792544614929
 20
155.49999999999991
 30
0.0
 11
162.79792544614929
 21
155.49999999999991
 31
0.0
  0
LINE
  5
17B
100
AcDbEntity
100
AcDbLine
  8
0
 62
256
370
-1
 48
1.0
  6
ByLayer
 10
162.79792544614929
 20
155.49999999999991
 30
0.0
 11
162.79792544614929
 21
148.99999999999986
 31
0.0
  0
LINE
  5
17C
100
AcDbEntity
100
AcDbLine
  8
0
 62
256
370
-1
 48
1.0
  6
ByLayer
 10
165.79792544614929
 20
148.99999999999986
 30
0.0
 11
165.79792544614929
 21
160.4999999999998
 31
0.0
  0
LINE
  5
17D
100
AcDbEntity
100
AcDbLine
  8
0
 62
256
370
-1
 48
1.0
  6
ByLayer
 10
165.79792544614929
 20
160.4999999999998
 30
0.0
 11
156.78402582395501
 21
160.4999999999998
 31
0.0
  0
ARC
  5
17E
100
AcDbEntity
  8
0
 62
256
370
-1
 48
1.0
  6
ByLayer
100
AcDbCircle
 10
147.79792544614929
 20
160.9999999999998
 30
0.0
 40
8.9999999999999982
100
AcDbArc
 50
183.18473853672037
 51
356.81526146327968
  0
LINE
  5
17F
100
AcDbEntity
100
AcDbLine
  8
0
 62
256
370
-1
 48
1.0
  6
ByLayer
 10
138.81182506834358
 20
160.4999999999998
 30
0.0
 11
132.79792544614929
 21
160.4999999999998
 31
0.0
  0
LINE
  5
180
100
AcDbEntity
100
AcDbLine
  8
0
 62
256
370
-1
 48
1.0
  6
ByLayer
 10
132.79792544614929
 20
160.4999999999998
 30
0.0
 11
132.79792544614929
 21
161.4999999999998
 31
0.0
  0
LINE
  5
181
100
AcDbEntity
100
AcDbLine
  8
0
 62
256
370
-1
 48
1.0
  6
ByLayer
 10
132.79792544614929
 20
161.4999999999998
 30
0.0
 11
138.81182506834358
 21
161.4999999999998
 31
0.0
  0
LINE
  5
182
100
AcDbEntity
100
AcDbLine
  8
0
 62
256
370
-1
 48
1.0
  6
ByLayer
 10
121.79792544614942
 20
41.899999999999721
 30
0.0
 11
125.79792544614941
 21
41.899999999999736
 31
0.0
  0
ARC
  5
183
100
AcDbEntity
  8
0
 62
256
370
-1
 48
1.0
  6
ByLayer
100
AcDbCircle
 10
125.79792544614942
 20
43.999999999999758
 30
0.0
 40
2.1000000000000192
100
AcDbArc
 50
269.9999999999996
 51
89.999999999999616
  0
LINE
  5
184
100
AcDbEntity
100
AcDbLine
  8
0
 62
256
370
-1
 48
1.0
  6
ByLayer
 10
125.79792544614943
 20
46.099999999999774
 30
0.0
 11
121.79792544614942
 21
46.099999999999774
 31
0.0
  0
ARC
  5
185
100
AcDbEntity
  8
0
 62
256
370
-1
 48
1.0
  6
ByLayer
100
AcDbCircle
 10
121.79792544614942
 20
43.999999999999744
 30
0.0
 40
2.1000000000000263
100
AcDbArc
 50
90.0
 51
270.0
  0
ARC
  5
186
100
AcDbEntity
  8
0
 62
256
370
-1
 48
1.0
  6
ByLayer
100
AcDbCircle
 10
113.29792544614942
 20
29.499999999999744
 30
0.0
 40
2.1000000000000227
100
AcDbArc
 50
90.0
 51
270.0
  0
LINE
  5
187
100
AcDbEntity
100
AcDbLine
  8
0
 62
256
370
-1
 48
1.0
  6
ByLayer
 10
113.29792544614942
 20
27.399999999999721
 30
0.0
 11
117.29792544614941
 21
27.399999999999743
 31
0.0
  0
ARC
  5
188
100
AcDbEntity
  8
0
 62
256
370
-1
 48
1.0
  6
ByLayer
100
AcDbCircle
 10
117.29792544614941
 20
29.499999999999755
 30
0.0
 40
2.1000000000000121
100
AcDbArc
 50
270.0
 51
89.999999999999616
  0
LINE
  5
189
100
AcDbEntity
100
AcDbLine
  8
0
 62
256
370
-1
 48
1.0
  6
ByLayer
 10
117.29792544614942
 20
31.599999999999767
 30
0.0
 11
113.29792544614942
 21
31.599999999999767
 31
0.0
  0
LINE
  5
18A
100
AcDbEntity
100
AcDbLine
  8
0
 62
256
370
-1
 48
1.0
  6
ByLayer
 10
157.79792544614941
 20
32.999999999999837
 30
0.0
 11
157.79792544614941
 21
10.999999999999861
 31
0.0
  0
LINE
  5
18B
100
AcDbEntity
100
AcDbLine
  8
0
 62
256
370
-1
 48
1.0
  6
ByLayer
 10
92.797925446149293
 20
10.999999999999877
 30
0.0
 11
92.797925446149307
 21
76.999999999999872
 31
0.0
  0
LINE
  5
18C
100
AcDbEntity
100
AcDbLine
  8
0
 62
256
370
-1
 48
1.0
  6
ByLayer
 10
92.797925446149307
 20
76.999999999999872
 30
0.0
 11
157.79792544614943
 21
76.999999999999844
 31
0.0
  0
LINE
  5
18D
100
AcDbEntity
100
AcDbLine
  8
0
 62
256
370
-1
 48
1.0
  6
ByLayer
 10
157.79792544614943
 20
76.999999999999844
 30
0.0
 11
157.79792544614938
 21
54.999999999999908
 31
0.0
  0
LINE
  5
18E
100
AcDbEntity
100
AcDbLine
  8
0
 62
256
370
-1
 48
1.0
  6
ByLayer
 10
157.79792544614938
 20
54.999999999999908
 30
0.0
 11
164.51792544614941
 21
54.999999999999865
 31
0.0
  0
LINE
  5
18F
100
AcDbEntity
100
AcDbLine
  8
0
 62
256
370
-1
 48
1.0
  6
ByLayer
 10
164.51792544614941
 20
54.999999999999865
 30
0.0
 11
164.51792544614943
 21
32.999999999999858
 31
0.0
  0
LINE
  5
190
100
AcDbEntity
100
AcDbLine
  8
0
 62
256
370
-1
 48
1.0
  6
ByLayer
 10
164.51792544614943
 20
32.999999999999858
 30
0.0
 11
157.79792544614941
 21
32.999999999999837
 31
0.0
  0
ARC
  5
191
100
AcDbEntity
  8
0
 62
256
370
-1
 48
1.0
  6
ByLayer
100
AcDbCircle
 10
100.79792544614941
 20
29.499999999999762
 30
0.0
 40
2.1000000000000263
100
AcDbArc
 50
90.0
 51
270.0
  0
LINE
  5
192
100
AcDbEntity
100
AcDbLine
  8
0
 62
256
370
-1
 48
1.0
  6
ByLayer
 10
100.79792544614941
 20
27.399999999999736
 30
0.0
 11
104.79792544614941
 21
27.399999999999743
 31
0.0
  0
ARC
  5
193
100
AcDbEntity
  8
0
 62
256
370
-1
 48
1.0
  6
ByLayer
100
AcDbCircle
 10
104.79792544614941
 20
29.499999999999766
 30
0.0
 40
2.1000000000000227
100
AcDbArc
 50
270.0
 51
90.0
  0
LINE
  5
194
100
AcDbEntity
100
AcDbLine
  8
0
 62
256
370
-1
 48
1.0
  6
ByLayer
 10
104.79792544614941
 20
31.599999999999788
 30
0.0
 11
100.79792544614941
 21
31.599999999999788
 31
0.0
  0
ARC
  5
195
100
AcDbEntity
  8
0
 62
256
370
-1
 48
1.0
  6
ByLayer
100
AcDbCircle
 10
147.79792544614929
 20
88.999999999999801
 30
0.0
 40
5.9999999999999964
100
AcDbArc
 50
184.78019184719903
 51
355.21980815280085
  0
LINE
  5
196
100
AcDbEntity
100
AcDbLine
  8
0
 62
256
370
-1
 48
1.0
  6
ByLayer
 10
141.8187950745986
 20
88.499999999999815
 30
0.0
 11
132.79792544614929
 21
88.499999999999815
 31
0.0
  0
LINE
  5
197
100
AcDbEntity
100
AcDbLine
  8
0
 62
256
370
-1
 48
1.0
  6
ByLayer
 10
132.79792544614929
 20
88.499999999999815
 30
0.0
 11
132.79792544614929
 21
89.499999999999801
 31
0.0
  0
LINE
  5
198
100
AcDbEntity
100
AcDbLine
  8
0
 62
256
370
-1
 48
1.0
  6
ByLayer
 10
132.79792544614929
 20
89.499999999999801
 30
0.0
 11
141.8187950745986
 21
89.499999999999815
 31
0.0
  0
ARC
  5
199
100
AcDbEntity
  8
0
 62
256
370
-1
 48
1.0
  6
ByLayer
100
AcDbCircle
 10
147.79792544614929
 20
88.999999999999801
 30
0.0
 40
5.9999999999999964
100
AcDbArc
 50
4.7801918471991174
 51
175.21980815280074
  0
LINE
  5
19A
100
AcDbEntity
100
AcDbLine
  8
0
 62
256
370
-1
 48
1.0
  6
ByLayer
 10
153.77705581769999
 20
89.499999999999801
 30
0.0
 11
165.79792544614941
 21
89.499999999999801
 31
0.0
  0
LINE
  5
19B
100
AcDbEntity
100
AcDbLine
  8
0
 62
256
370
-1
 48
1.0
  6
ByLayer
 10
165.79792544614941
 20
89.499999999999801
 30
0.0
 11
165.79792544614941
 21
100.99999999999986
 31
0.0
  0
LINE
  5
19C
100
AcDbEntity
100
AcDbLine
  8
0
 62
256
370
-1
 48
1.0
  6
ByLayer
 10
165.79792544614941
 20
100.99999999999986
 30
0.0
 11
162.79792544614929
 21
100.99999999999989
 31
0.0
  0
LINE
  5
19D
100
AcDbEntity
100
AcDbLine
  8
0
 62
256
370
-1
 48
1.0
  6
ByLayer
 10
162.79792544614929
 20
100.99999999999989
 30
0.0
 11
162.79792544614929
 21
94.499999999999801
 31
0.0
  0
LINE
  5
19E
100
AcDbEntity
100
AcDbLine
  8
0
 62
256
370
-1
 48
1.0
  6
ByLayer
 10
162.79792544614929
 20
94.499999999999801
 30
0.0
 11
159.79792544614929
 21
94.499999999999787
 31
0.0
  0
LINE
  5
19F
100
AcDbEntity
100
AcDbLine
  8
0
 62
256
370
-1
 48
1.0
  6
ByLayer
 10
159.79792544614929
 20
94.499999999999787
 30
0.0
 11
159.79792544614929
 21
100.99999999999989
 31
0.0
  0
LINE
  5
1A0
100
AcDbEntity
100
AcDbLine
  8
0
 62
256
370
-1
 48
1.0
  6
ByLayer
 10
159.79792544614929
 20
100.99999999999989
 30
0.0
 11
135.79792544614941
 21
100.99999999999989
 31
0.0
  0
LINE
  5
1A1
100
AcDbEntity
100
AcDbLine
  8
0
 62
256
370
-1
 48
1.0
  6
ByLayer
 10
135.79792544614941
 20
100.99999999999989
 30
0.0
 11
135.79792544614941
 21
91.499999999999801
 31
0.0
  0
LINE
  5
1A2
100
AcDbEntity
100
AcDbLine
  8
0
 62
256
370
-1
 48
1.0
  6
ByLayer
 10
135.79792544614941
 20
91.499999999999801
 30
0.0
 11
132.79792544614929
 21
91.499999999999815
 31
0.0
  0
LINE
  5
1A3
100
AcDbEntity
100
AcDbLine
  8
0
 62
256
370
-1
 48
1.0
  6
ByLayer
 10
132.79792544614929
 20
91.499999999999815
 30
0.0
 11
132.79792544614929
 21
100.99999999999987
 31
0.0
  0
LINE
  5
1A4
100
AcDbEntity
100
AcDbLine
  8
0
 62
256
370
-1
 48
1.0
  6
ByLayer
 10
132.79792544614929
 20
100.99999999999987
 30
0.0
 11
92.797925446149307
 21
100.99999999999989
 31
0.0
  0
LINE
  5
1A5
100
AcDbEntity
100
AcDbLine
  8
0
 62
256
370
-1
 48
1.0
  6
ByLayer
 10
92.797925446149307
 20
100.99999999999989
 30
0.0
 11
92.797925446149293
 21
76.999999999999886
 31
0.0
  0
LINE
  5
1A6
100
AcDbEntity
100
AcDbLine
  8
0
 62
256
370
-1
 48
1.0
  6
ByLayer
 10
132.79792544614929
 20
76.999999999999872
 30
0.0
 11
132.79792544614929
 21
86.499999999999943
 31
0.0
  0
LINE
  5
1A7
100
AcDbEntity
100
AcDbLine
  8
0
 62
256
370
-1
 48
1.0
  6
ByLayer
 10
132.79792544614929
 20
86.499999999999943
 30
0.0
 11
135.79792544614941
 21
86.499999999999929
 31
0.0
  0
LINE
  5
1A8
100
AcDbEntity
100
AcDbLine
  8
0
 62
256
370
-1
 48
1.0
  6
ByLayer
 10
135.79792544614941
 20
86.499999999999929
 30
0.0
 11
135.79792544614941
 21
76.999999999999872
 31
0.0
  0
LINE
  5
1A9
100
AcDbEntity
100
AcDbLine
  8
0
 62
256
370
-1
 48
1.0
  6
ByLayer
 10
157.79792544614943
 20
76.999999999999844
 30
0.0
 11
159.79792544614929
 21
76.999999999999872
 31
0.0
  0
LINE
  5
1AA
100
AcDbEntity
100
AcDbLine
  8
0
 62
256
370
-1
 48
1.0
  6
ByLayer
 10
159.79792544614929
 20
76.999999999999872
 30
0.0
 11
159.79792544614929
 21
83.499999999999972
 31
0.0
  0
LINE
  5
1AB
100
AcDbEntity
100
AcDbLine
  8
0
 62
256
370
-1
 48
1.0
  6
ByLayer
 10
159.79792544614929
 20
83.499999999999972
 30
0.0
 11
162.79792544614929
 21
83.499999999999972
 31
0.0
  0
LINE
  5
1AC
100
AcDbEntity
100
AcDbLine
  8
0
 62
256
370
-1
 48
1.0
  6
ByLayer
 10
162.79792544614929
 20
83.499999999999972
 30
0.0
 11
162.79792544614929
 21
76.999999999999872
 31
0.0
  0
LINE
  5
1AD
100
AcDbEntity
100
AcDbLine
  8
0
 62
256
370
-1
 48
1.0
  6
ByLayer
 10
162.79792544614929
 20
76.999999999999872
 30
0.0
 11
165.79792544614941
 21
76.999999999999872
 31
0.0
  0
LINE
  5
1AE
100
AcDbEntity
100
AcDbLine
  8
0
 62
256
370
-1
 48
1.0
  6
ByLayer
 10
165.79792544614941
 20
76.999999999999872
 30
0.0
 11
165.79792544614929
 21
88.499999999999858
 31
0.0
  0
LINE
  5
1AF
100
AcDbEntity
100
AcDbLine
  8
0
 62
256
370
-1
 48
1.0
  6
ByLayer
 10
165.79792544614929
 20
88.499999999999858
 30
0.0
 11
153.77705581769999
 21
88.499999999999801
 31
0.0
  0
LINE
  5
1B0
100
AcDbEntity
100
AcDbLine
  8
0
 62
256
370
-1
 48
1.0
  6
ByLayer
 10
-111.70207455385076
 20
167.00000000000003
 30
0.0
 11
-111.70207455385076
 21
162.0
 31
0.0
  0
ARC
  5
1B1
100
AcDbEntity
  8
0
 62
256
370
-1
 48
1.0
  6
ByLayer
100
AcDbCircle
 10
-121.70207455385076
 20
162.0
 30
0.0
 40
10.0
100
AcDbArc
 50
270.0
 51
0.0
  0
LINE
  5
1B2
100
AcDbEntity
100
AcDbLine
  8
0
 62
256
370
-1
 48
1.0
  6
ByLayer
 10
-121.70207455385076
 20
152.0
 30
0.0
 11
-126.70207455385076
 21
152.0
 31
0.0
  0
LINE
  5
1B3
100
AcDbEntity
100
AcDbLine
  8
0
 62
256
370
-1
 48
1.0
  6
ByLayer
 10
-126.70207455385076
 20
152.0
 30
0.0
 11
-126.70207455385076
 21
25.999999999999993
 31
0.0
  0
LINE
  5
1B4
100
AcDbEntity
100
AcDbLine
  8
0
 62
256
370
-1
 48
1.0
  6
ByLayer
 10
14.297925446149236
 20
167.0
 30
0.0
 11
-111.70207455385076
 21
167.00000000000003
 31
0.0
  0
ARC
  5
1B5
100
AcDbEntity
  8
0
 62
256
370
-1
 48
1.0
  6
ByLayer
100
AcDbCircle
 10
53.077925446149131
 20
82.219999999999956
 30
0.0
 40
3.9999999999999893
100
AcDbArc
 50
198.20995686428344
 51
341.79004313571733
  0
LINE
  5
1B6
100
AcDbEntity
100
AcDbLine
  8
0
 62
256
370
-1
 48
1.0
  6
ByLayer
 10
56.877596484541783
 20
80.969999999999985
 30
0.0
 11
59.07792544614918
 21
80.969999999999928
 31
0.0
  0
LINE
  5
1B7
100
AcDbEntity
100
AcDbLine
  8
0
 62
256
370
-1
 48
1.0
  6
ByLayer
 10
59.07792544614918
 20
80.969999999999928
 30
0.0
 11
59.07792544614918
 21
83.469999999999899
 31
0.0
  0
LINE
  5
1B8
100
AcDbEntity
100
AcDbLine
  8
0
 62
256
370
-1
 48
1.0
  6
ByLayer
 10
59.07792544614918
 20
83.469999999999899
 30
0.0
 11
56.877596484541783
 21
83.469999999999843
 31
0.0
  0
ARC
  5
1B9
100
AcDbEntity
  8
0
 62
256
370
-1
 48
1.0
  6
ByLayer
100
AcDbCircle
 10
53.077925446149131
 20
82.219999999999871
 30
0.0
 40
3.9999999999999822
100
AcDbArc
 50
18.209956864282663
 51
161.79004313571696
  0
LINE
  5
1BA
100
AcDbEntity
100
AcDbLine
  8
0
 62
256
370
-1
 48
1.0
  6
ByLayer
 10
49.278254407756478
 20
83.469999999999871
 30
0.0
 11
47.07792544614918
 21
83.469999999999956
 31
0.0
  0
LINE
  5
1BB
100
AcDbEntity
100
AcDbLine
  8
0
 62
256
370
-1
 48
1.0
  6
ByLayer
 10
47.07792544614918
 20
83.469999999999956
 30
0.0
 11
47.07792544614918
 21
80.969999999999928
 31
0.0
  0
LINE
  5
1BC
100
AcDbEntity
100
AcDbLine
  8
0
 62
256
370
-1
 48
1.0
  6
ByLayer
 10
47.07792544614918
 20
80.969999999999928
 30
0.0
 11
49.278254407756478
 21
80.969999999999928
 31
0.0
  0
ARC
  5
1BD
100
AcDbEntity
  8
0
 62
256
370
-1
 48
1.0
  6
ByLayer
100
AcDbCircle
 10
-175.48207455385079
 20
82.219999999999871
 30
0.0
 40
3.9999999999999747
100
AcDbArc
 50
18.20995686428305
 51
161.79004313571721
  0
LINE
  5
1BE
100
AcDbEntity
100
AcDbLine
  8
0
 62
256
370
-1
 48
1.0
  6
ByLayer
 10
-179.28174559224342
 20
83.469999999999843
 30
0.0
 11
-181.48207455385082
 21
83.469999999999843
 31
0.0
  0
LINE
  5
1BF
100
AcDbEntity
100
AcDbLine
  8
0
 62
256
370
-1
 48
1.0
  6
ByLayer
 10
-181.48207455385082
 20
83.469999999999843
 30
0.0
 11
-181.48207455385082
 21
80.969999999999899
 31
0.0
  0
LINE
  5
1C0
100
AcDbEntity
100
AcDbLine
  8
0
 62
256
370
-1
 48
1.0
  6
ByLayer
 10
-181.48207455385082
 20
80.969999999999899
 30
0.0
 11
-179.28174559224342
 21
80.969999999999899
 31
0.0
  0
ARC
  5
1C1
100
AcDbEntity
  8
0
 62
256
370
-1
 48
1.0
  6
ByLayer
100
AcDbCircle
 10
-175.48207455385079
 20
82.219999999999914
 30
0.0
 40
3.9999999999999827
100
AcDbArc
 50
198.20995686428336
 51
341.79004313571716
  0
LINE
  5
1C2
100
AcDbEntity
100
AcDbLine
  8
0
 62
256
370
-1
 48
1.0
  6
ByLayer
 10
-171.68240351545813
 20
80.969999999999928
 30
0.0
 11
-169.48207455385082
 21
80.969999999999956
 31
0.0
  0
LINE
  5
1C3
100
AcDbEntity
100
AcDbLine
  8
0
 62
256
370
-1
 48
1.0
  6
ByLayer
 10
-169.48207455385082
 20
80.969999999999956
 30
0.0
 11
-169.48207455385082
 21
83.469999999999871
 31
0.0
  0
LINE
  5
1C4
100
AcDbEntity
100
AcDbLine
  8
0
 62
256
370
-1
 48
1.0
  6
ByLayer
 10
-169.48207455385082
 20
83.469999999999871
 30
0.0
 11
-171.68240351545813
 21
83.469999999999871
 31
0.0
  0
ENDSEC
  0
SECTION
  2
OBJECTS
  0
DICTIONARY
  5
C
100
AcDbDictionary
280
0
281
1
  3
ACAD_GROUP
350
D
  3
ACAD_LAYOUT
350
1A
  3
ACAD_MLINESTYLE
350
17
  3
ACAD_PLOTSETTINGS
350
19
  3
ACAD_PLOTSTYLENAME
350
E
  3
AcDbVariableDictionary
350
1C5
  3
QCAD_OBJECTS
350
1C6
  0
DICTIONARY
  5
D
100
AcDbDictionary
280
0
281
1
  0
ACDBDICTIONARYWDFLT
  5
E
100
AcDbDictionary
281
1
  3
Normal
350
F
100
AcDbDictionaryWithDefault
340
F
  0
ACDBPLACEHOLDER
  5
F
  0
DICTIONARY
  5
17
100
AcDbDictionary
280
0
281
1
  3
Standard
350
18
  0
MLINESTYLE
  5
18
100
AcDbMlineStyle
  2
STANDARD
 70
0
  3

 62
256
 51
90.0
 52
90.0
 71
2
 49
0.5
 62
256
  6
BYLAYER
 49
-0.5
 62
256
  6
BYLAYER
  0
DICTIONARY
  5
19
100
AcDbDictionary
280
0
281
1
  0
DICTIONARY
  5
1A
100
AcDbDictionary
281
1
  3
Layout1
350
1E
  3
Layout2
350
26
  3
Model
350
22
  0
LAYOUT
  5
1E
100
AcDbPlotSettings
  1

  2
none_device
  4

  6

 40
0.0
 41
0.0
 42
0.0
 43
0.0
 44
0.0
 45
0.0
 46
0.0
 47
0.0
 48
0.0
 49
0.0
140
0.0
141
0.0
142
1.0
143
1.0
 70
688
 72
0
 73
0
 74
5
  7

 75
16
147
1.0
148
0.0
149
0.0
100
AcDbLayout
  1
Layout1
 70
1
 71
1
 10
0.0
 20
0.0
 11
420.0
 21
297.0
 12
0.0
 22
0.0
 32
0.0
 14
100000000000000000000.0
 24
100000000000000000000.0
 34
100000000000000000000.0
 15
-100000000000000000000.0
 25
-100000000000000000000.0
 35
-100000000000000000000.0
146
0.0
 13
0.0
 23
0.0
 33
0.0
 16
1.0
 26
0.0
 36
0.0
 17
0.0
 27
1.0
 37
0.0
 76
0
330
1B
  0
LAYOUT
  5
22
100
AcDbPlotSettings
  1

  2
none_device
  4

  6

 40
0.0
 41
0.0
 42
0.0
 43
0.0
 44
0.0
 45
0.0
 46
0.0
 47
0.0
 48
0.0
 49
0.0
140
0.0
141
0.0
142
1.0
143
1.0
 70
1712
 72
0
 73
0
 74
0
  7

 75
0
147
1.0
148
0.0
149
0.0
100
AcDbLayout
  1
Model
 70
1
 71
0
 10
0.0
 20
0.0
 11
12.0
 21
9.0
 12
0.0
 22
0.0
 32
0.0
 14
0.0
 24
0.0
 34
0.0
 15
0.0
 25
0.0
 35
0.0
146
0.0
 13
0.0
 23
0.0
 33
0.0
 16
1.0
 26
0.0
 36
0.0
 17
0.0
 27
1.0
 37
0.0
 76
0
330
1F
  0
LAYOUT
  5
26
100
AcDbPlotSettings
  1

  2
none_device
  4

  6

 40
0.0
 41
0.0
 42
0.0
 43
0.0
 44
0.0
 45
0.0
 46
0.0
 47
0.0
 48
0.0
 49
0.0
140
0.0
141
0.0
142
1.0
143
1.0
 70
688
 72
0
 73
0
 74
5
  7

 75
16
147
1.0
148
0.0
149
0.0
100
AcDbLayout
  1
Layout2
 70
1
 71
2
 10
0.0
 20
0.0
 11
12.0
 21
9.0
 12
0.0
 22
0.0
 32
0.0
 14
0.0
 24
0.0
 34
0.0
 15
0.0
 25
0.0
 35
0.0
146
0.0
 13
0.0
 23
0.0
 33
0.0
 16
1.0
 26
0.0
 36
0.0
 17
0.0
 27
1.0
 37
0.0
 76
0
330
23
  0
DICTIONARY
  5
1C5
100
AcDbDictionary
281
1
  3
DIMASSOC
350
1C8
  3
HIDETEXT
350
1C7
  0
DICTIONARYVAR
  5
1C7
100
DictionaryVariables
280
0
  1
2
  0
DICTIONARYVAR
  5
1C8
100
DictionaryVariables
280
0
  1
1
  0
DICTIONARY
  5
1C6
100
AcDbDictionary
281
1
  3
Grid/DisplayGrid00
350
1C9
  3
Grid/DisplayGrid01
350
1CA
  3
Grid/DisplayGrid02
350
1CB
  3
Grid/DisplayGrid03
350
1CC
  3
Grid/GridSpacingX00
350
1CD
  3
Grid/GridSpacingX01
350
1CE
  3
Grid/GridSpacingX02
350
1CF
  3
Grid/GridSpacingX03
350
1D0
  3
Grid/GridSpacingY00
350
1D1
  3
Grid/GridSpacingY01
350
1D2
  3
Grid/GridSpacingY02
350
1D3
  3
Grid/GridSpacingY03
350
1D4
  3
Grid/IsometricGrid00
350
1D5
  3
Grid/IsometricGrid01
350
1D6
  3
Grid/IsometricGrid02
350
1D7
  3
Grid/IsometricGrid03
350
1D8
  3
Grid/IsometricProjection00
350
1D9
  3
Grid/IsometricProjection01
350
1DA
  3
Grid/IsometricProjection02
350
1DB
  3
Grid/IsometricProjection03
350
1DC
  3
Grid/MetaGridSpacingX00
350
1DD
  3
Grid/MetaGridSpacingX01
350
1DE
  3
Grid/MetaGridSpacingX02
350
1DF
  3
Grid/MetaGridSpacingX03
350
1E0
  3
Grid/MetaGridSpacingY00
350
1E1
  3
Grid/MetaGridSpacingY01
350
1E2
  3
Grid/MetaGridSpacingY02
350
1E3
  3
Grid/MetaGridSpacingY03
350
1E4
  3
MultiPageSettings/Columns
350
1E5
  3
MultiPageSettings/GlueMarginsBottom
350
1E6
  3
MultiPageSettings/GlueMarginsLeft
350
1E7
  3
MultiPageSettings/GlueMarginsRight
350
1E8
  3
MultiPageSettings/GlueMarginsTop
350
1E9
  3
MultiPageSettings/PrintCropMarks
350
1EA
  3
MultiPageSettings/Rows
350
1EB
  3
PageSettings/OffsetX
350
1EC
  3
PageSettings/OffsetY
350
1ED
  3
PageSettings/PageOrientation
350
1EE
  3
PageSettings/PaperHeight
350
1EF
  3
PageSettings/PaperWidth
350
1F0
  3
PageSettings/Scale
350
1F1
  3
PageSettings/ShowPaperBorders
350
1F2
  3
UnitSettings/PaperUnit
350
1F3
  0
XRECORD
  5
1C9
330
1C6
100
AcDbXrecord
280
1
290
1
  0
XRECORD
  5
1CA
330
1C6
100
AcDbXrecord
280
1
290
1
  0
XRECORD
  5
1CB
330
1C6
100
AcDbXrecord
280
1
290
1
  0
XRECORD
  5
1CC
330
1C6
100
AcDbXrecord
280
1
290
1
  0
XRECORD
  5
1CD
330
1C6
100
AcDbXrecord
280
1
1000
auto
  0
XRECORD
  5
1CE
330
1C6
100
AcDbXrecord
280
1
1000
auto
  0
XRECORD
  5
1CF
330
1C6
100
AcDbXrecord
280
1
1000
auto
  0
XRECORD
  5
1D0
330
1C6
100
AcDbXrecord
280
1
1000
auto
  0
XRECORD
  5
1D1
330
1C6
100
AcDbXrecord
280
1
1000
auto
  0
XRECORD
  5
1D2
330
1C6
100
AcDbXrecord
280
1
1000
auto
  0
XRECORD
  5
1D3
330
1C6
100
AcDbXrecord
280
1
1000
auto
  0
XRECORD
  5
1D4
330
1C6
100
AcDbXrecord
280
1
1000
auto
  0
XRECORD
  5
1D5
330
1C6
100
AcDbXrecord
280
1
290
0
  0
XRECORD
  5
1D6
330
1C6
100
AcDbXrecord
280
1
290
0
  0
XRECORD
  5
1D7
330
1C6
100
AcDbXrecord
280
1
290
0
  0
XRECORD
  5
1D8
330
1C6
100
AcDbXrecord
280
1
290
0
  0
XRECORD
  5
1D9
330
1C6
100
AcDbXrecord
280
1
 90
0
  0
XRECORD
  5
1DA
330
1C6
100
AcDbXrecord
280
1
 90
0
  0
XRECORD
  5
1DB
330
1C6
100
AcDbXrecord
280
1
 90
0
  0
XRECORD
  5
1DC
330
1C6
100
AcDbXrecord
280
1
 90
0
  0
XRECORD
  5
1DD
330
1C6
100
AcDbXrecord
280
1
1000
auto
  0
XRECORD
  5
1DE
330
1C6
100
AcDbXrecord
280
1
1000
auto
  0
XRECORD
  5
1DF
330
1C6
100
AcDbXrecord
280
1
1000
auto
  0
XRECORD
  5
1E0
330
1C6
100
AcDbXrecord
280
1
1000
auto
  0
XRECORD
  5
1E1
330
1C6
100
AcDbXrecord
280
1
1000
auto
  0
XRECORD
  5
1E2
330
1C6
100
AcDbXrecord
280
1
1000
auto
  0
XRECORD
  5
1E3
330
1C6
100
AcDbXrecord
280
1
1000
auto
  0
XRECORD
  5
1E4
330
1C6
100
AcDbXrecord
280
1
1000
auto
  0
XRECORD
  5
1E5
330
1C6
100
AcDbXrecord
280
1
 90
1
  0
XRECORD
  5
1E6
330
1C6
100
AcDbXrecord
280
1
 40
10.0
  0
XRECORD
  5
1E7
330
1C6
100
AcDbXrecord
280
1
 40
10.0
  0
XRECORD
  5
1E8
330
1C6
100
AcDbXrecord
280
1
 40
10.0
  0
XRECORD
  5
1E9
330
1C6
100
AcDbXrecord
280
1
 40
10.0
  0
XRECORD
  5
1EA
330
1C6
100
AcDbXrecord
280
1
290
0
  0
XRECORD
  5
1EB
330
1C6
100
AcDbXrecord
280
1
 90
1
  0
XRECORD
  5
1EC
330
1C6
100
AcDbXrecord
280
1
 40
0.0
  0
XRECORD
  5
1ED
330
1C6
100
AcDbXrecord
280
1
 40
0.0
  0
XRECORD
  5
1EE
330
1C6
100
AcDbXrecord
280
1
1000
Portrait
  0
XRECORD
  5
1EF
330
1C6
100
AcDbXrecord
280
1
 40
297.0
  0
XRECORD
  5
1F0
330
1C6
100
AcDbXrecord
280
1
 40
210.0
  0
XRECORD
  5
1F1
330
1C6
100
AcDbXrecord
280
1
1000
1:1
  0
XRECORD
  5
1F2
330
1C6
100
AcDbXrecord
280
1
290
1
  0
XRECORD
  5
1F3
330
1C6
100
AcDbXrecord
280
1
 90
4
  0
ENDSEC
  0
EOF
