<?xml version="1.0" encoding="UTF-8" standalone="no"?>
<!-- Created with Inkscape (http://www.inkscape.org/) -->

<svg
   xmlns:dc="http://purl.org/dc/elements/1.1/"
   xmlns:cc="http://creativecommons.org/ns#"
   xmlns:rdf="http://www.w3.org/1999/02/22-rdf-syntax-ns#"
   xmlns:svg="http://www.w3.org/2000/svg"
   xmlns="http://www.w3.org/2000/svg"
   xmlns:sodipodi="http://sodipodi.sourceforge.net/DTD/sodipodi-0.dtd"
   xmlns:inkscape="http://www.inkscape.org/namespaces/inkscape"
   width="384mm"
   height="384mm"
   viewBox="0 0 1360.6299 1360.6299"
   id="svg5780"
   version="1.1"
   inkscape:version="0.91 r13725"
   sodipodi:docname="clear_orange.svg">
  <defs
     id="defs5782">
    <marker
       orient="auto"
       id="DistanceX"
       style="overflow:visible"
       refX="0.0"
       refY="0.0">
      <path
         id="path8027"
         d="M 3,-3 L -3,3 M 0,-5 L  0,5"
         style="stroke:#000000; stroke-width:0.5" />
    </marker>
    <pattern
       id="Hatch"
       x="0"
       y="0"
       patternUnits="userSpaceOnUse"
       width="8"
       height="8">
      <path
         id="path8030"
         d="M8 4 l-4,4"
         stroke-width="0.25"
         stroke="#000000"
         linecap="square" />
      <path
         id="path8032"
         d="M6 2 l-4,4"
         stroke-width="0.25"
         stroke="#000000"
         linecap="square" />
      <path
         id="path8034"
         d="M4 0 l-4,4"
         stroke-width="0.25"
         stroke="#000000"
         linecap="square" />
    </pattern>
    <symbol
       id="*Model_Space" />
    <symbol
       id="*Paper_Space" />
    <symbol
       id="*Paper_Space0" />
    <symbol
       id="crane_flap">
      <path
         id="path8040"
         d="M -308.001969,928.346457 A 5.580709,5.580709 -0.000000 1 0 -319.163386,928.346457 5.580709,5.580709 -0.000000 1 0 -308.001969,928.346457 z"
         style="stroke:#000000;fill:none;stroke-linecap: round" />
      <path
         id="path8042"
         d="M -141.732283,928.346457 A 17.716535,17.716535 -0.000000 1 0 -177.165354,928.346457 17.716535,17.716535 -0.000000 1 0 -141.732283,928.346457 z"
         style="stroke:#000000;fill:none;stroke-linecap: round" />
      <path
         id="path8044"
         d="M 0.000000,898.228346 L -627.165354,898.228346 L -627.165354,1052.362205 L 0.000000,1052.362205 L 0.000000,898.228346 z"
         style="stroke:#000000;fill:none;stroke-linecap: round" />
      <path
         id="path8046"
         d="M -450.000000,928.346457 A 17.716535,17.716535 -0.000000 1 0 -485.433071,928.346457 17.716535,17.716535 -0.000000 1 0 -450.000000,928.346457 z"
         style="stroke:#000000;fill:none;stroke-linecap: round" />
    </symbol>
    <symbol
       id="p2">
      <path
         id="path8049"
         d="M 0.000000,2412.992126 0.000000,1052.362205"
         style="stroke:#000000;fill:none;stroke-linecap: round" />
      <path
         id="path8051"
         d="M 0.000000,1052.362205 1360.629921,1052.362205"
         style="stroke:#000000;fill:none;stroke-linecap: round" />
      <path
         id="path8053"
         d="M 1360.629921,1052.362205 1360.629921,2412.992126"
         style="stroke:#000000;fill:none;stroke-linecap: round" />
      <path
         id="path8055"
         d="M 1360.629921,2412.992126 0.000000,2412.992126"
         style="stroke:#000000;fill:none;stroke-linecap: round" />
    </symbol>
    <symbol
       id="carrier_window">
      <path
         id="path8058"
         d="M 41.988189,1229.527559 L 41.988189,1052.362205 L 0.000000,1052.362205 L 0.000000,1707.874016 L 59.527559,1707.874016 L 59.527559,1728.708661 L 119.055118,1728.708661 L 119.055118,1707.874016 L 178.582677,1707.874016 L 178.582677,1229.527559 L 202.393701,1229.527559 L 202.393701,1052.362205 L 53.149606,1052.362205 L 53.149606,1229.527559 L 41.988189,1229.527559 z"
         style="stroke:#000000;fill:none;stroke-linecap: round" />
    </symbol>
    <symbol
       id="door">
      <path
         id="path8061"
         d="M 0.000000,1052.362205 L -699.094488,1052.362205 L -699.094488,1264.960630 L -681.377953,1264.960630 L -681.377953,1229.527559 L -670.216535,1229.527559 L -670.216535,1666.204724 L -28.877953,1666.204724 L -28.877953,1229.527559 L -17.716535,1229.527559 L -17.716535,1264.960630 L 0.000000,1264.960630 L 0.000000,1052.362205 z"
         style="stroke:#000000;fill:none;stroke-linecap: round" />
    </symbol>
    <marker
       orient="auto"
       id="DistanceX-8"
       style="overflow:visible"
       refX="0.0"
       refY="0.0">
      <path
         id="path4870"
         d="M 3,-3 L -3,3 M 0,-5 L  0,5"
         style="stroke:#000000; stroke-width:0.5" />
    </marker>
    <pattern
       id="Hatch-6"
       x="0"
       y="0"
       patternUnits="userSpaceOnUse"
       width="8"
       height="8">
      <path
         id="path4873"
         d="M8 4 l-4,4"
         stroke-width="0.25"
         stroke="#000000"
         linecap="square" />
      <path
         id="path4875"
         d="M6 2 l-4,4"
         stroke-width="0.25"
         stroke="#000000"
         linecap="square" />
      <path
         id="path4877"
         d="M4 0 l-4,4"
         stroke-width="0.25"
         stroke="#000000"
         linecap="square" />
    </pattern>
    <symbol
       id="*Model_Space-2" />
    <symbol
       id="*Paper_Space-5" />
    <symbol
       id="*Paper_Space0-7" />
    <symbol
       id="crane_flap-7">
      <path
         id="path4883"
         d="M 0.000000,898.228346 L -627.165354,898.228346 L -627.165354,1052.362205 L 0.000000,1052.362205 L 0.000000,898.228346 z"
         style="stroke:#000000;fill:none;stroke-linecap: round" />
      <path
         id="path4885"
         d="M -439.370079,935.433071 A 17.716535,17.716535 -0.000000 1 0 -474.803150,935.433071 17.716535,17.716535 -0.000000 1 0 -439.370079,935.433071 z"
         style="stroke:#000000;fill:none;stroke-linecap: round" />
      <path
         id="path4887"
         d="M -308.001969,935.433071 A 5.580709,5.580709 -0.000000 1 0 -319.163386,935.433071 5.580709,5.580709 -0.000000 1 0 -308.001969,935.433071 z"
         style="stroke:#000000;fill:none;stroke-linecap: round" />
      <path
         id="path4889"
         d="M -152.362205,935.433071 A 17.716535,17.716535 -0.000000 1 0 -187.795276,935.433071 17.716535,17.716535 -0.000000 1 0 -152.362205,935.433071 z"
         style="stroke:#000000;fill:none;stroke-linecap: round" />
    </symbol>
    <symbol
       id="p2-1">
      <path
         id="path4892"
         d="M 1360.629921,2412.992126 0.000000,2412.992126"
         style="stroke:#000000;fill:none;stroke-linecap: round" />
      <path
         id="path4894"
         d="M 0.000000,2412.992126 0.000000,1052.362205"
         style="stroke:#000000;fill:none;stroke-linecap: round" />
      <path
         id="path4896"
         d="M 0.000000,1052.362205 1360.629921,1052.362205"
         style="stroke:#000000;fill:none;stroke-linecap: round" />
      <path
         id="path4898"
         d="M 1360.629921,1052.362205 1360.629921,2412.992126"
         style="stroke:#000000;fill:none;stroke-linecap: round" />
    </symbol>
    <symbol
       id="carrier_window-6">
      <path
         id="path4901"
         d="M 41.988189,1229.527559 L 41.988189,1052.362205 L 0.000000,1052.362205 L 0.000000,1707.874016 L 59.527559,1707.874016 L 59.527559,1728.708661 L 119.055118,1728.708661 L 119.055118,1707.874016 L 178.582677,1707.874016 L 178.582677,1229.527559 L 202.393701,1229.527559 L 202.393701,1052.362205 L 53.149606,1052.362205 L 53.149606,1229.527559 L 41.988189,1229.527559 z"
         style="stroke:#000000;fill:none;stroke-linecap: round" />
    </symbol>
    <symbol
       id="door-8">
      <path
         id="path4904"
         d="M 0.000000,1052.362205 L -699.094488,1052.362205 L -699.094488,1264.960630 L -681.377953,1264.960630 L -681.377953,1229.527559 L -670.216535,1229.527559 L -670.216535,1666.204724 L -28.877953,1666.204724 L -28.877953,1229.527559 L -17.716535,1229.527559 L -17.716535,1264.960630 L 0.000000,1264.960630 L 0.000000,1052.362205 z"
         style="stroke:#000000;fill:none;stroke-linecap: round" />
    </symbol>
    <marker
       orient="auto"
       id="DistanceX-0"
       style="overflow:visible"
       refX="0.0"
       refY="0.0">
      <path
         id="path5005"
         d="M 3,-3 L -3,3 M 0,-5 L  0,5"
         style="stroke:#000000; stroke-width:0.5" />
    </marker>
    <pattern
       id="Hatch-8"
       x="0"
       y="0"
       patternUnits="userSpaceOnUse"
       width="8"
       height="8">
      <path
         id="path5008"
         d="M8 4 l-4,4"
         stroke-width="0.25"
         stroke="#000000"
         linecap="square" />
      <path
         id="path5010"
         d="M6 2 l-4,4"
         stroke-width="0.25"
         stroke="#000000"
         linecap="square" />
      <path
         id="path5012"
         d="M4 0 l-4,4"
         stroke-width="0.25"
         stroke="#000000"
         linecap="square" />
    </pattern>
    <symbol
       id="*Model_Space-27" />
    <symbol
       id="*Paper_Space-0" />
    <symbol
       id="*Paper_Space0-5" />
    <marker
       orient="auto"
       id="DistanceX-9"
       style="overflow:visible"
       refX="0.0"
       refY="0.0">
      <path
         id="path12553"
         d="M 3,-3 L -3,3 M 0,-5 L  0,5"
         style="stroke:#000000; stroke-width:0.5" />
    </marker>
    <pattern
       id="Hatch-5"
       x="0"
       y="0"
       patternUnits="userSpaceOnUse"
       width="8"
       height="8">
      <path
         id="path12556"
         d="M8 4 l-4,4"
         stroke-width="0.25"
         stroke="#000000"
         linecap="square" />
      <path
         id="path12558"
         d="M6 2 l-4,4"
         stroke-width="0.25"
         stroke="#000000"
         linecap="square" />
      <path
         id="path12560"
         d="M4 0 l-4,4"
         stroke-width="0.25"
         stroke="#000000"
         linecap="square" />
    </pattern>
    <symbol
       id="*Model_Space-29" />
    <symbol
       id="*Paper_Space-4" />
    <symbol
       id="*Paper_Space0-3" />
    <marker
       refY="0.0"
       refX="0.0"
       style="overflow:visible"
       id="DistanceX-04"
       orient="auto">
      <path
         style="stroke:#000000; stroke-width:0.5"
         d="M 3,-3 L -3,3 M 0,-5 L  0,5"
         id="path8027-3" />
    </marker>
    <pattern
       height="8"
       width="8"
       patternUnits="userSpaceOnUse"
       y="0"
       x="0"
       id="Hatch-4">
      <path
         linecap="square"
         stroke="#000000"
         stroke-width="0.25"
         d="M8 4 l-4,4"
         id="path8030-8" />
      <path
         linecap="square"
         stroke="#000000"
         stroke-width="0.25"
         d="M6 2 l-4,4"
         id="path8032-2" />
      <path
         linecap="square"
         stroke="#000000"
         stroke-width="0.25"
         d="M4 0 l-4,4"
         id="path8034-5" />
    </pattern>
    <symbol
       id="*Model_Space-0" />
    <symbol
       id="*Paper_Space-8" />
    <symbol
       id="*Paper_Space0-0" />
    <symbol
       id="crane_flap-9">
      <path
         style="stroke:#000000;fill:none;stroke-linecap: round"
         d="M -308.001969,928.346457 A 5.580709,5.580709 -0.000000 1 0 -319.163386,928.346457 5.580709,5.580709 -0.000000 1 0 -308.001969,928.346457 z"
         id="path8040-6" />
      <path
         style="stroke:#000000;fill:none;stroke-linecap: round"
         d="M -141.732283,928.346457 A 17.716535,17.716535 -0.000000 1 0 -177.165354,928.346457 17.716535,17.716535 -0.000000 1 0 -141.732283,928.346457 z"
         id="path8042-7" />
      <path
         style="stroke:#000000;fill:none;stroke-linecap: round"
         d="M 0.000000,898.228346 L -627.165354,898.228346 L -627.165354,1052.362205 L 0.000000,1052.362205 L 0.000000,898.228346 z"
         id="path8044-9" />
      <path
         style="stroke:#000000;fill:none;stroke-linecap: round"
         d="M -450.000000,928.346457 A 17.716535,17.716535 -0.000000 1 0 -485.433071,928.346457 17.716535,17.716535 -0.000000 1 0 -450.000000,928.346457 z"
         id="path8046-4" />
    </symbol>
    <symbol
       id="p2-3">
      <path
         style="stroke:#000000;fill:none;stroke-linecap: round"
         d="M 0.000000,2412.992126 0.000000,1052.362205"
         id="path8049-6" />
      <path
         style="stroke:#000000;fill:none;stroke-linecap: round"
         d="M 0.000000,1052.362205 1360.629921,1052.362205"
         id="path8051-0" />
      <path
         style="stroke:#000000;fill:none;stroke-linecap: round"
         d="M 1360.629921,1052.362205 1360.629921,2412.992126"
         id="path8053-6" />
      <path
         style="stroke:#000000;fill:none;stroke-linecap: round"
         d="M 1360.629921,2412.992126 0.000000,2412.992126"
         id="path8055-0" />
    </symbol>
    <symbol
       id="carrier_window-8">
      <path
         style="stroke:#000000;fill:none;stroke-linecap: round"
         d="M 41.988189,1229.527559 L 41.988189,1052.362205 L 0.000000,1052.362205 L 0.000000,1707.874016 L 59.527559,1707.874016 L 59.527559,1728.708661 L 119.055118,1728.708661 L 119.055118,1707.874016 L 178.582677,1707.874016 L 178.582677,1229.527559 L 202.393701,1229.527559 L 202.393701,1052.362205 L 53.149606,1052.362205 L 53.149606,1229.527559 L 41.988189,1229.527559 z"
         id="path8058-4" />
    </symbol>
    <symbol
       id="door-0">
      <path
         style="stroke:#000000;fill:none;stroke-linecap: round"
         d="M 0.000000,1052.362205 L -699.094488,1052.362205 L -699.094488,1264.960630 L -681.377953,1264.960630 L -681.377953,1229.527559 L -670.216535,1229.527559 L -670.216535,1666.204724 L -28.877953,1666.204724 L -28.877953,1229.527559 L -17.716535,1229.527559 L -17.716535,1264.960630 L 0.000000,1264.960630 L 0.000000,1052.362205 z"
         id="path8061-2" />
    </symbol>
    <marker
       refY="0.0"
       refX="0.0"
       style="overflow:visible"
       id="DistanceX-8-0"
       orient="auto">
      <path
         style="stroke:#000000; stroke-width:0.5"
         d="M 3,-3 L -3,3 M 0,-5 L  0,5"
         id="path4870-3" />
    </marker>
    <pattern
       height="8"
       width="8"
       patternUnits="userSpaceOnUse"
       y="0"
       x="0"
       id="Hatch-6-3">
      <path
         linecap="square"
         stroke="#000000"
         stroke-width="0.25"
         d="M8 4 l-4,4"
         id="path4873-5" />
      <path
         linecap="square"
         stroke="#000000"
         stroke-width="0.25"
         d="M6 2 l-4,4"
         id="path4875-8" />
      <path
         linecap="square"
         stroke="#000000"
         stroke-width="0.25"
         d="M4 0 l-4,4"
         id="path4877-0" />
    </pattern>
    <symbol
       id="*Model_Space-2-9" />
    <symbol
       id="*Paper_Space-5-0" />
    <symbol
       id="*Paper_Space0-7-9" />
    <symbol
       id="crane_flap-7-0">
      <path
         style="stroke:#000000;fill:none;stroke-linecap: round"
         d="M 0.000000,898.228346 L -627.165354,898.228346 L -627.165354,1052.362205 L 0.000000,1052.362205 L 0.000000,898.228346 z"
         id="path4883-1" />
      <path
         style="stroke:#000000;fill:none;stroke-linecap: round"
         d="M -439.370079,935.433071 A 17.716535,17.716535 -0.000000 1 0 -474.803150,935.433071 17.716535,17.716535 -0.000000 1 0 -439.370079,935.433071 z"
         id="path4885-9" />
      <path
         style="stroke:#000000;fill:none;stroke-linecap: round"
         d="M -308.001969,935.433071 A 5.580709,5.580709 -0.000000 1 0 -319.163386,935.433071 5.580709,5.580709 -0.000000 1 0 -308.001969,935.433071 z"
         id="path4887-2" />
      <path
         style="stroke:#000000;fill:none;stroke-linecap: round"
         d="M -152.362205,935.433071 A 17.716535,17.716535 -0.000000 1 0 -187.795276,935.433071 17.716535,17.716535 -0.000000 1 0 -152.362205,935.433071 z"
         id="path4889-6" />
    </symbol>
    <symbol
       id="p2-1-7">
      <path
         style="stroke:#000000;fill:none;stroke-linecap: round"
         d="M 1360.629921,2412.992126 0.000000,2412.992126"
         id="path4892-0" />
      <path
         style="stroke:#000000;fill:none;stroke-linecap: round"
         d="M 0.000000,2412.992126 0.000000,1052.362205"
         id="path4894-0" />
      <path
         style="stroke:#000000;fill:none;stroke-linecap: round"
         d="M 0.000000,1052.362205 1360.629921,1052.362205"
         id="path4896-0" />
      <path
         style="stroke:#000000;fill:none;stroke-linecap: round"
         d="M 1360.629921,1052.362205 1360.629921,2412.992126"
         id="path4898-5" />
    </symbol>
    <symbol
       id="carrier_window-6-1">
      <path
         style="stroke:#000000;fill:none;stroke-linecap: round"
         d="M 41.988189,1229.527559 L 41.988189,1052.362205 L 0.000000,1052.362205 L 0.000000,1707.874016 L 59.527559,1707.874016 L 59.527559,1728.708661 L 119.055118,1728.708661 L 119.055118,1707.874016 L 178.582677,1707.874016 L 178.582677,1229.527559 L 202.393701,1229.527559 L 202.393701,1052.362205 L 53.149606,1052.362205 L 53.149606,1229.527559 L 41.988189,1229.527559 z"
         id="path4901-5" />
    </symbol>
    <symbol
       id="door-8-4">
      <path
         style="stroke:#000000;fill:none;stroke-linecap: round"
         d="M 0.000000,1052.362205 L -699.094488,1052.362205 L -699.094488,1264.960630 L -681.377953,1264.960630 L -681.377953,1229.527559 L -670.216535,1229.527559 L -670.216535,1666.204724 L -28.877953,1666.204724 L -28.877953,1229.527559 L -17.716535,1229.527559 L -17.716535,1264.960630 L 0.000000,1264.960630 L 0.000000,1052.362205 z"
         id="path4904-7" />
    </symbol>
    <marker
       refY="0.0"
       refX="0.0"
       style="overflow:visible"
       id="DistanceX-0-8"
       orient="auto">
      <path
         style="stroke:#000000; stroke-width:0.5"
         d="M 3,-3 L -3,3 M 0,-5 L  0,5"
         id="path5005-4" />
    </marker>
    <pattern
       height="8"
       width="8"
       patternUnits="userSpaceOnUse"
       y="0"
       x="0"
       id="Hatch-8-7">
      <path
         linecap="square"
         stroke="#000000"
         stroke-width="0.25"
         d="M8 4 l-4,4"
         id="path5008-3" />
      <path
         linecap="square"
         stroke="#000000"
         stroke-width="0.25"
         d="M6 2 l-4,4"
         id="path5010-6" />
      <path
         linecap="square"
         stroke="#000000"
         stroke-width="0.25"
         d="M4 0 l-4,4"
         id="path5012-5" />
    </pattern>
    <symbol
       id="*Model_Space-27-5" />
    <symbol
       id="*Paper_Space-0-2" />
    <symbol
       id="*Paper_Space0-5-4" />
    <marker
       orient="auto"
       id="DistanceX-09"
       style="overflow:visible"
       refX="0.0"
       refY="0.0">
      <path
         id="path13219"
         d="M 3,-3 L -3,3 M 0,-5 L  0,5"
         style="stroke:#000000; stroke-width:0.5" />
    </marker>
    <pattern
       id="Hatch-7"
       x="0"
       y="0"
       patternUnits="userSpaceOnUse"
       width="8"
       height="8">
      <path
         id="path13222"
         d="M8 4 l-4,4"
         stroke-width="0.25"
         stroke="#000000"
         linecap="square" />
      <path
         id="path13224"
         d="M6 2 l-4,4"
         stroke-width="0.25"
         stroke="#000000"
         linecap="square" />
      <path
         id="path13226"
         d="M4 0 l-4,4"
         stroke-width="0.25"
         stroke="#000000"
         linecap="square" />
    </pattern>
    <symbol
       id="*Model_Space-3" />
    <symbol
       id="*Paper_Space-2" />
    <symbol
       id="*Paper_Space0-59" />
  </defs>
  <sodipodi:namedview
     id="base"
     pagecolor="#ffffff"
     bordercolor="#666666"
     borderopacity="1.0"
     inkscape:pageopacity="0.0"
     inkscape:pageshadow="2"
     inkscape:zoom="0.39642692"
     inkscape:cx="673.84079"
     inkscape:cy="666.58836"
     inkscape:document-units="px"
     inkscape:current-layer="layer1"
     showgrid="false"
     inkscape:window-width="1366"
     inkscape:window-height="706"
     inkscape:window-x="-8"
     inkscape:window-y="-8"
     inkscape:window-maximized="1" />
  <metadata
     id="metadata5785">
    <rdf:RDF>
      <cc:Work
         rdf:about="">
        <dc:format>image/svg+xml</dc:format>
        <dc:type
           rdf:resource="http://purl.org/dc/dcmitype/StillImage" />
        <dc:title />
      </cc:Work>
    </rdf:RDF>
  </metadata>
  <g
     inkscape:label="Layer 1"
     inkscape:groupmode="layer"
     id="layer1"
     transform="translate(0,308.26772)">
    <path
       inkscape:connector-curvature="0"
       style="fill:none;stroke:#0000ff;stroke-linecap:round;stroke-opacity:1;stroke-width:0.03543307;stroke-miterlimit:4;stroke-dasharray:none"
       d="m 1071.2887,57.26317 a 5.58071,5.58071 0 1 0 -11.1614,0 5.58071,5.58071 0 0 0 11.1614,0 z"
       id="path13233" />
    <path
       inkscape:connector-curvature="0"
       style="fill:none;stroke:#0000ff;stroke-linecap:round;stroke-opacity:1;stroke-width:0.03543307;stroke-miterlimit:4;stroke-dasharray:none"
       d="m 1083.4246,-86.24076 a 17.716536,17.716536 0 1 0 -35.4331,0 17.716536,17.716536 0 1 0 35.4331,0 z"
       id="path13235" />
    <path
       inkscape:connector-curvature="0"
       style="fill:none;stroke:#0000ff;stroke-linecap:round;stroke-opacity:1;stroke-width:0.03543307;stroke-miterlimit:4;stroke-dasharray:none"
       d="m 1083.4246,200.76711 a 17.716536,17.716536 0 1 0 -35.4331,0 17.716536,17.716536 0 1 0 35.4331,0 z"
       id="path13237" />
    <path
       inkscape:connector-curvature="0"
       style="fill:none;stroke:#0000ff;stroke-linecap:round;stroke-opacity:1;stroke-width:0.03543307;stroke-miterlimit:4;stroke-dasharray:none"
       d="m 1071.2887,684.42855 a 5.58071,5.58071 0 1 0 -11.1614,0 5.58071,5.58071 0 0 0 11.1614,0 z"
       id="path13239" />
    <path
       inkscape:connector-curvature="0"
       style="fill:none;stroke:#0000ff;stroke-linecap:round;stroke-opacity:1;stroke-width:0.03543307;stroke-miterlimit:4;stroke-dasharray:none"
       d="m 1083.4246,827.93245 a 17.716536,17.716536 0 1 0 -35.4331,0 17.716536,17.716536 0 1 0 35.4331,0 z"
       id="path13241" />
    <path
       inkscape:connector-curvature="0"
       style="fill:none;stroke:#0000ff;stroke-linecap:round;stroke-opacity:1;stroke-width:0.03543307;stroke-miterlimit:4;stroke-dasharray:none"
       d="m 1083.4246,540.92455 a 17.716536,17.716536 0 1 0 -35.4331,0 17.716536,17.716536 0 1 0 35.4331,0 z"
       id="path13243" />
    <path
       inkscape:connector-curvature="0"
       style="fill:none;stroke:#0000ff;stroke-linecap:round;stroke-opacity:1;stroke-width:0.03543307;stroke-miterlimit:4;stroke-dasharray:none"
       d="m 1126.7238,193.6805 0,177.16535"
       id="path13245" />
    <path
       inkscape:connector-curvature="0"
       style="fill:none;stroke:#0000ff;stroke-linecap:round;stroke-opacity:1;stroke-width:0.03543307;stroke-miterlimit:4;stroke-dasharray:none"
       d="m 1102.9128,370.84585 0,-655.51181"
       id="path13247" />
    <path
       inkscape:connector-curvature="0"
       style="fill:none;stroke:#0000ff;stroke-linecap:round;stroke-opacity:1;stroke-width:0.03543307;stroke-miterlimit:4;stroke-dasharray:none"
       d="m 1102.9128,-284.66596 82.3464,0"
       id="path13249" />
    <path
       inkscape:connector-curvature="0"
       style="fill:none;stroke:#0000ff;stroke-linecap:round;stroke-opacity:1;stroke-width:0.03543307;stroke-miterlimit:4;stroke-dasharray:none"
       d="m 1185.2592,-284.66596 0,-20.83465"
       id="path13251" />
    <path
       inkscape:connector-curvature="0"
       style="fill:none;stroke:#0000ff;stroke-linecap:round;stroke-opacity:1;stroke-width:0.03543307;stroke-miterlimit:4;stroke-dasharray:none"
       d="m 1185.2592,-305.50061 58.5354,0"
       id="path13253" />
    <path
       inkscape:connector-curvature="0"
       style="fill:none;stroke:#0000ff;stroke-linecap:round;stroke-opacity:1;stroke-width:0.03543307;stroke-miterlimit:4;stroke-dasharray:none"
       d="m 1243.7946,-305.50061 0,20.83465"
       id="path13255" />
    <path
       inkscape:connector-curvature="0"
       style="fill:none;stroke:#0000ff;stroke-linecap:round;stroke-opacity:1;stroke-width:0.03543307;stroke-miterlimit:4;stroke-dasharray:none"
       d="m 1243.7946,-284.66596 58.5355,0"
       id="path13257" />
    <path
       inkscape:connector-curvature="0"
       style="fill:none;stroke:#0000ff;stroke-linecap:round;stroke-opacity:1;stroke-width:0.03543307;stroke-miterlimit:4;stroke-dasharray:none"
       d="m 1302.3301,-284.66596 0,478.34646"
       id="path13259" />
    <path
       inkscape:connector-curvature="0"
       style="fill:none;stroke:#0000ff;stroke-linecap:round;stroke-opacity:1;stroke-width:0.03543307;stroke-miterlimit:4;stroke-dasharray:none"
       d="m 1302.3301,193.6805 23.811,0"
       id="path13261" />
    <path
       inkscape:connector-curvature="0"
       style="fill:none;stroke:#0000ff;stroke-linecap:round;stroke-opacity:1;stroke-width:0.03543307;stroke-miterlimit:4;stroke-dasharray:none"
       d="m 1326.1411,193.6805 0,177.16535"
       id="path13263" />
    <path
       inkscape:connector-curvature="0"
       style="fill:none;stroke:#0000ff;stroke-linecap:round;stroke-opacity:1;stroke-width:0.03543307;stroke-miterlimit:4;stroke-dasharray:none"
       d="m 1326.1411,370.84585 -188.2559,0"
       id="path13265" />
    <path
       inkscape:connector-curvature="0"
       style="fill:none;stroke:#0000ff;stroke-linecap:round;stroke-opacity:1;stroke-width:0.03543307;stroke-miterlimit:4;stroke-dasharray:none"
       d="m 1137.8852,370.84585 0,-177.16535"
       id="path13267" />
    <path
       inkscape:connector-curvature="0"
       style="fill:none;stroke:#0000ff;stroke-linecap:round;stroke-opacity:1;stroke-width:0.03543307;stroke-miterlimit:4;stroke-dasharray:none"
       d="m 1137.8852,193.6805 -11.1614,0"
       id="path13269" />
    <path
       inkscape:connector-curvature="0"
       style="fill:none;stroke:#0000ff;stroke-linecap:round;stroke-opacity:1;stroke-width:0.03543307;stroke-miterlimit:4;stroke-dasharray:none"
       d="m 882.97968,193.6805 0,177.16535"
       id="path13271" />
    <path
       inkscape:connector-curvature="0"
       style="fill:none;stroke:#0000ff;stroke-linecap:round;stroke-opacity:1;stroke-width:0.03543307;stroke-miterlimit:4;stroke-dasharray:none"
       d="m 906.7907,370.84585 0,-655.51181"
       id="path13273" />
    <path
       inkscape:connector-curvature="0"
       style="fill:none;stroke:#0000ff;stroke-linecap:round;stroke-opacity:1;stroke-width:0.03543307;stroke-miterlimit:4;stroke-dasharray:none"
       d="m 906.7907,-284.66596 -82.34646,0"
       id="path13275" />
    <path
       inkscape:connector-curvature="0"
       style="fill:none;stroke:#0000ff;stroke-linecap:round;stroke-opacity:1;stroke-width:0.03543307;stroke-miterlimit:4;stroke-dasharray:none"
       d="m 824.44424,-284.66596 0,-20.83465"
       id="path13277" />
    <path
       inkscape:connector-curvature="0"
       style="fill:none;stroke:#0000ff;stroke-linecap:round;stroke-opacity:1;stroke-width:0.03543307;stroke-miterlimit:4;stroke-dasharray:none"
       d="m 824.44424,-305.50061 -58.53543,0"
       id="path13279" />
    <path
       inkscape:connector-curvature="0"
       style="fill:none;stroke:#0000ff;stroke-linecap:round;stroke-opacity:1;stroke-width:0.03543307;stroke-miterlimit:4;stroke-dasharray:none"
       d="m 765.90881,-305.50061 0,20.83465"
       id="path13281" />
    <path
       inkscape:connector-curvature="0"
       style="fill:none;stroke:#0000ff;stroke-linecap:round;stroke-opacity:1;stroke-width:0.03543307;stroke-miterlimit:4;stroke-dasharray:none"
       d="m 765.90881,-284.66596 -58.53543,0"
       id="path13283" />
    <path
       inkscape:connector-curvature="0"
       style="fill:none;stroke:#0000ff;stroke-linecap:round;stroke-opacity:1;stroke-width:0.03543307;stroke-miterlimit:4;stroke-dasharray:none"
       d="m 707.37338,-305.50061 0,499.18111"
       id="path13285" />
    <path
       inkscape:connector-curvature="0"
       style="fill:none;stroke:#0000ff;stroke-linecap:round;stroke-opacity:1;stroke-width:0.03543307;stroke-miterlimit:4;stroke-dasharray:none"
       d="m 707.37338,193.6805 -23.81103,0"
       id="path13287" />
    <path
       inkscape:connector-curvature="0"
       style="fill:none;stroke:#0000ff;stroke-linecap:round;stroke-opacity:1;stroke-width:0.03543307;stroke-miterlimit:4;stroke-dasharray:none"
       d="m 683.56235,193.6805 0,177.16535"
       id="path13289" />
    <path
       inkscape:connector-curvature="0"
       style="fill:none;stroke:#0000ff;stroke-linecap:round;stroke-opacity:1;stroke-width:0.03543307;stroke-miterlimit:4;stroke-dasharray:none"
       d="m 683.56235,370.84585 188.25591,0"
       id="path13291" />
    <path
       inkscape:connector-curvature="0"
       style="fill:none;stroke:#0000ff;stroke-linecap:round;stroke-opacity:1;stroke-width:0.03543307;stroke-miterlimit:4;stroke-dasharray:none"
       d="m 871.81826,370.84585 0,-177.16535"
       id="path13293" />
    <path
       inkscape:connector-curvature="0"
       style="fill:none;stroke:#0000ff;stroke-linecap:round;stroke-opacity:1;stroke-width:0.03543307;stroke-miterlimit:4;stroke-dasharray:none"
       d="m 871.81826,193.6805 11.16142,0"
       id="path13295" />
    <path
       inkscape:connector-curvature="0"
       style="fill:none;stroke:#0000ff;stroke-linecap:round;stroke-opacity:1;stroke-width:0.03543307;stroke-miterlimit:4;stroke-dasharray:none"
       d="m 1102.9128,-256.3195 -196.1221,0"
       id="path13297" />
    <path
       inkscape:connector-curvature="0"
       style="fill:none;stroke:#0000ff;stroke-linecap:round;stroke-opacity:1;stroke-width:0.03543307;stroke-miterlimit:4;stroke-dasharray:none"
       d="m 906.7907,370.84585 196.1221,0"
       id="path13299" />
    <path
       inkscape:connector-curvature="0"
       style="fill:none;stroke:#0000ff;stroke-linecap:round;stroke-opacity:1;stroke-width:0.03543307;stroke-miterlimit:4;stroke-dasharray:none"
       d="m 1102.9128,998.01125 -196.1221,0"
       id="path13301" />
    <path
       inkscape:connector-curvature="0"
       style="fill:none;stroke:#0000ff;stroke-linecap:round;stroke-opacity:1;stroke-width:0.03543307;stroke-miterlimit:4;stroke-dasharray:none"
       d="m 707.37338,1046.2002 -699.09449,0"
       id="path13303" />
    <path
       inkscape:connector-curvature="0"
       style="fill:none;stroke:#0000ff;stroke-linecap:round;stroke-opacity:1;stroke-width:0.03543307;stroke-miterlimit:4;stroke-dasharray:none"
       d="m 8.27889,1046.2002 0,-212.59845"
       id="path13305" />
    <path
       inkscape:connector-curvature="0"
       style="fill:none;stroke:#0000ff;stroke-linecap:round;stroke-opacity:1;stroke-width:0.03543307;stroke-miterlimit:4;stroke-dasharray:none"
       d="m 8.27889,833.60175 17.71653,0"
       id="path13307" />
    <path
       inkscape:connector-curvature="0"
       style="fill:none;stroke:#0000ff;stroke-linecap:round;stroke-opacity:1;stroke-width:0.03543307;stroke-miterlimit:4;stroke-dasharray:none"
       d="m 25.99542,833.60175 0,42.5197"
       id="path13309" />
    <path
       inkscape:connector-curvature="0"
       style="fill:none;stroke:#0000ff;stroke-linecap:round;stroke-opacity:1;stroke-width:0.03543307;stroke-miterlimit:4;stroke-dasharray:none"
       d="m 25.99542,876.12145 11.16142,0"
       id="path13311" />
    <path
       inkscape:connector-curvature="0"
       style="fill:none;stroke:#0000ff;stroke-linecap:round;stroke-opacity:1;stroke-width:0.03543307;stroke-miterlimit:4;stroke-dasharray:none"
       d="m 37.15684,876.12145 0,-443.7638"
       id="path13313" />
    <path
       inkscape:connector-curvature="0"
       style="fill:none;stroke:#0000ff;stroke-linecap:round;stroke-opacity:1;stroke-width:0.03543307;stroke-miterlimit:4;stroke-dasharray:none"
       d="m 37.15684,432.35765 418.64173,0"
       id="path13315" />
    <path
       inkscape:connector-curvature="0"
       style="fill:none;stroke:#0000ff;stroke-linecap:round;stroke-opacity:1;stroke-width:0.03543307;stroke-miterlimit:4;stroke-dasharray:none"
       d="m 455.79857,432.35765 0,-124.01574"
       id="path13317" />
    <path
       inkscape:connector-curvature="0"
       style="fill:none;stroke:#0000ff;stroke-linecap:round;stroke-opacity:1;stroke-width:0.03543307;stroke-miterlimit:4;stroke-dasharray:none"
       d="m 580.52298,308.34191 0,124.01574"
       id="path13319" />
    <path
       inkscape:connector-curvature="0"
       style="fill:none;stroke:#0000ff;stroke-linecap:round;stroke-opacity:1;stroke-width:0.03543307;stroke-miterlimit:4;stroke-dasharray:none"
       d="m 580.52298,432.35765 97.97244,0"
       id="path13321" />
    <path
       inkscape:connector-curvature="0"
       style="fill:none;stroke:#0000ff;stroke-linecap:round;stroke-opacity:1;stroke-width:0.03543307;stroke-miterlimit:4;stroke-dasharray:none"
       d="m 678.49542,432.35765 0,443.7638"
       id="path13323" />
    <path
       inkscape:connector-curvature="0"
       style="fill:none;stroke:#0000ff;stroke-linecap:round;stroke-opacity:1;stroke-width:0.03543307;stroke-miterlimit:4;stroke-dasharray:none"
       d="m 678.49542,876.12145 11.16142,0"
       id="path13325" />
    <path
       inkscape:connector-curvature="0"
       style="fill:none;stroke:#0000ff;stroke-linecap:round;stroke-opacity:1;stroke-width:0.03543307;stroke-miterlimit:4;stroke-dasharray:none"
       d="m 689.65684,876.12145 0,-42.5197"
       id="path13327" />
    <path
       inkscape:connector-curvature="0"
       style="fill:none;stroke:#0000ff;stroke-linecap:round;stroke-opacity:1;stroke-width:0.03543307;stroke-miterlimit:4;stroke-dasharray:none"
       d="m 689.65684,833.60175 17.71654,0"
       id="path13329" />
    <path
       inkscape:connector-curvature="0"
       style="fill:none;stroke:#0000ff;stroke-linecap:round;stroke-opacity:1;stroke-width:0.03543307;stroke-miterlimit:4;stroke-dasharray:none"
       d="m 8.27889,-305.50061 699.09449,0"
       id="path13331" />
    <path
       inkscape:connector-curvature="0"
       style="fill:none;stroke:#0000ff;stroke-linecap:round;stroke-opacity:1;stroke-width:0.03543307;stroke-miterlimit:4;stroke-dasharray:none"
       d="m 707.37338,-92.90218 -17.71654,0"
       id="path13333" />
    <path
       inkscape:connector-curvature="0"
       style="fill:none;stroke:#0000ff;stroke-linecap:round;stroke-opacity:1;stroke-width:0.03543307;stroke-miterlimit:4;stroke-dasharray:none"
       d="m 689.65684,-92.90218 0,-42.51969"
       id="path13335" />
    <path
       inkscape:connector-curvature="0"
       style="fill:none;stroke:#0000ff;stroke-linecap:round;stroke-opacity:1;stroke-width:0.03543307;stroke-miterlimit:4;stroke-dasharray:none"
       d="m 689.65684,-135.42187 -11.16142,0"
       id="path13337" />
    <path
       inkscape:connector-curvature="0"
       style="fill:none;stroke:#0000ff;stroke-linecap:round;stroke-opacity:1;stroke-width:0.03543307;stroke-miterlimit:4;stroke-dasharray:none"
       d="m 678.49542,-135.42187 0,443.76378"
       id="path13339" />
    <path
       inkscape:connector-curvature="0"
       style="fill:none;stroke:#0000ff;stroke-linecap:round;stroke-opacity:1;stroke-width:0.03543307;stroke-miterlimit:4;stroke-dasharray:none"
       d="m 678.49542,308.34191 -418.64173,0"
       id="path13341" />
    <path
       inkscape:connector-curvature="0"
       style="fill:none;stroke:#0000ff;stroke-linecap:round;stroke-opacity:1;stroke-width:0.03543307;stroke-miterlimit:4;stroke-dasharray:none"
       d="m 259.85369,308.34191 0,124.01574"
       id="path13343" />
    <path
       inkscape:connector-curvature="0"
       style="fill:none;stroke:#0000ff;stroke-linecap:round;stroke-opacity:1;stroke-width:0.03543307;stroke-miterlimit:4;stroke-dasharray:none"
       d="m 135.12928,432.35765 0,-124.01574"
       id="path13345" />
    <path
       inkscape:connector-curvature="0"
       style="fill:none;stroke:#0000ff;stroke-linecap:round;stroke-opacity:1;stroke-width:0.03543307;stroke-miterlimit:4;stroke-dasharray:none"
       d="m 135.12928,308.34191 -97.97244,0"
       id="path13347" />
    <path
       inkscape:connector-curvature="0"
       style="fill:none;stroke:#0000ff;stroke-linecap:round;stroke-opacity:1;stroke-width:0.03543307;stroke-miterlimit:4;stroke-dasharray:none"
       d="m 37.15684,308.34191 0,-443.76378"
       id="path13349" />
    <path
       inkscape:connector-curvature="0"
       style="fill:none;stroke:#0000ff;stroke-linecap:round;stroke-opacity:1;stroke-width:0.03543307;stroke-miterlimit:4;stroke-dasharray:none"
       d="m 37.15684,-135.42187 -11.16142,0"
       id="path13351" />
    <path
       inkscape:connector-curvature="0"
       style="fill:none;stroke:#0000ff;stroke-linecap:round;stroke-opacity:1;stroke-width:0.03543307;stroke-miterlimit:4;stroke-dasharray:none"
       d="m 25.99542,-135.42187 0,42.51969"
       id="path13353" />
    <path
       inkscape:connector-curvature="0"
       style="fill:none;stroke:#0000ff;stroke-linecap:round;stroke-opacity:1;stroke-width:0.03543307;stroke-miterlimit:4;stroke-dasharray:none"
       d="m 25.99542,-92.90218 -17.71653,0"
       id="path13355" />
    <path
       inkscape:connector-curvature="0"
       style="fill:none;stroke:#0000ff;stroke-linecap:round;stroke-opacity:1;stroke-width:0.03543307;stroke-miterlimit:4;stroke-dasharray:none"
       d="m 8.27889,-92.90218 0,-212.59843"
       id="path13357" />
    <path
       inkscape:connector-curvature="0"
       style="fill:none;stroke:#0000ff;stroke-linecap:round;stroke-opacity:1;stroke-width:0.03543307;stroke-miterlimit:4;stroke-dasharray:none"
       d="m 1126.7238,548.01125 0,-177.1654"
       id="path13359" />
    <path
       inkscape:connector-curvature="0"
       style="fill:none;stroke:#0000ff;stroke-linecap:round;stroke-opacity:1;stroke-width:0.03543307;stroke-miterlimit:4;stroke-dasharray:none"
       d="m 1126.7238,370.84585 -23.811,0"
       id="path13361" />
    <path
       inkscape:connector-curvature="0"
       style="fill:none;stroke:#0000ff;stroke-linecap:round;stroke-opacity:1;stroke-width:0.03543307;stroke-miterlimit:4;stroke-dasharray:none"
       d="m 1102.9128,370.84585 0,655.51185"
       id="path13363" />
    <path
       inkscape:connector-curvature="0"
       style="fill:none;stroke:#0000ff;stroke-linecap:round;stroke-opacity:1;stroke-width:0.03543307;stroke-miterlimit:4;stroke-dasharray:none"
       d="m 1102.9128,1026.3577 82.3464,0"
       id="path13365" />
    <path
       inkscape:connector-curvature="0"
       style="fill:none;stroke:#0000ff;stroke-linecap:round;stroke-opacity:1;stroke-width:0.03543307;stroke-miterlimit:4;stroke-dasharray:none"
       d="m 1185.2592,1026.3577 0,20.8347"
       id="path13367" />
    <path
       inkscape:connector-curvature="0"
       style="fill:none;stroke:#0000ff;stroke-linecap:round;stroke-opacity:1;stroke-width:0.03543307;stroke-miterlimit:4;stroke-dasharray:none"
       d="m 1185.2592,1047.1923 58.5354,0"
       id="path13369" />
    <path
       inkscape:connector-curvature="0"
       style="fill:none;stroke:#0000ff;stroke-linecap:round;stroke-opacity:1;stroke-width:0.03543307;stroke-miterlimit:4;stroke-dasharray:none"
       d="m 1243.7946,1047.1923 0,-20.8346"
       id="path13371" />
    <path
       inkscape:connector-curvature="0"
       style="fill:none;stroke:#0000ff;stroke-linecap:round;stroke-opacity:1;stroke-width:0.03543307;stroke-miterlimit:4;stroke-dasharray:none"
       d="m 1243.7946,1026.3577 58.5355,0"
       id="path13373" />
    <path
       inkscape:connector-curvature="0"
       style="fill:none;stroke:#0000ff;stroke-linecap:round;stroke-opacity:1;stroke-width:0.03543307;stroke-miterlimit:4;stroke-dasharray:none"
       d="m 1302.3301,1026.3577 0,-478.34645"
       id="path13375" />
    <path
       inkscape:connector-curvature="0"
       style="fill:none;stroke:#0000ff;stroke-linecap:round;stroke-opacity:1;stroke-width:0.03543307;stroke-miterlimit:4;stroke-dasharray:none"
       d="m 1302.3301,548.01125 23.811,0"
       id="path13377" />
    <path
       inkscape:connector-curvature="0"
       style="fill:none;stroke:#0000ff;stroke-linecap:round;stroke-opacity:1;stroke-width:0.03543307;stroke-miterlimit:4;stroke-dasharray:none"
       d="m 1326.1411,548.01125 0,-177.1654"
       id="path13379" />
    <path
       inkscape:connector-curvature="0"
       style="fill:none;stroke:#0000ff;stroke-linecap:round;stroke-opacity:1;stroke-width:0.03543307;stroke-miterlimit:4;stroke-dasharray:none"
       d="m 1137.8852,370.84585 0,177.1654"
       id="path13381" />
    <path
       inkscape:connector-curvature="0"
       style="fill:none;stroke:#0000ff;stroke-linecap:round;stroke-opacity:1;stroke-width:0.03543307;stroke-miterlimit:4;stroke-dasharray:none"
       d="m 1137.8852,548.01125 -11.1614,0"
       id="path13383" />
    <path
       inkscape:connector-curvature="0"
       style="fill:none;stroke:#0000ff;stroke-linecap:round;stroke-opacity:1;stroke-width:0.03543307;stroke-miterlimit:4;stroke-dasharray:none"
       d="m 882.97968,548.01125 0,-177.1654"
       id="path13385" />
    <path
       inkscape:connector-curvature="0"
       style="fill:none;stroke:#0000ff;stroke-linecap:round;stroke-opacity:1;stroke-width:0.03543307;stroke-miterlimit:4;stroke-dasharray:none"
       d="m 882.97968,370.84585 23.81102,0"
       id="path13387" />
    <path
       inkscape:connector-curvature="0"
       style="fill:none;stroke:#0000ff;stroke-linecap:round;stroke-opacity:1;stroke-width:0.03543307;stroke-miterlimit:4;stroke-dasharray:none"
       d="m 906.7907,370.84585 0,655.51185"
       id="path13389" />
    <path
       inkscape:connector-curvature="0"
       style="fill:none;stroke:#0000ff;stroke-linecap:round;stroke-opacity:1;stroke-width:0.03543307;stroke-miterlimit:4;stroke-dasharray:none"
       d="m 906.7907,1026.3577 -82.34646,0"
       id="path13391" />
    <path
       inkscape:connector-curvature="0"
       style="fill:none;stroke:#0000ff;stroke-linecap:round;stroke-opacity:1;stroke-width:0.03543307;stroke-miterlimit:4;stroke-dasharray:none"
       d="m 824.44424,1026.3577 0,20.8347"
       id="path13393" />
    <path
       inkscape:connector-curvature="0"
       style="fill:none;stroke:#0000ff;stroke-linecap:round;stroke-opacity:1;stroke-width:0.03543307;stroke-miterlimit:4;stroke-dasharray:none"
       d="m 824.44424,1047.1923 -58.53543,0"
       id="path13395" />
    <path
       inkscape:connector-curvature="0"
       style="fill:none;stroke:#0000ff;stroke-linecap:round;stroke-opacity:1;stroke-width:0.03543307;stroke-miterlimit:4;stroke-dasharray:none"
       d="m 765.90881,1047.1923 0,-20.8346"
       id="path13397" />
    <path
       inkscape:connector-curvature="0"
       style="fill:none;stroke:#0000ff;stroke-linecap:round;stroke-opacity:1;stroke-width:0.03543307;stroke-miterlimit:4;stroke-dasharray:none"
       d="m 765.90881,1026.3577 -58.53543,0"
       id="path13399" />
    <path
       inkscape:connector-curvature="0"
       style="fill:none;stroke:#0000ff;stroke-linecap:round;stroke-opacity:1;stroke-width:0.03543307;stroke-miterlimit:4;stroke-dasharray:none"
       d="m 707.37338,1046.2002 0,-498.18895"
       id="path13401" />
    <path
       inkscape:connector-curvature="0"
       style="fill:none;stroke:#0000ff;stroke-linecap:round;stroke-opacity:1;stroke-width:0.03543307;stroke-miterlimit:4;stroke-dasharray:none"
       d="m 707.37338,548.01125 -23.81103,0"
       id="path13403" />
    <path
       inkscape:connector-curvature="0"
       style="fill:none;stroke:#0000ff;stroke-linecap:round;stroke-opacity:1;stroke-width:0.03543307;stroke-miterlimit:4;stroke-dasharray:none"
       d="m 683.56235,548.01125 0,-177.1654"
       id="path13405" />
    <path
       inkscape:connector-curvature="0"
       style="fill:none;stroke:#0000ff;stroke-linecap:round;stroke-opacity:1;stroke-width:0.03543307;stroke-miterlimit:4;stroke-dasharray:none"
       d="m 871.81826,370.84585 0,177.1654"
       id="path13407" />
    <path
       inkscape:connector-curvature="0"
       style="fill:none;stroke:#0000ff;stroke-linecap:round;stroke-opacity:1;stroke-width:0.03543307;stroke-miterlimit:4;stroke-dasharray:none"
       d="m 871.81826,548.01125 11.16142,0"
       id="path13409" />
  </g>
</svg>
