999
dxflib 3.7.5.0
  0
SECTION
  2
HEADER
  9
$ACADVER
  1
AC1015
  9
$HANDSEED
  5
FFFF
  9
$ANGBASE
 50
0.0
  9
$ATTMODE
 70
1
  9
$AUNITS
 70
0
  9
$AUPREC
 70
0
  9
$CELTSCALE
 40
1.0
  9
$CHAMFERA
 40
0.0
  9
$CHAMFERB
 40
0.0
  9
$CHAMFERC
 40
0.0
  9
$CHAMFERD
 40
0.0
  9
$CMLJUST
 70
0
  9
$CMLSCALE
 40
1.0
  9
$DIMADEC
 70
0
  9
$DIMALTD
 70
2
  9
$DIMALTF
 40
25.399999999999999
  9
$DIMALTRND
 40
0.0
  9
$DIMALTTD
 70
2
  9
$DIMALTTZ
 70
0
  9
$DIMALTU
 70
2
  9
$DIMALTZ
 70
0
  9
$DIMAPOST
  1

  9
$DIMASZ
 40
2.5
  9
$DIMATFIT
 70
3
  9
$DIMAUNIT
 70
0
  9
$DIMAZIN
 70
2
  9
$DIMCEN
 40
0.09
  9
$DIMDEC
 70
4
  9
$DIMDLE
 40
0.0
  9
$DIMDLI
 40
0.38
  9
$DIMDSEP
 70
46
  9
$DIMEXE
 40
1.25
  9
$DIMEXO
 40
0.625
  9
$DIMFRAC
 70
0
  9
$DIMGAP
 40
0.625
  9
$DIMJUST
 70
0
  9
$DIMLFAC
 40
1.0
  9
$DIMLUNIT
 70
2
  9
$DIMLWD
 70
-2
  9
$DIMLWE
 70
-2
  9
$DIMPOST
  1

  9
$DIMRND
 40
0.0
  9
$DIMSCALE
 40
1.0
  9
$DIMTAD
 70
0
  9
$DIMTDEC
 70
4
  9
$DIMTFAC
 40
1.0
  9
$DIMTM
 40
0.0
  9
$DIMTOLJ
 70
1
  9
$DIMTP
 40
0.0
  9
$DIMTSZ
 40
0.0
  9
$DIMTVP
 40
0.0
  9
$DIMTXT
 40
2.5
  9
$DIMTZIN
 70
0
  9
$DIMZIN
 70
8
  9
$DWGCODEPAGE
  3
ANSI_1252
  9
$ELEVATION
 40
0.0
  9
$EXTMAX
 10
-100000000000000000000.0
 20
-100000000000000000000.0
 30
-100000000000000000000.0
  9
$EXTMIN
 10
100000000000000000000.0
 20
100000000000000000000.0
 30
100000000000000000000.0
  9
$FILLETRAD
 40
0.5
  9
$INSBASE
 10
0.0
 20
0.0
 30
0.0
  9
$INSUNITS
 70
4
  9
$LIMMAX
 10
12.0
 20
9.0
  9
$LIMMIN
 10
0.0
 20
0.0
  9
$LTSCALE
 40
1
  9
$LUNITS
 70
2
  9
$LUPREC
 70
4
  9
$MAXACTVP
 70
2
  9
$PDMODE
 70
0
  9
$PDSIZE
 40
0.0
  9
$PELEVATION
 40
0.0
  9
$PEXTMAX
 10
-100000000000000000000.0
 20
-100000000000000000000.0
 30
-100000000000000000000.0
  9
$PEXTMIN
 10
100000000000000000000.0
 20
100000000000000000000.0
 30
100000000000000000000.0
  9
$PINSBASE
 10
0.0
 20
0.0
 30
0.0
  9
$PLIMMAX
 10
12.0
 20
9.0
  9
$PLIMMIN
 10
0.0
 20
0.0
  9
$PLINEWID
 40
0.0
  9
$PROXYGRAPHICS
 70
1
  9
$PUCSORG
 10
0.0
 20
0.0
 30
0.0
  9
$PUCSXDIR
 10
1.0
 20
0.0
 30
0.0
  9
$PUCSYDIR
 10
0.0
 20
1.0
 30
0.0
  9
$SHADEDGE
 70
3
  9
$SHADEDIF
 70
70
  9
$SKETCHINC
 40
0.1
  9
$SPLINESEGS
 70
8
  9
$SPLINETYPE
 70
6
  9
$SURFTAB1
 70
6
  9
$SURFTAB2
 70
6
  9
$SURFTYPE
 70
6
  9
$SURFU
 70
6
  9
$SURFV
 70
6
  9
$TEXTSIZE
 40
2.5
  9
$THICKNESS
 40
0.0
  9
$TRACEWID
 40
0.05
  9
$TREEDEPTH
 70
3020
  9
$UCSORG
 10
0.0
 20
0.0
 30
0.0
  9
$UCSXDIR
 10
1.0
 20
0.0
 30
0.0
  9
$UCSYDIR
 10
0.0
 20
1.0
 30
0.0
  9
$UNITMODE
 70
0
  9
$USERI1
 70
0
  9
$USERI2
 70
0
  9
$USERI3
 70
0
  9
$USERI4
 70
0
  9
$USERI5
 70
0
  9
$USERR1
 40
0.0
  9
$USERR2
 40
0.0
  9
$USERR3
 40
0.0
  9
$USERR4
 40
0.0
  9
$USERR5
 40
0.0
  0
ENDSEC
  0
SECTION
  2
TABLES
  0
TABLE
  2
VPORT
  5
8
100
AcDbSymbolTable
 70
1
  0
VPORT
  5
30
100
AcDbSymbolTableRecord
100
AcDbViewportTableRecord
  2
*Active
 70
0
 10
0.0
 20
0.0
 11
1.0
 21
1.0
 12
286.30555555555549
 22
148.5
 13
0.0
 23
0.0
 14
10.0
 24
10.0
 15
10.0
 25
10.0
 16
0.0
 26
0.0
 36
1.0
 17
0.0
 27
0.0
 37
0.0
 40
297.0
 41
1.92798353909465
 42
50.0
 43
0.0
 44
0.0
 50
0.0
 51
0.0
 71
0
 72
100
 73
1
 74
3
 75
1
 76
1
 77
0
 78
0
281
0
 65
1
110
0.0
120
0.0
130
0.0
111
1.0
121
0.0
131
0.0
112
0.0
122
1.0
132
0.0
 79
0
146
0.0
  0
ENDTAB
  0
TABLE
  2
LTYPE
  5
5
100
AcDbSymbolTable
 70
41
  0
LTYPE
  5
16
100
AcDbSymbolTableRecord
100
AcDbLinetypeTableRecord
  2
Continuous
 70
0
  3
Solid line
 72
65
 73
0
 40
0.0
  0
LTYPE
  5
31
100
AcDbSymbolTableRecord
100
AcDbLinetypeTableRecord
  2
ACAD_ISO15W100
 70
0
  3
ISO double-dash triple-dot __ __ . . . __ __ . .
 72
65
 73
10
 40
39.000000000000007
 49
12.0
 74
0
 49
-3.0
 74
0
 49
12.0
 74
0
 49
-2.9500000000000002
 74
0
 49
0.1
 74
0
 49
-2.9000000000000004
 74
0
 49
0.1
 74
0
 49
-2.9000000000000004
 74
0
 49
0.1
 74
0
 49
-2.9500000000000002
 74
0
  0
LTYPE
  5
32
100
AcDbSymbolTableRecord
100
AcDbLinetypeTableRecord
  2
DIVIDE
 70
0
  3
Divide ____ . . ____ . . ____ . . ____ . . ____
 72
65
 73
6
 40
31.750000000000004
 49
12.699999999999999
 74
0
 49
-6.2999999999999998
 74
0
 49
0.1
 74
0
 49
-6.25
 74
0
 49
0.1
 74
0
 49
-6.2999999999999998
 74
0
  0
LTYPE
  5
33
100
AcDbSymbolTableRecord
100
AcDbLinetypeTableRecord
  2
ACAD_ISO10W100
 70
0
  3
ISO dash dot __ . __ . __ . __ . __ . __ . __ . 
 72
65
 73
4
 40
18.0
 49
12.0
 74
0
 49
-2.9500000000000002
 74
0
 49
0.1
 74
0
 49
-2.9500000000000002
 74
0
  0
LTYPE
  5
34
100
AcDbSymbolTableRecord
100
AcDbLinetypeTableRecord
  2
ACAD_ISO04W100
 70
0
  3
ISO long-dash dot ____ . ____ . ____ . ____ . _
 72
65
 73
4
 40
30.0
 49
24.0
 74
0
 49
-2.9500000000000002
 74
0
 49
0.1
 74
0
 49
-2.9500000000000002
 74
0
  0
LTYPE
  5
35
100
AcDbSymbolTableRecord
100
AcDbLinetypeTableRecord
  2
CENTER2
 70
0
  3
Center (.5x) ___ _ ___ _ ___ _ ___ _ ___ _ ___
 72
65
 73
4
 40
28.575000000000003
 49
19.050000000000001
 74
0
 49
-3.1749999999999998
 74
0
 49
3.1749999999999998
 74
0
 49
-3.1749999999999998
 74
0
  0
LTYPE
  5
36
100
AcDbSymbolTableRecord
100
AcDbLinetypeTableRecord
  2
ACAD_ISO11W100
 70
0
  3
ISO double-dash dot __ __ . __ __ . __ __ . __ _
 72
65
 73
6
 40
33.0
 49
12.0
 74
0
 49
-3.0
 74
0
 49
12.0
 74
0
 49
-2.9500000000000002
 74
0
 49
0.1
 74
0
 49
-2.9500000000000002
 74
0
  0
LTYPE
  5
37
100
AcDbSymbolTableRecord
100
AcDbLinetypeTableRecord
  2
HIDDEN2
 70
0
  3
Hidden (.5x) _ _ _ _ _ _ _ _ _ _ _ _ _ _ _ _ _ 
 72
65
 73
2
 40
4.7624999999999993
 49
3.1749999999999998
 74
0
 49
-1.5874999999999999
 74
0
  0
LTYPE
  5
38
100
AcDbSymbolTableRecord
100
AcDbLinetypeTableRecord
  2
BORDERX2
 70
0
  3
Border (2x) ____  ____  .  ____  ____  .  ___
 72
65
 73
6
 40
88.899999999999977
 49
25.399999999999999
 74
0
 49
-12.699999999999999
 74
0
 49
25.399999999999999
 74
0
 49
-12.649999999999999
 74
0
 49
0.1
 74
0
 49
-12.649999999999999
 74
0
  0
LTYPE
  5
39
100
AcDbSymbolTableRecord
100
AcDbLinetypeTableRecord
  2
ACAD_ISO05W100
 70
0
  3
ISO long-dash double-dot ____ .. ____ .. ____ . 
 72
65
 73
6
 40
33.000000000000007
 49
24.0
 74
0
 49
-2.9500000000000002
 74
0
 49
0.1
 74
0
 49
-2.9000000000000004
 74
0
 49
0.1
 74
0
 49
-2.9500000000000002
 74
0
  0
LTYPE
  5
3A
100
AcDbSymbolTableRecord
100
AcDbLinetypeTableRecord
  2
DASHDOTX2
 70
0
  3
Dash dot (2x) ____  .  ____  .  ____  .  ___
 72
65
 73
4
 40
50.799999999999997
 49
25.399999999999999
 74
0
 49
-12.649999999999999
 74
0
 49
0.1
 74
0
 49
-12.649999999999999
 74
0
  0
LTYPE
  5
3B
100
AcDbSymbolTableRecord
100
AcDbLinetypeTableRecord
  2
HIDDENX2
 70
0
  3
Hidden (2x) ____ ____ ____ ____ ____ ____ ____ 
 72
65
 73
2
 40
19.049999999999997
 49
12.699999999999999
 74
0
 49
-6.3499999999999996
 74
0
  0
LTYPE
  5
3C
100
AcDbSymbolTableRecord
100
AcDbLinetypeTableRecord
  2
CENTERX2
 70
0
  3
Center (2x) ________  __  ________  __  _____
 72
65
 73
4
 40
101.60000000000001
 49
63.5
 74
0
 49
-12.699999999999999
 74
0
 49
12.699999999999999
 74
0
 49
-12.699999999999999
 74
0
  0
LTYPE
  5
3D
100
AcDbSymbolTableRecord
100
AcDbLinetypeTableRecord
  2
BORDER2
 70
0
  3
Border (.5x) __.__.__.__.__.__.__.__.__.__.__.
 72
65
 73
6
 40
22.225000000000001
 49
6.3499999999999996
 74
0
 49
-3.1749999999999998
 74
0
 49
6.3499999999999996
 74
0
 49
-3.125
 74
0
 49
0.1
 74
0
 49
-3.125
 74
0
  0
LTYPE
  5
3E
100
AcDbSymbolTableRecord
100
AcDbLinetypeTableRecord
  2
DASHDOT2
 70
0
  3
Dash dot (.5x) _._._._._._._._._._._._._._._.
 72
65
 73
4
 40
12.699999999999999
 49
6.3499999999999996
 74
0
 49
-3.125
 74
0
 49
0.1
 74
0
 49
-3.125
 74
0
  0
LTYPE
  5
3F
100
AcDbSymbolTableRecord
100
AcDbLinetypeTableRecord
  2
ACAD_ISO12W100
 70
0
  3
ISO dash double-dot __ . . __ . . __ . . __ . . 
 72
65
 73
6
 40
21.0
 49
12.0
 74
0
 49
-2.9500000000000002
 74
0
 49
0.1
 74
0
 49
-2.9000000000000004
 74
0
 49
0.1
 74
0
 49
-2.9500000000000002
 74
0
  0
LTYPE
  5
40
100
AcDbSymbolTableRecord
100
AcDbLinetypeTableRecord
  2
ACAD_ISO07W100
 70
0
  3
ISO dot . . . . . . . . . . . . . . . . . . . . 
 72
65
 73
2
 40
3.0
 49
0.1
 74
0
 49
-2.8999999999999999
 74
0
  0
LTYPE
  5
41
100
AcDbSymbolTableRecord
100
AcDbLinetypeTableRecord
  2
HIDDEN
 70
0
  3
Hidden __ __ __ __ __ __ __ __ __ __ __ __ __ __
 72
65
 73
2
 40
9.5249999999999986
 49
6.3499999999999996
 74
0
 49
-3.1749999999999998
 74
0
  0
LTYPE
  5
42
100
AcDbSymbolTableRecord
100
AcDbLinetypeTableRecord
  2
ACAD_ISO06W100
 70
0
  3
ISO long-dash triple-dot ____ ... ____ ... ____
 72
65
 73
8
 40
36.000000000000007
 49
24.0
 74
0
 49
-2.9500000000000002
 74
0
 49
0.1
 74
0
 49
-2.9000000000000004
 74
0
 49
0.1
 74
0
 49
-2.9000000000000004
 74
0
 49
0.1
 74
0
 49
-2.9500000000000002
 74
0
  0
LTYPE
  5
43
100
AcDbSymbolTableRecord
100
AcDbLinetypeTableRecord
  2
CENTER
 70
0
  3
Center ____ _ ____ _ ____ _ ____ _ ____ _ ____
 72
65
 73
4
 40
50.800000000000004
 49
31.75
 74
0
 49
-6.3499999999999996
 74
0
 49
6.3499999999999996
 74
0
 49
-6.3499999999999996
 74
0
  0
LTYPE
  5
44
100
AcDbSymbolTableRecord
100
AcDbLinetypeTableRecord
  2
DOTX2
 70
0
  3
Dot (2x) .  .  .  .  .  .  .  .  .  .  .  .  .  .
 72
65
 73
2
 40
12.699999999999999
 49
0.1
 74
0
 49
-12.6
 74
0
  0
LTYPE
  5
45
100
AcDbSymbolTableRecord
100
AcDbLinetypeTableRecord
  2
PHANTOM
 70
0
  3
Phantom ______  __  __  ______  __  __  ______ 
 72
65
 73
6
 40
63.500000000000007
 49
31.75
 74
0
 49
-6.3499999999999996
 74
0
 49
6.3499999999999996
 74
0
 49
-6.3499999999999996
 74
0
 49
6.3499999999999996
 74
0
 49
-6.3499999999999996
 74
0
  0
LTYPE
  5
46
100
AcDbSymbolTableRecord
100
AcDbLinetypeTableRecord
  2
ACAD_ISO08W100
 70
0
  3
ISO long-dash short-dash ____ __ ____ __ ____ _
 72
65
 73
4
 40
36.0
 49
24.0
 74
0
 49
-3.0
 74
0
 49
6.0
 74
0
 49
-3.0
 74
0
  0
LTYPE
  5
47
100
AcDbSymbolTableRecord
100
AcDbLinetypeTableRecord
  2
DASHEDX2
 70
0
  3
Dashed (2x) ____  ____  ____  ____  ____  ___
 72
65
 73
2
 40
38.099999999999994
 49
25.399999999999999
 74
0
 49
-12.699999999999999
 74
0
  0
LTYPE
  5
48
100
AcDbSymbolTableRecord
100
AcDbLinetypeTableRecord
  2
ACAD_ISO02W100
 70
0
  3
ISO dash __ __ __ __ __ __ __ __ __ __ __ __ __
 72
65
 73
2
 40
15.0
 49
12.0
 74
0
 49
-3.0
 74
0
  0
LTYPE
  5
49
100
AcDbSymbolTableRecord
100
AcDbLinetypeTableRecord
  2
PHANTOM2
 70
0
  3
Phantom (.5x) ___ _ _ ___ _ _ ___ _ _ ___ _ _
 72
65
 73
6
 40
31.750000000000004
 49
15.875
 74
0
 49
-3.1749999999999998
 74
0
 49
3.1749999999999998
 74
0
 49
-3.1749999999999998
 74
0
 49
3.1749999999999998
 74
0
 49
-3.1749999999999998
 74
0
  0
LTYPE
  5
4A
100
AcDbSymbolTableRecord
100
AcDbLinetypeTableRecord
  2
DASHED2
 70
0
  3
Dashed (.5x) _ _ _ _ _ _ _ _ _ _ _ _ _ _ _ _ _ 
 72
65
 73
2
 40
9.5249999999999986
 49
6.3499999999999996
 74
0
 49
-3.1749999999999998
 74
0
  0
LTYPE
  5
4B
100
AcDbSymbolTableRecord
100
AcDbLinetypeTableRecord
  2
ACAD_ISO09W100
 70
0
  3
ISO long-dash double-short-dash ____ __ __ ____
 72
65
 73
6
 40
45.0
 49
24.0
 74
0
 49
-3.0
 74
0
 49
6.0
 74
0
 49
-3.0
 74
0
 49
6.0
 74
0
 49
-3.0
 74
0
  0
LTYPE
  5
4C
100
AcDbSymbolTableRecord
100
AcDbLinetypeTableRecord
  2
ACAD_ISO13W100
 70
0
  3
ISO double-dash double-dot __ __ . . __ __ . . _
 72
65
 73
8
 40
36.000000000000007
 49
12.0
 74
0
 49
-3.0
 74
0
 49
12.0
 74
0
 49
-2.9500000000000002
 74
0
 49
0.1
 74
0
 49
-2.9000000000000004
 74
0
 49
0.1
 74
0
 49
-2.9500000000000002
 74
0
  0
LTYPE
  5
4D
100
AcDbSymbolTableRecord
100
AcDbLinetypeTableRecord
  2
DOT2
 70
0
  3
Dot (.5x) ........................................
 72
65
 73
2
 40
3.1749999999999998
 49
0.1
 74
0
 49
-3.0749999999999997
 74
0
  0
LTYPE
  5
4E
100
AcDbSymbolTableRecord
100
AcDbLinetypeTableRecord
  2
DASHED
 70
0
  3
Dashed __ __ __ __ __ __ __ __ __ __ __ __ __ _
 72
65
 73
2
 40
19.049999999999997
 49
12.699999999999999
 74
0
 49
-6.3499999999999996
 74
0
  0
LTYPE
  5
4F
100
AcDbSymbolTableRecord
100
AcDbLinetypeTableRecord
  2
ACAD_ISO14W100
 70
0
  3
ISO dash triple-dot __ . . . __ . . . __ . . . _
 72
65
 73
8
 40
24.000000000000004
 49
12.0
 74
0
 49
-2.9500000000000002
 74
0
 49
0.1
 74
0
 49
-2.9000000000000004
 74
0
 49
0.1
 74
0
 49
-2.9000000000000004
 74
0
 49
0.1
 74
0
 49
-2.9500000000000002
 74
0
  0
LTYPE
  5
50
100
AcDbSymbolTableRecord
100
AcDbLinetypeTableRecord
  2
PHANTOMX2
 70
0
  3
Phantom (2x) ____________    ____    ____   _
 72
65
 73
6
 40
127.00000000000001
 49
63.5
 74
0
 49
-12.699999999999999
 74
0
 49
12.699999999999999
 74
0
 49
-12.699999999999999
 74
0
 49
12.699999999999999
 74
0
 49
-12.699999999999999
 74
0
  0
LTYPE
  5
14
100
AcDbSymbolTableRecord
100
AcDbLinetypeTableRecord
  2
BYBLOCK
 70
0
  3

 72
65
 73
0
 40
0.0
  0
LTYPE
  5
51
100
AcDbSymbolTableRecord
100
AcDbLinetypeTableRecord
  2
DIVIDEX2
 70
0
  3
Divide (2x) ________  .  .  ________  .  .  _
 72
65
 73
6
 40
63.5
 49
25.399999999999999
 74
0
 49
-12.649999999999999
 74
0
 49
0.1
 74
0
 49
-12.599999999999998
 74
0
 49
0.1
 74
0
 49
-12.649999999999999
 74
0
  0
LTYPE
  5
52
100
AcDbSymbolTableRecord
100
AcDbLinetypeTableRecord
  2
BORDER
 70
0
  3
Border __ __ . __ __ . __ __ . __ __ . __ __ .
 72
65
 73
6
 40
44.449999999999996
 49
12.699999999999999
 74
0
 49
-6.3499999999999996
 74
0
 49
12.699999999999999
 74
0
 49
-6.2999999999999998
 74
0
 49
0.1
 74
0
 49
-6.2999999999999998
 74
0
  0
LTYPE
  5
53
100
AcDbSymbolTableRecord
100
AcDbLinetypeTableRecord
  2
DIVIDE2
 70
0
  3
Divide (.5x) __..__..__..__..__..__..__..__.._
 72
65
 73
6
 40
15.874999999999998
 49
6.3499999999999996
 74
0
 49
-3.125
 74
0
 49
0.1
 74
0
 49
-3.0750000000000002
 74
0
 49
0.1
 74
0
 49
-3.125
 74
0
  0
LTYPE
  5
54
100
AcDbSymbolTableRecord
100
AcDbLinetypeTableRecord
  2
DOT
 70
0
  3
Dot . . . . . . . . . . . . . . . . . . . . . . . .
 72
65
 73
2
 40
6.3499999999999996
 49
0.1
 74
0
 49
-6.25
 74
0
  0
LTYPE
  5
55
100
AcDbSymbolTableRecord
100
AcDbLinetypeTableRecord
  2
DASHDOT
 70
0
  3
Dash dot __ . __ . __ . __ . __ . __ . __ . __
 72
65
 73
4
 40
25.400000000000002
 49
12.699999999999999
 74
0
 49
-6.2999999999999998
 74
0
 49
0.1
 74
0
 49
-6.2999999999999998
 74
0
  0
LTYPE
  5
56
100
AcDbSymbolTableRecord
100
AcDbLinetypeTableRecord
  2
ACAD_ISO03W100
 70
0
  3
ISO dash space __    __    __    __    __    __
 72
65
 73
2
 40
30.0
 49
12.0
 74
0
 49
-18.0
 74
0
  0
LTYPE
  5
15
100
AcDbSymbolTableRecord
100
AcDbLinetypeTableRecord
  2
ByLayer
 70
0
  3

 72
65
 73
0
 40
0.0
  0
ENDTAB
  0
TABLE
  2
LAYER
  5
2
100
AcDbSymbolTable
 70
1
  0
LAYER
  5
10
100
AcDbSymbolTableRecord
100
AcDbLayerTableRecord
  2
0
 70
0
 62
7
420
16777215
  6
Continuous
370
25
390
F
  0
ENDTAB
  0
TABLE
  2
STYLE
  5
3
100
AcDbSymbolTable
 70
1
  0
STYLE
  5
57
100
AcDbSymbolTableRecord
100
AcDbTextStyleTableRecord
  2
Standard
 70
0
 40
0.0
 41
1.0
 50
0.0
 71
0
 42
2.5
  3

  4

1001
ACAD
1000
txt
1071
0
  0
ENDTAB
  0
TABLE
  2
VIEW
  5
6
100
AcDbSymbolTable
 70
0
  0
ENDTAB
  0
TABLE
  2
UCS
  5
7
100
AcDbSymbolTable
 70
0
  0
ENDTAB
  0
TABLE
  2
APPID
  5
9
100
AcDbSymbolTable
 70
1
  0
APPID
  5
12
100
AcDbSymbolTableRecord
100
AcDbRegAppTableRecord
  2
ACAD
 70
0
  0
APPID
  5
58
100
AcDbSymbolTableRecord
100
AcDbRegAppTableRecord
  2
QCAD
 70
0
  0
ENDTAB
  0
TABLE
  2
DIMSTYLE
  5
A
100
AcDbSymbolTable
 70
1
100
AcDbDimStyleTable
 71
0
  0
DIMSTYLE
105
27
100
AcDbSymbolTableRecord
100
AcDbDimStyleTableRecord
  2
Standard
 41
2.5
 42
0.625
 43
3.75
 44
1.25
 70
0
 73
0
 74
0
 77
1
 78
8
140
2.5
141
2.5
143
0.03937007874016
147
0.625
171
3
172
1
271
2
272
2
274
3
278
44
283
0
284
8
340
57
  0
ENDTAB
  0
TABLE
  2
BLOCK_RECORD
  5
1
100
AcDbSymbolTable
 70
1
  0
BLOCK_RECORD
  5
1F
100
AcDbSymbolTableRecord
100
AcDbBlockTableRecord
  2
*Model_Space
340
22
  0
BLOCK_RECORD
  5
1B
100
AcDbSymbolTableRecord
100
AcDbBlockTableRecord
  2
*Paper_Space
340
1E
  0
BLOCK_RECORD
  5
23
100
AcDbSymbolTableRecord
100
AcDbBlockTableRecord
  2
*Paper_Space0
340
26
  0
ENDTAB
  0
ENDSEC
  0
SECTION
  2
BLOCKS
  0
BLOCK
  5
20
100
AcDbEntity
  8
0
100
AcDbBlockBegin
  2
*Model_Space
 70
0
 10
0.0
 20
0.0
 30
0.0
  3
*Model_Space
  1

  0
ENDBLK
  5
21
100
AcDbEntity
  8
0
100
AcDbBlockEnd
  0
BLOCK
  5
1C
100
AcDbEntity
 67
1
  8
0
100
AcDbBlockBegin
  2
*Paper_Space
 70
0
 10
0.0
 20
0.0
 30
0.0
  3
*Paper_Space
  1

  0
ENDBLK
  5
1D
100
AcDbEntity
 67
1
  8
0
100
AcDbBlockEnd
  0
BLOCK
  5
24
100
AcDbEntity
  8
0
100
AcDbBlockBegin
  2
*Paper_Space0
 70
0
 10
0.0
 20
0.0
 30
0.0
  3
*Paper_Space0
  1

  0
ENDBLK
  5
25
100
AcDbEntity
  8
0
100
AcDbBlockEnd
  0
ENDSEC
  0
SECTION
  2
ENTITIES
  0
CIRCLE
  5
59
100
AcDbEntity
100
AcDbCircle
  8
0
 62
256
370
-1
 48
1.0
  6
ByLayer
 10
14.000000000000142
 20
-14.000000000000199
 30
0.0
 40
5.0
  0
CIRCLE
  5
5A
100
AcDbEntity
100
AcDbCircle
  8
0
 62
256
370
-1
 48
1.0
  6
ByLayer
 10
-31.544999999999987
 20
146.99999999999966
 30
0.0
 40
1.9999999999999989
  0
CIRCLE
  5
5B
100
AcDbEntity
100
AcDbCircle
  8
0
 62
256
370
-1
 48
1.0
  6
ByLayer
 10
69.455000000000013
 20
146.99999999999966
 30
0.0
 40
1.9999999999999989
  0
CIRCLE
  5
5C
100
AcDbEntity
100
AcDbCircle
  8
0
 62
256
370
-1
 48
1.0
  6
ByLayer
 10
69.455000000000013
 20
45.999999999999659
 30
0.0
 40
1.9999999999999989
  0
CIRCLE
  5
5D
100
AcDbEntity
100
AcDbCircle
  8
0
 62
256
370
-1
 48
1.0
  6
ByLayer
 10
65.955000000000013
 20
116.27999999999966
 30
0.0
 40
1.9999999999999989
  0
CIRCLE
  5
5E
100
AcDbEntity
100
AcDbCircle
  8
0
 62
256
370
-1
 48
1.0
  6
ByLayer
 10
38.735000000000014
 20
143.49999999999966
 30
0.0
 40
1.9999999999999989
  0
CIRCLE
  5
5F
100
AcDbEntity
100
AcDbCircle
  8
0
 62
256
370
-1
 48
1.0
  6
ByLayer
 10
-31.544999999999959
 20
45.999999999999623
 30
0.0
 40
1.9999999999999989
  0
CIRCLE
  5
60
100
AcDbEntity
100
AcDbCircle
  8
0
 62
256
370
-1
 48
1.0
  6
ByLayer
 10
-172.99999999999989
 20
86.060000000000002
 30
0.0
 40
1.9999999999999989
  0
CIRCLE
  5
61
100
AcDbEntity
100
AcDbCircle
  8
0
 62
256
370
-1
 48
1.0
  6
ByLayer
 10
-156.99999999999989
 20
86.060000000000002
 30
0.0
 40
1.9999999999999989
  0
CIRCLE
  5
62
100
AcDbEntity
100
AcDbCircle
  8
0
 62
256
370
-1
 48
1.0
  6
ByLayer
 10
-164.99999999999991
 20
75.0
 30
0.0
 40
1.575000000000004
  0
CIRCLE
  5
63
100
AcDbEntity
100
AcDbCircle
  8
0
 62
256
370
-1
 48
1.0
  6
ByLayer
 10
-164.99999999999991
 20
59.999999999999993
 30
0.0
 40
1.574999999999996
  0
CIRCLE
  5
64
100
AcDbEntity
100
AcDbCircle
  8
0
 62
256
370
-1
 48
1.0
  6
ByLayer
 10
-148.99999999999989
 20
86.060000000000002
 30
0.0
 40
1.9999999999999989
  0
CIRCLE
  5
65
100
AcDbEntity
100
AcDbCircle
  8
0
 62
256
370
-1
 48
1.0
  6
ByLayer
 10
-132.99999999999989
 20
86.060000000000002
 30
0.0
 40
1.9999999999999989
  0
CIRCLE
  5
66
100
AcDbEntity
100
AcDbCircle
  8
0
 62
256
370
-1
 48
1.0
  6
ByLayer
 10
-140.99999999999991
 20
75.0
 30
0.0
 40
1.575000000000004
  0
CIRCLE
  5
67
100
AcDbEntity
100
AcDbCircle
  8
0
 62
256
370
-1
 48
1.0
  6
ByLayer
 10
-140.99999999999991
 20
59.999999999999993
 30
0.0
 40
1.574999999999996
  0
CIRCLE
  5
68
100
AcDbEntity
100
AcDbCircle
  8
0
 62
256
370
-1
 48
1.0
  6
ByLayer
 10
-89.544999999999931
 20
101.49999999999976
 30
0.0
 40
4.04
  0
CIRCLE
  5
69
100
AcDbEntity
100
AcDbCircle
  8
0
 62
256
370
-1
 48
1.0
  6
ByLayer
 10
-89.544999999999931
 20
85.499999999999986
 30
0.0
 40
3.3500000000000001
  0
CIRCLE
  5
6A
100
AcDbEntity
100
AcDbCircle
  8
0
 62
256
370
-1
 48
1.0
  6
ByLayer
 10
-89.544999999999931
 20
117.49999999999955
 30
0.0
 40
3.3500000000000001
  0
CIRCLE
  5
6B
100
AcDbEntity
100
AcDbCircle
  8
0
 62
256
370
-1
 48
1.0
  6
ByLayer
 10
117.45500000000007
 20
101.49999999999976
 30
0.0
 40
4.04
  0
CIRCLE
  5
6C
100
AcDbEntity
100
AcDbCircle
  8
0
 62
256
370
-1
 48
1.0
  6
ByLayer
 10
117.45500000000007
 20
85.499999999999986
 30
0.0
 40
3.3500000000000001
  0
CIRCLE
  5
6D
100
AcDbEntity
100
AcDbCircle
  8
0
 62
256
370
-1
 48
1.0
  6
ByLayer
 10
117.45500000000007
 20
117.49999999999955
 30
0.0
 40
3.3500000000000001
  0
CIRCLE
  5
6E
100
AcDbEntity
100
AcDbCircle
  8
0
 62
256
370
-1
 48
1.0
  6
ByLayer
 10
13.955000000000069
 20
18.499999999999801
 30
0.0
 40
2.6249999999999969
  0
CIRCLE
  5
6F
100
AcDbEntity
100
AcDbCircle
  8
0
 62
256
370
-1
 48
1.0
  6
ByLayer
 10
96.955000000000069
 20
101.49999999999983
 30
0.0
 40
2.6249999999999969
  0
CIRCLE
  5
70
100
AcDbEntity
100
AcDbCircle
  8
0
 62
256
370
-1
 48
1.0
  6
ByLayer
 10
96.955000000000069
 20
184.49999999999983
 30
0.0
 40
2.6249999999999969
  0
CIRCLE
  5
71
100
AcDbEntity
100
AcDbCircle
  8
0
 62
256
370
-1
 48
1.0
  6
ByLayer
 10
-69.044999999999931
 20
184.49999999999977
 30
0.0
 40
2.6249999999999969
  0
CIRCLE
  5
72
100
AcDbEntity
100
AcDbCircle
  8
0
 62
256
370
-1
 48
1.0
  6
ByLayer
 10
13.955000000000069
 20
184.49999999999983
 30
0.0
 40
2.6249999999999969
  0
CIRCLE
  5
73
100
AcDbEntity
100
AcDbCircle
  8
0
 62
256
370
-1
 48
1.0
  6
ByLayer
 10
-69.044999999999931
 20
101.49999999999979
 30
0.0
 40
2.6249999999999969
  0
CIRCLE
  5
74
100
AcDbEntity
100
AcDbCircle
  8
0
 62
256
370
-1
 48
1.0
  6
ByLayer
 10
-69.044999999999931
 20
18.499999999999787
 30
0.0
 40
2.6249999999999969
  0
CIRCLE
  5
75
100
AcDbEntity
100
AcDbCircle
  8
0
 62
256
370
-1
 48
1.0
  6
ByLayer
 10
96.955000000000069
 20
18.499999999999829
 30
0.0
 40
2.6249999999999969
  0
CIRCLE
  5
76
100
AcDbEntity
100
AcDbCircle
  8
0
 62
256
370
-1
 48
1.0
  6
ByLayer
 10
-140.93999999999997
 20
173.0
 30
0.0
 40
1.9999999999999989
  0
CIRCLE
  5
77
100
AcDbEntity
100
AcDbCircle
  8
0
 62
256
370
-1
 48
1.0
  6
ByLayer
 10
-140.94
 20
156.99999999999997
 30
0.0
 40
1.9999999999999989
  0
CIRCLE
  5
78
100
AcDbEntity
100
AcDbCircle
  8
0
 62
256
370
-1
 48
1.0
  6
ByLayer
 10
-151.99999999999997
 20
165.00000000000003
 30
0.0
 40
1.575000000000004
  0
CIRCLE
  5
79
100
AcDbEntity
100
AcDbCircle
  8
0
 62
256
370
-1
 48
1.0
  6
ByLayer
 10
-166.99999999999997
 20
165.0
 30
0.0
 40
1.574999999999996
  0
CIRCLE
  5
7A
100
AcDbEntity
100
AcDbCircle
  8
0
 62
256
370
-1
 48
1.0
  6
ByLayer
 10
-140.93999999999991
 20
45.999999999999986
 30
0.0
 40
1.9999999999999989
  0
CIRCLE
  5
7B
100
AcDbEntity
100
AcDbCircle
  8
0
 62
256
370
-1
 48
1.0
  6
ByLayer
 10
-140.93999999999994
 20
29.999999999999968
 30
0.0
 40
1.9999999999999989
  0
CIRCLE
  5
7C
100
AcDbEntity
100
AcDbCircle
  8
0
 62
256
370
-1
 48
1.0
  6
ByLayer
 10
-151.99999999999991
 20
38.000000000000014
 30
0.0
 40
1.575000000000004
  0
CIRCLE
  5
7D
100
AcDbEntity
100
AcDbCircle
  8
0
 62
256
370
-1
 48
1.0
  6
ByLayer
 10
-166.99999999999991
 20
38.000000000000014
 30
0.0
 40
1.574999999999996
  0
CIRCLE
  5
7E
100
AcDbEntity
100
AcDbCircle
  8
0
 62
256
370
-1
 48
1.0
  6
ByLayer
 10
-184.49999999999986
 20
101.49999999999969
 30
0.0
 40
2.6249999999999969
  0
CIRCLE
  5
7F
100
AcDbEntity
100
AcDbCircle
  8
0
 62
256
370
-1
 48
1.0
  6
ByLayer
 10
-184.49999999999997
 20
184.49999999999974
 30
0.0
 40
2.6249999999999969
  0
CIRCLE
  5
80
100
AcDbEntity
100
AcDbCircle
  8
0
 62
256
370
-1
 48
1.0
  6
ByLayer
 10
-184.50000000000017
 20
18.499999999999631
 30
0.0
 40
2.6249999999999969
  0
CIRCLE
  5
81
100
AcDbEntity
100
AcDbCircle
  8
0
 62
256
370
-1
 48
1.0
  6
ByLayer
 10
-101.50000000000017
 20
18.499999999999574
 30
0.0
 40
2.6249999999999969
  0
CIRCLE
  5
82
100
AcDbEntity
100
AcDbCircle
  8
0
 62
256
370
-1
 48
1.0
  6
ByLayer
 10
-101.49999999999997
 20
184.4999999999996
 30
0.0
 40
2.6249999999999969
  0
CIRCLE
  5
83
100
AcDbEntity
100
AcDbCircle
  8
0
 62
256
370
-1
 48
1.0
  6
ByLayer
 10
-184.49999999999986
 20
-79.500000000000369
 30
0.0
 40
2.6249999999999969
  0
CIRCLE
  5
84
100
AcDbEntity
100
AcDbCircle
  8
0
 62
256
370
-1
 48
1.0
  6
ByLayer
 10
-184.49999999999997
 20
3.4999999999996856
 30
0.0
 40
2.6249999999999969
  0
CIRCLE
  5
85
100
AcDbEntity
100
AcDbCircle
  8
0
 62
256
370
-1
 48
1.0
  6
ByLayer
 10
-184.50000000000017
 20
-162.50000000000043
 30
0.0
 40
2.6249999999999969
  0
CIRCLE
  5
86
100
AcDbEntity
100
AcDbCircle
  8
0
 62
256
370
-1
 48
1.0
  6
ByLayer
 10
-101.50000000000017
 20
-162.50000000000048
 30
0.0
 40
2.6249999999999969
  0
CIRCLE
  5
87
100
AcDbEntity
100
AcDbCircle
  8
0
 62
256
370
-1
 48
1.0
  6
ByLayer
 10
-18.5
 20
-79.500000000000497
 30
0.0
 40
2.6249999999999969
  0
CIRCLE
  5
88
100
AcDbEntity
100
AcDbCircle
  8
0
 62
256
370
-1
 48
1.0
  6
ByLayer
 10
-18.500000000000142
 20
-162.50000000000051
 30
0.0
 40
2.6249999999999969
  0
CIRCLE
  5
89
100
AcDbEntity
100
AcDbCircle
  8
0
 62
256
370
-1
 48
1.0
  6
ByLayer
 10
-18.499999999999972
 20
3.4999999999995035
 30
0.0
 40
2.6249999999999969
  0
CIRCLE
  5
8A
100
AcDbEntity
100
AcDbCircle
  8
0
 62
256
370
-1
 48
1.0
  6
ByLayer
 10
-101.49999999999997
 20
3.4999999999995399
 30
0.0
 40
2.6249999999999969
  0
CIRCLE
  5
8B
100
AcDbEntity
100
AcDbCircle
  8
0
 62
256
370
-1
 48
1.0
  6
ByLayer
 10
-55.999999999999972
 20
-115.0000000000004
 30
0.0
 40
1.9999999999999989
  0
CIRCLE
  5
8C
100
AcDbEntity
100
AcDbCircle
  8
0
 62
256
370
-1
 48
1.0
  6
ByLayer
 10
-136.99999999999997
 20
-34.000000000000455
 30
0.0
 40
1.9999999999999989
  0
CIRCLE
  5
8D
100
AcDbEntity
100
AcDbCircle
  8
0
 62
256
370
-1
 48
1.0
  6
ByLayer
 10
-45.999999999999972
 20
-125.0000000000004
 30
0.0
 40
1.5750000000000051
  0
CIRCLE
  5
8E
100
AcDbEntity
100
AcDbCircle
  8
0
 62
256
370
-1
 48
1.0
  6
ByLayer
 10
-146.99999999999997
 20
-24.000000000000455
 30
0.0
 40
1.5750000000000051
  0
CIRCLE
  5
8F
100
AcDbEntity
100
AcDbCircle
  8
0
 62
256
370
-1
 48
1.0
  6
ByLayer
 10
-45.999999999999972
 20
-24.000000000000455
 30
0.0
 40
1.5750000000000051
  0
CIRCLE
  5
90
100
AcDbEntity
100
AcDbCircle
  8
0
 62
256
370
-1
 48
1.0
  6
ByLayer
 10
-146.99999999999994
 20
-125.00000000000043
 30
0.0
 40
1.5750000000000051
  0
CIRCLE
  5
91
100
AcDbEntity
100
AcDbCircle
  8
0
 62
256
370
-1
 48
1.0
  6
ByLayer
 10
-55.999999999999972
 20
-34.000000000000455
 30
0.0
 40
1.9999999999999989
  0
CIRCLE
  5
92
100
AcDbEntity
100
AcDbCircle
  8
0
 62
256
370
-1
 48
1.0
  6
ByLayer
 10
-136.99999999999994
 20
-115.00000000000043
 30
0.0
 40
1.9999999999999989
  0
CIRCLE
  5
93
100
AcDbEntity
100
AcDbCircle
  8
0
 62
256
370
-1
 48
1.0
  6
ByLayer
 10
-3.5000000000000577
 20
-79.500000000000568
 30
0.0
 40
2.6249999999999969
  0
CIRCLE
  5
94
100
AcDbEntity
100
AcDbCircle
  8
0
 62
256
370
-1
 48
1.0
  6
ByLayer
 10
-3.5000000000001723
 20
3.4999999999994866
 30
0.0
 40
2.6249999999999969
  0
CIRCLE
  5
95
100
AcDbEntity
100
AcDbCircle
  8
0
 62
256
370
-1
 48
1.0
  6
ByLayer
 10
-3.500000000000365
 20
-162.50000000000063
 30
0.0
 40
2.6249999999999969
  0
CIRCLE
  5
96
100
AcDbEntity
100
AcDbCircle
  8
0
 62
256
370
-1
 48
1.0
  6
ByLayer
 10
79.499999999999631
 20
-162.50000000000068
 30
0.0
 40
2.6249999999999969
  0
CIRCLE
  5
97
100
AcDbEntity
100
AcDbCircle
  8
0
 62
256
370
-1
 48
1.0
  6
ByLayer
 10
162.4999999999998
 20
-79.500000000000696
 30
0.0
 40
2.6249999999999969
  0
CIRCLE
  5
98
100
AcDbEntity
100
AcDbCircle
  8
0
 62
256
370
-1
 48
1.0
  6
ByLayer
 10
162.49999999999966
 20
-162.50000000000071
 30
0.0
 40
2.6249999999999969
  0
CIRCLE
  5
99
100
AcDbEntity
100
AcDbCircle
  8
0
 62
256
370
-1
 48
1.0
  6
ByLayer
 10
162.49999999999983
 20
3.4999999999993046
 30
0.0
 40
2.6249999999999969
  0
CIRCLE
  5
9A
100
AcDbEntity
100
AcDbCircle
  8
0
 62
256
370
-1
 48
1.0
  6
ByLayer
 10
79.499999999999829
 20
3.499999999999341
 30
0.0
 40
2.6249999999999969
  0
CIRCLE
  5
9B
100
AcDbEntity
100
AcDbCircle
  8
0
 62
256
370
-1
 48
1.0
  6
ByLayer
 10
34.000000000000256
 20
-34.000000000000142
 30
0.0
 40
1.9999999999999989
  0
CIRCLE
  5
9C
100
AcDbEntity
100
AcDbCircle
  8
0
 62
256
370
-1
 48
1.0
  6
ByLayer
 10
135.00000000000026
 20
-34.000000000000142
 30
0.0
 40
1.9999999999999989
  0
CIRCLE
  5
9D
100
AcDbEntity
100
AcDbCircle
  8
0
 62
256
370
-1
 48
1.0
  6
ByLayer
 10
135.00000000000026
 20
-135.00000000000014
 30
0.0
 40
1.9999999999999989
  0
CIRCLE
  5
9E
100
AcDbEntity
100
AcDbCircle
  8
0
 62
256
370
-1
 48
1.0
  6
ByLayer
 10
131.50000000000026
 20
-64.720000000000141
 30
0.0
 40
1.9999999999999989
  0
CIRCLE
  5
9F
100
AcDbEntity
100
AcDbCircle
  8
0
 62
256
370
-1
 48
1.0
  6
ByLayer
 10
104.28000000000026
 20
-37.500000000000142
 30
0.0
 40
1.9999999999999989
  0
CIRCLE
  5
A0
100
AcDbEntity
100
AcDbCircle
  8
0
 62
256
370
-1
 48
1.0
  6
ByLayer
 10
34.000000000000284
 20
-135.00000000000017
 30
0.0
 40
1.9999999999999989
  0
CIRCLE
  5
A1
100
AcDbEntity
100
AcDbCircle
  8
0
 62
256
370
-1
 48
1.0
  6
ByLayer
 10
175.93999999999991
 20
101.49999999999933
 30
0.0
 40
2.6249999999999969
  0
CIRCLE
  5
A2
100
AcDbEntity
100
AcDbCircle
  8
0
 62
256
370
-1
 48
1.0
  6
ByLayer
 10
175.93999999999977
 20
18.499999999999318
 30
0.0
 40
2.6249999999999969
  0
CIRCLE
  5
A3
100
AcDbEntity
100
AcDbCircle
  8
0
 62
256
370
-1
 48
1.0
  6
ByLayer
 10
175.93999999999994
 20
184.49999999999935
 30
0.0
 40
2.6249999999999969
  0
LINE
  5
A4
100
AcDbEntity
100
AcDbLine
  8
0
 62
256
370
-1
 48
1.0
  6
ByLayer
 10
4.0000000000001421
 20
-24.000000000000199
 30
0.0
 11
14.000000000000142
 21
-24.000000000000199
 31
0.0
  0
ARC
  5
A5
100
AcDbEntity
  8
0
 62
256
370
-1
 48
1.0
  6
ByLayer
100
AcDbCircle
 10
14.000000000000142
 20
-14.000000000000199
 30
0.0
 40
10.0
100
AcDbArc
 50
270.0
 51
0.0
  0
LINE
  5
A6
100
AcDbEntity
100
AcDbLine
  8
0
 62
256
370
-1
 48
1.0
  6
ByLayer
 10
24.000000000000142
 20
-14.000000000000199
 30
0.0
 11
24.000000000000142
 21
-4.000000000000199
 31
0.0
  0
LINE
  5
A7
100
AcDbEntity
100
AcDbLine
  8
0
 62
256
370
-1
 48
1.0
  6
ByLayer
 10
89.454999999999998
 20
62.499999999999638
 30
0.0
 11
58.990533905932736
 21
92.964466094066893
 31
0.0
  0
ARC
  5
A8
100
AcDbEntity
  8
0
 62
256
370
-1
 48
1.0
  6
ByLayer
100
AcDbCircle
 10
62.526067811865474
 20
96.499999999999631
 30
0.0
 40
5.0000000000000018
100
AcDbArc
 50
135.0
 51
225.0
  0
LINE
  5
A9
100
AcDbEntity
100
AcDbLine
  8
0
 62
256
370
-1
 48
1.0
  6
ByLayer
 10
58.990533905932736
 20
100.03553390593237
 30
0.0
 11
89.45499999999997
 21
130.49999999999963
 31
0.0
  0
LINE
  5
AA
100
AcDbEntity
100
AcDbLine
  8
0
 62
256
370
-1
 48
1.0
  6
ByLayer
 10
89.455000000000027
 20
151.99999999999972
 30
0.0
 11
84.454999999999998
 21
151.99999999999972
 31
0.0
  0
ARC
  5
AB
100
AcDbEntity
  8
0
 62
256
370
-1
 48
1.0
  6
ByLayer
100
AcDbCircle
 10
84.455000000000027
 20
161.99999999999972
 30
0.0
 40
10.000000000000005
100
AcDbArc
 50
180.0
 51
269.99999999999983
  0
LINE
  5
AC
100
AcDbEntity
100
AcDbLine
  8
0
 62
256
370
-1
 48
1.0
  6
ByLayer
 10
74.455000000000013
 20
161.99999999999974
 30
0.0
 11
74.454999999999984
 21
166.99999999999969
 31
0.0
  0
LINE
  5
AD
100
AcDbEntity
100
AcDbLine
  8
0
 62
256
370
-1
 48
1.0
  6
ByLayer
 10
74.454999999999984
 20
166.99999999999969
 30
0.0
 11
52.95500000000002
 21
166.99999999999969
 31
0.0
  0
LINE
  5
AE
100
AcDbEntity
100
AcDbLine
  8
0
 62
256
370
-1
 48
1.0
  6
ByLayer
 10
52.95500000000002
 20
166.99999999999969
 30
0.0
 11
22.490533905932764
 21
136.5355339059324
 31
0.0
  0
ARC
  5
AF
100
AcDbEntity
  8
0
 62
256
370
-1
 48
1.0
  6
ByLayer
100
AcDbCircle
 10
18.955000000000027
 20
140.07106781186513
 30
0.0
 40
5.0000000000000009
100
AcDbArc
 50
225.0
 51
315.0
  0
LINE
  5
B0
100
AcDbEntity
100
AcDbLine
  8
0
 62
256
370
-1
 48
1.0
  6
ByLayer
 10
15.419466094067289
 20
136.5355339059324
 30
0.0
 11
-15.044999999999987
 21
166.99999999999963
 31
0.0
  0
LINE
  5
B1
100
AcDbEntity
100
AcDbLine
  8
0
 62
256
370
-1
 48
1.0
  6
ByLayer
 10
-15.044999999999987
 20
166.99999999999963
 30
0.0
 11
-36.545000000000002
 21
166.99999999999969
 31
0.0
  0
LINE
  5
B2
100
AcDbEntity
100
AcDbLine
  8
0
 62
256
370
-1
 48
1.0
  6
ByLayer
 10
-36.545000000000002
 20
166.99999999999969
 30
0.0
 11
-36.545000000000002
 21
161.99999999999969
 31
0.0
  0
ARC
  5
B3
100
AcDbEntity
  8
0
 62
256
370
-1
 48
1.0
  6
ByLayer
100
AcDbCircle
 10
-46.54499999999998
 20
161.99999999999972
 30
0.0
 40
9.9999999999999787
100
AcDbArc
 50
269.99999999999994
 51
360.0
  0
LINE
  5
B4
100
AcDbEntity
100
AcDbLine
  8
0
 62
256
370
-1
 48
1.0
  6
ByLayer
 10
-46.544999999999987
 20
151.99999999999972
 30
0.0
 11
-51.544999999999987
 21
151.99999999999969
 31
0.0
  0
LINE
  5
B5
100
AcDbEntity
100
AcDbLine
  8
0
 62
256
370
-1
 48
1.0
  6
ByLayer
 10
-51.544999999999987
 20
151.99999999999969
 30
0.0
 11
-51.544999999999987
 21
130.49999999999969
 31
0.0
  0
LINE
  5
B6
100
AcDbEntity
100
AcDbLine
  8
0
 62
256
370
-1
 48
1.0
  6
ByLayer
 10
-51.544999999999987
 20
130.49999999999969
 30
0.0
 11
-21.080533905932725
 21
100.03553390593243
 31
0.0
  0
ARC
  5
B7
100
AcDbEntity
  8
0
 62
256
370
-1
 48
1.0
  6
ByLayer
100
AcDbCircle
 10
-24.616067811865467
 20
96.499999999999687
 30
0.0
 40
5.0000000000000018
100
AcDbArc
 50
315.00000000000006
 51
44.999999999999972
  0
LINE
  5
B8
100
AcDbEntity
100
AcDbLine
  8
0
 62
256
370
-1
 48
1.0
  6
ByLayer
 10
-21.080533905932725
 20
92.96446609406695
 30
0.0
 11
-51.544999999999931
 21
62.499999999999666
 31
0.0
  0
LINE
  5
B9
100
AcDbEntity
100
AcDbLine
  8
0
 62
256
370
-1
 48
1.0
  6
ByLayer
 10
-51.544999999999931
 20
62.499999999999666
 30
0.0
 11
-51.544999999999987
 21
40.999999999999666
 31
0.0
  0
LINE
  5
BA
100
AcDbEntity
100
AcDbLine
  8
0
 62
256
370
-1
 48
1.0
  6
ByLayer
 10
-51.544999999999987
 20
40.999999999999666
 30
0.0
 11
-46.544999999999987
 21
40.999999999999666
 31
0.0
  0
ARC
  5
BB
100
AcDbEntity
  8
0
 62
256
370
-1
 48
1.0
  6
ByLayer
100
AcDbCircle
 10
-46.545000000000002
 20
30.99999999999967
 30
0.0
 40
10.0
100
AcDbArc
 50
360.0
 51
89.999999999999915
  0
LINE
  5
BC
100
AcDbEntity
100
AcDbLine
  8
0
 62
256
370
-1
 48
1.0
  6
ByLayer
 10
-36.545000000000002
 20
30.999999999999652
 30
0.0
 11
-36.545000000000002
 21
25.999999999999638
 31
0.0
  0
LINE
  5
BD
100
AcDbEntity
100
AcDbLine
  8
0
 62
256
370
-1
 48
1.0
  6
ByLayer
 10
-15.045000000000016
 20
25.99999999999968
 30
0.0
 11
15.419466094067246
 21
56.464466094066943
 31
0.0
  0
ARC
  5
BE
100
AcDbEntity
  8
0
 62
256
370
-1
 48
1.0
  6
ByLayer
100
AcDbCircle
 10
18.954999999999984
 20
52.928932188134205
 30
0.0
 40
5.0000000000000018
100
AcDbArc
 50
45.0
 51
135.0
  0
LINE
  5
BF
100
AcDbEntity
100
AcDbLine
  8
0
 62
256
370
-1
 48
1.0
  6
ByLayer
 10
22.490533905932722
 20
56.464466094066943
 30
0.0
 11
52.955000000000005
 21
25.999999999999709
 31
0.0
  0
LINE
  5
C0
100
AcDbEntity
100
AcDbLine
  8
0
 62
256
370
-1
 48
1.0
  6
ByLayer
 10
74.455000000000055
 20
25.99999999999968
 30
0.0
 11
74.455000000000055
 21
30.99999999999968
 31
0.0
  0
ARC
  5
C1
100
AcDbEntity
  8
0
 62
256
370
-1
 48
1.0
  6
ByLayer
100
AcDbCircle
 10
84.455000000000055
 20
30.999999999999687
 30
0.0
 40
10.000000000000004
100
AcDbArc
 50
90.0
 51
180.0
  0
LINE
  5
C2
100
AcDbEntity
100
AcDbLine
  8
0
 62
256
370
-1
 48
1.0
  6
ByLayer
 10
84.455000000000055
 20
40.999999999999687
 30
0.0
 11
89.455000000000013
 21
40.999999999999687
 31
0.0
  0
ARC
  5
C3
100
AcDbEntity
  8
0
 62
256
370
-1
 48
1.0
  6
ByLayer
100
AcDbCircle
 10
-164.99999999999994
 20
104.99999999999999
 30
0.0
 40
6.0000000000000107
100
AcDbArc
 50
94.780191847199163
 51
265.21980815280057
  0
LINE
  5
C4
100
AcDbEntity
100
AcDbLine
  8
0
 62
256
370
-1
 48
1.0
  6
ByLayer
 10
-165.49999999999997
 20
99.020869628449276
 30
0.0
 11
-165.49999999999997
 21
90.0
 31
0.0
  0
LINE
  5
C5
100
AcDbEntity
100
AcDbLine
  8
0
 62
256
370
-1
 48
1.0
  6
ByLayer
 10
-165.49999999999997
 20
90.0
 30
0.0
 11
-164.49999999999997
 21
90.0
 31
0.0
  0
LINE
  5
C6
100
AcDbEntity
100
AcDbLine
  8
0
 62
256
370
-1
 48
1.0
  6
ByLayer
 10
-164.49999999999997
 20
90.0
 30
0.0
 11
-164.49999999999997
 21
99.020869628449276
 31
0.0
  0
ARC
  5
C7
100
AcDbEntity
  8
0
 62
256
370
-1
 48
1.0
  6
ByLayer
100
AcDbCircle
 10
-164.99999999999997
 20
104.99999999999999
 30
0.0
 40
6.0000000000000107
100
AcDbArc
 50
274.78019184719915
 51
85.219808152800852
  0
LINE
  5
C8
100
AcDbEntity
100
AcDbLine
  8
0
 62
256
370
-1
 48
1.0
  6
ByLayer
 10
-164.49999999999997
 20
110.9791303715507
 30
0.0
 11
-164.49999999999997
 21
127.99999999999999
 31
0.0
  0
LINE
  5
C9
100
AcDbEntity
100
AcDbLine
  8
0
 62
256
370
-1
 48
1.0
  6
ByLayer
 10
-164.49999999999997
 20
127.99999999999999
 30
0.0
 11
-152.99999999999989
 21
127.99999999999999
 31
0.0
  0
LINE
  5
CA
100
AcDbEntity
100
AcDbLine
  8
0
 62
256
370
-1
 48
1.0
  6
ByLayer
 10
-152.99999999999989
 20
127.99999999999999
 30
0.0
 11
-152.99999999999989
 21
122.99999999999997
 31
0.0
  0
LINE
  5
CB
100
AcDbEntity
100
AcDbLine
  8
0
 62
256
370
-1
 48
1.0
  6
ByLayer
 10
-152.99999999999989
 20
122.99999999999997
 30
0.0
 11
-159.5
 21
123.0
 31
0.0
  0
LINE
  5
CC
100
AcDbEntity
100
AcDbLine
  8
0
 62
256
370
-1
 48
1.0
  6
ByLayer
 10
-159.5
 20
123.0
 30
0.0
 11
-159.49999999999997
 21
117.00000000000001
 31
0.0
  0
LINE
  5
CD
100
AcDbEntity
100
AcDbLine
  8
0
 62
256
370
-1
 48
1.0
  6
ByLayer
 10
-159.49999999999997
 20
117.00000000000001
 30
0.0
 11
-152.99999999999989
 21
117.0
 31
0.0
  0
LINE
  5
CE
100
AcDbEntity
100
AcDbLine
  8
0
 62
256
370
-1
 48
1.0
  6
ByLayer
 10
-152.99999999999991
 20
93.999999999999972
 30
0.0
 11
-161.5
 21
93.999999999999972
 31
0.0
  0
LINE
  5
CF
100
AcDbEntity
100
AcDbLine
  8
0
 62
256
370
-1
 48
1.0
  6
ByLayer
 10
-161.5
 20
93.999999999999972
 30
0.0
 11
-161.49999999999997
 21
89.999999999999986
 31
0.0
  0
LINE
  5
D0
100
AcDbEntity
100
AcDbLine
  8
0
 62
256
370
-1
 48
1.0
  6
ByLayer
 10
-161.49999999999997
 20
89.999999999999986
 30
0.0
 11
-152.99999999999991
 21
90.0
 31
0.0
  0
LINE
  5
D1
100
AcDbEntity
100
AcDbLine
  8
0
 62
256
370
-1
 48
1.0
  6
ByLayer
 10
-152.99999999999991
 20
90.0
 30
0.0
 11
-152.99999999999991
 21
49.999999999999993
 31
0.0
  0
LINE
  5
D2
100
AcDbEntity
100
AcDbLine
  8
0
 62
256
370
-1
 48
1.0
  6
ByLayer
 10
-176.99999999999991
 20
90.0
 30
0.0
 11
-168.49999999999983
 21
90.0
 31
0.0
  0
LINE
  5
D3
100
AcDbEntity
100
AcDbLine
  8
0
 62
256
370
-1
 48
1.0
  6
ByLayer
 10
-168.49999999999983
 20
90.0
 30
0.0
 11
-168.49999999999983
 21
93.999999999999972
 31
0.0
  0
LINE
  5
D4
100
AcDbEntity
100
AcDbLine
  8
0
 62
256
370
-1
 48
1.0
  6
ByLayer
 10
-168.49999999999983
 20
93.999999999999972
 30
0.0
 11
-176.99999999999991
 21
93.999999999999972
 31
0.0
  0
LINE
  5
D5
100
AcDbEntity
100
AcDbLine
  8
0
 62
256
370
-1
 48
1.0
  6
ByLayer
 10
-176.99999999999989
 20
117.00000000000001
 30
0.0
 11
-170.49999999999983
 21
117.00000000000003
 31
0.0
  0
LINE
  5
D6
100
AcDbEntity
100
AcDbLine
  8
0
 62
256
370
-1
 48
1.0
  6
ByLayer
 10
-170.49999999999983
 20
117.00000000000003
 30
0.0
 11
-170.49999999999983
 21
122.99999999999999
 31
0.0
  0
LINE
  5
D7
100
AcDbEntity
100
AcDbLine
  8
0
 62
256
370
-1
 48
1.0
  6
ByLayer
 10
-170.49999999999983
 20
122.99999999999999
 30
0.0
 11
-176.99999999999989
 21
123.0
 31
0.0
  0
LINE
  5
D8
100
AcDbEntity
100
AcDbLine
  8
0
 62
256
370
-1
 48
1.0
  6
ByLayer
 10
-176.99999999999989
 20
128.0
 30
0.0
 11
-165.49999999999994
 21
128.00000000000003
 31
0.0
  0
LINE
  5
D9
100
AcDbEntity
100
AcDbLine
  8
0
 62
256
370
-1
 48
1.0
  6
ByLayer
 10
-165.49999999999994
 20
128.00000000000003
 30
0.0
 11
-165.49999999999994
 21
110.9791303715507
 31
0.0
  0
ARC
  5
DA
100
AcDbEntity
  8
0
 62
256
370
-1
 48
1.0
  6
ByLayer
100
AcDbCircle
 10
-140.99999999999994
 20
104.99999999999999
 30
0.0
 40
6.0000000000000107
100
AcDbArc
 50
94.780191847199163
 51
265.21980815280057
  0
LINE
  5
DB
100
AcDbEntity
100
AcDbLine
  8
0
 62
256
370
-1
 48
1.0
  6
ByLayer
 10
-141.49999999999997
 20
99.020869628449276
 30
0.0
 11
-141.49999999999997
 21
90.0
 31
0.0
  0
LINE
  5
DC
100
AcDbEntity
100
AcDbLine
  8
0
 62
256
370
-1
 48
1.0
  6
ByLayer
 10
-141.49999999999997
 20
90.0
 30
0.0
 11
-140.49999999999997
 21
90.0
 31
0.0
  0
LINE
  5
DD
100
AcDbEntity
100
AcDbLine
  8
0
 62
256
370
-1
 48
1.0
  6
ByLayer
 10
-140.49999999999997
 20
90.0
 30
0.0
 11
-140.49999999999997
 21
99.020869628449276
 31
0.0
  0
ARC
  5
DE
100
AcDbEntity
  8
0
 62
256
370
-1
 48
1.0
  6
ByLayer
100
AcDbCircle
 10
-140.99999999999997
 20
104.99999999999999
 30
0.0
 40
6.0000000000000107
100
AcDbArc
 50
274.78019184719915
 51
85.219808152800852
  0
LINE
  5
DF
100
AcDbEntity
100
AcDbLine
  8
0
 62
256
370
-1
 48
1.0
  6
ByLayer
 10
-140.49999999999997
 20
110.9791303715507
 30
0.0
 11
-140.49999999999997
 21
127.99999999999999
 31
0.0
  0
LINE
  5
E0
100
AcDbEntity
100
AcDbLine
  8
0
 62
256
370
-1
 48
1.0
  6
ByLayer
 10
-140.49999999999997
 20
127.99999999999999
 30
0.0
 11
-128.99999999999989
 21
127.99999999999999
 31
0.0
  0
LINE
  5
E1
100
AcDbEntity
100
AcDbLine
  8
0
 62
256
370
-1
 48
1.0
  6
ByLayer
 10
-128.99999999999989
 20
127.99999999999999
 30
0.0
 11
-128.99999999999989
 21
122.99999999999997
 31
0.0
  0
LINE
  5
E2
100
AcDbEntity
100
AcDbLine
  8
0
 62
256
370
-1
 48
1.0
  6
ByLayer
 10
-128.99999999999989
 20
122.99999999999997
 30
0.0
 11
-135.5
 21
123.0
 31
0.0
  0
LINE
  5
E3
100
AcDbEntity
100
AcDbLine
  8
0
 62
256
370
-1
 48
1.0
  6
ByLayer
 10
-135.5
 20
123.0
 30
0.0
 11
-135.49999999999997
 21
117.00000000000001
 31
0.0
  0
LINE
  5
E4
100
AcDbEntity
100
AcDbLine
  8
0
 62
256
370
-1
 48
1.0
  6
ByLayer
 10
-135.49999999999997
 20
117.00000000000001
 30
0.0
 11
-128.99999999999989
 21
117.0
 31
0.0
  0
LINE
  5
E5
100
AcDbEntity
100
AcDbLine
  8
0
 62
256
370
-1
 48
1.0
  6
ByLayer
 10
-128.99999999999989
 20
117.0
 30
0.0
 11
-128.99999999999991
 21
93.999999999999972
 31
0.0
  0
LINE
  5
E6
100
AcDbEntity
100
AcDbLine
  8
0
 62
256
370
-1
 48
1.0
  6
ByLayer
 10
-128.99999999999991
 20
93.999999999999972
 30
0.0
 11
-137.5
 21
93.999999999999972
 31
0.0
  0
LINE
  5
E7
100
AcDbEntity
100
AcDbLine
  8
0
 62
256
370
-1
 48
1.0
  6
ByLayer
 10
-137.5
 20
93.999999999999972
 30
0.0
 11
-137.49999999999997
 21
89.999999999999986
 31
0.0
  0
LINE
  5
E8
100
AcDbEntity
100
AcDbLine
  8
0
 62
256
370
-1
 48
1.0
  6
ByLayer
 10
-137.49999999999997
 20
89.999999999999986
 30
0.0
 11
-128.99999999999991
 21
90.0
 31
0.0
  0
LINE
  5
E9
100
AcDbEntity
100
AcDbLine
  8
0
 62
256
370
-1
 48
1.0
  6
ByLayer
 10
-128.99999999999991
 20
90.0
 30
0.0
 11
-128.99999999999991
 21
49.999999999999993
 31
0.0
  0
LINE
  5
EA
100
AcDbEntity
100
AcDbLine
  8
0
 62
256
370
-1
 48
1.0
  6
ByLayer
 10
-128.99999999999991
 20
49.999999999999993
 30
0.0
 11
-176.99999999999991
 21
50.0
 31
0.0
  0
LINE
  5
EB
100
AcDbEntity
100
AcDbLine
  8
0
 62
256
370
-1
 48
1.0
  6
ByLayer
 10
-152.99999999999991
 20
90.0
 30
0.0
 11
-144.49999999999983
 21
90.0
 31
0.0
  0
LINE
  5
EC
100
AcDbEntity
100
AcDbLine
  8
0
 62
256
370
-1
 48
1.0
  6
ByLayer
 10
-144.49999999999983
 20
90.0
 30
0.0
 11
-144.49999999999983
 21
93.999999999999972
 31
0.0
  0
LINE
  5
ED
100
AcDbEntity
100
AcDbLine
  8
0
 62
256
370
-1
 48
1.0
  6
ByLayer
 10
-144.49999999999983
 20
93.999999999999972
 30
0.0
 11
-152.99999999999991
 21
93.999999999999972
 31
0.0
  0
LINE
  5
EE
100
AcDbEntity
100
AcDbLine
  8
0
 62
256
370
-1
 48
1.0
  6
ByLayer
 10
-152.99999999999991
 20
93.999999999999972
 30
0.0
 11
-152.99999999999989
 21
117.00000000000001
 31
0.0
  0
LINE
  5
EF
100
AcDbEntity
100
AcDbLine
  8
0
 62
256
370
-1
 48
1.0
  6
ByLayer
 10
-152.99999999999989
 20
117.00000000000001
 30
0.0
 11
-146.49999999999983
 21
117.00000000000003
 31
0.0
  0
LINE
  5
F0
100
AcDbEntity
100
AcDbLine
  8
0
 62
256
370
-1
 48
1.0
  6
ByLayer
 10
-146.49999999999983
 20
117.00000000000003
 30
0.0
 11
-146.49999999999983
 21
122.99999999999999
 31
0.0
  0
LINE
  5
F1
100
AcDbEntity
100
AcDbLine
  8
0
 62
256
370
-1
 48
1.0
  6
ByLayer
 10
-146.49999999999983
 20
122.99999999999999
 30
0.0
 11
-152.99999999999989
 21
123.0
 31
0.0
  0
LINE
  5
F2
100
AcDbEntity
100
AcDbLine
  8
0
 62
256
370
-1
 48
1.0
  6
ByLayer
 10
-152.99999999999989
 20
128.0
 30
0.0
 11
-141.49999999999994
 21
128.00000000000003
 31
0.0
  0
LINE
  5
F3
100
AcDbEntity
100
AcDbLine
  8
0
 62
256
370
-1
 48
1.0
  6
ByLayer
 10
-141.49999999999994
 20
128.00000000000003
 30
0.0
 11
-141.49999999999994
 21
110.9791303715507
 31
0.0
  0
ARC
  5
F4
100
AcDbEntity
  8
0
 62
256
370
-1
 48
1.0
  6
ByLayer
100
AcDbCircle
 10
128.23500000000007
 20
82.219999999999786
 30
0.0
 40
3.9999999999999711
100
AcDbArc
 50
202.02431283704226
 51
337.97568716295763
  0
LINE
  5
F5
100
AcDbEntity
100
AcDbLine
  8
0
 62
256
370
-1
 48
1.0
  6
ByLayer
 10
124.52690075645226
 20
80.719999999999786
 30
0.0
 11
122.23500000000007
 21
80.719999999999786
 31
0.0
  0
LINE
  5
F6
100
AcDbEntity
100
AcDbLine
  8
0
 62
256
370
-1
 48
1.0
  6
ByLayer
 10
122.23500000000007
 20
80.719999999999786
 30
0.0
 11
122.23500000000007
 21
83.719999999999786
 31
0.0
  0
LINE
  5
F7
100
AcDbEntity
100
AcDbLine
  8
0
 62
256
370
-1
 48
1.0
  6
ByLayer
 10
122.23500000000007
 20
83.719999999999786
 30
0.0
 11
124.52690075645226
 21
83.719999999999786
 31
0.0
  0
ARC
  5
F8
100
AcDbEntity
  8
0
 62
256
370
-1
 48
1.0
  6
ByLayer
100
AcDbCircle
 10
128.23500000000007
 20
82.219999999999828
 30
0.0
 40
3.9999999999999583
100
AcDbArc
 50
22.02431283704199
 51
157.97568716295828
  0
LINE
  5
F9
100
AcDbEntity
100
AcDbLine
  8
0
 62
256
370
-1
 48
1.0
  6
ByLayer
 10
131.94309924354786
 20
83.7199999999998
 30
0.0
 11
134.23500000000007
 21
83.7199999999998
 31
0.0
  0
LINE
  5
FA
100
AcDbEntity
100
AcDbLine
  8
0
 62
256
370
-1
 48
1.0
  6
ByLayer
 10
134.23500000000007
 20
83.7199999999998
 30
0.0
 11
134.23500000000007
 21
80.719999999999786
 31
0.0
  0
LINE
  5
FB
100
AcDbEntity
100
AcDbLine
  8
0
 62
256
370
-1
 48
1.0
  6
ByLayer
 10
134.23500000000007
 20
80.719999999999786
 30
0.0
 11
131.94309924354786
 21
80.719999999999786
 31
0.0
  0
ARC
  5
FC
100
AcDbEntity
  8
0
 62
256
370
-1
 48
1.0
  6
ByLayer
100
AcDbCircle
 10
-100.32499999999992
 20
82.219999999999743
 30
0.0
 40
3.9999999999999658
100
AcDbArc
 50
22.024312837042114
 51
157.97568716295808
  0
LINE
  5
FD
100
AcDbEntity
100
AcDbLine
  8
0
 62
256
370
-1
 48
1.0
  6
ByLayer
 10
-96.616900756452111
 20
83.719999999999729
 30
0.0
 11
-94.324999999999932
 21
83.719999999999729
 31
0.0
  0
LINE
  5
FE
100
AcDbEntity
100
AcDbLine
  8
0
 62
256
370
-1
 48
1.0
  6
ByLayer
 10
-94.324999999999932
 20
83.719999999999729
 30
0.0
 11
-94.324999999999932
 21
80.719999999999729
 31
0.0
  0
LINE
  5
FF
100
AcDbEntity
100
AcDbLine
  8
0
 62
256
370
-1
 48
1.0
  6
ByLayer
 10
-94.324999999999932
 20
80.719999999999729
 30
0.0
 11
-96.616900756452111
 21
80.719999999999729
 31
0.0
  0
ARC
  5
100
100
AcDbEntity
  8
0
 62
256
370
-1
 48
1.0
  6
ByLayer
100
AcDbCircle
 10
-100.32499999999992
 20
82.219999999999729
 30
0.0
 40
3.9999999999999791
100
AcDbArc
 50
202.02431283704226
 51
337.97568716295768
  0
LINE
  5
101
100
AcDbEntity
100
AcDbLine
  8
0
 62
256
370
-1
 48
1.0
  6
ByLayer
 10
-104.03309924354772
 20
80.719999999999729
 30
0.0
 11
-106.32499999999993
 21
80.719999999999729
 31
0.0
  0
LINE
  5
102
100
AcDbEntity
100
AcDbLine
  8
0
 62
256
370
-1
 48
1.0
  6
ByLayer
 10
-106.32499999999993
 20
80.719999999999729
 30
0.0
 11
-106.32499999999993
 21
83.719999999999729
 31
0.0
  0
LINE
  5
103
100
AcDbEntity
100
AcDbLine
  8
0
 62
256
370
-1
 48
1.0
  6
ByLayer
 10
-106.32499999999993
 20
83.719999999999729
 30
0.0
 11
-104.03309924354772
 21
83.719999999999715
 31
0.0
  0
LINE
  5
104
100
AcDbEntity
100
AcDbLine
  8
0
 62
256
370
-1
 48
1.0
  6
ByLayer
 10
89.455000000000084
 20
176.99999999999983
 30
0.0
 11
89.455000000000112
 21
25.999999999999787
 31
0.0
  0
LINE
  5
105
100
AcDbEntity
100
AcDbLine
  8
0
 62
256
370
-1
 48
1.0
  6
ByLayer
 10
89.455000000000112
 20
25.999999999999787
 30
0.0
 11
-61.544999999999931
 21
25.999999999999773
 31
0.0
  0
LINE
  5
106
100
AcDbEntity
100
AcDbLine
  8
0
 62
256
370
-1
 48
1.0
  6
ByLayer
 10
-61.544999999999931
 20
25.999999999999773
 30
0.0
 11
-61.544999999999931
 21
176.99999999999977
 31
0.0
  0
LINE
  5
107
100
AcDbEntity
100
AcDbLine
  8
0
 62
256
370
-1
 48
1.0
  6
ByLayer
 10
-61.544999999999931
 20
176.99999999999977
 30
0.0
 11
89.455000000000084
 21
176.99999999999983
 31
0.0
  0
LINE
  5
108
100
AcDbEntity
100
AcDbLine
  8
0
 62
256
370
-1
 48
1.0
  6
ByLayer
 10
107.60500000000008
 20
158.95999999999981
 30
0.0
 11
104.45500000000006
 21
158.95999999999981
 31
0.0
  0
LINE
  5
109
100
AcDbEntity
100
AcDbLine
  8
0
 62
256
370
-1
 48
1.0
  6
ByLayer
 10
104.45500000000006
 20
158.95999999999981
 30
0.0
 11
104.45500000000006
 21
175.47999999999982
 31
0.0
  0
LINE
  5
10A
100
AcDbEntity
100
AcDbLine
  8
0
 62
256
370
-1
 48
1.0
  6
ByLayer
 10
104.45500000000006
 20
175.47999999999982
 30
0.0
 11
107.60500000000008
 21
175.47999999999982
 31
0.0
  0
LINE
  5
10B
100
AcDbEntity
100
AcDbLine
  8
0
 62
256
370
-1
 48
1.0
  6
ByLayer
 10
107.60500000000008
 20
175.47999999999982
 30
0.0
 11
107.60500000000008
 21
158.95999999999981
 31
0.0
  0
LINE
  5
10C
100
AcDbEntity
100
AcDbLine
  8
0
 62
256
370
-1
 48
1.0
  6
ByLayer
 10
-76.544999999999931
 20
158.95999999999981
 30
0.0
 11
-79.694999999999936
 21
158.95999999999981
 31
0.0
  0
LINE
  5
10D
100
AcDbEntity
100
AcDbLine
  8
0
 62
256
370
-1
 48
1.0
  6
ByLayer
 10
-79.694999999999936
 20
158.95999999999981
 30
0.0
 11
-79.694999999999936
 21
175.47999999999982
 31
0.0
  0
LINE
  5
10E
100
AcDbEntity
100
AcDbLine
  8
0
 62
256
370
-1
 48
1.0
  6
ByLayer
 10
-79.694999999999936
 20
175.47999999999982
 30
0.0
 11
-76.544999999999931
 21
175.47999999999982
 31
0.0
  0
LINE
  5
10F
100
AcDbEntity
100
AcDbLine
  8
0
 62
256
370
-1
 48
1.0
  6
ByLayer
 10
-76.544999999999931
 20
175.47999999999982
 30
0.0
 11
-76.544999999999931
 21
158.95999999999981
 31
0.0
  0
LINE
  5
110
100
AcDbEntity
100
AcDbLine
  8
0
 62
256
370
-1
 48
1.0
  6
ByLayer
 10
-79.694999999999936
 20
44.039999999999722
 30
0.0
 11
-76.544999999999931
 21
44.039999999999722
 31
0.0
  0
LINE
  5
111
100
AcDbEntity
100
AcDbLine
  8
0
 62
256
370
-1
 48
1.0
  6
ByLayer
 10
-76.544999999999931
 20
44.039999999999722
 30
0.0
 11
-76.544999999999931
 21
27.519999999999726
 31
0.0
  0
LINE
  5
112
100
AcDbEntity
100
AcDbLine
  8
0
 62
256
370
-1
 48
1.0
  6
ByLayer
 10
-76.544999999999931
 20
27.519999999999726
 30
0.0
 11
-79.694999999999936
 21
27.519999999999726
 31
0.0
  0
LINE
  5
113
100
AcDbEntity
100
AcDbLine
  8
0
 62
256
370
-1
 48
1.0
  6
ByLayer
 10
-79.694999999999936
 20
27.519999999999726
 30
0.0
 11
-79.694999999999936
 21
44.039999999999722
 31
0.0
  0
LINE
  5
114
100
AcDbEntity
100
AcDbLine
  8
0
 62
256
370
-1
 48
1.0
  6
ByLayer
 10
107.60500000000008
 20
27.519999999999726
 30
0.0
 11
104.45500000000006
 21
27.519999999999726
 31
0.0
  0
LINE
  5
115
100
AcDbEntity
100
AcDbLine
  8
0
 62
256
370
-1
 48
1.0
  6
ByLayer
 10
104.45500000000006
 20
27.519999999999726
 30
0.0
 11
104.45500000000006
 21
44.039999999999722
 31
0.0
  0
LINE
  5
116
100
AcDbEntity
100
AcDbLine
  8
0
 62
256
370
-1
 48
1.0
  6
ByLayer
 10
104.45500000000006
 20
44.039999999999722
 30
0.0
 11
107.60500000000008
 21
44.039999999999722
 31
0.0
  0
LINE
  5
117
100
AcDbEntity
100
AcDbLine
  8
0
 62
256
370
-1
 48
1.0
  6
ByLayer
 10
107.60500000000008
 20
44.039999999999722
 30
0.0
 11
107.60500000000008
 21
27.519999999999726
 31
0.0
  0
LINE
  5
118
100
AcDbEntity
100
AcDbLine
  8
0
 62
256
370
-1
 48
1.0
  6
ByLayer
 10
119.03000000000007
 20
135.71999999999977
 30
0.0
 11
119.03000000000007
 21
130.93999999999977
 31
0.0
  0
LINE
  5
119
100
AcDbEntity
100
AcDbLine
  8
0
 62
256
370
-1
 48
1.0
  6
ByLayer
 10
119.03000000000007
 20
130.93999999999977
 30
0.0
 11
120.05500000000006
 21
130.93999999999977
 31
0.0
  0
ARC
  5
11A
100
AcDbEntity
  8
0
 62
256
370
-1
 48
1.0
  6
ByLayer
100
AcDbCircle
 10
120.30500000000006
 20
130.93999999999977
 30
0.0
 40
0.25
100
AcDbArc
 50
270.0
 51
180.0
  0
LINE
  5
11B
100
AcDbEntity
100
AcDbLine
  8
0
 62
256
370
-1
 48
1.0
  6
ByLayer
 10
120.30500000000006
 20
130.68999999999977
 30
0.0
 11
120.30500000000006
 21
128.68999999999977
 31
0.0
  0
ARC
  5
11C
100
AcDbEntity
  8
0
 62
256
370
-1
 48
1.0
  6
ByLayer
100
AcDbCircle
 10
120.30500000000006
 20
128.43999999999977
 30
0.0
 40
0.25
100
AcDbArc
 50
180.0
 51
90.0
  0
LINE
  5
11D
100
AcDbEntity
100
AcDbLine
  8
0
 62
256
370
-1
 48
1.0
  6
ByLayer
 10
120.05500000000006
 20
128.43999999999977
 30
0.0
 11
119.03000000000007
 21
128.43999999999977
 31
0.0
  0
LINE
  5
11E
100
AcDbEntity
100
AcDbLine
  8
0
 62
256
370
-1
 48
1.0
  6
ByLayer
 10
119.03000000000007
 20
128.43999999999977
 30
0.0
 11
119.03000000000007
 21
127.43999999999977
 31
0.0
  0
LINE
  5
11F
100
AcDbEntity
100
AcDbLine
  8
0
 62
256
370
-1
 48
1.0
  6
ByLayer
 10
119.03000000000007
 20
127.43999999999977
 30
0.0
 11
115.88000000000007
 21
127.43999999999977
 31
0.0
  0
LINE
  5
120
100
AcDbEntity
100
AcDbLine
  8
0
 62
256
370
-1
 48
1.0
  6
ByLayer
 10
115.88000000000007
 20
127.43999999999977
 30
0.0
 11
115.88000000000007
 21
128.43999999999977
 31
0.0
  0
LINE
  5
121
100
AcDbEntity
100
AcDbLine
  8
0
 62
256
370
-1
 48
1.0
  6
ByLayer
 10
115.88000000000007
 20
128.43999999999977
 30
0.0
 11
114.85500000000008
 21
128.43999999999977
 31
0.0
  0
ARC
  5
122
100
AcDbEntity
  8
0
 62
256
370
-1
 48
1.0
  6
ByLayer
100
AcDbCircle
 10
114.60500000000008
 20
128.43999999999977
 30
0.0
 40
0.25
100
AcDbArc
 50
90.0
 51
0.0
  0
LINE
  5
123
100
AcDbEntity
100
AcDbLine
  8
0
 62
256
370
-1
 48
1.0
  6
ByLayer
 10
114.60500000000008
 20
128.68999999999977
 30
0.0
 11
114.60500000000008
 21
130.68999999999977
 31
0.0
  0
ARC
  5
124
100
AcDbEntity
  8
0
 62
256
370
-1
 48
1.0
  6
ByLayer
100
AcDbCircle
 10
114.60500000000008
 20
130.93999999999977
 30
0.0
 40
0.25
100
AcDbArc
 50
0.0
 51
270.0
  0
LINE
  5
125
100
AcDbEntity
100
AcDbLine
  8
0
 62
256
370
-1
 48
1.0
  6
ByLayer
 10
114.85500000000008
 20
130.93999999999977
 30
0.0
 11
115.87999999999997
 21
130.93999999999977
 31
0.0
  0
LINE
  5
126
100
AcDbEntity
100
AcDbLine
  8
0
 62
256
370
-1
 48
1.0
  6
ByLayer
 10
115.87999999999997
 20
130.93999999999977
 30
0.0
 11
115.88000000000007
 21
135.71999999999977
 31
0.0
  0
LINE
  5
127
100
AcDbEntity
100
AcDbLine
  8
0
 62
256
370
-1
 48
1.0
  6
ByLayer
 10
115.88000000000007
 20
135.71999999999977
 30
0.0
 11
111.17500000000008
 21
135.71999999999983
 31
0.0
  0
LINE
  5
128
100
AcDbEntity
100
AcDbLine
  8
0
 62
256
370
-1
 48
1.0
  6
ByLayer
 10
111.17500000000008
 20
135.71999999999983
 30
0.0
 11
111.17500000000003
 21
191.99999999999989
 31
0.0
  0
LINE
  5
129
100
AcDbEntity
100
AcDbLine
  8
0
 62
256
370
-1
 48
1.0
  6
ByLayer
 10
77.304999999999978
 20
191.99999999999986
 30
0.0
 11
77.304999999999993
 21
188.84999999999985
 31
0.0
  0
LINE
  5
12A
100
AcDbEntity
100
AcDbLine
  8
0
 62
256
370
-1
 48
1.0
  6
ByLayer
 10
77.304999999999993
 20
188.84999999999985
 30
0.0
 11
41.10499999999999
 21
188.8499999999998
 31
0.0
  0
LINE
  5
12B
100
AcDbEntity
100
AcDbLine
  8
0
 62
256
370
-1
 48
1.0
  6
ByLayer
 10
41.10499999999999
 20
188.8499999999998
 30
0.0
 11
41.105000000000018
 21
191.99999999999983
 31
0.0
  0
LINE
  5
12C
100
AcDbEntity
100
AcDbLine
  8
0
 62
256
370
-1
 48
1.0
  6
ByLayer
 10
-83.264999999999986
 20
191.99999999999983
 30
0.0
 11
-83.264999999999986
 21
135.71999999999977
 31
0.0
  0
LINE
  5
12D
100
AcDbEntity
100
AcDbLine
  8
0
 62
256
370
-1
 48
1.0
  6
ByLayer
 10
-83.264999999999986
 20
135.71999999999977
 30
0.0
 11
-87.969999999999942
 21
135.71999999999977
 31
0.0
  0
LINE
  5
12E
100
AcDbEntity
100
AcDbLine
  8
0
 62
256
370
-1
 48
1.0
  6
ByLayer
 10
-87.969999999999942
 20
135.71999999999977
 30
0.0
 11
-87.969999999999828
 21
130.93999999999977
 31
0.0
  0
LINE
  5
12F
100
AcDbEntity
100
AcDbLine
  8
0
 62
256
370
-1
 48
1.0
  6
ByLayer
 10
-87.969999999999828
 20
130.93999999999977
 30
0.0
 11
-86.944999999999936
 21
130.93999999999977
 31
0.0
  0
ARC
  5
130
100
AcDbEntity
  8
0
 62
256
370
-1
 48
1.0
  6
ByLayer
100
AcDbCircle
 10
-86.694999999999936
 20
130.93999999999977
 30
0.0
 40
0.25
100
AcDbArc
 50
270.0
 51
180.0
  0
LINE
  5
131
100
AcDbEntity
100
AcDbLine
  8
0
 62
256
370
-1
 48
1.0
  6
ByLayer
 10
-86.694999999999936
 20
130.68999999999977
 30
0.0
 11
-86.694999999999936
 21
128.68999999999977
 31
0.0
  0
ARC
  5
132
100
AcDbEntity
  8
0
 62
256
370
-1
 48
1.0
  6
ByLayer
100
AcDbCircle
 10
-86.694999999999936
 20
128.43999999999977
 30
0.0
 40
0.25
100
AcDbArc
 50
180.0
 51
90.0
  0
LINE
  5
133
100
AcDbEntity
100
AcDbLine
  8
0
 62
256
370
-1
 48
1.0
  6
ByLayer
 10
-86.944999999999936
 20
128.43999999999977
 30
0.0
 11
-87.969999999999942
 21
128.43999999999977
 31
0.0
  0
LINE
  5
134
100
AcDbEntity
100
AcDbLine
  8
0
 62
256
370
-1
 48
1.0
  6
ByLayer
 10
-87.969999999999942
 20
128.43999999999977
 30
0.0
 11
-87.969999999999942
 21
127.43999999999977
 31
0.0
  0
LINE
  5
135
100
AcDbEntity
100
AcDbLine
  8
0
 62
256
370
-1
 48
1.0
  6
ByLayer
 10
-87.969999999999942
 20
127.43999999999977
 30
0.0
 11
-91.119999999999919
 21
127.43999999999977
 31
0.0
  0
LINE
  5
136
100
AcDbEntity
100
AcDbLine
  8
0
 62
256
370
-1
 48
1.0
  6
ByLayer
 10
-91.119999999999919
 20
127.43999999999977
 30
0.0
 11
-91.119999999999919
 21
128.43999999999977
 31
0.0
  0
LINE
  5
137
100
AcDbEntity
100
AcDbLine
  8
0
 62
256
370
-1
 48
1.0
  6
ByLayer
 10
-91.119999999999919
 20
128.43999999999977
 30
0.0
 11
-92.144999999999925
 21
128.43999999999977
 31
0.0
  0
ARC
  5
138
100
AcDbEntity
  8
0
 62
256
370
-1
 48
1.0
  6
ByLayer
100
AcDbCircle
 10
-92.394999999999925
 20
128.43999999999977
 30
0.0
 40
0.25
100
AcDbArc
 50
90.0
 51
0.0
  0
LINE
  5
139
100
AcDbEntity
100
AcDbLine
  8
0
 62
256
370
-1
 48
1.0
  6
ByLayer
 10
-92.394999999999925
 20
128.68999999999977
 30
0.0
 11
-92.394999999999925
 21
130.68999999999977
 31
0.0
  0
ARC
  5
13A
100
AcDbEntity
  8
0
 62
256
370
-1
 48
1.0
  6
ByLayer
100
AcDbCircle
 10
-92.394999999999925
 20
130.93999999999977
 30
0.0
 40
0.25
100
AcDbArc
 50
0.0
 51
270.0
  0
LINE
  5
13B
100
AcDbEntity
100
AcDbLine
  8
0
 62
256
370
-1
 48
1.0
  6
ByLayer
 10
-92.144999999999925
 20
130.93999999999977
 30
0.0
 11
-91.119999999999919
 21
130.93999999999977
 31
0.0
  0
LINE
  5
13C
100
AcDbEntity
100
AcDbLine
  8
0
 62
256
370
-1
 48
1.0
  6
ByLayer
 10
-91.119999999999919
 20
130.93999999999977
 30
0.0
 11
-91.119999999999919
 21
135.71999999999977
 31
0.0
  0
LINE
  5
13D
100
AcDbEntity
100
AcDbLine
  8
0
 62
256
370
-1
 48
1.0
  6
ByLayer
 10
-91.119999999999919
 20
135.71999999999977
 30
0.0
 11
-109.32499999999993
 21
135.71999999999974
 31
0.0
  0
LINE
  5
13E
100
AcDbEntity
100
AcDbLine
  8
0
 62
256
370
-1
 48
1.0
  6
ByLayer
 10
-109.32499999999993
 20
135.71999999999974
 30
0.0
 11
-109.32499999999993
 21
112.90666666666641
 31
0.0
  0
LINE
  5
13F
100
AcDbEntity
100
AcDbLine
  8
0
 62
256
370
-1
 48
1.0
  6
ByLayer
 10
-109.32499999999993
 20
112.90666666666641
 30
0.0
 11
-116.04499999999993
 21
112.90666666666641
 31
0.0
  0
LINE
  5
140
100
AcDbEntity
100
AcDbLine
  8
0
 62
256
370
-1
 48
1.0
  6
ByLayer
 10
-116.04499999999993
 20
112.90666666666641
 30
0.0
 11
-116.04499999999993
 21
90.093333333333106
 31
0.0
  0
LINE
  5
141
100
AcDbEntity
100
AcDbLine
  8
0
 62
256
370
-1
 48
1.0
  6
ByLayer
 10
-116.04499999999993
 20
90.093333333333106
 30
0.0
 11
-109.32499999999993
 21
90.093333333333106
 31
0.0
  0
LINE
  5
142
100
AcDbEntity
100
AcDbLine
  8
0
 62
256
370
-1
 48
1.0
  6
ByLayer
 10
-109.32499999999993
 20
90.093333333333106
 30
0.0
 11
-109.32499999999993
 21
67.279999999999774
 31
0.0
  0
LINE
  5
143
100
AcDbEntity
100
AcDbLine
  8
0
 62
256
370
-1
 48
1.0
  6
ByLayer
 10
-109.32499999999993
 20
67.279999999999774
 30
0.0
 11
-91.119999999999919
 21
67.279999999999774
 31
0.0
  0
LINE
  5
144
100
AcDbEntity
100
AcDbLine
  8
0
 62
256
370
-1
 48
1.0
  6
ByLayer
 10
-91.119999999999919
 20
67.279999999999774
 30
0.0
 11
-91.119999999999919
 21
72.059999999999775
 31
0.0
  0
LINE
  5
145
100
AcDbEntity
100
AcDbLine
  8
0
 62
256
370
-1
 48
1.0
  6
ByLayer
 10
-91.119999999999919
 20
72.059999999999775
 30
0.0
 11
-92.144999999999925
 21
72.059999999999775
 31
0.0
  0
ARC
  5
146
100
AcDbEntity
  8
0
 62
256
370
-1
 48
1.0
  6
ByLayer
100
AcDbCircle
 10
-92.394999999999925
 20
72.059999999999775
 30
0.0
 40
0.25
100
AcDbArc
 50
90.0
 51
0.0
  0
LINE
  5
147
100
AcDbEntity
100
AcDbLine
  8
0
 62
256
370
-1
 48
1.0
  6
ByLayer
 10
-92.394999999999925
 20
72.309999999999775
 30
0.0
 11
-92.394999999999925
 21
74.309999999999775
 31
0.0
  0
ARC
  5
148
100
AcDbEntity
  8
0
 62
256
370
-1
 48
1.0
  6
ByLayer
100
AcDbCircle
 10
-92.394999999999925
 20
74.559999999999775
 30
0.0
 40
0.25
100
AcDbArc
 50
0.0
 51
270.0
  0
LINE
  5
149
100
AcDbEntity
100
AcDbLine
  8
0
 62
256
370
-1
 48
1.0
  6
ByLayer
 10
-92.144999999999925
 20
74.559999999999775
 30
0.0
 11
-91.119999999999919
 21
74.559999999999775
 31
0.0
  0
LINE
  5
14A
100
AcDbEntity
100
AcDbLine
  8
0
 62
256
370
-1
 48
1.0
  6
ByLayer
 10
-91.119999999999919
 20
74.559999999999775
 30
0.0
 11
-91.119999999999919
 21
75.559999999999775
 31
0.0
  0
LINE
  5
14B
100
AcDbEntity
100
AcDbLine
  8
0
 62
256
370
-1
 48
1.0
  6
ByLayer
 10
-91.119999999999919
 20
75.559999999999775
 30
0.0
 11
-87.969999999999942
 21
75.559999999999775
 31
0.0
  0
LINE
  5
14C
100
AcDbEntity
100
AcDbLine
  8
0
 62
256
370
-1
 48
1.0
  6
ByLayer
 10
-87.969999999999942
 20
75.559999999999775
 30
0.0
 11
-87.969999999999942
 21
74.559999999999775
 31
0.0
  0
LINE
  5
14D
100
AcDbEntity
100
AcDbLine
  8
0
 62
256
370
-1
 48
1.0
  6
ByLayer
 10
-87.969999999999942
 20
74.559999999999775
 30
0.0
 11
-86.944999999999936
 21
74.559999999999775
 31
0.0
  0
ARC
  5
14E
100
AcDbEntity
  8
0
 62
256
370
-1
 48
1.0
  6
ByLayer
100
AcDbCircle
 10
-86.694999999999936
 20
74.559999999999775
 30
0.0
 40
0.25
100
AcDbArc
 50
270.0
 51
180.0
  0
LINE
  5
14F
100
AcDbEntity
100
AcDbLine
  8
0
 62
256
370
-1
 48
1.0
  6
ByLayer
 10
-86.694999999999936
 20
74.309999999999775
 30
0.0
 11
-86.694999999999936
 21
72.309999999999775
 31
0.0
  0
ARC
  5
150
100
AcDbEntity
  8
0
 62
256
370
-1
 48
1.0
  6
ByLayer
100
AcDbCircle
 10
-86.694999999999936
 20
72.059999999999775
 30
0.0
 40
0.25
100
AcDbArc
 50
180.0
 51
90.0
  0
LINE
  5
151
100
AcDbEntity
100
AcDbLine
  8
0
 62
256
370
-1
 48
1.0
  6
ByLayer
 10
-86.944999999999936
 20
72.059999999999775
 30
0.0
 11
-87.969999999999828
 21
72.059999999999775
 31
0.0
  0
LINE
  5
152
100
AcDbEntity
100
AcDbLine
  8
0
 62
256
370
-1
 48
1.0
  6
ByLayer
 10
-87.969999999999828
 20
72.059999999999775
 30
0.0
 11
-87.969999999999942
 21
67.279999999999774
 31
0.0
  0
LINE
  5
153
100
AcDbEntity
100
AcDbLine
  8
0
 62
256
370
-1
 48
1.0
  6
ByLayer
 10
-87.969999999999942
 20
67.279999999999774
 30
0.0
 11
-83.264999999999986
 21
67.27999999999976
 31
0.0
  0
LINE
  5
154
100
AcDbEntity
100
AcDbLine
  8
0
 62
256
370
-1
 48
1.0
  6
ByLayer
 10
-83.264999999999986
 20
67.27999999999976
 30
0.0
 11
-83.264999999999958
 21
10.99999999999973
 31
0.0
  0
LINE
  5
155
100
AcDbEntity
100
AcDbLine
  8
0
 62
256
370
-1
 48
1.0
  6
ByLayer
 10
41.105000000000118
 20
10.999999999999773
 30
0.0
 11
41.105000000000103
 21
14.149999999999807
 31
0.0
  0
LINE
  5
156
100
AcDbEntity
100
AcDbLine
  8
0
 62
256
370
-1
 48
1.0
  6
ByLayer
 10
41.105000000000103
 20
14.149999999999807
 30
0.0
 11
77.305000000000106
 21
14.149999999999807
 31
0.0
  0
LINE
  5
157
100
AcDbEntity
100
AcDbLine
  8
0
 62
256
370
-1
 48
1.0
  6
ByLayer
 10
77.305000000000106
 20
14.149999999999807
 30
0.0
 11
77.305000000000092
 21
10.999999999999787
 31
0.0
  0
LINE
  5
158
100
AcDbEntity
100
AcDbLine
  8
0
 62
256
370
-1
 48
1.0
  6
ByLayer
 10
111.17500000000015
 20
10.999999999999801
 30
0.0
 11
111.17500000000015
 21
67.279999999999845
 31
0.0
  0
LINE
  5
159
100
AcDbEntity
100
AcDbLine
  8
0
 62
256
370
-1
 48
1.0
  6
ByLayer
 10
111.17500000000015
 20
67.279999999999845
 30
0.0
 11
115.88000000000007
 21
67.279999999999774
 31
0.0
  0
LINE
  5
15A
100
AcDbEntity
100
AcDbLine
  8
0
 62
256
370
-1
 48
1.0
  6
ByLayer
 10
115.88000000000007
 20
67.279999999999774
 30
0.0
 11
115.87999999999997
 21
72.059999999999775
 31
0.0
  0
LINE
  5
15B
100
AcDbEntity
100
AcDbLine
  8
0
 62
256
370
-1
 48
1.0
  6
ByLayer
 10
115.87999999999997
 20
72.059999999999775
 30
0.0
 11
114.85500000000008
 21
72.059999999999775
 31
0.0
  0
ARC
  5
15C
100
AcDbEntity
  8
0
 62
256
370
-1
 48
1.0
  6
ByLayer
100
AcDbCircle
 10
114.60500000000008
 20
72.059999999999775
 30
0.0
 40
0.25
100
AcDbArc
 50
90.0
 51
0.0
  0
LINE
  5
15D
100
AcDbEntity
100
AcDbLine
  8
0
 62
256
370
-1
 48
1.0
  6
ByLayer
 10
114.60500000000008
 20
72.309999999999775
 30
0.0
 11
114.60500000000008
 21
74.309999999999775
 31
0.0
  0
ARC
  5
15E
100
AcDbEntity
  8
0
 62
256
370
-1
 48
1.0
  6
ByLayer
100
AcDbCircle
 10
114.60500000000008
 20
74.559999999999775
 30
0.0
 40
0.25
100
AcDbArc
 50
0.0
 51
270.0
  0
LINE
  5
15F
100
AcDbEntity
100
AcDbLine
  8
0
 62
256
370
-1
 48
1.0
  6
ByLayer
 10
114.85500000000008
 20
74.559999999999775
 30
0.0
 11
115.88000000000007
 21
74.559999999999775
 31
0.0
  0
LINE
  5
160
100
AcDbEntity
100
AcDbLine
  8
0
 62
256
370
-1
 48
1.0
  6
ByLayer
 10
115.88000000000007
 20
74.559999999999775
 30
0.0
 11
115.88000000000007
 21
75.559999999999775
 31
0.0
  0
LINE
  5
161
100
AcDbEntity
100
AcDbLine
  8
0
 62
256
370
-1
 48
1.0
  6
ByLayer
 10
115.88000000000007
 20
75.559999999999775
 30
0.0
 11
119.03000000000007
 21
75.559999999999775
 31
0.0
  0
LINE
  5
162
100
AcDbEntity
100
AcDbLine
  8
0
 62
256
370
-1
 48
1.0
  6
ByLayer
 10
119.03000000000007
 20
75.559999999999775
 30
0.0
 11
119.03000000000007
 21
74.559999999999775
 31
0.0
  0
LINE
  5
163
100
AcDbEntity
100
AcDbLine
  8
0
 62
256
370
-1
 48
1.0
  6
ByLayer
 10
119.03000000000007
 20
74.559999999999775
 30
0.0
 11
120.05500000000006
 21
74.559999999999775
 31
0.0
  0
ARC
  5
164
100
AcDbEntity
  8
0
 62
256
370
-1
 48
1.0
  6
ByLayer
100
AcDbCircle
 10
120.30500000000006
 20
74.559999999999775
 30
0.0
 40
0.25
100
AcDbArc
 50
270.0
 51
180.0
  0
LINE
  5
165
100
AcDbEntity
100
AcDbLine
  8
0
 62
256
370
-1
 48
1.0
  6
ByLayer
 10
120.30500000000006
 20
74.309999999999775
 30
0.0
 11
120.30500000000006
 21
72.309999999999775
 31
0.0
  0
ARC
  5
166
100
AcDbEntity
  8
0
 62
256
370
-1
 48
1.0
  6
ByLayer
100
AcDbCircle
 10
120.30500000000006
 20
72.059999999999775
 30
0.0
 40
0.25
100
AcDbArc
 50
180.0
 51
90.0
  0
LINE
  5
167
100
AcDbEntity
100
AcDbLine
  8
0
 62
256
370
-1
 48
1.0
  6
ByLayer
 10
120.05500000000006
 20
72.059999999999775
 30
0.0
 11
119.03000000000007
 21
72.059999999999775
 31
0.0
  0
LINE
  5
168
100
AcDbEntity
100
AcDbLine
  8
0
 62
256
370
-1
 48
1.0
  6
ByLayer
 10
119.03000000000007
 20
72.059999999999775
 30
0.0
 11
119.03000000000007
 21
67.279999999999774
 31
0.0
  0
LINE
  5
169
100
AcDbEntity
100
AcDbLine
  8
0
 62
256
370
-1
 48
1.0
  6
ByLayer
 10
119.03000000000007
 20
67.279999999999774
 30
0.0
 11
137.23500000000007
 21
67.279999999999873
 31
0.0
  0
LINE
  5
16A
100
AcDbEntity
100
AcDbLine
  8
0
 62
256
370
-1
 48
1.0
  6
ByLayer
 10
137.23500000000007
 20
67.279999999999873
 30
0.0
 11
137.23500000000007
 21
90.093333333333206
 31
0.0
  0
LINE
  5
16B
100
AcDbEntity
100
AcDbLine
  8
0
 62
256
370
-1
 48
1.0
  6
ByLayer
 10
137.23500000000007
 20
90.093333333333206
 30
0.0
 11
143.95500000000007
 21
90.09333333333322
 31
0.0
  0
LINE
  5
16C
100
AcDbEntity
100
AcDbLine
  8
0
 62
256
370
-1
 48
1.0
  6
ByLayer
 10
143.95500000000007
 20
90.09333333333322
 30
0.0
 11
143.95500000000007
 21
112.9066666666665
 31
0.0
  0
LINE
  5
16D
100
AcDbEntity
100
AcDbLine
  8
0
 62
256
370
-1
 48
1.0
  6
ByLayer
 10
143.95500000000007
 20
112.9066666666665
 30
0.0
 11
137.23500000000007
 21
112.9066666666665
 31
0.0
  0
LINE
  5
16E
100
AcDbEntity
100
AcDbLine
  8
0
 62
256
370
-1
 48
1.0
  6
ByLayer
 10
137.23500000000007
 20
112.9066666666665
 30
0.0
 11
137.23499999999996
 21
135.71999999999983
 31
0.0
  0
LINE
  5
16F
100
AcDbEntity
100
AcDbLine
  8
0
 62
256
370
-1
 48
1.0
  6
ByLayer
 10
137.23499999999996
 20
135.71999999999983
 30
0.0
 11
119.03000000000007
 21
135.71999999999977
 31
0.0
  0
ARC
  5
170
100
AcDbEntity
  8
0
 62
256
370
-1
 48
1.0
  6
ByLayer
100
AcDbCircle
 10
-121.99999999999997
 20
165.00000000000006
 30
0.0
 40
5.9999999999999964
100
AcDbArc
 50
4.7801918471991174
 51
175.2198081528006
  0
LINE
  5
171
100
AcDbEntity
100
AcDbLine
  8
0
 62
256
370
-1
 48
1.0
  6
ByLayer
 10
-127.97913037155067
 20
165.50000000000009
 30
0.0
 11
-136.99999999999997
 21
165.50000000000006
 31
0.0
  0
LINE
  5
172
100
AcDbEntity
100
AcDbLine
  8
0
 62
256
370
-1
 48
1.0
  6
ByLayer
 10
-136.99999999999997
 20
165.50000000000006
 30
0.0
 11
-136.99999999999997
 21
164.50000000000009
 31
0.0
  0
LINE
  5
173
100
AcDbEntity
100
AcDbLine
  8
0
 62
256
370
-1
 48
1.0
  6
ByLayer
 10
-136.99999999999997
 20
164.50000000000009
 30
0.0
 11
-127.97913037155067
 21
164.50000000000006
 31
0.0
  0
ARC
  5
174
100
AcDbEntity
  8
0
 62
256
370
-1
 48
1.0
  6
ByLayer
100
AcDbCircle
 10
-121.99999999999997
 20
165.00000000000009
 30
0.0
 40
5.9999999999999964
100
AcDbArc
 50
184.78019184719943
 51
355.21980815280119
  0
LINE
  5
175
100
AcDbEntity
100
AcDbLine
  8
0
 62
256
370
-1
 48
1.0
  6
ByLayer
 10
-116.02086962844928
 20
164.50000000000011
 30
0.0
 11
-98.999999999999957
 21
164.50000000000011
 31
0.0
  0
LINE
  5
176
100
AcDbEntity
100
AcDbLine
  8
0
 62
256
370
-1
 48
1.0
  6
ByLayer
 10
-98.999999999999957
 20
164.50000000000011
 30
0.0
 11
-98.999999999999986
 21
152.99999999999997
 31
0.0
  0
LINE
  5
177
100
AcDbEntity
100
AcDbLine
  8
0
 62
256
370
-1
 48
1.0
  6
ByLayer
 10
-98.999999999999986
 20
152.99999999999997
 30
0.0
 11
-103.99999999999986
 21
153.0
 31
0.0
  0
LINE
  5
178
100
AcDbEntity
100
AcDbLine
  8
0
 62
256
370
-1
 48
1.0
  6
ByLayer
 10
-103.99999999999986
 20
153.0
 30
0.0
 11
-103.99999999999987
 21
159.50000000000006
 31
0.0
  0
LINE
  5
179
100
AcDbEntity
100
AcDbLine
  8
0
 62
256
370
-1
 48
1.0
  6
ByLayer
 10
-103.99999999999987
 20
159.50000000000006
 30
0.0
 11
-109.99999999999986
 21
159.50000000000003
 31
0.0
  0
LINE
  5
17A
100
AcDbEntity
100
AcDbLine
  8
0
 62
256
370
-1
 48
1.0
  6
ByLayer
 10
-109.99999999999986
 20
159.50000000000003
 30
0.0
 11
-109.99999999999987
 21
152.99999999999994
 31
0.0
  0
LINE
  5
17B
100
AcDbEntity
100
AcDbLine
  8
0
 62
256
370
-1
 48
1.0
  6
ByLayer
 10
-109.99999999999987
 20
152.99999999999994
 30
0.0
 11
-132.99999999999997
 21
153.0
 31
0.0
  0
LINE
  5
17C
100
AcDbEntity
100
AcDbLine
  8
0
 62
256
370
-1
 48
1.0
  6
ByLayer
 10
-132.99999999999997
 20
153.0
 30
0.0
 11
-132.99999999999997
 21
161.50000000000009
 31
0.0
  0
LINE
  5
17D
100
AcDbEntity
100
AcDbLine
  8
0
 62
256
370
-1
 48
1.0
  6
ByLayer
 10
-132.99999999999997
 20
161.50000000000009
 30
0.0
 11
-136.99999999999997
 21
161.50000000000006
 31
0.0
  0
LINE
  5
17E
100
AcDbEntity
100
AcDbLine
  8
0
 62
256
370
-1
 48
1.0
  6
ByLayer
 10
-136.99999999999997
 20
161.50000000000006
 30
0.0
 11
-136.99999999999997
 21
153.0
 31
0.0
  0
LINE
  5
17F
100
AcDbEntity
100
AcDbLine
  8
0
 62
256
370
-1
 48
1.0
  6
ByLayer
 10
-136.99999999999997
 20
153.0
 30
0.0
 11
-176.99999999999997
 21
153.0
 31
0.0
  0
LINE
  5
180
100
AcDbEntity
100
AcDbLine
  8
0
 62
256
370
-1
 48
1.0
  6
ByLayer
 10
-136.99999999999997
 20
177.0
 30
0.0
 11
-136.99999999999997
 21
168.49999999999994
 31
0.0
  0
LINE
  5
181
100
AcDbEntity
100
AcDbLine
  8
0
 62
256
370
-1
 48
1.0
  6
ByLayer
 10
-136.99999999999997
 20
168.49999999999994
 30
0.0
 11
-132.99999999999997
 21
168.49999999999991
 31
0.0
  0
LINE
  5
182
100
AcDbEntity
100
AcDbLine
  8
0
 62
256
370
-1
 48
1.0
  6
ByLayer
 10
-132.99999999999997
 20
168.49999999999991
 30
0.0
 11
-132.99999999999997
 21
177.0
 31
0.0
  0
LINE
  5
183
100
AcDbEntity
100
AcDbLine
  8
0
 62
256
370
-1
 48
1.0
  6
ByLayer
 10
-109.99999999999986
 20
176.99999999999997
 30
0.0
 11
-109.99999999999984
 21
170.49999999999997
 31
0.0
  0
LINE
  5
184
100
AcDbEntity
100
AcDbLine
  8
0
 62
256
370
-1
 48
1.0
  6
ByLayer
 10
-109.99999999999984
 20
170.49999999999997
 30
0.0
 11
-103.99999999999987
 21
170.49999999999989
 31
0.0
  0
LINE
  5
185
100
AcDbEntity
100
AcDbLine
  8
0
 62
256
370
-1
 48
1.0
  6
ByLayer
 10
-103.99999999999987
 20
170.49999999999989
 30
0.0
 11
-103.99999999999986
 21
176.99999999999997
 31
0.0
  0
LINE
  5
186
100
AcDbEntity
100
AcDbLine
  8
0
 62
256
370
-1
 48
1.0
  6
ByLayer
 10
-98.999999999999972
 20
176.99999999999997
 30
0.0
 11
-98.999999999999972
 21
165.50000000000006
 31
0.0
  0
LINE
  5
187
100
AcDbEntity
100
AcDbLine
  8
0
 62
256
370
-1
 48
1.0
  6
ByLayer
 10
-98.999999999999972
 20
165.50000000000006
 30
0.0
 11
-116.02086962844928
 21
165.50000000000006
 31
0.0
  0
ARC
  5
188
100
AcDbEntity
  8
0
 62
256
370
-1
 48
1.0
  6
ByLayer
100
AcDbCircle
 10
-121.99999999999991
 20
38.000000000000071
 30
0.0
 40
5.9999999999999964
100
AcDbArc
 50
4.7801918471989646
 51
175.21980815280065
  0
LINE
  5
189
100
AcDbEntity
100
AcDbLine
  8
0
 62
256
370
-1
 48
1.0
  6
ByLayer
 10
-127.97913037155061
 20
38.500000000000092
 30
0.0
 11
-136.99999999999991
 21
38.50000000000005
 31
0.0
  0
LINE
  5
18A
100
AcDbEntity
100
AcDbLine
  8
0
 62
256
370
-1
 48
1.0
  6
ByLayer
 10
-136.99999999999991
 20
38.50000000000005
 30
0.0
 11
-136.99999999999991
 21
37.500000000000099
 31
0.0
  0
LINE
  5
18B
100
AcDbEntity
100
AcDbLine
  8
0
 62
256
370
-1
 48
1.0
  6
ByLayer
 10
-136.99999999999991
 20
37.500000000000099
 30
0.0
 11
-127.97913037155061
 21
37.50000000000005
 31
0.0
  0
ARC
  5
18C
100
AcDbEntity
  8
0
 62
256
370
-1
 48
1.0
  6
ByLayer
100
AcDbCircle
 10
-121.99999999999991
 20
38.000000000000078
 30
0.0
 40
5.9999999999999964
100
AcDbArc
 50
184.78019184719943
 51
355.21980815280119
  0
LINE
  5
18D
100
AcDbEntity
100
AcDbLine
  8
0
 62
256
370
-1
 48
1.0
  6
ByLayer
 10
-116.02086962844922
 20
37.500000000000107
 30
0.0
 11
-98.999999999999901
 21
37.500000000000121
 31
0.0
  0
LINE
  5
18E
100
AcDbEntity
100
AcDbLine
  8
0
 62
256
370
-1
 48
1.0
  6
ByLayer
 10
-98.999999999999901
 20
37.500000000000121
 30
0.0
 11
-98.999999999999929
 21
25.999999999999982
 31
0.0
  0
LINE
  5
18F
100
AcDbEntity
100
AcDbLine
  8
0
 62
256
370
-1
 48
1.0
  6
ByLayer
 10
-103.9999999999998
 20
26.000000000000004
 30
0.0
 11
-103.99999999999982
 21
32.500000000000057
 31
0.0
  0
LINE
  5
190
100
AcDbEntity
100
AcDbLine
  8
0
 62
256
370
-1
 48
1.0
  6
ByLayer
 10
-103.99999999999982
 20
32.500000000000057
 30
0.0
 11
-109.9999999999998
 21
32.500000000000036
 31
0.0
  0
LINE
  5
191
100
AcDbEntity
100
AcDbLine
  8
0
 62
256
370
-1
 48
1.0
  6
ByLayer
 10
-109.9999999999998
 20
32.500000000000036
 30
0.0
 11
-109.99999999999982
 21
25.999999999999936
 31
0.0
  0
LINE
  5
192
100
AcDbEntity
100
AcDbLine
  8
0
 62
256
370
-1
 48
1.0
  6
ByLayer
 10
-132.99999999999991
 20
25.999999999999996
 30
0.0
 11
-132.99999999999991
 21
34.500000000000071
 31
0.0
  0
LINE
  5
193
100
AcDbEntity
100
AcDbLine
  8
0
 62
256
370
-1
 48
1.0
  6
ByLayer
 10
-132.99999999999991
 20
34.500000000000071
 30
0.0
 11
-136.99999999999991
 21
34.50000000000005
 31
0.0
  0
LINE
  5
194
100
AcDbEntity
100
AcDbLine
  8
0
 62
256
370
-1
 48
1.0
  6
ByLayer
 10
-136.99999999999991
 20
34.50000000000005
 30
0.0
 11
-136.99999999999991
 21
25.999999999999989
 31
0.0
  0
LINE
  5
195
100
AcDbEntity
100
AcDbLine
  8
0
 62
256
370
-1
 48
1.0
  6
ByLayer
 10
-136.99999999999991
 20
49.999999999999993
 30
0.0
 11
-136.99999999999991
 21
41.499999999999943
 31
0.0
  0
LINE
  5
196
100
AcDbEntity
100
AcDbLine
  8
0
 62
256
370
-1
 48
1.0
  6
ByLayer
 10
-136.99999999999991
 20
41.499999999999943
 30
0.0
 11
-132.99999999999991
 21
41.499999999999908
 31
0.0
  0
LINE
  5
197
100
AcDbEntity
100
AcDbLine
  8
0
 62
256
370
-1
 48
1.0
  6
ByLayer
 10
-132.99999999999991
 20
41.499999999999908
 30
0.0
 11
-132.99999999999991
 21
49.999999999999986
 31
0.0
  0
LINE
  5
198
100
AcDbEntity
100
AcDbLine
  8
0
 62
256
370
-1
 48
1.0
  6
ByLayer
 10
-132.99999999999991
 20
49.999999999999986
 30
0.0
 11
-109.9999999999998
 21
49.999999999999986
 31
0.0
  0
LINE
  5
199
100
AcDbEntity
100
AcDbLine
  8
0
 62
256
370
-1
 48
1.0
  6
ByLayer
 10
-109.9999999999998
 20
49.999999999999986
 30
0.0
 11
-109.99999999999979
 21
43.499999999999986
 31
0.0
  0
LINE
  5
19A
100
AcDbEntity
100
AcDbLine
  8
0
 62
256
370
-1
 48
1.0
  6
ByLayer
 10
-109.99999999999979
 20
43.499999999999986
 30
0.0
 11
-103.99999999999982
 21
43.499999999999901
 31
0.0
  0
LINE
  5
19B
100
AcDbEntity
100
AcDbLine
  8
0
 62
256
370
-1
 48
1.0
  6
ByLayer
 10
-103.99999999999982
 20
43.499999999999901
 30
0.0
 11
-103.9999999999998
 21
49.999999999999979
 31
0.0
  0
LINE
  5
19C
100
AcDbEntity
100
AcDbLine
  8
0
 62
256
370
-1
 48
1.0
  6
ByLayer
 10
-103.9999999999998
 20
49.999999999999979
 30
0.0
 11
-98.999999999999915
 21
49.999999999999979
 31
0.0
  0
LINE
  5
19D
100
AcDbEntity
100
AcDbLine
  8
0
 62
256
370
-1
 48
1.0
  6
ByLayer
 10
-98.999999999999915
 20
49.999999999999979
 30
0.0
 11
-98.999999999999915
 21
38.500000000000043
 31
0.0
  0
LINE
  5
19E
100
AcDbEntity
100
AcDbLine
  8
0
 62
256
370
-1
 48
1.0
  6
ByLayer
 10
-98.999999999999915
 20
38.500000000000043
 30
0.0
 11
-116.02086962844922
 21
38.50000000000005
 31
0.0
  0
LINE
  5
19F
100
AcDbEntity
100
AcDbLine
  8
0
 62
256
370
-1
 48
1.0
  6
ByLayer
 10
-192.0
 20
10.999999999999631
 30
0.0
 11
-191.99999999999997
 21
128.64999999999975
 31
0.0
  0
LINE
  5
1A0
100
AcDbEntity
100
AcDbLine
  8
0
 62
256
370
-1
 48
1.0
  6
ByLayer
 10
-191.99999999999997
 20
128.64999999999975
 30
0.0
 11
-188.85000000000008
 21
128.64999999999975
 31
0.0
  0
LINE
  5
1A1
100
AcDbEntity
100
AcDbLine
  8
0
 62
256
370
-1
 48
1.0
  6
ByLayer
 10
-188.85000000000008
 20
128.64999999999975
 30
0.0
 11
-188.84999999999999
 21
164.84999999999974
 31
0.0
  0
LINE
  5
1A2
100
AcDbEntity
100
AcDbLine
  8
0
 62
256
370
-1
 48
1.0
  6
ByLayer
 10
-188.84999999999999
 20
164.84999999999974
 30
0.0
 11
-191.99999999999997
 21
164.84999999999974
 31
0.0
  0
LINE
  5
1A3
100
AcDbEntity
100
AcDbLine
  8
0
 62
256
370
-1
 48
1.0
  6
ByLayer
 10
-191.99999999999997
 20
164.84999999999974
 30
0.0
 11
-191.99999999999997
 21
191.99999999999974
 31
0.0
  0
LINE
  5
1A4
100
AcDbEntity
100
AcDbLine
  8
0
 62
256
370
-1
 48
1.0
  6
ByLayer
 10
-191.99999999999997
 20
191.99999999999974
 30
0.0
 11
41.105000000000018
 21
191.99999999999983
 31
0.0
  0
LINE
  5
1A5
100
AcDbEntity
100
AcDbLine
  8
0
 62
256
370
-1
 48
1.0
  6
ByLayer
 10
-176.99999999999997
 20
176.99999999999974
 30
0.0
 11
-177.00000000000034
 21
25.999999999999602
 31
0.0
  0
LINE
  5
1A6
100
AcDbEntity
100
AcDbLine
  8
0
 62
256
370
-1
 48
1.0
  6
ByLayer
 10
-177.00000000000034
 20
25.999999999999602
 30
0.0
 11
-83.264999999999972
 21
25.999999999999567
 31
0.0
  0
LINE
  5
1A7
100
AcDbEntity
100
AcDbLine
  8
0
 62
256
370
-1
 48
1.0
  6
ByLayer
 10
-83.265000000000001
 20
176.99999999999969
 30
0.0
 11
-176.99999999999997
 21
176.99999999999974
 31
0.0
  0
LINE
  5
1A8
100
AcDbEntity
100
AcDbLine
  8
0
 62
256
370
-1
 48
1.0
  6
ByLayer
 10
-14.150000000000119
 20
-52.350000000000549
 30
0.0
 11
-11.000000000000085
 21
-52.350000000000435
 31
0.0
  0
LINE
  5
1A9
100
AcDbEntity
100
AcDbLine
  8
0
 62
256
370
-1
 48
1.0
  6
ByLayer
 10
-11.000000000000171
 20
-170.00000000000051
 30
0.0
 11
-192.0
 21
-170.00000000000043
 31
0.0
  0
LINE
  5
1AA
100
AcDbEntity
100
AcDbLine
  8
0
 62
256
370
-1
 48
1.0
  6
ByLayer
 10
-192.0
 20
-170.00000000000043
 30
0.0
 11
-191.99999999999997
 21
-52.350000000000321
 31
0.0
  0
LINE
  5
1AB
100
AcDbEntity
100
AcDbLine
  8
0
 62
256
370
-1
 48
1.0
  6
ByLayer
 10
-191.99999999999997
 20
-52.350000000000321
 30
0.0
 11
-188.85000000000008
 21
-52.350000000000321
 31
0.0
  0
LINE
  5
1AC
100
AcDbEntity
100
AcDbLine
  8
0
 62
256
370
-1
 48
1.0
  6
ByLayer
 10
-188.85000000000008
 20
-52.350000000000321
 30
0.0
 11
-188.84999999999999
 21
-16.150000000000325
 31
0.0
  0
LINE
  5
1AD
100
AcDbEntity
100
AcDbLine
  8
0
 62
256
370
-1
 48
1.0
  6
ByLayer
 10
-188.84999999999999
 20
-16.150000000000325
 30
0.0
 11
-191.99999999999997
 21
-16.150000000000322
 31
0.0
  0
LINE
  5
1AE
100
AcDbEntity
100
AcDbLine
  8
0
 62
256
370
-1
 48
1.0
  6
ByLayer
 10
-191.99999999999997
 20
-16.150000000000322
 30
0.0
 11
-191.99999999999997
 21
10.999999999999687
 31
0.0
  0
LINE
  5
1AF
100
AcDbEntity
100
AcDbLine
  8
0
 62
256
370
-1
 48
1.0
  6
ByLayer
 10
-191.99999999999997
 20
10.999999999999687
 30
0.0
 11
183.43999999999974
 21
10.999999999999318
 31
0.0
  0
LINE
  5
1B0
100
AcDbEntity
100
AcDbLine
  8
0
 62
256
370
-1
 48
1.0
  6
ByLayer
 10
-11.000000000000057
 20
-16.150000000000485
 30
0.0
 11
-14.150000000000091
 21
-16.150000000000432
 31
0.0
  0
LINE
  5
1B1
100
AcDbEntity
100
AcDbLine
  8
0
 62
256
370
-1
 48
1.0
  6
ByLayer
 10
-14.150000000000091
 20
-16.150000000000432
 30
0.0
 11
-14.150000000000119
 21
-52.350000000000549
 31
0.0
  0
LINE
  5
1B2
100
AcDbEntity
100
AcDbLine
  8
0
 62
256
370
-1
 48
1.0
  6
ByLayer
 10
-176.99999999999997
 20
-4.0000000000003162
 30
0.0
 11
-177.00000000000034
 21
-155.00000000000045
 31
0.0
  0
LINE
  5
1B3
100
AcDbEntity
100
AcDbLine
  8
0
 62
256
370
-1
 48
1.0
  6
ByLayer
 10
-177.00000000000034
 20
-155.00000000000045
 30
0.0
 11
-26.000000000000142
 21
-155.00000000000051
 31
0.0
  0
LINE
  5
1B4
100
AcDbEntity
100
AcDbLine
  8
0
 62
256
370
-1
 48
1.0
  6
ByLayer
 10
-26.000000000000142
 20
-155.00000000000051
 30
0.0
 11
-25.999999999999972
 21
-4.0000000000004423
 31
0.0
  0
LINE
  5
1B5
100
AcDbEntity
100
AcDbLine
  8
0
 62
256
370
-1
 48
1.0
  6
ByLayer
 10
-25.999999999999972
 20
-4.0000000000004423
 30
0.0
 11
-176.99999999999997
 21
-4.0000000000003162
 31
0.0
  0
ARC
  5
1B6
100
AcDbEntity
  8
0
 62
256
370
-1
 48
1.0
  6
ByLayer
100
AcDbCircle
 10
-25.999999999999957
 20
-4.0000000000004121
 30
0.0
 40
15.000000000000014
100
AcDbArc
 50
180.0
 51
270.00000000000006
  0
LINE
  5
1B7
100
AcDbEntity
100
AcDbLine
  8
0
 62
256
370
-1
 48
1.0
  6
ByLayer
 10
-45.999999999999972
 20
-4.0000000000003979
 30
0.0
 11
-68.21572875253807
 21
-26.215728752538524
 31
0.0
  0
LINE
  5
1B8
100
AcDbEntity
100
AcDbLine
  8
0
 62
256
370
-1
 48
1.0
  6
ByLayer
 10
-68.21572875253807
 20
-26.215728752538524
 30
0.0
 11
-68.21572875253807
 21
-33.286796564403971
 31
0.0
  0
LINE
  5
1B9
100
AcDbEntity
100
AcDbLine
  8
0
 62
256
370
-1
 48
1.0
  6
ByLayer
 10
-68.21572875253807
 20
-33.286796564403971
 30
0.0
 11
-92.964466094067234
 21
-58.035533905933164
 31
0.0
  0
ARC
  5
1BA
100
AcDbEntity
  8
0
 62
256
370
-1
 48
1.0
  6
ByLayer
100
AcDbCircle
 10
-96.499999999999972
 20
-54.500000000000441
 30
0.0
 40
4.9999999999999885
100
AcDbArc
 50
225.00000000000011
 51
315.00000000000011
  0
LINE
  5
1BB
100
AcDbEntity
100
AcDbLine
  8
0
 62
256
370
-1
 48
1.0
  6
ByLayer
 10
-100.0355339059327
 20
-58.035533905933178
 30
0.0
 11
-124.78427124746187
 21
-33.286796564404014
 31
0.0
  0
LINE
  5
1BC
100
AcDbEntity
100
AcDbLine
  8
0
 62
256
370
-1
 48
1.0
  6
ByLayer
 10
-124.78427124746187
 20
-33.286796564404014
 30
0.0
 11
-124.78427124746187
 21
-26.215728752538553
 31
0.0
  0
LINE
  5
1BD
100
AcDbEntity
100
AcDbLine
  8
0
 62
256
370
-1
 48
1.0
  6
ByLayer
 10
-124.78427124746187
 20
-26.215728752538553
 30
0.0
 11
-147.0
 21
-4.0000000000004405
 31
0.0
  0
ARC
  5
1BE
100
AcDbEntity
  8
0
 62
256
370
-1
 48
1.0
  6
ByLayer
100
AcDbCircle
 10
-167.0
 20
-4.0000000000004059
 30
0.0
 40
15.00000000000002
100
AcDbArc
 50
270.0
 51
360.0
  0
LINE
  5
1BF
100
AcDbEntity
100
AcDbLine
  8
0
 62
256
370
-1
 48
1.0
  6
ByLayer
 10
-167.0
 20
-19.000000000000426
 30
0.0
 11
-167.0
 21
-24.000000000000426
 31
0.0
  0
LINE
  5
1C0
100
AcDbEntity
100
AcDbLine
  8
0
 62
256
370
-1
 48
1.0
  6
ByLayer
 10
-167.0
 20
-24.000000000000426
 30
0.0
 11
-144.78427124746187
 21
-46.215728752538524
 31
0.0
  0
LINE
  5
1C1
100
AcDbEntity
100
AcDbLine
  8
0
 62
256
370
-1
 48
1.0
  6
ByLayer
 10
-144.78427124746187
 20
-46.215728752538524
 30
0.0
 11
-137.71320343559643
 21
-46.215728752538524
 31
0.0
  0
LINE
  5
1C2
100
AcDbEntity
100
AcDbLine
  8
0
 62
256
370
-1
 48
1.0
  6
ByLayer
 10
-137.71320343559643
 20
-46.215728752538524
 30
0.0
 11
-112.96446609406723
 21
-70.964466094067689
 31
0.0
  0
ARC
  5
1C3
100
AcDbEntity
  8
0
 62
256
370
-1
 48
1.0
  6
ByLayer
100
AcDbCircle
 10
-116.49999999999997
 20
-74.500000000000426
 30
0.0
 40
5.0
100
AcDbArc
 50
315.00000000000011
 51
45.0
  0
LINE
  5
1C4
100
AcDbEntity
100
AcDbLine
  8
0
 62
256
370
-1
 48
1.0
  6
ByLayer
 10
-112.96446609406722
 20
-78.035533905933164
 30
0.0
 11
-137.71320343559637
 21
-102.78427124746233
 31
0.0
  0
LINE
  5
1C5
100
AcDbEntity
100
AcDbLine
  8
0
 62
256
370
-1
 48
1.0
  6
ByLayer
 10
-137.71320343559637
 20
-102.78427124746233
 30
0.0
 11
-144.78427124746185
 21
-102.78427124746233
 31
0.0
  0
LINE
  5
1C6
100
AcDbEntity
100
AcDbLine
  8
0
 62
256
370
-1
 48
1.0
  6
ByLayer
 10
-144.78427124746185
 20
-102.78427124746233
 30
0.0
 11
-166.99999999999997
 21
-125.00000000000048
 31
0.0
  0
LINE
  5
1C7
100
AcDbEntity
100
AcDbLine
  8
0
 62
256
370
-1
 48
1.0
  6
ByLayer
 10
-166.99999999999997
 20
-125.00000000000048
 30
0.0
 11
-166.99999999999997
 21
-130.00000000000043
 31
0.0
  0
LINE
  5
1C8
100
AcDbEntity
100
AcDbLine
  8
0
 62
256
370
-1
 48
1.0
  6
ByLayer
 10
-166.99999999999997
 20
-130.00000000000043
 30
0.0
 11
-162.0
 21
-130.00000000000043
 31
0.0
  0
ARC
  5
1C9
100
AcDbEntity
  8
0
 62
256
370
-1
 48
1.0
  6
ByLayer
100
AcDbCircle
 10
-162.0
 20
-140.00000000000045
 30
0.0
 40
10.000000000000014
100
AcDbArc
 50
0.0
 51
90.0
  0
LINE
  5
1CA
100
AcDbEntity
100
AcDbLine
  8
0
 62
256
370
-1
 48
1.0
  6
ByLayer
 10
-151.99999999999997
 20
-140.00000000000043
 30
0.0
 11
-151.99999999999997
 21
-145.00000000000045
 31
0.0
  0
LINE
  5
1CB
100
AcDbEntity
100
AcDbLine
  8
0
 62
256
370
-1
 48
1.0
  6
ByLayer
 10
-151.99999999999997
 20
-145.00000000000045
 30
0.0
 11
-146.99999999999997
 21
-145.00000000000043
 31
0.0
  0
LINE
  5
1CC
100
AcDbEntity
100
AcDbLine
  8
0
 62
256
370
-1
 48
1.0
  6
ByLayer
 10
-146.99999999999997
 20
-145.00000000000043
 30
0.0
 11
-124.78427124746187
 21
-122.78427124746233
 31
0.0
  0
LINE
  5
1CD
100
AcDbEntity
100
AcDbLine
  8
0
 62
256
370
-1
 48
1.0
  6
ByLayer
 10
-124.78427124746187
 20
-122.78427124746233
 30
0.0
 11
-124.78427124746189
 21
-115.71320343559688
 31
0.0
  0
LINE
  5
1CE
100
AcDbEntity
100
AcDbLine
  8
0
 62
256
370
-1
 48
1.0
  6
ByLayer
 10
-124.78427124746189
 20
-115.71320343559688
 30
0.0
 11
-100.03553390593272
 21
-90.964466094067689
 31
0.0
  0
ARC
  5
1CF
100
AcDbEntity
  8
0
 62
256
370
-1
 48
1.0
  6
ByLayer
100
AcDbCircle
 10
-96.499999999999986
 20
-94.500000000000426
 30
0.0
 40
5.0
100
AcDbArc
 50
45.0
 51
135.0
  0
LINE
  5
1D0
100
AcDbEntity
100
AcDbLine
  8
0
 62
256
370
-1
 48
1.0
  6
ByLayer
 10
-92.964466094067248
 20
-90.964466094067689
 30
0.0
 11
-68.21572875253807
 21
-115.71320343559685
 31
0.0
  0
LINE
  5
1D1
100
AcDbEntity
100
AcDbLine
  8
0
 62
256
370
-1
 48
1.0
  6
ByLayer
 10
-68.21572875253807
 20
-115.71320343559685
 30
0.0
 11
-68.21572875253807
 21
-122.7842712474623
 31
0.0
  0
LINE
  5
1D2
100
AcDbEntity
100
AcDbLine
  8
0
 62
256
370
-1
 48
1.0
  6
ByLayer
 10
-68.21572875253807
 20
-122.7842712474623
 30
0.0
 11
-45.999999999999915
 21
-145.00000000000043
 31
0.0
  0
LINE
  5
1D3
100
AcDbEntity
100
AcDbLine
  8
0
 62
256
370
-1
 48
1.0
  6
ByLayer
 10
-45.999999999999915
 20
-145.00000000000043
 30
0.0
 11
-40.999999999999972
 21
-145.00000000000043
 31
0.0
  0
ARC
  5
1D4
100
AcDbEntity
  8
0
 62
256
370
-1
 48
1.0
  6
ByLayer
100
AcDbCircle
 10
-25.999999999999972
 20
-145.00000000000043
 30
0.0
 40
15.000000000000002
100
AcDbArc
 50
90.0
 51
180.0
  0
LINE
  5
1D5
100
AcDbEntity
100
AcDbLine
  8
0
 62
256
370
-1
 48
1.0
  6
ByLayer
 10
-25.999999999999972
 20
-125.00000000000043
 30
0.0
 11
-48.215728752538041
 21
-102.78427124746233
 31
0.0
  0
LINE
  5
1D6
100
AcDbEntity
100
AcDbLine
  8
0
 62
256
370
-1
 48
1.0
  6
ByLayer
 10
-48.215728752538041
 20
-102.78427124746233
 30
0.0
 11
-55.286796564403517
 21
-102.78427124746236
 31
0.0
  0
LINE
  5
1D7
100
AcDbEntity
100
AcDbLine
  8
0
 62
256
370
-1
 48
1.0
  6
ByLayer
 10
-55.286796564403517
 20
-102.78427124746236
 30
0.0
 11
-80.035533905932709
 21
-78.035533905933178
 31
0.0
  0
ARC
  5
1D8
100
AcDbEntity
  8
0
 62
256
370
-1
 48
1.0
  6
ByLayer
100
AcDbCircle
 10
-76.499999999999972
 20
-74.500000000000441
 30
0.0
 40
5.0
100
AcDbArc
 50
135.0
 51
225.0
  0
LINE
  5
1D9
100
AcDbEntity
100
AcDbLine
  8
0
 62
256
370
-1
 48
1.0
  6
ByLayer
 10
-80.035533905932709
 20
-70.964466094067703
 30
0.0
 11
-55.286796564403559
 21
-46.215728752538524
 31
0.0
  0
LINE
  5
1DA
100
AcDbEntity
100
AcDbLine
  8
0
 62
256
370
-1
 48
1.0
  6
ByLayer
 10
-55.286796564403559
 20
-46.215728752538524
 30
0.0
 11
-48.215728752538098
 21
-46.215728752538524
 31
0.0
  0
LINE
  5
1DB
100
AcDbEntity
100
AcDbLine
  8
0
 62
256
370
-1
 48
1.0
  6
ByLayer
 10
-48.215728752538098
 20
-46.215728752538524
 30
0.0
 11
-25.999999999999972
 21
-24.000000000000384
 31
0.0
  0
LINE
  5
1DC
100
AcDbEntity
100
AcDbLine
  8
0
 62
256
370
-1
 48
1.0
  6
ByLayer
 10
166.84999999999968
 20
-52.350000000000747
 30
0.0
 11
169.99999999999972
 21
-52.350000000000634
 31
0.0
  0
LINE
  5
1DD
100
AcDbEntity
100
AcDbLine
  8
0
 62
256
370
-1
 48
1.0
  6
ByLayer
 10
169.99999999999972
 20
-52.350000000000634
 30
0.0
 11
169.99999999999963
 21
-170.00000000000071
 31
0.0
  0
LINE
  5
1DE
100
AcDbEntity
100
AcDbLine
  8
0
 62
256
370
-1
 48
1.0
  6
ByLayer
 10
169.99999999999963
 20
-170.00000000000071
 30
0.0
 11
-11.000000000000204
 21
-170.00000000000063
 31
0.0
  0
LINE
  5
1DF
100
AcDbEntity
100
AcDbLine
  8
0
 62
256
370
-1
 48
1.0
  6
ByLayer
 10
-11.000000000000204
 20
-170.00000000000063
 30
0.0
 11
-11.000000000000183
 21
-52.35000000000052
 31
0.0
  0
LINE
  5
1E0
100
AcDbEntity
100
AcDbLine
  8
0
 62
256
370
-1
 48
1.0
  6
ByLayer
 10
-11.000000000000183
 20
-52.35000000000052
 30
0.0
 11
-7.8500000000002785
 21
-52.35000000000052
 31
0.0
  0
LINE
  5
1E1
100
AcDbEntity
100
AcDbLine
  8
0
 62
256
370
-1
 48
1.0
  6
ByLayer
 10
-7.8500000000002785
 20
-52.35000000000052
 30
0.0
 11
-7.850000000000203
 21
-16.150000000000524
 31
0.0
  0
LINE
  5
1E2
100
AcDbEntity
100
AcDbLine
  8
0
 62
256
370
-1
 48
1.0
  6
ByLayer
 10
-7.850000000000203
 20
-16.150000000000524
 30
0.0
 11
-11.000000000000176
 21
-16.150000000000521
 31
0.0
  0
LINE
  5
1E3
100
AcDbEntity
100
AcDbLine
  8
0
 62
256
370
-1
 48
1.0
  6
ByLayer
 10
-11.000000000000176
 20
-16.150000000000521
 30
0.0
 11
-11.000000000000171
 21
10.999999999999488
 31
0.0
  0
LINE
  5
1E4
100
AcDbEntity
100
AcDbLine
  8
0
 62
256
370
-1
 48
1.0
  6
ByLayer
 10
169.99999999999983
 20
10.999999999999284
 30
0.0
 11
169.99999999999974
 21
-16.150000000000684
 31
0.0
  0
LINE
  5
1E5
100
AcDbEntity
100
AcDbLine
  8
0
 62
256
370
-1
 48
1.0
  6
ByLayer
 10
169.99999999999974
 20
-16.150000000000684
 30
0.0
 11
166.84999999999971
 21
-16.150000000000631
 31
0.0
  0
LINE
  5
1E6
100
AcDbEntity
100
AcDbLine
  8
0
 62
256
370
-1
 48
1.0
  6
ByLayer
 10
166.84999999999971
 20
-16.150000000000631
 30
0.0
 11
166.84999999999968
 21
-52.350000000000747
 31
0.0
  0
LINE
  5
1E7
100
AcDbEntity
100
AcDbLine
  8
0
 62
256
370
-1
 48
1.0
  6
ByLayer
 10
3.9999999999998259
 20
-4.0000000000005151
 30
0.0
 11
3.9999999999994547
 21
-155.00000000000065
 31
0.0
  0
LINE
  5
1E8
100
AcDbEntity
100
AcDbLine
  8
0
 62
256
370
-1
 48
1.0
  6
ByLayer
 10
3.9999999999994547
 20
-155.00000000000065
 30
0.0
 11
154.99999999999966
 21
-155.00000000000071
 31
0.0
  0
LINE
  5
1E9
100
AcDbEntity
100
AcDbLine
  8
0
 62
256
370
-1
 48
1.0
  6
ByLayer
 10
154.99999999999966
 20
-155.00000000000071
 30
0.0
 11
154.99999999999983
 21
-4.0000000000006413
 31
0.0
  0
LINE
  5
1EA
100
AcDbEntity
100
AcDbLine
  8
0
 62
256
370
-1
 48
1.0
  6
ByLayer
 10
154.99999999999983
 20
-4.0000000000006413
 30
0.0
 11
3.9999999999998259
 21
-4.0000000000005151
 31
0.0
  0
LINE
  5
1EB
100
AcDbEntity
100
AcDbLine
  8
0
 62
256
370
-1
 48
1.0
  6
ByLayer
 10
155.00000000000023
 20
-118.50000000000017
 30
0.0
 11
124.53553390593298
 21
-88.035533905932908
 31
0.0
  0
ARC
  5
1EC
100
AcDbEntity
  8
0
 62
256
370
-1
 48
1.0
  6
ByLayer
100
AcDbCircle
 10
128.07106781186573
 20
-84.500000000000171
 30
0.0
 40
5.0000000000000018
100
AcDbArc
 50
135.00000000000011
 51
224.99999999999989
  0
LINE
  5
1ED
100
AcDbEntity
100
AcDbLine
  8
0
 62
256
370
-1
 48
1.0
  6
ByLayer
 10
124.53553390593298
 20
-80.964466094067433
 30
0.0
 11
155.00000000000023
 21
-50.500000000000171
 31
0.0
  0
LINE
  5
1EE
100
AcDbEntity
100
AcDbLine
  8
0
 62
256
370
-1
 48
1.0
  6
ByLayer
 10
155.00000000000028
 20
-29.000000000000085
 30
0.0
 11
150.00000000000023
 21
-29.000000000000085
 31
0.0
  0
ARC
  5
1EF
100
AcDbEntity
  8
0
 62
256
370
-1
 48
1.0
  6
ByLayer
100
AcDbCircle
 10
150.00000000000023
 20
-19.000000000000085
 30
0.0
 40
10.0
100
AcDbArc
 50
180.0
 51
270.0
  0
LINE
  5
1F0
100
AcDbEntity
100
AcDbLine
  8
0
 62
256
370
-1
 48
1.0
  6
ByLayer
 10
140.00000000000026
 20
-19.000000000000057
 30
0.0
 11
140.00000000000023
 21
-14.000000000000114
 31
0.0
  0
LINE
  5
1F1
100
AcDbEntity
100
AcDbLine
  8
0
 62
256
370
-1
 48
1.0
  6
ByLayer
 10
140.00000000000023
 20
-14.000000000000114
 30
0.0
 11
118.50000000000026
 21
-14.000000000000114
 31
0.0
  0
LINE
  5
1F2
100
AcDbEntity
100
AcDbLine
  8
0
 62
256
370
-1
 48
1.0
  6
ByLayer
 10
118.50000000000026
 20
-14.000000000000114
 30
0.0
 11
88.035533905933008
 21
-44.464466094067404
 31
0.0
  0
ARC
  5
1F3
100
AcDbEntity
  8
0
 62
256
370
-1
 48
1.0
  6
ByLayer
100
AcDbCircle
 10
84.50000000000027
 20
-40.928932188134667
 30
0.0
 40
5.0000000000000009
100
AcDbArc
 50
225.0
 51
315.0
  0
LINE
  5
1F4
100
AcDbEntity
100
AcDbLine
  8
0
 62
256
370
-1
 48
1.0
  6
ByLayer
 10
80.964466094067532
 20
-44.464466094067404
 30
0.0
 11
50.500000000000256
 21
-14.000000000000171
 31
0.0
  0
LINE
  5
1F5
100
AcDbEntity
100
AcDbLine
  8
0
 62
256
370
-1
 48
1.0
  6
ByLayer
 10
50.500000000000256
 20
-14.000000000000171
 30
0.0
 11
29.000000000000242
 21
-14.000000000000114
 31
0.0
  0
LINE
  5
1F6
100
AcDbEntity
100
AcDbLine
  8
0
 62
256
370
-1
 48
1.0
  6
ByLayer
 10
29.000000000000242
 20
-14.000000000000114
 30
0.0
 11
29.000000000000242
 21
-19.000000000000114
 31
0.0
  0
ARC
  5
1F7
100
AcDbEntity
  8
0
 62
256
370
-1
 48
1.0
  6
ByLayer
100
AcDbCircle
 10
19.000000000000263
 20
-19.000000000000107
 30
0.0
 40
9.9999999999999787
100
AcDbArc
 50
269.99999999999994
 51
360.0
  0
LINE
  5
1F8
100
AcDbEntity
100
AcDbLine
  8
0
 62
256
370
-1
 48
1.0
  6
ByLayer
 10
19.000000000000256
 20
-29.000000000000085
 30
0.0
 11
14.000000000000256
 21
-29.000000000000114
 31
0.0
  0
LINE
  5
1F9
100
AcDbEntity
100
AcDbLine
  8
0
 62
256
370
-1
 48
1.0
  6
ByLayer
 10
14.000000000000256
 20
-29.000000000000114
 30
0.0
 11
14.000000000000256
 21
-50.500000000000114
 31
0.0
  0
LINE
  5
1FA
100
AcDbEntity
100
AcDbLine
  8
0
 62
256
370
-1
 48
1.0
  6
ByLayer
 10
14.000000000000256
 20
-50.500000000000114
 30
0.0
 11
44.464466094067518
 21
-80.964466094067376
 31
0.0
  0
ARC
  5
1FB
100
AcDbEntity
  8
0
 62
256
370
-1
 48
1.0
  6
ByLayer
100
AcDbCircle
 10
40.92893218813478
 20
-84.500000000000114
 30
0.0
 40
5.0000000000000018
100
AcDbArc
 50
315.0
 51
45.0
  0
LINE
  5
1FC
100
AcDbEntity
100
AcDbLine
  8
0
 62
256
370
-1
 48
1.0
  6
ByLayer
 10
44.464466094067518
 20
-88.035533905932851
 30
0.0
 11
14.000000000000313
 21
-118.50000000000014
 31
0.0
  0
LINE
  5
1FD
100
AcDbEntity
100
AcDbLine
  8
0
 62
256
370
-1
 48
1.0
  6
ByLayer
 10
14.000000000000313
 20
-118.50000000000014
 30
0.0
 11
14.000000000000256
 21
-140.00000000000014
 31
0.0
  0
LINE
  5
1FE
100
AcDbEntity
100
AcDbLine
  8
0
 62
256
370
-1
 48
1.0
  6
ByLayer
 10
14.000000000000256
 20
-140.00000000000014
 30
0.0
 11
19.000000000000256
 21
-140.00000000000014
 31
0.0
  0
ARC
  5
1FF
100
AcDbEntity
  8
0
 62
256
370
-1
 48
1.0
  6
ByLayer
100
AcDbCircle
 10
19.000000000000249
 20
-150.00000000000014
 30
0.0
 40
9.9999999999999929
100
AcDbArc
 50
0.0
 51
89.999999999999957
  0
LINE
  5
200
100
AcDbEntity
100
AcDbLine
  8
0
 62
256
370
-1
 48
1.0
  6
ByLayer
 10
29.000000000000242
 20
-150.00000000000014
 30
0.0
 11
29.000000000000242
 21
-155.00000000000017
 31
0.0
  0
LINE
  5
201
100
AcDbEntity
100
AcDbLine
  8
0
 62
256
370
-1
 48
1.0
  6
ByLayer
 10
50.500000000000227
 20
-155.00000000000011
 30
0.0
 11
80.96446609406749
 21
-124.53553390593285
 31
0.0
  0
ARC
  5
202
100
AcDbEntity
  8
0
 62
256
370
-1
 48
1.0
  6
ByLayer
100
AcDbCircle
 10
84.500000000000227
 20
-128.07106781186559
 30
0.0
 40
5.0000000000000018
100
AcDbArc
 50
45.0
 51
135.0
  0
LINE
  5
203
100
AcDbEntity
100
AcDbLine
  8
0
 62
256
370
-1
 48
1.0
  6
ByLayer
 10
88.035533905932965
 20
-124.53553390593285
 30
0.0
 11
118.50000000000026
 21
-155.00000000000009
 31
0.0
  0
LINE
  5
204
100
AcDbEntity
100
AcDbLine
  8
0
 62
256
370
-1
 48
1.0
  6
ByLayer
 10
140.00000000000028
 20
-155.00000000000011
 30
0.0
 11
140.00000000000028
 21
-150.00000000000011
 31
0.0
  0
ARC
  5
205
100
AcDbEntity
  8
0
 62
256
370
-1
 48
1.0
  6
ByLayer
100
AcDbCircle
 10
150.00000000000028
 20
-150.00000000000011
 30
0.0
 40
10.0
100
AcDbArc
 50
90.0
 51
180.0
  0
LINE
  5
206
100
AcDbEntity
100
AcDbLine
  8
0
 62
256
370
-1
 48
1.0
  6
ByLayer
 10
150.00000000000028
 20
-140.00000000000011
 30
0.0
 11
155.00000000000026
 21
-140.00000000000011
 31
0.0
  0
LINE
  5
207
100
AcDbEntity
100
AcDbLine
  8
0
 62
256
370
-1
 48
1.0
  6
ByLayer
 10
180.28999999999979
 20
128.6499999999993
 30
0.0
 11
183.43999999999983
 21
128.64999999999941
 31
0.0
  0
LINE
  5
208
100
AcDbEntity
100
AcDbLine
  8
0
 62
256
370
-1
 48
1.0
  6
ByLayer
 10
183.43999999999983
 20
128.64999999999941
 30
0.0
 11
183.43999999999974
 21
10.999999999999318
 31
0.0
  0
LINE
  5
209
100
AcDbEntity
100
AcDbLine
  8
0
 62
256
370
-1
 48
1.0
  6
ByLayer
 10
77.304999999999978
 20
191.99999999999986
 30
0.0
 11
183.43999999999994
 21
191.99999999999932
 31
0.0
  0
LINE
  5
20A
100
AcDbEntity
100
AcDbLine
  8
0
 62
256
370
-1
 48
1.0
  6
ByLayer
 10
183.43999999999994
 20
191.99999999999932
 30
0.0
 11
183.43999999999986
 21
164.84999999999934
 31
0.0
  0
LINE
  5
20B
100
AcDbEntity
100
AcDbLine
  8
0
 62
256
370
-1
 48
1.0
  6
ByLayer
 10
183.43999999999986
 20
164.84999999999934
 30
0.0
 11
180.28999999999982
 21
164.8499999999994
 31
0.0
  0
LINE
  5
20C
100
AcDbEntity
100
AcDbLine
  8
0
 62
256
370
-1
 48
1.0
  6
ByLayer
 10
180.28999999999982
 20
164.8499999999994
 30
0.0
 11
180.28999999999979
 21
128.6499999999993
 31
0.0
  0
LINE
  5
20D
100
AcDbEntity
100
AcDbLine
  8
0
 62
256
370
-1
 48
1.0
  6
ByLayer
 10
111.17500000000017
 20
25.999999999999343
 30
0.0
 11
168.43999999999977
 21
25.999999999999318
 31
0.0
  0
LINE
  5
20E
100
AcDbEntity
100
AcDbLine
  8
0
 62
256
370
-1
 48
1.0
  6
ByLayer
 10
168.43999999999977
 20
25.999999999999318
 30
0.0
 11
168.43999999999994
 21
176.99999999999937
 31
0.0
  0
LINE
  5
20F
100
AcDbEntity
100
AcDbLine
  8
0
 62
256
370
-1
 48
1.0
  6
ByLayer
 10
168.43999999999994
 20
176.99999999999937
 30
0.0
 11
111.17500000000004
 21
176.99999999999946
 31
0.0
  0
ENDSEC
  0
SECTION
  2
OBJECTS
  0
DICTIONARY
  5
C
100
AcDbDictionary
280
0
281
1
  3
ACAD_GROUP
350
D
  3
ACAD_LAYOUT
350
1A
  3
ACAD_MLINESTYLE
350
17
  3
ACAD_PLOTSETTINGS
350
19
  3
ACAD_PLOTSTYLENAME
350
E
  3
AcDbVariableDictionary
350
210
  3
QCAD_OBJECTS
350
211
  0
DICTIONARY
  5
D
100
AcDbDictionary
280
0
281
1
  0
ACDBDICTIONARYWDFLT
  5
E
100
AcDbDictionary
281
1
  3
Normal
350
F
100
AcDbDictionaryWithDefault
340
F
  0
ACDBPLACEHOLDER
  5
F
  0
DICTIONARY
  5
17
100
AcDbDictionary
280
0
281
1
  3
Standard
350
18
  0
MLINESTYLE
  5
18
100
AcDbMlineStyle
  2
STANDARD
 70
0
  3

 62
256
 51
90.0
 52
90.0
 71
2
 49
0.5
 62
256
  6
BYLAYER
 49
-0.5
 62
256
  6
BYLAYER
  0
DICTIONARY
  5
19
100
AcDbDictionary
280
0
281
1
  0
DICTIONARY
  5
1A
100
AcDbDictionary
281
1
  3
Layout1
350
1E
  3
Layout2
350
26
  3
Model
350
22
  0
LAYOUT
  5
1E
100
AcDbPlotSettings
  1

  2
none_device
  4

  6

 40
0.0
 41
0.0
 42
0.0
 43
0.0
 44
0.0
 45
0.0
 46
0.0
 47
0.0
 48
0.0
 49
0.0
140
0.0
141
0.0
142
1.0
143
1.0
 70
688
 72
0
 73
0
 74
5
  7

 75
16
147
1.0
148
0.0
149
0.0
100
AcDbLayout
  1
Layout1
 70
1
 71
1
 10
0.0
 20
0.0
 11
420.0
 21
297.0
 12
0.0
 22
0.0
 32
0.0
 14
100000000000000000000.0
 24
100000000000000000000.0
 34
100000000000000000000.0
 15
-100000000000000000000.0
 25
-100000000000000000000.0
 35
-100000000000000000000.0
146
0.0
 13
0.0
 23
0.0
 33
0.0
 16
1.0
 26
0.0
 36
0.0
 17
0.0
 27
1.0
 37
0.0
 76
0
330
1B
  0
LAYOUT
  5
22
100
AcDbPlotSettings
  1

  2
none_device
  4

  6

 40
0.0
 41
0.0
 42
0.0
 43
0.0
 44
0.0
 45
0.0
 46
0.0
 47
0.0
 48
0.0
 49
0.0
140
0.0
141
0.0
142
1.0
143
1.0
 70
1712
 72
0
 73
0
 74
0
  7

 75
0
147
1.0
148
0.0
149
0.0
100
AcDbLayout
  1
Model
 70
1
 71
0
 10
0.0
 20
0.0
 11
12.0
 21
9.0
 12
0.0
 22
0.0
 32
0.0
 14
0.0
 24
0.0
 34
0.0
 15
0.0
 25
0.0
 35
0.0
146
0.0
 13
0.0
 23
0.0
 33
0.0
 16
1.0
 26
0.0
 36
0.0
 17
0.0
 27
1.0
 37
0.0
 76
0
330
1F
  0
LAYOUT
  5
26
100
AcDbPlotSettings
  1

  2
none_device
  4

  6

 40
0.0
 41
0.0
 42
0.0
 43
0.0
 44
0.0
 45
0.0
 46
0.0
 47
0.0
 48
0.0
 49
0.0
140
0.0
141
0.0
142
1.0
143
1.0
 70
688
 72
0
 73
0
 74
5
  7

 75
16
147
1.0
148
0.0
149
0.0
100
AcDbLayout
  1
Layout2
 70
1
 71
2
 10
0.0
 20
0.0
 11
12.0
 21
9.0
 12
0.0
 22
0.0
 32
0.0
 14
0.0
 24
0.0
 34
0.0
 15
0.0
 25
0.0
 35
0.0
146
0.0
 13
0.0
 23
0.0
 33
0.0
 16
1.0
 26
0.0
 36
0.0
 17
0.0
 27
1.0
 37
0.0
 76
0
330
23
  0
DICTIONARY
  5
210
100
AcDbDictionary
281
1
  3
DIMASSOC
350
213
  3
HIDETEXT
350
212
  0
DICTIONARYVAR
  5
212
100
DictionaryVariables
280
0
  1
2
  0
DICTIONARYVAR
  5
213
100
DictionaryVariables
280
0
  1
1
  0
DICTIONARY
  5
211
100
AcDbDictionary
281
1
  3
Grid/DisplayGrid00
350
214
  3
Grid/DisplayGrid01
350
215
  3
Grid/DisplayGrid02
350
216
  3
Grid/DisplayGrid03
350
217
  3
Grid/GridSpacingX00
350
218
  3
Grid/GridSpacingX01
350
219
  3
Grid/GridSpacingX02
350
21A
  3
Grid/GridSpacingX03
350
21B
  3
Grid/GridSpacingY00
350
21C
  3
Grid/GridSpacingY01
350
21D
  3
Grid/GridSpacingY02
350
21E
  3
Grid/GridSpacingY03
350
21F
  3
Grid/IsometricGrid00
350
220
  3
Grid/IsometricGrid01
350
221
  3
Grid/IsometricGrid02
350
222
  3
Grid/IsometricGrid03
350
223
  3
Grid/IsometricProjection00
350
224
  3
Grid/IsometricProjection01
350
225
  3
Grid/IsometricProjection02
350
226
  3
Grid/IsometricProjection03
350
227
  3
Grid/MetaGridSpacingX00
350
228
  3
Grid/MetaGridSpacingX01
350
229
  3
Grid/MetaGridSpacingX02
350
22A
  3
Grid/MetaGridSpacingX03
350
22B
  3
Grid/MetaGridSpacingY00
350
22C
  3
Grid/MetaGridSpacingY01
350
22D
  3
Grid/MetaGridSpacingY02
350
22E
  3
Grid/MetaGridSpacingY03
350
22F
  3
MultiPageSettings/Columns
350
230
  3
MultiPageSettings/GlueMarginsBottom
350
231
  3
MultiPageSettings/GlueMarginsLeft
350
232
  3
MultiPageSettings/GlueMarginsRight
350
233
  3
MultiPageSettings/GlueMarginsTop
350
234
  3
MultiPageSettings/PrintCropMarks
350
235
  3
MultiPageSettings/Rows
350
236
  3
PageSettings/OffsetX
350
237
  3
PageSettings/OffsetY
350
238
  3
PageSettings/PageOrientation
350
239
  3
PageSettings/PaperHeight
350
23A
  3
PageSettings/PaperWidth
350
23B
  3
PageSettings/Scale
350
23C
  3
PageSettings/ShowPaperBorders
350
23D
  3
UnitSettings/PaperUnit
350
23E
  0
XRECORD
  5
214
330
211
100
AcDbXrecord
280
1
290
1
  0
XRECORD
  5
215
330
211
100
AcDbXrecord
280
1
290
1
  0
XRECORD
  5
216
330
211
100
AcDbXrecord
280
1
290
1
  0
XRECORD
  5
217
330
211
100
AcDbXrecord
280
1
290
1
  0
XRECORD
  5
218
330
211
100
AcDbXrecord
280
1
1000
auto
  0
XRECORD
  5
219
330
211
100
AcDbXrecord
280
1
1000
auto
  0
XRECORD
  5
21A
330
211
100
AcDbXrecord
280
1
1000
auto
  0
XRECORD
  5
21B
330
211
100
AcDbXrecord
280
1
1000
auto
  0
XRECORD
  5
21C
330
211
100
AcDbXrecord
280
1
1000
auto
  0
XRECORD
  5
21D
330
211
100
AcDbXrecord
280
1
1000
auto
  0
XRECORD
  5
21E
330
211
100
AcDbXrecord
280
1
1000
auto
  0
XRECORD
  5
21F
330
211
100
AcDbXrecord
280
1
1000
auto
  0
XRECORD
  5
220
330
211
100
AcDbXrecord
280
1
290
0
  0
XRECORD
  5
221
330
211
100
AcDbXrecord
280
1
290
0
  0
XRECORD
  5
222
330
211
100
AcDbXrecord
280
1
290
0
  0
XRECORD
  5
223
330
211
100
AcDbXrecord
280
1
290
0
  0
XRECORD
  5
224
330
211
100
AcDbXrecord
280
1
 90
0
  0
XRECORD
  5
225
330
211
100
AcDbXrecord
280
1
 90
0
  0
XRECORD
  5
226
330
211
100
AcDbXrecord
280
1
 90
0
  0
XRECORD
  5
227
330
211
100
AcDbXrecord
280
1
 90
0
  0
XRECORD
  5
228
330
211
100
AcDbXrecord
280
1
1000
auto
  0
XRECORD
  5
229
330
211
100
AcDbXrecord
280
1
1000
auto
  0
XRECORD
  5
22A
330
211
100
AcDbXrecord
280
1
1000
auto
  0
XRECORD
  5
22B
330
211
100
AcDbXrecord
280
1
1000
auto
  0
XRECORD
  5
22C
330
211
100
AcDbXrecord
280
1
1000
auto
  0
XRECORD
  5
22D
330
211
100
AcDbXrecord
280
1
1000
auto
  0
XRECORD
  5
22E
330
211
100
AcDbXrecord
280
1
1000
auto
  0
XRECORD
  5
22F
330
211
100
AcDbXrecord
280
1
1000
auto
  0
XRECORD
  5
230
330
211
100
AcDbXrecord
280
1
 90
1
  0
XRECORD
  5
231
330
211
100
AcDbXrecord
280
1
 40
10.0
  0
XRECORD
  5
232
330
211
100
AcDbXrecord
280
1
 40
10.0
  0
XRECORD
  5
233
330
211
100
AcDbXrecord
280
1
 40
10.0
  0
XRECORD
  5
234
330
211
100
AcDbXrecord
280
1
 40
10.0
  0
XRECORD
  5
235
330
211
100
AcDbXrecord
280
1
290
0
  0
XRECORD
  5
236
330
211
100
AcDbXrecord
280
1
 90
1
  0
XRECORD
  5
237
330
211
100
AcDbXrecord
280
1
 40
0.0
  0
XRECORD
  5
238
330
211
100
AcDbXrecord
280
1
 40
0.0
  0
XRECORD
  5
239
330
211
100
AcDbXrecord
280
1
1000
Portrait
  0
XRECORD
  5
23A
330
211
100
AcDbXrecord
280
1
 40
297.0
  0
XRECORD
  5
23B
330
211
100
AcDbXrecord
280
1
 40
210.0
  0
XRECORD
  5
23C
330
211
100
AcDbXrecord
280
1
1000
1:1
  0
XRECORD
  5
23D
330
211
100
AcDbXrecord
280
1
290
1
  0
XRECORD
  5
23E
330
211
100
AcDbXrecord
280
1
 90
4
  0
ENDSEC
  0
EOF
