999
dxflib 3.7.5.0
  0
SECTION
  2
HEADER
  9
$ACADVER
  1
AC1015
  9
$HANDSEED
  5
FFFF
  9
$ANGBASE
 50
0.0
  9
$ANGDIR
 70
0
  9
$ATTMODE
 70
1
  9
$AUNITS
 70
0
  9
$AUPREC
 70
0
  9
$CECOLOR
 62
18
  9
$CELTSCALE
 40
1.0
  9
$CHAMFERA
 40
0.0
  9
$CHAMFERB
 40
0.0
  9
$CHAMFERC
 40
0.0
  9
$CHAMFERD
 40
0.0
  9
$CMLJUST
 70
0
  9
$CMLSCALE
 40
1.0
  9
$DIMADEC
 70
0
  9
$DIMALT
 70
0
  9
$DIMALTD
 70
2
  9
$DIMALTF
 40
25.399999999999999
  9
$DIMALTRND
 40
0.0
  9
$DIMALTTD
 70
2
  9
$DIMALTTZ
 70
0
  9
$DIMALTU
 70
2
  9
$DIMALTZ
 70
0
  9
$DIMAPOST
  1

  9
$DIMASZ
 40
2.5
  9
$DIMATFIT
 70
3
  9
$DIMAUNIT
 70
0
  9
$DIMAZIN
 70
2
  9
$DIMBLK
  1

  9
$DIMBLK1
  1

  9
$DIMBLK2
  1

  9
$DIMCEN
 40
0.09
  9
$DIMCLRD
 70
18
  9
$DIMCLRE
 70
18
  9
$DIMCLRT
 70
18
  9
$DIMDEC
 70
4
  9
$DIMDLE
 40
0.0
  9
$DIMDLI
 40
0.38
  9
$DIMDSEP
 70
46
  9
$DIMEXE
 40
1.25
  9
$DIMEXO
 40
0.625
  9
$DIMFRAC
 70
0
  9
$DIMGAP
 40
0.625
  9
$DIMJUST
 70
0
  9
$DIMLDRBLK
  1

  9
$DIMLFAC
 40
1.0
  9
$DIMLIM
 70
0
  9
$DIMLUNIT
 70
2
  9
$DIMLWD
 70
-2
  9
$DIMLWE
 70
-2
  9
$DIMPOST
  1

  9
$DIMRND
 40
0.0
  9
$DIMSAH
 70
0
  9
$DIMSCALE
 40
1.0
  9
$DIMSD1
 70
0
  9
$DIMSD2
 70
0
  9
$DIMSE1
 70
0
  9
$DIMSE2
 70
0
  9
$DIMSOXD
 70
0
  9
$DIMTAD
 70
0
  9
$DIMTDEC
 70
4
  9
$DIMTFAC
 40
1.0
  9
$DIMTIH
 70
1
  9
$DIMTIX
 70
0
  9
$DIMTM
 40
0.0
  9
$DIMTOFL
 70
0
  9
$DIMTOH
 70
1
  9
$DIMTOL
 70
0
  9
$DIMTOLJ
 70
1
  9
$DIMTP
 40
0.0
  9
$DIMTSZ
 40
0.0
  9
$DIMTVP
 40
0.0
  9
$DIMTXSTY
  7
Standard
  9
$DIMTXT
 40
2.5
  9
$DIMTZIN
 70
0
  9
$DIMUPT
 70
0
  9
$DIMZIN
 70
8
  9
$DISPSILH
 70
0
  9
$DWGCODEPAGE
  3
ANSI_1252
  9
$ELEVATION
 40
0.0
  9
$EXTMAX
 10
-100000000000000000000.0
 20
-100000000000000000000.0
 30
-100000000000000000000.0
  9
$EXTMIN
 10
100000000000000000000.0
 20
100000000000000000000.0
 30
100000000000000000000.0
  9
$FILLETRAD
 40
0.5
  9
$FILLMODE
 70
1
  9
$INSBASE
 10
0.0
 20
0.0
 30
0.0
  9
$INSUNITS
 70
4
  9
$LIMCHECK
 70
0
  9
$LIMMAX
 10
12.0
 20
9.0
  9
$LIMMIN
 10
0.0
 20
0.0
  9
$LTSCALE
 40
1
  9
$LUNITS
 70
2
  9
$LUPREC
 70
4
  9
$MAXACTVP
 70
2
  9
$MIRRTEXT
 70
1
  9
$ORTHOMODE
 70
0
  9
$PDMODE
 70
0
  9
$PDSIZE
 40
0.0
  9
$PELEVATION
 40
0.0
  9
$PEXTMAX
 10
-100000000000000000000.0
 20
-100000000000000000000.0
 30
-100000000000000000000.0
  9
$PEXTMIN
 10
100000000000000000000.0
 20
100000000000000000000.0
 30
100000000000000000000.0
  9
$PINSBASE
 10
0.0
 20
0.0
 30
0.0
  9
$PLIMCHECK
 70
0
  9
$PLIMMAX
 10
12.0
 20
9.0
  9
$PLIMMIN
 10
0.0
 20
0.0
  9
$PLINEGEN
 70
0
  9
$PLINEWID
 40
0.0
  9
$PROXYGRAPHICS
 70
1
  9
$PSLTSCALE
 70
1
  9
$PUCSNAME
  2

  9
$PUCSORG
 10
0.0
 20
0.0
 30
0.0
  9
$PUCSXDIR
 10
1.0
 20
0.0
 30
0.0
  9
$PUCSYDIR
 10
0.0
 20
1.0
 30
0.0
  9
$QTEXTMODE
 70
0
  9
$REGENMODE
 70
1
  9
$SHADEDGE
 70
3
  9
$SHADEDIF
 70
70
  9
$SKETCHINC
 40
0.1
  9
$SKPOLY
 70
0
  9
$SPLFRAME
 70
0
  9
$SPLINESEGS
 70
8
  9
$SPLINETYPE
 70
6
  9
$SURFTAB1
 70
6
  9
$SURFTAB2
 70
6
  9
$SURFTYPE
 70
6
  9
$SURFU
 70
6
  9
$SURFV
 70
6
  9
$TEXTSIZE
 40
2.5
  9
$TEXTSTYLE
  7
Standard
  9
$THICKNESS
 40
0.0
  9
$TILEMODE
 70
1
  9
$TRACEWID
 40
0.05
  9
$TREEDEPTH
 70
3020
  9
$UCSNAME
  2

  9
$UCSORG
 10
0.0
 20
0.0
 30
0.0
  9
$UCSXDIR
 10
1.0
 20
0.0
 30
0.0
  9
$UCSYDIR
 10
0.0
 20
1.0
 30
0.0
  9
$UNITMODE
 70
0
  9
$USERI1
 70
0
  9
$USERI2
 70
0
  9
$USERI3
 70
0
  9
$USERI4
 70
0
  9
$USERI5
 70
0
  9
$USERR1
 40
0.0
  9
$USERR2
 40
0.0
  9
$USERR3
 40
0.0
  9
$USERR4
 40
0.0
  9
$USERR5
 40
0.0
  9
$USRTIMER
 70
1
  9
$VISRETAIN
 70
1
  0
ENDSEC
  0
SECTION
  2
TABLES
  0
TABLE
  2
VPORT
  5
8
100
AcDbSymbolTable
 70
1
  0
VPORT
  5
30
100
AcDbSymbolTableRecord
100
AcDbViewportTableRecord
  2
*Active
 70
0
 10
0.0
 20
0.0
 11
1.0
 21
1.0
 12
286.30555555555549
 22
148.5
 13
0.0
 23
0.0
 14
10.0
 24
10.0
 15
10.0
 25
10.0
 16
0.0
 26
0.0
 36
1.0
 17
0.0
 27
0.0
 37
0.0
 40
297.0
 41
1.92798353909465
 42
50.0
 43
0.0
 44
0.0
 50
0.0
 51
0.0
 71
0
 72
100
 73
1
 74
3
 75
1
 76
1
 77
0
 78
0
281
0
 65
1
110
0.0
120
0.0
130
0.0
111
1.0
121
0.0
131
0.0
112
0.0
122
1.0
132
0.0
 79
0
146
0.0
  0
ENDTAB
  0
TABLE
  2
LTYPE
  5
5
100
AcDbSymbolTable
 70
41
  0
LTYPE
  5
16
100
AcDbSymbolTableRecord
100
AcDbLinetypeTableRecord
  2
Continuous
 70
0
  3
Solid line
 72
65
 73
0
 40
0.0
  0
LTYPE
  5
31
100
AcDbSymbolTableRecord
100
AcDbLinetypeTableRecord
  2
ACAD_ISO15W100
 70
0
  3
ISO double-dash triple-dot __ __ . . . __ __ . .
 72
65
 73
10
 40
39.000000000000007
 49
12.0
 74
0
 49
-3.0
 74
0
 49
12.0
 74
0
 49
-2.9500000000000002
 74
0
 49
0.1
 74
0
 49
-2.8999999999999999
 74
0
 49
0.1
 74
0
 49
-2.8999999999999999
 74
0
 49
0.1
 74
0
 49
-2.9500000000000002
 74
0
  0
LTYPE
  5
32
100
AcDbSymbolTableRecord
100
AcDbLinetypeTableRecord
  2
DIVIDE
 70
0
  3
Divide ____ . . ____ . . ____ . . ____ . . ____
 72
65
 73
6
 40
31.750000000000004
 49
12.699999999999999
 74
0
 49
-6.2999999999999998
 74
0
 49
0.1
 74
0
 49
-6.25
 74
0
 49
0.1
 74
0
 49
-6.2999999999999998
 74
0
  0
LTYPE
  5
33
100
AcDbSymbolTableRecord
100
AcDbLinetypeTableRecord
  2
ACAD_ISO10W100
 70
0
  3
ISO dash dot __ . __ . __ . __ . __ . __ . __ . 
 72
65
 73
4
 40
18.0
 49
12.0
 74
0
 49
-2.9500000000000002
 74
0
 49
0.1
 74
0
 49
-2.9500000000000002
 74
0
  0
LTYPE
  5
34
100
AcDbSymbolTableRecord
100
AcDbLinetypeTableRecord
  2
ACAD_ISO04W100
 70
0
  3
ISO long-dash dot ____ . ____ . ____ . ____ . _
 72
65
 73
4
 40
30.0
 49
24.0
 74
0
 49
-2.9500000000000002
 74
0
 49
0.1
 74
0
 49
-2.9500000000000002
 74
0
  0
LTYPE
  5
14
100
AcDbSymbolTableRecord
100
AcDbLinetypeTableRecord
  2
ByBlock
 70
0
  3

 72
65
 73
0
 40
0.0
  0
LTYPE
  5
35
100
AcDbSymbolTableRecord
100
AcDbLinetypeTableRecord
  2
CENTER2
 70
0
  3
Center (.5x) ___ _ ___ _ ___ _ ___ _ ___ _ ___
 72
65
 73
4
 40
28.575000000000003
 49
19.050000000000001
 74
0
 49
-3.1749999999999998
 74
0
 49
3.1749999999999998
 74
0
 49
-3.1749999999999998
 74
0
  0
LTYPE
  5
36
100
AcDbSymbolTableRecord
100
AcDbLinetypeTableRecord
  2
ACAD_ISO11W100
 70
0
  3
ISO double-dash dot __ __ . __ __ . __ __ . __ _
 72
65
 73
6
 40
33.0
 49
12.0
 74
0
 49
-3.0
 74
0
 49
12.0
 74
0
 49
-2.9500000000000002
 74
0
 49
0.1
 74
0
 49
-2.9500000000000002
 74
0
  0
LTYPE
  5
37
100
AcDbSymbolTableRecord
100
AcDbLinetypeTableRecord
  2
HIDDEN2
 70
0
  3
Hidden (.5x) _ _ _ _ _ _ _ _ _ _ _ _ _ _ _ _ _ 
 72
65
 73
2
 40
4.7624999999999993
 49
3.1749999999999998
 74
0
 49
-1.5874999999999999
 74
0
  0
LTYPE
  5
38
100
AcDbSymbolTableRecord
100
AcDbLinetypeTableRecord
  2
BORDERX2
 70
0
  3
Border (2x) ____  ____  .  ____  ____  .  ___
 72
65
 73
6
 40
88.899999999999991
 49
25.399999999999999
 74
0
 49
-12.699999999999999
 74
0
 49
25.399999999999999
 74
0
 49
-12.65
 74
0
 49
0.1
 74
0
 49
-12.65
 74
0
  0
LTYPE
  5
39
100
AcDbSymbolTableRecord
100
AcDbLinetypeTableRecord
  2
ACAD_ISO05W100
 70
0
  3
ISO long-dash double-dot ____ .. ____ .. ____ . 
 72
65
 73
6
 40
33.0
 49
24.0
 74
0
 49
-2.9500000000000002
 74
0
 49
0.1
 74
0
 49
-2.8999999999999999
 74
0
 49
0.1
 74
0
 49
-2.9500000000000002
 74
0
  0
LTYPE
  5
3A
100
AcDbSymbolTableRecord
100
AcDbLinetypeTableRecord
  2
DASHDOTX2
 70
0
  3
Dash dot (2x) ____  .  ____  .  ____  .  ___
 72
65
 73
4
 40
50.799999999999997
 49
25.399999999999999
 74
0
 49
-12.65
 74
0
 49
0.1
 74
0
 49
-12.65
 74
0
  0
LTYPE
  5
3B
100
AcDbSymbolTableRecord
100
AcDbLinetypeTableRecord
  2
HIDDENX2
 70
0
  3
Hidden (2x) ____ ____ ____ ____ ____ ____ ____ 
 72
65
 73
2
 40
19.049999999999997
 49
12.699999999999999
 74
0
 49
-6.3499999999999996
 74
0
  0
LTYPE
  5
3C
100
AcDbSymbolTableRecord
100
AcDbLinetypeTableRecord
  2
CENTERX2
 70
0
  3
Center (2x) ________  __  ________  __  _____
 72
65
 73
4
 40
101.60000000000001
 49
63.5
 74
0
 49
-12.699999999999999
 74
0
 49
12.699999999999999
 74
0
 49
-12.699999999999999
 74
0
  0
LTYPE
  5
3D
100
AcDbSymbolTableRecord
100
AcDbLinetypeTableRecord
  2
BORDER2
 70
0
  3
Border (.5x) __.__.__.__.__.__.__.__.__.__.__.
 72
65
 73
6
 40
22.225000000000001
 49
6.3499999999999996
 74
0
 49
-3.1749999999999998
 74
0
 49
6.3499999999999996
 74
0
 49
-3.125
 74
0
 49
0.1
 74
0
 49
-3.125
 74
0
  0
LTYPE
  5
3E
100
AcDbSymbolTableRecord
100
AcDbLinetypeTableRecord
  2
DASHDOT2
 70
0
  3
Dash dot (.5x) _._._._._._._._._._._._._._._.
 72
65
 73
4
 40
12.699999999999999
 49
6.3499999999999996
 74
0
 49
-3.125
 74
0
 49
0.1
 74
0
 49
-3.125
 74
0
  0
LTYPE
  5
3F
100
AcDbSymbolTableRecord
100
AcDbLinetypeTableRecord
  2
ACAD_ISO12W100
 70
0
  3
ISO dash double-dot __ . . __ . . __ . . __ . . 
 72
65
 73
6
 40
21.0
 49
12.0
 74
0
 49
-2.9500000000000002
 74
0
 49
0.1
 74
0
 49
-2.8999999999999999
 74
0
 49
0.1
 74
0
 49
-2.9500000000000002
 74
0
  0
LTYPE
  5
40
100
AcDbSymbolTableRecord
100
AcDbLinetypeTableRecord
  2
ACAD_ISO07W100
 70
0
  3
ISO dot . . . . . . . . . . . . . . . . . . . . 
 72
65
 73
2
 40
3.0
 49
0.1
 74
0
 49
-2.8999999999999999
 74
0
  0
LTYPE
  5
41
100
AcDbSymbolTableRecord
100
AcDbLinetypeTableRecord
  2
HIDDEN
 70
0
  3
Hidden __ __ __ __ __ __ __ __ __ __ __ __ __ __
 72
65
 73
2
 40
9.5249999999999986
 49
6.3499999999999996
 74
0
 49
-3.1749999999999998
 74
0
  0
LTYPE
  5
42
100
AcDbSymbolTableRecord
100
AcDbLinetypeTableRecord
  2
ACAD_ISO06W100
 70
0
  3
ISO long-dash triple-dot ____ ... ____ ... ____
 72
65
 73
8
 40
36.000000000000007
 49
24.0
 74
0
 49
-2.9500000000000002
 74
0
 49
0.1
 74
0
 49
-2.8999999999999999
 74
0
 49
0.1
 74
0
 49
-2.8999999999999999
 74
0
 49
0.1
 74
0
 49
-2.9500000000000002
 74
0
  0
LTYPE
  5
43
100
AcDbSymbolTableRecord
100
AcDbLinetypeTableRecord
  2
CENTER
 70
0
  3
Center ____ _ ____ _ ____ _ ____ _ ____ _ ____
 72
65
 73
4
 40
50.800000000000004
 49
31.75
 74
0
 49
-6.3499999999999996
 74
0
 49
6.3499999999999996
 74
0
 49
-6.3499999999999996
 74
0
  0
LTYPE
  5
44
100
AcDbSymbolTableRecord
100
AcDbLinetypeTableRecord
  2
DOTX2
 70
0
  3
Dot (2x) .  .  .  .  .  .  .  .  .  .  .  .  .  .
 72
65
 73
2
 40
12.699999999999999
 49
0.1
 74
0
 49
-12.6
 74
0
  0
LTYPE
  5
45
100
AcDbSymbolTableRecord
100
AcDbLinetypeTableRecord
  2
PHANTOM
 70
0
  3
Phantom ______  __  __  ______  __  __  ______ 
 72
65
 73
6
 40
63.500000000000007
 49
31.75
 74
0
 49
-6.3499999999999996
 74
0
 49
6.3499999999999996
 74
0
 49
-6.3499999999999996
 74
0
 49
6.3499999999999996
 74
0
 49
-6.3499999999999996
 74
0
  0
LTYPE
  5
46
100
AcDbSymbolTableRecord
100
AcDbLinetypeTableRecord
  2
ACAD_ISO08W100
 70
0
  3
ISO long-dash short-dash ____ __ ____ __ ____ _
 72
65
 73
4
 40
36.0
 49
24.0
 74
0
 49
-3.0
 74
0
 49
6.0
 74
0
 49
-3.0
 74
0
  0
LTYPE
  5
47
100
AcDbSymbolTableRecord
100
AcDbLinetypeTableRecord
  2
DASHEDX2
 70
0
  3
Dashed (2x) ____  ____  ____  ____  ____  ___
 72
65
 73
2
 40
38.099999999999994
 49
25.399999999999999
 74
0
 49
-12.699999999999999
 74
0
  0
LTYPE
  5
48
100
AcDbSymbolTableRecord
100
AcDbLinetypeTableRecord
  2
ACAD_ISO02W100
 70
0
  3
ISO dash __ __ __ __ __ __ __ __ __ __ __ __ __
 72
65
 73
2
 40
15.0
 49
12.0
 74
0
 49
-3.0
 74
0
  0
LTYPE
  5
49
100
AcDbSymbolTableRecord
100
AcDbLinetypeTableRecord
  2
PHANTOM2
 70
0
  3
Phantom (.5x) ___ _ _ ___ _ _ ___ _ _ ___ _ _
 72
65
 73
6
 40
31.750000000000004
 49
15.875
 74
0
 49
-3.1749999999999998
 74
0
 49
3.1749999999999998
 74
0
 49
-3.1749999999999998
 74
0
 49
3.1749999999999998
 74
0
 49
-3.1749999999999998
 74
0
  0
LTYPE
  5
4A
100
AcDbSymbolTableRecord
100
AcDbLinetypeTableRecord
  2
DASHED2
 70
0
  3
Dashed (.5x) _ _ _ _ _ _ _ _ _ _ _ _ _ _ _ _ _ 
 72
65
 73
2
 40
9.5249999999999986
 49
6.3499999999999996
 74
0
 49
-3.1749999999999998
 74
0
  0
LTYPE
  5
4B
100
AcDbSymbolTableRecord
100
AcDbLinetypeTableRecord
  2
ACAD_ISO09W100
 70
0
  3
ISO long-dash double-short-dash ____ __ __ ____
 72
65
 73
6
 40
45.0
 49
24.0
 74
0
 49
-3.0
 74
0
 49
6.0
 74
0
 49
-3.0
 74
0
 49
6.0
 74
0
 49
-3.0
 74
0
  0
LTYPE
  5
4C
100
AcDbSymbolTableRecord
100
AcDbLinetypeTableRecord
  2
ACAD_ISO13W100
 70
0
  3
ISO double-dash double-dot __ __ . . __ __ . . _
 72
65
 73
8
 40
36.000000000000007
 49
12.0
 74
0
 49
-3.0
 74
0
 49
12.0
 74
0
 49
-2.9500000000000002
 74
0
 49
0.1
 74
0
 49
-2.8999999999999999
 74
0
 49
0.1
 74
0
 49
-2.9500000000000002
 74
0
  0
LTYPE
  5
4D
100
AcDbSymbolTableRecord
100
AcDbLinetypeTableRecord
  2
DOT2
 70
0
  3
Dot (.5x) ........................................
 72
65
 73
2
 40
3.1750000000000003
 49
0.1
 74
0
 49
-3.0750000000000002
 74
0
  0
LTYPE
  5
4E
100
AcDbSymbolTableRecord
100
AcDbLinetypeTableRecord
  2
DASHED
 70
0
  3
Dashed __ __ __ __ __ __ __ __ __ __ __ __ __ _
 72
65
 73
2
 40
19.049999999999997
 49
12.699999999999999
 74
0
 49
-6.3499999999999996
 74
0
  0
LTYPE
  5
4F
100
AcDbSymbolTableRecord
100
AcDbLinetypeTableRecord
  2
ACAD_ISO14W100
 70
0
  3
ISO dash triple-dot __ . . . __ . . . __ . . . _
 72
65
 73
8
 40
24.0
 49
12.0
 74
0
 49
-2.9500000000000002
 74
0
 49
0.1
 74
0
 49
-2.8999999999999999
 74
0
 49
0.1
 74
0
 49
-2.8999999999999999
 74
0
 49
0.1
 74
0
 49
-2.9500000000000002
 74
0
  0
LTYPE
  5
50
100
AcDbSymbolTableRecord
100
AcDbLinetypeTableRecord
  2
PHANTOMX2
 70
0
  3
Phantom (2x) ____________    ____    ____   _
 72
65
 73
6
 40
127.00000000000001
 49
63.5
 74
0
 49
-12.699999999999999
 74
0
 49
12.699999999999999
 74
0
 49
-12.699999999999999
 74
0
 49
12.699999999999999
 74
0
 49
-12.699999999999999
 74
0
  0
LTYPE
  5
51
100
AcDbSymbolTableRecord
100
AcDbLinetypeTableRecord
  2
DIVIDEX2
 70
0
  3
Divide (2x) ________  .  .  ________  .  .  _
 72
65
 73
6
 40
63.5
 49
25.399999999999999
 74
0
 49
-12.65
 74
0
 49
0.1
 74
0
 49
-12.6
 74
0
 49
0.1
 74
0
 49
-12.65
 74
0
  0
LTYPE
  5
52
100
AcDbSymbolTableRecord
100
AcDbLinetypeTableRecord
  2
BORDER
 70
0
  3
Border __ __ . __ __ . __ __ . __ __ . __ __ .
 72
65
 73
6
 40
44.449999999999996
 49
12.699999999999999
 74
0
 49
-6.3499999999999996
 74
0
 49
12.699999999999999
 74
0
 49
-6.2999999999999998
 74
0
 49
0.1
 74
0
 49
-6.2999999999999998
 74
0
  0
LTYPE
  5
53
100
AcDbSymbolTableRecord
100
AcDbLinetypeTableRecord
  2
DIVIDE2
 70
0
  3
Divide (.5x) __..__..__..__..__..__..__..__.._
 72
65
 73
6
 40
15.874999999999998
 49
6.3499999999999996
 74
0
 49
-3.125
 74
0
 49
0.1
 74
0
 49
-3.0750000000000002
 74
0
 49
0.1
 74
0
 49
-3.125
 74
0
  0
LTYPE
  5
54
100
AcDbSymbolTableRecord
100
AcDbLinetypeTableRecord
  2
DOT
 70
0
  3
Dot . . . . . . . . . . . . . . . . . . . . . . . .
 72
65
 73
2
 40
6.3499999999999996
 49
0.1
 74
0
 49
-6.25
 74
0
  0
LTYPE
  5
55
100
AcDbSymbolTableRecord
100
AcDbLinetypeTableRecord
  2
DASHDOT
 70
0
  3
Dash dot __ . __ . __ . __ . __ . __ . __ . __
 72
65
 73
4
 40
25.400000000000002
 49
12.699999999999999
 74
0
 49
-6.2999999999999998
 74
0
 49
0.1
 74
0
 49
-6.2999999999999998
 74
0
  0
LTYPE
  5
56
100
AcDbSymbolTableRecord
100
AcDbLinetypeTableRecord
  2
ACAD_ISO03W100
 70
0
  3
ISO dash space __    __    __    __    __    __
 72
65
 73
2
 40
30.0
 49
12.0
 74
0
 49
-18.0
 74
0
  0
LTYPE
  5
15
100
AcDbSymbolTableRecord
100
AcDbLinetypeTableRecord
  2
ByLayer
 70
0
  3

 72
65
 73
0
 40
0.0
  0
ENDTAB
  0
TABLE
  2
LAYER
  5
2
100
AcDbSymbolTable
 70
1
  0
LAYER
  5
10
100
AcDbSymbolTableRecord
100
AcDbLayerTableRecord
  2
0
 70
0
 62
7
420
16777215
  6
Continuous
370
25
390
F
  0
ENDTAB
  0
TABLE
  2
STYLE
  5
3
100
AcDbSymbolTable
 70
1
  0
STYLE
  5
57
100
AcDbSymbolTableRecord
100
AcDbTextStyleTableRecord
  2
Standard
 70
0
 40
0.0
 41
1.0
 50
0.0
 71
0
 42
2.5
  3

  4

1001
ACAD
1000
txt
1071
0
  0
ENDTAB
  0
TABLE
  2
VIEW
  5
6
100
AcDbSymbolTable
 70
0
  0
ENDTAB
  0
TABLE
  2
UCS
  5
7
100
AcDbSymbolTable
 70
0
  0
ENDTAB
  0
TABLE
  2
APPID
  5
9
100
AcDbSymbolTable
 70
1
  0
APPID
  5
12
100
AcDbSymbolTableRecord
100
AcDbRegAppTableRecord
  2
ACAD
 70
0
  0
APPID
  5
58
100
AcDbSymbolTableRecord
100
AcDbRegAppTableRecord
  2
QCAD
 70
0
  0
ENDTAB
  0
TABLE
  2
DIMSTYLE
  5
A
100
AcDbSymbolTable
 70
1
100
AcDbDimStyleTable
 71
0
  0
DIMSTYLE
105
27
100
AcDbSymbolTableRecord
100
AcDbDimStyleTableRecord
  2
Standard
 41
2.5
 42
0.625
 43
3.75
 44
1.25
 70
0
 73
0
 74
0
 77
1
 78
8
140
2.5
141
2.5
143
0.03937007874016
147
0.625
171
3
172
1
271
2
272
2
274
3
278
44
283
0
284
8
340
57
  0
ENDTAB
  0
TABLE
  2
BLOCK_RECORD
  5
1
100
AcDbSymbolTable
 70
1
  0
BLOCK_RECORD
  5
1F
100
AcDbSymbolTableRecord
100
AcDbBlockTableRecord
  2
*Model_Space
340
22
  0
BLOCK_RECORD
  5
1B
100
AcDbSymbolTableRecord
100
AcDbBlockTableRecord
  2
*Paper_Space
340
1E
  0
BLOCK_RECORD
  5
23
100
AcDbSymbolTableRecord
100
AcDbBlockTableRecord
  2
*Paper_Space0
340
26
  0
ENDTAB
  0
ENDSEC
  0
SECTION
  2
BLOCKS
  0
BLOCK
  5
20
100
AcDbEntity
  8
0
100
AcDbBlockBegin
  2
*Model_Space
 70
0
 10
0.0
 20
0.0
 30
0.0
  3
*Model_Space
  1

  0
ENDBLK
  5
21
100
AcDbEntity
  8
0
100
AcDbBlockEnd
  0
BLOCK
  5
1C
100
AcDbEntity
 67
1
  8
0
100
AcDbBlockBegin
  2
*Paper_Space
 70
0
 10
0.0
 20
0.0
 30
0.0
  3
*Paper_Space
  1

  0
ENDBLK
  5
1D
100
AcDbEntity
 67
1
  8
0
100
AcDbBlockEnd
  0
BLOCK
  5
24
100
AcDbEntity
  8
0
100
AcDbBlockBegin
  2
*Paper_Space0
 70
0
 10
0.0
 20
0.0
 30
0.0
  3
*Paper_Space0
  1

  0
ENDBLK
  5
25
100
AcDbEntity
  8
0
100
AcDbBlockEnd
  0
ENDSEC
  0
SECTION
  2
ENTITIES
  0
CIRCLE
  5
59
100
AcDbEntity
100
AcDbCircle
  8
0
 62
256
370
-1
 48
1.0
  6
ByLayer
 10
-102.49999999999977
 20
310.89999999999998
 30
0.0
 40
1.3
  0
CIRCLE
  5
5A
100
AcDbEntity
100
AcDbCircle
  8
0
 62
256
370
-1
 48
1.0
  6
ByLayer
 10
-111.99999999999977
 20
310.89999999999998
 30
0.0
 40
1.3
  0
CIRCLE
  5
5B
100
AcDbEntity
100
AcDbCircle
  8
0
 62
256
370
-1
 48
1.0
  6
ByLayer
 10
-47.259999999999778
 20
217.38
 30
0.0
 40
1.574999999999998
  0
CIRCLE
  5
5C
100
AcDbEntity
100
AcDbCircle
  8
0
 62
256
370
-1
 48
1.0
  6
ByLayer
 10
-129.80999999999977
 20
217.38
 30
0.0
 40
1.574999999999998
  0
CIRCLE
  5
5D
100
AcDbEntity
100
AcDbCircle
  8
0
 62
256
370
-1
 48
1.0
  6
ByLayer
 10
-61.999999999999787
 20
134.5
 30
0.0
 40
1.5749999999999991
  0
CIRCLE
  5
5E
100
AcDbEntity
100
AcDbCircle
  8
0
 62
256
370
-1
 48
1.0
  6
ByLayer
 10
-1.6666666666664582
 20
286.17999999999995
 30
0.0
 40
1.5750000000000011
  0
CIRCLE
  5
5F
100
AcDbEntity
100
AcDbCircle
  8
0
 62
256
370
-1
 48
1.0
  6
ByLayer
 10
-122.33333333333309
 20
286.17999999999995
 30
0.0
 40
1.5750000000000011
  0
CIRCLE
  5
60
100
AcDbEntity
100
AcDbCircle
  8
0
 62
256
370
-1
 48
1.0
  6
ByLayer
 10
-21.499999999999787
 20
310.89999999999998
 30
0.0
 40
1.3
  0
CIRCLE
  5
61
100
AcDbEntity
100
AcDbCircle
  8
0
 62
256
370
-1
 48
1.0
  6
ByLayer
 10
-11.999999999999787
 20
310.89999999999998
 30
0.0
 40
1.3
  0
CIRCLE
  5
62
100
AcDbEntity
100
AcDbCircle
  8
0
 62
256
370
-1
 48
1.0
  6
ByLayer
 10
-125.08333333333275
 20
-121.63999999999987
 30
0.0
 40
1.5750000000000159
  0
CIRCLE
  5
63
100
AcDbEntity
100
AcDbCircle
  8
0
 62
256
370
-1
 48
1.0
  6
ByLayer
 10
-125.08333333333306
 20
391.64000000000016
 30
0.0
 40
1.575
  0
CIRCLE
  5
64
100
AcDbEntity
100
AcDbCircle
  8
0
 62
256
370
-1
 48
1.0
  6
ByLayer
 10
-188.63999999999953
 20
375.25000000000006
 30
0.0
 40
1.575
  0
CIRCLE
  5
65
100
AcDbEntity
100
AcDbCircle
  8
0
 62
256
370
-1
 48
1.0
  6
ByLayer
 10
-188.63999999999965
 20
119.75000000000011
 30
0.0
 40
1.574999999999996
  0
CIRCLE
  5
66
100
AcDbEntity
100
AcDbCircle
  8
0
 62
256
370
-1
 48
1.0
  6
ByLayer
 10
48.250000000000341
 20
-121.63999999999987
 30
0.0
 40
1.574999999999998
  0
CIRCLE
  5
67
100
AcDbEntity
100
AcDbCircle
  8
0
 62
256
370
-1
 48
1.0
  6
ByLayer
 10
64.640000000000327
 20
119.75000000000011
 30
0.0
 40
1.574999999999996
  0
CIRCLE
  5
68
100
AcDbEntity
100
AcDbCircle
  8
0
 62
256
370
-1
 48
1.0
  6
ByLayer
 10
-172.24999999999966
 20
-121.63999999999987
 30
0.0
 40
1.574999999999998
  0
CIRCLE
  5
69
100
AcDbEntity
100
AcDbCircle
  8
0
 62
256
370
-1
 48
1.0
  6
ByLayer
 10
64.640000000000327
 20
375.25000000000006
 30
0.0
 40
1.575
  0
CIRCLE
  5
6A
100
AcDbEntity
100
AcDbCircle
  8
0
 62
256
370
-1
 48
1.0
  6
ByLayer
 10
1.0833333333338828
 20
391.64000000000016
 30
0.0
 40
1.575
  0
CIRCLE
  5
6B
100
AcDbEntity
100
AcDbCircle
  8
0
 62
256
370
-1
 48
1.0
  6
ByLayer
 10
1.0833333333335986
 20
-121.63999999999987
 30
0.0
 40
1.5750000000000159
  0
CIRCLE
  5
6C
100
AcDbEntity
100
AcDbCircle
  8
0
 62
256
370
-1
 48
1.0
  6
ByLayer
 10
41.500000000000341
 20
102.94000000000023
 30
0.0
 40
1.575
  0
CIRCLE
  5
6D
100
AcDbEntity
100
AcDbCircle
  8
0
 62
256
370
-1
 48
1.0
  6
ByLayer
 10
-165.49999999999966
 20
102.94000000000023
 30
0.0
 40
1.575
  0
CIRCLE
  5
6E
100
AcDbEntity
100
AcDbCircle
  8
0
 62
256
370
-1
 48
1.0
  6
ByLayer
 10
127.23396282464124
 20
-341.5999999999998
 30
0.0
 40
1.9999999999999989
  0
CIRCLE
  5
6F
100
AcDbEntity
100
AcDbCircle
  8
0
 62
256
370
-1
 48
1.0
  6
ByLayer
 10
127.23396282464128
 20
-239.71999999999986
 30
0.0
 40
1.9999999999999989
  0
CIRCLE
  5
70
100
AcDbEntity
100
AcDbCircle
  8
0
 62
256
370
-1
 48
1.0
  6
ByLayer
 10
21.673962824641336
 20
-316.89999999999986
 30
0.0
 40
1.6499999999999999
  0
CIRCLE
  5
71
100
AcDbEntity
100
AcDbCircle
  8
0
 62
256
370
-1
 48
1.0
  6
ByLayer
 10
-116.32603717535866
 20
-316.89999999999998
 30
0.0
 40
1.6499999999999999
  0
CIRCLE
  5
72
100
AcDbEntity
100
AcDbCircle
  8
0
 62
256
370
-1
 48
1.0
  6
ByLayer
 10
21.673962824641308
 20
-263.62000000000057
 30
0.0
 40
1.6499999999999999
  0
CIRCLE
  5
73
100
AcDbEntity
100
AcDbCircle
  8
0
 62
256
370
-1
 48
1.0
  6
ByLayer
 10
-116.32603717535866
 20
-263.62
 30
0.0
 40
1.6499999999999999
  0
CIRCLE
  5
74
100
AcDbEntity
100
AcDbCircle
  8
0
 62
256
370
-1
 48
1.0
  6
ByLayer
 10
-59.826037175358778
 20
-310.03999999999996
 30
0.0
 40
3.5
  0
CIRCLE
  5
75
100
AcDbEntity
100
AcDbCircle
  8
0
 62
256
370
-1
 48
1.0
  6
ByLayer
 10
-12.826037175358763
 20
-249.76000000000002
 30
0.0
 40
1.9999999999999989
  0
CIRCLE
  5
76
100
AcDbEntity
100
AcDbCircle
  8
0
 62
256
370
-1
 48
1.0
  6
ByLayer
 10
-12.826037175358778
 20
-330.76000000000005
 30
0.0
 40
1.9999999999999989
  0
CIRCLE
  5
77
100
AcDbEntity
100
AcDbCircle
  8
0
 62
256
370
-1
 48
1.0
  6
ByLayer
 10
-107.8407558011202
 20
-281.77471862576141
 30
0.0
 40
2.0
  0
CIRCLE
  5
78
100
AcDbEntity
100
AcDbCircle
  8
0
 62
256
370
-1
 48
1.0
  6
ByLayer
 10
-124.81131854959726
 20
-298.74528137423852
 30
0.0
 40
2.0
  0
CIRCLE
  5
79
100
AcDbEntity
100
AcDbCircle
  8
0
 62
256
370
-1
 48
1.0
  6
ByLayer
 10
-116.32603717535878
 20
-290.25999999999993
 30
0.0
 40
4.5
  0
CIRCLE
  5
7A
100
AcDbEntity
100
AcDbCircle
  8
0
 62
256
370
-1
 48
1.0
  6
ByLayer
 10
82.18868145040264
 20
-298.74528137423874
 30
0.0
 40
2.0
  0
CIRCLE
  5
7B
100
AcDbEntity
100
AcDbCircle
  8
0
 62
256
370
-1
 48
1.0
  6
ByLayer
 10
99.159244198879719
 20
-281.77471862576124
 30
0.0
 40
2.0
  0
CIRCLE
  5
7C
100
AcDbEntity
100
AcDbCircle
  8
0
 62
256
370
-1
 48
1.0
  6
ByLayer
 10
90.673962824641251
 20
-290.25999999999993
 30
0.0
 40
4.5
  0
CIRCLE
  5
7D
100
AcDbEntity
100
AcDbCircle
  8
0
 62
256
370
-1
 48
1.0
  6
ByLayer
 10
2.6739628246411939
 20
-274.7600000000001
 30
0.0
 40
1.6499999999999999
  0
CIRCLE
  5
7E
100
AcDbEntity
100
AcDbCircle
  8
0
 62
256
370
-1
 48
1.0
  6
ByLayer
 10
-28.326037175358763
 20
-305.75999999999999
 30
0.0
 40
1.6499999999999999
  0
CIRCLE
  5
7F
100
AcDbEntity
100
AcDbCircle
  8
0
 62
256
370
-1
 48
1.0
  6
ByLayer
 10
-47.326037175358735
 20
-263.62000000000006
 30
0.0
 40
1.6499999999999999
  0
CIRCLE
  5
80
100
AcDbEntity
100
AcDbCircle
  8
0
 62
256
370
-1
 48
1.0
  6
ByLayer
 10
90.673962824641251
 20
-263.62000000000023
 30
0.0
 40
1.6499999999999999
  0
CIRCLE
  5
81
100
AcDbEntity
100
AcDbCircle
  8
0
 62
256
370
-1
 48
1.0
  6
ByLayer
 10
-47.326037175358721
 20
-316.89999999999998
 30
0.0
 40
1.6499999999999999
  0
CIRCLE
  5
82
100
AcDbEntity
100
AcDbCircle
  8
0
 62
256
370
-1
 48
1.0
  6
ByLayer
 10
90.673962824641279
 20
-316.89999999999986
 30
0.0
 40
1.6499999999999999
  0
CIRCLE
  5
83
100
AcDbEntity
100
AcDbCircle
  8
0
 62
256
370
-1
 48
1.0
  6
ByLayer
 10
27.673962824641308
 20
-249.75999999999982
 30
0.0
 40
1.6499999999999999
  0
CIRCLE
  5
84
100
AcDbEntity
100
AcDbCircle
  8
0
 62
256
370
-1
 48
1.0
  6
ByLayer
 10
27.673962824641222
 20
-330.75999999999988
 30
0.0
 40
1.6499999999999999
  0
CIRCLE
  5
85
100
AcDbEntity
100
AcDbCircle
  8
0
 62
256
370
-1
 48
1.0
  6
ByLayer
 10
-53.326037175358806
 20
-330.75999999999993
 30
0.0
 40
1.6499999999999999
  0
CIRCLE
  5
86
100
AcDbEntity
100
AcDbCircle
  8
0
 62
256
370
-1
 48
1.0
  6
ByLayer
 10
-53.326037175358735
 20
-249.75999999999993
 30
0.0
 40
1.6499999999999999
  0
CIRCLE
  5
87
100
AcDbEntity
100
AcDbCircle
  8
0
 62
256
370
-1
 48
1.0
  6
ByLayer
 10
41.500000000000199
 20
-159.22000000000014
 30
0.0
 40
4.04
  0
CIRCLE
  5
88
100
AcDbEntity
100
AcDbCircle
  8
0
 62
256
370
-1
 48
1.0
  6
ByLayer
 10
-165.49999999999977
 20
-159.22000000000008
 30
0.0
 40
4.04
  0
CIRCLE
  5
89
100
AcDbEntity
100
AcDbCircle
  8
0
 62
256
370
-1
 48
1.0
  6
ByLayer
 10
-61.999999999999773
 20
-159.22000000000003
 30
0.0
 40
6.0
  0
CIRCLE
  5
8A
100
AcDbEntity
100
AcDbCircle
  8
0
 62
256
370
-1
 48
1.0
  6
ByLayer
 10
-52.03533849897525
 20
-153.46690000000007
 30
0.0
 40
2.0
  0
CIRCLE
  5
8B
100
AcDbEntity
100
AcDbCircle
  8
0
 62
256
370
-1
 48
1.0
  6
ByLayer
 10
-61.999999999999801
 20
-170.72620000000003
 30
0.0
 40
2.0
  0
CIRCLE
  5
8C
100
AcDbEntity
100
AcDbCircle
  8
0
 62
256
370
-1
 48
1.0
  6
ByLayer
 10
-71.964661501024295
 20
-153.46690000000007
 30
0.0
 40
2.0
  0
CIRCLE
  5
8D
100
AcDbEntity
100
AcDbCircle
  8
0
 62
256
370
-1
 48
1.0
  6
ByLayer
 10
-36.939999999999763
 20
92.200000000000003
 30
0.0
 40
1.9999999999999989
  0
CIRCLE
  5
8E
100
AcDbEntity
100
AcDbCircle
  8
0
 62
256
370
-1
 48
1.0
  6
ByLayer
 10
-89.499999999999801
 20
92.200000000000017
 30
0.0
 40
1.9999999999999989
  0
CIRCLE
  5
8F
100
AcDbEntity
100
AcDbCircle
  8
0
 62
256
370
-1
 48
1.0
  6
ByLayer
 10
-152.88603717535867
 20
-341.5999999999998
 30
0.0
 40
1.9999999999999989
  0
CIRCLE
  5
90
100
AcDbEntity
100
AcDbCircle
  8
0
 62
256
370
-1
 48
1.0
  6
ByLayer
 10
-152.88603717535869
 20
-239.71999999999986
 30
0.0
 40
1.9999999999999989
  0
CIRCLE
  5
91
100
AcDbEntity
100
AcDbCircle
  8
0
 62
256
370
-1
 48
1.0
  6
ByLayer
 10
-141.77999999999926
 20
93.879999999999939
 30
0.0
 40
1.5750000000000111
  0
CIRCLE
  5
92
100
AcDbEntity
100
AcDbCircle
  8
0
 62
256
370
-1
 48
1.0
  6
ByLayer
 10
-140.10999999999987
 20
-65.300000000000082
 30
0.0
 40
1.575
  0
CIRCLE
  5
93
100
AcDbEntity
100
AcDbCircle
  8
0
 62
256
370
-1
 48
1.0
  6
ByLayer
 10
-106.21999999999986
 20
-55.220000000000084
 30
0.0
 40
1.575
  0
CIRCLE
  5
94
100
AcDbEntity
100
AcDbCircle
  8
0
 62
256
370
-1
 48
1.0
  6
ByLayer
 10
102.22000000000065
 20
-121.64000000000013
 30
0.0
 40
1.5749999999999931
  0
CIRCLE
  5
95
100
AcDbEntity
100
AcDbCircle
  8
0
 62
256
370
-1
 48
1.0
  6
ByLayer
 10
102.22000000000125
 20
391.63999999999999
 30
0.0
 40
1.574999999999988
  0
CIRCLE
  5
96
100
AcDbEntity
100
AcDbCircle
  8
0
 62
256
370
-1
 48
1.0
  6
ByLayer
 10
17.779999999999639
 20
93.87999999999991
 30
0.0
 40
1.5750000000000111
  0
CIRCLE
  5
97
100
AcDbEntity
100
AcDbCircle
  8
0
 62
256
370
-1
 48
1.0
  6
ByLayer
 10
16.11000000000022
 20
-65.300000000000068
 30
0.0
 40
1.575
  0
CIRCLE
  5
98
100
AcDbEntity
100
AcDbCircle
  8
0
 62
256
370
-1
 48
1.0
  6
ByLayer
 10
-17.779999999999802
 20
-55.22000000000007
 30
0.0
 40
1.575
  0
ARC
  5
99
100
AcDbEntity
  8
0
 62
256
370
-1
 48
1.0
  6
ByLayer
100
AcDbCircle
 10
43.673962824641109
 20
-343.75999999999999
 30
0.0
 40
1.3499999999999943
100
AcDbArc
 50
0.0
 51
180.0
  0
LINE
  5
9A
100
AcDbEntity
100
AcDbLine
  8
0
 62
256
370
-1
 48
1.0
  6
ByLayer
 10
45.023962824641103
 20
-343.75999999999999
 30
0.0
 11
45.023962824641103
 21
-343.86000000000001
 31
0.0
  0
ARC
  5
9B
100
AcDbEntity
  8
0
 62
256
370
-1
 48
1.0
  6
ByLayer
100
AcDbCircle
 10
43.673962824641109
 20
-343.86000000000001
 30
0.0
 40
1.3499999999999943
100
AcDbArc
 50
180.0
 51
0.0
  0
LINE
  5
9C
100
AcDbEntity
100
AcDbLine
  8
0
 62
256
370
-1
 48
1.0
  6
ByLayer
 10
42.323962824641114
 20
-343.86000000000001
 30
0.0
 11
42.323962824641114
 21
-343.75999999999999
 31
0.0
  0
ARC
  5
9D
100
AcDbEntity
  8
0
 62
256
370
-1
 48
1.0
  6
ByLayer
100
AcDbCircle
 10
34.173962824641109
 20
-343.86000000000001
 30
0.0
 40
1.3499999999999943
100
AcDbArc
 50
180.0
 51
0.0
  0
LINE
  5
9E
100
AcDbEntity
100
AcDbLine
  8
0
 62
256
370
-1
 48
1.0
  6
ByLayer
 10
32.823962824641114
 20
-343.86000000000001
 30
0.0
 11
32.823962824641114
 21
-343.75999999999999
 31
0.0
  0
ARC
  5
9F
100
AcDbEntity
  8
0
 62
256
370
-1
 48
1.0
  6
ByLayer
100
AcDbCircle
 10
34.173962824641109
 20
-343.75999999999999
 30
0.0
 40
1.3499999999999943
100
AcDbArc
 50
0.0
 51
180.0
  0
LINE
  5
A0
100
AcDbEntity
100
AcDbLine
  8
0
 62
256
370
-1
 48
1.0
  6
ByLayer
 10
35.523962824641103
 20
-343.75999999999999
 30
0.0
 11
35.523962824641103
 21
-343.86000000000001
 31
0.0
  0
LINE
  5
A1
100
AcDbEntity
100
AcDbLine
  8
0
 62
256
370
-1
 48
1.0
  6
ByLayer
 10
-117.90103717535888
 20
-360.75999999999999
 30
0.0
 11
-117.90103717535888
 21
-355.98000000000002
 31
0.0
  0
LINE
  5
A2
100
AcDbEntity
100
AcDbLine
  8
0
 62
256
370
-1
 48
1.0
  6
ByLayer
 10
-117.90103717535888
 20
-355.98000000000002
 30
0.0
 11
-118.92603717535887
 21
-355.98000000000002
 31
0.0
  0
ARC
  5
A3
100
AcDbEntity
  8
0
 62
256
370
-1
 48
1.0
  6
ByLayer
100
AcDbCircle
 10
-119.17603717535889
 20
-355.98000000000002
 30
0.0
 40
0.2500000000000093
100
AcDbArc
 50
90.0
 51
0.0
  0
LINE
  5
A4
100
AcDbEntity
100
AcDbLine
  8
0
 62
256
370
-1
 48
1.0
  6
ByLayer
 10
-119.17603717535889
 20
-355.73000000000002
 30
0.0
 11
-119.17603717535889
 21
-353.73000000000002
 31
0.0
  0
ARC
  5
A5
100
AcDbEntity
  8
0
 62
256
370
-1
 48
1.0
  6
ByLayer
100
AcDbCircle
 10
-119.17603717535889
 20
-353.48000000000002
 30
0.0
 40
0.2500000000000071
100
AcDbArc
 50
0.0
 51
270.0
  0
LINE
  5
A6
100
AcDbEntity
100
AcDbLine
  8
0
 62
256
370
-1
 48
1.0
  6
ByLayer
 10
-118.92603717535887
 20
-353.48000000000002
 30
0.0
 11
-117.90103717535888
 21
-353.48000000000002
 31
0.0
  0
LINE
  5
A7
100
AcDbEntity
100
AcDbLine
  8
0
 62
256
370
-1
 48
1.0
  6
ByLayer
 10
-117.90103717535888
 20
-353.48000000000002
 30
0.0
 11
-117.90103717535888
 21
-352.48000000000002
 31
0.0
  0
LINE
  5
A8
100
AcDbEntity
100
AcDbLine
  8
0
 62
256
370
-1
 48
1.0
  6
ByLayer
 10
-117.90103717535888
 20
-352.48000000000002
 30
0.0
 11
-114.75103717535887
 21
-352.48000000000002
 31
0.0
  0
LINE
  5
A9
100
AcDbEntity
100
AcDbLine
  8
0
 62
256
370
-1
 48
1.0
  6
ByLayer
 10
-114.75103717535887
 20
-352.48000000000002
 30
0.0
 11
-114.75103717535887
 21
-353.48000000000002
 31
0.0
  0
LINE
  5
AA
100
AcDbEntity
100
AcDbLine
  8
0
 62
256
370
-1
 48
1.0
  6
ByLayer
 10
-114.75103717535887
 20
-353.48000000000002
 30
0.0
 11
-113.7260371753589
 21
-353.48000000000002
 31
0.0
  0
ARC
  5
AB
100
AcDbEntity
  8
0
 62
256
370
-1
 48
1.0
  6
ByLayer
100
AcDbCircle
 10
-113.4760371753589
 20
-353.48000000000002
 30
0.0
 40
0.25
100
AcDbArc
 50
270.0
 51
180.0
  0
LINE
  5
AC
100
AcDbEntity
100
AcDbLine
  8
0
 62
256
370
-1
 48
1.0
  6
ByLayer
 10
-113.4760371753589
 20
-353.73000000000002
 30
0.0
 11
-113.4760371753589
 21
-355.73000000000002
 31
0.0
  0
ARC
  5
AD
100
AcDbEntity
  8
0
 62
256
370
-1
 48
1.0
  6
ByLayer
100
AcDbCircle
 10
-113.4760371753589
 20
-355.98000000000002
 30
0.0
 40
0.25
100
AcDbArc
 50
180.0
 51
90.0
  0
LINE
  5
AE
100
AcDbEntity
100
AcDbLine
  8
0
 62
256
370
-1
 48
1.0
  6
ByLayer
 10
-113.7260371753589
 20
-355.98000000000002
 30
0.0
 11
-114.75103717535887
 21
-355.98000000000002
 31
0.0
  0
LINE
  5
AF
100
AcDbEntity
100
AcDbLine
  8
0
 62
256
370
-1
 48
1.0
  6
ByLayer
 10
-114.75103717535887
 20
-355.98000000000002
 30
0.0
 11
-114.75103717535887
 21
-360.75999999999999
 31
0.0
  0
LINE
  5
B0
100
AcDbEntity
100
AcDbLine
  8
0
 62
256
370
-1
 48
1.0
  6
ByLayer
 10
-114.75103717535887
 20
-360.75999999999999
 30
0.0
 11
-69.576037175358891
 21
-360.75999999999999
 31
0.0
  0
LINE
  5
B1
100
AcDbEntity
100
AcDbLine
  8
0
 62
256
370
-1
 48
1.0
  6
ByLayer
 10
-69.576037175358891
 20
-360.75999999999999
 30
0.0
 11
-69.576037175358891
 21
-367.48000000000002
 31
0.0
  0
LINE
  5
B2
100
AcDbEntity
100
AcDbLine
  8
0
 62
256
370
-1
 48
1.0
  6
ByLayer
 10
-69.576037175358891
 20
-367.48000000000002
 30
0.0
 11
-59.576037175358891
 21
-367.48000000000002
 31
0.0
  0
LINE
  5
B3
100
AcDbEntity
100
AcDbLine
  8
0
 62
256
370
-1
 48
1.0
  6
ByLayer
 10
-59.576037175358891
 20
-367.48000000000002
 30
0.0
 11
-59.576037175358891
 21
-360.75999999999999
 31
0.0
  0
LINE
  5
B4
100
AcDbEntity
100
AcDbLine
  8
0
 62
256
370
-1
 48
1.0
  6
ByLayer
 10
-59.576037175358891
 20
-360.75999999999999
 30
0.0
 11
-48.901037175358837
 21
-360.75999999999999
 31
0.0
  0
LINE
  5
B5
100
AcDbEntity
100
AcDbLine
  8
0
 62
256
370
-1
 48
1.0
  6
ByLayer
 10
-48.901037175358837
 20
-360.75999999999999
 30
0.0
 11
-48.901037175358837
 21
-355.98000000000002
 31
0.0
  0
LINE
  5
B6
100
AcDbEntity
100
AcDbLine
  8
0
 62
256
370
-1
 48
1.0
  6
ByLayer
 10
-48.901037175358837
 20
-355.98000000000002
 30
0.0
 11
-49.926037175358871
 21
-355.98000000000002
 31
0.0
  0
ARC
  5
B7
100
AcDbEntity
  8
0
 62
256
370
-1
 48
1.0
  6
ByLayer
100
AcDbCircle
 10
-50.176037175358871
 20
-355.98000000000002
 30
0.0
 40
0.2500000000000022
100
AcDbArc
 50
90.0
 51
0.0
  0
LINE
  5
B8
100
AcDbEntity
100
AcDbLine
  8
0
 62
256
370
-1
 48
1.0
  6
ByLayer
 10
-50.176037175358871
 20
-355.73000000000002
 30
0.0
 11
-50.176037175358871
 21
-353.73000000000002
 31
0.0
  0
ARC
  5
B9
100
AcDbEntity
  8
0
 62
256
370
-1
 48
1.0
  6
ByLayer
100
AcDbCircle
 10
-50.176037175358871
 20
-353.48000000000002
 30
0.0
 40
0.25
100
AcDbArc
 50
0.0
 51
270.0
  0
LINE
  5
BA
100
AcDbEntity
100
AcDbLine
  8
0
 62
256
370
-1
 48
1.0
  6
ByLayer
 10
-49.926037175358871
 20
-353.48000000000002
 30
0.0
 11
-48.901037175358837
 21
-353.48000000000002
 31
0.0
  0
LINE
  5
BB
100
AcDbEntity
100
AcDbLine
  8
0
 62
256
370
-1
 48
1.0
  6
ByLayer
 10
-48.901037175358837
 20
-353.48000000000002
 30
0.0
 11
-48.901037175358837
 21
-352.48000000000002
 31
0.0
  0
LINE
  5
BC
100
AcDbEntity
100
AcDbLine
  8
0
 62
256
370
-1
 48
1.0
  6
ByLayer
 10
-48.901037175358837
 20
-352.48000000000002
 30
0.0
 11
-45.751037175358874
 21
-352.48000000000002
 31
0.0
  0
LINE
  5
BD
100
AcDbEntity
100
AcDbLine
  8
0
 62
256
370
-1
 48
1.0
  6
ByLayer
 10
-45.751037175358874
 20
-352.48000000000002
 30
0.0
 11
-45.751037175358874
 21
-353.48000000000002
 31
0.0
  0
LINE
  5
BE
100
AcDbEntity
100
AcDbLine
  8
0
 62
256
370
-1
 48
1.0
  6
ByLayer
 10
-45.751037175358874
 20
-353.48000000000002
 30
0.0
 11
-44.726037175358869
 21
-353.48000000000002
 31
0.0
  0
ARC
  5
BF
100
AcDbEntity
  8
0
 62
256
370
-1
 48
1.0
  6
ByLayer
100
AcDbCircle
 10
-44.476037175358869
 20
-353.48000000000002
 30
0.0
 40
0.25
100
AcDbArc
 50
270.0
 51
180.0
  0
LINE
  5
C0
100
AcDbEntity
100
AcDbLine
  8
0
 62
256
370
-1
 48
1.0
  6
ByLayer
 10
-44.476037175358869
 20
-353.73000000000002
 30
0.0
 11
-44.476037175358869
 21
-355.73000000000002
 31
0.0
  0
ARC
  5
C1
100
AcDbEntity
  8
0
 62
256
370
-1
 48
1.0
  6
ByLayer
100
AcDbCircle
 10
-44.476037175358869
 20
-355.98000000000002
 30
0.0
 40
0.25
100
AcDbArc
 50
180.0
 51
90.0
  0
LINE
  5
C2
100
AcDbEntity
100
AcDbLine
  8
0
 62
256
370
-1
 48
1.0
  6
ByLayer
 10
-44.726037175358869
 20
-355.98000000000002
 30
0.0
 11
-45.751037175358874
 21
-355.98000000000002
 31
0.0
  0
LINE
  5
C3
100
AcDbEntity
100
AcDbLine
  8
0
 62
256
370
-1
 48
1.0
  6
ByLayer
 10
-45.751037175358874
 20
-355.98000000000002
 30
0.0
 11
-45.751037175358874
 21
-360.75999999999999
 31
0.0
  0
LINE
  5
C4
100
AcDbEntity
100
AcDbLine
  8
0
 62
256
370
-1
 48
1.0
  6
ByLayer
 10
-45.751037175358874
 20
-360.75999999999999
 30
0.0
 11
-17.826037175358891
 21
-360.75999999999999
 31
0.0
  0
LINE
  5
C5
100
AcDbEntity
100
AcDbLine
  8
0
 62
256
370
-1
 48
1.0
  6
ByLayer
 10
-17.826037175358891
 20
-360.75999999999999
 30
0.0
 11
-17.826037175358891
 21
-367.48000000000002
 31
0.0
  0
LINE
  5
C6
100
AcDbEntity
100
AcDbLine
  8
0
 62
256
370
-1
 48
1.0
  6
ByLayer
 10
-17.826037175358891
 20
-367.48000000000002
 30
0.0
 11
-7.8260371753588913
 21
-367.48000000000002
 31
0.0
  0
LINE
  5
C7
100
AcDbEntity
100
AcDbLine
  8
0
 62
256
370
-1
 48
1.0
  6
ByLayer
 10
-7.8260371753588913
 20
-367.48000000000002
 30
0.0
 11
-7.8260371753588913
 21
-360.75999999999999
 31
0.0
  0
LINE
  5
C8
100
AcDbEntity
100
AcDbLine
  8
0
 62
256
370
-1
 48
1.0
  6
ByLayer
 10
-7.8260371753588913
 20
-360.75999999999999
 30
0.0
 11
20.09896282464112
 21
-360.75999999999999
 31
0.0
  0
LINE
  5
C9
100
AcDbEntity
100
AcDbLine
  8
0
 62
256
370
-1
 48
1.0
  6
ByLayer
 10
20.09896282464112
 20
-360.75999999999999
 30
0.0
 11
20.09896282464112
 21
-355.98000000000002
 31
0.0
  0
LINE
  5
CA
100
AcDbEntity
100
AcDbLine
  8
0
 62
256
370
-1
 48
1.0
  6
ByLayer
 10
20.09896282464112
 20
-355.98000000000002
 30
0.0
 11
19.073962824641114
 21
-355.98000000000002
 31
0.0
  0
ARC
  5
CB
100
AcDbEntity
  8
0
 62
256
370
-1
 48
1.0
  6
ByLayer
100
AcDbCircle
 10
18.823962824641111
 20
-355.98000000000002
 30
0.0
 40
0.2500000000000022
100
AcDbArc
 50
89.99999999999919
 51
0.0
  0
LINE
  5
CC
100
AcDbEntity
100
AcDbLine
  8
0
 62
256
370
-1
 48
1.0
  6
ByLayer
 10
18.823962824641114
 20
-355.73000000000002
 30
0.0
 11
18.823962824641114
 21
-353.73000000000002
 31
0.0
  0
ARC
  5
CD
100
AcDbEntity
  8
0
 62
256
370
-1
 48
1.0
  6
ByLayer
100
AcDbCircle
 10
18.823962824641114
 20
-353.48000000000002
 30
0.0
 40
0.25
100
AcDbArc
 50
0.0
 51
270.0
  0
LINE
  5
CE
100
AcDbEntity
100
AcDbLine
  8
0
 62
256
370
-1
 48
1.0
  6
ByLayer
 10
19.073962824641114
 20
-353.48000000000002
 30
0.0
 11
20.09896282464112
 21
-353.48000000000002
 31
0.0
  0
LINE
  5
CF
100
AcDbEntity
100
AcDbLine
  8
0
 62
256
370
-1
 48
1.0
  6
ByLayer
 10
20.09896282464112
 20
-353.48000000000002
 30
0.0
 11
20.09896282464112
 21
-352.48000000000002
 31
0.0
  0
LINE
  5
D0
100
AcDbEntity
100
AcDbLine
  8
0
 62
256
370
-1
 48
1.0
  6
ByLayer
 10
20.09896282464112
 20
-352.48000000000002
 30
0.0
 11
23.248962824641097
 21
-352.48000000000002
 31
0.0
  0
LINE
  5
D1
100
AcDbEntity
100
AcDbLine
  8
0
 62
256
370
-1
 48
1.0
  6
ByLayer
 10
23.248962824641097
 20
-352.48000000000002
 30
0.0
 11
23.248962824641097
 21
-353.48000000000002
 31
0.0
  0
LINE
  5
D2
100
AcDbEntity
100
AcDbLine
  8
0
 62
256
370
-1
 48
1.0
  6
ByLayer
 10
23.248962824641097
 20
-353.48000000000002
 30
0.0
 11
24.273962824641103
 21
-353.48000000000002
 31
0.0
  0
ARC
  5
D3
100
AcDbEntity
  8
0
 62
256
370
-1
 48
1.0
  6
ByLayer
100
AcDbCircle
 10
24.523962824641103
 20
-353.48000000000002
 30
0.0
 40
0.25
100
AcDbArc
 50
270.0
 51
180.0
  0
LINE
  5
D4
100
AcDbEntity
100
AcDbLine
  8
0
 62
256
370
-1
 48
1.0
  6
ByLayer
 10
24.523962824641103
 20
-353.73000000000002
 30
0.0
 11
24.523962824641103
 21
-355.73000000000002
 31
0.0
  0
ARC
  5
D5
100
AcDbEntity
  8
0
 62
256
370
-1
 48
1.0
  6
ByLayer
100
AcDbCircle
 10
24.523962824641103
 20
-355.98000000000002
 30
0.0
 40
0.25
100
AcDbArc
 50
180.0
 51
90.0
  0
LINE
  5
D6
100
AcDbEntity
100
AcDbLine
  8
0
 62
256
370
-1
 48
1.0
  6
ByLayer
 10
24.273962824641103
 20
-355.98000000000002
 30
0.0
 11
23.248962824641097
 21
-355.98000000000002
 31
0.0
  0
LINE
  5
D7
100
AcDbEntity
100
AcDbLine
  8
0
 62
256
370
-1
 48
1.0
  6
ByLayer
 10
23.248962824641097
 20
-355.98000000000002
 30
0.0
 11
23.248962824641097
 21
-360.75999999999999
 31
0.0
  0
LINE
  5
D8
100
AcDbEntity
100
AcDbLine
  8
0
 62
256
370
-1
 48
1.0
  6
ByLayer
 10
23.248962824641097
 20
-360.75999999999999
 30
0.0
 11
33.923962824641109
 21
-360.75999999999999
 31
0.0
  0
LINE
  5
D9
100
AcDbEntity
100
AcDbLine
  8
0
 62
256
370
-1
 48
1.0
  6
ByLayer
 10
33.923962824641109
 20
-360.75999999999999
 30
0.0
 11
33.923962824641109
 21
-367.48000000000002
 31
0.0
  0
LINE
  5
DA
100
AcDbEntity
100
AcDbLine
  8
0
 62
256
370
-1
 48
1.0
  6
ByLayer
 10
33.923962824641109
 20
-367.48000000000002
 30
0.0
 11
43.923962824641109
 21
-367.48000000000002
 31
0.0
  0
LINE
  5
DB
100
AcDbEntity
100
AcDbLine
  8
0
 62
256
370
-1
 48
1.0
  6
ByLayer
 10
43.923962824641109
 20
-367.48000000000002
 30
0.0
 11
43.923962824641109
 21
-360.75999999999999
 31
0.0
  0
LINE
  5
DC
100
AcDbEntity
100
AcDbLine
  8
0
 62
256
370
-1
 48
1.0
  6
ByLayer
 10
43.923962824641109
 20
-360.75999999999999
 30
0.0
 11
89.09896282464112
 21
-360.75999999999999
 31
0.0
  0
LINE
  5
DD
100
AcDbEntity
100
AcDbLine
  8
0
 62
256
370
-1
 48
1.0
  6
ByLayer
 10
89.09896282464112
 20
-360.75999999999999
 30
0.0
 11
89.09896282464112
 21
-355.98000000000002
 31
0.0
  0
LINE
  5
DE
100
AcDbEntity
100
AcDbLine
  8
0
 62
256
370
-1
 48
1.0
  6
ByLayer
 10
89.09896282464112
 20
-355.98000000000002
 30
0.0
 11
88.0739628246412
 21
-355.98000000000002
 31
0.0
  0
ARC
  5
DF
100
AcDbEntity
  8
0
 62
256
370
-1
 48
1.0
  6
ByLayer
100
AcDbCircle
 10
87.823962824641157
 20
-355.98000000000008
 30
0.0
 40
0.2500000000000449
100
AcDbArc
 50
90.000000000009777
 51
0.0
  0
LINE
  5
E0
100
AcDbEntity
100
AcDbLine
  8
0
 62
256
370
-1
 48
1.0
  6
ByLayer
 10
87.823962824641114
 20
-355.73000000000002
 30
0.0
 11
87.823962824641114
 21
-353.73000000000002
 31
0.0
  0
ARC
  5
E1
100
AcDbEntity
  8
0
 62
256
370
-1
 48
1.0
  6
ByLayer
100
AcDbCircle
 10
87.823962824641114
 20
-353.48000000000002
 30
0.0
 40
0.25
100
AcDbArc
 50
0.0
 51
270.0
  0
LINE
  5
E2
100
AcDbEntity
100
AcDbLine
  8
0
 62
256
370
-1
 48
1.0
  6
ByLayer
 10
88.073962824641114
 20
-353.48000000000002
 30
0.0
 11
89.09896282464112
 21
-353.48000000000002
 31
0.0
  0
LINE
  5
E3
100
AcDbEntity
100
AcDbLine
  8
0
 62
256
370
-1
 48
1.0
  6
ByLayer
 10
89.09896282464112
 20
-353.48000000000002
 30
0.0
 11
89.09896282464112
 21
-352.48000000000002
 31
0.0
  0
LINE
  5
E4
100
AcDbEntity
100
AcDbLine
  8
0
 62
256
370
-1
 48
1.0
  6
ByLayer
 10
89.09896282464112
 20
-352.48000000000002
 30
0.0
 11
92.248962824641097
 21
-352.48000000000002
 31
0.0
  0
LINE
  5
E5
100
AcDbEntity
100
AcDbLine
  8
0
 62
256
370
-1
 48
1.0
  6
ByLayer
 10
92.248962824641097
 20
-352.48000000000002
 30
0.0
 11
92.248962824641097
 21
-353.48000000000002
 31
0.0
  0
LINE
  5
E6
100
AcDbEntity
100
AcDbLine
  8
0
 62
256
370
-1
 48
1.0
  6
ByLayer
 10
92.248962824641097
 20
-353.48000000000002
 30
0.0
 11
93.273962824641103
 21
-353.48000000000002
 31
0.0
  0
ARC
  5
E7
100
AcDbEntity
  8
0
 62
256
370
-1
 48
1.0
  6
ByLayer
100
AcDbCircle
 10
93.523962824641103
 20
-353.48000000000002
 30
0.0
 40
0.25
100
AcDbArc
 50
270.0
 51
180.0
  0
LINE
  5
E8
100
AcDbEntity
100
AcDbLine
  8
0
 62
256
370
-1
 48
1.0
  6
ByLayer
 10
93.523962824641103
 20
-353.73000000000002
 30
0.0
 11
93.523962824641103
 21
-355.73000000000002
 31
0.0
  0
ARC
  5
E9
100
AcDbEntity
  8
0
 62
256
370
-1
 48
1.0
  6
ByLayer
100
AcDbCircle
 10
93.52396282464116
 20
-355.97999999999996
 30
0.0
 40
0.2499999999999431
100
AcDbArc
 50
180.0
 51
90.000000000013031
  0
LINE
  5
EA
100
AcDbEntity
100
AcDbLine
  8
0
 62
256
370
-1
 48
1.0
  6
ByLayer
 10
93.273962824641217
 20
-355.98000000000002
 30
0.0
 11
92.248962824641097
 21
-355.98000000000002
 31
0.0
  0
LINE
  5
EB
100
AcDbEntity
100
AcDbLine
  8
0
 62
256
370
-1
 48
1.0
  6
ByLayer
 10
92.248962824641097
 20
-355.98000000000002
 30
0.0
 11
92.248962824641097
 21
-360.75999999999999
 31
0.0
  0
LINE
  5
EC
100
AcDbEntity
100
AcDbLine
  8
0
 62
256
370
-1
 48
1.0
  6
ByLayer
 10
92.248962824641097
 20
-360.75999999999999
 30
0.0
 11
109.45396282464111
 21
-360.75999999999999
 31
0.0
  0
LINE
  5
ED
100
AcDbEntity
100
AcDbLine
  8
0
 62
256
370
-1
 48
1.0
  6
ByLayer
 10
109.45396282464111
 20
-335.75999999999999
 30
0.0
 11
-135.10603717535889
 21
-335.75999999999999
 31
0.0
  0
LINE
  5
EE
100
AcDbEntity
100
AcDbLine
  8
0
 62
256
370
-1
 48
1.0
  6
ByLayer
 10
-135.10603717535889
 20
-360.75999999999999
 30
0.0
 11
-117.90103717535888
 21
-360.75999999999999
 31
0.0
  0
LINE
  5
EF
100
AcDbEntity
100
AcDbLine
  8
0
 62
256
370
-1
 48
1.0
  6
ByLayer
 10
-185.27999999999977
 20
-157.64499999999998
 30
0.0
 11
-180.49999999999977
 21
-157.64499999999998
 31
0.0
  0
LINE
  5
F0
100
AcDbEntity
100
AcDbLine
  8
0
 62
256
370
-1
 48
1.0
  6
ByLayer
 10
-180.49999999999977
 20
-157.64499999999998
 30
0.0
 11
-180.49999999999977
 21
-156.61999999999998
 31
0.0
  0
ARC
  5
F1
100
AcDbEntity
  8
0
 62
256
370
-1
 48
1.0
  6
ByLayer
100
AcDbCircle
 10
-180.49999999999977
 20
-156.36999999999998
 30
0.0
 40
0.25
100
AcDbArc
 50
0.0
 51
270.0
  0
LINE
  5
F2
100
AcDbEntity
100
AcDbLine
  8
0
 62
256
370
-1
 48
1.0
  6
ByLayer
 10
-180.24999999999977
 20
-156.36999999999998
 30
0.0
 11
-178.24999999999977
 21
-156.36999999999998
 31
0.0
  0
ARC
  5
F3
100
AcDbEntity
  8
0
 62
256
370
-1
 48
1.0
  6
ByLayer
100
AcDbCircle
 10
-177.99999999999977
 20
-156.36999999999998
 30
0.0
 40
0.25
100
AcDbArc
 50
270.0
 51
180.0
  0
LINE
  5
F4
100
AcDbEntity
100
AcDbLine
  8
0
 62
256
370
-1
 48
1.0
  6
ByLayer
 10
-177.99999999999977
 20
-156.61999999999998
 30
0.0
 11
-177.99999999999977
 21
-157.64499999999998
 31
0.0
  0
LINE
  5
F5
100
AcDbEntity
100
AcDbLine
  8
0
 62
256
370
-1
 48
1.0
  6
ByLayer
 10
-177.99999999999977
 20
-157.64499999999998
 30
0.0
 11
-176.99999999999977
 21
-157.64499999999998
 31
0.0
  0
LINE
  5
F6
100
AcDbEntity
100
AcDbLine
  8
0
 62
256
370
-1
 48
1.0
  6
ByLayer
 10
-176.99999999999977
 20
-157.64499999999998
 30
0.0
 11
-176.99999999999977
 21
-160.79499999999996
 31
0.0
  0
LINE
  5
F7
100
AcDbEntity
100
AcDbLine
  8
0
 62
256
370
-1
 48
1.0
  6
ByLayer
 10
-176.99999999999977
 20
-160.79499999999996
 30
0.0
 11
-177.9999999999998
 21
-160.79499999999996
 31
0.0
  0
LINE
  5
F8
100
AcDbEntity
100
AcDbLine
  8
0
 62
256
370
-1
 48
1.0
  6
ByLayer
 10
-177.9999999999998
 20
-160.79499999999996
 30
0.0
 11
-177.9999999999998
 21
-161.81999999999996
 31
0.0
  0
ARC
  5
F9
100
AcDbEntity
  8
0
 62
256
370
-1
 48
1.0
  6
ByLayer
100
AcDbCircle
 10
-177.99999999999977
 20
-162.06999999999994
 30
0.0
 40
0.2499999999999858
100
AcDbArc
 50
180.0
 51
90.000000000006509
  0
LINE
  5
FA
100
AcDbEntity
100
AcDbLine
  8
0
 62
256
370
-1
 48
1.0
  6
ByLayer
 10
-178.24999999999977
 20
-162.06999999999996
 30
0.0
 11
-180.24999999999977
 21
-162.06999999999996
 31
0.0
  0
ARC
  5
FB
100
AcDbEntity
  8
0
 62
256
370
-1
 48
1.0
  6
ByLayer
100
AcDbCircle
 10
-180.49999999999977
 20
-162.06999999999996
 30
0.0
 40
0.25
100
AcDbArc
 50
90.0
 51
0.0
  0
LINE
  5
FC
100
AcDbEntity
100
AcDbLine
  8
0
 62
256
370
-1
 48
1.0
  6
ByLayer
 10
-180.49999999999977
 20
-161.81999999999996
 30
0.0
 11
-180.49999999999977
 21
-160.79499999999996
 31
0.0
  0
LINE
  5
FD
100
AcDbEntity
100
AcDbLine
  8
0
 62
256
370
-1
 48
1.0
  6
ByLayer
 10
-180.49999999999977
 20
-160.79499999999996
 30
0.0
 11
-185.2799999999998
 21
-160.79499999999996
 31
0.0
  0
LINE
  5
FE
100
AcDbEntity
100
AcDbLine
  8
0
 62
256
370
-1
 48
1.0
  6
ByLayer
 10
-185.2799999999998
 20
-160.79499999999996
 30
0.0
 11
-185.27999999999977
 21
-170.62666666666672
 31
0.0
  0
LINE
  5
FF
100
AcDbEntity
100
AcDbLine
  8
0
 62
256
370
-1
 48
1.0
  6
ByLayer
 10
-185.27999999999977
 20
-170.62666666666672
 30
0.0
 11
-191.99999999999977
 21
-170.62666666666672
 31
0.0
  0
LINE
  5
100
100
AcDbEntity
100
AcDbLine
  8
0
 62
256
370
-1
 48
1.0
  6
ByLayer
 10
-191.99999999999977
 20
-170.62666666666672
 30
0.0
 11
-191.99999999999977
 21
-193.44
 31
0.0
  0
LINE
  5
101
100
AcDbEntity
100
AcDbLine
  8
0
 62
256
370
-1
 48
1.0
  6
ByLayer
 10
-191.99999999999977
 20
-193.44
 30
0.0
 11
-126.65833333333308
 21
-193.43999999999994
 31
0.0
  0
LINE
  5
102
100
AcDbEntity
100
AcDbLine
  8
0
 62
256
370
-1
 48
1.0
  6
ByLayer
 10
-126.65833333333308
 20
-193.43999999999994
 30
0.0
 11
-126.6583333333331
 21
-188.65999999999997
 31
0.0
  0
LINE
  5
103
100
AcDbEntity
100
AcDbLine
  8
0
 62
256
370
-1
 48
1.0
  6
ByLayer
 10
-126.6583333333331
 20
-188.65999999999997
 30
0.0
 11
-127.6833333333331
 21
-188.66
 31
0.0
  0
ARC
  5
104
100
AcDbEntity
  8
0
 62
256
370
-1
 48
1.0
  6
ByLayer
100
AcDbCircle
 10
-127.9333333333331
 20
-188.66
 30
0.0
 40
0.25
100
AcDbArc
 50
90.0
 51
0.0
  0
LINE
  5
105
100
AcDbEntity
100
AcDbLine
  8
0
 62
256
370
-1
 48
1.0
  6
ByLayer
 10
-127.9333333333331
 20
-188.41
 30
0.0
 11
-127.93333333333311
 21
-186.41
 31
0.0
  0
ARC
  5
106
100
AcDbEntity
  8
0
 62
256
370
-1
 48
1.0
  6
ByLayer
100
AcDbCircle
 10
-127.93333333333312
 20
-186.16000000000005
 30
0.0
 40
0.2499999999999645
100
AcDbArc
 50
0.0
 51
270.00000000000324
  0
LINE
  5
107
100
AcDbEntity
100
AcDbLine
  8
0
 62
256
370
-1
 48
1.0
  6
ByLayer
 10
-127.68333333333315
 20
-186.16000000000003
 30
0.0
 11
-126.65833333333312
 21
-186.16
 31
0.0
  0
LINE
  5
108
100
AcDbEntity
100
AcDbLine
  8
0
 62
256
370
-1
 48
1.0
  6
ByLayer
 10
-126.65833333333312
 20
-186.16
 30
0.0
 11
-126.6583333333331
 21
-185.15999999999997
 31
0.0
  0
LINE
  5
109
100
AcDbEntity
100
AcDbLine
  8
0
 62
256
370
-1
 48
1.0
  6
ByLayer
 10
-126.6583333333331
 20
-185.15999999999997
 30
0.0
 11
-123.5083333333331
 21
-185.16
 31
0.0
  0
LINE
  5
10A
100
AcDbEntity
100
AcDbLine
  8
0
 62
256
370
-1
 48
1.0
  6
ByLayer
 10
-123.5083333333331
 20
-185.16
 30
0.0
 11
-123.50833333333307
 21
-186.15999999999997
 31
0.0
  0
LINE
  5
10B
100
AcDbEntity
100
AcDbLine
  8
0
 62
256
370
-1
 48
1.0
  6
ByLayer
 10
-123.50833333333307
 20
-186.15999999999997
 30
0.0
 11
-122.48333333333309
 21
-186.15999999999997
 31
0.0
  0
ARC
  5
10C
100
AcDbEntity
  8
0
 62
256
370
-1
 48
1.0
  6
ByLayer
100
AcDbCircle
 10
-122.23333333333308
 20
-186.15999999999997
 30
0.0
 40
0.2500000000000071
100
AcDbArc
 50
269.99999999999346
 51
180.0
  0
LINE
  5
10D
100
AcDbEntity
100
AcDbLine
  8
0
 62
256
370
-1
 48
1.0
  6
ByLayer
 10
-122.23333333333311
 20
-186.41
 30
0.0
 11
-122.23333333333306
 21
-188.40999999999997
 31
0.0
  0
ARC
  5
10E
100
AcDbEntity
  8
0
 62
256
370
-1
 48
1.0
  6
ByLayer
100
AcDbCircle
 10
-122.23333333333308
 20
-188.66
 30
0.0
 40
0.2500000000000426
100
AcDbArc
 50
180.0
 51
89.999999999996746
  0
LINE
  5
10F
100
AcDbEntity
100
AcDbLine
  8
0
 62
256
370
-1
 48
1.0
  6
ByLayer
 10
-122.48333333333312
 20
-188.66
 30
0.0
 11
-123.50833333333307
 21
-188.65999999999997
 31
0.0
  0
LINE
  5
110
100
AcDbEntity
100
AcDbLine
  8
0
 62
256
370
-1
 48
1.0
  6
ByLayer
 10
-123.50833333333307
 20
-188.65999999999997
 30
0.0
 11
-123.50833333333307
 21
-193.43999999999994
 31
0.0
  0
LINE
  5
111
100
AcDbEntity
100
AcDbLine
  8
0
 62
256
370
-1
 48
1.0
  6
ByLayer
 10
-123.50833333333307
 20
-193.43999999999994
 30
0.0
 11
-105.33333333333316
 21
-193.44000000000005
 31
0.0
  0
LINE
  5
112
100
AcDbEntity
100
AcDbLine
  8
0
 62
256
370
-1
 48
1.0
  6
ByLayer
 10
-105.33333333333316
 20
-193.44000000000005
 30
0.0
 11
-105.33333333333307
 21
-200.15999999999997
 31
0.0
  0
LINE
  5
113
100
AcDbEntity
100
AcDbLine
  8
0
 62
256
370
-1
 48
1.0
  6
ByLayer
 10
-105.33333333333307
 20
-200.15999999999997
 30
0.0
 11
-18.666666666666458
 21
-200.16
 31
0.0
  0
LINE
  5
114
100
AcDbEntity
100
AcDbLine
  8
0
 62
256
370
-1
 48
1.0
  6
ByLayer
 10
-18.666666666666458
 20
-200.16
 30
0.0
 11
-18.666666666666487
 21
-193.43999999999997
 31
0.0
  0
LINE
  5
115
100
AcDbEntity
100
AcDbLine
  8
0
 62
256
370
-1
 48
1.0
  6
ByLayer
 10
-18.666666666666487
 20
-193.43999999999997
 30
0.0
 11
-0.4916666666665037
 21
-193.44000000000011
 31
0.0
  0
LINE
  5
116
100
AcDbEntity
100
AcDbLine
  8
0
 62
256
370
-1
 48
1.0
  6
ByLayer
 10
-0.4916666666665037
 20
-193.44000000000011
 30
0.0
 11
-0.4916666666664185
 21
-188.65999999999997
 31
0.0
  0
LINE
  5
117
100
AcDbEntity
100
AcDbLine
  8
0
 62
256
370
-1
 48
1.0
  6
ByLayer
 10
-0.4916666666664185
 20
-188.65999999999997
 30
0.0
 11
-1.516666666666481
 21
-188.66000000000003
 31
0.0
  0
ARC
  5
118
100
AcDbEntity
  8
0
 62
256
370
-1
 48
1.0
  6
ByLayer
100
AcDbCircle
 10
-1.7666666666664668
 20
-188.66000000000005
 30
0.0
 40
0.2499999999999858
100
AcDbArc
 50
90.000000000009777
 51
0.0
  0
LINE
  5
119
100
AcDbEntity
100
AcDbLine
  8
0
 62
256
370
-1
 48
1.0
  6
ByLayer
 10
-1.7666666666665094
 20
-188.41000000000008
 30
0.0
 11
-1.7666666666664241
 21
-186.41000000000003
 31
0.0
  0
ARC
  5
11A
100
AcDbEntity
  8
0
 62
256
370
-1
 48
1.0
  6
ByLayer
100
AcDbCircle
 10
-1.7666666666664383
 20
-186.16000000000005
 30
0.0
 40
0.2499999999999858
100
AcDbArc
 50
0.0
 51
270.00000000000324
  0
LINE
  5
11B
100
AcDbEntity
100
AcDbLine
  8
0
 62
256
370
-1
 48
1.0
  6
ByLayer
 10
-1.5166666666664526
 20
-186.16000000000003
 30
0.0
 11
-0.4916666666664753
 21
-186.16000000000003
 31
0.0
  0
LINE
  5
11C
100
AcDbEntity
100
AcDbLine
  8
0
 62
256
370
-1
 48
1.0
  6
ByLayer
 10
-0.4916666666664753
 20
-186.16000000000003
 30
0.0
 11
-0.4916666666665037
 21
-185.16000000000011
 31
0.0
  0
LINE
  5
11D
100
AcDbEntity
100
AcDbLine
  8
0
 62
256
370
-1
 48
1.0
  6
ByLayer
 10
-0.4916666666665037
 20
-185.16000000000011
 30
0.0
 11
2.6583333333335872
 21
-185.15999999999991
 31
0.0
  0
LINE
  5
11E
100
AcDbEntity
100
AcDbLine
  8
0
 62
256
370
-1
 48
1.0
  6
ByLayer
 10
2.6583333333335872
 20
-185.15999999999991
 30
0.0
 11
2.6583333333335304
 21
-186.16000000000003
 31
0.0
  0
LINE
  5
11F
100
AcDbEntity
100
AcDbLine
  8
0
 62
256
370
-1
 48
1.0
  6
ByLayer
 10
2.6583333333335304
 20
-186.16000000000003
 30
0.0
 11
3.6833333333335645
 21
-186.15999999999997
 31
0.0
  0
ARC
  5
120
100
AcDbEntity
  8
0
 62
256
370
-1
 48
1.0
  6
ByLayer
100
AcDbCircle
 10
3.9333333333335645
 20
-186.15999999999997
 30
0.0
 40
0.25
100
AcDbArc
 50
270.00000000000654
 51
180.0
  0
LINE
  5
121
100
AcDbEntity
100
AcDbLine
  8
0
 62
256
370
-1
 48
1.0
  6
ByLayer
 10
3.9333333333335929
 20
-186.40999999999994
 30
0.0
 11
3.9333333333335645
 21
-188.41
 31
0.0
  0
ARC
  5
122
100
AcDbEntity
  8
0
 62
256
370
-1
 48
1.0
  6
ByLayer
100
AcDbCircle
 10
3.9333333333335077
 20
-188.66
 30
0.0
 40
0.25
100
AcDbArc
 50
180.0
 51
89.999999999986969
  0
LINE
  5
123
100
AcDbEntity
100
AcDbLine
  8
0
 62
256
370
-1
 48
1.0
  6
ByLayer
 10
3.6833333333335077
 20
-188.65999999999994
 30
0.0
 11
2.658333333333502
 21
-188.66000000000011
 31
0.0
  0
LINE
  5
124
100
AcDbEntity
100
AcDbLine
  8
0
 62
256
370
-1
 48
1.0
  6
ByLayer
 10
2.658333333333502
 20
-188.66000000000011
 30
0.0
 11
2.6583333333335588
 21
-193.43999999999986
 31
0.0
  0
LINE
  5
125
100
AcDbEntity
100
AcDbLine
  8
0
 62
256
370
-1
 48
1.0
  6
ByLayer
 10
2.6583333333335588
 20
-193.43999999999986
 30
0.0
 11
68.000000000000227
 21
-193.44000000000005
 31
0.0
  0
LINE
  5
126
100
AcDbEntity
100
AcDbLine
  8
0
 62
256
370
-1
 48
1.0
  6
ByLayer
 10
68.000000000000227
 20
-193.44000000000005
 30
0.0
 11
68.000000000000171
 21
-170.62666666666695
 31
0.0
  0
LINE
  5
127
100
AcDbEntity
100
AcDbLine
  8
0
 62
256
370
-1
 48
1.0
  6
ByLayer
 10
68.000000000000171
 20
-170.62666666666695
 30
0.0
 11
61.2800000000002
 21
-170.62666666666667
 31
0.0
  0
LINE
  5
128
100
AcDbEntity
100
AcDbLine
  8
0
 62
256
370
-1
 48
1.0
  6
ByLayer
 10
61.2800000000002
 20
-170.62666666666667
 30
0.0
 11
61.280000000000229
 21
-160.79500000000002
 31
0.0
  0
LINE
  5
129
100
AcDbEntity
100
AcDbLine
  8
0
 62
256
370
-1
 48
1.0
  6
ByLayer
 10
61.280000000000229
 20
-160.79500000000002
 30
0.0
 11
56.500000000000227
 21
-160.79500000000002
 31
0.0
  0
LINE
  5
12A
100
AcDbEntity
100
AcDbLine
  8
0
 62
256
370
-1
 48
1.0
  6
ByLayer
 10
56.500000000000227
 20
-160.79500000000002
 30
0.0
 11
56.500000000000227
 21
-161.82000000000011
 31
0.0
  0
ARC
  5
12B
100
AcDbEntity
  8
0
 62
256
370
-1
 48
1.0
  6
ByLayer
100
AcDbCircle
 10
56.500000000000199
 20
-162.07000000000002
 30
0.0
 40
0.2499999999999431
100
AcDbArc
 50
180.0
 51
89.999999999993491
  0
LINE
  5
12C
100
AcDbEntity
100
AcDbLine
  8
0
 62
256
370
-1
 48
1.0
  6
ByLayer
 10
56.250000000000256
 20
-162.07000000000002
 30
0.0
 11
54.250000000000199
 21
-162.07000000000019
 31
0.0
  0
ARC
  5
12D
100
AcDbEntity
  8
0
 62
256
370
-1
 48
1.0
  6
ByLayer
100
AcDbCircle
 10
54.000000000000114
 20
-162.07000000000011
 30
0.0
 40
0.2500000000000853
100
AcDbArc
 50
89.999999999973937
 51
360.0
  0
LINE
  5
12E
100
AcDbEntity
100
AcDbLine
  8
0
 62
256
370
-1
 48
1.0
  6
ByLayer
 10
54.000000000000227
 20
-161.81999999999999
 30
0.0
 11
54.000000000000227
 21
-160.79499999999999
 31
0.0
  0
LINE
  5
12F
100
AcDbEntity
100
AcDbLine
  8
0
 62
256
370
-1
 48
1.0
  6
ByLayer
 10
54.000000000000227
 20
-160.79499999999999
 30
0.0
 11
53.000000000000227
 21
-160.7949999999999
 31
0.0
  0
LINE
  5
130
100
AcDbEntity
100
AcDbLine
  8
0
 62
256
370
-1
 48
1.0
  6
ByLayer
 10
53.000000000000227
 20
-160.7949999999999
 30
0.0
 11
53.000000000000227
 21
-157.64499999999992
 31
0.0
  0
LINE
  5
131
100
AcDbEntity
100
AcDbLine
  8
0
 62
256
370
-1
 48
1.0
  6
ByLayer
 10
53.000000000000227
 20
-157.64499999999992
 30
0.0
 11
54.000000000000227
 21
-157.64499999999992
 31
0.0
  0
LINE
  5
132
100
AcDbEntity
100
AcDbLine
  8
0
 62
256
370
-1
 48
1.0
  6
ByLayer
 10
54.000000000000227
 20
-157.64499999999992
 30
0.0
 11
54.000000000000227
 21
-156.62000000000006
 31
0.0
  0
ARC
  5
133
100
AcDbEntity
  8
0
 62
256
370
-1
 48
1.0
  6
ByLayer
100
AcDbCircle
 10
54.000000000000227
 20
-156.37000000000006
 30
0.0
 40
0.25
100
AcDbArc
 50
0.0
 51
270.0
  0
LINE
  5
134
100
AcDbEntity
100
AcDbLine
  8
0
 62
256
370
-1
 48
1.0
  6
ByLayer
 10
54.250000000000227
 20
-156.37000000000006
 30
0.0
 11
56.250000000000227
 21
-156.37000000000018
 31
0.0
  0
ARC
  5
135
100
AcDbEntity
  8
0
 62
256
370
-1
 48
1.0
  6
ByLayer
100
AcDbCircle
 10
56.500000000000128
 20
-156.37000000000006
 30
0.0
 40
0.2499999999999005
100
AcDbArc
 50
270.00000000002279
 51
180.0
  0
LINE
  5
136
100
AcDbEntity
100
AcDbLine
  8
0
 62
256
370
-1
 48
1.0
  6
ByLayer
 10
56.500000000000227
 20
-156.61999999999998
 30
0.0
 11
56.500000000000199
 21
-157.6450000000001
 31
0.0
  0
LINE
  5
137
100
AcDbEntity
100
AcDbLine
  8
0
 62
256
370
-1
 48
1.0
  6
ByLayer
 10
56.500000000000199
 20
-157.6450000000001
 30
0.0
 11
61.280000000000229
 21
-157.64499999999998
 31
0.0
  0
LINE
  5
138
100
AcDbEntity
100
AcDbLine
  8
0
 62
256
370
-1
 48
1.0
  6
ByLayer
 10
61.280000000000229
 20
-157.64499999999998
 30
0.0
 11
61.2800000000002
 21
-147.81333333333336
 31
0.0
  0
LINE
  5
139
100
AcDbEntity
100
AcDbLine
  8
0
 62
256
370
-1
 48
1.0
  6
ByLayer
 10
61.2800000000002
 20
-147.81333333333336
 30
0.0
 11
68.000000000000227
 21
-147.81333333333342
 31
0.0
  0
LINE
  5
13A
100
AcDbEntity
100
AcDbLine
  8
0
 62
256
370
-1
 48
1.0
  6
ByLayer
 10
68.000000000000227
 20
-147.81333333333342
 30
0.0
 11
68.000000000000227
 21
-125.00000000000006
 31
0.0
  0
LINE
  5
13B
100
AcDbEntity
100
AcDbLine
  8
0
 62
256
370
-1
 48
1.0
  6
ByLayer
 10
2.6583333333335588
 20
-125.00000000000004
 30
0.0
 11
2.6583333333335588
 21
-129.78000000000014
 31
0.0
  0
LINE
  5
13C
100
AcDbEntity
100
AcDbLine
  8
0
 62
256
370
-1
 48
1.0
  6
ByLayer
 10
2.6583333333335588
 20
-129.78000000000014
 30
0.0
 11
3.6833333333335361
 21
-129.78000000000117
 31
0.0
  0
ARC
  5
13D
100
AcDbEntity
  8
0
 62
256
370
-1
 48
1.0
  6
ByLayer
100
AcDbCircle
 10
3.9333333333329392
 20
-129.78000000000057
 30
0.0
 40
0.2499999999994031
100
AcDbArc
 50
270.00000000013677
 51
180.0
  0
LINE
  5
13E
100
AcDbEntity
100
AcDbLine
  8
0
 62
256
370
-1
 48
1.0
  6
ByLayer
 10
3.9333333333335361
 20
-130.02999999999997
 30
0.0
 11
3.9333333333335645
 21
-132.0299999999998
 31
0.0
  0
ARC
  5
13F
100
AcDbEntity
  8
0
 62
256
370
-1
 48
1.0
  6
ByLayer
100
AcDbCircle
 10
3.9333333333336498
 20
-132.27999999999989
 30
0.0
 40
0.2500000000000853
100
AcDbArc
 50
180.0
 51
90.00000000001954
  0
LINE
  5
140
100
AcDbEntity
100
AcDbLine
  8
0
 62
256
370
-1
 48
1.0
  6
ByLayer
 10
3.6833333333335645
 20
-132.27999999999997
 30
0.0
 11
2.6583333333335588
 21
-132.27999999999997
 31
0.0
  0
LINE
  5
141
100
AcDbEntity
100
AcDbLine
  8
0
 62
256
370
-1
 48
1.0
  6
ByLayer
 10
2.6583333333335588
 20
-132.27999999999997
 30
0.0
 11
2.6583333333335588
 21
-133.28000000000023
 31
0.0
  0
LINE
  5
142
100
AcDbEntity
100
AcDbLine
  8
0
 62
256
370
-1
 48
1.0
  6
ByLayer
 10
2.6583333333335588
 20
-133.28000000000023
 30
0.0
 11
-0.4916666666664469
 21
-133.2800000000006
 31
0.0
  0
LINE
  5
143
100
AcDbEntity
100
AcDbLine
  8
0
 62
256
370
-1
 48
1.0
  6
ByLayer
 10
-0.4916666666664469
 20
-133.2800000000006
 30
0.0
 11
-0.4916666666664469
 21
-132.28000000000017
 31
0.0
  0
LINE
  5
144
100
AcDbEntity
100
AcDbLine
  8
0
 62
256
370
-1
 48
1.0
  6
ByLayer
 10
-0.4916666666664469
 20
-132.28000000000017
 30
0.0
 11
-1.5166666666664526
 21
-132.27999999999983
 31
0.0
  0
ARC
  5
145
100
AcDbEntity
  8
0
 62
256
370
-1
 48
1.0
  6
ByLayer
100
AcDbCircle
 10
-1.7666666666665662
 20
-132.27999999999972
 30
0.0
 40
0.2500000000001137
100
AcDbArc
 50
89.999999999973937
 51
360.0
  0
LINE
  5
146
100
AcDbEntity
100
AcDbLine
  8
0
 62
256
370
-1
 48
1.0
  6
ByLayer
 10
-1.7666666666664526
 20
-132.0299999999996
 30
0.0
 11
-1.766666666666481
 21
-130.02999999999969
 31
0.0
  0
ARC
  5
147
100
AcDbEntity
  8
0
 62
256
370
-1
 48
1.0
  6
ByLayer
100
AcDbCircle
 10
-1.7666666666663104
 20
-129.77999999999986
 30
0.0
 40
0.2499999999998579
100
AcDbArc
 50
360.0
 51
269.99999999996089
  0
LINE
  5
148
100
AcDbEntity
100
AcDbLine
  8
0
 62
256
370
-1
 48
1.0
  6
ByLayer
 10
-1.5166666666664526
 20
-129.78
 30
0.0
 11
-0.4916666666664469
 21
-129.78000000000074
 31
0.0
  0
LINE
  5
149
100
AcDbEntity
100
AcDbLine
  8
0
 62
256
370
-1
 48
1.0
  6
ByLayer
 10
-0.4916666666664469
 20
-129.78000000000074
 30
0.0
 11
-0.4916666666664469
 21
-125.00000000000004
 31
0.0
  0
LINE
  5
14A
100
AcDbEntity
100
AcDbLine
  8
0
 62
256
370
-1
 48
1.0
  6
ByLayer
 10
-18.66666666666643
 20
-125.00000000000004
 30
0.0
 11
-18.66666666666643
 21
-118.28000000000004
 31
0.0
  0
LINE
  5
14B
100
AcDbEntity
100
AcDbLine
  8
0
 62
256
370
-1
 48
1.0
  6
ByLayer
 10
-123.50833333333308
 20
-125.00000000000001
 30
0.0
 11
-123.50833333333308
 21
-129.77999999999997
 31
0.0
  0
LINE
  5
14C
100
AcDbEntity
100
AcDbLine
  8
0
 62
256
370
-1
 48
1.0
  6
ByLayer
 10
-123.50833333333308
 20
-129.77999999999997
 30
0.0
 11
-122.48333333333309
 21
-129.77999999999992
 31
0.0
  0
ARC
  5
14D
100
AcDbEntity
  8
0
 62
256
370
-1
 48
1.0
  6
ByLayer
100
AcDbCircle
 10
-122.23333333333305
 20
-129.77999999999992
 30
0.0
 40
0.2500000000000426
100
AcDbArc
 50
269.99999999999676
 51
180.0
  0
LINE
  5
14E
100
AcDbEntity
100
AcDbLine
  8
0
 62
256
370
-1
 48
1.0
  6
ByLayer
 10
-122.23333333333306
 20
-130.02999999999997
 30
0.0
 11
-122.23333333333312
 21
-132.02999999999989
 31
0.0
  0
ARC
  5
14F
100
AcDbEntity
  8
0
 62
256
370
-1
 48
1.0
  6
ByLayer
100
AcDbCircle
 10
-122.23333333333299
 20
-132.28000000000003
 30
0.0
 40
0.2500000000001208
100
AcDbArc
 50
180.0
 51
90.000000000029317
  0
LINE
  5
150
100
AcDbEntity
100
AcDbLine
  8
0
 62
256
370
-1
 48
1.0
  6
ByLayer
 10
-122.48333333333311
 20
-132.28000000000014
 30
0.0
 11
-123.50833333333308
 21
-132.28000000000006
 31
0.0
  0
LINE
  5
151
100
AcDbEntity
100
AcDbLine
  8
0
 62
256
370
-1
 48
1.0
  6
ByLayer
 10
-123.50833333333308
 20
-132.28000000000006
 30
0.0
 11
-123.50833333333308
 21
-133.28000000000003
 31
0.0
  0
LINE
  5
152
100
AcDbEntity
100
AcDbLine
  8
0
 62
256
370
-1
 48
1.0
  6
ByLayer
 10
-123.50833333333308
 20
-133.28000000000003
 30
0.0
 11
-126.6583333333331
 21
-133.27999999999994
 31
0.0
  0
LINE
  5
153
100
AcDbEntity
100
AcDbLine
  8
0
 62
256
370
-1
 48
1.0
  6
ByLayer
 10
-126.6583333333331
 20
-133.27999999999994
 30
0.0
 11
-126.6583333333331
 21
-132.28000000000006
 31
0.0
  0
LINE
  5
154
100
AcDbEntity
100
AcDbLine
  8
0
 62
256
370
-1
 48
1.0
  6
ByLayer
 10
-126.6583333333331
 20
-132.28000000000006
 30
0.0
 11
-127.68333333333311
 21
-132.27999999999997
 31
0.0
  0
ARC
  5
155
100
AcDbEntity
  8
0
 62
256
370
-1
 48
1.0
  6
ByLayer
100
AcDbCircle
 10
-127.93333333333304
 20
-132.28000000000003
 30
0.0
 40
0.2499999999999218
100
AcDbArc
 50
90.000000000013031
 51
0.0
  0
LINE
  5
156
100
AcDbEntity
100
AcDbLine
  8
0
 62
256
370
-1
 48
1.0
  6
ByLayer
 10
-127.9333333333331
 20
-132.03000000000011
 30
0.0
 11
-127.93333333333308
 21
-130.03000000000003
 31
0.0
  0
ARC
  5
157
100
AcDbEntity
  8
0
 62
256
370
-1
 48
1.0
  6
ByLayer
100
AcDbCircle
 10
-127.93333333333314
 20
-129.77999999999997
 30
0.0
 40
0.2500000000000568
100
AcDbArc
 50
0.0
 51
270.00000000001302
  0
LINE
  5
158
100
AcDbEntity
100
AcDbLine
  8
0
 62
256
370
-1
 48
1.0
  6
ByLayer
 10
-127.68333333333308
 20
-129.77999999999992
 30
0.0
 11
-126.6583333333331
 21
-129.77999999999994
 31
0.0
  0
LINE
  5
159
100
AcDbEntity
100
AcDbLine
  8
0
 62
256
370
-1
 48
1.0
  6
ByLayer
 10
-126.6583333333331
 20
-129.77999999999994
 30
0.0
 11
-126.6583333333331
 21
-125.00000000000001
 31
0.0
  0
LINE
  5
15A
100
AcDbEntity
100
AcDbLine
  8
0
 62
256
370
-1
 48
1.0
  6
ByLayer
 10
-191.99999999999977
 20
-125.0
 30
0.0
 11
-191.99999999999977
 21
-147.81333333333339
 31
0.0
  0
LINE
  5
15B
100
AcDbEntity
100
AcDbLine
  8
0
 62
256
370
-1
 48
1.0
  6
ByLayer
 10
-191.99999999999977
 20
-147.81333333333339
 30
0.0
 11
-185.27999999999977
 21
-147.81333333333339
 31
0.0
  0
LINE
  5
15C
100
AcDbEntity
100
AcDbLine
  8
0
 62
256
370
-1
 48
1.0
  6
ByLayer
 10
-185.27999999999977
 20
-147.81333333333339
 30
0.0
 11
-185.27999999999977
 21
-157.64499999999998
 31
0.0
  0
LINE
  5
15D
100
AcDbEntity
100
AcDbLine
  8
0
 62
256
370
-1
 48
1.0
  6
ByLayer
 10
-65.319999999999737
 20
97.140000000000128
 30
0.0
 11
-65.319999999999752
 21
103.13999999999999
 31
0.0
  0
ARC
  5
15E
100
AcDbEntity
  8
0
 62
256
370
-1
 48
1.0
  6
ByLayer
100
AcDbCircle
 10
-63.219999999999757
 20
103.13999999999999
 30
0.0
 40
2.0999999999999979
100
AcDbArc
 50
0.0
 51
180.0
  0
LINE
  5
15F
100
AcDbEntity
100
AcDbLine
  8
0
 62
256
370
-1
 48
1.0
  6
ByLayer
 10
-61.119999999999756
 20
103.13999999999999
 30
0.0
 11
-61.119999999999763
 21
97.140000000000114
 31
0.0
  0
ARC
  5
160
100
AcDbEntity
  8
0
 62
256
370
-1
 48
1.0
  6
ByLayer
100
AcDbCircle
 10
-63.21999999999975
 20
97.140000000000128
 30
0.0
 40
2.0999999999999872
100
AcDbArc
 50
180.0
 51
360.0
  0
ARC
  5
161
100
AcDbEntity
  8
0
 62
256
370
-1
 48
1.0
  6
ByLayer
100
AcDbCircle
 10
-77.719999999999771
 20
124.13999999999999
 30
0.0
 40
2.1000000000000085
100
AcDbArc
 50
0.0
 51
180.0
  0
LINE
  5
162
100
AcDbEntity
100
AcDbLine
  8
0
 62
256
370
-1
 48
1.0
  6
ByLayer
 10
-75.619999999999763
 20
124.13999999999999
 30
0.0
 11
-75.619999999999763
 21
105.63999999999999
 31
0.0
  0
ARC
  5
163
100
AcDbEntity
  8
0
 62
256
370
-1
 48
1.0
  6
ByLayer
100
AcDbCircle
 10
-77.719999999999743
 20
105.63999999999999
 30
0.0
 40
2.0999999999999872
100
AcDbArc
 50
180.0
 51
0.0
  0
LINE
  5
164
100
AcDbEntity
100
AcDbLine
  8
0
 62
256
370
-1
 48
1.0
  6
ByLayer
 10
-79.819999999999737
 20
105.64
 30
0.0
 11
-79.81999999999978
 21
124.13999999999999
 31
0.0
  0
LINE
  5
165
100
AcDbEntity
100
AcDbLine
  8
0
 62
256
370
-1
 48
1.0
  6
ByLayer
 10
-74.219999999999843
 20
66.139999999999986
 30
0.0
 11
-74.219999999999814
 21
59.419999999999973
 31
0.0
  0
LINE
  5
166
100
AcDbEntity
100
AcDbLine
  8
0
 62
256
370
-1
 48
1.0
  6
ByLayer
 10
-74.219999999999814
 20
59.419999999999973
 30
0.0
 11
-52.219999999999807
 21
59.419999999999973
 31
0.0
  0
LINE
  5
167
100
AcDbEntity
100
AcDbLine
  8
0
 62
256
370
-1
 48
1.0
  6
ByLayer
 10
-52.219999999999807
 20
59.419999999999973
 30
0.0
 11
-52.219999999999764
 21
66.140000000000001
 31
0.0
  0
LINE
  5
168
100
AcDbEntity
100
AcDbLine
  8
0
 62
256
370
-1
 48
1.0
  6
ByLayer
 10
-52.219999999999764
 20
66.140000000000001
 30
0.0
 11
-30.219999999999814
 21
66.139999999999944
 31
0.0
  0
LINE
  5
169
100
AcDbEntity
100
AcDbLine
  8
0
 62
256
370
-1
 48
1.0
  6
ByLayer
 10
-30.219999999999814
 20
66.139999999999944
 30
0.0
 11
-30.219999999999757
 21
131.14000000000007
 31
0.0
  0
LINE
  5
16A
100
AcDbEntity
100
AcDbLine
  8
0
 62
256
370
-1
 48
1.0
  6
ByLayer
 10
-30.219999999999757
 20
131.14000000000007
 30
0.0
 11
-96.2199999999998
 21
131.1400000000001
 31
0.0
  0
LINE
  5
16B
100
AcDbEntity
100
AcDbLine
  8
0
 62
256
370
-1
 48
1.0
  6
ByLayer
 10
-96.219999999999814
 20
66.139999999999986
 30
0.0
 11
-74.219999999999843
 21
66.139999999999986
 31
0.0
  0
LINE
  5
16C
100
AcDbEntity
100
AcDbLine
  8
0
 62
256
370
-1
 48
1.0
  6
ByLayer
 10
-159.01811335646437
 20
-219.75999999999999
 30
0.0
 11
-159.60603717535875
 21
-226.48000000000002
 31
0.0
  0
LINE
  5
16D
100
AcDbEntity
100
AcDbLine
  8
0
 62
256
370
-1
 48
1.0
  6
ByLayer
 10
-159.60603717535875
 20
-226.48000000000002
 30
0.0
 11
-159.60603717535878
 21
-233.20000000000002
 31
0.0
  0
LINE
  5
16E
100
AcDbEntity
100
AcDbLine
  8
0
 62
256
370
-1
 48
1.0
  6
ByLayer
 10
-159.60603717535878
 20
-233.20000000000002
 30
0.0
 11
-166.32603717535886
 21
-233.20000000000005
 31
0.0
  0
LINE
  5
16F
100
AcDbEntity
100
AcDbLine
  8
0
 62
256
370
-1
 48
1.0
  6
ByLayer
 10
-166.32603717535886
 20
-233.20000000000005
 30
0.0
 11
-166.32603717535872
 21
-193.44000000000005
 31
0.0
  0
LINE
  5
170
100
AcDbEntity
100
AcDbLine
  8
0
 62
256
370
-1
 48
1.0
  6
ByLayer
 10
-191.99999999999972
 20
-193.4399999999996
 30
0.0
 11
-191.01567606160597
 21
-249.83188066292576
 31
0.0
  0
LINE
  5
171
100
AcDbEntity
100
AcDbLine
  8
0
 62
256
370
-1
 48
1.0
  6
ByLayer
 10
-191.01567606160597
 20
-249.83188066292576
 30
0.0
 11
-184.60603717535878
 21
-249.71999999999983
 31
0.0
  0
LINE
  5
172
100
AcDbEntity
100
AcDbLine
  8
0
 62
256
370
-1
 48
1.0
  6
ByLayer
 10
-184.60603717535878
 20
-249.71999999999983
 30
0.0
 11
-171.16603717535875
 21
-249.71999999999983
 31
0.0
  0
LINE
  5
173
100
AcDbEntity
100
AcDbLine
  8
0
 62
256
370
-1
 48
1.0
  6
ByLayer
 10
-171.16603717535875
 20
-249.71999999999983
 30
0.0
 11
-171.16603717535875
 21
-256.43999999999983
 31
0.0
  0
LINE
  5
174
100
AcDbEntity
100
AcDbLine
  8
0
 62
256
370
-1
 48
1.0
  6
ByLayer
 10
-171.16603717535875
 20
-256.43999999999983
 30
0.0
 11
-177.88603717535875
 21
-256.43999999999983
 31
0.0
  0
LINE
  5
175
100
AcDbEntity
100
AcDbLine
  8
0
 62
256
370
-1
 48
1.0
  6
ByLayer
 10
-177.88603717535875
 20
-256.43999999999983
 30
0.0
 11
-177.88603717535878
 21
-266.27166666666653
 31
0.0
  0
LINE
  5
176
100
AcDbEntity
100
AcDbLine
  8
0
 62
256
370
-1
 48
1.0
  6
ByLayer
 10
-177.88603717535878
 20
-266.27166666666653
 30
0.0
 11
-173.10603717535872
 21
-266.27166666666653
 31
0.0
  0
LINE
  5
177
100
AcDbEntity
100
AcDbLine
  8
0
 62
256
370
-1
 48
1.0
  6
ByLayer
 10
-173.10603717535872
 20
-266.27166666666653
 30
0.0
 11
-173.10603717535872
 21
-265.24666666666656
 31
0.0
  0
ARC
  5
178
100
AcDbEntity
  8
0
 62
256
370
-1
 48
1.0
  6
ByLayer
100
AcDbCircle
 10
-173.10603717535872
 20
-264.99666666666656
 30
0.0
 40
0.25
100
AcDbArc
 50
0.0
 51
270.0
  0
LINE
  5
179
100
AcDbEntity
100
AcDbLine
  8
0
 62
256
370
-1
 48
1.0
  6
ByLayer
 10
-172.85603717535872
 20
-264.99666666666656
 30
0.0
 11
-170.85603717535869
 21
-264.99666666666656
 31
0.0
  0
ARC
  5
17A
100
AcDbEntity
  8
0
 62
256
370
-1
 48
1.0
  6
ByLayer
100
AcDbCircle
 10
-170.60603717535875
 20
-264.99666666666661
 30
0.0
 40
0.2499999999999431
100
AcDbArc
 50
270.0
 51
180.0
  0
LINE
  5
17B
100
AcDbEntity
100
AcDbLine
  8
0
 62
256
370
-1
 48
1.0
  6
ByLayer
 10
-170.60603717535875
 20
-265.2466666666665
 30
0.0
 11
-170.60603717535872
 21
-266.27166666666653
 31
0.0
  0
LINE
  5
17C
100
AcDbEntity
100
AcDbLine
  8
0
 62
256
370
-1
 48
1.0
  6
ByLayer
 10
-170.60603717535872
 20
-266.27166666666653
 30
0.0
 11
-169.60603717535875
 21
-266.27166666666653
 31
0.0
  0
LINE
  5
17D
100
AcDbEntity
100
AcDbLine
  8
0
 62
256
370
-1
 48
1.0
  6
ByLayer
 10
-169.60603717535875
 20
-266.27166666666653
 30
0.0
 11
-169.60603717535872
 21
-269.42166666666651
 31
0.0
  0
LINE
  5
17E
100
AcDbEntity
100
AcDbLine
  8
0
 62
256
370
-1
 48
1.0
  6
ByLayer
 10
-169.60603717535872
 20
-269.42166666666651
 30
0.0
 11
-170.60603717535875
 21
-269.42166666666651
 31
0.0
  0
LINE
  5
17F
100
AcDbEntity
100
AcDbLine
  8
0
 62
256
370
-1
 48
1.0
  6
ByLayer
 10
-170.60603717535875
 20
-269.42166666666651
 30
0.0
 11
-170.60603717535875
 21
-270.44666666666649
 31
0.0
  0
ARC
  5
180
100
AcDbEntity
  8
0
 62
256
370
-1
 48
1.0
  6
ByLayer
100
AcDbCircle
 10
-170.60603717535872
 20
-270.69666666666649
 30
0.0
 40
0.2499999999999858
100
AcDbArc
 50
180.0
 51
90.000000000006509
  0
LINE
  5
181
100
AcDbEntity
100
AcDbLine
  8
0
 62
256
370
-1
 48
1.0
  6
ByLayer
 10
-170.85603717535872
 20
-270.69666666666649
 30
0.0
 11
-172.85603717535872
 21
-270.69666666666654
 31
0.0
  0
ARC
  5
182
100
AcDbEntity
  8
0
 62
256
370
-1
 48
1.0
  6
ByLayer
100
AcDbCircle
 10
-173.10603717535875
 20
-270.69666666666649
 30
0.0
 40
0.2500000000000426
100
AcDbArc
 50
90.0
 51
360.0
  0
LINE
  5
183
100
AcDbEntity
100
AcDbLine
  8
0
 62
256
370
-1
 48
1.0
  6
ByLayer
 10
-173.10603717535875
 20
-270.44666666666649
 30
0.0
 11
-173.10603717535875
 21
-269.42166666666651
 31
0.0
  0
LINE
  5
184
100
AcDbEntity
100
AcDbLine
  8
0
 62
256
370
-1
 48
1.0
  6
ByLayer
 10
-173.10603717535875
 20
-269.42166666666651
 30
0.0
 11
-177.88603717535881
 21
-269.42166666666651
 31
0.0
  0
LINE
  5
185
100
AcDbEntity
100
AcDbLine
  8
0
 62
256
370
-1
 48
1.0
  6
ByLayer
 10
-177.88603717535881
 20
-269.42166666666651
 30
0.0
 11
-177.88603717535878
 21
-279.25333333333316
 31
0.0
  0
LINE
  5
186
100
AcDbEntity
100
AcDbLine
  8
0
 62
256
370
-1
 48
1.0
  6
ByLayer
 10
-177.88603717535878
 20
-279.25333333333316
 30
0.0
 11
-184.60603717535878
 21
-279.25333333333316
 31
0.0
  0
LINE
  5
187
100
AcDbEntity
100
AcDbLine
  8
0
 62
256
370
-1
 48
1.0
  6
ByLayer
 10
-184.60603717535878
 20
-279.25333333333316
 30
0.0
 11
-184.60603717535878
 21
-302.06666666666649
 31
0.0
  0
LINE
  5
188
100
AcDbEntity
100
AcDbLine
  8
0
 62
256
370
-1
 48
1.0
  6
ByLayer
 10
-184.60603717535878
 20
-302.06666666666649
 30
0.0
 11
-177.88603717535875
 21
-302.06666666666649
 31
0.0
  0
LINE
  5
189
100
AcDbEntity
100
AcDbLine
  8
0
 62
256
370
-1
 48
1.0
  6
ByLayer
 10
-177.88603717535875
 20
-302.06666666666649
 30
0.0
 11
-177.88603717535869
 21
-311.89833333333291
 31
0.0
  0
LINE
  5
18A
100
AcDbEntity
100
AcDbLine
  8
0
 62
256
370
-1
 48
1.0
  6
ByLayer
 10
-177.88603717535869
 20
-311.89833333333291
 30
0.0
 11
-173.10603717535869
 21
-311.89833333333291
 31
0.0
  0
LINE
  5
18B
100
AcDbEntity
100
AcDbLine
  8
0
 62
256
370
-1
 48
1.0
  6
ByLayer
 10
-173.10603717535869
 20
-311.89833333333291
 30
0.0
 11
-173.10603717535872
 21
-310.87333333333288
 31
0.0
  0
ARC
  5
18C
100
AcDbEntity
  8
0
 62
256
370
-1
 48
1.0
  6
ByLayer
100
AcDbCircle
 10
-173.10603717535872
 20
-310.62333333333288
 30
0.0
 40
0.2499999999999858
100
AcDbArc
 50
0.0
 51
270.0
  0
LINE
  5
18D
100
AcDbEntity
100
AcDbLine
  8
0
 62
256
370
-1
 48
1.0
  6
ByLayer
 10
-172.85603717535875
 20
-310.62333333333288
 30
0.0
 11
-170.85603717535872
 21
-310.62333333333288
 31
0.0
  0
ARC
  5
18E
100
AcDbEntity
  8
0
 62
256
370
-1
 48
1.0
  6
ByLayer
100
AcDbCircle
 10
-170.60603717535872
 20
-310.62333333333288
 30
0.0
 40
0.25
100
AcDbArc
 50
270.0
 51
180.0
  0
LINE
  5
18F
100
AcDbEntity
100
AcDbLine
  8
0
 62
256
370
-1
 48
1.0
  6
ByLayer
 10
-170.60603717535872
 20
-310.87333333333288
 30
0.0
 11
-170.60603717535875
 21
-311.89833333333286
 31
0.0
  0
LINE
  5
190
100
AcDbEntity
100
AcDbLine
  8
0
 62
256
370
-1
 48
1.0
  6
ByLayer
 10
-170.60603717535875
 20
-311.89833333333286
 30
0.0
 11
-169.60603717535878
 21
-311.89833333333286
 31
0.0
  0
LINE
  5
191
100
AcDbEntity
100
AcDbLine
  8
0
 62
256
370
-1
 48
1.0
  6
ByLayer
 10
-169.60603717535878
 20
-311.89833333333286
 30
0.0
 11
-169.60603717535884
 21
-315.04833333333289
 31
0.0
  0
LINE
  5
192
100
AcDbEntity
100
AcDbLine
  8
0
 62
256
370
-1
 48
1.0
  6
ByLayer
 10
-169.60603717535884
 20
-315.04833333333289
 30
0.0
 11
-170.60603717535867
 21
-315.04833333333289
 31
0.0
  0
LINE
  5
193
100
AcDbEntity
100
AcDbLine
  8
0
 62
256
370
-1
 48
1.0
  6
ByLayer
 10
-170.60603717535867
 20
-315.04833333333289
 30
0.0
 11
-170.60603717535872
 21
-316.07333333333287
 31
0.0
  0
ARC
  5
194
100
AcDbEntity
  8
0
 62
256
370
-1
 48
1.0
  6
ByLayer
100
AcDbCircle
 10
-170.60603717535869
 20
-316.32333333333293
 30
0.0
 40
0.2500000000000426
100
AcDbArc
 50
180.0
 51
90.000000000006509
  0
LINE
  5
195
100
AcDbEntity
100
AcDbLine
  8
0
 62
256
370
-1
 48
1.0
  6
ByLayer
 10
-170.85603717535875
 20
-316.32333333333293
 30
0.0
 11
-172.85603717535875
 21
-316.32333333333293
 31
0.0
  0
ARC
  5
196
100
AcDbEntity
  8
0
 62
256
370
-1
 48
1.0
  6
ByLayer
100
AcDbCircle
 10
-173.10603717535878
 20
-316.32333333333293
 30
0.0
 40
0.2500000000000284
100
AcDbArc
 50
89.999999999993491
 51
0.0
  0
LINE
  5
197
100
AcDbEntity
100
AcDbLine
  8
0
 62
256
370
-1
 48
1.0
  6
ByLayer
 10
-173.10603717535875
 20
-316.07333333333287
 30
0.0
 11
-173.10603717535869
 21
-315.04833333333289
 31
0.0
  0
LINE
  5
198
100
AcDbEntity
100
AcDbLine
  8
0
 62
256
370
-1
 48
1.0
  6
ByLayer
 10
-173.10603717535869
 20
-315.04833333333289
 30
0.0
 11
-177.88603717535875
 21
-315.04833333333289
 31
0.0
  0
LINE
  5
199
100
AcDbEntity
100
AcDbLine
  8
0
 62
256
370
-1
 48
1.0
  6
ByLayer
 10
-177.88603717535875
 20
-315.04833333333289
 30
0.0
 11
-177.88603717535875
 21
-324.87999999999988
 31
0.0
  0
LINE
  5
19A
100
AcDbEntity
100
AcDbLine
  8
0
 62
256
370
-1
 48
1.0
  6
ByLayer
 10
-177.88603717535875
 20
-324.87999999999988
 30
0.0
 11
-171.16603717535867
 21
-324.87999999999982
 31
0.0
  0
LINE
  5
19B
100
AcDbEntity
100
AcDbLine
  8
0
 62
256
370
-1
 48
1.0
  6
ByLayer
 10
-171.16603717535867
 20
-324.87999999999982
 30
0.0
 11
-171.16603717535878
 21
-331.5999999999998
 31
0.0
  0
LINE
  5
19C
100
AcDbEntity
100
AcDbLine
  8
0
 62
256
370
-1
 48
1.0
  6
ByLayer
 10
-171.16603717535878
 20
-331.5999999999998
 30
0.0
 11
-184.60603717535875
 21
-331.5999999999998
 31
0.0
  0
LINE
  5
19D
100
AcDbEntity
100
AcDbLine
  8
0
 62
256
370
-1
 48
1.0
  6
ByLayer
 10
-184.60603717535875
 20
-331.5999999999998
 30
0.0
 11
-189.58689066660537
 21
-331.68694112108756
 31
0.0
  0
LINE
  5
19E
100
AcDbEntity
100
AcDbLine
  8
0
 62
256
370
-1
 48
1.0
  6
ByLayer
 10
-189.58689066660537
 20
-331.68694112108756
 30
0.0
 11
-188.60603717535872
 21
-387.87999999999965
 31
0.0
  0
LINE
  5
19F
100
AcDbEntity
100
AcDbLine
  8
0
 62
256
370
-1
 48
1.0
  6
ByLayer
 10
-188.60603717535872
 20
-387.87999999999965
 30
0.0
 11
-166.32603717535869
 21
-387.87999999999965
 31
0.0
  0
LINE
  5
1A0
100
AcDbEntity
100
AcDbLine
  8
0
 62
256
370
-1
 48
1.0
  6
ByLayer
 10
-166.32603717535869
 20
-387.87999999999965
 30
0.0
 11
-166.32603717535883
 21
-348.11999999999966
 31
0.0
  0
LINE
  5
1A1
100
AcDbEntity
100
AcDbLine
  8
0
 62
256
370
-1
 48
1.0
  6
ByLayer
 10
-166.32603717535883
 20
-348.11999999999966
 30
0.0
 11
-159.60603717535861
 21
-348.11999999999966
 31
0.0
  0
LINE
  5
1A2
100
AcDbEntity
100
AcDbLine
  8
0
 62
256
370
-1
 48
1.0
  6
ByLayer
 10
-159.60603717535861
 20
-348.11999999999966
 30
0.0
 11
-159.60603717535852
 21
-354.83999999999969
 31
0.0
  0
LINE
  5
1A3
100
AcDbEntity
100
AcDbLine
  8
0
 62
256
370
-1
 48
1.0
  6
ByLayer
 10
-159.60603717535852
 20
-354.83999999999969
 30
0.0
 11
-159.01811335646468
 21
-361.55999999999966
 31
0.0
  0
LINE
  5
1A4
100
AcDbEntity
100
AcDbLine
  8
0
 62
256
370
-1
 48
1.0
  6
ByLayer
 10
-159.01811335646468
 20
-361.55999999999966
 30
0.0
 11
-135.10603717535881
 21
-361.55999999999966
 31
0.0
  0
LINE
  5
1A5
100
AcDbEntity
100
AcDbLine
  8
0
 62
256
370
-1
 48
1.0
  6
ByLayer
 10
-135.10603717535881
 20
-361.55999999999966
 30
0.0
 11
-135.10603717535878
 21
-219.75999999999999
 31
0.0
  0
LINE
  5
1A6
100
AcDbEntity
100
AcDbLine
  8
0
 62
256
370
-1
 48
1.0
  6
ByLayer
 10
-135.10603717535878
 20
-219.75999999999999
 30
0.0
 11
-159.01811335646437
 21
-219.75999999999999
 31
0.0
  0
LINE
  5
1A7
100
AcDbEntity
100
AcDbLine
  8
0
 62
256
370
-1
 48
1.0
  6
ByLayer
 10
-96.219999999999686
 20
137.8599999999999
 30
0.0
 11
-96.219999999999857
 21
-68.660000000000096
 31
0.0
  0
LINE
  5
1A8
100
AcDbEntity
100
AcDbLine
  8
0
 62
256
370
-1
 48
1.0
  6
ByLayer
 10
-96.219999999999857
 20
-68.660000000000096
 30
0.0
 11
-112.73999999999985
 21
-68.660000000000096
 31
0.0
  0
LINE
  5
1A9
100
AcDbEntity
100
AcDbLine
  8
0
 62
256
370
-1
 48
1.0
  6
ByLayer
 10
-112.73999999999985
 20
-68.660000000000096
 30
0.0
 11
-112.73999999999984
 21
-61.940000000000119
 31
0.0
  0
LINE
  5
1AA
100
AcDbEntity
100
AcDbLine
  8
0
 62
256
370
-1
 48
1.0
  6
ByLayer
 10
-112.73999999999984
 20
-61.940000000000119
 30
0.0
 11
-129.25999999999985
 21
-61.940000000000083
 31
0.0
  0
LINE
  5
1AB
100
AcDbEntity
100
AcDbLine
  8
0
 62
256
370
-1
 48
1.0
  6
ByLayer
 10
-129.25999999999985
 20
-61.940000000000083
 30
0.0
 11
-129.25999999999985
 21
-68.660000000000082
 31
0.0
  0
LINE
  5
1AC
100
AcDbEntity
100
AcDbLine
  8
0
 62
256
370
-1
 48
1.0
  6
ByLayer
 10
-129.25999999999985
 20
-68.660000000000082
 30
0.0
 11
-152.49999999999989
 21
-68.660000000000082
 31
0.0
  0
LINE
  5
1AD
100
AcDbEntity
100
AcDbLine
  8
0
 62
256
370
-1
 48
1.0
  6
ByLayer
 10
-145.77999999999921
 20
86.380000000000024
 30
0.0
 11
-145.77999999999921
 21
71.380000000000024
 31
0.0
  0
LINE
  5
1AE
100
AcDbEntity
100
AcDbLine
  8
0
 62
256
370
-1
 48
1.0
  6
ByLayer
 10
-145.77999999999921
 20
71.380000000000024
 30
0.0
 11
-139.05999999999918
 21
71.380000000000024
 31
0.0
  0
LINE
  5
1AF
100
AcDbEntity
100
AcDbLine
  8
0
 62
256
370
-1
 48
1.0
  6
ByLayer
 10
-139.05999999999918
 20
71.380000000000024
 30
0.0
 11
-139.05999999999932
 21
86.380000000000024
 31
0.0
  0
LINE
  5
1B0
100
AcDbEntity
100
AcDbLine
  8
0
 62
256
370
-1
 48
1.0
  6
ByLayer
 10
-139.05999999999932
 20
86.380000000000024
 30
0.0
 11
-145.77999999999921
 21
86.380000000000024
 31
0.0
  0
LINE
  5
1B1
100
AcDbEntity
100
AcDbLine
  8
0
 62
256
370
-1
 48
1.0
  6
ByLayer
 10
90.813333333334313
 20
100.0
 30
0.0
 11
113.62666666666777
 21
99.999999999999943
 31
0.0
  0
LINE
  5
1B2
100
AcDbEntity
100
AcDbLine
  8
0
 62
256
370
-1
 48
1.0
  6
ByLayer
 10
113.62666666666777
 20
99.999999999999943
 30
0.0
 11
113.62666666666766
 21
105.88
 31
0.0
  0
LINE
  5
1B3
100
AcDbEntity
100
AcDbLine
  8
0
 62
256
370
-1
 48
1.0
  6
ByLayer
 10
113.62666666666766
 20
105.88
 30
0.0
 11
90.813333333334285
 21
105.88
 31
0.0
  0
LINE
  5
1B4
100
AcDbEntity
100
AcDbLine
  8
0
 62
256
370
-1
 48
1.0
  6
ByLayer
 10
90.813333333334285
 20
105.88
 30
0.0
 11
90.813333333334313
 21
100.0
 31
0.0
  0
LINE
  5
1B5
100
AcDbEntity
100
AcDbLine
  8
0
 62
256
370
-1
 48
1.0
  6
ByLayer
 10
68.000000000000895
 20
118.17500000000001
 30
0.0
 11
72.780000000000925
 21
118.17500000000001
 31
0.0
  0
LINE
  5
1B6
100
AcDbEntity
100
AcDbLine
  8
0
 62
256
370
-1
 48
1.0
  6
ByLayer
 10
72.780000000000925
 20
118.17500000000001
 30
0.0
 11
72.78000000000101
 21
117.14999999999998
 31
0.0
  0
ARC
  5
1B7
100
AcDbEntity
  8
0
 62
256
370
-1
 48
1.0
  6
ByLayer
100
AcDbCircle
 10
72.780000000000911
 20
116.90000000000008
 30
0.0
 40
0.2499999999998994
100
AcDbArc
 50
89.999999999977192
 51
360.0
  0
LINE
  5
1B8
100
AcDbEntity
100
AcDbLine
  8
0
 62
256
370
-1
 48
1.0
  6
ByLayer
 10
73.030000000000811
 20
116.89999999999998
 30
0.0
 11
75.030000000001039
 21
116.89999999999995
 31
0.0
  0
ARC
  5
1B9
100
AcDbEntity
  8
0
 62
256
370
-1
 48
1.0
  6
ByLayer
100
AcDbCircle
 10
75.28000000000101
 20
116.90000000000002
 30
0.0
 40
0.2499999999999645
100
AcDbArc
 50
180.0
 51
90.000000000016286
  0
LINE
  5
1BA
100
AcDbEntity
100
AcDbLine
  8
0
 62
256
370
-1
 48
1.0
  6
ByLayer
 10
75.280000000000939
 20
117.14999999999998
 30
0.0
 11
75.28000000000084
 21
118.17500000000001
 31
0.0
  0
LINE
  5
1BB
100
AcDbEntity
100
AcDbLine
  8
0
 62
256
370
-1
 48
1.0
  6
ByLayer
 10
75.28000000000084
 20
118.17500000000001
 30
0.0
 11
76.280000000000953
 21
118.17500000000001
 31
0.0
  0
LINE
  5
1BC
100
AcDbEntity
100
AcDbLine
  8
0
 62
256
370
-1
 48
1.0
  6
ByLayer
 10
76.280000000000953
 20
118.17500000000001
 30
0.0
 11
76.280000000000911
 21
121.32499999999996
 31
0.0
  0
LINE
  5
1BD
100
AcDbEntity
100
AcDbLine
  8
0
 62
256
370
-1
 48
1.0
  6
ByLayer
 10
76.280000000000911
 20
121.32499999999996
 30
0.0
 11
75.280000000001067
 21
121.32499999999999
 31
0.0
  0
LINE
  5
1BE
100
AcDbEntity
100
AcDbLine
  8
0
 62
256
370
-1
 48
1.0
  6
ByLayer
 10
75.280000000001067
 20
121.32499999999999
 30
0.0
 11
75.280000000000967
 21
122.35000000000002
 31
0.0
  0
ARC
  5
1BF
100
AcDbEntity
  8
0
 62
256
370
-1
 48
1.0
  6
ByLayer
100
AcDbCircle
 10
75.280000000000925
 20
122.60000000000007
 30
0.0
 40
0.2500000000000426
100
AcDbArc
 50
270.00000000000978
 51
180.0
  0
LINE
  5
1C0
100
AcDbEntity
100
AcDbLine
  8
0
 62
256
370
-1
 48
1.0
  6
ByLayer
 10
75.030000000000882
 20
122.60000000000002
 30
0.0
 11
73.030000000000825
 21
122.59999999999994
 31
0.0
  0
ARC
  5
1C1
100
AcDbEntity
  8
0
 62
256
370
-1
 48
1.0
  6
ByLayer
100
AcDbCircle
 10
72.780000000000896
 20
122.59999999999989
 30
0.0
 40
0.2499999999999289
100
AcDbArc
 50
0.0
 51
270.00000000000978
  0
LINE
  5
1C2
100
AcDbEntity
100
AcDbLine
  8
0
 62
256
370
-1
 48
1.0
  6
ByLayer
 10
72.780000000000939
 20
122.34999999999997
 30
0.0
 11
72.780000000000925
 21
121.32499999999999
 31
0.0
  0
LINE
  5
1C3
100
AcDbEntity
100
AcDbLine
  8
0
 62
256
370
-1
 48
1.0
  6
ByLayer
 10
72.780000000000925
 20
121.32499999999999
 30
0.0
 11
68.000000000000966
 21
121.32499999999999
 31
0.0
  0
LINE
  5
1C4
100
AcDbEntity
100
AcDbLine
  8
0
 62
256
370
-1
 48
1.0
  6
ByLayer
 10
68.000000000000767
 20
373.67499999999984
 30
0.0
 11
72.780000000000854
 21
373.67499999999984
 31
0.0
  0
LINE
  5
1C5
100
AcDbEntity
100
AcDbLine
  8
0
 62
256
370
-1
 48
1.0
  6
ByLayer
 10
72.780000000000854
 20
373.67499999999984
 30
0.0
 11
72.78000000000084
 21
372.64999999999975
 31
0.0
  0
ARC
  5
1C6
100
AcDbEntity
  8
0
 62
256
370
-1
 48
1.0
  6
ByLayer
100
AcDbCircle
 10
72.780000000000996
 20
372.39999999999981
 30
0.0
 40
0.249999999999936
100
AcDbArc
 50
90.000000000035826
 51
0.0
  0
LINE
  5
1C7
100
AcDbEntity
100
AcDbLine
  8
0
 62
256
370
-1
 48
1.0
  6
ByLayer
 10
73.030000000000939
 20
372.39999999999998
 30
0.0
 11
75.030000000000669
 21
372.40000000000003
 31
0.0
  0
ARC
  5
1C8
100
AcDbEntity
  8
0
 62
256
370
-1
 48
1.0
  6
ByLayer
100
AcDbCircle
 10
75.28000000000057
 20
372.39999999999992
 30
0.0
 40
0.2499999999998934
100
AcDbArc
 50
180.0
 51
89.999999999973937
  0
LINE
  5
1C9
100
AcDbEntity
100
AcDbLine
  8
0
 62
256
370
-1
 48
1.0
  6
ByLayer
 10
75.280000000000683
 20
372.64999999999981
 30
0.0
 11
75.280000000000797
 21
373.67499999999984
 31
0.0
  0
LINE
  5
1CA
100
AcDbEntity
100
AcDbLine
  8
0
 62
256
370
-1
 48
1.0
  6
ByLayer
 10
75.280000000000797
 20
373.67499999999984
 30
0.0
 11
76.280000000000712
 21
373.67499999999984
 31
0.0
  0
LINE
  5
1CB
100
AcDbEntity
100
AcDbLine
  8
0
 62
256
370
-1
 48
1.0
  6
ByLayer
 10
76.280000000000712
 20
373.67499999999984
 30
0.0
 11
76.280000000000626
 21
376.82499999999993
 31
0.0
  0
LINE
  5
1CC
100
AcDbEntity
100
AcDbLine
  8
0
 62
256
370
-1
 48
1.0
  6
ByLayer
 10
76.280000000000626
 20
376.82499999999993
 30
0.0
 11
75.280000000000626
 21
376.82499999999993
 31
0.0
  0
LINE
  5
1CD
100
AcDbEntity
100
AcDbLine
  8
0
 62
256
370
-1
 48
1.0
  6
ByLayer
 10
75.280000000000626
 20
376.82499999999993
 30
0.0
 11
75.280000000000854
 21
377.8499999999998
 31
0.0
  0
ARC
  5
1CE
100
AcDbEntity
  8
0
 62
256
370
-1
 48
1.0
  6
ByLayer
100
AcDbCircle
 10
75.280000000000925
 20
378.09999999999974
 30
0.0
 40
0.2499999999999289
100
AcDbArc
 50
269.99999999998374
 51
180.0
  0
LINE
  5
1CF
100
AcDbEntity
100
AcDbLine
  8
0
 62
256
370
-1
 48
1.0
  6
ByLayer
 10
75.030000000000996
 20
378.0999999999998
 30
0.0
 11
73.03000000000074
 21
378.09999999999974
 31
0.0
  0
ARC
  5
1D0
100
AcDbEntity
  8
0
 62
256
370
-1
 48
1.0
  6
ByLayer
100
AcDbCircle
 10
72.780000000000769
 20
378.0999999999998
 30
0.0
 40
0.2499999999999787
100
AcDbArc
 50
360.0
 51
269.99999999999022
  0
LINE
  5
1D1
100
AcDbEntity
100
AcDbLine
  8
0
 62
256
370
-1
 48
1.0
  6
ByLayer
 10
72.780000000000726
 20
377.8499999999998
 30
0.0
 11
72.780000000001039
 21
376.82499999999993
 31
0.0
  0
LINE
  5
1D2
100
AcDbEntity
100
AcDbLine
  8
0
 62
256
370
-1
 48
1.0
  6
ByLayer
 10
72.780000000001039
 20
376.82499999999993
 30
0.0
 11
68.000000000000696
 21
376.82499999999999
 31
0.0
  0
LINE
  5
1D3
100
AcDbEntity
100
AcDbLine
  8
0
 62
256
370
-1
 48
1.0
  6
ByLayer
 10
68.00000000000118
 20
388.28000000000009
 30
0.0
 11
90.813333333334981
 21
388.27999999999986
 31
0.0
  0
LINE
  5
1D4
100
AcDbEntity
100
AcDbLine
  8
0
 62
256
370
-1
 48
1.0
  6
ByLayer
 10
90.813333333334981
 20
388.27999999999986
 30
0.0
 11
90.813333333334711
 21
395.0
 31
0.0
  0
LINE
  5
1D5
100
AcDbEntity
100
AcDbLine
  8
0
 62
256
370
-1
 48
1.0
  6
ByLayer
 10
90.813333333334711
 20
395.0
 30
0.0
 11
113.62666666666803
 21
394.99999999999989
 31
0.0
  0
LINE
  5
1D6
100
AcDbEntity
100
AcDbLine
  8
0
 62
256
370
-1
 48
1.0
  6
ByLayer
 10
113.62666666666803
 20
394.99999999999989
 30
0.0
 11
113.62666666666823
 21
388.27999999999986
 31
0.0
  0
LINE
  5
1D7
100
AcDbEntity
100
AcDbLine
  8
0
 62
256
370
-1
 48
1.0
  6
ByLayer
 10
113.62666666666823
 20
388.27999999999986
 30
0.0
 11
136.44000000000131
 21
388.27999999999975
 31
0.0
  0
LINE
  5
1D8
100
AcDbEntity
100
AcDbLine
  8
0
 62
256
370
-1
 48
1.0
  6
ByLayer
 10
136.44000000000131
 20
388.27999999999975
 30
0.0
 11
136.44000000000165
 21
376.82499999999987
 31
0.0
  0
LINE
  5
1D9
100
AcDbEntity
100
AcDbLine
  8
0
 62
256
370
-1
 48
1.0
  6
ByLayer
 10
136.44000000000165
 20
376.82499999999987
 30
0.0
 11
131.66000000000153
 21
376.82499999999993
 31
0.0
  0
LINE
  5
1DA
100
AcDbEntity
100
AcDbLine
  8
0
 62
256
370
-1
 48
1.0
  6
ByLayer
 10
131.66000000000153
 20
376.82499999999993
 30
0.0
 11
131.66000000000165
 21
377.84999999999974
 31
0.0
  0
ARC
  5
1DB
100
AcDbEntity
  8
0
 62
256
370
-1
 48
1.0
  6
ByLayer
100
AcDbCircle
 10
131.6600000000015
 20
378.09999999999991
 30
0.0
 40
0.2500000000001563
100
AcDbArc
 50
270.00000000003257
 51
180.0
  0
LINE
  5
1DC
100
AcDbEntity
100
AcDbLine
  8
0
 62
256
370
-1
 48
1.0
  6
ByLayer
 10
131.41000000000133
 20
378.09999999999974
 30
0.0
 11
129.41000000000156
 21
378.09999999999974
 31
0.0
  0
ARC
  5
1DD
100
AcDbEntity
  8
0
 62
256
370
-1
 48
1.0
  6
ByLayer
100
AcDbCircle
 10
129.16000000000162
 20
378.0999999999998
 30
0.0
 40
0.2499999999999431
100
AcDbArc
 50
360.0
 51
270.0
  0
LINE
  5
1DE
100
AcDbEntity
100
AcDbLine
  8
0
 62
256
370
-1
 48
1.0
  6
ByLayer
 10
129.16000000000162
 20
377.8499999999998
 30
0.0
 11
129.16000000000156
 21
376.82499999999993
 31
0.0
  0
LINE
  5
1DF
100
AcDbEntity
100
AcDbLine
  8
0
 62
256
370
-1
 48
1.0
  6
ByLayer
 10
129.16000000000156
 20
376.82499999999993
 30
0.0
 11
128.16000000000122
 21
376.82499999999999
 31
0.0
  0
LINE
  5
1E0
100
AcDbEntity
100
AcDbLine
  8
0
 62
256
370
-1
 48
1.0
  6
ByLayer
 10
128.16000000000122
 20
376.82499999999999
 30
0.0
 11
128.16000000000125
 21
373.67499999999984
 31
0.0
  0
LINE
  5
1E1
100
AcDbEntity
100
AcDbLine
  8
0
 62
256
370
-1
 48
1.0
  6
ByLayer
 10
128.16000000000125
 20
373.67499999999984
 30
0.0
 11
129.16000000000142
 21
373.67499999999984
 31
0.0
  0
LINE
  5
1E2
100
AcDbEntity
100
AcDbLine
  8
0
 62
256
370
-1
 48
1.0
  6
ByLayer
 10
129.16000000000142
 20
373.67499999999984
 30
0.0
 11
129.16000000000162
 21
372.64999999999969
 31
0.0
  0
ARC
  5
1E3
100
AcDbEntity
  8
0
 62
256
370
-1
 48
1.0
  6
ByLayer
100
AcDbCircle
 10
129.16000000000167
 20
372.39999999999998
 30
0.0
 40
0.2499999999997726
100
AcDbArc
 50
90.000000000013031
 51
0.0
  0
LINE
  5
1E4
100
AcDbEntity
100
AcDbLine
  8
0
 62
256
370
-1
 48
1.0
  6
ByLayer
 10
129.41000000000145
 20
372.39999999999998
 30
0.0
 11
131.41000000000133
 21
372.39999999999998
 31
0.0
  0
ARC
  5
1E5
100
AcDbEntity
  8
0
 62
256
370
-1
 48
1.0
  6
ByLayer
100
AcDbCircle
 10
131.66000000000113
 20
372.39999999999992
 30
0.0
 40
0.2499999999998152
100
AcDbArc
 50
180.0
 51
89.999999999973937
  0
LINE
  5
1E6
100
AcDbEntity
100
AcDbLine
  8
0
 62
256
370
-1
 48
1.0
  6
ByLayer
 10
131.66000000000125
 20
372.64999999999969
 30
0.0
 11
131.66000000000153
 21
373.67499999999978
 31
0.0
  0
LINE
  5
1E7
100
AcDbEntity
100
AcDbLine
  8
0
 62
256
370
-1
 48
1.0
  6
ByLayer
 10
131.66000000000153
 20
373.67499999999978
 30
0.0
 11
136.44000000000125
 21
373.67499999999984
 31
0.0
  0
LINE
  5
1E8
100
AcDbEntity
100
AcDbLine
  8
0
 62
256
370
-1
 48
1.0
  6
ByLayer
 10
136.44000000000125
 20
373.67499999999984
 30
0.0
 11
136.44000000000113
 21
121.32499999999993
 31
0.0
  0
LINE
  5
1E9
100
AcDbEntity
100
AcDbLine
  8
0
 62
256
370
-1
 48
1.0
  6
ByLayer
 10
136.44000000000113
 20
121.32499999999993
 30
0.0
 11
131.66000000000093
 21
121.32500000000002
 31
0.0
  0
LINE
  5
1EA
100
AcDbEntity
100
AcDbLine
  8
0
 62
256
370
-1
 48
1.0
  6
ByLayer
 10
131.66000000000093
 20
121.32500000000002
 30
0.0
 11
131.66000000000108
 21
122.34999999999994
 31
0.0
  0
ARC
  5
1EB
100
AcDbEntity
  8
0
 62
256
370
-1
 48
1.0
  6
ByLayer
100
AcDbCircle
 10
131.66000000000108
 20
122.59999999999999
 30
0.0
 40
0.2500000000000568
100
AcDbArc
 50
270.0
 51
180.0
  0
LINE
  5
1EC
100
AcDbEntity
100
AcDbLine
  8
0
 62
256
370
-1
 48
1.0
  6
ByLayer
 10
131.41000000000099
 20
122.59999999999997
 30
0.0
 11
129.41000000000099
 21
122.59999999999999
 31
0.0
  0
ARC
  5
1ED
100
AcDbEntity
  8
0
 62
256
370
-1
 48
1.0
  6
ByLayer
100
AcDbCircle
 10
129.16000000000105
 20
122.59999999999992
 30
0.0
 40
0.2499999999999573
100
AcDbArc
 50
0.0
 51
270.00000000001302
  0
LINE
  5
1EE
100
AcDbEntity
100
AcDbLine
  8
0
 62
256
370
-1
 48
1.0
  6
ByLayer
 10
129.16000000000111
 20
122.34999999999997
 30
0.0
 11
129.16000000000116
 21
121.32499999999996
 31
0.0
  0
LINE
  5
1EF
100
AcDbEntity
100
AcDbLine
  8
0
 62
256
370
-1
 48
1.0
  6
ByLayer
 10
129.16000000000116
 20
121.32499999999996
 30
0.0
 11
128.16000000000111
 21
121.32499999999996
 31
0.0
  0
LINE
  5
1F0
100
AcDbEntity
100
AcDbLine
  8
0
 62
256
370
-1
 48
1.0
  6
ByLayer
 10
128.16000000000111
 20
121.32499999999996
 30
0.0
 11
128.16000000000113
 21
118.17499999999993
 31
0.0
  0
LINE
  5
1F1
100
AcDbEntity
100
AcDbLine
  8
0
 62
256
370
-1
 48
1.0
  6
ByLayer
 10
128.16000000000113
 20
118.17499999999993
 30
0.0
 11
129.16000000000093
 21
118.17500000000004
 31
0.0
  0
LINE
  5
1F2
100
AcDbEntity
100
AcDbLine
  8
0
 62
256
370
-1
 48
1.0
  6
ByLayer
 10
129.16000000000093
 20
118.17500000000004
 30
0.0
 11
129.16000000000111
 21
117.14999999999995
 31
0.0
  0
ARC
  5
1F3
100
AcDbEntity
  8
0
 62
256
370
-1
 48
1.0
  6
ByLayer
100
AcDbCircle
 10
129.16000000000113
 20
116.89999999999989
 30
0.0
 40
0.2500000000000568
100
AcDbArc
 50
90.000000000006509
 51
0.0
  0
LINE
  5
1F4
100
AcDbEntity
100
AcDbLine
  8
0
 62
256
370
-1
 48
1.0
  6
ByLayer
 10
129.41000000000119
 20
116.89999999999992
 30
0.0
 11
131.41000000000099
 21
116.89999999999998
 31
0.0
  0
ARC
  5
1F5
100
AcDbEntity
  8
0
 62
256
370
-1
 48
1.0
  6
ByLayer
100
AcDbCircle
 10
131.66000000000096
 20
116.89999999999996
 30
0.0
 40
0.2499999999999847
100
AcDbArc
 50
180.0
 51
89.999999999993491
  0
LINE
  5
1F6
100
AcDbEntity
100
AcDbLine
  8
0
 62
256
370
-1
 48
1.0
  6
ByLayer
 10
131.66000000000099
 20
117.14999999999995
 30
0.0
 11
131.66000000000105
 21
118.17499999999998
 31
0.0
  0
LINE
  5
1F7
100
AcDbEntity
100
AcDbLine
  8
0
 62
256
370
-1
 48
1.0
  6
ByLayer
 10
131.66000000000105
 20
118.17499999999998
 30
0.0
 11
136.44000000000099
 21
118.17499999999998
 31
0.0
  0
LINE
  5
1F8
100
AcDbEntity
100
AcDbLine
  8
0
 62
256
370
-1
 48
1.0
  6
ByLayer
 10
136.44000000000099
 20
118.17499999999998
 30
0.0
 11
136.44000000000094
 21
100.0
 31
0.0
  0
LINE
  5
1F9
100
AcDbEntity
100
AcDbLine
  8
0
 62
256
370
-1
 48
1.0
  6
ByLayer
 10
136.44000000000094
 20
100.0
 30
0.0
 11
143.16000000000093
 21
99.999999999999972
 31
0.0
  0
LINE
  5
1FA
100
AcDbEntity
100
AcDbLine
  8
0
 62
256
370
-1
 48
1.0
  6
ByLayer
 10
143.16000000000093
 20
99.999999999999972
 30
0.0
 11
143.16000000000074
 21
-125.00000000000001
 31
0.0
  0
LINE
  5
1FB
100
AcDbEntity
100
AcDbLine
  8
0
 62
256
370
-1
 48
1.0
  6
ByLayer
 10
143.16000000000074
 20
-125.00000000000001
 30
0.0
 11
136.44000000000065
 21
-125.00000000000001
 31
0.0
  0
LINE
  5
1FC
100
AcDbEntity
100
AcDbLine
  8
0
 62
256
370
-1
 48
1.0
  6
ByLayer
 10
136.44000000000065
 20
-125.00000000000001
 30
0.0
 11
136.44000000000065
 21
-118.27999999999996
 31
0.0
  0
LINE
  5
1FD
100
AcDbEntity
100
AcDbLine
  8
0
 62
256
370
-1
 48
1.0
  6
ByLayer
 10
136.44000000000065
 20
-118.27999999999996
 30
0.0
 11
113.62666666666732
 21
-118.28000000000004
 31
0.0
  0
LINE
  5
1FE
100
AcDbEntity
100
AcDbLine
  8
0
 62
256
370
-1
 48
1.0
  6
ByLayer
 10
113.62666666666732
 20
-118.28000000000004
 30
0.0
 11
113.62666666666732
 21
-125.00000000000001
 31
0.0
  0
LINE
  5
1FF
100
AcDbEntity
100
AcDbLine
  8
0
 62
256
370
-1
 48
1.0
  6
ByLayer
 10
113.62666666666732
 20
-125.00000000000001
 30
0.0
 11
90.813333333333986
 21
-125.00000000000001
 31
0.0
  0
LINE
  5
200
100
AcDbEntity
100
AcDbLine
  8
0
 62
256
370
-1
 48
1.0
  6
ByLayer
 10
90.813333333333986
 20
-125.00000000000001
 30
0.0
 11
90.813333333333986
 21
-118.28
 31
0.0
  0
LINE
  5
201
100
AcDbEntity
100
AcDbLine
  8
0
 62
256
370
-1
 48
1.0
  6
ByLayer
 10
90.813333333333986
 20
-118.28
 30
0.0
 11
68.000000000000654
 21
-118.27999999999989
 31
0.0
  0
LINE
  5
202
100
AcDbEntity
100
AcDbLine
  8
0
 62
256
370
-1
 48
1.0
  6
ByLayer
 10
68.000000000000654
 20
-118.27999999999989
 30
0.0
 11
68.000000000000654
 21
-125.0
 31
0.0
  0
LINE
  5
203
100
AcDbEntity
100
AcDbLine
  8
0
 62
256
370
-1
 48
1.0
  6
ByLayer
 10
68.000000000000654
 20
-125.0
 30
0.0
 11
-18.66666666666643
 21
-125.00000000000004
 31
0.0
  0
LINE
  5
204
100
AcDbEntity
100
AcDbLine
  8
0
 62
256
370
-1
 48
1.0
  6
ByLayer
 10
61.280000000000769
 20
-125.0
 30
0.0
 11
61.28000000000084
 21
100.0
 31
0.0
  0
LINE
  5
205
100
AcDbEntity
100
AcDbLine
  8
0
 62
256
370
-1
 48
1.0
  6
ByLayer
 10
61.28000000000084
 20
100.0
 30
0.0
 11
68.000000000000895
 21
100.0
 31
0.0
  0
LINE
  5
206
100
AcDbEntity
100
AcDbLine
  8
0
 62
256
370
-1
 48
1.0
  6
ByLayer
 10
-27.779999999999859
 20
137.85999999999993
 30
0.0
 11
-27.779999999999802
 21
-68.660000000000082
 31
0.0
  0
LINE
  5
207
100
AcDbEntity
100
AcDbLine
  8
0
 62
256
370
-1
 48
1.0
  6
ByLayer
 10
-27.779999999999802
 20
-68.660000000000082
 30
0.0
 11
-11.259999999999806
 21
-68.660000000000082
 31
0.0
  0
LINE
  5
208
100
AcDbEntity
100
AcDbLine
  8
0
 62
256
370
-1
 48
1.0
  6
ByLayer
 10
-11.259999999999806
 20
-68.660000000000082
 30
0.0
 11
-11.259999999999806
 21
-61.940000000000083
 31
0.0
  0
LINE
  5
209
100
AcDbEntity
100
AcDbLine
  8
0
 62
256
370
-1
 48
1.0
  6
ByLayer
 10
-11.259999999999806
 20
-61.940000000000083
 30
0.0
 11
5.2600000000001899
 21
-61.940000000000083
 31
0.0
  0
LINE
  5
20A
100
AcDbEntity
100
AcDbLine
  8
0
 62
256
370
-1
 48
1.0
  6
ByLayer
 10
5.2600000000001899
 20
-61.940000000000083
 30
0.0
 11
5.2600000000001899
 21
-68.660000000000082
 31
0.0
  0
LINE
  5
20B
100
AcDbEntity
100
AcDbLine
  8
0
 62
256
370
-1
 48
1.0
  6
ByLayer
 10
5.2600000000001899
 20
-68.660000000000082
 30
0.0
 11
28.500000000000227
 21
-68.660000000000082
 31
0.0
  0
LINE
  5
20C
100
AcDbEntity
100
AcDbLine
  8
0
 62
256
370
-1
 48
1.0
  6
ByLayer
 10
21.779999999999639
 20
86.380000000000024
 30
0.0
 11
21.779999999999646
 21
71.380000000000024
 31
0.0
  0
LINE
  5
20D
100
AcDbEntity
100
AcDbLine
  8
0
 62
256
370
-1
 48
1.0
  6
ByLayer
 10
21.779999999999646
 20
71.380000000000024
 30
0.0
 11
15.05999999999964
 21
71.380000000000024
 31
0.0
  0
LINE
  5
20E
100
AcDbEntity
100
AcDbLine
  8
0
 62
256
370
-1
 48
1.0
  6
ByLayer
 10
15.05999999999964
 20
71.380000000000024
 30
0.0
 11
15.05999999999964
 21
86.380000000000024
 31
0.0
  0
LINE
  5
20F
100
AcDbEntity
100
AcDbLine
  8
0
 62
256
370
-1
 48
1.0
  6
ByLayer
 10
15.05999999999964
 20
86.380000000000024
 30
0.0
 11
21.779999999999639
 21
86.380000000000024
 31
0.0
  0
LINE
  5
210
100
AcDbEntity
100
AcDbLine
  8
0
 62
256
370
-1
 48
1.0
  6
ByLayer
 10
-31.83333333333303
 20
137.86000000000001
 30
0.0
 11
28.500000000000298
 21
137.86000000000001
 31
0.0
  0
LINE
  5
211
100
AcDbEntity
100
AcDbLine
  8
0
 62
256
370
-1
 48
1.0
  6
ByLayer
 10
28.500000000000341
 20
-111.55999999999977
 30
0.0
 11
28.500000000000227
 21
355.5
 31
0.0
  0
LINE
  5
212
100
AcDbEntity
100
AcDbLine
  8
0
 62
256
370
-1
 48
1.0
  6
ByLayer
 10
-152.49999999999977
 20
355.5
 30
0.0
 11
-152.49999999999966
 21
-111.55999999999977
 31
0.0
  0
LINE
  5
213
100
AcDbEntity
100
AcDbLine
  8
0
 62
256
370
-1
 48
1.0
  6
ByLayer
 10
-152.49999999999989
 20
137.86000000000001
 30
0.0
 11
-92.166666666666558
 21
137.86000000000001
 31
0.0
  0
LINE
  5
214
100
AcDbEntity
100
AcDbLine
  8
0
 62
256
370
-1
 48
1.0
  6
ByLayer
 10
-92.166666666666558
 20
137.86000000000001
 30
0.0
 11
-92.166666666666529
 21
131.13999999999999
 31
0.0
  0
LINE
  5
215
100
AcDbEntity
100
AcDbLine
  8
0
 62
256
370
-1
 48
1.0
  6
ByLayer
 10
-31.83333333333303
 20
131.14000000000001
 30
0.0
 11
-31.83333333333303
 21
137.86000000000001
 31
0.0
  0
ARC
  5
216
100
AcDbEntity
  8
0
 62
256
370
-1
 48
1.0
  6
ByLayer
100
AcDbCircle
 10
-38.719999999999558
 20
-92.219999999999857
 30
0.0
 40
1.5749999999999318
100
AcDbArc
 50
90.0
 51
270.0
  0
LINE
  5
217
100
AcDbEntity
100
AcDbLine
  8
0
 62
256
370
-1
 48
1.0
  6
ByLayer
 10
-38.719999999999558
 20
-90.644999999999925
 30
0.0
 11
-32.719999999999558
 21
-90.645000000000323
 31
0.0
  0
ARC
  5
218
100
AcDbEntity
  8
0
 62
256
370
-1
 48
1.0
  6
ByLayer
100
AcDbCircle
 10
-32.719999999999558
 20
-92.220000000000113
 30
0.0
 40
1.5749999999997897
100
AcDbArc
 50
270.0
 51
90.0
  0
LINE
  5
219
100
AcDbEntity
100
AcDbLine
  8
0
 62
256
370
-1
 48
1.0
  6
ByLayer
 10
-32.719999999999558
 20
-93.794999999999902
 30
0.0
 11
-38.719999999999558
 21
-93.794999999999789
 31
0.0
  0
LINE
  5
21A
100
AcDbEntity
100
AcDbLine
  8
0
 62
256
370
-1
 48
1.0
  6
ByLayer
 10
-185.27999999999966
 20
100.00000000000011
 30
0.0
 11
-185.27999999999955
 21
-124.99999999999989
 31
0.0
  0
LINE
  5
21B
100
AcDbEntity
100
AcDbLine
  8
0
 62
256
370
-1
 48
1.0
  6
ByLayer
 10
-191.99999999999977
 20
-125.0
 30
0.0
 11
-105.33333333333306
 21
-124.99999999999989
 31
0.0
  0
LINE
  5
21C
100
AcDbEntity
100
AcDbLine
  8
0
 62
256
370
-1
 48
1.0
  6
ByLayer
 10
-105.33333333333306
 20
-124.99999999999989
 30
0.0
 11
-105.33333333333306
 21
-118.27999999999986
 31
0.0
  0
LINE
  5
21D
100
AcDbEntity
100
AcDbLine
  8
0
 62
256
370
-1
 48
1.0
  6
ByLayer
 10
-105.33333333333306
 20
-118.27999999999986
 30
0.0
 11
-18.666666666666401
 21
-118.27999999999986
 31
0.0
  0
LINE
  5
21E
100
AcDbEntity
100
AcDbLine
  8
0
 62
256
370
-1
 48
1.0
  6
ByLayer
 10
68.000000000000341
 20
100.00000000000011
 30
0.0
 11
68.000000000000341
 21
395.0
 31
0.0
  0
LINE
  5
21F
100
AcDbEntity
100
AcDbLine
  8
0
 62
256
370
-1
 48
1.0
  6
ByLayer
 10
68.000000000000341
 20
395.0
 30
0.0
 11
-18.66666666666606
 21
395.0
 31
0.0
  0
LINE
  5
220
100
AcDbEntity
100
AcDbLine
  8
0
 62
256
370
-1
 48
1.0
  6
ByLayer
 10
-18.66666666666606
 20
395.0
 30
0.0
 11
-18.66666666666606
 21
388.28000000000003
 31
0.0
  0
LINE
  5
221
100
AcDbEntity
100
AcDbLine
  8
0
 62
256
370
-1
 48
1.0
  6
ByLayer
 10
-18.66666666666606
 20
388.28000000000003
 30
0.0
 11
-105.33333333333275
 21
388.28000000000003
 31
0.0
  0
LINE
  5
222
100
AcDbEntity
100
AcDbLine
  8
0
 62
256
370
-1
 48
1.0
  6
ByLayer
 10
-105.33333333333275
 20
388.28000000000003
 30
0.0
 11
-105.33333333333275
 21
395.0
 31
0.0
  0
LINE
  5
223
100
AcDbEntity
100
AcDbLine
  8
0
 62
256
370
-1
 48
1.0
  6
ByLayer
 10
-105.33333333333275
 20
395.0
 30
0.0
 11
-191.99999999999955
 21
395.0
 31
0.0
  0
LINE
  5
224
100
AcDbEntity
100
AcDbLine
  8
0
 62
256
370
-1
 48
1.0
  6
ByLayer
 10
-191.99999999999955
 20
395.0
 30
0.0
 11
-191.99999999999966
 21
100.00000000000011
 31
0.0
  0
LINE
  5
225
100
AcDbEntity
100
AcDbLine
  8
0
 62
256
370
-1
 48
1.0
  6
ByLayer
 10
-191.99999999999966
 20
100.00000000000011
 30
0.0
 11
-185.27999999999966
 21
100.00000000000011
 31
0.0
  0
LINE
  5
226
100
AcDbEntity
100
AcDbLine
  8
0
 62
256
370
-1
 48
1.0
  6
ByLayer
 10
-54.999999999999559
 20
-85.499999999999886
 30
0.0
 11
-54.999999999999559
 21
-88.499999999999773
 31
0.0
  0
ARC
  5
227
100
AcDbEntity
  8
0
 62
256
370
-1
 48
1.0
  6
ByLayer
100
AcDbCircle
 10
-61.999999999999552
 20
-88.499999999999829
 30
0.0
 40
6.9999999999999929
100
AcDbArc
 50
180.0
 51
0.0
  0
LINE
  5
228
100
AcDbEntity
100
AcDbLine
  8
0
 62
256
370
-1
 48
1.0
  6
ByLayer
 10
-68.999999999999545
 20
-88.499999999999886
 30
0.0
 11
-68.999999999999545
 21
-85.499999999999886
 31
0.0
  0
LINE
  5
229
100
AcDbEntity
100
AcDbLine
  8
0
 62
256
370
-1
 48
1.0
  6
ByLayer
 10
-68.999999999999545
 20
-85.499999999999886
 30
0.0
 11
-145.77999999999966
 21
-85.499999999999886
 31
0.0
  0
LINE
  5
22A
100
AcDbEntity
100
AcDbLine
  8
0
 62
256
370
-1
 48
1.0
  6
ByLayer
 10
-145.77999999999966
 20
-85.499999999999886
 30
0.0
 11
-145.77999999999966
 21
-111.55999999999977
 31
0.0
  0
LINE
  5
22B
100
AcDbEntity
100
AcDbLine
  8
0
 62
256
370
-1
 48
1.0
  6
ByLayer
 10
-145.77999999999966
 20
-111.55999999999977
 30
0.0
 11
-152.49999999999966
 21
-111.55999999999977
 31
0.0
  0
LINE
  5
22C
100
AcDbEntity
100
AcDbLine
  8
0
 62
256
370
-1
 48
1.0
  6
ByLayer
 10
-152.49999999999955
 20
100.00000000000011
 30
0.0
 11
-159.21999999999957
 21
100.00000000000011
 31
0.0
  0
LINE
  5
22D
100
AcDbEntity
100
AcDbLine
  8
0
 62
256
370
-1
 48
1.0
  6
ByLayer
 10
-159.21999999999957
 20
100.00000000000011
 30
0.0
 11
-159.21999999999957
 21
105.88000000000011
 31
0.0
  0
LINE
  5
22E
100
AcDbEntity
100
AcDbLine
  8
0
 62
256
370
-1
 48
1.0
  6
ByLayer
 10
-159.21999999999957
 20
105.88000000000011
 30
0.0
 11
-152.49999999999955
 21
105.88000000000011
 31
0.0
  0
LINE
  5
22F
100
AcDbEntity
100
AcDbLine
  8
0
 62
256
370
-1
 48
1.0
  6
ByLayer
 10
-152.49999999999955
 20
240.88000000000019
 30
0.0
 11
-155.64999999999966
 21
240.88000000000019
 31
0.0
  0
LINE
  5
230
100
AcDbEntity
100
AcDbLine
  8
0
 62
256
370
-1
 48
1.0
  6
ByLayer
 10
-155.64999999999966
 20
240.88000000000019
 30
0.0
 11
-155.64999999999966
 21
290.88000000000011
 31
0.0
  0
LINE
  5
231
100
AcDbEntity
100
AcDbLine
  8
0
 62
256
370
-1
 48
1.0
  6
ByLayer
 10
-155.64999999999966
 20
290.88000000000011
 30
0.0
 11
-152.49999999999955
 21
290.88000000000022
 31
0.0
  0
LINE
  5
232
100
AcDbEntity
100
AcDbLine
  8
0
 62
256
370
-1
 48
1.0
  6
ByLayer
 10
-152.49999999999955
 20
355.50000000000011
 30
0.0
 11
28.500000000000341
 21
355.50000000000011
 31
0.0
  0
LINE
  5
233
100
AcDbEntity
100
AcDbLine
  8
0
 62
256
370
-1
 48
1.0
  6
ByLayer
 10
28.500000000000341
 20
290.88000000000022
 30
0.0
 11
31.650000000000368
 21
290.88000000000011
 31
0.0
  0
LINE
  5
234
100
AcDbEntity
100
AcDbLine
  8
0
 62
256
370
-1
 48
1.0
  6
ByLayer
 10
31.650000000000368
 20
290.88000000000011
 30
0.0
 11
31.650000000000368
 21
240.88000000000019
 31
0.0
  0
LINE
  5
235
100
AcDbEntity
100
AcDbLine
  8
0
 62
256
370
-1
 48
1.0
  6
ByLayer
 10
31.650000000000368
 20
240.88000000000019
 30
0.0
 11
28.500000000000448
 21
240.88000000000019
 31
0.0
  0
LINE
  5
236
100
AcDbEntity
100
AcDbLine
  8
0
 62
256
370
-1
 48
1.0
  6
ByLayer
 10
28.500000000000341
 20
105.88000000000011
 30
0.0
 11
35.220000000000368
 21
105.88000000000011
 31
0.0
  0
LINE
  5
237
100
AcDbEntity
100
AcDbLine
  8
0
 62
256
370
-1
 48
1.0
  6
ByLayer
 10
35.220000000000368
 20
105.88000000000011
 30
0.0
 11
35.220000000000368
 21
100.00000000000011
 31
0.0
  0
LINE
  5
238
100
AcDbEntity
100
AcDbLine
  8
0
 62
256
370
-1
 48
1.0
  6
ByLayer
 10
35.220000000000368
 20
100.00000000000011
 30
0.0
 11
28.500000000000341
 21
100.00000000000011
 31
0.0
  0
LINE
  5
239
100
AcDbEntity
100
AcDbLine
  8
0
 62
256
370
-1
 48
1.0
  6
ByLayer
 10
28.500000000000341
 20
-111.55999999999977
 30
0.0
 11
21.780000000000371
 21
-111.55999999999977
 31
0.0
  0
LINE
  5
23A
100
AcDbEntity
100
AcDbLine
  8
0
 62
256
370
-1
 48
1.0
  6
ByLayer
 10
21.780000000000371
 20
-111.55999999999977
 30
0.0
 11
21.780000000000371
 21
-85.499999999999886
 31
0.0
  0
LINE
  5
23B
100
AcDbEntity
100
AcDbLine
  8
0
 62
256
370
-1
 48
1.0
  6
ByLayer
 10
21.780000000000371
 20
-85.499999999999886
 30
0.0
 11
-54.999999999999559
 21
-85.499999999999886
 31
0.0
  0
ARC
  5
23C
100
AcDbEntity
  8
0
 62
256
370
-1
 48
1.0
  6
ByLayer
100
AcDbCircle
 10
-85.279999999999546
 20
-92.219999999999857
 30
0.0
 40
1.5749999999999318
100
AcDbArc
 50
270.0
 51
90.0
  0
LINE
  5
23D
100
AcDbEntity
100
AcDbLine
  8
0
 62
256
370
-1
 48
1.0
  6
ByLayer
 10
-85.279999999999546
 20
-93.794999999999789
 30
0.0
 11
-91.27999999999966
 21
-93.795000000000186
 31
0.0
  0
ARC
  5
23E
100
AcDbEntity
  8
0
 62
256
370
-1
 48
1.0
  6
ByLayer
100
AcDbCircle
 10
-91.27999999999966
 20
-92.220000000000056
 30
0.0
 40
1.5750000000001307
100
AcDbArc
 50
90.0
 51
270.0
  0
LINE
  5
23F
100
AcDbEntity
100
AcDbLine
  8
0
 62
256
370
-1
 48
1.0
  6
ByLayer
 10
-91.27999999999966
 20
-90.644999999999925
 30
0.0
 11
-85.279999999999546
 21
-90.644999999999925
 31
0.0
  0
ARC
  5
240
100
AcDbEntity
  8
0
 62
256
370
-1
 48
1.0
  6
ByLayer
100
AcDbCircle
 10
142.23396282464134
 20
-300.65999999999963
 30
0.0
 40
3.0000000000000284
100
AcDbArc
 50
180.0
 51
0.0
  0
LINE
  5
241
100
AcDbEntity
100
AcDbLine
  8
0
 62
256
370
-1
 48
1.0
  6
ByLayer
 10
139.23396282464131
 20
-300.65999999999963
 30
0.0
 11
139.23396282464131
 21
-280.65999999999968
 31
0.0
  0
ARC
  5
242
100
AcDbEntity
  8
0
 62
256
370
-1
 48
1.0
  6
ByLayer
100
AcDbCircle
 10
142.23396282464137
 20
-280.65999999999963
 30
0.0
 40
3.0000000000000568
100
AcDbArc
 50
0.0
 51
180.0
  0
LINE
  5
243
100
AcDbEntity
100
AcDbLine
  8
0
 62
256
370
-1
 48
1.0
  6
ByLayer
 10
145.23396282464142
 20
-280.65999999999963
 30
0.0
 11
145.23396282464137
 21
-300.65999999999963
 31
0.0
  0
LINE
  5
244
100
AcDbEntity
100
AcDbLine
  8
0
 62
256
370
-1
 48
1.0
  6
ByLayer
 10
133.95396282464128
 20
-226.47999999999999
 30
0.0
 11
133.36603900574707
 21
-219.75999999999996
 31
0.0
  0
LINE
  5
245
100
AcDbEntity
100
AcDbLine
  8
0
 62
256
370
-1
 48
1.0
  6
ByLayer
 10
133.36603900574707
 20
-219.75999999999996
 30
0.0
 11
109.45396282464128
 21
-219.75999999999999
 31
0.0
  0
LINE
  5
246
100
AcDbEntity
100
AcDbLine
  8
0
 62
256
370
-1
 48
1.0
  6
ByLayer
 10
109.45396282464128
 20
-219.75999999999999
 30
0.0
 11
109.45396282464125
 21
-361.55999999999972
 31
0.0
  0
LINE
  5
247
100
AcDbEntity
100
AcDbLine
  8
0
 62
256
370
-1
 48
1.0
  6
ByLayer
 10
109.45396282464125
 20
-361.55999999999972
 30
0.0
 11
133.36603900574713
 21
-361.55999999999966
 31
0.0
  0
LINE
  5
248
100
AcDbEntity
100
AcDbLine
  8
0
 62
256
370
-1
 48
1.0
  6
ByLayer
 10
133.36603900574713
 20
-361.55999999999966
 30
0.0
 11
133.95396282464134
 21
-354.83999999999969
 31
0.0
  0
LINE
  5
249
100
AcDbEntity
100
AcDbLine
  8
0
 62
256
370
-1
 48
1.0
  6
ByLayer
 10
133.95396282464134
 20
-354.83999999999969
 30
0.0
 11
133.95396282464142
 21
-348.11999999999966
 31
0.0
  0
LINE
  5
24A
100
AcDbEntity
100
AcDbLine
  8
0
 62
256
370
-1
 48
1.0
  6
ByLayer
 10
133.95396282464142
 20
-348.11999999999966
 30
0.0
 11
140.67396282464142
 21
-348.11999999999961
 31
0.0
  0
LINE
  5
24B
100
AcDbEntity
100
AcDbLine
  8
0
 62
256
370
-1
 48
1.0
  6
ByLayer
 10
140.67396282464142
 20
-348.11999999999961
 30
0.0
 11
140.67396282464142
 21
-387.87999999999965
 31
0.0
  0
LINE
  5
24C
100
AcDbEntity
100
AcDbLine
  8
0
 62
256
370
-1
 48
1.0
  6
ByLayer
 10
140.67396282464142
 20
-387.87999999999965
 30
0.0
 11
162.95396282464134
 21
-387.87999999999965
 31
0.0
  0
LINE
  5
24D
100
AcDbEntity
100
AcDbLine
  8
0
 62
256
370
-1
 48
1.0
  6
ByLayer
 10
162.95396282464134
 20
-387.87999999999965
 30
0.0
 11
163.93481631588804
 21
-331.68694112108744
 31
0.0
  0
LINE
  5
24E
100
AcDbEntity
100
AcDbLine
  8
0
 62
256
370
-1
 48
1.0
  6
ByLayer
 10
163.93481631588804
 20
-331.68694112108744
 30
0.0
 11
158.95396282464134
 21
-331.5999999999998
 31
0.0
  0
LINE
  5
24F
100
AcDbEntity
100
AcDbLine
  8
0
 62
256
370
-1
 48
1.0
  6
ByLayer
 10
158.95396282464134
 20
-331.5999999999998
 30
0.0
 11
145.51396282464145
 21
-331.5999999999998
 31
0.0
  0
LINE
  5
250
100
AcDbEntity
100
AcDbLine
  8
0
 62
256
370
-1
 48
1.0
  6
ByLayer
 10
145.51396282464145
 20
-331.5999999999998
 30
0.0
 11
145.51396282464142
 21
-324.87999999999982
 31
0.0
  0
LINE
  5
251
100
AcDbEntity
100
AcDbLine
  8
0
 62
256
370
-1
 48
1.0
  6
ByLayer
 10
145.51396282464142
 20
-324.87999999999982
 30
0.0
 11
152.23396282464142
 21
-324.87999999999982
 31
0.0
  0
LINE
  5
252
100
AcDbEntity
100
AcDbLine
  8
0
 62
256
370
-1
 48
1.0
  6
ByLayer
 10
152.23396282464142
 20
-324.87999999999982
 30
0.0
 11
152.23396282464131
 21
-315.04833333333289
 31
0.0
  0
LINE
  5
253
100
AcDbEntity
100
AcDbLine
  8
0
 62
256
370
-1
 48
1.0
  6
ByLayer
 10
152.23396282464131
 20
-315.04833333333289
 30
0.0
 11
147.45396282464134
 21
-315.04833333333289
 31
0.0
  0
LINE
  5
254
100
AcDbEntity
100
AcDbLine
  8
0
 62
256
370
-1
 48
1.0
  6
ByLayer
 10
147.45396282464134
 20
-315.04833333333289
 30
0.0
 11
147.45396282464139
 21
-316.07333333333287
 31
0.0
  0
ARC
  5
255
100
AcDbEntity
  8
0
 62
256
370
-1
 48
1.0
  6
ByLayer
100
AcDbCircle
 10
147.45396282464139
 20
-316.32333333333287
 30
0.0
 40
0.25
100
AcDbArc
 50
180.0
 51
90.0
  0
LINE
  5
256
100
AcDbEntity
100
AcDbLine
  8
0
 62
256
370
-1
 48
1.0
  6
ByLayer
 10
147.20396282464139
 20
-316.32333333333287
 30
0.0
 11
145.20396282464131
 21
-316.32333333333287
 31
0.0
  0
ARC
  5
257
100
AcDbEntity
  8
0
 62
256
370
-1
 48
1.0
  6
ByLayer
100
AcDbCircle
 10
144.95396282464134
 20
-316.32333333333281
 30
0.0
 40
0.2499999999999716
100
AcDbArc
 50
89.999999999993491
 51
360.0
  0
LINE
  5
258
100
AcDbEntity
100
AcDbLine
  8
0
 62
256
370
-1
 48
1.0
  6
ByLayer
 10
144.95396282464137
 20
-316.07333333333287
 30
0.0
 11
144.95396282464131
 21
-315.04833333333289
 31
0.0
  0
LINE
  5
259
100
AcDbEntity
100
AcDbLine
  8
0
 62
256
370
-1
 48
1.0
  6
ByLayer
 10
144.95396282464131
 20
-315.04833333333289
 30
0.0
 11
143.95396282464128
 21
-315.04833333333289
 31
0.0
  0
LINE
  5
25A
100
AcDbEntity
100
AcDbLine
  8
0
 62
256
370
-1
 48
1.0
  6
ByLayer
 10
143.95396282464128
 20
-315.04833333333289
 30
0.0
 11
143.95396282464125
 21
-311.89833333333286
 31
0.0
  0
LINE
  5
25B
100
AcDbEntity
100
AcDbLine
  8
0
 62
256
370
-1
 48
1.0
  6
ByLayer
 10
143.95396282464125
 20
-311.89833333333286
 30
0.0
 11
144.95396282464139
 21
-311.89833333333286
 31
0.0
  0
LINE
  5
25C
100
AcDbEntity
100
AcDbLine
  8
0
 62
256
370
-1
 48
1.0
  6
ByLayer
 10
144.95396282464139
 20
-311.89833333333286
 30
0.0
 11
144.95396282464145
 21
-310.87333333333282
 31
0.0
  0
ARC
  5
25D
100
AcDbEntity
  8
0
 62
256
370
-1
 48
1.0
  6
ByLayer
100
AcDbCircle
 10
144.95396282464142
 20
-310.62333333333294
 30
0.0
 40
0.2499999999999147
100
AcDbArc
 50
0.0
 51
270.00000000000654
  0
LINE
  5
25E
100
AcDbEntity
100
AcDbLine
  8
0
 62
256
370
-1
 48
1.0
  6
ByLayer
 10
145.20396282464134
 20
-310.62333333333288
 30
0.0
 11
147.20396282464139
 21
-310.62333333333288
 31
0.0
  0
ARC
  5
25F
100
AcDbEntity
  8
0
 62
256
370
-1
 48
1.0
  6
ByLayer
100
AcDbCircle
 10
147.45396282464142
 20
-310.62333333333288
 30
0.0
 40
0.2500000000000284
100
AcDbArc
 50
270.00000000000654
 51
180.0
  0
LINE
  5
260
100
AcDbEntity
100
AcDbLine
  8
0
 62
256
370
-1
 48
1.0
  6
ByLayer
 10
147.45396282464145
 20
-310.87333333333288
 30
0.0
 11
147.45396282464134
 21
-311.89833333333286
 31
0.0
  0
LINE
  5
261
100
AcDbEntity
100
AcDbLine
  8
0
 62
256
370
-1
 48
1.0
  6
ByLayer
 10
147.45396282464134
 20
-311.89833333333286
 30
0.0
 11
152.23396282464131
 21
-311.89833333333291
 31
0.0
  0
LINE
  5
262
100
AcDbEntity
100
AcDbLine
  8
0
 62
256
370
-1
 48
1.0
  6
ByLayer
 10
152.23396282464131
 20
-311.89833333333291
 30
0.0
 11
152.23396282464137
 21
-302.06666666666649
 31
0.0
  0
LINE
  5
263
100
AcDbEntity
100
AcDbLine
  8
0
 62
256
370
-1
 48
1.0
  6
ByLayer
 10
152.23396282464137
 20
-302.06666666666649
 30
0.0
 11
158.95396282464139
 21
-302.06666666666644
 31
0.0
  0
LINE
  5
264
100
AcDbEntity
100
AcDbLine
  8
0
 62
256
370
-1
 48
1.0
  6
ByLayer
 10
158.95396282464139
 20
-302.06666666666644
 30
0.0
 11
158.95396282464139
 21
-279.25333333333316
 31
0.0
  0
LINE
  5
265
100
AcDbEntity
100
AcDbLine
  8
0
 62
256
370
-1
 48
1.0
  6
ByLayer
 10
158.95396282464139
 20
-279.25333333333316
 30
0.0
 11
152.2339628246414
 21
-279.25333333333316
 31
0.0
  0
LINE
  5
266
100
AcDbEntity
100
AcDbLine
  8
0
 62
256
370
-1
 48
1.0
  6
ByLayer
 10
152.2339628246414
 20
-279.25333333333316
 30
0.0
 11
152.23396282464137
 21
-269.42166666666651
 31
0.0
  0
LINE
  5
267
100
AcDbEntity
100
AcDbLine
  8
0
 62
256
370
-1
 48
1.0
  6
ByLayer
 10
152.23396282464137
 20
-269.42166666666651
 30
0.0
 11
147.45396282464137
 21
-269.42166666666651
 31
0.0
  0
LINE
  5
268
100
AcDbEntity
100
AcDbLine
  8
0
 62
256
370
-1
 48
1.0
  6
ByLayer
 10
147.45396282464137
 20
-269.42166666666651
 30
0.0
 11
147.45396282464137
 21
-270.44666666666649
 31
0.0
  0
ARC
  5
269
100
AcDbEntity
  8
0
 62
256
370
-1
 48
1.0
  6
ByLayer
100
AcDbCircle
 10
147.45396282464139
 20
-270.69666666666643
 30
0.0
 40
0.2499999999999573
100
AcDbArc
 50
180.0
 51
90.000000000006509
  0
LINE
  5
26A
100
AcDbEntity
100
AcDbLine
  8
0
 62
256
370
-1
 48
1.0
  6
ByLayer
 10
147.20396282464145
 20
-270.69666666666649
 30
0.0
 11
145.20396282464128
 21
-270.69666666666649
 31
0.0
  0
ARC
  5
26B
100
AcDbEntity
  8
0
 62
256
370
-1
 48
1.0
  6
ByLayer
100
AcDbCircle
 10
144.95396282464134
 20
-270.69666666666643
 30
0.0
 40
0.2499999999999431
100
AcDbArc
 50
89.999999999986969
 51
360.0
  0
LINE
  5
26C
100
AcDbEntity
100
AcDbLine
  8
0
 62
256
370
-1
 48
1.0
  6
ByLayer
 10
144.95396282464139
 20
-270.44666666666649
 30
0.0
 11
144.95396282464142
 21
-269.42166666666651
 31
0.0
  0
LINE
  5
26D
100
AcDbEntity
100
AcDbLine
  8
0
 62
256
370
-1
 48
1.0
  6
ByLayer
 10
144.95396282464142
 20
-269.42166666666651
 30
0.0
 11
143.95396282464131
 21
-269.42166666666651
 31
0.0
  0
LINE
  5
26E
100
AcDbEntity
100
AcDbLine
  8
0
 62
256
370
-1
 48
1.0
  6
ByLayer
 10
143.95396282464131
 20
-269.42166666666651
 30
0.0
 11
143.95396282464128
 21
-266.27166666666648
 31
0.0
  0
LINE
  5
26F
100
AcDbEntity
100
AcDbLine
  8
0
 62
256
370
-1
 48
1.0
  6
ByLayer
 10
143.95396282464128
 20
-266.27166666666648
 30
0.0
 11
144.95396282464139
 21
-266.27166666666653
 31
0.0
  0
LINE
  5
270
100
AcDbEntity
100
AcDbLine
  8
0
 62
256
370
-1
 48
1.0
  6
ByLayer
 10
144.95396282464139
 20
-266.27166666666653
 30
0.0
 11
144.95396282464139
 21
-265.2466666666665
 31
0.0
  0
ARC
  5
271
100
AcDbEntity
  8
0
 62
256
370
-1
 48
1.0
  6
ByLayer
100
AcDbCircle
 10
144.95396282464134
 20
-264.99666666666656
 30
0.0
 40
0.2499999999999289
100
AcDbArc
 50
0.0
 51
270.00000000001302
  0
LINE
  5
272
100
AcDbEntity
100
AcDbLine
  8
0
 62
256
370
-1
 48
1.0
  6
ByLayer
 10
145.20396282464125
 20
-264.9966666666665
 30
0.0
 11
147.20396282464142
 21
-264.99666666666644
 31
0.0
  0
ARC
  5
273
100
AcDbEntity
  8
0
 62
256
370
-1
 48
1.0
  6
ByLayer
100
AcDbCircle
 10
147.45396282464145
 20
-264.99666666666644
 30
0.0
 40
0.2500000000000284
100
AcDbArc
 50
269.99999999999346
 51
180.0
  0
LINE
  5
274
100
AcDbEntity
100
AcDbLine
  8
0
 62
256
370
-1
 48
1.0
  6
ByLayer
 10
147.45396282464142
 20
-265.2466666666665
 30
0.0
 11
147.45396282464139
 21
-266.27166666666648
 31
0.0
  0
LINE
  5
275
100
AcDbEntity
100
AcDbLine
  8
0
 62
256
370
-1
 48
1.0
  6
ByLayer
 10
147.45396282464139
 20
-266.27166666666648
 30
0.0
 11
152.23396282464137
 21
-266.27166666666648
 31
0.0
  0
LINE
  5
276
100
AcDbEntity
100
AcDbLine
  8
0
 62
256
370
-1
 48
1.0
  6
ByLayer
 10
152.23396282464137
 20
-266.27166666666648
 30
0.0
 11
152.23396282464134
 21
-256.43999999999983
 31
0.0
  0
LINE
  5
277
100
AcDbEntity
100
AcDbLine
  8
0
 62
256
370
-1
 48
1.0
  6
ByLayer
 10
152.23396282464134
 20
-256.43999999999983
 30
0.0
 11
145.5139628246414
 21
-256.43999999999983
 31
0.0
  0
LINE
  5
278
100
AcDbEntity
100
AcDbLine
  8
0
 62
256
370
-1
 48
1.0
  6
ByLayer
 10
145.5139628246414
 20
-256.43999999999983
 30
0.0
 11
145.51396282464137
 21
-249.71999999999983
 31
0.0
  0
LINE
  5
279
100
AcDbEntity
100
AcDbLine
  8
0
 62
256
370
-1
 48
1.0
  6
ByLayer
 10
145.51396282464137
 20
-249.71999999999983
 30
0.0
 11
158.95396282464125
 21
-249.71999999999986
 31
0.0
  0
LINE
  5
27A
100
AcDbEntity
100
AcDbLine
  8
0
 62
256
370
-1
 48
1.0
  6
ByLayer
 10
158.95396282464125
 20
-249.71999999999986
 30
0.0
 11
165.36360171088859
 21
-249.8318806629257
 31
0.0
  0
LINE
  5
27B
100
AcDbEntity
100
AcDbLine
  8
0
 62
256
370
-1
 48
1.0
  6
ByLayer
 10
165.36360171088859
 20
-249.8318806629257
 30
0.0
 11
166.34792564928239
 21
-193.4399999999996
 31
0.0
  0
LINE
  5
27C
100
AcDbEntity
100
AcDbLine
  8
0
 62
256
370
-1
 48
1.0
  6
ByLayer
 10
166.34792564928239
 20
-193.4399999999996
 30
0.0
 11
140.67396282464139
 21
-193.44000000000005
 31
0.0
  0
LINE
  5
27D
100
AcDbEntity
100
AcDbLine
  8
0
 62
256
370
-1
 48
1.0
  6
ByLayer
 10
140.67396282464139
 20
-193.44000000000005
 30
0.0
 11
140.67396282464142
 21
-233.19999999999999
 31
0.0
  0
LINE
  5
27E
100
AcDbEntity
100
AcDbLine
  8
0
 62
256
370
-1
 48
1.0
  6
ByLayer
 10
140.67396282464142
 20
-233.19999999999999
 30
0.0
 11
133.95396282464128
 21
-233.20000000000005
 31
0.0
  0
LINE
  5
27F
100
AcDbEntity
100
AcDbLine
  8
0
 62
256
370
-1
 48
1.0
  6
ByLayer
 10
133.95396282464128
 20
-233.20000000000005
 30
0.0
 11
133.95396282464128
 21
-226.47999999999999
 31
0.0
  0
ARC
  5
280
100
AcDbEntity
  8
0
 62
256
370
-1
 48
1.0
  6
ByLayer
100
AcDbCircle
 10
127.23396282464132
 20
-300.65999999999963
 30
0.0
 40
3.0000000000001279
100
AcDbArc
 50
180.0
 51
0.0
  0
LINE
  5
281
100
AcDbEntity
100
AcDbLine
  8
0
 62
256
370
-1
 48
1.0
  6
ByLayer
 10
124.2339628246412
 20
-300.65999999999968
 30
0.0
 11
124.23396282464142
 21
-280.65999999999968
 31
0.0
  0
ARC
  5
282
100
AcDbEntity
  8
0
 62
256
370
-1
 48
1.0
  6
ByLayer
100
AcDbCircle
 10
127.2339628246414
 20
-280.65999999999968
 30
0.0
 40
2.9999999999999716
100
AcDbArc
 50
0.0
 51
180.0
  0
LINE
  5
283
100
AcDbEntity
100
AcDbLine
  8
0
 62
256
370
-1
 48
1.0
  6
ByLayer
 10
130.23396282464137
 20
-280.65999999999968
 30
0.0
 11
130.23396282464145
 21
-300.65999999999963
 31
0.0
  0
ARC
  5
284
100
AcDbEntity
  8
0
 62
256
370
-1
 48
1.0
  6
ByLayer
100
AcDbCircle
 10
116.17396282464136
 20
-308.65999999999968
 30
0.0
 40
1.5749999999999673
100
AcDbArc
 50
180.0
 51
0.0
  0
LINE
  5
285
100
AcDbEntity
100
AcDbLine
  8
0
 62
256
370
-1
 48
1.0
  6
ByLayer
 10
114.59896282464139
 20
-308.65999999999968
 30
0.0
 11
114.59896282464135
 21
-272.65999999999968
 31
0.0
  0
ARC
  5
286
100
AcDbEntity
  8
0
 62
256
370
-1
 48
1.0
  6
ByLayer
100
AcDbCircle
 10
116.17396282464138
 20
-272.65999999999968
 30
0.0
 40
1.5750000000000313
100
AcDbArc
 50
0.0
 51
180.0
  0
LINE
  5
287
100
AcDbEntity
100
AcDbLine
  8
0
 62
256
370
-1
 48
1.0
  6
ByLayer
 10
117.74896282464141
 20
-272.65999999999968
 30
0.0
 11
117.74896282464132
 21
-308.65999999999968
 31
0.0
  0
ARC
  5
288
100
AcDbEntity
  8
0
 62
256
370
-1
 48
1.0
  6
ByLayer
100
AcDbCircle
 10
43.673962824641336
 20
-236.75999999999999
 30
0.0
 40
1.3499999999999943
100
AcDbArc
 50
180.0
 51
0.0
  0
LINE
  5
289
100
AcDbEntity
100
AcDbLine
  8
0
 62
256
370
-1
 48
1.0
  6
ByLayer
 10
45.02396282464133
 20
-236.75999999999999
 30
0.0
 11
45.02396282464133
 21
-236.66
 31
0.0
  0
ARC
  5
28A
100
AcDbEntity
  8
0
 62
256
370
-1
 48
1.0
  6
ByLayer
100
AcDbCircle
 10
43.673962824641336
 20
-236.66
 30
0.0
 40
1.3499999999999943
100
AcDbArc
 50
0.0
 51
180.0
  0
LINE
  5
28B
100
AcDbEntity
100
AcDbLine
  8
0
 62
256
370
-1
 48
1.0
  6
ByLayer
 10
42.323962824641342
 20
-236.66
 30
0.0
 11
42.323962824641342
 21
-236.75999999999999
 31
0.0
  0
ARC
  5
28C
100
AcDbEntity
  8
0
 62
256
370
-1
 48
1.0
  6
ByLayer
100
AcDbCircle
 10
34.173962824641336
 20
-236.66
 30
0.0
 40
1.3499999999999943
100
AcDbArc
 50
0.0
 51
180.0
  0
LINE
  5
28D
100
AcDbEntity
100
AcDbLine
  8
0
 62
256
370
-1
 48
1.0
  6
ByLayer
 10
32.823962824641342
 20
-236.66
 30
0.0
 11
32.823962824641342
 21
-236.75999999999999
 31
0.0
  0
ARC
  5
28E
100
AcDbEntity
  8
0
 62
256
370
-1
 48
1.0
  6
ByLayer
100
AcDbCircle
 10
34.173962824641336
 20
-236.75999999999999
 30
0.0
 40
1.3499999999999943
100
AcDbArc
 50
180.0
 51
0.0
  0
LINE
  5
28F
100
AcDbEntity
100
AcDbLine
  8
0
 62
256
370
-1
 48
1.0
  6
ByLayer
 10
35.52396282464133
 20
-236.75999999999999
 30
0.0
 11
35.52396282464133
 21
-236.66
 31
0.0
  0
LINE
  5
290
100
AcDbEntity
100
AcDbLine
  8
0
 62
256
370
-1
 48
1.0
  6
ByLayer
 10
-117.90103717535865
 20
-219.75999999999999
 30
0.0
 11
-117.90103717535865
 21
-224.53999999999999
 31
0.0
  0
LINE
  5
291
100
AcDbEntity
100
AcDbLine
  8
0
 62
256
370
-1
 48
1.0
  6
ByLayer
 10
-117.90103717535865
 20
-224.53999999999999
 30
0.0
 11
-118.92603717535864
 21
-224.53999999999999
 31
0.0
  0
ARC
  5
292
100
AcDbEntity
  8
0
 62
256
370
-1
 48
1.0
  6
ByLayer
100
AcDbCircle
 10
-119.17603717535866
 20
-224.53999999999999
 30
0.0
 40
0.2500000000000093
100
AcDbArc
 50
0.0
 51
270.0
  0
LINE
  5
293
100
AcDbEntity
100
AcDbLine
  8
0
 62
256
370
-1
 48
1.0
  6
ByLayer
 10
-119.17603717535866
 20
-224.78999999999999
 30
0.0
 11
-119.17603717535866
 21
-226.78999999999999
 31
0.0
  0
ARC
  5
294
100
AcDbEntity
  8
0
 62
256
370
-1
 48
1.0
  6
ByLayer
100
AcDbCircle
 10
-119.17603717535866
 20
-227.03999999999999
 30
0.0
 40
0.2500000000000071
100
AcDbArc
 50
90.0
 51
0.0
  0
LINE
  5
295
100
AcDbEntity
100
AcDbLine
  8
0
 62
256
370
-1
 48
1.0
  6
ByLayer
 10
-118.92603717535864
 20
-227.03999999999999
 30
0.0
 11
-117.90103717535865
 21
-227.03999999999999
 31
0.0
  0
LINE
  5
296
100
AcDbEntity
100
AcDbLine
  8
0
 62
256
370
-1
 48
1.0
  6
ByLayer
 10
-117.90103717535865
 20
-227.03999999999999
 30
0.0
 11
-117.90103717535865
 21
-228.03999999999999
 31
0.0
  0
LINE
  5
297
100
AcDbEntity
100
AcDbLine
  8
0
 62
256
370
-1
 48
1.0
  6
ByLayer
 10
-117.90103717535865
 20
-228.03999999999999
 30
0.0
 11
-114.75103717535865
 21
-228.03999999999999
 31
0.0
  0
LINE
  5
298
100
AcDbEntity
100
AcDbLine
  8
0
 62
256
370
-1
 48
1.0
  6
ByLayer
 10
-114.75103717535865
 20
-228.03999999999999
 30
0.0
 11
-114.75103717535865
 21
-227.03999999999999
 31
0.0
  0
LINE
  5
299
100
AcDbEntity
100
AcDbLine
  8
0
 62
256
370
-1
 48
1.0
  6
ByLayer
 10
-114.75103717535865
 20
-227.03999999999999
 30
0.0
 11
-113.72603717535867
 21
-227.03999999999999
 31
0.0
  0
ARC
  5
29A
100
AcDbEntity
  8
0
 62
256
370
-1
 48
1.0
  6
ByLayer
100
AcDbCircle
 10
-113.47603717535867
 20
-227.03999999999999
 30
0.0
 40
0.25
100
AcDbArc
 50
180.0
 51
90.0
  0
LINE
  5
29B
100
AcDbEntity
100
AcDbLine
  8
0
 62
256
370
-1
 48
1.0
  6
ByLayer
 10
-113.47603717535867
 20
-226.78999999999999
 30
0.0
 11
-113.47603717535867
 21
-224.78999999999999
 31
0.0
  0
ARC
  5
29C
100
AcDbEntity
  8
0
 62
256
370
-1
 48
1.0
  6
ByLayer
100
AcDbCircle
 10
-113.47603717535867
 20
-224.53999999999999
 30
0.0
 40
0.25
100
AcDbArc
 50
270.0
 51
180.0
  0
LINE
  5
29D
100
AcDbEntity
100
AcDbLine
  8
0
 62
256
370
-1
 48
1.0
  6
ByLayer
 10
-113.72603717535867
 20
-224.53999999999999
 30
0.0
 11
-114.75103717535865
 21
-224.53999999999999
 31
0.0
  0
LINE
  5
29E
100
AcDbEntity
100
AcDbLine
  8
0
 62
256
370
-1
 48
1.0
  6
ByLayer
 10
-114.75103717535865
 20
-224.53999999999999
 30
0.0
 11
-114.75103717535865
 21
-219.75999999999999
 31
0.0
  0
LINE
  5
29F
100
AcDbEntity
100
AcDbLine
  8
0
 62
256
370
-1
 48
1.0
  6
ByLayer
 10
-114.75103717535865
 20
-219.75999999999999
 30
0.0
 11
-69.576037175358664
 21
-219.75999999999999
 31
0.0
  0
LINE
  5
2A0
100
AcDbEntity
100
AcDbLine
  8
0
 62
256
370
-1
 48
1.0
  6
ByLayer
 10
-69.576037175358664
 20
-219.75999999999999
 30
0.0
 11
-69.576037175358664
 21
-213.03999999999999
 31
0.0
  0
LINE
  5
2A1
100
AcDbEntity
100
AcDbLine
  8
0
 62
256
370
-1
 48
1.0
  6
ByLayer
 10
-69.576037175358664
 20
-213.03999999999999
 30
0.0
 11
-59.576037175358664
 21
-213.03999999999999
 31
0.0
  0
LINE
  5
2A2
100
AcDbEntity
100
AcDbLine
  8
0
 62
256
370
-1
 48
1.0
  6
ByLayer
 10
-59.576037175358664
 20
-213.03999999999999
 30
0.0
 11
-59.576037175358664
 21
-219.75999999999999
 31
0.0
  0
LINE
  5
2A3
100
AcDbEntity
100
AcDbLine
  8
0
 62
256
370
-1
 48
1.0
  6
ByLayer
 10
-59.576037175358664
 20
-219.75999999999999
 30
0.0
 11
-48.90103717535861
 21
-219.75999999999999
 31
0.0
  0
LINE
  5
2A4
100
AcDbEntity
100
AcDbLine
  8
0
 62
256
370
-1
 48
1.0
  6
ByLayer
 10
-48.90103717535861
 20
-219.75999999999999
 30
0.0
 11
-48.90103717535861
 21
-224.53999999999999
 31
0.0
  0
LINE
  5
2A5
100
AcDbEntity
100
AcDbLine
  8
0
 62
256
370
-1
 48
1.0
  6
ByLayer
 10
-48.90103717535861
 20
-224.53999999999999
 30
0.0
 11
-49.926037175358644
 21
-224.53999999999999
 31
0.0
  0
ARC
  5
2A6
100
AcDbEntity
  8
0
 62
256
370
-1
 48
1.0
  6
ByLayer
100
AcDbCircle
 10
-50.176037175358644
 20
-224.53999999999999
 30
0.0
 40
0.2500000000000022
100
AcDbArc
 50
0.0
 51
270.0
  0
LINE
  5
2A7
100
AcDbEntity
100
AcDbLine
  8
0
 62
256
370
-1
 48
1.0
  6
ByLayer
 10
-50.176037175358644
 20
-224.78999999999999
 30
0.0
 11
-50.176037175358644
 21
-226.78999999999999
 31
0.0
  0
ARC
  5
2A8
100
AcDbEntity
  8
0
 62
256
370
-1
 48
1.0
  6
ByLayer
100
AcDbCircle
 10
-50.176037175358644
 20
-227.03999999999999
 30
0.0
 40
0.25
100
AcDbArc
 50
90.0
 51
0.0
  0
LINE
  5
2A9
100
AcDbEntity
100
AcDbLine
  8
0
 62
256
370
-1
 48
1.0
  6
ByLayer
 10
-49.926037175358644
 20
-227.03999999999999
 30
0.0
 11
-48.90103717535861
 21
-227.03999999999999
 31
0.0
  0
LINE
  5
2AA
100
AcDbEntity
100
AcDbLine
  8
0
 62
256
370
-1
 48
1.0
  6
ByLayer
 10
-48.90103717535861
 20
-227.03999999999999
 30
0.0
 11
-48.90103717535861
 21
-228.03999999999999
 31
0.0
  0
LINE
  5
2AB
100
AcDbEntity
100
AcDbLine
  8
0
 62
256
370
-1
 48
1.0
  6
ByLayer
 10
-48.90103717535861
 20
-228.03999999999999
 30
0.0
 11
-45.751037175358647
 21
-228.03999999999999
 31
0.0
  0
LINE
  5
2AC
100
AcDbEntity
100
AcDbLine
  8
0
 62
256
370
-1
 48
1.0
  6
ByLayer
 10
-45.751037175358647
 20
-228.03999999999999
 30
0.0
 11
-45.751037175358647
 21
-227.03999999999999
 31
0.0
  0
LINE
  5
2AD
100
AcDbEntity
100
AcDbLine
  8
0
 62
256
370
-1
 48
1.0
  6
ByLayer
 10
-45.751037175358647
 20
-227.03999999999999
 30
0.0
 11
-44.726037175358641
 21
-227.03999999999999
 31
0.0
  0
ARC
  5
2AE
100
AcDbEntity
  8
0
 62
256
370
-1
 48
1.0
  6
ByLayer
100
AcDbCircle
 10
-44.476037175358641
 20
-227.03999999999999
 30
0.0
 40
0.25
100
AcDbArc
 50
180.0
 51
90.0
  0
LINE
  5
2AF
100
AcDbEntity
100
AcDbLine
  8
0
 62
256
370
-1
 48
1.0
  6
ByLayer
 10
-44.476037175358641
 20
-226.78999999999999
 30
0.0
 11
-44.476037175358641
 21
-224.78999999999999
 31
0.0
  0
ARC
  5
2B0
100
AcDbEntity
  8
0
 62
256
370
-1
 48
1.0
  6
ByLayer
100
AcDbCircle
 10
-44.476037175358641
 20
-224.53999999999999
 30
0.0
 40
0.25
100
AcDbArc
 50
270.0
 51
180.0
  0
LINE
  5
2B1
100
AcDbEntity
100
AcDbLine
  8
0
 62
256
370
-1
 48
1.0
  6
ByLayer
 10
-44.726037175358641
 20
-224.53999999999999
 30
0.0
 11
-45.751037175358647
 21
-224.53999999999999
 31
0.0
  0
LINE
  5
2B2
100
AcDbEntity
100
AcDbLine
  8
0
 62
256
370
-1
 48
1.0
  6
ByLayer
 10
-45.751037175358647
 20
-224.53999999999999
 30
0.0
 11
-45.751037175358647
 21
-219.75999999999999
 31
0.0
  0
LINE
  5
2B3
100
AcDbEntity
100
AcDbLine
  8
0
 62
256
370
-1
 48
1.0
  6
ByLayer
 10
-45.751037175358647
 20
-219.75999999999999
 30
0.0
 11
-17.826037175358664
 21
-219.75999999999999
 31
0.0
  0
LINE
  5
2B4
100
AcDbEntity
100
AcDbLine
  8
0
 62
256
370
-1
 48
1.0
  6
ByLayer
 10
-17.826037175358664
 20
-219.75999999999999
 30
0.0
 11
-17.826037175358664
 21
-213.03999999999999
 31
0.0
  0
LINE
  5
2B5
100
AcDbEntity
100
AcDbLine
  8
0
 62
256
370
-1
 48
1.0
  6
ByLayer
 10
-17.826037175358664
 20
-213.03999999999999
 30
0.0
 11
-7.8260371753586639
 21
-213.03999999999999
 31
0.0
  0
LINE
  5
2B6
100
AcDbEntity
100
AcDbLine
  8
0
 62
256
370
-1
 48
1.0
  6
ByLayer
 10
-7.8260371753586639
 20
-213.03999999999999
 30
0.0
 11
-7.8260371753586639
 21
-219.75999999999999
 31
0.0
  0
LINE
  5
2B7
100
AcDbEntity
100
AcDbLine
  8
0
 62
256
370
-1
 48
1.0
  6
ByLayer
 10
-7.8260371753586639
 20
-219.75999999999999
 30
0.0
 11
20.098962824641347
 21
-219.75999999999999
 31
0.0
  0
LINE
  5
2B8
100
AcDbEntity
100
AcDbLine
  8
0
 62
256
370
-1
 48
1.0
  6
ByLayer
 10
20.098962824641347
 20
-219.75999999999999
 30
0.0
 11
20.098962824641347
 21
-224.53999999999999
 31
0.0
  0
LINE
  5
2B9
100
AcDbEntity
100
AcDbLine
  8
0
 62
256
370
-1
 48
1.0
  6
ByLayer
 10
20.098962824641347
 20
-224.53999999999999
 30
0.0
 11
19.073962824641342
 21
-224.53999999999999
 31
0.0
  0
ARC
  5
2BA
100
AcDbEntity
  8
0
 62
256
370
-1
 48
1.0
  6
ByLayer
100
AcDbCircle
 10
18.823962824641338
 20
-224.53999999999999
 30
0.0
 40
0.2500000000000022
100
AcDbArc
 50
0.0
 51
270.0000000000008
  0
LINE
  5
2BB
100
AcDbEntity
100
AcDbLine
  8
0
 62
256
370
-1
 48
1.0
  6
ByLayer
 10
18.823962824641342
 20
-224.78999999999999
 30
0.0
 11
18.823962824641342
 21
-226.78999999999999
 31
0.0
  0
ARC
  5
2BC
100
AcDbEntity
  8
0
 62
256
370
-1
 48
1.0
  6
ByLayer
100
AcDbCircle
 10
18.823962824641342
 20
-227.03999999999999
 30
0.0
 40
0.25
100
AcDbArc
 50
90.0
 51
0.0
  0
LINE
  5
2BD
100
AcDbEntity
100
AcDbLine
  8
0
 62
256
370
-1
 48
1.0
  6
ByLayer
 10
19.073962824641342
 20
-227.03999999999999
 30
0.0
 11
20.098962824641347
 21
-227.03999999999999
 31
0.0
  0
LINE
  5
2BE
100
AcDbEntity
100
AcDbLine
  8
0
 62
256
370
-1
 48
1.0
  6
ByLayer
 10
20.098962824641347
 20
-227.03999999999999
 30
0.0
 11
20.098962824641347
 21
-228.03999999999999
 31
0.0
  0
LINE
  5
2BF
100
AcDbEntity
100
AcDbLine
  8
0
 62
256
370
-1
 48
1.0
  6
ByLayer
 10
20.098962824641347
 20
-228.03999999999999
 30
0.0
 11
23.248962824641325
 21
-228.03999999999999
 31
0.0
  0
LINE
  5
2C0
100
AcDbEntity
100
AcDbLine
  8
0
 62
256
370
-1
 48
1.0
  6
ByLayer
 10
23.248962824641325
 20
-228.03999999999999
 30
0.0
 11
23.248962824641325
 21
-227.03999999999999
 31
0.0
  0
LINE
  5
2C1
100
AcDbEntity
100
AcDbLine
  8
0
 62
256
370
-1
 48
1.0
  6
ByLayer
 10
23.248962824641325
 20
-227.03999999999999
 30
0.0
 11
24.27396282464133
 21
-227.03999999999999
 31
0.0
  0
ARC
  5
2C2
100
AcDbEntity
  8
0
 62
256
370
-1
 48
1.0
  6
ByLayer
100
AcDbCircle
 10
24.52396282464133
 20
-227.03999999999999
 30
0.0
 40
0.25
100
AcDbArc
 50
180.0
 51
90.0
  0
LINE
  5
2C3
100
AcDbEntity
100
AcDbLine
  8
0
 62
256
370
-1
 48
1.0
  6
ByLayer
 10
24.52396282464133
 20
-226.78999999999999
 30
0.0
 11
24.52396282464133
 21
-224.78999999999999
 31
0.0
  0
ARC
  5
2C4
100
AcDbEntity
  8
0
 62
256
370
-1
 48
1.0
  6
ByLayer
100
AcDbCircle
 10
24.52396282464133
 20
-224.53999999999999
 30
0.0
 40
0.25
100
AcDbArc
 50
270.0
 51
180.0
  0
LINE
  5
2C5
100
AcDbEntity
100
AcDbLine
  8
0
 62
256
370
-1
 48
1.0
  6
ByLayer
 10
24.27396282464133
 20
-224.53999999999999
 30
0.0
 11
23.248962824641325
 21
-224.53999999999999
 31
0.0
  0
LINE
  5
2C6
100
AcDbEntity
100
AcDbLine
  8
0
 62
256
370
-1
 48
1.0
  6
ByLayer
 10
23.248962824641325
 20
-224.53999999999999
 30
0.0
 11
23.248962824641325
 21
-219.75999999999999
 31
0.0
  0
LINE
  5
2C7
100
AcDbEntity
100
AcDbLine
  8
0
 62
256
370
-1
 48
1.0
  6
ByLayer
 10
23.248962824641325
 20
-219.75999999999999
 30
0.0
 11
33.923962824641336
 21
-219.75999999999999
 31
0.0
  0
LINE
  5
2C8
100
AcDbEntity
100
AcDbLine
  8
0
 62
256
370
-1
 48
1.0
  6
ByLayer
 10
33.923962824641336
 20
-219.75999999999999
 30
0.0
 11
33.923962824641336
 21
-213.03999999999999
 31
0.0
  0
LINE
  5
2C9
100
AcDbEntity
100
AcDbLine
  8
0
 62
256
370
-1
 48
1.0
  6
ByLayer
 10
33.923962824641336
 20
-213.03999999999999
 30
0.0
 11
43.923962824641336
 21
-213.03999999999999
 31
0.0
  0
LINE
  5
2CA
100
AcDbEntity
100
AcDbLine
  8
0
 62
256
370
-1
 48
1.0
  6
ByLayer
 10
43.923962824641336
 20
-213.03999999999999
 30
0.0
 11
43.923962824641336
 21
-219.75999999999999
 31
0.0
  0
LINE
  5
2CB
100
AcDbEntity
100
AcDbLine
  8
0
 62
256
370
-1
 48
1.0
  6
ByLayer
 10
43.923962824641336
 20
-219.75999999999999
 30
0.0
 11
89.098962824641347
 21
-219.75999999999999
 31
0.0
  0
LINE
  5
2CC
100
AcDbEntity
100
AcDbLine
  8
0
 62
256
370
-1
 48
1.0
  6
ByLayer
 10
89.098962824641347
 20
-219.75999999999999
 30
0.0
 11
89.098962824641347
 21
-224.53999999999999
 31
0.0
  0
LINE
  5
2CD
100
AcDbEntity
100
AcDbLine
  8
0
 62
256
370
-1
 48
1.0
  6
ByLayer
 10
89.098962824641347
 20
-224.53999999999999
 30
0.0
 11
88.073962824641427
 21
-224.53999999999999
 31
0.0
  0
ARC
  5
2CE
100
AcDbEntity
  8
0
 62
256
370
-1
 48
1.0
  6
ByLayer
100
AcDbCircle
 10
87.823962824641384
 20
-224.53999999999994
 30
0.0
 40
0.2500000000000449
100
AcDbArc
 50
360.0
 51
269.99999999999022
  0
LINE
  5
2CF
100
AcDbEntity
100
AcDbLine
  8
0
 62
256
370
-1
 48
1.0
  6
ByLayer
 10
87.823962824641342
 20
-224.78999999999999
 30
0.0
 11
87.823962824641342
 21
-226.78999999999999
 31
0.0
  0
ARC
  5
2D0
100
AcDbEntity
  8
0
 62
256
370
-1
 48
1.0
  6
ByLayer
100
AcDbCircle
 10
87.823962824641342
 20
-227.03999999999999
 30
0.0
 40
0.25
100
AcDbArc
 50
90.0
 51
0.0
  0
LINE
  5
2D1
100
AcDbEntity
100
AcDbLine
  8
0
 62
256
370
-1
 48
1.0
  6
ByLayer
 10
88.073962824641342
 20
-227.03999999999999
 30
0.0
 11
89.098962824641347
 21
-227.03999999999999
 31
0.0
  0
LINE
  5
2D2
100
AcDbEntity
100
AcDbLine
  8
0
 62
256
370
-1
 48
1.0
  6
ByLayer
 10
89.098962824641347
 20
-227.03999999999999
 30
0.0
 11
89.098962824641347
 21
-228.03999999999999
 31
0.0
  0
LINE
  5
2D3
100
AcDbEntity
100
AcDbLine
  8
0
 62
256
370
-1
 48
1.0
  6
ByLayer
 10
89.098962824641347
 20
-228.03999999999999
 30
0.0
 11
92.248962824641325
 21
-228.03999999999999
 31
0.0
  0
LINE
  5
2D4
100
AcDbEntity
100
AcDbLine
  8
0
 62
256
370
-1
 48
1.0
  6
ByLayer
 10
92.248962824641325
 20
-228.03999999999999
 30
0.0
 11
92.248962824641325
 21
-227.03999999999999
 31
0.0
  0
LINE
  5
2D5
100
AcDbEntity
100
AcDbLine
  8
0
 62
256
370
-1
 48
1.0
  6
ByLayer
 10
92.248962824641325
 20
-227.03999999999999
 30
0.0
 11
93.27396282464133
 21
-227.03999999999999
 31
0.0
  0
ARC
  5
2D6
100
AcDbEntity
  8
0
 62
256
370
-1
 48
1.0
  6
ByLayer
100
AcDbCircle
 10
93.52396282464133
 20
-227.03999999999999
 30
0.0
 40
0.25
100
AcDbArc
 50
180.0
 51
90.0
  0
LINE
  5
2D7
100
AcDbEntity
100
AcDbLine
  8
0
 62
256
370
-1
 48
1.0
  6
ByLayer
 10
93.52396282464133
 20
-226.78999999999999
 30
0.0
 11
93.52396282464133
 21
-224.78999999999999
 31
0.0
  0
ARC
  5
2D8
100
AcDbEntity
  8
0
 62
256
370
-1
 48
1.0
  6
ByLayer
100
AcDbCircle
 10
93.523962824641387
 20
-224.54000000000005
 30
0.0
 40
0.2499999999999431
100
AcDbArc
 50
269.99999999998698
 51
180.0
  0
LINE
  5
2D9
100
AcDbEntity
100
AcDbLine
  8
0
 62
256
370
-1
 48
1.0
  6
ByLayer
 10
93.273962824641444
 20
-224.53999999999999
 30
0.0
 11
92.248962824641325
 21
-224.53999999999999
 31
0.0
  0
LINE
  5
2DA
100
AcDbEntity
100
AcDbLine
  8
0
 62
256
370
-1
 48
1.0
  6
ByLayer
 10
92.248962824641325
 20
-224.53999999999999
 30
0.0
 11
92.248962824641325
 21
-219.75999999999999
 31
0.0
  0
LINE
  5
2DB
100
AcDbEntity
100
AcDbLine
  8
0
 62
256
370
-1
 48
1.0
  6
ByLayer
 10
92.248962824641325
 20
-219.75999999999999
 30
0.0
 11
109.45396282464134
 21
-219.75999999999999
 31
0.0
  0
LINE
  5
2DC
100
AcDbEntity
100
AcDbLine
  8
0
 62
256
370
-1
 48
1.0
  6
ByLayer
 10
109.45396282464134
 20
-244.75999999999999
 30
0.0
 11
-135.10603717535867
 21
-244.75999999999999
 31
0.0
  0
LINE
  5
2DD
100
AcDbEntity
100
AcDbLine
  8
0
 62
256
370
-1
 48
1.0
  6
ByLayer
 10
-135.10603717535867
 20
-219.75999999999999
 30
0.0
 11
-117.90103717535865
 21
-219.75999999999999
 31
0.0
  0
LINE
  5
2DE
100
AcDbEntity
100
AcDbLine
  8
0
 62
256
370
-1
 48
1.0
  6
ByLayer
 10
57.673962824641251
 20
-260.26000000000005
 30
0.0
 11
57.673962824641251
 21
-244.76000000000025
 31
0.0
  0
LINE
  5
2DF
100
AcDbEntity
100
AcDbLine
  8
0
 62
256
370
-1
 48
1.0
  6
ByLayer
 10
-83.326037175358749
 20
-244.76000000000002
 30
0.0
 11
-83.326037175358763
 21
-260.25999999999999
 31
0.0
  0
LINE
  5
2E0
100
AcDbEntity
100
AcDbLine
  8
0
 62
256
370
-1
 48
1.0
  6
ByLayer
 10
-83.326037175358763
 20
-260.25999999999999
 30
0.0
 11
-135.10603717535867
 21
-260.25999999999999
 31
0.0
  0
LINE
  5
2E1
100
AcDbEntity
100
AcDbLine
  8
0
 62
256
370
-1
 48
1.0
  6
ByLayer
 10
-135.10603717535867
 20
-320.25999999999999
 30
0.0
 11
-83.326037175358763
 21
-320.25999999999999
 31
0.0
  0
LINE
  5
2E2
100
AcDbEntity
100
AcDbLine
  8
0
 62
256
370
-1
 48
1.0
  6
ByLayer
 10
-83.326037175358763
 20
-320.25999999999999
 30
0.0
 11
-83.326037175358763
 21
-335.75999999999999
 31
0.0
  0
LINE
  5
2E3
100
AcDbEntity
100
AcDbLine
  8
0
 62
256
370
-1
 48
1.0
  6
ByLayer
 10
57.673962824641194
 20
-335.76000000000005
 30
0.0
 11
57.673962824641251
 21
-320.25999999999988
 31
0.0
  0
LINE
  5
2E4
100
AcDbEntity
100
AcDbLine
  8
0
 62
256
370
-1
 48
1.0
  6
ByLayer
 10
57.673962824641251
 20
-320.25999999999988
 30
0.0
 11
109.45396282464122
 21
-320.25999999999999
 31
0.0
  0
LINE
  5
2E5
100
AcDbEntity
100
AcDbLine
  8
0
 62
256
370
-1
 48
1.0
  6
ByLayer
 10
109.45396282464122
 20
-260.26000000000005
 30
0.0
 11
57.673962824641251
 21
-260.26000000000005
 31
0.0
  0
LINE
  5
2E6
100
AcDbEntity
100
AcDbLine
  8
0
 62
256
370
-1
 48
1.0
  6
ByLayer
 10
33.923962824641194
 20
-320.2600000000001
 30
0.0
 11
33.923962824641251
 21
-313.54000000000002
 31
0.0
  0
LINE
  5
2E7
100
AcDbEntity
100
AcDbLine
  8
0
 62
256
370
-1
 48
1.0
  6
ByLayer
 10
33.923962824641251
 20
-313.54000000000002
 30
0.0
 11
43.923962824641279
 21
-313.53999999999991
 31
0.0
  0
LINE
  5
2E8
100
AcDbEntity
100
AcDbLine
  8
0
 62
256
370
-1
 48
1.0
  6
ByLayer
 10
43.923962824641279
 20
-313.53999999999991
 30
0.0
 11
43.923962824641251
 21
-320.25999999999999
 31
0.0
  0
LINE
  5
2E9
100
AcDbEntity
100
AcDbLine
  8
0
 62
256
370
-1
 48
1.0
  6
ByLayer
 10
43.923962824641251
 20
-320.25999999999999
 30
0.0
 11
33.923962824641194
 21
-320.2600000000001
 31
0.0
  0
LINE
  5
2EA
100
AcDbEntity
100
AcDbLine
  8
0
 62
256
370
-1
 48
1.0
  6
ByLayer
 10
-7.8260371753587918
 20
-313.54000000000008
 30
0.0
 11
-7.8260371753587776
 21
-320.26000000000005
 31
0.0
  0
LINE
  5
2EB
100
AcDbEntity
100
AcDbLine
  8
0
 62
256
370
-1
 48
1.0
  6
ByLayer
 10
-7.8260371753587776
 20
-320.26000000000005
 30
0.0
 11
-17.826037175358778
 21
-320.25999999999993
 31
0.0
  0
LINE
  5
2EC
100
AcDbEntity
100
AcDbLine
  8
0
 62
256
370
-1
 48
1.0
  6
ByLayer
 10
-17.826037175358778
 20
-320.25999999999993
 30
0.0
 11
-17.826037175358749
 21
-313.53999999999996
 31
0.0
  0
LINE
  5
2ED
100
AcDbEntity
100
AcDbLine
  8
0
 62
256
370
-1
 48
1.0
  6
ByLayer
 10
-17.826037175358749
 20
-313.53999999999996
 30
0.0
 11
-7.8260371753587918
 21
-313.54000000000008
 31
0.0
  0
LINE
  5
2EE
100
AcDbEntity
100
AcDbLine
  8
0
 62
256
370
-1
 48
1.0
  6
ByLayer
 10
-59.576037175358763
 20
-313.53999999999996
 30
0.0
 11
-59.576037175358735
 21
-320.25999999999999
 31
0.0
  0
LINE
  5
2EF
100
AcDbEntity
100
AcDbLine
  8
0
 62
256
370
-1
 48
1.0
  6
ByLayer
 10
-59.576037175358735
 20
-320.25999999999999
 30
0.0
 11
-69.576037175358763
 21
-320.25999999999999
 31
0.0
  0
LINE
  5
2F0
100
AcDbEntity
100
AcDbLine
  8
0
 62
256
370
-1
 48
1.0
  6
ByLayer
 10
-69.576037175358763
 20
-320.25999999999999
 30
0.0
 11
-69.576037175358763
 21
-313.54000000000002
 31
0.0
  0
LINE
  5
2F1
100
AcDbEntity
100
AcDbLine
  8
0
 62
256
370
-1
 48
1.0
  6
ByLayer
 10
-69.576037175358763
 20
-313.54000000000002
 30
0.0
 11
-59.826037175358763
 21
-313.54000000000002
 31
0.0
  0
LINE
  5
2F2
100
AcDbEntity
100
AcDbLine
  8
0
 62
256
370
-1
 48
1.0
  6
ByLayer
 10
-59.826037175358763
 20
-313.54000000000002
 30
0.0
 11
-59.576037175358763
 21
-313.53999999999996
 31
0.0
  0
LINE
  5
2F3
100
AcDbEntity
100
AcDbLine
  8
0
 62
256
370
-1
 48
1.0
  6
ByLayer
 10
33.923962824641251
 20
-266.98000000000002
 30
0.0
 11
33.923962824641251
 21
-260.26000000000005
 31
0.0
  0
LINE
  5
2F4
100
AcDbEntity
100
AcDbLine
  8
0
 62
256
370
-1
 48
1.0
  6
ByLayer
 10
33.923962824641251
 20
-260.26000000000005
 30
0.0
 11
43.923962824641251
 21
-260.26000000000005
 31
0.0
  0
LINE
  5
2F5
100
AcDbEntity
100
AcDbLine
  8
0
 62
256
370
-1
 48
1.0
  6
ByLayer
 10
43.923962824641251
 20
-260.26000000000005
 30
0.0
 11
43.923962824641251
 21
-266.98000000000053
 31
0.0
  0
LINE
  5
2F6
100
AcDbEntity
100
AcDbLine
  8
0
 62
256
370
-1
 48
1.0
  6
ByLayer
 10
43.923962824641251
 20
-266.98000000000053
 30
0.0
 11
33.923962824641251
 21
-266.98000000000002
 31
0.0
  0
LINE
  5
2F7
100
AcDbEntity
100
AcDbLine
  8
0
 62
256
370
-1
 48
1.0
  6
ByLayer
 10
-59.576037175358763
 20
-260.25999999999999
 30
0.0
 11
-59.576037175358763
 21
-266.97999999999985
 31
0.0
  0
LINE
  5
2F8
100
AcDbEntity
100
AcDbLine
  8
0
 62
256
370
-1
 48
1.0
  6
ByLayer
 10
-59.576037175358763
 20
-266.97999999999985
 30
0.0
 11
-69.576037175358763
 21
-266.97999999999996
 31
0.0
  0
LINE
  5
2F9
100
AcDbEntity
100
AcDbLine
  8
0
 62
256
370
-1
 48
1.0
  6
ByLayer
 10
-69.576037175358763
 20
-266.97999999999996
 30
0.0
 11
-69.576037175358763
 21
-260.25999999999999
 31
0.0
  0
LINE
  5
2FA
100
AcDbEntity
100
AcDbLine
  8
0
 62
256
370
-1
 48
1.0
  6
ByLayer
 10
-69.576037175358763
 20
-260.25999999999999
 30
0.0
 11
-59.576037175358763
 21
-260.25999999999999
 31
0.0
  0
LINE
  5
2FB
100
AcDbEntity
100
AcDbLine
  8
0
 62
256
370
-1
 48
1.0
  6
ByLayer
 10
-17.826037175358763
 20
-266.98000000000013
 30
0.0
 11
-17.826037175358763
 21
-260.26000000000005
 31
0.0
  0
LINE
  5
2FC
100
AcDbEntity
100
AcDbLine
  8
0
 62
256
370
-1
 48
1.0
  6
ByLayer
 10
-17.826037175358763
 20
-260.26000000000005
 30
0.0
 11
-7.8260371753587634
 21
-260.26000000000005
 31
0.0
  0
LINE
  5
2FD
100
AcDbEntity
100
AcDbLine
  8
0
 62
256
370
-1
 48
1.0
  6
ByLayer
 10
-7.8260371753587634
 20
-260.26000000000005
 30
0.0
 11
-7.8260371753587634
 21
-266.98000000000008
 31
0.0
  0
LINE
  5
2FE
100
AcDbEntity
100
AcDbLine
  8
0
 62
256
370
-1
 48
1.0
  6
ByLayer
 10
-7.8260371753587634
 20
-266.98000000000008
 30
0.0
 11
-17.826037175358763
 21
-266.98000000000013
 31
0.0
  0
ARC
  5
2FF
100
AcDbEntity
  8
0
 62
256
370
-1
 48
1.0
  6
ByLayer
100
AcDbCircle
 10
101.45396282464122
 20
-270.9799999999999
 30
0.0
 40
3.999999999999956
100
AcDbArc
 50
202.02431283704462
 51
337.9756871629599
  0
LINE
  5
300
100
AcDbEntity
100
AcDbLine
  8
0
 62
256
370
-1
 48
1.0
  6
ByLayer
 10
97.745863581093431
 20
-272.48000000000008
 30
0.0
 11
95.453962824641224
 21
-272.48000000000036
 31
0.0
  0
LINE
  5
301
100
AcDbEntity
100
AcDbLine
  8
0
 62
256
370
-1
 48
1.0
  6
ByLayer
 10
95.453962824641224
 20
-272.48000000000036
 30
0.0
 11
95.453962824641224
 21
-269.4799999999999
 31
0.0
  0
LINE
  5
302
100
AcDbEntity
100
AcDbLine
  8
0
 62
256
370
-1
 48
1.0
  6
ByLayer
 10
95.453962824641224
 20
-269.4799999999999
 30
0.0
 11
97.745863581093431
 21
-269.47999999999996
 31
0.0
  0
ARC
  5
303
100
AcDbEntity
  8
0
 62
256
370
-1
 48
1.0
  6
ByLayer
100
AcDbCircle
 10
101.45396282464122
 20
-270.97999999999985
 30
0.0
 40
3.9999999999999623
100
AcDbArc
 50
22.024312837043873
 51
157.97568716295916
  0
LINE
  5
304
100
AcDbEntity
100
AcDbLine
  8
0
 62
256
370
-1
 48
1.0
  6
ByLayer
 10
105.16206206818902
 20
-269.47999999999973
 30
0.0
 11
107.45396282464122
 21
-269.47999999999934
 31
0.0
  0
LINE
  5
305
100
AcDbEntity
100
AcDbLine
  8
0
 62
256
370
-1
 48
1.0
  6
ByLayer
 10
107.45396282464122
 20
-269.47999999999934
 30
0.0
 11
107.45396282464122
 21
-272.47999999999968
 31
0.0
  0
LINE
  5
306
100
AcDbEntity
100
AcDbLine
  8
0
 62
256
370
-1
 48
1.0
  6
ByLayer
 10
107.45396282464122
 20
-272.47999999999968
 30
0.0
 11
105.16206206818902
 21
-272.47999999999973
 31
0.0
  0
ARC
  5
307
100
AcDbEntity
  8
0
 62
256
370
-1
 48
1.0
  6
ByLayer
100
AcDbCircle
 10
-127.10603717535881
 20
-270.98000000000019
 30
0.0
 40
4.000000000000016
100
AcDbArc
 50
202.02431283704203
 51
337.97568716295791
  0
LINE
  5
308
100
AcDbEntity
100
AcDbLine
  8
0
 62
256
370
-1
 48
1.0
  6
ByLayer
 10
-130.81413641890666
 20
-272.48000000000019
 30
0.0
 11
-133.10603717535878
 21
-272.48000000000019
 31
0.0
  0
LINE
  5
309
100
AcDbEntity
100
AcDbLine
  8
0
 62
256
370
-1
 48
1.0
  6
ByLayer
 10
-133.10603717535878
 20
-272.48000000000019
 30
0.0
 11
-133.10603717535878
 21
-269.48000000000019
 31
0.0
  0
LINE
  5
30A
100
AcDbEntity
100
AcDbLine
  8
0
 62
256
370
-1
 48
1.0
  6
ByLayer
 10
-133.10603717535878
 20
-269.48000000000019
 30
0.0
 11
-130.81413641890666
 21
-269.48000000000019
 31
0.0
  0
ARC
  5
30B
100
AcDbEntity
  8
0
 62
256
370
-1
 48
1.0
  6
ByLayer
100
AcDbCircle
 10
-127.10603717535881
 20
-270.98000000000019
 30
0.0
 40
4.0000000000000222
100
AcDbArc
 50
22.024312837042043
 51
157.97568716295797
  0
LINE
  5
30C
100
AcDbEntity
100
AcDbLine
  8
0
 62
256
370
-1
 48
1.0
  6
ByLayer
 10
-123.39793793181096
 20
-269.48000000000019
 30
0.0
 11
-121.10603717535886
 21
-269.48000000000019
 31
0.0
  0
LINE
  5
30D
100
AcDbEntity
100
AcDbLine
  8
0
 62
256
370
-1
 48
1.0
  6
ByLayer
 10
-121.10603717535886
 20
-269.48000000000019
 30
0.0
 11
-121.10603717535886
 21
-272.48000000000019
 31
0.0
  0
LINE
  5
30E
100
AcDbEntity
100
AcDbLine
  8
0
 62
256
370
-1
 48
1.0
  6
ByLayer
 10
-121.10603717535886
 20
-272.48000000000019
 30
0.0
 11
-123.39793793181096
 21
-272.48000000000019
 31
0.0
  0
LINE
  5
30F
100
AcDbEntity
100
AcDbLine
  8
0
 62
256
370
-1
 48
1.0
  6
ByLayer
 10
-59.576037175358763
 20
-313.53999999999996
 30
0.0
 11
-59.576037175358735
 21
-320.25999999999999
 31
0.0
  0
LINE
  5
310
100
AcDbEntity
100
AcDbLine
  8
0
 62
256
370
-1
 48
1.0
  6
ByLayer
 10
-59.576037175358735
 20
-320.25999999999999
 30
0.0
 11
-69.576037175358763
 21
-320.25999999999999
 31
0.0
  0
LINE
  5
311
100
AcDbEntity
100
AcDbLine
  8
0
 62
256
370
-1
 48
1.0
  6
ByLayer
 10
-69.576037175358763
 20
-320.25999999999999
 30
0.0
 11
-69.576037175358763
 21
-313.54000000000002
 31
0.0
  0
LINE
  5
312
100
AcDbEntity
100
AcDbLine
  8
0
 62
256
370
-1
 48
1.0
  6
ByLayer
 10
-69.576037175358763
 20
-313.54000000000002
 30
0.0
 11
-59.826037175358763
 21
-313.54000000000002
 31
0.0
  0
LINE
  5
313
100
AcDbEntity
100
AcDbLine
  8
0
 62
256
370
-1
 48
1.0
  6
ByLayer
 10
-59.826037175358763
 20
-313.54000000000002
 30
0.0
 11
-59.576037175358763
 21
-313.53999999999996
 31
0.0
  0
ENDSEC
  0
SECTION
  2
OBJECTS
  0
DICTIONARY
  5
C
100
AcDbDictionary
280
0
281
1
  3
ACAD_GROUP
350
D
  3
ACAD_LAYOUT
350
1A
  3
ACAD_MLINESTYLE
350
17
  3
ACAD_PLOTSETTINGS
350
19
  3
ACAD_PLOTSTYLENAME
350
E
  3
AcDbVariableDictionary
350
314
  3
QCAD_OBJECTS
350
315
  0
DICTIONARY
  5
D
100
AcDbDictionary
280
0
281
1
  0
ACDBDICTIONARYWDFLT
  5
E
100
AcDbDictionary
281
1
  3
Normal
350
F
100
AcDbDictionaryWithDefault
340
F
  0
ACDBPLACEHOLDER
  5
F
  0
DICTIONARY
  5
17
100
AcDbDictionary
280
0
281
1
  3
Standard
350
18
  0
MLINESTYLE
  5
18
100
AcDbMlineStyle
  2
STANDARD
 70
0
  3

 62
256
 51
90.0
 52
90.0
 71
2
 49
0.5
 62
256
  6
BYLAYER
 49
-0.5
 62
256
  6
BYLAYER
  0
DICTIONARY
  5
19
100
AcDbDictionary
280
0
281
1
  0
DICTIONARY
  5
1A
100
AcDbDictionary
281
1
  3
Layout1
350
1E
  3
Layout2
350
26
  3
Model
350
22
  0
LAYOUT
  5
1E
100
AcDbPlotSettings
  1

  2
none_device
  4

  6

 40
0.0
 41
0.0
 42
0.0
 43
0.0
 44
0.0
 45
0.0
 46
0.0
 47
0.0
 48
0.0
 49
0.0
140
0.0
141
0.0
142
1.0
143
1.0
 70
688
 72
0
 73
0
 74
5
  7

 75
16
147
1.0
148
0.0
149
0.0
100
AcDbLayout
  1
Layout1
 70
1
 71
1
 10
0.0
 20
0.0
 11
420.0
 21
297.0
 12
0.0
 22
0.0
 32
0.0
 14
100000000000000000000.0
 24
100000000000000000000.0
 34
100000000000000000000.0
 15
-100000000000000000000.0
 25
-100000000000000000000.0
 35
-100000000000000000000.0
146
0.0
 13
0.0
 23
0.0
 33
0.0
 16
1.0
 26
0.0
 36
0.0
 17
0.0
 27
1.0
 37
0.0
 76
0
330
1B
  0
LAYOUT
  5
22
100
AcDbPlotSettings
  1

  2
none_device
  4

  6

 40
0.0
 41
0.0
 42
0.0
 43
0.0
 44
0.0
 45
0.0
 46
0.0
 47
0.0
 48
0.0
 49
0.0
140
0.0
141
0.0
142
1.0
143
1.0
 70
1712
 72
0
 73
0
 74
0
  7

 75
0
147
1.0
148
0.0
149
0.0
100
AcDbLayout
  1
Model
 70
1
 71
0
 10
0.0
 20
0.0
 11
12.0
 21
9.0
 12
0.0
 22
0.0
 32
0.0
 14
0.0
 24
0.0
 34
0.0
 15
0.0
 25
0.0
 35
0.0
146
0.0
 13
0.0
 23
0.0
 33
0.0
 16
1.0
 26
0.0
 36
0.0
 17
0.0
 27
1.0
 37
0.0
 76
0
330
1F
  0
LAYOUT
  5
26
100
AcDbPlotSettings
  1

  2
none_device
  4

  6

 40
0.0
 41
0.0
 42
0.0
 43
0.0
 44
0.0
 45
0.0
 46
0.0
 47
0.0
 48
0.0
 49
0.0
140
0.0
141
0.0
142
1.0
143
1.0
 70
688
 72
0
 73
0
 74
5
  7

 75
16
147
1.0
148
0.0
149
0.0
100
AcDbLayout
  1
Layout2
 70
1
 71
2
 10
0.0
 20
0.0
 11
12.0
 21
9.0
 12
0.0
 22
0.0
 32
0.0
 14
0.0
 24
0.0
 34
0.0
 15
0.0
 25
0.0
 35
0.0
146
0.0
 13
0.0
 23
0.0
 33
0.0
 16
1.0
 26
0.0
 36
0.0
 17
0.0
 27
1.0
 37
0.0
 76
0
330
23
  0
DICTIONARY
  5
314
100
AcDbDictionary
281
1
  3
DIMASSOC
350
317
  3
HIDETEXT
350
316
  0
DICTIONARYVAR
  5
316
100
DictionaryVariables
280
0
  1
2
  0
DICTIONARYVAR
  5
317
100
DictionaryVariables
280
0
  1
1
  0
DICTIONARY
  5
315
100
AcDbDictionary
281
1
  3
Grid/DisplayGrid00
350
318
  3
Grid/DisplayGrid01
350
319
  3
Grid/DisplayGrid02
350
31A
  3
Grid/DisplayGrid03
350
31B
  3
Grid/GridSpacingX00
350
31C
  3
Grid/GridSpacingX01
350
31D
  3
Grid/GridSpacingX02
350
31E
  3
Grid/GridSpacingX03
350
31F
  3
Grid/GridSpacingY00
350
320
  3
Grid/GridSpacingY01
350
321
  3
Grid/GridSpacingY02
350
322
  3
Grid/GridSpacingY03
350
323
  3
Grid/IsometricGrid00
350
324
  3
Grid/IsometricGrid01
350
325
  3
Grid/IsometricGrid02
350
326
  3
Grid/IsometricGrid03
350
327
  3
Grid/IsometricProjection00
350
328
  3
Grid/IsometricProjection01
350
329
  3
Grid/IsometricProjection02
350
32A
  3
Grid/IsometricProjection03
350
32B
  3
Grid/MetaGridSpacingX00
350
32C
  3
Grid/MetaGridSpacingX01
350
32D
  3
Grid/MetaGridSpacingX02
350
32E
  3
Grid/MetaGridSpacingX03
350
32F
  3
Grid/MetaGridSpacingY00
350
330
  3
Grid/MetaGridSpacingY01
350
331
  3
Grid/MetaGridSpacingY02
350
332
  3
Grid/MetaGridSpacingY03
350
333
  3
MultiPageSettings/Columns
350
334
  3
MultiPageSettings/GlueMarginsBottom
350
335
  3
MultiPageSettings/GlueMarginsLeft
350
336
  3
MultiPageSettings/GlueMarginsRight
350
337
  3
MultiPageSettings/GlueMarginsTop
350
338
  3
MultiPageSettings/PrintCropMarks
350
339
  3
MultiPageSettings/Rows
350
33A
  3
PageSettings/OffsetX
350
33B
  3
PageSettings/OffsetY
350
33C
  3
PageSettings/PageOrientation
350
33D
  3
PageSettings/PaperHeight
350
33E
  3
PageSettings/PaperWidth
350
33F
  3
PageSettings/Scale
350
340
  3
PageSettings/ShowPaperBorders
350
341
  3
QCADVersion
350
342
  3
UnitSettings/PaperUnit
350
343
  0
XRECORD
  5
318
330
315
100
AcDbXrecord
280
1
290
1
  0
XRECORD
  5
319
330
315
100
AcDbXrecord
280
1
290
1
  0
XRECORD
  5
31A
330
315
100
AcDbXrecord
280
1
290
1
  0
XRECORD
  5
31B
330
315
100
AcDbXrecord
280
1
290
1
  0
XRECORD
  5
31C
330
315
100
AcDbXrecord
280
1
1000
auto
  0
XRECORD
  5
31D
330
315
100
AcDbXrecord
280
1
1000
auto
  0
XRECORD
  5
31E
330
315
100
AcDbXrecord
280
1
1000
auto
  0
XRECORD
  5
31F
330
315
100
AcDbXrecord
280
1
1000
auto
  0
XRECORD
  5
320
330
315
100
AcDbXrecord
280
1
1000
auto
  0
XRECORD
  5
321
330
315
100
AcDbXrecord
280
1
1000
auto
  0
XRECORD
  5
322
330
315
100
AcDbXrecord
280
1
1000
auto
  0
XRECORD
  5
323
330
315
100
AcDbXrecord
280
1
1000
auto
  0
XRECORD
  5
324
330
315
100
AcDbXrecord
280
1
290
0
  0
XRECORD
  5
325
330
315
100
AcDbXrecord
280
1
290
0
  0
XRECORD
  5
326
330
315
100
AcDbXrecord
280
1
290
0
  0
XRECORD
  5
327
330
315
100
AcDbXrecord
280
1
290
0
  0
XRECORD
  5
328
330
315
100
AcDbXrecord
280
1
 90
0
  0
XRECORD
  5
329
330
315
100
AcDbXrecord
280
1
 90
0
  0
XRECORD
  5
32A
330
315
100
AcDbXrecord
280
1
 90
0
  0
XRECORD
  5
32B
330
315
100
AcDbXrecord
280
1
 90
0
  0
XRECORD
  5
32C
330
315
100
AcDbXrecord
280
1
1000
auto
  0
XRECORD
  5
32D
330
315
100
AcDbXrecord
280
1
1000
auto
  0
XRECORD
  5
32E
330
315
100
AcDbXrecord
280
1
1000
auto
  0
XRECORD
  5
32F
330
315
100
AcDbXrecord
280
1
1000
auto
  0
XRECORD
  5
330
330
315
100
AcDbXrecord
280
1
1000
auto
  0
XRECORD
  5
331
330
315
100
AcDbXrecord
280
1
1000
auto
  0
XRECORD
  5
332
330
315
100
AcDbXrecord
280
1
1000
auto
  0
XRECORD
  5
333
330
315
100
AcDbXrecord
280
1
1000
auto
  0
XRECORD
  5
334
330
315
100
AcDbXrecord
280
1
 90
1
  0
XRECORD
  5
335
330
315
100
AcDbXrecord
280
1
 40
10.0
  0
XRECORD
  5
336
330
315
100
AcDbXrecord
280
1
 40
10.0
  0
XRECORD
  5
337
330
315
100
AcDbXrecord
280
1
 40
10.0
  0
XRECORD
  5
338
330
315
100
AcDbXrecord
280
1
 40
10.0
  0
XRECORD
  5
339
330
315
100
AcDbXrecord
280
1
290
0
  0
XRECORD
  5
33A
330
315
100
AcDbXrecord
280
1
 90
1
  0
XRECORD
  5
33B
330
315
100
AcDbXrecord
280
1
 40
0.0
  0
XRECORD
  5
33C
330
315
100
AcDbXrecord
280
1
 40
0.0
  0
XRECORD
  5
33D
330
315
100
AcDbXrecord
280
1
1000
Portrait
  0
XRECORD
  5
33E
330
315
100
AcDbXrecord
280
1
 40
297.0
  0
XRECORD
  5
33F
330
315
100
AcDbXrecord
280
1
 40
210.0
  0
XRECORD
  5
340
330
315
100
AcDbXrecord
280
1
1000
1:1
  0
XRECORD
  5
341
330
315
100
AcDbXrecord
280
1
290
1
  0
XRECORD
  5
342
330
315
100
AcDbXrecord
280
1
1000
3.9.0
  0
XRECORD
  5
343
330
315
100
AcDbXrecord
280
1
 90
4
  0
ENDSEC
  0
EOF
