<?xml version="1.0" encoding="UTF-8" standalone="no"?>
<!-- Created with Inkscape (http://www.inkscape.org/) -->

<svg
   xmlns:dc="http://purl.org/dc/elements/1.1/"
   xmlns:cc="http://creativecommons.org/ns#"
   xmlns:rdf="http://www.w3.org/1999/02/22-rdf-syntax-ns#"
   xmlns:svg="http://www.w3.org/2000/svg"
   xmlns="http://www.w3.org/2000/svg"
   xmlns:sodipodi="http://sodipodi.sourceforge.net/DTD/sodipodi-0.dtd"
   xmlns:inkscape="http://www.inkscape.org/namespaces/inkscape"
   width="384mm"
   height="384mm"
   viewBox="0 0 1360.6299 1360.6299"
   id="svg5780"
   version="1.1"
   inkscape:version="0.91 r13725"
   sodipodi:docname="clear_orange.svg">
  <defs
     id="defs5782">
    <marker
       orient="auto"
       id="DistanceX"
       style="overflow:visible"
       refX="0.0"
       refY="0.0">
      <path
         id="path8027"
         d="M 3,-3 L -3,3 M 0,-5 L  0,5"
         style="stroke:#000000; stroke-width:0.5" />
    </marker>
    <pattern
       id="Hatch"
       x="0"
       y="0"
       patternUnits="userSpaceOnUse"
       width="8"
       height="8">
      <path
         id="path8030"
         d="M8 4 l-4,4"
         stroke-width="0.25"
         stroke="#000000"
         linecap="square" />
      <path
         id="path8032"
         d="M6 2 l-4,4"
         stroke-width="0.25"
         stroke="#000000"
         linecap="square" />
      <path
         id="path8034"
         d="M4 0 l-4,4"
         stroke-width="0.25"
         stroke="#000000"
         linecap="square" />
    </pattern>
    <symbol
       id="*Model_Space" />
    <symbol
       id="*Paper_Space" />
    <symbol
       id="*Paper_Space0" />
    <symbol
       id="crane_flap">
      <path
         id="path8040"
         d="M -308.001969,928.346457 A 5.580709,5.580709 -0.000000 1 0 -319.163386,928.346457 5.580709,5.580709 -0.000000 1 0 -308.001969,928.346457 z"
         style="stroke:#000000;fill:none;stroke-linecap: round" />
      <path
         id="path8042"
         d="M -141.732283,928.346457 A 17.716535,17.716535 -0.000000 1 0 -177.165354,928.346457 17.716535,17.716535 -0.000000 1 0 -141.732283,928.346457 z"
         style="stroke:#000000;fill:none;stroke-linecap: round" />
      <path
         id="path8044"
         d="M 0.000000,898.228346 L -627.165354,898.228346 L -627.165354,1052.362205 L 0.000000,1052.362205 L 0.000000,898.228346 z"
         style="stroke:#000000;fill:none;stroke-linecap: round" />
      <path
         id="path8046"
         d="M -450.000000,928.346457 A 17.716535,17.716535 -0.000000 1 0 -485.433071,928.346457 17.716535,17.716535 -0.000000 1 0 -450.000000,928.346457 z"
         style="stroke:#000000;fill:none;stroke-linecap: round" />
    </symbol>
    <symbol
       id="p2">
      <path
         id="path8049"
         d="M 0.000000,2412.992126 0.000000,1052.362205"
         style="stroke:#000000;fill:none;stroke-linecap: round" />
      <path
         id="path8051"
         d="M 0.000000,1052.362205 1360.629921,1052.362205"
         style="stroke:#000000;fill:none;stroke-linecap: round" />
      <path
         id="path8053"
         d="M 1360.629921,1052.362205 1360.629921,2412.992126"
         style="stroke:#000000;fill:none;stroke-linecap: round" />
      <path
         id="path8055"
         d="M 1360.629921,2412.992126 0.000000,2412.992126"
         style="stroke:#000000;fill:none;stroke-linecap: round" />
    </symbol>
    <symbol
       id="carrier_window">
      <path
         id="path8058"
         d="M 41.988189,1229.527559 L 41.988189,1052.362205 L 0.000000,1052.362205 L 0.000000,1707.874016 L 59.527559,1707.874016 L 59.527559,1728.708661 L 119.055118,1728.708661 L 119.055118,1707.874016 L 178.582677,1707.874016 L 178.582677,1229.527559 L 202.393701,1229.527559 L 202.393701,1052.362205 L 53.149606,1052.362205 L 53.149606,1229.527559 L 41.988189,1229.527559 z"
         style="stroke:#000000;fill:none;stroke-linecap: round" />
    </symbol>
    <symbol
       id="door">
      <path
         id="path8061"
         d="M 0.000000,1052.362205 L -699.094488,1052.362205 L -699.094488,1264.960630 L -681.377953,1264.960630 L -681.377953,1229.527559 L -670.216535,1229.527559 L -670.216535,1666.204724 L -28.877953,1666.204724 L -28.877953,1229.527559 L -17.716535,1229.527559 L -17.716535,1264.960630 L 0.000000,1264.960630 L 0.000000,1052.362205 z"
         style="stroke:#000000;fill:none;stroke-linecap: round" />
    </symbol>
    <marker
       orient="auto"
       id="DistanceX-8"
       style="overflow:visible"
       refX="0.0"
       refY="0.0">
      <path
         id="path4870"
         d="M 3,-3 L -3,3 M 0,-5 L  0,5"
         style="stroke:#000000; stroke-width:0.5" />
    </marker>
    <pattern
       id="Hatch-6"
       x="0"
       y="0"
       patternUnits="userSpaceOnUse"
       width="8"
       height="8">
      <path
         id="path4873"
         d="M8 4 l-4,4"
         stroke-width="0.25"
         stroke="#000000"
         linecap="square" />
      <path
         id="path4875"
         d="M6 2 l-4,4"
         stroke-width="0.25"
         stroke="#000000"
         linecap="square" />
      <path
         id="path4877"
         d="M4 0 l-4,4"
         stroke-width="0.25"
         stroke="#000000"
         linecap="square" />
    </pattern>
    <symbol
       id="*Model_Space-2" />
    <symbol
       id="*Paper_Space-5" />
    <symbol
       id="*Paper_Space0-7" />
    <symbol
       id="crane_flap-7">
      <path
         id="path4883"
         d="M 0.000000,898.228346 L -627.165354,898.228346 L -627.165354,1052.362205 L 0.000000,1052.362205 L 0.000000,898.228346 z"
         style="stroke:#000000;fill:none;stroke-linecap: round" />
      <path
         id="path4885"
         d="M -439.370079,935.433071 A 17.716535,17.716535 -0.000000 1 0 -474.803150,935.433071 17.716535,17.716535 -0.000000 1 0 -439.370079,935.433071 z"
         style="stroke:#000000;fill:none;stroke-linecap: round" />
      <path
         id="path4887"
         d="M -308.001969,935.433071 A 5.580709,5.580709 -0.000000 1 0 -319.163386,935.433071 5.580709,5.580709 -0.000000 1 0 -308.001969,935.433071 z"
         style="stroke:#000000;fill:none;stroke-linecap: round" />
      <path
         id="path4889"
         d="M -152.362205,935.433071 A 17.716535,17.716535 -0.000000 1 0 -187.795276,935.433071 17.716535,17.716535 -0.000000 1 0 -152.362205,935.433071 z"
         style="stroke:#000000;fill:none;stroke-linecap: round" />
    </symbol>
    <symbol
       id="p2-1">
      <path
         id="path4892"
         d="M 1360.629921,2412.992126 0.000000,2412.992126"
         style="stroke:#000000;fill:none;stroke-linecap: round" />
      <path
         id="path4894"
         d="M 0.000000,2412.992126 0.000000,1052.362205"
         style="stroke:#000000;fill:none;stroke-linecap: round" />
      <path
         id="path4896"
         d="M 0.000000,1052.362205 1360.629921,1052.362205"
         style="stroke:#000000;fill:none;stroke-linecap: round" />
      <path
         id="path4898"
         d="M 1360.629921,1052.362205 1360.629921,2412.992126"
         style="stroke:#000000;fill:none;stroke-linecap: round" />
    </symbol>
    <symbol
       id="carrier_window-6">
      <path
         id="path4901"
         d="M 41.988189,1229.527559 L 41.988189,1052.362205 L 0.000000,1052.362205 L 0.000000,1707.874016 L 59.527559,1707.874016 L 59.527559,1728.708661 L 119.055118,1728.708661 L 119.055118,1707.874016 L 178.582677,1707.874016 L 178.582677,1229.527559 L 202.393701,1229.527559 L 202.393701,1052.362205 L 53.149606,1052.362205 L 53.149606,1229.527559 L 41.988189,1229.527559 z"
         style="stroke:#000000;fill:none;stroke-linecap: round" />
    </symbol>
    <symbol
       id="door-8">
      <path
         id="path4904"
         d="M 0.000000,1052.362205 L -699.094488,1052.362205 L -699.094488,1264.960630 L -681.377953,1264.960630 L -681.377953,1229.527559 L -670.216535,1229.527559 L -670.216535,1666.204724 L -28.877953,1666.204724 L -28.877953,1229.527559 L -17.716535,1229.527559 L -17.716535,1264.960630 L 0.000000,1264.960630 L 0.000000,1052.362205 z"
         style="stroke:#000000;fill:none;stroke-linecap: round" />
    </symbol>
    <marker
       orient="auto"
       id="DistanceX-0"
       style="overflow:visible"
       refX="0.0"
       refY="0.0">
      <path
         id="path5005"
         d="M 3,-3 L -3,3 M 0,-5 L  0,5"
         style="stroke:#000000; stroke-width:0.5" />
    </marker>
    <pattern
       id="Hatch-8"
       x="0"
       y="0"
       patternUnits="userSpaceOnUse"
       width="8"
       height="8">
      <path
         id="path5008"
         d="M8 4 l-4,4"
         stroke-width="0.25"
         stroke="#000000"
         linecap="square" />
      <path
         id="path5010"
         d="M6 2 l-4,4"
         stroke-width="0.25"
         stroke="#000000"
         linecap="square" />
      <path
         id="path5012"
         d="M4 0 l-4,4"
         stroke-width="0.25"
         stroke="#000000"
         linecap="square" />
    </pattern>
    <symbol
       id="*Model_Space-27" />
    <symbol
       id="*Paper_Space-0" />
    <symbol
       id="*Paper_Space0-5" />
    <marker
       orient="auto"
       id="DistanceX-9"
       style="overflow:visible"
       refX="0.0"
       refY="0.0">
      <path
         id="path12553"
         d="M 3,-3 L -3,3 M 0,-5 L  0,5"
         style="stroke:#000000; stroke-width:0.5" />
    </marker>
    <pattern
       id="Hatch-5"
       x="0"
       y="0"
       patternUnits="userSpaceOnUse"
       width="8"
       height="8">
      <path
         id="path12556"
         d="M8 4 l-4,4"
         stroke-width="0.25"
         stroke="#000000"
         linecap="square" />
      <path
         id="path12558"
         d="M6 2 l-4,4"
         stroke-width="0.25"
         stroke="#000000"
         linecap="square" />
      <path
         id="path12560"
         d="M4 0 l-4,4"
         stroke-width="0.25"
         stroke="#000000"
         linecap="square" />
    </pattern>
    <symbol
       id="*Model_Space-29" />
    <symbol
       id="*Paper_Space-4" />
    <symbol
       id="*Paper_Space0-3" />
    <marker
       refY="0.0"
       refX="0.0"
       style="overflow:visible"
       id="DistanceX-04"
       orient="auto">
      <path
         style="stroke:#000000; stroke-width:0.5"
         d="M 3,-3 L -3,3 M 0,-5 L  0,5"
         id="path8027-3" />
    </marker>
    <pattern
       height="8"
       width="8"
       patternUnits="userSpaceOnUse"
       y="0"
       x="0"
       id="Hatch-4">
      <path
         linecap="square"
         stroke="#000000"
         stroke-width="0.25"
         d="M8 4 l-4,4"
         id="path8030-8" />
      <path
         linecap="square"
         stroke="#000000"
         stroke-width="0.25"
         d="M6 2 l-4,4"
         id="path8032-2" />
      <path
         linecap="square"
         stroke="#000000"
         stroke-width="0.25"
         d="M4 0 l-4,4"
         id="path8034-5" />
    </pattern>
    <symbol
       id="*Model_Space-0" />
    <symbol
       id="*Paper_Space-8" />
    <symbol
       id="*Paper_Space0-0" />
    <symbol
       id="crane_flap-9">
      <path
         style="stroke:#000000;fill:none;stroke-linecap: round"
         d="M -308.001969,928.346457 A 5.580709,5.580709 -0.000000 1 0 -319.163386,928.346457 5.580709,5.580709 -0.000000 1 0 -308.001969,928.346457 z"
         id="path8040-6" />
      <path
         style="stroke:#000000;fill:none;stroke-linecap: round"
         d="M -141.732283,928.346457 A 17.716535,17.716535 -0.000000 1 0 -177.165354,928.346457 17.716535,17.716535 -0.000000 1 0 -141.732283,928.346457 z"
         id="path8042-7" />
      <path
         style="stroke:#000000;fill:none;stroke-linecap: round"
         d="M 0.000000,898.228346 L -627.165354,898.228346 L -627.165354,1052.362205 L 0.000000,1052.362205 L 0.000000,898.228346 z"
         id="path8044-9" />
      <path
         style="stroke:#000000;fill:none;stroke-linecap: round"
         d="M -450.000000,928.346457 A 17.716535,17.716535 -0.000000 1 0 -485.433071,928.346457 17.716535,17.716535 -0.000000 1 0 -450.000000,928.346457 z"
         id="path8046-4" />
    </symbol>
    <symbol
       id="p2-3">
      <path
         style="stroke:#000000;fill:none;stroke-linecap: round"
         d="M 0.000000,2412.992126 0.000000,1052.362205"
         id="path8049-6" />
      <path
         style="stroke:#000000;fill:none;stroke-linecap: round"
         d="M 0.000000,1052.362205 1360.629921,1052.362205"
         id="path8051-0" />
      <path
         style="stroke:#000000;fill:none;stroke-linecap: round"
         d="M 1360.629921,1052.362205 1360.629921,2412.992126"
         id="path8053-6" />
      <path
         style="stroke:#000000;fill:none;stroke-linecap: round"
         d="M 1360.629921,2412.992126 0.000000,2412.992126"
         id="path8055-0" />
    </symbol>
    <symbol
       id="carrier_window-8">
      <path
         style="stroke:#000000;fill:none;stroke-linecap: round"
         d="M 41.988189,1229.527559 L 41.988189,1052.362205 L 0.000000,1052.362205 L 0.000000,1707.874016 L 59.527559,1707.874016 L 59.527559,1728.708661 L 119.055118,1728.708661 L 119.055118,1707.874016 L 178.582677,1707.874016 L 178.582677,1229.527559 L 202.393701,1229.527559 L 202.393701,1052.362205 L 53.149606,1052.362205 L 53.149606,1229.527559 L 41.988189,1229.527559 z"
         id="path8058-4" />
    </symbol>
    <symbol
       id="door-0">
      <path
         style="stroke:#000000;fill:none;stroke-linecap: round"
         d="M 0.000000,1052.362205 L -699.094488,1052.362205 L -699.094488,1264.960630 L -681.377953,1264.960630 L -681.377953,1229.527559 L -670.216535,1229.527559 L -670.216535,1666.204724 L -28.877953,1666.204724 L -28.877953,1229.527559 L -17.716535,1229.527559 L -17.716535,1264.960630 L 0.000000,1264.960630 L 0.000000,1052.362205 z"
         id="path8061-2" />
    </symbol>
    <marker
       refY="0.0"
       refX="0.0"
       style="overflow:visible"
       id="DistanceX-8-0"
       orient="auto">
      <path
         style="stroke:#000000; stroke-width:0.5"
         d="M 3,-3 L -3,3 M 0,-5 L  0,5"
         id="path4870-3" />
    </marker>
    <pattern
       height="8"
       width="8"
       patternUnits="userSpaceOnUse"
       y="0"
       x="0"
       id="Hatch-6-3">
      <path
         linecap="square"
         stroke="#000000"
         stroke-width="0.25"
         d="M8 4 l-4,4"
         id="path4873-5" />
      <path
         linecap="square"
         stroke="#000000"
         stroke-width="0.25"
         d="M6 2 l-4,4"
         id="path4875-8" />
      <path
         linecap="square"
         stroke="#000000"
         stroke-width="0.25"
         d="M4 0 l-4,4"
         id="path4877-0" />
    </pattern>
    <symbol
       id="*Model_Space-2-9" />
    <symbol
       id="*Paper_Space-5-0" />
    <symbol
       id="*Paper_Space0-7-9" />
    <symbol
       id="crane_flap-7-0">
      <path
         style="stroke:#000000;fill:none;stroke-linecap: round"
         d="M 0.000000,898.228346 L -627.165354,898.228346 L -627.165354,1052.362205 L 0.000000,1052.362205 L 0.000000,898.228346 z"
         id="path4883-1" />
      <path
         style="stroke:#000000;fill:none;stroke-linecap: round"
         d="M -439.370079,935.433071 A 17.716535,17.716535 -0.000000 1 0 -474.803150,935.433071 17.716535,17.716535 -0.000000 1 0 -439.370079,935.433071 z"
         id="path4885-9" />
      <path
         style="stroke:#000000;fill:none;stroke-linecap: round"
         d="M -308.001969,935.433071 A 5.580709,5.580709 -0.000000 1 0 -319.163386,935.433071 5.580709,5.580709 -0.000000 1 0 -308.001969,935.433071 z"
         id="path4887-2" />
      <path
         style="stroke:#000000;fill:none;stroke-linecap: round"
         d="M -152.362205,935.433071 A 17.716535,17.716535 -0.000000 1 0 -187.795276,935.433071 17.716535,17.716535 -0.000000 1 0 -152.362205,935.433071 z"
         id="path4889-6" />
    </symbol>
    <symbol
       id="p2-1-7">
      <path
         style="stroke:#000000;fill:none;stroke-linecap: round"
         d="M 1360.629921,2412.992126 0.000000,2412.992126"
         id="path4892-0" />
      <path
         style="stroke:#000000;fill:none;stroke-linecap: round"
         d="M 0.000000,2412.992126 0.000000,1052.362205"
         id="path4894-0" />
      <path
         style="stroke:#000000;fill:none;stroke-linecap: round"
         d="M 0.000000,1052.362205 1360.629921,1052.362205"
         id="path4896-0" />
      <path
         style="stroke:#000000;fill:none;stroke-linecap: round"
         d="M 1360.629921,1052.362205 1360.629921,2412.992126"
         id="path4898-5" />
    </symbol>
    <symbol
       id="carrier_window-6-1">
      <path
         style="stroke:#000000;fill:none;stroke-linecap: round"
         d="M 41.988189,1229.527559 L 41.988189,1052.362205 L 0.000000,1052.362205 L 0.000000,1707.874016 L 59.527559,1707.874016 L 59.527559,1728.708661 L 119.055118,1728.708661 L 119.055118,1707.874016 L 178.582677,1707.874016 L 178.582677,1229.527559 L 202.393701,1229.527559 L 202.393701,1052.362205 L 53.149606,1052.362205 L 53.149606,1229.527559 L 41.988189,1229.527559 z"
         id="path4901-5" />
    </symbol>
    <symbol
       id="door-8-4">
      <path
         style="stroke:#000000;fill:none;stroke-linecap: round"
         d="M 0.000000,1052.362205 L -699.094488,1052.362205 L -699.094488,1264.960630 L -681.377953,1264.960630 L -681.377953,1229.527559 L -670.216535,1229.527559 L -670.216535,1666.204724 L -28.877953,1666.204724 L -28.877953,1229.527559 L -17.716535,1229.527559 L -17.716535,1264.960630 L 0.000000,1264.960630 L 0.000000,1052.362205 z"
         id="path4904-7" />
    </symbol>
    <marker
       refY="0.0"
       refX="0.0"
       style="overflow:visible"
       id="DistanceX-0-8"
       orient="auto">
      <path
         style="stroke:#000000; stroke-width:0.5"
         d="M 3,-3 L -3,3 M 0,-5 L  0,5"
         id="path5005-4" />
    </marker>
    <pattern
       height="8"
       width="8"
       patternUnits="userSpaceOnUse"
       y="0"
       x="0"
       id="Hatch-8-7">
      <path
         linecap="square"
         stroke="#000000"
         stroke-width="0.25"
         d="M8 4 l-4,4"
         id="path5008-3" />
      <path
         linecap="square"
         stroke="#000000"
         stroke-width="0.25"
         d="M6 2 l-4,4"
         id="path5010-6" />
      <path
         linecap="square"
         stroke="#000000"
         stroke-width="0.25"
         d="M4 0 l-4,4"
         id="path5012-5" />
    </pattern>
    <symbol
       id="*Model_Space-27-5" />
    <symbol
       id="*Paper_Space-0-2" />
    <symbol
       id="*Paper_Space0-5-4" />
    <marker
       orient="auto"
       id="DistanceX-09"
       style="overflow:visible"
       refX="0.0"
       refY="0.0">
      <path
         id="path13219"
         d="M 3,-3 L -3,3 M 0,-5 L  0,5"
         style="stroke:#000000; stroke-width:0.5" />
    </marker>
    <pattern
       id="Hatch-7"
       x="0"
       y="0"
       patternUnits="userSpaceOnUse"
       width="8"
       height="8">
      <path
         id="path13222"
         d="M8 4 l-4,4"
         stroke-width="0.25"
         stroke="#000000"
         linecap="square" />
      <path
         id="path13224"
         d="M6 2 l-4,4"
         stroke-width="0.25"
         stroke="#000000"
         linecap="square" />
      <path
         id="path13226"
         d="M4 0 l-4,4"
         stroke-width="0.25"
         stroke="#000000"
         linecap="square" />
    </pattern>
    <symbol
       id="*Model_Space-3" />
    <symbol
       id="*Paper_Space-2" />
    <symbol
       id="*Paper_Space0-59" />
    <marker
       orient="auto"
       id="DistanceX-7"
       style="overflow:visible"
       refX="0.0"
       refY="0.0">
      <path
         id="path4365"
         d="M 3,-3 L -3,3 M 0,-5 L  0,5"
         style="stroke:#000000; stroke-width:0.5" />
    </marker>
    <pattern
       id="Hatch-1"
       x="0"
       y="0"
       patternUnits="userSpaceOnUse"
       width="8"
       height="8">
      <path
         id="path4368"
         d="M8 4 l-4,4"
         stroke-width="0.25"
         stroke="#000000"
         linecap="square" />
      <path
         id="path4370"
         d="M6 2 l-4,4"
         stroke-width="0.25"
         stroke="#000000"
         linecap="square" />
      <path
         id="path4372"
         d="M4 0 l-4,4"
         stroke-width="0.25"
         stroke="#000000"
         linecap="square" />
    </pattern>
    <symbol
       id="*Model_Space-6" />
    <symbol
       id="*Paper_Space-04" />
    <symbol
       id="*Paper_Space0-8" />
  </defs>
  <sodipodi:namedview
     id="base"
     pagecolor="#ffffff"
     bordercolor="#666666"
     borderopacity="1.0"
     inkscape:pageopacity="0.0"
     inkscape:pageshadow="2"
     inkscape:zoom="0.32"
     inkscape:cx="579.308"
     inkscape:cy="634.08878"
     inkscape:document-units="px"
     inkscape:current-layer="layer1"
     showgrid="false"
     inkscape:window-width="1366"
     inkscape:window-height="706"
     inkscape:window-x="-8"
     inkscape:window-y="-8"
     inkscape:window-maximized="1" />
  <metadata
     id="metadata5785">
    <rdf:RDF>
      <cc:Work
         rdf:about="">
        <dc:format>image/svg+xml</dc:format>
        <dc:type
           rdf:resource="http://purl.org/dc/dcmitype/StillImage" />
        <dc:title />
      </cc:Work>
    </rdf:RDF>
  </metadata>
  <g
     inkscape:label="Layer 1"
     inkscape:groupmode="layer"
     id="layer1"
     transform="translate(0,308.26772)">
    <path
       inkscape:connector-curvature="0"
       style="fill:none;stroke:#0000ff;stroke-linecap:round;stroke-width:0.03543307;stroke-miterlimit:4;stroke-dasharray:none;stroke-opacity:1"
       d="m 1094.0207,203.34256 a 17.716536,17.716536 0 1 0 -35.4331,0 17.716536,17.716536 0 1 0 35.4331,0 z"
       id="path4379" />
    <path
       inkscape:connector-curvature="0"
       style="fill:none;stroke:#0000ff;stroke-linecap:round;stroke-width:0.03543307;stroke-miterlimit:4;stroke-dasharray:none;stroke-opacity:1"
       d="m 1081.8848,59.83862 a 5.58071,5.58071 0 1 0 -11.1614,0 5.58071,5.58071 0 0 0 11.1614,0 z"
       id="path4381" />
    <path
       inkscape:connector-curvature="0"
       style="fill:none;stroke:#0000ff;stroke-linecap:round;stroke-width:0.03543307;stroke-miterlimit:4;stroke-dasharray:none;stroke-opacity:1"
       d="m 1094.0207,-83.66531 a 17.716536,17.716536 0 1 0 -35.4331,0 17.716536,17.716536 0 1 0 35.4331,0 z"
       id="path4383" />
    <path
       inkscape:connector-curvature="0"
       style="fill:none;stroke:#0000ff;stroke-linecap:round;stroke-width:0.03543307;stroke-miterlimit:4;stroke-dasharray:none;stroke-opacity:1"
       d="m 1094.0207,543.5 a 17.716536,17.716536 0 1 0 -35.4331,0 17.716536,17.716536 0 1 0 35.4331,0 z"
       id="path4385" />
    <path
       inkscape:connector-curvature="0"
       style="fill:none;stroke:#0000ff;stroke-linecap:round;stroke-width:0.03543307;stroke-miterlimit:4;stroke-dasharray:none;stroke-opacity:1"
       d="m 1081.8848,687.004 a 5.58071,5.58071 0 1 0 -11.1614,0 5.58071,5.58071 0 0 0 11.1614,0 z"
       id="path4387" />
    <path
       inkscape:connector-curvature="0"
       style="fill:none;stroke:#0000ff;stroke-linecap:round;stroke-width:0.03543307;stroke-miterlimit:4;stroke-dasharray:none;stroke-opacity:1"
       d="m 1094.0207,830.5079 a 17.716536,17.716536 0 1 0 -35.4331,0 17.716536,17.716536 0 1 0 35.4331,0 z"
       id="path4389" />
    <path
       inkscape:connector-curvature="0"
       style="fill:none;stroke:#0000ff;stroke-linecap:round;stroke-width:0.03543307;stroke-miterlimit:4;stroke-dasharray:none;stroke-opacity:1"
       d="m 569.77067,328.6339 a 5.58071,5.58071 0 1 0 -11.16142,0 5.58071,5.58071 0 1 0 11.16142,0 z"
       id="path4391" />
    <path
       inkscape:connector-curvature="0"
       style="fill:none;stroke:#0000ff;stroke-linecap:round;stroke-width:0.03543307;stroke-miterlimit:4;stroke-dasharray:none;stroke-opacity:1"
       d="m 178.23524,417.2166 a 5.58071,5.58071 0 1 0 -11.16142,0 5.58071,5.58071 0 0 0 11.16142,0 z"
       id="path4393" />
    <path
       inkscape:connector-curvature="0"
       style="fill:none;stroke:#0000ff;stroke-linecap:round;stroke-width:0.03543307;stroke-miterlimit:4;stroke-dasharray:none;stroke-opacity:1"
       d="m 18.875,-302.92516 699.09449,0"
       id="path4395" />
    <path
       inkscape:connector-curvature="0"
       style="fill:none;stroke:#0000ff;stroke-linecap:round;stroke-width:0.03543307;stroke-miterlimit:4;stroke-dasharray:none;stroke-opacity:1"
       d="m 717.96949,-90.32673 -17.71654,0"
       id="path4397" />
    <path
       inkscape:connector-curvature="0"
       style="fill:none;stroke:#0000ff;stroke-linecap:round;stroke-width:0.03543307;stroke-miterlimit:4;stroke-dasharray:none;stroke-opacity:1"
       d="m 700.25295,-90.32673 0,-42.51969"
       id="path4399" />
    <path
       inkscape:connector-curvature="0"
       style="fill:none;stroke:#0000ff;stroke-linecap:round;stroke-width:0.03543307;stroke-miterlimit:4;stroke-dasharray:none;stroke-opacity:1"
       d="m 700.25295,-132.84642 -11.16141,0"
       id="path4401" />
    <path
       inkscape:connector-curvature="0"
       style="fill:none;stroke:#0000ff;stroke-linecap:round;stroke-width:0.03543307;stroke-miterlimit:4;stroke-dasharray:none;stroke-opacity:1"
       d="m 689.09154,-132.84642 0,443.76378"
       id="path4403" />
    <path
       inkscape:connector-curvature="0"
       style="fill:none;stroke:#0000ff;stroke-linecap:round;stroke-width:0.03543307;stroke-miterlimit:4;stroke-dasharray:none;stroke-opacity:1"
       d="m 689.09154,310.91736 -418.64174,0"
       id="path4405" />
    <path
       inkscape:connector-curvature="0"
       style="fill:none;stroke:#0000ff;stroke-linecap:round;stroke-width:0.03543307;stroke-miterlimit:4;stroke-dasharray:none;stroke-opacity:1"
       d="m 270.4498,310.91736 0,124.01574"
       id="path4407" />
    <path
       inkscape:connector-curvature="0"
       style="fill:none;stroke:#0000ff;stroke-linecap:round;stroke-width:0.03543307;stroke-miterlimit:4;stroke-dasharray:none;stroke-opacity:1"
       d="m 145.72539,434.9331 0,-124.01574"
       id="path4409" />
    <path
       inkscape:connector-curvature="0"
       style="fill:none;stroke:#0000ff;stroke-linecap:round;stroke-width:0.03543307;stroke-miterlimit:4;stroke-dasharray:none;stroke-opacity:1"
       d="m 145.72539,310.91736 -97.97244,0"
       id="path4411" />
    <path
       inkscape:connector-curvature="0"
       style="fill:none;stroke:#0000ff;stroke-linecap:round;stroke-width:0.03543307;stroke-miterlimit:4;stroke-dasharray:none;stroke-opacity:1"
       d="m 47.75295,310.91736 0,-443.76378"
       id="path4413" />
    <path
       inkscape:connector-curvature="0"
       style="fill:none;stroke:#0000ff;stroke-linecap:round;stroke-width:0.03543307;stroke-miterlimit:4;stroke-dasharray:none;stroke-opacity:1"
       d="m 47.75295,-132.84642 -11.16142,0"
       id="path4415" />
    <path
       inkscape:connector-curvature="0"
       style="fill:none;stroke:#0000ff;stroke-linecap:round;stroke-width:0.03543307;stroke-miterlimit:4;stroke-dasharray:none;stroke-opacity:1"
       d="m 36.59153,-132.84642 0,42.51969"
       id="path4417" />
    <path
       inkscape:connector-curvature="0"
       style="fill:none;stroke:#0000ff;stroke-linecap:round;stroke-width:0.03543307;stroke-miterlimit:4;stroke-dasharray:none;stroke-opacity:1"
       d="m 36.59153,-90.32673 -17.71653,0"
       id="path4419" />
    <path
       inkscape:connector-curvature="0"
       style="fill:none;stroke:#0000ff;stroke-linecap:round;stroke-width:0.03543307;stroke-miterlimit:4;stroke-dasharray:none;stroke-opacity:1"
       d="m 18.875,-90.32673 0,-212.59843"
       id="path4421" />
    <path
       inkscape:connector-curvature="0"
       style="fill:none;stroke:#0000ff;stroke-linecap:round;stroke-width:0.03543307;stroke-miterlimit:4;stroke-dasharray:none;stroke-opacity:1"
       d="m 1137.3199,550.5867 0,-177.1654"
       id="path4423" />
    <path
       inkscape:connector-curvature="0"
       style="fill:none;stroke:#0000ff;stroke-linecap:round;stroke-width:0.03543307;stroke-miterlimit:4;stroke-dasharray:none;stroke-opacity:1"
       d="m 1113.5089,373.4213 0,655.5118"
       id="path4425" />
    <path
       inkscape:connector-curvature="0"
       style="fill:none;stroke:#0000ff;stroke-linecap:round;stroke-width:0.03543307;stroke-miterlimit:4;stroke-dasharray:none;stroke-opacity:1"
       d="m 1113.5089,1028.9331 82.3464,0"
       id="path4427" />
    <path
       inkscape:connector-curvature="0"
       style="fill:none;stroke:#0000ff;stroke-linecap:round;stroke-width:0.03543307;stroke-miterlimit:4;stroke-dasharray:none;stroke-opacity:1"
       d="m 1195.8553,1028.9331 0,20.8347"
       id="path4429" />
    <path
       inkscape:connector-curvature="0"
       style="fill:none;stroke:#0000ff;stroke-linecap:round;stroke-width:0.03543307;stroke-miterlimit:4;stroke-dasharray:none;stroke-opacity:1"
       d="m 1195.8553,1049.7678 58.5355,0"
       id="path4431" />
    <path
       inkscape:connector-curvature="0"
       style="fill:none;stroke:#0000ff;stroke-linecap:round;stroke-width:0.03543307;stroke-miterlimit:4;stroke-dasharray:none;stroke-opacity:1"
       d="m 1254.3908,1049.7678 0,-20.8347"
       id="path4433" />
    <path
       inkscape:connector-curvature="0"
       style="fill:none;stroke:#0000ff;stroke-linecap:round;stroke-width:0.03543307;stroke-miterlimit:4;stroke-dasharray:none;stroke-opacity:1"
       d="m 1254.3908,1028.9331 58.5354,0"
       id="path4435" />
    <path
       inkscape:connector-curvature="0"
       style="fill:none;stroke:#0000ff;stroke-linecap:round;stroke-width:0.03543307;stroke-miterlimit:4;stroke-dasharray:none;stroke-opacity:1"
       d="m 1312.9262,1028.9331 0,-478.3464"
       id="path4437" />
    <path
       inkscape:connector-curvature="0"
       style="fill:none;stroke:#0000ff;stroke-linecap:round;stroke-width:0.03543307;stroke-miterlimit:4;stroke-dasharray:none;stroke-opacity:1"
       d="m 1312.9262,550.5867 23.811,0"
       id="path4439" />
    <path
       inkscape:connector-curvature="0"
       style="fill:none;stroke:#0000ff;stroke-linecap:round;stroke-width:0.03543307;stroke-miterlimit:4;stroke-dasharray:none;stroke-opacity:1"
       d="m 1336.7372,550.5867 0,-177.1654"
       id="path4441" />
    <path
       inkscape:connector-curvature="0"
       style="fill:none;stroke:#0000ff;stroke-linecap:round;stroke-width:0.03543307;stroke-miterlimit:4;stroke-dasharray:none;stroke-opacity:1"
       d="m 1148.4813,373.4213 0,177.1654"
       id="path4443" />
    <path
       inkscape:connector-curvature="0"
       style="fill:none;stroke:#0000ff;stroke-linecap:round;stroke-width:0.03543307;stroke-miterlimit:4;stroke-dasharray:none;stroke-opacity:1"
       d="m 1148.4813,550.5867 -11.1614,0"
       id="path4445" />
    <path
       inkscape:connector-curvature="0"
       style="fill:none;stroke:#0000ff;stroke-linecap:round;stroke-width:0.03543307;stroke-miterlimit:4;stroke-dasharray:none;stroke-opacity:1"
       d="m 893.57579,550.5867 0,-177.1654"
       id="path4447" />
    <path
       inkscape:connector-curvature="0"
       style="fill:none;stroke:#0000ff;stroke-linecap:round;stroke-width:0.03543307;stroke-miterlimit:4;stroke-dasharray:none;stroke-opacity:1"
       d="m 893.57579,373.4213 23.81102,0"
       id="path4449" />
    <path
       inkscape:connector-curvature="0"
       style="fill:none;stroke:#0000ff;stroke-linecap:round;stroke-width:0.03543307;stroke-miterlimit:4;stroke-dasharray:none;stroke-opacity:1"
       d="m 917.38681,373.4213 0,655.5118"
       id="path4451" />
    <path
       inkscape:connector-curvature="0"
       style="fill:none;stroke:#0000ff;stroke-linecap:round;stroke-width:0.03543307;stroke-miterlimit:4;stroke-dasharray:none;stroke-opacity:1"
       d="m 917.38681,1028.9331 -82.34646,0"
       id="path4453" />
    <path
       inkscape:connector-curvature="0"
       style="fill:none;stroke:#0000ff;stroke-linecap:round;stroke-width:0.03543307;stroke-miterlimit:4;stroke-dasharray:none;stroke-opacity:1"
       d="m 835.04035,1028.9331 0,20.8347"
       id="path4455" />
    <path
       inkscape:connector-curvature="0"
       style="fill:none;stroke:#0000ff;stroke-linecap:round;stroke-width:0.03543307;stroke-miterlimit:4;stroke-dasharray:none;stroke-opacity:1"
       d="m 835.04035,1049.7678 -58.53543,0"
       id="path4457" />
    <path
       inkscape:connector-curvature="0"
       style="fill:none;stroke:#0000ff;stroke-linecap:round;stroke-width:0.03543307;stroke-miterlimit:4;stroke-dasharray:none;stroke-opacity:1"
       d="m 776.50492,1049.7678 0,-20.8347"
       id="path4459" />
    <path
       inkscape:connector-curvature="0"
       style="fill:none;stroke:#0000ff;stroke-linecap:round;stroke-width:0.03543307;stroke-miterlimit:4;stroke-dasharray:none;stroke-opacity:1"
       d="m 776.50492,1028.9331 -58.53543,0"
       id="path4461" />
    <path
       inkscape:connector-curvature="0"
       style="fill:none;stroke:#0000ff;stroke-linecap:round;stroke-width:0.03543307;stroke-miterlimit:4;stroke-dasharray:none;stroke-opacity:1"
       d="m 717.96949,1048.7756 0,-498.1889"
       id="path4463" />
    <path
       inkscape:connector-curvature="0"
       style="fill:none;stroke:#0000ff;stroke-linecap:round;stroke-width:0.03543307;stroke-miterlimit:4;stroke-dasharray:none;stroke-opacity:1"
       d="m 717.96949,550.5867 -23.81103,0"
       id="path4465" />
    <path
       inkscape:connector-curvature="0"
       style="fill:none;stroke:#0000ff;stroke-linecap:round;stroke-width:0.03543307;stroke-miterlimit:4;stroke-dasharray:none;stroke-opacity:1"
       d="m 694.15846,550.5867 0,-177.1654"
       id="path4467" />
    <path
       inkscape:connector-curvature="0"
       style="fill:none;stroke:#0000ff;stroke-linecap:round;stroke-width:0.03543307;stroke-miterlimit:4;stroke-dasharray:none;stroke-opacity:1"
       d="m 694.15846,373.4213 188.25591,0"
       id="path4469" />
    <path
       inkscape:connector-curvature="0"
       style="fill:none;stroke:#0000ff;stroke-linecap:round;stroke-width:0.03543307;stroke-miterlimit:4;stroke-dasharray:none;stroke-opacity:1"
       d="m 882.41437,373.4213 0,177.1654"
       id="path4471" />
    <path
       inkscape:connector-curvature="0"
       style="fill:none;stroke:#0000ff;stroke-linecap:round;stroke-width:0.03543307;stroke-miterlimit:4;stroke-dasharray:none;stroke-opacity:1"
       d="m 882.41437,550.5867 11.16142,0"
       id="path4473" />
    <path
       inkscape:connector-curvature="0"
       style="fill:none;stroke:#0000ff;stroke-linecap:round;stroke-width:0.03543307;stroke-miterlimit:4;stroke-dasharray:none;stroke-opacity:1"
       d="m 1137.3199,196.25595 0,177.16535"
       id="path4475" />
    <path
       inkscape:connector-curvature="0"
       style="fill:none;stroke:#0000ff;stroke-linecap:round;stroke-width:0.03543307;stroke-miterlimit:4;stroke-dasharray:none;stroke-opacity:1"
       d="m 1137.3199,373.4213 -23.811,0"
       id="path4477" />
    <path
       inkscape:connector-curvature="0"
       style="fill:none;stroke:#0000ff;stroke-linecap:round;stroke-width:0.03543307;stroke-miterlimit:4;stroke-dasharray:none;stroke-opacity:1"
       d="m 1113.5089,373.4213 0,-655.51181"
       id="path4479" />
    <path
       inkscape:connector-curvature="0"
       style="fill:none;stroke:#0000ff;stroke-linecap:round;stroke-width:0.03543307;stroke-miterlimit:4;stroke-dasharray:none;stroke-opacity:1"
       d="m 1113.5089,-282.09051 82.3464,0"
       id="path4481" />
    <path
       inkscape:connector-curvature="0"
       style="fill:none;stroke:#0000ff;stroke-linecap:round;stroke-width:0.03543307;stroke-miterlimit:4;stroke-dasharray:none;stroke-opacity:1"
       d="m 1195.8553,-282.09051 0,-20.83465"
       id="path4483" />
    <path
       inkscape:connector-curvature="0"
       style="fill:none;stroke:#0000ff;stroke-linecap:round;stroke-width:0.03543307;stroke-miterlimit:4;stroke-dasharray:none;stroke-opacity:1"
       d="m 1195.8553,-302.92516 58.5355,0"
       id="path4485" />
    <path
       inkscape:connector-curvature="0"
       style="fill:none;stroke:#0000ff;stroke-linecap:round;stroke-width:0.03543307;stroke-miterlimit:4;stroke-dasharray:none;stroke-opacity:1"
       d="m 1254.3908,-302.92516 0,20.83465"
       id="path4487" />
    <path
       inkscape:connector-curvature="0"
       style="fill:none;stroke:#0000ff;stroke-linecap:round;stroke-width:0.03543307;stroke-miterlimit:4;stroke-dasharray:none;stroke-opacity:1"
       d="m 1254.3908,-282.09051 58.5354,0"
       id="path4489" />
    <path
       inkscape:connector-curvature="0"
       style="fill:none;stroke:#0000ff;stroke-linecap:round;stroke-width:0.03543307;stroke-miterlimit:4;stroke-dasharray:none;stroke-opacity:1"
       d="m 1312.9262,-282.09051 0,478.34646"
       id="path4491" />
    <path
       inkscape:connector-curvature="0"
       style="fill:none;stroke:#0000ff;stroke-linecap:round;stroke-width:0.03543307;stroke-miterlimit:4;stroke-dasharray:none;stroke-opacity:1"
       d="m 1312.9262,196.25595 23.811,0"
       id="path4493" />
    <path
       inkscape:connector-curvature="0"
       style="fill:none;stroke:#0000ff;stroke-linecap:round;stroke-width:0.03543307;stroke-miterlimit:4;stroke-dasharray:none;stroke-opacity:1"
       d="m 1336.7372,196.25595 0,177.16535"
       id="path4495" />
    <path
       inkscape:connector-curvature="0"
       style="fill:none;stroke:#0000ff;stroke-linecap:round;stroke-width:0.03543307;stroke-miterlimit:4;stroke-dasharray:none;stroke-opacity:1"
       d="m 1336.7372,373.4213 -188.2559,0"
       id="path4497" />
    <path
       inkscape:connector-curvature="0"
       style="fill:none;stroke:#0000ff;stroke-linecap:round;stroke-width:0.03543307;stroke-miterlimit:4;stroke-dasharray:none;stroke-opacity:1"
       d="m 1148.4813,373.4213 0,-177.16535"
       id="path4499" />
    <path
       inkscape:connector-curvature="0"
       style="fill:none;stroke:#0000ff;stroke-linecap:round;stroke-width:0.03543307;stroke-miterlimit:4;stroke-dasharray:none;stroke-opacity:1"
       d="m 1148.4813,196.25595 -11.1614,0"
       id="path4501" />
    <path
       inkscape:connector-curvature="0"
       style="fill:none;stroke:#0000ff;stroke-linecap:round;stroke-width:0.03543307;stroke-miterlimit:4;stroke-dasharray:none;stroke-opacity:1"
       d="m 893.57579,196.25595 0,177.16535"
       id="path4503" />
    <path
       inkscape:connector-curvature="0"
       style="fill:none;stroke:#0000ff;stroke-linecap:round;stroke-width:0.03543307;stroke-miterlimit:4;stroke-dasharray:none;stroke-opacity:1"
       d="m 917.38681,373.4213 0,-655.51181"
       id="path4505" />
    <path
       inkscape:connector-curvature="0"
       style="fill:none;stroke:#0000ff;stroke-linecap:round;stroke-width:0.03543307;stroke-miterlimit:4;stroke-dasharray:none;stroke-opacity:1"
       d="m 917.38681,-282.09051 -82.34646,0"
       id="path4507" />
    <path
       inkscape:connector-curvature="0"
       style="fill:none;stroke:#0000ff;stroke-linecap:round;stroke-width:0.03543307;stroke-miterlimit:4;stroke-dasharray:none;stroke-opacity:1"
       d="m 835.04035,-282.09051 0,-20.83465"
       id="path4509" />
    <path
       inkscape:connector-curvature="0"
       style="fill:none;stroke:#0000ff;stroke-linecap:round;stroke-width:0.03543307;stroke-miterlimit:4;stroke-dasharray:none;stroke-opacity:1"
       d="m 835.04035,-302.92516 -58.53543,0"
       id="path4511" />
    <path
       inkscape:connector-curvature="0"
       style="fill:none;stroke:#0000ff;stroke-linecap:round;stroke-width:0.03543307;stroke-miterlimit:4;stroke-dasharray:none;stroke-opacity:1"
       d="m 776.50492,-302.92516 0,20.83465"
       id="path4513" />
    <path
       inkscape:connector-curvature="0"
       style="fill:none;stroke:#0000ff;stroke-linecap:round;stroke-width:0.03543307;stroke-miterlimit:4;stroke-dasharray:none;stroke-opacity:1"
       d="m 776.50492,-282.09051 -58.53543,0"
       id="path4515" />
    <path
       inkscape:connector-curvature="0"
       style="fill:none;stroke:#0000ff;stroke-linecap:round;stroke-width:0.03543307;stroke-miterlimit:4;stroke-dasharray:none;stroke-opacity:1"
       d="m 717.96949,-302.92516 0,499.18111"
       id="path4517" />
    <path
       inkscape:connector-curvature="0"
       style="fill:none;stroke:#0000ff;stroke-linecap:round;stroke-width:0.03543307;stroke-miterlimit:4;stroke-dasharray:none;stroke-opacity:1"
       d="m 717.96949,196.25595 -23.81103,0"
       id="path4519" />
    <path
       inkscape:connector-curvature="0"
       style="fill:none;stroke:#0000ff;stroke-linecap:round;stroke-width:0.03543307;stroke-miterlimit:4;stroke-dasharray:none;stroke-opacity:1"
       d="m 694.15846,196.25595 0,177.16535"
       id="path4521" />
    <path
       inkscape:connector-curvature="0"
       style="fill:none;stroke:#0000ff;stroke-linecap:round;stroke-width:0.03543307;stroke-miterlimit:4;stroke-dasharray:none;stroke-opacity:1"
       d="m 882.41437,373.4213 0,-177.16535"
       id="path4523" />
    <path
       inkscape:connector-curvature="0"
       style="fill:none;stroke:#0000ff;stroke-linecap:round;stroke-width:0.03543307;stroke-miterlimit:4;stroke-dasharray:none;stroke-opacity:1"
       d="m 882.41437,196.25595 11.16142,0"
       id="path4525" />
    <path
       inkscape:connector-curvature="0"
       style="fill:none;stroke:#0000ff;stroke-linecap:round;stroke-width:0.03543307;stroke-miterlimit:4;stroke-dasharray:none;stroke-opacity:1"
       d="m 1113.5089,-253.74405 -196.12209,0"
       id="path4527" />
    <path
       inkscape:connector-curvature="0"
       style="fill:none;stroke:#0000ff;stroke-linecap:round;stroke-width:0.03543307;stroke-miterlimit:4;stroke-dasharray:none;stroke-opacity:1"
       d="m 917.38681,373.4213 196.12209,0"
       id="path4529" />
    <path
       inkscape:connector-curvature="0"
       style="fill:none;stroke:#0000ff;stroke-linecap:round;stroke-width:0.03543307;stroke-miterlimit:4;stroke-dasharray:none;stroke-opacity:1"
       d="m 1113.5089,1000.5867 -196.12209,0"
       id="path4531" />
    <path
       inkscape:connector-curvature="0"
       style="fill:none;stroke:#0000ff;stroke-linecap:round;stroke-width:0.03543307;stroke-miterlimit:4;stroke-dasharray:none;stroke-opacity:1"
       d="m 717.96949,1048.7756 -699.09449,0"
       id="path4533" />
    <path
       inkscape:connector-curvature="0"
       style="fill:none;stroke:#0000ff;stroke-linecap:round;stroke-width:0.03543307;stroke-miterlimit:4;stroke-dasharray:none;stroke-opacity:1"
       d="m 18.875,1048.7756 0,-212.5984"
       id="path4535" />
    <path
       inkscape:connector-curvature="0"
       style="fill:none;stroke:#0000ff;stroke-linecap:round;stroke-width:0.03543307;stroke-miterlimit:4;stroke-dasharray:none;stroke-opacity:1"
       d="m 18.875,836.1772 17.71653,0"
       id="path4537" />
    <path
       inkscape:connector-curvature="0"
       style="fill:none;stroke:#0000ff;stroke-linecap:round;stroke-width:0.03543307;stroke-miterlimit:4;stroke-dasharray:none;stroke-opacity:1"
       d="m 36.59153,836.1772 0,42.5197"
       id="path4539" />
    <path
       inkscape:connector-curvature="0"
       style="fill:none;stroke:#0000ff;stroke-linecap:round;stroke-width:0.03543307;stroke-miterlimit:4;stroke-dasharray:none;stroke-opacity:1"
       d="m 36.59153,878.6969 11.16142,0"
       id="path4541" />
    <path
       inkscape:connector-curvature="0"
       style="fill:none;stroke:#0000ff;stroke-linecap:round;stroke-width:0.03543307;stroke-miterlimit:4;stroke-dasharray:none;stroke-opacity:1"
       d="m 47.75295,878.6969 0,-443.7638"
       id="path4543" />
    <path
       inkscape:connector-curvature="0"
       style="fill:none;stroke:#0000ff;stroke-linecap:round;stroke-width:0.03543307;stroke-miterlimit:4;stroke-dasharray:none;stroke-opacity:1"
       d="m 47.75295,434.9331 418.64173,0"
       id="path4545" />
    <path
       inkscape:connector-curvature="0"
       style="fill:none;stroke:#0000ff;stroke-linecap:round;stroke-width:0.03543307;stroke-miterlimit:4;stroke-dasharray:none;stroke-opacity:1"
       d="m 466.39468,434.9331 0,-124.01574"
       id="path4547" />
    <path
       inkscape:connector-curvature="0"
       style="fill:none;stroke:#0000ff;stroke-linecap:round;stroke-width:0.03543307;stroke-miterlimit:4;stroke-dasharray:none;stroke-opacity:1"
       d="m 591.11909,310.91736 0,124.01574"
       id="path4549" />
    <path
       inkscape:connector-curvature="0"
       style="fill:none;stroke:#0000ff;stroke-linecap:round;stroke-width:0.03543307;stroke-miterlimit:4;stroke-dasharray:none;stroke-opacity:1"
       d="m 591.11909,434.9331 97.97245,0"
       id="path4551" />
    <path
       inkscape:connector-curvature="0"
       style="fill:none;stroke:#0000ff;stroke-linecap:round;stroke-width:0.03543307;stroke-miterlimit:4;stroke-dasharray:none;stroke-opacity:1"
       d="m 689.09154,434.9331 0,443.7638"
       id="path4553" />
    <path
       inkscape:connector-curvature="0"
       style="fill:none;stroke:#0000ff;stroke-linecap:round;stroke-width:0.03543307;stroke-miterlimit:4;stroke-dasharray:none;stroke-opacity:1"
       d="m 689.09154,878.6969 11.16141,0"
       id="path4555" />
    <path
       inkscape:connector-curvature="0"
       style="fill:none;stroke:#0000ff;stroke-linecap:round;stroke-width:0.03543307;stroke-miterlimit:4;stroke-dasharray:none;stroke-opacity:1"
       d="m 700.25295,878.6969 0,-42.5197"
       id="path4557" />
    <path
       inkscape:connector-curvature="0"
       style="fill:none;stroke:#0000ff;stroke-linecap:round;stroke-width:0.03543307;stroke-miterlimit:4;stroke-dasharray:none;stroke-opacity:1"
       d="m 700.25295,836.1772 17.71654,0"
       id="path4559" />
  </g>
</svg>
