999
dxflib 3.7.5.0
  0
SECTION
  2
HEADER
  9
$ACADVER
  1
AC1015
  9
$HANDSEED
  5
FFFF
  9
$ANGBASE
 50
0.0
  9
$ATTMODE
 70
1
  9
$AUNITS
 70
0
  9
$AUPREC
 70
0
  9
$CELTSCALE
 40
1.0
  9
$CHAMFERA
 40
0.0
  9
$CHAMFERB
 40
0.0
  9
$CHAMFERC
 40
0.0
  9
$CHAMFERD
 40
0.0
  9
$CMLJUST
 70
0
  9
$CMLSCALE
 40
1.0
  9
$DIMADEC
 70
0
  9
$DIMALTD
 70
2
  9
$DIMALTF
 40
25.399999999999999
  9
$DIMALTRND
 40
0.0
  9
$DIMALTTD
 70
2
  9
$DIMALTTZ
 70
0
  9
$DIMALTU
 70
2
  9
$DIMALTZ
 70
0
  9
$DIMAPOST
  1

  9
$DIMASZ
 40
2.5
  9
$DIMATFIT
 70
3
  9
$DIMAUNIT
 70
0
  9
$DIMAZIN
 70
2
  9
$DIMCEN
 40
0.09
  9
$DIMDEC
 70
4
  9
$DIMDLE
 40
0.0
  9
$DIMDLI
 40
0.38
  9
$DIMDSEP
 70
46
  9
$DIMEXE
 40
1.25
  9
$DIMEXO
 40
0.625
  9
$DIMFRAC
 70
0
  9
$DIMGAP
 40
0.625
  9
$DIMJUST
 70
0
  9
$DIMLFAC
 40
1.0
  9
$DIMLUNIT
 70
2
  9
$DIMLWD
 70
-2
  9
$DIMLWE
 70
-2
  9
$DIMPOST
  1

  9
$DIMRND
 40
0.0
  9
$DIMSCALE
 40
1.0
  9
$DIMTAD
 70
0
  9
$DIMTDEC
 70
4
  9
$DIMTFAC
 40
1.0
  9
$DIMTM
 40
0.0
  9
$DIMTOLJ
 70
1
  9
$DIMTP
 40
0.0
  9
$DIMTSZ
 40
0.0
  9
$DIMTVP
 40
0.0
  9
$DIMTXT
 40
2.5
  9
$DIMTZIN
 70
0
  9
$DIMZIN
 70
8
  9
$DWGCODEPAGE
  3
ANSI_1252
  9
$ELEVATION
 40
0.0
  9
$EXTMAX
 10
-100000000000000000000.0
 20
-100000000000000000000.0
 30
-100000000000000000000.0
  9
$EXTMIN
 10
100000000000000000000.0
 20
100000000000000000000.0
 30
100000000000000000000.0
  9
$FILLETRAD
 40
0.5
  9
$INSBASE
 10
0.0
 20
0.0
 30
0.0
  9
$INSUNITS
 70
4
  9
$LIMMAX
 10
12.0
 20
9.0
  9
$LIMMIN
 10
0.0
 20
0.0
  9
$LTSCALE
 40
1.0
  9
$LUNITS
 70
2
  9
$LUPREC
 70
4
  9
$MAXACTVP
 70
2
  9
$PDMODE
 70
0
  9
$PDSIZE
 40
0.0
  9
$PELEVATION
 40
0.0
  9
$PEXTMAX
 10
-100000000000000000000.0
 20
-100000000000000000000.0
 30
-100000000000000000000.0
  9
$PEXTMIN
 10
100000000000000000000.0
 20
100000000000000000000.0
 30
100000000000000000000.0
  9
$PINSBASE
 10
0.0
 20
0.0
 30
0.0
  9
$PLIMMAX
 10
12.0
 20
9.0
  9
$PLIMMIN
 10
0.0
 20
0.0
  9
$PLINEWID
 40
0.0
  9
$PROXYGRAPHICS
 70
1
  9
$PUCSORG
 10
0.0
 20
0.0
 30
0.0
  9
$PUCSXDIR
 10
1.0
 20
0.0
 30
0.0
  9
$PUCSYDIR
 10
0.0
 20
1.0
 30
0.0
  9
$SHADEDGE
 70
3
  9
$SHADEDIF
 70
70
  9
$SKETCHINC
 40
0.1
  9
$SPLINESEGS
 70
8
  9
$SPLINETYPE
 70
6
  9
$SURFTAB1
 70
6
  9
$SURFTAB2
 70
6
  9
$SURFTYPE
 70
6
  9
$SURFU
 70
6
  9
$SURFV
 70
6
  9
$TEXTSIZE
 40
2.5
  9
$THICKNESS
 40
0.0
  9
$TRACEWID
 40
0.05
  9
$TREEDEPTH
 70
3020
  9
$UCSORG
 10
0.0
 20
0.0
 30
0.0
  9
$UCSXDIR
 10
1.0
 20
0.0
 30
0.0
  9
$UCSYDIR
 10
0.0
 20
1.0
 30
0.0
  9
$UNITMODE
 70
0
  9
$USERI1
 70
0
  9
$USERI2
 70
0
  9
$USERI3
 70
0
  9
$USERI4
 70
0
  9
$USERI5
 70
0
  9
$USERR1
 40
0.0
  9
$USERR2
 40
0.0
  9
$USERR3
 40
0.0
  9
$USERR4
 40
0.0
  9
$USERR5
 40
0.0
  0
ENDSEC
  0
SECTION
  2
TABLES
  0
TABLE
  2
VPORT
  5
8
100
AcDbSymbolTable
 70
1
  0
VPORT
  5
30
100
AcDbSymbolTableRecord
100
AcDbViewportTableRecord
  2
*Active
 70
0
 10
0.0
 20
0.0
 11
1.0
 21
1.0
 12
286.30555555555549
 22
148.5
 13
0.0
 23
0.0
 14
10.0
 24
10.0
 15
10.0
 25
10.0
 16
0.0
 26
0.0
 36
1.0
 17
0.0
 27
0.0
 37
0.0
 40
297.0
 41
1.92798353909465
 42
50.0
 43
0.0
 44
0.0
 50
0.0
 51
0.0
 71
0
 72
100
 73
1
 74
3
 75
1
 76
1
 77
0
 78
0
281
0
 65
1
110
0.0
120
0.0
130
0.0
111
1.0
121
0.0
131
0.0
112
0.0
122
1.0
132
0.0
 79
0
146
0.0
  0
ENDTAB
  0
TABLE
  2
LTYPE
  5
5
100
AcDbSymbolTable
 70
41
  0
LTYPE
  5
16
100
AcDbSymbolTableRecord
100
AcDbLinetypeTableRecord
  2
Continuous
 70
0
  3
Solid line
 72
65
 73
0
 40
0.0
  0
LTYPE
  5
31
100
AcDbSymbolTableRecord
100
AcDbLinetypeTableRecord
  2
ACAD_ISO15W100
 70
0
  3
ISO double-dash triple-dot __ __ . . . __ __ . .
 72
65
 73
10
 40
39.000000000000007
 49
12.0
 74
0
 49
-3.0
 74
0
 49
12.0
 74
0
 49
-2.9500000000000002
 74
0
 49
0.1
 74
0
 49
-2.9000000000000004
 74
0
 49
0.1
 74
0
 49
-2.9000000000000004
 74
0
 49
0.1
 74
0
 49
-2.9500000000000002
 74
0
  0
LTYPE
  5
32
100
AcDbSymbolTableRecord
100
AcDbLinetypeTableRecord
  2
DIVIDE
 70
0
  3
Divide ____ . . ____ . . ____ . . ____ . . ____
 72
65
 73
6
 40
31.750000000000004
 49
12.699999999999999
 74
0
 49
-6.2999999999999998
 74
0
 49
0.1
 74
0
 49
-6.25
 74
0
 49
0.1
 74
0
 49
-6.2999999999999998
 74
0
  0
LTYPE
  5
33
100
AcDbSymbolTableRecord
100
AcDbLinetypeTableRecord
  2
ACAD_ISO10W100
 70
0
  3
ISO dash dot __ . __ . __ . __ . __ . __ . __ . 
 72
65
 73
4
 40
18.0
 49
12.0
 74
0
 49
-2.9500000000000002
 74
0
 49
0.1
 74
0
 49
-2.9500000000000002
 74
0
  0
LTYPE
  5
34
100
AcDbSymbolTableRecord
100
AcDbLinetypeTableRecord
  2
ACAD_ISO04W100
 70
0
  3
ISO long-dash dot ____ . ____ . ____ . ____ . _
 72
65
 73
4
 40
30.0
 49
24.0
 74
0
 49
-2.9500000000000002
 74
0
 49
0.1
 74
0
 49
-2.9500000000000002
 74
0
  0
LTYPE
  5
35
100
AcDbSymbolTableRecord
100
AcDbLinetypeTableRecord
  2
CENTER2
 70
0
  3
Center (.5x) ___ _ ___ _ ___ _ ___ _ ___ _ ___
 72
65
 73
4
 40
28.575000000000003
 49
19.050000000000001
 74
0
 49
-3.1749999999999998
 74
0
 49
3.1749999999999998
 74
0
 49
-3.1749999999999998
 74
0
  0
LTYPE
  5
36
100
AcDbSymbolTableRecord
100
AcDbLinetypeTableRecord
  2
ACAD_ISO11W100
 70
0
  3
ISO double-dash dot __ __ . __ __ . __ __ . __ _
 72
65
 73
6
 40
33.0
 49
12.0
 74
0
 49
-3.0
 74
0
 49
12.0
 74
0
 49
-2.9500000000000002
 74
0
 49
0.1
 74
0
 49
-2.9500000000000002
 74
0
  0
LTYPE
  5
37
100
AcDbSymbolTableRecord
100
AcDbLinetypeTableRecord
  2
HIDDEN2
 70
0
  3
Hidden (.5x) _ _ _ _ _ _ _ _ _ _ _ _ _ _ _ _ _ 
 72
65
 73
2
 40
4.7624999999999993
 49
3.1749999999999998
 74
0
 49
-1.5874999999999999
 74
0
  0
LTYPE
  5
38
100
AcDbSymbolTableRecord
100
AcDbLinetypeTableRecord
  2
BORDERX2
 70
0
  3
Border (2x) ____  ____  .  ____  ____  .  ___
 72
65
 73
6
 40
88.899999999999977
 49
25.399999999999999
 74
0
 49
-12.699999999999999
 74
0
 49
25.399999999999999
 74
0
 49
-12.649999999999999
 74
0
 49
0.1
 74
0
 49
-12.649999999999999
 74
0
  0
LTYPE
  5
39
100
AcDbSymbolTableRecord
100
AcDbLinetypeTableRecord
  2
ACAD_ISO05W100
 70
0
  3
ISO long-dash double-dot ____ .. ____ .. ____ . 
 72
65
 73
6
 40
33.000000000000007
 49
24.0
 74
0
 49
-2.9500000000000002
 74
0
 49
0.1
 74
0
 49
-2.9000000000000004
 74
0
 49
0.1
 74
0
 49
-2.9500000000000002
 74
0
  0
LTYPE
  5
3A
100
AcDbSymbolTableRecord
100
AcDbLinetypeTableRecord
  2
DASHDOTX2
 70
0
  3
Dash dot (2x) ____  .  ____  .  ____  .  ___
 72
65
 73
4
 40
50.799999999999997
 49
25.399999999999999
 74
0
 49
-12.649999999999999
 74
0
 49
0.1
 74
0
 49
-12.649999999999999
 74
0
  0
LTYPE
  5
3B
100
AcDbSymbolTableRecord
100
AcDbLinetypeTableRecord
  2
HIDDENX2
 70
0
  3
Hidden (2x) ____ ____ ____ ____ ____ ____ ____ 
 72
65
 73
2
 40
19.049999999999997
 49
12.699999999999999
 74
0
 49
-6.3499999999999996
 74
0
  0
LTYPE
  5
3C
100
AcDbSymbolTableRecord
100
AcDbLinetypeTableRecord
  2
CENTERX2
 70
0
  3
Center (2x) ________  __  ________  __  _____
 72
65
 73
4
 40
101.60000000000001
 49
63.5
 74
0
 49
-12.699999999999999
 74
0
 49
12.699999999999999
 74
0
 49
-12.699999999999999
 74
0
  0
LTYPE
  5
3D
100
AcDbSymbolTableRecord
100
AcDbLinetypeTableRecord
  2
BORDER2
 70
0
  3
Border (.5x) __.__.__.__.__.__.__.__.__.__.__.
 72
65
 73
6
 40
22.225000000000001
 49
6.3499999999999996
 74
0
 49
-3.1749999999999998
 74
0
 49
6.3499999999999996
 74
0
 49
-3.125
 74
0
 49
0.1
 74
0
 49
-3.125
 74
0
  0
LTYPE
  5
3E
100
AcDbSymbolTableRecord
100
AcDbLinetypeTableRecord
  2
DASHDOT2
 70
0
  3
Dash dot (.5x) _._._._._._._._._._._._._._._.
 72
65
 73
4
 40
12.699999999999999
 49
6.3499999999999996
 74
0
 49
-3.125
 74
0
 49
0.1
 74
0
 49
-3.125
 74
0
  0
LTYPE
  5
3F
100
AcDbSymbolTableRecord
100
AcDbLinetypeTableRecord
  2
ACAD_ISO12W100
 70
0
  3
ISO dash double-dot __ . . __ . . __ . . __ . . 
 72
65
 73
6
 40
21.0
 49
12.0
 74
0
 49
-2.9500000000000002
 74
0
 49
0.1
 74
0
 49
-2.9000000000000004
 74
0
 49
0.1
 74
0
 49
-2.9500000000000002
 74
0
  0
LTYPE
  5
40
100
AcDbSymbolTableRecord
100
AcDbLinetypeTableRecord
  2
ACAD_ISO07W100
 70
0
  3
ISO dot . . . . . . . . . . . . . . . . . . . . 
 72
65
 73
2
 40
3.0
 49
0.1
 74
0
 49
-2.8999999999999999
 74
0
  0
LTYPE
  5
41
100
AcDbSymbolTableRecord
100
AcDbLinetypeTableRecord
  2
HIDDEN
 70
0
  3
Hidden __ __ __ __ __ __ __ __ __ __ __ __ __ __
 72
65
 73
2
 40
9.5249999999999986
 49
6.3499999999999996
 74
0
 49
-3.1749999999999998
 74
0
  0
LTYPE
  5
42
100
AcDbSymbolTableRecord
100
AcDbLinetypeTableRecord
  2
ACAD_ISO06W100
 70
0
  3
ISO long-dash triple-dot ____ ... ____ ... ____
 72
65
 73
8
 40
36.000000000000007
 49
24.0
 74
0
 49
-2.9500000000000002
 74
0
 49
0.1
 74
0
 49
-2.9000000000000004
 74
0
 49
0.1
 74
0
 49
-2.9000000000000004
 74
0
 49
0.1
 74
0
 49
-2.9500000000000002
 74
0
  0
LTYPE
  5
43
100
AcDbSymbolTableRecord
100
AcDbLinetypeTableRecord
  2
CENTER
 70
0
  3
Center ____ _ ____ _ ____ _ ____ _ ____ _ ____
 72
65
 73
4
 40
50.800000000000004
 49
31.75
 74
0
 49
-6.3499999999999996
 74
0
 49
6.3499999999999996
 74
0
 49
-6.3499999999999996
 74
0
  0
LTYPE
  5
44
100
AcDbSymbolTableRecord
100
AcDbLinetypeTableRecord
  2
DOTX2
 70
0
  3
Dot (2x) .  .  .  .  .  .  .  .  .  .  .  .  .  .
 72
65
 73
2
 40
12.699999999999999
 49
0.1
 74
0
 49
-12.6
 74
0
  0
LTYPE
  5
45
100
AcDbSymbolTableRecord
100
AcDbLinetypeTableRecord
  2
PHANTOM
 70
0
  3
Phantom ______  __  __  ______  __  __  ______ 
 72
65
 73
6
 40
63.500000000000007
 49
31.75
 74
0
 49
-6.3499999999999996
 74
0
 49
6.3499999999999996
 74
0
 49
-6.3499999999999996
 74
0
 49
6.3499999999999996
 74
0
 49
-6.3499999999999996
 74
0
  0
LTYPE
  5
46
100
AcDbSymbolTableRecord
100
AcDbLinetypeTableRecord
  2
ACAD_ISO08W100
 70
0
  3
ISO long-dash short-dash ____ __ ____ __ ____ _
 72
65
 73
4
 40
36.0
 49
24.0
 74
0
 49
-3.0
 74
0
 49
6.0
 74
0
 49
-3.0
 74
0
  0
LTYPE
  5
47
100
AcDbSymbolTableRecord
100
AcDbLinetypeTableRecord
  2
DASHEDX2
 70
0
  3
Dashed (2x) ____  ____  ____  ____  ____  ___
 72
65
 73
2
 40
38.099999999999994
 49
25.399999999999999
 74
0
 49
-12.699999999999999
 74
0
  0
LTYPE
  5
48
100
AcDbSymbolTableRecord
100
AcDbLinetypeTableRecord
  2
ACAD_ISO02W100
 70
0
  3
ISO dash __ __ __ __ __ __ __ __ __ __ __ __ __
 72
65
 73
2
 40
15.0
 49
12.0
 74
0
 49
-3.0
 74
0
  0
LTYPE
  5
49
100
AcDbSymbolTableRecord
100
AcDbLinetypeTableRecord
  2
PHANTOM2
 70
0
  3
Phantom (.5x) ___ _ _ ___ _ _ ___ _ _ ___ _ _
 72
65
 73
6
 40
31.750000000000004
 49
15.875
 74
0
 49
-3.1749999999999998
 74
0
 49
3.1749999999999998
 74
0
 49
-3.1749999999999998
 74
0
 49
3.1749999999999998
 74
0
 49
-3.1749999999999998
 74
0
  0
LTYPE
  5
4A
100
AcDbSymbolTableRecord
100
AcDbLinetypeTableRecord
  2
DASHED2
 70
0
  3
Dashed (.5x) _ _ _ _ _ _ _ _ _ _ _ _ _ _ _ _ _ 
 72
65
 73
2
 40
9.5249999999999986
 49
6.3499999999999996
 74
0
 49
-3.1749999999999998
 74
0
  0
LTYPE
  5
4B
100
AcDbSymbolTableRecord
100
AcDbLinetypeTableRecord
  2
ACAD_ISO09W100
 70
0
  3
ISO long-dash double-short-dash ____ __ __ ____
 72
65
 73
6
 40
45.0
 49
24.0
 74
0
 49
-3.0
 74
0
 49
6.0
 74
0
 49
-3.0
 74
0
 49
6.0
 74
0
 49
-3.0
 74
0
  0
LTYPE
  5
4C
100
AcDbSymbolTableRecord
100
AcDbLinetypeTableRecord
  2
ACAD_ISO13W100
 70
0
  3
ISO double-dash double-dot __ __ . . __ __ . . _
 72
65
 73
8
 40
36.000000000000007
 49
12.0
 74
0
 49
-3.0
 74
0
 49
12.0
 74
0
 49
-2.9500000000000002
 74
0
 49
0.1
 74
0
 49
-2.9000000000000004
 74
0
 49
0.1
 74
0
 49
-2.9500000000000002
 74
0
  0
LTYPE
  5
4D
100
AcDbSymbolTableRecord
100
AcDbLinetypeTableRecord
  2
DOT2
 70
0
  3
Dot (.5x) ........................................
 72
65
 73
2
 40
3.1749999999999998
 49
0.1
 74
0
 49
-3.0749999999999997
 74
0
  0
LTYPE
  5
4E
100
AcDbSymbolTableRecord
100
AcDbLinetypeTableRecord
  2
DASHED
 70
0
  3
Dashed __ __ __ __ __ __ __ __ __ __ __ __ __ _
 72
65
 73
2
 40
19.049999999999997
 49
12.699999999999999
 74
0
 49
-6.3499999999999996
 74
0
  0
LTYPE
  5
4F
100
AcDbSymbolTableRecord
100
AcDbLinetypeTableRecord
  2
ACAD_ISO14W100
 70
0
  3
ISO dash triple-dot __ . . . __ . . . __ . . . _
 72
65
 73
8
 40
24.000000000000004
 49
12.0
 74
0
 49
-2.9500000000000002
 74
0
 49
0.1
 74
0
 49
-2.9000000000000004
 74
0
 49
0.1
 74
0
 49
-2.9000000000000004
 74
0
 49
0.1
 74
0
 49
-2.9500000000000002
 74
0
  0
LTYPE
  5
50
100
AcDbSymbolTableRecord
100
AcDbLinetypeTableRecord
  2
PHANTOMX2
 70
0
  3
Phantom (2x) ____________    ____    ____   _
 72
65
 73
6
 40
127.00000000000001
 49
63.5
 74
0
 49
-12.699999999999999
 74
0
 49
12.699999999999999
 74
0
 49
-12.699999999999999
 74
0
 49
12.699999999999999
 74
0
 49
-12.699999999999999
 74
0
  0
LTYPE
  5
14
100
AcDbSymbolTableRecord
100
AcDbLinetypeTableRecord
  2
BYBLOCK
 70
0
  3

 72
65
 73
0
 40
0.0
  0
LTYPE
  5
51
100
AcDbSymbolTableRecord
100
AcDbLinetypeTableRecord
  2
DIVIDEX2
 70
0
  3
Divide (2x) ________  .  .  ________  .  .  _
 72
65
 73
6
 40
63.5
 49
25.399999999999999
 74
0
 49
-12.649999999999999
 74
0
 49
0.1
 74
0
 49
-12.599999999999998
 74
0
 49
0.1
 74
0
 49
-12.649999999999999
 74
0
  0
LTYPE
  5
52
100
AcDbSymbolTableRecord
100
AcDbLinetypeTableRecord
  2
BORDER
 70
0
  3
Border __ __ . __ __ . __ __ . __ __ . __ __ .
 72
65
 73
6
 40
44.449999999999996
 49
12.699999999999999
 74
0
 49
-6.3499999999999996
 74
0
 49
12.699999999999999
 74
0
 49
-6.2999999999999998
 74
0
 49
0.1
 74
0
 49
-6.2999999999999998
 74
0
  0
LTYPE
  5
53
100
AcDbSymbolTableRecord
100
AcDbLinetypeTableRecord
  2
DIVIDE2
 70
0
  3
Divide (.5x) __..__..__..__..__..__..__..__.._
 72
65
 73
6
 40
15.874999999999998
 49
6.3499999999999996
 74
0
 49
-3.125
 74
0
 49
0.1
 74
0
 49
-3.0750000000000002
 74
0
 49
0.1
 74
0
 49
-3.125
 74
0
  0
LTYPE
  5
54
100
AcDbSymbolTableRecord
100
AcDbLinetypeTableRecord
  2
DOT
 70
0
  3
Dot . . . . . . . . . . . . . . . . . . . . . . . .
 72
65
 73
2
 40
6.3499999999999996
 49
0.1
 74
0
 49
-6.25
 74
0
  0
LTYPE
  5
55
100
AcDbSymbolTableRecord
100
AcDbLinetypeTableRecord
  2
DASHDOT
 70
0
  3
Dash dot __ . __ . __ . __ . __ . __ . __ . __
 72
65
 73
4
 40
25.400000000000002
 49
12.699999999999999
 74
0
 49
-6.2999999999999998
 74
0
 49
0.1
 74
0
 49
-6.2999999999999998
 74
0
  0
LTYPE
  5
56
100
AcDbSymbolTableRecord
100
AcDbLinetypeTableRecord
  2
ACAD_ISO03W100
 70
0
  3
ISO dash space __    __    __    __    __    __
 72
65
 73
2
 40
30.0
 49
12.0
 74
0
 49
-18.0
 74
0
  0
LTYPE
  5
15
100
AcDbSymbolTableRecord
100
AcDbLinetypeTableRecord
  2
ByLayer
 70
0
  3

 72
65
 73
0
 40
0.0
  0
ENDTAB
  0
TABLE
  2
LAYER
  5
2
100
AcDbSymbolTable
 70
1
  0
LAYER
  5
10
100
AcDbSymbolTableRecord
100
AcDbLayerTableRecord
  2
0
 70
0
 62
7
420
16777215
  6
Continuous
370
25
390
F
  0
ENDTAB
  0
TABLE
  2
STYLE
  5
3
100
AcDbSymbolTable
 70
1
  0
STYLE
  5
57
100
AcDbSymbolTableRecord
100
AcDbTextStyleTableRecord
  2
Standard
 70
0
 40
0.0
 41
1.0
 50
0.0
 71
0
 42
2.5
  3

  4

1001
ACAD
1000
txt
1071
0
  0
ENDTAB
  0
TABLE
  2
VIEW
  5
6
100
AcDbSymbolTable
 70
0
  0
ENDTAB
  0
TABLE
  2
UCS
  5
7
100
AcDbSymbolTable
 70
0
  0
ENDTAB
  0
TABLE
  2
APPID
  5
9
100
AcDbSymbolTable
 70
1
  0
APPID
  5
12
100
AcDbSymbolTableRecord
100
AcDbRegAppTableRecord
  2
ACAD
 70
0
  0
APPID
  5
58
100
AcDbSymbolTableRecord
100
AcDbRegAppTableRecord
  2
QCAD
 70
0
  0
ENDTAB
  0
TABLE
  2
DIMSTYLE
  5
A
100
AcDbSymbolTable
 70
1
100
AcDbDimStyleTable
 71
0
  0
DIMSTYLE
105
27
100
AcDbSymbolTableRecord
100
AcDbDimStyleTableRecord
  2
Standard
 41
2.5
 42
0.625
 43
3.75
 44
1.25
 70
0
 73
0
 74
0
 77
1
 78
8
140
2.5
141
2.5
143
0.03937007874016
147
0.625
171
3
172
1
271
2
272
2
274
3
278
44
283
0
284
8
340
57
  0
ENDTAB
  0
TABLE
  2
BLOCK_RECORD
  5
1
100
AcDbSymbolTable
 70
1
  0
BLOCK_RECORD
  5
1F
100
AcDbSymbolTableRecord
100
AcDbBlockTableRecord
  2
*Model_Space
340
22
  0
BLOCK_RECORD
  5
1B
100
AcDbSymbolTableRecord
100
AcDbBlockTableRecord
  2
*Paper_Space
340
1E
  0
BLOCK_RECORD
  5
23
100
AcDbSymbolTableRecord
100
AcDbBlockTableRecord
  2
*Paper_Space0
340
26
  0
ENDTAB
  0
ENDSEC
  0
SECTION
  2
BLOCKS
  0
BLOCK
  5
20
100
AcDbEntity
  8
0
100
AcDbBlockBegin
  2
*Model_Space
 70
0
 10
0.0
 20
0.0
 30
0.0
  3
*Model_Space
  1

  0
ENDBLK
  5
21
100
AcDbEntity
  8
0
100
AcDbBlockEnd
  0
BLOCK
  5
1C
100
AcDbEntity
 67
1
  8
0
100
AcDbBlockBegin
  2
*Paper_Space
 70
0
 10
0.0
 20
0.0
 30
0.0
  3
*Paper_Space
  1

  0
ENDBLK
  5
1D
100
AcDbEntity
 67
1
  8
0
100
AcDbBlockEnd
  0
BLOCK
  5
24
100
AcDbEntity
  8
0
100
AcDbBlockBegin
  2
*Paper_Space0
 70
0
 10
0.0
 20
0.0
 30
0.0
  3
*Paper_Space0
  1

  0
ENDBLK
  5
25
100
AcDbEntity
  8
0
100
AcDbBlockEnd
  0
ENDSEC
  0
SECTION
  2
ENTITIES
  0
CIRCLE
  5
59
100
AcDbEntity
100
AcDbCircle
  8
0
 62
256
370
-1
 48
1.0
  6
ByLayer
 10
-122.33333333333336
 20
286.18000000000018
 30
0.0
 40
1.5750000000000011
  0
CIRCLE
  5
5A
100
AcDbEntity
100
AcDbCircle
  8
0
 62
256
370
-1
 48
1.0
  6
ByLayer
 10
-1.6666666666667425
 20
286.18000000000018
 30
0.0
 40
1.5750000000000011
  0
CIRCLE
  5
5B
100
AcDbEntity
100
AcDbCircle
  8
0
 62
256
370
-1
 48
1.0
  6
ByLayer
 10
-76.74000000000008
 20
217.38000000000028
 30
0.0
 40
1.574999999999998
  0
CIRCLE
  5
5C
100
AcDbEntity
100
AcDbCircle
  8
0
 62
256
370
-1
 48
1.0
  6
ByLayer
 10
4.5399999999999352
 20
265.64000000000016
 30
0.0
 40
1.574999999999998
  0
CIRCLE
  5
5D
100
AcDbEntity
100
AcDbCircle
  8
0
 62
256
370
-1
 48
1.0
  6
ByLayer
 10
5.8099999999999739
 20
217.38000000000022
 30
0.0
 40
1.574999999999998
  0
CIRCLE
  5
5E
100
AcDbEntity
100
AcDbCircle
  8
0
 62
256
370
-1
 48
1.0
  6
ByLayer
 10
-70.389999999999986
 20
265.64000000000027
 30
0.0
 40
1.574999999999998
  0
CIRCLE
  5
5F
100
AcDbEntity
100
AcDbCircle
  8
0
 62
256
370
-1
 48
1.0
  6
ByLayer
 10
-62.000000000000014
 20
134.50000000000023
 30
0.0
 40
1.5749999999999991
  0
CIRCLE
  5
60
100
AcDbEntity
100
AcDbCircle
  8
0
 62
256
370
-1
 48
1.0
  6
ByLayer
 10
-50.379999999997167
 20
94.253333333334012
 30
0.0
 40
1.9999999999999989
  0
CIRCLE
  5
61
100
AcDbEntity
100
AcDbCircle
  8
0
 62
256
370
-1
 48
1.0
  6
ByLayer
 10
-50.379999999997352
 20
-26.41333333333273
 30
0.0
 40
1.9999999999999989
  0
CIRCLE
  5
62
100
AcDbEntity
100
AcDbCircle
  8
0
 62
256
370
-1
 48
1.0
  6
ByLayer
 10
-125.0833333333332
 20
-121.6400000000001
 30
0.0
 40
1.5750000000000159
  0
CIRCLE
  5
63
100
AcDbEntity
100
AcDbCircle
  8
0
 62
256
370
-1
 48
1.0
  6
ByLayer
 10
-165.50000000000014
 20
102.93999999999994
 30
0.0
 40
1.575
  0
CIRCLE
  5
64
100
AcDbEntity
100
AcDbCircle
  8
0
 62
256
370
-1
 48
1.0
  6
ByLayer
 10
41.499999999999886
 20
102.93999999999983
 30
0.0
 40
1.575
  0
CIRCLE
  5
65
100
AcDbEntity
100
AcDbCircle
  8
0
 62
256
370
-1
 48
1.0
  6
ByLayer
 10
1.0833333333333997
 20
-121.6400000000001
 30
0.0
 40
1.5750000000000159
  0
CIRCLE
  5
66
100
AcDbEntity
100
AcDbCircle
  8
0
 62
256
370
-1
 48
1.0
  6
ByLayer
 10
1.0833333333333428
 20
391.64000000000163
 30
0.0
 40
1.575
  0
CIRCLE
  5
67
100
AcDbEntity
100
AcDbCircle
  8
0
 62
256
370
-1
 48
1.0
  6
ByLayer
 10
64.639999999999844
 20
375.24999999999989
 30
0.0
 40
1.575
  0
CIRCLE
  5
68
100
AcDbEntity
100
AcDbCircle
  8
0
 62
256
370
-1
 48
1.0
  6
ByLayer
 10
64.639999999999674
 20
119.74999999999977
 30
0.0
 40
1.574999999999996
  0
CIRCLE
  5
69
100
AcDbEntity
100
AcDbCircle
  8
0
 62
256
370
-1
 48
1.0
  6
ByLayer
 10
-172.25000000000011
 20
-121.64000000000021
 30
0.0
 40
1.574999999999998
  0
CIRCLE
  5
6A
100
AcDbEntity
100
AcDbCircle
  8
0
 62
256
370
-1
 48
1.0
  6
ByLayer
 10
-188.64000000000019
 20
119.74999999999983
 30
0.0
 40
1.574999999999996
  0
CIRCLE
  5
6B
100
AcDbEntity
100
AcDbCircle
  8
0
 62
256
370
-1
 48
1.0
  6
ByLayer
 10
48.250000000000085
 20
-121.6400000000001
 30
0.0
 40
1.574999999999998
  0
CIRCLE
  5
6C
100
AcDbEntity
100
AcDbCircle
  8
0
 62
256
370
-1
 48
1.0
  6
ByLayer
 10
-188.64000000000001
 20
375.24999999999983
 30
0.0
 40
1.575
  0
CIRCLE
  5
6D
100
AcDbEntity
100
AcDbCircle
  8
0
 62
256
370
-1
 48
1.0
  6
ByLayer
 10
-125.08333333333357
 20
391.6399999999997
 30
0.0
 40
1.575
  0
CIRCLE
  5
6E
100
AcDbEntity
100
AcDbCircle
  8
0
 62
256
370
-1
 48
1.0
  6
ByLayer
 10
-54.583333333333051
 20
-276.17999999999927
 30
0.0
 40
1.5750000000000011
  0
CIRCLE
  5
6F
100
AcDbEntity
100
AcDbCircle
  8
0
 62
256
370
-1
 48
1.0
  6
ByLayer
 10
3.4166666666669698
 20
-276.17999999999927
 30
0.0
 40
1.5750000000000011
  0
CIRCLE
  5
70
100
AcDbEntity
100
AcDbCircle
  8
0
 62
256
370
-1
 48
1.0
  6
ByLayer
 10
17.779999999999262
 20
93.88000000000028
 30
0.0
 40
1.5750000000000111
  0
CIRCLE
  5
71
100
AcDbEntity
100
AcDbCircle
  8
0
 62
256
370
-1
 48
1.0
  6
ByLayer
 10
15.899999999999878
 20
-65.299999999999628
 30
0.0
 40
1.575
  0
CIRCLE
  5
72
100
AcDbEntity
100
AcDbCircle
  8
0
 62
256
370
-1
 48
1.0
  6
ByLayer
 10
-18.620000000000147
 20
-55.219999999999615
 30
0.0
 40
1.575
  0
CIRCLE
  5
73
100
AcDbEntity
100
AcDbCircle
  8
0
 62
256
370
-1
 48
1.0
  6
ByLayer
 10
-80.380000000002639
 20
94.25333333333424
 30
0.0
 40
1.9999999999999989
  0
CIRCLE
  5
74
100
AcDbEntity
100
AcDbCircle
  8
0
 62
256
370
-1
 48
1.0
  6
ByLayer
 10
-80.380000000002212
 20
-26.413333333332531
 30
0.0
 40
1.9999999999999989
  0
CIRCLE
  5
75
100
AcDbEntity
100
AcDbCircle
  8
0
 62
256
370
-1
 48
1.0
  6
ByLayer
 10
25.13999999999993
 20
-136.12666666666701
 30
0.0
 40
1.5750000000000011
  0
CIRCLE
  5
76
100
AcDbEntity
100
AcDbCircle
  8
0
 62
256
370
-1
 48
1.0
  6
ByLayer
 10
25.13999999999993
 20
-180.63333333333327
 30
0.0
 40
1.5750000000000011
  0
CIRCLE
  5
77
100
AcDbEntity
100
AcDbCircle
  8
0
 62
256
370
-1
 48
1.0
  6
ByLayer
 10
-149.14000000000013
 20
-136.12666666666649
 30
0.0
 40
1.5750000000000011
  0
CIRCLE
  5
78
100
AcDbEntity
100
AcDbCircle
  8
0
 62
256
370
-1
 48
1.0
  6
ByLayer
 10
-149.14000000000016
 20
-180.63333333333313
 30
0.0
 40
1.5750000000000011
  0
CIRCLE
  5
79
100
AcDbEntity
100
AcDbCircle
  8
0
 62
256
370
-1
 48
1.0
  6
ByLayer
 10
-141.77999999999946
 20
93.88000000000028
 30
0.0
 40
1.5750000000000111
  0
CIRCLE
  5
7A
100
AcDbEntity
100
AcDbCircle
  8
0
 62
256
370
-1
 48
1.0
  6
ByLayer
 10
-139.89999999999998
 20
-65.299999999999642
 30
0.0
 40
1.575
  0
CIRCLE
  5
7B
100
AcDbEntity
100
AcDbCircle
  8
0
 62
256
370
-1
 48
1.0
  6
ByLayer
 10
-105.37999999999997
 20
-55.219999999999615
 30
0.0
 40
1.575
  0
LINE
  5
7C
100
AcDbEntity
100
AcDbLine
  8
0
 62
256
370
-1
 48
1.0
  6
ByLayer
 10
-75.000000000000071
 20
-130.8799999999998
 30
0.0
 11
-75.000000000000071
 21
-124.9999999999998
 31
0.0
  0
LINE
  5
7D
100
AcDbEntity
100
AcDbLine
  8
0
 62
256
370
-1
 48
1.0
  6
ByLayer
 10
-75.000000000000071
 20
-124.9999999999998
 30
0.0
 11
-49.000000000000085
 21
-124.9999999999998
 31
0.0
  0
LINE
  5
7E
100
AcDbEntity
100
AcDbLine
  8
0
 62
256
370
-1
 48
1.0
  6
ByLayer
 10
-49.000000000000085
 20
-124.9999999999998
 30
0.0
 11
-49.000000000000085
 21
-130.87999999999943
 31
0.0
  0
LINE
  5
7F
100
AcDbEntity
100
AcDbLine
  8
0
 62
256
370
-1
 48
1.0
  6
ByLayer
 10
-49.000000000000085
 20
-130.87999999999943
 30
0.0
 11
-75.000000000000071
 21
-130.8799999999998
 31
0.0
  0
LINE
  5
80
100
AcDbEntity
100
AcDbLine
  8
0
 62
256
370
-1
 48
1.0
  6
ByLayer
 10
-185.27999999999997
 20
-156.72999999999982
 30
0.0
 11
-180.68000000000009
 21
-156.72999999999982
 31
0.0
  0
LINE
  5
81
100
AcDbEntity
100
AcDbLine
  8
0
 62
256
370
-1
 48
1.0
  6
ByLayer
 10
-180.68000000000009
 20
-156.72999999999982
 30
0.0
 11
-180.68000000000009
 21
-155.62999999999982
 31
0.0
  0
ARC
  5
82
100
AcDbEntity
  8
0
 62
256
370
-1
 48
1.0
  6
ByLayer
100
AcDbCircle
 10
-180.68000000000009
 20
-155.37999999999982
 30
0.0
 40
0.2500000000000002
100
AcDbArc
 50
0.0
 51
270.0
  0
LINE
  5
83
100
AcDbEntity
100
AcDbLine
  8
0
 62
256
370
-1
 48
1.0
  6
ByLayer
 10
-180.43000000000009
 20
-155.37999999999982
 30
0.0
 11
-177.92999999999998
 21
-155.37999999999982
 31
0.0
  0
ARC
  5
84
100
AcDbEntity
  8
0
 62
256
370
-1
 48
1.0
  6
ByLayer
100
AcDbCircle
 10
-177.68000000000006
 20
-155.37999999999988
 30
0.0
 40
0.2499999999999289
100
AcDbArc
 50
269.99999999999346
 51
180.0
  0
LINE
  5
85
100
AcDbEntity
100
AcDbLine
  8
0
 62
256
370
-1
 48
1.0
  6
ByLayer
 10
-177.68000000000009
 20
-155.6299999999998
 30
0.0
 11
-177.68000000000009
 21
-156.72999999999982
 31
0.0
  0
LINE
  5
86
100
AcDbEntity
100
AcDbLine
  8
0
 62
256
370
-1
 48
1.0
  6
ByLayer
 10
-177.68000000000009
 20
-156.72999999999982
 30
0.0
 11
-175.68000000000009
 21
-156.72999999999982
 31
0.0
  0
LINE
  5
87
100
AcDbEntity
100
AcDbLine
  8
0
 62
256
370
-1
 48
1.0
  6
ByLayer
 10
-175.68000000000009
 20
-156.72999999999982
 30
0.0
 11
-175.68000000000009
 21
-160.0299999999998
 31
0.0
  0
LINE
  5
88
100
AcDbEntity
100
AcDbLine
  8
0
 62
256
370
-1
 48
1.0
  6
ByLayer
 10
-175.68000000000009
 20
-160.0299999999998
 30
0.0
 11
-177.68000000000009
 21
-160.0299999999998
 31
0.0
  0
LINE
  5
89
100
AcDbEntity
100
AcDbLine
  8
0
 62
256
370
-1
 48
1.0
  6
ByLayer
 10
-177.68000000000009
 20
-160.0299999999998
 30
0.0
 11
-177.68000000000012
 21
-161.12999999999982
 31
0.0
  0
ARC
  5
8A
100
AcDbEntity
  8
0
 62
256
370
-1
 48
1.0
  6
ByLayer
100
AcDbCircle
 10
-177.68000000000006
 20
-161.37999999999977
 30
0.0
 40
0.2499999999999431
100
AcDbArc
 50
180.0
 51
90.000000000013031
  0
LINE
  5
8B
100
AcDbEntity
100
AcDbLine
  8
0
 62
256
370
-1
 48
1.0
  6
ByLayer
 10
-177.93000000000001
 20
-161.37999999999982
 30
0.0
 11
-180.43000000000009
 21
-161.37999999999982
 31
0.0
  0
ARC
  5
8C
100
AcDbEntity
  8
0
 62
256
370
-1
 48
1.0
  6
ByLayer
100
AcDbCircle
 10
-180.68000000000009
 20
-161.37999999999982
 30
0.0
 40
0.25
100
AcDbArc
 50
90.0
 51
0.0
  0
LINE
  5
8D
100
AcDbEntity
100
AcDbLine
  8
0
 62
256
370
-1
 48
1.0
  6
ByLayer
 10
-180.68000000000009
 20
-161.12999999999982
 30
0.0
 11
-180.68000000000012
 21
-160.0299999999998
 31
0.0
  0
LINE
  5
8E
100
AcDbEntity
100
AcDbLine
  8
0
 62
256
370
-1
 48
1.0
  6
ByLayer
 10
-180.68000000000012
 20
-160.0299999999998
 30
0.0
 11
-185.28
 21
-160.0299999999998
 31
0.0
  0
LINE
  5
8F
100
AcDbEntity
100
AcDbLine
  8
0
 62
256
370
-1
 48
1.0
  6
ByLayer
 10
-185.28
 20
-160.0299999999998
 30
0.0
 11
-185.28000000000009
 21
-169.5066666666664
 31
0.0
  0
LINE
  5
90
100
AcDbEntity
100
AcDbLine
  8
0
 62
256
370
-1
 48
1.0
  6
ByLayer
 10
-185.28000000000009
 20
-169.5066666666664
 30
0.0
 11
-192.00000000000009
 21
-169.50666666666643
 31
0.0
  0
LINE
  5
91
100
AcDbEntity
100
AcDbLine
  8
0
 62
256
370
-1
 48
1.0
  6
ByLayer
 10
-192.00000000000009
 20
-169.50666666666643
 30
0.0
 11
-192.00000000000009
 21
-191.75999999999976
 31
0.0
  0
LINE
  5
92
100
AcDbEntity
100
AcDbLine
  8
0
 62
256
370
-1
 48
1.0
  6
ByLayer
 10
-192.00000000000009
 20
-191.75999999999976
 30
0.0
 11
-173.89999999999995
 21
-191.75999999999982
 31
0.0
  0
LINE
  5
93
100
AcDbEntity
100
AcDbLine
  8
0
 62
256
370
-1
 48
1.0
  6
ByLayer
 10
-173.89999999999995
 20
-191.75999999999982
 30
0.0
 11
-173.89999999999992
 21
-187.47999999999985
 31
0.0
  0
LINE
  5
94
100
AcDbEntity
100
AcDbLine
  8
0
 62
256
370
-1
 48
1.0
  6
ByLayer
 10
-173.89999999999992
 20
-187.47999999999985
 30
0.0
 11
-174.99999999999997
 21
-187.47999999999982
 31
0.0
  0
ARC
  5
95
100
AcDbEntity
  8
0
 62
256
370
-1
 48
1.0
  6
ByLayer
100
AcDbCircle
 10
-175.25
 20
-187.47999999999985
 30
0.0
 40
0.25
100
AcDbArc
 50
90.0
 51
0.0
  0
LINE
  5
96
100
AcDbEntity
100
AcDbLine
  8
0
 62
256
370
-1
 48
1.0
  6
ByLayer
 10
-175.25
 20
-187.22999999999985
 30
0.0
 11
-175.25000000000003
 21
-184.72999999999982
 31
0.0
  0
ARC
  5
97
100
AcDbEntity
  8
0
 62
256
370
-1
 48
1.0
  6
ByLayer
100
AcDbCircle
 10
-175.25
 20
-184.47999999999979
 30
0.0
 40
0.2500000000000284
100
AcDbArc
 50
360.0
 51
269.99999999999346
  0
LINE
  5
98
100
AcDbEntity
100
AcDbLine
  8
0
 62
256
370
-1
 48
1.0
  6
ByLayer
 10
-174.99999999999997
 20
-184.47999999999982
 30
0.0
 11
-173.89999999999992
 21
-184.47999999999985
 31
0.0
  0
LINE
  5
99
100
AcDbEntity
100
AcDbLine
  8
0
 62
256
370
-1
 48
1.0
  6
ByLayer
 10
-173.89999999999992
 20
-184.47999999999985
 30
0.0
 11
-173.89999999999986
 21
-182.47999999999979
 31
0.0
  0
LINE
  5
9A
100
AcDbEntity
100
AcDbLine
  8
0
 62
256
370
-1
 48
1.0
  6
ByLayer
 10
-173.89999999999986
 20
-182.47999999999979
 30
0.0
 11
-170.59999999999988
 21
-182.47999999999982
 31
0.0
  0
LINE
  5
9B
100
AcDbEntity
100
AcDbLine
  8
0
 62
256
370
-1
 48
1.0
  6
ByLayer
 10
-170.59999999999988
 20
-182.47999999999982
 30
0.0
 11
-170.59999999999988
 21
-184.47999999999982
 31
0.0
  0
LINE
  5
9C
100
AcDbEntity
100
AcDbLine
  8
0
 62
256
370
-1
 48
1.0
  6
ByLayer
 10
-170.59999999999988
 20
-184.47999999999982
 30
0.0
 11
-169.5
 21
-184.47999999999985
 31
0.0
  0
ARC
  5
9D
100
AcDbEntity
  8
0
 62
256
370
-1
 48
1.0
  6
ByLayer
100
AcDbCircle
 10
-169.25
 20
-184.47999999999985
 30
0.0
 40
0.2499999999999858
100
AcDbArc
 50
270.0
 51
180.0
  0
LINE
  5
9E
100
AcDbEntity
100
AcDbLine
  8
0
 62
256
370
-1
 48
1.0
  6
ByLayer
 10
-169.25
 20
-184.72999999999982
 30
0.0
 11
-169.25000000000003
 21
-187.22999999999985
 31
0.0
  0
ARC
  5
9F
100
AcDbEntity
  8
0
 62
256
370
-1
 48
1.0
  6
ByLayer
100
AcDbCircle
 10
-169.25000000000003
 20
-187.47999999999982
 30
0.0
 40
0.2499999999999573
100
AcDbArc
 50
180.0
 51
90.0
  0
LINE
  5
A0
100
AcDbEntity
100
AcDbLine
  8
0
 62
256
370
-1
 48
1.0
  6
ByLayer
 10
-169.49999999999997
 20
-187.47999999999982
 30
0.0
 11
-170.59999999999991
 21
-187.47999999999985
 31
0.0
  0
LINE
  5
A1
100
AcDbEntity
100
AcDbLine
  8
0
 62
256
370
-1
 48
1.0
  6
ByLayer
 10
-170.59999999999991
 20
-187.47999999999985
 30
0.0
 11
-170.59999999999988
 21
-191.75999999999982
 31
0.0
  0
LINE
  5
A2
100
AcDbEntity
100
AcDbLine
  8
0
 62
256
370
-1
 48
1.0
  6
ByLayer
 10
-170.59999999999988
 20
-191.75999999999982
 30
0.0
 11
-126.73333333333325
 21
-191.75999999999979
 31
0.0
  0
LINE
  5
A3
100
AcDbEntity
100
AcDbLine
  8
0
 62
256
370
-1
 48
1.0
  6
ByLayer
 10
-126.73333333333325
 20
-191.75999999999979
 30
0.0
 11
-126.73333333333332
 21
-187.15999999999985
 31
0.0
  0
LINE
  5
A4
100
AcDbEntity
100
AcDbLine
  8
0
 62
256
370
-1
 48
1.0
  6
ByLayer
 10
-126.73333333333332
 20
-187.15999999999985
 30
0.0
 11
-127.83333333333323
 21
-187.1599999999998
 31
0.0
  0
ARC
  5
A5
100
AcDbEntity
  8
0
 62
256
370
-1
 48
1.0
  6
ByLayer
100
AcDbCircle
 10
-128.08333333333326
 20
-187.15999999999985
 30
0.0
 40
0.2500000000000284
100
AcDbArc
 50
90.000000000013031
 51
0.0
  0
LINE
  5
A6
100
AcDbEntity
100
AcDbLine
  8
0
 62
256
370
-1
 48
1.0
  6
ByLayer
 10
-128.08333333333331
 20
-186.90999999999983
 30
0.0
 11
-128.08333333333326
 21
-184.4099999999998
 31
0.0
  0
ARC
  5
A7
100
AcDbEntity
  8
0
 62
256
370
-1
 48
1.0
  6
ByLayer
100
AcDbCircle
 10
-128.08333333333326
 20
-184.1599999999998
 30
0.0
 40
0.25
100
AcDbArc
 50
0.0
 51
270.0
  0
LINE
  5
A8
100
AcDbEntity
100
AcDbLine
  8
0
 62
256
370
-1
 48
1.0
  6
ByLayer
 10
-127.83333333333326
 20
-184.1599999999998
 30
0.0
 11
-126.73333333333326
 21
-184.1599999999998
 31
0.0
  0
LINE
  5
A9
100
AcDbEntity
100
AcDbLine
  8
0
 62
256
370
-1
 48
1.0
  6
ByLayer
 10
-126.73333333333326
 20
-184.1599999999998
 30
0.0
 11
-126.73333333333329
 21
-182.15999999999985
 31
0.0
  0
LINE
  5
AA
100
AcDbEntity
100
AcDbLine
  8
0
 62
256
370
-1
 48
1.0
  6
ByLayer
 10
-126.73333333333329
 20
-182.15999999999985
 30
0.0
 11
-123.43333333333328
 21
-182.1599999999998
 31
0.0
  0
LINE
  5
AB
100
AcDbEntity
100
AcDbLine
  8
0
 62
256
370
-1
 48
1.0
  6
ByLayer
 10
-123.43333333333328
 20
-182.1599999999998
 30
0.0
 11
-123.43333333333329
 21
-184.15999999999983
 31
0.0
  0
LINE
  5
AC
100
AcDbEntity
100
AcDbLine
  8
0
 62
256
370
-1
 48
1.0
  6
ByLayer
 10
-123.43333333333329
 20
-184.15999999999983
 30
0.0
 11
-122.33333333333324
 21
-184.15999999999977
 31
0.0
  0
ARC
  5
AD
100
AcDbEntity
  8
0
 62
256
370
-1
 48
1.0
  6
ByLayer
100
AcDbCircle
 10
-122.08333333333324
 20
-184.15999999999983
 30
0.0
 40
0.25
100
AcDbArc
 50
269.99999999999346
 51
180.0
  0
LINE
  5
AE
100
AcDbEntity
100
AcDbLine
  8
0
 62
256
370
-1
 48
1.0
  6
ByLayer
 10
-122.08333333333327
 20
-184.4099999999998
 30
0.0
 11
-122.08333333333327
 21
-186.9099999999998
 31
0.0
  0
ARC
  5
AF
100
AcDbEntity
  8
0
 62
256
370
-1
 48
1.0
  6
ByLayer
100
AcDbCircle
 10
-122.08333333333327
 20
-187.1599999999998
 30
0.0
 40
0.2500000000000213
100
AcDbArc
 50
180.0
 51
90.0
  0
LINE
  5
B0
100
AcDbEntity
100
AcDbLine
  8
0
 62
256
370
-1
 48
1.0
  6
ByLayer
 10
-122.33333333333329
 20
-187.15999999999983
 30
0.0
 11
-123.43333333333327
 21
-187.1599999999998
 31
0.0
  0
LINE
  5
B1
100
AcDbEntity
100
AcDbLine
  8
0
 62
256
370
-1
 48
1.0
  6
ByLayer
 10
-123.43333333333327
 20
-187.1599999999998
 30
0.0
 11
-123.43333333333325
 21
-191.75999999999976
 31
0.0
  0
LINE
  5
B2
100
AcDbEntity
100
AcDbLine
  8
0
 62
256
370
-1
 48
1.0
  6
ByLayer
 10
-123.43333333333325
 20
-191.75999999999976
 30
0.0
 11
-105.33333333333343
 21
-191.75999999999979
 31
0.0
  0
LINE
  5
B3
100
AcDbEntity
100
AcDbLine
  8
0
 62
256
370
-1
 48
1.0
  6
ByLayer
 10
-105.33333333333343
 20
-191.75999999999979
 30
0.0
 11
-105.33333333333343
 21
-198.47999999999979
 31
0.0
  0
LINE
  5
B4
100
AcDbEntity
100
AcDbLine
  8
0
 62
256
370
-1
 48
1.0
  6
ByLayer
 10
-105.33333333333343
 20
-198.47999999999979
 30
0.0
 11
-18.666666666666742
 21
-198.47999999999968
 31
0.0
  0
LINE
  5
B5
100
AcDbEntity
100
AcDbLine
  8
0
 62
256
370
-1
 48
1.0
  6
ByLayer
 10
-18.666666666666742
 20
-198.47999999999968
 30
0.0
 11
-18.666666666666828
 21
-191.75999999999993
 31
0.0
  0
LINE
  5
B6
100
AcDbEntity
100
AcDbLine
  8
0
 62
256
370
-1
 48
1.0
  6
ByLayer
 10
-18.666666666666828
 20
-191.75999999999993
 30
0.0
 11
-0.5666666666669187
 21
-191.75999999999974
 31
0.0
  0
LINE
  5
B7
100
AcDbEntity
100
AcDbLine
  8
0
 62
256
370
-1
 48
1.0
  6
ByLayer
 10
-0.5666666666669187
 20
-191.75999999999974
 30
0.0
 11
-0.5666666666669187
 21
-187.15999999999983
 31
0.0
  0
LINE
  5
B8
100
AcDbEntity
100
AcDbLine
  8
0
 62
256
370
-1
 48
1.0
  6
ByLayer
 10
-0.5666666666669187
 20
-187.15999999999983
 30
0.0
 11
-1.666666666666913
 21
-187.1599999999998
 31
0.0
  0
ARC
  5
B9
100
AcDbEntity
  8
0
 62
256
370
-1
 48
1.0
  6
ByLayer
100
AcDbCircle
 10
-1.9166666666668704
 20
-187.15999999999985
 30
0.0
 40
0.2499999999999573
100
AcDbArc
 50
90.000000000016286
 51
0.0
  0
LINE
  5
BA
100
AcDbEntity
100
AcDbLine
  8
0
 62
256
370
-1
 48
1.0
  6
ByLayer
 10
-1.9166666666669414
 20
-186.90999999999991
 30
0.0
 11
-1.916666666666913
 21
-184.40999999999977
 31
0.0
  0
ARC
  5
BB
100
AcDbEntity
  8
0
 62
256
370
-1
 48
1.0
  6
ByLayer
100
AcDbCircle
 10
-1.9166666666669414
 20
-184.15999999999974
 30
0.0
 40
0.2500000000000568
100
AcDbArc
 50
0.0
 51
270.00000000000654
  0
LINE
  5
BC
100
AcDbEntity
100
AcDbLine
  8
0
 62
256
370
-1
 48
1.0
  6
ByLayer
 10
-1.6666666666668846
 20
-184.15999999999968
 30
0.0
 11
-0.5666666666668903
 21
-184.15999999999971
 31
0.0
  0
LINE
  5
BD
100
AcDbEntity
100
AcDbLine
  8
0
 62
256
370
-1
 48
1.0
  6
ByLayer
 10
-0.5666666666668903
 20
-184.15999999999971
 30
0.0
 11
-0.5666666666669187
 21
-182.1599999999998
 31
0.0
  0
LINE
  5
BE
100
AcDbEntity
100
AcDbLine
  8
0
 62
256
370
-1
 48
1.0
  6
ByLayer
 10
-0.5666666666669187
 20
-182.1599999999998
 30
0.0
 11
2.7333333333330643
 21
-182.15999999999991
 31
0.0
  0
LINE
  5
BF
100
AcDbEntity
100
AcDbLine
  8
0
 62
256
370
-1
 48
1.0
  6
ByLayer
 10
2.7333333333330643
 20
-182.15999999999991
 30
0.0
 11
2.7333333333330643
 21
-184.15999999999988
 31
0.0
  0
LINE
  5
C0
100
AcDbEntity
100
AcDbLine
  8
0
 62
256
370
-1
 48
1.0
  6
ByLayer
 10
2.7333333333330643
 20
-184.15999999999988
 30
0.0
 11
3.8333333333330586
 21
-184.1599999999998
 31
0.0
  0
ARC
  5
C1
100
AcDbEntity
  8
0
 62
256
370
-1
 48
1.0
  6
ByLayer
100
AcDbCircle
 10
4.0833333333331012
 20
-184.15999999999977
 30
0.0
 40
0.2500000000000426
100
AcDbArc
 50
270.00000000000324
 51
180.0
  0
LINE
  5
C2
100
AcDbEntity
100
AcDbLine
  8
0
 62
256
370
-1
 48
1.0
  6
ByLayer
 10
4.0833333333331154
 20
-184.40999999999983
 30
0.0
 11
4.0833333333331154
 21
-186.90999999999977
 31
0.0
  0
ARC
  5
C3
100
AcDbEntity
  8
0
 62
256
370
-1
 48
1.0
  6
ByLayer
100
AcDbCircle
 10
4.0833333333331012
 20
-187.1599999999998
 30
0.0
 40
0.2500000000000142
100
AcDbArc
 50
180.0
 51
89.999999999996746
  0
LINE
  5
C4
100
AcDbEntity
100
AcDbLine
  8
0
 62
256
370
-1
 48
1.0
  6
ByLayer
 10
3.833333333333087
 20
-187.15999999999977
 30
0.0
 11
2.7333333333330643
 21
-187.15999999999985
 31
0.0
  0
LINE
  5
C5
100
AcDbEntity
100
AcDbLine
  8
0
 62
256
370
-1
 48
1.0
  6
ByLayer
 10
2.7333333333330643
 20
-187.15999999999985
 30
0.0
 11
2.7333333333331211
 21
-191.75999999999976
 31
0.0
  0
LINE
  5
C6
100
AcDbEntity
100
AcDbLine
  8
0
 62
256
370
-1
 48
1.0
  6
ByLayer
 10
2.7333333333331211
 20
-191.75999999999976
 30
0.0
 11
46.599999999999682
 21
-191.75999999999982
 31
0.0
  0
LINE
  5
C7
100
AcDbEntity
100
AcDbLine
  8
0
 62
256
370
-1
 48
1.0
  6
ByLayer
 10
46.599999999999682
 20
-191.75999999999982
 30
0.0
 11
46.599999999999682
 21
-187.47999999999996
 31
0.0
  0
LINE
  5
C8
100
AcDbEntity
100
AcDbLine
  8
0
 62
256
370
-1
 48
1.0
  6
ByLayer
 10
46.599999999999682
 20
-187.47999999999996
 30
0.0
 11
45.499999999999829
 21
-187.47999999999973
 31
0.0
  0
ARC
  5
C9
100
AcDbEntity
  8
0
 62
256
370
-1
 48
1.0
  6
ByLayer
100
AcDbCircle
 10
45.249999999999844
 20
-187.47999999999976
 30
0.0
 40
0.2499999999999858
100
AcDbArc
 50
90.000000000009777
 51
0.0
  0
LINE
  5
CA
100
AcDbEntity
100
AcDbLine
  8
0
 62
256
370
-1
 48
1.0
  6
ByLayer
 10
45.249999999999801
 20
-187.22999999999979
 30
0.0
 11
45.249999999999829
 21
-184.72999999999979
 31
0.0
  0
ARC
  5
CB
100
AcDbEntity
  8
0
 62
256
370
-1
 48
1.0
  6
ByLayer
100
AcDbCircle
 10
45.249999999999829
 20
-184.47999999999982
 30
0.0
 40
0.2499999999999716
100
AcDbArc
 50
0.0
 51
270.0
  0
LINE
  5
CC
100
AcDbEntity
100
AcDbLine
  8
0
 62
256
370
-1
 48
1.0
  6
ByLayer
 10
45.499999999999801
 20
-184.47999999999982
 30
0.0
 11
46.599999999999739
 21
-184.47999999999973
 31
0.0
  0
LINE
  5
CD
100
AcDbEntity
100
AcDbLine
  8
0
 62
256
370
-1
 48
1.0
  6
ByLayer
 10
46.599999999999739
 20
-184.47999999999973
 30
0.0
 11
46.599999999999682
 21
-182.47999999999982
 31
0.0
  0
LINE
  5
CE
100
AcDbEntity
100
AcDbLine
  8
0
 62
256
370
-1
 48
1.0
  6
ByLayer
 10
46.599999999999682
 20
-182.47999999999982
 30
0.0
 11
49.89999999999975
 21
-182.47999999999979
 31
0.0
  0
LINE
  5
CF
100
AcDbEntity
100
AcDbLine
  8
0
 62
256
370
-1
 48
1.0
  6
ByLayer
 10
49.89999999999975
 20
-182.47999999999979
 30
0.0
 11
49.899999999999721
 21
-184.47999999999988
 31
0.0
  0
LINE
  5
D0
100
AcDbEntity
100
AcDbLine
  8
0
 62
256
370
-1
 48
1.0
  6
ByLayer
 10
49.899999999999721
 20
-184.47999999999988
 30
0.0
 11
50.999999999999829
 21
-184.47999999999973
 31
0.0
  0
ARC
  5
D1
100
AcDbEntity
  8
0
 62
256
370
-1
 48
1.0
  6
ByLayer
100
AcDbCircle
 10
51.249999999999829
 20
-184.47999999999973
 30
0.0
 40
0.25
100
AcDbArc
 50
270.0
 51
180.0
  0
LINE
  5
D2
100
AcDbEntity
100
AcDbLine
  8
0
 62
256
370
-1
 48
1.0
  6
ByLayer
 10
51.249999999999829
 20
-184.72999999999973
 30
0.0
 11
51.249999999999773
 21
-187.22999999999982
 31
0.0
  0
ARC
  5
D3
100
AcDbEntity
  8
0
 62
256
370
-1
 48
1.0
  6
ByLayer
100
AcDbCircle
 10
51.249999999999744
 20
-187.47999999999976
 30
0.0
 40
0.2499999999999431
100
AcDbArc
 50
180.0
 51
89.999999999993491
  0
LINE
  5
D4
100
AcDbEntity
100
AcDbLine
  8
0
 62
256
370
-1
 48
1.0
  6
ByLayer
 10
50.999999999999801
 20
-187.47999999999973
 30
0.0
 11
49.899999999999721
 21
-187.47999999999982
 31
0.0
  0
LINE
  5
D5
100
AcDbEntity
100
AcDbLine
  8
0
 62
256
370
-1
 48
1.0
  6
ByLayer
 10
49.899999999999721
 20
-187.47999999999982
 30
0.0
 11
49.89999999999975
 21
-191.75999999999976
 31
0.0
  0
LINE
  5
D6
100
AcDbEntity
100
AcDbLine
  8
0
 62
256
370
-1
 48
1.0
  6
ByLayer
 10
49.89999999999975
 20
-191.75999999999976
 30
0.0
 11
67.999999999999915
 21
-191.75999999999988
 31
0.0
  0
LINE
  5
D7
100
AcDbEntity
100
AcDbLine
  8
0
 62
256
370
-1
 48
1.0
  6
ByLayer
 10
67.999999999999915
 20
-191.75999999999988
 30
0.0
 11
67.999999999999858
 21
-169.5066666666666
 31
0.0
  0
LINE
  5
D8
100
AcDbEntity
100
AcDbLine
  8
0
 62
256
370
-1
 48
1.0
  6
ByLayer
 10
67.999999999999858
 20
-169.5066666666666
 30
0.0
 11
61.279999999999944
 21
-169.5066666666664
 31
0.0
  0
LINE
  5
D9
100
AcDbEntity
100
AcDbLine
  8
0
 62
256
370
-1
 48
1.0
  6
ByLayer
 10
61.279999999999944
 20
-169.5066666666664
 30
0.0
 11
61.279999999999831
 21
-160.02999999999986
 31
0.0
  0
LINE
  5
DA
100
AcDbEntity
100
AcDbLine
  8
0
 62
256
370
-1
 48
1.0
  6
ByLayer
 10
61.279999999999831
 20
-160.02999999999986
 30
0.0
 11
56.679999999999893
 21
-160.03000000000009
 31
0.0
  0
LINE
  5
DB
100
AcDbEntity
100
AcDbLine
  8
0
 62
256
370
-1
 48
1.0
  6
ByLayer
 10
56.679999999999893
 20
-160.03000000000009
 30
0.0
 11
56.679999999999922
 21
-161.12999999999997
 31
0.0
  0
ARC
  5
DC
100
AcDbEntity
  8
0
 62
256
370
-1
 48
1.0
  6
ByLayer
100
AcDbCircle
 10
56.679999999999879
 20
-161.37999999999988
 30
0.0
 40
0.2499999999999289
100
AcDbArc
 50
180.0
 51
89.999999999990223
  0
LINE
  5
DD
100
AcDbEntity
100
AcDbLine
  8
0
 62
256
370
-1
 48
1.0
  6
ByLayer
 10
56.42999999999995
 20
-161.37999999999985
 30
0.0
 11
53.929999999999779
 21
-161.37999999999994
 31
0.0
  0
ARC
  5
DE
100
AcDbEntity
  8
0
 62
256
370
-1
 48
1.0
  6
ByLayer
100
AcDbCircle
 10
53.679999999999779
 20
-161.37999999999982
 30
0.0
 40
0.25
100
AcDbArc
 50
89.999999999973937
 51
360.0
  0
LINE
  5
DF
100
AcDbEntity
100
AcDbLine
  8
0
 62
256
370
-1
 48
1.0
  6
ByLayer
 10
53.679999999999893
 20
-161.12999999999982
 30
0.0
 11
53.679999999999922
 21
-160.02999999999989
 31
0.0
  0
LINE
  5
E0
100
AcDbEntity
100
AcDbLine
  8
0
 62
256
370
-1
 48
1.0
  6
ByLayer
 10
53.679999999999922
 20
-160.02999999999989
 30
0.0
 11
51.679999999999893
 21
-160.03
 31
0.0
  0
LINE
  5
E1
100
AcDbEntity
100
AcDbLine
  8
0
 62
256
370
-1
 48
1.0
  6
ByLayer
 10
51.679999999999893
 20
-160.03
 30
0.0
 11
51.679999999999893
 21
-156.72999999999993
 31
0.0
  0
LINE
  5
E2
100
AcDbEntity
100
AcDbLine
  8
0
 62
256
370
-1
 48
1.0
  6
ByLayer
 10
51.679999999999893
 20
-156.72999999999993
 30
0.0
 11
53.679999999999893
 21
-156.73000000000008
 31
0.0
  0
LINE
  5
E3
100
AcDbEntity
100
AcDbLine
  8
0
 62
256
370
-1
 48
1.0
  6
ByLayer
 10
53.679999999999893
 20
-156.73000000000008
 30
0.0
 11
53.679999999999893
 21
-155.62999999999997
 31
0.0
  0
ARC
  5
E4
100
AcDbEntity
  8
0
 62
256
370
-1
 48
1.0
  6
ByLayer
100
AcDbCircle
 10
53.679999999999595
 20
-155.37999999999977
 30
0.0
 40
0.2500000000002132
100
AcDbArc
 50
0.0
 51
270.00000000006838
  0
LINE
  5
E5
100
AcDbEntity
100
AcDbLine
  8
0
 62
256
370
-1
 48
1.0
  6
ByLayer
 10
53.929999999999808
 20
-155.37999999999946
 30
0.0
 11
56.429999999999922
 21
-155.37999999999988
 31
0.0
  0
ARC
  5
E6
100
AcDbEntity
  8
0
 62
256
370
-1
 48
1.0
  6
ByLayer
100
AcDbCircle
 10
56.679999999999765
 20
-155.37999999999968
 30
0.0
 40
0.2499999999998439
100
AcDbArc
 50
270.00000000004235
 51
180.0
  0
LINE
  5
E7
100
AcDbEntity
100
AcDbLine
  8
0
 62
256
370
-1
 48
1.0
  6
ByLayer
 10
56.67999999999995
 20
-155.62999999999954
 30
0.0
 11
56.679999999999922
 21
-156.72999999999979
 31
0.0
  0
LINE
  5
E8
100
AcDbEntity
100
AcDbLine
  8
0
 62
256
370
-1
 48
1.0
  6
ByLayer
 10
56.679999999999922
 20
-156.72999999999979
 30
0.0
 11
61.279999999999831
 21
-156.72999999999988
 31
0.0
  0
LINE
  5
E9
100
AcDbEntity
100
AcDbLine
  8
0
 62
256
370
-1
 48
1.0
  6
ByLayer
 10
61.279999999999831
 20
-156.72999999999988
 30
0.0
 11
61.279999999999916
 21
-147.25333333333319
 31
0.0
  0
LINE
  5
EA
100
AcDbEntity
100
AcDbLine
  8
0
 62
256
370
-1
 48
1.0
  6
ByLayer
 10
61.279999999999916
 20
-147.25333333333319
 30
0.0
 11
67.999999999999915
 21
-147.25333333333288
 31
0.0
  0
LINE
  5
EB
100
AcDbEntity
100
AcDbLine
  8
0
 62
256
370
-1
 48
1.0
  6
ByLayer
 10
67.999999999999915
 20
-147.25333333333288
 30
0.0
 11
67.999999999999915
 21
-124.99999999999983
 31
0.0
  0
LINE
  5
EC
100
AcDbEntity
100
AcDbLine
  8
0
 62
256
370
-1
 48
1.0
  6
ByLayer
 10
49.899999999999721
 20
-124.99999999999983
 30
0.0
 11
49.899999999999721
 21
-129.27999999999983
 31
0.0
  0
LINE
  5
ED
100
AcDbEntity
100
AcDbLine
  8
0
 62
256
370
-1
 48
1.0
  6
ByLayer
 10
49.899999999999721
 20
-129.27999999999983
 30
0.0
 11
50.999999999999801
 21
-129.27999999999926
 31
0.0
  0
ARC
  5
EE
100
AcDbEntity
  8
0
 62
256
370
-1
 48
1.0
  6
ByLayer
100
AcDbCircle
 10
51.249999999999773
 20
-129.27999999999923
 30
0.0
 40
0.2499999999999716
100
AcDbArc
 50
270.00000000000654
 51
180.0
  0
LINE
  5
EF
100
AcDbEntity
100
AcDbLine
  8
0
 62
256
370
-1
 48
1.0
  6
ByLayer
 10
51.249999999999801
 20
-129.52999999999921
 30
0.0
 11
51.249999999999801
 21
-132.0299999999994
 31
0.0
  0
ARC
  5
F0
100
AcDbEntity
  8
0
 62
256
370
-1
 48
1.0
  6
ByLayer
100
AcDbCircle
 10
51.249999999999872
 20
-132.27999999999946
 30
0.0
 40
0.2500000000000711
100
AcDbArc
 50
180.0
 51
90.000000000016286
  0
LINE
  5
F1
100
AcDbEntity
100
AcDbLine
  8
0
 62
256
370
-1
 48
1.0
  6
ByLayer
 10
50.999999999999801
 20
-132.27999999999955
 30
0.0
 11
49.899999999999721
 21
-132.27999999999994
 31
0.0
  0
LINE
  5
F2
100
AcDbEntity
100
AcDbLine
  8
0
 62
256
370
-1
 48
1.0
  6
ByLayer
 10
49.899999999999721
 20
-132.27999999999994
 30
0.0
 11
49.899999999999721
 21
-134.27999999999992
 31
0.0
  0
LINE
  5
F3
100
AcDbEntity
100
AcDbLine
  8
0
 62
256
370
-1
 48
1.0
  6
ByLayer
 10
49.899999999999721
 20
-134.27999999999992
 30
0.0
 11
46.59999999999971
 21
-134.28000000000003
 31
0.0
  0
LINE
  5
F4
100
AcDbEntity
100
AcDbLine
  8
0
 62
256
370
-1
 48
1.0
  6
ByLayer
 10
46.59999999999971
 20
-134.28000000000003
 30
0.0
 11
46.59999999999971
 21
-132.27999999999992
 31
0.0
  0
LINE
  5
F5
100
AcDbEntity
100
AcDbLine
  8
0
 62
256
370
-1
 48
1.0
  6
ByLayer
 10
46.59999999999971
 20
-132.27999999999992
 30
0.0
 11
45.499999999999801
 21
-132.28000000000009
 31
0.0
  0
ARC
  5
F6
100
AcDbEntity
  8
0
 62
256
370
-1
 48
1.0
  6
ByLayer
100
AcDbCircle
 10
45.249999999999517
 20
-132.2799999999998
 30
0.0
 40
0.2500000000002842
100
AcDbArc
 50
89.999999999934857
 51
360.0
  0
LINE
  5
F7
100
AcDbEntity
100
AcDbLine
  8
0
 62
256
370
-1
 48
1.0
  6
ByLayer
 10
45.249999999999801
 20
-132.02999999999952
 30
0.0
 11
45.249999999999801
 21
-129.52999999999898
 31
0.0
  0
ARC
  5
F8
100
AcDbEntity
  8
0
 62
256
370
-1
 48
1.0
  6
ByLayer
100
AcDbCircle
 10
45.250000000000298
 20
-129.27999999999946
 30
0.0
 40
0.2499999999995026
100
AcDbArc
 50
360.0
 51
269.99999999988603
  0
LINE
  5
F9
100
AcDbEntity
100
AcDbLine
  8
0
 62
256
370
-1
 48
1.0
  6
ByLayer
 10
45.499999999999801
 20
-129.27999999999997
 30
0.0
 11
46.59999999999971
 21
-129.27999999999963
 31
0.0
  0
LINE
  5
FA
100
AcDbEntity
100
AcDbLine
  8
0
 62
256
370
-1
 48
1.0
  6
ByLayer
 10
46.59999999999971
 20
-129.27999999999963
 30
0.0
 11
46.59999999999971
 21
-124.99999999999983
 31
0.0
  0
LINE
  5
FB
100
AcDbEntity
100
AcDbLine
  8
0
 62
256
370
-1
 48
1.0
  6
ByLayer
 10
2.7333333333330927
 20
-124.99999999999982
 30
0.0
 11
2.7333333333330927
 21
-129.60000000000034
 31
0.0
  0
LINE
  5
FC
100
AcDbEntity
100
AcDbLine
  8
0
 62
256
370
-1
 48
1.0
  6
ByLayer
 10
2.7333333333330927
 20
-129.60000000000034
 30
0.0
 11
3.833333333333087
 21
-129.59999999999951
 31
0.0
  0
ARC
  5
FD
100
AcDbEntity
  8
0
 62
256
370
-1
 48
1.0
  6
ByLayer
100
AcDbCircle
 10
4.0833333333334281
 20
-129.59999999999985
 30
0.0
 40
0.250000000000341
100
AcDbArc
 50
269.99999999992832
 51
180.0
  0
LINE
  5
FE
100
AcDbEntity
100
AcDbLine
  8
0
 62
256
370
-1
 48
1.0
  6
ByLayer
 10
4.0833333333331154
 20
-129.85000000000016
 30
0.0
 11
4.0833333333331154
 21
-132.34999999999965
 31
0.0
  0
ARC
  5
FF
100
AcDbEntity
  8
0
 62
256
370
-1
 48
1.0
  6
ByLayer
100
AcDbCircle
 10
4.0833333333330302
 20
-132.59999999999957
 30
0.0
 40
0.2499999999999431
100
AcDbArc
 50
180.0
 51
89.99999999998046
  0
LINE
  5
100
100
AcDbEntity
100
AcDbLine
  8
0
 62
256
370
-1
 48
1.0
  6
ByLayer
 10
3.833333333333087
 20
-132.59999999999951
 30
0.0
 11
2.7333333333330927
 21
-132.59999999999974
 31
0.0
  0
LINE
  5
101
100
AcDbEntity
100
AcDbLine
  8
0
 62
256
370
-1
 48
1.0
  6
ByLayer
 10
2.7333333333330927
 20
-132.59999999999974
 30
0.0
 11
2.7333333333330927
 21
-134.5999999999998
 31
0.0
  0
LINE
  5
102
100
AcDbEntity
100
AcDbLine
  8
0
 62
256
370
-1
 48
1.0
  6
ByLayer
 10
2.7333333333330927
 20
-134.5999999999998
 30
0.0
 11
-0.5666666666669187
 21
-134.59999999999997
 31
0.0
  0
LINE
  5
103
100
AcDbEntity
100
AcDbLine
  8
0
 62
256
370
-1
 48
1.0
  6
ByLayer
 10
-0.5666666666669187
 20
-134.59999999999997
 30
0.0
 11
-0.5666666666669187
 21
-132.59999999999997
 31
0.0
  0
LINE
  5
104
100
AcDbEntity
100
AcDbLine
  8
0
 62
256
370
-1
 48
1.0
  6
ByLayer
 10
-0.5666666666669187
 20
-132.59999999999997
 30
0.0
 11
-1.666666666666913
 21
-132.59999999999971
 31
0.0
  0
ARC
  5
105
100
AcDbEntity
  8
0
 62
256
370
-1
 48
1.0
  6
ByLayer
100
AcDbCircle
 10
-1.9166666666668561
 20
-132.59999999999977
 30
0.0
 40
0.2499999999999431
100
AcDbArc
 50
90.000000000013031
 51
0.0
  0
LINE
  5
106
100
AcDbEntity
100
AcDbLine
  8
0
 62
256
370
-1
 48
1.0
  6
ByLayer
 10
-1.916666666666913
 20
-132.34999999999982
 30
0.0
 11
-1.916666666666913
 21
-129.84999999999982
 31
0.0
  0
ARC
  5
107
100
AcDbEntity
  8
0
 62
256
370
-1
 48
1.0
  6
ByLayer
100
AcDbCircle
 10
-1.9166666666670409
 20
-129.59999999999968
 30
0.0
 40
0.2500000000001279
100
AcDbArc
 50
0.0
 51
270.00000000002927
  0
LINE
  5
108
100
AcDbEntity
100
AcDbLine
  8
0
 62
256
370
-1
 48
1.0
  6
ByLayer
 10
-1.666666666666913
 20
-129.59999999999957
 30
0.0
 11
-0.5666666666669187
 21
-129.60000000000056
 31
0.0
  0
LINE
  5
109
100
AcDbEntity
100
AcDbLine
  8
0
 62
256
370
-1
 48
1.0
  6
ByLayer
 10
-0.5666666666669187
 20
-129.60000000000056
 30
0.0
 11
-0.5666666666669187
 21
-124.99999999999982
 31
0.0
  0
LINE
  5
10A
100
AcDbEntity
100
AcDbLine
  8
0
 62
256
370
-1
 48
1.0
  6
ByLayer
 10
-105.33333333333341
 20
-118.27999999999965
 30
0.0
 11
-105.33333333333341
 21
-124.99999999999979
 31
0.0
  0
LINE
  5
10B
100
AcDbEntity
100
AcDbLine
  8
0
 62
256
370
-1
 48
1.0
  6
ByLayer
 10
-123.43333333333327
 20
-124.99999999999979
 30
0.0
 11
-123.43333333333327
 21
-129.59999999999985
 31
0.0
  0
LINE
  5
10C
100
AcDbEntity
100
AcDbLine
  8
0
 62
256
370
-1
 48
1.0
  6
ByLayer
 10
-123.43333333333327
 20
-129.59999999999985
 30
0.0
 11
-122.33333333333326
 21
-129.59999999999988
 31
0.0
  0
ARC
  5
10D
100
AcDbEntity
  8
0
 62
256
370
-1
 48
1.0
  6
ByLayer
100
AcDbCircle
 10
-122.08333333333327
 20
-129.59999999999985
 30
0.0
 40
0.2499999999999858
100
AcDbArc
 50
270.00000000000324
 51
180.0
  0
LINE
  5
10E
100
AcDbEntity
100
AcDbLine
  8
0
 62
256
370
-1
 48
1.0
  6
ByLayer
 10
-122.08333333333326
 20
-129.84999999999985
 30
0.0
 11
-122.08333333333326
 21
-132.3499999999998
 31
0.0
  0
ARC
  5
10F
100
AcDbEntity
  8
0
 62
256
370
-1
 48
1.0
  6
ByLayer
100
AcDbCircle
 10
-122.08333333333326
 20
-132.5999999999998
 30
0.0
 40
0.25
100
AcDbArc
 50
180.0
 51
90.0
  0
LINE
  5
110
100
AcDbEntity
100
AcDbLine
  8
0
 62
256
370
-1
 48
1.0
  6
ByLayer
 10
-122.33333333333326
 20
-132.5999999999998
 30
0.0
 11
-123.43333333333327
 21
-132.59999999999985
 31
0.0
  0
LINE
  5
111
100
AcDbEntity
100
AcDbLine
  8
0
 62
256
370
-1
 48
1.0
  6
ByLayer
 10
-123.43333333333327
 20
-132.59999999999985
 30
0.0
 11
-123.43333333333327
 21
-134.59999999999982
 31
0.0
  0
LINE
  5
112
100
AcDbEntity
100
AcDbLine
  8
0
 62
256
370
-1
 48
1.0
  6
ByLayer
 10
-123.43333333333327
 20
-134.59999999999982
 30
0.0
 11
-126.73333333333326
 21
-134.59999999999982
 31
0.0
  0
LINE
  5
113
100
AcDbEntity
100
AcDbLine
  8
0
 62
256
370
-1
 48
1.0
  6
ByLayer
 10
-126.73333333333326
 20
-134.59999999999982
 30
0.0
 11
-126.73333333333326
 21
-132.59999999999974
 31
0.0
  0
LINE
  5
114
100
AcDbEntity
100
AcDbLine
  8
0
 62
256
370
-1
 48
1.0
  6
ByLayer
 10
-126.73333333333326
 20
-132.59999999999974
 30
0.0
 11
-127.83333333333326
 21
-132.5999999999998
 31
0.0
  0
ARC
  5
115
100
AcDbEntity
  8
0
 62
256
370
-1
 48
1.0
  6
ByLayer
100
AcDbCircle
 10
-128.08333333333326
 20
-132.5999999999998
 30
0.0
 40
0.2500000000000142
100
AcDbArc
 50
90.0
 51
0.0
  0
LINE
  5
116
100
AcDbEntity
100
AcDbLine
  8
0
 62
256
370
-1
 48
1.0
  6
ByLayer
 10
-128.08333333333326
 20
-132.34999999999977
 30
0.0
 11
-128.08333333333326
 21
-129.84999999999988
 31
0.0
  0
ARC
  5
117
100
AcDbEntity
  8
0
 62
256
370
-1
 48
1.0
  6
ByLayer
100
AcDbCircle
 10
-128.08333333333329
 20
-129.59999999999985
 30
0.0
 40
0.2500000000000284
100
AcDbArc
 50
0.0
 51
270.00000000000654
  0
LINE
  5
118
100
AcDbEntity
100
AcDbLine
  8
0
 62
256
370
-1
 48
1.0
  6
ByLayer
 10
-127.83333333333326
 20
-129.59999999999982
 30
0.0
 11
-126.73333333333326
 21
-129.59999999999977
 31
0.0
  0
LINE
  5
119
100
AcDbEntity
100
AcDbLine
  8
0
 62
256
370
-1
 48
1.0
  6
ByLayer
 10
-126.73333333333326
 20
-129.59999999999977
 30
0.0
 11
-126.73333333333326
 21
-124.99999999999979
 31
0.0
  0
LINE
  5
11A
100
AcDbEntity
100
AcDbLine
  8
0
 62
256
370
-1
 48
1.0
  6
ByLayer
 10
-170.59999999999988
 20
-124.99999999999977
 30
0.0
 11
-170.59999999999988
 21
-129.27999999999977
 31
0.0
  0
LINE
  5
11B
100
AcDbEntity
100
AcDbLine
  8
0
 62
256
370
-1
 48
1.0
  6
ByLayer
 10
-170.59999999999988
 20
-129.27999999999977
 30
0.0
 11
-169.49999999999997
 21
-129.27999999999977
 31
0.0
  0
ARC
  5
11C
100
AcDbEntity
  8
0
 62
256
370
-1
 48
1.0
  6
ByLayer
100
AcDbCircle
 10
-169.25
 20
-129.2799999999998
 30
0.0
 40
0.2499999999999858
100
AcDbArc
 50
270.0
 51
180.0
  0
LINE
  5
11D
100
AcDbEntity
100
AcDbLine
  8
0
 62
256
370
-1
 48
1.0
  6
ByLayer
 10
-169.25
 20
-129.52999999999977
 30
0.0
 11
-169.24999999999997
 21
-132.02999999999977
 31
0.0
  0
ARC
  5
11E
100
AcDbEntity
  8
0
 62
256
370
-1
 48
1.0
  6
ByLayer
100
AcDbCircle
 10
-169.25
 20
-132.2799999999998
 30
0.0
 40
0.2500000000000142
100
AcDbArc
 50
180.0
 51
89.999999999993491
  0
LINE
  5
11F
100
AcDbEntity
100
AcDbLine
  8
0
 62
256
370
-1
 48
1.0
  6
ByLayer
 10
-169.5
 20
-132.27999999999977
 30
0.0
 11
-170.59999999999988
 21
-132.27999999999977
 31
0.0
  0
LINE
  5
120
100
AcDbEntity
100
AcDbLine
  8
0
 62
256
370
-1
 48
1.0
  6
ByLayer
 10
-170.59999999999988
 20
-132.27999999999977
 30
0.0
 11
-170.59999999999988
 21
-134.27999999999977
 31
0.0
  0
LINE
  5
121
100
AcDbEntity
100
AcDbLine
  8
0
 62
256
370
-1
 48
1.0
  6
ByLayer
 10
-170.59999999999988
 20
-134.27999999999977
 30
0.0
 11
-173.89999999999989
 21
-134.27999999999977
 31
0.0
  0
LINE
  5
122
100
AcDbEntity
100
AcDbLine
  8
0
 62
256
370
-1
 48
1.0
  6
ByLayer
 10
-173.89999999999989
 20
-134.27999999999977
 30
0.0
 11
-173.89999999999989
 21
-132.27999999999977
 31
0.0
  0
LINE
  5
123
100
AcDbEntity
100
AcDbLine
  8
0
 62
256
370
-1
 48
1.0
  6
ByLayer
 10
-173.89999999999989
 20
-132.27999999999977
 30
0.0
 11
-175.0
 21
-132.27999999999977
 31
0.0
  0
ARC
  5
124
100
AcDbEntity
  8
0
 62
256
370
-1
 48
1.0
  6
ByLayer
100
AcDbCircle
 10
-175.25
 20
-132.27999999999977
 30
0.0
 40
0.25
100
AcDbArc
 50
90.0
 51
0.0
  0
LINE
  5
125
100
AcDbEntity
100
AcDbLine
  8
0
 62
256
370
-1
 48
1.0
  6
ByLayer
 10
-175.25
 20
-132.02999999999977
 30
0.0
 11
-175.25
 21
-129.52999999999977
 31
0.0
  0
ARC
  5
126
100
AcDbEntity
  8
0
 62
256
370
-1
 48
1.0
  6
ByLayer
100
AcDbCircle
 10
-175.25
 20
-129.27999999999977
 30
0.0
 40
0.25
100
AcDbArc
 50
0.0
 51
270.0
  0
LINE
  5
127
100
AcDbEntity
100
AcDbLine
  8
0
 62
256
370
-1
 48
1.0
  6
ByLayer
 10
-175.0
 20
-129.27999999999977
 30
0.0
 11
-173.89999999999989
 21
-129.27999999999977
 31
0.0
  0
LINE
  5
128
100
AcDbEntity
100
AcDbLine
  8
0
 62
256
370
-1
 48
1.0
  6
ByLayer
 10
-173.89999999999989
 20
-129.27999999999977
 30
0.0
 11
-173.89999999999989
 21
-124.99999999999977
 31
0.0
  0
LINE
  5
129
100
AcDbEntity
100
AcDbLine
  8
0
 62
256
370
-1
 48
1.0
  6
ByLayer
 10
-185.28000000000017
 20
-124.99999999999976
 30
0.0
 11
-192.00000000000009
 21
-124.99999999999977
 31
0.0
  0
LINE
  5
12A
100
AcDbEntity
100
AcDbLine
  8
0
 62
256
370
-1
 48
1.0
  6
ByLayer
 10
-192.00000000000009
 20
-124.99999999999977
 30
0.0
 11
-192.00000000000009
 21
-147.25333333333316
 31
0.0
  0
LINE
  5
12B
100
AcDbEntity
100
AcDbLine
  8
0
 62
256
370
-1
 48
1.0
  6
ByLayer
 10
-192.00000000000009
 20
-147.25333333333316
 30
0.0
 11
-185.28000000000009
 21
-147.25333333333316
 31
0.0
  0
LINE
  5
12C
100
AcDbEntity
100
AcDbLine
  8
0
 62
256
370
-1
 48
1.0
  6
ByLayer
 10
-185.28000000000009
 20
-147.25333333333316
 30
0.0
 11
-185.27999999999997
 21
-156.72999999999982
 31
0.0
  0
LINE
  5
12D
100
AcDbEntity
100
AcDbLine
  8
0
 62
256
370
-1
 48
1.0
  6
ByLayer
 10
-145.77999999999946
 20
71.38000000000028
 30
0.0
 11
-145.77999999999946
 21
86.38000000000028
 31
0.0
  0
LINE
  5
12E
100
AcDbEntity
100
AcDbLine
  8
0
 62
256
370
-1
 48
1.0
  6
ByLayer
 10
-145.77999999999946
 20
86.38000000000028
 30
0.0
 11
-139.05999999999946
 21
86.38000000000028
 31
0.0
  0
LINE
  5
12F
100
AcDbEntity
100
AcDbLine
  8
0
 62
256
370
-1
 48
1.0
  6
ByLayer
 10
-139.05999999999946
 20
86.38000000000028
 30
0.0
 11
-139.05999999999946
 21
71.38000000000028
 31
0.0
  0
LINE
  5
130
100
AcDbEntity
100
AcDbLine
  8
0
 62
256
370
-1
 48
1.0
  6
ByLayer
 10
-139.05999999999946
 20
71.38000000000028
 30
0.0
 11
-145.77999999999946
 21
71.38000000000028
 31
0.0
  0
LINE
  5
131
100
AcDbEntity
100
AcDbLine
  8
0
 62
256
370
-1
 48
1.0
  6
ByLayer
 10
-152.5
 20
-68.659999999999656
 30
0.0
 11
-128.97999999999996
 21
-68.659999999999641
 31
0.0
  0
LINE
  5
132
100
AcDbEntity
100
AcDbLine
  8
0
 62
256
370
-1
 48
1.0
  6
ByLayer
 10
-128.97999999999996
 20
-68.659999999999641
 30
0.0
 11
-128.97999999999996
 21
-61.939999999999635
 31
0.0
  0
LINE
  5
133
100
AcDbEntity
100
AcDbLine
  8
0
 62
256
370
-1
 48
1.0
  6
ByLayer
 10
-128.97999999999996
 20
-61.939999999999635
 30
0.0
 11
-112.17999999999996
 21
-61.939999999999628
 31
0.0
  0
LINE
  5
134
100
AcDbEntity
100
AcDbLine
  8
0
 62
256
370
-1
 48
1.0
  6
ByLayer
 10
-112.17999999999996
 20
-61.939999999999628
 30
0.0
 11
-112.17999999999996
 21
-68.659999999999627
 31
0.0
  0
LINE
  5
135
100
AcDbEntity
100
AcDbLine
  8
0
 62
256
370
-1
 48
1.0
  6
ByLayer
 10
-112.17999999999996
 20
-68.659999999999627
 30
0.0
 11
-95.379999999999981
 21
-68.659999999999627
 31
0.0
  0
LINE
  5
136
100
AcDbEntity
100
AcDbLine
  8
0
 62
256
370
-1
 48
1.0
  6
ByLayer
 10
-95.379999999999981
 20
-68.659999999999627
 30
0.0
 11
-95.380000000000038
 21
137.86000000000038
 31
0.0
  0
LINE
  5
137
100
AcDbEntity
100
AcDbLine
  8
0
 62
256
370
-1
 48
1.0
  6
ByLayer
 10
-145.78000000000003
 20
29.105000000000359
 30
0.0
 11
-130.78
 21
29.105000000000359
 31
0.0
  0
LINE
  5
138
100
AcDbEntity
100
AcDbLine
  8
0
 62
256
370
-1
 48
1.0
  6
ByLayer
 10
-130.78
 20
29.105000000000359
 30
0.0
 11
-130.77999999999997
 21
16.215000000000373
 31
0.0
  0
LINE
  5
139
100
AcDbEntity
100
AcDbLine
  8
0
 62
256
370
-1
 48
1.0
  6
ByLayer
 10
-130.77999999999997
 20
16.215000000000373
 30
0.0
 11
-145.78
 21
16.215000000000373
 31
0.0
  0
LINE
  5
13A
100
AcDbEntity
100
AcDbLine
  8
0
 62
256
370
-1
 48
1.0
  6
ByLayer
 10
-145.78
 20
16.215000000000373
 30
0.0
 11
-145.78000000000003
 21
29.105000000000359
 31
0.0
  0
LINE
  5
13B
100
AcDbEntity
100
AcDbLine
  8
0
 62
256
370
-1
 48
1.0
  6
ByLayer
 10
-125.78
 20
45.425000000000367
 30
0.0
 11
-145.78000000000003
 21
45.425000000000367
 31
0.0
  0
LINE
  5
13C
100
AcDbEntity
100
AcDbLine
  8
0
 62
256
370
-1
 48
1.0
  6
ByLayer
 10
-145.78000000000003
 20
45.425000000000367
 30
0.0
 11
-145.78000000000003
 21
60.855000000000359
 31
0.0
  0
LINE
  5
13D
100
AcDbEntity
100
AcDbLine
  8
0
 62
256
370
-1
 48
1.0
  6
ByLayer
 10
-145.78000000000003
 20
60.855000000000359
 30
0.0
 11
-125.78
 21
60.855000000000359
 31
0.0
  0
LINE
  5
13E
100
AcDbEntity
100
AcDbLine
  8
0
 62
256
370
-1
 48
1.0
  6
ByLayer
 10
-125.78
 20
60.855000000000359
 30
0.0
 11
-125.78
 21
45.425000000000367
 31
0.0
  0
LINE
  5
13F
100
AcDbEntity
100
AcDbLine
  8
0
 62
256
370
-1
 48
1.0
  6
ByLayer
 10
-92.166666666666842
 20
137.86000000000021
 30
0.0
 11
-92.166666666666728
 21
131.14000000000027
 31
0.0
  0
LINE
  5
140
100
AcDbEntity
100
AcDbLine
  8
0
 62
256
370
-1
 48
1.0
  6
ByLayer
 10
-92.166666666666728
 20
131.14000000000027
 30
0.0
 11
-31.833333333333272
 21
131.14000000000021
 31
0.0
  0
LINE
  5
141
100
AcDbEntity
100
AcDbLine
  8
0
 62
256
370
-1
 48
1.0
  6
ByLayer
 10
-31.833333333333272
 20
131.14000000000021
 30
0.0
 11
-31.833333333333258
 21
137.86000000000024
 31
0.0
  0
LINE
  5
142
100
AcDbEntity
100
AcDbLine
  8
0
 62
256
370
-1
 48
1.0
  6
ByLayer
 10
-31.833333333333258
 20
137.86000000000024
 30
0.0
 11
28.499999999999972
 21
137.86000000000021
 31
0.0
  0
LINE
  5
143
100
AcDbEntity
100
AcDbLine
  8
0
 62
256
370
-1
 48
1.0
  6
ByLayer
 10
28.499999999999972
 20
137.86000000000021
 30
0.0
 11
28.499999999999972
 21
355.50000000000017
 31
0.0
  0
LINE
  5
144
100
AcDbEntity
100
AcDbLine
  8
0
 62
256
370
-1
 48
1.0
  6
ByLayer
 10
-152.50000000000003
 20
355.50000000000023
 30
0.0
 11
-152.50000000000006
 21
137.86000000000024
 31
0.0
  0
LINE
  5
145
100
AcDbEntity
100
AcDbLine
  8
0
 62
256
370
-1
 48
1.0
  6
ByLayer
 10
-152.50000000000006
 20
137.86000000000024
 30
0.0
 11
-92.166666666666842
 21
137.86000000000021
 31
0.0
  0
LINE
  5
146
100
AcDbEntity
100
AcDbLine
  8
0
 62
256
370
-1
 48
1.0
  6
ByLayer
 10
90.253333333334155
 20
100.0
 30
0.0
 11
112.50666666666757
 21
99.999999999999943
 31
0.0
  0
LINE
  5
147
100
AcDbEntity
100
AcDbLine
  8
0
 62
256
370
-1
 48
1.0
  6
ByLayer
 10
112.50666666666757
 20
99.999999999999943
 30
0.0
 11
112.50666666666748
 21
105.87999999999997
 31
0.0
  0
LINE
  5
148
100
AcDbEntity
100
AcDbLine
  8
0
 62
256
370
-1
 48
1.0
  6
ByLayer
 10
112.50666666666748
 20
105.87999999999997
 30
0.0
 11
90.253333333334268
 21
105.87999999999997
 31
0.0
  0
LINE
  5
149
100
AcDbEntity
100
AcDbLine
  8
0
 62
256
370
-1
 48
1.0
  6
ByLayer
 10
90.253333333334268
 20
105.87999999999997
 30
0.0
 11
90.253333333334155
 21
100.0
 31
0.0
  0
LINE
  5
14A
100
AcDbEntity
100
AcDbLine
  8
0
 62
256
370
-1
 48
1.0
  6
ByLayer
 10
130.4800000000009
 20
118.09999999999994
 30
0.0
 11
134.76000000000101
 21
118.09999999999988
 31
0.0
  0
LINE
  5
14B
100
AcDbEntity
100
AcDbLine
  8
0
 62
256
370
-1
 48
1.0
  6
ByLayer
 10
134.76000000000101
 20
118.09999999999988
 30
0.0
 11
134.76000000000084
 21
99.999999999999972
 31
0.0
  0
LINE
  5
14C
100
AcDbEntity
100
AcDbLine
  8
0
 62
256
370
-1
 48
1.0
  6
ByLayer
 10
134.76000000000084
 20
99.999999999999972
 30
0.0
 11
141.48000000000104
 21
99.999999999999886
 31
0.0
  0
LINE
  5
14D
100
AcDbEntity
100
AcDbLine
  8
0
 62
256
370
-1
 48
1.0
  6
ByLayer
 10
141.48000000000104
 20
99.999999999999886
 30
0.0
 11
141.48000000000067
 21
-125.00000000000001
 31
0.0
  0
LINE
  5
14E
100
AcDbEntity
100
AcDbLine
  8
0
 62
256
370
-1
 48
1.0
  6
ByLayer
 10
141.48000000000067
 20
-125.00000000000001
 30
0.0
 11
134.76000000000079
 21
-125.00000000000001
 31
0.0
  0
LINE
  5
14F
100
AcDbEntity
100
AcDbLine
  8
0
 62
256
370
-1
 48
1.0
  6
ByLayer
 10
134.76000000000079
 20
-125.00000000000001
 30
0.0
 11
134.76000000000079
 21
-118.27999999999994
 31
0.0
  0
LINE
  5
150
100
AcDbEntity
100
AcDbLine
  8
0
 62
256
370
-1
 48
1.0
  6
ByLayer
 10
134.76000000000079
 20
-118.27999999999994
 30
0.0
 11
112.50666666666746
 21
-118.28000000000009
 31
0.0
  0
LINE
  5
151
100
AcDbEntity
100
AcDbLine
  8
0
 62
256
370
-1
 48
1.0
  6
ByLayer
 10
112.50666666666746
 20
-118.28000000000009
 30
0.0
 11
112.50666666666746
 21
-125.00000000000001
 31
0.0
  0
LINE
  5
152
100
AcDbEntity
100
AcDbLine
  8
0
 62
256
370
-1
 48
1.0
  6
ByLayer
 10
112.50666666666746
 20
-125.00000000000001
 30
0.0
 11
90.253333333334126
 21
-125.0
 31
0.0
  0
LINE
  5
153
100
AcDbEntity
100
AcDbLine
  8
0
 62
256
370
-1
 48
1.0
  6
ByLayer
 10
90.253333333334126
 20
-125.0
 30
0.0
 11
90.253333333334126
 21
-118.28
 31
0.0
  0
LINE
  5
154
100
AcDbEntity
100
AcDbLine
  8
0
 62
256
370
-1
 48
1.0
  6
ByLayer
 10
90.253333333334126
 20
-118.28
 30
0.0
 11
68.000000000000796
 21
-118.27999999999989
 31
0.0
  0
LINE
  5
155
100
AcDbEntity
100
AcDbLine
  8
0
 62
256
370
-1
 48
1.0
  6
ByLayer
 10
68.000000000000796
 20
-118.27999999999989
 30
0.0
 11
68.000000000000796
 21
-125.0
 31
0.0
  0
LINE
  5
156
100
AcDbEntity
100
AcDbLine
  8
0
 62
256
370
-1
 48
1.0
  6
ByLayer
 10
68.000000000000796
 20
-125.0
 30
0.0
 11
61.280000000000712
 21
-125.0
 31
0.0
  0
LINE
  5
157
100
AcDbEntity
100
AcDbLine
  8
0
 62
256
370
-1
 48
1.0
  6
ByLayer
 10
61.280000000000712
 20
-125.0
 30
0.0
 11
61.280000000000982
 21
100.0
 31
0.0
  0
LINE
  5
158
100
AcDbEntity
100
AcDbLine
  8
0
 62
256
370
-1
 48
1.0
  6
ByLayer
 10
68.000000000000881
 20
118.10000000000002
 30
0.0
 11
72.280000000000783
 21
118.09999999999999
 31
0.0
  0
LINE
  5
159
100
AcDbEntity
100
AcDbLine
  8
0
 62
256
370
-1
 48
1.0
  6
ByLayer
 10
72.280000000000783
 20
118.09999999999999
 30
0.0
 11
72.280000000000783
 21
117.0
 31
0.0
  0
ARC
  5
15A
100
AcDbEntity
  8
0
 62
256
370
-1
 48
1.0
  6
ByLayer
100
AcDbCircle
 10
72.280000000000825
 20
116.74999999999994
 30
0.0
 40
0.2500000000000509
100
AcDbArc
 50
90.000000000009777
 51
0.0
  0
LINE
  5
15B
100
AcDbEntity
100
AcDbLine
  8
0
 62
256
370
-1
 48
1.0
  6
ByLayer
 10
72.530000000000882
 20
116.75
 30
0.0
 11
75.030000000000797
 21
116.74999999999997
 31
0.0
  0
ARC
  5
15C
100
AcDbEntity
  8
0
 62
256
370
-1
 48
1.0
  6
ByLayer
100
AcDbCircle
 10
75.280000000000783
 20
116.75
 30
0.0
 40
0.249999999999994
100
AcDbArc
 50
180.0
 51
90.000000000006509
  0
LINE
  5
15D
100
AcDbEntity
100
AcDbLine
  8
0
 62
256
370
-1
 48
1.0
  6
ByLayer
 10
75.280000000000754
 20
117.0
 30
0.0
 11
75.280000000000868
 21
118.09999999999999
 31
0.0
  0
LINE
  5
15E
100
AcDbEntity
100
AcDbLine
  8
0
 62
256
370
-1
 48
1.0
  6
ByLayer
 10
75.280000000000868
 20
118.09999999999999
 30
0.0
 11
77.280000000000911
 21
118.09999999999999
 31
0.0
  0
LINE
  5
15F
100
AcDbEntity
100
AcDbLine
  8
0
 62
256
370
-1
 48
1.0
  6
ByLayer
 10
77.280000000000911
 20
118.09999999999999
 30
0.0
 11
77.280000000000783
 21
121.40000000000001
 31
0.0
  0
LINE
  5
160
100
AcDbEntity
100
AcDbLine
  8
0
 62
256
370
-1
 48
1.0
  6
ByLayer
 10
77.280000000000783
 20
121.40000000000001
 30
0.0
 11
75.280000000000769
 21
121.40000000000001
 31
0.0
  0
LINE
  5
161
100
AcDbEntity
100
AcDbLine
  8
0
 62
256
370
-1
 48
1.0
  6
ByLayer
 10
75.280000000000769
 20
121.40000000000001
 30
0.0
 11
75.280000000000896
 21
122.49999999999997
 31
0.0
  0
ARC
  5
162
100
AcDbEntity
  8
0
 62
256
370
-1
 48
1.0
  6
ByLayer
100
AcDbCircle
 10
75.280000000000882
 20
122.75000000000001
 30
0.0
 40
0.2500000000000426
100
AcDbArc
 50
270.00000000000324
 51
180.0
  0
LINE
  5
163
100
AcDbEntity
100
AcDbLine
  8
0
 62
256
370
-1
 48
1.0
  6
ByLayer
 10
75.03000000000084
 20
122.75
 30
0.0
 11
72.530000000000769
 21
122.75
 31
0.0
  0
ARC
  5
164
100
AcDbEntity
  8
0
 62
256
370
-1
 48
1.0
  6
ByLayer
100
AcDbCircle
 10
72.280000000000783
 20
122.75000000000001
 30
0.0
 40
0.2499999999999787
100
AcDbArc
 50
360.0
 51
270.0
  0
LINE
  5
165
100
AcDbEntity
100
AcDbLine
  8
0
 62
256
370
-1
 48
1.0
  6
ByLayer
 10
72.280000000000783
 20
122.50000000000003
 30
0.0
 11
72.280000000000697
 21
121.40000000000001
 31
0.0
  0
LINE
  5
166
100
AcDbEntity
100
AcDbLine
  8
0
 62
256
370
-1
 48
1.0
  6
ByLayer
 10
72.280000000000697
 20
121.40000000000001
 30
0.0
 11
68.000000000000853
 21
121.40000000000001
 31
0.0
  0
LINE
  5
167
100
AcDbEntity
100
AcDbLine
  8
0
 62
256
370
-1
 48
1.0
  6
ByLayer
 10
68.00000000000108
 20
373.59999999999991
 30
0.0
 11
72.600000000000875
 21
373.59999999999991
 31
0.0
  0
LINE
  5
168
100
AcDbEntity
100
AcDbLine
  8
0
 62
256
370
-1
 48
1.0
  6
ByLayer
 10
72.600000000000875
 20
373.59999999999991
 30
0.0
 11
72.60000000000089
 21
372.49999999999989
 31
0.0
  0
ARC
  5
169
100
AcDbEntity
  8
0
 62
256
370
-1
 48
1.0
  6
ByLayer
100
AcDbCircle
 10
72.600000000000847
 20
372.24999999999989
 30
0.0
 40
0.2500000000000071
100
AcDbArc
 50
89.999999999990223
 51
360.0
  0
LINE
  5
16A
100
AcDbEntity
100
AcDbLine
  8
0
 62
256
370
-1
 48
1.0
  6
ByLayer
 10
72.850000000000847
 20
372.24999999999983
 30
0.0
 11
75.350000000000662
 21
372.24999999999989
 31
0.0
  0
ARC
  5
16B
100
AcDbEntity
  8
0
 62
256
370
-1
 48
1.0
  6
ByLayer
100
AcDbCircle
 10
75.600000000000719
 20
372.24999999999983
 30
0.0
 40
0.2500000000000568
100
AcDbArc
 50
180.0
 51
89.999999999986969
  0
LINE
  5
16C
100
AcDbEntity
100
AcDbLine
  8
0
 62
256
370
-1
 48
1.0
  6
ByLayer
 10
75.600000000000776
 20
372.49999999999989
 30
0.0
 11
75.600000000000989
 21
373.59999999999985
 31
0.0
  0
LINE
  5
16D
100
AcDbEntity
100
AcDbLine
  8
0
 62
256
370
-1
 48
1.0
  6
ByLayer
 10
75.600000000000989
 20
373.59999999999985
 30
0.0
 11
77.600000000001131
 21
373.59999999999991
 31
0.0
  0
LINE
  5
16E
100
AcDbEntity
100
AcDbLine
  8
0
 62
256
370
-1
 48
1.0
  6
ByLayer
 10
77.600000000001131
 20
373.59999999999991
 30
0.0
 11
77.600000000000975
 21
376.89999999999986
 31
0.0
  0
LINE
  5
16F
100
AcDbEntity
100
AcDbLine
  8
0
 62
256
370
-1
 48
1.0
  6
ByLayer
 10
77.600000000000975
 20
376.89999999999986
 30
0.0
 11
75.600000000001174
 21
376.89999999999981
 31
0.0
  0
LINE
  5
170
100
AcDbEntity
100
AcDbLine
  8
0
 62
256
370
-1
 48
1.0
  6
ByLayer
 10
75.600000000001174
 20
376.89999999999981
 30
0.0
 11
75.600000000000648
 21
378.0
 31
0.0
  0
ARC
  5
171
100
AcDbEntity
  8
0
 62
256
370
-1
 48
1.0
  6
ByLayer
100
AcDbCircle
 10
75.60000000000079
 20
378.24999999999989
 30
0.0
 40
0.249999999999865
100
AcDbArc
 50
269.99999999996743
 51
180.0
  0
LINE
  5
172
100
AcDbEntity
100
AcDbLine
  8
0
 62
256
370
-1
 48
1.0
  6
ByLayer
 10
75.350000000000918
 20
378.25
 30
0.0
 11
72.850000000001074
 21
378.25
 31
0.0
  0
ARC
  5
173
100
AcDbEntity
  8
0
 62
256
370
-1
 48
1.0
  6
ByLayer
100
AcDbCircle
 10
72.600000000000932
 20
378.25000000000011
 30
0.0
 40
0.250000000000135
100
AcDbArc
 50
360.0
 51
269.99999999997073
  0
LINE
  5
174
100
AcDbEntity
100
AcDbLine
  8
0
 62
256
370
-1
 48
1.0
  6
ByLayer
 10
72.600000000000804
 20
378.0
 30
0.0
 11
72.600000000001046
 21
376.89999999999986
 31
0.0
  0
LINE
  5
175
100
AcDbEntity
100
AcDbLine
  8
0
 62
256
370
-1
 48
1.0
  6
ByLayer
 10
72.600000000001046
 20
376.89999999999986
 30
0.0
 11
68.000000000000796
 21
376.89999999999992
 31
0.0
  0
LINE
  5
176
100
AcDbEntity
100
AcDbLine
  8
0
 62
256
370
-1
 48
1.0
  6
ByLayer
 10
68.000000000001123
 20
388.27999999999997
 30
0.0
 11
90.253333333334453
 21
388.27999999999986
 31
0.0
  0
LINE
  5
177
100
AcDbEntity
100
AcDbLine
  8
0
 62
256
370
-1
 48
1.0
  6
ByLayer
 10
90.253333333334453
 20
388.27999999999986
 30
0.0
 11
90.253333333334297
 21
395.0
 31
0.0
  0
LINE
  5
178
100
AcDbEntity
100
AcDbLine
  8
0
 62
256
370
-1
 48
1.0
  6
ByLayer
 10
90.253333333334297
 20
395.0
 30
0.0
 11
112.50666666666787
 21
394.99999999999989
 31
0.0
  0
LINE
  5
179
100
AcDbEntity
100
AcDbLine
  8
0
 62
256
370
-1
 48
1.0
  6
ByLayer
 10
112.50666666666787
 20
394.99999999999989
 30
0.0
 11
112.50666666666766
 21
388.27999999999997
 31
0.0
  0
LINE
  5
17A
100
AcDbEntity
100
AcDbLine
  8
0
 62
256
370
-1
 48
1.0
  6
ByLayer
 10
112.50666666666766
 20
388.27999999999997
 30
0.0
 11
134.76000000000084
 21
388.27999999999997
 31
0.0
  0
LINE
  5
17B
100
AcDbEntity
100
AcDbLine
  8
0
 62
256
370
-1
 48
1.0
  6
ByLayer
 10
134.76000000000084
 20
388.27999999999997
 30
0.0
 11
134.76000000000181
 21
376.89999999999981
 31
0.0
  0
LINE
  5
17C
100
AcDbEntity
100
AcDbLine
  8
0
 62
256
370
-1
 48
1.0
  6
ByLayer
 10
134.76000000000181
 20
376.89999999999981
 30
0.0
 11
130.1600000000015
 21
376.89999999999986
 31
0.0
  0
LINE
  5
17D
100
AcDbEntity
100
AcDbLine
  8
0
 62
256
370
-1
 48
1.0
  6
ByLayer
 10
130.1600000000015
 20
376.89999999999986
 30
0.0
 11
130.16000000000179
 21
377.99999999999989
 31
0.0
  0
ARC
  5
17E
100
AcDbEntity
  8
0
 62
256
370
-1
 48
1.0
  6
ByLayer
100
AcDbCircle
 10
130.16000000000159
 20
378.25000000000011
 30
0.0
 40
0.2500000000002558
100
AcDbArc
 50
270.00000000004559
 51
180.0
  0
LINE
  5
17F
100
AcDbEntity
100
AcDbLine
  8
0
 62
256
370
-1
 48
1.0
  6
ByLayer
 10
129.91000000000133
 20
378.24999999999994
 30
0.0
 11
127.4100000000018
 21
378.24999999999977
 31
0.0
  0
ARC
  5
180
100
AcDbEntity
  8
0
 62
256
370
-1
 48
1.0
  6
ByLayer
100
AcDbCircle
 10
127.16000000000182
 20
378.24999999999977
 30
0.0
 40
0.2499999999999929
100
AcDbArc
 50
0.0
 51
270.0
  0
LINE
  5
181
100
AcDbEntity
100
AcDbLine
  8
0
 62
256
370
-1
 48
1.0
  6
ByLayer
 10
127.16000000000182
 20
377.99999999999977
 30
0.0
 11
127.16000000000153
 21
376.89999999999981
 31
0.0
  0
LINE
  5
182
100
AcDbEntity
100
AcDbLine
  8
0
 62
256
370
-1
 48
1.0
  6
ByLayer
 10
127.16000000000153
 20
376.89999999999981
 30
0.0
 11
125.16000000000155
 21
376.89999999999986
 31
0.0
  0
LINE
  5
183
100
AcDbEntity
100
AcDbLine
  8
0
 62
256
370
-1
 48
1.0
  6
ByLayer
 10
125.16000000000155
 20
376.89999999999986
 30
0.0
 11
125.1600000000013
 21
373.5999999999998
 31
0.0
  0
LINE
  5
184
100
AcDbEntity
100
AcDbLine
  8
0
 62
256
370
-1
 48
1.0
  6
ByLayer
 10
125.1600000000013
 20
373.5999999999998
 30
0.0
 11
127.16000000000159
 21
373.59999999999974
 31
0.0
  0
LINE
  5
185
100
AcDbEntity
100
AcDbLine
  8
0
 62
256
370
-1
 48
1.0
  6
ByLayer
 10
127.16000000000159
 20
373.59999999999974
 30
0.0
 11
127.16000000000169
 21
372.49999999999983
 31
0.0
  0
ARC
  5
186
100
AcDbEntity
  8
0
 62
256
370
-1
 48
1.0
  6
ByLayer
100
AcDbCircle
 10
127.16000000000153
 20
372.24999999999989
 30
0.0
 40
0.2499999999999645
100
AcDbArc
 50
89.999999999964174
 51
360.0
  0
LINE
  5
187
100
AcDbEntity
100
AcDbLine
  8
0
 62
256
370
-1
 48
1.0
  6
ByLayer
 10
127.4100000000015
 20
372.24999999999972
 30
0.0
 11
129.91000000000159
 21
372.24999999999977
 31
0.0
  0
ARC
  5
188
100
AcDbEntity
  8
0
 62
256
370
-1
 48
1.0
  6
ByLayer
100
AcDbCircle
 10
130.16000000000162
 20
372.24999999999989
 30
0.0
 40
0.2500000000000142
100
AcDbArc
 50
180.0
 51
90.000000000026063
  0
LINE
  5
189
100
AcDbEntity
100
AcDbLine
  8
0
 62
256
370
-1
 48
1.0
  6
ByLayer
 10
130.1600000000015
 20
372.49999999999989
 30
0.0
 11
130.16000000000162
 21
373.5999999999998
 31
0.0
  0
LINE
  5
18A
100
AcDbEntity
100
AcDbLine
  8
0
 62
256
370
-1
 48
1.0
  6
ByLayer
 10
130.16000000000162
 20
373.5999999999998
 30
0.0
 11
134.7600000000013
 21
373.59999999999985
 31
0.0
  0
LINE
  5
18B
100
AcDbEntity
100
AcDbLine
  8
0
 62
256
370
-1
 48
1.0
  6
ByLayer
 10
134.7600000000013
 20
373.59999999999985
 30
0.0
 11
134.7600000000009
 21
121.39999999999989
 31
0.0
  0
LINE
  5
18C
100
AcDbEntity
100
AcDbLine
  8
0
 62
256
370
-1
 48
1.0
  6
ByLayer
 10
134.7600000000009
 20
121.39999999999989
 30
0.0
 11
130.48000000000093
 21
121.39999999999995
 31
0.0
  0
LINE
  5
18D
100
AcDbEntity
100
AcDbLine
  8
0
 62
256
370
-1
 48
1.0
  6
ByLayer
 10
130.48000000000093
 20
121.39999999999995
 30
0.0
 11
130.48000000000098
 21
122.49999999999989
 31
0.0
  0
ARC
  5
18E
100
AcDbEntity
  8
0
 62
256
370
-1
 48
1.0
  6
ByLayer
100
AcDbCircle
 10
130.48000000000096
 20
122.74999999999997
 30
0.0
 40
0.2500000000000853
100
AcDbArc
 50
270.00000000000654
 51
180.0
  0
LINE
  5
18F
100
AcDbEntity
100
AcDbLine
  8
0
 62
256
370
-1
 48
1.0
  6
ByLayer
 10
130.23000000000084
 20
122.74999999999991
 30
0.0
 11
127.7300000000009
 21
122.74999999999991
 31
0.0
  0
ARC
  5
190
100
AcDbEntity
  8
0
 62
256
370
-1
 48
1.0
  6
ByLayer
100
AcDbCircle
 10
127.48000000000093
 20
122.74999999999986
 30
0.0
 40
0.2499999999999716
100
AcDbArc
 50
0.0
 51
270.00000000001302
  0
LINE
  5
191
100
AcDbEntity
100
AcDbLine
  8
0
 62
256
370
-1
 48
1.0
  6
ByLayer
 10
127.48000000000098
 20
122.49999999999989
 30
0.0
 11
127.48000000000084
 21
121.39999999999992
 31
0.0
  0
LINE
  5
192
100
AcDbEntity
100
AcDbLine
  8
0
 62
256
370
-1
 48
1.0
  6
ByLayer
 10
127.48000000000084
 20
121.39999999999992
 30
0.0
 11
125.48000000000106
 21
121.39999999999989
 31
0.0
  0
LINE
  5
193
100
AcDbEntity
100
AcDbLine
  8
0
 62
256
370
-1
 48
1.0
  6
ByLayer
 10
125.48000000000106
 20
121.39999999999989
 30
0.0
 11
125.48000000000096
 21
118.09999999999988
 31
0.0
  0
LINE
  5
194
100
AcDbEntity
100
AcDbLine
  8
0
 62
256
370
-1
 48
1.0
  6
ByLayer
 10
125.48000000000096
 20
118.09999999999988
 30
0.0
 11
127.48000000000089
 21
118.09999999999994
 31
0.0
  0
LINE
  5
195
100
AcDbEntity
100
AcDbLine
  8
0
 62
256
370
-1
 48
1.0
  6
ByLayer
 10
127.48000000000089
 20
118.09999999999994
 30
0.0
 11
127.48000000000098
 21
116.99999999999991
 31
0.0
  0
ARC
  5
196
100
AcDbEntity
  8
0
 62
256
370
-1
 48
1.0
  6
ByLayer
100
AcDbCircle
 10
127.48000000000097
 20
116.74999999999996
 30
0.0
 40
0.2499999999999633
100
AcDbArc
 50
89.999999999996746
 51
360.0
  0
LINE
  5
197
100
AcDbEntity
100
AcDbLine
  8
0
 62
256
370
-1
 48
1.0
  6
ByLayer
 10
127.73000000000094
 20
116.74999999999994
 30
0.0
 11
130.2300000000009
 21
116.74999999999991
 31
0.0
  0
ARC
  5
198
100
AcDbEntity
  8
0
 62
256
370
-1
 48
1.0
  6
ByLayer
100
AcDbCircle
 10
130.4800000000009
 20
116.74999999999994
 30
0.0
 40
0.2500000000000011
100
AcDbArc
 50
180.0
 51
90.000000000006509
  0
LINE
  5
199
100
AcDbEntity
100
AcDbLine
  8
0
 62
256
370
-1
 48
1.0
  6
ByLayer
 10
130.48000000000087
 20
116.99999999999994
 30
0.0
 11
130.4800000000009
 21
118.09999999999994
 31
0.0
  0
LINE
  5
19A
100
AcDbEntity
100
AcDbLine
  8
0
 62
256
370
-1
 48
1.0
  6
ByLayer
 10
-44.529999999999973
 20
124.42000000000054
 30
0.0
 11
-44.52999999999998
 21
120.14000000000031
 31
0.0
  0
LINE
  5
19B
100
AcDbEntity
100
AcDbLine
  8
0
 62
256
370
-1
 48
1.0
  6
ByLayer
 10
-44.52999999999998
 20
120.14000000000031
 30
0.0
 11
-45.629999999999882
 21
120.14000000000033
 31
0.0
  0
ARC
  5
19C
100
AcDbEntity
  8
0
 62
256
370
-1
 48
1.0
  6
ByLayer
100
AcDbCircle
 10
-45.879999999999882
 20
120.14000000000033
 30
0.0
 40
0.2500000000000036
100
AcDbArc
 50
0.0
 51
269.99999999999835
  0
LINE
  5
19D
100
AcDbEntity
100
AcDbLine
  8
0
 62
256
370
-1
 48
1.0
  6
ByLayer
 10
-45.879999999999889
 20
119.89000000000033
 30
0.0
 11
-45.879999999999882
 21
117.39000000000033
 31
0.0
  0
ARC
  5
19E
100
AcDbEntity
  8
0
 62
256
370
-1
 48
1.0
  6
ByLayer
100
AcDbCircle
 10
-45.879999999999882
 20
117.14000000000033
 30
0.0
 40
0.2500000000000036
100
AcDbArc
 50
90.0
 51
0.0
  0
LINE
  5
19F
100
AcDbEntity
100
AcDbLine
  8
0
 62
256
370
-1
 48
1.0
  6
ByLayer
 10
-45.629999999999875
 20
117.14000000000033
 30
0.0
 11
-44.529999999999973
 21
117.14000000000033
 31
0.0
  0
LINE
  5
1A0
100
AcDbEntity
100
AcDbLine
  8
0
 62
256
370
-1
 48
1.0
  6
ByLayer
 10
-44.529999999999973
 20
117.14000000000033
 30
0.0
 11
-44.529999999999973
 21
115.14000000000033
 31
0.0
  0
LINE
  5
1A1
100
AcDbEntity
100
AcDbLine
  8
0
 62
256
370
-1
 48
1.0
  6
ByLayer
 10
-44.529999999999973
 20
115.14000000000033
 30
0.0
 11
-41.229999999999798
 21
115.14000000000031
 31
0.0
  0
LINE
  5
1A2
100
AcDbEntity
100
AcDbLine
  8
0
 62
256
370
-1
 48
1.0
  6
ByLayer
 10
-41.229999999999798
 20
115.14000000000031
 30
0.0
 11
-41.229999999999805
 21
117.14000000000031
 31
0.0
  0
LINE
  5
1A3
100
AcDbEntity
100
AcDbLine
  8
0
 62
256
370
-1
 48
1.0
  6
ByLayer
 10
-41.229999999999805
 20
117.14000000000031
 30
0.0
 11
-40.129999999999875
 21
117.14000000000034
 31
0.0
  0
ARC
  5
1A4
100
AcDbEntity
  8
0
 62
256
370
-1
 48
1.0
  6
ByLayer
100
AcDbCircle
 10
-39.879999999999889
 20
117.14000000000033
 30
0.0
 40
0.2499999999999893
100
AcDbArc
 50
180.0
 51
89.999999999998366
  0
LINE
  5
1A5
100
AcDbEntity
100
AcDbLine
  8
0
 62
256
370
-1
 48
1.0
  6
ByLayer
 10
-39.879999999999882
 20
117.39000000000033
 30
0.0
 11
-39.879999999999896
 21
119.8900000000003
 31
0.0
  0
ARC
  5
1A6
100
AcDbEntity
  8
0
 62
256
370
-1
 48
1.0
  6
ByLayer
100
AcDbCircle
 10
-39.879999999999853
 20
120.14000000000031
 30
0.0
 40
0.2500000000000142
100
AcDbArc
 50
269.99999999999022
 51
180.0
  0
LINE
  5
1A7
100
AcDbEntity
100
AcDbLine
  8
0
 62
256
370
-1
 48
1.0
  6
ByLayer
 10
-40.129999999999868
 20
120.14000000000036
 30
0.0
 11
-41.229999999999791
 21
120.14000000000031
 31
0.0
  0
LINE
  5
1A8
100
AcDbEntity
100
AcDbLine
  8
0
 62
256
370
-1
 48
1.0
  6
ByLayer
 10
-41.229999999999791
 20
120.14000000000031
 30
0.0
 11
-41.229999999999791
 21
124.42000000000051
 31
0.0
  0
LINE
  5
1A9
100
AcDbEntity
100
AcDbLine
  8
0
 62
256
370
-1
 48
1.0
  6
ByLayer
 10
-41.229999999999791
 20
124.42000000000051
 30
0.0
 11
-35.379999999999882
 21
124.42000000000051
 31
0.0
  0
LINE
  5
1AA
100
AcDbEntity
100
AcDbLine
  8
0
 62
256
370
-1
 48
1.0
  6
ByLayer
 10
-35.379999999999882
 20
124.42000000000051
 30
0.0
 11
-35.379999999999654
 21
-56.579999999999444
 31
0.0
  0
LINE
  5
1AB
100
AcDbEntity
100
AcDbLine
  8
0
 62
256
370
-1
 48
1.0
  6
ByLayer
 10
-35.379999999999654
 20
-56.579999999999444
 30
0.0
 11
-41.229999999999769
 21
-56.579999999999472
 31
0.0
  0
LINE
  5
1AC
100
AcDbEntity
100
AcDbLine
  8
0
 62
256
370
-1
 48
1.0
  6
ByLayer
 10
-41.229999999999769
 20
-56.579999999999472
 30
0.0
 11
-41.229999999999819
 21
-52.299999999999272
 31
0.0
  0
LINE
  5
1AD
100
AcDbEntity
100
AcDbLine
  8
0
 62
256
370
-1
 48
1.0
  6
ByLayer
 10
-41.229999999999819
 20
-52.299999999999272
 30
0.0
 11
-40.129999999999711
 21
-52.299999999999244
 31
0.0
  0
ARC
  5
1AE
100
AcDbEntity
  8
0
 62
256
370
-1
 48
1.0
  6
ByLayer
100
AcDbCircle
 10
-39.879999999999768
 20
-52.299999999999216
 30
0.0
 40
0.2499999999999396
100
AcDbArc
 50
180.0
 51
90.000000000008129
  0
LINE
  5
1AF
100
AcDbEntity
100
AcDbLine
  8
0
 62
256
370
-1
 48
1.0
  6
ByLayer
 10
-39.879999999999804
 20
-52.049999999999272
 30
0.0
 11
-39.879999999999917
 21
-49.549999999999272
 31
0.0
  0
ARC
  5
1B0
100
AcDbEntity
  8
0
 62
256
370
-1
 48
1.0
  6
ByLayer
100
AcDbCircle
 10
-39.879999999999882
 20
-49.299999999999308
 30
0.0
 40
0.2499999999999645
100
AcDbArc
 50
269.99999999999187
 51
180.0
  0
LINE
  5
1B1
100
AcDbEntity
100
AcDbLine
  8
0
 62
256
370
-1
 48
1.0
  6
ByLayer
 10
-40.129999999999846
 20
-49.299999999999272
 30
0.0
 11
-41.229999999999833
 21
-49.299999999999272
 31
0.0
  0
LINE
  5
1B2
100
AcDbEntity
100
AcDbLine
  8
0
 62
256
370
-1
 48
1.0
  6
ByLayer
 10
-41.229999999999833
 20
-49.299999999999272
 30
0.0
 11
-41.229999999999883
 21
-47.299999999999272
 31
0.0
  0
LINE
  5
1B3
100
AcDbEntity
100
AcDbLine
  8
0
 62
256
370
-1
 48
1.0
  6
ByLayer
 10
-41.229999999999883
 20
-47.299999999999272
 30
0.0
 11
-44.52999999999998
 21
-47.299999999999272
 31
0.0
  0
LINE
  5
1B4
100
AcDbEntity
100
AcDbLine
  8
0
 62
256
370
-1
 48
1.0
  6
ByLayer
 10
-44.52999999999998
 20
-47.299999999999272
 30
0.0
 11
-44.530000000000115
 21
-49.299999999999272
 31
0.0
  0
LINE
  5
1B5
100
AcDbEntity
100
AcDbLine
  8
0
 62
256
370
-1
 48
1.0
  6
ByLayer
 10
-44.530000000000115
 20
-49.299999999999272
 30
0.0
 11
-45.629999999999825
 21
-49.299999999999272
 31
0.0
  0
ARC
  5
1B6
100
AcDbEntity
  8
0
 62
256
370
-1
 48
1.0
  6
ByLayer
100
AcDbCircle
 10
-45.879999999999953
 20
-49.299999999999145
 30
0.0
 40
0.2500000000001279
100
AcDbArc
 50
360.0
 51
269.99999999997073
  0
LINE
  5
1B7
100
AcDbEntity
100
AcDbLine
  8
0
 62
256
370
-1
 48
1.0
  6
ByLayer
 10
-45.880000000000081
 20
-49.549999999999272
 30
0.0
 11
-45.879999999999711
 21
-52.049999999999272
 31
0.0
  0
ARC
  5
1B8
100
AcDbEntity
  8
0
 62
256
370
-1
 48
1.0
  6
ByLayer
100
AcDbCircle
 10
-45.879999999999782
 20
-52.299999999999201
 30
0.0
 40
0.2499999999999325
100
AcDbArc
 50
89.999999999983714
 51
360.0
  0
LINE
  5
1B9
100
AcDbEntity
100
AcDbLine
  8
0
 62
256
370
-1
 48
1.0
  6
ByLayer
 10
-45.629999999999846
 20
-52.299999999999272
 30
0.0
 11
-44.529999999999838
 21
-52.299999999999244
 31
0.0
  0
LINE
  5
1BA
100
AcDbEntity
100
AcDbLine
  8
0
 62
256
370
-1
 48
1.0
  6
ByLayer
 10
-44.529999999999838
 20
-52.299999999999244
 30
0.0
 11
-44.530000000000058
 21
-56.579999999999472
 31
0.0
  0
LINE
  5
1BB
100
AcDbEntity
100
AcDbLine
  8
0
 62
256
370
-1
 48
1.0
  6
ByLayer
 10
-44.530000000000058
 20
-56.579999999999472
 30
0.0
 11
-50.379999999999477
 21
-56.579999999999472
 31
0.0
  0
LINE
  5
1BC
100
AcDbEntity
100
AcDbLine
  8
0
 62
256
370
-1
 48
1.0
  6
ByLayer
 10
-50.379999999999477
 20
-56.579999999999472
 30
0.0
 11
-50.379999999999832
 21
-63.2999999999995
 31
0.0
  0
LINE
  5
1BD
100
AcDbEntity
100
AcDbLine
  8
0
 62
256
370
-1
 48
1.0
  6
ByLayer
 10
-50.379999999999832
 20
-63.2999999999995
 30
0.0
 11
-65.379999999999924
 21
-63.2999999999995
 31
0.0
  0
LINE
  5
1BE
100
AcDbEntity
100
AcDbLine
  8
0
 62
256
370
-1
 48
1.0
  6
ByLayer
 10
-65.379999999999924
 20
-63.2999999999995
 30
0.0
 11
-65.379999999999882
 21
131.14000000000033
 31
0.0
  0
LINE
  5
1BF
100
AcDbEntity
100
AcDbLine
  8
0
 62
256
370
-1
 48
1.0
  6
ByLayer
 10
-65.379999999999882
 20
131.14000000000033
 30
0.0
 11
-50.379999999999882
 21
131.14000000000033
 31
0.0
  0
LINE
  5
1C0
100
AcDbEntity
100
AcDbLine
  8
0
 62
256
370
-1
 48
1.0
  6
ByLayer
 10
-50.379999999999882
 20
131.14000000000033
 30
0.0
 11
-50.379999999999882
 21
124.4200000000003
 31
0.0
  0
LINE
  5
1C1
100
AcDbEntity
100
AcDbLine
  8
0
 62
256
370
-1
 48
1.0
  6
ByLayer
 10
-50.379999999999882
 20
124.4200000000003
 30
0.0
 11
-44.529999999999973
 21
124.42000000000054
 31
0.0
  0
LINE
  5
1C2
100
AcDbEntity
100
AcDbLine
  8
0
 62
256
370
-1
 48
1.0
  6
ByLayer
 10
61.279999999999944
 20
-125.00000000000011
 30
0.0
 11
-18.666666666666856
 21
-125.00000000000011
 31
0.0
  0
LINE
  5
1C3
100
AcDbEntity
100
AcDbLine
  8
0
 62
256
370
-1
 48
1.0
  6
ByLayer
 10
-18.666666666666856
 20
-125.00000000000011
 30
0.0
 11
-18.666666666666771
 21
-118.28000000000009
 31
0.0
  0
LINE
  5
1C4
100
AcDbEntity
100
AcDbLine
  8
0
 62
256
370
-1
 48
1.0
  6
ByLayer
 10
-18.666666666666771
 20
-118.28000000000009
 30
0.0
 11
-105.33333333333314
 21
-118.28000000000009
 31
0.0
  0
LINE
  5
1C5
100
AcDbEntity
100
AcDbLine
  8
0
 62
256
370
-1
 48
1.0
  6
ByLayer
 10
-105.33333333333343
 20
-125.00000000000023
 30
0.0
 11
-185.28000000000017
 21
-125.00000000000011
 31
0.0
  0
LINE
  5
1C6
100
AcDbEntity
100
AcDbLine
  8
0
 62
256
370
-1
 48
1.0
  6
ByLayer
 10
-185.28000000000017
 20
-125.00000000000011
 30
0.0
 11
-185.28000000000014
 21
99.999999999999886
 31
0.0
  0
LINE
  5
1C7
100
AcDbEntity
100
AcDbLine
  8
0
 62
256
370
-1
 48
1.0
  6
ByLayer
 10
-185.28000000000014
 20
99.999999999999886
 30
0.0
 11
-192.00000000000009
 21
99.999999999999886
 31
0.0
  0
LINE
  5
1C8
100
AcDbEntity
100
AcDbLine
  8
0
 62
256
370
-1
 48
1.0
  6
ByLayer
 10
-192.00000000000009
 20
99.999999999999886
 30
0.0
 11
-192.00000000000003
 21
394.99999999999977
 31
0.0
  0
LINE
  5
1C9
100
AcDbEntity
100
AcDbLine
  8
0
 62
256
370
-1
 48
1.0
  6
ByLayer
 10
-192.00000000000003
 20
394.99999999999977
 30
0.0
 11
-105.33333333333363
 21
394.99999999999977
 31
0.0
  0
LINE
  5
1CA
100
AcDbEntity
100
AcDbLine
  8
0
 62
256
370
-1
 48
1.0
  6
ByLayer
 10
-105.33333333333363
 20
394.99999999999977
 30
0.0
 11
-105.33333333333363
 21
388.27999999999986
 31
0.0
  0
LINE
  5
1CB
100
AcDbEntity
100
AcDbLine
  8
0
 62
256
370
-1
 48
1.0
  6
ByLayer
 10
-105.33333333333363
 20
388.27999999999986
 30
0.0
 11
-18.666666666666941
 21
388.27999999999975
 31
0.0
  0
LINE
  5
1CC
100
AcDbEntity
100
AcDbLine
  8
0
 62
256
370
-1
 48
1.0
  6
ByLayer
 10
-18.666666666666941
 20
388.27999999999975
 30
0.0
 11
-18.666666666666941
 21
394.99999999999972
 31
0.0
  0
LINE
  5
1CD
100
AcDbEntity
100
AcDbLine
  8
0
 62
256
370
-1
 48
1.0
  6
ByLayer
 10
-18.666666666666941
 20
394.99999999999972
 30
0.0
 11
67.999999999999972
 21
394.99999999999972
 31
0.0
  0
LINE
  5
1CE
100
AcDbEntity
100
AcDbLine
  8
0
 62
256
370
-1
 48
1.0
  6
ByLayer
 10
67.999999999999972
 20
394.99999999999972
 30
0.0
 11
67.999999999999915
 21
99.999999999999829
 31
0.0
  0
LINE
  5
1CF
100
AcDbEntity
100
AcDbLine
  8
0
 62
256
370
-1
 48
1.0
  6
ByLayer
 10
67.999999999999915
 20
99.999999999999829
 30
0.0
 11
61.279999999999887
 21
99.999999999999829
 31
0.0
  0
LINE
  5
1D0
100
AcDbEntity
100
AcDbLine
  8
0
 62
256
370
-1
 48
1.0
  6
ByLayer
 10
-67.999999999999986
 20
-85.500000000000114
 30
0.0
 11
-68.000000000000114
 21
-87.500000000000114
 31
0.0
  0
ARC
  5
1D1
100
AcDbEntity
  8
0
 62
256
370
-1
 48
1.0
  6
ByLayer
100
AcDbCircle
 10
-62.000000000000099
 20
-87.500000000000085
 30
0.0
 40
6.0000000000000142
100
AcDbArc
 50
180.0
 51
0.0
  0
LINE
  5
1D2
100
AcDbEntity
100
AcDbLine
  8
0
 62
256
370
-1
 48
1.0
  6
ByLayer
 10
-56.000000000000085
 20
-87.500000000000057
 30
0.0
 11
-56.000000000000085
 21
-85.500000000000057
 31
0.0
  0
LINE
  5
1D3
100
AcDbEntity
100
AcDbLine
  8
0
 62
256
370
-1
 48
1.0
  6
ByLayer
 10
-56.000000000000085
 20
-85.500000000000057
 30
0.0
 11
21.779999999999973
 21
-85.500000000000114
 31
0.0
  0
LINE
  5
1D4
100
AcDbEntity
100
AcDbLine
  8
0
 62
256
370
-1
 48
1.0
  6
ByLayer
 10
21.779999999999973
 20
-85.500000000000114
 30
0.0
 11
21.780000000000172
 21
-111.55999999999995
 31
0.0
  0
LINE
  5
1D5
100
AcDbEntity
100
AcDbLine
  8
0
 62
256
370
-1
 48
1.0
  6
ByLayer
 10
21.780000000000172
 20
-111.55999999999995
 30
0.0
 11
28.499999999999858
 21
-111.56000000000012
 31
0.0
  0
LINE
  5
1D6
100
AcDbEntity
100
AcDbLine
  8
0
 62
256
370
-1
 48
1.0
  6
ByLayer
 10
28.499999999999858
 20
-111.56000000000012
 30
0.0
 11
28.499999999999968
 21
137.86000000000021
 31
0.0
  0
LINE
  5
1D7
100
AcDbEntity
100
AcDbLine
  8
0
 62
256
370
-1
 48
1.0
  6
ByLayer
 10
28.500000000000142
 20
100.0
 30
0.0
 11
35.219999999999885
 21
99.999999999999886
 31
0.0
  0
LINE
  5
1D8
100
AcDbEntity
100
AcDbLine
  8
0
 62
256
370
-1
 48
1.0
  6
ByLayer
 10
35.219999999999885
 20
99.999999999999886
 30
0.0
 11
35.219999999999828
 21
105.87999999999988
 31
0.0
  0
LINE
  5
1D9
100
AcDbEntity
100
AcDbLine
  8
0
 62
256
370
-1
 48
1.0
  6
ByLayer
 10
35.219999999999828
 20
105.87999999999988
 30
0.0
 11
28.499999999999659
 21
105.87999999999971
 31
0.0
  0
LINE
  5
1DA
100
AcDbEntity
100
AcDbLine
  8
0
 62
256
370
-1
 48
1.0
  6
ByLayer
 10
28.499999999999915
 20
240.87999999999991
 30
0.0
 11
31.649999999999721
 21
240.87999999999982
 31
0.0
  0
LINE
  5
1DB
100
AcDbEntity
100
AcDbLine
  8
0
 62
256
370
-1
 48
1.0
  6
ByLayer
 10
31.649999999999721
 20
240.87999999999982
 30
0.0
 11
31.649999999999835
 21
290.87999999999988
 31
0.0
  0
LINE
  5
1DC
100
AcDbEntity
100
AcDbLine
  8
0
 62
256
370
-1
 48
1.0
  6
ByLayer
 10
31.649999999999835
 20
290.87999999999988
 30
0.0
 11
28.499999999999915
 21
290.88000000000005
 31
0.0
  0
LINE
  5
1DD
100
AcDbEntity
100
AcDbLine
  8
0
 62
256
370
-1
 48
1.0
  6
ByLayer
 10
28.499999999999886
 20
355.49999999999989
 30
0.0
 11
-152.50000000000003
 21
355.49999999999989
 31
0.0
  0
LINE
  5
1DE
100
AcDbEntity
100
AcDbLine
  8
0
 62
256
370
-1
 48
1.0
  6
ByLayer
 10
-152.5
 20
290.87999999999994
 30
0.0
 11
-155.65000000000012
 21
290.87999999999977
 31
0.0
  0
LINE
  5
1DF
100
AcDbEntity
100
AcDbLine
  8
0
 62
256
370
-1
 48
1.0
  6
ByLayer
 10
-155.65000000000012
 20
290.87999999999977
 30
0.0
 11
-155.65000000000012
 21
240.87999999999991
 31
0.0
  0
LINE
  5
1E0
100
AcDbEntity
100
AcDbLine
  8
0
 62
256
370
-1
 48
1.0
  6
ByLayer
 10
-155.65000000000012
 20
240.87999999999991
 30
0.0
 11
-152.50000000000017
 21
240.87999999999994
 31
0.0
  0
LINE
  5
1E1
100
AcDbEntity
100
AcDbLine
  8
0
 62
256
370
-1
 48
1.0
  6
ByLayer
 10
-152.5
 20
105.87999999999988
 30
0.0
 11
-159.22000000000003
 21
105.87999999999988
 31
0.0
  0
LINE
  5
1E2
100
AcDbEntity
100
AcDbLine
  8
0
 62
256
370
-1
 48
1.0
  6
ByLayer
 10
-159.22000000000003
 20
105.87999999999988
 30
0.0
 11
-159.22000000000008
 21
99.999999999999943
 31
0.0
  0
LINE
  5
1E3
100
AcDbEntity
100
AcDbLine
  8
0
 62
256
370
-1
 48
1.0
  6
ByLayer
 10
-159.22000000000008
 20
99.999999999999943
 30
0.0
 11
-152.50000000000009
 21
99.999999999999886
 31
0.0
  0
LINE
  5
1E4
100
AcDbEntity
100
AcDbLine
  8
0
 62
256
370
-1
 48
1.0
  6
ByLayer
 10
-152.50000000000006
 20
137.86000000000024
 30
0.0
 11
-152.49999999999994
 21
-111.56000000000006
 31
0.0
  0
LINE
  5
1E5
100
AcDbEntity
100
AcDbLine
  8
0
 62
256
370
-1
 48
1.0
  6
ByLayer
 10
-152.49999999999994
 20
-111.56000000000006
 30
0.0
 11
-145.78000000000014
 21
-111.56000000000006
 31
0.0
  0
LINE
  5
1E6
100
AcDbEntity
100
AcDbLine
  8
0
 62
256
370
-1
 48
1.0
  6
ByLayer
 10
-145.78000000000014
 20
-111.56000000000006
 30
0.0
 11
-145.77999999999986
 21
-85.500000000000057
 31
0.0
  0
LINE
  5
1E7
100
AcDbEntity
100
AcDbLine
  8
0
 62
256
370
-1
 48
1.0
  6
ByLayer
 10
-145.77999999999986
 20
-85.500000000000057
 30
0.0
 11
-67.999999999999986
 21
-85.500000000000114
 31
0.0
  0
ARC
  5
1E8
100
AcDbEntity
  8
0
 62
256
370
-1
 48
1.0
  6
ByLayer
100
AcDbCircle
 10
-36.880000000000138
 20
-92.220000000000113
 30
0.0
 40
1.5749999999999602
100
AcDbArc
 50
90.000000000005173
 51
270.00000000000517
  0
LINE
  5
1E9
100
AcDbEntity
100
AcDbLine
  8
0
 62
256
370
-1
 48
1.0
  6
ByLayer
 10
-36.879999999999995
 20
-93.795000000000073
 30
0.0
 11
-32.880000000000052
 21
-93.79500000000013
 31
0.0
  0
ARC
  5
1EA
100
AcDbEntity
  8
0
 62
256
370
-1
 48
1.0
  6
ByLayer
100
AcDbCircle
 10
-32.880000000000166
 20
-92.220000000000113
 30
0.0
 40
1.5750000000000171
100
AcDbArc
 50
270.00000000000409
 51
90.000000000004135
  0
LINE
  5
1EB
100
AcDbEntity
100
AcDbLine
  8
0
 62
256
370
-1
 48
1.0
  6
ByLayer
 10
-32.88000000000028
 20
-90.645000000000095
 30
0.0
 11
-36.88000000000028
 21
-90.645000000000152
 31
0.0
  0
ARC
  5
1EC
100
AcDbEntity
  8
0
 62
256
370
-1
 48
1.0
  6
ByLayer
100
AcDbCircle
 10
-87.120000000000203
 20
-92.220000000000169
 30
0.0
 40
1.5749999999999602
100
AcDbArc
 50
270.00000000000671
 51
90.000000000007233
  0
LINE
  5
1ED
100
AcDbEntity
100
AcDbLine
  8
0
 62
256
370
-1
 48
1.0
  6
ByLayer
 10
-87.120000000000402
 20
-90.645000000000209
 30
0.0
 11
-91.120000000000218
 21
-90.645000000000039
 31
0.0
  0
ARC
  5
1EE
100
AcDbEntity
  8
0
 62
256
370
-1
 48
1.0
  6
ByLayer
100
AcDbCircle
 10
-91.120000000000275
 20
-92.220000000000084
 30
0.0
 40
1.5750000000000455
100
AcDbArc
 50
89.999999999997939
 51
269.9999999999979
  0
LINE
  5
1EF
100
AcDbEntity
100
AcDbLine
  8
0
 62
256
370
-1
 48
1.0
  6
ByLayer
 10
-91.120000000000331
 20
-93.79500000000013
 30
0.0
 11
-87.120000000000019
 21
-93.79500000000013
 31
0.0
  0
LINE
  5
1F0
100
AcDbEntity
100
AcDbLine
  8
0
 62
256
370
-1
 48
1.0
  6
ByLayer
 10
-105.33333333333304
 20
-301.76999999999919
 30
0.0
 11
-101.05333333333306
 21
-301.76999999999919
 31
0.0
  0
LINE
  5
1F1
100
AcDbEntity
100
AcDbLine
  8
0
 62
256
370
-1
 48
1.0
  6
ByLayer
 10
-101.05333333333306
 20
-301.76999999999919
 30
0.0
 11
-101.05333333333306
 21
-302.86999999999921
 31
0.0
  0
ARC
  5
1F2
100
AcDbEntity
  8
0
 62
256
370
-1
 48
1.0
  6
ByLayer
100
AcDbCircle
 10
-101.05333333333306
 20
-303.11999999999921
 30
0.0
 40
0.25
100
AcDbArc
 50
90.0
 51
0.0
  0
LINE
  5
1F3
100
AcDbEntity
100
AcDbLine
  8
0
 62
256
370
-1
 48
1.0
  6
ByLayer
 10
-100.80333333333306
 20
-303.11999999999921
 30
0.0
 11
-98.303333333333057
 21
-303.11999999999921
 31
0.0
  0
ARC
  5
1F4
100
AcDbEntity
  8
0
 62
256
370
-1
 48
1.0
  6
ByLayer
100
AcDbCircle
 10
-98.053333333333057
 20
-303.11999999999921
 30
0.0
 40
0.2500000000000071
100
AcDbArc
 50
180.0
 51
89.999999999996746
  0
LINE
  5
1F5
100
AcDbEntity
100
AcDbLine
  8
0
 62
256
370
-1
 48
1.0
  6
ByLayer
 10
-98.053333333333043
 20
-302.86999999999921
 30
0.0
 11
-98.053333333333043
 21
-301.76999999999924
 31
0.0
  0
LINE
  5
1F6
100
AcDbEntity
100
AcDbLine
  8
0
 62
256
370
-1
 48
1.0
  6
ByLayer
 10
-98.053333333333043
 20
-301.76999999999924
 30
0.0
 11
-96.053333333333029
 21
-301.76999999999924
 31
0.0
  0
LINE
  5
1F7
100
AcDbEntity
100
AcDbLine
  8
0
 62
256
370
-1
 48
1.0
  6
ByLayer
 10
-96.053333333333029
 20
-301.76999999999924
 30
0.0
 11
-96.053333333333015
 21
-298.46999999999923
 31
0.0
  0
LINE
  5
1F8
100
AcDbEntity
100
AcDbLine
  8
0
 62
256
370
-1
 48
1.0
  6
ByLayer
 10
-96.053333333333015
 20
-298.46999999999923
 30
0.0
 11
-98.053333333333029
 21
-298.46999999999923
 31
0.0
  0
LINE
  5
1F9
100
AcDbEntity
100
AcDbLine
  8
0
 62
256
370
-1
 48
1.0
  6
ByLayer
 10
-98.053333333333029
 20
-298.46999999999923
 30
0.0
 11
-98.053333333333043
 21
-297.36999999999921
 31
0.0
  0
ARC
  5
1FA
100
AcDbEntity
  8
0
 62
256
370
-1
 48
1.0
  6
ByLayer
100
AcDbCircle
 10
-98.053333333333057
 20
-297.11999999999921
 30
0.0
 40
0.2500000000000071
100
AcDbArc
 50
270.00000000000324
 51
180.0
  0
LINE
  5
1FB
100
AcDbEntity
100
AcDbLine
  8
0
 62
256
370
-1
 48
1.0
  6
ByLayer
 10
-98.303333333333057
 20
-297.11999999999921
 30
0.0
 11
-100.80333333333304
 21
-297.11999999999921
 31
0.0
  0
ARC
  5
1FC
100
AcDbEntity
  8
0
 62
256
370
-1
 48
1.0
  6
ByLayer
100
AcDbCircle
 10
-101.05333333333304
 20
-297.11999999999921
 30
0.0
 40
0.25
100
AcDbArc
 50
0.0
 51
270.0
  0
LINE
  5
1FD
100
AcDbEntity
100
AcDbLine
  8
0
 62
256
370
-1
 48
1.0
  6
ByLayer
 10
-101.05333333333304
 20
-297.36999999999921
 30
0.0
 11
-101.05333333333306
 21
-298.46999999999923
 31
0.0
  0
LINE
  5
1FE
100
AcDbEntity
100
AcDbLine
  8
0
 62
256
370
-1
 48
1.0
  6
ByLayer
 10
-101.05333333333306
 20
-298.46999999999923
 30
0.0
 11
-105.33333333333304
 21
-298.46999999999923
 31
0.0
  0
LINE
  5
1FF
100
AcDbEntity
100
AcDbLine
  8
0
 62
256
370
-1
 48
1.0
  6
ByLayer
 10
-105.33333333333304
 20
-298.46999999999923
 30
0.0
 11
-105.33333333333304
 21
-289.19999999999936
 31
0.0
  0
LINE
  5
200
100
AcDbEntity
100
AcDbLine
  8
0
 62
256
370
-1
 48
1.0
  6
ByLayer
 10
-105.33333333333304
 20
-289.19999999999936
 30
0.0
 11
-112.05333333333304
 21
-289.19999999999936
 31
0.0
  0
LINE
  5
201
100
AcDbEntity
100
AcDbLine
  8
0
 62
256
370
-1
 48
1.0
  6
ByLayer
 10
-112.05333333333304
 20
-289.19999999999936
 30
0.0
 11
-112.05333333333313
 21
-272.39999999999935
 31
0.0
  0
LINE
  5
202
100
AcDbEntity
100
AcDbLine
  8
0
 62
256
370
-1
 48
1.0
  6
ByLayer
 10
-112.05333333333313
 20
-272.39999999999935
 30
0.0
 11
-98.613333333333046
 21
-272.3999999999993
 31
0.0
  0
LINE
  5
203
100
AcDbEntity
100
AcDbLine
  8
0
 62
256
370
-1
 48
1.0
  6
ByLayer
 10
-98.613333333333046
 20
-272.3999999999993
 30
0.0
 11
-98.61333333333306
 21
-255.59999999999928
 31
0.0
  0
LINE
  5
204
100
AcDbEntity
100
AcDbLine
  8
0
 62
256
370
-1
 48
1.0
  6
ByLayer
 10
68.946666666666943
 20
-255.59999999999914
 30
0.0
 11
68.946666666666999
 21
-272.3999999999993
 31
0.0
  0
LINE
  5
205
100
AcDbEntity
100
AcDbLine
  8
0
 62
256
370
-1
 48
1.0
  6
ByLayer
 10
68.946666666666999
 20
-272.3999999999993
 30
0.0
 11
82.386666666666997
 21
-272.39999999999941
 31
0.0
  0
LINE
  5
206
100
AcDbEntity
100
AcDbLine
  8
0
 62
256
370
-1
 48
1.0
  6
ByLayer
 10
82.386666666666997
 20
-272.39999999999941
 30
0.0
 11
82.386666666667026
 21
-289.19999999999936
 31
0.0
  0
LINE
  5
207
100
AcDbEntity
100
AcDbLine
  8
0
 62
256
370
-1
 48
1.0
  6
ByLayer
 10
82.386666666667026
 20
-289.19999999999936
 30
0.0
 11
75.666666666667027
 21
-289.19999999999925
 31
0.0
  0
LINE
  5
208
100
AcDbEntity
100
AcDbLine
  8
0
 62
256
370
-1
 48
1.0
  6
ByLayer
 10
75.666666666667027
 20
-289.19999999999925
 30
0.0
 11
75.66666666666697
 21
-298.46999999999957
 31
0.0
  0
LINE
  5
209
100
AcDbEntity
100
AcDbLine
  8
0
 62
256
370
-1
 48
1.0
  6
ByLayer
 10
75.66666666666697
 20
-298.46999999999957
 30
0.0
 11
71.386666666666997
 21
-298.4699999999994
 31
0.0
  0
LINE
  5
20A
100
AcDbEntity
100
AcDbLine
  8
0
 62
256
370
-1
 48
1.0
  6
ByLayer
 10
71.386666666666997
 20
-298.4699999999994
 30
0.0
 11
71.386666666667026
 21
-297.36999999999932
 31
0.0
  0
ARC
  5
20B
100
AcDbEntity
  8
0
 62
256
370
-1
 48
1.0
  6
ByLayer
100
AcDbCircle
 10
71.386666666667153
 20
-297.11999999999921
 30
0.0
 40
0.2500000000001563
100
AcDbArc
 50
269.99999999997073
 51
180.0
  0
LINE
  5
20C
100
AcDbEntity
100
AcDbLine
  8
0
 62
256
370
-1
 48
1.0
  6
ByLayer
 10
71.136666666666997
 20
-297.11999999999904
 30
0.0
 11
68.636666666666997
 21
-297.11999999999904
 31
0.0
  0
ARC
  5
20D
100
AcDbEntity
  8
0
 62
256
370
-1
 48
1.0
  6
ByLayer
100
AcDbCircle
 10
68.386666666666883
 20
-297.11999999999904
 30
0.0
 40
0.2500000000001137
100
AcDbArc
 50
0.0
 51
270.00000000001302
  0
LINE
  5
20E
100
AcDbEntity
100
AcDbLine
  8
0
 62
256
370
-1
 48
1.0
  6
ByLayer
 10
68.38666666666694
 20
-297.36999999999921
 30
0.0
 11
68.38666666666694
 21
-298.46999999999946
 31
0.0
  0
LINE
  5
20F
100
AcDbEntity
100
AcDbLine
  8
0
 62
256
370
-1
 48
1.0
  6
ByLayer
 10
68.38666666666694
 20
-298.46999999999946
 30
0.0
 11
66.38666666666694
 21
-298.46999999999912
 31
0.0
  0
LINE
  5
210
100
AcDbEntity
100
AcDbLine
  8
0
 62
256
370
-1
 48
1.0
  6
ByLayer
 10
66.38666666666694
 20
-298.46999999999912
 30
0.0
 11
66.38666666666694
 21
-301.76999999999924
 31
0.0
  0
LINE
  5
211
100
AcDbEntity
100
AcDbLine
  8
0
 62
256
370
-1
 48
1.0
  6
ByLayer
 10
66.38666666666694
 20
-301.76999999999924
 30
0.0
 11
68.38666666666694
 21
-301.76999999999907
 31
0.0
  0
LINE
  5
212
100
AcDbEntity
100
AcDbLine
  8
0
 62
256
370
-1
 48
1.0
  6
ByLayer
 10
68.38666666666694
 20
-301.76999999999907
 30
0.0
 11
68.38666666666694
 21
-302.86999999999955
 31
0.0
  0
ARC
  5
213
100
AcDbEntity
  8
0
 62
256
370
-1
 48
1.0
  6
ByLayer
100
AcDbCircle
 10
68.386666666667082
 20
-303.11999999999944
 30
0.0
 40
0.2499999999999147
100
AcDbArc
 50
90.000000000032571
 51
0.0
  0
LINE
  5
214
100
AcDbEntity
100
AcDbLine
  8
0
 62
256
370
-1
 48
1.0
  6
ByLayer
 10
68.636666666666997
 20
-303.11999999999932
 30
0.0
 11
71.136666666666997
 21
-303.11999999999921
 31
0.0
  0
ARC
  5
215
100
AcDbEntity
  8
0
 62
256
370
-1
 48
1.0
  6
ByLayer
100
AcDbCircle
 10
71.386666666667054
 20
-303.11999999999915
 30
0.0
 40
0.2500000000000568
100
AcDbArc
 50
180.0
 51
90.000000000013031
  0
LINE
  5
216
100
AcDbEntity
100
AcDbLine
  8
0
 62
256
370
-1
 48
1.0
  6
ByLayer
 10
71.386666666666997
 20
-302.8699999999991
 30
0.0
 11
71.386666666666997
 21
-301.76999999999936
 31
0.0
  0
LINE
  5
217
100
AcDbEntity
100
AcDbLine
  8
0
 62
256
370
-1
 48
1.0
  6
ByLayer
 10
71.386666666666997
 20
-301.76999999999936
 30
0.0
 11
75.666666666666998
 21
-301.76999999999941
 31
0.0
  0
LINE
  5
218
100
AcDbEntity
100
AcDbLine
  8
0
 62
256
370
-1
 48
1.0
  6
ByLayer
 10
75.666666666666998
 20
-301.76999999999941
 30
0.0
 11
75.66666666666697
 21
-312.7199999999994
 31
0.0
  0
LINE
  5
219
100
AcDbEntity
100
AcDbLine
  8
0
 62
256
370
-1
 48
1.0
  6
ByLayer
 10
75.66666666666697
 20
-312.7199999999994
 30
0.0
 11
15.333333333333641
 21
-312.7199999999994
 31
0.0
  0
LINE
  5
21A
100
AcDbEntity
100
AcDbLine
  8
0
 62
256
370
-1
 48
1.0
  6
ByLayer
 10
15.333333333333641
 20
-312.7199999999994
 30
0.0
 11
15.333333333333641
 21
-305.99999999999937
 31
0.0
  0
LINE
  5
21B
100
AcDbEntity
100
AcDbLine
  8
0
 62
256
370
-1
 48
1.0
  6
ByLayer
 10
15.333333333333641
 20
-305.99999999999937
 30
0.0
 11
-13.18333333333301
 21
-305.99999999999937
 31
0.0
  0
LINE
  5
21C
100
AcDbEntity
100
AcDbLine
  8
0
 62
256
370
-1
 48
1.0
  6
ByLayer
 10
-13.18333333333301
 20
-305.99999999999937
 30
0.0
 11
-13.18333333333301
 21
-301.71999999999929
 31
0.0
  0
LINE
  5
21D
100
AcDbEntity
100
AcDbLine
  8
0
 62
256
370
-1
 48
1.0
  6
ByLayer
 10
-13.18333333333301
 20
-301.71999999999929
 30
0.0
 11
-12.083333333333016
 21
-301.71999999999935
 31
0.0
  0
ARC
  5
21E
100
AcDbEntity
  8
0
 62
256
370
-1
 48
1.0
  6
ByLayer
100
AcDbCircle
 10
-11.833333333333064
 20
-301.7199999999994
 30
0.0
 40
0.2499999999999524
100
AcDbArc
 50
180.0
 51
89.999999999985747
  0
LINE
  5
21F
100
AcDbEntity
100
AcDbLine
  8
0
 62
256
370
-1
 48
1.0
  6
ByLayer
 10
-11.833333333333002
 20
-301.46999999999946
 30
0.0
 11
-11.833333333333002
 21
-298.9699999999994
 31
0.0
  0
ARC
  5
220
100
AcDbEntity
  8
0
 62
256
370
-1
 48
1.0
  6
ByLayer
100
AcDbCircle
 10
-11.83333333333298
 20
-298.71999999999935
 30
0.0
 40
0.2500000000000355
100
AcDbArc
 50
269.99999999999511
 51
180.0
  0
LINE
  5
221
100
AcDbEntity
100
AcDbLine
  8
0
 62
256
370
-1
 48
1.0
  6
ByLayer
 10
-12.083333333333016
 20
-298.71999999999935
 30
0.0
 11
-13.183333333332996
 21
-298.7199999999994
 31
0.0
  0
LINE
  5
222
100
AcDbEntity
100
AcDbLine
  8
0
 62
256
370
-1
 48
1.0
  6
ByLayer
 10
-13.183333333332996
 20
-298.7199999999994
 30
0.0
 11
-13.18333333333301
 21
-296.71999999999935
 31
0.0
  0
LINE
  5
223
100
AcDbEntity
100
AcDbLine
  8
0
 62
256
370
-1
 48
1.0
  6
ByLayer
 10
-13.18333333333301
 20
-296.71999999999935
 30
0.0
 11
-16.483333333333022
 21
-296.71999999999929
 31
0.0
  0
LINE
  5
224
100
AcDbEntity
100
AcDbLine
  8
0
 62
256
370
-1
 48
1.0
  6
ByLayer
 10
-16.483333333333022
 20
-296.71999999999929
 30
0.0
 11
-16.483333333333022
 21
-298.71999999999923
 31
0.0
  0
LINE
  5
225
100
AcDbEntity
100
AcDbLine
  8
0
 62
256
370
-1
 48
1.0
  6
ByLayer
 10
-16.483333333333022
 20
-298.71999999999923
 30
0.0
 11
-17.583333333333016
 21
-298.71999999999923
 31
0.0
  0
ARC
  5
226
100
AcDbEntity
  8
0
 62
256
370
-1
 48
1.0
  6
ByLayer
100
AcDbCircle
 10
-17.833333333333066
 20
-298.71999999999929
 30
0.0
 40
0.2500000000000497
100
AcDbArc
 50
0.0
 51
270.00000000001467
  0
LINE
  5
227
100
AcDbEntity
100
AcDbLine
  8
0
 62
256
370
-1
 48
1.0
  6
ByLayer
 10
-17.833333333333002
 20
-298.96999999999935
 30
0.0
 11
-17.833333333333016
 21
-301.46999999999929
 31
0.0
  0
ARC
  5
228
100
AcDbEntity
  8
0
 62
256
370
-1
 48
1.0
  6
ByLayer
100
AcDbCircle
 10
-17.833333333333044
 20
-301.71999999999935
 30
0.0
 40
0.2500000000000284
100
AcDbArc
 50
89.999999999993491
 51
0.0
  0
LINE
  5
229
100
AcDbEntity
100
AcDbLine
  8
0
 62
256
370
-1
 48
1.0
  6
ByLayer
 10
-17.583333333333016
 20
-301.71999999999935
 30
0.0
 11
-16.483333333333022
 21
-301.71999999999923
 31
0.0
  0
LINE
  5
22A
100
AcDbEntity
100
AcDbLine
  8
0
 62
256
370
-1
 48
1.0
  6
ByLayer
 10
-16.483333333333022
 20
-301.71999999999923
 30
0.0
 11
-16.483333333333022
 21
-305.99999999999937
 31
0.0
  0
LINE
  5
22B
100
AcDbEntity
100
AcDbLine
  8
0
 62
256
370
-1
 48
1.0
  6
ByLayer
 10
-16.483333333333022
 20
-305.99999999999937
 30
0.0
 11
-44.999999999999702
 21
-305.99999999999937
 31
0.0
  0
LINE
  5
22C
100
AcDbEntity
100
AcDbLine
  8
0
 62
256
370
-1
 48
1.0
  6
ByLayer
 10
-44.999999999999702
 20
-305.99999999999937
 30
0.0
 11
-44.999999999999687
 21
-312.71999999999935
 31
0.0
  0
LINE
  5
22D
100
AcDbEntity
100
AcDbLine
  8
0
 62
256
370
-1
 48
1.0
  6
ByLayer
 10
-44.999999999999687
 20
-312.71999999999935
 30
0.0
 11
-105.33333333333303
 21
-312.71999999999935
 31
0.0
  0
LINE
  5
22E
100
AcDbEntity
100
AcDbLine
  8
0
 62
256
370
-1
 48
1.0
  6
ByLayer
 10
-105.33333333333303
 20
-312.71999999999935
 30
0.0
 11
-105.33333333333304
 21
-301.76999999999919
 31
0.0
  0
LINE
  5
22F
100
AcDbEntity
100
AcDbLine
  8
0
 62
256
370
-1
 48
1.0
  6
ByLayer
 10
21.779999999999262
 20
86.380000000000365
 30
0.0
 11
21.779999999999276
 21
71.380000000000365
 31
0.0
  0
LINE
  5
230
100
AcDbEntity
100
AcDbLine
  8
0
 62
256
370
-1
 48
1.0
  6
ByLayer
 10
21.779999999999276
 20
71.380000000000365
 30
0.0
 11
15.059999999999263
 21
71.380000000000365
 31
0.0
  0
LINE
  5
231
100
AcDbEntity
100
AcDbLine
  8
0
 62
256
370
-1
 48
1.0
  6
ByLayer
 10
15.059999999999263
 20
71.380000000000365
 30
0.0
 11
15.059999999999263
 21
86.380000000000365
 31
0.0
  0
LINE
  5
232
100
AcDbEntity
100
AcDbLine
  8
0
 62
256
370
-1
 48
1.0
  6
ByLayer
 10
15.059999999999263
 20
86.380000000000365
 30
0.0
 11
21.779999999999262
 21
86.380000000000365
 31
0.0
  0
LINE
  5
233
100
AcDbEntity
100
AcDbLine
  8
0
 62
256
370
-1
 48
1.0
  6
ByLayer
 10
-28.620000000000182
 20
137.86000000000038
 30
0.0
 11
-28.620000000000147
 21
-68.659999999999627
 31
0.0
  0
LINE
  5
234
100
AcDbEntity
100
AcDbLine
  8
0
 62
256
370
-1
 48
1.0
  6
ByLayer
 10
-28.620000000000147
 20
-68.659999999999627
 30
0.0
 11
-11.820000000000149
 21
-68.659999999999627
 31
0.0
  0
LINE
  5
235
100
AcDbEntity
100
AcDbLine
  8
0
 62
256
370
-1
 48
1.0
  6
ByLayer
 10
-11.820000000000149
 20
-68.659999999999627
 30
0.0
 11
-11.820000000000149
 21
-61.939999999999621
 31
0.0
  0
LINE
  5
236
100
AcDbEntity
100
AcDbLine
  8
0
 62
256
370
-1
 48
1.0
  6
ByLayer
 10
-11.820000000000149
 20
-61.939999999999621
 30
0.0
 11
4.9799999999998477
 21
-61.939999999999621
 31
0.0
  0
LINE
  5
237
100
AcDbEntity
100
AcDbLine
  8
0
 62
256
370
-1
 48
1.0
  6
ByLayer
 10
4.9799999999998477
 20
-61.939999999999621
 30
0.0
 11
4.9799999999998477
 21
-68.659999999999627
 31
0.0
  0
LINE
  5
238
100
AcDbEntity
100
AcDbLine
  8
0
 62
256
370
-1
 48
1.0
  6
ByLayer
 10
4.9799999999998477
 20
-68.659999999999627
 30
0.0
 11
28.499999999999886
 21
-68.659999999999627
 31
0.0
  0
LINE
  5
239
100
AcDbEntity
100
AcDbLine
  8
0
 62
256
370
-1
 48
1.0
  6
ByLayer
 10
-105.33333333333294
 20
-209.42999999999967
 30
0.0
 11
-101.05333333333297
 21
-209.42999999999955
 31
0.0
  0
LINE
  5
23A
100
AcDbEntity
100
AcDbLine
  8
0
 62
256
370
-1
 48
1.0
  6
ByLayer
 10
-101.05333333333297
 20
-209.42999999999955
 30
0.0
 11
-101.05333333333297
 21
-208.32999999999925
 31
0.0
  0
ARC
  5
23B
100
AcDbEntity
  8
0
 62
256
370
-1
 48
1.0
  6
ByLayer
100
AcDbCircle
 10
-101.05333333333284
 20
-208.07999999999936
 30
0.0
 40
0.2499999999998721
100
AcDbArc
 50
360.0
 51
269.99999999997073
  0
LINE
  5
23C
100
AcDbEntity
100
AcDbLine
  8
0
 62
256
370
-1
 48
1.0
  6
ByLayer
 10
-100.80333333333297
 20
-208.0799999999995
 30
0.0
 11
-98.303333333332972
 21
-208.07999999999961
 31
0.0
  0
ARC
  5
23D
100
AcDbEntity
  8
0
 62
256
370
-1
 48
1.0
  6
ByLayer
100
AcDbCircle
 10
-98.053333333333072
 20
-208.07999999999953
 30
0.0
 40
0.2499999999999005
100
AcDbArc
 50
270.00000000002279
 51
180.0
  0
LINE
  5
23E
100
AcDbEntity
100
AcDbLine
  8
0
 62
256
370
-1
 48
1.0
  6
ByLayer
 10
-98.053333333332972
 20
-208.32999999999942
 30
0.0
 11
-98.053333333332915
 21
-209.4299999999993
 31
0.0
  0
LINE
  5
23F
100
AcDbEntity
100
AcDbLine
  8
0
 62
256
370
-1
 48
1.0
  6
ByLayer
 10
-98.053333333332915
 20
-209.4299999999993
 30
0.0
 11
-96.053333333332915
 21
-209.42999999999958
 31
0.0
  0
LINE
  5
240
100
AcDbEntity
100
AcDbLine
  8
0
 62
256
370
-1
 48
1.0
  6
ByLayer
 10
-96.053333333332915
 20
-209.42999999999958
 30
0.0
 11
-96.053333333332915
 21
-212.72999999999951
 31
0.0
  0
LINE
  5
241
100
AcDbEntity
100
AcDbLine
  8
0
 62
256
370
-1
 48
1.0
  6
ByLayer
 10
-96.053333333332915
 20
-212.72999999999951
 30
0.0
 11
-98.053333333332972
 21
-212.72999999999948
 31
0.0
  0
LINE
  5
242
100
AcDbEntity
100
AcDbLine
  8
0
 62
256
370
-1
 48
1.0
  6
ByLayer
 10
-98.053333333332972
 20
-212.72999999999948
 30
0.0
 11
-98.053333333332915
 21
-213.82999999999939
 31
0.0
  0
ARC
  5
243
100
AcDbEntity
  8
0
 62
256
370
-1
 48
1.0
  6
ByLayer
100
AcDbCircle
 10
-98.053333333332915
 20
-214.07999999999944
 30
0.0
 40
0.2500000000000568
100
AcDbArc
 50
180.0
 51
90.0
  0
LINE
  5
244
100
AcDbEntity
100
AcDbLine
  8
0
 62
256
370
-1
 48
1.0
  6
ByLayer
 10
-98.303333333332972
 20
-214.07999999999944
 30
0.0
 11
-100.80333333333297
 21
-214.07999999999942
 31
0.0
  0
ARC
  5
245
100
AcDbEntity
  8
0
 62
256
370
-1
 48
1.0
  6
ByLayer
100
AcDbCircle
 10
-101.05333333333284
 20
-214.07999999999953
 30
0.0
 40
0.2499999999998721
100
AcDbArc
 50
90.000000000029317
 51
0.0
  0
LINE
  5
246
100
AcDbEntity
100
AcDbLine
  8
0
 62
256
370
-1
 48
1.0
  6
ByLayer
 10
-101.05333333333297
 20
-213.82999999999967
 30
0.0
 11
-101.05333333333297
 21
-212.72999999999962
 31
0.0
  0
LINE
  5
247
100
AcDbEntity
100
AcDbLine
  8
0
 62
256
370
-1
 48
1.0
  6
ByLayer
 10
-101.05333333333297
 20
-212.72999999999962
 30
0.0
 11
-105.33333333333294
 21
-212.72999999999936
 31
0.0
  0
LINE
  5
248
100
AcDbEntity
100
AcDbLine
  8
0
 62
256
370
-1
 48
1.0
  6
ByLayer
 10
-105.33333333333294
 20
-212.72999999999936
 30
0.0
 11
-105.33333333333294
 21
-221.9999999999994
 31
0.0
  0
LINE
  5
249
100
AcDbEntity
100
AcDbLine
  8
0
 62
256
370
-1
 48
1.0
  6
ByLayer
 10
-105.33333333333294
 20
-221.9999999999994
 30
0.0
 11
-112.05333333333297
 21
-221.99999999999949
 31
0.0
  0
LINE
  5
24A
100
AcDbEntity
100
AcDbLine
  8
0
 62
256
370
-1
 48
1.0
  6
ByLayer
 10
-112.05333333333297
 20
-221.99999999999949
 30
0.0
 11
-112.05333333333303
 21
-238.79999999999936
 31
0.0
  0
LINE
  5
24B
100
AcDbEntity
100
AcDbLine
  8
0
 62
256
370
-1
 48
1.0
  6
ByLayer
 10
-112.05333333333303
 20
-238.79999999999936
 30
0.0
 11
-98.613333333332974
 21
-238.79999999999941
 31
0.0
  0
LINE
  5
24C
100
AcDbEntity
100
AcDbLine
  8
0
 62
256
370
-1
 48
1.0
  6
ByLayer
 10
-98.613333333332974
 20
-238.79999999999941
 30
0.0
 11
-98.613333333332974
 21
-255.59999999999945
 31
0.0
  0
LINE
  5
24D
100
AcDbEntity
100
AcDbLine
  8
0
 62
256
370
-1
 48
1.0
  6
ByLayer
 10
-98.613333333332974
 20
-255.59999999999945
 30
0.0
 11
68.946666666666999
 21
-255.5999999999996
 31
0.0
  0
LINE
  5
24E
100
AcDbEntity
100
AcDbLine
  8
0
 62
256
370
-1
 48
1.0
  6
ByLayer
 10
68.946666666666999
 20
-255.5999999999996
 30
0.0
 11
68.946666666667085
 21
-238.79999999999956
 31
0.0
  0
LINE
  5
24F
100
AcDbEntity
100
AcDbLine
  8
0
 62
256
370
-1
 48
1.0
  6
ByLayer
 10
68.946666666667085
 20
-238.79999999999956
 30
0.0
 11
82.386666666667097
 21
-238.79999999999961
 31
0.0
  0
LINE
  5
250
100
AcDbEntity
100
AcDbLine
  8
0
 62
256
370
-1
 48
1.0
  6
ByLayer
 10
82.386666666667097
 20
-238.79999999999961
 30
0.0
 11
82.386666666667097
 21
-221.99999999999963
 31
0.0
  0
LINE
  5
251
100
AcDbEntity
100
AcDbLine
  8
0
 62
256
370
-1
 48
1.0
  6
ByLayer
 10
82.386666666667097
 20
-221.99999999999963
 30
0.0
 11
75.666666666667098
 21
-221.99999999999986
 31
0.0
  0
LINE
  5
252
100
AcDbEntity
100
AcDbLine
  8
0
 62
256
370
-1
 48
1.0
  6
ByLayer
 10
75.666666666667098
 20
-221.99999999999986
 30
0.0
 11
75.666666666667041
 21
-212.72999999999962
 31
0.0
  0
LINE
  5
253
100
AcDbEntity
100
AcDbLine
  8
0
 62
256
370
-1
 48
1.0
  6
ByLayer
 10
75.666666666667041
 20
-212.72999999999962
 30
0.0
 11
71.386666666667054
 21
-212.72999999999956
 31
0.0
  0
LINE
  5
254
100
AcDbEntity
100
AcDbLine
  8
0
 62
256
370
-1
 48
1.0
  6
ByLayer
 10
71.386666666667054
 20
-212.72999999999956
 30
0.0
 11
71.386666666667054
 21
-213.82999999999961
 31
0.0
  0
ARC
  5
255
100
AcDbEntity
  8
0
 62
256
370
-1
 48
1.0
  6
ByLayer
100
AcDbCircle
 10
71.386666666667054
 20
-214.07999999999961
 30
0.0
 40
0.25
100
AcDbArc
 50
180.0
 51
90.0
  0
LINE
  5
256
100
AcDbEntity
100
AcDbLine
  8
0
 62
256
370
-1
 48
1.0
  6
ByLayer
 10
71.136666666667054
 20
-214.07999999999961
 30
0.0
 11
68.636666666667054
 21
-214.07999999999964
 31
0.0
  0
ARC
  5
257
100
AcDbEntity
  8
0
 62
256
370
-1
 48
1.0
  6
ByLayer
100
AcDbCircle
 10
68.386666666667011
 20
-214.07999999999964
 30
0.0
 40
0.2500000000000426
100
AcDbArc
 50
89.999999999996746
 51
0.0
  0
LINE
  5
258
100
AcDbEntity
100
AcDbLine
  8
0
 62
256
370
-1
 48
1.0
  6
ByLayer
 10
68.386666666667026
 20
-213.82999999999959
 30
0.0
 11
68.38666666666704
 21
-212.72999999999962
 31
0.0
  0
LINE
  5
259
100
AcDbEntity
100
AcDbLine
  8
0
 62
256
370
-1
 48
1.0
  6
ByLayer
 10
68.38666666666704
 20
-212.72999999999962
 30
0.0
 11
66.386666666667026
 21
-212.72999999999956
 31
0.0
  0
LINE
  5
25A
100
AcDbEntity
100
AcDbLine
  8
0
 62
256
370
-1
 48
1.0
  6
ByLayer
 10
66.386666666667026
 20
-212.72999999999956
 30
0.0
 11
66.38666666666704
 21
-209.42999999999958
 31
0.0
  0
LINE
  5
25B
100
AcDbEntity
100
AcDbLine
  8
0
 62
256
370
-1
 48
1.0
  6
ByLayer
 10
66.38666666666704
 20
-209.42999999999958
 30
0.0
 11
68.386666666667054
 21
-209.42999999999967
 31
0.0
  0
LINE
  5
25C
100
AcDbEntity
100
AcDbLine
  8
0
 62
256
370
-1
 48
1.0
  6
ByLayer
 10
68.386666666667054
 20
-209.42999999999967
 30
0.0
 11
68.386666666667054
 21
-208.32999999999961
 31
0.0
  0
ARC
  5
25D
100
AcDbEntity
  8
0
 62
256
370
-1
 48
1.0
  6
ByLayer
100
AcDbCircle
 10
68.38666666666704
 20
-208.07999999999959
 30
0.0
 40
0.2500000000000142
100
AcDbArc
 50
0.0
 51
270.00000000000324
  0
LINE
  5
25E
100
AcDbEntity
100
AcDbLine
  8
0
 62
256
370
-1
 48
1.0
  6
ByLayer
 10
68.636666666667054
 20
-208.07999999999959
 30
0.0
 11
71.136666666667054
 21
-208.07999999999961
 31
0.0
  0
ARC
  5
25F
100
AcDbEntity
  8
0
 62
256
370
-1
 48
1.0
  6
ByLayer
100
AcDbCircle
 10
71.38666666666704
 20
-208.07999999999959
 30
0.0
 40
0.2499999999999858
100
AcDbArc
 50
270.00000000000324
 51
180.0
  0
LINE
  5
260
100
AcDbEntity
100
AcDbLine
  8
0
 62
256
370
-1
 48
1.0
  6
ByLayer
 10
71.386666666667054
 20
-208.32999999999959
 30
0.0
 11
71.386666666667054
 21
-209.42999999999967
 31
0.0
  0
LINE
  5
261
100
AcDbEntity
100
AcDbLine
  8
0
 62
256
370
-1
 48
1.0
  6
ByLayer
 10
71.386666666667054
 20
-209.42999999999967
 30
0.0
 11
75.666666666667055
 21
-209.42999999999967
 31
0.0
  0
LINE
  5
262
100
AcDbEntity
100
AcDbLine
  8
0
 62
256
370
-1
 48
1.0
  6
ByLayer
 10
75.666666666667055
 20
-209.42999999999967
 30
0.0
 11
75.666666666667055
 21
-198.47999999999956
 31
0.0
  0
LINE
  5
263
100
AcDbEntity
100
AcDbLine
  8
0
 62
256
370
-1
 48
1.0
  6
ByLayer
 10
75.666666666667055
 20
-198.47999999999956
 30
0.0
 11
15.333333333333727
 21
-198.47999999999956
 31
0.0
  0
LINE
  5
264
100
AcDbEntity
100
AcDbLine
  8
0
 62
256
370
-1
 48
1.0
  6
ByLayer
 10
15.333333333333727
 20
-198.47999999999956
 30
0.0
 11
15.333333333333727
 21
-205.19999999999951
 31
0.0
  0
LINE
  5
265
100
AcDbEntity
100
AcDbLine
  8
0
 62
256
370
-1
 48
1.0
  6
ByLayer
 10
15.333333333333727
 20
-205.19999999999951
 30
0.0
 11
-13.183333333332925
 21
-205.19999999999956
 31
0.0
  0
LINE
  5
266
100
AcDbEntity
100
AcDbLine
  8
0
 62
256
370
-1
 48
1.0
  6
ByLayer
 10
-13.183333333332925
 20
-205.19999999999956
 30
0.0
 11
-13.183333333332925
 21
-209.47999999999956
 31
0.0
  0
LINE
  5
267
100
AcDbEntity
100
AcDbLine
  8
0
 62
256
370
-1
 48
1.0
  6
ByLayer
 10
-13.183333333332925
 20
-209.47999999999956
 30
0.0
 11
-12.083333333332931
 21
-209.47999999999951
 31
0.0
  0
ARC
  5
268
100
AcDbEntity
  8
0
 62
256
370
-1
 48
1.0
  6
ByLayer
100
AcDbCircle
 10
-11.833333333332893
 20
-209.47999999999954
 30
0.0
 40
0.2500000000000378
100
AcDbArc
 50
269.99999999999471
 51
180.0
  0
LINE
  5
269
100
AcDbEntity
100
AcDbLine
  8
0
 62
256
370
-1
 48
1.0
  6
ByLayer
 10
-11.833333333332916
 20
-209.72999999999956
 30
0.0
 11
-11.833333333332931
 21
-212.22999999999954
 31
0.0
  0
ARC
  5
26A
100
AcDbEntity
  8
0
 62
256
370
-1
 48
1.0
  6
ByLayer
100
AcDbCircle
 10
-11.833333333332959
 20
-212.47999999999951
 30
0.0
 40
0.2499999999999716
100
AcDbArc
 50
180.0
 51
89.999999999993491
  0
LINE
  5
26B
100
AcDbEntity
100
AcDbLine
  8
0
 62
256
370
-1
 48
1.0
  6
ByLayer
 10
-12.083333333332931
 20
-212.47999999999948
 30
0.0
 11
-13.183333333332925
 21
-212.47999999999951
 31
0.0
  0
LINE
  5
26C
100
AcDbEntity
100
AcDbLine
  8
0
 62
256
370
-1
 48
1.0
  6
ByLayer
 10
-13.183333333332925
 20
-212.47999999999951
 30
0.0
 11
-13.183333333332925
 21
-214.47999999999954
 31
0.0
  0
LINE
  5
26D
100
AcDbEntity
100
AcDbLine
  8
0
 62
256
370
-1
 48
1.0
  6
ByLayer
 10
-13.183333333332925
 20
-214.47999999999954
 30
0.0
 11
-16.483333333332936
 21
-214.47999999999951
 31
0.0
  0
LINE
  5
26E
100
AcDbEntity
100
AcDbLine
  8
0
 62
256
370
-1
 48
1.0
  6
ByLayer
 10
-16.483333333332936
 20
-214.47999999999951
 30
0.0
 11
-16.483333333332922
 21
-212.47999999999951
 31
0.0
  0
LINE
  5
26F
100
AcDbEntity
100
AcDbLine
  8
0
 62
256
370
-1
 48
1.0
  6
ByLayer
 10
-16.483333333332922
 20
-212.47999999999951
 30
0.0
 11
-17.583333333332931
 21
-212.47999999999948
 31
0.0
  0
ARC
  5
270
100
AcDbEntity
  8
0
 62
256
370
-1
 48
1.0
  6
ByLayer
100
AcDbCircle
 10
-17.833333333332902
 20
-212.47999999999951
 30
0.0
 40
0.2499999999999716
100
AcDbArc
 50
90.000000000006509
 51
0.0
  0
LINE
  5
271
100
AcDbEntity
100
AcDbLine
  8
0
 62
256
370
-1
 48
1.0
  6
ByLayer
 10
-17.833333333332931
 20
-212.22999999999954
 30
0.0
 11
-17.833333333332916
 21
-209.72999999999942
 31
0.0
  0
ARC
  5
272
100
AcDbEntity
  8
0
 62
256
370
-1
 48
1.0
  6
ByLayer
100
AcDbCircle
 10
-17.833333333332881
 20
-209.47999999999945
 30
0.0
 40
0.2499999999999502
100
AcDbArc
 50
360.0
 51
269.99999999999187
  0
LINE
  5
273
100
AcDbEntity
100
AcDbLine
  8
0
 62
256
370
-1
 48
1.0
  6
ByLayer
 10
-17.583333333332931
 20
-209.47999999999951
 30
0.0
 11
-16.483333333332936
 21
-209.47999999999936
 31
0.0
  0
LINE
  5
274
100
AcDbEntity
100
AcDbLine
  8
0
 62
256
370
-1
 48
1.0
  6
ByLayer
 10
-16.483333333332936
 20
-209.47999999999936
 30
0.0
 11
-16.483333333332936
 21
-205.19999999999953
 31
0.0
  0
LINE
  5
275
100
AcDbEntity
100
AcDbLine
  8
0
 62
256
370
-1
 48
1.0
  6
ByLayer
 10
-16.483333333332936
 20
-205.19999999999953
 30
0.0
 11
-44.999999999999588
 21
-205.19999999999936
 31
0.0
  0
LINE
  5
276
100
AcDbEntity
100
AcDbLine
  8
0
 62
256
370
-1
 48
1.0
  6
ByLayer
 10
-44.999999999999588
 20
-205.19999999999936
 30
0.0
 11
-44.999999999999588
 21
-198.47999999999951
 31
0.0
  0
LINE
  5
277
100
AcDbEntity
100
AcDbLine
  8
0
 62
256
370
-1
 48
1.0
  6
ByLayer
 10
-105.33333333333294
 20
-198.47999999999951
 30
0.0
 11
-105.33333333333294
 21
-209.42999999999967
 31
0.0
  0
LINE
  5
278
100
AcDbEntity
100
AcDbLine
  8
0
 62
256
370
-1
 48
1.0
  6
ByLayer
 10
-86.229999999999819
 20
124.42000000000074
 30
0.0
 11
-86.229999999999819
 21
120.14000000000054
 31
0.0
  0
LINE
  5
279
100
AcDbEntity
100
AcDbLine
  8
0
 62
256
370
-1
 48
1.0
  6
ByLayer
 10
-86.229999999999819
 20
120.14000000000054
 30
0.0
 11
-85.12999999999991
 21
120.14000000000055
 31
0.0
  0
ARC
  5
27A
100
AcDbEntity
  8
0
 62
256
370
-1
 48
1.0
  6
ByLayer
100
AcDbCircle
 10
-84.879999999999896
 20
120.14000000000055
 30
0.0
 40
0.2500000000000071
100
AcDbArc
 50
269.99999999999676
 51
180.0
  0
LINE
  5
27B
100
AcDbEntity
100
AcDbLine
  8
0
 62
256
370
-1
 48
1.0
  6
ByLayer
 10
-84.87999999999991
 20
119.89000000000054
 30
0.0
 11
-84.87999999999991
 21
117.39000000000055
 31
0.0
  0
ARC
  5
27C
100
AcDbEntity
  8
0
 62
256
370
-1
 48
1.0
  6
ByLayer
100
AcDbCircle
 10
-84.87999999999991
 20
117.14000000000055
 30
0.0
 40
0.25
100
AcDbArc
 50
180.0
 51
90.0
  0
LINE
  5
27D
100
AcDbEntity
100
AcDbLine
  8
0
 62
256
370
-1
 48
1.0
  6
ByLayer
 10
-85.12999999999991
 20
117.14000000000055
 30
0.0
 11
-86.229999999999819
 21
117.14000000000054
 31
0.0
  0
LINE
  5
27E
100
AcDbEntity
100
AcDbLine
  8
0
 62
256
370
-1
 48
1.0
  6
ByLayer
 10
-86.229999999999819
 20
117.14000000000054
 30
0.0
 11
-86.229999999999819
 21
115.14000000000055
 31
0.0
  0
LINE
  5
27F
100
AcDbEntity
100
AcDbLine
  8
0
 62
256
370
-1
 48
1.0
  6
ByLayer
 10
-86.229999999999819
 20
115.14000000000055
 30
0.0
 11
-89.530000000000001
 21
115.14000000000054
 31
0.0
  0
LINE
  5
280
100
AcDbEntity
100
AcDbLine
  8
0
 62
256
370
-1
 48
1.0
  6
ByLayer
 10
-89.530000000000001
 20
115.14000000000054
 30
0.0
 11
-89.530000000000001
 21
117.14000000000054
 31
0.0
  0
LINE
  5
281
100
AcDbEntity
100
AcDbLine
  8
0
 62
256
370
-1
 48
1.0
  6
ByLayer
 10
-89.530000000000001
 20
117.14000000000054
 30
0.0
 11
-90.62999999999991
 21
117.14000000000054
 31
0.0
  0
ARC
  5
282
100
AcDbEntity
  8
0
 62
256
370
-1
 48
1.0
  6
ByLayer
100
AcDbCircle
 10
-90.87999999999991
 20
117.14000000000054
 30
0.0
 40
0.25
100
AcDbArc
 50
90.0
 51
0.0
  0
LINE
  5
283
100
AcDbEntity
100
AcDbLine
  8
0
 62
256
370
-1
 48
1.0
  6
ByLayer
 10
-90.87999999999991
 20
117.39000000000054
 30
0.0
 11
-90.87999999999991
 21
119.89000000000054
 31
0.0
  0
ARC
  5
284
100
AcDbEntity
  8
0
 62
256
370
-1
 48
1.0
  6
ByLayer
100
AcDbCircle
 10
-90.87999999999991
 20
120.14000000000054
 30
0.0
 40
0.25
100
AcDbArc
 50
0.0
 51
270.0
  0
LINE
  5
285
100
AcDbEntity
100
AcDbLine
  8
0
 62
256
370
-1
 48
1.0
  6
ByLayer
 10
-90.62999999999991
 20
120.14000000000054
 30
0.0
 11
-89.530000000000001
 21
120.14000000000055
 31
0.0
  0
LINE
  5
286
100
AcDbEntity
100
AcDbLine
  8
0
 62
256
370
-1
 48
1.0
  6
ByLayer
 10
-89.530000000000001
 20
120.14000000000055
 30
0.0
 11
-89.530000000000001
 21
124.42000000000075
 31
0.0
  0
LINE
  5
287
100
AcDbEntity
100
AcDbLine
  8
0
 62
256
370
-1
 48
1.0
  6
ByLayer
 10
-89.530000000000001
 20
124.42000000000075
 30
0.0
 11
-95.37999999999991
 21
124.42000000000074
 31
0.0
  0
LINE
  5
288
100
AcDbEntity
100
AcDbLine
  8
0
 62
256
370
-1
 48
1.0
  6
ByLayer
 10
-95.379999999999882
 20
-56.579999999999274
 30
0.0
 11
-89.52999999999993
 21
-56.579999999999245
 31
0.0
  0
LINE
  5
289
100
AcDbEntity
100
AcDbLine
  8
0
 62
256
370
-1
 48
1.0
  6
ByLayer
 10
-89.52999999999993
 20
-56.579999999999245
 30
0.0
 11
-89.530000000000044
 21
-52.299999999999045
 31
0.0
  0
LINE
  5
28A
100
AcDbEntity
100
AcDbLine
  8
0
 62
256
370
-1
 48
1.0
  6
ByLayer
 10
-89.530000000000044
 20
-52.299999999999045
 30
0.0
 11
-90.629999999999825
 21
-52.299999999999045
 31
0.0
  0
ARC
  5
28B
100
AcDbEntity
  8
0
 62
256
370
-1
 48
1.0
  6
ByLayer
100
AcDbCircle
 10
-90.879999999999839
 20
-52.299999999999095
 30
0.0
 40
0.2500000000000213
100
AcDbArc
 50
90.000000000013031
 51
0.0
  0
LINE
  5
28C
100
AcDbEntity
100
AcDbLine
  8
0
 62
256
370
-1
 48
1.0
  6
ByLayer
 10
-90.879999999999896
 20
-52.049999999999073
 30
0.0
 11
-90.879999999999939
 21
-49.549999999999045
 31
0.0
  0
ARC
  5
28D
100
AcDbEntity
  8
0
 62
256
370
-1
 48
1.0
  6
ByLayer
100
AcDbCircle
 10
-90.879999999999896
 20
-49.299999999999002
 30
0.0
 40
0.2500000000000426
100
AcDbArc
 50
360.0
 51
269.99999999999022
  0
LINE
  5
28E
100
AcDbEntity
100
AcDbLine
  8
0
 62
256
370
-1
 48
1.0
  6
ByLayer
 10
-90.629999999999853
 20
-49.299999999999045
 30
0.0
 11
-89.530000000000015
 21
-49.299999999999045
 31
0.0
  0
LINE
  5
28F
100
AcDbEntity
100
AcDbLine
  8
0
 62
256
370
-1
 48
1.0
  6
ByLayer
 10
-89.530000000000015
 20
-49.299999999999045
 30
0.0
 11
-89.529999999999816
 21
-47.299999999999045
 31
0.0
  0
LINE
  5
290
100
AcDbEntity
100
AcDbLine
  8
0
 62
256
370
-1
 48
1.0
  6
ByLayer
 10
-89.529999999999816
 20
-47.299999999999045
 30
0.0
 11
-86.229999999999876
 21
-47.299999999999045
 31
0.0
  0
LINE
  5
291
100
AcDbEntity
100
AcDbLine
  8
0
 62
256
370
-1
 48
1.0
  6
ByLayer
 10
-86.229999999999876
 20
-47.299999999999045
 30
0.0
 11
-86.229999999999748
 21
-49.299999999999045
 31
0.0
  0
LINE
  5
292
100
AcDbEntity
100
AcDbLine
  8
0
 62
256
370
-1
 48
1.0
  6
ByLayer
 10
-86.229999999999748
 20
-49.299999999999045
 30
0.0
 11
-85.129999999999868
 21
-49.299999999999045
 31
0.0
  0
ARC
  5
293
100
AcDbEntity
  8
0
 62
256
370
-1
 48
1.0
  6
ByLayer
100
AcDbCircle
 10
-84.879999999999825
 20
-49.299999999998995
 30
0.0
 40
0.2500000000000497
100
AcDbArc
 50
270.00000000001302
 51
180.0
  0
LINE
  5
294
100
AcDbEntity
100
AcDbLine
  8
0
 62
256
370
-1
 48
1.0
  6
ByLayer
 10
-84.879999999999768
 20
-49.549999999999045
 30
0.0
 11
-84.879999999999995
 21
-52.049999999999045
 31
0.0
  0
ARC
  5
295
100
AcDbEntity
  8
0
 62
256
370
-1
 48
1.0
  6
ByLayer
100
AcDbCircle
 10
-84.88000000000001
 20
-52.299999999999059
 30
0.0
 40
0.2500000000000142
100
AcDbArc
 50
180.0
 51
89.999999999996746
  0
LINE
  5
296
100
AcDbEntity
100
AcDbLine
  8
0
 62
256
370
-1
 48
1.0
  6
ByLayer
 10
-85.130000000000024
 20
-52.299999999999045
 30
0.0
 11
-86.229999999999706
 21
-52.299999999999045
 31
0.0
  0
LINE
  5
297
100
AcDbEntity
100
AcDbLine
  8
0
 62
256
370
-1
 48
1.0
  6
ByLayer
 10
-86.229999999999706
 20
-52.299999999999045
 30
0.0
 11
-86.229999999999805
 21
-56.579999999999245
 31
0.0
  0
LINE
  5
298
100
AcDbEntity
100
AcDbLine
  8
0
 62
256
370
-1
 48
1.0
  6
ByLayer
 10
-86.229999999999805
 20
-56.579999999999245
 30
0.0
 11
-80.380000000000052
 21
-56.579999999999245
 31
0.0
  0
LINE
  5
299
100
AcDbEntity
100
AcDbLine
  8
0
 62
256
370
-1
 48
1.0
  6
ByLayer
 10
-80.380000000000052
 20
-56.579999999999245
 30
0.0
 11
-80.379999999999683
 21
-63.299999999999301
 31
0.0
  0
LINE
  5
29A
100
AcDbEntity
100
AcDbLine
  8
0
 62
256
370
-1
 48
1.0
  6
ByLayer
 10
-80.379999999999683
 20
-63.299999999999301
 30
0.0
 11
-65.379999999999953
 21
-63.299999999999272
 31
0.0
  0
LINE
  5
29B
100
AcDbEntity
100
AcDbLine
  8
0
 62
256
370
-1
 48
1.0
  6
ByLayer
 10
-65.37999999999991
 20
131.14000000000055
 30
0.0
 11
-80.37999999999991
 21
131.14000000000055
 31
0.0
  0
LINE
  5
29C
100
AcDbEntity
100
AcDbLine
  8
0
 62
256
370
-1
 48
1.0
  6
ByLayer
 10
-80.37999999999991
 20
131.14000000000055
 30
0.0
 11
-80.37999999999991
 21
124.42000000000053
 31
0.0
  0
LINE
  5
29D
100
AcDbEntity
100
AcDbLine
  8
0
 62
256
370
-1
 48
1.0
  6
ByLayer
 10
-80.37999999999991
 20
124.42000000000053
 30
0.0
 11
-86.229999999999819
 21
124.42000000000074
 31
0.0
  0
LINE
  5
29E
100
AcDbEntity
100
AcDbLine
  8
0
 62
256
370
-1
 48
1.0
  6
ByLayer
 10
-152.50000000000009
 20
-169.5066666666664
 30
0.0
 11
-152.50000000000006
 21
-147.25333333333307
 31
0.0
  0
LINE
  5
29F
100
AcDbEntity
100
AcDbLine
  8
0
 62
256
370
-1
 48
1.0
  6
ByLayer
 10
-152.50000000000006
 20
-147.25333333333307
 30
0.0
 11
-145.78000000000009
 21
-147.25333333333307
 31
0.0
  0
LINE
  5
2A0
100
AcDbEntity
100
AcDbLine
  8
0
 62
256
370
-1
 48
1.0
  6
ByLayer
 10
-145.78000000000009
 20
-147.25333333333307
 30
0.0
 11
-145.78000000000009
 21
-169.5066666666664
 31
0.0
  0
LINE
  5
2A1
100
AcDbEntity
100
AcDbLine
  8
0
 62
256
370
-1
 48
1.0
  6
ByLayer
 10
-145.78000000000009
 20
-169.5066666666664
 30
0.0
 11
-152.50000000000009
 21
-169.5066666666664
 31
0.0
  0
LINE
  5
2A2
100
AcDbEntity
100
AcDbLine
  8
0
 62
256
370
-1
 48
1.0
  6
ByLayer
 10
21.779999999999887
 20
-169.50666666666666
 30
0.0
 11
21.779999999999916
 21
-147.2533333333333
 31
0.0
  0
LINE
  5
2A3
100
AcDbEntity
100
AcDbLine
  8
0
 62
256
370
-1
 48
1.0
  6
ByLayer
 10
21.779999999999916
 20
-147.2533333333333
 30
0.0
 11
28.499999999999915
 21
-147.25333333333327
 31
0.0
  0
LINE
  5
2A4
100
AcDbEntity
100
AcDbLine
  8
0
 62
256
370
-1
 48
1.0
  6
ByLayer
 10
28.499999999999915
 20
-147.25333333333327
 30
0.0
 11
28.499999999999915
 21
-169.50666666666649
 31
0.0
  0
LINE
  5
2A5
100
AcDbEntity
100
AcDbLine
  8
0
 62
256
370
-1
 48
1.0
  6
ByLayer
 10
28.499999999999915
 20
-169.50666666666649
 30
0.0
 11
21.779999999999887
 21
-169.50666666666666
 31
0.0
  0
ENDSEC
  0
SECTION
  2
OBJECTS
  0
DICTIONARY
  5
C
100
AcDbDictionary
280
0
281
1
  3
ACAD_GROUP
350
D
  3
ACAD_LAYOUT
350
1A
  3
ACAD_MLINESTYLE
350
17
  3
ACAD_PLOTSETTINGS
350
19
  3
ACAD_PLOTSTYLENAME
350
E
  3
AcDbVariableDictionary
350
2A6
  3
QCAD_OBJECTS
350
2A7
  0
DICTIONARY
  5
D
100
AcDbDictionary
280
0
281
1
  0
ACDBDICTIONARYWDFLT
  5
E
100
AcDbDictionary
281
1
  3
Normal
350
F
100
AcDbDictionaryWithDefault
340
F
  0
ACDBPLACEHOLDER
  5
F
  0
DICTIONARY
  5
17
100
AcDbDictionary
280
0
281
1
  3
Standard
350
18
  0
MLINESTYLE
  5
18
100
AcDbMlineStyle
  2
STANDARD
 70
0
  3

 62
256
 51
90.0
 52
90.0
 71
2
 49
0.5
 62
256
  6
BYLAYER
 49
-0.5
 62
256
  6
BYLAYER
  0
DICTIONARY
  5
19
100
AcDbDictionary
280
0
281
1
  0
DICTIONARY
  5
1A
100
AcDbDictionary
281
1
  3
Layout1
350
1E
  3
Layout2
350
26
  3
Model
350
22
  0
LAYOUT
  5
1E
100
AcDbPlotSettings
  1

  2
none_device
  4

  6

 40
0.0
 41
0.0
 42
0.0
 43
0.0
 44
0.0
 45
0.0
 46
0.0
 47
0.0
 48
0.0
 49
0.0
140
0.0
141
0.0
142
1.0
143
1.0
 70
688
 72
0
 73
0
 74
5
  7

 75
16
147
1.0
148
0.0
149
0.0
100
AcDbLayout
  1
Layout1
 70
1
 71
1
 10
0.0
 20
0.0
 11
420.0
 21
297.0
 12
0.0
 22
0.0
 32
0.0
 14
100000000000000000000.0
 24
100000000000000000000.0
 34
100000000000000000000.0
 15
-100000000000000000000.0
 25
-100000000000000000000.0
 35
-100000000000000000000.0
146
0.0
 13
0.0
 23
0.0
 33
0.0
 16
1.0
 26
0.0
 36
0.0
 17
0.0
 27
1.0
 37
0.0
 76
0
330
1B
  0
LAYOUT
  5
22
100
AcDbPlotSettings
  1

  2
none_device
  4

  6

 40
0.0
 41
0.0
 42
0.0
 43
0.0
 44
0.0
 45
0.0
 46
0.0
 47
0.0
 48
0.0
 49
0.0
140
0.0
141
0.0
142
1.0
143
1.0
 70
1712
 72
0
 73
0
 74
0
  7

 75
0
147
1.0
148
0.0
149
0.0
100
AcDbLayout
  1
Model
 70
1
 71
0
 10
0.0
 20
0.0
 11
12.0
 21
9.0
 12
0.0
 22
0.0
 32
0.0
 14
0.0
 24
0.0
 34
0.0
 15
0.0
 25
0.0
 35
0.0
146
0.0
 13
0.0
 23
0.0
 33
0.0
 16
1.0
 26
0.0
 36
0.0
 17
0.0
 27
1.0
 37
0.0
 76
0
330
1F
  0
LAYOUT
  5
26
100
AcDbPlotSettings
  1

  2
none_device
  4

  6

 40
0.0
 41
0.0
 42
0.0
 43
0.0
 44
0.0
 45
0.0
 46
0.0
 47
0.0
 48
0.0
 49
0.0
140
0.0
141
0.0
142
1.0
143
1.0
 70
688
 72
0
 73
0
 74
5
  7

 75
16
147
1.0
148
0.0
149
0.0
100
AcDbLayout
  1
Layout2
 70
1
 71
2
 10
0.0
 20
0.0
 11
12.0
 21
9.0
 12
0.0
 22
0.0
 32
0.0
 14
0.0
 24
0.0
 34
0.0
 15
0.0
 25
0.0
 35
0.0
146
0.0
 13
0.0
 23
0.0
 33
0.0
 16
1.0
 26
0.0
 36
0.0
 17
0.0
 27
1.0
 37
0.0
 76
0
330
23
  0
DICTIONARY
  5
2A6
100
AcDbDictionary
281
1
  3
DIMASSOC
350
2A9
  3
HIDETEXT
350
2A8
  0
DICTIONARYVAR
  5
2A8
100
DictionaryVariables
280
0
  1
2
  0
DICTIONARYVAR
  5
2A9
100
DictionaryVariables
280
0
  1
1
  0
DICTIONARY
  5
2A7
100
AcDbDictionary
281
1
  3
Grid/DisplayGrid00
350
2AA
  3
Grid/DisplayGrid01
350
2AB
  3
Grid/DisplayGrid02
350
2AC
  3
Grid/DisplayGrid03
350
2AD
  3
Grid/GridSpacingX00
350
2AE
  3
Grid/GridSpacingX01
350
2AF
  3
Grid/GridSpacingX02
350
2B0
  3
Grid/GridSpacingX03
350
2B1
  3
Grid/GridSpacingY00
350
2B2
  3
Grid/GridSpacingY01
350
2B3
  3
Grid/GridSpacingY02
350
2B4
  3
Grid/GridSpacingY03
350
2B5
  3
Grid/IsometricGrid00
350
2B6
  3
Grid/IsometricGrid01
350
2B7
  3
Grid/IsometricGrid02
350
2B8
  3
Grid/IsometricGrid03
350
2B9
  3
Grid/IsometricProjection00
350
2BA
  3
Grid/IsometricProjection01
350
2BB
  3
Grid/IsometricProjection02
350
2BC
  3
Grid/IsometricProjection03
350
2BD
  3
Grid/MetaGridSpacingX00
350
2BE
  3
Grid/MetaGridSpacingX01
350
2BF
  3
Grid/MetaGridSpacingX02
350
2C0
  3
Grid/MetaGridSpacingX03
350
2C1
  3
Grid/MetaGridSpacingY00
350
2C2
  3
Grid/MetaGridSpacingY01
350
2C3
  3
Grid/MetaGridSpacingY02
350
2C4
  3
Grid/MetaGridSpacingY03
350
2C5
  3
MultiPageSettings/Columns
350
2C6
  3
MultiPageSettings/GlueMarginsBottom
350
2C7
  3
MultiPageSettings/GlueMarginsLeft
350
2C8
  3
MultiPageSettings/GlueMarginsRight
350
2C9
  3
MultiPageSettings/GlueMarginsTop
350
2CA
  3
MultiPageSettings/PrintCropMarks
350
2CB
  3
MultiPageSettings/Rows
350
2CC
  3
PageSettings/OffsetX
350
2CD
  3
PageSettings/OffsetY
350
2CE
  3
PageSettings/PageOrientation
350
2CF
  3
PageSettings/PaperHeight
350
2D0
  3
PageSettings/PaperWidth
350
2D1
  3
PageSettings/Scale
350
2D2
  3
PageSettings/ShowPaperBorders
350
2D3
  3
UnitSettings/PaperUnit
350
2D4
  0
XRECORD
  5
2AA
330
2A7
100
AcDbXrecord
280
1
290
1
  0
XRECORD
  5
2AB
330
2A7
100
AcDbXrecord
280
1
290
1
  0
XRECORD
  5
2AC
330
2A7
100
AcDbXrecord
280
1
290
1
  0
XRECORD
  5
2AD
330
2A7
100
AcDbXrecord
280
1
290
1
  0
XRECORD
  5
2AE
330
2A7
100
AcDbXrecord
280
1
1000
auto
  0
XRECORD
  5
2AF
330
2A7
100
AcDbXrecord
280
1
1000
auto
  0
XRECORD
  5
2B0
330
2A7
100
AcDbXrecord
280
1
1000
auto
  0
XRECORD
  5
2B1
330
2A7
100
AcDbXrecord
280
1
1000
auto
  0
XRECORD
  5
2B2
330
2A7
100
AcDbXrecord
280
1
1000
auto
  0
XRECORD
  5
2B3
330
2A7
100
AcDbXrecord
280
1
1000
auto
  0
XRECORD
  5
2B4
330
2A7
100
AcDbXrecord
280
1
1000
auto
  0
XRECORD
  5
2B5
330
2A7
100
AcDbXrecord
280
1
1000
auto
  0
XRECORD
  5
2B6
330
2A7
100
AcDbXrecord
280
1
290
0
  0
XRECORD
  5
2B7
330
2A7
100
AcDbXrecord
280
1
290
0
  0
XRECORD
  5
2B8
330
2A7
100
AcDbXrecord
280
1
290
0
  0
XRECORD
  5
2B9
330
2A7
100
AcDbXrecord
280
1
290
0
  0
XRECORD
  5
2BA
330
2A7
100
AcDbXrecord
280
1
 90
0
  0
XRECORD
  5
2BB
330
2A7
100
AcDbXrecord
280
1
 90
0
  0
XRECORD
  5
2BC
330
2A7
100
AcDbXrecord
280
1
 90
0
  0
XRECORD
  5
2BD
330
2A7
100
AcDbXrecord
280
1
 90
0
  0
XRECORD
  5
2BE
330
2A7
100
AcDbXrecord
280
1
1000
auto
  0
XRECORD
  5
2BF
330
2A7
100
AcDbXrecord
280
1
1000
auto
  0
XRECORD
  5
2C0
330
2A7
100
AcDbXrecord
280
1
1000
auto
  0
XRECORD
  5
2C1
330
2A7
100
AcDbXrecord
280
1
1000
auto
  0
XRECORD
  5
2C2
330
2A7
100
AcDbXrecord
280
1
1000
auto
  0
XRECORD
  5
2C3
330
2A7
100
AcDbXrecord
280
1
1000
auto
  0
XRECORD
  5
2C4
330
2A7
100
AcDbXrecord
280
1
1000
auto
  0
XRECORD
  5
2C5
330
2A7
100
AcDbXrecord
280
1
1000
auto
  0
XRECORD
  5
2C6
330
2A7
100
AcDbXrecord
280
1
 90
1
  0
XRECORD
  5
2C7
330
2A7
100
AcDbXrecord
280
1
 40
10.0
  0
XRECORD
  5
2C8
330
2A7
100
AcDbXrecord
280
1
 40
10.0
  0
XRECORD
  5
2C9
330
2A7
100
AcDbXrecord
280
1
 40
10.0
  0
XRECORD
  5
2CA
330
2A7
100
AcDbXrecord
280
1
 40
10.0
  0
XRECORD
  5
2CB
330
2A7
100
AcDbXrecord
280
1
290
0
  0
XRECORD
  5
2CC
330
2A7
100
AcDbXrecord
280
1
 90
1
  0
XRECORD
  5
2CD
330
2A7
100
AcDbXrecord
280
1
 40
0.0
  0
XRECORD
  5
2CE
330
2A7
100
AcDbXrecord
280
1
 40
0.0
  0
XRECORD
  5
2CF
330
2A7
100
AcDbXrecord
280
1
1000
Portrait
  0
XRECORD
  5
2D0
330
2A7
100
AcDbXrecord
280
1
 40
297.0
  0
XRECORD
  5
2D1
330
2A7
100
AcDbXrecord
280
1
 40
210.0
  0
XRECORD
  5
2D2
330
2A7
100
AcDbXrecord
280
1
1000
1:1
  0
XRECORD
  5
2D3
330
2A7
100
AcDbXrecord
280
1
290
1
  0
XRECORD
  5
2D4
330
2A7
100
AcDbXrecord
280
1
 90
4
  0
ENDSEC
  0
EOF
