999
dxflib 3.7.5.0
  0
SECTION
  2
HEADER
  9
$ACADVER
  1
AC1015
  9
$HANDSEED
  5
FFFF
  9
$ANGBASE
 50
0.0
  9
$ANGDIR
 70
0
  9
$ATTMODE
 70
1
  9
$AUNITS
 70
0
  9
$AUPREC
 70
0
  9
$CECOLOR
 62
18
  9
$CELTSCALE
 40
1.0
  9
$CHAMFERA
 40
0.0
  9
$CHAMFERB
 40
0.0
  9
$CHAMFERC
 40
0.0
  9
$CHAMFERD
 40
0.0
  9
$CMLJUST
 70
0
  9
$CMLSCALE
 40
1.0
  9
$DIMADEC
 70
0
  9
$DIMALT
 70
0
  9
$DIMALTD
 70
2
  9
$DIMALTF
 40
25.399999999999999
  9
$DIMALTRND
 40
0.0
  9
$DIMALTTD
 70
2
  9
$DIMALTTZ
 70
0
  9
$DIMALTU
 70
2
  9
$DIMALTZ
 70
0
  9
$DIMAPOST
  1

  9
$DIMASZ
 40
2.5
  9
$DIMATFIT
 70
3
  9
$DIMAUNIT
 70
0
  9
$DIMAZIN
 70
2
  9
$DIMBLK
  1

  9
$DIMBLK1
  1

  9
$DIMBLK2
  1

  9
$DIMCEN
 40
0.09
  9
$DIMCLRD
 70
18
  9
$DIMCLRE
 70
18
  9
$DIMCLRT
 70
18
  9
$DIMDEC
 70
4
  9
$DIMDLE
 40
0.0
  9
$DIMDLI
 40
0.38
  9
$DIMDSEP
 70
46
  9
$DIMEXE
 40
1.25
  9
$DIMEXO
 40
0.625
  9
$DIMFRAC
 70
0
  9
$DIMGAP
 40
0.625
  9
$DIMJUST
 70
0
  9
$DIMLDRBLK
  1

  9
$DIMLFAC
 40
1.0
  9
$DIMLIM
 70
0
  9
$DIMLUNIT
 70
2
  9
$DIMLWD
 70
-2
  9
$DIMLWE
 70
-2
  9
$DIMPOST
  1

  9
$DIMRND
 40
0.0
  9
$DIMSAH
 70
0
  9
$DIMSCALE
 40
1.0
  9
$DIMSD1
 70
0
  9
$DIMSD2
 70
0
  9
$DIMSE1
 70
0
  9
$DIMSE2
 70
0
  9
$DIMSOXD
 70
0
  9
$DIMTAD
 70
0
  9
$DIMTDEC
 70
4
  9
$DIMTFAC
 40
1.0
  9
$DIMTIH
 70
1
  9
$DIMTIX
 70
0
  9
$DIMTM
 40
0.0
  9
$DIMTOFL
 70
0
  9
$DIMTOH
 70
1
  9
$DIMTOL
 70
0
  9
$DIMTOLJ
 70
1
  9
$DIMTP
 40
0.0
  9
$DIMTSZ
 40
0.0
  9
$DIMTVP
 40
0.0
  9
$DIMTXSTY
  7
Standard
  9
$DIMTXT
 40
2.5
  9
$DIMTZIN
 70
0
  9
$DIMUPT
 70
0
  9
$DIMZIN
 70
8
  9
$DISPSILH
 70
0
  9
$DWGCODEPAGE
  3
ANSI_1252
  9
$ELEVATION
 40
0.0
  9
$EXTMAX
 10
-100000000000000000000.0
 20
-100000000000000000000.0
 30
-100000000000000000000.0
  9
$EXTMIN
 10
100000000000000000000.0
 20
100000000000000000000.0
 30
100000000000000000000.0
  9
$FILLETRAD
 40
0.5
  9
$FILLMODE
 70
1
  9
$INSBASE
 10
0.0
 20
0.0
 30
0.0
  9
$INSUNITS
 70
4
  9
$LIMCHECK
 70
0
  9
$LIMMAX
 10
12.0
 20
9.0
  9
$LIMMIN
 10
0.0
 20
0.0
  9
$LTSCALE
 40
1
  9
$LUNITS
 70
2
  9
$LUPREC
 70
4
  9
$MAXACTVP
 70
2
  9
$MIRRTEXT
 70
1
  9
$ORTHOMODE
 70
0
  9
$PDMODE
 70
0
  9
$PDSIZE
 40
0.0
  9
$PELEVATION
 40
0.0
  9
$PEXTMAX
 10
-100000000000000000000.0
 20
-100000000000000000000.0
 30
-100000000000000000000.0
  9
$PEXTMIN
 10
100000000000000000000.0
 20
100000000000000000000.0
 30
100000000000000000000.0
  9
$PINSBASE
 10
0.0
 20
0.0
 30
0.0
  9
$PLIMCHECK
 70
0
  9
$PLIMMAX
 10
12.0
 20
9.0
  9
$PLIMMIN
 10
0.0
 20
0.0
  9
$PLINEGEN
 70
0
  9
$PLINEWID
 40
0.0
  9
$PROXYGRAPHICS
 70
1
  9
$PSLTSCALE
 70
1
  9
$PUCSNAME
  2

  9
$PUCSORG
 10
0.0
 20
0.0
 30
0.0
  9
$PUCSXDIR
 10
1.0
 20
0.0
 30
0.0
  9
$PUCSYDIR
 10
0.0
 20
1.0
 30
0.0
  9
$QTEXTMODE
 70
0
  9
$REGENMODE
 70
1
  9
$SHADEDGE
 70
3
  9
$SHADEDIF
 70
70
  9
$SKETCHINC
 40
0.1
  9
$SKPOLY
 70
0
  9
$SPLFRAME
 70
0
  9
$SPLINESEGS
 70
8
  9
$SPLINETYPE
 70
6
  9
$SURFTAB1
 70
6
  9
$SURFTAB2
 70
6
  9
$SURFTYPE
 70
6
  9
$SURFU
 70
6
  9
$SURFV
 70
6
  9
$TEXTSIZE
 40
2.5
  9
$TEXTSTYLE
  7
Standard
  9
$THICKNESS
 40
0.0
  9
$TILEMODE
 70
1
  9
$TRACEWID
 40
0.05
  9
$TREEDEPTH
 70
3020
  9
$UCSNAME
  2

  9
$UCSORG
 10
0.0
 20
0.0
 30
0.0
  9
$UCSXDIR
 10
1.0
 20
0.0
 30
0.0
  9
$UCSYDIR
 10
0.0
 20
1.0
 30
0.0
  9
$UNITMODE
 70
0
  9
$USERI1
 70
0
  9
$USERI2
 70
0
  9
$USERI3
 70
0
  9
$USERI4
 70
0
  9
$USERI5
 70
0
  9
$USERR1
 40
0.0
  9
$USERR2
 40
0.0
  9
$USERR3
 40
0.0
  9
$USERR4
 40
0.0
  9
$USERR5
 40
0.0
  9
$USRTIMER
 70
1
  9
$VISRETAIN
 70
1
  0
ENDSEC
  0
SECTION
  2
TABLES
  0
TABLE
  2
VPORT
  5
8
100
AcDbSymbolTable
 70
1
  0
VPORT
  5
30
100
AcDbSymbolTableRecord
100
AcDbViewportTableRecord
  2
*Active
 70
0
 10
0.0
 20
0.0
 11
1.0
 21
1.0
 12
286.30555555555549
 22
148.5
 13
0.0
 23
0.0
 14
10.0
 24
10.0
 15
10.0
 25
10.0
 16
0.0
 26
0.0
 36
1.0
 17
0.0
 27
0.0
 37
0.0
 40
297.0
 41
1.92798353909465
 42
50.0
 43
0.0
 44
0.0
 50
0.0
 51
0.0
 71
0
 72
100
 73
1
 74
3
 75
1
 76
1
 77
0
 78
0
281
0
 65
1
110
0.0
120
0.0
130
0.0
111
1.0
121
0.0
131
0.0
112
0.0
122
1.0
132
0.0
 79
0
146
0.0
  0
ENDTAB
  0
TABLE
  2
LTYPE
  5
5
100
AcDbSymbolTable
 70
41
  0
LTYPE
  5
16
100
AcDbSymbolTableRecord
100
AcDbLinetypeTableRecord
  2
Continuous
 70
0
  3
Solid line
 72
65
 73
0
 40
0.0
  0
LTYPE
  5
31
100
AcDbSymbolTableRecord
100
AcDbLinetypeTableRecord
  2
ACAD_ISO15W100
 70
0
  3
ISO double-dash triple-dot __ __ . . . __ __ . .
 72
65
 73
10
 40
39.000000000000007
 49
12.0
 74
0
 49
-3.0
 74
0
 49
12.0
 74
0
 49
-2.9500000000000002
 74
0
 49
0.1
 74
0
 49
-2.8999999999999999
 74
0
 49
0.1
 74
0
 49
-2.8999999999999999
 74
0
 49
0.1
 74
0
 49
-2.9500000000000002
 74
0
  0
LTYPE
  5
32
100
AcDbSymbolTableRecord
100
AcDbLinetypeTableRecord
  2
DIVIDE
 70
0
  3
Divide ____ . . ____ . . ____ . . ____ . . ____
 72
65
 73
6
 40
31.750000000000004
 49
12.699999999999999
 74
0
 49
-6.2999999999999998
 74
0
 49
0.1
 74
0
 49
-6.25
 74
0
 49
0.1
 74
0
 49
-6.2999999999999998
 74
0
  0
LTYPE
  5
33
100
AcDbSymbolTableRecord
100
AcDbLinetypeTableRecord
  2
ACAD_ISO10W100
 70
0
  3
ISO dash dot __ . __ . __ . __ . __ . __ . __ . 
 72
65
 73
4
 40
18.0
 49
12.0
 74
0
 49
-2.9500000000000002
 74
0
 49
0.1
 74
0
 49
-2.9500000000000002
 74
0
  0
LTYPE
  5
34
100
AcDbSymbolTableRecord
100
AcDbLinetypeTableRecord
  2
ACAD_ISO04W100
 70
0
  3
ISO long-dash dot ____ . ____ . ____ . ____ . _
 72
65
 73
4
 40
30.0
 49
24.0
 74
0
 49
-2.9500000000000002
 74
0
 49
0.1
 74
0
 49
-2.9500000000000002
 74
0
  0
LTYPE
  5
14
100
AcDbSymbolTableRecord
100
AcDbLinetypeTableRecord
  2
ByBlock
 70
0
  3

 72
65
 73
0
 40
0.0
  0
LTYPE
  5
35
100
AcDbSymbolTableRecord
100
AcDbLinetypeTableRecord
  2
CENTER2
 70
0
  3
Center (.5x) ___ _ ___ _ ___ _ ___ _ ___ _ ___
 72
65
 73
4
 40
28.575000000000003
 49
19.050000000000001
 74
0
 49
-3.1749999999999998
 74
0
 49
3.1749999999999998
 74
0
 49
-3.1749999999999998
 74
0
  0
LTYPE
  5
36
100
AcDbSymbolTableRecord
100
AcDbLinetypeTableRecord
  2
ACAD_ISO11W100
 70
0
  3
ISO double-dash dot __ __ . __ __ . __ __ . __ _
 72
65
 73
6
 40
33.0
 49
12.0
 74
0
 49
-3.0
 74
0
 49
12.0
 74
0
 49
-2.9500000000000002
 74
0
 49
0.1
 74
0
 49
-2.9500000000000002
 74
0
  0
LTYPE
  5
37
100
AcDbSymbolTableRecord
100
AcDbLinetypeTableRecord
  2
HIDDEN2
 70
0
  3
Hidden (.5x) _ _ _ _ _ _ _ _ _ _ _ _ _ _ _ _ _ 
 72
65
 73
2
 40
4.7624999999999993
 49
3.1749999999999998
 74
0
 49
-1.5874999999999999
 74
0
  0
LTYPE
  5
38
100
AcDbSymbolTableRecord
100
AcDbLinetypeTableRecord
  2
BORDERX2
 70
0
  3
Border (2x) ____  ____  .  ____  ____  .  ___
 72
65
 73
6
 40
88.899999999999991
 49
25.399999999999999
 74
0
 49
-12.699999999999999
 74
0
 49
25.399999999999999
 74
0
 49
-12.65
 74
0
 49
0.1
 74
0
 49
-12.65
 74
0
  0
LTYPE
  5
39
100
AcDbSymbolTableRecord
100
AcDbLinetypeTableRecord
  2
ACAD_ISO05W100
 70
0
  3
ISO long-dash double-dot ____ .. ____ .. ____ . 
 72
65
 73
6
 40
33.0
 49
24.0
 74
0
 49
-2.9500000000000002
 74
0
 49
0.1
 74
0
 49
-2.8999999999999999
 74
0
 49
0.1
 74
0
 49
-2.9500000000000002
 74
0
  0
LTYPE
  5
3A
100
AcDbSymbolTableRecord
100
AcDbLinetypeTableRecord
  2
DASHDOTX2
 70
0
  3
Dash dot (2x) ____  .  ____  .  ____  .  ___
 72
65
 73
4
 40
50.799999999999997
 49
25.399999999999999
 74
0
 49
-12.65
 74
0
 49
0.1
 74
0
 49
-12.65
 74
0
  0
LTYPE
  5
3B
100
AcDbSymbolTableRecord
100
AcDbLinetypeTableRecord
  2
HIDDENX2
 70
0
  3
Hidden (2x) ____ ____ ____ ____ ____ ____ ____ 
 72
65
 73
2
 40
19.049999999999997
 49
12.699999999999999
 74
0
 49
-6.3499999999999996
 74
0
  0
LTYPE
  5
3C
100
AcDbSymbolTableRecord
100
AcDbLinetypeTableRecord
  2
CENTERX2
 70
0
  3
Center (2x) ________  __  ________  __  _____
 72
65
 73
4
 40
101.60000000000001
 49
63.5
 74
0
 49
-12.699999999999999
 74
0
 49
12.699999999999999
 74
0
 49
-12.699999999999999
 74
0
  0
LTYPE
  5
3D
100
AcDbSymbolTableRecord
100
AcDbLinetypeTableRecord
  2
BORDER2
 70
0
  3
Border (.5x) __.__.__.__.__.__.__.__.__.__.__.
 72
65
 73
6
 40
22.225000000000001
 49
6.3499999999999996
 74
0
 49
-3.1749999999999998
 74
0
 49
6.3499999999999996
 74
0
 49
-3.125
 74
0
 49
0.1
 74
0
 49
-3.125
 74
0
  0
LTYPE
  5
3E
100
AcDbSymbolTableRecord
100
AcDbLinetypeTableRecord
  2
DASHDOT2
 70
0
  3
Dash dot (.5x) _._._._._._._._._._._._._._._.
 72
65
 73
4
 40
12.699999999999999
 49
6.3499999999999996
 74
0
 49
-3.125
 74
0
 49
0.1
 74
0
 49
-3.125
 74
0
  0
LTYPE
  5
3F
100
AcDbSymbolTableRecord
100
AcDbLinetypeTableRecord
  2
ACAD_ISO12W100
 70
0
  3
ISO dash double-dot __ . . __ . . __ . . __ . . 
 72
65
 73
6
 40
21.0
 49
12.0
 74
0
 49
-2.9500000000000002
 74
0
 49
0.1
 74
0
 49
-2.8999999999999999
 74
0
 49
0.1
 74
0
 49
-2.9500000000000002
 74
0
  0
LTYPE
  5
40
100
AcDbSymbolTableRecord
100
AcDbLinetypeTableRecord
  2
ACAD_ISO07W100
 70
0
  3
ISO dot . . . . . . . . . . . . . . . . . . . . 
 72
65
 73
2
 40
3.0
 49
0.1
 74
0
 49
-2.8999999999999999
 74
0
  0
LTYPE
  5
41
100
AcDbSymbolTableRecord
100
AcDbLinetypeTableRecord
  2
HIDDEN
 70
0
  3
Hidden __ __ __ __ __ __ __ __ __ __ __ __ __ __
 72
65
 73
2
 40
9.5249999999999986
 49
6.3499999999999996
 74
0
 49
-3.1749999999999998
 74
0
  0
LTYPE
  5
42
100
AcDbSymbolTableRecord
100
AcDbLinetypeTableRecord
  2
ACAD_ISO06W100
 70
0
  3
ISO long-dash triple-dot ____ ... ____ ... ____
 72
65
 73
8
 40
36.000000000000007
 49
24.0
 74
0
 49
-2.9500000000000002
 74
0
 49
0.1
 74
0
 49
-2.8999999999999999
 74
0
 49
0.1
 74
0
 49
-2.8999999999999999
 74
0
 49
0.1
 74
0
 49
-2.9500000000000002
 74
0
  0
LTYPE
  5
43
100
AcDbSymbolTableRecord
100
AcDbLinetypeTableRecord
  2
CENTER
 70
0
  3
Center ____ _ ____ _ ____ _ ____ _ ____ _ ____
 72
65
 73
4
 40
50.800000000000004
 49
31.75
 74
0
 49
-6.3499999999999996
 74
0
 49
6.3499999999999996
 74
0
 49
-6.3499999999999996
 74
0
  0
LTYPE
  5
44
100
AcDbSymbolTableRecord
100
AcDbLinetypeTableRecord
  2
DOTX2
 70
0
  3
Dot (2x) .  .  .  .  .  .  .  .  .  .  .  .  .  .
 72
65
 73
2
 40
12.699999999999999
 49
0.1
 74
0
 49
-12.6
 74
0
  0
LTYPE
  5
45
100
AcDbSymbolTableRecord
100
AcDbLinetypeTableRecord
  2
PHANTOM
 70
0
  3
Phantom ______  __  __  ______  __  __  ______ 
 72
65
 73
6
 40
63.500000000000007
 49
31.75
 74
0
 49
-6.3499999999999996
 74
0
 49
6.3499999999999996
 74
0
 49
-6.3499999999999996
 74
0
 49
6.3499999999999996
 74
0
 49
-6.3499999999999996
 74
0
  0
LTYPE
  5
46
100
AcDbSymbolTableRecord
100
AcDbLinetypeTableRecord
  2
ACAD_ISO08W100
 70
0
  3
ISO long-dash short-dash ____ __ ____ __ ____ _
 72
65
 73
4
 40
36.0
 49
24.0
 74
0
 49
-3.0
 74
0
 49
6.0
 74
0
 49
-3.0
 74
0
  0
LTYPE
  5
47
100
AcDbSymbolTableRecord
100
AcDbLinetypeTableRecord
  2
DASHEDX2
 70
0
  3
Dashed (2x) ____  ____  ____  ____  ____  ___
 72
65
 73
2
 40
38.099999999999994
 49
25.399999999999999
 74
0
 49
-12.699999999999999
 74
0
  0
LTYPE
  5
48
100
AcDbSymbolTableRecord
100
AcDbLinetypeTableRecord
  2
ACAD_ISO02W100
 70
0
  3
ISO dash __ __ __ __ __ __ __ __ __ __ __ __ __
 72
65
 73
2
 40
15.0
 49
12.0
 74
0
 49
-3.0
 74
0
  0
LTYPE
  5
49
100
AcDbSymbolTableRecord
100
AcDbLinetypeTableRecord
  2
PHANTOM2
 70
0
  3
Phantom (.5x) ___ _ _ ___ _ _ ___ _ _ ___ _ _
 72
65
 73
6
 40
31.750000000000004
 49
15.875
 74
0
 49
-3.1749999999999998
 74
0
 49
3.1749999999999998
 74
0
 49
-3.1749999999999998
 74
0
 49
3.1749999999999998
 74
0
 49
-3.1749999999999998
 74
0
  0
LTYPE
  5
4A
100
AcDbSymbolTableRecord
100
AcDbLinetypeTableRecord
  2
DASHED2
 70
0
  3
Dashed (.5x) _ _ _ _ _ _ _ _ _ _ _ _ _ _ _ _ _ 
 72
65
 73
2
 40
9.5249999999999986
 49
6.3499999999999996
 74
0
 49
-3.1749999999999998
 74
0
  0
LTYPE
  5
4B
100
AcDbSymbolTableRecord
100
AcDbLinetypeTableRecord
  2
ACAD_ISO09W100
 70
0
  3
ISO long-dash double-short-dash ____ __ __ ____
 72
65
 73
6
 40
45.0
 49
24.0
 74
0
 49
-3.0
 74
0
 49
6.0
 74
0
 49
-3.0
 74
0
 49
6.0
 74
0
 49
-3.0
 74
0
  0
LTYPE
  5
4C
100
AcDbSymbolTableRecord
100
AcDbLinetypeTableRecord
  2
ACAD_ISO13W100
 70
0
  3
ISO double-dash double-dot __ __ . . __ __ . . _
 72
65
 73
8
 40
36.000000000000007
 49
12.0
 74
0
 49
-3.0
 74
0
 49
12.0
 74
0
 49
-2.9500000000000002
 74
0
 49
0.1
 74
0
 49
-2.8999999999999999
 74
0
 49
0.1
 74
0
 49
-2.9500000000000002
 74
0
  0
LTYPE
  5
4D
100
AcDbSymbolTableRecord
100
AcDbLinetypeTableRecord
  2
DOT2
 70
0
  3
Dot (.5x) ........................................
 72
65
 73
2
 40
3.1750000000000003
 49
0.1
 74
0
 49
-3.0750000000000002
 74
0
  0
LTYPE
  5
4E
100
AcDbSymbolTableRecord
100
AcDbLinetypeTableRecord
  2
DASHED
 70
0
  3
Dashed __ __ __ __ __ __ __ __ __ __ __ __ __ _
 72
65
 73
2
 40
19.049999999999997
 49
12.699999999999999
 74
0
 49
-6.3499999999999996
 74
0
  0
LTYPE
  5
4F
100
AcDbSymbolTableRecord
100
AcDbLinetypeTableRecord
  2
ACAD_ISO14W100
 70
0
  3
ISO dash triple-dot __ . . . __ . . . __ . . . _
 72
65
 73
8
 40
24.0
 49
12.0
 74
0
 49
-2.9500000000000002
 74
0
 49
0.1
 74
0
 49
-2.8999999999999999
 74
0
 49
0.1
 74
0
 49
-2.8999999999999999
 74
0
 49
0.1
 74
0
 49
-2.9500000000000002
 74
0
  0
LTYPE
  5
50
100
AcDbSymbolTableRecord
100
AcDbLinetypeTableRecord
  2
PHANTOMX2
 70
0
  3
Phantom (2x) ____________    ____    ____   _
 72
65
 73
6
 40
127.00000000000001
 49
63.5
 74
0
 49
-12.699999999999999
 74
0
 49
12.699999999999999
 74
0
 49
-12.699999999999999
 74
0
 49
12.699999999999999
 74
0
 49
-12.699999999999999
 74
0
  0
LTYPE
  5
51
100
AcDbSymbolTableRecord
100
AcDbLinetypeTableRecord
  2
DIVIDEX2
 70
0
  3
Divide (2x) ________  .  .  ________  .  .  _
 72
65
 73
6
 40
63.5
 49
25.399999999999999
 74
0
 49
-12.65
 74
0
 49
0.1
 74
0
 49
-12.6
 74
0
 49
0.1
 74
0
 49
-12.65
 74
0
  0
LTYPE
  5
52
100
AcDbSymbolTableRecord
100
AcDbLinetypeTableRecord
  2
BORDER
 70
0
  3
Border __ __ . __ __ . __ __ . __ __ . __ __ .
 72
65
 73
6
 40
44.449999999999996
 49
12.699999999999999
 74
0
 49
-6.3499999999999996
 74
0
 49
12.699999999999999
 74
0
 49
-6.2999999999999998
 74
0
 49
0.1
 74
0
 49
-6.2999999999999998
 74
0
  0
LTYPE
  5
53
100
AcDbSymbolTableRecord
100
AcDbLinetypeTableRecord
  2
DIVIDE2
 70
0
  3
Divide (.5x) __..__..__..__..__..__..__..__.._
 72
65
 73
6
 40
15.874999999999998
 49
6.3499999999999996
 74
0
 49
-3.125
 74
0
 49
0.1
 74
0
 49
-3.0750000000000002
 74
0
 49
0.1
 74
0
 49
-3.125
 74
0
  0
LTYPE
  5
54
100
AcDbSymbolTableRecord
100
AcDbLinetypeTableRecord
  2
DOT
 70
0
  3
Dot . . . . . . . . . . . . . . . . . . . . . . . .
 72
65
 73
2
 40
6.3499999999999996
 49
0.1
 74
0
 49
-6.25
 74
0
  0
LTYPE
  5
55
100
AcDbSymbolTableRecord
100
AcDbLinetypeTableRecord
  2
DASHDOT
 70
0
  3
Dash dot __ . __ . __ . __ . __ . __ . __ . __
 72
65
 73
4
 40
25.400000000000002
 49
12.699999999999999
 74
0
 49
-6.2999999999999998
 74
0
 49
0.1
 74
0
 49
-6.2999999999999998
 74
0
  0
LTYPE
  5
56
100
AcDbSymbolTableRecord
100
AcDbLinetypeTableRecord
  2
ACAD_ISO03W100
 70
0
  3
ISO dash space __    __    __    __    __    __
 72
65
 73
2
 40
30.0
 49
12.0
 74
0
 49
-18.0
 74
0
  0
LTYPE
  5
15
100
AcDbSymbolTableRecord
100
AcDbLinetypeTableRecord
  2
ByLayer
 70
0
  3

 72
65
 73
0
 40
0.0
  0
ENDTAB
  0
TABLE
  2
LAYER
  5
2
100
AcDbSymbolTable
 70
1
  0
LAYER
  5
10
100
AcDbSymbolTableRecord
100
AcDbLayerTableRecord
  2
0
 70
0
 62
7
420
16777215
  6
Continuous
370
25
390
F
  0
ENDTAB
  0
TABLE
  2
STYLE
  5
3
100
AcDbSymbolTable
 70
1
  0
STYLE
  5
57
100
AcDbSymbolTableRecord
100
AcDbTextStyleTableRecord
  2
Standard
 70
0
 40
0.0
 41
1.0
 50
0.0
 71
0
 42
2.5
  3

  4

1001
ACAD
1000
txt
1071
0
  0
ENDTAB
  0
TABLE
  2
VIEW
  5
6
100
AcDbSymbolTable
 70
0
  0
ENDTAB
  0
TABLE
  2
UCS
  5
7
100
AcDbSymbolTable
 70
0
  0
ENDTAB
  0
TABLE
  2
APPID
  5
9
100
AcDbSymbolTable
 70
1
  0
APPID
  5
12
100
AcDbSymbolTableRecord
100
AcDbRegAppTableRecord
  2
ACAD
 70
0
  0
APPID
  5
58
100
AcDbSymbolTableRecord
100
AcDbRegAppTableRecord
  2
QCAD
 70
0
  0
ENDTAB
  0
TABLE
  2
DIMSTYLE
  5
A
100
AcDbSymbolTable
 70
1
100
AcDbDimStyleTable
 71
0
  0
DIMSTYLE
105
27
100
AcDbSymbolTableRecord
100
AcDbDimStyleTableRecord
  2
Standard
 41
2.5
 42
0.625
 43
3.75
 44
1.25
 70
0
 73
0
 74
0
 77
1
 78
8
140
2.5
141
2.5
143
0.03937007874016
147
0.625
171
3
172
1
271
2
272
2
274
3
278
44
283
0
284
8
340
57
  0
ENDTAB
  0
TABLE
  2
BLOCK_RECORD
  5
1
100
AcDbSymbolTable
 70
1
  0
BLOCK_RECORD
  5
1F
100
AcDbSymbolTableRecord
100
AcDbBlockTableRecord
  2
*Model_Space
340
22
  0
BLOCK_RECORD
  5
1B
100
AcDbSymbolTableRecord
100
AcDbBlockTableRecord
  2
*Paper_Space
340
1E
  0
BLOCK_RECORD
  5
23
100
AcDbSymbolTableRecord
100
AcDbBlockTableRecord
  2
*Paper_Space0
340
26
  0
ENDTAB
  0
ENDSEC
  0
SECTION
  2
BLOCKS
  0
BLOCK
  5
20
100
AcDbEntity
  8
0
100
AcDbBlockBegin
  2
*Model_Space
 70
0
 10
0.0
 20
0.0
 30
0.0
  3
*Model_Space
  1

  0
ENDBLK
  5
21
100
AcDbEntity
  8
0
100
AcDbBlockEnd
  0
BLOCK
  5
1C
100
AcDbEntity
 67
1
  8
0
100
AcDbBlockBegin
  2
*Paper_Space
 70
0
 10
0.0
 20
0.0
 30
0.0
  3
*Paper_Space
  1

  0
ENDBLK
  5
1D
100
AcDbEntity
 67
1
  8
0
100
AcDbBlockEnd
  0
BLOCK
  5
24
100
AcDbEntity
  8
0
100
AcDbBlockBegin
  2
*Paper_Space0
 70
0
 10
0.0
 20
0.0
 30
0.0
  3
*Paper_Space0
  1

  0
ENDBLK
  5
25
100
AcDbEntity
  8
0
100
AcDbBlockEnd
  0
ENDSEC
  0
SECTION
  2
ENTITIES
  0
CIRCLE
  5
59
100
AcDbEntity
100
AcDbCircle
  8
0
 62
256
370
-1
 48
1.0
  6
ByLayer
 10
-67.724010305942613
 20
-271.43999999999676
 30
0.0
 40
1.9999999999999989
  0
CIRCLE
  5
5A
100
AcDbEntity
100
AcDbCircle
  8
0
 62
256
370
-1
 48
1.0
  6
ByLayer
 10
52.942656360724072
 20
-271.43999999999687
 30
0.0
 40
1.9999999999999989
  0
CIRCLE
  5
5B
100
AcDbEntity
100
AcDbCircle
  8
0
 62
256
370
-1
 48
1.0
  6
ByLayer
 10
3.4166666666666146
 20
-336.1799999999991
 30
0.0
 40
2.0
  0
CIRCLE
  5
5C
100
AcDbEntity
100
AcDbCircle
  8
0
 62
256
370
-1
 48
1.0
  6
ByLayer
 10
-54.5833333333334
 20
-336.17999999999904
 30
0.0
 40
2.0
  0
CIRCLE
  5
5D
100
AcDbEntity
100
AcDbCircle
  8
0
 62
256
370
-1
 48
1.0
  6
ByLayer
 10
-125.08333333333319
 20
-121.63999999999999
 30
0.0
 40
1.5750000000000159
  0
CIRCLE
  5
5E
100
AcDbEntity
100
AcDbCircle
  8
0
 62
256
370
-1
 48
1.0
  6
ByLayer
 10
-125.08333333333351
 20
391.63999999999993
 30
0.0
 40
1.575
  0
CIRCLE
  5
5F
100
AcDbEntity
100
AcDbCircle
  8
0
 62
256
370
-1
 48
1.0
  6
ByLayer
 10
-188.64000000000001
 20
375.25
 30
0.0
 40
1.575
  0
CIRCLE
  5
60
100
AcDbEntity
100
AcDbCircle
  8
0
 62
256
370
-1
 48
1.0
  6
ByLayer
 10
-188.64000000000019
 20
119.75
 30
0.0
 40
1.574999999999996
  0
CIRCLE
  5
61
100
AcDbEntity
100
AcDbCircle
  8
0
 62
256
370
-1
 48
1.0
  6
ByLayer
 10
48.250000000000142
 20
-121.63999999999999
 30
0.0
 40
1.574999999999998
  0
CIRCLE
  5
62
100
AcDbEntity
100
AcDbCircle
  8
0
 62
256
370
-1
 48
1.0
  6
ByLayer
 10
-172.25000000000003
 20
391.64000000000004
 30
0.0
 40
1.574999999999998
  0
CIRCLE
  5
63
100
AcDbEntity
100
AcDbCircle
  8
0
 62
256
370
-1
 48
1.0
  6
ByLayer
 10
48.249999999999915
 20
391.64000000000249
 30
0.0
 40
1.574999999999998
  0
CIRCLE
  5
64
100
AcDbEntity
100
AcDbCircle
  8
0
 62
256
370
-1
 48
1.0
  6
ByLayer
 10
64.639999999999787
 20
119.74999999999983
 30
0.0
 40
1.574999999999996
  0
CIRCLE
  5
65
100
AcDbEntity
100
AcDbCircle
  8
0
 62
256
370
-1
 48
1.0
  6
ByLayer
 10
-172.25000000000011
 20
-121.6400000000001
 30
0.0
 40
1.574999999999998
  0
CIRCLE
  5
66
100
AcDbEntity
100
AcDbCircle
  8
0
 62
256
370
-1
 48
1.0
  6
ByLayer
 10
64.639999999999958
 20
375.25000000000011
 30
0.0
 40
1.575
  0
CIRCLE
  5
67
100
AcDbEntity
100
AcDbCircle
  8
0
 62
256
370
-1
 48
1.0
  6
ByLayer
 10
1.0833333333334281
 20
391.63999999999925
 30
0.0
 40
1.575
  0
CIRCLE
  5
68
100
AcDbEntity
100
AcDbCircle
  8
0
 62
256
370
-1
 48
1.0
  6
ByLayer
 10
1.0833333333334281
 20
-121.63999999999999
 30
0.0
 40
1.5750000000000159
  0
CIRCLE
  5
69
100
AcDbEntity
100
AcDbCircle
  8
0
 62
256
370
-1
 48
1.0
  6
ByLayer
 10
41.499999999999886
 20
102.94000000000005
 30
0.0
 40
1.575
  0
CIRCLE
  5
6A
100
AcDbEntity
100
AcDbCircle
  8
0
 62
256
370
-1
 48
1.0
  6
ByLayer
 10
-165.50000000000011
 20
102.94000000000011
 30
0.0
 40
1.575
  0
CIRCLE
  5
6B
100
AcDbEntity
100
AcDbCircle
  8
0
 62
256
370
-1
 48
1.0
  6
ByLayer
 10
102.22000000000062
 20
-121.64000000000013
 30
0.0
 40
1.5749999999999931
  0
CIRCLE
  5
6C
100
AcDbEntity
100
AcDbCircle
  8
0
 62
256
370
-1
 48
1.0
  6
ByLayer
 10
102.22000000000122
 20
391.63999999999999
 30
0.0
 40
1.574999999999988
  0
CIRCLE
  5
6D
100
AcDbEntity
100
AcDbCircle
  8
0
 62
256
370
-1
 48
1.0
  6
ByLayer
 10
-17.780000000000115
 20
-55.22000000000007
 30
0.0
 40
1.575
  0
CIRCLE
  5
6E
100
AcDbEntity
100
AcDbCircle
  8
0
 62
256
370
-1
 48
1.0
  6
ByLayer
 10
17.779999999999326
 20
93.87999999999991
 30
0.0
 40
1.5750000000000111
  0
CIRCLE
  5
6F
100
AcDbEntity
100
AcDbCircle
  8
0
 62
256
370
-1
 48
1.0
  6
ByLayer
 10
16.109999999999907
 20
-65.300000000000068
 30
0.0
 40
1.575
  0
CIRCLE
  5
70
100
AcDbEntity
100
AcDbCircle
  8
0
 62
256
370
-1
 48
1.0
  6
ByLayer
 10
-67.724010305942613
 20
-301.44000000000199
 30
0.0
 40
1.9999999999999989
  0
CIRCLE
  5
71
100
AcDbEntity
100
AcDbCircle
  8
0
 62
256
370
-1
 48
1.0
  6
ByLayer
 10
52.942656360724101
 20
-301.4400000000017
 30
0.0
 40
1.9999999999999989
  0
CIRCLE
  5
72
100
AcDbEntity
100
AcDbCircle
  8
0
 62
256
370
-1
 48
1.0
  6
ByLayer
 10
-106.94000000000058
 20
93.880000000000138
 30
0.0
 40
1.5750000000000111
  0
CIRCLE
  5
73
100
AcDbEntity
100
AcDbCircle
  8
0
 62
256
370
-1
 48
1.0
  6
ByLayer
 10
-108.61000000000008
 20
-65.299999999999855
 30
0.0
 40
1.575
  0
CIRCLE
  5
74
100
AcDbEntity
100
AcDbCircle
  8
0
 62
256
370
-1
 48
1.0
  6
ByLayer
 10
-142.50000000000009
 20
-55.219999999999835
 30
0.0
 40
1.575
  0
CIRCLE
  5
75
100
AcDbEntity
100
AcDbCircle
  8
0
 62
256
370
-1
 48
1.0
  6
ByLayer
 10
3.4166666666666856
 20
-236.69999999999993
 30
0.0
 40
2.0
  0
CIRCLE
  5
76
100
AcDbEntity
100
AcDbCircle
  8
0
 62
256
370
-1
 48
1.0
  6
ByLayer
 10
-54.583333333333336
 20
-236.69999999999993
 30
0.0
 40
2.0
  0
CIRCLE
  5
77
100
AcDbEntity
100
AcDbCircle
  8
0
 62
256
370
-1
 48
1.0
  6
ByLayer
 10
25.139999999999901
 20
-136.40666666666681
 30
0.0
 40
1.5750000000000011
  0
CIRCLE
  5
78
100
AcDbEntity
100
AcDbCircle
  8
0
 62
256
370
-1
 48
1.0
  6
ByLayer
 10
25.139999999999873
 20
-182.03333333333353
 30
0.0
 40
1.5750000000000011
  0
CIRCLE
  5
79
100
AcDbEntity
100
AcDbCircle
  8
0
 62
256
370
-1
 48
1.0
  6
ByLayer
 10
-149.14000000000013
 20
-136.40666666666672
 30
0.0
 40
1.5750000000000011
  0
CIRCLE
  5
7A
100
AcDbEntity
100
AcDbCircle
  8
0
 62
256
370
-1
 48
1.0
  6
ByLayer
 10
-149.14000000000013
 20
-182.0333333333333
 30
0.0
 40
1.5750000000000011
  0
CIRCLE
  5
7B
100
AcDbEntity
100
AcDbCircle
  8
0
 62
256
370
-1
 48
1.0
  6
ByLayer
 10
-26.249999999999986
 20
317.49999999999994
 30
0.0
 40
1.575
  0
CIRCLE
  5
7C
100
AcDbEntity
100
AcDbCircle
  8
0
 62
256
370
-1
 48
1.0
  6
ByLayer
 10
-6.7499999999999716
 20
325.5
 30
0.0
 40
2.0
  0
CIRCLE
  5
7D
100
AcDbEntity
100
AcDbCircle
  8
0
 62
256
370
-1
 48
1.0
  6
ByLayer
 10
-7.2499999999999432
 20
317.5
 30
0.0
 40
1.575
  0
CIRCLE
  5
7E
100
AcDbEntity
100
AcDbCircle
  8
0
 62
256
370
-1
 48
1.0
  6
ByLayer
 10
-76.740000000000052
 20
217.38
 30
0.0
 40
1.574999999999998
  0
CIRCLE
  5
7F
100
AcDbEntity
100
AcDbCircle
  8
0
 62
256
370
-1
 48
1.0
  6
ByLayer
 10
5.8099999999999739
 20
217.38
 30
0.0
 40
1.574999999999998
  0
CIRCLE
  5
80
100
AcDbEntity
100
AcDbCircle
  8
0
 62
256
370
-1
 48
1.0
  6
ByLayer
 10
-62.000000000000014
 20
134.50000000000003
 30
0.0
 40
1.5749999999999991
  0
CIRCLE
  5
81
100
AcDbEntity
100
AcDbCircle
  8
0
 62
256
370
-1
 48
1.0
  6
ByLayer
 10
-122.33333333333336
 20
286.17999999999995
 30
0.0
 40
1.5750000000000011
  0
CIRCLE
  5
82
100
AcDbEntity
100
AcDbCircle
  8
0
 62
256
370
-1
 48
1.0
  6
ByLayer
 10
-1.6666666666667425
 20
286.17999999999995
 30
0.0
 40
1.5750000000000011
  0
LINE
  5
83
100
AcDbEntity
100
AcDbLine
  8
0
 62
256
370
-1
 48
1.0
  6
ByLayer
 10
68.000000000000867
 20
118.17500000000001
 30
0.0
 11
72.780000000000896
 21
118.17500000000001
 31
0.0
  0
LINE
  5
84
100
AcDbEntity
100
AcDbLine
  8
0
 62
256
370
-1
 48
1.0
  6
ByLayer
 10
72.780000000000896
 20
118.17500000000001
 30
0.0
 11
72.780000000000982
 21
117.14999999999998
 31
0.0
  0
ARC
  5
85
100
AcDbEntity
  8
0
 62
256
370
-1
 48
1.0
  6
ByLayer
100
AcDbCircle
 10
72.780000000000882
 20
116.90000000000008
 30
0.0
 40
0.2499999999998994
100
AcDbArc
 50
89.999999999977192
 51
360.0
  0
LINE
  5
86
100
AcDbEntity
100
AcDbLine
  8
0
 62
256
370
-1
 48
1.0
  6
ByLayer
 10
73.030000000000783
 20
116.89999999999998
 30
0.0
 11
75.03000000000101
 21
116.89999999999995
 31
0.0
  0
ARC
  5
87
100
AcDbEntity
  8
0
 62
256
370
-1
 48
1.0
  6
ByLayer
100
AcDbCircle
 10
75.280000000000982
 20
116.90000000000002
 30
0.0
 40
0.2499999999999645
100
AcDbArc
 50
180.0
 51
90.000000000016286
  0
LINE
  5
88
100
AcDbEntity
100
AcDbLine
  8
0
 62
256
370
-1
 48
1.0
  6
ByLayer
 10
75.280000000000911
 20
117.14999999999998
 30
0.0
 11
75.280000000000811
 21
118.17500000000001
 31
0.0
  0
LINE
  5
89
100
AcDbEntity
100
AcDbLine
  8
0
 62
256
370
-1
 48
1.0
  6
ByLayer
 10
75.280000000000811
 20
118.17500000000001
 30
0.0
 11
76.280000000000925
 21
118.17500000000001
 31
0.0
  0
LINE
  5
8A
100
AcDbEntity
100
AcDbLine
  8
0
 62
256
370
-1
 48
1.0
  6
ByLayer
 10
76.280000000000925
 20
118.17500000000001
 30
0.0
 11
76.280000000000882
 21
121.32499999999996
 31
0.0
  0
LINE
  5
8B
100
AcDbEntity
100
AcDbLine
  8
0
 62
256
370
-1
 48
1.0
  6
ByLayer
 10
76.280000000000882
 20
121.32499999999996
 30
0.0
 11
75.280000000001039
 21
121.32499999999999
 31
0.0
  0
LINE
  5
8C
100
AcDbEntity
100
AcDbLine
  8
0
 62
256
370
-1
 48
1.0
  6
ByLayer
 10
75.280000000001039
 20
121.32499999999999
 30
0.0
 11
75.280000000000939
 21
122.35000000000002
 31
0.0
  0
ARC
  5
8D
100
AcDbEntity
  8
0
 62
256
370
-1
 48
1.0
  6
ByLayer
100
AcDbCircle
 10
75.280000000000896
 20
122.60000000000007
 30
0.0
 40
0.2500000000000426
100
AcDbArc
 50
270.00000000000978
 51
180.0
  0
LINE
  5
8E
100
AcDbEntity
100
AcDbLine
  8
0
 62
256
370
-1
 48
1.0
  6
ByLayer
 10
75.030000000000854
 20
122.60000000000002
 30
0.0
 11
73.030000000000797
 21
122.59999999999994
 31
0.0
  0
ARC
  5
8F
100
AcDbEntity
  8
0
 62
256
370
-1
 48
1.0
  6
ByLayer
100
AcDbCircle
 10
72.780000000000868
 20
122.59999999999989
 30
0.0
 40
0.2499999999999289
100
AcDbArc
 50
0.0
 51
270.00000000000978
  0
LINE
  5
90
100
AcDbEntity
100
AcDbLine
  8
0
 62
256
370
-1
 48
1.0
  6
ByLayer
 10
72.780000000000911
 20
122.34999999999997
 30
0.0
 11
72.780000000000896
 21
121.32499999999999
 31
0.0
  0
LINE
  5
91
100
AcDbEntity
100
AcDbLine
  8
0
 62
256
370
-1
 48
1.0
  6
ByLayer
 10
72.780000000000896
 20
121.32499999999999
 30
0.0
 11
68.000000000000938
 21
121.32499999999999
 31
0.0
  0
LINE
  5
92
100
AcDbEntity
100
AcDbLine
  8
0
 62
256
370
-1
 48
1.0
  6
ByLayer
 10
68.000000000000739
 20
373.67499999999984
 30
0.0
 11
72.780000000000825
 21
373.67499999999984
 31
0.0
  0
LINE
  5
93
100
AcDbEntity
100
AcDbLine
  8
0
 62
256
370
-1
 48
1.0
  6
ByLayer
 10
72.780000000000825
 20
373.67499999999984
 30
0.0
 11
72.780000000000811
 21
372.64999999999975
 31
0.0
  0
ARC
  5
94
100
AcDbEntity
  8
0
 62
256
370
-1
 48
1.0
  6
ByLayer
100
AcDbCircle
 10
72.780000000000967
 20
372.39999999999981
 30
0.0
 40
0.249999999999936
100
AcDbArc
 50
90.000000000035826
 51
0.0
  0
LINE
  5
95
100
AcDbEntity
100
AcDbLine
  8
0
 62
256
370
-1
 48
1.0
  6
ByLayer
 10
73.030000000000911
 20
372.39999999999998
 30
0.0
 11
75.030000000000641
 21
372.40000000000003
 31
0.0
  0
ARC
  5
96
100
AcDbEntity
  8
0
 62
256
370
-1
 48
1.0
  6
ByLayer
100
AcDbCircle
 10
75.280000000000541
 20
372.39999999999992
 30
0.0
 40
0.2499999999998934
100
AcDbArc
 50
180.0
 51
89.999999999973937
  0
LINE
  5
97
100
AcDbEntity
100
AcDbLine
  8
0
 62
256
370
-1
 48
1.0
  6
ByLayer
 10
75.280000000000655
 20
372.64999999999981
 30
0.0
 11
75.280000000000769
 21
373.67499999999984
 31
0.0
  0
LINE
  5
98
100
AcDbEntity
100
AcDbLine
  8
0
 62
256
370
-1
 48
1.0
  6
ByLayer
 10
75.280000000000769
 20
373.67499999999984
 30
0.0
 11
76.280000000000683
 21
373.67499999999984
 31
0.0
  0
LINE
  5
99
100
AcDbEntity
100
AcDbLine
  8
0
 62
256
370
-1
 48
1.0
  6
ByLayer
 10
76.280000000000683
 20
373.67499999999984
 30
0.0
 11
76.280000000000598
 21
376.82499999999993
 31
0.0
  0
LINE
  5
9A
100
AcDbEntity
100
AcDbLine
  8
0
 62
256
370
-1
 48
1.0
  6
ByLayer
 10
76.280000000000598
 20
376.82499999999993
 30
0.0
 11
75.280000000000598
 21
376.82499999999993
 31
0.0
  0
LINE
  5
9B
100
AcDbEntity
100
AcDbLine
  8
0
 62
256
370
-1
 48
1.0
  6
ByLayer
 10
75.280000000000598
 20
376.82499999999993
 30
0.0
 11
75.280000000000825
 21
377.8499999999998
 31
0.0
  0
ARC
  5
9C
100
AcDbEntity
  8
0
 62
256
370
-1
 48
1.0
  6
ByLayer
100
AcDbCircle
 10
75.280000000000896
 20
378.09999999999974
 30
0.0
 40
0.2499999999999289
100
AcDbArc
 50
269.99999999998374
 51
180.0
  0
LINE
  5
9D
100
AcDbEntity
100
AcDbLine
  8
0
 62
256
370
-1
 48
1.0
  6
ByLayer
 10
75.030000000000967
 20
378.0999999999998
 30
0.0
 11
73.030000000000712
 21
378.09999999999974
 31
0.0
  0
ARC
  5
9E
100
AcDbEntity
  8
0
 62
256
370
-1
 48
1.0
  6
ByLayer
100
AcDbCircle
 10
72.78000000000074
 20
378.0999999999998
 30
0.0
 40
0.2499999999999787
100
AcDbArc
 50
360.0
 51
269.99999999999022
  0
LINE
  5
9F
100
AcDbEntity
100
AcDbLine
  8
0
 62
256
370
-1
 48
1.0
  6
ByLayer
 10
72.780000000000697
 20
377.8499999999998
 30
0.0
 11
72.78000000000101
 21
376.82499999999993
 31
0.0
  0
LINE
  5
A0
100
AcDbEntity
100
AcDbLine
  8
0
 62
256
370
-1
 48
1.0
  6
ByLayer
 10
72.78000000000101
 20
376.82499999999993
 30
0.0
 11
68.000000000000668
 21
376.82499999999999
 31
0.0
  0
LINE
  5
A1
100
AcDbEntity
100
AcDbLine
  8
0
 62
256
370
-1
 48
1.0
  6
ByLayer
 10
68.000000000001151
 20
388.28000000000009
 30
0.0
 11
90.813333333334953
 21
388.27999999999986
 31
0.0
  0
LINE
  5
A2
100
AcDbEntity
100
AcDbLine
  8
0
 62
256
370
-1
 48
1.0
  6
ByLayer
 10
90.813333333334953
 20
388.27999999999986
 30
0.0
 11
90.813333333334683
 21
395.0
 31
0.0
  0
LINE
  5
A3
100
AcDbEntity
100
AcDbLine
  8
0
 62
256
370
-1
 48
1.0
  6
ByLayer
 10
90.813333333334683
 20
395.0
 30
0.0
 11
113.626666666668
 21
394.99999999999989
 31
0.0
  0
LINE
  5
A4
100
AcDbEntity
100
AcDbLine
  8
0
 62
256
370
-1
 48
1.0
  6
ByLayer
 10
113.626666666668
 20
394.99999999999989
 30
0.0
 11
113.6266666666682
 21
388.27999999999986
 31
0.0
  0
LINE
  5
A5
100
AcDbEntity
100
AcDbLine
  8
0
 62
256
370
-1
 48
1.0
  6
ByLayer
 10
113.6266666666682
 20
388.27999999999986
 30
0.0
 11
136.44000000000125
 21
388.27999999999975
 31
0.0
  0
LINE
  5
A6
100
AcDbEntity
100
AcDbLine
  8
0
 62
256
370
-1
 48
1.0
  6
ByLayer
 10
136.44000000000125
 20
388.27999999999975
 30
0.0
 11
136.44000000000165
 21
376.82499999999987
 31
0.0
  0
LINE
  5
A7
100
AcDbEntity
100
AcDbLine
  8
0
 62
256
370
-1
 48
1.0
  6
ByLayer
 10
136.44000000000165
 20
376.82499999999987
 30
0.0
 11
131.6600000000015
 21
376.82499999999993
 31
0.0
  0
LINE
  5
A8
100
AcDbEntity
100
AcDbLine
  8
0
 62
256
370
-1
 48
1.0
  6
ByLayer
 10
131.6600000000015
 20
376.82499999999993
 30
0.0
 11
131.66000000000162
 21
377.84999999999974
 31
0.0
  0
ARC
  5
A9
100
AcDbEntity
  8
0
 62
256
370
-1
 48
1.0
  6
ByLayer
100
AcDbCircle
 10
131.66000000000145
 20
378.09999999999991
 30
0.0
 40
0.2500000000001705
100
AcDbArc
 50
270.00000000003911
 51
180.0
  0
LINE
  5
AA
100
AcDbEntity
100
AcDbLine
  8
0
 62
256
370
-1
 48
1.0
  6
ByLayer
 10
131.41000000000128
 20
378.09999999999974
 30
0.0
 11
129.4100000000015
 21
378.09999999999974
 31
0.0
  0
ARC
  5
AB
100
AcDbEntity
  8
0
 62
256
370
-1
 48
1.0
  6
ByLayer
100
AcDbCircle
 10
129.16000000000156
 20
378.0999999999998
 30
0.0
 40
0.2499999999999431
100
AcDbArc
 50
360.0
 51
270.0
  0
LINE
  5
AC
100
AcDbEntity
100
AcDbLine
  8
0
 62
256
370
-1
 48
1.0
  6
ByLayer
 10
129.16000000000156
 20
377.8499999999998
 30
0.0
 11
129.1600000000015
 21
376.82499999999993
 31
0.0
  0
LINE
  5
AD
100
AcDbEntity
100
AcDbLine
  8
0
 62
256
370
-1
 48
1.0
  6
ByLayer
 10
129.1600000000015
 20
376.82499999999993
 30
0.0
 11
128.16000000000119
 21
376.82499999999999
 31
0.0
  0
LINE
  5
AE
100
AcDbEntity
100
AcDbLine
  8
0
 62
256
370
-1
 48
1.0
  6
ByLayer
 10
128.16000000000119
 20
376.82499999999999
 30
0.0
 11
128.16000000000122
 21
373.67499999999984
 31
0.0
  0
LINE
  5
AF
100
AcDbEntity
100
AcDbLine
  8
0
 62
256
370
-1
 48
1.0
  6
ByLayer
 10
128.16000000000122
 20
373.67499999999984
 30
0.0
 11
129.16000000000139
 21
373.67499999999984
 31
0.0
  0
LINE
  5
B0
100
AcDbEntity
100
AcDbLine
  8
0
 62
256
370
-1
 48
1.0
  6
ByLayer
 10
129.16000000000139
 20
373.67499999999984
 30
0.0
 11
129.16000000000162
 21
372.64999999999969
 31
0.0
  0
ARC
  5
B1
100
AcDbEntity
  8
0
 62
256
370
-1
 48
1.0
  6
ByLayer
100
AcDbCircle
 10
129.16000000000165
 20
372.39999999999998
 30
0.0
 40
0.2499999999997442
100
AcDbArc
 50
90.000000000006509
 51
0.0
  0
LINE
  5
B2
100
AcDbEntity
100
AcDbLine
  8
0
 62
256
370
-1
 48
1.0
  6
ByLayer
 10
129.41000000000139
 20
372.39999999999998
 30
0.0
 11
131.41000000000128
 21
372.39999999999998
 31
0.0
  0
ARC
  5
B3
100
AcDbEntity
  8
0
 62
256
370
-1
 48
1.0
  6
ByLayer
100
AcDbCircle
 10
131.66000000000111
 20
372.39999999999992
 30
0.0
 40
0.2499999999998294
100
AcDbArc
 50
180.0
 51
89.999999999973937
  0
LINE
  5
B4
100
AcDbEntity
100
AcDbLine
  8
0
 62
256
370
-1
 48
1.0
  6
ByLayer
 10
131.66000000000122
 20
372.64999999999969
 30
0.0
 11
131.6600000000015
 21
373.67499999999978
 31
0.0
  0
LINE
  5
B5
100
AcDbEntity
100
AcDbLine
  8
0
 62
256
370
-1
 48
1.0
  6
ByLayer
 10
131.6600000000015
 20
373.67499999999978
 30
0.0
 11
136.44000000000122
 21
373.67499999999984
 31
0.0
  0
LINE
  5
B6
100
AcDbEntity
100
AcDbLine
  8
0
 62
256
370
-1
 48
1.0
  6
ByLayer
 10
136.44000000000122
 20
373.67499999999984
 30
0.0
 11
136.44000000000113
 21
121.32499999999993
 31
0.0
  0
LINE
  5
B7
100
AcDbEntity
100
AcDbLine
  8
0
 62
256
370
-1
 48
1.0
  6
ByLayer
 10
136.44000000000113
 20
121.32499999999993
 30
0.0
 11
131.66000000000091
 21
121.32500000000002
 31
0.0
  0
LINE
  5
B8
100
AcDbEntity
100
AcDbLine
  8
0
 62
256
370
-1
 48
1.0
  6
ByLayer
 10
131.66000000000091
 20
121.32500000000002
 30
0.0
 11
131.66000000000105
 21
122.34999999999994
 31
0.0
  0
ARC
  5
B9
100
AcDbEntity
  8
0
 62
256
370
-1
 48
1.0
  6
ByLayer
100
AcDbCircle
 10
131.66000000000102
 20
122.59999999999999
 30
0.0
 40
0.2500000000000568
100
AcDbArc
 50
270.00000000000654
 51
180.0
  0
LINE
  5
BA
100
AcDbEntity
100
AcDbLine
  8
0
 62
256
370
-1
 48
1.0
  6
ByLayer
 10
131.41000000000096
 20
122.59999999999997
 30
0.0
 11
129.41000000000099
 21
122.59999999999999
 31
0.0
  0
ARC
  5
BB
100
AcDbEntity
  8
0
 62
256
370
-1
 48
1.0
  6
ByLayer
100
AcDbCircle
 10
129.16000000000105
 20
122.59999999999994
 30
0.0
 40
0.2499999999999716
100
AcDbArc
 50
0.0
 51
270.00000000000654
  0
LINE
  5
BC
100
AcDbEntity
100
AcDbLine
  8
0
 62
256
370
-1
 48
1.0
  6
ByLayer
 10
129.16000000000108
 20
122.34999999999997
 30
0.0
 11
129.16000000000111
 21
121.32499999999996
 31
0.0
  0
LINE
  5
BD
100
AcDbEntity
100
AcDbLine
  8
0
 62
256
370
-1
 48
1.0
  6
ByLayer
 10
129.16000000000111
 20
121.32499999999996
 30
0.0
 11
128.16000000000108
 21
121.32499999999996
 31
0.0
  0
LINE
  5
BE
100
AcDbEntity
100
AcDbLine
  8
0
 62
256
370
-1
 48
1.0
  6
ByLayer
 10
128.16000000000108
 20
121.32499999999996
 30
0.0
 11
128.16000000000111
 21
118.17499999999993
 31
0.0
  0
LINE
  5
BF
100
AcDbEntity
100
AcDbLine
  8
0
 62
256
370
-1
 48
1.0
  6
ByLayer
 10
128.16000000000111
 20
118.17499999999993
 30
0.0
 11
129.16000000000091
 21
118.17500000000004
 31
0.0
  0
LINE
  5
C0
100
AcDbEntity
100
AcDbLine
  8
0
 62
256
370
-1
 48
1.0
  6
ByLayer
 10
129.16000000000091
 20
118.17500000000004
 30
0.0
 11
129.16000000000105
 21
117.14999999999995
 31
0.0
  0
ARC
  5
C1
100
AcDbEntity
  8
0
 62
256
370
-1
 48
1.0
  6
ByLayer
100
AcDbCircle
 10
129.16000000000108
 20
116.89999999999988
 30
0.0
 40
0.2500000000000711
100
AcDbArc
 50
90.000000000006509
 51
0.0
  0
LINE
  5
C2
100
AcDbEntity
100
AcDbLine
  8
0
 62
256
370
-1
 48
1.0
  6
ByLayer
 10
129.41000000000116
 20
116.89999999999992
 30
0.0
 11
131.41000000000096
 21
116.89999999999998
 31
0.0
  0
ARC
  5
C3
100
AcDbEntity
  8
0
 62
256
370
-1
 48
1.0
  6
ByLayer
100
AcDbCircle
 10
131.66000000000096
 20
116.89999999999995
 30
0.0
 40
0.2499999999999989
100
AcDbArc
 50
180.0
 51
89.999999999993491
  0
LINE
  5
C4
100
AcDbEntity
100
AcDbLine
  8
0
 62
256
370
-1
 48
1.0
  6
ByLayer
 10
131.66000000000099
 20
117.14999999999995
 30
0.0
 11
131.66000000000105
 21
118.17499999999998
 31
0.0
  0
LINE
  5
C5
100
AcDbEntity
100
AcDbLine
  8
0
 62
256
370
-1
 48
1.0
  6
ByLayer
 10
131.66000000000105
 20
118.17499999999998
 30
0.0
 11
136.44000000000096
 21
118.17499999999998
 31
0.0
  0
LINE
  5
C6
100
AcDbEntity
100
AcDbLine
  8
0
 62
256
370
-1
 48
1.0
  6
ByLayer
 10
136.44000000000096
 20
118.17499999999998
 30
0.0
 11
136.44000000000091
 21
100.0
 31
0.0
  0
LINE
  5
C7
100
AcDbEntity
100
AcDbLine
  8
0
 62
256
370
-1
 48
1.0
  6
ByLayer
 10
136.44000000000091
 20
100.0
 30
0.0
 11
143.16000000000093
 21
99.999999999999972
 31
0.0
  0
LINE
  5
C8
100
AcDbEntity
100
AcDbLine
  8
0
 62
256
370
-1
 48
1.0
  6
ByLayer
 10
143.16000000000093
 20
99.999999999999972
 30
0.0
 11
143.16000000000071
 21
-125.00000000000001
 31
0.0
  0
LINE
  5
C9
100
AcDbEntity
100
AcDbLine
  8
0
 62
256
370
-1
 48
1.0
  6
ByLayer
 10
143.16000000000071
 20
-125.00000000000001
 30
0.0
 11
136.44000000000062
 21
-125.00000000000001
 31
0.0
  0
LINE
  5
CA
100
AcDbEntity
100
AcDbLine
  8
0
 62
256
370
-1
 48
1.0
  6
ByLayer
 10
136.44000000000062
 20
-125.00000000000001
 30
0.0
 11
136.44000000000062
 21
-118.27999999999996
 31
0.0
  0
LINE
  5
CB
100
AcDbEntity
100
AcDbLine
  8
0
 62
256
370
-1
 48
1.0
  6
ByLayer
 10
136.44000000000062
 20
-118.27999999999996
 30
0.0
 11
113.62666666666729
 21
-118.28000000000004
 31
0.0
  0
LINE
  5
CC
100
AcDbEntity
100
AcDbLine
  8
0
 62
256
370
-1
 48
1.0
  6
ByLayer
 10
113.62666666666729
 20
-118.28000000000004
 30
0.0
 11
113.62666666666729
 21
-125.00000000000001
 31
0.0
  0
LINE
  5
CD
100
AcDbEntity
100
AcDbLine
  8
0
 62
256
370
-1
 48
1.0
  6
ByLayer
 10
113.62666666666729
 20
-125.00000000000001
 30
0.0
 11
90.813333333333958
 21
-125.00000000000001
 31
0.0
  0
LINE
  5
CE
100
AcDbEntity
100
AcDbLine
  8
0
 62
256
370
-1
 48
1.0
  6
ByLayer
 10
90.813333333333958
 20
-125.00000000000001
 30
0.0
 11
90.813333333333958
 21
-118.28
 31
0.0
  0
LINE
  5
CF
100
AcDbEntity
100
AcDbLine
  8
0
 62
256
370
-1
 48
1.0
  6
ByLayer
 10
90.813333333333958
 20
-118.28
 30
0.0
 11
68.000000000000625
 21
-118.27999999999989
 31
0.0
  0
LINE
  5
D0
100
AcDbEntity
100
AcDbLine
  8
0
 62
256
370
-1
 48
1.0
  6
ByLayer
 10
68.000000000000625
 20
-118.27999999999989
 30
0.0
 11
68.000000000000625
 21
-125.0
 31
0.0
  0
LINE
  5
D1
100
AcDbEntity
100
AcDbLine
  8
0
 62
256
370
-1
 48
1.0
  6
ByLayer
 10
61.280000000000811
 20
100.0
 30
0.0
 11
68.000000000000867
 21
100.0
 31
0.0
  0
LINE
  5
D2
100
AcDbEntity
100
AcDbLine
  8
0
 62
256
370
-1
 48
1.0
  6
ByLayer
 10
90.813333333334285
 20
100.0
 30
0.0
 11
113.62666666666775
 21
99.999999999999943
 31
0.0
  0
LINE
  5
D3
100
AcDbEntity
100
AcDbLine
  8
0
 62
256
370
-1
 48
1.0
  6
ByLayer
 10
113.62666666666775
 20
99.999999999999943
 30
0.0
 11
113.62666666666763
 21
105.88
 31
0.0
  0
LINE
  5
D4
100
AcDbEntity
100
AcDbLine
  8
0
 62
256
370
-1
 48
1.0
  6
ByLayer
 10
113.62666666666763
 20
105.88
 30
0.0
 11
90.813333333334256
 21
105.88
 31
0.0
  0
LINE
  5
D5
100
AcDbEntity
100
AcDbLine
  8
0
 62
256
370
-1
 48
1.0
  6
ByLayer
 10
90.813333333334256
 20
105.88
 30
0.0
 11
90.813333333334285
 21
100.0
 31
0.0
  0
LINE
  5
D6
100
AcDbEntity
100
AcDbLine
  8
0
 62
256
370
-1
 48
1.0
  6
ByLayer
 10
21.779999999999326
 20
86.380000000000024
 30
0.0
 11
21.779999999999333
 21
71.380000000000024
 31
0.0
  0
LINE
  5
D7
100
AcDbEntity
100
AcDbLine
  8
0
 62
256
370
-1
 48
1.0
  6
ByLayer
 10
21.779999999999333
 20
71.380000000000024
 30
0.0
 11
15.059999999999327
 21
71.380000000000024
 31
0.0
  0
LINE
  5
D8
100
AcDbEntity
100
AcDbLine
  8
0
 62
256
370
-1
 48
1.0
  6
ByLayer
 10
15.059999999999327
 20
71.380000000000024
 30
0.0
 11
15.059999999999327
 21
86.380000000000024
 31
0.0
  0
LINE
  5
D9
100
AcDbEntity
100
AcDbLine
  8
0
 62
256
370
-1
 48
1.0
  6
ByLayer
 10
15.059999999999327
 20
86.380000000000024
 30
0.0
 11
21.779999999999326
 21
86.380000000000024
 31
0.0
  0
LINE
  5
DA
100
AcDbEntity
100
AcDbLine
  8
0
 62
256
370
-1
 48
1.0
  6
ByLayer
 10
-27.780000000000172
 20
137.85999999999993
 30
0.0
 11
-27.780000000000115
 21
-68.660000000000082
 31
0.0
  0
LINE
  5
DB
100
AcDbEntity
100
AcDbLine
  8
0
 62
256
370
-1
 48
1.0
  6
ByLayer
 10
-27.780000000000115
 20
-68.660000000000082
 30
0.0
 11
-11.260000000000119
 21
-68.660000000000082
 31
0.0
  0
LINE
  5
DC
100
AcDbEntity
100
AcDbLine
  8
0
 62
256
370
-1
 48
1.0
  6
ByLayer
 10
-11.260000000000119
 20
-68.660000000000082
 30
0.0
 11
-11.260000000000119
 21
-61.940000000000083
 31
0.0
  0
LINE
  5
DD
100
AcDbEntity
100
AcDbLine
  8
0
 62
256
370
-1
 48
1.0
  6
ByLayer
 10
-11.260000000000119
 20
-61.940000000000083
 30
0.0
 11
5.2599999999998772
 21
-61.940000000000083
 31
0.0
  0
LINE
  5
DE
100
AcDbEntity
100
AcDbLine
  8
0
 62
256
370
-1
 48
1.0
  6
ByLayer
 10
5.2599999999998772
 20
-61.940000000000083
 30
0.0
 11
5.2599999999998772
 21
-68.660000000000082
 31
0.0
  0
LINE
  5
DF
100
AcDbEntity
100
AcDbLine
  8
0
 62
256
370
-1
 48
1.0
  6
ByLayer
 10
5.2599999999998772
 20
-68.660000000000082
 30
0.0
 11
28.499999999999915
 21
-68.660000000000082
 31
0.0
  0
LINE
  5
E0
100
AcDbEntity
100
AcDbLine
  8
0
 62
256
370
-1
 48
1.0
  6
ByLayer
 10
-97.890676972609057
 20
-307.36499999999938
 30
0.0
 11
-93.110676972609056
 21
-307.36499999999938
 31
0.0
  0
LINE
  5
E1
100
AcDbEntity
100
AcDbLine
  8
0
 62
256
370
-1
 48
1.0
  6
ByLayer
 10
-93.110676972609056
 20
-307.36499999999938
 30
0.0
 11
-93.11067697260907
 21
-306.33999999999935
 31
0.0
  0
ARC
  5
E2
100
AcDbEntity
  8
0
 62
256
370
-1
 48
1.0
  6
ByLayer
100
AcDbCircle
 10
-93.110676972609056
 20
-306.08999999999935
 30
0.0
 40
0.2500000000000142
100
AcDbArc
 50
0.0
 51
269.99999999999676
  0
LINE
  5
E3
100
AcDbEntity
100
AcDbLine
  8
0
 62
256
370
-1
 48
1.0
  6
ByLayer
 10
-92.860676972609042
 20
-306.08999999999935
 30
0.0
 11
-90.86067697260907
 21
-306.08999999999935
 31
0.0
  0
ARC
  5
E4
100
AcDbEntity
  8
0
 62
256
370
-1
 48
1.0
  6
ByLayer
100
AcDbCircle
 10
-90.61067697260907
 20
-306.08999999999935
 30
0.0
 40
0.2500000000000071
100
AcDbArc
 50
270.00000000000324
 51
180.0
  0
LINE
  5
E5
100
AcDbEntity
100
AcDbLine
  8
0
 62
256
370
-1
 48
1.0
  6
ByLayer
 10
-90.610676972609056
 20
-306.33999999999935
 30
0.0
 11
-90.610676972609056
 21
-307.36499999999938
 31
0.0
  0
LINE
  5
E6
100
AcDbEntity
100
AcDbLine
  8
0
 62
256
370
-1
 48
1.0
  6
ByLayer
 10
-90.610676972609056
 20
-307.36499999999938
 30
0.0
 11
-89.61067697260907
 21
-307.36499999999938
 31
0.0
  0
LINE
  5
E7
100
AcDbEntity
100
AcDbLine
  8
0
 62
256
370
-1
 48
1.0
  6
ByLayer
 10
-89.61067697260907
 20
-307.36499999999938
 30
0.0
 11
-89.610676972609056
 21
-310.51499999999936
 31
0.0
  0
LINE
  5
E8
100
AcDbEntity
100
AcDbLine
  8
0
 62
256
370
-1
 48
1.0
  6
ByLayer
 10
-89.610676972609056
 20
-310.51499999999936
 30
0.0
 11
-90.610676972609042
 21
-310.51499999999936
 31
0.0
  0
LINE
  5
E9
100
AcDbEntity
100
AcDbLine
  8
0
 62
256
370
-1
 48
1.0
  6
ByLayer
 10
-90.610676972609042
 20
-310.51499999999936
 30
0.0
 11
-90.610676972609056
 21
-311.53999999999934
 31
0.0
  0
ARC
  5
EA
100
AcDbEntity
  8
0
 62
256
370
-1
 48
1.0
  6
ByLayer
100
AcDbCircle
 10
-90.61067697260907
 20
-311.78999999999934
 30
0.0
 40
0.2500000000000071
100
AcDbArc
 50
180.0
 51
89.999999999996746
  0
LINE
  5
EB
100
AcDbEntity
100
AcDbLine
  8
0
 62
256
370
-1
 48
1.0
  6
ByLayer
 10
-90.86067697260907
 20
-311.78999999999934
 30
0.0
 11
-92.860676972609042
 21
-311.78999999999934
 31
0.0
  0
ARC
  5
EC
100
AcDbEntity
  8
0
 62
256
370
-1
 48
1.0
  6
ByLayer
100
AcDbCircle
 10
-93.110676972609042
 20
-311.78999999999934
 30
0.0
 40
0.25
100
AcDbArc
 50
90.0
 51
0.0
  0
LINE
  5
ED
100
AcDbEntity
100
AcDbLine
  8
0
 62
256
370
-1
 48
1.0
  6
ByLayer
 10
-93.110676972609042
 20
-311.53999999999934
 30
0.0
 11
-93.110676972609042
 21
-310.51499999999936
 31
0.0
  0
LINE
  5
EE
100
AcDbEntity
100
AcDbLine
  8
0
 62
256
370
-1
 48
1.0
  6
ByLayer
 10
-93.110676972609042
 20
-310.51499999999936
 30
0.0
 11
-97.890676972609057
 21
-310.51499999999936
 31
0.0
  0
LINE
  5
EF
100
AcDbEntity
100
AcDbLine
  8
0
 62
256
370
-1
 48
1.0
  6
ByLayer
 10
-97.890676972609057
 20
-310.51499999999936
 30
0.0
 11
-97.890676972609242
 21
-316.43999999999937
 31
0.0
  0
LINE
  5
F0
100
AcDbEntity
100
AcDbLine
  8
0
 62
256
370
-1
 48
1.0
  6
ByLayer
 10
-97.890676972609242
 20
-316.43999999999937
 30
0.0
 11
83.109323027390758
 21
-316.4399999999992
 31
0.0
  0
LINE
  5
F1
100
AcDbEntity
100
AcDbLine
  8
0
 62
256
370
-1
 48
1.0
  6
ByLayer
 10
83.109323027390758
 20
-316.4399999999992
 30
0.0
 11
83.109323027390701
 21
-310.51499999999953
 31
0.0
  0
LINE
  5
F2
100
AcDbEntity
100
AcDbLine
  8
0
 62
256
370
-1
 48
1.0
  6
ByLayer
 10
83.109323027390701
 20
-310.51499999999953
 30
0.0
 11
78.329323027390757
 21
-310.51499999999919
 31
0.0
  0
LINE
  5
F3
100
AcDbEntity
100
AcDbLine
  8
0
 62
256
370
-1
 48
1.0
  6
ByLayer
 10
78.329323027390757
 20
-310.51499999999919
 30
0.0
 11
78.329323027390785
 21
-311.53999999999911
 31
0.0
  0
ARC
  5
F4
100
AcDbEntity
  8
0
 62
256
370
-1
 48
1.0
  6
ByLayer
100
AcDbCircle
 10
78.329323027390799
 20
-311.78999999999917
 30
0.0
 40
0.2500000000000426
100
AcDbArc
 50
180.0
 51
90.000000000003254
  0
LINE
  5
F5
100
AcDbEntity
100
AcDbLine
  8
0
 62
256
370
-1
 48
1.0
  6
ByLayer
 10
78.079323027390757
 20
-311.78999999999917
 30
0.0
 11
76.079323027390757
 21
-311.78999999999922
 31
0.0
  0
ARC
  5
F6
100
AcDbEntity
  8
0
 62
256
370
-1
 48
1.0
  6
ByLayer
100
AcDbCircle
 10
75.829323027390771
 20
-311.78999999999928
 30
0.0
 40
0.2499999999999858
100
AcDbArc
 50
90.000000000009777
 51
0.0
  0
LINE
  5
F7
100
AcDbEntity
100
AcDbLine
  8
0
 62
256
370
-1
 48
1.0
  6
ByLayer
 10
75.829323027390728
 20
-311.53999999999928
 30
0.0
 11
75.829323027390757
 21
-310.51499999999913
 31
0.0
  0
LINE
  5
F8
100
AcDbEntity
100
AcDbLine
  8
0
 62
256
370
-1
 48
1.0
  6
ByLayer
 10
75.829323027390757
 20
-310.51499999999913
 30
0.0
 11
74.829323027390757
 21
-310.5149999999993
 31
0.0
  0
LINE
  5
F9
100
AcDbEntity
100
AcDbLine
  8
0
 62
256
370
-1
 48
1.0
  6
ByLayer
 10
74.829323027390757
 20
-310.5149999999993
 30
0.0
 11
74.829323027390757
 21
-307.36499999999921
 31
0.0
  0
LINE
  5
FA
100
AcDbEntity
100
AcDbLine
  8
0
 62
256
370
-1
 48
1.0
  6
ByLayer
 10
74.829323027390757
 20
-307.36499999999921
 30
0.0
 11
75.829323027390757
 21
-307.36499999999916
 31
0.0
  0
LINE
  5
FB
100
AcDbEntity
100
AcDbLine
  8
0
 62
256
370
-1
 48
1.0
  6
ByLayer
 10
75.829323027390757
 20
-307.36499999999916
 30
0.0
 11
75.829323027390757
 21
-306.33999999999901
 31
0.0
  0
ARC
  5
FC
100
AcDbEntity
  8
0
 62
256
370
-1
 48
1.0
  6
ByLayer
100
AcDbCircle
 10
75.82932302739097
 20
-306.08999999999924
 30
0.0
 40
0.2499999999997584
100
AcDbArc
 50
360.0
 51
269.99999999995117
  0
LINE
  5
FD
100
AcDbEntity
100
AcDbLine
  8
0
 62
256
370
-1
 48
1.0
  6
ByLayer
 10
76.079323027390728
 20
-306.08999999999946
 30
0.0
 11
78.079323027390728
 21
-306.08999999999918
 31
0.0
  0
ARC
  5
FE
100
AcDbEntity
  8
0
 62
256
370
-1
 48
1.0
  6
ByLayer
100
AcDbCircle
 10
78.329323027390714
 20
-306.08999999999912
 30
0.0
 40
0.2499999999999858
100
AcDbArc
 50
270.00000000000978
 51
180.0
  0
LINE
  5
FF
100
AcDbEntity
100
AcDbLine
  8
0
 62
256
370
-1
 48
1.0
  6
ByLayer
 10
78.329323027390757
 20
-306.33999999999912
 30
0.0
 11
78.329323027390757
 21
-307.36499999999933
 31
0.0
  0
LINE
  5
100
100
AcDbEntity
100
AcDbLine
  8
0
 62
256
370
-1
 48
1.0
  6
ByLayer
 10
78.329323027390757
 20
-307.36499999999933
 30
0.0
 11
83.109323027390701
 21
-307.36499999999927
 31
0.0
  0
LINE
  5
101
100
AcDbEntity
100
AcDbLine
  8
0
 62
256
370
-1
 48
1.0
  6
ByLayer
 10
83.109323027390701
 20
-307.36499999999927
 30
0.0
 11
83.109323027390758
 21
-301.43999999999954
 31
0.0
  0
LINE
  5
102
100
AcDbEntity
100
AcDbLine
  8
0
 62
256
370
-1
 48
1.0
  6
ByLayer
 10
83.109323027390758
 20
-301.43999999999954
 30
0.0
 11
89.829323027390814
 21
-301.43999999999915
 31
0.0
  0
LINE
  5
103
100
AcDbEntity
100
AcDbLine
  8
0
 62
256
370
-1
 48
1.0
  6
ByLayer
 10
89.829323027390814
 20
-301.43999999999915
 30
0.0
 11
89.829323027390785
 21
-286.43999999999926
 31
0.0
  0
LINE
  5
104
100
AcDbEntity
100
AcDbLine
  8
0
 62
256
370
-1
 48
1.0
  6
ByLayer
 10
-104.61067697260904
 20
-286.43999999999937
 30
0.0
 11
-104.61067697260903
 21
-301.43999999999937
 31
0.0
  0
LINE
  5
105
100
AcDbEntity
100
AcDbLine
  8
0
 62
256
370
-1
 48
1.0
  6
ByLayer
 10
-104.61067697260903
 20
-301.43999999999937
 30
0.0
 11
-97.890676972609
 21
-301.43999999999937
 31
0.0
  0
LINE
  5
106
100
AcDbEntity
100
AcDbLine
  8
0
 62
256
370
-1
 48
1.0
  6
ByLayer
 10
-97.890676972609
 20
-301.43999999999937
 30
0.0
 11
-97.890676972609057
 21
-307.36499999999938
 31
0.0
  0
LINE
  5
107
100
AcDbEntity
100
AcDbLine
  8
0
 62
256
370
-1
 48
1.0
  6
ByLayer
 10
-102.94000000000007
 20
45.425000000000139
 30
0.0
 11
-122.94000000000008
 21
45.425000000000139
 31
0.0
  0
LINE
  5
108
100
AcDbEntity
100
AcDbLine
  8
0
 62
256
370
-1
 48
1.0
  6
ByLayer
 10
-122.94000000000008
 20
45.425000000000139
 30
0.0
 11
-122.94000000000008
 21
60.855000000000132
 31
0.0
  0
LINE
  5
109
100
AcDbEntity
100
AcDbLine
  8
0
 62
256
370
-1
 48
1.0
  6
ByLayer
 10
-122.94000000000008
 20
60.855000000000132
 30
0.0
 11
-102.94000000000007
 21
60.855000000000132
 31
0.0
  0
LINE
  5
10A
100
AcDbEntity
100
AcDbLine
  8
0
 62
256
370
-1
 48
1.0
  6
ByLayer
 10
-102.94000000000007
 20
60.855000000000132
 30
0.0
 11
-102.94000000000007
 21
45.425000000000139
 31
0.0
  0
LINE
  5
10B
100
AcDbEntity
100
AcDbLine
  8
0
 62
256
370
-1
 48
1.0
  6
ByLayer
 10
-102.94000000000059
 20
86.380000000000138
 30
0.0
 11
-102.94000000000059
 21
71.380000000000138
 31
0.0
  0
LINE
  5
10C
100
AcDbEntity
100
AcDbLine
  8
0
 62
256
370
-1
 48
1.0
  6
ByLayer
 10
-102.94000000000059
 20
71.380000000000138
 30
0.0
 11
-109.66000000000061
 21
71.380000000000138
 31
0.0
  0
LINE
  5
10D
100
AcDbEntity
100
AcDbLine
  8
0
 62
256
370
-1
 48
1.0
  6
ByLayer
 10
-109.66000000000061
 20
71.380000000000138
 30
0.0
 11
-109.66000000000059
 21
86.380000000000138
 31
0.0
  0
LINE
  5
10E
100
AcDbEntity
100
AcDbLine
  8
0
 62
256
370
-1
 48
1.0
  6
ByLayer
 10
-109.66000000000059
 20
86.380000000000138
 30
0.0
 11
-102.94000000000059
 21
86.380000000000138
 31
0.0
  0
LINE
  5
10F
100
AcDbEntity
100
AcDbLine
  8
0
 62
256
370
-1
 48
1.0
  6
ByLayer
 10
-152.50000000000011
 20
-68.659999999999854
 30
0.0
 11
-135.9800000000001
 21
-68.65999999999984
 31
0.0
  0
LINE
  5
110
100
AcDbEntity
100
AcDbLine
  8
0
 62
256
370
-1
 48
1.0
  6
ByLayer
 10
-135.9800000000001
 20
-68.65999999999984
 30
0.0
 11
-135.9800000000001
 21
-61.939999999999841
 31
0.0
  0
LINE
  5
111
100
AcDbEntity
100
AcDbLine
  8
0
 62
256
370
-1
 48
1.0
  6
ByLayer
 10
-135.9800000000001
 20
-61.939999999999841
 30
0.0
 11
-119.46000000000011
 21
-61.939999999999856
 31
0.0
  0
LINE
  5
112
100
AcDbEntity
100
AcDbLine
  8
0
 62
256
370
-1
 48
1.0
  6
ByLayer
 10
-119.46000000000011
 20
-61.939999999999856
 30
0.0
 11
-119.46000000000012
 21
-68.659999999999854
 31
0.0
  0
LINE
  5
113
100
AcDbEntity
100
AcDbLine
  8
0
 62
256
370
-1
 48
1.0
  6
ByLayer
 10
-119.46000000000012
 20
-68.659999999999854
 30
0.0
 11
-96.220000000000084
 21
-68.659999999999854
 31
0.0
  0
LINE
  5
114
100
AcDbEntity
100
AcDbLine
  8
0
 62
256
370
-1
 48
1.0
  6
ByLayer
 10
-96.220000000000084
 20
-68.659999999999854
 30
0.0
 11
-96.220000000000084
 21
137.86000000000016
 31
0.0
  0
LINE
  5
115
100
AcDbEntity
100
AcDbLine
  8
0
 62
256
370
-1
 48
1.0
  6
ByLayer
 10
-117.94000000000008
 20
29.105000000000189
 30
0.0
 11
-102.94000000000008
 21
29.105000000000189
 31
0.0
  0
LINE
  5
116
100
AcDbEntity
100
AcDbLine
  8
0
 62
256
370
-1
 48
1.0
  6
ByLayer
 10
-102.94000000000008
 20
29.105000000000189
 30
0.0
 11
-102.9400000000001
 21
16.215000000000202
 31
0.0
  0
LINE
  5
117
100
AcDbEntity
100
AcDbLine
  8
0
 62
256
370
-1
 48
1.0
  6
ByLayer
 10
-102.9400000000001
 20
16.215000000000202
 30
0.0
 11
-117.9400000000001
 21
16.215000000000202
 31
0.0
  0
LINE
  5
118
100
AcDbEntity
100
AcDbLine
  8
0
 62
256
370
-1
 48
1.0
  6
ByLayer
 10
-117.9400000000001
 20
16.215000000000202
 30
0.0
 11
-117.94000000000008
 21
29.105000000000189
 31
0.0
  0
LINE
  5
119
100
AcDbEntity
100
AcDbLine
  8
0
 62
256
370
-1
 48
1.0
  6
ByLayer
 10
68.224010305942528
 20
-256.43999999999994
 30
0.0
 11
68.946666666666715
 21
-248.17999999999986
 31
0.0
  0
LINE
  5
11A
100
AcDbEntity
100
AcDbLine
  8
0
 62
256
370
-1
 48
1.0
  6
ByLayer
 10
68.946666666666715
 20
-248.17999999999986
 30
0.0
 11
68.946666666666687
 21
-239.91999999999996
 31
0.0
  0
LINE
  5
11B
100
AcDbEntity
100
AcDbLine
  8
0
 62
256
370
-1
 48
1.0
  6
ByLayer
 10
68.946666666666687
 20
-239.91999999999996
 30
0.0
 11
82.386666666666741
 21
-239.92000000000004
 31
0.0
  0
LINE
  5
11C
100
AcDbEntity
100
AcDbLine
  8
0
 62
256
370
-1
 48
1.0
  6
ByLayer
 10
82.386666666666741
 20
-239.92000000000004
 30
0.0
 11
82.38666666666677
 21
-223.39999999999984
 31
0.0
  0
LINE
  5
11D
100
AcDbEntity
100
AcDbLine
  8
0
 62
256
370
-1
 48
1.0
  6
ByLayer
 10
82.38666666666677
 20
-223.39999999999984
 30
0.0
 11
75.666666666666714
 21
-223.40000000000026
 31
0.0
  0
LINE
  5
11E
100
AcDbEntity
100
AcDbLine
  8
0
 62
256
370
-1
 48
1.0
  6
ByLayer
 10
75.666666666666714
 20
-223.40000000000026
 30
0.0
 11
75.666666666666657
 21
-214.12499999999997
 31
0.0
  0
LINE
  5
11F
100
AcDbEntity
100
AcDbLine
  8
0
 62
256
370
-1
 48
1.0
  6
ByLayer
 10
75.666666666666657
 20
-214.12499999999997
 30
0.0
 11
70.886666666666684
 21
-214.12500000000011
 31
0.0
  0
LINE
  5
120
100
AcDbEntity
100
AcDbLine
  8
0
 62
256
370
-1
 48
1.0
  6
ByLayer
 10
70.886666666666684
 20
-214.12500000000011
 30
0.0
 11
70.886666666666684
 21
-215.14999999999995
 31
0.0
  0
ARC
  5
121
100
AcDbEntity
  8
0
 62
256
370
-1
 48
1.0
  6
ByLayer
100
AcDbCircle
 10
70.886666666666827
 20
-215.40000000000012
 30
0.0
 40
0.2500000000001716
100
AcDbArc
 50
180.0
 51
90.000000000032571
  0
LINE
  5
122
100
AcDbEntity
100
AcDbLine
  8
0
 62
256
370
-1
 48
1.0
  6
ByLayer
 10
70.636666666666656
 20
-215.40000000000026
 30
0.0
 11
68.636666666666684
 21
-215.40000000000006
 31
0.0
  0
ARC
  5
123
100
AcDbEntity
  8
0
 62
256
370
-1
 48
1.0
  6
ByLayer
100
AcDbCircle
 10
68.386666666666756
 20
-215.40000000000015
 30
0.0
 40
0.2499999999999289
100
AcDbArc
 50
90.000000000016286
 51
0.0
  0
LINE
  5
124
100
AcDbEntity
100
AcDbLine
  8
0
 62
256
370
-1
 48
1.0
  6
ByLayer
 10
68.386666666666684
 20
-215.1500000000002
 30
0.0
 11
68.386666666666684
 21
-214.12500000000017
 31
0.0
  0
LINE
  5
125
100
AcDbEntity
100
AcDbLine
  8
0
 62
256
370
-1
 48
1.0
  6
ByLayer
 10
68.386666666666684
 20
-214.12500000000017
 30
0.0
 11
67.386666666666684
 21
-214.12500000000003
 31
0.0
  0
LINE
  5
126
100
AcDbEntity
100
AcDbLine
  8
0
 62
256
370
-1
 48
1.0
  6
ByLayer
 10
67.386666666666684
 20
-214.12500000000003
 30
0.0
 11
67.386666666666684
 21
-210.97499999999982
 31
0.0
  0
LINE
  5
127
100
AcDbEntity
100
AcDbLine
  8
0
 62
256
370
-1
 48
1.0
  6
ByLayer
 10
67.386666666666684
 20
-210.97499999999982
 30
0.0
 11
68.386666666666684
 21
-210.97500000000025
 31
0.0
  0
LINE
  5
128
100
AcDbEntity
100
AcDbLine
  8
0
 62
256
370
-1
 48
1.0
  6
ByLayer
 10
68.386666666666684
 20
-210.97500000000025
 30
0.0
 11
68.386666666666684
 21
-209.95000000000005
 31
0.0
  0
ARC
  5
129
100
AcDbEntity
  8
0
 62
256
370
-1
 48
1.0
  6
ByLayer
100
AcDbCircle
 10
68.386666666666741
 20
-209.7000000000001
 30
0.0
 40
0.2499999999999431
100
AcDbArc
 50
360.0
 51
269.99999999998698
  0
LINE
  5
12A
100
AcDbEntity
100
AcDbLine
  8
0
 62
256
370
-1
 48
1.0
  6
ByLayer
 10
68.636666666666684
 20
-209.70000000000016
 30
0.0
 11
70.636666666666684
 21
-209.69999999999996
 31
0.0
  0
ARC
  5
12B
100
AcDbEntity
  8
0
 62
256
370
-1
 48
1.0
  6
ByLayer
100
AcDbCircle
 10
70.886666666666699
 20
-209.69999999999999
 30
0.0
 40
0.2500000000000142
100
AcDbArc
 50
269.99999999999676
 51
180.0
  0
LINE
  5
12C
100
AcDbEntity
100
AcDbLine
  8
0
 62
256
370
-1
 48
1.0
  6
ByLayer
 10
70.886666666666684
 20
-209.94999999999999
 30
0.0
 11
70.886666666666684
 21
-210.97500000000019
 31
0.0
  0
LINE
  5
12D
100
AcDbEntity
100
AcDbLine
  8
0
 62
256
370
-1
 48
1.0
  6
ByLayer
 10
70.886666666666684
 20
-210.97500000000019
 30
0.0
 11
75.666666666666657
 21
-210.97499999999999
 31
0.0
  0
LINE
  5
12E
100
AcDbEntity
100
AcDbLine
  8
0
 62
256
370
-1
 48
1.0
  6
ByLayer
 10
75.666666666666657
 20
-210.97499999999999
 30
0.0
 11
75.666666666666714
 21
-200.15999999999991
 31
0.0
  0
LINE
  5
12F
100
AcDbEntity
100
AcDbLine
  8
0
 62
256
370
-1
 48
1.0
  6
ByLayer
 10
75.666666666666714
 20
-200.15999999999991
 30
0.0
 11
15.333333333333385
 21
-200.15999999999988
 31
0.0
  0
LINE
  5
130
100
AcDbEntity
100
AcDbLine
  8
0
 62
256
370
-1
 48
1.0
  6
ByLayer
 10
15.333333333333385
 20
-200.15999999999988
 30
0.0
 11
15.333333333333385
 21
-206.87999999999991
 31
0.0
  0
LINE
  5
131
100
AcDbEntity
100
AcDbLine
  8
0
 62
256
370
-1
 48
1.0
  6
ByLayer
 10
15.333333333333385
 20
-206.87999999999991
 30
0.0
 11
-13.258333333333297
 21
-206.87999999999985
 31
0.0
  0
LINE
  5
132
100
AcDbEntity
100
AcDbLine
  8
0
 62
256
370
-1
 48
1.0
  6
ByLayer
 10
-13.258333333333297
 20
-206.87999999999985
 30
0.0
 11
-13.258333333333312
 21
-211.66
 31
0.0
  0
LINE
  5
133
100
AcDbEntity
100
AcDbLine
  8
0
 62
256
370
-1
 48
1.0
  6
ByLayer
 10
-13.258333333333312
 20
-211.66
 30
0.0
 11
-12.233333333333292
 21
-211.65999999999985
 31
0.0
  0
ARC
  5
134
100
AcDbEntity
  8
0
 62
256
370
-1
 48
1.0
  6
ByLayer
100
AcDbCircle
 10
-11.983333333333276
 20
-211.65999999999985
 30
0.0
 40
0.2500000000000164
100
AcDbArc
 50
269.99999999999631
 51
180.0
  0
LINE
  5
135
100
AcDbEntity
100
AcDbLine
  8
0
 62
256
370
-1
 48
1.0
  6
ByLayer
 10
-11.983333333333292
 20
-211.90999999999988
 30
0.0
 11
-11.983333333333306
 21
-213.91
 31
0.0
  0
ARC
  5
136
100
AcDbEntity
  8
0
 62
256
370
-1
 48
1.0
  6
ByLayer
100
AcDbCircle
 10
-11.983333333333384
 20
-214.15999999999991
 30
0.0
 40
0.2499999999999076
100
AcDbArc
 50
180.0
 51
89.99999999998208
  0
LINE
  5
137
100
AcDbEntity
100
AcDbLine
  8
0
 62
256
370
-1
 48
1.0
  6
ByLayer
 10
-12.233333333333292
 20
-214.15999999999983
 30
0.0
 11
-13.258333333333297
 21
-214.15999999999991
 31
0.0
  0
LINE
  5
138
100
AcDbEntity
100
AcDbLine
  8
0
 62
256
370
-1
 48
1.0
  6
ByLayer
 10
-13.258333333333297
 20
-214.15999999999991
 30
0.0
 11
-13.258333333333297
 21
-215.15999999999991
 31
0.0
  0
LINE
  5
139
100
AcDbEntity
100
AcDbLine
  8
0
 62
256
370
-1
 48
1.0
  6
ByLayer
 10
-13.258333333333297
 20
-215.15999999999991
 30
0.0
 11
-16.408333333333289
 21
-215.15999999999991
 31
0.0
  0
LINE
  5
13A
100
AcDbEntity
100
AcDbLine
  8
0
 62
256
370
-1
 48
1.0
  6
ByLayer
 10
-16.408333333333289
 20
-215.15999999999991
 30
0.0
 11
-16.408333333333289
 21
-214.15999999999994
 31
0.0
  0
LINE
  5
13B
100
AcDbEntity
100
AcDbLine
  8
0
 62
256
370
-1
 48
1.0
  6
ByLayer
 10
-16.408333333333289
 20
-214.15999999999994
 30
0.0
 11
-17.433333333333309
 21
-214.15999999999994
 31
0.0
  0
ARC
  5
13C
100
AcDbEntity
  8
0
 62
256
370
-1
 48
1.0
  6
ByLayer
100
AcDbCircle
 10
-17.683333333333273
 20
-214.15999999999997
 30
0.0
 40
0.2499999999999645
100
AcDbArc
 50
90.000000000011397
 51
0.0
  0
LINE
  5
13D
100
AcDbEntity
100
AcDbLine
  8
0
 62
256
370
-1
 48
1.0
  6
ByLayer
 10
-17.683333333333323
 20
-213.91000000000003
 30
0.0
 11
-17.683333333333294
 21
-211.90999999999994
 31
0.0
  0
ARC
  5
13E
100
AcDbEntity
  8
0
 62
256
370
-1
 48
1.0
  6
ByLayer
100
AcDbCircle
 10
-17.68333333333328
 20
-211.65999999999997
 30
0.0
 40
0.2499999999999858
100
AcDbArc
 50
0.0
 51
269.99999999999676
  0
LINE
  5
13F
100
AcDbEntity
100
AcDbLine
  8
0
 62
256
370
-1
 48
1.0
  6
ByLayer
 10
-17.433333333333294
 20
-211.65999999999997
 30
0.0
 11
-16.408333333333289
 21
-211.66000000000003
 31
0.0
  0
LINE
  5
140
100
AcDbEntity
100
AcDbLine
  8
0
 62
256
370
-1
 48
1.0
  6
ByLayer
 10
-16.408333333333289
 20
-211.66000000000003
 30
0.0
 11
-16.408333333333289
 21
-206.87999999999997
 31
0.0
  0
LINE
  5
141
100
AcDbEntity
100
AcDbLine
  8
0
 62
256
370
-1
 48
1.0
  6
ByLayer
 10
-16.408333333333289
 20
-206.87999999999997
 30
0.0
 11
-45.000000000000014
 21
-206.87999999999988
 31
0.0
  0
LINE
  5
142
100
AcDbEntity
100
AcDbLine
  8
0
 62
256
370
-1
 48
1.0
  6
ByLayer
 10
-45.000000000000014
 20
-206.87999999999988
 30
0.0
 11
-45.0
 21
-200.15999999999988
 31
0.0
  0
LINE
  5
143
100
AcDbEntity
100
AcDbLine
  8
0
 62
256
370
-1
 48
1.0
  6
ByLayer
 10
-105.33333333333334
 20
-200.15999999999985
 30
0.0
 11
-105.33333333333333
 21
-210.97499999999997
 31
0.0
  0
LINE
  5
144
100
AcDbEntity
100
AcDbLine
  8
0
 62
256
370
-1
 48
1.0
  6
ByLayer
 10
-105.33333333333333
 20
-210.97499999999997
 30
0.0
 11
-100.55333333333333
 21
-210.97499999999997
 31
0.0
  0
LINE
  5
145
100
AcDbEntity
100
AcDbLine
  8
0
 62
256
370
-1
 48
1.0
  6
ByLayer
 10
-100.55333333333333
 20
-210.97499999999997
 30
0.0
 11
-100.55333333333333
 21
-209.94999999999999
 31
0.0
  0
ARC
  5
146
100
AcDbEntity
  8
0
 62
256
370
-1
 48
1.0
  6
ByLayer
100
AcDbCircle
 10
-100.55333333333333
 20
-209.69999999999999
 30
0.0
 40
0.25
100
AcDbArc
 50
0.0
 51
270.0
  0
LINE
  5
147
100
AcDbEntity
100
AcDbLine
  8
0
 62
256
370
-1
 48
1.0
  6
ByLayer
 10
-100.30333333333333
 20
-209.69999999999999
 30
0.0
 11
-98.303333333333342
 21
-209.69999999999996
 31
0.0
  0
ARC
  5
148
100
AcDbEntity
  8
0
 62
256
370
-1
 48
1.0
  6
ByLayer
100
AcDbCircle
 10
-98.053333333333342
 20
-209.69999999999996
 30
0.0
 40
0.2500000000000071
100
AcDbArc
 50
270.00000000000324
 51
180.0
  0
LINE
  5
149
100
AcDbEntity
100
AcDbLine
  8
0
 62
256
370
-1
 48
1.0
  6
ByLayer
 10
-98.053333333333327
 20
-209.94999999999996
 30
0.0
 11
-98.053333333333327
 21
-210.97499999999999
 31
0.0
  0
LINE
  5
14A
100
AcDbEntity
100
AcDbLine
  8
0
 62
256
370
-1
 48
1.0
  6
ByLayer
 10
-98.053333333333327
 20
-210.97499999999999
 30
0.0
 11
-97.053333333333342
 21
-210.97499999999997
 31
0.0
  0
LINE
  5
14B
100
AcDbEntity
100
AcDbLine
  8
0
 62
256
370
-1
 48
1.0
  6
ByLayer
 10
-97.053333333333342
 20
-210.97499999999997
 30
0.0
 11
-97.053333333333342
 21
-214.12499999999997
 31
0.0
  0
LINE
  5
14C
100
AcDbEntity
100
AcDbLine
  8
0
 62
256
370
-1
 48
1.0
  6
ByLayer
 10
-97.053333333333342
 20
-214.12499999999997
 30
0.0
 11
-98.053333333333327
 21
-214.12499999999997
 31
0.0
  0
LINE
  5
14D
100
AcDbEntity
100
AcDbLine
  8
0
 62
256
370
-1
 48
1.0
  6
ByLayer
 10
-98.053333333333327
 20
-214.12499999999997
 30
0.0
 11
-98.053333333333342
 21
-215.14999999999998
 31
0.0
  0
ARC
  5
14E
100
AcDbEntity
  8
0
 62
256
370
-1
 48
1.0
  6
ByLayer
100
AcDbCircle
 10
-98.053333333333342
 20
-215.39999999999998
 30
0.0
 40
0.25
100
AcDbArc
 50
180.0
 51
90.0
  0
LINE
  5
14F
100
AcDbEntity
100
AcDbLine
  8
0
 62
256
370
-1
 48
1.0
  6
ByLayer
 10
-98.303333333333342
 20
-215.39999999999998
 30
0.0
 11
-100.30333333333333
 21
-215.39999999999998
 31
0.0
  0
ARC
  5
150
100
AcDbEntity
  8
0
 62
256
370
-1
 48
1.0
  6
ByLayer
100
AcDbCircle
 10
-100.55333333333333
 20
-215.39999999999998
 30
0.0
 40
0.2500000000000011
100
AcDbArc
 50
90.0
 51
0.0
  0
LINE
  5
151
100
AcDbEntity
100
AcDbLine
  8
0
 62
256
370
-1
 48
1.0
  6
ByLayer
 10
-100.55333333333333
 20
-215.14999999999998
 30
0.0
 11
-100.55333333333333
 21
-214.12499999999997
 31
0.0
  0
LINE
  5
152
100
AcDbEntity
100
AcDbLine
  8
0
 62
256
370
-1
 48
1.0
  6
ByLayer
 10
-100.55333333333333
 20
-214.12499999999997
 30
0.0
 11
-105.33333333333333
 21
-214.12499999999997
 31
0.0
  0
LINE
  5
153
100
AcDbEntity
100
AcDbLine
  8
0
 62
256
370
-1
 48
1.0
  6
ByLayer
 10
-105.33333333333333
 20
-214.12499999999997
 30
0.0
 11
-105.33333333333333
 21
-223.39999999999986
 31
0.0
  0
LINE
  5
154
100
AcDbEntity
100
AcDbLine
  8
0
 62
256
370
-1
 48
1.0
  6
ByLayer
 10
-105.33333333333333
 20
-223.39999999999986
 30
0.0
 11
-112.05333333333334
 21
-223.39999999999986
 31
0.0
  0
LINE
  5
155
100
AcDbEntity
100
AcDbLine
  8
0
 62
256
370
-1
 48
1.0
  6
ByLayer
 10
-112.05333333333334
 20
-223.39999999999986
 30
0.0
 11
-112.05333333333338
 21
-239.91999999999985
 31
0.0
  0
LINE
  5
156
100
AcDbEntity
100
AcDbLine
  8
0
 62
256
370
-1
 48
1.0
  6
ByLayer
 10
-112.05333333333338
 20
-239.91999999999985
 30
0.0
 11
-98.613333333333372
 21
-239.9199999999999
 31
0.0
  0
LINE
  5
157
100
AcDbEntity
100
AcDbLine
  8
0
 62
256
370
-1
 48
1.0
  6
ByLayer
 10
-98.613333333333372
 20
-239.9199999999999
 30
0.0
 11
-98.613333333333372
 21
-248.17999999999989
 31
0.0
  0
LINE
  5
158
100
AcDbEntity
100
AcDbLine
  8
0
 62
256
370
-1
 48
1.0
  6
ByLayer
 10
-98.613333333333372
 20
-248.17999999999989
 30
0.0
 11
-97.890676972609214
 21
-256.43999999999988
 31
0.0
  0
LINE
  5
159
100
AcDbEntity
100
AcDbLine
  8
0
 62
256
370
-1
 48
1.0
  6
ByLayer
 10
-152.50000000000009
 20
-170.62666666666658
 30
0.0
 11
-152.50000000000006
 21
-147.8133333333333
 31
0.0
  0
LINE
  5
15A
100
AcDbEntity
100
AcDbLine
  8
0
 62
256
370
-1
 48
1.0
  6
ByLayer
 10
-152.50000000000006
 20
-147.8133333333333
 30
0.0
 11
-145.78000000000006
 21
-147.81333333333325
 31
0.0
  0
LINE
  5
15B
100
AcDbEntity
100
AcDbLine
  8
0
 62
256
370
-1
 48
1.0
  6
ByLayer
 10
-145.78000000000006
 20
-147.81333333333325
 30
0.0
 11
-145.78000000000009
 21
-170.62666666666661
 31
0.0
  0
LINE
  5
15C
100
AcDbEntity
100
AcDbLine
  8
0
 62
256
370
-1
 48
1.0
  6
ByLayer
 10
-145.78000000000009
 20
-170.62666666666661
 30
0.0
 11
-152.50000000000009
 21
-170.62666666666658
 31
0.0
  0
LINE
  5
15D
100
AcDbEntity
100
AcDbLine
  8
0
 62
256
370
-1
 48
1.0
  6
ByLayer
 10
21.779999999999887
 20
-170.62666666666689
 30
0.0
 11
21.779999999999916
 21
-147.81333333333333
 31
0.0
  0
LINE
  5
15E
100
AcDbEntity
100
AcDbLine
  8
0
 62
256
370
-1
 48
1.0
  6
ByLayer
 10
21.779999999999916
 20
-147.81333333333333
 30
0.0
 11
28.499999999999915
 21
-147.81333333333322
 31
0.0
  0
LINE
  5
15F
100
AcDbEntity
100
AcDbLine
  8
0
 62
256
370
-1
 48
1.0
  6
ByLayer
 10
28.499999999999915
 20
-147.81333333333322
 30
0.0
 11
28.499999999999915
 21
-170.62666666666675
 31
0.0
  0
LINE
  5
160
100
AcDbEntity
100
AcDbLine
  8
0
 62
256
370
-1
 48
1.0
  6
ByLayer
 10
28.499999999999915
 20
-170.62666666666675
 30
0.0
 11
21.779999999999887
 21
-170.62666666666689
 31
0.0
  0
LINE
  5
161
100
AcDbEntity
100
AcDbLine
  8
0
 62
256
370
-1
 48
1.0
  6
ByLayer
 10
-75.000000000000085
 20
-131.71999999999997
 30
0.0
 11
-75.000000000000057
 21
-125.00000000000003
 31
0.0
  0
LINE
  5
162
100
AcDbEntity
100
AcDbLine
  8
0
 62
256
370
-1
 48
1.0
  6
ByLayer
 10
-75.000000000000057
 20
-125.00000000000003
 30
0.0
 11
-49.000000000000085
 21
-125.00000000000003
 31
0.0
  0
LINE
  5
163
100
AcDbEntity
100
AcDbLine
  8
0
 62
256
370
-1
 48
1.0
  6
ByLayer
 10
-49.000000000000085
 20
-125.00000000000003
 30
0.0
 11
-49.000000000000085
 21
-131.7200000000004
 31
0.0
  0
LINE
  5
164
100
AcDbEntity
100
AcDbLine
  8
0
 62
256
370
-1
 48
1.0
  6
ByLayer
 10
-49.000000000000085
 20
-131.7200000000004
 30
0.0
 11
-75.000000000000085
 21
-131.71999999999997
 31
0.0
  0
LINE
  5
165
100
AcDbEntity
100
AcDbLine
  8
0
 62
256
370
-1
 48
1.0
  6
ByLayer
 10
-185.28000000000011
 20
-157.64500000000004
 30
0.0
 11
-180.50000000000009
 21
-157.64500000000004
 31
0.0
  0
LINE
  5
166
100
AcDbEntity
100
AcDbLine
  8
0
 62
256
370
-1
 48
1.0
  6
ByLayer
 10
-180.50000000000009
 20
-157.64500000000004
 30
0.0
 11
-180.50000000000006
 21
-156.62000000000003
 31
0.0
  0
ARC
  5
167
100
AcDbEntity
  8
0
 62
256
370
-1
 48
1.0
  6
ByLayer
100
AcDbCircle
 10
-180.50000000000006
 20
-156.37000000000006
 30
0.0
 40
0.2499999999999854
100
AcDbArc
 50
0.0
 51
270.0
  0
LINE
  5
168
100
AcDbEntity
100
AcDbLine
  8
0
 62
256
370
-1
 48
1.0
  6
ByLayer
 10
-180.25000000000009
 20
-156.37000000000003
 30
0.0
 11
-178.25000000000009
 21
-156.37000000000003
 31
0.0
  0
ARC
  5
169
100
AcDbEntity
  8
0
 62
256
370
-1
 48
1.0
  6
ByLayer
100
AcDbCircle
 10
-178.00000000000009
 20
-156.37000000000003
 30
0.0
 40
0.25
100
AcDbArc
 50
270.0
 51
180.0
  0
LINE
  5
16A
100
AcDbEntity
100
AcDbLine
  8
0
 62
256
370
-1
 48
1.0
  6
ByLayer
 10
-178.00000000000009
 20
-156.62000000000003
 30
0.0
 11
-178.00000000000009
 21
-157.64500000000004
 31
0.0
  0
LINE
  5
16B
100
AcDbEntity
100
AcDbLine
  8
0
 62
256
370
-1
 48
1.0
  6
ByLayer
 10
-178.00000000000009
 20
-157.64500000000004
 30
0.0
 11
-177.00000000000009
 21
-157.64500000000004
 31
0.0
  0
LINE
  5
16C
100
AcDbEntity
100
AcDbLine
  8
0
 62
256
370
-1
 48
1.0
  6
ByLayer
 10
-177.00000000000009
 20
-157.64500000000004
 30
0.0
 11
-177.00000000000009
 21
-160.79500000000004
 31
0.0
  0
LINE
  5
16D
100
AcDbEntity
100
AcDbLine
  8
0
 62
256
370
-1
 48
1.0
  6
ByLayer
 10
-177.00000000000009
 20
-160.79500000000004
 30
0.0
 11
-178.00000000000011
 21
-160.79500000000004
 31
0.0
  0
LINE
  5
16E
100
AcDbEntity
100
AcDbLine
  8
0
 62
256
370
-1
 48
1.0
  6
ByLayer
 10
-178.00000000000011
 20
-160.79500000000004
 30
0.0
 11
-178.00000000000009
 21
-161.82000000000005
 31
0.0
  0
ARC
  5
16F
100
AcDbEntity
  8
0
 62
256
370
-1
 48
1.0
  6
ByLayer
100
AcDbCircle
 10
-178.00000000000009
 20
-162.07000000000005
 30
0.0
 40
0.25
100
AcDbArc
 50
180.0
 51
90.0
  0
LINE
  5
170
100
AcDbEntity
100
AcDbLine
  8
0
 62
256
370
-1
 48
1.0
  6
ByLayer
 10
-178.25000000000009
 20
-162.07000000000005
 30
0.0
 11
-180.25000000000011
 21
-162.07000000000005
 31
0.0
  0
ARC
  5
171
100
AcDbEntity
  8
0
 62
256
370
-1
 48
1.0
  6
ByLayer
100
AcDbCircle
 10
-180.50000000000011
 20
-162.07000000000005
 30
0.0
 40
0.25
100
AcDbArc
 50
90.0
 51
0.0
  0
LINE
  5
172
100
AcDbEntity
100
AcDbLine
  8
0
 62
256
370
-1
 48
1.0
  6
ByLayer
 10
-180.50000000000011
 20
-161.82000000000005
 30
0.0
 11
-180.50000000000009
 21
-160.79500000000004
 31
0.0
  0
LINE
  5
173
100
AcDbEntity
100
AcDbLine
  8
0
 62
256
370
-1
 48
1.0
  6
ByLayer
 10
-180.50000000000009
 20
-160.79500000000004
 30
0.0
 11
-185.28000000000009
 21
-160.79500000000004
 31
0.0
  0
LINE
  5
174
100
AcDbEntity
100
AcDbLine
  8
0
 62
256
370
-1
 48
1.0
  6
ByLayer
 10
-185.28000000000009
 20
-160.79500000000004
 30
0.0
 11
-185.28000000000009
 21
-170.62666666666672
 31
0.0
  0
LINE
  5
175
100
AcDbEntity
100
AcDbLine
  8
0
 62
256
370
-1
 48
1.0
  6
ByLayer
 10
-185.28000000000009
 20
-170.62666666666672
 30
0.0
 11
-192.00000000000009
 21
-170.62666666666672
 31
0.0
  0
LINE
  5
176
100
AcDbEntity
100
AcDbLine
  8
0
 62
256
370
-1
 48
1.0
  6
ByLayer
 10
-192.00000000000009
 20
-170.62666666666672
 30
0.0
 11
-192.00000000000009
 21
-193.44
 31
0.0
  0
LINE
  5
177
100
AcDbEntity
100
AcDbLine
  8
0
 62
256
370
-1
 48
1.0
  6
ByLayer
 10
-192.00000000000009
 20
-193.44
 30
0.0
 11
-173.82500000000007
 21
-193.44000000000005
 31
0.0
  0
LINE
  5
178
100
AcDbEntity
100
AcDbLine
  8
0
 62
256
370
-1
 48
1.0
  6
ByLayer
 10
-173.82500000000007
 20
-193.44000000000005
 30
0.0
 11
-173.82500000000007
 21
-188.66000000000003
 31
0.0
  0
LINE
  5
179
100
AcDbEntity
100
AcDbLine
  8
0
 62
256
370
-1
 48
1.0
  6
ByLayer
 10
-173.82500000000007
 20
-188.66000000000003
 30
0.0
 11
-174.85000000000011
 21
-188.66000000000005
 31
0.0
  0
ARC
  5
17A
100
AcDbEntity
  8
0
 62
256
370
-1
 48
1.0
  6
ByLayer
100
AcDbCircle
 10
-175.10000000000008
 20
-188.66000000000003
 30
0.0
 40
0.2499999999999858
100
AcDbArc
 50
90.0
 51
360.0
  0
LINE
  5
17B
100
AcDbEntity
100
AcDbLine
  8
0
 62
256
370
-1
 48
1.0
  6
ByLayer
 10
-175.10000000000008
 20
-188.41000000000005
 30
0.0
 11
-175.10000000000008
 21
-186.41000000000005
 31
0.0
  0
ARC
  5
17C
100
AcDbEntity
  8
0
 62
256
370
-1
 48
1.0
  6
ByLayer
100
AcDbCircle
 10
-175.10000000000002
 20
-186.16000000000003
 30
0.0
 40
0.2500000000000426
100
AcDbArc
 50
360.0
 51
269.99999999998698
  0
LINE
  5
17D
100
AcDbEntity
100
AcDbLine
  8
0
 62
256
370
-1
 48
1.0
  6
ByLayer
 10
-174.84999999999999
 20
-186.16000000000005
 30
0.0
 11
-173.8250000000001
 21
-186.16000000000005
 31
0.0
  0
LINE
  5
17E
100
AcDbEntity
100
AcDbLine
  8
0
 62
256
370
-1
 48
1.0
  6
ByLayer
 10
-173.8250000000001
 20
-186.16000000000005
 30
0.0
 11
-173.82500000000007
 21
-185.16000000000005
 31
0.0
  0
LINE
  5
17F
100
AcDbEntity
100
AcDbLine
  8
0
 62
256
370
-1
 48
1.0
  6
ByLayer
 10
-173.82500000000007
 20
-185.16000000000005
 30
0.0
 11
-170.67500000000013
 21
-185.16000000000005
 31
0.0
  0
LINE
  5
180
100
AcDbEntity
100
AcDbLine
  8
0
 62
256
370
-1
 48
1.0
  6
ByLayer
 10
-170.67500000000013
 20
-185.16000000000005
 30
0.0
 11
-170.67500000000013
 21
-186.16000000000008
 31
0.0
  0
LINE
  5
181
100
AcDbEntity
100
AcDbLine
  8
0
 62
256
370
-1
 48
1.0
  6
ByLayer
 10
-170.67500000000013
 20
-186.16000000000008
 30
0.0
 11
-169.65000000000012
 21
-186.16000000000005
 31
0.0
  0
ARC
  5
182
100
AcDbEntity
  8
0
 62
256
370
-1
 48
1.0
  6
ByLayer
100
AcDbCircle
 10
-169.40000000000006
 20
-186.16
 30
0.0
 40
0.2500000000000568
100
AcDbArc
 50
270.00000000001302
 51
180.0
  0
LINE
  5
183
100
AcDbEntity
100
AcDbLine
  8
0
 62
256
370
-1
 48
1.0
  6
ByLayer
 10
-169.40000000000001
 20
-186.41000000000005
 30
0.0
 11
-169.40000000000009
 21
-188.41000000000005
 31
0.0
  0
ARC
  5
184
100
AcDbEntity
  8
0
 62
256
370
-1
 48
1.0
  6
ByLayer
100
AcDbCircle
 10
-169.40000000000009
 20
-188.66000000000003
 30
0.0
 40
0.2499999999999858
100
AcDbArc
 50
180.0
 51
90.0
  0
LINE
  5
185
100
AcDbEntity
100
AcDbLine
  8
0
 62
256
370
-1
 48
1.0
  6
ByLayer
 10
-169.65000000000006
 20
-188.66000000000005
 30
0.0
 11
-170.6750000000001
 21
-188.66000000000005
 31
0.0
  0
LINE
  5
186
100
AcDbEntity
100
AcDbLine
  8
0
 62
256
370
-1
 48
1.0
  6
ByLayer
 10
-170.6750000000001
 20
-188.66000000000005
 30
0.0
 11
-170.6750000000001
 21
-193.44000000000005
 31
0.0
  0
LINE
  5
187
100
AcDbEntity
100
AcDbLine
  8
0
 62
256
370
-1
 48
1.0
  6
ByLayer
 10
-170.6750000000001
 20
-193.44000000000005
 30
0.0
 11
-126.65833333333349
 21
-193.44000000000011
 31
0.0
  0
LINE
  5
188
100
AcDbEntity
100
AcDbLine
  8
0
 62
256
370
-1
 48
1.0
  6
ByLayer
 10
-126.65833333333349
 20
-193.44000000000011
 30
0.0
 11
-126.65833333333345
 21
-188.66000000000005
 31
0.0
  0
LINE
  5
189
100
AcDbEntity
100
AcDbLine
  8
0
 62
256
370
-1
 48
1.0
  6
ByLayer
 10
-126.65833333333345
 20
-188.66000000000005
 30
0.0
 11
-127.68333333333345
 21
-188.66000000000005
 31
0.0
  0
ARC
  5
18A
100
AcDbEntity
  8
0
 62
256
370
-1
 48
1.0
  6
ByLayer
100
AcDbCircle
 10
-127.93333333333345
 20
-188.66000000000005
 30
0.0
 40
0.25
100
AcDbArc
 50
90.0
 51
0.0
  0
LINE
  5
18B
100
AcDbEntity
100
AcDbLine
  8
0
 62
256
370
-1
 48
1.0
  6
ByLayer
 10
-127.93333333333345
 20
-188.41000000000005
 30
0.0
 11
-127.93333333333347
 21
-186.41000000000008
 31
0.0
  0
ARC
  5
18C
100
AcDbEntity
  8
0
 62
256
370
-1
 48
1.0
  6
ByLayer
100
AcDbCircle
 10
-127.93333333333347
 20
-186.16000000000008
 30
0.0
 40
0.2500000000000284
100
AcDbArc
 50
0.0
 51
270.0
  0
LINE
  5
18D
100
AcDbEntity
100
AcDbLine
  8
0
 62
256
370
-1
 48
1.0
  6
ByLayer
 10
-127.68333333333344
 20
-186.16000000000005
 30
0.0
 11
-126.6583333333334
 21
-186.16000000000003
 31
0.0
  0
LINE
  5
18E
100
AcDbEntity
100
AcDbLine
  8
0
 62
256
370
-1
 48
1.0
  6
ByLayer
 10
-126.6583333333334
 20
-186.16000000000003
 30
0.0
 11
-126.65833333333345
 21
-185.16000000000005
 31
0.0
  0
LINE
  5
18F
100
AcDbEntity
100
AcDbLine
  8
0
 62
256
370
-1
 48
1.0
  6
ByLayer
 10
-126.65833333333345
 20
-185.16000000000005
 30
0.0
 11
-123.50833333333338
 21
-185.16000000000003
 31
0.0
  0
LINE
  5
190
100
AcDbEntity
100
AcDbLine
  8
0
 62
256
370
-1
 48
1.0
  6
ByLayer
 10
-123.50833333333338
 20
-185.16000000000003
 30
0.0
 11
-123.50833333333345
 21
-186.16000000000011
 31
0.0
  0
LINE
  5
191
100
AcDbEntity
100
AcDbLine
  8
0
 62
256
370
-1
 48
1.0
  6
ByLayer
 10
-123.50833333333345
 20
-186.16000000000011
 30
0.0
 11
-122.48333333333345
 21
-186.16000000000005
 31
0.0
  0
ARC
  5
192
100
AcDbEntity
  8
0
 62
256
370
-1
 48
1.0
  6
ByLayer
100
AcDbCircle
 10
-122.23333333333346
 20
-186.16
 30
0.0
 40
0.2499999999999929
100
AcDbArc
 50
270.00000000001302
 51
180.0
  0
LINE
  5
193
100
AcDbEntity
100
AcDbLine
  8
0
 62
256
370
-1
 48
1.0
  6
ByLayer
 10
-122.23333333333341
 20
-186.41
 30
0.0
 11
-122.23333333333348
 21
-188.41000000000011
 31
0.0
  0
ARC
  5
194
100
AcDbEntity
  8
0
 62
256
370
-1
 48
1.0
  6
ByLayer
100
AcDbCircle
 10
-122.23333333333349
 20
-188.66000000000005
 30
0.0
 40
0.2499999999999289
100
AcDbArc
 50
180.0
 51
89.999999999996746
  0
LINE
  5
195
100
AcDbEntity
100
AcDbLine
  8
0
 62
256
370
-1
 48
1.0
  6
ByLayer
 10
-122.48333333333342
 20
-188.66000000000003
 30
0.0
 11
-123.50833333333341
 21
-188.66000000000003
 31
0.0
  0
LINE
  5
196
100
AcDbEntity
100
AcDbLine
  8
0
 62
256
370
-1
 48
1.0
  6
ByLayer
 10
-123.50833333333341
 20
-188.66000000000003
 30
0.0
 11
-123.50833333333341
 21
-193.44000000000005
 31
0.0
  0
LINE
  5
197
100
AcDbEntity
100
AcDbLine
  8
0
 62
256
370
-1
 48
1.0
  6
ByLayer
 10
-123.50833333333341
 20
-193.44000000000005
 30
0.0
 11
-105.33333333333346
 21
-193.44000000000008
 31
0.0
  0
LINE
  5
198
100
AcDbEntity
100
AcDbLine
  8
0
 62
256
370
-1
 48
1.0
  6
ByLayer
 10
-105.33333333333346
 20
-193.44000000000008
 30
0.0
 11
-105.33333333333337
 21
-200.15999999999997
 31
0.0
  0
LINE
  5
199
100
AcDbEntity
100
AcDbLine
  8
0
 62
256
370
-1
 48
1.0
  6
ByLayer
 10
-105.33333333333337
 20
-200.15999999999997
 30
0.0
 11
-18.666666666666828
 21
-200.16000000000017
 31
0.0
  0
LINE
  5
19A
100
AcDbEntity
100
AcDbLine
  8
0
 62
256
370
-1
 48
1.0
  6
ByLayer
 10
-18.666666666666828
 20
-200.16000000000017
 30
0.0
 11
-18.666666666666799
 21
-193.44000000000014
 31
0.0
  0
LINE
  5
19B
100
AcDbEntity
100
AcDbLine
  8
0
 62
256
370
-1
 48
1.0
  6
ByLayer
 10
-18.666666666666799
 20
-193.44000000000014
 30
0.0
 11
-0.4916666666667595
 21
-193.44000000000011
 31
0.0
  0
LINE
  5
19C
100
AcDbEntity
100
AcDbLine
  8
0
 62
256
370
-1
 48
1.0
  6
ByLayer
 10
-0.4916666666667595
 20
-193.44000000000011
 30
0.0
 11
-0.4916666666667311
 21
-188.65999999999997
 31
0.0
  0
LINE
  5
19D
100
AcDbEntity
100
AcDbLine
  8
0
 62
256
370
-1
 48
1.0
  6
ByLayer
 10
-0.4916666666667311
 20
-188.65999999999997
 30
0.0
 11
-1.5166666666667368
 21
-188.66000000000005
 31
0.0
  0
ARC
  5
19E
100
AcDbEntity
  8
0
 62
256
370
-1
 48
1.0
  6
ByLayer
100
AcDbCircle
 10
-1.7666666666667368
 20
-188.66000000000008
 30
0.0
 40
0.25
100
AcDbArc
 50
90.000000000006509
 51
0.0
  0
LINE
  5
19F
100
AcDbEntity
100
AcDbLine
  8
0
 62
256
370
-1
 48
1.0
  6
ByLayer
 10
-1.7666666666667652
 20
-188.41000000000008
 30
0.0
 11
-1.7666666666667368
 21
-186.41000000000003
 31
0.0
  0
ARC
  5
1A0
100
AcDbEntity
  8
0
 62
256
370
-1
 48
1.0
  6
ByLayer
100
AcDbCircle
 10
-1.7666666666667084
 20
-186.16000000000003
 30
0.0
 40
0.25
100
AcDbArc
 50
360.0
 51
269.99999999999346
  0
LINE
  5
1A1
100
AcDbEntity
100
AcDbLine
  8
0
 62
256
370
-1
 48
1.0
  6
ByLayer
 10
-1.5166666666667084
 20
-186.16000000000005
 30
0.0
 11
-0.4916666666667595
 21
-186.16000000000003
 31
0.0
  0
LINE
  5
1A2
100
AcDbEntity
100
AcDbLine
  8
0
 62
256
370
-1
 48
1.0
  6
ByLayer
 10
-0.4916666666667595
 20
-186.16000000000003
 30
0.0
 11
-0.4916666666667879
 21
-185.16000000000011
 31
0.0
  0
LINE
  5
1A3
100
AcDbEntity
100
AcDbLine
  8
0
 62
256
370
-1
 48
1.0
  6
ByLayer
 10
-0.4916666666667879
 20
-185.16000000000011
 30
0.0
 11
2.6583333333332462
 21
-185.16000000000008
 31
0.0
  0
LINE
  5
1A4
100
AcDbEntity
100
AcDbLine
  8
0
 62
256
370
-1
 48
1.0
  6
ByLayer
 10
2.6583333333332462
 20
-185.16000000000008
 30
0.0
 11
2.6583333333332746
 21
-186.16000000000005
 31
0.0
  0
LINE
  5
1A5
100
AcDbEntity
100
AcDbLine
  8
0
 62
256
370
-1
 48
1.0
  6
ByLayer
 10
2.6583333333332746
 20
-186.16000000000005
 30
0.0
 11
3.6833333333332803
 21
-186.16
 31
0.0
  0
ARC
  5
1A6
100
AcDbEntity
  8
0
 62
256
370
-1
 48
1.0
  6
ByLayer
100
AcDbCircle
 10
3.9333333333332519
 20
-186.15999999999997
 30
0.0
 40
0.2499999999999716
100
AcDbArc
 50
270.00000000000654
 51
180.0
  0
LINE
  5
1A7
100
AcDbEntity
100
AcDbLine
  8
0
 62
256
370
-1
 48
1.0
  6
ByLayer
 10
3.9333333333332803
 20
-186.40999999999994
 30
0.0
 11
3.9333333333332803
 21
-188.41
 31
0.0
  0
ARC
  5
1A8
100
AcDbEntity
  8
0
 62
256
370
-1
 48
1.0
  6
ByLayer
100
AcDbCircle
 10
3.9333333333333229
 20
-188.66000000000011
 30
0.0
 40
0.2500000000000995
100
AcDbArc
 50
180.0
 51
90.000000000009777
  0
LINE
  5
1A9
100
AcDbEntity
100
AcDbLine
  8
0
 62
256
370
-1
 48
1.0
  6
ByLayer
 10
3.6833333333332234
 20
-188.66000000000014
 30
0.0
 11
2.6583333333332462
 21
-188.66000000000014
 31
0.0
  0
LINE
  5
1AA
100
AcDbEntity
100
AcDbLine
  8
0
 62
256
370
-1
 48
1.0
  6
ByLayer
 10
2.6583333333332462
 20
-188.66000000000014
 30
0.0
 11
2.6583333333332746
 21
-193.44000000000005
 31
0.0
  0
LINE
  5
1AB
100
AcDbEntity
100
AcDbLine
  8
0
 62
256
370
-1
 48
1.0
  6
ByLayer
 10
2.6583333333332746
 20
-193.44000000000005
 30
0.0
 11
46.674999999999898
 21
-193.44000000000011
 31
0.0
  0
LINE
  5
1AC
100
AcDbEntity
100
AcDbLine
  8
0
 62
256
370
-1
 48
1.0
  6
ByLayer
 10
46.674999999999898
 20
-193.44000000000011
 30
0.0
 11
46.674999999999926
 21
-188.6600000000002
 31
0.0
  0
LINE
  5
1AD
100
AcDbEntity
100
AcDbLine
  8
0
 62
256
370
-1
 48
1.0
  6
ByLayer
 10
46.674999999999926
 20
-188.6600000000002
 30
0.0
 11
45.64999999999992
 21
-188.66000000000003
 31
0.0
  0
ARC
  5
1AE
100
AcDbEntity
  8
0
 62
256
370
-1
 48
1.0
  6
ByLayer
100
AcDbCircle
 10
45.399999999999991
 20
-188.66000000000017
 30
0.0
 40
0.2499999999999289
100
AcDbArc
 50
90.000000000035826
 51
0.0
  0
LINE
  5
1AF
100
AcDbEntity
100
AcDbLine
  8
0
 62
256
370
-1
 48
1.0
  6
ByLayer
 10
45.399999999999835
 20
-188.41000000000025
 30
0.0
 11
45.399999999999835
 21
-186.4100000000002
 31
0.0
  0
ARC
  5
1B0
100
AcDbEntity
  8
0
 62
256
370
-1
 48
1.0
  6
ByLayer
100
AcDbCircle
 10
45.399999999999793
 20
-186.16000000000011
 30
0.0
 40
0.2500000000000995
100
AcDbArc
 50
0.0
 51
270.00000000000978
  0
LINE
  5
1B1
100
AcDbEntity
100
AcDbLine
  8
0
 62
256
370
-1
 48
1.0
  6
ByLayer
 10
45.649999999999892
 20
-186.16000000000005
 30
0.0
 11
46.674999999999926
 21
-186.15999999999994
 31
0.0
  0
LINE
  5
1B2
100
AcDbEntity
100
AcDbLine
  8
0
 62
256
370
-1
 48
1.0
  6
ByLayer
 10
46.674999999999926
 20
-186.15999999999994
 30
0.0
 11
46.674999999999926
 21
-185.16000000000005
 31
0.0
  0
LINE
  5
1B3
100
AcDbEntity
100
AcDbLine
  8
0
 62
256
370
-1
 48
1.0
  6
ByLayer
 10
46.674999999999926
 20
-185.16000000000005
 30
0.0
 11
49.824999999999903
 21
-185.16000000000017
 31
0.0
  0
LINE
  5
1B4
100
AcDbEntity
100
AcDbLine
  8
0
 62
256
370
-1
 48
1.0
  6
ByLayer
 10
49.824999999999903
 20
-185.16000000000017
 30
0.0
 11
49.824999999999903
 21
-186.16000000000003
 31
0.0
  0
LINE
  5
1B5
100
AcDbEntity
100
AcDbLine
  8
0
 62
256
370
-1
 48
1.0
  6
ByLayer
 10
49.824999999999903
 20
-186.16000000000003
 30
0.0
 11
50.849999999999824
 21
-186.16000000000011
 31
0.0
  0
ARC
  5
1B6
100
AcDbEntity
  8
0
 62
256
370
-1
 48
1.0
  6
ByLayer
100
AcDbCircle
 10
51.09999999999981
 20
-186.15999999999997
 30
0.0
 40
0.2499999999999858
100
AcDbArc
 50
270.00000000003581
 51
180.0
  0
LINE
  5
1B7
100
AcDbEntity
100
AcDbLine
  8
0
 62
256
370
-1
 48
1.0
  6
ByLayer
 10
51.099999999999966
 20
-186.40999999999994
 30
0.0
 11
51.099999999999909
 21
-188.41000000000014
 31
0.0
  0
ARC
  5
1B8
100
AcDbEntity
  8
0
 62
256
370
-1
 48
1.0
  6
ByLayer
100
AcDbCircle
 10
51.099999999999923
 20
-188.66000000000014
 30
0.0
 40
0.2499999999999858
100
AcDbArc
 50
180.0
 51
90.000000000003254
  0
LINE
  5
1B9
100
AcDbEntity
100
AcDbLine
  8
0
 62
256
370
-1
 48
1.0
  6
ByLayer
 10
50.849999999999937
 20
-188.66000000000014
 30
0.0
 11
49.824999999999903
 21
-188.66000000000003
 31
0.0
  0
LINE
  5
1BA
100
AcDbEntity
100
AcDbLine
  8
0
 62
256
370
-1
 48
1.0
  6
ByLayer
 10
49.824999999999903
 20
-188.66000000000003
 30
0.0
 11
49.824999999999903
 21
-193.44
 31
0.0
  0
LINE
  5
1BB
100
AcDbEntity
100
AcDbLine
  8
0
 62
256
370
-1
 48
1.0
  6
ByLayer
 10
49.824999999999903
 20
-193.44
 30
0.0
 11
67.999999999999915
 21
-193.44000000000005
 31
0.0
  0
LINE
  5
1BC
100
AcDbEntity
100
AcDbLine
  8
0
 62
256
370
-1
 48
1.0
  6
ByLayer
 10
67.999999999999915
 20
-193.44000000000005
 30
0.0
 11
67.999999999999858
 21
-170.62666666666695
 31
0.0
  0
LINE
  5
1BD
100
AcDbEntity
100
AcDbLine
  8
0
 62
256
370
-1
 48
1.0
  6
ByLayer
 10
67.999999999999858
 20
-170.62666666666695
 30
0.0
 11
61.279999999999887
 21
-170.62666666666667
 31
0.0
  0
LINE
  5
1BE
100
AcDbEntity
100
AcDbLine
  8
0
 62
256
370
-1
 48
1.0
  6
ByLayer
 10
61.279999999999887
 20
-170.62666666666667
 30
0.0
 11
61.279999999999887
 21
-160.79500000000002
 31
0.0
  0
LINE
  5
1BF
100
AcDbEntity
100
AcDbLine
  8
0
 62
256
370
-1
 48
1.0
  6
ByLayer
 10
61.279999999999887
 20
-160.79500000000002
 30
0.0
 11
56.499999999999915
 21
-160.79500000000002
 31
0.0
  0
LINE
  5
1C0
100
AcDbEntity
100
AcDbLine
  8
0
 62
256
370
-1
 48
1.0
  6
ByLayer
 10
56.499999999999915
 20
-160.79500000000002
 30
0.0
 11
56.499999999999915
 21
-161.82000000000011
 31
0.0
  0
ARC
  5
1C1
100
AcDbEntity
  8
0
 62
256
370
-1
 48
1.0
  6
ByLayer
100
AcDbCircle
 10
56.499999999999886
 20
-162.07000000000002
 30
0.0
 40
0.2499999999999431
100
AcDbArc
 50
180.0
 51
89.999999999993491
  0
LINE
  5
1C2
100
AcDbEntity
100
AcDbLine
  8
0
 62
256
370
-1
 48
1.0
  6
ByLayer
 10
56.249999999999943
 20
-162.07000000000002
 30
0.0
 11
54.249999999999886
 21
-162.07000000000019
 31
0.0
  0
ARC
  5
1C3
100
AcDbEntity
  8
0
 62
256
370
-1
 48
1.0
  6
ByLayer
100
AcDbCircle
 10
53.999999999999815
 20
-162.07000000000008
 30
0.0
 40
0.2500000000000711
100
AcDbArc
 50
89.999999999970683
 51
360.0
  0
LINE
  5
1C4
100
AcDbEntity
100
AcDbLine
  8
0
 62
256
370
-1
 48
1.0
  6
ByLayer
 10
53.999999999999943
 20
-161.81999999999999
 30
0.0
 11
53.999999999999915
 21
-160.79499999999999
 31
0.0
  0
LINE
  5
1C5
100
AcDbEntity
100
AcDbLine
  8
0
 62
256
370
-1
 48
1.0
  6
ByLayer
 10
53.999999999999915
 20
-160.79499999999999
 30
0.0
 11
52.999999999999915
 21
-160.7949999999999
 31
0.0
  0
LINE
  5
1C6
100
AcDbEntity
100
AcDbLine
  8
0
 62
256
370
-1
 48
1.0
  6
ByLayer
 10
52.999999999999915
 20
-160.7949999999999
 30
0.0
 11
52.999999999999915
 21
-157.64500000000012
 31
0.0
  0
LINE
  5
1C7
100
AcDbEntity
100
AcDbLine
  8
0
 62
256
370
-1
 48
1.0
  6
ByLayer
 10
52.999999999999915
 20
-157.64500000000012
 30
0.0
 11
53.999999999999915
 21
-157.64500000000015
 31
0.0
  0
LINE
  5
1C8
100
AcDbEntity
100
AcDbLine
  8
0
 62
256
370
-1
 48
1.0
  6
ByLayer
 10
53.999999999999915
 20
-157.64500000000015
 30
0.0
 11
53.999999999999915
 21
-156.62000000000029
 31
0.0
  0
ARC
  5
1C9
100
AcDbEntity
  8
0
 62
256
370
-1
 48
1.0
  6
ByLayer
100
AcDbCircle
 10
53.999999999999801
 20
-156.37000000000018
 30
0.0
 40
0.2500000000001137
100
AcDbArc
 50
0.0
 51
270.00000000002603
  0
LINE
  5
1CA
100
AcDbEntity
100
AcDbLine
  8
0
 62
256
370
-1
 48
1.0
  6
ByLayer
 10
54.249999999999915
 20
-156.37000000000006
 30
0.0
 11
56.249999999999915
 21
-156.37000000000018
 31
0.0
  0
ARC
  5
1CB
100
AcDbEntity
  8
0
 62
256
370
-1
 48
1.0
  6
ByLayer
100
AcDbCircle
 10
56.499999999999815
 20
-156.37000000000006
 30
0.0
 40
0.2499999999999001
100
AcDbArc
 50
270.00000000002279
 51
180.0
  0
LINE
  5
1CC
100
AcDbEntity
100
AcDbLine
  8
0
 62
256
370
-1
 48
1.0
  6
ByLayer
 10
56.499999999999915
 20
-156.61999999999998
 30
0.0
 11
56.499999999999886
 21
-157.6450000000001
 31
0.0
  0
LINE
  5
1CD
100
AcDbEntity
100
AcDbLine
  8
0
 62
256
370
-1
 48
1.0
  6
ByLayer
 10
56.499999999999886
 20
-157.6450000000001
 30
0.0
 11
61.279999999999887
 21
-157.64499999999998
 31
0.0
  0
LINE
  5
1CE
100
AcDbEntity
100
AcDbLine
  8
0
 62
256
370
-1
 48
1.0
  6
ByLayer
 10
61.279999999999887
 20
-157.64499999999998
 30
0.0
 11
61.279999999999859
 21
-147.81333333333336
 31
0.0
  0
LINE
  5
1CF
100
AcDbEntity
100
AcDbLine
  8
0
 62
256
370
-1
 48
1.0
  6
ByLayer
 10
61.279999999999859
 20
-147.81333333333336
 30
0.0
 11
67.999999999999915
 21
-147.81333333333342
 31
0.0
  0
LINE
  5
1D0
100
AcDbEntity
100
AcDbLine
  8
0
 62
256
370
-1
 48
1.0
  6
ByLayer
 10
67.999999999999915
 20
-147.81333333333342
 30
0.0
 11
67.999999999999915
 21
-125.00000000000006
 31
0.0
  0
LINE
  5
1D1
100
AcDbEntity
100
AcDbLine
  8
0
 62
256
370
-1
 48
1.0
  6
ByLayer
 10
49.824999999999903
 20
-125.00000000000006
 30
0.0
 11
49.824999999999903
 21
-129.77999999999983
 31
0.0
  0
LINE
  5
1D2
100
AcDbEntity
100
AcDbLine
  8
0
 62
256
370
-1
 48
1.0
  6
ByLayer
 10
49.824999999999903
 20
-129.77999999999983
 30
0.0
 11
50.849999999999937
 21
-129.78000000000071
 31
0.0
  0
ARC
  5
1D3
100
AcDbEntity
  8
0
 62
256
370
-1
 48
1.0
  6
ByLayer
100
AcDbCircle
 10
51.099999999999483
 20
-129.78000000000026
 30
0.0
 40
0.2499999999995452
100
AcDbArc
 50
270.00000000010425
 51
180.0
  0
LINE
  5
1D4
100
AcDbEntity
100
AcDbLine
  8
0
 62
256
370
-1
 48
1.0
  6
ByLayer
 10
51.099999999999937
 20
-130.0299999999998
 30
0.0
 11
51.099999999999937
 21
-132.02999999999921
 31
0.0
  0
ARC
  5
1D5
100
AcDbEntity
  8
0
 62
256
370
-1
 48
1.0
  6
ByLayer
100
AcDbCircle
 10
51.100000000000051
 20
-132.27999999999943
 30
0.0
 40
0.2500000000002274
100
AcDbArc
 50
180.0
 51
90.000000000026063
  0
LINE
  5
1D6
100
AcDbEntity
100
AcDbLine
  8
0
 62
256
370
-1
 48
1.0
  6
ByLayer
 10
50.849999999999824
 20
-132.27999999999955
 30
0.0
 11
49.824999999999903
 21
-132.27999999999994
 31
0.0
  0
LINE
  5
1D7
100
AcDbEntity
100
AcDbLine
  8
0
 62
256
370
-1
 48
1.0
  6
ByLayer
 10
49.824999999999903
 20
-132.27999999999994
 30
0.0
 11
49.824999999999903
 21
-133.27999999999972
 31
0.0
  0
LINE
  5
1D8
100
AcDbEntity
100
AcDbLine
  8
0
 62
256
370
-1
 48
1.0
  6
ByLayer
 10
49.824999999999903
 20
-133.27999999999972
 30
0.0
 11
46.674999999999926
 21
-133.28000000000037
 31
0.0
  0
LINE
  5
1D9
100
AcDbEntity
100
AcDbLine
  8
0
 62
256
370
-1
 48
1.0
  6
ByLayer
 10
46.674999999999926
 20
-133.28000000000037
 30
0.0
 11
46.674999999999926
 21
-132.27999999999986
 31
0.0
  0
LINE
  5
1DA
100
AcDbEntity
100
AcDbLine
  8
0
 62
256
370
-1
 48
1.0
  6
ByLayer
 10
46.674999999999926
 20
-132.27999999999986
 30
0.0
 11
45.649999999999892
 21
-132.27999999999994
 31
0.0
  0
ARC
  5
1DB
100
AcDbEntity
  8
0
 62
256
370
-1
 48
1.0
  6
ByLayer
100
AcDbCircle
 10
45.399999999999977
 20
-132.28000000000009
 30
0.0
 40
0.2499999999999147
100
AcDbArc
 50
90.000000000032571
 51
0.0
  0
LINE
  5
1DC
100
AcDbEntity
100
AcDbLine
  8
0
 62
256
370
-1
 48
1.0
  6
ByLayer
 10
45.399999999999835
 20
-132.03000000000017
 30
0.0
 11
45.399999999999892
 21
-130.03000000000074
 31
0.0
  0
ARC
  5
1DD
100
AcDbEntity
  8
0
 62
256
370
-1
 48
1.0
  6
ByLayer
100
AcDbCircle
 10
45.399999999999679
 20
-129.78000000000054
 30
0.0
 40
0.2500000000002132
100
AcDbArc
 50
0.0
 51
270.00000000004883
  0
LINE
  5
1DE
100
AcDbEntity
100
AcDbLine
  8
0
 62
256
370
-1
 48
1.0
  6
ByLayer
 10
45.649999999999892
 20
-129.78000000000031
 30
0.0
 11
46.674999999999926
 21
-129.78000000000029
 31
0.0
  0
LINE
  5
1DF
100
AcDbEntity
100
AcDbLine
  8
0
 62
256
370
-1
 48
1.0
  6
ByLayer
 10
46.674999999999926
 20
-129.78000000000029
 30
0.0
 11
46.674999999999926
 21
-125.00000000000006
 31
0.0
  0
LINE
  5
1E0
100
AcDbEntity
100
AcDbLine
  8
0
 62
256
370
-1
 48
1.0
  6
ByLayer
 10
2.6583333333332746
 20
-125.00000000000004
 30
0.0
 11
2.6583333333332746
 21
-129.78000000000014
 31
0.0
  0
LINE
  5
1E1
100
AcDbEntity
100
AcDbLine
  8
0
 62
256
370
-1
 48
1.0
  6
ByLayer
 10
2.6583333333332746
 20
-129.78000000000014
 30
0.0
 11
3.6833333333332519
 21
-129.77999999999943
 31
0.0
  0
ARC
  5
1E2
100
AcDbEntity
  8
0
 62
256
370
-1
 48
1.0
  6
ByLayer
100
AcDbCircle
 10
3.9333333333335219
 20
-129.77999999999969
 30
0.0
 40
0.25000000000027
100
AcDbArc
 50
269.99999999993815
 51
180.0
  0
LINE
  5
1E3
100
AcDbEntity
100
AcDbLine
  8
0
 62
256
370
-1
 48
1.0
  6
ByLayer
 10
3.9333333333332519
 20
-130.02999999999997
 30
0.0
 11
3.9333333333332519
 21
-132.0299999999998
 31
0.0
  0
ARC
  5
1E4
100
AcDbEntity
  8
0
 62
256
370
-1
 48
1.0
  6
ByLayer
100
AcDbCircle
 10
3.9333333333333371
 20
-132.27999999999989
 30
0.0
 40
0.2500000000000853
100
AcDbArc
 50
180.0
 51
90.00000000001954
  0
LINE
  5
1E5
100
AcDbEntity
100
AcDbLine
  8
0
 62
256
370
-1
 48
1.0
  6
ByLayer
 10
3.6833333333332519
 20
-132.27999999999997
 30
0.0
 11
2.6583333333332746
 21
-132.27999999999997
 31
0.0
  0
LINE
  5
1E6
100
AcDbEntity
100
AcDbLine
  8
0
 62
256
370
-1
 48
1.0
  6
ByLayer
 10
2.6583333333332746
 20
-132.27999999999997
 30
0.0
 11
2.6583333333332746
 21
-133.28000000000023
 31
0.0
  0
LINE
  5
1E7
100
AcDbEntity
100
AcDbLine
  8
0
 62
256
370
-1
 48
1.0
  6
ByLayer
 10
2.6583333333332746
 20
-133.28000000000023
 30
0.0
 11
-0.4916666666667595
 21
-133.2800000000006
 31
0.0
  0
LINE
  5
1E8
100
AcDbEntity
100
AcDbLine
  8
0
 62
256
370
-1
 48
1.0
  6
ByLayer
 10
-0.4916666666667595
 20
-133.2800000000006
 30
0.0
 11
-0.4916666666667595
 21
-132.28000000000017
 31
0.0
  0
LINE
  5
1E9
100
AcDbEntity
100
AcDbLine
  8
0
 62
256
370
-1
 48
1.0
  6
ByLayer
 10
-0.4916666666667595
 20
-132.28000000000017
 30
0.0
 11
-1.5166666666667368
 21
-132.27999999999983
 31
0.0
  0
ARC
  5
1EA
100
AcDbEntity
  8
0
 62
256
370
-1
 48
1.0
  6
ByLayer
100
AcDbCircle
 10
-1.7666666666668505
 20
-132.27999999999972
 30
0.0
 40
0.2500000000001137
100
AcDbArc
 50
89.999999999973937
 51
360.0
  0
LINE
  5
1EB
100
AcDbEntity
100
AcDbLine
  8
0
 62
256
370
-1
 48
1.0
  6
ByLayer
 10
-1.7666666666667368
 20
-132.0299999999996
 30
0.0
 11
-1.7666666666667368
 21
-130.02999999999969
 31
0.0
  0
ARC
  5
1EC
100
AcDbEntity
  8
0
 62
256
370
-1
 48
1.0
  6
ByLayer
100
AcDbCircle
 10
-1.7666666666661683
 20
-129.78000000000026
 30
0.0
 40
0.2499999999994315
100
AcDbArc
 50
360.0
 51
269.99999999986977
  0
LINE
  5
1ED
100
AcDbEntity
100
AcDbLine
  8
0
 62
256
370
-1
 48
1.0
  6
ByLayer
 10
-1.5166666666667368
 20
-129.78000000000083
 30
0.0
 11
-0.4916666666667595
 21
-129.78000000000074
 31
0.0
  0
LINE
  5
1EE
100
AcDbEntity
100
AcDbLine
  8
0
 62
256
370
-1
 48
1.0
  6
ByLayer
 10
-0.4916666666667595
 20
-129.78000000000074
 30
0.0
 11
-0.4916666666667595
 21
-125.00000000000004
 31
0.0
  0
LINE
  5
1EF
100
AcDbEntity
100
AcDbLine
  8
0
 62
256
370
-1
 48
1.0
  6
ByLayer
 10
-18.666666666666771
 20
-125.00000000000004
 30
0.0
 11
-18.666666666666771
 21
-118.28000000000004
 31
0.0
  0
LINE
  5
1F0
100
AcDbEntity
100
AcDbLine
  8
0
 62
256
370
-1
 48
1.0
  6
ByLayer
 10
-18.666666666666771
 20
-118.28000000000004
 30
0.0
 11
-105.33333333333341
 21
-118.2800000000001
 31
0.0
  0
LINE
  5
1F1
100
AcDbEntity
100
AcDbLine
  8
0
 62
256
370
-1
 48
1.0
  6
ByLayer
 10
-105.33333333333341
 20
-118.2800000000001
 30
0.0
 11
-105.33333333333341
 21
-125.00000000000001
 31
0.0
  0
LINE
  5
1F2
100
AcDbEntity
100
AcDbLine
  8
0
 62
256
370
-1
 48
1.0
  6
ByLayer
 10
-123.50833333333341
 20
-125.00000000000001
 30
0.0
 11
-123.50833333333341
 21
-129.77999999999997
 31
0.0
  0
LINE
  5
1F3
100
AcDbEntity
100
AcDbLine
  8
0
 62
256
370
-1
 48
1.0
  6
ByLayer
 10
-123.50833333333341
 20
-129.77999999999997
 30
0.0
 11
-122.48333333333343
 21
-129.77999999999992
 31
0.0
  0
ARC
  5
1F4
100
AcDbEntity
  8
0
 62
256
370
-1
 48
1.0
  6
ByLayer
100
AcDbCircle
 10
-122.23333333333341
 20
-129.77999999999994
 30
0.0
 40
0.2500000000000284
100
AcDbArc
 50
269.99999999999346
 51
180.0
  0
LINE
  5
1F5
100
AcDbEntity
100
AcDbLine
  8
0
 62
256
370
-1
 48
1.0
  6
ByLayer
 10
-122.23333333333343
 20
-130.02999999999997
 30
0.0
 11
-122.23333333333343
 21
-132.02999999999989
 31
0.0
  0
ARC
  5
1F6
100
AcDbEntity
  8
0
 62
256
370
-1
 48
1.0
  6
ByLayer
100
AcDbCircle
 10
-122.23333333333341
 20
-132.27999999999992
 30
0.0
 40
0.2500000000000284
100
AcDbArc
 50
180.0
 51
90.000000000006509
  0
LINE
  5
1F7
100
AcDbEntity
100
AcDbLine
  8
0
 62
256
370
-1
 48
1.0
  6
ByLayer
 10
-122.48333333333343
 20
-132.27999999999994
 30
0.0
 11
-123.50833333333341
 21
-132.28000000000006
 31
0.0
  0
LINE
  5
1F8
100
AcDbEntity
100
AcDbLine
  8
0
 62
256
370
-1
 48
1.0
  6
ByLayer
 10
-123.50833333333341
 20
-132.28000000000006
 30
0.0
 11
-123.50833333333341
 21
-133.28000000000003
 31
0.0
  0
LINE
  5
1F9
100
AcDbEntity
100
AcDbLine
  8
0
 62
256
370
-1
 48
1.0
  6
ByLayer
 10
-123.50833333333341
 20
-133.28000000000003
 30
0.0
 11
-126.65833333333343
 21
-133.27999999999994
 31
0.0
  0
LINE
  5
1FA
100
AcDbEntity
100
AcDbLine
  8
0
 62
256
370
-1
 48
1.0
  6
ByLayer
 10
-126.65833333333343
 20
-133.27999999999994
 30
0.0
 11
-126.65833333333343
 21
-132.28000000000006
 31
0.0
  0
LINE
  5
1FB
100
AcDbEntity
100
AcDbLine
  8
0
 62
256
370
-1
 48
1.0
  6
ByLayer
 10
-126.65833333333343
 20
-132.28000000000006
 30
0.0
 11
-127.68333333333344
 21
-132.27999999999994
 31
0.0
  0
ARC
  5
1FC
100
AcDbEntity
  8
0
 62
256
370
-1
 48
1.0
  6
ByLayer
100
AcDbCircle
 10
-127.93333333333335
 20
-132.28000000000003
 30
0.0
 40
0.2499999999999147
100
AcDbArc
 50
90.00000000001954
 51
0.0
  0
LINE
  5
1FD
100
AcDbEntity
100
AcDbLine
  8
0
 62
256
370
-1
 48
1.0
  6
ByLayer
 10
-127.93333333333344
 20
-132.03000000000011
 30
0.0
 11
-127.93333333333344
 21
-130.03
 31
0.0
  0
ARC
  5
1FE
100
AcDbEntity
  8
0
 62
256
370
-1
 48
1.0
  6
ByLayer
100
AcDbCircle
 10
-127.93333333333348
 20
-129.77999999999997
 30
0.0
 40
0.2500000000000426
100
AcDbArc
 50
0.0
 51
270.00000000000978
  0
LINE
  5
1FF
100
AcDbEntity
100
AcDbLine
  8
0
 62
256
370
-1
 48
1.0
  6
ByLayer
 10
-127.68333333333344
 20
-129.77999999999992
 30
0.0
 11
-126.65833333333343
 21
-129.77999999999994
 31
0.0
  0
LINE
  5
200
100
AcDbEntity
100
AcDbLine
  8
0
 62
256
370
-1
 48
1.0
  6
ByLayer
 10
-126.65833333333343
 20
-129.77999999999994
 30
0.0
 11
-126.65833333333343
 21
-125.00000000000001
 31
0.0
  0
LINE
  5
201
100
AcDbEntity
100
AcDbLine
  8
0
 62
256
370
-1
 48
1.0
  6
ByLayer
 10
-170.67500000000007
 20
-125.0
 30
0.0
 11
-170.6750000000001
 21
-129.78
 31
0.0
  0
LINE
  5
202
100
AcDbEntity
100
AcDbLine
  8
0
 62
256
370
-1
 48
1.0
  6
ByLayer
 10
-170.6750000000001
 20
-129.78
 30
0.0
 11
-169.65000000000009
 21
-129.78
 31
0.0
  0
ARC
  5
203
100
AcDbEntity
  8
0
 62
256
370
-1
 48
1.0
  6
ByLayer
100
AcDbCircle
 10
-169.40000000000006
 20
-129.78000000000003
 30
0.0
 40
0.2500000000000142
100
AcDbArc
 50
269.99999999999346
 51
180.0
  0
LINE
  5
204
100
AcDbEntity
100
AcDbLine
  8
0
 62
256
370
-1
 48
1.0
  6
ByLayer
 10
-169.40000000000009
 20
-130.03000000000003
 30
0.0
 11
-169.39999999999998
 21
-132.03
 31
0.0
  0
ARC
  5
205
100
AcDbEntity
  8
0
 62
256
370
-1
 48
1.0
  6
ByLayer
100
AcDbCircle
 10
-169.40000000000003
 20
-132.28000000000006
 30
0.0
 40
0.2500000000000568
100
AcDbArc
 50
180.0
 51
89.999999999986969
  0
LINE
  5
206
100
AcDbEntity
100
AcDbLine
  8
0
 62
256
370
-1
 48
1.0
  6
ByLayer
 10
-169.65000000000009
 20
-132.28
 30
0.0
 11
-170.6750000000001
 21
-132.28
 31
0.0
  0
LINE
  5
207
100
AcDbEntity
100
AcDbLine
  8
0
 62
256
370
-1
 48
1.0
  6
ByLayer
 10
-170.6750000000001
 20
-132.28
 30
0.0
 11
-170.6750000000001
 21
-133.28
 31
0.0
  0
LINE
  5
208
100
AcDbEntity
100
AcDbLine
  8
0
 62
256
370
-1
 48
1.0
  6
ByLayer
 10
-170.6750000000001
 20
-133.28
 30
0.0
 11
-173.8250000000001
 21
-133.28
 31
0.0
  0
LINE
  5
209
100
AcDbEntity
100
AcDbLine
  8
0
 62
256
370
-1
 48
1.0
  6
ByLayer
 10
-173.8250000000001
 20
-133.28
 30
0.0
 11
-173.8250000000001
 21
-132.28
 31
0.0
  0
LINE
  5
20A
100
AcDbEntity
100
AcDbLine
  8
0
 62
256
370
-1
 48
1.0
  6
ByLayer
 10
-173.8250000000001
 20
-132.28
 30
0.0
 11
-174.84999999999997
 21
-132.28
 31
0.0
  0
ARC
  5
20B
100
AcDbEntity
  8
0
 62
256
370
-1
 48
1.0
  6
ByLayer
100
AcDbCircle
 10
-175.10000000000002
 20
-132.28000000000006
 30
0.0
 40
0.2500000000000568
100
AcDbArc
 50
90.000000000013031
 51
0.0
  0
LINE
  5
20C
100
AcDbEntity
100
AcDbLine
  8
0
 62
256
370
-1
 48
1.0
  6
ByLayer
 10
-175.10000000000008
 20
-132.03
 30
0.0
 11
-175.10000000000008
 21
-130.03
 31
0.0
  0
ARC
  5
20D
100
AcDbEntity
  8
0
 62
256
370
-1
 48
1.0
  6
ByLayer
100
AcDbCircle
 10
-175.10000000000008
 20
-129.78
 30
0.0
 40
0.25
100
AcDbArc
 50
0.0
 51
270.0
  0
LINE
  5
20E
100
AcDbEntity
100
AcDbLine
  8
0
 62
256
370
-1
 48
1.0
  6
ByLayer
 10
-174.85000000000008
 20
-129.78
 30
0.0
 11
-173.8250000000001
 21
-129.78
 31
0.0
  0
LINE
  5
20F
100
AcDbEntity
100
AcDbLine
  8
0
 62
256
370
-1
 48
1.0
  6
ByLayer
 10
-173.8250000000001
 20
-129.78
 30
0.0
 11
-173.8250000000001
 21
-125.0
 31
0.0
  0
LINE
  5
210
100
AcDbEntity
100
AcDbLine
  8
0
 62
256
370
-1
 48
1.0
  6
ByLayer
 10
-192.00000000000009
 20
-125.0
 30
0.0
 11
-192.00000000000009
 21
-147.81333333333328
 31
0.0
  0
LINE
  5
211
100
AcDbEntity
100
AcDbLine
  8
0
 62
256
370
-1
 48
1.0
  6
ByLayer
 10
-192.00000000000009
 20
-147.81333333333328
 30
0.0
 11
-185.28000000000009
 21
-147.8133333333333
 31
0.0
  0
LINE
  5
212
100
AcDbEntity
100
AcDbLine
  8
0
 62
256
370
-1
 48
1.0
  6
ByLayer
 10
-185.28000000000009
 20
-147.8133333333333
 30
0.0
 11
-185.28000000000011
 21
-157.64500000000004
 31
0.0
  0
LINE
  5
213
100
AcDbEntity
100
AcDbLine
  8
0
 62
256
370
-1
 48
1.0
  6
ByLayer
 10
-49.000000000000114
 20
-186.72000000000014
 30
0.0
 11
-49.000000000000085
 21
-193.44
 31
0.0
  0
LINE
  5
214
100
AcDbEntity
100
AcDbLine
  8
0
 62
256
370
-1
 48
1.0
  6
ByLayer
 10
-49.000000000000085
 20
-193.44
 30
0.0
 11
-75.000000000000028
 21
-193.44
 31
0.0
  0
LINE
  5
215
100
AcDbEntity
100
AcDbLine
  8
0
 62
256
370
-1
 48
1.0
  6
ByLayer
 10
-75.000000000000028
 20
-193.44
 30
0.0
 11
-75.000000000000085
 21
-186.72000000000003
 31
0.0
  0
LINE
  5
216
100
AcDbEntity
100
AcDbLine
  8
0
 62
256
370
-1
 48
1.0
  6
ByLayer
 10
-75.000000000000085
 20
-186.72000000000003
 30
0.0
 11
-49.000000000000114
 21
-186.72000000000014
 31
0.0
  0
LINE
  5
217
100
AcDbEntity
100
AcDbLine
  8
0
 62
256
370
-1
 48
1.0
  6
ByLayer
 10
-92.166666666666842
 20
137.85999999999999
 30
0.0
 11
-152.50000000000006
 21
137.86000000000001
 31
0.0
  0
LINE
  5
218
100
AcDbEntity
100
AcDbLine
  8
0
 62
256
370
-1
 48
1.0
  6
ByLayer
 10
28.5
 20
137.85999999999996
 30
0.0
 11
-31.833333333333258
 21
137.86000000000001
 31
0.0
  0
LINE
  5
219
100
AcDbEntity
100
AcDbLine
  8
0
 62
256
370
-1
 48
1.0
  6
ByLayer
 10
-31.833333333333258
 20
137.86000000000001
 30
0.0
 11
-31.833333333333272
 21
131.13999999999999
 31
0.0
  0
LINE
  5
21A
100
AcDbEntity
100
AcDbLine
  8
0
 62
256
370
-1
 48
1.0
  6
ByLayer
 10
-31.833333333333272
 20
131.13999999999999
 30
0.0
 11
-92.166666666666714
 21
131.14000000000001
 31
0.0
  0
LINE
  5
21B
100
AcDbEntity
100
AcDbLine
  8
0
 62
256
370
-1
 48
1.0
  6
ByLayer
 10
-92.166666666666714
 20
131.14000000000001
 30
0.0
 11
-92.166666666666842
 21
137.85999999999999
 31
0.0
  0
LINE
  5
21C
100
AcDbEntity
100
AcDbLine
  8
0
 62
256
370
-1
 48
1.0
  6
ByLayer
 10
-97.890676972609086
 20
-265.51499999999936
 30
0.0
 11
-93.11067697260907
 21
-265.51499999999936
 31
0.0
  0
LINE
  5
21D
100
AcDbEntity
100
AcDbLine
  8
0
 62
256
370
-1
 48
1.0
  6
ByLayer
 10
-93.11067697260907
 20
-265.51499999999936
 30
0.0
 11
-93.11067697260907
 21
-266.5399999999994
 31
0.0
  0
ARC
  5
21E
100
AcDbEntity
  8
0
 62
256
370
-1
 48
1.0
  6
ByLayer
100
AcDbCircle
 10
-93.110676972609042
 20
-266.7899999999994
 30
0.0
 40
0.2499999999999716
100
AcDbArc
 50
90.000000000006509
 51
0.0
  0
LINE
  5
21F
100
AcDbEntity
100
AcDbLine
  8
0
 62
256
370
-1
 48
1.0
  6
ByLayer
 10
-92.86067697260907
 20
-266.78999999999934
 30
0.0
 11
-90.860676972609099
 21
-266.78999999999934
 31
0.0
  0
ARC
  5
220
100
AcDbEntity
  8
0
 62
256
370
-1
 48
1.0
  6
ByLayer
100
AcDbCircle
 10
-90.610676972609085
 20
-266.78999999999934
 30
0.0
 40
0.2500000000000142
100
AcDbArc
 50
180.0
 51
89.999999999996746
  0
LINE
  5
221
100
AcDbEntity
100
AcDbLine
  8
0
 62
256
370
-1
 48
1.0
  6
ByLayer
 10
-90.61067697260907
 20
-266.53999999999934
 30
0.0
 11
-90.610676972609085
 21
-265.51499999999936
 31
0.0
  0
LINE
  5
222
100
AcDbEntity
100
AcDbLine
  8
0
 62
256
370
-1
 48
1.0
  6
ByLayer
 10
-90.610676972609085
 20
-265.51499999999936
 30
0.0
 11
-89.610676972609099
 21
-265.51499999999936
 31
0.0
  0
LINE
  5
223
100
AcDbEntity
100
AcDbLine
  8
0
 62
256
370
-1
 48
1.0
  6
ByLayer
 10
-89.610676972609099
 20
-265.51499999999936
 30
0.0
 11
-89.610676972609085
 21
-262.36499999999933
 31
0.0
  0
LINE
  5
224
100
AcDbEntity
100
AcDbLine
  8
0
 62
256
370
-1
 48
1.0
  6
ByLayer
 10
-89.610676972609085
 20
-262.36499999999933
 30
0.0
 11
-90.61067697260907
 21
-262.36499999999933
 31
0.0
  0
LINE
  5
225
100
AcDbEntity
100
AcDbLine
  8
0
 62
256
370
-1
 48
1.0
  6
ByLayer
 10
-90.61067697260907
 20
-262.36499999999933
 30
0.0
 11
-90.610676972609085
 21
-261.33999999999935
 31
0.0
  0
ARC
  5
226
100
AcDbEntity
  8
0
 62
256
370
-1
 48
1.0
  6
ByLayer
100
AcDbCircle
 10
-90.610676972609099
 20
-261.08999999999935
 30
0.0
 40
0.2500000000000071
100
AcDbArc
 50
270.00000000000324
 51
180.0
  0
LINE
  5
227
100
AcDbEntity
100
AcDbLine
  8
0
 62
256
370
-1
 48
1.0
  6
ByLayer
 10
-90.860676972609099
 20
-261.08999999999935
 30
0.0
 11
-92.86067697260907
 21
-261.08999999999935
 31
0.0
  0
ARC
  5
228
100
AcDbEntity
  8
0
 62
256
370
-1
 48
1.0
  6
ByLayer
100
AcDbCircle
 10
-93.11067697260907
 20
-261.08999999999935
 30
0.0
 40
0.2500000000000071
100
AcDbArc
 50
0.0
 51
269.99999999999676
  0
LINE
  5
229
100
AcDbEntity
100
AcDbLine
  8
0
 62
256
370
-1
 48
1.0
  6
ByLayer
 10
-93.110676972609085
 20
-261.33999999999935
 30
0.0
 11
-93.110676972609085
 21
-262.36499999999933
 31
0.0
  0
LINE
  5
22A
100
AcDbEntity
100
AcDbLine
  8
0
 62
256
370
-1
 48
1.0
  6
ByLayer
 10
-93.110676972609085
 20
-262.36499999999933
 30
0.0
 11
-97.890676972609086
 21
-262.36499999999933
 31
0.0
  0
LINE
  5
22B
100
AcDbEntity
100
AcDbLine
  8
0
 62
256
370
-1
 48
1.0
  6
ByLayer
 10
-97.890676972609086
 20
-262.36499999999933
 30
0.0
 11
-97.890676972609256
 21
-256.43999999999937
 31
0.0
  0
LINE
  5
22C
100
AcDbEntity
100
AcDbLine
  8
0
 62
256
370
-1
 48
1.0
  6
ByLayer
 10
-97.890676972609256
 20
-256.43999999999937
 30
0.0
 11
83.10932302739073
 21
-256.43999999999932
 31
0.0
  0
LINE
  5
22D
100
AcDbEntity
100
AcDbLine
  8
0
 62
256
370
-1
 48
1.0
  6
ByLayer
 10
83.10932302739073
 20
-256.43999999999932
 30
0.0
 11
83.109323027390673
 21
-262.36499999999899
 31
0.0
  0
LINE
  5
22E
100
AcDbEntity
100
AcDbLine
  8
0
 62
256
370
-1
 48
1.0
  6
ByLayer
 10
83.109323027390673
 20
-262.36499999999899
 30
0.0
 11
78.329323027390728
 21
-262.36499999999927
 31
0.0
  0
LINE
  5
22F
100
AcDbEntity
100
AcDbLine
  8
0
 62
256
370
-1
 48
1.0
  6
ByLayer
 10
78.329323027390728
 20
-262.36499999999927
 30
0.0
 11
78.329323027390728
 21
-261.33999999999941
 31
0.0
  0
ARC
  5
230
100
AcDbEntity
  8
0
 62
256
370
-1
 48
1.0
  6
ByLayer
100
AcDbCircle
 10
78.329323027390757
 20
-261.08999999999935
 30
0.0
 40
0.2500000000000284
100
AcDbArc
 50
269.99999999999346
 51
180.0
  0
LINE
  5
231
100
AcDbEntity
100
AcDbLine
  8
0
 62
256
370
-1
 48
1.0
  6
ByLayer
 10
78.079323027390728
 20
-261.08999999999935
 30
0.0
 11
76.0793230273907
 21
-261.08999999999929
 31
0.0
  0
ARC
  5
232
100
AcDbEntity
  8
0
 62
256
370
-1
 48
1.0
  6
ByLayer
100
AcDbCircle
 10
75.829323027390728
 20
-261.08999999999924
 30
0.0
 40
0.2499999999999716
100
AcDbArc
 50
360.0
 51
269.99999999999346
  0
LINE
  5
233
100
AcDbEntity
100
AcDbLine
  8
0
 62
256
370
-1
 48
1.0
  6
ByLayer
 10
75.8293230273907
 20
-261.33999999999924
 30
0.0
 11
75.8293230273907
 21
-262.36499999999933
 31
0.0
  0
LINE
  5
234
100
AcDbEntity
100
AcDbLine
  8
0
 62
256
370
-1
 48
1.0
  6
ByLayer
 10
75.8293230273907
 20
-262.36499999999933
 30
0.0
 11
74.829323027390728
 21
-262.36499999999921
 31
0.0
  0
LINE
  5
235
100
AcDbEntity
100
AcDbLine
  8
0
 62
256
370
-1
 48
1.0
  6
ByLayer
 10
74.829323027390728
 20
-262.36499999999921
 30
0.0
 11
74.8293230273907
 21
-265.5149999999993
 31
0.0
  0
LINE
  5
236
100
AcDbEntity
100
AcDbLine
  8
0
 62
256
370
-1
 48
1.0
  6
ByLayer
 10
74.8293230273907
 20
-265.5149999999993
 30
0.0
 11
75.829323027390728
 21
-265.51499999999936
 31
0.0
  0
LINE
  5
237
100
AcDbEntity
100
AcDbLine
  8
0
 62
256
370
-1
 48
1.0
  6
ByLayer
 10
75.829323027390728
 20
-265.51499999999936
 30
0.0
 11
75.829323027390728
 21
-266.53999999999951
 31
0.0
  0
ARC
  5
238
100
AcDbEntity
  8
0
 62
256
370
-1
 48
1.0
  6
ByLayer
100
AcDbCircle
 10
75.82932302739097
 20
-266.78999999999928
 30
0.0
 40
0.24999999999973
100
AcDbArc
 50
90.00000000005538
 51
0.0
  0
LINE
  5
239
100
AcDbEntity
100
AcDbLine
  8
0
 62
256
370
-1
 48
1.0
  6
ByLayer
 10
76.0793230273907
 20
-266.789999999999
 30
0.0
 11
78.0793230273907
 21
-266.78999999999934
 31
0.0
  0
ARC
  5
23A
100
AcDbEntity
  8
0
 62
256
370
-1
 48
1.0
  6
ByLayer
100
AcDbCircle
 10
78.329323027390686
 20
-266.7899999999994
 30
0.0
 40
0.2499999999999858
100
AcDbArc
 50
180.0
 51
89.999999999990223
  0
LINE
  5
23B
100
AcDbEntity
100
AcDbLine
  8
0
 62
256
370
-1
 48
1.0
  6
ByLayer
 10
78.329323027390728
 20
-266.5399999999994
 30
0.0
 11
78.329323027390728
 21
-265.51499999999913
 31
0.0
  0
LINE
  5
23C
100
AcDbEntity
100
AcDbLine
  8
0
 62
256
370
-1
 48
1.0
  6
ByLayer
 10
78.329323027390728
 20
-265.51499999999913
 30
0.0
 11
83.109323027390701
 21
-265.51499999999925
 31
0.0
  0
LINE
  5
23D
100
AcDbEntity
100
AcDbLine
  8
0
 62
256
370
-1
 48
1.0
  6
ByLayer
 10
83.109323027390701
 20
-265.51499999999925
 30
0.0
 11
83.109323027390758
 21
-271.43999999999897
 31
0.0
  0
LINE
  5
23E
100
AcDbEntity
100
AcDbLine
  8
0
 62
256
370
-1
 48
1.0
  6
ByLayer
 10
83.109323027390758
 20
-271.43999999999897
 30
0.0
 11
89.829323027390785
 21
-271.43999999999932
 31
0.0
  0
LINE
  5
23F
100
AcDbEntity
100
AcDbLine
  8
0
 62
256
370
-1
 48
1.0
  6
ByLayer
 10
89.829323027390785
 20
-271.43999999999932
 30
0.0
 11
89.829323027390785
 21
-286.43999999999926
 31
0.0
  0
LINE
  5
240
100
AcDbEntity
100
AcDbLine
  8
0
 62
256
370
-1
 48
1.0
  6
ByLayer
 10
89.829323027390785
 20
-286.43999999999926
 30
0.0
 11
-104.61067697260904
 21
-286.43999999999937
 31
0.0
  0
LINE
  5
241
100
AcDbEntity
100
AcDbLine
  8
0
 62
256
370
-1
 48
1.0
  6
ByLayer
 10
-104.61067697260904
 20
-286.43999999999937
 30
0.0
 11
-104.61067697260906
 21
-271.43999999999937
 31
0.0
  0
LINE
  5
242
100
AcDbEntity
100
AcDbLine
  8
0
 62
256
370
-1
 48
1.0
  6
ByLayer
 10
-104.61067697260906
 20
-271.43999999999937
 30
0.0
 11
-97.890676972609015
 21
-271.43999999999937
 31
0.0
  0
LINE
  5
243
100
AcDbEntity
100
AcDbLine
  8
0
 62
256
370
-1
 48
1.0
  6
ByLayer
 10
-97.890676972609015
 20
-271.43999999999937
 30
0.0
 11
-97.890676972609086
 21
-265.51499999999936
 31
0.0
  0
LINE
  5
244
100
AcDbEntity
100
AcDbLine
  8
0
 62
256
370
-1
 48
1.0
  6
ByLayer
 10
68.224010305942471
 20
-316.43999999999915
 30
0.0
 11
68.946666666666658
 21
-324.69999999999919
 31
0.0
  0
LINE
  5
245
100
AcDbEntity
100
AcDbLine
  8
0
 62
256
370
-1
 48
1.0
  6
ByLayer
 10
68.946666666666658
 20
-324.69999999999919
 30
0.0
 11
68.94666666666663
 21
-332.95999999999913
 31
0.0
  0
LINE
  5
246
100
AcDbEntity
100
AcDbLine
  8
0
 62
256
370
-1
 48
1.0
  6
ByLayer
 10
68.94666666666663
 20
-332.95999999999913
 30
0.0
 11
82.386666666666656
 21
-332.95999999999901
 31
0.0
  0
LINE
  5
247
100
AcDbEntity
100
AcDbLine
  8
0
 62
256
370
-1
 48
1.0
  6
ByLayer
 10
82.386666666666656
 20
-332.95999999999901
 30
0.0
 11
82.386666666666684
 21
-349.47999999999922
 31
0.0
  0
LINE
  5
248
100
AcDbEntity
100
AcDbLine
  8
0
 62
256
370
-1
 48
1.0
  6
ByLayer
 10
82.386666666666684
 20
-349.47999999999922
 30
0.0
 11
75.666666666666629
 21
-349.47999999999882
 31
0.0
  0
LINE
  5
249
100
AcDbEntity
100
AcDbLine
  8
0
 62
256
370
-1
 48
1.0
  6
ByLayer
 10
75.666666666666629
 20
-349.47999999999882
 30
0.0
 11
75.666666666666572
 21
-358.75499999999909
 31
0.0
  0
LINE
  5
24A
100
AcDbEntity
100
AcDbLine
  8
0
 62
256
370
-1
 48
1.0
  6
ByLayer
 10
75.666666666666572
 20
-358.75499999999909
 30
0.0
 11
70.886666666666599
 21
-358.75499999999892
 31
0.0
  0
LINE
  5
24B
100
AcDbEntity
100
AcDbLine
  8
0
 62
256
370
-1
 48
1.0
  6
ByLayer
 10
70.886666666666599
 20
-358.75499999999892
 30
0.0
 11
70.886666666666599
 21
-357.72999999999911
 31
0.0
  0
ARC
  5
24C
100
AcDbEntity
  8
0
 62
256
370
-1
 48
1.0
  6
ByLayer
100
AcDbCircle
 10
70.886666666666741
 20
-357.479999999999
 30
0.0
 40
0.2500000000001432
100
AcDbArc
 50
269.99999999996743
 51
180.0
  0
LINE
  5
24D
100
AcDbEntity
100
AcDbLine
  8
0
 62
256
370
-1
 48
1.0
  6
ByLayer
 10
70.636666666666599
 20
-357.47999999999882
 30
0.0
 11
68.636666666666599
 21
-357.479999999999
 31
0.0
  0
ARC
  5
24E
100
AcDbEntity
  8
0
 62
256
370
-1
 48
1.0
  6
ByLayer
100
AcDbCircle
 10
68.386666666666684
 20
-357.47999999999888
 30
0.0
 40
0.2499999999999147
100
AcDbArc
 50
360.0
 51
269.99999999998045
  0
LINE
  5
24F
100
AcDbEntity
100
AcDbLine
  8
0
 62
256
370
-1
 48
1.0
  6
ByLayer
 10
68.386666666666599
 20
-357.72999999999882
 30
0.0
 11
68.386666666666599
 21
-358.75499999999892
 31
0.0
  0
LINE
  5
250
100
AcDbEntity
100
AcDbLine
  8
0
 62
256
370
-1
 48
1.0
  6
ByLayer
 10
68.386666666666599
 20
-358.75499999999892
 30
0.0
 11
67.386666666666599
 21
-358.75499999999903
 31
0.0
  0
LINE
  5
251
100
AcDbEntity
100
AcDbLine
  8
0
 62
256
370
-1
 48
1.0
  6
ByLayer
 10
67.386666666666599
 20
-358.75499999999903
 30
0.0
 11
67.386666666666599
 21
-361.90499999999923
 31
0.0
  0
LINE
  5
252
100
AcDbEntity
100
AcDbLine
  8
0
 62
256
370
-1
 48
1.0
  6
ByLayer
 10
67.386666666666599
 20
-361.90499999999923
 30
0.0
 11
68.386666666666599
 21
-361.90499999999884
 31
0.0
  0
LINE
  5
253
100
AcDbEntity
100
AcDbLine
  8
0
 62
256
370
-1
 48
1.0
  6
ByLayer
 10
68.386666666666599
 20
-361.90499999999884
 30
0.0
 11
68.386666666666599
 21
-362.92999999999898
 31
0.0
  0
ARC
  5
254
100
AcDbEntity
  8
0
 62
256
370
-1
 48
1.0
  6
ByLayer
100
AcDbCircle
 10
68.386666666666628
 20
-363.17999999999893
 30
0.0
 40
0.2499999999999716
100
AcDbArc
 50
90.000000000006509
 51
0.0
  0
LINE
  5
255
100
AcDbEntity
100
AcDbLine
  8
0
 62
256
370
-1
 48
1.0
  6
ByLayer
 10
68.636666666666599
 20
-363.17999999999893
 30
0.0
 11
70.636666666666599
 21
-363.1799999999991
 31
0.0
  0
ARC
  5
256
100
AcDbEntity
  8
0
 62
256
370
-1
 48
1.0
  6
ByLayer
100
AcDbCircle
 10
70.886666666666599
 20
-363.1799999999991
 30
0.0
 40
0.25
100
AcDbArc
 50
180.0
 51
90.0
  0
LINE
  5
257
100
AcDbEntity
100
AcDbLine
  8
0
 62
256
370
-1
 48
1.0
  6
ByLayer
 10
70.886666666666599
 20
-362.9299999999991
 30
0.0
 11
70.886666666666599
 21
-361.90499999999889
 31
0.0
  0
LINE
  5
258
100
AcDbEntity
100
AcDbLine
  8
0
 62
256
370
-1
 48
1.0
  6
ByLayer
 10
70.886666666666599
 20
-361.90499999999889
 30
0.0
 11
75.666666666666572
 21
-361.90499999999906
 31
0.0
  0
LINE
  5
259
100
AcDbEntity
100
AcDbLine
  8
0
 62
256
370
-1
 48
1.0
  6
ByLayer
 10
75.666666666666572
 20
-361.90499999999906
 30
0.0
 11
75.666666666666629
 21
-372.71999999999917
 31
0.0
  0
LINE
  5
25A
100
AcDbEntity
100
AcDbLine
  8
0
 62
256
370
-1
 48
1.0
  6
ByLayer
 10
75.666666666666629
 20
-372.71999999999917
 30
0.0
 11
15.3333333333333
 21
-372.71999999999917
 31
0.0
  0
LINE
  5
25B
100
AcDbEntity
100
AcDbLine
  8
0
 62
256
370
-1
 48
1.0
  6
ByLayer
 10
15.3333333333333
 20
-372.71999999999917
 30
0.0
 11
15.3333333333333
 21
-365.99999999999909
 31
0.0
  0
LINE
  5
25C
100
AcDbEntity
100
AcDbLine
  8
0
 62
256
370
-1
 48
1.0
  6
ByLayer
 10
15.3333333333333
 20
-365.99999999999909
 30
0.0
 11
-13.258333333333383
 21
-365.99999999999915
 31
0.0
  0
LINE
  5
25D
100
AcDbEntity
100
AcDbLine
  8
0
 62
256
370
-1
 48
1.0
  6
ByLayer
 10
-13.258333333333383
 20
-365.99999999999915
 30
0.0
 11
-13.258333333333383
 21
-361.219999999999
 31
0.0
  0
LINE
  5
25E
100
AcDbEntity
100
AcDbLine
  8
0
 62
256
370
-1
 48
1.0
  6
ByLayer
 10
-13.258333333333383
 20
-361.219999999999
 30
0.0
 11
-12.233333333333363
 21
-361.21999999999917
 31
0.0
  0
ARC
  5
25F
100
AcDbEntity
  8
0
 62
256
370
-1
 48
1.0
  6
ByLayer
100
AcDbCircle
 10
-11.98333333333334
 20
-361.21999999999912
 30
0.0
 40
0.2500000000000235
100
AcDbArc
 50
180.0
 51
90.000000000008555
  0
LINE
  5
260
100
AcDbEntity
100
AcDbLine
  8
0
 62
256
370
-1
 48
1.0
  6
ByLayer
 10
-11.983333333333377
 20
-360.96999999999912
 30
0.0
 11
-11.983333333333391
 21
-358.969999999999
 31
0.0
  0
ARC
  5
261
100
AcDbEntity
  8
0
 62
256
370
-1
 48
1.0
  6
ByLayer
100
AcDbCircle
 10
-11.983333333333469
 20
-358.71999999999912
 30
0.0
 40
0.2499999999999076
100
AcDbArc
 50
270.00000000001791
 51
180.0
  0
LINE
  5
262
100
AcDbEntity
100
AcDbLine
  8
0
 62
256
370
-1
 48
1.0
  6
ByLayer
 10
-12.233333333333377
 20
-358.71999999999917
 30
0.0
 11
-13.258333333333383
 21
-358.71999999999912
 31
0.0
  0
LINE
  5
263
100
AcDbEntity
100
AcDbLine
  8
0
 62
256
370
-1
 48
1.0
  6
ByLayer
 10
-13.258333333333383
 20
-358.71999999999912
 30
0.0
 11
-13.258333333333368
 21
-357.71999999999912
 31
0.0
  0
LINE
  5
264
100
AcDbEntity
100
AcDbLine
  8
0
 62
256
370
-1
 48
1.0
  6
ByLayer
 10
-13.258333333333368
 20
-357.71999999999912
 30
0.0
 11
-16.408333333333374
 21
-357.71999999999912
 31
0.0
  0
LINE
  5
265
100
AcDbEntity
100
AcDbLine
  8
0
 62
256
370
-1
 48
1.0
  6
ByLayer
 10
-16.408333333333374
 20
-357.71999999999912
 30
0.0
 11
-16.408333333333374
 21
-358.71999999999906
 31
0.0
  0
LINE
  5
266
100
AcDbEntity
100
AcDbLine
  8
0
 62
256
370
-1
 48
1.0
  6
ByLayer
 10
-16.408333333333374
 20
-358.71999999999906
 30
0.0
 11
-17.43333333333338
 21
-358.71999999999906
 31
0.0
  0
ARC
  5
267
100
AcDbEntity
  8
0
 62
256
370
-1
 48
1.0
  6
ByLayer
100
AcDbCircle
 10
-17.683333333333358
 20
-358.719999999999
 30
0.0
 40
0.2499999999999787
100
AcDbArc
 50
360.0
 51
269.99999999999187
  0
LINE
  5
268
100
AcDbEntity
100
AcDbLine
  8
0
 62
256
370
-1
 48
1.0
  6
ByLayer
 10
-17.683333333333394
 20
-358.969999999999
 30
0.0
 11
-17.683333333333366
 21
-360.96999999999906
 31
0.0
  0
ARC
  5
269
100
AcDbEntity
  8
0
 62
256
370
-1
 48
1.0
  6
ByLayer
100
AcDbCircle
 10
-17.683333333333373
 20
-361.21999999999906
 30
0.0
 40
0.2499999999999929
100
AcDbArc
 50
89.999999999998366
 51
0.0
  0
LINE
  5
26A
100
AcDbEntity
100
AcDbLine
  8
0
 62
256
370
-1
 48
1.0
  6
ByLayer
 10
-17.43333333333338
 20
-361.21999999999906
 30
0.0
 11
-16.408333333333374
 21
-361.219999999999
 31
0.0
  0
LINE
  5
26B
100
AcDbEntity
100
AcDbLine
  8
0
 62
256
370
-1
 48
1.0
  6
ByLayer
 10
-16.408333333333374
 20
-361.219999999999
 30
0.0
 11
-16.408333333333374
 21
-365.99999999999903
 31
0.0
  0
LINE
  5
26C
100
AcDbEntity
100
AcDbLine
  8
0
 62
256
370
-1
 48
1.0
  6
ByLayer
 10
-16.408333333333374
 20
-365.99999999999903
 30
0.0
 11
-45.000000000000099
 21
-365.99999999999915
 31
0.0
  0
LINE
  5
26D
100
AcDbEntity
100
AcDbLine
  8
0
 62
256
370
-1
 48
1.0
  6
ByLayer
 10
-45.000000000000099
 20
-365.99999999999915
 30
0.0
 11
-45.000000000000085
 21
-372.71999999999912
 31
0.0
  0
LINE
  5
26E
100
AcDbEntity
100
AcDbLine
  8
0
 62
256
370
-1
 48
1.0
  6
ByLayer
 10
-45.000000000000085
 20
-372.71999999999912
 30
0.0
 11
-105.33333333333343
 21
-372.71999999999912
 31
0.0
  0
LINE
  5
26F
100
AcDbEntity
100
AcDbLine
  8
0
 62
256
370
-1
 48
1.0
  6
ByLayer
 10
-105.33333333333343
 20
-372.71999999999912
 30
0.0
 11
-105.3333333333334
 21
-361.90499999999901
 31
0.0
  0
LINE
  5
270
100
AcDbEntity
100
AcDbLine
  8
0
 62
256
370
-1
 48
1.0
  6
ByLayer
 10
-105.3333333333334
 20
-361.90499999999901
 30
0.0
 11
-100.5533333333334
 21
-361.90499999999901
 31
0.0
  0
LINE
  5
271
100
AcDbEntity
100
AcDbLine
  8
0
 62
256
370
-1
 48
1.0
  6
ByLayer
 10
-100.5533333333334
 20
-361.90499999999901
 30
0.0
 11
-100.55333333333341
 21
-362.92999999999898
 31
0.0
  0
ARC
  5
272
100
AcDbEntity
  8
0
 62
256
370
-1
 48
1.0
  6
ByLayer
100
AcDbCircle
 10
-100.55333333333341
 20
-363.17999999999898
 30
0.0
 40
0.25
100
AcDbArc
 50
90.0
 51
0.0
  0
LINE
  5
273
100
AcDbEntity
100
AcDbLine
  8
0
 62
256
370
-1
 48
1.0
  6
ByLayer
 10
-100.30333333333341
 20
-363.17999999999898
 30
0.0
 11
-98.303333333333427
 21
-363.17999999999904
 31
0.0
  0
ARC
  5
274
100
AcDbEntity
  8
0
 62
256
370
-1
 48
1.0
  6
ByLayer
100
AcDbCircle
 10
-98.053333333333413
 20
-363.17999999999904
 30
0.0
 40
0.2500000000000142
100
AcDbArc
 50
180.0
 51
89.999999999996746
  0
LINE
  5
275
100
AcDbEntity
100
AcDbLine
  8
0
 62
256
370
-1
 48
1.0
  6
ByLayer
 10
-98.053333333333399
 20
-362.92999999999904
 30
0.0
 11
-98.053333333333413
 21
-361.90499999999901
 31
0.0
  0
LINE
  5
276
100
AcDbEntity
100
AcDbLine
  8
0
 62
256
370
-1
 48
1.0
  6
ByLayer
 10
-98.053333333333413
 20
-361.90499999999901
 30
0.0
 11
-97.053333333333427
 21
-361.90499999999901
 31
0.0
  0
LINE
  5
277
100
AcDbEntity
100
AcDbLine
  8
0
 62
256
370
-1
 48
1.0
  6
ByLayer
 10
-97.053333333333427
 20
-361.90499999999901
 30
0.0
 11
-97.053333333333413
 21
-358.75499999999897
 31
0.0
  0
LINE
  5
278
100
AcDbEntity
100
AcDbLine
  8
0
 62
256
370
-1
 48
1.0
  6
ByLayer
 10
-97.053333333333413
 20
-358.75499999999897
 30
0.0
 11
-98.053333333333399
 21
-358.75499999999897
 31
0.0
  0
LINE
  5
279
100
AcDbEntity
100
AcDbLine
  8
0
 62
256
370
-1
 48
1.0
  6
ByLayer
 10
-98.053333333333399
 20
-358.75499999999897
 30
0.0
 11
-98.053333333333413
 21
-357.729999999999
 31
0.0
  0
ARC
  5
27A
100
AcDbEntity
  8
0
 62
256
370
-1
 48
1.0
  6
ByLayer
100
AcDbCircle
 10
-98.053333333333427
 20
-357.479999999999
 30
0.0
 40
0.2500000000000071
100
AcDbArc
 50
270.00000000000324
 51
180.0
  0
LINE
  5
27B
100
AcDbEntity
100
AcDbLine
  8
0
 62
256
370
-1
 48
1.0
  6
ByLayer
 10
-98.303333333333427
 20
-357.479999999999
 30
0.0
 11
-100.30333333333341
 21
-357.479999999999
 31
0.0
  0
ARC
  5
27C
100
AcDbEntity
  8
0
 62
256
370
-1
 48
1.0
  6
ByLayer
100
AcDbCircle
 10
-100.55333333333341
 20
-357.479999999999
 30
0.0
 40
0.2500000000000011
100
AcDbArc
 50
0.0
 51
270.0
  0
LINE
  5
27D
100
AcDbEntity
100
AcDbLine
  8
0
 62
256
370
-1
 48
1.0
  6
ByLayer
 10
-100.55333333333341
 20
-357.729999999999
 30
0.0
 11
-100.5533333333334
 21
-358.75499999999897
 31
0.0
  0
LINE
  5
27E
100
AcDbEntity
100
AcDbLine
  8
0
 62
256
370
-1
 48
1.0
  6
ByLayer
 10
-100.5533333333334
 20
-358.75499999999897
 30
0.0
 11
-105.33333333333341
 21
-358.75499999999897
 31
0.0
  0
LINE
  5
27F
100
AcDbEntity
100
AcDbLine
  8
0
 62
256
370
-1
 48
1.0
  6
ByLayer
 10
-105.33333333333341
 20
-358.75499999999897
 30
0.0
 11
-105.3333333333334
 21
-349.47999999999911
 31
0.0
  0
LINE
  5
280
100
AcDbEntity
100
AcDbLine
  8
0
 62
256
370
-1
 48
1.0
  6
ByLayer
 10
-105.3333333333334
 20
-349.47999999999911
 30
0.0
 11
-112.05333333333341
 21
-349.47999999999911
 31
0.0
  0
LINE
  5
281
100
AcDbEntity
100
AcDbLine
  8
0
 62
256
370
-1
 48
1.0
  6
ByLayer
 10
-112.05333333333341
 20
-349.47999999999911
 30
0.0
 11
-112.05333333333346
 21
-332.95999999999913
 31
0.0
  0
LINE
  5
282
100
AcDbEntity
100
AcDbLine
  8
0
 62
256
370
-1
 48
1.0
  6
ByLayer
 10
-112.05333333333346
 20
-332.95999999999913
 30
0.0
 11
-98.613333333333443
 21
-332.95999999999907
 31
0.0
  0
LINE
  5
283
100
AcDbEntity
100
AcDbLine
  8
0
 62
256
370
-1
 48
1.0
  6
ByLayer
 10
-98.613333333333443
 20
-332.95999999999907
 30
0.0
 11
-98.613333333333443
 21
-324.69999999999908
 31
0.0
  0
LINE
  5
284
100
AcDbEntity
100
AcDbLine
  8
0
 62
256
370
-1
 48
1.0
  6
ByLayer
 10
-98.613333333333443
 20
-324.69999999999908
 30
0.0
 11
-97.89067697260927
 21
-316.43999999999909
 31
0.0
  0
LINE
  5
285
100
AcDbEntity
100
AcDbLine
  8
0
 62
256
370
-1
 48
1.0
  6
ByLayer
 10
-55.000000000000057
 20
-88.499999999999886
 30
0.0
 11
-55.000000000000028
 21
-85.499999999999886
 31
0.0
  0
LINE
  5
286
100
AcDbEntity
100
AcDbLine
  8
0
 62
256
370
-1
 48
1.0
  6
ByLayer
 10
-55.000000000000028
 20
-85.499999999999886
 30
0.0
 11
21.779999999999973
 21
-85.499999999999886
 31
0.0
  0
LINE
  5
287
100
AcDbEntity
100
AcDbLine
  8
0
 62
256
370
-1
 48
1.0
  6
ByLayer
 10
21.779999999999973
 20
-85.499999999999886
 30
0.0
 11
21.780000000000172
 21
-111.55999999999972
 31
0.0
  0
LINE
  5
288
100
AcDbEntity
100
AcDbLine
  8
0
 62
256
370
-1
 48
1.0
  6
ByLayer
 10
21.780000000000172
 20
-111.55999999999972
 30
0.0
 11
28.499999999999858
 21
-111.55999999999989
 31
0.0
  0
LINE
  5
289
100
AcDbEntity
100
AcDbLine
  8
0
 62
256
370
-1
 48
1.0
  6
ByLayer
 10
28.499999999999858
 20
-111.55999999999989
 30
0.0
 11
28.499999999999972
 21
355.49999999999994
 31
0.0
  0
LINE
  5
28A
100
AcDbEntity
100
AcDbLine
  8
0
 62
256
370
-1
 48
1.0
  6
ByLayer
 10
28.500000000000085
 20
100.00000000000028
 30
0.0
 11
35.219999999999715
 21
99.999999999999829
 31
0.0
  0
LINE
  5
28B
100
AcDbEntity
100
AcDbLine
  8
0
 62
256
370
-1
 48
1.0
  6
ByLayer
 10
35.219999999999715
 20
99.999999999999829
 30
0.0
 11
35.219999999999885
 21
105.88
 31
0.0
  0
LINE
  5
28C
100
AcDbEntity
100
AcDbLine
  8
0
 62
256
370
-1
 48
1.0
  6
ByLayer
 10
35.219999999999885
 20
105.88
 30
0.0
 11
28.499999999999716
 21
105.87999999999982
 31
0.0
  0
LINE
  5
28D
100
AcDbEntity
100
AcDbLine
  8
0
 62
256
370
-1
 48
1.0
  6
ByLayer
 10
28.499999999999858
 20
240.87999999999988
 30
0.0
 11
31.649999999999977
 21
240.87999999999988
 31
0.0
  0
LINE
  5
28E
100
AcDbEntity
100
AcDbLine
  8
0
 62
256
370
-1
 48
1.0
  6
ByLayer
 10
31.649999999999977
 20
240.87999999999988
 30
0.0
 11
31.650000000000034
 21
290.88
 31
0.0
  0
LINE
  5
28F
100
AcDbEntity
100
AcDbLine
  8
0
 62
256
370
-1
 48
1.0
  6
ByLayer
 10
31.650000000000034
 20
290.88
 30
0.0
 11
28.500000000000085
 21
290.88000000000017
 31
0.0
  0
LINE
  5
290
100
AcDbEntity
100
AcDbLine
  8
0
 62
256
370
-1
 48
1.0
  6
ByLayer
 10
28.499999999999886
 20
355.49999999999972
 30
0.0
 11
-152.50000000000003
 21
355.50000000000006
 31
0.0
  0
LINE
  5
291
100
AcDbEntity
100
AcDbLine
  8
0
 62
256
370
-1
 48
1.0
  6
ByLayer
 10
-152.50000000000006
 20
290.88000000000011
 30
0.0
 11
-155.65000000000001
 21
290.88
 31
0.0
  0
LINE
  5
292
100
AcDbEntity
100
AcDbLine
  8
0
 62
256
370
-1
 48
1.0
  6
ByLayer
 10
-155.65000000000001
 20
290.88
 30
0.0
 11
-155.65000000000009
 21
240.88
 31
0.0
  0
LINE
  5
293
100
AcDbEntity
100
AcDbLine
  8
0
 62
256
370
-1
 48
1.0
  6
ByLayer
 10
-155.65000000000009
 20
240.88
 30
0.0
 11
-152.49999999999997
 21
240.88
 31
0.0
  0
LINE
  5
294
100
AcDbEntity
100
AcDbLine
  8
0
 62
256
370
-1
 48
1.0
  6
ByLayer
 10
-152.49999999999997
 20
105.88
 30
0.0
 11
-159.22000000000003
 21
105.88
 31
0.0
  0
LINE
  5
295
100
AcDbEntity
100
AcDbLine
  8
0
 62
256
370
-1
 48
1.0
  6
ByLayer
 10
-159.22000000000003
 20
105.88
 30
0.0
 11
-159.22000000000008
 21
100.00000000000006
 31
0.0
  0
LINE
  5
296
100
AcDbEntity
100
AcDbLine
  8
0
 62
256
370
-1
 48
1.0
  6
ByLayer
 10
-159.22000000000008
 20
100.00000000000006
 30
0.0
 11
-152.50000000000009
 21
100.00000000000011
 31
0.0
  0
LINE
  5
297
100
AcDbEntity
100
AcDbLine
  8
0
 62
256
370
-1
 48
1.0
  6
ByLayer
 10
-152.50000000000003
 20
355.5
 30
0.0
 11
-152.49999999999994
 21
-111.55999999999989
 31
0.0
  0
LINE
  5
298
100
AcDbEntity
100
AcDbLine
  8
0
 62
256
370
-1
 48
1.0
  6
ByLayer
 10
-152.49999999999994
 20
-111.55999999999989
 30
0.0
 11
-145.78000000000014
 21
-111.55999999999989
 31
0.0
  0
LINE
  5
299
100
AcDbEntity
100
AcDbLine
  8
0
 62
256
370
-1
 48
1.0
  6
ByLayer
 10
-145.78000000000014
 20
-111.55999999999989
 30
0.0
 11
-145.77999999999986
 21
-85.499999999999829
 31
0.0
  0
LINE
  5
29A
100
AcDbEntity
100
AcDbLine
  8
0
 62
256
370
-1
 48
1.0
  6
ByLayer
 10
-145.77999999999986
 20
-85.499999999999829
 30
0.0
 11
-69.000000000000185
 21
-85.499999999999943
 31
0.0
  0
LINE
  5
29B
100
AcDbEntity
100
AcDbLine
  8
0
 62
256
370
-1
 48
1.0
  6
ByLayer
 10
-69.000000000000185
 20
-85.499999999999943
 30
0.0
 11
-68.999999999999844
 21
-88.499999999999829
 31
0.0
  0
ARC
  5
29C
100
AcDbEntity
  8
0
 62
256
370
-1
 48
1.0
  6
ByLayer
100
AcDbCircle
 10
-61.99999999999995
 20
-88.499999999999858
 30
0.0
 40
6.9999999999998934
100
AcDbArc
 50
180.0
 51
360.0
  0
ARC
  5
29D
100
AcDbEntity
  8
0
 62
256
370
-1
 48
1.0
  6
ByLayer
100
AcDbCircle
 10
-38.719999999999914
 20
-92.21999999999997
 30
0.0
 40
1.5750000000001023
100
AcDbArc
 50
89.999999999997939
 51
269.9999999999979
  0
LINE
  5
29E
100
AcDbEntity
100
AcDbLine
  8
0
 62
256
370
-1
 48
1.0
  6
ByLayer
 10
-38.71999999999997
 20
-93.795000000000073
 30
0.0
 11
-32.720000000000226
 21
-93.795000000000357
 31
0.0
  0
ARC
  5
29F
100
AcDbEntity
  8
0
 62
256
370
-1
 48
1.0
  6
ByLayer
100
AcDbCircle
 10
-32.720000000000198
 20
-92.220000000000198
 30
0.0
 40
1.5750000000001592
100
AcDbArc
 50
269.99999999999898
 51
89.999999999998977
  0
LINE
  5
2A0
100
AcDbEntity
100
AcDbLine
  8
0
 62
256
370
-1
 48
1.0
  6
ByLayer
 10
-32.720000000000169
 20
-90.645000000000039
 30
0.0
 11
-38.719999999999857
 21
-90.644999999999868
 31
0.0
  0
ARC
  5
2A1
100
AcDbEntity
  8
0
 62
256
370
-1
 48
1.0
  6
ByLayer
100
AcDbCircle
 10
-85.279999999999916
 20
-92.219999999999914
 30
0.0
 40
1.5750000000000455
100
AcDbArc
 50
270.00000000000205
 51
90.000000000002572
  0
LINE
  5
2A2
100
AcDbEntity
100
AcDbLine
  8
0
 62
256
370
-1
 48
1.0
  6
ByLayer
 10
-85.279999999999987
 20
-90.644999999999868
 30
0.0
 11
-91.279999999999859
 21
-90.64500000000038
 31
0.0
  0
ARC
  5
2A3
100
AcDbEntity
  8
0
 62
256
370
-1
 48
1.0
  6
ByLayer
100
AcDbCircle
 10
-91.28000000000003
 20
-92.220000000000198
 30
0.0
 40
1.5749999999998181
100
AcDbArc
 50
89.999999999993804
 51
269.99999999999426
  0
LINE
  5
2A4
100
AcDbEntity
100
AcDbLine
  8
0
 62
256
370
-1
 48
1.0
  6
ByLayer
 10
-91.280000000000186
 20
-93.795000000000016
 30
0.0
 11
-85.279999999999859
 21
-93.794999999999959
 31
0.0
  0
LINE
  5
2A5
100
AcDbEntity
100
AcDbLine
  8
0
 62
256
370
-1
 48
1.0
  6
ByLayer
 10
-185.28000000000017
 20
-125.0
 30
0.0
 11
-185.28000000000014
 21
100.0
 31
0.0
  0
LINE
  5
2A6
100
AcDbEntity
100
AcDbLine
  8
0
 62
256
370
-1
 48
1.0
  6
ByLayer
 10
-185.28000000000014
 20
100.0
 30
0.0
 11
-192.00000000000009
 21
100.0
 31
0.0
  0
LINE
  5
2A7
100
AcDbEntity
100
AcDbLine
  8
0
 62
256
370
-1
 48
1.0
  6
ByLayer
 10
-192.00000000000009
 20
100.0
 30
0.0
 11
-192.00000000000003
 21
395.0
 31
0.0
  0
LINE
  5
2A8
100
AcDbEntity
100
AcDbLine
  8
0
 62
256
370
-1
 48
1.0
  6
ByLayer
 10
-192.00000000000003
 20
395.0
 30
0.0
 11
-105.33333333333317
 21
395.0
 31
0.0
  0
LINE
  5
2A9
100
AcDbEntity
100
AcDbLine
  8
0
 62
256
370
-1
 48
1.0
  6
ByLayer
 10
-105.33333333333317
 20
395.0
 30
0.0
 11
-105.33333333333317
 21
388.2799999999998
 31
0.0
  0
LINE
  5
2AA
100
AcDbEntity
100
AcDbLine
  8
0
 62
256
370
-1
 48
1.0
  6
ByLayer
 10
-105.33333333333317
 20
388.2799999999998
 30
0.0
 11
-18.666666666666487
 21
388.27999999999997
 31
0.0
  0
LINE
  5
2AB
100
AcDbEntity
100
AcDbLine
  8
0
 62
256
370
-1
 48
1.0
  6
ByLayer
 10
-18.666666666666487
 20
388.27999999999997
 30
0.0
 11
-18.666666666666487
 21
394.99999999999994
 31
0.0
  0
LINE
  5
2AC
100
AcDbEntity
100
AcDbLine
  8
0
 62
256
370
-1
 48
1.0
  6
ByLayer
 10
-18.666666666666487
 20
394.99999999999994
 30
0.0
 11
67.999999999999915
 21
394.99999999999994
 31
0.0
  0
LINE
  5
2AD
100
AcDbEntity
100
AcDbLine
  8
0
 62
256
370
-1
 48
1.0
  6
ByLayer
 10
67.999999999999915
 20
394.99999999999994
 30
0.0
 11
67.999999999999972
 21
99.999999999999943
 31
0.0
  0
LINE
  5
2AE
100
AcDbEntity
100
AcDbLine
  8
0
 62
256
370
-1
 48
1.0
  6
ByLayer
 10
61.279999999999944
 20
100.0
 30
0.0
 11
61.279999999999546
 21
-125.00000000000023
 31
0.0
  0
LINE
  5
2AF
100
AcDbEntity
100
AcDbLine
  8
0
 62
256
370
-1
 48
1.0
  6
ByLayer
 10
67.999999999999915
 20
-125.00000000000006
 30
0.0
 11
-18.666666666666828
 21
-125.0
 31
0.0
  0
LINE
  5
2B0
100
AcDbEntity
100
AcDbLine
  8
0
 62
256
370
-1
 48
1.0
  6
ByLayer
 10
-105.33333333333341
 20
-125.00000000000011
 30
0.0
 11
-192.00000000000009
 21
-125.0
 31
0.0
  0
ENDSEC
  0
SECTION
  2
OBJECTS
  0
DICTIONARY
  5
C
100
AcDbDictionary
280
0
281
1
  3
ACAD_GROUP
350
D
  3
ACAD_LAYOUT
350
1A
  3
ACAD_MLINESTYLE
350
17
  3
ACAD_PLOTSETTINGS
350
19
  3
ACAD_PLOTSTYLENAME
350
E
  3
AcDbVariableDictionary
350
2B1
  3
QCAD_OBJECTS
350
2B2
  0
DICTIONARY
  5
D
100
AcDbDictionary
280
0
281
1
  0
ACDBDICTIONARYWDFLT
  5
E
100
AcDbDictionary
281
1
  3
Normal
350
F
100
AcDbDictionaryWithDefault
340
F
  0
ACDBPLACEHOLDER
  5
F
  0
DICTIONARY
  5
17
100
AcDbDictionary
280
0
281
1
  3
Standard
350
18
  0
MLINESTYLE
  5
18
100
AcDbMlineStyle
  2
STANDARD
 70
0
  3

 62
256
 51
90.0
 52
90.0
 71
2
 49
0.5
 62
256
  6
BYLAYER
 49
-0.5
 62
256
  6
BYLAYER
  0
DICTIONARY
  5
19
100
AcDbDictionary
280
0
281
1
  0
DICTIONARY
  5
1A
100
AcDbDictionary
281
1
  3
Layout1
350
1E
  3
Layout2
350
26
  3
Model
350
22
  0
LAYOUT
  5
1E
100
AcDbPlotSettings
  1

  2
none_device
  4

  6

 40
0.0
 41
0.0
 42
0.0
 43
0.0
 44
0.0
 45
0.0
 46
0.0
 47
0.0
 48
0.0
 49
0.0
140
0.0
141
0.0
142
1.0
143
1.0
 70
688
 72
0
 73
0
 74
5
  7

 75
16
147
1.0
148
0.0
149
0.0
100
AcDbLayout
  1
Layout1
 70
1
 71
1
 10
0.0
 20
0.0
 11
420.0
 21
297.0
 12
0.0
 22
0.0
 32
0.0
 14
100000000000000000000.0
 24
100000000000000000000.0
 34
100000000000000000000.0
 15
-100000000000000000000.0
 25
-100000000000000000000.0
 35
-100000000000000000000.0
146
0.0
 13
0.0
 23
0.0
 33
0.0
 16
1.0
 26
0.0
 36
0.0
 17
0.0
 27
1.0
 37
0.0
 76
0
330
1B
  0
LAYOUT
  5
22
100
AcDbPlotSettings
  1

  2
none_device
  4

  6

 40
0.0
 41
0.0
 42
0.0
 43
0.0
 44
0.0
 45
0.0
 46
0.0
 47
0.0
 48
0.0
 49
0.0
140
0.0
141
0.0
142
1.0
143
1.0
 70
1712
 72
0
 73
0
 74
0
  7

 75
0
147
1.0
148
0.0
149
0.0
100
AcDbLayout
  1
Model
 70
1
 71
0
 10
0.0
 20
0.0
 11
12.0
 21
9.0
 12
0.0
 22
0.0
 32
0.0
 14
0.0
 24
0.0
 34
0.0
 15
0.0
 25
0.0
 35
0.0
146
0.0
 13
0.0
 23
0.0
 33
0.0
 16
1.0
 26
0.0
 36
0.0
 17
0.0
 27
1.0
 37
0.0
 76
0
330
1F
  0
LAYOUT
  5
26
100
AcDbPlotSettings
  1

  2
none_device
  4

  6

 40
0.0
 41
0.0
 42
0.0
 43
0.0
 44
0.0
 45
0.0
 46
0.0
 47
0.0
 48
0.0
 49
0.0
140
0.0
141
0.0
142
1.0
143
1.0
 70
688
 72
0
 73
0
 74
5
  7

 75
16
147
1.0
148
0.0
149
0.0
100
AcDbLayout
  1
Layout2
 70
1
 71
2
 10
0.0
 20
0.0
 11
12.0
 21
9.0
 12
0.0
 22
0.0
 32
0.0
 14
0.0
 24
0.0
 34
0.0
 15
0.0
 25
0.0
 35
0.0
146
0.0
 13
0.0
 23
0.0
 33
0.0
 16
1.0
 26
0.0
 36
0.0
 17
0.0
 27
1.0
 37
0.0
 76
0
330
23
  0
DICTIONARY
  5
2B1
100
AcDbDictionary
281
1
  3
DIMASSOC
350
2B4
  3
HIDETEXT
350
2B3
  0
DICTIONARYVAR
  5
2B3
100
DictionaryVariables
280
0
  1
2
  0
DICTIONARYVAR
  5
2B4
100
DictionaryVariables
280
0
  1
1
  0
DICTIONARY
  5
2B2
100
AcDbDictionary
281
1
  3
Grid/DisplayGrid00
350
2B5
  3
Grid/DisplayGrid01
350
2B6
  3
Grid/DisplayGrid02
350
2B7
  3
Grid/DisplayGrid03
350
2B8
  3
Grid/GridSpacingX00
350
2B9
  3
Grid/GridSpacingX01
350
2BA
  3
Grid/GridSpacingX02
350
2BB
  3
Grid/GridSpacingX03
350
2BC
  3
Grid/GridSpacingY00
350
2BD
  3
Grid/GridSpacingY01
350
2BE
  3
Grid/GridSpacingY02
350
2BF
  3
Grid/GridSpacingY03
350
2C0
  3
Grid/IsometricGrid00
350
2C1
  3
Grid/IsometricGrid01
350
2C2
  3
Grid/IsometricGrid02
350
2C3
  3
Grid/IsometricGrid03
350
2C4
  3
Grid/IsometricProjection00
350
2C5
  3
Grid/IsometricProjection01
350
2C6
  3
Grid/IsometricProjection02
350
2C7
  3
Grid/IsometricProjection03
350
2C8
  3
Grid/MetaGridSpacingX00
350
2C9
  3
Grid/MetaGridSpacingX01
350
2CA
  3
Grid/MetaGridSpacingX02
350
2CB
  3
Grid/MetaGridSpacingX03
350
2CC
  3
Grid/MetaGridSpacingY00
350
2CD
  3
Grid/MetaGridSpacingY01
350
2CE
  3
Grid/MetaGridSpacingY02
350
2CF
  3
Grid/MetaGridSpacingY03
350
2D0
  3
MultiPageSettings/Columns
350
2D1
  3
MultiPageSettings/GlueMarginsBottom
350
2D2
  3
MultiPageSettings/GlueMarginsLeft
350
2D3
  3
MultiPageSettings/GlueMarginsRight
350
2D4
  3
MultiPageSettings/GlueMarginsTop
350
2D5
  3
MultiPageSettings/PrintCropMarks
350
2D6
  3
MultiPageSettings/Rows
350
2D7
  3
PageSettings/OffsetX
350
2D8
  3
PageSettings/OffsetY
350
2D9
  3
PageSettings/PageOrientation
350
2DA
  3
PageSettings/PaperHeight
350
2DB
  3
PageSettings/PaperWidth
350
2DC
  3
PageSettings/Scale
350
2DD
  3
PageSettings/ShowPaperBorders
350
2DE
  3
QCADVersion
350
2DF
  3
UnitSettings/PaperUnit
350
2E0
  0
XRECORD
  5
2B5
330
2B2
100
AcDbXrecord
280
1
290
1
  0
XRECORD
  5
2B6
330
2B2
100
AcDbXrecord
280
1
290
1
  0
XRECORD
  5
2B7
330
2B2
100
AcDbXrecord
280
1
290
1
  0
XRECORD
  5
2B8
330
2B2
100
AcDbXrecord
280
1
290
1
  0
XRECORD
  5
2B9
330
2B2
100
AcDbXrecord
280
1
1000
auto
  0
XRECORD
  5
2BA
330
2B2
100
AcDbXrecord
280
1
1000
auto
  0
XRECORD
  5
2BB
330
2B2
100
AcDbXrecord
280
1
1000
auto
  0
XRECORD
  5
2BC
330
2B2
100
AcDbXrecord
280
1
1000
auto
  0
XRECORD
  5
2BD
330
2B2
100
AcDbXrecord
280
1
1000
auto
  0
XRECORD
  5
2BE
330
2B2
100
AcDbXrecord
280
1
1000
auto
  0
XRECORD
  5
2BF
330
2B2
100
AcDbXrecord
280
1
1000
auto
  0
XRECORD
  5
2C0
330
2B2
100
AcDbXrecord
280
1
1000
auto
  0
XRECORD
  5
2C1
330
2B2
100
AcDbXrecord
280
1
290
0
  0
XRECORD
  5
2C2
330
2B2
100
AcDbXrecord
280
1
290
0
  0
XRECORD
  5
2C3
330
2B2
100
AcDbXrecord
280
1
290
0
  0
XRECORD
  5
2C4
330
2B2
100
AcDbXrecord
280
1
290
0
  0
XRECORD
  5
2C5
330
2B2
100
AcDbXrecord
280
1
 90
0
  0
XRECORD
  5
2C6
330
2B2
100
AcDbXrecord
280
1
 90
0
  0
XRECORD
  5
2C7
330
2B2
100
AcDbXrecord
280
1
 90
0
  0
XRECORD
  5
2C8
330
2B2
100
AcDbXrecord
280
1
 90
0
  0
XRECORD
  5
2C9
330
2B2
100
AcDbXrecord
280
1
1000
auto
  0
XRECORD
  5
2CA
330
2B2
100
AcDbXrecord
280
1
1000
auto
  0
XRECORD
  5
2CB
330
2B2
100
AcDbXrecord
280
1
1000
auto
  0
XRECORD
  5
2CC
330
2B2
100
AcDbXrecord
280
1
1000
auto
  0
XRECORD
  5
2CD
330
2B2
100
AcDbXrecord
280
1
1000
auto
  0
XRECORD
  5
2CE
330
2B2
100
AcDbXrecord
280
1
1000
auto
  0
XRECORD
  5
2CF
330
2B2
100
AcDbXrecord
280
1
1000
auto
  0
XRECORD
  5
2D0
330
2B2
100
AcDbXrecord
280
1
1000
auto
  0
XRECORD
  5
2D1
330
2B2
100
AcDbXrecord
280
1
 90
1
  0
XRECORD
  5
2D2
330
2B2
100
AcDbXrecord
280
1
 40
10.0
  0
XRECORD
  5
2D3
330
2B2
100
AcDbXrecord
280
1
 40
10.0
  0
XRECORD
  5
2D4
330
2B2
100
AcDbXrecord
280
1
 40
10.0
  0
XRECORD
  5
2D5
330
2B2
100
AcDbXrecord
280
1
 40
10.0
  0
XRECORD
  5
2D6
330
2B2
100
AcDbXrecord
280
1
290
0
  0
XRECORD
  5
2D7
330
2B2
100
AcDbXrecord
280
1
 90
1
  0
XRECORD
  5
2D8
330
2B2
100
AcDbXrecord
280
1
 40
0.0
  0
XRECORD
  5
2D9
330
2B2
100
AcDbXrecord
280
1
 40
0.0
  0
XRECORD
  5
2DA
330
2B2
100
AcDbXrecord
280
1
1000
Portrait
  0
XRECORD
  5
2DB
330
2B2
100
AcDbXrecord
280
1
 40
297.0
  0
XRECORD
  5
2DC
330
2B2
100
AcDbXrecord
280
1
 40
210.0
  0
XRECORD
  5
2DD
330
2B2
100
AcDbXrecord
280
1
1000
1:1
  0
XRECORD
  5
2DE
330
2B2
100
AcDbXrecord
280
1
290
1
  0
XRECORD
  5
2DF
330
2B2
100
AcDbXrecord
280
1
1000
3.9.0
  0
XRECORD
  5
2E0
330
2B2
100
AcDbXrecord
280
1
 90
4
  0
ENDSEC
  0
EOF
