999
dxflib 3.7.5.0
  0
SECTION
  2
HEADER
  9
$ACADVER
  1
AC1015
  9
$HANDSEED
  5
FFFF
  9
$ANGBASE
 50
0.0
  9
$ATTMODE
 70
1
  9
$AUNITS
 70
0
  9
$AUPREC
 70
0
  9
$CELTSCALE
 40
1.0
  9
$CHAMFERA
 40
0.0
  9
$CHAMFERB
 40
0.0
  9
$CHAMFERC
 40
0.0
  9
$CHAMFERD
 40
0.0
  9
$CMLJUST
 70
0
  9
$CMLSCALE
 40
1.0
  9
$DIMADEC
 70
0
  9
$DIMALTD
 70
2
  9
$DIMALTF
 40
25.399999999999999
  9
$DIMALTRND
 40
0.0
  9
$DIMALTTD
 70
2
  9
$DIMALTTZ
 70
0
  9
$DIMALTU
 70
2
  9
$DIMALTZ
 70
0
  9
$DIMAPOST
  1

  9
$DIMASZ
 40
2.5
  9
$DIMATFIT
 70
3
  9
$DIMAUNIT
 70
0
  9
$DIMAZIN
 70
2
  9
$DIMCEN
 40
0.09
  9
$DIMDEC
 70
4
  9
$DIMDLE
 40
0.0
  9
$DIMDLI
 40
0.38
  9
$DIMDSEP
 70
46
  9
$DIMEXE
 40
1.25
  9
$DIMEXO
 40
0.625
  9
$DIMFRAC
 70
0
  9
$DIMGAP
 40
0.625
  9
$DIMJUST
 70
0
  9
$DIMLFAC
 40
1.0
  9
$DIMLUNIT
 70
2
  9
$DIMLWD
 70
-2
  9
$DIMLWE
 70
-2
  9
$DIMPOST
  1

  9
$DIMRND
 40
0.0
  9
$DIMSCALE
 40
1.0
  9
$DIMTAD
 70
0
  9
$DIMTDEC
 70
4
  9
$DIMTFAC
 40
1.0
  9
$DIMTM
 40
0.0
  9
$DIMTOLJ
 70
1
  9
$DIMTP
 40
0.0
  9
$DIMTSZ
 40
0.0
  9
$DIMTVP
 40
0.0
  9
$DIMTXT
 40
2.5
  9
$DIMTZIN
 70
0
  9
$DIMZIN
 70
8
  9
$DWGCODEPAGE
  3
ANSI_1252
  9
$ELEVATION
 40
0.0
  9
$EXTMAX
 10
-100000000000000000000.0
 20
-100000000000000000000.0
 30
-100000000000000000000.0
  9
$EXTMIN
 10
100000000000000000000.0
 20
100000000000000000000.0
 30
100000000000000000000.0
  9
$FILLETRAD
 40
0.5
  9
$INSBASE
 10
0.0
 20
0.0
 30
0.0
  9
$INSUNITS
 70
4
  9
$LIMMAX
 10
12.0
 20
9.0
  9
$LIMMIN
 10
0.0
 20
0.0
  9
$LTSCALE
 40
1.0
  9
$LUNITS
 70
2
  9
$LUPREC
 70
4
  9
$MAXACTVP
 70
2
  9
$PDMODE
 70
0
  9
$PDSIZE
 40
0.0
  9
$PELEVATION
 40
0.0
  9
$PEXTMAX
 10
-100000000000000000000.0
 20
-100000000000000000000.0
 30
-100000000000000000000.0
  9
$PEXTMIN
 10
100000000000000000000.0
 20
100000000000000000000.0
 30
100000000000000000000.0
  9
$PINSBASE
 10
0.0
 20
0.0
 30
0.0
  9
$PLIMMAX
 10
12.0
 20
9.0
  9
$PLIMMIN
 10
0.0
 20
0.0
  9
$PLINEWID
 40
0.0
  9
$PROXYGRAPHICS
 70
1
  9
$PUCSORG
 10
0.0
 20
0.0
 30
0.0
  9
$PUCSXDIR
 10
1.0
 20
0.0
 30
0.0
  9
$PUCSYDIR
 10
0.0
 20
1.0
 30
0.0
  9
$SHADEDGE
 70
3
  9
$SHADEDIF
 70
70
  9
$SKETCHINC
 40
0.1
  9
$SPLINESEGS
 70
8
  9
$SPLINETYPE
 70
6
  9
$SURFTAB1
 70
6
  9
$SURFTAB2
 70
6
  9
$SURFTYPE
 70
6
  9
$SURFU
 70
6
  9
$SURFV
 70
6
  9
$TEXTSIZE
 40
2.5
  9
$THICKNESS
 40
0.0
  9
$TRACEWID
 40
0.05
  9
$TREEDEPTH
 70
3020
  9
$UCSORG
 10
0.0
 20
0.0
 30
0.0
  9
$UCSXDIR
 10
1.0
 20
0.0
 30
0.0
  9
$UCSYDIR
 10
0.0
 20
1.0
 30
0.0
  9
$UNITMODE
 70
0
  9
$USERI1
 70
0
  9
$USERI2
 70
0
  9
$USERI3
 70
0
  9
$USERI4
 70
0
  9
$USERI5
 70
0
  9
$USERR1
 40
0.0
  9
$USERR2
 40
0.0
  9
$USERR3
 40
0.0
  9
$USERR4
 40
0.0
  9
$USERR5
 40
0.0
  0
ENDSEC
  0
SECTION
  2
TABLES
  0
TABLE
  2
VPORT
  5
8
100
AcDbSymbolTable
 70
1
  0
VPORT
  5
30
100
AcDbSymbolTableRecord
100
AcDbViewportTableRecord
  2
*Active
 70
0
 10
0.0
 20
0.0
 11
1.0
 21
1.0
 12
286.30555555555549
 22
148.5
 13
0.0
 23
0.0
 14
10.0
 24
10.0
 15
10.0
 25
10.0
 16
0.0
 26
0.0
 36
1.0
 17
0.0
 27
0.0
 37
0.0
 40
297.0
 41
1.92798353909465
 42
50.0
 43
0.0
 44
0.0
 50
0.0
 51
0.0
 71
0
 72
100
 73
1
 74
3
 75
1
 76
1
 77
0
 78
0
281
0
 65
1
110
0.0
120
0.0
130
0.0
111
1.0
121
0.0
131
0.0
112
0.0
122
1.0
132
0.0
 79
0
146
0.0
  0
ENDTAB
  0
TABLE
  2
LTYPE
  5
5
100
AcDbSymbolTable
 70
41
  0
LTYPE
  5
16
100
AcDbSymbolTableRecord
100
AcDbLinetypeTableRecord
  2
Continuous
 70
0
  3
Solid line
 72
65
 73
0
 40
0.0
  0
LTYPE
  5
31
100
AcDbSymbolTableRecord
100
AcDbLinetypeTableRecord
  2
ACAD_ISO15W100
 70
0
  3
ISO double-dash triple-dot __ __ . . . __ __ . .
 72
65
 73
10
 40
39.000000000000007
 49
12.0
 74
0
 49
-3.0
 74
0
 49
12.0
 74
0
 49
-2.9500000000000002
 74
0
 49
0.1
 74
0
 49
-2.9000000000000004
 74
0
 49
0.1
 74
0
 49
-2.9000000000000004
 74
0
 49
0.1
 74
0
 49
-2.9500000000000002
 74
0
  0
LTYPE
  5
32
100
AcDbSymbolTableRecord
100
AcDbLinetypeTableRecord
  2
DIVIDE
 70
0
  3
Divide ____ . . ____ . . ____ . . ____ . . ____
 72
65
 73
6
 40
31.750000000000004
 49
12.699999999999999
 74
0
 49
-6.2999999999999998
 74
0
 49
0.1
 74
0
 49
-6.25
 74
0
 49
0.1
 74
0
 49
-6.2999999999999998
 74
0
  0
LTYPE
  5
33
100
AcDbSymbolTableRecord
100
AcDbLinetypeTableRecord
  2
ACAD_ISO10W100
 70
0
  3
ISO dash dot __ . __ . __ . __ . __ . __ . __ . 
 72
65
 73
4
 40
18.0
 49
12.0
 74
0
 49
-2.9500000000000002
 74
0
 49
0.1
 74
0
 49
-2.9500000000000002
 74
0
  0
LTYPE
  5
34
100
AcDbSymbolTableRecord
100
AcDbLinetypeTableRecord
  2
ACAD_ISO04W100
 70
0
  3
ISO long-dash dot ____ . ____ . ____ . ____ . _
 72
65
 73
4
 40
30.0
 49
24.0
 74
0
 49
-2.9500000000000002
 74
0
 49
0.1
 74
0
 49
-2.9500000000000002
 74
0
  0
LTYPE
  5
35
100
AcDbSymbolTableRecord
100
AcDbLinetypeTableRecord
  2
CENTER2
 70
0
  3
Center (.5x) ___ _ ___ _ ___ _ ___ _ ___ _ ___
 72
65
 73
4
 40
28.575000000000003
 49
19.050000000000001
 74
0
 49
-3.1749999999999998
 74
0
 49
3.1749999999999998
 74
0
 49
-3.1749999999999998
 74
0
  0
LTYPE
  5
36
100
AcDbSymbolTableRecord
100
AcDbLinetypeTableRecord
  2
ACAD_ISO11W100
 70
0
  3
ISO double-dash dot __ __ . __ __ . __ __ . __ _
 72
65
 73
6
 40
33.0
 49
12.0
 74
0
 49
-3.0
 74
0
 49
12.0
 74
0
 49
-2.9500000000000002
 74
0
 49
0.1
 74
0
 49
-2.9500000000000002
 74
0
  0
LTYPE
  5
37
100
AcDbSymbolTableRecord
100
AcDbLinetypeTableRecord
  2
HIDDEN2
 70
0
  3
Hidden (.5x) _ _ _ _ _ _ _ _ _ _ _ _ _ _ _ _ _ 
 72
65
 73
2
 40
4.7624999999999993
 49
3.1749999999999998
 74
0
 49
-1.5874999999999999
 74
0
  0
LTYPE
  5
38
100
AcDbSymbolTableRecord
100
AcDbLinetypeTableRecord
  2
BORDERX2
 70
0
  3
Border (2x) ____  ____  .  ____  ____  .  ___
 72
65
 73
6
 40
88.899999999999977
 49
25.399999999999999
 74
0
 49
-12.699999999999999
 74
0
 49
25.399999999999999
 74
0
 49
-12.649999999999999
 74
0
 49
0.1
 74
0
 49
-12.649999999999999
 74
0
  0
LTYPE
  5
39
100
AcDbSymbolTableRecord
100
AcDbLinetypeTableRecord
  2
ACAD_ISO05W100
 70
0
  3
ISO long-dash double-dot ____ .. ____ .. ____ . 
 72
65
 73
6
 40
33.000000000000007
 49
24.0
 74
0
 49
-2.9500000000000002
 74
0
 49
0.1
 74
0
 49
-2.9000000000000004
 74
0
 49
0.1
 74
0
 49
-2.9500000000000002
 74
0
  0
LTYPE
  5
3A
100
AcDbSymbolTableRecord
100
AcDbLinetypeTableRecord
  2
DASHDOTX2
 70
0
  3
Dash dot (2x) ____  .  ____  .  ____  .  ___
 72
65
 73
4
 40
50.799999999999997
 49
25.399999999999999
 74
0
 49
-12.649999999999999
 74
0
 49
0.1
 74
0
 49
-12.649999999999999
 74
0
  0
LTYPE
  5
3B
100
AcDbSymbolTableRecord
100
AcDbLinetypeTableRecord
  2
HIDDENX2
 70
0
  3
Hidden (2x) ____ ____ ____ ____ ____ ____ ____ 
 72
65
 73
2
 40
19.049999999999997
 49
12.699999999999999
 74
0
 49
-6.3499999999999996
 74
0
  0
LTYPE
  5
3C
100
AcDbSymbolTableRecord
100
AcDbLinetypeTableRecord
  2
CENTERX2
 70
0
  3
Center (2x) ________  __  ________  __  _____
 72
65
 73
4
 40
101.60000000000001
 49
63.5
 74
0
 49
-12.699999999999999
 74
0
 49
12.699999999999999
 74
0
 49
-12.699999999999999
 74
0
  0
LTYPE
  5
3D
100
AcDbSymbolTableRecord
100
AcDbLinetypeTableRecord
  2
BORDER2
 70
0
  3
Border (.5x) __.__.__.__.__.__.__.__.__.__.__.
 72
65
 73
6
 40
22.225000000000001
 49
6.3499999999999996
 74
0
 49
-3.1749999999999998
 74
0
 49
6.3499999999999996
 74
0
 49
-3.125
 74
0
 49
0.1
 74
0
 49
-3.125
 74
0
  0
LTYPE
  5
3E
100
AcDbSymbolTableRecord
100
AcDbLinetypeTableRecord
  2
DASHDOT2
 70
0
  3
Dash dot (.5x) _._._._._._._._._._._._._._._.
 72
65
 73
4
 40
12.699999999999999
 49
6.3499999999999996
 74
0
 49
-3.125
 74
0
 49
0.1
 74
0
 49
-3.125
 74
0
  0
LTYPE
  5
3F
100
AcDbSymbolTableRecord
100
AcDbLinetypeTableRecord
  2
ACAD_ISO12W100
 70
0
  3
ISO dash double-dot __ . . __ . . __ . . __ . . 
 72
65
 73
6
 40
21.0
 49
12.0
 74
0
 49
-2.9500000000000002
 74
0
 49
0.1
 74
0
 49
-2.9000000000000004
 74
0
 49
0.1
 74
0
 49
-2.9500000000000002
 74
0
  0
LTYPE
  5
40
100
AcDbSymbolTableRecord
100
AcDbLinetypeTableRecord
  2
ACAD_ISO07W100
 70
0
  3
ISO dot . . . . . . . . . . . . . . . . . . . . 
 72
65
 73
2
 40
3.0
 49
0.1
 74
0
 49
-2.8999999999999999
 74
0
  0
LTYPE
  5
41
100
AcDbSymbolTableRecord
100
AcDbLinetypeTableRecord
  2
HIDDEN
 70
0
  3
Hidden __ __ __ __ __ __ __ __ __ __ __ __ __ __
 72
65
 73
2
 40
9.5249999999999986
 49
6.3499999999999996
 74
0
 49
-3.1749999999999998
 74
0
  0
LTYPE
  5
42
100
AcDbSymbolTableRecord
100
AcDbLinetypeTableRecord
  2
ACAD_ISO06W100
 70
0
  3
ISO long-dash triple-dot ____ ... ____ ... ____
 72
65
 73
8
 40
36.000000000000007
 49
24.0
 74
0
 49
-2.9500000000000002
 74
0
 49
0.1
 74
0
 49
-2.9000000000000004
 74
0
 49
0.1
 74
0
 49
-2.9000000000000004
 74
0
 49
0.1
 74
0
 49
-2.9500000000000002
 74
0
  0
LTYPE
  5
43
100
AcDbSymbolTableRecord
100
AcDbLinetypeTableRecord
  2
CENTER
 70
0
  3
Center ____ _ ____ _ ____ _ ____ _ ____ _ ____
 72
65
 73
4
 40
50.800000000000004
 49
31.75
 74
0
 49
-6.3499999999999996
 74
0
 49
6.3499999999999996
 74
0
 49
-6.3499999999999996
 74
0
  0
LTYPE
  5
44
100
AcDbSymbolTableRecord
100
AcDbLinetypeTableRecord
  2
DOTX2
 70
0
  3
Dot (2x) .  .  .  .  .  .  .  .  .  .  .  .  .  .
 72
65
 73
2
 40
12.699999999999999
 49
0.1
 74
0
 49
-12.6
 74
0
  0
LTYPE
  5
45
100
AcDbSymbolTableRecord
100
AcDbLinetypeTableRecord
  2
PHANTOM
 70
0
  3
Phantom ______  __  __  ______  __  __  ______ 
 72
65
 73
6
 40
63.500000000000007
 49
31.75
 74
0
 49
-6.3499999999999996
 74
0
 49
6.3499999999999996
 74
0
 49
-6.3499999999999996
 74
0
 49
6.3499999999999996
 74
0
 49
-6.3499999999999996
 74
0
  0
LTYPE
  5
46
100
AcDbSymbolTableRecord
100
AcDbLinetypeTableRecord
  2
ACAD_ISO08W100
 70
0
  3
ISO long-dash short-dash ____ __ ____ __ ____ _
 72
65
 73
4
 40
36.0
 49
24.0
 74
0
 49
-3.0
 74
0
 49
6.0
 74
0
 49
-3.0
 74
0
  0
LTYPE
  5
47
100
AcDbSymbolTableRecord
100
AcDbLinetypeTableRecord
  2
DASHEDX2
 70
0
  3
Dashed (2x) ____  ____  ____  ____  ____  ___
 72
65
 73
2
 40
38.099999999999994
 49
25.399999999999999
 74
0
 49
-12.699999999999999
 74
0
  0
LTYPE
  5
48
100
AcDbSymbolTableRecord
100
AcDbLinetypeTableRecord
  2
ACAD_ISO02W100
 70
0
  3
ISO dash __ __ __ __ __ __ __ __ __ __ __ __ __
 72
65
 73
2
 40
15.0
 49
12.0
 74
0
 49
-3.0
 74
0
  0
LTYPE
  5
49
100
AcDbSymbolTableRecord
100
AcDbLinetypeTableRecord
  2
PHANTOM2
 70
0
  3
Phantom (.5x) ___ _ _ ___ _ _ ___ _ _ ___ _ _
 72
65
 73
6
 40
31.750000000000004
 49
15.875
 74
0
 49
-3.1749999999999998
 74
0
 49
3.1749999999999998
 74
0
 49
-3.1749999999999998
 74
0
 49
3.1749999999999998
 74
0
 49
-3.1749999999999998
 74
0
  0
LTYPE
  5
4A
100
AcDbSymbolTableRecord
100
AcDbLinetypeTableRecord
  2
DASHED2
 70
0
  3
Dashed (.5x) _ _ _ _ _ _ _ _ _ _ _ _ _ _ _ _ _ 
 72
65
 73
2
 40
9.5249999999999986
 49
6.3499999999999996
 74
0
 49
-3.1749999999999998
 74
0
  0
LTYPE
  5
4B
100
AcDbSymbolTableRecord
100
AcDbLinetypeTableRecord
  2
ACAD_ISO09W100
 70
0
  3
ISO long-dash double-short-dash ____ __ __ ____
 72
65
 73
6
 40
45.0
 49
24.0
 74
0
 49
-3.0
 74
0
 49
6.0
 74
0
 49
-3.0
 74
0
 49
6.0
 74
0
 49
-3.0
 74
0
  0
LTYPE
  5
4C
100
AcDbSymbolTableRecord
100
AcDbLinetypeTableRecord
  2
ACAD_ISO13W100
 70
0
  3
ISO double-dash double-dot __ __ . . __ __ . . _
 72
65
 73
8
 40
36.000000000000007
 49
12.0
 74
0
 49
-3.0
 74
0
 49
12.0
 74
0
 49
-2.9500000000000002
 74
0
 49
0.1
 74
0
 49
-2.9000000000000004
 74
0
 49
0.1
 74
0
 49
-2.9500000000000002
 74
0
  0
LTYPE
  5
4D
100
AcDbSymbolTableRecord
100
AcDbLinetypeTableRecord
  2
DOT2
 70
0
  3
Dot (.5x) ........................................
 72
65
 73
2
 40
3.1749999999999998
 49
0.1
 74
0
 49
-3.0749999999999997
 74
0
  0
LTYPE
  5
4E
100
AcDbSymbolTableRecord
100
AcDbLinetypeTableRecord
  2
DASHED
 70
0
  3
Dashed __ __ __ __ __ __ __ __ __ __ __ __ __ _
 72
65
 73
2
 40
19.049999999999997
 49
12.699999999999999
 74
0
 49
-6.3499999999999996
 74
0
  0
LTYPE
  5
4F
100
AcDbSymbolTableRecord
100
AcDbLinetypeTableRecord
  2
ACAD_ISO14W100
 70
0
  3
ISO dash triple-dot __ . . . __ . . . __ . . . _
 72
65
 73
8
 40
24.000000000000004
 49
12.0
 74
0
 49
-2.9500000000000002
 74
0
 49
0.1
 74
0
 49
-2.9000000000000004
 74
0
 49
0.1
 74
0
 49
-2.9000000000000004
 74
0
 49
0.1
 74
0
 49
-2.9500000000000002
 74
0
  0
LTYPE
  5
50
100
AcDbSymbolTableRecord
100
AcDbLinetypeTableRecord
  2
PHANTOMX2
 70
0
  3
Phantom (2x) ____________    ____    ____   _
 72
65
 73
6
 40
127.00000000000001
 49
63.5
 74
0
 49
-12.699999999999999
 74
0
 49
12.699999999999999
 74
0
 49
-12.699999999999999
 74
0
 49
12.699999999999999
 74
0
 49
-12.699999999999999
 74
0
  0
LTYPE
  5
14
100
AcDbSymbolTableRecord
100
AcDbLinetypeTableRecord
  2
BYBLOCK
 70
0
  3

 72
65
 73
0
 40
0.0
  0
LTYPE
  5
51
100
AcDbSymbolTableRecord
100
AcDbLinetypeTableRecord
  2
DIVIDEX2
 70
0
  3
Divide (2x) ________  .  .  ________  .  .  _
 72
65
 73
6
 40
63.5
 49
25.399999999999999
 74
0
 49
-12.649999999999999
 74
0
 49
0.1
 74
0
 49
-12.599999999999998
 74
0
 49
0.1
 74
0
 49
-12.649999999999999
 74
0
  0
LTYPE
  5
52
100
AcDbSymbolTableRecord
100
AcDbLinetypeTableRecord
  2
BORDER
 70
0
  3
Border __ __ . __ __ . __ __ . __ __ . __ __ .
 72
65
 73
6
 40
44.449999999999996
 49
12.699999999999999
 74
0
 49
-6.3499999999999996
 74
0
 49
12.699999999999999
 74
0
 49
-6.2999999999999998
 74
0
 49
0.1
 74
0
 49
-6.2999999999999998
 74
0
  0
LTYPE
  5
53
100
AcDbSymbolTableRecord
100
AcDbLinetypeTableRecord
  2
DIVIDE2
 70
0
  3
Divide (.5x) __..__..__..__..__..__..__..__.._
 72
65
 73
6
 40
15.874999999999998
 49
6.3499999999999996
 74
0
 49
-3.125
 74
0
 49
0.1
 74
0
 49
-3.0750000000000002
 74
0
 49
0.1
 74
0
 49
-3.125
 74
0
  0
LTYPE
  5
54
100
AcDbSymbolTableRecord
100
AcDbLinetypeTableRecord
  2
DOT
 70
0
  3
Dot . . . . . . . . . . . . . . . . . . . . . . . .
 72
65
 73
2
 40
6.3499999999999996
 49
0.1
 74
0
 49
-6.25
 74
0
  0
LTYPE
  5
55
100
AcDbSymbolTableRecord
100
AcDbLinetypeTableRecord
  2
DASHDOT
 70
0
  3
Dash dot __ . __ . __ . __ . __ . __ . __ . __
 72
65
 73
4
 40
25.400000000000002
 49
12.699999999999999
 74
0
 49
-6.2999999999999998
 74
0
 49
0.1
 74
0
 49
-6.2999999999999998
 74
0
  0
LTYPE
  5
56
100
AcDbSymbolTableRecord
100
AcDbLinetypeTableRecord
  2
ACAD_ISO03W100
 70
0
  3
ISO dash space __    __    __    __    __    __
 72
65
 73
2
 40
30.0
 49
12.0
 74
0
 49
-18.0
 74
0
  0
LTYPE
  5
15
100
AcDbSymbolTableRecord
100
AcDbLinetypeTableRecord
  2
ByLayer
 70
0
  3

 72
65
 73
0
 40
0.0
  0
ENDTAB
  0
TABLE
  2
LAYER
  5
2
100
AcDbSymbolTable
 70
1
  0
LAYER
  5
10
100
AcDbSymbolTableRecord
100
AcDbLayerTableRecord
  2
0
 70
0
 62
7
420
16777215
  6
Continuous
370
25
390
F
  0
ENDTAB
  0
TABLE
  2
STYLE
  5
3
100
AcDbSymbolTable
 70
1
  0
STYLE
  5
57
100
AcDbSymbolTableRecord
100
AcDbTextStyleTableRecord
  2
Standard
 70
0
 40
0.0
 41
1.0
 50
0.0
 71
0
 42
2.5
  3

  4

1001
ACAD
1000
txt
1071
0
  0
ENDTAB
  0
TABLE
  2
VIEW
  5
6
100
AcDbSymbolTable
 70
0
  0
ENDTAB
  0
TABLE
  2
UCS
  5
7
100
AcDbSymbolTable
 70
0
  0
ENDTAB
  0
TABLE
  2
APPID
  5
9
100
AcDbSymbolTable
 70
1
  0
APPID
  5
12
100
AcDbSymbolTableRecord
100
AcDbRegAppTableRecord
  2
ACAD
 70
0
  0
APPID
  5
58
100
AcDbSymbolTableRecord
100
AcDbRegAppTableRecord
  2
QCAD
 70
0
  0
ENDTAB
  0
TABLE
  2
DIMSTYLE
  5
A
100
AcDbSymbolTable
 70
1
100
AcDbDimStyleTable
 71
0
  0
DIMSTYLE
105
27
100
AcDbSymbolTableRecord
100
AcDbDimStyleTableRecord
  2
Standard
 41
2.5
 42
0.625
 43
3.75
 44
1.25
 70
0
 73
0
 74
0
 77
1
 78
8
140
2.5
141
2.5
143
0.03937007874016
147
0.625
171
3
172
1
271
2
272
2
274
3
278
44
283
0
284
8
340
57
  0
ENDTAB
  0
TABLE
  2
BLOCK_RECORD
  5
1
100
AcDbSymbolTable
 70
1
  0
BLOCK_RECORD
  5
1F
100
AcDbSymbolTableRecord
100
AcDbBlockTableRecord
  2
*Model_Space
340
22
  0
BLOCK_RECORD
  5
1B
100
AcDbSymbolTableRecord
100
AcDbBlockTableRecord
  2
*Paper_Space
340
1E
  0
BLOCK_RECORD
  5
23
100
AcDbSymbolTableRecord
100
AcDbBlockTableRecord
  2
*Paper_Space0
340
26
  0
ENDTAB
  0
ENDSEC
  0
SECTION
  2
BLOCKS
  0
BLOCK
  5
20
100
AcDbEntity
  8
0
100
AcDbBlockBegin
  2
*Model_Space
 70
0
 10
0.0
 20
0.0
 30
0.0
  3
*Model_Space
  1

  0
ENDBLK
  5
21
100
AcDbEntity
  8
0
100
AcDbBlockEnd
  0
BLOCK
  5
1C
100
AcDbEntity
 67
1
  8
0
100
AcDbBlockBegin
  2
*Paper_Space
 70
0
 10
0.0
 20
0.0
 30
0.0
  3
*Paper_Space
  1

  0
ENDBLK
  5
1D
100
AcDbEntity
 67
1
  8
0
100
AcDbBlockEnd
  0
BLOCK
  5
24
100
AcDbEntity
  8
0
100
AcDbBlockBegin
  2
*Paper_Space0
 70
0
 10
0.0
 20
0.0
 30
0.0
  3
*Paper_Space0
  1

  0
ENDBLK
  5
25
100
AcDbEntity
  8
0
100
AcDbBlockEnd
  0
ENDSEC
  0
SECTION
  2
ENTITIES
  0
CIRCLE
  5
59
100
AcDbEntity
100
AcDbCircle
  8
0
 62
256
370
-1
 48
1.0
  6
ByLayer
 10
138.06
 20
-344.94000000000005
 30
0.0
 40
2.0
  0
CIRCLE
  5
5A
100
AcDbEntity
100
AcDbCircle
  8
0
 62
256
370
-1
 48
1.0
  6
ByLayer
 10
138.05999999999995
 20
-244.74000000000024
 30
0.0
 40
2.0
  0
CIRCLE
  5
5B
100
AcDbEntity
100
AcDbCircle
  8
0
 62
256
370
-1
 48
1.0
  6
ByLayer
 10
38.499999999999943
 20
-335.50000000000023
 30
0.0
 40
1.6499999999999999
  0
CIRCLE
  5
5C
100
AcDbEntity
100
AcDbCircle
  8
0
 62
256
370
-1
 48
1.0
  6
ByLayer
 10
101.49999999999994
 20
-268.36000000000024
 30
0.0
 40
1.6499999999999999
  0
CIRCLE
  5
5D
100
AcDbEntity
100
AcDbCircle
  8
0
 62
256
370
-1
 48
1.0
  6
ByLayer
 10
-36.500000000000043
 20
-268.36000000000007
 30
0.0
 40
1.6499999999999999
  0
CIRCLE
  5
5E
100
AcDbEntity
100
AcDbCircle
  8
0
 62
256
370
-1
 48
1.0
  6
ByLayer
 10
101.49999999999994
 20
-321.6400000000001
 30
0.0
 40
1.6499999999999999
  0
CIRCLE
  5
5F
100
AcDbEntity
100
AcDbCircle
  8
0
 62
256
370
-1
 48
1.0
  6
ByLayer
 10
-36.500000000000043
 20
-321.6400000000001
 30
0.0
 40
1.6499999999999999
  0
CIRCLE
  5
60
100
AcDbEntity
100
AcDbCircle
  8
0
 62
256
370
-1
 48
1.0
  6
ByLayer
 10
-17.500000000000043
 20
-310.5
 30
0.0
 40
1.6499999999999999
  0
CIRCLE
  5
61
100
AcDbEntity
100
AcDbCircle
  8
0
 62
256
370
-1
 48
1.0
  6
ByLayer
 10
-17.500000000000071
 20
-279.50000000000011
 30
0.0
 40
1.6499999999999999
  0
CIRCLE
  5
62
100
AcDbEntity
100
AcDbCircle
  8
0
 62
256
370
-1
 48
1.0
  6
ByLayer
 10
13.499999999999943
 20
-279.50000000000011
 30
0.0
 40
1.6499999999999999
  0
CIRCLE
  5
63
100
AcDbEntity
100
AcDbCircle
  8
0
 62
256
370
-1
 48
1.0
  6
ByLayer
 10
13.499999999999858
 20
-310.50000000000011
 30
0.0
 40
1.6499999999999999
  0
CIRCLE
  5
64
100
AcDbEntity
100
AcDbCircle
  8
0
 62
256
370
-1
 48
1.0
  6
ByLayer
 10
101.49999999999994
 20
-295.00000000000011
 30
0.0
 40
4.5
  0
CIRCLE
  5
65
100
AcDbEntity
100
AcDbCircle
  8
0
 62
256
370
-1
 48
1.0
  6
ByLayer
 10
109.98528137423841
 20
-303.48528137423841
 30
0.0
 40
2.0
  0
CIRCLE
  5
66
100
AcDbEntity
100
AcDbCircle
  8
0
 62
256
370
-1
 48
1.0
  6
ByLayer
 10
93.014718625761361
 20
-286.51471862576153
 30
0.0
 40
2.0
  0
CIRCLE
  5
67
100
AcDbEntity
100
AcDbCircle
  8
0
 62
256
370
-1
 48
1.0
  6
ByLayer
 10
109.98528137423841
 20
-286.51471862576142
 30
0.0
 40
2.0
  0
CIRCLE
  5
68
100
AcDbEntity
100
AcDbCircle
  8
0
 62
256
370
-1
 48
1.0
  6
ByLayer
 10
93.014718625761361
 20
-303.48528137423875
 30
0.0
 40
2.0
  0
CIRCLE
  5
69
100
AcDbEntity
100
AcDbCircle
  8
0
 62
256
370
-1
 48
1.0
  6
ByLayer
 10
-105.50000000000009
 20
-295.00000000000006
 30
0.0
 40
4.5
  0
CIRCLE
  5
6A
100
AcDbEntity
100
AcDbCircle
  8
0
 62
256
370
-1
 48
1.0
  6
ByLayer
 10
-113.98528137423857
 20
-303.48528137423853
 30
0.0
 40
2.0
  0
CIRCLE
  5
6B
100
AcDbEntity
100
AcDbCircle
  8
0
 62
256
370
-1
 48
1.0
  6
ByLayer
 10
-97.014718625761518
 20
-286.51471862576147
 30
0.0
 40
2.0
  0
CIRCLE
  5
6C
100
AcDbEntity
100
AcDbCircle
  8
0
 62
256
370
-1
 48
1.0
  6
ByLayer
 10
-113.98528137423857
 20
-286.51471862576165
 30
0.0
 40
2.0
  0
CIRCLE
  5
6D
100
AcDbEntity
100
AcDbCircle
  8
0
 62
256
370
-1
 48
1.0
  6
ByLayer
 10
-97.014718625761503
 20
-303.48528137423875
 30
0.0
 40
2.0
  0
CIRCLE
  5
6E
100
AcDbEntity
100
AcDbCircle
  8
0
 62
256
370
-1
 48
1.0
  6
ByLayer
 10
-63.000000000000078
 20
-279.72000000000008
 30
0.0
 40
7.0
  0
CIRCLE
  5
6F
100
AcDbEntity
100
AcDbCircle
  8
0
 62
256
370
-1
 48
1.0
  6
ByLayer
 10
-63.000000000000078
 20
-279.72000000000008
 30
0.0
 40
1.9999999999999989
  0
CIRCLE
  5
70
100
AcDbEntity
100
AcDbCircle
  8
0
 62
256
370
-1
 48
1.0
  6
ByLayer
 10
-63.000000000000078
 20
-279.72000000000008
 30
0.0
 40
6.0
  0
CIRCLE
  5
71
100
AcDbEntity
100
AcDbCircle
  8
0
 62
256
370
-1
 48
1.0
  6
ByLayer
 10
-85.500000000000043
 20
-254.49999999999991
 30
0.0
 40
1.9999999999999989
  0
CIRCLE
  5
72
100
AcDbEntity
100
AcDbCircle
  8
0
 62
256
370
-1
 48
1.0
  6
ByLayer
 10
-85.500000000000057
 20
-335.50000000000023
 30
0.0
 40
1.9999999999999989
  0
CIRCLE
  5
73
100
AcDbEntity
100
AcDbCircle
  8
0
 62
256
370
-1
 48
1.0
  6
ByLayer
 10
-2.0000000000000426
 20
-254.50000000000003
 30
0.0
 40
1.9999999999999989
  0
CIRCLE
  5
74
100
AcDbEntity
100
AcDbCircle
  8
0
 62
256
370
-1
 48
1.0
  6
ByLayer
 10
-2.0000000000000853
 20
-335.50000000000006
 30
0.0
 40
1.9999999999999989
  0
CIRCLE
  5
75
100
AcDbEntity
100
AcDbCircle
  8
0
 62
256
370
-1
 48
1.0
  6
ByLayer
 10
81.499999999999972
 20
-335.50000000000017
 30
0.0
 40
1.9999999999999989
  0
CIRCLE
  5
76
100
AcDbEntity
100
AcDbCircle
  8
0
 62
256
370
-1
 48
1.0
  6
ByLayer
 10
81.5
 20
-254.50000000000017
 30
0.0
 40
1.9999999999999989
  0
CIRCLE
  5
77
100
AcDbEntity
100
AcDbCircle
  8
0
 62
256
370
-1
 48
1.0
  6
ByLayer
 10
-105.5
 20
-321.6400000000001
 30
0.0
 40
1.6499999999999999
  0
CIRCLE
  5
78
100
AcDbEntity
100
AcDbCircle
  8
0
 62
256
370
-1
 48
1.0
  6
ByLayer
 10
32.499999999999972
 20
-321.64000000000021
 30
0.0
 40
1.6499999999999999
  0
CIRCLE
  5
79
100
AcDbEntity
100
AcDbCircle
  8
0
 62
256
370
-1
 48
1.0
  6
ByLayer
 10
-105.49999999999997
 20
-268.36000000000001
 30
0.0
 40
1.6499999999999999
  0
CIRCLE
  5
7A
100
AcDbEntity
100
AcDbCircle
  8
0
 62
256
370
-1
 48
1.0
  6
ByLayer
 10
32.5
 20
-268.36000000000058
 30
0.0
 40
1.6499999999999999
  0
CIRCLE
  5
7B
100
AcDbEntity
100
AcDbCircle
  8
0
 62
256
370
-1
 48
1.0
  6
ByLayer
 10
-42.500000000000071
 20
-335.50000000000011
 30
0.0
 40
1.6499999999999999
  0
CIRCLE
  5
7C
100
AcDbEntity
100
AcDbCircle
  8
0
 62
256
370
-1
 48
1.0
  6
ByLayer
 10
-42.500000000000114
 20
-254.50000000000009
 30
0.0
 40
1.6499999999999999
  0
CIRCLE
  5
7D
100
AcDbEntity
100
AcDbCircle
  8
0
 62
256
370
-1
 48
1.0
  6
ByLayer
 10
38.499999999999886
 20
-254.49999999999983
 30
0.0
 40
1.6499999999999999
  0
CIRCLE
  5
7E
100
AcDbEntity
100
AcDbCircle
  8
0
 62
256
370
-1
 48
1.0
  6
ByLayer
 10
-61.999999999999758
 20
134.50000000000003
 30
0.0
 40
1.5749999999999991
  0
CIRCLE
  5
7F
100
AcDbEntity
100
AcDbCircle
  8
0
 62
256
370
-1
 48
1.0
  6
ByLayer
 10
-122.33333333333304
 20
286.17999999999984
 30
0.0
 40
1.5750000000000011
  0
CIRCLE
  5
80
100
AcDbEntity
100
AcDbCircle
  8
0
 62
256
370
-1
 48
1.0
  6
ByLayer
 10
-1.6666666666665435
 20
286.17999999999984
 30
0.0
 40
1.5750000000000011
  0
CIRCLE
  5
81
100
AcDbEntity
100
AcDbCircle
  8
0
 62
256
370
-1
 48
1.0
  6
ByLayer
 10
-139.89999999999986
 20
-65.30000000000031
 30
0.0
 40
1.575
  0
CIRCLE
  5
82
100
AcDbEntity
100
AcDbCircle
  8
0
 62
256
370
-1
 48
1.0
  6
ByLayer
 10
-105.37999999999985
 20
-55.22000000000034
 30
0.0
 40
1.575
  0
CIRCLE
  5
83
100
AcDbEntity
100
AcDbCircle
  8
0
 62
256
370
-1
 48
1.0
  6
ByLayer
 10
-141.77999999999926
 20
93.879999999999626
 30
0.0
 40
1.5750000000000111
  0
CIRCLE
  5
84
100
AcDbEntity
100
AcDbCircle
  8
0
 62
256
370
-1
 48
1.0
  6
ByLayer
 10
15.900000000000219
 20
-65.30000000000031
 30
0.0
 40
1.575
  0
CIRCLE
  5
85
100
AcDbEntity
100
AcDbCircle
  8
0
 62
256
370
-1
 48
1.0
  6
ByLayer
 10
-18.619999999999806
 20
-55.220000000000297
 30
0.0
 40
1.575
  0
CIRCLE
  5
86
100
AcDbEntity
100
AcDbCircle
  8
0
 62
256
370
-1
 48
1.0
  6
ByLayer
 10
17.779999999999603
 20
93.879999999999598
 30
0.0
 40
1.5750000000000111
  0
CIRCLE
  5
87
100
AcDbEntity
100
AcDbCircle
  8
0
 62
256
370
-1
 48
1.0
  6
ByLayer
 10
-142.06000000000006
 20
-244.73999999999955
 30
0.0
 40
2.0
  0
CIRCLE
  5
88
100
AcDbEntity
100
AcDbCircle
  8
0
 62
256
370
-1
 48
1.0
  6
ByLayer
 10
-142.06000000000006
 20
-344.93999999999983
 30
0.0
 40
2.0
  0
CIRCLE
  5
89
100
AcDbEntity
100
AcDbCircle
  8
0
 62
256
370
-1
 48
1.0
  6
ByLayer
 10
106.25
 20
-347.22000000000003
 30
0.0
 40
1.9999999999999989
  0
CIRCLE
  5
8A
100
AcDbEntity
100
AcDbCircle
  8
0
 62
256
370
-1
 48
1.0
  6
ByLayer
 10
96.75
 20
-347.22000000000003
 30
0.0
 40
1.9999999999999989
  0
CIRCLE
  5
8B
100
AcDbEntity
100
AcDbCircle
  8
0
 62
256
370
-1
 48
1.0
  6
ByLayer
 10
-165.49999999999977
 20
-172.62999999999977
 30
0.0
 40
1.9999999999999989
  0
CIRCLE
  5
8C
100
AcDbEntity
100
AcDbCircle
  8
0
 62
256
370
-1
 48
1.0
  6
ByLayer
 10
41.500000000000227
 20
-158.3799999999998
 30
0.0
 40
3.9999999999999938
  0
CIRCLE
  5
8D
100
AcDbEntity
100
AcDbCircle
  8
0
 62
256
370
-1
 48
1.0
  6
ByLayer
 10
-165.49999999999977
 20
-158.37999999999988
 30
0.0
 40
3.9999999999999938
  0
CIRCLE
  5
8E
100
AcDbEntity
100
AcDbCircle
  8
0
 62
256
370
-1
 48
1.0
  6
ByLayer
 10
-61.999999999999801
 20
-158.37999999999982
 30
0.0
 40
4.5
  0
CIRCLE
  5
8F
100
AcDbEntity
100
AcDbCircle
  8
0
 62
256
370
-1
 48
1.0
  6
ByLayer
 10
-52.03533849897525
 20
-152.62689999999978
 30
0.0
 40
2.0
  0
CIRCLE
  5
90
100
AcDbEntity
100
AcDbCircle
  8
0
 62
256
370
-1
 48
1.0
  6
ByLayer
 10
-61.999999999999773
 20
-169.88619999999975
 30
0.0
 40
2.0
  0
CIRCLE
  5
91
100
AcDbEntity
100
AcDbCircle
  8
0
 62
256
370
-1
 48
1.0
  6
ByLayer
 10
-71.964661501024281
 20
-152.62689999999975
 30
0.0
 40
2.0
  0
CIRCLE
  5
92
100
AcDbEntity
100
AcDbCircle
  8
0
 62
256
370
-1
 48
1.0
  6
ByLayer
 10
-125.08333333333337
 20
391.63999999999993
 30
0.0
 40
1.575
  0
CIRCLE
  5
93
100
AcDbEntity
100
AcDbCircle
  8
0
 62
256
370
-1
 48
1.0
  6
ByLayer
 10
-125.08333333333306
 20
-121.63999999999987
 30
0.0
 40
1.5750000000000159
  0
CIRCLE
  5
94
100
AcDbEntity
100
AcDbCircle
  8
0
 62
256
370
-1
 48
1.0
  6
ByLayer
 10
-165.49999999999997
 20
102.94
 30
0.0
 40
1.575
  0
CIRCLE
  5
95
100
AcDbEntity
100
AcDbCircle
  8
0
 62
256
370
-1
 48
1.0
  6
ByLayer
 10
41.500000000000085
 20
102.94
 30
0.0
 40
1.575
  0
CIRCLE
  5
96
100
AcDbEntity
100
AcDbCircle
  8
0
 62
256
370
-1
 48
1.0
  6
ByLayer
 10
1.0833333333335418
 20
-121.63999999999987
 30
0.0
 40
1.5750000000000159
  0
CIRCLE
  5
97
100
AcDbEntity
100
AcDbCircle
  8
0
 62
256
370
-1
 48
1.0
  6
ByLayer
 10
1.0833333333336554
 20
391.63999999999925
 30
0.0
 40
1.575
  0
CIRCLE
  5
98
100
AcDbEntity
100
AcDbCircle
  8
0
 62
256
370
-1
 48
1.0
  6
ByLayer
 10
64.640000000000157
 20
375.25000000000006
 30
0.0
 40
1.575
  0
CIRCLE
  5
99
100
AcDbEntity
100
AcDbCircle
  8
0
 62
256
370
-1
 48
1.0
  6
ByLayer
 10
-172.24999999999997
 20
-121.63999999999999
 30
0.0
 40
1.574999999999998
  0
CIRCLE
  5
9A
100
AcDbEntity
100
AcDbCircle
  8
0
 62
256
370
-1
 48
1.0
  6
ByLayer
 10
64.63999999999993
 20
119.74999999999983
 30
0.0
 40
1.574999999999996
  0
CIRCLE
  5
9B
100
AcDbEntity
100
AcDbCircle
  8
0
 62
256
370
-1
 48
1.0
  6
ByLayer
 10
48.250000000000227
 20
-121.63999999999987
 30
0.0
 40
1.574999999999998
  0
CIRCLE
  5
9C
100
AcDbEntity
100
AcDbCircle
  8
0
 62
256
370
-1
 48
1.0
  6
ByLayer
 10
-188.64000000000004
 20
119.75
 30
0.0
 40
1.574999999999996
  0
CIRCLE
  5
9D
100
AcDbEntity
100
AcDbCircle
  8
0
 62
256
370
-1
 48
1.0
  6
ByLayer
 10
-188.63999999999982
 20
375.25
 30
0.0
 40
1.575
  0
LINE
  5
9E
100
AcDbEntity
100
AcDbLine
  8
0
 62
256
370
-1
 48
1.0
  6
ByLayer
 10
-92.166666666666558
 20
137.85999999999987
 30
0.0
 11
-152.4999999999998
 21
137.8599999999999
 31
0.0
  0
LINE
  5
9F
100
AcDbEntity
100
AcDbLine
  8
0
 62
256
370
-1
 48
1.0
  6
ByLayer
 10
-152.4999999999998
 20
137.8599999999999
 30
0.0
 11
-152.49999999999977
 21
355.5
 31
0.0
  0
LINE
  5
A0
100
AcDbEntity
100
AcDbLine
  8
0
 62
256
370
-1
 48
1.0
  6
ByLayer
 10
28.500000000000227
 20
355.49999999999994
 30
0.0
 11
28.500000000000256
 21
137.85999999999996
 31
0.0
  0
LINE
  5
A1
100
AcDbEntity
100
AcDbLine
  8
0
 62
256
370
-1
 48
1.0
  6
ByLayer
 10
28.500000000000256
 20
137.85999999999996
 30
0.0
 11
-31.833333333332988
 21
137.85999999999996
 31
0.0
  0
LINE
  5
A2
100
AcDbEntity
100
AcDbLine
  8
0
 62
256
370
-1
 48
1.0
  6
ByLayer
 10
-31.833333333332988
 20
137.85999999999996
 30
0.0
 11
-31.833333333333172
 21
131.13999999999979
 31
0.0
  0
LINE
  5
A3
100
AcDbEntity
100
AcDbLine
  8
0
 62
256
370
-1
 48
1.0
  6
ByLayer
 10
-31.833333333333172
 20
131.13999999999979
 30
0.0
 11
-92.16666666666643
 21
131.1399999999999
 31
0.0
  0
LINE
  5
A4
100
AcDbEntity
100
AcDbLine
  8
0
 62
256
370
-1
 48
1.0
  6
ByLayer
 10
-92.16666666666643
 20
131.1399999999999
 30
0.0
 11
-92.166666666666558
 21
137.85999999999987
 31
0.0
  0
LINE
  5
A5
100
AcDbEntity
100
AcDbLine
  8
0
 62
256
370
-1
 48
1.0
  6
ByLayer
 10
90.253333333334211
 20
100.00000000000023
 30
0.0
 11
112.50666666666763
 21
100.00000000000017
 31
0.0
  0
LINE
  5
A6
100
AcDbEntity
100
AcDbLine
  8
0
 62
256
370
-1
 48
1.0
  6
ByLayer
 10
112.50666666666763
 20
100.00000000000017
 30
0.0
 11
112.50666666666754
 21
105.88000000000019
 31
0.0
  0
LINE
  5
A7
100
AcDbEntity
100
AcDbLine
  8
0
 62
256
370
-1
 48
1.0
  6
ByLayer
 10
112.50666666666754
 20
105.88000000000019
 30
0.0
 11
90.253333333334325
 21
105.88000000000019
 31
0.0
  0
LINE
  5
A8
100
AcDbEntity
100
AcDbLine
  8
0
 62
256
370
-1
 48
1.0
  6
ByLayer
 10
90.253333333334325
 20
105.88000000000019
 30
0.0
 11
90.253333333334211
 21
100.00000000000023
 31
0.0
  0
LINE
  5
A9
100
AcDbEntity
100
AcDbLine
  8
0
 62
256
370
-1
 48
1.0
  6
ByLayer
 10
130.48000000000096
 20
118.10000000000016
 30
0.0
 11
134.76000000000107
 21
118.10000000000011
 31
0.0
  0
LINE
  5
AA
100
AcDbEntity
100
AcDbLine
  8
0
 62
256
370
-1
 48
1.0
  6
ByLayer
 10
134.76000000000107
 20
118.10000000000011
 30
0.0
 11
134.7600000000009
 21
100.0000000000002
 31
0.0
  0
LINE
  5
AB
100
AcDbEntity
100
AcDbLine
  8
0
 62
256
370
-1
 48
1.0
  6
ByLayer
 10
134.7600000000009
 20
100.0000000000002
 30
0.0
 11
141.4800000000011
 21
100.00000000000011
 31
0.0
  0
LINE
  5
AC
100
AcDbEntity
100
AcDbLine
  8
0
 62
256
370
-1
 48
1.0
  6
ByLayer
 10
141.4800000000011
 20
100.00000000000011
 30
0.0
 11
141.48000000000073
 21
-124.99999999999979
 31
0.0
  0
LINE
  5
AD
100
AcDbEntity
100
AcDbLine
  8
0
 62
256
370
-1
 48
1.0
  6
ByLayer
 10
141.48000000000073
 20
-124.99999999999979
 30
0.0
 11
134.76000000000084
 21
-124.99999999999979
 31
0.0
  0
LINE
  5
AE
100
AcDbEntity
100
AcDbLine
  8
0
 62
256
370
-1
 48
1.0
  6
ByLayer
 10
134.76000000000084
 20
-124.99999999999979
 30
0.0
 11
134.76000000000084
 21
-118.27999999999972
 31
0.0
  0
LINE
  5
AF
100
AcDbEntity
100
AcDbLine
  8
0
 62
256
370
-1
 48
1.0
  6
ByLayer
 10
134.76000000000084
 20
-118.27999999999972
 30
0.0
 11
112.50666666666751
 21
-118.27999999999986
 31
0.0
  0
LINE
  5
B0
100
AcDbEntity
100
AcDbLine
  8
0
 62
256
370
-1
 48
1.0
  6
ByLayer
 10
112.50666666666751
 20
-118.27999999999986
 30
0.0
 11
112.50666666666751
 21
-124.99999999999979
 31
0.0
  0
LINE
  5
B1
100
AcDbEntity
100
AcDbLine
  8
0
 62
256
370
-1
 48
1.0
  6
ByLayer
 10
112.50666666666751
 20
-124.99999999999979
 30
0.0
 11
90.253333333334183
 21
-124.99999999999977
 31
0.0
  0
LINE
  5
B2
100
AcDbEntity
100
AcDbLine
  8
0
 62
256
370
-1
 48
1.0
  6
ByLayer
 10
90.253333333334183
 20
-124.99999999999977
 30
0.0
 11
90.253333333334183
 21
-118.27999999999977
 31
0.0
  0
LINE
  5
B3
100
AcDbEntity
100
AcDbLine
  8
0
 62
256
370
-1
 48
1.0
  6
ByLayer
 10
90.253333333334183
 20
-118.27999999999977
 30
0.0
 11
68.000000000000853
 21
-118.27999999999966
 31
0.0
  0
LINE
  5
B4
100
AcDbEntity
100
AcDbLine
  8
0
 62
256
370
-1
 48
1.0
  6
ByLayer
 10
68.000000000000853
 20
-118.27999999999966
 30
0.0
 11
68.000000000000853
 21
-124.99999999999977
 31
0.0
  0
LINE
  5
B5
100
AcDbEntity
100
AcDbLine
  8
0
 62
256
370
-1
 48
1.0
  6
ByLayer
 10
68.000000000000853
 20
-124.99999999999977
 30
0.0
 11
61.280000000000769
 21
-124.99999999999977
 31
0.0
  0
LINE
  5
B6
100
AcDbEntity
100
AcDbLine
  8
0
 62
256
370
-1
 48
1.0
  6
ByLayer
 10
61.280000000001039
 20
100.00000000000023
 30
0.0
 11
68.000000000000895
 21
100.00000000000026
 31
0.0
  0
LINE
  5
B7
100
AcDbEntity
100
AcDbLine
  8
0
 62
256
370
-1
 48
1.0
  6
ByLayer
 10
68.000000000000938
 20
118.10000000000025
 30
0.0
 11
72.28000000000084
 21
118.10000000000022
 31
0.0
  0
LINE
  5
B8
100
AcDbEntity
100
AcDbLine
  8
0
 62
256
370
-1
 48
1.0
  6
ByLayer
 10
72.28000000000084
 20
118.10000000000022
 30
0.0
 11
72.28000000000084
 21
117.00000000000023
 31
0.0
  0
ARC
  5
B9
100
AcDbEntity
  8
0
 62
256
370
-1
 48
1.0
  6
ByLayer
100
AcDbCircle
 10
72.280000000000882
 20
116.75000000000017
 30
0.0
 40
0.2500000000000509
100
AcDbArc
 50
90.000000000009777
 51
0.0
  0
LINE
  5
BA
100
AcDbEntity
100
AcDbLine
  8
0
 62
256
370
-1
 48
1.0
  6
ByLayer
 10
72.530000000000939
 20
116.75000000000023
 30
0.0
 11
75.030000000000854
 21
116.7500000000002
 31
0.0
  0
ARC
  5
BB
100
AcDbEntity
  8
0
 62
256
370
-1
 48
1.0
  6
ByLayer
100
AcDbCircle
 10
75.28000000000084
 20
116.75000000000023
 30
0.0
 40
0.249999999999994
100
AcDbArc
 50
180.0
 51
90.000000000006509
  0
LINE
  5
BC
100
AcDbEntity
100
AcDbLine
  8
0
 62
256
370
-1
 48
1.0
  6
ByLayer
 10
75.280000000000811
 20
117.00000000000023
 30
0.0
 11
75.280000000000925
 21
118.10000000000022
 31
0.0
  0
LINE
  5
BD
100
AcDbEntity
100
AcDbLine
  8
0
 62
256
370
-1
 48
1.0
  6
ByLayer
 10
75.280000000000925
 20
118.10000000000022
 30
0.0
 11
77.280000000000967
 21
118.10000000000022
 31
0.0
  0
LINE
  5
BE
100
AcDbEntity
100
AcDbLine
  8
0
 62
256
370
-1
 48
1.0
  6
ByLayer
 10
77.280000000000967
 20
118.10000000000022
 30
0.0
 11
77.28000000000084
 21
121.40000000000023
 31
0.0
  0
LINE
  5
BF
100
AcDbEntity
100
AcDbLine
  8
0
 62
256
370
-1
 48
1.0
  6
ByLayer
 10
77.28000000000084
 20
121.40000000000023
 30
0.0
 11
75.280000000000825
 21
121.40000000000023
 31
0.0
  0
LINE
  5
C0
100
AcDbEntity
100
AcDbLine
  8
0
 62
256
370
-1
 48
1.0
  6
ByLayer
 10
75.280000000000825
 20
121.40000000000023
 30
0.0
 11
75.280000000000953
 21
122.5000000000002
 31
0.0
  0
ARC
  5
C1
100
AcDbEntity
  8
0
 62
256
370
-1
 48
1.0
  6
ByLayer
100
AcDbCircle
 10
75.280000000000939
 20
122.75000000000024
 30
0.0
 40
0.2500000000000426
100
AcDbArc
 50
270.00000000000324
 51
180.0
  0
LINE
  5
C2
100
AcDbEntity
100
AcDbLine
  8
0
 62
256
370
-1
 48
1.0
  6
ByLayer
 10
75.030000000000896
 20
122.75000000000023
 30
0.0
 11
72.530000000000825
 21
122.75000000000023
 31
0.0
  0
ARC
  5
C3
100
AcDbEntity
  8
0
 62
256
370
-1
 48
1.0
  6
ByLayer
100
AcDbCircle
 10
72.28000000000084
 20
122.75000000000024
 30
0.0
 40
0.2499999999999787
100
AcDbArc
 50
360.0
 51
270.0
  0
LINE
  5
C4
100
AcDbEntity
100
AcDbLine
  8
0
 62
256
370
-1
 48
1.0
  6
ByLayer
 10
72.28000000000084
 20
122.50000000000026
 30
0.0
 11
72.280000000000754
 21
121.40000000000023
 31
0.0
  0
LINE
  5
C5
100
AcDbEntity
100
AcDbLine
  8
0
 62
256
370
-1
 48
1.0
  6
ByLayer
 10
72.280000000000754
 20
121.40000000000023
 30
0.0
 11
68.000000000000909
 21
121.40000000000023
 31
0.0
  0
LINE
  5
C6
100
AcDbEntity
100
AcDbLine
  8
0
 62
256
370
-1
 48
1.0
  6
ByLayer
 10
68.000000000001137
 20
373.60000000000014
 30
0.0
 11
72.600000000000932
 21
373.60000000000014
 31
0.0
  0
LINE
  5
C7
100
AcDbEntity
100
AcDbLine
  8
0
 62
256
370
-1
 48
1.0
  6
ByLayer
 10
72.600000000000932
 20
373.60000000000014
 30
0.0
 11
72.600000000000946
 21
372.50000000000011
 31
0.0
  0
ARC
  5
C8
100
AcDbEntity
  8
0
 62
256
370
-1
 48
1.0
  6
ByLayer
100
AcDbCircle
 10
72.600000000000904
 20
372.25000000000011
 30
0.0
 40
0.2500000000000071
100
AcDbArc
 50
89.999999999990223
 51
360.0
  0
LINE
  5
C9
100
AcDbEntity
100
AcDbLine
  8
0
 62
256
370
-1
 48
1.0
  6
ByLayer
 10
72.850000000000904
 20
372.25000000000006
 30
0.0
 11
75.350000000000719
 21
372.25000000000011
 31
0.0
  0
ARC
  5
CA
100
AcDbEntity
  8
0
 62
256
370
-1
 48
1.0
  6
ByLayer
100
AcDbCircle
 10
75.600000000000776
 20
372.25000000000006
 30
0.0
 40
0.2500000000000568
100
AcDbArc
 50
180.0
 51
89.999999999986969
  0
LINE
  5
CB
100
AcDbEntity
100
AcDbLine
  8
0
 62
256
370
-1
 48
1.0
  6
ByLayer
 10
75.600000000000833
 20
372.50000000000011
 30
0.0
 11
75.600000000001046
 21
373.60000000000008
 31
0.0
  0
LINE
  5
CC
100
AcDbEntity
100
AcDbLine
  8
0
 62
256
370
-1
 48
1.0
  6
ByLayer
 10
75.600000000001046
 20
373.60000000000008
 30
0.0
 11
77.600000000001188
 21
373.60000000000014
 31
0.0
  0
LINE
  5
CD
100
AcDbEntity
100
AcDbLine
  8
0
 62
256
370
-1
 48
1.0
  6
ByLayer
 10
77.600000000001188
 20
373.60000000000014
 30
0.0
 11
77.600000000001032
 21
376.90000000000009
 31
0.0
  0
LINE
  5
CE
100
AcDbEntity
100
AcDbLine
  8
0
 62
256
370
-1
 48
1.0
  6
ByLayer
 10
77.600000000001032
 20
376.90000000000009
 30
0.0
 11
75.600000000001231
 21
376.90000000000003
 31
0.0
  0
LINE
  5
CF
100
AcDbEntity
100
AcDbLine
  8
0
 62
256
370
-1
 48
1.0
  6
ByLayer
 10
75.600000000001231
 20
376.90000000000003
 30
0.0
 11
75.600000000000705
 21
378.00000000000023
 31
0.0
  0
ARC
  5
D0
100
AcDbEntity
  8
0
 62
256
370
-1
 48
1.0
  6
ByLayer
100
AcDbCircle
 10
75.600000000000847
 20
378.25000000000011
 30
0.0
 40
0.249999999999865
100
AcDbArc
 50
269.99999999996743
 51
180.0
  0
LINE
  5
D1
100
AcDbEntity
100
AcDbLine
  8
0
 62
256
370
-1
 48
1.0
  6
ByLayer
 10
75.350000000000975
 20
378.25000000000023
 30
0.0
 11
72.850000000001131
 21
378.25000000000023
 31
0.0
  0
ARC
  5
D2
100
AcDbEntity
  8
0
 62
256
370
-1
 48
1.0
  6
ByLayer
100
AcDbCircle
 10
72.600000000000989
 20
378.25000000000034
 30
0.0
 40
0.250000000000135
100
AcDbArc
 50
360.0
 51
269.99999999997073
  0
LINE
  5
D3
100
AcDbEntity
100
AcDbLine
  8
0
 62
256
370
-1
 48
1.0
  6
ByLayer
 10
72.600000000000861
 20
378.00000000000023
 30
0.0
 11
72.600000000001103
 21
376.90000000000009
 31
0.0
  0
LINE
  5
D4
100
AcDbEntity
100
AcDbLine
  8
0
 62
256
370
-1
 48
1.0
  6
ByLayer
 10
72.600000000001103
 20
376.90000000000009
 30
0.0
 11
68.000000000000853
 21
376.90000000000015
 31
0.0
  0
LINE
  5
D5
100
AcDbEntity
100
AcDbLine
  8
0
 62
256
370
-1
 48
1.0
  6
ByLayer
 10
68.00000000000118
 20
388.2800000000002
 30
0.0
 11
90.25333333333451
 21
388.28000000000009
 31
0.0
  0
LINE
  5
D6
100
AcDbEntity
100
AcDbLine
  8
0
 62
256
370
-1
 48
1.0
  6
ByLayer
 10
90.25333333333451
 20
388.28000000000009
 30
0.0
 11
90.253333333334353
 21
395.00000000000023
 31
0.0
  0
LINE
  5
D7
100
AcDbEntity
100
AcDbLine
  8
0
 62
256
370
-1
 48
1.0
  6
ByLayer
 10
90.253333333334353
 20
395.00000000000023
 30
0.0
 11
112.50666666666793
 21
395.00000000000011
 31
0.0
  0
LINE
  5
D8
100
AcDbEntity
100
AcDbLine
  8
0
 62
256
370
-1
 48
1.0
  6
ByLayer
 10
112.50666666666793
 20
395.00000000000011
 30
0.0
 11
112.50666666666771
 21
388.2800000000002
 31
0.0
  0
LINE
  5
D9
100
AcDbEntity
100
AcDbLine
  8
0
 62
256
370
-1
 48
1.0
  6
ByLayer
 10
112.50666666666771
 20
388.2800000000002
 30
0.0
 11
134.7600000000009
 21
388.2800000000002
 31
0.0
  0
LINE
  5
DA
100
AcDbEntity
100
AcDbLine
  8
0
 62
256
370
-1
 48
1.0
  6
ByLayer
 10
134.7600000000009
 20
388.2800000000002
 30
0.0
 11
134.76000000000187
 21
376.90000000000003
 31
0.0
  0
LINE
  5
DB
100
AcDbEntity
100
AcDbLine
  8
0
 62
256
370
-1
 48
1.0
  6
ByLayer
 10
134.76000000000187
 20
376.90000000000003
 30
0.0
 11
130.16000000000156
 21
376.90000000000009
 31
0.0
  0
LINE
  5
DC
100
AcDbEntity
100
AcDbLine
  8
0
 62
256
370
-1
 48
1.0
  6
ByLayer
 10
130.16000000000156
 20
376.90000000000009
 30
0.0
 11
130.16000000000184
 21
378.00000000000011
 31
0.0
  0
ARC
  5
DD
100
AcDbEntity
  8
0
 62
256
370
-1
 48
1.0
  6
ByLayer
100
AcDbCircle
 10
130.16000000000165
 20
378.25000000000034
 30
0.0
 40
0.2500000000002558
100
AcDbArc
 50
270.00000000004559
 51
180.0
  0
LINE
  5
DE
100
AcDbEntity
100
AcDbLine
  8
0
 62
256
370
-1
 48
1.0
  6
ByLayer
 10
129.91000000000139
 20
378.25000000000017
 30
0.0
 11
127.41000000000186
 21
378.25
 31
0.0
  0
ARC
  5
DF
100
AcDbEntity
  8
0
 62
256
370
-1
 48
1.0
  6
ByLayer
100
AcDbCircle
 10
127.16000000000187
 20
378.25
 30
0.0
 40
0.2499999999999929
100
AcDbArc
 50
0.0
 51
270.0
  0
LINE
  5
E0
100
AcDbEntity
100
AcDbLine
  8
0
 62
256
370
-1
 48
1.0
  6
ByLayer
 10
127.16000000000187
 20
378.0
 30
0.0
 11
127.16000000000159
 21
376.90000000000003
 31
0.0
  0
LINE
  5
E1
100
AcDbEntity
100
AcDbLine
  8
0
 62
256
370
-1
 48
1.0
  6
ByLayer
 10
127.16000000000159
 20
376.90000000000003
 30
0.0
 11
125.1600000000016
 21
376.90000000000009
 31
0.0
  0
LINE
  5
E2
100
AcDbEntity
100
AcDbLine
  8
0
 62
256
370
-1
 48
1.0
  6
ByLayer
 10
125.1600000000016
 20
376.90000000000009
 30
0.0
 11
125.16000000000136
 21
373.60000000000002
 31
0.0
  0
LINE
  5
E3
100
AcDbEntity
100
AcDbLine
  8
0
 62
256
370
-1
 48
1.0
  6
ByLayer
 10
125.16000000000136
 20
373.60000000000002
 30
0.0
 11
127.16000000000165
 21
373.59999999999997
 31
0.0
  0
LINE
  5
E4
100
AcDbEntity
100
AcDbLine
  8
0
 62
256
370
-1
 48
1.0
  6
ByLayer
 10
127.16000000000165
 20
373.59999999999997
 30
0.0
 11
127.16000000000174
 21
372.50000000000006
 31
0.0
  0
ARC
  5
E5
100
AcDbEntity
  8
0
 62
256
370
-1
 48
1.0
  6
ByLayer
100
AcDbCircle
 10
127.16000000000159
 20
372.25000000000011
 30
0.0
 40
0.2499999999999645
100
AcDbArc
 50
89.999999999964174
 51
360.0
  0
LINE
  5
E6
100
AcDbEntity
100
AcDbLine
  8
0
 62
256
370
-1
 48
1.0
  6
ByLayer
 10
127.41000000000156
 20
372.24999999999994
 30
0.0
 11
129.91000000000165
 21
372.25
 31
0.0
  0
ARC
  5
E7
100
AcDbEntity
  8
0
 62
256
370
-1
 48
1.0
  6
ByLayer
100
AcDbCircle
 10
130.16000000000167
 20
372.25000000000011
 30
0.0
 40
0.2500000000000142
100
AcDbArc
 50
180.0
 51
90.000000000026063
  0
LINE
  5
E8
100
AcDbEntity
100
AcDbLine
  8
0
 62
256
370
-1
 48
1.0
  6
ByLayer
 10
130.16000000000156
 20
372.50000000000011
 30
0.0
 11
130.16000000000167
 21
373.60000000000002
 31
0.0
  0
LINE
  5
E9
100
AcDbEntity
100
AcDbLine
  8
0
 62
256
370
-1
 48
1.0
  6
ByLayer
 10
130.16000000000167
 20
373.60000000000002
 30
0.0
 11
134.76000000000136
 21
373.60000000000008
 31
0.0
  0
LINE
  5
EA
100
AcDbEntity
100
AcDbLine
  8
0
 62
256
370
-1
 48
1.0
  6
ByLayer
 10
134.76000000000136
 20
373.60000000000008
 30
0.0
 11
134.76000000000096
 21
121.40000000000012
 31
0.0
  0
LINE
  5
EB
100
AcDbEntity
100
AcDbLine
  8
0
 62
256
370
-1
 48
1.0
  6
ByLayer
 10
134.76000000000096
 20
121.40000000000012
 30
0.0
 11
130.48000000000098
 21
121.40000000000018
 31
0.0
  0
LINE
  5
EC
100
AcDbEntity
100
AcDbLine
  8
0
 62
256
370
-1
 48
1.0
  6
ByLayer
 10
130.48000000000098
 20
121.40000000000018
 30
0.0
 11
130.48000000000104
 21
122.50000000000011
 31
0.0
  0
ARC
  5
ED
100
AcDbEntity
  8
0
 62
256
370
-1
 48
1.0
  6
ByLayer
100
AcDbCircle
 10
130.48000000000101
 20
122.7500000000002
 30
0.0
 40
0.2500000000000853
100
AcDbArc
 50
270.00000000000654
 51
180.0
  0
LINE
  5
EE
100
AcDbEntity
100
AcDbLine
  8
0
 62
256
370
-1
 48
1.0
  6
ByLayer
 10
130.2300000000009
 20
122.75000000000014
 30
0.0
 11
127.73000000000096
 21
122.75000000000014
 31
0.0
  0
ARC
  5
EF
100
AcDbEntity
  8
0
 62
256
370
-1
 48
1.0
  6
ByLayer
100
AcDbCircle
 10
127.48000000000098
 20
122.75000000000009
 30
0.0
 40
0.2499999999999716
100
AcDbArc
 50
0.0
 51
270.00000000001302
  0
LINE
  5
F0
100
AcDbEntity
100
AcDbLine
  8
0
 62
256
370
-1
 48
1.0
  6
ByLayer
 10
127.48000000000104
 20
122.50000000000011
 30
0.0
 11
127.4800000000009
 21
121.40000000000015
 31
0.0
  0
LINE
  5
F1
100
AcDbEntity
100
AcDbLine
  8
0
 62
256
370
-1
 48
1.0
  6
ByLayer
 10
127.4800000000009
 20
121.40000000000015
 30
0.0
 11
125.48000000000111
 21
121.40000000000012
 31
0.0
  0
LINE
  5
F2
100
AcDbEntity
100
AcDbLine
  8
0
 62
256
370
-1
 48
1.0
  6
ByLayer
 10
125.48000000000111
 20
121.40000000000012
 30
0.0
 11
125.48000000000101
 21
118.10000000000011
 31
0.0
  0
LINE
  5
F3
100
AcDbEntity
100
AcDbLine
  8
0
 62
256
370
-1
 48
1.0
  6
ByLayer
 10
125.48000000000101
 20
118.10000000000011
 30
0.0
 11
127.48000000000094
 21
118.10000000000016
 31
0.0
  0
LINE
  5
F4
100
AcDbEntity
100
AcDbLine
  8
0
 62
256
370
-1
 48
1.0
  6
ByLayer
 10
127.48000000000094
 20
118.10000000000016
 30
0.0
 11
127.48000000000104
 21
117.00000000000014
 31
0.0
  0
ARC
  5
F5
100
AcDbEntity
  8
0
 62
256
370
-1
 48
1.0
  6
ByLayer
100
AcDbCircle
 10
127.48000000000103
 20
116.75000000000018
 30
0.0
 40
0.2499999999999633
100
AcDbArc
 50
89.999999999996746
 51
360.0
  0
LINE
  5
F6
100
AcDbEntity
100
AcDbLine
  8
0
 62
256
370
-1
 48
1.0
  6
ByLayer
 10
127.730000000001
 20
116.75000000000017
 30
0.0
 11
130.23000000000096
 21
116.75000000000014
 31
0.0
  0
ARC
  5
F7
100
AcDbEntity
  8
0
 62
256
370
-1
 48
1.0
  6
ByLayer
100
AcDbCircle
 10
130.48000000000096
 20
116.75000000000017
 30
0.0
 40
0.2500000000000011
100
AcDbArc
 50
180.0
 51
90.000000000006509
  0
LINE
  5
F8
100
AcDbEntity
100
AcDbLine
  8
0
 62
256
370
-1
 48
1.0
  6
ByLayer
 10
130.48000000000093
 20
117.00000000000017
 30
0.0
 11
130.48000000000096
 21
118.10000000000016
 31
0.0
  0
LINE
  5
F9
100
AcDbEntity
100
AcDbLine
  8
0
 62
256
370
-1
 48
1.0
  6
ByLayer
 10
-145.77999999999923
 20
86.379999999999683
 30
0.0
 11
-145.77999999999923
 21
71.379999999999683
 31
0.0
  0
LINE
  5
FA
100
AcDbEntity
100
AcDbLine
  8
0
 62
256
370
-1
 48
1.0
  6
ByLayer
 10
-145.77999999999923
 20
71.379999999999683
 30
0.0
 11
-139.05999999999918
 21
71.379999999999683
 31
0.0
  0
LINE
  5
FB
100
AcDbEntity
100
AcDbLine
  8
0
 62
256
370
-1
 48
1.0
  6
ByLayer
 10
-139.05999999999918
 20
71.379999999999683
 30
0.0
 11
-139.05999999999918
 21
86.379999999999683
 31
0.0
  0
LINE
  5
FC
100
AcDbEntity
100
AcDbLine
  8
0
 62
256
370
-1
 48
1.0
  6
ByLayer
 10
-139.05999999999918
 20
86.379999999999683
 30
0.0
 11
-145.77999999999923
 21
86.379999999999683
 31
0.0
  0
LINE
  5
FD
100
AcDbEntity
100
AcDbLine
  8
0
 62
256
370
-1
 48
1.0
  6
ByLayer
 10
-95.379999999999725
 20
137.8599999999997
 30
0.0
 11
-95.379999999999853
 21
-68.660000000000323
 31
0.0
  0
LINE
  5
FE
100
AcDbEntity
100
AcDbLine
  8
0
 62
256
370
-1
 48
1.0
  6
ByLayer
 10
-95.379999999999853
 20
-68.660000000000323
 30
0.0
 11
-112.17999999999985
 21
-68.660000000000323
 31
0.0
  0
LINE
  5
FF
100
AcDbEntity
100
AcDbLine
  8
0
 62
256
370
-1
 48
1.0
  6
ByLayer
 10
-112.17999999999985
 20
-68.660000000000323
 30
0.0
 11
-112.17999999999985
 21
-61.940000000000346
 31
0.0
  0
LINE
  5
100
100
AcDbEntity
100
AcDbLine
  8
0
 62
256
370
-1
 48
1.0
  6
ByLayer
 10
-112.17999999999985
 20
-61.940000000000346
 30
0.0
 11
-128.97999999999985
 21
-61.940000000000325
 31
0.0
  0
LINE
  5
101
100
AcDbEntity
100
AcDbLine
  8
0
 62
256
370
-1
 48
1.0
  6
ByLayer
 10
-128.97999999999985
 20
-61.940000000000325
 30
0.0
 11
-128.97999999999985
 21
-68.660000000000309
 31
0.0
  0
LINE
  5
102
100
AcDbEntity
100
AcDbLine
  8
0
 62
256
370
-1
 48
1.0
  6
ByLayer
 10
-128.97999999999985
 20
-68.660000000000309
 30
0.0
 11
-152.49999999999989
 21
-68.660000000000309
 31
0.0
  0
LINE
  5
103
100
AcDbEntity
100
AcDbLine
  8
0
 62
256
370
-1
 48
1.0
  6
ByLayer
 10
21.779999999999603
 20
86.379999999999683
 30
0.0
 11
21.779999999999617
 21
71.379999999999683
 31
0.0
  0
LINE
  5
104
100
AcDbEntity
100
AcDbLine
  8
0
 62
256
370
-1
 48
1.0
  6
ByLayer
 10
21.779999999999617
 20
71.379999999999683
 30
0.0
 11
15.059999999999604
 21
71.379999999999683
 31
0.0
  0
LINE
  5
105
100
AcDbEntity
100
AcDbLine
  8
0
 62
256
370
-1
 48
1.0
  6
ByLayer
 10
15.059999999999604
 20
71.379999999999683
 30
0.0
 11
15.059999999999604
 21
86.379999999999683
 31
0.0
  0
LINE
  5
106
100
AcDbEntity
100
AcDbLine
  8
0
 62
256
370
-1
 48
1.0
  6
ByLayer
 10
15.059999999999604
 20
86.379999999999683
 30
0.0
 11
21.779999999999603
 21
86.379999999999683
 31
0.0
  0
LINE
  5
107
100
AcDbEntity
100
AcDbLine
  8
0
 62
256
370
-1
 48
1.0
  6
ByLayer
 10
-28.619999999999841
 20
137.8599999999997
 30
0.0
 11
-28.619999999999806
 21
-68.660000000000309
 31
0.0
  0
LINE
  5
108
100
AcDbEntity
100
AcDbLine
  8
0
 62
256
370
-1
 48
1.0
  6
ByLayer
 10
-28.619999999999806
 20
-68.660000000000309
 30
0.0
 11
-11.819999999999808
 21
-68.660000000000309
 31
0.0
  0
LINE
  5
109
100
AcDbEntity
100
AcDbLine
  8
0
 62
256
370
-1
 48
1.0
  6
ByLayer
 10
-11.819999999999808
 20
-68.660000000000309
 30
0.0
 11
-11.819999999999808
 21
-61.940000000000303
 31
0.0
  0
LINE
  5
10A
100
AcDbEntity
100
AcDbLine
  8
0
 62
256
370
-1
 48
1.0
  6
ByLayer
 10
-11.819999999999808
 20
-61.940000000000303
 30
0.0
 11
4.9800000000001887
 21
-61.940000000000303
 31
0.0
  0
LINE
  5
10B
100
AcDbEntity
100
AcDbLine
  8
0
 62
256
370
-1
 48
1.0
  6
ByLayer
 10
4.9800000000001887
 20
-61.940000000000303
 30
0.0
 11
4.9800000000001887
 21
-68.660000000000309
 31
0.0
  0
LINE
  5
10C
100
AcDbEntity
100
AcDbLine
  8
0
 62
256
370
-1
 48
1.0
  6
ByLayer
 10
4.9800000000001887
 20
-68.660000000000309
 30
0.0
 11
28.500000000000227
 21
-68.660000000000309
 31
0.0
  0
LINE
  5
10D
100
AcDbEntity
100
AcDbLine
  8
0
 62
256
370
-1
 48
1.0
  6
ByLayer
 10
-107.14999999999998
 20
-224.5
 30
0.0
 11
-107.14999999999986
 21
-229.62
 31
0.0
  0
LINE
  5
10E
100
AcDbEntity
100
AcDbLine
  8
0
 62
256
370
-1
 48
1.0
  6
ByLayer
 10
-107.14999999999986
 20
-229.62
 30
0.0
 11
-108.24999999999989
 21
-229.62
 31
0.0
  0
ARC
  5
10F
100
AcDbEntity
  8
0
 62
256
370
-1
 48
1.0
  6
ByLayer
100
AcDbCircle
 10
-108.49999999999989
 20
-229.62
 30
0.0
 40
0.25
100
AcDbArc
 50
0.0
 51
270.0
  0
LINE
  5
110
100
AcDbEntity
100
AcDbLine
  8
0
 62
256
370
-1
 48
1.0
  6
ByLayer
 10
-108.49999999999989
 20
-229.87
 30
0.0
 11
-108.49999999999989
 21
-232.37
 31
0.0
  0
ARC
  5
111
100
AcDbEntity
  8
0
 62
256
370
-1
 48
1.0
  6
ByLayer
100
AcDbCircle
 10
-108.49999999999989
 20
-232.62
 30
0.0
 40
0.25
100
AcDbArc
 50
90.0
 51
0.0
  0
LINE
  5
112
100
AcDbEntity
100
AcDbLine
  8
0
 62
256
370
-1
 48
1.0
  6
ByLayer
 10
-108.24999999999989
 20
-232.62
 30
0.0
 11
-107.14999999999998
 21
-232.62
 31
0.0
  0
LINE
  5
113
100
AcDbEntity
100
AcDbLine
  8
0
 62
256
370
-1
 48
1.0
  6
ByLayer
 10
-107.14999999999998
 20
-232.62
 30
0.0
 11
-107.14999999999998
 21
-234.62
 31
0.0
  0
LINE
  5
114
100
AcDbEntity
100
AcDbLine
  8
0
 62
256
370
-1
 48
1.0
  6
ByLayer
 10
-107.14999999999998
 20
-234.62
 30
0.0
 11
-103.84999999999991
 21
-234.62
 31
0.0
  0
LINE
  5
115
100
AcDbEntity
100
AcDbLine
  8
0
 62
256
370
-1
 48
1.0
  6
ByLayer
 10
-103.84999999999991
 20
-234.62
 30
0.0
 11
-103.84999999999991
 21
-232.62
 31
0.0
  0
LINE
  5
116
100
AcDbEntity
100
AcDbLine
  8
0
 62
256
370
-1
 48
1.0
  6
ByLayer
 10
-103.84999999999991
 20
-232.62
 30
0.0
 11
-102.74999999999989
 21
-232.62
 31
0.0
  0
ARC
  5
117
100
AcDbEntity
  8
0
 62
256
370
-1
 48
1.0
  6
ByLayer
100
AcDbCircle
 10
-102.49999999999989
 20
-232.62
 30
0.0
 40
0.25
100
AcDbArc
 50
180.0
 51
90.0
  0
LINE
  5
118
100
AcDbEntity
100
AcDbLine
  8
0
 62
256
370
-1
 48
1.0
  6
ByLayer
 10
-102.49999999999989
 20
-232.37
 30
0.0
 11
-102.49999999999989
 21
-229.87
 31
0.0
  0
ARC
  5
119
100
AcDbEntity
  8
0
 62
256
370
-1
 48
1.0
  6
ByLayer
100
AcDbCircle
 10
-102.49999999999989
 20
-229.62
 30
0.0
 40
0.25
100
AcDbArc
 50
270.0
 51
180.0
  0
LINE
  5
11A
100
AcDbEntity
100
AcDbLine
  8
0
 62
256
370
-1
 48
1.0
  6
ByLayer
 10
-102.74999999999989
 20
-229.62
 30
0.0
 11
-103.84999999999991
 21
-229.62
 31
0.0
  0
LINE
  5
11B
100
AcDbEntity
100
AcDbLine
  8
0
 62
256
370
-1
 48
1.0
  6
ByLayer
 10
-103.84999999999991
 20
-229.62
 30
0.0
 11
-103.84999999999991
 21
-224.5
 31
0.0
  0
LINE
  5
11C
100
AcDbEntity
100
AcDbLine
  8
0
 62
256
370
-1
 48
1.0
  6
ByLayer
 10
-103.84999999999991
 20
-224.5
 30
0.0
 11
-58.749999999999886
 21
-224.5
 31
0.0
  0
LINE
  5
11D
100
AcDbEntity
100
AcDbLine
  8
0
 62
256
370
-1
 48
1.0
  6
ByLayer
 10
-58.749999999999886
 20
-224.5
 30
0.0
 11
-58.749999999999886
 21
-217.77999999999997
 31
0.0
  0
LINE
  5
11E
100
AcDbEntity
100
AcDbLine
  8
0
 62
256
370
-1
 48
1.0
  6
ByLayer
 10
-58.749999999999886
 20
-217.77999999999997
 30
0.0
 11
-48.749999999999886
 21
-217.77999999999997
 31
0.0
  0
LINE
  5
11F
100
AcDbEntity
100
AcDbLine
  8
0
 62
256
370
-1
 48
1.0
  6
ByLayer
 10
-48.749999999999886
 20
-217.77999999999997
 30
0.0
 11
-48.749999999999886
 21
-224.5
 31
0.0
  0
LINE
  5
120
100
AcDbEntity
100
AcDbLine
  8
0
 62
256
370
-1
 48
1.0
  6
ByLayer
 10
-48.749999999999886
 20
-224.5
 30
0.0
 11
-38.149999999999864
 21
-224.5
 31
0.0
  0
LINE
  5
121
100
AcDbEntity
100
AcDbLine
  8
0
 62
256
370
-1
 48
1.0
  6
ByLayer
 10
-38.149999999999864
 20
-224.5
 30
0.0
 11
-38.149999999999977
 21
-229.62
 31
0.0
  0
LINE
  5
122
100
AcDbEntity
100
AcDbLine
  8
0
 62
256
370
-1
 48
1.0
  6
ByLayer
 10
-38.149999999999977
 20
-229.62
 30
0.0
 11
-39.249999999999886
 21
-229.62
 31
0.0
  0
ARC
  5
123
100
AcDbEntity
  8
0
 62
256
370
-1
 48
1.0
  6
ByLayer
100
AcDbCircle
 10
-39.499999999999886
 20
-229.62
 30
0.0
 40
0.25
100
AcDbArc
 50
0.0
 51
270.0
  0
LINE
  5
124
100
AcDbEntity
100
AcDbLine
  8
0
 62
256
370
-1
 48
1.0
  6
ByLayer
 10
-39.499999999999886
 20
-229.87
 30
0.0
 11
-39.499999999999886
 21
-232.37
 31
0.0
  0
ARC
  5
125
100
AcDbEntity
  8
0
 62
256
370
-1
 48
1.0
  6
ByLayer
100
AcDbCircle
 10
-39.499999999999886
 20
-232.62
 30
0.0
 40
0.25
100
AcDbArc
 50
90.0
 51
0.0
  0
LINE
  5
126
100
AcDbEntity
100
AcDbLine
  8
0
 62
256
370
-1
 48
1.0
  6
ByLayer
 10
-39.249999999999886
 20
-232.62
 30
0.0
 11
-38.149999999999977
 21
-232.62
 31
0.0
  0
LINE
  5
127
100
AcDbEntity
100
AcDbLine
  8
0
 62
256
370
-1
 48
1.0
  6
ByLayer
 10
-38.149999999999977
 20
-232.62
 30
0.0
 11
-38.149999999999977
 21
-234.62
 31
0.0
  0
LINE
  5
128
100
AcDbEntity
100
AcDbLine
  8
0
 62
256
370
-1
 48
1.0
  6
ByLayer
 10
-38.149999999999977
 20
-234.62
 30
0.0
 11
-34.849999999999909
 21
-234.62
 31
0.0
  0
LINE
  5
129
100
AcDbEntity
100
AcDbLine
  8
0
 62
256
370
-1
 48
1.0
  6
ByLayer
 10
-34.849999999999909
 20
-234.62
 30
0.0
 11
-34.849999999999909
 21
-232.62
 31
0.0
  0
LINE
  5
12A
100
AcDbEntity
100
AcDbLine
  8
0
 62
256
370
-1
 48
1.0
  6
ByLayer
 10
-34.849999999999909
 20
-232.62
 30
0.0
 11
-33.749999999999886
 21
-232.62
 31
0.0
  0
ARC
  5
12B
100
AcDbEntity
  8
0
 62
256
370
-1
 48
1.0
  6
ByLayer
100
AcDbCircle
 10
-33.499999999999886
 20
-232.62
 30
0.0
 40
0.25
100
AcDbArc
 50
180.0
 51
90.0
  0
LINE
  5
12C
100
AcDbEntity
100
AcDbLine
  8
0
 62
256
370
-1
 48
1.0
  6
ByLayer
 10
-33.499999999999886
 20
-232.37
 30
0.0
 11
-33.499999999999886
 21
-229.87
 31
0.0
  0
ARC
  5
12D
100
AcDbEntity
  8
0
 62
256
370
-1
 48
1.0
  6
ByLayer
100
AcDbCircle
 10
-33.499999999999886
 20
-229.62
 30
0.0
 40
0.25
100
AcDbArc
 50
270.0
 51
180.0
  0
LINE
  5
12E
100
AcDbEntity
100
AcDbLine
  8
0
 62
256
370
-1
 48
1.0
  6
ByLayer
 10
-33.749999999999886
 20
-229.62
 30
0.0
 11
-34.849999999999909
 21
-229.62
 31
0.0
  0
LINE
  5
12F
100
AcDbEntity
100
AcDbLine
  8
0
 62
256
370
-1
 48
1.0
  6
ByLayer
 10
-34.849999999999909
 20
-229.62
 30
0.0
 11
-34.849999999999909
 21
-224.5
 31
0.0
  0
LINE
  5
130
100
AcDbEntity
100
AcDbLine
  8
0
 62
256
370
-1
 48
1.0
  6
ByLayer
 10
-34.849999999999909
 20
-224.5
 30
0.0
 11
-6.9999999999998863
 21
-224.5
 31
0.0
  0
LINE
  5
131
100
AcDbEntity
100
AcDbLine
  8
0
 62
256
370
-1
 48
1.0
  6
ByLayer
 10
-6.9999999999998863
 20
-224.5
 30
0.0
 11
-6.9999999999998863
 21
-217.77999999999997
 31
0.0
  0
LINE
  5
132
100
AcDbEntity
100
AcDbLine
  8
0
 62
256
370
-1
 48
1.0
  6
ByLayer
 10
-6.9999999999998863
 20
-217.77999999999997
 30
0.0
 11
3.0
 21
-217.77999999999997
 31
0.0
  0
LINE
  5
133
100
AcDbEntity
100
AcDbLine
  8
0
 62
256
370
-1
 48
1.0
  6
ByLayer
 10
3.0
 20
-217.77999999999997
 30
0.0
 11
3.0
 21
-224.5
 31
0.0
  0
LINE
  5
134
100
AcDbEntity
100
AcDbLine
  8
0
 62
256
370
-1
 48
1.0
  6
ByLayer
 10
3.0
 20
-224.5
 30
0.0
 11
30.850000000000023
 21
-224.5
 31
0.0
  0
LINE
  5
135
100
AcDbEntity
100
AcDbLine
  8
0
 62
256
370
-1
 48
1.0
  6
ByLayer
 10
30.850000000000023
 20
-224.5
 30
0.0
 11
30.850000000000023
 21
-229.62
 31
0.0
  0
LINE
  5
136
100
AcDbEntity
100
AcDbLine
  8
0
 62
256
370
-1
 48
1.0
  6
ByLayer
 10
30.850000000000023
 20
-229.62
 30
0.0
 11
29.750000000000114
 21
-229.62
 31
0.0
  0
ARC
  5
137
100
AcDbEntity
  8
0
 62
256
370
-1
 48
1.0
  6
ByLayer
100
AcDbCircle
 10
29.500000000000114
 20
-229.62
 30
0.0
 40
0.25
100
AcDbArc
 50
0.0
 51
270.0
  0
LINE
  5
138
100
AcDbEntity
100
AcDbLine
  8
0
 62
256
370
-1
 48
1.0
  6
ByLayer
 10
29.500000000000114
 20
-229.87
 30
0.0
 11
29.500000000000114
 21
-232.37
 31
0.0
  0
ARC
  5
139
100
AcDbEntity
  8
0
 62
256
370
-1
 48
1.0
  6
ByLayer
100
AcDbCircle
 10
29.500000000000114
 20
-232.62
 30
0.0
 40
0.25
100
AcDbArc
 50
90.0
 51
0.0
  0
LINE
  5
13A
100
AcDbEntity
100
AcDbLine
  8
0
 62
256
370
-1
 48
1.0
  6
ByLayer
 10
29.750000000000114
 20
-232.62
 30
0.0
 11
30.850000000000023
 21
-232.62
 31
0.0
  0
LINE
  5
13B
100
AcDbEntity
100
AcDbLine
  8
0
 62
256
370
-1
 48
1.0
  6
ByLayer
 10
30.850000000000023
 20
-232.62
 30
0.0
 11
30.850000000000023
 21
-234.62
 31
0.0
  0
LINE
  5
13C
100
AcDbEntity
100
AcDbLine
  8
0
 62
256
370
-1
 48
1.0
  6
ByLayer
 10
30.850000000000023
 20
-234.62
 30
0.0
 11
34.150000000000205
 21
-234.62
 31
0.0
  0
LINE
  5
13D
100
AcDbEntity
100
AcDbLine
  8
0
 62
256
370
-1
 48
1.0
  6
ByLayer
 10
34.150000000000205
 20
-234.62
 30
0.0
 11
34.150000000000205
 21
-232.62
 31
0.0
  0
LINE
  5
13E
100
AcDbEntity
100
AcDbLine
  8
0
 62
256
370
-1
 48
1.0
  6
ByLayer
 10
34.150000000000205
 20
-232.62
 30
0.0
 11
35.250000000000114
 21
-232.62
 31
0.0
  0
ARC
  5
13F
100
AcDbEntity
  8
0
 62
256
370
-1
 48
1.0
  6
ByLayer
100
AcDbCircle
 10
35.500000000000114
 20
-232.62
 30
0.0
 40
0.25
100
AcDbArc
 50
180.0
 51
90.0
  0
LINE
  5
140
100
AcDbEntity
100
AcDbLine
  8
0
 62
256
370
-1
 48
1.0
  6
ByLayer
 10
35.500000000000114
 20
-232.37
 30
0.0
 11
35.500000000000114
 21
-229.87
 31
0.0
  0
ARC
  5
141
100
AcDbEntity
  8
0
 62
256
370
-1
 48
1.0
  6
ByLayer
100
AcDbCircle
 10
35.500000000000114
 20
-229.62
 30
0.0
 40
0.25
100
AcDbArc
 50
270.0
 51
180.0
  0
LINE
  5
142
100
AcDbEntity
100
AcDbLine
  8
0
 62
256
370
-1
 48
1.0
  6
ByLayer
 10
35.250000000000114
 20
-229.62
 30
0.0
 11
34.150000000000205
 21
-229.62
 31
0.0
  0
LINE
  5
143
100
AcDbEntity
100
AcDbLine
  8
0
 62
256
370
-1
 48
1.0
  6
ByLayer
 10
34.150000000000205
 20
-229.62
 30
0.0
 11
34.150000000000205
 21
-224.5
 31
0.0
  0
LINE
  5
144
100
AcDbEntity
100
AcDbLine
  8
0
 62
256
370
-1
 48
1.0
  6
ByLayer
 10
34.150000000000205
 20
-224.5
 30
0.0
 11
44.750000000000114
 21
-224.5
 31
0.0
  0
LINE
  5
145
100
AcDbEntity
100
AcDbLine
  8
0
 62
256
370
-1
 48
1.0
  6
ByLayer
 10
44.750000000000114
 20
-224.5
 30
0.0
 11
44.750000000000114
 21
-217.77999999999997
 31
0.0
  0
LINE
  5
146
100
AcDbEntity
100
AcDbLine
  8
0
 62
256
370
-1
 48
1.0
  6
ByLayer
 10
44.750000000000114
 20
-217.77999999999997
 30
0.0
 11
54.750000000000114
 21
-217.77999999999997
 31
0.0
  0
LINE
  5
147
100
AcDbEntity
100
AcDbLine
  8
0
 62
256
370
-1
 48
1.0
  6
ByLayer
 10
54.750000000000114
 20
-217.77999999999997
 30
0.0
 11
54.750000000000114
 21
-224.5
 31
0.0
  0
LINE
  5
148
100
AcDbEntity
100
AcDbLine
  8
0
 62
256
370
-1
 48
1.0
  6
ByLayer
 10
54.750000000000114
 20
-224.5
 30
0.0
 11
99.850000000000023
 21
-224.5
 31
0.0
  0
LINE
  5
149
100
AcDbEntity
100
AcDbLine
  8
0
 62
256
370
-1
 48
1.0
  6
ByLayer
 10
99.850000000000023
 20
-224.5
 30
0.0
 11
99.850000000000023
 21
-229.62
 31
0.0
  0
LINE
  5
14A
100
AcDbEntity
100
AcDbLine
  8
0
 62
256
370
-1
 48
1.0
  6
ByLayer
 10
99.850000000000023
 20
-229.62
 30
0.0
 11
98.750000000000114
 21
-229.62
 31
0.0
  0
ARC
  5
14B
100
AcDbEntity
  8
0
 62
256
370
-1
 48
1.0
  6
ByLayer
100
AcDbCircle
 10
98.500000000000114
 20
-229.62
 30
0.0
 40
0.25
100
AcDbArc
 50
0.0
 51
270.0
  0
LINE
  5
14C
100
AcDbEntity
100
AcDbLine
  8
0
 62
256
370
-1
 48
1.0
  6
ByLayer
 10
98.500000000000114
 20
-229.87
 30
0.0
 11
98.500000000000114
 21
-232.37
 31
0.0
  0
ARC
  5
14D
100
AcDbEntity
  8
0
 62
256
370
-1
 48
1.0
  6
ByLayer
100
AcDbCircle
 10
98.500000000000114
 20
-232.62
 30
0.0
 40
0.25
100
AcDbArc
 50
90.0
 51
0.0
  0
LINE
  5
14E
100
AcDbEntity
100
AcDbLine
  8
0
 62
256
370
-1
 48
1.0
  6
ByLayer
 10
98.750000000000114
 20
-232.62
 30
0.0
 11
99.850000000000023
 21
-232.62
 31
0.0
  0
LINE
  5
14F
100
AcDbEntity
100
AcDbLine
  8
0
 62
256
370
-1
 48
1.0
  6
ByLayer
 10
99.850000000000023
 20
-232.62
 30
0.0
 11
99.850000000000023
 21
-234.62
 31
0.0
  0
LINE
  5
150
100
AcDbEntity
100
AcDbLine
  8
0
 62
256
370
-1
 48
1.0
  6
ByLayer
 10
99.850000000000023
 20
-234.62
 30
0.0
 11
103.1500000000002
 21
-234.62
 31
0.0
  0
LINE
  5
151
100
AcDbEntity
100
AcDbLine
  8
0
 62
256
370
-1
 48
1.0
  6
ByLayer
 10
103.1500000000002
 20
-234.62
 30
0.0
 11
103.1500000000002
 21
-232.62
 31
0.0
  0
LINE
  5
152
100
AcDbEntity
100
AcDbLine
  8
0
 62
256
370
-1
 48
1.0
  6
ByLayer
 10
103.1500000000002
 20
-232.62
 30
0.0
 11
104.25000000000011
 21
-232.62
 31
0.0
  0
ARC
  5
153
100
AcDbEntity
  8
0
 62
256
370
-1
 48
1.0
  6
ByLayer
100
AcDbCircle
 10
104.50000000000011
 20
-232.62
 30
0.0
 40
0.25
100
AcDbArc
 50
180.0
 51
90.0
  0
LINE
  5
154
100
AcDbEntity
100
AcDbLine
  8
0
 62
256
370
-1
 48
1.0
  6
ByLayer
 10
104.50000000000011
 20
-232.37
 30
0.0
 11
104.50000000000011
 21
-229.87
 31
0.0
  0
ARC
  5
155
100
AcDbEntity
  8
0
 62
256
370
-1
 48
1.0
  6
ByLayer
100
AcDbCircle
 10
104.50000000000011
 20
-229.62
 30
0.0
 40
0.25
100
AcDbArc
 50
270.0
 51
180.0
  0
LINE
  5
156
100
AcDbEntity
100
AcDbLine
  8
0
 62
256
370
-1
 48
1.0
  6
ByLayer
 10
104.25000000000011
 20
-229.62
 30
0.0
 11
103.1500000000002
 21
-229.62
 31
0.0
  0
LINE
  5
157
100
AcDbEntity
100
AcDbLine
  8
0
 62
256
370
-1
 48
1.0
  6
ByLayer
 10
103.1500000000002
 20
-229.62
 30
0.0
 11
103.1500000000002
 21
-224.5
 31
0.0
  0
LINE
  5
158
100
AcDbEntity
100
AcDbLine
  8
0
 62
256
370
-1
 48
1.0
  6
ByLayer
 10
103.1500000000002
 20
-224.5
 30
0.0
 11
120.28000000000009
 21
-224.5
 31
0.0
  0
LINE
  5
159
100
AcDbEntity
100
AcDbLine
  8
0
 62
256
370
-1
 48
1.0
  6
ByLayer
 10
120.28000000000009
 20
-249.5
 30
0.0
 11
-124.27999999999997
 21
-249.5
 31
0.0
  0
LINE
  5
15A
100
AcDbEntity
100
AcDbLine
  8
0
 62
256
370
-1
 48
1.0
  6
ByLayer
 10
-124.27999999999997
 20
-224.5
 30
0.0
 11
-107.14999999999998
 21
-224.5
 31
0.0
  0
LINE
  5
15B
100
AcDbEntity
100
AcDbLine
  8
0
 62
256
370
-1
 48
1.0
  6
ByLayer
 10
-155.50000000000011
 20
-197.61999999999966
 30
0.0
 11
-155.50000000000011
 21
-237.93999999999986
 31
0.0
  0
LINE
  5
15C
100
AcDbEntity
100
AcDbLine
  8
0
 62
256
370
-1
 48
1.0
  6
ByLayer
 10
-155.50000000000011
 20
-237.93999999999986
 30
0.0
 11
-148.78000000000009
 21
-237.93999999999983
 31
0.0
  0
LINE
  5
15D
100
AcDbEntity
100
AcDbLine
  8
0
 62
256
370
-1
 48
1.0
  6
ByLayer
 10
-148.78000000000009
 20
-237.93999999999983
 30
0.0
 11
-148.78000000000009
 21
-224.49999999999977
 31
0.0
  0
LINE
  5
15E
100
AcDbEntity
100
AcDbLine
  8
0
 62
256
370
-1
 48
1.0
  6
ByLayer
 10
-148.78000000000009
 20
-224.49999999999977
 30
0.0
 11
-124.28000000000009
 21
-224.49999999999977
 31
0.0
  0
LINE
  5
15F
100
AcDbEntity
100
AcDbLine
  8
0
 62
256
370
-1
 48
1.0
  6
ByLayer
 10
-124.28000000000009
 20
-224.49999999999977
 30
0.0
 11
-124.28000000000011
 21
-365.17999999999961
 31
0.0
  0
LINE
  5
160
100
AcDbEntity
100
AcDbLine
  8
0
 62
256
370
-1
 48
1.0
  6
ByLayer
 10
-124.28000000000011
 20
-365.17999999999961
 30
0.0
 11
-148.77999999999997
 21
-365.17999999999961
 31
0.0
  0
LINE
  5
161
100
AcDbEntity
100
AcDbLine
  8
0
 62
256
370
-1
 48
1.0
  6
ByLayer
 10
-148.77999999999997
 20
-365.17999999999961
 30
0.0
 11
-148.77999999999992
 21
-351.73999999999955
 31
0.0
  0
LINE
  5
162
100
AcDbEntity
100
AcDbLine
  8
0
 62
256
370
-1
 48
1.0
  6
ByLayer
 10
-148.77999999999992
 20
-351.73999999999955
 30
0.0
 11
-155.50000000000003
 21
-351.74000000000001
 31
0.0
  0
LINE
  5
163
100
AcDbEntity
100
AcDbLine
  8
0
 62
256
370
-1
 48
1.0
  6
ByLayer
 10
-155.50000000000003
 20
-351.74000000000001
 30
0.0
 11
-155.50000000000014
 21
-392.05999999999972
 31
0.0
  0
LINE
  5
164
100
AcDbEntity
100
AcDbLine
  8
0
 62
256
370
-1
 48
1.0
  6
ByLayer
 10
-155.50000000000014
 20
-392.05999999999972
 30
0.0
 11
-181.17396282464099
 21
-392.05999999999972
 31
0.0
  0
LINE
  5
165
100
AcDbEntity
100
AcDbLine
  8
0
 62
256
370
-1
 48
1.0
  6
ByLayer
 10
-181.17396282464099
 20
-392.05999999999972
 30
0.0
 11
-180.17498109763079
 21
-334.82837518972588
 31
0.0
  0
LINE
  5
166
100
AcDbEntity
100
AcDbLine
  8
0
 62
256
370
-1
 48
1.0
  6
ByLayer
 10
-180.17498109763079
 20
-334.82837518972588
 30
0.0
 11
-173.78000000000006
 21
-334.93999999999983
 31
0.0
  0
LINE
  5
167
100
AcDbEntity
100
AcDbLine
  8
0
 62
256
370
-1
 48
1.0
  6
ByLayer
 10
-173.78000000000006
 20
-334.93999999999983
 30
0.0
 11
-160.33999999999992
 21
-334.93999999999988
 31
0.0
  0
LINE
  5
168
100
AcDbEntity
100
AcDbLine
  8
0
 62
256
370
-1
 48
1.0
  6
ByLayer
 10
-160.33999999999992
 20
-334.93999999999988
 30
0.0
 11
-160.34
 21
-328.22000000000003
 31
0.0
  0
LINE
  5
169
100
AcDbEntity
100
AcDbLine
  8
0
 62
256
370
-1
 48
1.0
  6
ByLayer
 10
-160.34
 20
-328.22000000000003
 30
0.0
 11
-167.06
 21
-328.22000000000003
 31
0.0
  0
LINE
  5
16A
100
AcDbEntity
100
AcDbLine
  8
0
 62
256
370
-1
 48
1.0
  6
ByLayer
 10
-167.06
 20
-328.22000000000003
 30
0.0
 11
-167.06000000000003
 21
-318.74333333333311
 31
0.0
  0
LINE
  5
16B
100
AcDbEntity
100
AcDbLine
  8
0
 62
256
370
-1
 48
1.0
  6
ByLayer
 10
-167.06000000000003
 20
-318.74333333333311
 30
0.0
 11
-162.78000000000003
 21
-318.74333333333311
 31
0.0
  0
LINE
  5
16C
100
AcDbEntity
100
AcDbLine
  8
0
 62
256
370
-1
 48
1.0
  6
ByLayer
 10
-162.78000000000003
 20
-318.74333333333311
 30
0.0
 11
-162.78000000000003
 21
-319.84333333333302
 31
0.0
  0
ARC
  5
16D
100
AcDbEntity
  8
0
 62
256
370
-1
 48
1.0
  6
ByLayer
100
AcDbCircle
 10
-162.78000000000003
 20
-320.09333333333302
 30
0.0
 40
0.25
100
AcDbArc
 50
90.0
 51
0.0
  0
LINE
  5
16E
100
AcDbEntity
100
AcDbLine
  8
0
 62
256
370
-1
 48
1.0
  6
ByLayer
 10
-162.53000000000003
 20
-320.09333333333302
 30
0.0
 11
-160.03000000000003
 21
-320.09333333333302
 31
0.0
  0
ARC
  5
16F
100
AcDbEntity
  8
0
 62
256
370
-1
 48
1.0
  6
ByLayer
100
AcDbCircle
 10
-159.78000000000003
 20
-320.09333333333302
 30
0.0
 40
0.25
100
AcDbArc
 50
180.0
 51
90.0
  0
LINE
  5
170
100
AcDbEntity
100
AcDbLine
  8
0
 62
256
370
-1
 48
1.0
  6
ByLayer
 10
-159.78000000000003
 20
-319.84333333333302
 30
0.0
 11
-159.78000000000003
 21
-318.74333333333311
 31
0.0
  0
LINE
  5
171
100
AcDbEntity
100
AcDbLine
  8
0
 62
256
370
-1
 48
1.0
  6
ByLayer
 10
-159.78000000000003
 20
-318.74333333333311
 30
0.0
 11
-157.78000000000003
 21
-318.74333333333311
 31
0.0
  0
LINE
  5
172
100
AcDbEntity
100
AcDbLine
  8
0
 62
256
370
-1
 48
1.0
  6
ByLayer
 10
-157.78000000000003
 20
-318.74333333333311
 30
0.0
 11
-157.78000000000006
 21
-315.44333333333293
 31
0.0
  0
LINE
  5
173
100
AcDbEntity
100
AcDbLine
  8
0
 62
256
370
-1
 48
1.0
  6
ByLayer
 10
-157.78000000000006
 20
-315.44333333333293
 30
0.0
 11
-159.78000000000009
 21
-315.44333333333293
 31
0.0
  0
LINE
  5
174
100
AcDbEntity
100
AcDbLine
  8
0
 62
256
370
-1
 48
1.0
  6
ByLayer
 10
-159.78000000000009
 20
-315.44333333333293
 30
0.0
 11
-159.78
 21
-314.34333333333302
 31
0.0
  0
ARC
  5
175
100
AcDbEntity
  8
0
 62
256
370
-1
 48
1.0
  6
ByLayer
100
AcDbCircle
 10
-159.78
 20
-314.09333333333302
 30
0.0
 40
0.25
100
AcDbArc
 50
270.0
 51
180.0
  0
LINE
  5
176
100
AcDbEntity
100
AcDbLine
  8
0
 62
256
370
-1
 48
1.0
  6
ByLayer
 10
-160.03
 20
-314.09333333333302
 30
0.0
 11
-162.53
 21
-314.09333333333302
 31
0.0
  0
ARC
  5
177
100
AcDbEntity
  8
0
 62
256
370
-1
 48
1.0
  6
ByLayer
100
AcDbCircle
 10
-162.78000000000003
 20
-314.09333333333302
 30
0.0
 40
0.2500000000000142
100
AcDbArc
 50
0.0
 51
270.0
  0
LINE
  5
178
100
AcDbEntity
100
AcDbLine
  8
0
 62
256
370
-1
 48
1.0
  6
ByLayer
 10
-162.78000000000003
 20
-314.34333333333302
 30
0.0
 11
-162.78000000000006
 21
-315.44333333333293
 31
0.0
  0
LINE
  5
179
100
AcDbEntity
100
AcDbLine
  8
0
 62
256
370
-1
 48
1.0
  6
ByLayer
 10
-162.78000000000006
 20
-315.44333333333293
 30
0.0
 11
-167.06
 21
-315.44333333333299
 31
0.0
  0
LINE
  5
17A
100
AcDbEntity
100
AcDbLine
  8
0
 62
256
370
-1
 48
1.0
  6
ByLayer
 10
-167.06
 20
-315.44333333333299
 30
0.0
 11
-167.06
 21
-305.96666666666647
 31
0.0
  0
LINE
  5
17B
100
AcDbEntity
100
AcDbLine
  8
0
 62
256
370
-1
 48
1.0
  6
ByLayer
 10
-167.06
 20
-305.96666666666647
 30
0.0
 11
-173.78000000000003
 21
-305.96666666666647
 31
0.0
  0
LINE
  5
17C
100
AcDbEntity
100
AcDbLine
  8
0
 62
256
370
-1
 48
1.0
  6
ByLayer
 10
-173.78000000000003
 20
-305.96666666666647
 30
0.0
 11
-173.78000000000006
 21
-283.71333333333291
 31
0.0
  0
LINE
  5
17D
100
AcDbEntity
100
AcDbLine
  8
0
 62
256
370
-1
 48
1.0
  6
ByLayer
 10
-173.78000000000006
 20
-283.71333333333291
 30
0.0
 11
-167.06000000000006
 21
-283.71333333333291
 31
0.0
  0
LINE
  5
17E
100
AcDbEntity
100
AcDbLine
  8
0
 62
256
370
-1
 48
1.0
  6
ByLayer
 10
-167.06000000000006
 20
-283.71333333333291
 30
0.0
 11
-167.06000000000006
 21
-274.23666666666645
 31
0.0
  0
LINE
  5
17F
100
AcDbEntity
100
AcDbLine
  8
0
 62
256
370
-1
 48
1.0
  6
ByLayer
 10
-167.06000000000006
 20
-274.23666666666645
 30
0.0
 11
-162.78000000000009
 21
-274.23666666666645
 31
0.0
  0
LINE
  5
180
100
AcDbEntity
100
AcDbLine
  8
0
 62
256
370
-1
 48
1.0
  6
ByLayer
 10
-162.78000000000009
 20
-274.23666666666645
 30
0.0
 11
-162.78000000000006
 21
-275.33666666666636
 31
0.0
  0
ARC
  5
181
100
AcDbEntity
  8
0
 62
256
370
-1
 48
1.0
  6
ByLayer
100
AcDbCircle
 10
-162.78000000000006
 20
-275.58666666666636
 30
0.0
 40
0.25
100
AcDbArc
 50
90.0
 51
0.0
  0
LINE
  5
182
100
AcDbEntity
100
AcDbLine
  8
0
 62
256
370
-1
 48
1.0
  6
ByLayer
 10
-162.53000000000006
 20
-275.58666666666636
 30
0.0
 11
-160.03000000000006
 21
-275.58666666666636
 31
0.0
  0
ARC
  5
183
100
AcDbEntity
  8
0
 62
256
370
-1
 48
1.0
  6
ByLayer
100
AcDbCircle
 10
-159.78000000000009
 20
-275.5866666666663
 30
0.0
 40
0.2499999999999716
100
AcDbArc
 50
180.0
 51
90.000000000006509
  0
LINE
  5
184
100
AcDbEntity
100
AcDbLine
  8
0
 62
256
370
-1
 48
1.0
  6
ByLayer
 10
-159.78000000000011
 20
-275.33666666666636
 30
0.0
 11
-159.78000000000003
 21
-274.23666666666651
 31
0.0
  0
LINE
  5
185
100
AcDbEntity
100
AcDbLine
  8
0
 62
256
370
-1
 48
1.0
  6
ByLayer
 10
-159.78000000000003
 20
-274.23666666666651
 30
0.0
 11
-157.78000000000009
 21
-274.23666666666645
 31
0.0
  0
LINE
  5
186
100
AcDbEntity
100
AcDbLine
  8
0
 62
256
370
-1
 48
1.0
  6
ByLayer
 10
-157.78000000000009
 20
-274.23666666666645
 30
0.0
 11
-157.78000000000009
 21
-270.93666666666627
 31
0.0
  0
LINE
  5
187
100
AcDbEntity
100
AcDbLine
  8
0
 62
256
370
-1
 48
1.0
  6
ByLayer
 10
-157.78000000000009
 20
-270.93666666666627
 30
0.0
 11
-159.78000000000009
 21
-270.93666666666627
 31
0.0
  0
LINE
  5
188
100
AcDbEntity
100
AcDbLine
  8
0
 62
256
370
-1
 48
1.0
  6
ByLayer
 10
-159.78000000000009
 20
-270.93666666666627
 30
0.0
 11
-159.78000000000006
 21
-269.83666666666636
 31
0.0
  0
ARC
  5
189
100
AcDbEntity
  8
0
 62
256
370
-1
 48
1.0
  6
ByLayer
100
AcDbCircle
 10
-159.78000000000009
 20
-269.58666666666636
 30
0.0
 40
0.2500000000000142
100
AcDbArc
 50
270.00000000000654
 51
180.0
  0
LINE
  5
18A
100
AcDbEntity
100
AcDbLine
  8
0
 62
256
370
-1
 48
1.0
  6
ByLayer
 10
-160.03000000000009
 20
-269.58666666666636
 30
0.0
 11
-162.53000000000006
 21
-269.58666666666636
 31
0.0
  0
ARC
  5
18B
100
AcDbEntity
  8
0
 62
256
370
-1
 48
1.0
  6
ByLayer
100
AcDbCircle
 10
-162.78000000000006
 20
-269.58666666666636
 30
0.0
 40
0.25
100
AcDbArc
 50
0.0
 51
270.0
  0
LINE
  5
18C
100
AcDbEntity
100
AcDbLine
  8
0
 62
256
370
-1
 48
1.0
  6
ByLayer
 10
-162.78000000000006
 20
-269.83666666666636
 30
0.0
 11
-162.78000000000009
 21
-270.93666666666627
 31
0.0
  0
LINE
  5
18D
100
AcDbEntity
100
AcDbLine
  8
0
 62
256
370
-1
 48
1.0
  6
ByLayer
 10
-162.78000000000009
 20
-270.93666666666627
 30
0.0
 11
-167.06000000000006
 21
-270.93666666666627
 31
0.0
  0
LINE
  5
18E
100
AcDbEntity
100
AcDbLine
  8
0
 62
256
370
-1
 48
1.0
  6
ByLayer
 10
-167.06000000000006
 20
-270.93666666666627
 30
0.0
 11
-167.06000000000003
 21
-261.45999999999981
 31
0.0
  0
LINE
  5
18F
100
AcDbEntity
100
AcDbLine
  8
0
 62
256
370
-1
 48
1.0
  6
ByLayer
 10
-167.06000000000003
 20
-261.45999999999981
 30
0.0
 11
-160.34
 21
-261.45999999999981
 31
0.0
  0
LINE
  5
190
100
AcDbEntity
100
AcDbLine
  8
0
 62
256
370
-1
 48
1.0
  6
ByLayer
 10
-160.34
 20
-261.45999999999981
 30
0.0
 11
-160.34000000000003
 21
-254.74000000000001
 31
0.0
  0
LINE
  5
191
100
AcDbEntity
100
AcDbLine
  8
0
 62
256
370
-1
 48
1.0
  6
ByLayer
 10
-160.34000000000003
 20
-254.74000000000001
 30
0.0
 11
-173.78000000000009
 21
-254.74000000000004
 31
0.0
  0
LINE
  5
192
100
AcDbEntity
100
AcDbLine
  8
0
 62
256
370
-1
 48
1.0
  6
ByLayer
 10
-173.78000000000009
 20
-254.74000000000004
 30
0.0
 11
-178.77551127986123
 21
-254.65280302626002
 31
0.0
  0
LINE
  5
193
100
AcDbEntity
100
AcDbLine
  8
0
 62
256
370
-1
 48
1.0
  6
ByLayer
 10
-178.77551127986123
 20
-254.65280302626002
 30
0.0
 11
-177.78000000000011
 21
-197.61999999999969
 31
0.0
  0
LINE
  5
194
100
AcDbEntity
100
AcDbLine
  8
0
 62
256
370
-1
 48
1.0
  6
ByLayer
 10
-177.78000000000011
 20
-197.61999999999969
 30
0.0
 11
-155.50000000000011
 21
-197.61999999999966
 31
0.0
  0
ARC
  5
195
100
AcDbEntity
  8
0
 62
256
370
-1
 48
1.0
  6
ByLayer
100
AcDbCircle
 10
68.500000000000057
 20
-348.5
 30
0.0
 40
1.4999999999999432
100
AcDbArc
 50
0.0
 51
180.0
  0
LINE
  5
196
100
AcDbEntity
100
AcDbLine
  8
0
 62
256
370
-1
 48
1.0
  6
ByLayer
 10
70.0
 20
-348.5
 30
0.0
 11
70.0
 21
-352.5
 31
0.0
  0
ARC
  5
197
100
AcDbEntity
  8
0
 62
256
370
-1
 48
1.0
  6
ByLayer
100
AcDbCircle
 10
68.500000000000057
 20
-352.5
 30
0.0
 40
1.4999999999999432
100
AcDbArc
 50
180.0
 51
0.0
  0
LINE
  5
198
100
AcDbEntity
100
AcDbLine
  8
0
 62
256
370
-1
 48
1.0
  6
ByLayer
 10
67.000000000000114
 20
-352.5
 30
0.0
 11
67.000000000000114
 21
-348.5
 31
0.0
  0
ARC
  5
199
100
AcDbEntity
  8
0
 62
256
370
-1
 48
1.0
  6
ByLayer
100
AcDbCircle
 10
59.0
 20
-352.5
 30
0.0
 40
1.5
100
AcDbArc
 50
180.0
 51
0.0
  0
LINE
  5
19A
100
AcDbEntity
100
AcDbLine
  8
0
 62
256
370
-1
 48
1.0
  6
ByLayer
 10
57.5
 20
-352.5
 30
0.0
 11
57.5
 21
-348.5
 31
0.0
  0
ARC
  5
19B
100
AcDbEntity
  8
0
 62
256
370
-1
 48
1.0
  6
ByLayer
100
AcDbCircle
 10
59.0
 20
-348.5
 30
0.0
 40
1.5
100
AcDbArc
 50
0.0
 51
180.0
  0
LINE
  5
19C
100
AcDbEntity
100
AcDbLine
  8
0
 62
256
370
-1
 48
1.0
  6
ByLayer
 10
60.5
 20
-348.5
 30
0.0
 11
60.5
 21
-352.5
 31
0.0
  0
LINE
  5
19D
100
AcDbEntity
100
AcDbLine
  8
0
 62
256
370
-1
 48
1.0
  6
ByLayer
 10
-107.14999999999998
 20
-365.5
 30
0.0
 11
-107.14999999999998
 21
-360.38000000000011
 31
0.0
  0
LINE
  5
19E
100
AcDbEntity
100
AcDbLine
  8
0
 62
256
370
-1
 48
1.0
  6
ByLayer
 10
-107.14999999999998
 20
-360.38000000000011
 30
0.0
 11
-108.24999999999994
 21
-360.38000000000011
 31
0.0
  0
ARC
  5
19F
100
AcDbEntity
  8
0
 62
256
370
-1
 48
1.0
  6
ByLayer
100
AcDbCircle
 10
-108.49999999999994
 20
-360.38000000000011
 30
0.0
 40
0.25
100
AcDbArc
 50
90.0
 51
0.0
  0
LINE
  5
1A0
100
AcDbEntity
100
AcDbLine
  8
0
 62
256
370
-1
 48
1.0
  6
ByLayer
 10
-108.49999999999994
 20
-360.13000000000011
 30
0.0
 11
-108.49999999999994
 21
-357.62999999999988
 31
0.0
  0
ARC
  5
1A1
100
AcDbEntity
  8
0
 62
256
370
-1
 48
1.0
  6
ByLayer
100
AcDbCircle
 10
-108.49999999999994
 20
-357.37999999999988
 30
0.0
 40
0.25
100
AcDbArc
 50
0.0
 51
270.0
  0
LINE
  5
1A2
100
AcDbEntity
100
AcDbLine
  8
0
 62
256
370
-1
 48
1.0
  6
ByLayer
 10
-108.24999999999994
 20
-357.37999999999988
 30
0.0
 11
-107.14999999999998
 21
-357.38000000000011
 31
0.0
  0
LINE
  5
1A3
100
AcDbEntity
100
AcDbLine
  8
0
 62
256
370
-1
 48
1.0
  6
ByLayer
 10
-107.14999999999998
 20
-357.38000000000011
 30
0.0
 11
-107.14999999999998
 21
-355.37999999999988
 31
0.0
  0
LINE
  5
1A4
100
AcDbEntity
100
AcDbLine
  8
0
 62
256
370
-1
 48
1.0
  6
ByLayer
 10
-107.14999999999998
 20
-355.37999999999988
 30
0.0
 11
-103.84999999999997
 21
-355.37999999999988
 31
0.0
  0
LINE
  5
1A5
100
AcDbEntity
100
AcDbLine
  8
0
 62
256
370
-1
 48
1.0
  6
ByLayer
 10
-103.84999999999997
 20
-355.37999999999988
 30
0.0
 11
-103.84999999999997
 21
-357.37999999999988
 31
0.0
  0
LINE
  5
1A6
100
AcDbEntity
100
AcDbLine
  8
0
 62
256
370
-1
 48
1.0
  6
ByLayer
 10
-103.84999999999997
 20
-357.37999999999988
 30
0.0
 11
-102.74999999999994
 21
-357.37999999999988
 31
0.0
  0
ARC
  5
1A7
100
AcDbEntity
  8
0
 62
256
370
-1
 48
1.0
  6
ByLayer
100
AcDbCircle
 10
-102.49999999999994
 20
-357.37999999999988
 30
0.0
 40
0.25
100
AcDbArc
 50
270.0
 51
180.0
  0
LINE
  5
1A8
100
AcDbEntity
100
AcDbLine
  8
0
 62
256
370
-1
 48
1.0
  6
ByLayer
 10
-102.49999999999994
 20
-357.62999999999988
 30
0.0
 11
-102.49999999999994
 21
-360.13000000000011
 31
0.0
  0
ARC
  5
1A9
100
AcDbEntity
  8
0
 62
256
370
-1
 48
1.0
  6
ByLayer
100
AcDbCircle
 10
-102.49999999999994
 20
-360.38000000000011
 30
0.0
 40
0.25
100
AcDbArc
 50
180.0
 51
90.0
  0
LINE
  5
1AA
100
AcDbEntity
100
AcDbLine
  8
0
 62
256
370
-1
 48
1.0
  6
ByLayer
 10
-102.74999999999994
 20
-360.38000000000011
 30
0.0
 11
-103.84999999999997
 21
-360.38000000000011
 31
0.0
  0
LINE
  5
1AB
100
AcDbEntity
100
AcDbLine
  8
0
 62
256
370
-1
 48
1.0
  6
ByLayer
 10
-103.84999999999997
 20
-360.38000000000011
 30
0.0
 11
-103.84999999999997
 21
-365.5
 31
0.0
  0
LINE
  5
1AC
100
AcDbEntity
100
AcDbLine
  8
0
 62
256
370
-1
 48
1.0
  6
ByLayer
 10
-103.84999999999997
 20
-365.5
 30
0.0
 11
-58.75
 21
-365.5
 31
0.0
  0
LINE
  5
1AD
100
AcDbEntity
100
AcDbLine
  8
0
 62
256
370
-1
 48
1.0
  6
ByLayer
 10
-58.75
 20
-365.5
 30
0.0
 11
-58.75
 21
-372.22000000000003
 31
0.0
  0
LINE
  5
1AE
100
AcDbEntity
100
AcDbLine
  8
0
 62
256
370
-1
 48
1.0
  6
ByLayer
 10
-58.75
 20
-372.22000000000003
 30
0.0
 11
-48.75
 21
-372.22000000000003
 31
0.0
  0
LINE
  5
1AF
100
AcDbEntity
100
AcDbLine
  8
0
 62
256
370
-1
 48
1.0
  6
ByLayer
 10
-48.75
 20
-372.22000000000003
 30
0.0
 11
-48.75
 21
-365.5
 31
0.0
  0
LINE
  5
1B0
100
AcDbEntity
100
AcDbLine
  8
0
 62
256
370
-1
 48
1.0
  6
ByLayer
 10
-48.75
 20
-365.5
 30
0.0
 11
-38.149999999999977
 21
-365.5
 31
0.0
  0
LINE
  5
1B1
100
AcDbEntity
100
AcDbLine
  8
0
 62
256
370
-1
 48
1.0
  6
ByLayer
 10
-38.149999999999977
 20
-365.5
 30
0.0
 11
-38.149999999999977
 21
-360.38000000000011
 31
0.0
  0
LINE
  5
1B2
100
AcDbEntity
100
AcDbLine
  8
0
 62
256
370
-1
 48
1.0
  6
ByLayer
 10
-38.149999999999977
 20
-360.38000000000011
 30
0.0
 11
-39.25
 21
-360.38000000000011
 31
0.0
  0
ARC
  5
1B3
100
AcDbEntity
  8
0
 62
256
370
-1
 48
1.0
  6
ByLayer
100
AcDbCircle
 10
-39.5
 20
-360.38000000000011
 30
0.0
 40
0.25
100
AcDbArc
 50
90.0
 51
0.0
  0
LINE
  5
1B4
100
AcDbEntity
100
AcDbLine
  8
0
 62
256
370
-1
 48
1.0
  6
ByLayer
 10
-39.5
 20
-360.13000000000011
 30
0.0
 11
-39.5
 21
-357.62999999999988
 31
0.0
  0
ARC
  5
1B5
100
AcDbEntity
  8
0
 62
256
370
-1
 48
1.0
  6
ByLayer
100
AcDbCircle
 10
-39.5
 20
-357.37999999999988
 30
0.0
 40
0.25
100
AcDbArc
 50
0.0
 51
270.0
  0
LINE
  5
1B6
100
AcDbEntity
100
AcDbLine
  8
0
 62
256
370
-1
 48
1.0
  6
ByLayer
 10
-39.25
 20
-357.37999999999988
 30
0.0
 11
-38.149999999999977
 21
-357.38000000000011
 31
0.0
  0
LINE
  5
1B7
100
AcDbEntity
100
AcDbLine
  8
0
 62
256
370
-1
 48
1.0
  6
ByLayer
 10
-38.149999999999977
 20
-357.38000000000011
 30
0.0
 11
-38.149999999999977
 21
-355.37999999999988
 31
0.0
  0
LINE
  5
1B8
100
AcDbEntity
100
AcDbLine
  8
0
 62
256
370
-1
 48
1.0
  6
ByLayer
 10
-38.149999999999977
 20
-355.37999999999988
 30
0.0
 11
-34.849999999999909
 21
-355.37999999999988
 31
0.0
  0
LINE
  5
1B9
100
AcDbEntity
100
AcDbLine
  8
0
 62
256
370
-1
 48
1.0
  6
ByLayer
 10
-34.849999999999909
 20
-355.37999999999988
 30
0.0
 11
-34.849999999999909
 21
-357.37999999999988
 31
0.0
  0
LINE
  5
1BA
100
AcDbEntity
100
AcDbLine
  8
0
 62
256
370
-1
 48
1.0
  6
ByLayer
 10
-34.849999999999909
 20
-357.37999999999988
 30
0.0
 11
-33.75
 21
-357.37999999999988
 31
0.0
  0
ARC
  5
1BB
100
AcDbEntity
  8
0
 62
256
370
-1
 48
1.0
  6
ByLayer
100
AcDbCircle
 10
-33.5
 20
-357.37999999999988
 30
0.0
 40
0.25
100
AcDbArc
 50
270.0
 51
180.0
  0
LINE
  5
1BC
100
AcDbEntity
100
AcDbLine
  8
0
 62
256
370
-1
 48
1.0
  6
ByLayer
 10
-33.5
 20
-357.62999999999988
 30
0.0
 11
-33.5
 21
-360.13000000000011
 31
0.0
  0
ARC
  5
1BD
100
AcDbEntity
  8
0
 62
256
370
-1
 48
1.0
  6
ByLayer
100
AcDbCircle
 10
-33.5
 20
-360.38000000000011
 30
0.0
 40
0.25
100
AcDbArc
 50
180.0
 51
90.0
  0
LINE
  5
1BE
100
AcDbEntity
100
AcDbLine
  8
0
 62
256
370
-1
 48
1.0
  6
ByLayer
 10
-33.75
 20
-360.38000000000011
 30
0.0
 11
-34.849999999999909
 21
-360.38000000000011
 31
0.0
  0
LINE
  5
1BF
100
AcDbEntity
100
AcDbLine
  8
0
 62
256
370
-1
 48
1.0
  6
ByLayer
 10
-34.849999999999909
 20
-360.38000000000011
 30
0.0
 11
-34.849999999999909
 21
-365.5
 31
0.0
  0
LINE
  5
1C0
100
AcDbEntity
100
AcDbLine
  8
0
 62
256
370
-1
 48
1.0
  6
ByLayer
 10
-34.849999999999909
 20
-365.5
 30
0.0
 11
-7.0
 21
-365.5
 31
0.0
  0
LINE
  5
1C1
100
AcDbEntity
100
AcDbLine
  8
0
 62
256
370
-1
 48
1.0
  6
ByLayer
 10
-7.0
 20
-365.5
 30
0.0
 11
-7.0
 21
-372.22000000000003
 31
0.0
  0
LINE
  5
1C2
100
AcDbEntity
100
AcDbLine
  8
0
 62
256
370
-1
 48
1.0
  6
ByLayer
 10
-7.0
 20
-372.22000000000003
 30
0.0
 11
3.0
 21
-372.22000000000003
 31
0.0
  0
LINE
  5
1C3
100
AcDbEntity
100
AcDbLine
  8
0
 62
256
370
-1
 48
1.0
  6
ByLayer
 10
3.0
 20
-372.22000000000003
 30
0.0
 11
3.0
 21
-365.5
 31
0.0
  0
LINE
  5
1C4
100
AcDbEntity
100
AcDbLine
  8
0
 62
256
370
-1
 48
1.0
  6
ByLayer
 10
3.0
 20
-365.5
 30
0.0
 11
30.850000000000023
 21
-365.5
 31
0.0
  0
LINE
  5
1C5
100
AcDbEntity
100
AcDbLine
  8
0
 62
256
370
-1
 48
1.0
  6
ByLayer
 10
30.850000000000023
 20
-365.5
 30
0.0
 11
30.850000000000023
 21
-360.38000000000011
 31
0.0
  0
LINE
  5
1C6
100
AcDbEntity
100
AcDbLine
  8
0
 62
256
370
-1
 48
1.0
  6
ByLayer
 10
30.850000000000023
 20
-360.38000000000011
 30
0.0
 11
29.75
 21
-360.38000000000011
 31
0.0
  0
ARC
  5
1C7
100
AcDbEntity
  8
0
 62
256
370
-1
 48
1.0
  6
ByLayer
100
AcDbCircle
 10
29.5
 20
-360.38000000000011
 30
0.0
 40
0.25
100
AcDbArc
 50
90.0
 51
0.0
  0
LINE
  5
1C8
100
AcDbEntity
100
AcDbLine
  8
0
 62
256
370
-1
 48
1.0
  6
ByLayer
 10
29.5
 20
-360.13000000000011
 30
0.0
 11
29.5
 21
-357.62999999999988
 31
0.0
  0
ARC
  5
1C9
100
AcDbEntity
  8
0
 62
256
370
-1
 48
1.0
  6
ByLayer
100
AcDbCircle
 10
29.5
 20
-357.37999999999988
 30
0.0
 40
0.25
100
AcDbArc
 50
0.0
 51
270.0
  0
LINE
  5
1CA
100
AcDbEntity
100
AcDbLine
  8
0
 62
256
370
-1
 48
1.0
  6
ByLayer
 10
29.75
 20
-357.37999999999988
 30
0.0
 11
30.850000000000023
 21
-357.38000000000011
 31
0.0
  0
LINE
  5
1CB
100
AcDbEntity
100
AcDbLine
  8
0
 62
256
370
-1
 48
1.0
  6
ByLayer
 10
30.850000000000023
 20
-357.38000000000011
 30
0.0
 11
30.850000000000023
 21
-355.37999999999988
 31
0.0
  0
LINE
  5
1CC
100
AcDbEntity
100
AcDbLine
  8
0
 62
256
370
-1
 48
1.0
  6
ByLayer
 10
30.850000000000023
 20
-355.37999999999988
 30
0.0
 11
34.150000000000091
 21
-355.37999999999988
 31
0.0
  0
LINE
  5
1CD
100
AcDbEntity
100
AcDbLine
  8
0
 62
256
370
-1
 48
1.0
  6
ByLayer
 10
34.150000000000091
 20
-355.37999999999988
 30
0.0
 11
34.150000000000091
 21
-357.37999999999988
 31
0.0
  0
LINE
  5
1CE
100
AcDbEntity
100
AcDbLine
  8
0
 62
256
370
-1
 48
1.0
  6
ByLayer
 10
34.150000000000091
 20
-357.37999999999988
 30
0.0
 11
35.25
 21
-357.37999999999988
 31
0.0
  0
ARC
  5
1CF
100
AcDbEntity
  8
0
 62
256
370
-1
 48
1.0
  6
ByLayer
100
AcDbCircle
 10
35.5
 20
-357.37999999999988
 30
0.0
 40
0.25
100
AcDbArc
 50
270.0
 51
180.0
  0
LINE
  5
1D0
100
AcDbEntity
100
AcDbLine
  8
0
 62
256
370
-1
 48
1.0
  6
ByLayer
 10
35.5
 20
-357.62999999999988
 30
0.0
 11
35.5
 21
-360.13000000000011
 31
0.0
  0
ARC
  5
1D1
100
AcDbEntity
  8
0
 62
256
370
-1
 48
1.0
  6
ByLayer
100
AcDbCircle
 10
35.5
 20
-360.38000000000011
 30
0.0
 40
0.25
100
AcDbArc
 50
180.0
 51
90.0
  0
LINE
  5
1D2
100
AcDbEntity
100
AcDbLine
  8
0
 62
256
370
-1
 48
1.0
  6
ByLayer
 10
35.25
 20
-360.38000000000011
 30
0.0
 11
34.150000000000091
 21
-360.38000000000011
 31
0.0
  0
LINE
  5
1D3
100
AcDbEntity
100
AcDbLine
  8
0
 62
256
370
-1
 48
1.0
  6
ByLayer
 10
34.150000000000091
 20
-360.38000000000011
 30
0.0
 11
34.150000000000091
 21
-365.5
 31
0.0
  0
LINE
  5
1D4
100
AcDbEntity
100
AcDbLine
  8
0
 62
256
370
-1
 48
1.0
  6
ByLayer
 10
34.150000000000091
 20
-365.5
 30
0.0
 11
44.75
 21
-365.5
 31
0.0
  0
LINE
  5
1D5
100
AcDbEntity
100
AcDbLine
  8
0
 62
256
370
-1
 48
1.0
  6
ByLayer
 10
44.75
 20
-365.5
 30
0.0
 11
44.75
 21
-372.22000000000003
 31
0.0
  0
LINE
  5
1D6
100
AcDbEntity
100
AcDbLine
  8
0
 62
256
370
-1
 48
1.0
  6
ByLayer
 10
44.75
 20
-372.22000000000003
 30
0.0
 11
54.75
 21
-372.22000000000003
 31
0.0
  0
LINE
  5
1D7
100
AcDbEntity
100
AcDbLine
  8
0
 62
256
370
-1
 48
1.0
  6
ByLayer
 10
54.75
 20
-372.22000000000003
 30
0.0
 11
54.75
 21
-365.5
 31
0.0
  0
LINE
  5
1D8
100
AcDbEntity
100
AcDbLine
  8
0
 62
256
370
-1
 48
1.0
  6
ByLayer
 10
54.75
 20
-365.5
 30
0.0
 11
99.850000000000136
 21
-365.5
 31
0.0
  0
LINE
  5
1D9
100
AcDbEntity
100
AcDbLine
  8
0
 62
256
370
-1
 48
1.0
  6
ByLayer
 10
99.850000000000136
 20
-365.5
 30
0.0
 11
99.850000000000136
 21
-360.38000000000011
 31
0.0
  0
LINE
  5
1DA
100
AcDbEntity
100
AcDbLine
  8
0
 62
256
370
-1
 48
1.0
  6
ByLayer
 10
99.850000000000136
 20
-360.38000000000011
 30
0.0
 11
98.75
 21
-360.38000000000011
 31
0.0
  0
ARC
  5
1DB
100
AcDbEntity
  8
0
 62
256
370
-1
 48
1.0
  6
ByLayer
100
AcDbCircle
 10
98.5
 20
-360.38000000000011
 30
0.0
 40
0.25
100
AcDbArc
 50
90.0
 51
0.0
  0
LINE
  5
1DC
100
AcDbEntity
100
AcDbLine
  8
0
 62
256
370
-1
 48
1.0
  6
ByLayer
 10
98.5
 20
-360.13000000000011
 30
0.0
 11
98.5
 21
-357.62999999999988
 31
0.0
  0
ARC
  5
1DD
100
AcDbEntity
  8
0
 62
256
370
-1
 48
1.0
  6
ByLayer
100
AcDbCircle
 10
98.5
 20
-357.37999999999988
 30
0.0
 40
0.25
100
AcDbArc
 50
0.0
 51
270.0
  0
LINE
  5
1DE
100
AcDbEntity
100
AcDbLine
  8
0
 62
256
370
-1
 48
1.0
  6
ByLayer
 10
98.75
 20
-357.37999999999988
 30
0.0
 11
99.850000000000136
 21
-357.38000000000011
 31
0.0
  0
LINE
  5
1DF
100
AcDbEntity
100
AcDbLine
  8
0
 62
256
370
-1
 48
1.0
  6
ByLayer
 10
99.850000000000136
 20
-357.38000000000011
 30
0.0
 11
99.850000000000136
 21
-355.37999999999988
 31
0.0
  0
LINE
  5
1E0
100
AcDbEntity
100
AcDbLine
  8
0
 62
256
370
-1
 48
1.0
  6
ByLayer
 10
99.850000000000136
 20
-355.37999999999988
 30
0.0
 11
103.15000000000009
 21
-355.37999999999988
 31
0.0
  0
LINE
  5
1E1
100
AcDbEntity
100
AcDbLine
  8
0
 62
256
370
-1
 48
1.0
  6
ByLayer
 10
103.15000000000009
 20
-355.37999999999988
 30
0.0
 11
103.15000000000009
 21
-357.37999999999988
 31
0.0
  0
LINE
  5
1E2
100
AcDbEntity
100
AcDbLine
  8
0
 62
256
370
-1
 48
1.0
  6
ByLayer
 10
103.15000000000009
 20
-357.37999999999988
 30
0.0
 11
104.25
 21
-357.37999999999988
 31
0.0
  0
ARC
  5
1E3
100
AcDbEntity
  8
0
 62
256
370
-1
 48
1.0
  6
ByLayer
100
AcDbCircle
 10
104.5
 20
-357.37999999999988
 30
0.0
 40
0.25
100
AcDbArc
 50
270.0
 51
180.0
  0
LINE
  5
1E4
100
AcDbEntity
100
AcDbLine
  8
0
 62
256
370
-1
 48
1.0
  6
ByLayer
 10
104.5
 20
-357.62999999999988
 30
0.0
 11
104.5
 21
-360.13000000000011
 31
0.0
  0
ARC
  5
1E5
100
AcDbEntity
  8
0
 62
256
370
-1
 48
1.0
  6
ByLayer
100
AcDbCircle
 10
104.50000000000006
 20
-360.38000000000005
 30
0.0
 40
0.2499999999999431
100
AcDbArc
 50
180.0
 51
90.000000000013031
  0
LINE
  5
1E6
100
AcDbEntity
100
AcDbLine
  8
0
 62
256
370
-1
 48
1.0
  6
ByLayer
 10
104.25000000000011
 20
-360.38000000000011
 30
0.0
 11
103.15000000000009
 21
-360.38000000000011
 31
0.0
  0
LINE
  5
1E7
100
AcDbEntity
100
AcDbLine
  8
0
 62
256
370
-1
 48
1.0
  6
ByLayer
 10
103.15000000000009
 20
-360.38000000000011
 30
0.0
 11
103.15000000000009
 21
-365.5
 31
0.0
  0
LINE
  5
1E8
100
AcDbEntity
100
AcDbLine
  8
0
 62
256
370
-1
 48
1.0
  6
ByLayer
 10
103.15000000000009
 20
-365.5
 30
0.0
 11
120.27999999999997
 21
-365.5
 31
0.0
  0
LINE
  5
1E9
100
AcDbEntity
100
AcDbLine
  8
0
 62
256
370
-1
 48
1.0
  6
ByLayer
 10
120.27999999999997
 20
-365.5
 30
0.0
 11
120.27999999999996
 21
-365.18000000000029
 31
0.0
  0
LINE
  5
1EA
100
AcDbEntity
100
AcDbLine
  8
0
 62
256
370
-1
 48
1.0
  6
ByLayer
 10
120.27999999999997
 20
-340.5
 30
0.0
 11
-124.27999999999997
 21
-340.5
 31
0.0
  0
LINE
  5
1EB
100
AcDbEntity
100
AcDbLine
  8
0
 62
256
370
-1
 48
1.0
  6
ByLayer
 10
-124.2800000000001
 20
-365.17999999999955
 30
0.0
 11
-124.27999999999997
 21
-365.5
 31
0.0
  0
LINE
  5
1EC
100
AcDbEntity
100
AcDbLine
  8
0
 62
256
370
-1
 48
1.0
  6
ByLayer
 10
-124.27999999999997
 20
-365.5
 30
0.0
 11
-107.14999999999998
 21
-365.5
 31
0.0
  0
LINE
  5
1ED
100
AcDbEntity
100
AcDbLine
  8
0
 62
256
370
-1
 48
1.0
  6
ByLayer
 10
-185.27999999999969
 20
-156.72999999999973
 30
0.0
 11
-180.67999999999978
 21
-156.72999999999973
 31
0.0
  0
LINE
  5
1EE
100
AcDbEntity
100
AcDbLine
  8
0
 62
256
370
-1
 48
1.0
  6
ByLayer
 10
-180.67999999999978
 20
-156.72999999999973
 30
0.0
 11
-180.67999999999978
 21
-155.62999999999977
 31
0.0
  0
ARC
  5
1EF
100
AcDbEntity
  8
0
 62
256
370
-1
 48
1.0
  6
ByLayer
100
AcDbCircle
 10
-180.67999999999978
 20
-155.37999999999977
 30
0.0
 40
0.2500000000000002
100
AcDbArc
 50
0.0
 51
270.0
  0
LINE
  5
1F0
100
AcDbEntity
100
AcDbLine
  8
0
 62
256
370
-1
 48
1.0
  6
ByLayer
 10
-180.42999999999978
 20
-155.37999999999977
 30
0.0
 11
-177.92999999999967
 21
-155.37999999999977
 31
0.0
  0
ARC
  5
1F1
100
AcDbEntity
  8
0
 62
256
370
-1
 48
1.0
  6
ByLayer
100
AcDbCircle
 10
-177.67999999999972
 20
-155.37999999999982
 30
0.0
 40
0.2499999999999431
100
AcDbArc
 50
269.99999999998698
 51
180.0
  0
LINE
  5
1F2
100
AcDbEntity
100
AcDbLine
  8
0
 62
256
370
-1
 48
1.0
  6
ByLayer
 10
-177.67999999999978
 20
-155.62999999999977
 30
0.0
 11
-177.67999999999978
 21
-156.72999999999973
 31
0.0
  0
LINE
  5
1F3
100
AcDbEntity
100
AcDbLine
  8
0
 62
256
370
-1
 48
1.0
  6
ByLayer
 10
-177.67999999999978
 20
-156.72999999999973
 30
0.0
 11
-175.67999999999978
 21
-156.72999999999973
 31
0.0
  0
LINE
  5
1F4
100
AcDbEntity
100
AcDbLine
  8
0
 62
256
370
-1
 48
1.0
  6
ByLayer
 10
-175.67999999999978
 20
-156.72999999999973
 30
0.0
 11
-175.67999999999978
 21
-160.0299999999998
 31
0.0
  0
LINE
  5
1F5
100
AcDbEntity
100
AcDbLine
  8
0
 62
256
370
-1
 48
1.0
  6
ByLayer
 10
-175.67999999999978
 20
-160.0299999999998
 30
0.0
 11
-177.67999999999978
 21
-160.0299999999998
 31
0.0
  0
LINE
  5
1F6
100
AcDbEntity
100
AcDbLine
  8
0
 62
256
370
-1
 48
1.0
  6
ByLayer
 10
-177.67999999999978
 20
-160.0299999999998
 30
0.0
 11
-177.67999999999978
 21
-161.12999999999977
 31
0.0
  0
ARC
  5
1F7
100
AcDbEntity
  8
0
 62
256
370
-1
 48
1.0
  6
ByLayer
100
AcDbCircle
 10
-177.67999999999972
 20
-161.37999999999971
 30
0.0
 40
0.2499999999999434
100
AcDbArc
 50
180.0
 51
90.000000000013031
  0
LINE
  5
1F8
100
AcDbEntity
100
AcDbLine
  8
0
 62
256
370
-1
 48
1.0
  6
ByLayer
 10
-177.92999999999967
 20
-161.37999999999977
 30
0.0
 11
-180.42999999999978
 21
-161.37999999999977
 31
0.0
  0
ARC
  5
1F9
100
AcDbEntity
  8
0
 62
256
370
-1
 48
1.0
  6
ByLayer
100
AcDbCircle
 10
-180.67999999999978
 20
-161.37999999999977
 30
0.0
 40
0.2500000000000142
100
AcDbArc
 50
90.000000000006509
 51
0.0
  0
LINE
  5
1FA
100
AcDbEntity
100
AcDbLine
  8
0
 62
256
370
-1
 48
1.0
  6
ByLayer
 10
-180.67999999999981
 20
-161.12999999999977
 30
0.0
 11
-180.67999999999978
 21
-160.02999999999977
 31
0.0
  0
LINE
  5
1FB
100
AcDbEntity
100
AcDbLine
  8
0
 62
256
370
-1
 48
1.0
  6
ByLayer
 10
-180.67999999999978
 20
-160.02999999999977
 30
0.0
 11
-185.27999999999969
 21
-160.0299999999998
 31
0.0
  0
LINE
  5
1FC
100
AcDbEntity
100
AcDbLine
  8
0
 62
256
370
-1
 48
1.0
  6
ByLayer
 10
-185.27999999999969
 20
-160.0299999999998
 30
0.0
 11
-185.27999999999977
 21
-169.50666666666643
 31
0.0
  0
LINE
  5
1FD
100
AcDbEntity
100
AcDbLine
  8
0
 62
256
370
-1
 48
1.0
  6
ByLayer
 10
-185.27999999999977
 20
-169.50666666666643
 30
0.0
 11
-191.99999999999977
 21
-169.50666666666643
 31
0.0
  0
LINE
  5
1FE
100
AcDbEntity
100
AcDbLine
  8
0
 62
256
370
-1
 48
1.0
  6
ByLayer
 10
-191.99999999999977
 20
-169.50666666666643
 30
0.0
 11
-191.99999999999977
 21
-191.75999999999979
 31
0.0
  0
LINE
  5
1FF
100
AcDbEntity
100
AcDbLine
  8
0
 62
256
370
-1
 48
1.0
  6
ByLayer
 10
-191.99999999999977
 20
-191.75999999999979
 30
0.0
 11
-126.73333333333309
 21
-191.75999999999976
 31
0.0
  0
LINE
  5
200
100
AcDbEntity
100
AcDbLine
  8
0
 62
256
370
-1
 48
1.0
  6
ByLayer
 10
-126.73333333333309
 20
-191.75999999999976
 30
0.0
 11
-126.73333333333308
 21
-187.47999999999973
 31
0.0
  0
LINE
  5
201
100
AcDbEntity
100
AcDbLine
  8
0
 62
256
370
-1
 48
1.0
  6
ByLayer
 10
-126.73333333333308
 20
-187.47999999999973
 30
0.0
 11
-127.8333333333331
 21
-187.47999999999976
 31
0.0
  0
ARC
  5
202
100
AcDbEntity
  8
0
 62
256
370
-1
 48
1.0
  6
ByLayer
100
AcDbCircle
 10
-128.08333333333312
 20
-187.47999999999976
 30
0.0
 40
0.2500000000000071
100
AcDbArc
 50
90.0
 51
0.0
  0
LINE
  5
203
100
AcDbEntity
100
AcDbLine
  8
0
 62
256
370
-1
 48
1.0
  6
ByLayer
 10
-128.08333333333312
 20
-187.22999999999976
 30
0.0
 11
-128.08333333333309
 21
-184.72999999999973
 31
0.0
  0
ARC
  5
204
100
AcDbEntity
  8
0
 62
256
370
-1
 48
1.0
  6
ByLayer
100
AcDbCircle
 10
-128.08333333333309
 20
-184.47999999999973
 30
0.0
 40
0.2500000000000071
100
AcDbArc
 50
0.0
 51
270.0
  0
LINE
  5
205
100
AcDbEntity
100
AcDbLine
  8
0
 62
256
370
-1
 48
1.0
  6
ByLayer
 10
-127.83333333333307
 20
-184.47999999999973
 30
0.0
 11
-126.73333333333312
 21
-184.47999999999979
 31
0.0
  0
LINE
  5
206
100
AcDbEntity
100
AcDbLine
  8
0
 62
256
370
-1
 48
1.0
  6
ByLayer
 10
-126.73333333333312
 20
-184.47999999999979
 30
0.0
 11
-126.73333333333309
 21
-182.47999999999976
 31
0.0
  0
LINE
  5
207
100
AcDbEntity
100
AcDbLine
  8
0
 62
256
370
-1
 48
1.0
  6
ByLayer
 10
-126.73333333333309
 20
-182.47999999999976
 30
0.0
 11
-123.4333333333331
 21
-182.47999999999976
 31
0.0
  0
LINE
  5
208
100
AcDbEntity
100
AcDbLine
  8
0
 62
256
370
-1
 48
1.0
  6
ByLayer
 10
-123.4333333333331
 20
-182.47999999999976
 30
0.0
 11
-123.43333333333312
 21
-184.47999999999979
 31
0.0
  0
LINE
  5
209
100
AcDbEntity
100
AcDbLine
  8
0
 62
256
370
-1
 48
1.0
  6
ByLayer
 10
-123.43333333333312
 20
-184.47999999999979
 30
0.0
 11
-122.3333333333331
 21
-184.47999999999976
 31
0.0
  0
ARC
  5
20A
100
AcDbEntity
  8
0
 62
256
370
-1
 48
1.0
  6
ByLayer
100
AcDbCircle
 10
-122.08333333333309
 20
-184.47999999999976
 30
0.0
 40
0.2500000000000142
100
AcDbArc
 50
270.00000000000324
 51
180.0
  0
LINE
  5
20B
100
AcDbEntity
100
AcDbLine
  8
0
 62
256
370
-1
 48
1.0
  6
ByLayer
 10
-122.08333333333307
 20
-184.72999999999976
 30
0.0
 11
-122.0833333333331
 21
-187.22999999999973
 31
0.0
  0
ARC
  5
20C
100
AcDbEntity
  8
0
 62
256
370
-1
 48
1.0
  6
ByLayer
100
AcDbCircle
 10
-122.08333333333309
 20
-187.47999999999979
 30
0.0
 40
0.2500000000000471
100
AcDbArc
 50
180.0
 51
90.000000000003254
  0
LINE
  5
20D
100
AcDbEntity
100
AcDbLine
  8
0
 62
256
370
-1
 48
1.0
  6
ByLayer
 10
-122.33333333333313
 20
-187.47999999999979
 30
0.0
 11
-123.43333333333314
 21
-187.47999999999979
 31
0.0
  0
LINE
  5
20E
100
AcDbEntity
100
AcDbLine
  8
0
 62
256
370
-1
 48
1.0
  6
ByLayer
 10
-123.43333333333314
 20
-187.47999999999979
 30
0.0
 11
-123.4333333333331
 21
-191.75999999999976
 31
0.0
  0
LINE
  5
20F
100
AcDbEntity
100
AcDbLine
  8
0
 62
256
370
-1
 48
1.0
  6
ByLayer
 10
-123.4333333333331
 20
-191.75999999999976
 30
0.0
 11
-105.33333333333312
 21
-191.75999999999982
 31
0.0
  0
LINE
  5
210
100
AcDbEntity
100
AcDbLine
  8
0
 62
256
370
-1
 48
1.0
  6
ByLayer
 10
-105.33333333333312
 20
-191.75999999999982
 30
0.0
 11
-105.33333333333312
 21
-198.47999999999979
 31
0.0
  0
LINE
  5
211
100
AcDbEntity
100
AcDbLine
  8
0
 62
256
370
-1
 48
1.0
  6
ByLayer
 10
-105.33333333333312
 20
-198.47999999999979
 30
0.0
 11
-18.66666666666643
 21
-198.47999999999968
 31
0.0
  0
LINE
  5
212
100
AcDbEntity
100
AcDbLine
  8
0
 62
256
370
-1
 48
1.0
  6
ByLayer
 10
-18.66666666666643
 20
-198.47999999999968
 30
0.0
 11
-18.666666666666458
 21
-191.75999999999976
 31
0.0
  0
LINE
  5
213
100
AcDbEntity
100
AcDbLine
  8
0
 62
256
370
-1
 48
1.0
  6
ByLayer
 10
-18.666666666666458
 20
-191.75999999999976
 30
0.0
 11
-0.5666666666664071
 21
-191.75999999999962
 31
0.0
  0
LINE
  5
214
100
AcDbEntity
100
AcDbLine
  8
0
 62
256
370
-1
 48
1.0
  6
ByLayer
 10
-0.5666666666664071
 20
-191.75999999999962
 30
0.0
 11
-0.5666666666664071
 21
-187.47999999999962
 31
0.0
  0
LINE
  5
215
100
AcDbEntity
100
AcDbLine
  8
0
 62
256
370
-1
 48
1.0
  6
ByLayer
 10
-0.5666666666664071
 20
-187.47999999999962
 30
0.0
 11
-1.6666666666664582
 21
-187.47999999999982
 31
0.0
  0
ARC
  5
216
100
AcDbEntity
  8
0
 62
256
370
-1
 48
1.0
  6
ByLayer
100
AcDbCircle
 10
-1.9166666666664911
 20
-187.47999999999982
 30
0.0
 40
0.2500000000000329
100
AcDbArc
 50
89.999999999998977
 51
0.0
  0
LINE
  5
217
100
AcDbEntity
100
AcDbLine
  8
0
 62
256
370
-1
 48
1.0
  6
ByLayer
 10
-1.9166666666664867
 20
-187.22999999999979
 30
0.0
 11
-1.9166666666664582
 21
-184.72999999999979
 31
0.0
  0
ARC
  5
218
100
AcDbEntity
  8
0
 62
256
370
-1
 48
1.0
  6
ByLayer
100
AcDbCircle
 10
-1.916666666666444
 20
-184.47999999999985
 30
0.0
 40
0.2499999999999573
100
AcDbArc
 50
0.0
 51
269.99999999999676
  0
LINE
  5
219
100
AcDbEntity
100
AcDbLine
  8
0
 62
256
370
-1
 48
1.0
  6
ByLayer
 10
-1.6666666666664867
 20
-184.47999999999985
 30
0.0
 11
-0.5666666666664639
 21
-184.47999999999985
 31
0.0
  0
LINE
  5
21A
100
AcDbEntity
100
AcDbLine
  8
0
 62
256
370
-1
 48
1.0
  6
ByLayer
 10
-0.5666666666664639
 20
-184.47999999999985
 30
0.0
 11
-0.5666666666664071
 21
-182.47999999999968
 31
0.0
  0
LINE
  5
21B
100
AcDbEntity
100
AcDbLine
  8
0
 62
256
370
-1
 48
1.0
  6
ByLayer
 10
-0.5666666666664071
 20
-182.47999999999968
 30
0.0
 11
2.7333333333335759
 21
-182.47999999999968
 31
0.0
  0
LINE
  5
21C
100
AcDbEntity
100
AcDbLine
  8
0
 62
256
370
-1
 48
1.0
  6
ByLayer
 10
2.7333333333335759
 20
-182.47999999999968
 30
0.0
 11
2.733333333333519
 21
-184.4799999999999
 31
0.0
  0
LINE
  5
21D
100
AcDbEntity
100
AcDbLine
  8
0
 62
256
370
-1
 48
1.0
  6
ByLayer
 10
2.733333333333519
 20
-184.4799999999999
 30
0.0
 11
3.8333333333335133
 21
-184.47999999999985
 31
0.0
  0
ARC
  5
21E
100
AcDbEntity
  8
0
 62
256
370
-1
 48
1.0
  6
ByLayer
100
AcDbCircle
 10
4.0833333333334991
 20
-184.47999999999985
 30
0.0
 40
0.2499999999999858
100
AcDbArc
 50
270.00000000000324
 51
180.0
  0
LINE
  5
21F
100
AcDbEntity
100
AcDbLine
  8
0
 62
256
370
-1
 48
1.0
  6
ByLayer
 10
4.0833333333335133
 20
-184.72999999999982
 30
0.0
 11
4.0833333333335702
 21
-187.22999999999962
 31
0.0
  0
ARC
  5
220
100
AcDbEntity
  8
0
 62
256
370
-1
 48
1.0
  6
ByLayer
100
AcDbCircle
 10
4.0833333333336412
 20
-187.47999999999973
 30
0.0
 40
0.2500000000000995
100
AcDbArc
 50
180.0
 51
90.000000000016286
  0
LINE
  5
221
100
AcDbEntity
100
AcDbLine
  8
0
 62
256
370
-1
 48
1.0
  6
ByLayer
 10
3.8333333333335418
 20
-187.47999999999979
 30
0.0
 11
2.7333333333335474
 21
-187.47999999999982
 31
0.0
  0
LINE
  5
222
100
AcDbEntity
100
AcDbLine
  8
0
 62
256
370
-1
 48
1.0
  6
ByLayer
 10
2.7333333333335474
 20
-187.47999999999982
 30
0.0
 11
2.7333333333335474
 21
-191.75999999999976
 31
0.0
  0
LINE
  5
223
100
AcDbEntity
100
AcDbLine
  8
0
 62
256
370
-1
 48
1.0
  6
ByLayer
 10
2.7333333333335474
 20
-191.75999999999976
 30
0.0
 11
68.000000000000171
 21
-191.75999999999985
 31
0.0
  0
LINE
  5
224
100
AcDbEntity
100
AcDbLine
  8
0
 62
256
370
-1
 48
1.0
  6
ByLayer
 10
68.000000000000171
 20
-191.75999999999985
 30
0.0
 11
68.000000000000171
 21
-169.5066666666666
 31
0.0
  0
LINE
  5
225
100
AcDbEntity
100
AcDbLine
  8
0
 62
256
370
-1
 48
1.0
  6
ByLayer
 10
68.000000000000171
 20
-169.5066666666666
 30
0.0
 11
61.280000000000257
 21
-169.5066666666664
 31
0.0
  0
LINE
  5
226
100
AcDbEntity
100
AcDbLine
  8
0
 62
256
370
-1
 48
1.0
  6
ByLayer
 10
61.280000000000257
 20
-169.5066666666664
 30
0.0
 11
61.280000000000143
 21
-160.02999999999963
 31
0.0
  0
LINE
  5
227
100
AcDbEntity
100
AcDbLine
  8
0
 62
256
370
-1
 48
1.0
  6
ByLayer
 10
61.280000000000143
 20
-160.02999999999963
 30
0.0
 11
56.680000000000234
 21
-160.02999999999966
 31
0.0
  0
LINE
  5
228
100
AcDbEntity
100
AcDbLine
  8
0
 62
256
370
-1
 48
1.0
  6
ByLayer
 10
56.680000000000234
 20
-160.02999999999966
 30
0.0
 11
56.680000000000234
 21
-161.12999999999997
 31
0.0
  0
ARC
  5
229
100
AcDbEntity
  8
0
 62
256
370
-1
 48
1.0
  6
ByLayer
100
AcDbCircle
 10
56.680000000000177
 20
-161.37999999999991
 30
0.0
 40
0.2499999999999431
100
AcDbArc
 50
180.0
 51
89.999999999986969
  0
LINE
  5
22A
100
AcDbEntity
100
AcDbLine
  8
0
 62
256
370
-1
 48
1.0
  6
ByLayer
 10
56.430000000000234
 20
-161.37999999999985
 30
0.0
 11
53.930000000000092
 21
-161.37999999999994
 31
0.0
  0
ARC
  5
22B
100
AcDbEntity
  8
0
 62
256
370
-1
 48
1.0
  6
ByLayer
100
AcDbCircle
 10
53.680000000000092
 20
-161.37999999999982
 30
0.0
 40
0.2500000000000002
100
AcDbArc
 50
89.999999999973937
 51
360.0
  0
LINE
  5
22C
100
AcDbEntity
100
AcDbLine
  8
0
 62
256
370
-1
 48
1.0
  6
ByLayer
 10
53.680000000000206
 20
-161.12999999999982
 30
0.0
 11
53.680000000000234
 21
-160.02999999999989
 31
0.0
  0
LINE
  5
22D
100
AcDbEntity
100
AcDbLine
  8
0
 62
256
370
-1
 48
1.0
  6
ByLayer
 10
53.680000000000234
 20
-160.02999999999989
 30
0.0
 11
51.680000000000234
 21
-160.02999999999977
 31
0.0
  0
LINE
  5
22E
100
AcDbEntity
100
AcDbLine
  8
0
 62
256
370
-1
 48
1.0
  6
ByLayer
 10
51.680000000000234
 20
-160.02999999999977
 30
0.0
 11
51.680000000000206
 21
-156.72999999999993
 31
0.0
  0
LINE
  5
22F
100
AcDbEntity
100
AcDbLine
  8
0
 62
256
370
-1
 48
1.0
  6
ByLayer
 10
51.680000000000206
 20
-156.72999999999993
 30
0.0
 11
53.680000000000206
 21
-156.73000000000008
 31
0.0
  0
LINE
  5
230
100
AcDbEntity
100
AcDbLine
  8
0
 62
256
370
-1
 48
1.0
  6
ByLayer
 10
53.680000000000206
 20
-156.73000000000008
 30
0.0
 11
53.680000000000206
 21
-155.62999999999997
 31
0.0
  0
ARC
  5
231
100
AcDbEntity
  8
0
 62
256
370
-1
 48
1.0
  6
ByLayer
100
AcDbCircle
 10
53.679999999999907
 20
-155.37999999999977
 30
0.0
 40
0.2500000000002132
100
AcDbArc
 50
0.0
 51
270.00000000006838
  0
LINE
  5
232
100
AcDbEntity
100
AcDbLine
  8
0
 62
256
370
-1
 48
1.0
  6
ByLayer
 10
53.930000000000121
 20
-155.37999999999946
 30
0.0
 11
56.430000000000234
 21
-155.37999999999988
 31
0.0
  0
ARC
  5
233
100
AcDbEntity
  8
0
 62
256
370
-1
 48
1.0
  6
ByLayer
100
AcDbCircle
 10
56.680000000000078
 20
-155.37999999999968
 30
0.0
 40
0.2499999999998439
100
AcDbArc
 50
270.00000000004235
 51
180.0
  0
LINE
  5
234
100
AcDbEntity
100
AcDbLine
  8
0
 62
256
370
-1
 48
1.0
  6
ByLayer
 10
56.680000000000263
 20
-155.62999999999954
 30
0.0
 11
56.680000000000234
 21
-156.72999999999979
 31
0.0
  0
LINE
  5
235
100
AcDbEntity
100
AcDbLine
  8
0
 62
256
370
-1
 48
1.0
  6
ByLayer
 10
56.680000000000234
 20
-156.72999999999979
 30
0.0
 11
61.280000000000143
 21
-156.72999999999988
 31
0.0
  0
LINE
  5
236
100
AcDbEntity
100
AcDbLine
  8
0
 62
256
370
-1
 48
1.0
  6
ByLayer
 10
61.280000000000143
 20
-156.72999999999988
 30
0.0
 11
61.280000000000229
 21
-147.25333333333319
 31
0.0
  0
LINE
  5
237
100
AcDbEntity
100
AcDbLine
  8
0
 62
256
370
-1
 48
1.0
  6
ByLayer
 10
61.280000000000229
 20
-147.25333333333319
 30
0.0
 11
68.000000000000227
 21
-147.25333333333288
 31
0.0
  0
LINE
  5
238
100
AcDbEntity
100
AcDbLine
  8
0
 62
256
370
-1
 48
1.0
  6
ByLayer
 10
68.000000000000227
 20
-147.25333333333288
 30
0.0
 11
68.000000000000227
 21
-124.99999999999983
 31
0.0
  0
LINE
  5
239
100
AcDbEntity
100
AcDbLine
  8
0
 62
256
370
-1
 48
1.0
  6
ByLayer
 10
2.7333333333335474
 20
-124.99999999999982
 30
0.0
 11
2.7333333333335474
 21
-129.28000000000017
 31
0.0
  0
LINE
  5
23A
100
AcDbEntity
100
AcDbLine
  8
0
 62
256
370
-1
 48
1.0
  6
ByLayer
 10
2.7333333333335474
 20
-129.28000000000017
 30
0.0
 11
3.8333333333335418
 21
-129.2799999999996
 31
0.0
  0
ARC
  5
23B
100
AcDbEntity
  8
0
 62
256
370
-1
 48
1.0
  6
ByLayer
100
AcDbCircle
 10
4.0833333333338828
 20
-129.27999999999994
 30
0.0
 40
0.250000000000341
100
AcDbArc
 50
269.99999999992184
 51
180.0
  0
LINE
  5
23C
100
AcDbEntity
100
AcDbLine
  8
0
 62
256
370
-1
 48
1.0
  6
ByLayer
 10
4.0833333333335418
 20
-129.53000000000029
 30
0.0
 11
4.0833333333335418
 21
-132.02999999999929
 31
0.0
  0
ARC
  5
23D
100
AcDbEntity
  8
0
 62
256
370
-1
 48
1.0
  6
ByLayer
100
AcDbCircle
 10
4.0833333333337833
 20
-132.27999999999952
 30
0.0
 40
0.2500000000002416
100
AcDbArc
 50
180.0
 51
90.00000000005538
  0
LINE
  5
23E
100
AcDbEntity
100
AcDbLine
  8
0
 62
256
370
-1
 48
1.0
  6
ByLayer
 10
3.8333333333335418
 20
-132.27999999999977
 30
0.0
 11
2.7333333333335474
 21
-132.2800000000002
 31
0.0
  0
LINE
  5
23F
100
AcDbEntity
100
AcDbLine
  8
0
 62
256
370
-1
 48
1.0
  6
ByLayer
 10
2.7333333333335474
 20
-132.2800000000002
 30
0.0
 11
2.7333333333335474
 21
-134.27999999999989
 31
0.0
  0
LINE
  5
240
100
AcDbEntity
100
AcDbLine
  8
0
 62
256
370
-1
 48
1.0
  6
ByLayer
 10
2.7333333333335474
 20
-134.27999999999989
 30
0.0
 11
-0.5666666666664355
 21
-134.27999999999923
 31
0.0
  0
LINE
  5
241
100
AcDbEntity
100
AcDbLine
  8
0
 62
256
370
-1
 48
1.0
  6
ByLayer
 10
-0.5666666666664355
 20
-134.27999999999923
 30
0.0
 11
-0.5666666666664355
 21
-132.27999999999926
 31
0.0
  0
LINE
  5
242
100
AcDbEntity
100
AcDbLine
  8
0
 62
256
370
-1
 48
1.0
  6
ByLayer
 10
-0.5666666666664355
 20
-132.27999999999926
 30
0.0
 11
-1.6666666666664582
 21
-132.27999999999938
 31
0.0
  0
ARC
  5
243
100
AcDbEntity
  8
0
 62
256
370
-1
 48
1.0
  6
ByLayer
100
AcDbCircle
 10
-1.9166666666664867
 20
-132.27999999999935
 30
0.0
 40
0.2500000000000284
100
AcDbArc
 50
89.999999999993491
 51
360.0
  0
LINE
  5
244
100
AcDbEntity
100
AcDbLine
  8
0
 62
256
370
-1
 48
1.0
  6
ByLayer
 10
-1.9166666666664582
 20
-132.02999999999932
 30
0.0
 11
-1.9166666666664582
 21
-129.52999999999912
 31
0.0
  0
ARC
  5
245
100
AcDbEntity
  8
0
 62
256
370
-1
 48
1.0
  6
ByLayer
100
AcDbCircle
 10
-1.9166666666659227
 20
-129.27999999999966
 30
0.0
 40
0.2499999999994644
100
AcDbArc
 50
360.0
 51
269.99999999987728
  0
LINE
  5
246
100
AcDbEntity
100
AcDbLine
  8
0
 62
256
370
-1
 48
1.0
  6
ByLayer
 10
-1.6666666666664582
 20
-129.2800000000002
 30
0.0
 11
-0.5666666666664355
 21
-129.27999999999869
 31
0.0
  0
LINE
  5
247
100
AcDbEntity
100
AcDbLine
  8
0
 62
256
370
-1
 48
1.0
  6
ByLayer
 10
-0.5666666666664355
 20
-129.27999999999869
 30
0.0
 11
-0.5666666666664355
 21
-124.99999999999982
 31
0.0
  0
LINE
  5
248
100
AcDbEntity
100
AcDbLine
  8
0
 62
256
370
-1
 48
1.0
  6
ByLayer
 10
-18.66666666666643
 20
-124.99999999999982
 30
0.0
 11
-18.66666666666643
 21
-118.27999999999982
 31
0.0
  0
LINE
  5
249
100
AcDbEntity
100
AcDbLine
  8
0
 62
256
370
-1
 48
1.0
  6
ByLayer
 10
-18.66666666666643
 20
-118.27999999999982
 30
0.0
 11
-105.3333333333331
 21
-118.27999999999965
 31
0.0
  0
LINE
  5
24A
100
AcDbEntity
100
AcDbLine
  8
0
 62
256
370
-1
 48
1.0
  6
ByLayer
 10
-123.4333333333331
 20
-124.99999999999979
 30
0.0
 11
-123.4333333333331
 21
-129.27999999999969
 31
0.0
  0
LINE
  5
24B
100
AcDbEntity
100
AcDbLine
  8
0
 62
256
370
-1
 48
1.0
  6
ByLayer
 10
-123.4333333333331
 20
-129.27999999999969
 30
0.0
 11
-122.3333333333331
 21
-129.27999999999983
 31
0.0
  0
ARC
  5
24C
100
AcDbEntity
  8
0
 62
256
370
-1
 48
1.0
  6
ByLayer
100
AcDbCircle
 10
-122.08333333333306
 20
-129.27999999999986
 30
0.0
 40
0.25000000000004
100
AcDbArc
 50
269.99999999999346
 51
180.0
  0
LINE
  5
24D
100
AcDbEntity
100
AcDbLine
  8
0
 62
256
370
-1
 48
1.0
  6
ByLayer
 10
-122.08333333333309
 20
-129.52999999999989
 30
0.0
 11
-122.08333333333309
 21
-132.02999999999977
 31
0.0
  0
ARC
  5
24E
100
AcDbEntity
  8
0
 62
256
370
-1
 48
1.0
  6
ByLayer
100
AcDbCircle
 10
-122.08333333333307
 20
-132.2799999999998
 30
0.0
 40
0.2500000000000213
100
AcDbArc
 50
180.0
 51
90.000000000003254
  0
LINE
  5
24F
100
AcDbEntity
100
AcDbLine
  8
0
 62
256
370
-1
 48
1.0
  6
ByLayer
 10
-122.3333333333331
 20
-132.2799999999998
 30
0.0
 11
-123.4333333333331
 21
-132.27999999999983
 31
0.0
  0
LINE
  5
250
100
AcDbEntity
100
AcDbLine
  8
0
 62
256
370
-1
 48
1.0
  6
ByLayer
 10
-123.4333333333331
 20
-132.27999999999983
 30
0.0
 11
-123.4333333333331
 21
-134.27999999999983
 31
0.0
  0
LINE
  5
251
100
AcDbEntity
100
AcDbLine
  8
0
 62
256
370
-1
 48
1.0
  6
ByLayer
 10
-123.4333333333331
 20
-134.27999999999983
 30
0.0
 11
-126.73333333333309
 21
-134.2799999999998
 31
0.0
  0
LINE
  5
252
100
AcDbEntity
100
AcDbLine
  8
0
 62
256
370
-1
 48
1.0
  6
ByLayer
 10
-126.73333333333309
 20
-134.2799999999998
 30
0.0
 11
-126.73333333333308
 21
-132.27999999999977
 31
0.0
  0
LINE
  5
253
100
AcDbEntity
100
AcDbLine
  8
0
 62
256
370
-1
 48
1.0
  6
ByLayer
 10
-126.73333333333308
 20
-132.27999999999977
 30
0.0
 11
-127.83333333333309
 21
-132.2799999999998
 31
0.0
  0
ARC
  5
254
100
AcDbEntity
  8
0
 62
256
370
-1
 48
1.0
  6
ByLayer
100
AcDbCircle
 10
-128.08333333333309
 20
-132.2799999999998
 30
0.0
 40
0.25
100
AcDbArc
 50
90.0
 51
0.0
  0
LINE
  5
255
100
AcDbEntity
100
AcDbLine
  8
0
 62
256
370
-1
 48
1.0
  6
ByLayer
 10
-128.08333333333309
 20
-132.0299999999998
 30
0.0
 11
-128.08333333333309
 21
-129.52999999999983
 31
0.0
  0
ARC
  5
256
100
AcDbEntity
  8
0
 62
256
370
-1
 48
1.0
  6
ByLayer
100
AcDbCircle
 10
-128.08333333333312
 20
-129.2799999999998
 30
0.0
 40
0.2500000000000284
100
AcDbArc
 50
0.0
 51
270.00000000000654
  0
LINE
  5
257
100
AcDbEntity
100
AcDbLine
  8
0
 62
256
370
-1
 48
1.0
  6
ByLayer
 10
-127.83333333333309
 20
-129.27999999999977
 30
0.0
 11
-126.73333333333309
 21
-129.2799999999998
 31
0.0
  0
LINE
  5
258
100
AcDbEntity
100
AcDbLine
  8
0
 62
256
370
-1
 48
1.0
  6
ByLayer
 10
-126.73333333333309
 20
-129.2799999999998
 30
0.0
 11
-126.73333333333309
 21
-124.99999999999979
 31
0.0
  0
LINE
  5
259
100
AcDbEntity
100
AcDbLine
  8
0
 62
256
370
-1
 48
1.0
  6
ByLayer
 10
-185.28000000000003
 20
-125.0
 30
0.0
 11
-191.99999999999977
 21
-124.99999999999977
 31
0.0
  0
LINE
  5
25A
100
AcDbEntity
100
AcDbLine
  8
0
 62
256
370
-1
 48
1.0
  6
ByLayer
 10
-191.99999999999977
 20
-124.99999999999977
 30
0.0
 11
-191.99999999999977
 21
-147.2533333333331
 31
0.0
  0
LINE
  5
25B
100
AcDbEntity
100
AcDbLine
  8
0
 62
256
370
-1
 48
1.0
  6
ByLayer
 10
-191.99999999999977
 20
-147.2533333333331
 30
0.0
 11
-185.27999999999977
 21
-147.2533333333331
 31
0.0
  0
LINE
  5
25C
100
AcDbEntity
100
AcDbLine
  8
0
 62
256
370
-1
 48
1.0
  6
ByLayer
 10
-185.27999999999977
 20
-147.2533333333331
 30
0.0
 11
-185.27999999999969
 21
-156.72999999999973
 31
0.0
  0
LINE
  5
25D
100
AcDbEntity
100
AcDbLine
  8
0
 62
256
370
-1
 48
1.0
  6
ByLayer
 10
28.499999999999972
 20
100.0
 30
0.0
 11
35.220000000000084
 21
100.0
 31
0.0
  0
LINE
  5
25E
100
AcDbEntity
100
AcDbLine
  8
0
 62
256
370
-1
 48
1.0
  6
ByLayer
 10
35.220000000000084
 20
100.0
 30
0.0
 11
35.220000000000084
 21
105.87999999999994
 31
0.0
  0
LINE
  5
25F
100
AcDbEntity
100
AcDbLine
  8
0
 62
256
370
-1
 48
1.0
  6
ByLayer
 10
35.220000000000084
 20
105.87999999999994
 30
0.0
 11
28.499999999999858
 21
105.87999999999982
 31
0.0
  0
LINE
  5
260
100
AcDbEntity
100
AcDbLine
  8
0
 62
256
370
-1
 48
1.0
  6
ByLayer
 10
28.500000000000085
 20
240.87999999999982
 30
0.0
 11
31.650000000000063
 21
240.87999999999991
 31
0.0
  0
LINE
  5
261
100
AcDbEntity
100
AcDbLine
  8
0
 62
256
370
-1
 48
1.0
  6
ByLayer
 10
31.650000000000063
 20
240.87999999999991
 30
0.0
 11
31.650000000000148
 21
290.88
 31
0.0
  0
LINE
  5
262
100
AcDbEntity
100
AcDbLine
  8
0
 62
256
370
-1
 48
1.0
  6
ByLayer
 10
31.650000000000148
 20
290.88
 30
0.0
 11
28.500000000000142
 21
290.88
 31
0.0
  0
LINE
  5
263
100
AcDbEntity
100
AcDbLine
  8
0
 62
256
370
-1
 48
1.0
  6
ByLayer
 10
28.500000000000199
 20
355.50000000000011
 30
0.0
 11
-152.49999999999989
 21
355.50000000000011
 31
0.0
  0
LINE
  5
264
100
AcDbEntity
100
AcDbLine
  8
0
 62
256
370
-1
 48
1.0
  6
ByLayer
 10
-152.49999999999989
 20
290.88
 30
0.0
 11
-155.64999999999986
 21
290.88
 31
0.0
  0
LINE
  5
265
100
AcDbEntity
100
AcDbLine
  8
0
 62
256
370
-1
 48
1.0
  6
ByLayer
 10
-155.64999999999986
 20
290.88
 30
0.0
 11
-155.64999999999992
 21
240.88
 31
0.0
  0
LINE
  5
266
100
AcDbEntity
100
AcDbLine
  8
0
 62
256
370
-1
 48
1.0
  6
ByLayer
 10
-155.64999999999992
 20
240.88
 30
0.0
 11
-152.49999999999983
 21
240.88
 31
0.0
  0
LINE
  5
267
100
AcDbEntity
100
AcDbLine
  8
0
 62
256
370
-1
 48
1.0
  6
ByLayer
 10
-152.49999999999983
 20
105.88
 30
0.0
 11
-159.21999999999986
 21
105.88
 31
0.0
  0
LINE
  5
268
100
AcDbEntity
100
AcDbLine
  8
0
 62
256
370
-1
 48
1.0
  6
ByLayer
 10
-159.21999999999986
 20
105.88
 30
0.0
 11
-159.21999999999991
 21
100.00000000000006
 31
0.0
  0
LINE
  5
269
100
AcDbEntity
100
AcDbLine
  8
0
 62
256
370
-1
 48
1.0
  6
ByLayer
 10
-159.21999999999991
 20
100.00000000000006
 30
0.0
 11
-152.49999999999994
 21
100.00000000000006
 31
0.0
  0
LINE
  5
26A
100
AcDbEntity
100
AcDbLine
  8
0
 62
256
370
-1
 48
1.0
  6
ByLayer
 10
-152.4999999999998
 20
137.8599999999999
 30
0.0
 11
-152.49999999999977
 21
-111.56
 31
0.0
  0
LINE
  5
26B
100
AcDbEntity
100
AcDbLine
  8
0
 62
256
370
-1
 48
1.0
  6
ByLayer
 10
-152.49999999999977
 20
-111.56
 30
0.0
 11
-145.77999999999997
 21
-111.56
 31
0.0
  0
LINE
  5
26C
100
AcDbEntity
100
AcDbLine
  8
0
 62
256
370
-1
 48
1.0
  6
ByLayer
 10
-145.77999999999997
 20
-111.56
 30
0.0
 11
-145.78000000000011
 21
-85.5
 31
0.0
  0
LINE
  5
26D
100
AcDbEntity
100
AcDbLine
  8
0
 62
256
370
-1
 48
1.0
  6
ByLayer
 10
-145.78000000000011
 20
-85.5
 30
0.0
 11
21.780000000000143
 21
-85.5
 31
0.0
  0
LINE
  5
26E
100
AcDbEntity
100
AcDbLine
  8
0
 62
256
370
-1
 48
1.0
  6
ByLayer
 10
21.780000000000143
 20
-85.5
 30
0.0
 11
21.779999999999944
 21
-111.56000000000017
 31
0.0
  0
LINE
  5
26F
100
AcDbEntity
100
AcDbLine
  8
0
 62
256
370
-1
 48
1.0
  6
ByLayer
 10
21.779999999999944
 20
-111.56000000000017
 30
0.0
 11
28.500000000000057
 21
-111.56
 31
0.0
  0
LINE
  5
270
100
AcDbEntity
100
AcDbLine
  8
0
 62
256
370
-1
 48
1.0
  6
ByLayer
 10
28.500000000000057
 20
-111.56
 30
0.0
 11
28.500000000000256
 21
137.85999999999996
 31
0.0
  0
LINE
  5
271
100
AcDbEntity
100
AcDbLine
  8
0
 62
256
370
-1
 48
1.0
  6
ByLayer
 10
-185.28000000000003
 20
-125.0
 30
0.0
 11
-185.28
 21
100.0
 31
0.0
  0
LINE
  5
272
100
AcDbEntity
100
AcDbLine
  8
0
 62
256
370
-1
 48
1.0
  6
ByLayer
 10
-185.28
 20
100.0
 30
0.0
 11
-191.99999999999994
 21
100.0
 31
0.0
  0
LINE
  5
273
100
AcDbEntity
100
AcDbLine
  8
0
 62
256
370
-1
 48
1.0
  6
ByLayer
 10
-191.99999999999994
 20
100.0
 30
0.0
 11
-191.99999999999989
 21
395.0
 31
0.0
  0
LINE
  5
274
100
AcDbEntity
100
AcDbLine
  8
0
 62
256
370
-1
 48
1.0
  6
ByLayer
 10
-191.99999999999989
 20
395.0
 30
0.0
 11
-105.33333333333303
 21
395.0
 31
0.0
  0
LINE
  5
275
100
AcDbEntity
100
AcDbLine
  8
0
 62
256
370
-1
 48
1.0
  6
ByLayer
 10
-105.33333333333303
 20
395.0
 30
0.0
 11
-105.33333333333303
 21
388.2799999999998
 31
0.0
  0
LINE
  5
276
100
AcDbEntity
100
AcDbLine
  8
0
 62
256
370
-1
 48
1.0
  6
ByLayer
 10
-105.33333333333303
 20
388.2799999999998
 30
0.0
 11
-18.666666666666345
 21
388.27999999999997
 31
0.0
  0
LINE
  5
277
100
AcDbEntity
100
AcDbLine
  8
0
 62
256
370
-1
 48
1.0
  6
ByLayer
 10
-18.666666666666345
 20
388.27999999999997
 30
0.0
 11
-18.666666666666345
 21
394.99999999999994
 31
0.0
  0
LINE
  5
278
100
AcDbEntity
100
AcDbLine
  8
0
 62
256
370
-1
 48
1.0
  6
ByLayer
 10
-18.666666666666345
 20
394.99999999999994
 30
0.0
 11
68.000000000000057
 21
394.99999999999994
 31
0.0
  0
LINE
  5
279
100
AcDbEntity
100
AcDbLine
  8
0
 62
256
370
-1
 48
1.0
  6
ByLayer
 10
68.000000000000057
 20
394.99999999999994
 30
0.0
 11
68.000000000000057
 21
100.00000000000006
 31
0.0
  0
LINE
  5
27A
100
AcDbEntity
100
AcDbLine
  8
0
 62
256
370
-1
 48
1.0
  6
ByLayer
 10
61.280000000000115
 20
99.999999999999943
 30
0.0
 11
61.279999999999688
 21
-125.00000000000023
 31
0.0
  0
LINE
  5
27B
100
AcDbEntity
100
AcDbLine
  8
0
 62
256
370
-1
 48
1.0
  6
ByLayer
 10
61.279999999999688
 20
-125.00000000000023
 30
0.0
 11
-18.666666666666686
 21
-125.0
 31
0.0
  0
LINE
  5
27C
100
AcDbEntity
100
AcDbLine
  8
0
 62
256
370
-1
 48
1.0
  6
ByLayer
 10
-105.33333333333343
 20
-118.27999999999997
 30
0.0
 11
-105.33333333333327
 21
-125.00000000000011
 31
0.0
  0
LINE
  5
27D
100
AcDbEntity
100
AcDbLine
  8
0
 62
256
370
-1
 48
1.0
  6
ByLayer
 10
-105.33333333333327
 20
-125.00000000000011
 30
0.0
 11
-185.28000000000003
 21
-125.0
 31
0.0
  0
ARC
  5
27E
100
AcDbEntity
  8
0
 62
256
370
-1
 48
1.0
  6
ByLayer
100
AcDbCircle
 10
153.06000000000006
 20
-296.84000000000015
 30
0.0
 40
3.0000000000001137
100
AcDbArc
 50
180.0
 51
0.0
  0
LINE
  5
27F
100
AcDbEntity
100
AcDbLine
  8
0
 62
256
370
-1
 48
1.0
  6
ByLayer
 10
150.05999999999995
 20
-296.84000000000015
 30
0.0
 11
150.05999999999997
 21
-292.84000000000015
 31
0.0
  0
ARC
  5
280
100
AcDbEntity
  8
0
 62
256
370
-1
 48
1.0
  6
ByLayer
100
AcDbCircle
 10
153.06000000000006
 20
-292.84000000000015
 30
0.0
 40
3.0000000000000995
100
AcDbArc
 50
0.0
 51
180.0
  0
LINE
  5
281
100
AcDbEntity
100
AcDbLine
  8
0
 62
256
370
-1
 48
1.0
  6
ByLayer
 10
156.06000000000017
 20
-292.84000000000015
 30
0.0
 11
156.06000000000017
 21
-296.84000000000015
 31
0.0
  0
LINE
  5
282
100
AcDbEntity
100
AcDbLine
  8
0
 62
256
370
-1
 48
1.0
  6
ByLayer
 10
151.50000000000011
 20
-351.74000000000024
 30
0.0
 11
151.50000000000011
 21
-392.05999999999995
 31
0.0
  0
LINE
  5
283
100
AcDbEntity
100
AcDbLine
  8
0
 62
256
370
-1
 48
1.0
  6
ByLayer
 10
151.50000000000011
 20
-392.05999999999995
 30
0.0
 11
173.77999999999986
 21
-392.05999999999995
 31
0.0
  0
LINE
  5
284
100
AcDbEntity
100
AcDbLine
  8
0
 62
256
370
-1
 48
1.0
  6
ByLayer
 10
173.77999999999986
 20
-392.05999999999995
 30
0.0
 11
174.77551127986112
 21
-335.02719697373959
 31
0.0
  0
LINE
  5
285
100
AcDbEntity
100
AcDbLine
  8
0
 62
256
370
-1
 48
1.0
  6
ByLayer
 10
174.77551127986112
 20
-335.02719697373959
 30
0.0
 11
169.78
 21
-334.94000000000005
 31
0.0
  0
LINE
  5
286
100
AcDbEntity
100
AcDbLine
  8
0
 62
256
370
-1
 48
1.0
  6
ByLayer
 10
169.78
 20
-334.94000000000005
 30
0.0
 11
156.3400000000002
 21
-334.94000000000005
 31
0.0
  0
LINE
  5
287
100
AcDbEntity
100
AcDbLine
  8
0
 62
256
370
-1
 48
1.0
  6
ByLayer
 10
156.3400000000002
 20
-334.94000000000005
 30
0.0
 11
156.34000000000026
 21
-328.22000000000025
 31
0.0
  0
LINE
  5
288
100
AcDbEntity
100
AcDbLine
  8
0
 62
256
370
-1
 48
1.0
  6
ByLayer
 10
156.34000000000026
 20
-328.22000000000025
 30
0.0
 11
163.06000000000026
 21
-328.2200000000002
 31
0.0
  0
LINE
  5
289
100
AcDbEntity
100
AcDbLine
  8
0
 62
256
370
-1
 48
1.0
  6
ByLayer
 10
163.06000000000026
 20
-328.2200000000002
 30
0.0
 11
163.06000000000017
 21
-318.74333333333334
 31
0.0
  0
LINE
  5
28A
100
AcDbEntity
100
AcDbLine
  8
0
 62
256
370
-1
 48
1.0
  6
ByLayer
 10
163.06000000000017
 20
-318.74333333333334
 30
0.0
 11
158.77999999999997
 21
-318.74333333333334
 31
0.0
  0
LINE
  5
28B
100
AcDbEntity
100
AcDbLine
  8
0
 62
256
370
-1
 48
1.0
  6
ByLayer
 10
158.77999999999997
 20
-318.74333333333334
 30
0.0
 11
158.78000000000003
 21
-319.8433333333337
 31
0.0
  0
ARC
  5
28C
100
AcDbEntity
  8
0
 62
256
370
-1
 48
1.0
  6
ByLayer
100
AcDbCircle
 10
158.77999999999997
 20
-320.09333333333376
 30
0.0
 40
0.2500000000000426
100
AcDbArc
 50
180.0
 51
89.999999999986969
  0
LINE
  5
28D
100
AcDbEntity
100
AcDbLine
  8
0
 62
256
370
-1
 48
1.0
  6
ByLayer
 10
158.52999999999994
 20
-320.0933333333337
 30
0.0
 11
156.02999999999994
 21
-320.0933333333337
 31
0.0
  0
ARC
  5
28E
100
AcDbEntity
  8
0
 62
256
370
-1
 48
1.0
  6
ByLayer
100
AcDbCircle
 10
155.77999999999997
 20
-320.0933333333337
 30
0.0
 40
0.2499999999999858
100
AcDbArc
 50
90.0
 51
0.0
  0
LINE
  5
28F
100
AcDbEntity
100
AcDbLine
  8
0
 62
256
370
-1
 48
1.0
  6
ByLayer
 10
155.77999999999997
 20
-319.8433333333337
 30
0.0
 11
155.77999999999997
 21
-318.74333333333334
 31
0.0
  0
LINE
  5
290
100
AcDbEntity
100
AcDbLine
  8
0
 62
256
370
-1
 48
1.0
  6
ByLayer
 10
155.77999999999997
 20
-318.74333333333334
 30
0.0
 11
153.77999999999997
 21
-318.74333333333334
 31
0.0
  0
LINE
  5
291
100
AcDbEntity
100
AcDbLine
  8
0
 62
256
370
-1
 48
1.0
  6
ByLayer
 10
153.77999999999997
 20
-318.74333333333334
 30
0.0
 11
153.77999999999997
 21
-315.44333333333361
 31
0.0
  0
LINE
  5
292
100
AcDbEntity
100
AcDbLine
  8
0
 62
256
370
-1
 48
1.0
  6
ByLayer
 10
153.77999999999997
 20
-315.44333333333361
 30
0.0
 11
155.78
 21
-315.44333333333361
 31
0.0
  0
LINE
  5
293
100
AcDbEntity
100
AcDbLine
  8
0
 62
256
370
-1
 48
1.0
  6
ByLayer
 10
155.78
 20
-315.44333333333361
 30
0.0
 11
155.78000000000003
 21
-314.3433333333337
 31
0.0
  0
ARC
  5
294
100
AcDbEntity
  8
0
 62
256
370
-1
 48
1.0
  6
ByLayer
100
AcDbCircle
 10
155.78000000000003
 20
-314.0933333333337
 30
0.0
 40
0.25
100
AcDbArc
 50
0.0
 51
270.0
  0
LINE
  5
295
100
AcDbEntity
100
AcDbLine
  8
0
 62
256
370
-1
 48
1.0
  6
ByLayer
 10
156.03000000000003
 20
-314.0933333333337
 30
0.0
 11
158.53000000000003
 21
-314.0933333333337
 31
0.0
  0
ARC
  5
296
100
AcDbEntity
  8
0
 62
256
370
-1
 48
1.0
  6
ByLayer
100
AcDbCircle
 10
158.78
 20
-314.09333333333376
 30
0.0
 40
0.2499999999999716
100
AcDbArc
 50
269.99999999999346
 51
180.0
  0
LINE
  5
297
100
AcDbEntity
100
AcDbLine
  8
0
 62
256
370
-1
 48
1.0
  6
ByLayer
 10
158.77999999999997
 20
-314.3433333333337
 30
0.0
 11
158.77999999999997
 21
-315.44333333333361
 31
0.0
  0
LINE
  5
298
100
AcDbEntity
100
AcDbLine
  8
0
 62
256
370
-1
 48
1.0
  6
ByLayer
 10
158.77999999999997
 20
-315.44333333333361
 30
0.0
 11
163.06000000000023
 21
-315.44333333333361
 31
0.0
  0
LINE
  5
299
100
AcDbEntity
100
AcDbLine
  8
0
 62
256
370
-1
 48
1.0
  6
ByLayer
 10
163.06000000000023
 20
-315.44333333333361
 30
0.0
 11
163.0600000000002
 21
-305.9666666666667
 31
0.0
  0
LINE
  5
29A
100
AcDbEntity
100
AcDbLine
  8
0
 62
256
370
-1
 48
1.0
  6
ByLayer
 10
163.0600000000002
 20
-305.9666666666667
 30
0.0
 11
169.77999999999994
 21
-305.9666666666667
 31
0.0
  0
LINE
  5
29B
100
AcDbEntity
100
AcDbLine
  8
0
 62
256
370
-1
 48
1.0
  6
ByLayer
 10
169.77999999999994
 20
-305.9666666666667
 30
0.0
 11
169.77999999999997
 21
-283.71333333333359
 31
0.0
  0
LINE
  5
29C
100
AcDbEntity
100
AcDbLine
  8
0
 62
256
370
-1
 48
1.0
  6
ByLayer
 10
169.77999999999997
 20
-283.71333333333359
 30
0.0
 11
163.06000000000014
 21
-283.71333333333359
 31
0.0
  0
LINE
  5
29D
100
AcDbEntity
100
AcDbLine
  8
0
 62
256
370
-1
 48
1.0
  6
ByLayer
 10
163.06000000000014
 20
-283.71333333333359
 30
0.0
 11
163.0600000000002
 21
-274.23666666666668
 31
0.0
  0
LINE
  5
29E
100
AcDbEntity
100
AcDbLine
  8
0
 62
256
370
-1
 48
1.0
  6
ByLayer
 10
163.0600000000002
 20
-274.23666666666668
 30
0.0
 11
158.77999999999997
 21
-274.23666666666668
 31
0.0
  0
LINE
  5
29F
100
AcDbEntity
100
AcDbLine
  8
0
 62
256
370
-1
 48
1.0
  6
ByLayer
 10
158.77999999999997
 20
-274.23666666666668
 30
0.0
 11
158.78000000000003
 21
-275.33666666666659
 31
0.0
  0
ARC
  5
2A0
100
AcDbEntity
  8
0
 62
256
370
-1
 48
1.0
  6
ByLayer
100
AcDbCircle
 10
158.78
 20
-275.58666666666659
 30
0.0
 40
0.2500000000000284
100
AcDbArc
 50
180.0
 51
89.999999999993491
  0
LINE
  5
2A1
100
AcDbEntity
100
AcDbLine
  8
0
 62
256
370
-1
 48
1.0
  6
ByLayer
 10
158.52999999999997
 20
-275.58666666666659
 30
0.0
 11
156.02999999999997
 21
-275.58666666666659
 31
0.0
  0
ARC
  5
2A2
100
AcDbEntity
  8
0
 62
256
370
-1
 48
1.0
  6
ByLayer
100
AcDbCircle
 10
155.77999999999997
 20
-275.58666666666659
 30
0.0
 40
0.25
100
AcDbArc
 50
90.0
 51
0.0
  0
LINE
  5
2A3
100
AcDbEntity
100
AcDbLine
  8
0
 62
256
370
-1
 48
1.0
  6
ByLayer
 10
155.77999999999997
 20
-275.33666666666659
 30
0.0
 11
155.78
 21
-274.23666666666668
 31
0.0
  0
LINE
  5
2A4
100
AcDbEntity
100
AcDbLine
  8
0
 62
256
370
-1
 48
1.0
  6
ByLayer
 10
155.78
 20
-274.23666666666668
 30
0.0
 11
153.77999999999994
 21
-274.23666666666668
 31
0.0
  0
LINE
  5
2A5
100
AcDbEntity
100
AcDbLine
  8
0
 62
256
370
-1
 48
1.0
  6
ByLayer
 10
153.77999999999994
 20
-274.23666666666668
 30
0.0
 11
153.78
 21
-270.93666666666695
 31
0.0
  0
LINE
  5
2A6
100
AcDbEntity
100
AcDbLine
  8
0
 62
256
370
-1
 48
1.0
  6
ByLayer
 10
153.78
 20
-270.93666666666695
 30
0.0
 11
155.78
 21
-270.93666666666695
 31
0.0
  0
LINE
  5
2A7
100
AcDbEntity
100
AcDbLine
  8
0
 62
256
370
-1
 48
1.0
  6
ByLayer
 10
155.78
 20
-270.93666666666695
 30
0.0
 11
155.78
 21
-269.83666666666659
 31
0.0
  0
ARC
  5
2A8
100
AcDbEntity
  8
0
 62
256
370
-1
 48
1.0
  6
ByLayer
100
AcDbCircle
 10
155.77999999999997
 20
-269.58666666666664
 30
0.0
 40
0.2499999999999716
100
AcDbArc
 50
0.0
 51
270.00000000000654
  0
LINE
  5
2A9
100
AcDbEntity
100
AcDbLine
  8
0
 62
256
370
-1
 48
1.0
  6
ByLayer
 10
156.02999999999994
 20
-269.58666666666659
 30
0.0
 11
158.52999999999997
 21
-269.58666666666659
 31
0.0
  0
ARC
  5
2AA
100
AcDbEntity
  8
0
 62
256
370
-1
 48
1.0
  6
ByLayer
100
AcDbCircle
 10
158.77999999999997
 20
-269.58666666666659
 30
0.0
 40
0.25
100
AcDbArc
 50
270.0
 51
180.0
  0
LINE
  5
2AB
100
AcDbEntity
100
AcDbLine
  8
0
 62
256
370
-1
 48
1.0
  6
ByLayer
 10
158.77999999999997
 20
-269.83666666666659
 30
0.0
 11
158.77999999999997
 21
-270.93666666666695
 31
0.0
  0
LINE
  5
2AC
100
AcDbEntity
100
AcDbLine
  8
0
 62
256
370
-1
 48
1.0
  6
ByLayer
 10
158.77999999999997
 20
-270.93666666666695
 30
0.0
 11
163.0600000000002
 21
-270.93666666666695
 31
0.0
  0
LINE
  5
2AD
100
AcDbEntity
100
AcDbLine
  8
0
 62
256
370
-1
 48
1.0
  6
ByLayer
 10
163.0600000000002
 20
-270.93666666666695
 30
0.0
 11
163.06000000000017
 21
-261.46000000000004
 31
0.0
  0
LINE
  5
2AE
100
AcDbEntity
100
AcDbLine
  8
0
 62
256
370
-1
 48
1.0
  6
ByLayer
 10
163.06000000000017
 20
-261.46000000000004
 30
0.0
 11
156.34000000000015
 21
-261.46000000000004
 31
0.0
  0
LINE
  5
2AF
100
AcDbEntity
100
AcDbLine
  8
0
 62
256
370
-1
 48
1.0
  6
ByLayer
 10
156.34000000000015
 20
-261.46000000000004
 30
0.0
 11
156.34000000000012
 21
-254.74000000000026
 31
0.0
  0
LINE
  5
2B0
100
AcDbEntity
100
AcDbLine
  8
0
 62
256
370
-1
 48
1.0
  6
ByLayer
 10
156.34000000000012
 20
-254.74000000000026
 30
0.0
 11
169.78
 21
-254.74000000000021
 31
0.0
  0
LINE
  5
2B1
100
AcDbEntity
100
AcDbLine
  8
0
 62
256
370
-1
 48
1.0
  6
ByLayer
 10
169.78
 20
-254.74000000000021
 30
0.0
 11
176.17498109763073
 21
-254.85162481027373
 31
0.0
  0
LINE
  5
2B2
100
AcDbEntity
100
AcDbLine
  8
0
 62
256
370
-1
 48
1.0
  6
ByLayer
 10
176.17498109763073
 20
-254.85162481027373
 30
0.0
 11
177.17396282464117
 21
-197.61999999999986
 31
0.0
  0
LINE
  5
2B3
100
AcDbEntity
100
AcDbLine
  8
0
 62
256
370
-1
 48
1.0
  6
ByLayer
 10
177.17396282464117
 20
-197.61999999999986
 30
0.0
 11
151.50000000000003
 21
-197.62000000000037
 31
0.0
  0
LINE
  5
2B4
100
AcDbEntity
100
AcDbLine
  8
0
 62
256
370
-1
 48
1.0
  6
ByLayer
 10
151.50000000000003
 20
-197.62000000000037
 30
0.0
 11
151.5
 21
-237.94000000000003
 31
0.0
  0
LINE
  5
2B5
100
AcDbEntity
100
AcDbLine
  8
0
 62
256
370
-1
 48
1.0
  6
ByLayer
 10
151.5
 20
-237.94000000000003
 30
0.0
 11
144.77999999999997
 21
-237.94000000000005
 31
0.0
  0
LINE
  5
2B6
100
AcDbEntity
100
AcDbLine
  8
0
 62
256
370
-1
 48
1.0
  6
ByLayer
 10
144.77999999999997
 20
-237.94000000000005
 30
0.0
 11
144.77999999999997
 21
-224.5
 31
0.0
  0
LINE
  5
2B7
100
AcDbEntity
100
AcDbLine
  8
0
 62
256
370
-1
 48
1.0
  6
ByLayer
 10
144.77999999999997
 20
-224.5
 30
0.0
 11
120.27999999999997
 21
-224.5
 31
0.0
  0
LINE
  5
2B8
100
AcDbEntity
100
AcDbLine
  8
0
 62
256
370
-1
 48
1.0
  6
ByLayer
 10
120.27999999999997
 20
-224.5
 30
0.0
 11
120.27999999999994
 21
-365.18000000000029
 31
0.0
  0
LINE
  5
2B9
100
AcDbEntity
100
AcDbLine
  8
0
 62
256
370
-1
 48
1.0
  6
ByLayer
 10
120.27999999999994
 20
-365.18000000000029
 30
0.0
 11
144.78
 21
-365.18000000000029
 31
0.0
  0
LINE
  5
2BA
100
AcDbEntity
100
AcDbLine
  8
0
 62
256
370
-1
 48
1.0
  6
ByLayer
 10
144.78
 20
-365.18000000000029
 30
0.0
 11
144.78000000000006
 21
-351.74000000000024
 31
0.0
  0
LINE
  5
2BB
100
AcDbEntity
100
AcDbLine
  8
0
 62
256
370
-1
 48
1.0
  6
ByLayer
 10
144.78000000000006
 20
-351.74000000000024
 30
0.0
 11
151.50000000000011
 21
-351.74000000000024
 31
0.0
  0
ARC
  5
2BC
100
AcDbEntity
  8
0
 62
256
370
-1
 48
1.0
  6
ByLayer
100
AcDbCircle
 10
138.06000000000006
 20
-296.84000000000015
 30
0.0
 40
3.0000000000000853
100
AcDbArc
 50
180.0
 51
0.0
  0
LINE
  5
2BD
100
AcDbEntity
100
AcDbLine
  8
0
 62
256
370
-1
 48
1.0
  6
ByLayer
 10
135.05999999999997
 20
-296.84000000000015
 30
0.0
 11
135.05999999999995
 21
-292.84000000000015
 31
0.0
  0
ARC
  5
2BE
100
AcDbEntity
  8
0
 62
256
370
-1
 48
1.0
  6
ByLayer
100
AcDbCircle
 10
138.06000000000006
 20
-292.84000000000015
 30
0.0
 40
3.0000000000000995
100
AcDbArc
 50
0.0
 51
180.0
  0
LINE
  5
2BF
100
AcDbEntity
100
AcDbLine
  8
0
 62
256
370
-1
 48
1.0
  6
ByLayer
 10
141.06000000000014
 20
-292.84000000000015
 30
0.0
 11
141.06000000000014
 21
-296.84000000000015
 31
0.0
  0
ARC
  5
2C0
100
AcDbEntity
  8
0
 62
256
370
-1
 48
1.0
  6
ByLayer
100
AcDbCircle
 10
126.99999999999997
 20
-290.17333333333363
 30
0.0
 40
1.5750000000000526
100
AcDbArc
 50
180.0
 51
0.0
  0
LINE
  5
2C1
100
AcDbEntity
100
AcDbLine
  8
0
 62
256
370
-1
 48
1.0
  6
ByLayer
 10
125.42499999999991
 20
-290.17333333333363
 30
0.0
 11
125.42499999999994
 21
-286.17333333333363
 31
0.0
  0
ARC
  5
2C2
100
AcDbEntity
  8
0
 62
256
370
-1
 48
1.0
  6
ByLayer
100
AcDbCircle
 10
127.0
 20
-286.17333333333363
 30
0.0
 40
1.5750000000000668
100
AcDbArc
 50
0.0
 51
180.0
  0
LINE
  5
2C3
100
AcDbEntity
100
AcDbLine
  8
0
 62
256
370
-1
 48
1.0
  6
ByLayer
 10
128.57500000000007
 20
-286.17333333333363
 30
0.0
 11
128.57500000000002
 21
-290.17333333333363
 31
0.0
  0
ARC
  5
2C4
100
AcDbEntity
  8
0
 62
256
370
-1
 48
1.0
  6
ByLayer
100
AcDbCircle
 10
127.0
 20
-303.50666666666666
 30
0.0
 40
1.5750000000000384
100
AcDbArc
 50
180.0
 51
0.0
  0
LINE
  5
2C5
100
AcDbEntity
100
AcDbLine
  8
0
 62
256
370
-1
 48
1.0
  6
ByLayer
 10
125.42499999999997
 20
-303.50666666666666
 30
0.0
 11
125.425
 21
-299.50666666666666
 31
0.0
  0
ARC
  5
2C6
100
AcDbEntity
  8
0
 62
256
370
-1
 48
1.0
  6
ByLayer
100
AcDbCircle
 10
127.00000000000006
 20
-299.50666666666666
 30
0.0
 40
1.5750000000000526
100
AcDbArc
 50
0.0
 51
180.0
  0
LINE
  5
2C7
100
AcDbEntity
100
AcDbLine
  8
0
 62
256
370
-1
 48
1.0
  6
ByLayer
 10
128.5750000000001
 20
-299.50666666666666
 30
0.0
 11
128.57500000000005
 21
-303.50666666666666
 31
0.0
  0
ARC
  5
2C8
100
AcDbEntity
  8
0
 62
256
370
-1
 48
1.0
  6
ByLayer
100
AcDbCircle
 10
-116.28000000000011
 20
-314.27999999999986
 30
0.0
 40
4.0000000000000231
100
AcDbArc
 50
22.024312837042043
 51
157.97568716295802
  0
LINE
  5
2C9
100
AcDbEntity
100
AcDbLine
  8
0
 62
256
370
-1
 48
1.0
  6
ByLayer
 10
-119.98809924354798
 20
-312.77999999999986
 30
0.0
 11
-122.28000000000007
 21
-312.77999999999992
 31
0.0
  0
LINE
  5
2CA
100
AcDbEntity
100
AcDbLine
  8
0
 62
256
370
-1
 48
1.0
  6
ByLayer
 10
-122.28000000000007
 20
-312.77999999999992
 30
0.0
 11
-122.28000000000007
 21
-315.77999999999986
 31
0.0
  0
LINE
  5
2CB
100
AcDbEntity
100
AcDbLine
  8
0
 62
256
370
-1
 48
1.0
  6
ByLayer
 10
-122.28000000000007
 20
-315.77999999999986
 30
0.0
 11
-119.98809924354795
 21
-315.77999999999986
 31
0.0
  0
ARC
  5
2CC
100
AcDbEntity
  8
0
 62
256
370
-1
 48
1.0
  6
ByLayer
100
AcDbCircle
 10
-116.28000000000011
 20
-314.27999999999986
 30
0.0
 40
4.0000000000000142
100
AcDbArc
 50
202.02431283704212
 51
337.97568716295791
  0
LINE
  5
2CD
100
AcDbEntity
100
AcDbLine
  8
0
 62
256
370
-1
 48
1.0
  6
ByLayer
 10
-112.57190075645227
 20
-315.77999999999986
 30
0.0
 11
-110.28000000000017
 21
-315.77999999999986
 31
0.0
  0
LINE
  5
2CE
100
AcDbEntity
100
AcDbLine
  8
0
 62
256
370
-1
 48
1.0
  6
ByLayer
 10
-110.28000000000017
 20
-315.77999999999986
 30
0.0
 11
-110.28000000000017
 21
-312.77999999999986
 31
0.0
  0
LINE
  5
2CF
100
AcDbEntity
100
AcDbLine
  8
0
 62
256
370
-1
 48
1.0
  6
ByLayer
 10
-110.28000000000017
 20
-312.77999999999986
 30
0.0
 11
-112.57190075645227
 21
-312.77999999999986
 31
0.0
  0
ARC
  5
2D0
100
AcDbEntity
  8
0
 62
256
370
-1
 48
1.0
  6
ByLayer
100
AcDbCircle
 10
112.27999999999993
 20
-314.28000000000003
 30
0.0
 40
3.9999999999999711
100
AcDbArc
 50
22.024312837041535
 51
157.97568716295694
  0
LINE
  5
2D1
100
AcDbEntity
100
AcDbLine
  8
0
 62
256
370
-1
 48
1.0
  6
ByLayer
 10
108.57190075645212
 20
-312.77999999999997
 30
0.0
 11
106.27999999999992
 21
-312.77999999999992
 31
0.0
  0
LINE
  5
2D2
100
AcDbEntity
100
AcDbLine
  8
0
 62
256
370
-1
 48
1.0
  6
ByLayer
 10
106.27999999999992
 20
-312.77999999999992
 30
0.0
 11
106.27999999999992
 21
-315.77999999999986
 31
0.0
  0
LINE
  5
2D3
100
AcDbEntity
100
AcDbLine
  8
0
 62
256
370
-1
 48
1.0
  6
ByLayer
 10
106.27999999999992
 20
-315.77999999999986
 30
0.0
 11
108.57190075645212
 21
-315.78000000000009
 31
0.0
  0
ARC
  5
2D4
100
AcDbEntity
  8
0
 62
256
370
-1
 48
1.0
  6
ByLayer
100
AcDbCircle
 10
112.27999999999994
 20
-314.28000000000009
 30
0.0
 40
3.9999999999999929
100
AcDbArc
 50
202.02431283704223
 51
337.97568716295848
  0
LINE
  5
2D5
100
AcDbEntity
100
AcDbLine
  8
0
 62
256
370
-1
 48
1.0
  6
ByLayer
 10
115.98809924354777
 20
-315.78000000000003
 30
0.0
 11
118.27999999999994
 21
-315.77999999999986
 31
0.0
  0
LINE
  5
2D6
100
AcDbEntity
100
AcDbLine
  8
0
 62
256
370
-1
 48
1.0
  6
ByLayer
 10
118.27999999999994
 20
-315.77999999999986
 30
0.0
 11
118.27999999999989
 21
-312.78000000000014
 31
0.0
  0
LINE
  5
2D7
100
AcDbEntity
100
AcDbLine
  8
0
 62
256
370
-1
 48
1.0
  6
ByLayer
 10
118.27999999999989
 20
-312.78000000000014
 30
0.0
 11
115.98809924354774
 21
-312.78000000000009
 31
0.0
  0
LINE
  5
2D8
100
AcDbEntity
100
AcDbLine
  8
0
 62
256
370
-1
 48
1.0
  6
ByLayer
 10
-7.0000000000000995
 20
-318.28000000000009
 30
0.0
 11
-7.0000000000000711
 21
-325.00000000000011
 31
0.0
  0
LINE
  5
2D9
100
AcDbEntity
100
AcDbLine
  8
0
 62
256
370
-1
 48
1.0
  6
ByLayer
 10
-7.0000000000000711
 20
-325.00000000000011
 30
0.0
 11
2.9999999999999432
 21
-325.00000000000006
 31
0.0
  0
LINE
  5
2DA
100
AcDbEntity
100
AcDbLine
  8
0
 62
256
370
-1
 48
1.0
  6
ByLayer
 10
2.9999999999999432
 20
-325.00000000000006
 30
0.0
 11
2.9999999999999574
 21
-318.28000000000009
 31
0.0
  0
LINE
  5
2DB
100
AcDbEntity
100
AcDbLine
  8
0
 62
256
370
-1
 48
1.0
  6
ByLayer
 10
2.9999999999999574
 20
-318.28000000000009
 30
0.0
 11
-7.0000000000000995
 21
-318.28000000000009
 31
0.0
  0
LINE
  5
2DC
100
AcDbEntity
100
AcDbLine
  8
0
 62
256
370
-1
 48
1.0
  6
ByLayer
 10
-48.750000000000114
 20
-325.00000000000011
 30
0.0
 11
-48.750000000000071
 21
-318.28000000000009
 31
0.0
  0
LINE
  5
2DD
100
AcDbEntity
100
AcDbLine
  8
0
 62
256
370
-1
 48
1.0
  6
ByLayer
 10
-48.750000000000071
 20
-318.28000000000009
 30
0.0
 11
-58.750000000000085
 21
-318.28000000000009
 31
0.0
  0
LINE
  5
2DE
100
AcDbEntity
100
AcDbLine
  8
0
 62
256
370
-1
 48
1.0
  6
ByLayer
 10
-58.750000000000085
 20
-318.28000000000009
 30
0.0
 11
-58.750000000000085
 21
-325.00000000000011
 31
0.0
  0
LINE
  5
2DF
100
AcDbEntity
100
AcDbLine
  8
0
 62
256
370
-1
 48
1.0
  6
ByLayer
 10
-58.750000000000085
 20
-325.00000000000011
 30
0.0
 11
-48.750000000000114
 21
-325.00000000000011
 31
0.0
  0
LINE
  5
2E0
100
AcDbEntity
100
AcDbLine
  8
0
 62
256
370
-1
 48
1.0
  6
ByLayer
 10
44.749999999999915
 20
-318.2800000000002
 30
0.0
 11
44.749999999999943
 21
-325.00000000000011
 31
0.0
  0
LINE
  5
2E1
100
AcDbEntity
100
AcDbLine
  8
0
 62
256
370
-1
 48
1.0
  6
ByLayer
 10
44.749999999999943
 20
-325.00000000000011
 30
0.0
 11
54.749999999999915
 21
-325.00000000000017
 31
0.0
  0
LINE
  5
2E2
100
AcDbEntity
100
AcDbLine
  8
0
 62
256
370
-1
 48
1.0
  6
ByLayer
 10
54.749999999999915
 20
-325.00000000000017
 30
0.0
 11
54.749999999999886
 21
-318.28000000000026
 31
0.0
  0
LINE
  5
2E3
100
AcDbEntity
100
AcDbLine
  8
0
 62
256
370
-1
 48
1.0
  6
ByLayer
 10
54.749999999999886
 20
-318.28000000000026
 30
0.0
 11
44.749999999999915
 21
-318.2800000000002
 31
0.0
  0
LINE
  5
2E4
100
AcDbEntity
100
AcDbLine
  8
0
 62
256
370
-1
 48
1.0
  6
ByLayer
 10
-48.750000000000071
 20
-271.71999999999986
 30
0.0
 11
-48.750000000000071
 21
-265.0
 31
0.0
  0
LINE
  5
2E5
100
AcDbEntity
100
AcDbLine
  8
0
 62
256
370
-1
 48
1.0
  6
ByLayer
 10
-48.750000000000071
 20
-265.0
 30
0.0
 11
-58.750000000000071
 21
-265.0
 31
0.0
  0
LINE
  5
2E6
100
AcDbEntity
100
AcDbLine
  8
0
 62
256
370
-1
 48
1.0
  6
ByLayer
 10
-58.750000000000071
 20
-265.0
 30
0.0
 11
-58.750000000000071
 21
-271.72000000000014
 31
0.0
  0
LINE
  5
2E7
100
AcDbEntity
100
AcDbLine
  8
0
 62
256
370
-1
 48
1.0
  6
ByLayer
 10
-58.750000000000071
 20
-271.72000000000014
 30
0.0
 11
-48.750000000000071
 21
-271.71999999999986
 31
0.0
  0
LINE
  5
2E8
100
AcDbEntity
100
AcDbLine
  8
0
 62
256
370
-1
 48
1.0
  6
ByLayer
 10
2.9999999999999289
 20
-271.72000000000008
 30
0.0
 11
2.9999999999999289
 21
-265.00000000000006
 31
0.0
  0
LINE
  5
2E9
100
AcDbEntity
100
AcDbLine
  8
0
 62
256
370
-1
 48
1.0
  6
ByLayer
 10
2.9999999999999289
 20
-265.00000000000006
 30
0.0
 11
-7.0000000000000711
 21
-265.00000000000006
 31
0.0
  0
LINE
  5
2EA
100
AcDbEntity
100
AcDbLine
  8
0
 62
256
370
-1
 48
1.0
  6
ByLayer
 10
-7.0000000000000711
 20
-265.00000000000006
 30
0.0
 11
-7.0000000000000711
 21
-271.72000000000014
 31
0.0
  0
LINE
  5
2EB
100
AcDbEntity
100
AcDbLine
  8
0
 62
256
370
-1
 48
1.0
  6
ByLayer
 10
-7.0000000000000711
 20
-271.72000000000014
 30
0.0
 11
2.9999999999999289
 21
-271.72000000000008
 31
0.0
  0
LINE
  5
2EC
100
AcDbEntity
100
AcDbLine
  8
0
 62
256
370
-1
 48
1.0
  6
ByLayer
 10
44.749999999999943
 20
-265.00000000000006
 30
0.0
 11
44.749999999999943
 21
-271.72000000000003
 31
0.0
  0
LINE
  5
2ED
100
AcDbEntity
100
AcDbLine
  8
0
 62
256
370
-1
 48
1.0
  6
ByLayer
 10
44.749999999999943
 20
-271.72000000000003
 30
0.0
 11
54.749999999999943
 21
-271.72000000000054
 31
0.0
  0
LINE
  5
2EE
100
AcDbEntity
100
AcDbLine
  8
0
 62
256
370
-1
 48
1.0
  6
ByLayer
 10
54.749999999999943
 20
-271.72000000000054
 30
0.0
 11
54.749999999999943
 21
-265.00000000000006
 31
0.0
  0
LINE
  5
2EF
100
AcDbEntity
100
AcDbLine
  8
0
 62
256
370
-1
 48
1.0
  6
ByLayer
 10
54.749999999999943
 20
-265.00000000000006
 30
0.0
 11
44.749999999999943
 21
-265.00000000000006
 31
0.0
  0
LINE
  5
2F0
100
AcDbEntity
100
AcDbLine
  8
0
 62
256
370
-1
 48
1.0
  6
ByLayer
 10
86.499999999999915
 20
-325.00000000000017
 30
0.0
 11
86.5
 21
-340.50000000000011
 31
0.0
  0
LINE
  5
2F1
100
AcDbEntity
100
AcDbLine
  8
0
 62
256
370
-1
 48
1.0
  6
ByLayer
 10
-90.500000000000014
 20
-340.50000000000006
 30
0.0
 11
-90.500000000000028
 21
-325.00000000000011
 31
0.0
  0
LINE
  5
2F2
100
AcDbEntity
100
AcDbLine
  8
0
 62
256
370
-1
 48
1.0
  6
ByLayer
 10
-90.500000000000028
 20
-325.00000000000011
 30
0.0
 11
-124.27999999999999
 21
-325.00000000000006
 31
0.0
  0
LINE
  5
2F3
100
AcDbEntity
100
AcDbLine
  8
0
 62
256
370
-1
 48
1.0
  6
ByLayer
 10
-124.27999999999997
 20
-265.0
 30
0.0
 11
-90.500000000000057
 21
-265.0
 31
0.0
  0
LINE
  5
2F4
100
AcDbEntity
100
AcDbLine
  8
0
 62
256
370
-1
 48
1.0
  6
ByLayer
 10
-90.500000000000057
 20
-265.0
 30
0.0
 11
-90.500000000000057
 21
-249.50000000000003
 31
0.0
  0
LINE
  5
2F5
100
AcDbEntity
100
AcDbLine
  8
0
 62
256
370
-1
 48
1.0
  6
ByLayer
 10
86.5
 20
-249.5000000000002
 30
0.0
 11
86.499999999999943
 21
-265.00000000000006
 31
0.0
  0
LINE
  5
2F6
100
AcDbEntity
100
AcDbLine
  8
0
 62
256
370
-1
 48
1.0
  6
ByLayer
 10
86.499999999999943
 20
-265.00000000000006
 30
0.0
 11
120.27999999999992
 21
-265.00000000000006
 31
0.0
  0
LINE
  5
2F7
100
AcDbEntity
100
AcDbLine
  8
0
 62
256
370
-1
 48
1.0
  6
ByLayer
 10
120.27999999999992
 20
-325.0
 30
0.0
 11
86.499999999999915
 21
-325.00000000000017
 31
0.0
  0
ENDSEC
  0
SECTION
  2
OBJECTS
  0
DICTIONARY
  5
C
100
AcDbDictionary
280
0
281
1
  3
ACAD_GROUP
350
D
  3
ACAD_LAYOUT
350
1A
  3
ACAD_MLINESTYLE
350
17
  3
ACAD_PLOTSETTINGS
350
19
  3
ACAD_PLOTSTYLENAME
350
E
  3
AcDbVariableDictionary
350
2F8
  3
QCAD_OBJECTS
350
2F9
  0
DICTIONARY
  5
D
100
AcDbDictionary
280
0
281
1
  0
ACDBDICTIONARYWDFLT
  5
E
100
AcDbDictionary
281
1
  3
Normal
350
F
100
AcDbDictionaryWithDefault
340
F
  0
ACDBPLACEHOLDER
  5
F
  0
DICTIONARY
  5
17
100
AcDbDictionary
280
0
281
1
  3
Standard
350
18
  0
MLINESTYLE
  5
18
100
AcDbMlineStyle
  2
STANDARD
 70
0
  3

 62
256
 51
90.0
 52
90.0
 71
2
 49
0.5
 62
256
  6
BYLAYER
 49
-0.5
 62
256
  6
BYLAYER
  0
DICTIONARY
  5
19
100
AcDbDictionary
280
0
281
1
  0
DICTIONARY
  5
1A
100
AcDbDictionary
281
1
  3
Layout1
350
1E
  3
Layout2
350
26
  3
Model
350
22
  0
LAYOUT
  5
1E
100
AcDbPlotSettings
  1

  2
none_device
  4

  6

 40
0.0
 41
0.0
 42
0.0
 43
0.0
 44
0.0
 45
0.0
 46
0.0
 47
0.0
 48
0.0
 49
0.0
140
0.0
141
0.0
142
1.0
143
1.0
 70
688
 72
0
 73
0
 74
5
  7

 75
16
147
1.0
148
0.0
149
0.0
100
AcDbLayout
  1
Layout1
 70
1
 71
1
 10
0.0
 20
0.0
 11
420.0
 21
297.0
 12
0.0
 22
0.0
 32
0.0
 14
100000000000000000000.0
 24
100000000000000000000.0
 34
100000000000000000000.0
 15
-100000000000000000000.0
 25
-100000000000000000000.0
 35
-100000000000000000000.0
146
0.0
 13
0.0
 23
0.0
 33
0.0
 16
1.0
 26
0.0
 36
0.0
 17
0.0
 27
1.0
 37
0.0
 76
0
330
1B
  0
LAYOUT
  5
22
100
AcDbPlotSettings
  1

  2
none_device
  4

  6

 40
0.0
 41
0.0
 42
0.0
 43
0.0
 44
0.0
 45
0.0
 46
0.0
 47
0.0
 48
0.0
 49
0.0
140
0.0
141
0.0
142
1.0
143
1.0
 70
1712
 72
0
 73
0
 74
0
  7

 75
0
147
1.0
148
0.0
149
0.0
100
AcDbLayout
  1
Model
 70
1
 71
0
 10
0.0
 20
0.0
 11
12.0
 21
9.0
 12
0.0
 22
0.0
 32
0.0
 14
0.0
 24
0.0
 34
0.0
 15
0.0
 25
0.0
 35
0.0
146
0.0
 13
0.0
 23
0.0
 33
0.0
 16
1.0
 26
0.0
 36
0.0
 17
0.0
 27
1.0
 37
0.0
 76
0
330
1F
  0
LAYOUT
  5
26
100
AcDbPlotSettings
  1

  2
none_device
  4

  6

 40
0.0
 41
0.0
 42
0.0
 43
0.0
 44
0.0
 45
0.0
 46
0.0
 47
0.0
 48
0.0
 49
0.0
140
0.0
141
0.0
142
1.0
143
1.0
 70
688
 72
0
 73
0
 74
5
  7

 75
16
147
1.0
148
0.0
149
0.0
100
AcDbLayout
  1
Layout2
 70
1
 71
2
 10
0.0
 20
0.0
 11
12.0
 21
9.0
 12
0.0
 22
0.0
 32
0.0
 14
0.0
 24
0.0
 34
0.0
 15
0.0
 25
0.0
 35
0.0
146
0.0
 13
0.0
 23
0.0
 33
0.0
 16
1.0
 26
0.0
 36
0.0
 17
0.0
 27
1.0
 37
0.0
 76
0
330
23
  0
DICTIONARY
  5
2F8
100
AcDbDictionary
281
1
  3
DIMASSOC
350
2FB
  3
HIDETEXT
350
2FA
  0
DICTIONARYVAR
  5
2FA
100
DictionaryVariables
280
0
  1
2
  0
DICTIONARYVAR
  5
2FB
100
DictionaryVariables
280
0
  1
1
  0
DICTIONARY
  5
2F9
100
AcDbDictionary
281
1
  3
Grid/DisplayGrid00
350
2FC
  3
Grid/DisplayGrid01
350
2FD
  3
Grid/DisplayGrid02
350
2FE
  3
Grid/DisplayGrid03
350
2FF
  3
Grid/GridSpacingX00
350
300
  3
Grid/GridSpacingX01
350
301
  3
Grid/GridSpacingX02
350
302
  3
Grid/GridSpacingX03
350
303
  3
Grid/GridSpacingY00
350
304
  3
Grid/GridSpacingY01
350
305
  3
Grid/GridSpacingY02
350
306
  3
Grid/GridSpacingY03
350
307
  3
Grid/IsometricGrid00
350
308
  3
Grid/IsometricGrid01
350
309
  3
Grid/IsometricGrid02
350
30A
  3
Grid/IsometricGrid03
350
30B
  3
Grid/IsometricProjection00
350
30C
  3
Grid/IsometricProjection01
350
30D
  3
Grid/IsometricProjection02
350
30E
  3
Grid/IsometricProjection03
350
30F
  3
Grid/MetaGridSpacingX00
350
310
  3
Grid/MetaGridSpacingX01
350
311
  3
Grid/MetaGridSpacingX02
350
312
  3
Grid/MetaGridSpacingX03
350
313
  3
Grid/MetaGridSpacingY00
350
314
  3
Grid/MetaGridSpacingY01
350
315
  3
Grid/MetaGridSpacingY02
350
316
  3
Grid/MetaGridSpacingY03
350
317
  3
MultiPageSettings/Columns
350
318
  3
MultiPageSettings/GlueMarginsBottom
350
319
  3
MultiPageSettings/GlueMarginsLeft
350
31A
  3
MultiPageSettings/GlueMarginsRight
350
31B
  3
MultiPageSettings/GlueMarginsTop
350
31C
  3
MultiPageSettings/PrintCropMarks
350
31D
  3
MultiPageSettings/Rows
350
31E
  3
PageSettings/OffsetX
350
31F
  3
PageSettings/OffsetY
350
320
  3
PageSettings/PageOrientation
350
321
  3
PageSettings/PaperHeight
350
322
  3
PageSettings/PaperWidth
350
323
  3
PageSettings/Scale
350
324
  3
PageSettings/ShowPaperBorders
350
325
  3
UnitSettings/PaperUnit
350
326
  0
XRECORD
  5
2FC
330
2F9
100
AcDbXrecord
280
1
290
1
  0
XRECORD
  5
2FD
330
2F9
100
AcDbXrecord
280
1
290
1
  0
XRECORD
  5
2FE
330
2F9
100
AcDbXrecord
280
1
290
1
  0
XRECORD
  5
2FF
330
2F9
100
AcDbXrecord
280
1
290
1
  0
XRECORD
  5
300
330
2F9
100
AcDbXrecord
280
1
1000
auto
  0
XRECORD
  5
301
330
2F9
100
AcDbXrecord
280
1
1000
auto
  0
XRECORD
  5
302
330
2F9
100
AcDbXrecord
280
1
1000
auto
  0
XRECORD
  5
303
330
2F9
100
AcDbXrecord
280
1
1000
auto
  0
XRECORD
  5
304
330
2F9
100
AcDbXrecord
280
1
1000
auto
  0
XRECORD
  5
305
330
2F9
100
AcDbXrecord
280
1
1000
auto
  0
XRECORD
  5
306
330
2F9
100
AcDbXrecord
280
1
1000
auto
  0
XRECORD
  5
307
330
2F9
100
AcDbXrecord
280
1
1000
auto
  0
XRECORD
  5
308
330
2F9
100
AcDbXrecord
280
1
290
0
  0
XRECORD
  5
309
330
2F9
100
AcDbXrecord
280
1
290
0
  0
XRECORD
  5
30A
330
2F9
100
AcDbXrecord
280
1
290
0
  0
XRECORD
  5
30B
330
2F9
100
AcDbXrecord
280
1
290
0
  0
XRECORD
  5
30C
330
2F9
100
AcDbXrecord
280
1
 90
0
  0
XRECORD
  5
30D
330
2F9
100
AcDbXrecord
280
1
 90
0
  0
XRECORD
  5
30E
330
2F9
100
AcDbXrecord
280
1
 90
0
  0
XRECORD
  5
30F
330
2F9
100
AcDbXrecord
280
1
 90
0
  0
XRECORD
  5
310
330
2F9
100
AcDbXrecord
280
1
1000
auto
  0
XRECORD
  5
311
330
2F9
100
AcDbXrecord
280
1
1000
auto
  0
XRECORD
  5
312
330
2F9
100
AcDbXrecord
280
1
1000
auto
  0
XRECORD
  5
313
330
2F9
100
AcDbXrecord
280
1
1000
auto
  0
XRECORD
  5
314
330
2F9
100
AcDbXrecord
280
1
1000
auto
  0
XRECORD
  5
315
330
2F9
100
AcDbXrecord
280
1
1000
auto
  0
XRECORD
  5
316
330
2F9
100
AcDbXrecord
280
1
1000
auto
  0
XRECORD
  5
317
330
2F9
100
AcDbXrecord
280
1
1000
auto
  0
XRECORD
  5
318
330
2F9
100
AcDbXrecord
280
1
 90
1
  0
XRECORD
  5
319
330
2F9
100
AcDbXrecord
280
1
 40
10.0
  0
XRECORD
  5
31A
330
2F9
100
AcDbXrecord
280
1
 40
10.0
  0
XRECORD
  5
31B
330
2F9
100
AcDbXrecord
280
1
 40
10.0
  0
XRECORD
  5
31C
330
2F9
100
AcDbXrecord
280
1
 40
10.0
  0
XRECORD
  5
31D
330
2F9
100
AcDbXrecord
280
1
290
0
  0
XRECORD
  5
31E
330
2F9
100
AcDbXrecord
280
1
 90
1
  0
XRECORD
  5
31F
330
2F9
100
AcDbXrecord
280
1
 40
0.0
  0
XRECORD
  5
320
330
2F9
100
AcDbXrecord
280
1
 40
0.0
  0
XRECORD
  5
321
330
2F9
100
AcDbXrecord
280
1
1000
Portrait
  0
XRECORD
  5
322
330
2F9
100
AcDbXrecord
280
1
 40
297.0
  0
XRECORD
  5
323
330
2F9
100
AcDbXrecord
280
1
 40
210.0
  0
XRECORD
  5
324
330
2F9
100
AcDbXrecord
280
1
1000
1:1
  0
XRECORD
  5
325
330
2F9
100
AcDbXrecord
280
1
290
1
  0
XRECORD
  5
326
330
2F9
100
AcDbXrecord
280
1
 90
4
  0
ENDSEC
  0
EOF
