999
dxflib 3.17.0.0
  0
SECTION
  2
HEADER
  9
$ACADVER
  1
AC1015
  9
$HANDSEED
  5
FFFF
  9
$ANGBASE
 50
0.0
  9
$ATTMODE
 70
1
  9
$AUNITS
 70
0
  9
$AUPREC
 70
0
  9
$CELTSCALE
 40
1.0
  9
$CHAMFERA
 40
0.0
  9
$CHAMFERB
 40
0.0
  9
$CHAMFERC
 40
0.0
  9
$CHAMFERD
 40
0.0
  9
$CMLJUST
 70
0
  9
$CMLSCALE
 40
1.0
  9
$DIMADEC
 70
0
  9
$DIMALTD
 70
2
  9
$DIMALTF
 40
25.399999999999999
  9
$DIMALTRND
 40
0.0
  9
$DIMALTTD
 70
2
  9
$DIMALTTZ
 70
0
  9
$DIMALTU
 70
2
  9
$DIMALTZ
 70
0
  9
$DIMAPOST
  1

  9
$DIMASZ
 40
2.5
  9
$DIMATFIT
 70
3
  9
$DIMAUNIT
 70
0
  9
$DIMAZIN
 70
2
  9
$DIMCEN
 40
0.09
  9
$DIMDEC
 70
4
  9
$DIMDLE
 40
0.0
  9
$DIMDLI
 40
0.38
  9
$DIMDSEP
 70
46
  9
$DIMEXE
 40
1.25
  9
$DIMEXO
 40
0.625
  9
$DIMFRAC
 70
0
  9
$DIMGAP
 40
0.625
  9
$DIMJUST
 70
0
  9
$DIMLFAC
 40
1.0
  9
$DIMLUNIT
 70
2
  9
$DIMLWD
 70
-2
  9
$DIMLWE
 70
-2
  9
$DIMPOST
  1

  9
$DIMRND
 40
0.0
  9
$DIMSCALE
 40
1.0
  9
$DIMTAD
 70
0
  9
$DIMTDEC
 70
4
  9
$DIMTFAC
 40
1.0
  9
$DIMTM
 40
0.0
  9
$DIMTOLJ
 70
1
  9
$DIMTP
 40
0.0
  9
$DIMTSZ
 40
0.0
  9
$DIMTVP
 40
0.0
  9
$DIMTXT
 40
2.5
  9
$DIMTZIN
 70
0
  9
$DIMZIN
 70
8
  9
$DWGCODEPAGE
  3
ANSI_1252
  9
$ELEVATION
 40
0.0
  9
$EXTMAX
 10
-100000000000000000000.0
 20
-100000000000000000000.0
 30
-100000000000000000000.0
  9
$EXTMIN
 10
100000000000000000000.0
 20
100000000000000000000.0
 30
100000000000000000000.0
  9
$FILLETRAD
 40
0.5
  9
$INSBASE
 10
0.0
 20
0.0
 30
0.0
  9
$INSUNITS
 70
4
  9
$LIMMAX
 10
12.0
 20
9.0
  9
$LIMMIN
 10
0.0
 20
0.0
  9
$LTSCALE
 40
1.0
  9
$LUNITS
 70
2
  9
$LUPREC
 70
4
  9
$MAXACTVP
 70
2
  9
$MEASUREMENT
 70
1
  9
$PDMODE
 70
0
  9
$PDSIZE
 40
0.0
  9
$PELEVATION
 40
0.0
  9
$PEXTMAX
 10
-100000000000000000000.0
 20
-100000000000000000000.0
 30
-100000000000000000000.0
  9
$PEXTMIN
 10
100000000000000000000.0
 20
100000000000000000000.0
 30
100000000000000000000.0
  9
$PINSBASE
 10
0.0
 20
0.0
 30
0.0
  9
$PLIMMAX
 10
420.0
 20
297.0
  9
$PLIMMIN
 10
0.0
 20
0.0
  9
$PLINEWID
 40
0.0
  9
$PROXYGRAPHICS
 70
1
  9
$PUCSORG
 10
0.0
 20
0.0
 30
0.0
  9
$PUCSXDIR
 10
1.0
 20
0.0
 30
0.0
  9
$PUCSYDIR
 10
0.0
 20
1.0
 30
0.0
  9
$SHADEDGE
 70
3
  9
$SHADEDIF
 70
70
  9
$SKETCHINC
 40
0.1
  9
$SPLINESEGS
 70
8
  9
$SPLINETYPE
 70
6
  9
$SURFTAB1
 70
6
  9
$SURFTAB2
 70
6
  9
$SURFTYPE
 70
6
  9
$SURFU
 70
6
  9
$SURFV
 70
6
  9
$TEXTSIZE
 40
2.5
  9
$THICKNESS
 40
0.0
  9
$TRACEWID
 40
0.05
  9
$TREEDEPTH
 70
3020
  9
$UCSORG
 10
0.0
 20
0.0
 30
0.0
  9
$UCSXDIR
 10
1.0
 20
0.0
 30
0.0
  9
$UCSYDIR
 10
0.0
 20
1.0
 30
0.0
  9
$UNITMODE
 70
0
  9
$USERI1
 70
0
  9
$USERI2
 70
0
  9
$USERI3
 70
0
  9
$USERI4
 70
0
  9
$USERI5
 70
0
  9
$USERR1
 40
0.0
  9
$USERR2
 40
0.0
  9
$USERR3
 40
0.0
  9
$USERR4
 40
0.0
  9
$USERR5
 40
0.0
  0
ENDSEC
  0
SECTION
  2
TABLES
  0
TABLE
  2
VPORT
  5
8
100
AcDbSymbolTable
 70
1
  0
VPORT
  5
30
100
AcDbSymbolTableRecord
100
AcDbViewportTableRecord
  2
*Active
 70
0
 10
0.0
 20
0.0
 11
1.0
 21
1.0
 12
286.30555555555549
 22
148.5
 13
0.0
 23
0.0
 14
10.0
 24
10.0
 15
10.0
 25
10.0
 16
0.0
 26
0.0
 36
1.0
 17
0.0
 27
0.0
 37
0.0
 40
297.0
 41
1.92798353909465
 42
50.0
 43
0.0
 44
0.0
 50
0.0
 51
0.0
 71
0
 72
100
 73
1
 74
3
 75
1
 76
1
 77
0
 78
0
281
0
 65
1
110
0.0
120
0.0
130
0.0
111
1.0
121
0.0
131
0.0
112
0.0
122
1.0
132
0.0
 79
0
146
0.0
  0
ENDTAB
  0
TABLE
  2
LTYPE
  5
5
100
AcDbSymbolTable
 70
50
  0
LTYPE
  5
16
100
AcDbSymbolTableRecord
100
AcDbLinetypeTableRecord
  2
Continuous
 70
0
  3
Solid line
 72
65
 73
0
 40
0.0
  0
LTYPE
  5
31
100
AcDbSymbolTableRecord
100
AcDbLinetypeTableRecord
  2
ACAD_ISO07W100
 70
0
  3
ISO dot . . . . . . . . . . . . . . . . . . . . 
 72
65
 73
2
 40
3.0
 49
0.1
 74
0
 49
-2.8999999999999999
 74
0
  0
LTYPE
  5
32
100
AcDbSymbolTableRecord
100
AcDbLinetypeTableRecord
  2
BATTING
 70
0
  3
Batting SSSSSSSSSSSSSSSSSSSSSSSSSSSSSSSSSSSSSSSSSSSSSSS
 72
65
 73
4
 40
10.16254
 49
0.00254
 74
0
 49
-2.54
 74
0
 49
-5.0800000000000001
 74
0
 49
-2.54
 74
0
  0
LTYPE
  5
33
100
AcDbSymbolTableRecord
100
AcDbLinetypeTableRecord
  2
ACAD_ISO14W100
 70
0
  3
ISO dash triple-dot __ . . . __ . . . __ . . . _
 72
65
 73
8
 40
24.0
 49
12.0
 74
0
 49
-2.9500000000000002
 74
0
 49
0.1
 74
0
 49
-2.8999999999999999
 74
0
 49
0.1
 74
0
 49
-2.8999999999999999
 74
0
 49
0.1
 74
0
 49
-2.9500000000000002
 74
0
  0
LTYPE
  5
34
100
AcDbSymbolTableRecord
100
AcDbLinetypeTableRecord
  2
FENCELINE2
 70
0
  3
Fenceline square ----[]-----[]----[]-----[]----[]---
 72
65
 73
4
 40
36.829999999999998
 49
6.3499999999999996
 74
0
 49
-2.54
 74
0
 49
-2.54
 74
0
 49
25.399999999999999
 74
0
  0
LTYPE
  5
35
100
AcDbSymbolTableRecord
100
AcDbLinetypeTableRecord
  2
DOTX2
 70
0
  3
Dot (2x) .  .  .  .  .  .  .  .  .  .  .  .  .  .
 72
65
 73
2
 40
12.699999999999999
 49
0.1
 74
0
 49
-12.6
 74
0
  0
LTYPE
  5
36
100
AcDbSymbolTableRecord
100
AcDbLinetypeTableRecord
  2
DASHEDX2
 70
0
  3
Dashed (2x) ____  ____  ____  ____  ____  ___
 72
65
 73
2
 40
38.099999999999994
 49
25.399999999999999
 74
0
 49
-12.699999999999999
 74
0
  0
LTYPE
  5
14
100
AcDbSymbolTableRecord
100
AcDbLinetypeTableRecord
  2
ByBlock
 70
0
  3

 72
65
 73
0
 40
0.0
  0
LTYPE
  5
37
100
AcDbSymbolTableRecord
100
AcDbLinetypeTableRecord
  2
TRACKS
 70
0
  3
Tracks -|-|-|-|-|-|-|-|-|-|-|-|-|-|-|-|-|-|-|-|-|-|-|-|-
 72
65
 73
2
 40
7.6200000000000001
 49
3.8100000000000001
 74
0
 49
3.8100000000000001
 74
0
  0
LTYPE
  5
38
100
AcDbSymbolTableRecord
100
AcDbLinetypeTableRecord
  2
CENTERX2
 70
0
  3
Center (2x) ________  __  ________  __  _____
 72
65
 73
4
 40
101.60000000000001
 49
63.5
 74
0
 49
-12.699999999999999
 74
0
 49
12.699999999999999
 74
0
 49
-12.699999999999999
 74
0
  0
LTYPE
  5
39
100
AcDbSymbolTableRecord
100
AcDbLinetypeTableRecord
  2
BORDER2
 70
0
  3
Border (.5x) __.__.__.__.__.__.__.__.__.__.__.
 72
65
 73
6
 40
22.225000000000001
 49
6.3499999999999996
 74
0
 49
-3.1749999999999998
 74
0
 49
6.3499999999999996
 74
0
 49
-3.125
 74
0
 49
0.1
 74
0
 49
-3.125
 74
0
  0
LTYPE
  5
3A
100
AcDbSymbolTableRecord
100
AcDbLinetypeTableRecord
  2
PHANTOMX2
 70
0
  3
Phantom (2x) ____________    ____    ____   _
 72
65
 73
6
 40
127.00000000000001
 49
63.5
 74
0
 49
-12.699999999999999
 74
0
 49
12.699999999999999
 74
0
 49
-12.699999999999999
 74
0
 49
12.699999999999999
 74
0
 49
-12.699999999999999
 74
0
  0
LTYPE
  5
3B
100
AcDbSymbolTableRecord
100
AcDbLinetypeTableRecord
  2
ACAD_ISO13W100
 70
0
  3
ISO double-dash double-dot __ __ . . __ __ . . _
 72
65
 73
8
 40
36.000000000000007
 49
12.0
 74
0
 49
-3.0
 74
0
 49
12.0
 74
0
 49
-2.9500000000000002
 74
0
 49
0.1
 74
0
 49
-2.8999999999999999
 74
0
 49
0.1
 74
0
 49
-2.9500000000000002
 74
0
  0
LTYPE
  5
3C
100
AcDbSymbolTableRecord
100
AcDbLinetypeTableRecord
  2
ACAD_ISO09W100
 70
0
  3
ISO long-dash double-short-dash ____ __ __ ____
 72
65
 73
6
 40
45.0
 49
24.0
 74
0
 49
-3.0
 74
0
 49
6.0
 74
0
 49
-3.0
 74
0
 49
6.0
 74
0
 49
-3.0
 74
0
  0
LTYPE
  5
3D
100
AcDbSymbolTableRecord
100
AcDbLinetypeTableRecord
  2
ACAD_ISO12W100
 70
0
  3
ISO dash double-dot __ . . __ . . __ . . __ . . 
 72
65
 73
6
 40
21.0
 49
12.0
 74
0
 49
-2.9500000000000002
 74
0
 49
0.1
 74
0
 49
-2.8999999999999999
 74
0
 49
0.1
 74
0
 49
-2.9500000000000002
 74
0
  0
LTYPE
  5
3E
100
AcDbSymbolTableRecord
100
AcDbLinetypeTableRecord
  2
ACAD_ISO02W100
 70
0
  3
ISO dash __ __ __ __ __ __ __ __ __ __ __ __ __
 72
65
 73
2
 40
15.0
 49
12.0
 74
0
 49
-3.0
 74
0
  0
LTYPE
  5
3F
100
AcDbSymbolTableRecord
100
AcDbLinetypeTableRecord
  2
BORDERX2
 70
0
  3
Border (2x) ____  ____  .  ____  ____  .  ___
 72
65
 73
6
 40
88.899999999999991
 49
25.399999999999999
 74
0
 49
-12.699999999999999
 74
0
 49
25.399999999999999
 74
0
 49
-12.65
 74
0
 49
0.1
 74
0
 49
-12.65
 74
0
  0
LTYPE
  5
40
100
AcDbSymbolTableRecord
100
AcDbLinetypeTableRecord
  2
HIDDEN
 70
0
  3
Hidden __ __ __ __ __ __ __ __ __ __ __ __ __ __
 72
65
 73
2
 40
9.5249999999999986
 49
6.3499999999999996
 74
0
 49
-3.1749999999999998
 74
0
  0
LTYPE
  5
41
100
AcDbSymbolTableRecord
100
AcDbLinetypeTableRecord
  2
ACAD_ISO10W100
 70
0
  3
ISO dash dot __ . __ . __ . __ . __ . __ . __ . 
 72
65
 73
4
 40
18.0
 49
12.0
 74
0
 49
-2.9500000000000002
 74
0
 49
0.1
 74
0
 49
-2.9500000000000002
 74
0
  0
LTYPE
  5
42
100
AcDbSymbolTableRecord
100
AcDbLinetypeTableRecord
  2
ACAD_ISO08W100
 70
0
  3
ISO long-dash short-dash ____ __ ____ __ ____ _
 72
65
 73
4
 40
36.0
 49
24.0
 74
0
 49
-3.0
 74
0
 49
6.0
 74
0
 49
-3.0
 74
0
  0
LTYPE
  5
43
100
AcDbSymbolTableRecord
100
AcDbLinetypeTableRecord
  2
DASHDOT2
 70
0
  3
Dash dot (.5x) _._._._._._._._._._._._._._._.
 72
65
 73
4
 40
12.699999999999999
 49
6.3499999999999996
 74
0
 49
-3.125
 74
0
 49
0.1
 74
0
 49
-3.125
 74
0
  0
LTYPE
  5
44
100
AcDbSymbolTableRecord
100
AcDbLinetypeTableRecord
  2
GAS_LINE
 70
0
  3
Gas line ----GAS----GAS----GAS----GAS----GAS----GAS--
 72
65
 73
3
 40
24.130000000000003
 49
12.699999999999999
 74
0
 49
-5.0800000000000001
 74
0
 49
-6.3499999999999996
 74
0
  0
LTYPE
  5
45
100
AcDbSymbolTableRecord
100
AcDbLinetypeTableRecord
  2
ACAD_ISO03W100
 70
0
  3
ISO dash space __    __    __    __    __    __
 72
65
 73
2
 40
30.0
 49
12.0
 74
0
 49
-18.0
 74
0
  0
LTYPE
  5
46
100
AcDbSymbolTableRecord
100
AcDbLinetypeTableRecord
  2
PHANTOM
 70
0
  3
Phantom ______  __  __  ______  __  __  ______ 
 72
65
 73
6
 40
63.500000000000007
 49
31.75
 74
0
 49
-6.3499999999999996
 74
0
 49
6.3499999999999996
 74
0
 49
-6.3499999999999996
 74
0
 49
6.3499999999999996
 74
0
 49
-6.3499999999999996
 74
0
  0
LTYPE
  5
47
100
AcDbSymbolTableRecord
100
AcDbLinetypeTableRecord
  2
HIDDENX2
 70
0
  3
Hidden (2x) ____ ____ ____ ____ ____ ____ ____ 
 72
65
 73
2
 40
19.049999999999997
 49
12.699999999999999
 74
0
 49
-6.3499999999999996
 74
0
  0
LTYPE
  5
48
100
AcDbSymbolTableRecord
100
AcDbLinetypeTableRecord
  2
ZIGZAG
 70
0
  3
Zig zag /\/\/\/\/\/\/\/\/\/\/\/\/\/\/\/\/\/\/\/\/\/\/\/
 72
65
 73
4
 40
20.32254
 49
0.00254
 74
0
 49
-5.0800000000000001
 74
0
 49
-10.16
 74
0
 49
-5.0800000000000001
 74
0
  0
LTYPE
  5
49
100
AcDbSymbolTableRecord
100
AcDbLinetypeTableRecord
  2
DRAINAGE2
 70
0
  3
Drainage reversed----<----<----<----
 72
65
 73
2
 40
10.16
 49
5.0800000000000001
 74
0
 49
5.0800000000000001
 74
0
  0
LTYPE
  5
4A
100
AcDbSymbolTableRecord
100
AcDbLinetypeTableRecord
  2
DASHED2
 70
0
  3
Dashed (.5x) _ _ _ _ _ _ _ _ _ _ _ _ _ _ _ _ _ 
 72
65
 73
2
 40
9.5249999999999986
 49
6.3499999999999996
 74
0
 49
-3.1749999999999998
 74
0
  0
LTYPE
  5
4B
100
AcDbSymbolTableRecord
100
AcDbLinetypeTableRecord
  2
PHANTOM2
 70
0
  3
Phantom (.5x) ___ _ _ ___ _ _ ___ _ _ ___ _ _
 72
65
 73
6
 40
31.750000000000004
 49
15.875
 74
0
 49
-3.1749999999999998
 74
0
 49
3.1749999999999998
 74
0
 49
-3.1749999999999998
 74
0
 49
3.1749999999999998
 74
0
 49
-3.1749999999999998
 74
0
  0
LTYPE
  5
4C
100
AcDbSymbolTableRecord
100
AcDbLinetypeTableRecord
  2
ACAD_ISO06W100
 70
0
  3
ISO long-dash triple-dot ____ ... ____ ... ____
 72
65
 73
8
 40
36.000000000000007
 49
24.0
 74
0
 49
-2.9500000000000002
 74
0
 49
0.1
 74
0
 49
-2.8999999999999999
 74
0
 49
0.1
 74
0
 49
-2.8999999999999999
 74
0
 49
0.1
 74
0
 49
-2.9500000000000002
 74
0
  0
LTYPE
  5
4D
100
AcDbSymbolTableRecord
100
AcDbLinetypeTableRecord
  2
ACAD_ISO15W100
 70
0
  3
ISO double-dash triple-dot __ __ . . . __ __ . .
 72
65
 73
10
 40
39.000000000000007
 49
12.0
 74
0
 49
-3.0
 74
0
 49
12.0
 74
0
 49
-2.9500000000000002
 74
0
 49
0.1
 74
0
 49
-2.8999999999999999
 74
0
 49
0.1
 74
0
 49
-2.8999999999999999
 74
0
 49
0.1
 74
0
 49
-2.9500000000000002
 74
0
  0
LTYPE
  5
4E
100
AcDbSymbolTableRecord
100
AcDbLinetypeTableRecord
  2
BORDER
 70
0
  3
Border __ __ . __ __ . __ __ . __ __ . __ __ .
 72
65
 73
6
 40
44.449999999999996
 49
12.699999999999999
 74
0
 49
-6.3499999999999996
 74
0
 49
12.699999999999999
 74
0
 49
-6.2999999999999998
 74
0
 49
0.1
 74
0
 49
-6.2999999999999998
 74
0
  0
LTYPE
  5
4F
100
AcDbSymbolTableRecord
100
AcDbLinetypeTableRecord
  2
DASHDOT
 70
0
  3
Dash dot __ . __ . __ . __ . __ . __ . __ . __
 72
65
 73
4
 40
25.400000000000002
 49
12.699999999999999
 74
0
 49
-6.2999999999999998
 74
0
 49
0.1
 74
0
 49
-6.2999999999999998
 74
0
  0
LTYPE
  5
50
100
AcDbSymbolTableRecord
100
AcDbLinetypeTableRecord
  2
DOT
 70
0
  3
Dot . . . . . . . . . . . . . . . . . . . . . . . .
 72
65
 73
2
 40
6.3499999999999996
 49
0.1
 74
0
 49
-6.25
 74
0
  0
LTYPE
  5
51
100
AcDbSymbolTableRecord
100
AcDbLinetypeTableRecord
  2
HIDDEN2
 70
0
  3
Hidden (.5x) _ _ _ _ _ _ _ _ _ _ _ _ _ _ _ _ _ 
 72
65
 73
2
 40
4.7624999999999993
 49
3.1749999999999998
 74
0
 49
-1.5874999999999999
 74
0
  0
LTYPE
  5
52
100
AcDbSymbolTableRecord
100
AcDbLinetypeTableRecord
  2
DIVIDEX2
 70
0
  3
Divide (2x) ________  .  .  ________  .  .  _
 72
65
 73
6
 40
63.5
 49
25.399999999999999
 74
0
 49
-12.65
 74
0
 49
0.1
 74
0
 49
-12.6
 74
0
 49
0.1
 74
0
 49
-12.65
 74
0
  0
LTYPE
  5
15
100
AcDbSymbolTableRecord
100
AcDbLinetypeTableRecord
  2
ByLayer
 70
0
  3

 72
65
 73
0
 40
0.0
  0
LTYPE
  5
53
100
AcDbSymbolTableRecord
100
AcDbLinetypeTableRecord
  2
DASHED
 70
0
  3
Dashed __ __ __ __ __ __ __ __ __ __ __ __ __ _
 72
65
 73
2
 40
19.049999999999997
 49
12.699999999999999
 74
0
 49
-6.3499999999999996
 74
0
  0
LTYPE
  5
54
100
AcDbSymbolTableRecord
100
AcDbLinetypeTableRecord
  2
DASHDOTX2
 70
0
  3
Dash dot (2x) ____  .  ____  .  ____  .  ___
 72
65
 73
4
 40
50.799999999999997
 49
25.399999999999999
 74
0
 49
-12.65
 74
0
 49
0.1
 74
0
 49
-12.65
 74
0
  0
LTYPE
  5
55
100
AcDbSymbolTableRecord
100
AcDbLinetypeTableRecord
  2
ACAD_ISO05W100
 70
0
  3
ISO long-dash double-dot ____ .. ____ .. ____ . 
 72
65
 73
6
 40
33.0
 49
24.0
 74
0
 49
-2.9500000000000002
 74
0
 49
0.1
 74
0
 49
-2.8999999999999999
 74
0
 49
0.1
 74
0
 49
-2.9500000000000002
 74
0
  0
LTYPE
  5
56
100
AcDbSymbolTableRecord
100
AcDbLinetypeTableRecord
  2
CENTER
 70
0
  3
Center ____ _ ____ _ ____ _ ____ _ ____ _ ____
 72
65
 73
4
 40
50.800000000000004
 49
31.75
 74
0
 49
-6.3499999999999996
 74
0
 49
6.3499999999999996
 74
0
 49
-6.3499999999999996
 74
0
  0
LTYPE
  5
57
100
AcDbSymbolTableRecord
100
AcDbLinetypeTableRecord
  2
HOT_WATER_SUPPLY
 70
0
  3
Hot water supply ---- HW ---- HW ---- HW ----
 72
65
 73
3
 40
22.859999999999999
 49
12.699999999999999
 74
0
 49
-5.0800000000000001
 74
0
 49
-5.0800000000000001
 74
0
  0
LTYPE
  5
58
100
AcDbSymbolTableRecord
100
AcDbLinetypeTableRecord
  2
DOT2
 70
0
  3
Dot (.5x) ........................................
 72
65
 73
2
 40
3.1750000000000003
 49
0.1
 74
0
 49
-3.0750000000000002
 74
0
  0
LTYPE
  5
59
100
AcDbSymbolTableRecord
100
AcDbLinetypeTableRecord
  2
ACAD_ISO04W100
 70
0
  3
ISO long-dash dot ____ . ____ . ____ . ____ . _
 72
65
 73
4
 40
30.0
 49
24.0
 74
0
 49
-2.9500000000000002
 74
0
 49
0.1
 74
0
 49
-2.9500000000000002
 74
0
  0
LTYPE
  5
5A
100
AcDbSymbolTableRecord
100
AcDbLinetypeTableRecord
  2
ACAD_ISO11W100
 70
0
  3
ISO double-dash dot __ __ . __ __ . __ __ . __ _
 72
65
 73
6
 40
33.0
 49
12.0
 74
0
 49
-3.0
 74
0
 49
12.0
 74
0
 49
-2.9500000000000002
 74
0
 49
0.1
 74
0
 49
-2.9500000000000002
 74
0
  0
LTYPE
  5
5B
100
AcDbSymbolTableRecord
100
AcDbLinetypeTableRecord
  2
DRAINAGE
 70
0
  3
Drainage ---->---->---->----
 72
65
 73
2
 40
10.16
 49
5.0800000000000001
 74
0
 49
5.0800000000000001
 74
0
  0
LTYPE
  5
5C
100
AcDbSymbolTableRecord
100
AcDbLinetypeTableRecord
  2
DIVIDE
 70
0
  3
Divide ____ . . ____ . . ____ . . ____ . . ____
 72
65
 73
6
 40
31.750000000000004
 49
12.699999999999999
 74
0
 49
-6.2999999999999998
 74
0
 49
0.1
 74
0
 49
-6.25
 74
0
 49
0.1
 74
0
 49
-6.2999999999999998
 74
0
  0
LTYPE
  5
5D
100
AcDbSymbolTableRecord
100
AcDbLinetypeTableRecord
  2
FENCELINE1
 70
0
  3
Fenceline circle ----0-----0----0-----0----0-----0--
 72
65
 73
4
 40
36.829999999999998
 49
6.3499999999999996
 74
0
 49
-2.54
 74
0
 49
-2.54
 74
0
 49
25.399999999999999
 74
0
  0
LTYPE
  5
5E
100
AcDbSymbolTableRecord
100
AcDbLinetypeTableRecord
  2
CENTER2
 70
0
  3
Center (.5x) ___ _ ___ _ ___ _ ___ _ ___ _ ___
 72
65
 73
4
 40
28.575000000000003
 49
19.050000000000001
 74
0
 49
-3.1749999999999998
 74
0
 49
3.1749999999999998
 74
0
 49
-3.1749999999999998
 74
0
  0
LTYPE
  5
5F
100
AcDbSymbolTableRecord
100
AcDbLinetypeTableRecord
  2
DIVIDE2
 70
0
  3
Divide (.5x) __..__..__..__..__..__..__..__.._
 72
65
 73
6
 40
15.874999999999998
 49
6.3499999999999996
 74
0
 49
-3.125
 74
0
 49
0.1
 74
0
 49
-3.0750000000000002
 74
0
 49
0.1
 74
0
 49
-3.125
 74
0
  0
ENDTAB
  0
TABLE
  2
LAYER
  5
2
100
AcDbSymbolTable
 70
2
  0
LAYER
  5
10
100
AcDbSymbolTableRecord
100
AcDbLayerTableRecord
  2
0
 70
0
 62
7
420
16777215
  6
Continuous
370
25
390
F
  0
LAYER
  5
60
100
AcDbSymbolTableRecord
100
AcDbLayerTableRecord
  2
Defpoints
 70
0
 62
7
420
16777215
  6
Continuous
290
0
370
-3
390
F
  0
ENDTAB
  0
TABLE
  2
STYLE
  5
3
100
AcDbSymbolTable
 70
1
  0
STYLE
  5
61
100
AcDbSymbolTableRecord
100
AcDbTextStyleTableRecord
  2
Standard
 70
0
 40
0.0
 41
1.0
 50
0.0
 71
0
 42
2.5
  3

  4

1001
ACAD
1000
txt
1071
0
  0
ENDTAB
  0
TABLE
  2
VIEW
  5
6
100
AcDbSymbolTable
 70
0
  0
ENDTAB
  0
TABLE
  2
UCS
  5
7
100
AcDbSymbolTable
 70
0
  0
ENDTAB
  0
TABLE
  2
APPID
  5
9
100
AcDbSymbolTable
 70
1
  0
APPID
  5
12
100
AcDbSymbolTableRecord
100
AcDbRegAppTableRecord
  2
ACAD
 70
0
  0
APPID
  5
62
100
AcDbSymbolTableRecord
100
AcDbRegAppTableRecord
  2
QCAD
 70
0
  0
ENDTAB
  0
TABLE
  2
DIMSTYLE
  5
A
100
AcDbSymbolTable
 70
1
100
AcDbDimStyleTable
 71
0
  0
DIMSTYLE
105
27
100
AcDbSymbolTableRecord
100
AcDbDimStyleTableRecord
  2
Standard
 41
2.5
 42
0.625
 43
3.75
 44
1.25
 70
0
 73
0
 74
0
 77
1
 78
8
140
2.5
141
2.5
143
0.03937007874016
147
0.625
171
3
172
1
271
2
272
2
274
3
278
44
283
0
284
8
340
61
  0
ENDTAB
  0
TABLE
  2
BLOCK_RECORD
  5
1
100
AcDbSymbolTable
 70
1
  0
BLOCK_RECORD
  5
1F
100
AcDbSymbolTableRecord
100
AcDbBlockTableRecord
  2
*Model_Space
340
22
  0
BLOCK_RECORD
  5
1B
100
AcDbSymbolTableRecord
100
AcDbBlockTableRecord
  2
*Paper_Space
340
1E
  0
BLOCK_RECORD
  5
23
100
AcDbSymbolTableRecord
100
AcDbBlockTableRecord
  2
*Paper_Space0
340
26
  0
BLOCK_RECORD
  5
63
100
AcDbSymbolTableRecord
100
AcDbBlockTableRecord
  2
p3
340
0
  0
BLOCK_RECORD
  5
64
100
AcDbSymbolTableRecord
100
AcDbBlockTableRecord
  2
frame_left
340
0
  0
BLOCK_RECORD
  5
65
100
AcDbSymbolTableRecord
100
AcDbBlockTableRecord
  2
p1
340
0
  0
BLOCK_RECORD
  5
66
100
AcDbSymbolTableRecord
100
AcDbBlockTableRecord
  2
inner_tray_top
340
0
  0
BLOCK_RECORD
  5
67
100
AcDbSymbolTableRecord
100
AcDbBlockTableRecord
  2
frame_foot1
340
0
  0
BLOCK_RECORD
  5
68
100
AcDbSymbolTableRecord
100
AcDbBlockTableRecord
  2
drawer_left
340
0
  0
BLOCK_RECORD
  5
69
100
AcDbSymbolTableRecord
100
AcDbBlockTableRecord
  2
frame_front
340
0
  0
BLOCK_RECORD
  5
6A
100
AcDbSymbolTableRecord
100
AcDbBlockTableRecord
  2
door
340
0
  0
BLOCK_RECORD
  5
6B
100
AcDbSymbolTableRecord
100
AcDbBlockTableRecord
  2
frame_foot2
340
0
  0
BLOCK_RECORD
  5
6C
100
AcDbSymbolTableRecord
100
AcDbBlockTableRecord
  2
crane
340
0
  0
BLOCK_RECORD
  5
6D
100
AcDbSymbolTableRecord
100
AcDbBlockTableRecord
  2
crane_flap
340
0
  0
BLOCK_RECORD
  5
6E
100
AcDbSymbolTableRecord
100
AcDbBlockTableRecord
  2
carrier_window
340
0
  0
BLOCK_RECORD
  5
6F
100
AcDbSymbolTableRecord
100
AcDbBlockTableRecord
  2
frame_bottom
340
0
  0
BLOCK_RECORD
  5
70
100
AcDbSymbolTableRecord
100
AcDbBlockTableRecord
  2
frame_laser
340
0
  0
BLOCK_RECORD
  5
71
100
AcDbSymbolTableRecord
100
AcDbBlockTableRecord
  2
frame_back
340
0
  0
BLOCK_RECORD
  5
72
100
AcDbSymbolTableRecord
100
AcDbBlockTableRecord
  2
crane_front
340
0
  0
BLOCK_RECORD
  5
73
100
AcDbSymbolTableRecord
100
AcDbBlockTableRecord
  2
drawer_bottom
340
0
  0
BLOCK_RECORD
  5
74
100
AcDbSymbolTableRecord
100
AcDbBlockTableRecord
  2
drawer_back
340
0
  0
BLOCK_RECORD
  5
75
100
AcDbSymbolTableRecord
100
AcDbBlockTableRecord
  2
drawer_support
340
0
  0
BLOCK_RECORD
  5
76
100
AcDbSymbolTableRecord
100
AcDbBlockTableRecord
  2
inner_tray_bottom
340
0
  0
BLOCK_RECORD
  5
77
100
AcDbSymbolTableRecord
100
AcDbBlockTableRecord
  2
frame_galvo
340
0
  0
BLOCK_RECORD
  5
78
100
AcDbSymbolTableRecord
100
AcDbBlockTableRecord
  2
drawer_right
340
0
  0
BLOCK_RECORD
  5
79
100
AcDbSymbolTableRecord
100
AcDbBlockTableRecord
  2
p2
340
0
  0
BLOCK_RECORD
  5
7A
100
AcDbSymbolTableRecord
100
AcDbBlockTableRecord
  2
inner_tray_clear
340
0
  0
BLOCK_RECORD
  5
7B
100
AcDbSymbolTableRecord
100
AcDbBlockTableRecord
  2
carrier
340
0
  0
BLOCK_RECORD
  5
7C
100
AcDbSymbolTableRecord
100
AcDbBlockTableRecord
  2
frame_top
340
0
  0
BLOCK_RECORD
  5
7D
100
AcDbSymbolTableRecord
100
AcDbBlockTableRecord
  2
inner_tray_wall
340
0
  0
ENDTAB
  0
ENDSEC
  0
SECTION
  2
BLOCKS
  0
BLOCK
  5
20
100
AcDbEntity
  8
0
100
AcDbBlockBegin
  2
*Model_Space
 70
0
 10
0.0
 20
0.0
 30
0.0
  3
*Model_Space
  1

  0
ENDBLK
  5
21
100
AcDbEntity
  8
0
100
AcDbBlockEnd
  0
BLOCK
  5
1C
100
AcDbEntity
 67
1
  8
0
100
AcDbBlockBegin
  2
*Paper_Space
 70
0
 10
0.0
 20
0.0
 30
0.0
  3
*Paper_Space
  1

  0
ENDBLK
  5
1D
100
AcDbEntity
 67
1
  8
0
100
AcDbBlockEnd
  0
BLOCK
  5
24
100
AcDbEntity
  8
0
100
AcDbBlockBegin
  2
*Paper_Space0
 70
0
 10
0.0
 20
0.0
 30
0.0
  3
*Paper_Space0
  1

  0
ENDBLK
  5
25
100
AcDbEntity
  8
0
100
AcDbBlockEnd
  0
BLOCK
  5
7E
100
AcDbEntity
  8
0
100
AcDbBlockBegin
  2
p3
 70
0
 10
0.0
 20
0.0
 30
0.0
  3
p3
  1

  0
LINE
  5
7F
100
AcDbEntity
  8
0
 62
256
370
-1
 48
1.0
  6
ByLayer
100
AcDbLine
 10
0.0
 20
0.0
 30
0.0
 11
790.0
 21
0.0
 31
0.0
  0
LINE
  5
80
100
AcDbEntity
  8
0
 62
256
370
-1
 48
1.0
  6
ByLayer
100
AcDbLine
 10
790.0
 20
0.0
 30
0.0
 11
790.0
 21
-384.0
 31
0.0
  0
LINE
  5
81
100
AcDbEntity
  8
0
 62
256
370
-1
 48
1.0
  6
ByLayer
100
AcDbLine
 10
790.0
 20
-384.0
 30
0.0
 11
0.0
 21
-384.0
 31
0.0
  0
LINE
  5
82
100
AcDbEntity
  8
0
 62
256
370
-1
 48
1.0
  6
ByLayer
100
AcDbLine
 10
0.0
 20
-384.0
 30
0.0
 11
0.0
 21
0.0
 31
0.0
  0
ENDBLK
  5
83
100
AcDbEntity
  8
0
100
AcDbBlockEnd
  0
BLOCK
  5
84
100
AcDbEntity
  8
0
100
AcDbBlockBegin
  2
frame_left
 70
0
 10
0.0
 20
0.0
 30
0.0
  3
frame_left
  1

  0
LWPOLYLINE
  5
85
100
AcDbEntity
  8
0
 62
256
370
-1
 48
1.0
  6
ByLayer
100
AcDbPolyline
 90
4
 70
1
 10
52.346666666666579
 20
224.99999999999997
 10
29.53333333333326
 20
224.99999999999994
 10
29.533333333333253
 20
231.71999999999997
 10
52.346666666666579
 20
231.71999999999997
  0
LWPOLYLINE
  5
86
100
AcDbEntity
  8
0
 62
256
370
-1
 48
1.0
  6
ByLayer
100
AcDbPolyline
 90
84
 70
1
 10
11.499999999999858
 20
243.17499999999993
 10
6.7199999999998568
 20
243.17499999999993
 10
6.7199999999998852
 20
224.99999999999994
 10
-0.0000000000002132
 20
224.99999999999991
 10
0.0
 20
0.0
 10
6.7199999999998852
 20
0.0
 10
6.7199999999998852
 20
6.7199999999999989
 10
29.533333333333218
 20
6.7199999999999989
 10
29.533333333333232
 20
0.0
 10
52.34666666666655
 20
0.0
 10
52.34666666666655
 20
6.7199999999999989
 10
75.159999999999883
 20
6.7199999999999989
 10
75.159999999999883
 20
0.0
 10
81.879999999999967
 20
0.0
 10
81.879999999999811
 20
225.0
 10
75.159999999999954
 20
225.0
 10
75.15999999999994
 20
243.17499999999998
 10
70.379999999999939
 20
243.17499999999998
 10
70.379999999999939
 20
242.14999999999998
 42
-2.4142135623730789
 10
70.129999999999939
 20
241.89999999999998
 10
68.129999999999939
 20
241.89999999999998
 42
-2.414213562373094
 10
67.879999999999939
 20
242.14999999999998
 10
67.879999999999939
 20
243.17499999999998
 10
66.879999999999939
 20
243.17499999999998
 10
66.879999999999939
 20
246.32499999999999
 10
67.879999999999939
 20
246.32499999999999
 10
67.879999999999939
 20
247.34999999999997
 42
-2.414213562373094
 10
68.129999999999939
 20
247.59999999999997
 10
70.129999999999939
 20
247.59999999999997
 42
-2.414213562373094
 10
70.379999999999939
 20
247.34999999999997
 10
70.379999999999939
 20
246.32499999999999
 10
75.15999999999994
 20
246.32499999999999
 10
75.15999999999994
 20
498.67499999999978
 10
70.379999999999939
 20
498.67499999999978
 10
70.379999999999939
 20
497.64999999999981
 42
-2.414213562373094
 10
70.129999999999939
 20
497.39999999999981
 10
68.129999999999939
 20
497.39999999999981
 42
-2.414213562373094
 10
67.879999999999939
 20
497.64999999999981
 10
67.879999999999939
 20
498.67499999999978
 10
66.879999999999939
 20
498.67499999999978
 10
66.879999999999939
 20
501.82499999999976
 10
67.879999999999939
 20
501.82499999999976
 10
67.879999999999939
 20
502.84999999999974
 42
-2.414213562373094
 10
68.129999999999939
 20
503.09999999999997
 10
70.129999999999939
 20
503.09999999999997
 42
-2.414213562373094
 10
70.379999999999939
 20
502.84999999999974
 10
70.379999999999939
 20
501.82499999999976
 10
75.15999999999994
 20
501.82499999999976
 10
75.15999999999994
 20
513.27999999999997
 10
52.346666666666664
 20
513.27999999999997
 10
52.346666666666664
 20
519.99999999999977
 10
29.533333333333339
 20
520.0
 10
29.533333333333353
 20
513.27999999999997
 10
6.7199999999999704
 20
513.27999999999997
 10
6.7199999999993167
 20
501.82499999999976
 10
11.499999999999318
 20
501.82499999999976
 10
11.499999999999318
 20
502.84999999999974
 42
-2.414213562373094
 10
11.749999999999332
 20
503.09999999999974
 10
13.749999999999332
 20
503.09999999999974
 42
-2.414213562373094
 10
13.999999999999339
 20
502.84999999999974
 10
13.999999999999339
 20
501.82499999999976
 10
14.999999999999332
 20
501.82499999999976
 10
14.999999999999332
 20
498.67499999999967
 10
13.999999999999339
 20
498.67499999999967
 10
13.999999999999339
 20
497.64999999999969
 42
-2.414213562373094
 10
13.749999999999318
 20
497.39999999999981
 10
11.749999999999332
 20
497.39999999999981
 42
-2.414213562373094
 10
11.499999999999339
 20
497.64999999999969
 10
11.499999999999339
 20
498.67499999999967
 10
6.719999999999331
 20
498.67499999999967
 10
6.7199999999998425
 20
246.32499999999993
 10
11.499999999999858
 20
246.32499999999993
 10
11.499999999999858
 20
247.34999999999991
 42
-2.414213562373094
 10
11.749999999999858
 20
247.59999999999991
 10
13.749999999999858
 20
247.59999999999991
 42
-2.414213562373094
 10
13.999999999999858
 20
247.34999999999991
 10
13.999999999999858
 20
246.32499999999993
 10
14.999999999999858
 20
246.32499999999993
 10
14.999999999999858
 20
243.17499999999993
 10
13.999999999999858
 20
243.17499999999993
 10
13.999999999999858
 20
242.14999999999992
 42
-2.414213562373094
 10
13.749999999999858
 20
241.89999999999992
 10
11.749999999999858
 20
241.89999999999992
 42
-2.41421356237311
 10
11.499999999999858
 20
242.14999999999992
  0
CIRCLE
  5
87
100
AcDbEntity
  8
0
 62
256
370
-1
 48
1.0
  6
ByLayer
100
AcDbCircle
 10
40.939999999999927
 20
516.63999999999987
 30
0.0
 40
1.574999999999988
  0
CIRCLE
  5
88
100
AcDbEntity
  8
0
 62
256
370
-1
 48
1.0
  6
ByLayer
100
AcDbCircle
 10
40.939999999999877
 20
3.3599999999999
 30
0.0
 40
1.5749999999999931
  0
ENDBLK
  5
89
100
AcDbEntity
  8
0
100
AcDbBlockEnd
  0
BLOCK
  5
8A
100
AcDbEntity
  8
0
100
AcDbBlockBegin
  2
p1
 70
0
 10
0.0
 20
0.0
 30
0.0
  3
p1
  1

  0
LINE
  5
8B
100
AcDbEntity
  8
0
 62
256
370
-1
 48
1.0
  6
ByLayer
100
AcDbLine
 10
0.0
 20
-181.0
 30
0.0
 11
181.0
 21
-181.0
 31
0.0
  0
LINE
  5
8C
100
AcDbEntity
  8
0
 62
256
370
-1
 48
1.0
  6
ByLayer
100
AcDbLine
 10
181.0
 20
-181.0
 30
0.0
 11
181.0
 21
0.0
 31
0.0
  0
LINE
  5
8D
100
AcDbEntity
  8
0
 62
256
370
-1
 48
1.0
  6
ByLayer
100
AcDbLine
 10
181.0
 20
0.0
 30
0.0
 11
0.0
 21
0.0
 31
0.0
  0
LINE
  5
8E
100
AcDbEntity
  8
0
 62
256
370
-1
 48
1.0
  6
ByLayer
100
AcDbLine
 10
0.0
 20
0.0
 30
0.0
 11
0.0
 21
-181.0
 31
0.0
  0
ENDBLK
  5
8F
100
AcDbEntity
  8
0
100
AcDbBlockEnd
  0
BLOCK
  5
90
100
AcDbEntity
  8
0
100
AcDbBlockBegin
  2
inner_tray_top
 70
0
 10
0.0
 20
0.0
 30
0.0
  3
inner_tray_top
  1

  0
LWPOLYLINE
  5
91
100
AcDbEntity
  8
0
 62
256
370
-1
 48
1.0
  6
ByLayer
100
AcDbPolyline
 90
16
 70
1
 10
75.5
 20
88.5
 42
0.4142135623730951
 10
73.5
 20
90.5
 10
-22.649999999999977
 20
90.5
 10
-22.650000000000091
 20
87.349999999999994
 10
-52.850000000000023
 20
87.349999999999966
 10
-52.850000000000023
 20
90.499999999999972
 10
-73.5
 20
90.5
 42
0.4142135623730951
 10
-75.5
 20
88.500000000000028
 10
-75.5
 20
-88.5
 42
0.4142135623730951
 10
-73.5
 20
-90.5
 10
22.649999999999977
 20
-90.5
 10
22.650000000000091
 20
-87.350000000000023
 10
52.850000000000023
 20
-87.349999999999966
 10
52.850000000000023
 20
-90.5
 10
73.5
 20
-90.5
 42
0.4142135623730951
 10
75.5
 20
-88.5
  0
LWPOLYLINE
  5
92
100
AcDbEntity
  8
0
 62
256
370
-1
 48
1.0
  6
ByLayer
100
AcDbPolyline
 90
8
 70
1
 10
-67.5
 20
-43.5
 10
-67.5
 20
43.499999999999972
 42
-0.4142135623730951
 10
-43.5
 20
67.5
 10
43.5
 20
67.5
 42
-0.4142135623730951
 10
67.5
 20
43.5
 10
67.5
 20
-43.5
 42
-0.4142135623730951
 10
43.5
 20
-67.5
 10
-43.5
 20
-67.5
 42
-0.4142135623730951
  0
CIRCLE
  5
93
100
AcDbEntity
  8
0
 62
256
370
-1
 48
1.0
  6
ByLayer
100
AcDbCircle
 10
-68.0
 20
67.999999999999972
 30
0.0
 40
2.6249999999999991
  0
CIRCLE
  5
94
100
AcDbEntity
  8
0
 62
256
370
-1
 48
1.0
  6
ByLayer
100
AcDbCircle
 10
0.0
 20
-83.0
 30
0.0
 40
2.6249999999999951
  0
CIRCLE
  5
95
100
AcDbEntity
  8
0
 62
256
370
-1
 48
1.0
  6
ByLayer
100
AcDbCircle
 10
68.000000000000114
 20
-67.999999999999943
 30
0.0
 40
2.6249999999999991
  0
CIRCLE
  5
96
100
AcDbEntity
  8
0
 62
256
370
-1
 48
1.0
  6
ByLayer
100
AcDbCircle
 10
-68.0
 20
-68.0
 30
0.0
 40
2.6249999999999991
  0
CIRCLE
  5
97
100
AcDbEntity
  8
0
 62
256
370
-1
 48
1.0
  6
ByLayer
100
AcDbCircle
 10
68.0
 20
68.0
 30
0.0
 40
2.6249999999999991
  0
CIRCLE
  5
98
100
AcDbEntity
  8
0
 62
256
370
-1
 48
1.0
  6
ByLayer
100
AcDbCircle
 10
0.0
 20
83.0
 30
0.0
 40
2.6249999999999951
  0
ENDBLK
  5
99
100
AcDbEntity
  8
0
100
AcDbBlockEnd
  0
BLOCK
  5
9A
100
AcDbEntity
  8
0
100
AcDbBlockBegin
  2
frame_foot1
 70
0
 10
0.0
 20
0.0
 30
0.0
  3
frame_foot1
  1

  0
LWPOLYLINE
  5
9B
100
AcDbEntity
  8
0
 62
256
370
-1
 48
1.0
  6
ByLayer
100
AcDbPolyline
 90
64
 70
1
 10
-105.12000000000005
 20
-40.779999999999461
 42
0.4142135623731003
 10
-103.12000000000005
 20
-42.77999999999949
 10
-95.288333333333384
 20
-42.77999999999949
 10
-95.28833333333337
 20
-37.999999999999467
 10
-96.313333333333361
 20
-37.999999999999467
 42
-2.414213562373094
 10
-96.563333333333347
 20
-37.749999999999467
 10
-96.563333333333347
 20
-35.74999999999946
 42
-2.414213562373094
 10
-96.313333333333347
 20
-35.499999999999467
 10
-95.288333333333355
 20
-35.499999999999467
 10
-95.288333333333355
 20
-34.499999999999488
 10
-92.13833333333335
 20
-34.499999999999524
 10
-92.13833333333335
 20
-35.499999999999496
 10
-91.113333333333344
 20
-35.499999999999496
 42
-2.414213562373094
 10
-90.863333333333344
 20
-35.74999999999951
 10
-90.863333333333344
 20
-37.749999999999524
 42
-2.414213562373094
 10
-91.113333333333344
 20
-37.99999999999951
 10
-92.138333333333364
 20
-37.99999999999951
 10
-92.138333333333392
 20
-42.779999999999518
 10
-82.306666666666729
 20
-42.779999999999561
 10
-82.306666666666743
 20
-49.499999999999595
 10
-59.493333333333425
 20
-49.499999999999666
 10
-59.493333333333382
 20
-42.779999999999625
 10
-49.661666666667003
 20
-42.77999999999966
 10
-49.661666666666989
 20
-37.999999999999652
 10
-50.686666666666994
 20
-37.999999999999652
 42
-2.414213562373094
 10
-50.936666666666994
 20
-37.749999999999652
 10
-50.93666666666698
 20
-35.749999999999631
 42
-2.414213562373094
 10
-50.68666666666698
 20
-35.499999999999652
 10
-49.661666666666974
 20
-35.499999999999652
 10
-49.661666666666974
 20
-34.499999999999666
 10
-46.511666666666969
 20
-34.499999999999694
 10
-46.511666666666969
 20
-35.49999999999968
 10
-45.486666666666977
 20
-35.49999999999968
 42
-2.414213562373094
 10
-45.236666666666977
 20
-35.74999999999968
 10
-45.236666666666977
 20
-37.749999999999694
 42
-2.414213562373094
 10
-45.486666666666991
 20
-37.99999999999968
 10
-46.511666666666983
 20
-37.99999999999968
 10
-46.511666666666997
 20
-42.779999999999696
 10
-38.680000000000049
 20
-42.779999999999696
 42
0.4142135623730898
 10
-36.680000000000049
 20
-40.779999999999738
 10
-36.680000000000021
 20
-36.059999999999725
 10
-29.960000000000026
 20
-36.059999999999725
 10
-29.96000000000009
 20
-55.499999999999929
 10
26.319999999999798
 20
-55.499999999999929
 10
26.319999999999812
 20
-31.220000000000027
 10
-13.44000000000019
 20
-31.21999999999985
 10
-13.440000000000161
 20
-24.499999999999847
 10
-6.7200000000001481
 20
-24.499999999999847
 10
-0.0000000000001279
 20
-23.912076181105629
 10
0.0
 20
0.0
 10
-49.399999999999892
 20
0.0000000000002132
 10
-49.399999999999906
 20
-4.2799999999996885
 10
-92.399999999999892
 20
-4.2799999999995464
 10
-92.399999999999892
 20
0.0000000000003624
 10
-141.7999999999997
 20
0.0000000000006111
 10
-141.79999999999981
 20
-23.912076181105018
 10
-135.07999999999979
 20
-24.499999999999307
 10
-128.35999999999981
 20
-24.499999999999378
 10
-128.35999999999981
 20
-31.219999999999388
 10
-168.11999999999981
 20
-31.219999999999281
 10
-168.1200000000002
 20
-55.499999999999822
 10
-111.84000000000009
 20
-55.499999999999893
 10
-111.84
 20
-36.059999999999448
 10
-105.12000000000002
 20
-36.059999999999448
  0
CIRCLE
  5
9C
100
AcDbEntity
  8
0
 62
256
370
-1
 48
1.0
  6
ByLayer
100
AcDbCircle
 10
-19.959999999999919
 20
-6.4999999999997371
 30
0.0
 40
1.9999999999999989
  0
CIRCLE
  5
9D
100
AcDbEntity
  8
0
 62
256
370
-1
 48
1.0
  6
ByLayer
100
AcDbCircle
 10
-121.83999999999989
 20
-6.4999999999993463
 30
0.0
 40
1.9999999999999989
  0
CIRCLE
  5
9E
100
AcDbEntity
  8
0
 62
256
370
-1
 48
1.0
  6
ByLayer
100
AcDbCircle
 10
-70.899999999999977
 20
-21.999999999999702
 30
0.0
 40
12.5
  0
ENDBLK
  5
9F
100
AcDbEntity
  8
0
100
AcDbBlockEnd
  0
BLOCK
  5
A0
100
AcDbEntity
  8
0
100
AcDbBlockBegin
  2
drawer_left
 70
0
 10
0.0
 20
0.0
 30
0.0
  3
drawer_left
  1

  0
LWPOLYLINE
  5
A1
100
AcDbEntity
  8
0
 62
256
370
-1
 48
1.0
  6
ByLayer
100
AcDbPolyline
 90
4
 70
1
 10
-21.719999999999992
 20
97.765000000000043
 10
-6.7200000000000006
 20
97.765000000000043
 10
-6.7200000000000095
 20
84.875000000000057
 10
-21.72000000000001
 20
84.875000000000057
  0
LWPOLYLINE
  5
A2
100
AcDbEntity
  8
0
 62
256
370
-1
 48
1.0
  6
ByLayer
100
AcDbPolyline
 90
4
 70
1
 10
-6.7199999999999829
 20
114.08500000000001
 10
-26.719999999999992
 20
114.08500000000001
 10
-26.719999999999992
 20
129.51499999999999
 10
-6.7199999999999882
 20
129.51499999999999
  0
LWPOLYLINE
  5
A3
100
AcDbEntity
  8
0
 62
256
370
-1
 48
1.0
  6
ByLayer
100
AcDbPolyline
 90
4
 70
1
 10
-6.7200000000005122
 20
155.03999999999999
 10
-6.7200000000005069
 20
140.03999999999999
 10
-13.44000000000052
 20
140.03999999999999
 10
-13.440000000000509
 20
155.03999999999999
  0
LWPOLYLINE
  5
A4
100
AcDbEntity
  8
0
 62
256
370
-1
 48
1.0
  6
ByLayer
100
AcDbPolyline
 90
8
 70
1
 10
0.0
 20
206.52000000000001
 10
-56.279999999999959
 20
206.52000000000001
 10
-56.28000000000003
 20
0.0
 10
-39.760000000000019
 20
0.0000000000000124
 10
-39.760000000000019
 20
6.7200000000000095
 10
-23.24000000000002
 20
6.7199999999999989
 10
-23.24000000000003
 20
0.0000000000000071
 10
0.0
 20
0.0
  0
CIRCLE
  5
A5
100
AcDbEntity
  8
0
 62
256
370
-1
 48
1.0
  6
ByLayer
100
AcDbCircle
 10
-46.280000000000008
 20
24.720000000000027
 30
0.0
 40
1.575
  0
CIRCLE
  5
A6
100
AcDbEntity
  8
0
 62
256
370
-1
 48
1.0
  6
ByLayer
100
AcDbCircle
 10
-12.390000000000001
 20
3.360000000000003
 30
0.0
 40
1.575
  0
CIRCLE
  5
A7
100
AcDbEntity
  8
0
 62
256
370
-1
 48
1.0
  6
ByLayer
100
AcDbCircle
 10
-10.7200000000005
 20
162.53999999999999
 30
0.0
 40
1.5750000000000111
  0
ENDBLK
  5
A8
100
AcDbEntity
  8
0
100
AcDbBlockEnd
  0
BLOCK
  5
A9
100
AcDbEntity
  8
0
100
AcDbBlockBegin
  2
frame_front
 70
0
 10
0.0
 20
0.0
 30
0.0
  3
frame_front
  1

  0
LWPOLYLINE
  5
AA
100
AcDbEntity
  8
0
 62
256
370
-1
 48
1.0
  6
ByLayer
100
AcDbPolyline
 90
8
 70
1
 10
50.219999999999999
 20
-494.00000000000011
 10
50.219999999999999
 20
-491.21999999999991
 42
-0.4142135623730951
 10
56.939999999999998
 20
-484.49999999999989
 10
69.5
 20
-484.49999999999989
 42
-0.4142135623730951
 10
76.219999999999999
 20
-491.21999999999991
 10
76.219999999999999
 20
-494.00000000000011
 42
-0.4142135623730951
 10
69.5
 20
-500.72000000000014
 10
56.939999999999998
 20
-500.72000000000014
 42
-0.4142135623730951
  0
LWPOLYLINE
  5
AB
100
AcDbEntity
  8
0
 62
256
370
-1
 48
1.0
  6
ByLayer
100
AcDbPolyline
 90
8
 70
1
 10
183.7800000000002
 20
-494.0
 10
183.7800000000002
 20
-491.21999999999991
 42
-0.4142135623730951
 10
190.5000000000002
 20
-484.49999999999989
 10
203.06000000000017
 20
-484.49999999999989
 42
-0.4142135623730951
 10
209.7800000000002
 20
-491.21999999999991
 10
209.7800000000002
 20
-494.0
 42
-0.4142135623730951
 10
203.0600000000002
 20
-500.72000000000014
 10
190.5000000000002
 20
-500.72000000000014
 42
-0.4142135623730951
  0
LWPOLYLINE
  5
AC
100
AcDbEntity
  8
0
 62
256
370
-1
 48
1.0
  6
ByLayer
100
AcDbPolyline
 90
16
 70
1
 10
253.27999999999992
 20
-520.0
 10
253.27999999999997
 20
-295.0
 10
260.0
 20
-295.0
 10
260.0
 20
0.0
 10
173.33333333333314
 20
0.0
 10
173.33333333333314
 20
-6.7200000000000841
 10
86.666666666666487
 20
-6.7200000000000841
 10
86.666666666666487
 20
0.0
 10
0.0
 20
0.0
 10
0.0
 20
-295.0
 10
6.7199999999999989
 20
-295.0
 10
6.7200000000000983
 20
-520.0
 10
86.666666666666771
 20
-520.0
 10
86.666666666666771
 20
-513.27999999999997
 10
173.33333333333343
 20
-513.27999999999997
 10
173.33333333333343
 20
-520.0
  0
LWPOLYLINE
  5
AD
100
AcDbEntity
  8
0
 62
256
370
-1
 48
1.0
  6
ByLayer
100
AcDbPolyline
 90
45
 70
1
 10
186.22000000000008
 20
-480.49999999999989
 42
0.4142135623730951
 10
179.50000000000011
 20
-487.21999999999991
 10
179.50000000000011
 20
-499.84000000000003
 10
80.500000000000085
 20
-499.84000000000003
 10
80.500000000000057
 20
-441.77999999999997
 10
64.935000000000016
 20
-441.77999999999997
 10
64.935000000000016
 20
-446.56
 10
65.960000000000022
 20
-446.56
 42
-2.414213562373094
 10
66.210000000000036
 20
-446.81
 10
66.210000000000036
 20
-448.81
 42
-2.414213562373094
 10
65.960000000000022
 20
-449.06
 10
64.935000000000031
 20
-449.06
 10
64.935000000000031
 20
-450.06
 10
61.785000000000025
 20
-450.06
 10
61.785000000000025
 20
-449.06
 10
60.760000000000019
 20
-449.06
 42
-2.414213562373094
 10
60.510000000000019
 20
-448.81
 10
60.510000000000019
 20
-446.81
 42
-2.414213562373094
 10
60.760000000000019
 20
-446.56
 10
61.785000000000025
 20
-446.56
 10
61.785000000000025
 20
-441.77999999999997
 10
46.219999999999999
 20
-441.77999999999997
 10
46.219999999999999
 20
-506.56
 10
39.5
 20
-506.56
 10
39.5
 20
-295.0
 10
32.779999999999987
 20
-295.0
 10
32.779999999999987
 20
-288.27999999999997
 10
39.5
 20
-288.27999999999997
 10
39.5
 20
-153.28000000000009
 10
36.349999999999994
 20
-153.28000000000009
 10
36.349999999999994
 20
-103.28000000000009
 10
39.5
 20
-103.28
 10
39.5
 20
-39.5
 10
220.5
 20
-39.5
 10
220.5
 20
-103.28
 10
223.65000000000001
 20
-103.28000000000009
 10
223.65000000000001
 20
-153.28000000000009
 10
220.5
 20
-153.28000000000009
 10
220.5
 20
-288.27999999999997
 10
227.22000000000003
 20
-288.27999999999997
 10
227.22000000000003
 20
-295.0
 10
220.5
 20
-295.0
 10
220.5
 20
-506.56
 10
213.78
 20
-506.56
 10
213.78
 20
-480.5
  0
CIRCLE
  5
AE
100
AcDbEntity
  8
0
 62
256
370
-1
 48
1.0
  6
ByLayer
100
AcDbCircle
 10
233.5
 20
-291.63999999999999
 30
0.0
 40
1.575
  0
CIRCLE
  5
AF
100
AcDbEntity
  8
0
 62
256
370
-1
 48
1.0
  6
ByLayer
100
AcDbCircle
 10
26.5
 20
-291.63999999999999
 30
0.0
 40
1.575
  0
CIRCLE
  5
B0
100
AcDbEntity
  8
0
 62
256
370
-1
 48
1.0
  6
ByLayer
100
AcDbCircle
 10
66.916666666666771
 20
-516.63999999999999
 30
0.0
 40
1.5750000000000159
  0
CIRCLE
  5
B1
100
AcDbEntity
  8
0
 62
256
370
-1
 48
1.0
  6
ByLayer
100
AcDbCircle
 10
66.916666666666487
 20
-3.3600000000000136
 30
0.0
 40
1.575
  0
CIRCLE
  5
B2
100
AcDbEntity
  8
0
 62
256
370
-1
 48
1.0
  6
ByLayer
100
AcDbCircle
 10
3.3599999999999994
 20
-19.75
 30
0.0
 40
1.575
  0
CIRCLE
  5
B3
100
AcDbEntity
  8
0
 62
256
370
-1
 48
1.0
  6
ByLayer
100
AcDbCircle
 10
240.25
 20
-516.63999999999999
 30
0.0
 40
1.574999999999998
  0
CIRCLE
  5
B4
100
AcDbEntity
  8
0
 62
256
370
-1
 48
1.0
  6
ByLayer
100
AcDbCircle
 10
3.3599999999999994
 20
-275.25
 30
0.0
 40
1.574999999999996
  0
CIRCLE
  5
B5
100
AcDbEntity
  8
0
 62
256
370
-1
 48
1.0
  6
ByLayer
100
AcDbCircle
 10
19.75
 20
-3.3600000000000136
 30
0.0
 40
1.574999999999998
  0
CIRCLE
  5
B6
100
AcDbEntity
  8
0
 62
256
370
-1
 48
1.0
  6
ByLayer
100
AcDbCircle
 10
240.25
 20
-3.3600000000000136
 30
0.0
 40
1.574999999999998
  0
CIRCLE
  5
B7
100
AcDbEntity
  8
0
 62
256
370
-1
 48
1.0
  6
ByLayer
100
AcDbCircle
 10
19.75
 20
-516.63999999999999
 30
0.0
 40
1.574999999999998
  0
CIRCLE
  5
B8
100
AcDbEntity
  8
0
 62
256
370
-1
 48
1.0
  6
ByLayer
100
AcDbCircle
 10
256.63999999999999
 20
-275.25
 30
0.0
 40
1.574999999999996
  0
CIRCLE
  5
B9
100
AcDbEntity
  8
0
 62
256
370
-1
 48
1.0
  6
ByLayer
100
AcDbCircle
 10
256.63999999999987
 20
-19.75
 30
0.0
 40
1.575
  0
CIRCLE
  5
BA
100
AcDbEntity
  8
0
 62
256
370
-1
 48
1.0
  6
ByLayer
100
AcDbCircle
 10
193.08333333333348
 20
-3.3600000000000136
 30
0.0
 40
1.575
  0
CIRCLE
  5
BB
100
AcDbEntity
  8
0
 62
256
370
-1
 48
1.0
  6
ByLayer
100
AcDbCircle
 10
193.08333333333326
 20
-516.63999999999999
 30
0.0
 40
1.5750000000000159
  0
ENDBLK
  5
BC
100
AcDbEntity
  8
0
100
AcDbBlockEnd
  0
BLOCK
  5
BD
100
AcDbEntity
  8
0
100
AcDbBlockBegin
  2
door
 70
0
 10
0.0
 20
0.0
 30
0.0
  3
door
  1

  0
LWPOLYLINE
  5
BE
100
AcDbEntity
  8
0
 62
256
370
-1
 48
1.0
  6
ByLayer
100
AcDbPolyline
 90
16
 70
1
 10
0.0
 20
0.0
 10
-197.30000000000007
 20
-0.0000000000000995
 10
-197.30000000000007
 20
-37.500000000000092
 10
-192.30000000000007
 20
-37.500000000000092
 10
-192.29999999999998
 20
-25.000000000000099
 10
-189.14999999999998
 20
-25.000000000000099
 10
-189.14999999999995
 20
-179.12000000000003
 10
-75.499999999999943
 20
-179.12
 10
-75.499999999999943
 20
-199.71999999999997
 10
-46.299999999999919
 20
-199.71999999999997
 10
-46.299999999999926
 20
-179.12
 10
-8.1499999999999346
 20
-179.11999999999998
 10
-8.1500000000000341
 20
-25.0
 10
-5.0000000000000426
 20
-25.0
 10
-4.9999999999999716
 20
-37.499999999999986
 10
0.0000000000000284
 20
-37.499999999999986
  0
ENDBLK
  5
BF
100
AcDbEntity
  8
0
100
AcDbBlockEnd
  0
BLOCK
  5
C0
100
AcDbEntity
  8
0
100
AcDbBlockBegin
  2
frame_foot2
 70
0
 10
0.0
 20
0.0
 30
0.0
  3
frame_foot2
  1

  0
LWPOLYLINE
  5
C1
100
AcDbEntity
  8
0
 62
256
370
-1
 48
1.0
  6
ByLayer
100
AcDbPolyline
 90
64
 70
1
 10
-105.12000000000005
 20
-40.779999999999461
 42
0.4142135623731003
 10
-103.12000000000005
 20
-42.77999999999949
 10
-95.288333333333384
 20
-42.77999999999949
 10
-95.28833333333337
 20
-37.999999999999474
 10
-96.313333333333361
 20
-37.999999999999474
 42
-2.414213562373094
 10
-96.563333333333347
 20
-37.749999999999474
 10
-96.563333333333347
 20
-35.74999999999946
 42
-2.414213562373094
 10
-96.313333333333347
 20
-35.499999999999474
 10
-95.288333333333355
 20
-35.499999999999474
 10
-95.288333333333355
 20
-34.499999999999488
 10
-92.13833333333335
 20
-34.499999999999531
 10
-92.13833333333335
 20
-35.499999999999503
 10
-91.113333333333344
 20
-35.499999999999503
 42
-2.414213562373094
 10
-90.863333333333344
 20
-35.74999999999951
 10
-90.863333333333344
 20
-37.749999999999517
 42
-2.414213562373094
 10
-91.113333333333344
 20
-37.99999999999951
 10
-92.138333333333364
 20
-37.99999999999951
 10
-92.138333333333392
 20
-42.779999999999518
 10
-82.306666666666729
 20
-42.779999999999561
 10
-82.306666666666743
 20
-49.499999999999595
 10
-59.493333333333425
 20
-49.499999999999666
 10
-59.493333333333382
 20
-42.779999999999632
 10
-49.661666666667003
 20
-42.77999999999966
 10
-49.661666666666989
 20
-37.999999999999645
 10
-50.686666666666994
 20
-37.999999999999645
 42
-2.414213562373094
 10
-50.936666666666994
 20
-37.749999999999645
 10
-50.93666666666698
 20
-35.749999999999631
 42
-2.414213562373094
 10
-50.68666666666698
 20
-35.499999999999645
 10
-49.661666666666974
 20
-35.499999999999645
 10
-49.661666666666974
 20
-34.499999999999673
 10
-46.511666666666969
 20
-34.499999999999702
 10
-46.511666666666969
 20
-35.49999999999968
 10
-45.486666666666977
 20
-35.49999999999968
 42
-2.414213562373094
 10
-45.236666666666977
 20
-35.74999999999968
 10
-45.236666666666977
 20
-37.749999999999702
 42
-2.414213562373094
 10
-45.486666666666991
 20
-37.99999999999968
 10
-46.511666666666983
 20
-37.99999999999968
 10
-46.511666666666997
 20
-42.779999999999703
 10
-38.680000000000049
 20
-42.779999999999703
 42
0.4142135623730898
 10
-36.680000000000049
 20
-40.779999999999738
 10
-36.680000000000021
 20
-36.059999999999732
 10
-29.960000000000026
 20
-36.059999999999732
 10
-29.96000000000009
 20
-55.499999999999929
 10
26.319999999999798
 20
-55.499999999999929
 10
26.319999999999812
 20
-31.220000000000027
 10
-13.44000000000019
 20
-31.21999999999985
 10
-13.440000000000161
 20
-24.499999999999844
 10
-6.7200000000001481
 20
-24.499999999999844
 10
-0.0000000000001279
 20
-23.912076181105629
 10
0.0
 20
0.0
 10
-49.399999999999892
 20
0.0000000000002132
 10
-49.399999999999906
 20
-4.2799999999996885
 10
-92.399999999999892
 20
-4.2799999999995464
 10
-92.399999999999892
 20
0.0000000000003624
 10
-141.7999999999997
 20
0.0000000000006111
 10
-141.79999999999981
 20
-23.912076181105018
 10
-135.07999999999979
 20
-24.499999999999304
 10
-128.35999999999981
 20
-24.499999999999375
 10
-128.35999999999981
 20
-31.219999999999388
 10
-168.11999999999981
 20
-31.219999999999274
 10
-168.1200000000002
 20
-55.499999999999822
 10
-111.84000000000009
 20
-55.499999999999893
 10
-111.84
 20
-36.059999999999448
 10
-105.12000000000002
 20
-36.059999999999448
  0
CIRCLE
  5
C2
100
AcDbEntity
  8
0
 62
256
370
-1
 48
1.0
  6
ByLayer
100
AcDbCircle
 10
-19.959999999999919
 20
-6.4999999999997371
 30
0.0
 40
1.9999999999999989
  0
CIRCLE
  5
C3
100
AcDbEntity
  8
0
 62
256
370
-1
 48
1.0
  6
ByLayer
100
AcDbCircle
 10
-121.8399999999999
 20
-6.4999999999993463
 30
0.0
 40
1.9999999999999989
  0
CIRCLE
  5
C4
100
AcDbEntity
  8
0
 62
256
370
-1
 48
1.0
  6
ByLayer
100
AcDbCircle
 10
-70.899999999999977
 20
-21.999999999999702
 30
0.0
 40
12.5
  0
ENDBLK
  5
C5
100
AcDbEntity
  8
0
100
AcDbBlockEnd
  0
BLOCK
  5
C6
100
AcDbEntity
  8
0
100
AcDbBlockBegin
  2
crane
 70
0
 10
0.0
 20
0.0
 30
0.0
  3
crane
  1

  0
LWPOLYLINE
  5
C7
100
AcDbEntity
  8
0
 62
256
370
-1
 48
1.0
  6
ByLayer
100
AcDbPolyline
 90
4
 70
1
 10
-75.529999999999902
 20
53.280000000000037
 10
-75.529999999999902
 20
60.000000000000043
 10
-65.529999999999902
 20
60.000000000000043
 10
-65.529999999999902
 20
53.280000000000037
  0
LWPOLYLINE
  5
C8
100
AcDbEntity
  8
0
 62
256
370
-1
 48
1.0
  6
ByLayer
100
AcDbPolyline
 90
4
 70
1
 10
-169.02999999999986
 20
60.000000000000043
 10
-169.02999999999992
 20
53.280000000000051
 10
-179.02999999999992
 20
53.280000000000065
 10
-179.02999999999992
 20
60.000000000000071
  0
LWPOLYLINE
  5
C9
100
AcDbEntity
  8
0
 62
256
370
-1
 48
1.0
  6
ByLayer
100
AcDbPolyline
 90
4
 70
1
 10
-75.529999999999902
 20
-0.0000000000000178
 10
-75.529999999999902
 20
6.7199999999999811
 10
-65.529999999999902
 20
6.7199999999999811
 10
-65.529999999999902
 20
-0.0000000000000178
  0
LWPOLYLINE
  5
CA
100
AcDbEntity
  8
0
 62
256
370
-1
 48
1.0
  6
ByLayer
100
AcDbPolyline
 90
4
 70
1
 10
-169.02999999999992
 20
6.7200000000000024
 10
-169.02999999999992
 20
0.0
 10
-179.02999999999992
 20
0.0
 10
-179.02999999999992
 20
6.7200000000000131
  0
LWPOLYLINE
  5
CB
100
AcDbEntity
  8
0
 62
256
370
-1
 48
1.0
  6
ByLayer
100
AcDbPolyline
 90
12
 70
1
 10
-33.77999999999993
 20
59.999999999999986
 10
-33.77999999999993
 20
70.000000000000014
 10
-210.77999999999997
 20
70.000000000000043
 10
-210.77999999999992
 20
60.000000000000043
 10
-244.55999999999989
 20
60.000000000000071
 10
-244.55999999999989
 20
0.0000000000000213
 10
-210.77999999999997
 20
0.0000000000000213
 10
-210.77999999999997
 20
-9.9999999999999787
 10
-33.77999999999993
 20
-9.9999999999999858
 10
-33.779999999999916
 20
0.0
 10
0.0
 20
0.0
 10
0.0
 20
59.999999999999986
  0
CIRCLE
  5
CC
100
AcDbEntity
  8
0
 62
256
370
-1
 48
1.0
  6
ByLayer
100
AcDbCircle
 10
-27.265281374238498
 20
38.485281374238625
 30
0.0
 40
2.0
  0
CIRCLE
  5
CD
100
AcDbEntity
  8
0
 62
256
370
-1
 48
1.0
  6
ByLayer
100
AcDbCircle
 10
-10.294718625761405
 20
21.5147186257615
 30
0.0
 40
2.0
  0
CIRCLE
  5
CE
100
AcDbEntity
  8
0
 62
256
370
-1
 48
1.0
  6
ByLayer
100
AcDbCircle
 10
-27.265281374238484
 20
21.514718625761489
 30
0.0
 40
2.0
  0
CIRCLE
  5
CF
100
AcDbEntity
  8
0
 62
256
370
-1
 48
1.0
  6
ByLayer
100
AcDbCircle
 10
-10.294718625761405
 20
38.485281374238646
 30
0.0
 40
2.0
  0
CIRCLE
  5
D0
100
AcDbEntity
  8
0
 62
256
370
-1
 48
1.0
  6
ByLayer
100
AcDbCircle
 10
-18.779999999999902
 20
30.000000000000064
 30
0.0
 40
7.5
  0
CIRCLE
  5
D1
100
AcDbEntity
  8
0
 62
256
370
-1
 48
1.0
  6
ByLayer
100
AcDbCircle
 10
-217.29471862576133
 20
38.485281374238625
 30
0.0
 40
2.0
  0
CIRCLE
  5
D2
100
AcDbEntity
  8
0
 62
256
370
-1
 48
1.0
  6
ByLayer
100
AcDbCircle
 10
-234.26528137423838
 20
21.5147186257615
 30
0.0
 40
2.0
  0
CIRCLE
  5
D3
100
AcDbEntity
  8
0
 62
256
370
-1
 48
1.0
  6
ByLayer
100
AcDbCircle
 10
-217.29471862576133
 20
21.514718625761489
 30
0.0
 40
2.0
  0
CIRCLE
  5
D4
100
AcDbEntity
  8
0
 62
256
370
-1
 48
1.0
  6
ByLayer
100
AcDbCircle
 10
-234.26528137423838
 20
38.485281374238646
 30
0.0
 40
2.0
  0
CIRCLE
  5
D5
100
AcDbEntity
  8
0
 62
256
370
-1
 48
1.0
  6
ByLayer
100
AcDbCircle
 10
-225.77999999999992
 20
30.000000000000064
 30
0.0
 40
7.5
  0
CIRCLE
  5
D6
100
AcDbEntity
  8
0
 62
256
370
-1
 48
1.0
  6
ByLayer
100
AcDbCircle
 10
-122.2799999999999
 20
30.000000000000021
 30
0.0
 40
11.5
  0
CIRCLE
  5
D7
100
AcDbEntity
  8
0
 62
256
370
-1
 48
1.0
  6
ByLayer
100
AcDbCircle
 10
-137.77999999999986
 20
45.500000000000021
 30
0.0
 40
1.6499999999999999
  0
CIRCLE
  5
D8
100
AcDbEntity
  8
0
 62
256
370
-1
 48
1.0
  6
ByLayer
100
AcDbCircle
 10
-137.77999999999992
 20
14.500000000000021
 30
0.0
 40
1.6499999999999999
  0
CIRCLE
  5
D9
100
AcDbEntity
  8
0
 62
256
370
-1
 48
1.0
  6
ByLayer
100
AcDbCircle
 10
-106.7799999999999
 20
14.500000000000021
 30
0.0
 40
1.6499999999999999
  0
CIRCLE
  5
DA
100
AcDbEntity
  8
0
 62
256
370
-1
 48
1.0
  6
ByLayer
100
AcDbCircle
 10
-106.7799999999999
 20
45.500000000000021
 30
0.0
 40
1.6499999999999999
  0
CIRCLE
  5
DB
100
AcDbEntity
  8
0
 62
256
370
-1
 48
1.0
  6
ByLayer
100
AcDbCircle
 10
-87.77999999999993
 20
56.639999999999972
 30
0.0
 40
1.6499999999999999
  0
CIRCLE
  5
DC
100
AcDbEntity
  8
0
 62
256
370
-1
 48
1.0
  6
ByLayer
100
AcDbCircle
 10
-225.77999999999992
 20
56.640000000000029
 30
0.0
 40
1.6499999999999999
  0
CIRCLE
  5
DD
100
AcDbEntity
  8
0
 62
256
370
-1
 48
1.0
  6
ByLayer
100
AcDbCircle
 10
-87.77999999999993
 20
3.359999999999971
 30
0.0
 40
1.6499999999999999
  0
CIRCLE
  5
DE
100
AcDbEntity
  8
0
 62
256
370
-1
 48
1.0
  6
ByLayer
100
AcDbCircle
 10
-225.77999999999992
 20
3.3600000000000101
 30
0.0
 40
1.6499999999999999
  0
CIRCLE
  5
DF
100
AcDbEntity
  8
0
 62
256
370
-1
 48
1.0
  6
ByLayer
100
AcDbCircle
 10
-156.77999999999997
 20
3.3599999999999923
 30
0.0
 40
1.6499999999999999
  0
CIRCLE
  5
E0
100
AcDbEntity
  8
0
 62
256
370
-1
 48
1.0
  6
ByLayer
100
AcDbCircle
 10
-18.780000000000001
 20
3.3599999999999497
 30
0.0
 40
1.6499999999999999
  0
CIRCLE
  5
E1
100
AcDbEntity
  8
0
 62
256
370
-1
 48
1.0
  6
ByLayer
100
AcDbCircle
 10
-156.77999999999997
 20
56.640000000000001
 30
0.0
 40
1.6499999999999999
  0
CIRCLE
  5
E2
100
AcDbEntity
  8
0
 62
256
370
-1
 48
1.0
  6
ByLayer
100
AcDbCircle
 10
-18.780000000000001
 20
56.639999999999972
 30
0.0
 40
1.6499999999999999
  0
CIRCLE
  5
E3
100
AcDbEntity
  8
0
 62
256
370
-1
 48
1.0
  6
ByLayer
100
AcDbCircle
 10
-122.2799999999999
 20
65.000000000000014
 30
0.0
 40
1.9999999999999989
  0
CIRCLE
  5
E4
100
AcDbEntity
  8
0
 62
256
370
-1
 48
1.0
  6
ByLayer
100
AcDbCircle
 10
-122.27999999999993
 20
-4.9999999999999858
 30
0.0
 40
1.9999999999999989
  0
ENDBLK
  5
E5
100
AcDbEntity
  8
0
100
AcDbBlockEnd
  0
BLOCK
  5
E6
100
AcDbEntity
  8
0
100
AcDbBlockBegin
  2
crane_flap
 70
0
 10
0.0
 20
0.0
 30
0.0
  3
crane_flap
  1

  0
LWPOLYLINE
  5
E7
100
AcDbEntity
  8
0
 62
256
370
-1
 48
1.0
  6
ByLayer
100
AcDbPolyline
 90
4
 70
1
 10
-0.0000000000000142
 20
55.350000000000037
 10
-177.00000000000003
 20
55.349999999999994
 10
-177.00000000000003
 20
-0.0000000000000426
 10
0.0
 20
0.0
  0
CIRCLE
  5
E8
100
AcDbEntity
  8
0
 62
256
370
-1
 48
1.0
  6
ByLayer
100
AcDbCircle
 10
-88.500000000000028
 20
50.349999999999987
 30
0.0
 40
1.5749999999999971
  0
ENDBLK
  5
E9
100
AcDbEntity
  8
0
100
AcDbBlockEnd
  0
BLOCK
  5
EA
100
AcDbEntity
  8
0
100
AcDbBlockBegin
  2
carrier_window
 70
0
 10
0.0
 20
0.0
 30
0.0
  3
carrier_window
  1

  0
LWPOLYLINE
  5
EB
100
AcDbEntity
  8
0
 62
256
370
-1
 48
1.0
  6
ByLayer
100
AcDbPolyline
 90
14
 70
1
 10
6.7199999999999847
 20
-0.0000000000000016
 10
6.7200000000000024
 20
-24.999999999999886
 10
9.8699999999999832
 20
-24.99999999999989
 10
9.8699999999999619
 20
-0.0000000000000024
 10
62.999999999999979
 20
-0.0000000000000154
 10
63.000000000000028
 20
-50.000000000000014
 10
56.28000000000003
 20
-50.0
 10
56.279999999999994
 20
-184.99999999999989
 10
31.500000000000004
 20
-184.99999999999989
 10
31.500000000000014
 20
-191.71999999999983
 10
14.980000000000011
 20
-191.71999999999989
 10
14.980000000000018
 20
-184.99999999999989
 10
0.0
 20
-184.99999999999989
 10
0.0
 20
0.0
  0
ENDBLK
  5
EC
100
AcDbEntity
  8
0
100
AcDbBlockEnd
  0
BLOCK
  5
ED
100
AcDbEntity
  8
0
100
AcDbBlockBegin
  2
frame_bottom
 70
0
 10
0.0
 20
0.0
 30
0.0
  3
frame_bottom
  1

  0
LWPOLYLINE
  5
EE
100
AcDbEntity
  8
0
 62
256
370
-1
 48
1.0
  6
ByLayer
100
AcDbPolyline
 90
4
 70
1
 10
-39.5
 20
45.62666666666658
 10
-39.500000000000028
 20
22.813333333333262
 10
-46.220000000000013
 20
22.813333333333262
 10
-46.219999999999999
 20
45.626666666666587
  0
LWPOLYLINE
  5
EF
100
AcDbEntity
  8
0
 62
256
370
-1
 48
1.0
  6
ByLayer
100
AcDbPolyline
 90
4
 70
1
 10
-213.78
 20
45.626666666666665
 10
-213.78
 20
22.813333333333347
 10
-220.5
 20
22.813333333333347
 10
-220.5
 20
45.626666666666665
  0
LWPOLYLINE
  5
F0
100
AcDbEntity
  8
0
 62
256
370
-1
 48
1.0
  6
ByLayer
100
AcDbPolyline
 90
4
 70
1
 10
-114.00000000000001
 20
6.7200000000000273
 10
-114.00000000000001
 20
0.0000000000000142
 10
-146.00000000000003
 20
0.0000000000000142
 10
-146.00000000000003
 20
6.7200000000000273
  0
LWPOLYLINE
  5
F1
100
AcDbEntity
  8
0
 62
256
370
-1
 48
1.0
  6
ByLayer
100
AcDbPolyline
 90
180
 70
1
 10
-6.7199999999999989
 20
32.645000000000039
 10
-11.5
 20
32.645000000000039
 10
-11.5
 20
31.62000000000004
 42
-2.4142135623730909
 10
-11.75
 20
31.370000000000033
 10
-13.75
 20
31.37000000000004
 42
-2.414213562373094
 10
-14.0
 20
31.62000000000004
 10
-14.0
 20
32.645000000000039
 10
-15.0
 20
32.645000000000039
 10
-15.0
 20
35.795000000000037
 10
-14.0
 20
35.795000000000037
 10
-14.0
 20
36.820000000000036
 42
-2.414213562373094
 10
-13.75
 20
37.070000000000036
 10
-11.75
 20
37.070000000000036
 42
-2.414213562373094
 10
-11.5
 20
36.820000000000036
 10
-11.5
 20
35.795000000000037
 10
-6.7199999999999989
 20
35.795000000000037
 10
-6.7199999999999989
 20
45.626666666666729
 10
0.0
 20
45.626666666666736
 10
0.0
 20
68.439999999999998
 10
-18.174999999999997
 20
68.440000000000055
 10
-18.174999999999997
 20
63.660000000000053
 10
-17.150000000000105
 20
63.660000000000053
 42
-2.414213562373094
 10
-16.900000000000006
 20
63.410000000000053
 10
-16.900000000000006
 20
61.410000000000053
 42
-2.414213562373094
 10
-17.150000000000105
 20
61.160000000000053
 10
-18.174999999999997
 20
61.160000000000053
 10
-18.174999999999997
 20
60.160000000000053
 10
-21.325000000000003
 20
60.160000000000053
 10
-21.325000000000003
 20
61.160000000000053
 10
-22.349999999999994
 20
61.160000000000053
 42
-2.414213562373094
 10
-22.600000000000094
 20
61.410000000000053
 10
-22.600000000000094
 20
63.410000000000053
 42
-2.414213562373094
 10
-22.349999999999994
 20
63.660000000000053
 10
-21.325000000000003
 20
63.660000000000053
 10
-21.325000000000003
 20
68.440000000000055
 10
-65.341666666666654
 20
68.440000000000055
 10
-65.341666666666654
 20
63.660000000000053
 10
-64.316666666666649
 20
63.660000000000053
 42
-2.414213562373094
 10
-64.066666666666649
 20
63.410000000000053
 10
-64.066666666666649
 20
61.410000000000053
 42
-2.414213562373094
 10
-64.316666666666649
 20
61.160000000000053
 10
-65.341666666666654
 20
61.160000000000053
 10
-65.341666666666654
 20
60.160000000000053
 10
-68.491666666666632
 20
60.160000000000053
 10
-68.491666666666632
 20
61.160000000000053
 10
-69.516666666666652
 20
61.160000000000053
 42
-2.414213562373094
 10
-69.766666666666652
 20
61.410000000000053
 10
-69.766666666666652
 20
63.410000000000053
 42
-2.414213562373094
 10
-69.516666666666652
 20
63.660000000000053
 10
-68.491666666666632
 20
63.660000000000053
 10
-68.491666666666632
 20
68.440000000000055
 10
-86.666666666666671
 20
68.440000000000026
 10
-86.666666666666671
 20
75.160000000000025
 10
-173.33333333333331
 20
75.160000000000039
 10
-173.33333333333331
 20
68.440000000000055
 10
-191.50833333333338
 20
68.440000000000055
 10
-191.50833333333338
 20
63.660000000000053
 10
-190.48333333333335
 20
63.660000000000053
 42
-2.414213562373094
 10
-190.23333333333335
 20
63.410000000000053
 10
-190.23333333333335
 20
61.410000000000053
 42
-2.414213562373094
 10
-190.48333333333335
 20
61.160000000000053
 10
-191.50833333333338
 20
61.160000000000053
 10
-191.50833333333338
 20
60.160000000000053
 10
-194.65833333333336
 20
60.160000000000053
 10
-194.65833333333336
 20
61.160000000000053
 10
-195.68333333333334
 20
61.160000000000053
 42
-2.414213562373094
 10
-195.93333333333334
 20
61.410000000000053
 10
-195.93333333333334
 20
63.410000000000053
 42
-2.414213562373094
 10
-195.68333333333334
 20
63.660000000000053
 10
-194.65833333333336
 20
63.660000000000053
 10
-194.65833333333336
 20
68.440000000000055
 10
-238.67500000000001
 20
68.440000000000055
 10
-238.67500000000001
 20
63.660000000000053
 10
-237.65000000000001
 20
63.660000000000053
 42
-2.414213562373094
 10
-237.39999999999992
 20
63.410000000000053
 10
-237.39999999999992
 20
61.410000000000053
 42
-2.414213562373094
 10
-237.65000000000001
 20
61.160000000000053
 10
-238.67500000000001
 20
61.160000000000053
 10
-238.67500000000001
 20
60.160000000000053
 10
-241.82499999999999
 20
60.160000000000053
 10
-241.82499999999999
 20
61.160000000000053
 10
-242.84999999999991
 20
61.160000000000053
 42
-2.414213562373094
 10
-243.09999999999999
 20
61.410000000000053
 10
-243.09999999999999
 20
63.410000000000053
 42
-2.414213562373094
 10
-242.84999999999991
 20
63.660000000000053
 10
-241.82499999999999
 20
63.660000000000053
 10
-241.82499999999999
 20
68.440000000000055
 10
-260.0
 20
68.440000000000069
 10
-260.0
 20
45.626666666666729
 10
-253.27999999999997
 20
45.626666666666715
 10
-253.27999999999997
 20
35.795000000000037
 10
-248.5
 20
35.795000000000037
 10
-248.5
 20
36.820000000000036
 42
-2.414213562373094
 10
-248.25
 20
37.070000000000036
 10
-246.25
 20
37.070000000000036
 42
-2.414213562373094
 10
-246.0
 20
36.820000000000036
 10
-246.0
 20
35.795000000000037
 10
-245.0
 20
35.795000000000037
 10
-245.0
 20
32.645000000000039
 10
-246.0
 20
32.645000000000039
 10
-246.0
 20
31.62000000000004
 42
-2.414213562373094
 10
-246.25
 20
31.37000000000004
 10
-248.25
 20
31.370000000000033
 42
-2.4142135623730909
 10
-248.5
 20
31.62000000000004
 10
-248.5
 20
32.645000000000039
 10
-253.27999999999997
 20
32.645000000000039
 10
-253.27999999999997
 20
22.813333333333368
 10
-260.0
 20
22.813333333333368
 10
-260.0
 20
0.0000000000000355
 10
-241.82499999999999
 20
0.0
 10
-241.82499999999999
 20
4.7800000000000082
 10
-242.84999999999991
 20
4.7800000000000082
 42
-2.414213562373094
 10
-243.09999999999999
 20
5.0299999999999976
 10
-243.09999999999999
 20
7.0299999999999976
 42
-2.414213562373094
 10
-242.84999999999991
 20
7.2799999999999976
 10
-241.82499999999999
 20
7.2799999999999976
 10
-241.82499999999999
 20
8.2799999999999976
 10
-238.67500000000001
 20
8.2799999999999976
 10
-238.67500000000001
 20
7.2799999999999976
 10
-237.65000000000001
 20
7.2799999999999976
 42
-2.414213562373094
 10
-237.39999999999992
 20
7.0299999999999976
 10
-237.39999999999992
 20
5.0299999999999976
 42
-2.414213562373094
 10
-237.65000000000001
 20
4.7800000000000082
 10
-238.67500000000001
 20
4.7800000000000082
 10
-238.67500000000001
 20
0.0
 10
-194.65833333333336
 20
0.0
 10
-194.65833333333336
 20
4.7800000000000082
 10
-195.68333333333334
 20
4.7800000000000082
 42
-2.414213562373094
 10
-195.93333333333334
 20
5.0299999999999976
 10
-195.93333333333334
 20
7.0299999999999976
 42
-2.414213562373094
 10
-195.68333333333334
 20
7.2799999999999976
 10
-194.65833333333336
 20
7.2799999999999976
 10
-194.65833333333336
 20
8.2799999999999976
 10
-191.50833333333338
 20
8.2799999999999976
 10
-191.50833333333338
 20
7.2799999999999976
 10
-190.48333333333335
 20
7.2799999999999976
 42
-2.414213562373094
 10
-190.23333333333335
 20
7.0299999999999976
 10
-190.23333333333335
 20
5.0299999999999976
 42
-2.414213562373094
 10
-190.48333333333335
 20
4.7800000000000082
 10
-191.50833333333338
 20
4.7800000000000082
 10
-191.50833333333338
 20
0.0
 10
-173.33333333333331
 20
0.0000000000000284
 10
-173.33333333333331
 20
-6.7199999999999704
 10
-86.666666666666671
 20
-6.7199999999999847
 10
-86.666666666666671
 20
0.0000000000000142
 10
-68.491666666666632
 20
0.0
 10
-68.491666666666632
 20
4.7800000000000082
 10
-69.516666666666652
 20
4.7800000000000082
 42
-2.414213562373094
 10
-69.766666666666652
 20
5.0299999999999976
 10
-69.766666666666652
 20
7.0299999999999976
 42
-2.414213562373094
 10
-69.516666666666652
 20
7.2799999999999976
 10
-68.491666666666632
 20
7.2799999999999976
 10
-68.491666666666632
 20
8.2799999999999976
 10
-65.341666666666654
 20
8.2799999999999976
 10
-65.341666666666654
 20
7.2799999999999976
 10
-64.316666666666649
 20
7.2799999999999976
 42
-2.414213562373094
 10
-64.066666666666649
 20
7.0299999999999976
 10
-64.066666666666649
 20
5.0299999999999976
 42
-2.414213562373094
 10
-64.316666666666649
 20
4.7800000000000082
 10
-65.341666666666654
 20
4.7800000000000082
 10
-65.341666666666654
 20
0.0
 10
-21.325000000000003
 20
0.0
 10
-21.325000000000003
 20
4.7800000000000082
 10
-22.349999999999994
 20
4.7800000000000082
 42
-2.414213562373094
 10
-22.600000000000094
 20
5.0299999999999976
 10
-22.600000000000094
 20
7.0299999999999976
 42
-2.414213562373094
 10
-22.349999999999994
 20
7.2799999999999976
 10
-21.325000000000003
 20
7.2799999999999976
 10
-21.325000000000003
 20
8.2799999999999976
 10
-18.174999999999997
 20
8.2799999999999976
 10
-18.174999999999997
 20
7.2799999999999976
 10
-17.150000000000105
 20
7.2799999999999976
 42
-2.414213562373094
 10
-16.900000000000006
 20
7.0299999999999976
 10
-16.900000000000006
 20
5.0299999999999976
 42
-2.414213562373094
 10
-17.150000000000105
 20
4.7800000000000082
 10
-18.174999999999997
 20
4.7800000000000082
 10
-18.174999999999997
 20
0.0
 10
0.0
 20
0.0
 10
0.0
 20
22.81333333333329
 10
-6.7199999999999989
 20
22.813333333333297
  0
CIRCLE
  5
F2
100
AcDbEntity
  8
0
 62
256
370
-1
 48
1.0
  6
ByLayer
100
AcDbCircle
 10
-42.859999999999957
 20
57.033333333333317
 30
0.0
 40
1.5750000000000011
  0
CIRCLE
  5
F3
100
AcDbEntity
  8
0
 62
256
370
-1
 48
1.0
  6
ByLayer
100
AcDbCircle
 10
-42.859999999999985
 20
11.406666666666656
 30
0.0
 40
1.5750000000000011
  0
CIRCLE
  5
F4
100
AcDbEntity
  8
0
 62
256
370
-1
 48
1.0
  6
ByLayer
100
AcDbCircle
 10
-217.14000000000001
 20
57.03333333333336
 30
0.0
 40
1.5750000000000011
  0
CIRCLE
  5
F5
100
AcDbEntity
  8
0
 62
256
370
-1
 48
1.0
  6
ByLayer
100
AcDbCircle
 10
-217.14000000000001
 20
11.406666666666709
 30
0.0
 40
1.5750000000000011
  0
ENDBLK
  5
F6
100
AcDbEntity
  8
0
100
AcDbBlockEnd
  0
BLOCK
  5
F7
100
AcDbEntity
  8
0
100
AcDbBlockBegin
  2
frame_laser
 70
0
 10
0.0
 20
0.0
 30
0.0
  3
frame_laser
  1

  0
LWPOLYLINE
  5
F8
100
AcDbEntity
  8
0
 62
256
370
-1
 48
1.0
  6
ByLayer
100
AcDbPolyline
 90
4
 70
1
 10
-51.635000000000083
 20
63.939999999999998
 42
-0.9999999999999998
 10
-48.485000000000092
 20
63.939999999999998
 10
-48.48500000000007
 20
17.939999999999991
 42
-0.9999999999999998
 10
-51.635000000000069
 20
17.939999999999991
  0
LWPOLYLINE
  5
F9
100
AcDbEntity
  8
0
 62
256
370
-1
 48
1.0
  6
ByLayer
100
AcDbPolyline
 90
4
 70
1
 10
-11.63500000000009
 20
63.939999999999998
 42
-0.9999999999999998
 10
-8.4850000000000989
 20
63.939999999999998
 10
-8.4850000000000705
 20
17.939999999999991
 42
-0.9999999999999998
 10
-11.635000000000073
 20
17.939999999999991
  0
LWPOLYLINE
  5
FA
100
AcDbEntity
  8
0
 62
256
370
-1
 48
1.0
  6
ByLayer
100
AcDbPolyline
 90
8
 70
1
 10
-34.280000000000065
 20
-0.0000000000000089
 10
0.0
 20
0.0
 10
-0.0000000000000391
 20
81.880000000000024
 10
-34.280000000000101
 20
81.880000000000024
 10
-34.280000000000101
 20
75.159999999999997
 10
-67.060000000000088
 20
75.159999999999997
 10
-67.060000000000059
 20
6.71999999999999
 10
-34.280000000000065
 20
6.7200000000000006
  0
CIRCLE
  5
FB
100
AcDbEntity
  8
0
 62
256
370
-1
 48
1.0
  6
ByLayer
100
AcDbCircle
 10
-17.140000000000068
 20
78.52000000000001
 30
0.0
 40
1.5749999999999971
  0
CIRCLE
  5
FC
100
AcDbEntity
  8
0
 62
256
370
-1
 48
1.0
  6
ByLayer
100
AcDbCircle
 10
-17.140000000000068
 20
3.3599999999999728
 30
0.0
 40
1.5749999999999971
  0
ENDBLK
  5
FD
100
AcDbEntity
  8
0
100
AcDbBlockEnd
  0
BLOCK
  5
FE
100
AcDbEntity
  8
0
100
AcDbBlockBegin
  2
frame_back
 70
0
 10
0.0
 20
0.0
 30
0.0
  3
frame_back
  1

  0
LWPOLYLINE
  5
FF
100
AcDbEntity
  8
0
 62
256
370
-1
 48
1.0
  6
ByLayer
100
AcDbPolyline
 90
44
 70
1
 10
-64.935000000000002
 20
-446.55999999999983
 10
-64.935000000000002
 20
-441.77999999999986
 10
-80.500000000000043
 20
-441.77999999999986
 10
-80.500000000000014
 20
-480.49999999999983
 10
-119.99999999999997
 20
-480.49999999999983
 42
-0.9999999999999998
 10
-139.99999999999997
 20
-480.49999999999983
 10
-213.77999999999997
 20
-480.49999999999983
 10
-213.77999999999997
 20
-506.55999999999983
 10
-220.49999999999997
 20
-506.55999999999983
 10
-220.49999999999997
 20
-294.99999999999989
 10
-227.21999999999997
 20
-294.99999999999989
 10
-227.21999999999997
 20
-288.27999999999986
 10
-220.49999999999997
 20
-288.27999999999986
 10
-220.49999999999997
 20
-153.27999999999986
 10
-223.64999999999998
 20
-153.27999999999986
 10
-223.64999999999998
 20
-103.27999999999997
 10
-220.49999999999997
 20
-103.27999999999986
 10
-220.49999999999997
 20
-39.499999999999886
 10
-39.5
 20
-39.499999999999886
 10
-39.5
 20
-103.27999999999986
 10
-36.349999999999994
 20
-103.27999999999997
 10
-36.349999999999994
 20
-153.27999999999986
 10
-39.5
 20
-153.27999999999986
 10
-39.5
 20
-288.27999999999986
 10
-32.780000000000001
 20
-288.27999999999986
 10
-32.780000000000001
 20
-294.99999999999989
 10
-39.5
 20
-294.99999999999989
 10
-39.5
 20
-506.55999999999983
 10
-46.219999999999999
 20
-506.55999999999983
 10
-46.219999999999999
 20
-441.77999999999986
 10
-61.784999999999997
 20
-441.77999999999986
 10
-61.784999999999997
 20
-446.55999999999983
 10
-60.760000000000005
 20
-446.55999999999983
 42
-2.414213562373094
 10
-60.510000000000005
 20
-446.80999999999983
 10
-60.510000000000005
 20
-448.80999999999983
 42
-2.414213562373094
 10
-60.760000000000005
 20
-449.05999999999983
 10
-61.784999999999997
 20
-449.05999999999983
 10
-61.784999999999997
 20
-450.05999999999983
 10
-64.935000000000002
 20
-450.05999999999983
 10
-64.935000000000002
 20
-449.05999999999983
 10
-65.959999999999994
 20
-449.05999999999983
 42
-2.414213562373094
 10
-66.209999999999994
 20
-448.80999999999983
 10
-66.209999999999994
 20
-446.80999999999983
 42
-2.414213562373094
 10
-65.959999999999994
 20
-446.55999999999983
  0
LWPOLYLINE
  5
100
100
AcDbEntity
  8
0
 62
256
370
-1
 48
1.0
  6
ByLayer
100
AcDbPolyline
 90
8
 70
1
 10
-183.77999999999997
 20
-491.2199999999998
 10
-183.77999999999997
 20
-493.99999999999994
 42
-0.4142135623730951
 10
-190.49999999999997
 20
-500.71999999999991
 10
-203.05999999999997
 20
-500.71999999999991
 42
-0.4142135623730951
 10
-209.77999999999997
 20
-493.99999999999994
 10
-209.77999999999997
 20
-491.2199999999998
 42
-0.4142135623730951
 10
-203.05999999999997
 20
-484.49999999999983
 10
-190.49999999999997
 20
-484.49999999999983
 42
-0.4142135623730951
  0
LWPOLYLINE
  5
101
100
AcDbEntity
  8
0
 62
256
370
-1
 48
1.0
  6
ByLayer
100
AcDbPolyline
 90
8
 70
1
 10
-76.220000000000056
 20
-494.00000000000028
 10
-76.220000000000056
 20
-491.2200000000002
 42
-0.4142135623730935
 10
-69.500000000000099
 20
-484.50000000000023
 10
-56.939999999999998
 20
-484.50000000000023
 42
-0.4142135623730966
 10
-50.219999999999999
 20
-491.22000000000031
 10
-50.220000000000098
 20
-494.0000000000004
 42
-0.4142135623730935
 10
-56.940000000000097
 20
-500.72000000000037
 10
-69.500000000000099
 20
-500.72000000000031
 42
-0.4142135623730966
  0
LWPOLYLINE
  5
102
100
AcDbEntity
  8
0
 62
256
370
-1
 48
1.0
  6
ByLayer
100
AcDbPolyline
 90
4
 70
1
 10
-108.72
 20
-488.79499999999985
 42
-0.9999999999999998
 10
-108.72
 20
-485.64499999999987
 10
-98.719999999999985
 20
-485.64499999999981
 42
-0.9999999999999998
 10
-98.719999999999985
 20
-488.79499999999985
  0
LWPOLYLINE
  5
103
100
AcDbEntity
  8
0
 62
256
370
-1
 48
1.0
  6
ByLayer
100
AcDbPolyline
 90
4
 70
1
 10
-151.27999999999997
 20
-485.64499999999987
 42
-0.9999999999999998
 10
-151.27999999999997
 20
-488.79499999999985
 10
-161.27999999999997
 20
-488.79499999999985
 42
-0.9999999999999998
 10
-161.27999999999997
 20
-485.64499999999987
  0
LWPOLYLINE
  5
104
100
AcDbEntity
  8
0
 62
256
370
-1
 48
1.0
  6
ByLayer
100
AcDbPolyline
 90
16
 70
1
 10
-253.28
 20
-294.99999999999989
 10
-253.27999999999994
 20
-519.99999999999989
 10
-173.3333333333334
 20
-519.99999999999989
 10
-173.3333333333334
 20
-513.27999999999986
 10
-86.666666666666742
 20
-513.27999999999986
 10
-86.666666666666742
 20
-519.99999999999989
 10
-6.7199999999999989
 20
-519.99999999999989
 10
-6.7199999999999989
 20
-294.99999999999989
 10
0.0
 20
-294.99999999999989
 10
0.0
 20
0.0
 10
-86.666666666666416
 20
0.0
 10
-86.666666666666416
 20
-6.7199999999999704
 10
-173.33333333333312
 20
-6.7199999999999704
 10
-173.33333333333312
 20
0.0
 10
-260.0
 20
0.0
 10
-260.0
 20
-294.99999999999989
  0
CIRCLE
  5
105
100
AcDbEntity
  8
0
 62
256
370
-1
 48
1.0
  6
ByLayer
100
AcDbCircle
 10
-193.08333333333323
 20
-516.63999999999987
 30
0.0
 40
1.5750000000000159
  0
CIRCLE
  5
106
100
AcDbEntity
  8
0
 62
256
370
-1
 48
1.0
  6
ByLayer
100
AcDbCircle
 10
-193.08333333333346
 20
-3.3599999999998431
 30
0.0
 40
1.575
  0
CIRCLE
  5
107
100
AcDbEntity
  8
0
 62
256
370
-1
 48
1.0
  6
ByLayer
100
AcDbCircle
 10
-256.63999999999987
 20
-19.749999999999943
 30
0.0
 40
1.575
  0
CIRCLE
  5
108
100
AcDbEntity
  8
0
 62
256
370
-1
 48
1.0
  6
ByLayer
100
AcDbCircle
 10
-256.63999999999999
 20
-275.24999999999989
 30
0.0
 40
1.574999999999996
  0
CIRCLE
  5
109
100
AcDbEntity
  8
0
 62
256
370
-1
 48
1.0
  6
ByLayer
100
AcDbCircle
 10
-19.75
 20
-516.63999999999987
 30
0.0
 40
1.574999999999998
  0
CIRCLE
  5
10A
100
AcDbEntity
  8
0
 62
256
370
-1
 48
1.0
  6
ByLayer
100
AcDbCircle
 10
-240.24999999999991
 20
-3.3599999999998431
 30
0.0
 40
1.574999999999998
  0
CIRCLE
  5
10B
100
AcDbEntity
  8
0
 62
256
370
-1
 48
1.0
  6
ByLayer
100
AcDbCircle
 10
-19.75
 20
-3.3599999999998431
 30
0.0
 40
1.574999999999998
  0
CIRCLE
  5
10C
100
AcDbEntity
  8
0
 62
256
370
-1
 48
1.0
  6
ByLayer
100
AcDbCircle
 10
-3.3600000000000136
 20
-275.24999999999989
 30
0.0
 40
1.574999999999996
  0
CIRCLE
  5
10D
100
AcDbEntity
  8
0
 62
256
370
-1
 48
1.0
  6
ByLayer
100
AcDbCircle
 10
-240.25000000000003
 20
-516.63999999999987
 30
0.0
 40
1.574999999999998
  0
CIRCLE
  5
10E
100
AcDbEntity
  8
0
 62
256
370
-1
 48
1.0
  6
ByLayer
100
AcDbCircle
 10
-3.3600000000000136
 20
-19.749999999999943
 30
0.0
 40
1.575
  0
CIRCLE
  5
10F
100
AcDbEntity
  8
0
 62
256
370
-1
 48
1.0
  6
ByLayer
100
AcDbCircle
 10
-66.916666666666501
 20
-3.3599999999998431
 30
0.0
 40
1.575
  0
CIRCLE
  5
110
100
AcDbEntity
  8
0
 62
256
370
-1
 48
1.0
  6
ByLayer
100
AcDbCircle
 10
-66.916666666666799
 20
-516.63999999999987
 30
0.0
 40
1.5750000000000159
  0
CIRCLE
  5
111
100
AcDbEntity
  8
0
 62
256
370
-1
 48
1.0
  6
ByLayer
100
AcDbCircle
 10
-26.5
 20
-291.63999999999987
 30
0.0
 40
1.575
  0
CIRCLE
  5
112
100
AcDbEntity
  8
0
 62
256
370
-1
 48
1.0
  6
ByLayer
100
AcDbCircle
 10
-233.49999999999997
 20
-291.63999999999987
 30
0.0
 40
1.575
  0
ENDBLK
  5
113
100
AcDbEntity
  8
0
100
AcDbBlockEnd
  0
BLOCK
  5
114
100
AcDbEntity
  8
0
100
AcDbBlockBegin
  2
crane_front
 70
0
 10
0.0
 20
0.0
 30
0.0
  3
crane_front
  1

  0
LWPOLYLINE
  5
115
100
AcDbEntity
  8
0
 62
256
370
-1
 48
1.0
  6
ByLayer
100
AcDbPolyline
 90
4
 70
1
 10
203.70500000000001
 20
-3.0000000000005471
 42
-0.9999999999999998
 10
206.85499999999999
 20
-2.9999999999994387
 10
206.85499999999999
 20
-3.0999999999994401
 42
-0.9999999999999998
 10
203.70500000000001
 20
-3.1000000000005627
  0
LWPOLYLINE
  5
116
100
AcDbEntity
  8
0
 62
256
370
-1
 48
1.0
  6
ByLayer
100
AcDbPolyline
 90
4
 70
1
 10
18.705000000000013
 20
-3.0000000000005471
 42
-0.9999999999999998
 10
21.85499999999999
 20
-2.9999999999994387
 10
21.85499999999999
 20
-3.0999999999994401
 42
-0.9999999999999998
 10
18.705000000000013
 20
-3.1000000000005627
  0
LWPOLYLINE
  5
117
100
AcDbEntity
  8
0
 62
256
370
-1
 48
1.0
  6
ByLayer
100
AcDbPolyline
 90
4
 70
1
 10
222.70499999999998
 20
-2.9999999999994387
 42
-0.9999999999999998
 10
225.85499999999999
 20
-3.0000000000005471
 10
225.85499999999993
 20
-3.1000000000005627
 42
-0.9999999999999998
 10
222.70499999999998
 20
-3.0999999999994401
  0
LWPOLYLINE
  5
118
100
AcDbEntity
  8
0
 62
256
370
-1
 48
1.0
  6
ByLayer
100
AcDbPolyline
 90
4
 70
1
 10
40.85499999999999
 20
-3.1000000000005627
 42
-0.9999999999999998
 10
37.705000000000013
 20
-3.0999999999994401
 10
37.705000000000013
 20
-2.9999999999994387
 42
-0.9999999999999998
 10
40.85499999999999
 20
-3.0000000000005471
  0
LWPOLYLINE
  5
119
100
AcDbEntity
  8
0
 62
256
370
-1
 48
1.0
  6
ByLayer
100
AcDbPolyline
 90
84
 70
1
 10
224.20499999999998
 20
-50.0
 10
224.20499999999998
 20
-45.219999999999999
 10
223.18000000000001
 20
-45.219999999999999
 42
-2.414213562373094
 10
222.93000000000001
 20
-44.969999999999999
 10
222.93000000000001
 20
-42.969999999999999
 42
-2.414213562373094
 10
223.18000000000001
 20
-42.719999999999999
 10
224.20499999999998
 20
-42.719999999999999
 10
224.20499999999998
 20
-41.719999999999999
 10
227.35499999999996
 20
-41.719999999999999
 10
227.35499999999996
 20
-42.719999999999999
 10
228.37999999999997
 20
-42.719999999999999
 42
-2.414213562373094
 10
228.63
 20
-42.969999999999999
 10
228.63
 20
-44.969999999999999
 42
-2.414213562373094
 10
228.37999999999997
 20
-45.219999999999999
 10
227.35499999999996
 20
-45.219999999999999
 10
227.35499999999996
 20
-50.0
 10
244.56
 20
-50.0
 10
244.56
 20
0.0
 10
169.90499999999997
 20
0.0
 10
169.90499999999997
 20
-7.5000000000000071
 42
-0.9999999999999998
 10
164.655
 20
-7.5000000000000071
 10
164.655
 20
0.0
 10
79.905000000000001
 20
0.0
 10
79.905000000000001
 20
-7.5
 42
-0.9999999999999998
 10
74.655000000000001
 20
-7.5
 10
74.655000000000001
 20
0.0
 10
0.0
 20
0.0
 10
0.0
 20
-50.0
 10
17.205000000000013
 20
-50.0
 10
17.205000000000013
 20
-45.219999999999999
 10
16.180000000000007
 20
-45.219999999999999
 42
-2.414213562373094
 10
15.930000000000007
 20
-44.969999999999999
 10
15.930000000000007
 20
-42.969999999999999
 42
-2.414213562373094
 10
16.179999999999893
 20
-42.719999999999999
 10
17.205000000000013
 20
-42.719999999999999
 10
17.205000000000013
 20
-41.719999999999999
 10
20.35499999999999
 20
-41.719999999999999
 10
20.35499999999999
 20
-42.719999999999999
 10
21.37999999999991
 20
-42.719999999999999
 42
-2.414213562373094
 10
21.629999999999995
 20
-42.969999999999999
 10
21.629999999999995
 20
-44.969999999999999
 42
-2.414213562373094
 10
21.379999999999995
 20
-45.219999999999999
 10
20.35499999999999
 20
-45.219999999999999
 10
20.35499999999999
 20
-50.0
 10
65.530000000000001
 20
-50.0
 10
65.530000000000001
 20
-56.719999999999999
 10
75.530000000000001
 20
-56.719999999999999
 10
75.530000000000001
 20
-50.0
 10
86.205000000000013
 20
-50.0
 10
86.205000000000013
 20
-45.219999999999999
 10
85.180000000000007
 20
-45.219999999999999
 42
-2.414213562373094
 10
84.930000000000007
 20
-44.969999999999999
 10
84.930000000000007
 20
-42.969999999999999
 42
-2.414213562373094
 10
85.180000000000007
 20
-42.719999999999999
 10
86.205000000000013
 20
-42.719999999999999
 10
86.205000000000013
 20
-41.719999999999999
 10
89.35499999999999
 20
-41.719999999999999
 10
89.35499999999999
 20
-42.719999999999999
 10
90.379999999999995
 20
-42.719999999999999
 42
-2.414213562373094
 10
90.629999999999995
 20
-42.969999999999999
 10
90.629999999999995
 20
-44.969999999999999
 42
-2.414213562373094
 10
90.379999999999995
 20
-45.219999999999999
 10
89.35499999999999
 20
-45.219999999999999
 10
89.35499999999999
 20
-50.0
 10
155.20499999999998
 20
-50.0
 10
155.20499999999998
 20
-45.219999999999999
 10
154.17999999999998
 20
-45.219999999999999
 42
-2.414213562373094
 10
153.92999999999998
 20
-44.969999999999999
 10
153.92999999999998
 20
-42.969999999999999
 42
-2.414213562373094
 10
154.17999999999998
 20
-42.719999999999999
 10
155.20499999999998
 20
-42.719999999999999
 10
155.20499999999998
 20
-41.719999999999999
 10
158.35499999999993
 20
-41.719999999999999
 10
158.35499999999993
 20
-42.719999999999999
 10
159.38
 20
-42.719999999999999
 42
-2.414213562373094
 10
159.62999999999997
 20
-42.969999999999999
 10
159.62999999999997
 20
-44.969999999999999
 42
-2.414213562373094
 10
159.37999999999997
 20
-45.219999999999999
 10
158.35499999999993
 20
-45.219999999999999
 10
158.35499999999993
 20
-50.0
 10
169.03
 20
-50.0
 10
169.03
 20
-56.719999999999999
 10
179.03
 20
-56.719999999999999
 10
179.03
 20
-50.0
  0
ENDBLK
  5
11A
100
AcDbEntity
  8
0
100
AcDbBlockEnd
  0
BLOCK
  5
11B
100
AcDbEntity
  8
0
100
AcDbBlockBegin
  2
drawer_bottom
 70
0
 10
0.0
 20
0.0
 30
0.0
  3
drawer_bottom
  1

  0
LWPOLYLINE
  5
11C
100
AcDbEntity
  8
0
 62
256
370
-1
 48
1.0
  6
ByLayer
100
AcDbPolyline
 90
68
 70
1
 10
-9.2753187087589737
 20
-56.279999999999909
 42
0.3888787318529891
 10
-7.2829293125754901
 20
-54.454311485495225
 10
-6.7199999999999847
 20
-48.019999999999911
 10
-6.7200000000000131
 20
-39.759999999999913
 10
6.719999999999942
 20
-39.75999999999987
 10
6.7199999999999278
 20
-23.239999999999874
 10
-0.0000000000000995
 20
-23.239999999999881
 10
-0.0000000000000142
 20
-13.964999999999961
 10
-4.7800000000000153
 20
-13.964999999999961
 10
-4.7800000000000153
 20
-14.989999999999981
 42
-2.414213562373094
 10
-5.0300000000000153
 20
-15.239999999999981
 10
-7.0300000000000011
 20
-15.239999999999981
 42
-2.414213562373094
 10
-7.2800000000000153
 20
-14.989999999999981
 10
-7.2800000000000153
 20
-13.964999999999968
 10
-8.2800000000000011
 20
-13.964999999999968
 10
-8.2800000000000011
 20
-10.814999999999969
 10
-7.2800000000000153
 20
-10.814999999999969
 10
-7.2800000000000153
 20
-9.7899999999999778
 42
-2.414213562373094
 10
-7.0300000000000011
 20
-9.5399999999999778
 10
-5.0300000000000153
 20
-9.5399999999999778
 42
-2.4142135623731251
 10
-4.7800000000000153
 20
-9.7899999999999636
 10
-4.7800000000000153
 20
-10.814999999999969
 10
-0.0000000000000142
 20
-10.814999999999969
 10
0.0
 20
0.0
 10
-56.280000000000022
 20
0.0000000000000142
 10
-56.280000000000022
 20
-6.7199999999999491
 10
-88.925000000000054
 20
-6.7199999999999562
 10
-88.925000000000054
 20
-11.499999999999957
 10
-87.900000000000048
 20
-11.499999999999957
 42
-2.414213562373094
 10
-87.650000000000048
 20
-11.749999999999957
 10
-87.650000000000048
 20
-13.749999999999957
 42
-2.414213562373094
 10
-87.900000000000048
 20
-13.999999999999957
 10
-88.925000000000054
 20
-13.999999999999957
 10
-88.925000000000054
 20
-14.999999999999957
 10
-92.075000000000045
 20
-14.999999999999957
 10
-92.075000000000045
 20
-13.999999999999957
 10
-93.100000000000037
 20
-13.999999999999957
 42
-2.414213562373094
 10
-93.350000000000037
 20
-13.749999999999957
 10
-93.350000000000051
 20
-11.749999999999943
 42
-2.4142135623731251
 10
-93.100000000000051
 20
-11.499999999999957
 10
-92.075000000000045
 20
-11.499999999999957
 10
-92.075000000000031
 20
-6.7199999999999065
 10
-124.72000000000001
 20
-6.7199999999999491
 10
-124.72000000000001
 20
0.0000000000000142
 10
-181.0
 20
0.0
 10
-181.0
 20
-10.814999999999969
 10
-176.22000000000003
 20
-10.814999999999969
 10
-176.22000000000003
 20
-9.7899999999999636
 42
-2.4142135623731251
 10
-175.97000000000003
 20
-9.5399999999999778
 10
-173.97000000000003
 20
-9.5399999999999778
 42
-2.414213562373094
 10
-173.72000000000003
 20
-9.7899999999999778
 10
-173.72000000000003
 20
-10.814999999999969
 10
-172.72000000000003
 20
-10.814999999999969
 10
-172.72000000000003
 20
-13.964999999999968
 10
-173.72000000000003
 20
-13.964999999999968
 10
-173.72000000000003
 20
-14.989999999999981
 42
-2.414213562373094
 10
-173.97000000000003
 20
-15.239999999999981
 10
-175.97000000000003
 20
-15.239999999999981
 42
-2.414213562373094
 10
-176.22000000000003
 20
-14.989999999999981
 10
-176.22000000000003
 20
-13.964999999999961
 10
-181.0
 20
-13.964999999999961
 10
-180.99999999999994
 20
-23.240000000000009
 10
-187.71999999999997
 20
-23.240000000000009
 10
-187.71999999999997
 20
-39.760000000000005
 10
-174.27999999999997
 20
-39.760000000000005
 10
-174.27999999999997
 20
-48.019999999999996
 10
-173.71707068742444
 20
-54.454311485495317
 42
0.3888787318529891
 10
-171.72468129124098
 20
-56.280000000000008
  0
CIRCLE
  5
11D
100
AcDbEntity
  8
0
 62
256
370
-1
 48
1.0
  6
ByLayer
100
AcDbCircle
 10
-50.750000000000007
 20
-36.539999999999964
 30
0.0
 40
2.0
  0
CIRCLE
  5
11E
100
AcDbEntity
  8
0
 62
256
370
-1
 48
1.0
  6
ByLayer
100
AcDbCircle
 10
-108.75000000000001
 20
-36.539999999999964
 30
0.0
 40
2.0
  0
ENDBLK
  5
11F
100
AcDbEntity
  8
0
100
AcDbBlockEnd
  0
BLOCK
  5
120
100
AcDbEntity
  8
0
100
AcDbBlockBegin
  2
drawer_back
 70
0
 10
0.0
 20
0.0
 30
0.0
  3
drawer_back
  1

  0
LWPOLYLINE
  5
121
100
AcDbEntity
  8
0
 62
256
370
-1
 48
1.0
  6
ByLayer
100
AcDbPolyline
 90
8
 70
1
 10
-56.279999999999973
 20
-212.59999999999997
 10
0.0000000000000284
 20
-212.59999999999997
 10
0.0
 20
0.0
 10
-181.0
 20
0.0
 10
-181.00000000000006
 20
-212.59999999999999
 10
-124.72000000000006
 20
-212.59999999999997
 10
-124.72000000000006
 20
-219.31999999999999
 10
-56.279999999999973
 20
-219.31999999999996
  0
CIRCLE
  5
122
100
AcDbEntity
  8
0
 62
256
370
-1
 48
1.0
  6
ByLayer
100
AcDbCircle
 10
-150.83333333333337
 20
-64.280000000000001
 30
0.0
 40
1.5750000000000011
  0
CIRCLE
  5
123
100
AcDbEntity
  8
0
 62
256
370
-1
 48
1.0
  6
ByLayer
100
AcDbCircle
 10
-30.166666666666714
 20
-64.280000000000001
 30
0.0
 40
1.5750000000000011
  0
CIRCLE
  5
124
100
AcDbEntity
  8
0
 62
256
370
-1
 48
1.0
  6
ByLayer
100
AcDbCircle
 10
-90.500000000000014
 20
-215.95999999999998
 30
0.0
 40
1.5749999999999991
  0
CIRCLE
  5
125
100
AcDbEntity
  8
0
 62
256
370
-1
 48
1.0
  6
ByLayer
100
AcDbCircle
 10
-137.75000000000006
 20
-24.599999999999994
 30
0.0
 40
1.575
  0
CIRCLE
  5
126
100
AcDbEntity
  8
0
 62
256
370
-1
 48
1.0
  6
ByLayer
100
AcDbCircle
 10
-118.75000000000007
 20
-24.599999999999994
 30
0.0
 40
1.575
  0
ENDBLK
  5
127
100
AcDbEntity
  8
0
100
AcDbBlockEnd
  0
BLOCK
  5
128
100
AcDbEntity
  8
0
100
AcDbBlockBegin
  2
drawer_support
 70
0
 10
0.0
 20
0.0
 30
0.0
  3
drawer_support
  1

  0
LWPOLYLINE
  5
129
100
AcDbEntity
  8
0
 62
256
370
-1
 48
1.0
  6
ByLayer
100
AcDbPolyline
 90
40
 70
1
 10
-6.7199999999999704
 20
20.924999999999898
 10
-11.499999999999972
 20
20.924999999999898
 10
-11.499999999999972
 20
19.899999999999892
 42
-2.414213562373094
 10
-11.749999999999972
 20
19.649999999999892
 10
-13.749999999999972
 20
19.649999999999892
 42
-2.414213562373094
 10
-13.999999999999972
 20
19.899999999999892
 10
-13.999999999999972
 20
20.924999999999898
 10
-14.999999999999972
 20
20.924999999999898
 10
-14.999999999999972
 20
24.074999999999903
 10
-13.999999999999972
 20
24.074999999999903
 10
-13.999999999999972
 20
25.099999999999881
 42
-2.414213562373094
 10
-13.749999999999972
 20
25.349999999999881
 10
-11.749999999999972
 20
25.349999999999881
 42
-2.414213562373094
 10
-11.499999999999972
 20
25.099999999999881
 10
-11.499999999999972
 20
24.074999999999903
 10
-6.7199999999999704
 20
24.074999999999903
 10
-6.719999999999601
 20
29.999999999999886
 10
-187.71999999999963
 20
29.999999999999801
 10
-187.71999999999963
 20
24.074999999999903
 10
-182.9399999999996
 20
24.074999999999903
 10
-182.9399999999996
 20
25.099999999999881
 42
-2.414213562373094
 10
-182.6899999999996
 20
25.349999999999881
 10
-180.6899999999996
 20
25.349999999999881
 42
-2.414213562373094
 10
-180.4399999999996
 20
25.099999999999881
 10
-180.4399999999996
 20
24.074999999999903
 10
-179.4399999999996
 20
24.074999999999903
 10
-179.4399999999996
 20
20.924999999999898
 10
-180.4399999999996
 20
20.924999999999898
 10
-180.4399999999996
 20
19.899999999999892
 42
-2.414213562373094
 10
-180.6899999999996
 20
19.649999999999892
 10
-182.6899999999996
 20
19.649999999999892
 42
-2.414213562373094
 10
-182.9399999999996
 20
19.899999999999892
 10
-182.9399999999996
 20
20.924999999999898
 10
-187.71999999999963
 20
20.924999999999898
 10
-187.71999999999963
 20
14.999999999999886
 10
-194.43999999999966
 20
14.999999999999886
 10
-194.43999999999966
 20
-0.0000000000001137
 10
0.0
 20
0.0
 10
0.0
 20
15.0
 10
-6.7199999999999704
 20
15.0
  0
CIRCLE
  5
12A
100
AcDbEntity
  8
0
 62
256
370
-1
 48
1.0
  6
ByLayer
100
AcDbCircle
 10
-157.55333333333294
 20
15.000000000001791
 30
0.0
 40
1.9999999999999989
  0
CIRCLE
  5
12B
100
AcDbEntity
  8
0
 62
256
370
-1
 48
1.0
  6
ByLayer
100
AcDbCircle
 10
-36.886666666666265
 20
15.000000000001904
 30
0.0
 40
1.9999999999999989
  0
ENDBLK
  5
12C
100
AcDbEntity
  8
0
100
AcDbBlockEnd
  0
BLOCK
  5
12D
100
AcDbEntity
  8
0
100
AcDbBlockBegin
  2
inner_tray_bottom
 70
0
 10
0.0
 20
0.0
 30
0.0
  3
inner_tray_bottom
  1

  0
LWPOLYLINE
  5
12E
100
AcDbEntity
  8
0
 62
256
370
-1
 48
1.0
  6
ByLayer
100
AcDbPolyline
 90
8
 70
1
 10
50.0
 20
45.0
 10
50.0
 20
-44.999999999999993
 42
-0.4142135623730946
 10
45.0
 20
-50.0
 10
-45.0
 20
-50.0
 42
-0.4142135623730951
 10
-50.0
 20
-44.999999999999993
 10
-50.0
 20
45.0
 42
-0.4142135623730951
 10
-45.0
 20
50.0
 10
45.0
 20
50.0
 42
-0.4142135623730951
  0
LWPOLYLINE
  5
12F
100
AcDbEntity
  8
0
 62
256
370
-1
 48
1.0
  6
ByLayer
100
AcDbPolyline
 90
8
 70
1
 10
-73.0
 20
75.0
 42
0.4142135623730951
 10
-75.0
 20
73.0
 10
-75.0
 20
-73.0
 42
0.4142135623730964
 10
-73.0
 20
-75.0
 10
73.0
 20
-75.0
 42
0.4142135623730951
 10
75.0
 20
-73.0
 10
75.0
 20
73.0
 42
0.4142135623730951
 10
73.0
 20
75.0
  0
CIRCLE
  5
130
100
AcDbEntity
  8
0
 62
256
370
-1
 48
1.0
  6
ByLayer
100
AcDbCircle
 10
68.0
 20
68.0
 30
0.0
 40
3.3500000000000001
  0
CIRCLE
  5
131
100
AcDbEntity
  8
0
 62
256
370
-1
 48
1.0
  6
ByLayer
100
AcDbCircle
 10
-68.0
 20
-68.0
 30
0.0
 40
3.3500000000000001
  0
CIRCLE
  5
132
100
AcDbEntity
  8
0
 62
256
370
-1
 48
1.0
  6
ByLayer
100
AcDbCircle
 10
-68.0
 20
68.0
 30
0.0
 40
3.3500000000000001
  0
CIRCLE
  5
133
100
AcDbEntity
  8
0
 62
256
370
-1
 48
1.0
  6
ByLayer
100
AcDbCircle
 10
68.0
 20
-68.000000000000014
 30
0.0
 40
3.3500000000000001
  0
ENDBLK
  5
134
100
AcDbEntity
  8
0
100
AcDbBlockEnd
  0
BLOCK
  5
135
100
AcDbEntity
  8
0
100
AcDbBlockBegin
  2
frame_galvo
 70
0
 10
0.0
 20
0.0
 30
0.0
  3
frame_galvo
  1

  0
LWPOLYLINE
  5
136
100
AcDbEntity
  8
0
 62
256
370
-1
 48
1.0
  6
ByLayer
100
AcDbPolyline
 90
4
 70
1
 10
-30.900000000000013
 20
-28.000000000000114
 10
-30.900000000000013
 20
-34.0
 42
-0.9999999999999998
 10
-35.100000000000009
 20
-34.0
 10
-35.100000000000009
 20
-28.000000000000114
 42
-0.9999999999999998
  0
LWPOLYLINE
  5
137
100
AcDbEntity
  8
0
 62
256
370
-1
 48
1.0
  6
ByLayer
100
AcDbPolyline
 90
4
 70
1
 10
-20.600000000000001
 20
-7.0000000000001137
 42
-0.9999999999999998
 10
-16.400000000000002
 20
-7.0000000000001137
 10
-16.400000000000013
 20
-25.500000000000114
 42
-0.9999999999999998
 10
-20.600000000000012
 20
-25.500000000000114
  0
LWPOLYLINE
  5
138
100
AcDbEntity
  8
0
 62
256
370
-1
 48
1.0
  6
ByLayer
100
AcDbPolyline
 90
8
 70
1
 10
-21.999999999999993
 20
-65.000000000000114
 10
0.0000000000000071
 20
-65.000000000000114
 10
0.0
 20
0.0
 10
-66.000000000000014
 20
-0.0000000000001137
 10
-66.0
 20
-65.000000000000114
 10
-43.999999999999993
 20
-65.000000000000114
 10
-43.999999999999993
 20
-71.720000000000113
 10
-22.0
 20
-71.720000000000113
  0
CIRCLE
  5
139
100
AcDbEntity
  8
0
 62
256
370
-1
 48
1.0
  6
ByLayer
100
AcDbCircle
 10
-59.280000000000001
 20
-38.940000000000111
 30
0.0
 40
1.9999999999999989
  0
CIRCLE
  5
13A
100
AcDbEntity
  8
0
 62
256
370
-1
 48
1.0
  6
ByLayer
100
AcDbCircle
 10
-6.7199999999999918
 20
-38.940000000000111
 30
0.0
 40
1.9999999999999989
  0
ENDBLK
  5
13B
100
AcDbEntity
  8
0
100
AcDbBlockEnd
  0
BLOCK
  5
13C
100
AcDbEntity
  8
0
100
AcDbBlockBegin
  2
drawer_right
 70
0
 10
0.0
 20
0.0
 30
0.0
  3
drawer_right
  1

  0
LWPOLYLINE
  5
13D
100
AcDbEntity
  8
0
 62
256
370
-1
 48
1.0
  6
ByLayer
100
AcDbPolyline
 90
4
 70
1
 10
-6.7200000000005886
 20
155.04000000000011
 10
-6.720000000000578
 20
140.04000000000011
 10
-13.440000000000587
 20
140.04000000000011
 10
-13.440000000000587
 20
155.04000000000011
  0
LWPOLYLINE
  5
13E
100
AcDbEntity
  8
0
 62
256
370
-1
 48
1.0
  6
ByLayer
100
AcDbPolyline
 90
8
 70
1
 10
-0.0000000000001101
 20
206.52000000000001
 10
-56.280000000000086
 20
206.52000000000001
 10
-56.28000000000003
 20
0.0
 10
-39.760000000000034
 20
0.0000000000000036
 10
-39.760000000000034
 20
6.7199999999999989
 10
-23.24000000000003
 20
6.7199999999999989
 10
-23.24000000000003
 20
0.0000000000000071
 10
0.0
 20
0.0
  0
CIRCLE
  5
13F
100
AcDbEntity
  8
0
 62
256
370
-1
 48
1.0
  6
ByLayer
100
AcDbCircle
 10
-46.28000000000003
 20
24.720000000000013
 30
0.0
 40
1.575
  0
CIRCLE
  5
140
100
AcDbEntity
  8
0
 62
256
370
-1
 48
1.0
  6
ByLayer
100
AcDbCircle
 10
-12.390000000000008
 20
3.3600000000000065
 30
0.0
 40
1.575
  0
CIRCLE
  5
141
100
AcDbEntity
  8
0
 62
256
370
-1
 48
1.0
  6
ByLayer
100
AcDbCircle
 10
-10.720000000000589
 20
162.53999999999999
 30
0.0
 40
1.5750000000000111
  0
ENDBLK
  5
142
100
AcDbEntity
  8
0
100
AcDbBlockEnd
  0
BLOCK
  5
143
100
AcDbEntity
  8
0
100
AcDbBlockBegin
  2
p2
 70
0
 10
0.0
 20
0.0
 30
0.0
  3
p2
  1

  0
LINE
  5
144
100
AcDbEntity
  8
0
 62
256
370
-1
 48
1.0
  6
ByLayer
100
AcDbLine
 10
0.0
 20
0.0
 30
0.0
 11
384.0
 21
0.0
 31
0.0
  0
LINE
  5
145
100
AcDbEntity
  8
0
 62
256
370
-1
 48
1.0
  6
ByLayer
100
AcDbLine
 10
384.0
 20
0.0
 30
0.0
 11
384.0
 21
-384.0
 31
0.0
  0
LINE
  5
146
100
AcDbEntity
  8
0
 62
256
370
-1
 48
1.0
  6
ByLayer
100
AcDbLine
 10
384.0
 20
-384.0
 30
0.0
 11
0.0
 21
-384.0
 31
0.0
  0
LINE
  5
147
100
AcDbEntity
  8
0
 62
256
370
-1
 48
1.0
  6
ByLayer
100
AcDbLine
 10
0.0
 20
-384.0
 30
0.0
 11
0.0
 21
0.0
 31
0.0
  0
ENDBLK
  5
148
100
AcDbEntity
  8
0
100
AcDbBlockEnd
  0
BLOCK
  5
149
100
AcDbEntity
  8
0
100
AcDbBlockBegin
  2
inner_tray_clear
 70
0
 10
0.0
 20
0.0
 30
0.0
  3
inner_tray_clear
  1

  0
LWPOLYLINE
  5
14A
100
AcDbEntity
  8
0
 62
256
370
-1
 48
1.0
  6
ByLayer
100
AcDbPolyline
 90
8
 70
1
 10
-45.0
 20
55.0
 42
0.4142135623730951
 10
-55.0
 20
45.0
 10
-55.0
 20
-45.0
 42
0.4142135623730951
 10
-45.0
 20
-55.0
 10
45.0
 20
-55.0
 42
0.4142135623730951
 10
55.0
 20
-45.0
 10
55.0
 20
45.0
 42
0.4142135623730951
 10
45.0
 20
55.0
  0
ENDBLK
  5
14B
100
AcDbEntity
  8
0
100
AcDbBlockEnd
  0
BLOCK
  5
14C
100
AcDbEntity
  8
0
100
AcDbBlockBegin
  2
carrier
 70
0
 10
0.0
 20
0.0
 30
0.0
  3
carrier
  1

  0
LWPOLYLINE
  5
14D
100
AcDbEntity
  8
0
 62
256
370
-1
 48
1.0
  6
ByLayer
100
AcDbPolyline
 90
8
 70
1
 10
120.0894750193111
 20
-20.77999999999999
 42
-0.7745966692414817
 10
108.47052498068889
 20
-20.77999999999999
 10
108.28
 20
-20.77999999999999
 10
108.28
 20
-17.77999999999999
 10
108.47052498068879
 20
-17.77999999999999
 42
-0.7745966692414857
 10
120.0894750193111
 20
-17.77999999999998
 10
120.28
 20
-17.77999999999998
 10
120.28
 20
-20.77999999999999
  0
LWPOLYLINE
  5
14E
100
AcDbEntity
  8
0
 62
256
370
-1
 48
1.0
  6
ByLayer
100
AcDbPolyline
 90
8
 70
1
 10
75.500000000000028
 20
73.500000000000071
 10
75.500000000000028
 20
-73.499999999999957
 42
-0.4142135623730951
 10
73.500000000000043
 20
-75.499999999999957
 10
-73.499999999999986
 20
-75.499999999999986
 42
-0.4142135623730951
 10
-75.499999999999986
 20
-73.499999999999972
 10
-75.499999999999986
 20
73.500000000000028
 42
-0.4142135623730951
 10
-73.499999999999986
 20
75.500000000000028
 10
73.500000000000043
 20
75.500000000000071
 42
-0.4142135623730951
  0
LWPOLYLINE
  5
14F
100
AcDbEntity
  8
0
 62
256
370
-1
 48
1.0
  6
ByLayer
100
AcDbPolyline
 90
4
 70
1
 10
93.650000000000077
 20
65.720000000000041
 10
90.5
 20
65.720000000000041
 10
90.5
 20
82.240000000000023
 10
93.650000000000006
 20
82.240000000000023
  0
LWPOLYLINE
  5
150
100
AcDbEntity
  8
0
 62
256
370
-1
 48
1.0
  6
ByLayer
100
AcDbPolyline
 90
4
 70
1
 10
-90.500000000000043
 20
65.720000000000041
 10
-93.650000000000034
 20
65.720000000000041
 10
-93.650000000000077
 20
82.240000000000023
 10
-90.500000000000043
 20
82.240000000000023
  0
LWPOLYLINE
  5
151
100
AcDbEntity
  8
0
 62
256
370
-1
 48
1.0
  6
ByLayer
100
AcDbPolyline
 90
4
 70
1
 10
-93.650000000000077
 20
-65.720000000000041
 10
-90.500000000000043
 20
-65.720000000000041
 10
-90.500000000000043
 20
-82.240000000000023
 10
-93.650000000000006
 20
-82.240000000000023
  0
LWPOLYLINE
  5
152
100
AcDbEntity
  8
0
 62
256
370
-1
 48
1.0
  6
ByLayer
100
AcDbPolyline
 90
4
 70
1
 10
93.649999999999977
 20
-82.240000000000023
 10
90.5
 20
-82.240000000000023
 10
90.5
 20
-65.720000000000041
 10
93.650000000000077
 20
-65.720000000000041
  0
LWPOLYLINE
  5
153
100
AcDbEntity
  8
0
 62
256
370
-1
 48
1.0
  6
ByLayer
100
AcDbPolyline
 90
92
 70
1
 10
105.075
 20
34.220000000000013
 10
105.075
 20
29.440000000000008
 10
106.09999999999999
 20
29.440000000000008
 42
-2.414213562373094
 10
106.34999999999999
 20
29.190000000000008
 10
106.34999999999999
 20
27.190000000000008
 42
-2.414213562373094
 10
106.09999999999999
 20
26.940000000000008
 10
105.075
 20
26.940000000000001
 10
105.075
 20
25.940000000000001
 10
101.9249999999999
 20
25.940000000000001
 10
101.9249999999999
 20
26.940000000000001
 10
100.90000000000001
 20
26.940000000000008
 42
-2.414213562373094
 10
100.65000000000001
 20
27.190000000000008
 10
100.65000000000001
 20
29.190000000000008
 42
-2.414213562373094
 10
100.90000000000001
 20
29.440000000000008
 10
101.9249999999999
 20
29.440000000000008
 10
101.9249999999999
 20
34.220000000000013
 10
97.220000000000013
 20
34.220000000000063
 10
97.219999999999956
 20
90.500000000000114
 10
-22.650000000000009
 20
90.500000000000014
 10
-22.650000000000009
 20
87.349999999999994
 10
-52.850000000000023
 20
87.349999999999994
 10
-52.850000000000009
 20
90.499999999999986
 10
-97.220000000000027
 20
90.500000000000043
 10
-97.220000000000056
 20
34.219999999999992
 10
-101.9249999999999
 20
34.220000000000013
 10
-101.9249999999999
 20
29.440000000000008
 10
-100.90000000000001
 20
29.440000000000008
 42
-2.414213562373094
 10
-100.65000000000001
 20
29.190000000000008
 10
-100.65000000000001
 20
27.190000000000008
 42
-2.414213562373094
 10
-100.90000000000001
 20
26.940000000000008
 10
-101.9249999999999
 20
26.940000000000001
 10
-101.9249999999999
 20
25.940000000000001
 10
-105.075
 20
25.940000000000001
 10
-105.075
 20
26.940000000000001
 10
-106.09999999999999
 20
26.940000000000008
 42
-2.414213562373094
 10
-106.34999999999999
 20
27.190000000000008
 10
-106.34999999999999
 20
29.190000000000008
 42
-2.414213562373094
 10
-106.09999999999999
 20
29.440000000000008
 10
-105.075
 20
29.440000000000008
 10
-105.075
 20
34.220000000000013
 10
-123.28
 20
34.21999999999997
 10
-123.28
 20
11.406666666666631
 10
-130.0
 20
11.406666666666631
 10
-130.0
 20
-11.40666666666667
 10
-123.28
 20
-11.406666666666659
 10
-123.28
 20
-34.219999999999999
 10
-105.075
 20
-34.220000000000013
 10
-105.075
 20
-29.440000000000008
 10
-106.09999999999999
 20
-29.440000000000008
 42
-2.414213562373094
 10
-106.34999999999999
 20
-29.190000000000008
 10
-106.34999999999999
 20
-27.190000000000008
 42
-2.414213562373094
 10
-106.09999999999999
 20
-26.940000000000008
 10
-105.075
 20
-26.940000000000001
 10
-105.075
 20
-25.940000000000001
 10
-101.9249999999999
 20
-25.940000000000001
 10
-101.9249999999999
 20
-26.940000000000001
 10
-100.90000000000001
 20
-26.940000000000008
 42
-2.414213562373094
 10
-100.65000000000001
 20
-27.190000000000008
 10
-100.65000000000001
 20
-29.190000000000008
 42
-2.414213562373094
 10
-100.90000000000001
 20
-29.440000000000008
 10
-101.9249999999999
 20
-29.440000000000008
 10
-101.9249999999999
 20
-34.220000000000013
 10
-97.220000000000056
 20
-34.220000000000013
 10
-97.220000000000013
 20
-90.500000000000043
 10
22.649999999999991
 20
-90.500000000000014
 10
22.650000000000009
 20
-87.349999999999994
 10
52.850000000000009
 20
-87.349999999999994
 10
52.850000000000001
 20
-90.499999999999986
 10
97.220000000000084
 20
-90.499999999999972
 10
97.220000000000084
 20
-34.219999999999928
 10
101.9249999999999
 20
-34.220000000000013
 10
101.9249999999999
 20
-29.440000000000008
 10
100.90000000000001
 20
-29.440000000000008
 42
-2.414213562373094
 10
100.65000000000001
 20
-29.190000000000008
 10
100.65000000000001
 20
-27.190000000000008
 42
-2.414213562373094
 10
100.90000000000001
 20
-26.940000000000008
 10
101.9249999999999
 20
-26.940000000000001
 10
101.9249999999999
 20
-25.940000000000001
 10
105.075
 20
-25.940000000000001
 10
105.075
 20
-26.940000000000001
 10
106.09999999999999
 20
-26.940000000000008
 42
-2.414213562373094
 10
106.34999999999999
 20
-27.190000000000008
 10
106.34999999999999
 20
-29.190000000000008
 42
-2.414213562373094
 10
106.09999999999999
 20
-29.440000000000008
 10
105.075
 20
-29.440000000000008
 10
105.075
 20
-34.220000000000013
 10
123.28
 20
-34.219999999999899
 10
123.28
 20
-11.40666666666657
 10
130.0
 20
-11.40666666666656
 10
130.0
 20
11.40666666666673
 10
123.28
 20
11.40666666666673
 10
123.2799999999999
 20
34.220000000000063
  0
CIRCLE
  5
154
100
AcDbEntity
  8
0
 62
256
370
-1
 48
1.0
  6
ByLayer
100
AcDbCircle
 10
0.0000000000000178
 20
-82.999999999999943
 30
0.0
 40
3.3500000000000001
  0
CIRCLE
  5
155
100
AcDbEntity
  8
0
 62
256
370
-1
 48
1.0
  6
ByLayer
100
AcDbCircle
 10
83.000000000000043
 20
21.705000000000041
 30
0.0
 40
2.0000000000000031
  0
CIRCLE
  5
156
100
AcDbEntity
  8
0
 62
256
370
-1
 48
1.0
  6
ByLayer
100
AcDbCircle
 10
-83.000000000000043
 20
-21.704999999999998
 30
0.0
 40
2.0000000000000031
  0
CIRCLE
  5
157
100
AcDbEntity
  8
0
 62
256
370
-1
 48
1.0
  6
ByLayer
100
AcDbCircle
 10
83.000000000000043
 20
-21.704999999999998
 30
0.0
 40
2.0000000000000031
  0
CIRCLE
  5
158
100
AcDbEntity
  8
0
 62
256
370
-1
 48
1.0
  6
ByLayer
100
AcDbCircle
 10
-83.000000000000043
 20
21.705000000000041
 30
0.0
 40
2.0000000000000031
  0
CIRCLE
  5
159
100
AcDbEntity
  8
0
 62
256
370
-1
 48
1.0
  6
ByLayer
100
AcDbCircle
 10
0.0000000000000178
 20
83.000000000000085
 30
0.0
 40
3.3500000000000001
  0
CIRCLE
  5
15A
100
AcDbEntity
  8
0
 62
256
370
-1
 48
1.0
  6
ByLayer
100
AcDbCircle
 10
103.5
 20
15.999999999999771
 30
0.0
 40
3.3500000000000001
  0
CIRCLE
  5
15B
100
AcDbEntity
  8
0
 62
256
370
-1
 48
1.0
  6
ByLayer
100
AcDbCircle
 10
103.5
 20
-15.99999999999979
 30
0.0
 40
3.3500000000000001
  0
CIRCLE
  5
15C
100
AcDbEntity
  8
0
 62
256
370
-1
 48
1.0
  6
ByLayer
100
AcDbCircle
 10
103.5
 20
-0.0000000000000095
 30
0.0
 40
4.04
  0
CIRCLE
  5
15D
100
AcDbEntity
  8
0
 62
256
370
-1
 48
1.0
  6
ByLayer
100
AcDbCircle
 10
-103.5
 20
15.999999999999771
 30
0.0
 40
3.3500000000000001
  0
CIRCLE
  5
15E
100
AcDbEntity
  8
0
 62
256
370
-1
 48
1.0
  6
ByLayer
100
AcDbCircle
 10
-103.5
 20
-15.99999999999979
 30
0.0
 40
3.3500000000000001
  0
CIRCLE
  5
15F
100
AcDbEntity
  8
0
 62
256
370
-1
 48
1.0
  6
ByLayer
100
AcDbCircle
 10
-103.5
 20
-0.0000000000000095
 30
0.0
 40
4.04
  0
ENDBLK
  5
160
100
AcDbEntity
  8
0
100
AcDbBlockEnd
  0
BLOCK
  5
161
100
AcDbEntity
  8
0
100
AcDbBlockBegin
  2
frame_top
 70
0
 10
0.0
 20
0.0
 30
0.0
  3
frame_top
  1

  0
LWPOLYLINE
  5
162
100
AcDbEntity
  8
0
 62
256
370
-1
 48
1.0
  6
ByLayer
100
AcDbPolyline
 90
180
 70
1
 10
-6.7199999999999989
 20
32.644999999999968
 10
-11.5
 20
32.64499999999996
 10
-11.5
 20
31.619999999999955
 42
-2.414213562373094
 10
-11.75
 20
31.369999999999955
 10
-13.75
 20
31.369999999999955
 42
-2.414213562373094
 10
-14.0
 20
31.619999999999955
 10
-14.0
 20
32.64499999999996
 10
-15.0
 20
32.64499999999996
 10
-15.0
 20
35.794999999999959
 10
-14.0
 20
35.794999999999959
 10
-14.0
 20
36.819999999999958
 42
-2.414213562373094
 10
-13.75
 20
37.069999999999958
 10
-11.75
 20
37.069999999999958
 42
-2.414213562373094
 10
-11.5
 20
36.819999999999958
 10
-11.5
 20
35.794999999999959
 10
-6.7199999999999989
 20
35.794999999999959
 10
-6.7199999999999989
 20
45.626666666666701
 10
0.0
 20
45.626666666666701
 10
0.0
 20
68.439999999999998
 10
-18.099999999999994
 20
68.439999999999969
 10
-18.099999999999994
 20
64.159999999999968
 10
-17.0
 20
64.159999999999968
 42
-2.414213562373094
 10
-16.75
 20
63.909999999999961
 10
-16.75
 20
61.409999999999961
 42
-2.414213562373094
 10
-17.0
 20
61.159999999999961
 10
-18.099999999999994
 20
61.159999999999961
 10
-18.099999999999994
 20
60.159999999999961
 10
-21.400000000000006
 20
60.159999999999961
 10
-21.400000000000006
 20
61.159999999999961
 10
-22.5
 20
61.159999999999961
 42
-2.414213562373094
 10
-22.75
 20
61.409999999999961
 10
-22.75
 20
63.909999999999961
 42
-2.414213562373094
 10
-22.5
 20
64.159999999999968
 10
-21.400000000000006
 20
64.159999999999968
 10
-21.400000000000006
 20
68.439999999999969
 10
-65.341666666666669
 20
68.439999999999969
 10
-65.341666666666669
 20
63.659999999999961
 10
-64.316666666666663
 20
63.659999999999961
 42
-2.414213562373094
 10
-64.066666666666677
 20
63.409999999999961
 10
-64.066666666666677
 20
61.409999999999961
 42
-2.414213562373094
 10
-64.316666666666663
 20
61.159999999999961
 10
-65.341666666666669
 20
61.159999999999961
 10
-65.341666666666669
 20
60.159999999999961
 10
-68.491666666666688
 20
60.159999999999961
 10
-68.491666666666688
 20
61.159999999999961
 10
-69.51666666666668
 20
61.159999999999961
 42
-2.414213562373094
 10
-69.76666666666668
 20
61.409999999999961
 10
-69.76666666666668
 20
63.409999999999961
 42
-2.4142135623731549
 10
-69.51666666666668
 20
63.659999999999961
 10
-68.491666666666688
 20
63.659999999999961
 10
-68.491666666666688
 20
68.439999999999969
 10
-86.666666666666671
 20
68.439999999999998
 10
-86.666666666666671
 20
75.159999999999997
 10
-173.33333333333331
 20
75.159999999999968
 10
-173.33333333333331
 20
68.439999999999969
 10
-191.50833333333333
 20
68.439999999999969
 10
-191.50833333333333
 20
63.659999999999961
 10
-190.48333333333332
 20
63.659999999999961
 42
-2.4142135623731549
 10
-190.23333333333332
 20
63.409999999999961
 10
-190.23333333333332
 20
61.409999999999961
 42
-2.414213562373094
 10
-190.48333333333332
 20
61.159999999999961
 10
-191.50833333333333
 20
61.159999999999961
 10
-191.50833333333333
 20
60.159999999999961
 10
-194.65833333333333
 20
60.159999999999961
 10
-194.65833333333333
 20
61.159999999999961
 10
-195.68333333333334
 20
61.159999999999961
 42
-2.414213562373094
 10
-195.93333333333334
 20
61.409999999999961
 10
-195.93333333333334
 20
63.409999999999961
 42
-2.414213562373094
 10
-195.68333333333334
 20
63.659999999999961
 10
-194.65833333333333
 20
63.659999999999961
 10
-194.65833333333333
 20
68.439999999999969
 10
-238.59999999999999
 20
68.439999999999969
 10
-238.59999999999999
 20
64.159999999999968
 10
-237.5
 20
64.159999999999968
 42
-2.414213562373094
 10
-237.25
 20
63.909999999999961
 10
-237.25
 20
61.409999999999961
 42
-2.414213562373094
 10
-237.5
 20
61.159999999999961
 10
-238.59999999999999
 20
61.159999999999961
 10
-238.59999999999999
 20
60.159999999999961
 10
-241.90000000000001
 20
60.159999999999961
 10
-241.90000000000001
 20
61.159999999999961
 10
-243.0
 20
61.159999999999961
 42
-2.414213562373094
 10
-243.25
 20
61.409999999999961
 10
-243.25
 20
63.909999999999961
 42
-2.414213562373094
 10
-243.0
 20
64.159999999999968
 10
-241.90000000000001
 20
64.159999999999968
 10
-241.90000000000001
 20
68.439999999999969
 10
-260.0
 20
68.439999999999969
 10
-260.0
 20
45.626666666666615
 10
-253.28
 20
45.62666666666663
 10
-253.28
 20
35.794999999999959
 10
-248.5
 20
35.794999999999959
 10
-248.5
 20
36.819999999999958
 42
-2.414213562373094
 10
-248.25
 20
37.069999999999958
 10
-246.25
 20
37.069999999999958
 42
-2.414213562373094
 10
-246.0
 20
36.819999999999958
 10
-246.0
 20
35.794999999999959
 10
-245.0
 20
35.794999999999959
 10
-245.0
 20
32.64499999999996
 10
-246.0
 20
32.64499999999996
 10
-246.0
 20
31.619999999999955
 42
-2.414213562373094
 10
-246.25
 20
31.369999999999955
 10
-248.25
 20
31.369999999999955
 42
-2.414213562373094
 10
-248.5
 20
31.619999999999955
 10
-248.5
 20
32.64499999999996
 10
-253.28
 20
32.644999999999968
 10
-253.28
 20
22.813333333333297
 10
-260.0
 20
22.813333333333297
 10
-260.0
 20
-0.0000000000000639
 10
-241.90000000000001
 20
-0.0000000000000142
 10
-241.90000000000001
 20
4.2799999999999976
 10
-243.0
 20
4.2799999999999976
 42
-2.414213562373094
 10
-243.25
 20
4.5299999999999869
 10
-243.25
 20
7.0299999999999976
 42
-2.414213562373094
 10
-243.0
 20
7.2799999999999869
 10
-241.90000000000001
 20
7.2799999999999869
 10
-241.90000000000001
 20
8.2799999999999976
 10
-238.59999999999999
 20
8.2799999999999976
 10
-238.59999999999999
 20
7.2799999999999869
 10
-237.5
 20
7.2799999999999869
 42
-2.414213562373094
 10
-237.25
 20
7.0299999999999976
 10
-237.25
 20
4.5299999999999869
 42
-2.414213562373094
 10
-237.5
 20
4.2799999999999976
 10
-238.59999999999999
 20
4.2799999999999976
 10
-238.59999999999999
 20
-0.0000000000000142
 10
-194.65833333333333
 20
-0.0000000000000142
 10
-194.65833333333333
 20
4.7799999999999869
 10
-195.68333333333334
 20
4.7799999999999869
 42
-2.414213562373094
 10
-195.93333333333334
 20
5.0299999999999869
 10
-195.93333333333334
 20
7.0299999999999869
 42
-2.414213562373094
 10
-195.68333333333334
 20
7.2799999999999869
 10
-194.65833333333333
 20
7.2799999999999869
 10
-194.65833333333333
 20
8.2799999999999869
 10
-191.50833333333333
 20
8.2799999999999869
 10
-191.50833333333333
 20
7.2799999999999869
 10
-190.48333333333332
 20
7.2799999999999869
 42
-2.414213562373094
 10
-190.23333333333332
 20
7.0299999999999869
 10
-190.23333333333332
 20
5.0299999999999869
 42
-2.4142135623731549
 10
-190.48333333333332
 20
4.7799999999999869
 10
-191.50833333333333
 20
4.7799999999999869
 10
-191.50833333333333
 20
-0.0000000000000142
 10
-173.33333333333334
 20
-0.0000000000000426
 10
-173.33333333333334
 20
-6.7200000000000344
 10
-86.666666666666671
 20
-6.7200000000000202
 10
-86.666666666666671
 20
-0.0000000000000213
 10
-68.491666666666688
 20
-0.0000000000000142
 10
-68.491666666666688
 20
4.7799999999999869
 10
-69.51666666666668
 20
4.7799999999999869
 42
-2.4142135623731549
 10
-69.76666666666668
 20
5.0299999999999869
 10
-69.76666666666668
 20
7.0299999999999869
 42
-2.414213562373094
 10
-69.51666666666668
 20
7.2799999999999869
 10
-68.491666666666688
 20
7.2799999999999869
 10
-68.491666666666688
 20
8.2799999999999869
 10
-65.341666666666669
 20
8.2799999999999869
 10
-65.341666666666669
 20
7.2799999999999869
 10
-64.316666666666663
 20
7.2799999999999869
 42
-2.414213562373094
 10
-64.066666666666677
 20
7.0299999999999869
 10
-64.066666666666677
 20
5.0299999999999869
 42
-2.414213562373094
 10
-64.316666666666663
 20
4.7799999999999869
 10
-65.341666666666669
 20
4.7799999999999869
 10
-65.341666666666669
 20
-0.0000000000000142
 10
-21.400000000000006
 20
-0.0000000000000142
 10
-21.400000000000006
 20
4.2799999999999976
 10
-22.5
 20
4.2799999999999976
 42
-2.414213562373094
 10
-22.75
 20
4.5299999999999869
 10
-22.75
 20
7.0299999999999976
 42
-2.414213562373094
 10
-22.5
 20
7.2799999999999869
 10
-21.400000000000006
 20
7.2799999999999869
 10
-21.400000000000006
 20
8.2799999999999976
 10
-18.099999999999994
 20
8.2799999999999976
 10
-18.099999999999994
 20
7.2799999999999869
 10
-17.0
 20
7.2799999999999869
 42
-2.414213562373094
 10
-16.75
 20
7.0299999999999976
 10
-16.75
 20
4.5299999999999869
 42
-2.414213562373094
 10
-17.0
 20
4.2799999999999976
 10
-18.099999999999994
 20
4.2799999999999976
 10
-18.099999999999994
 20
-0.0000000000000142
 10
0.0
 20
0.0
 10
0.0
 20
22.813333333333375
 10
-6.7199999999999989
 20
22.813333333333375
  0
CIRCLE
  5
163
100
AcDbEntity
  8
0
 62
256
370
-1
 48
1.0
  6
ByLayer
100
AcDbCircle
 10
-122.00000000000001
 20
34.21999999999997
 30
0.0
 40
1.5
  0
CIRCLE
  5
164
100
AcDbEntity
  8
0
 62
256
370
-1
 48
1.0
  6
ByLayer
100
AcDbCircle
 10
-138.0
 20
34.21999999999997
 30
0.0
 40
1.5
  0
CIRCLE
  5
165
100
AcDbEntity
  8
0
 62
256
370
-1
 48
1.0
  6
ByLayer
100
AcDbCircle
 10
-130.0
 20
42.21999999999997
 30
0.0
 40
1.5
  0
CIRCLE
  5
166
100
AcDbEntity
  8
0
 62
256
370
-1
 48
1.0
  6
ByLayer
100
AcDbCircle
 10
-130.0
 20
26.21999999999997
 30
0.0
 40
1.5
  0
CIRCLE
  5
167
100
AcDbEntity
  8
0
 62
256
370
-1
 48
1.0
  6
ByLayer
100
AcDbCircle
 10
-130.0
 20
34.21999999999997
 30
0.0
 40
5.5
  0
CIRCLE
  5
168
100
AcDbEntity
  8
0
 62
256
370
-1
 48
1.0
  6
ByLayer
100
AcDbCircle
 10
-26.5
 20
34.220000000000063
 30
0.0
 40
4.04
  0
CIRCLE
  5
169
100
AcDbEntity
  8
0
 62
256
370
-1
 48
1.0
  6
ByLayer
100
AcDbCircle
 10
-233.5
 20
34.219999999999956
 30
0.0
 40
4.04
  0
ENDBLK
  5
16A
100
AcDbEntity
  8
0
100
AcDbBlockEnd
  0
BLOCK
  5
16B
100
AcDbEntity
  8
0
100
AcDbBlockBegin
  2
inner_tray_wall
 70
0
 10
0.0
 20
0.0
 30
0.0
  3
inner_tray_wall
  1

  0
LWPOLYLINE
  5
16C
100
AcDbEntity
  8
0
 62
256
370
-1
 48
1.0
  6
ByLayer
100
AcDbPolyline
 90
8
 70
1
 10
-0.0000000000000071
 20
145.0
 42
0.4142135623730951
 10
-28.943912319027561
 20
116.0560876809725
 10
-28.94391231902755
 20
28.94391231902755
 42
0.4142135623730951
 10
-0.0000000000000053
 20
0.0000000000000044
 10
87.112175361944892
 20
0.0
 42
0.4142135623730951
 10
116.0560876809724
 20
28.94391231902755
 10
116.0560876809725
 20
116.0560876809724
 42
0.4142135623730951
 10
87.112175361944935
 20
145.0
  0
LWPOLYLINE
  5
16D
100
AcDbEntity
  8
0
 62
256
370
-1
 48
1.0
  6
ByLayer
100
AcDbPolyline
 90
8
 70
1
 10
-23.94391231902755
 20
29.000000000000028
 10
-23.94391231902755
 20
116.0
 42
-0.4142135623730951
 10
0.0560876809724572
 20
140.0
 10
87.056087680972468
 20
140.0
 42
-0.4142135623730951
 10
111.0560876809724
 20
116.0
 10
111.0560876809724
 20
29.000000000000021
 42
-0.4142135623730951
 10
87.056087680972468
 20
5.0000000000000133
 10
0.0560876809724498
 20
5.0000000000000169
 42
-0.4142135623730951
  0
ENDBLK
  5
16E
100
AcDbEntity
  8
0
100
AcDbBlockEnd
  0
ENDSEC
  0
SECTION
  2
ENTITIES
  0
INSERT
  5
16F
100
AcDbEntity
  8
0
 62
256
370
-1
 48
1.0
  6
ByLayer
100
AcDbBlockReference
  2
p3
 10
-0.0000000000004547
 20
-800.0
 30
0.0
 41
1.0
 42
-1.0
 43
1.0
 50
270.0
  0
INSERT
  5
170
100
AcDbEntity
  8
0
 62
256
370
-1
 48
1.0
  6
ByLayer
100
AcDbBlockReference
  2
p3
 10
600.0
 20
-800.0
 30
0.0
 41
1.0
 42
-1.0
 43
1.0
 50
270.0
  0
INSERT
  5
171
100
AcDbEntity
  8
0
 62
256
370
-1
 48
1.0
  6
ByLayer
100
AcDbBlockReference
  2
carrier
 10
129.99999999999943
 20
-1485.6600000000001
 30
0.0
  0
INSERT
  5
172
100
AcDbEntity
  8
0
 62
256
370
-1
 48
1.0
  6
ByLayer
100
AcDbBlockReference
  2
drawer_back
 10
39.499999999999552
 20
-839.5
 30
0.0
 41
1.0
 42
-1.0
 43
1.0
 50
180.0
  0
INSERT
  5
173
100
AcDbEntity
  8
0
 62
256
370
-1
 48
1.0
  6
ByLayer
100
AcDbBlockReference
  2
drawer_bottom
 10
253.27999999999957
 20
-1569.4400000000001
 30
0.0
 41
1.0
 42
-1.0
 43
1.0
 50
270.0
  0
INSERT
  5
174
100
AcDbEntity
  8
0
 62
256
370
-1
 48
1.0
  6
ByLayer
100
AcDbBlockReference
  2
drawer_left
 10
164.21999999999957
 20
-1265.3399999999999
 30
0.0
  0
INSERT
  5
175
100
AcDbEntity
  8
0
 62
256
370
-1
 48
1.0
  6
ByLayer
100
AcDbBlockReference
  2
drawer_support
 10
935.15999999999997
 20
-1095.0
 30
0.0
 41
1.0
 42
-1.0
 43
1.0
 50
450.0
  0
INSERT
  5
176
100
AcDbEntity
  8
0
 62
256
370
-1
 48
1.0
  6
ByLayer
100
AcDbBlockReference
  2
frame_back
 10
-0.0000000000004547
 20
-800.0
 30
0.0
 41
1.0
 42
-1.0
 43
1.0
 50
180.0
  0
INSERT
  5
177
100
AcDbEntity
  8
0
 62
256
370
-1
 48
1.0
  6
ByLayer
100
AcDbBlockReference
  2
frame_bottom
 10
-0.0000000000005134
 20
-1320.0
 30
0.0
 50
180.0
  0
INSERT
  5
178
100
AcDbEntity
  8
0
 62
256
370
-1
 48
1.0
  6
ByLayer
100
AcDbBlockReference
  2
frame_foot2
 10
656.89396282464111
 20
-1414.760000000017
 30
0.0
 41
1.0
 42
-1.0
 43
1.0
 50
90.000000000000014
  0
INSERT
  5
179
100
AcDbEntity
  8
0
 62
256
370
-1
 48
1.0
  6
ByLayer
100
AcDbBlockReference
  2
frame_foot1
 10
901.45396282464128
 20
-1401.8800000000001
 30
0.0
 50
90.000000000000014
  0
INSERT
  5
17A
100
AcDbEntity
  8
0
 62
256
370
-1
 48
1.0
  6
ByLayer
100
AcDbBlockReference
  2
frame_galvo
 10
641.94000000000028
 20
-1123.8200000000006
 30
0.0
 50
180.0
  0
INSERT
  5
17B
100
AcDbEntity
  8
0
 62
256
370
-1
 48
1.0
  6
ByLayer
100
AcDbBlockReference
  2
frame_top
 10
600.00000000000023
 20
-1320.0
 30
0.0
 50
180.0
  0
INSERT
  5
17C
100
AcDbEntity
  8
0
 62
256
370
-1
 48
1.0
  6
ByLayer
100
AcDbBlockReference
  2
drawer_right
 10
220.49999999999952
 20
-1258.6199999999997
 30
0.0
  0
INSERT
  5
17D
100
AcDbEntity
  8
0
 62
256
370
-1
 48
1.0
  6
ByLayer
100
AcDbBlockReference
  2
drawer_right
 10
707.94000000000005
 20
-1265.3399999999999
 30
0.0
 41
1.0
 42
-1.0
 43
1.0
 50
180.0
  0
INSERT
  5
17E
100
AcDbEntity
  8
0
 62
256
370
-1
 48
1.0
  6
ByLayer
100
AcDbBlockReference
  2
drawer_support
 10
335.15999999999946
 20
-1289.4399999999994
 30
0.0
 50
270.0
  0
INSERT
  5
17F
100
AcDbEntity
  8
0
 62
256
370
-1
 48
1.0
  6
ByLayer
100
AcDbBlockReference
  2
crane_front
 10
656.89396282464133
 20
-1451.8800000000001
 30
0.0
 41
1.0
 42
-1.0
 43
1.0
  0
INSERT
  5
180
100
AcDbEntity
  8
0
 62
256
370
-1
 48
1.0
  6
ByLayer
100
AcDbBlockReference
  2
crane
 10
656.89396282464133
 20
-1461.8800000000001
 30
0.0
 50
180.0
  0
INSERT
  5
181
100
AcDbEntity
  8
0
 62
256
370
-1
 48
1.0
  6
ByLayer
100
AcDbBlockReference
  2
drawer_back
 10
820.50000000000023
 20
-839.5
 30
0.0
  0
INSERT
  5
182
100
AcDbEntity
  8
0
 62
256
370
-1
 48
1.0
  6
ByLayer
100
AcDbBlockReference
  2
frame_front
 10
600.0
 20
-800.0
 30
0.0
  0
INSERT
  5
183
100
AcDbEntity
  8
0
 62
256
370
-1
 48
1.0
  6
ByLayer
100
AcDbBlockReference
  2
frame_left
 10
253.27999999999969
 20
-1320.0
 30
0.0
  0
INSERT
  5
184
100
AcDbEntity
  8
0
 62
256
370
-1
 48
1.0
  6
ByLayer
100
AcDbBlockReference
  2
frame_left
 10
853.2800000000002
 20
-1320.0
 30
0.0
  0
INSERT
  5
185
100
AcDbEntity
  8
0
 62
256
370
-1
 48
1.0
  6
ByLayer
100
AcDbBlockReference
  2
frame_laser
 10
107.93999999999961
 20
-1058.8199999999999
 30
0.0
 41
1.0
 42
-1.0
 43
1.0
  0
INSERT
  5
186
100
AcDbEntity
  8
0
 62
256
370
-1
 48
1.0
  6
ByLayer
100
AcDbBlockReference
  2
carrier_window
 10
853.58000000000015
 20
-491.71999999999991
 30
0.0
 50
180.0
  0
INSERT
  5
187
100
AcDbEntity
  8
0
 62
256
370
-1
 48
1.0
  6
ByLayer
100
AcDbBlockReference
  2
p2
 10
600.0
 20
-300.0
 30
0.0
  0
INSERT
  5
188
100
AcDbEntity
  8
0
 62
256
370
-1
 48
1.0
  6
ByLayer
100
AcDbBlockReference
  2
door
 10
797.29999999999995
 20
-678.83999999999992
 30
0.0
 41
1.0
 42
-1.0
 43
1.0
  0
INSERT
  5
189
100
AcDbEntity
  8
0
 62
256
370
-1
 48
1.0
  6
ByLayer
100
AcDbBlockReference
  2
drawer_right
 10
820.50000000000023
 20
-1258.6199999999999
 30
0.0
  0
INSERT
  5
18A
100
AcDbEntity
  8
0
 62
256
370
-1
 48
1.0
  6
ByLayer
100
AcDbBlockReference
  2
door
 10
600.0
 20
-300.0
 30
0.0
 41
1.0
 42
-1.0
 43
1.0
 50
180.0
  0
INSERT
  5
18B
100
AcDbEntity
  8
0
 62
256
370
-1
 48
1.0
  6
ByLayer
100
AcDbBlockReference
  2
carrier_window
 10
908.93000000000052
 20
-491.72000000000014
 30
0.0
  0
INSERT
  5
18C
100
AcDbEntity
  8
0
 62
256
370
-1
 48
1.0
  6
ByLayer
100
AcDbBlockReference
  2
carrier_window
 10
853.58000000000038
 20
-491.72000000000003
 30
0.0
 41
1.0
 42
-1.0
 43
1.0
 50
180.0
  0
INSERT
  5
18D
100
AcDbEntity
  8
0
 62
256
370
-1
 48
1.0
  6
ByLayer
100
AcDbBlockReference
  2
carrier_window
 10
908.93000000000029
 20
-491.7199999999998
 30
0.0
 41
1.0
 42
-1.0
 43
1.0
  0
INSERT
  5
18E
100
AcDbEntity
  8
0
 62
256
370
-1
 48
1.0
  6
ByLayer
100
AcDbBlockReference
  2
crane_flap
 10
853.58000000000038
 20
-491.71999999999991
 30
0.0
 50
270.0
  0
INSERT
  5
18F
100
AcDbEntity
  8
0
 62
256
370
-1
 48
1.0
  6
ByLayer
100
AcDbBlockReference
  2
crane_flap
 10
853.58000000000015
 20
-491.72000000000003
 30
0.0
 41
1.0
 42
-1.0
 43
1.0
 50
90.000000000000014
  0
INSERT
  5
190
100
AcDbEntity
  8
0
 62
256
370
-1
 48
1.0
  6
ByLayer
100
AcDbBlockReference
  2
drawer_bottom
 10
365.83999999999958
 20
-1569.4400000000001
 30
0.0
 50
270.0
  0
INSERT
  5
191
100
AcDbEntity
  8
0
 62
256
370
-1
 48
1.0
  6
ByLayer
100
AcDbBlockReference
  2
p2
 10
-554.49673230914823
 20
-301.92265040694383
 30
0.0
  0
INSERT
  5
192
100
AcDbEntity
  8
0
 62
256
370
-1
 48
1.0
  6
ByLayer
100
AcDbBlockReference
  2
p2
 10
0.0
 20
-300.0
 30
0.0
  0
INSERT
  5
193
100
AcDbEntity
  8
0
 62
256
370
-1
 48
1.0
  6
ByLayer
100
AcDbBlockReference
  2
inner_tray_wall
 10
-340.8071438894915
 20
-629.47689568996293
 30
0.0
  0
INSERT
  5
194
100
AcDbEntity
  8
0
 62
256
370
-1
 48
1.0
  6
ByLayer
100
AcDbBlockReference
  2
inner_tray_wall
 10
-485.8071438894915
 20
-629.47689568996293
 30
0.0
  0
INSERT
  5
195
100
AcDbEntity
  8
0
 62
256
370
-1
 48
1.0
  6
ByLayer
100
AcDbBlockReference
  2
inner_tray_wall
 10
70.430750819946553
 20
-487.21168062688974
 30
0.0
  0
INSERT
  5
196
100
AcDbEntity
  8
0
 62
256
370
-1
 48
1.0
  6
ByLayer
100
AcDbBlockReference
  2
inner_tray_wall
 10
215.43075081994658
 20
-487.21168062688974
 30
0.0
  0
INSERT
  5
197
100
AcDbEntity
  8
0
 62
256
370
-1
 48
1.0
  6
ByLayer
100
AcDbBlockReference
  2
inner_tray_wall
 10
70.430750819946525
 20
-632.2116806268898
 30
0.0
  0
INSERT
  5
198
100
AcDbEntity
  8
0
 62
256
370
-1
 48
1.0
  6
ByLayer
100
AcDbBlockReference
  2
inner_tray_top
 10
261.98683850091891
 20
-577.7116806268898
 30
0.0
 41
1.0
 42
-1.0
 43
1.0
 50
180.0
  0
INSERT
  5
199
100
AcDbEntity
  8
0
 62
256
370
-1
 48
1.0
  6
ByLayer
100
AcDbBlockReference
  2
p1
 10
0.0
 20
0.0
 30
0.0
  0
INSERT
  5
19A
100
AcDbEntity
  8
0
 62
256
370
-1
 48
1.0
  6
ByLayer
100
AcDbBlockReference
  2
inner_tray_bottom
 10
-292.251056208519
 20
-409.47689568996293
 30
0.0
  0
INSERT
  5
19B
100
AcDbEntity
  8
0
 62
256
370
-1
 48
1.0
  6
ByLayer
100
AcDbBlockReference
  2
inner_tray_bottom
 10
-442.251056208519
 20
-409.47689568996293
 30
0.0
  0
INSERT
  5
19C
100
AcDbEntity
  8
0
 62
256
370
-1
 48
1.0
  6
ByLayer
100
AcDbBlockReference
  2
inner_tray_bottom
 10
90.0
 20
-90.0
 30
0.0
  0
INSERT
  5
19D
100
AcDbEntity
  8
0
 62
256
370
-1
 48
1.0
  6
ByLayer
100
AcDbBlockReference
  2
p1
 10
600.0
 20
0.0
 30
0.0
  0
INSERT
  5
19E
100
AcDbEntity
  8
0
 62
256
370
-1
 48
1.0
  6
ByLayer
100
AcDbBlockReference
  2
inner_tray_clear
 10
690.0
 20
-90.0
 30
0.0
  0
INSERT
  5
19F
100
AcDbEntity
  8
0
 62
256
370
-1
 48
1.0
  6
ByLayer
100
AcDbBlockReference
  2
crane_front
 10
656.89396282464133
 20
-1531.8800000000001
 30
0.0
  0
INSERT
  5
1A0
100
AcDbEntity
  8
0
 62
256
370
-1
 48
1.0
  6
ByLayer
100
AcDbBlockReference
  2
inner_tray_clear
 10
260.67140053427738
 20
-578.14682063219766
 30
0.0
  0
ENDSEC
  0
SECTION
  2
OBJECTS
  0
DICTIONARY
  5
C
100
AcDbDictionary
280
0
281
1
  3
ACAD_GROUP
350
D
  3
ACAD_LAYOUT
350
1A
  3
ACAD_MLINESTYLE
350
17
  3
ACAD_PLOTSETTINGS
350
19
  3
ACAD_PLOTSTYLENAME
350
E
  3
AcDbVariableDictionary
350
1A1
  3
QCAD_OBJECTS
350
1A2
  0
DICTIONARY
  5
D
100
AcDbDictionary
280
0
281
1
  0
ACDBDICTIONARYWDFLT
  5
E
100
AcDbDictionary
281
1
  3
Normal
350
F
100
AcDbDictionaryWithDefault
340
F
  0
ACDBPLACEHOLDER
  5
F
  0
DICTIONARY
  5
17
100
AcDbDictionary
280
0
281
1
  3
Standard
350
18
  0
MLINESTYLE
  5
18
100
AcDbMlineStyle
  2
STANDARD
 70
0
  3

 62
256
 51
90.0
 52
90.0
 71
2
 49
0.5
 62
256
  6
BYLAYER
 49
-0.5
 62
256
  6
BYLAYER
  0
DICTIONARY
  5
19
100
AcDbDictionary
280
0
281
1
  0
DICTIONARY
  5
1A
100
AcDbDictionary
281
1
  3
Layout1
350
1E
  3
Layout2
350
26
  3
Model
350
22
  0
LAYOUT
  5
1E
100
AcDbPlotSettings
  1

  2
none_device
  4

  6

 40
0.0
 41
0.0
 42
0.0
 43
0.0
 44
0.0
 45
0.0
 46
0.0
 47
0.0
 48
0.0
 49
0.0
140
0.0
141
0.0
142
1.0
143
1.0
 70
688
 72
0
 73
0
 74
5
  7

 75
16
147
1.0
148
0.0
149
0.0
100
AcDbLayout
  1
Layout1
 70
1
 71
1
 10
0.0
 20
0.0
 11
420.0
 21
297.0
 12
0.0
 22
0.0
 32
0.0
 14
100000000000000000000.0
 24
100000000000000000000.0
 34
100000000000000000000.0
 15
-100000000000000000000.0
 25
-100000000000000000000.0
 35
-100000000000000000000.0
146
0.0
 13
0.0
 23
0.0
 33
0.0
 16
1.0
 26
0.0
 36
0.0
 17
0.0
 27
1.0
 37
0.0
 76
0
330
1B
  0
LAYOUT
  5
22
100
AcDbPlotSettings
  1

  2
none_device
  4

  6

 40
0.0
 41
0.0
 42
0.0
 43
0.0
 44
0.0
 45
0.0
 46
0.0
 47
0.0
 48
0.0
 49
0.0
140
0.0
141
0.0
142
1.0
143
1.0
 70
1712
 72
0
 73
0
 74
0
  7

 75
0
147
1.0
148
0.0
149
0.0
100
AcDbLayout
  1
Model
 70
1
 71
0
 10
0.0
 20
0.0
 11
12.0
 21
9.0
 12
0.0
 22
0.0
 32
0.0
 14
0.0
 24
0.0
 34
0.0
 15
0.0
 25
0.0
 35
0.0
146
0.0
 13
0.0
 23
0.0
 33
0.0
 16
1.0
 26
0.0
 36
0.0
 17
0.0
 27
1.0
 37
0.0
 76
0
330
1F
  0
LAYOUT
  5
26
100
AcDbPlotSettings
  1

  2
none_device
  4

  6

 40
0.0
 41
0.0
 42
0.0
 43
0.0
 44
0.0
 45
0.0
 46
0.0
 47
0.0
 48
0.0
 49
0.0
140
0.0
141
0.0
142
1.0
143
1.0
 70
688
 72
0
 73
0
 74
5
  7

 75
16
147
1.0
148
0.0
149
0.0
100
AcDbLayout
  1
Layout2
 70
1
 71
2
 10
0.0
 20
0.0
 11
12.0
 21
9.0
 12
0.0
 22
0.0
 32
0.0
 14
0.0
 24
0.0
 34
0.0
 15
0.0
 25
0.0
 35
0.0
146
0.0
 13
0.0
 23
0.0
 33
0.0
 16
1.0
 26
0.0
 36
0.0
 17
0.0
 27
1.0
 37
0.0
 76
0
330
23
  0
DICTIONARY
  5
1A1
100
AcDbDictionary
281
1
  3
DIMASSOC
350
1A4
  3
HIDETEXT
350
1A3
  0
DICTIONARYVAR
  5
1A3
100
DictionaryVariables
280
0
  1
2
  0
DICTIONARYVAR
  5
1A4
100
DictionaryVariables
280
0
  1
1
  0
DICTIONARY
  5
1A2
100
AcDbDictionary
281
1
  3
ColorSettings/BackgroundColor
350
1A5
  3
ColorSettings/ColorMode
350
1A6
  3
Grid/DisplayGrid00
350
1A7
  3
Grid/DisplayGrid01
350
1A8
  3
Grid/DisplayGrid02
350
1A9
  3
Grid/DisplayGrid03
350
1AA
  3
Grid/GridSpacingX00
350
1AB
  3
Grid/GridSpacingX01
350
1AC
  3
Grid/GridSpacingX02
350
1AD
  3
Grid/GridSpacingX03
350
1AE
  3
Grid/GridSpacingY00
350
1AF
  3
Grid/GridSpacingY01
350
1B0
  3
Grid/GridSpacingY02
350
1B1
  3
Grid/GridSpacingY03
350
1B2
  3
Grid/IsometricGrid00
350
1B3
  3
Grid/IsometricGrid01
350
1B4
  3
Grid/IsometricGrid02
350
1B5
  3
Grid/IsometricGrid03
350
1B6
  3
Grid/IsometricProjection00
350
1B7
  3
Grid/IsometricProjection01
350
1B8
  3
Grid/IsometricProjection02
350
1B9
  3
Grid/IsometricProjection03
350
1BA
  3
Grid/MetaGridSpacingX00
350
1BB
  3
Grid/MetaGridSpacingX01
350
1BC
  3
Grid/MetaGridSpacingX02
350
1BD
  3
Grid/MetaGridSpacingX03
350
1BE
  3
Grid/MetaGridSpacingY00
350
1BF
  3
Grid/MetaGridSpacingY01
350
1C0
  3
Grid/MetaGridSpacingY02
350
1C1
  3
Grid/MetaGridSpacingY03
350
1C2
  3
MultiPageSettings/Columns
350
1C3
  3
MultiPageSettings/GlueMarginsBottom
350
1C4
  3
MultiPageSettings/GlueMarginsLeft
350
1C5
  3
MultiPageSettings/GlueMarginsRight
350
1C6
  3
MultiPageSettings/GlueMarginsTop
350
1C7
  3
MultiPageSettings/PrintCropMarks
350
1C8
  3
MultiPageSettings/Rows
350
1C9
  3
PageSettings/OffsetX
350
1CA
  3
PageSettings/OffsetY
350
1CB
  3
PageSettings/PageOrientation
350
1CC
  3
PageSettings/PaperHeight
350
1CD
  3
PageSettings/PaperWidth
350
1CE
  3
PageSettings/Scale
350
1CF
  3
PageSettings/ShowPaperBorders
350
1D0
  3
QCADVersion
350
1D1
  3
UnitSettings/PaperUnit
350
1D2
  3
ViewportCenter
350
1D3
  3
ViewportHeight
350
1D4
  3
ViewportWidth
350
1D5
  0
XRECORD
  5
1A5
330
1A2
100
AcDbXrecord
280
1
1000
White
  0
XRECORD
  5
1A6
330
1A2
100
AcDbXrecord
280
1
1000
FullColor
  0
XRECORD
  5
1A7
330
1A2
100
AcDbXrecord
280
1
290
1
  0
XRECORD
  5
1A8
330
1A2
100
AcDbXrecord
280
1
290
1
  0
XRECORD
  5
1A9
330
1A2
100
AcDbXrecord
280
1
290
1
  0
XRECORD
  5
1AA
330
1A2
100
AcDbXrecord
280
1
290
1
  0
XRECORD
  5
1AB
330
1A2
100
AcDbXrecord
280
1
1000
auto
  0
XRECORD
  5
1AC
330
1A2
100
AcDbXrecord
280
1
1000
auto
  0
XRECORD
  5
1AD
330
1A2
100
AcDbXrecord
280
1
1000
auto
  0
XRECORD
  5
1AE
330
1A2
100
AcDbXrecord
280
1
1000
auto
  0
XRECORD
  5
1AF
330
1A2
100
AcDbXrecord
280
1
1000
auto
  0
XRECORD
  5
1B0
330
1A2
100
AcDbXrecord
280
1
1000
auto
  0
XRECORD
  5
1B1
330
1A2
100
AcDbXrecord
280
1
1000
auto
  0
XRECORD
  5
1B2
330
1A2
100
AcDbXrecord
280
1
1000
auto
  0
XRECORD
  5
1B3
330
1A2
100
AcDbXrecord
280
1
290
0
  0
XRECORD
  5
1B4
330
1A2
100
AcDbXrecord
280
1
290
0
  0
XRECORD
  5
1B5
330
1A2
100
AcDbXrecord
280
1
290
0
  0
XRECORD
  5
1B6
330
1A2
100
AcDbXrecord
280
1
290
0
  0
XRECORD
  5
1B7
330
1A2
100
AcDbXrecord
280
1
 90
0
  0
XRECORD
  5
1B8
330
1A2
100
AcDbXrecord
280
1
 90
0
  0
XRECORD
  5
1B9
330
1A2
100
AcDbXrecord
280
1
 90
0
  0
XRECORD
  5
1BA
330
1A2
100
AcDbXrecord
280
1
 90
0
  0
XRECORD
  5
1BB
330
1A2
100
AcDbXrecord
280
1
1000
auto
  0
XRECORD
  5
1BC
330
1A2
100
AcDbXrecord
280
1
1000
auto
  0
XRECORD
  5
1BD
330
1A2
100
AcDbXrecord
280
1
1000
auto
  0
XRECORD
  5
1BE
330
1A2
100
AcDbXrecord
280
1
1000
auto
  0
XRECORD
  5
1BF
330
1A2
100
AcDbXrecord
280
1
1000
auto
  0
XRECORD
  5
1C0
330
1A2
100
AcDbXrecord
280
1
1000
auto
  0
XRECORD
  5
1C1
330
1A2
100
AcDbXrecord
280
1
1000
auto
  0
XRECORD
  5
1C2
330
1A2
100
AcDbXrecord
280
1
1000
auto
  0
XRECORD
  5
1C3
330
1A2
100
AcDbXrecord
280
1
 90
1
  0
XRECORD
  5
1C4
330
1A2
100
AcDbXrecord
280
1
 40
10.0
  0
XRECORD
  5
1C5
330
1A2
100
AcDbXrecord
280
1
 40
10.0
  0
XRECORD
  5
1C6
330
1A2
100
AcDbXrecord
280
1
 40
10.0
  0
XRECORD
  5
1C7
330
1A2
100
AcDbXrecord
280
1
 40
10.0
  0
XRECORD
  5
1C8
330
1A2
100
AcDbXrecord
280
1
290
0
  0
XRECORD
  5
1C9
330
1A2
100
AcDbXrecord
280
1
 90
1
  0
XRECORD
  5
1CA
330
1A2
100
AcDbXrecord
280
1
 40
0.0
  0
XRECORD
  5
1CB
330
1A2
100
AcDbXrecord
280
1
 40
0.0
  0
XRECORD
  5
1CC
330
1A2
100
AcDbXrecord
280
1
1000
Portrait
  0
XRECORD
  5
1CD
330
1A2
100
AcDbXrecord
280
1
 40
297.0
  0
XRECORD
  5
1CE
330
1A2
100
AcDbXrecord
280
1
 40
210.0
  0
XRECORD
  5
1CF
330
1A2
100
AcDbXrecord
280
1
1000
1:1
  0
XRECORD
  5
1D0
330
1A2
100
AcDbXrecord
280
1
290
1
  0
XRECORD
  5
1D1
330
1A2
100
AcDbXrecord
280
1
1000
3.20.1
  0
XRECORD
  5
1D2
330
1A2
100
AcDbXrecord
280
1
 90
4
  0
XRECORD
  5
1D4
330
1A2
100
AcDbXrecord
280
1
 40
354.68745508484062
  0
XRECORD
  5
1D5
330
1A2
100
AcDbXrecord
280
1
 40
521.22166018658004
  0
ENDSEC
  0
EOF
