999
dxflib 3.12.2.0
  0
SECTION
  2
HEADER
  9
$ACADVER
  1
AC1015
  9
$HANDSEED
  5
FFFF
  9
$ANGBASE
 50
0.0
  9
$ATTMODE
 70
1
  9
$AUNITS
 70
0
  9
$AUPREC
 70
0
  9
$CELTSCALE
 40
1.0
  9
$CHAMFERA
 40
0.0
  9
$CHAMFERB
 40
0.0
  9
$CHAMFERC
 40
0.0
  9
$CHAMFERD
 40
0.0
  9
$CMLJUST
 70
0
  9
$CMLSCALE
 40
1.0
  9
$DIMADEC
 70
0
  9
$DIMALTD
 70
2
  9
$DIMALTF
 40
25.399999999999999
  9
$DIMALTRND
 40
0.0
  9
$DIMALTTD
 70
2
  9
$DIMALTTZ
 70
0
  9
$DIMALTU
 70
2
  9
$DIMALTZ
 70
0
  9
$DIMAPOST
  1

  9
$DIMASZ
 40
2.5
  9
$DIMATFIT
 70
3
  9
$DIMAUNIT
 70
0
  9
$DIMAZIN
 70
2
  9
$DIMCEN
 40
0.09
  9
$DIMDEC
 70
4
  9
$DIMDLE
 40
0.0
  9
$DIMDLI
 40
0.38
  9
$DIMDSEP
 70
46
  9
$DIMEXE
 40
1.25
  9
$DIMEXO
 40
0.625
  9
$DIMFRAC
 70
0
  9
$DIMGAP
 40
0.625
  9
$DIMJUST
 70
0
  9
$DIMLFAC
 40
1.0
  9
$DIMLUNIT
 70
2
  9
$DIMLWD
 70
-2
  9
$DIMLWE
 70
-2
  9
$DIMPOST
  1

  9
$DIMRND
 40
0.0
  9
$DIMSCALE
 40
1.0
  9
$DIMTAD
 70
0
  9
$DIMTDEC
 70
4
  9
$DIMTFAC
 40
1.0
  9
$DIMTM
 40
0.0
  9
$DIMTOLJ
 70
1
  9
$DIMTP
 40
0.0
  9
$DIMTSZ
 40
0.0
  9
$DIMTVP
 40
0.0
  9
$DIMTXT
 40
2.5
  9
$DIMTZIN
 70
0
  9
$DIMZIN
 70
8
  9
$DWGCODEPAGE
  3
ANSI_1252
  9
$ELEVATION
 40
0.0
  9
$EXTMAX
 10
-100000000000000000000.0
 20
-100000000000000000000.0
 30
-100000000000000000000.0
  9
$EXTMIN
 10
100000000000000000000.0
 20
100000000000000000000.0
 30
100000000000000000000.0
  9
$FILLETRAD
 40
0.5
  9
$INSBASE
 10
0.0
 20
0.0
 30
0.0
  9
$INSUNITS
 70
4
  9
$LIMMAX
 10
12.0
 20
9.0
  9
$LIMMIN
 10
0.0
 20
0.0
  9
$LTSCALE
 40
1.0
  9
$LUNITS
 70
2
  9
$LUPREC
 70
4
  9
$MAXACTVP
 70
2
  9
$MEASUREMENT
 70
1
  9
$PDMODE
 70
0
  9
$PDSIZE
 40
0.0
  9
$PELEVATION
 40
0.0
  9
$PEXTMAX
 10
-100000000000000000000.0
 20
-100000000000000000000.0
 30
-100000000000000000000.0
  9
$PEXTMIN
 10
100000000000000000000.0
 20
100000000000000000000.0
 30
100000000000000000000.0
  9
$PINSBASE
 10
0.0
 20
0.0
 30
0.0
  9
$PLIMMAX
 10
420.0
 20
297.0
  9
$PLIMMIN
 10
0.0
 20
0.0
  9
$PLINEWID
 40
0.0
  9
$PROXYGRAPHICS
 70
1
  9
$PUCSORG
 10
0.0
 20
0.0
 30
0.0
  9
$PUCSXDIR
 10
1.0
 20
0.0
 30
0.0
  9
$PUCSYDIR
 10
0.0
 20
1.0
 30
0.0
  9
$SHADEDGE
 70
3
  9
$SHADEDIF
 70
70
  9
$SKETCHINC
 40
0.1
  9
$SPLINESEGS
 70
8
  9
$SPLINETYPE
 70
6
  9
$SURFTAB1
 70
6
  9
$SURFTAB2
 70
6
  9
$SURFTYPE
 70
6
  9
$SURFU
 70
6
  9
$SURFV
 70
6
  9
$TEXTSIZE
 40
2.5
  9
$THICKNESS
 40
0.0
  9
$TRACEWID
 40
0.05
  9
$TREEDEPTH
 70
3020
  9
$UCSORG
 10
0.0
 20
0.0
 30
0.0
  9
$UCSXDIR
 10
1.0
 20
0.0
 30
0.0
  9
$UCSYDIR
 10
0.0
 20
1.0
 30
0.0
  9
$UNITMODE
 70
0
  9
$USERI1
 70
0
  9
$USERI2
 70
0
  9
$USERI3
 70
0
  9
$USERI4
 70
0
  9
$USERI5
 70
0
  9
$USERR1
 40
0.0
  9
$USERR2
 40
0.0
  9
$USERR3
 40
0.0
  9
$USERR4
 40
0.0
  9
$USERR5
 40
0.0
  0
ENDSEC
  0
SECTION
  2
TABLES
  0
TABLE
  2
VPORT
  5
8
100
AcDbSymbolTable
 70
1
  0
VPORT
  5
30
100
AcDbSymbolTableRecord
100
AcDbViewportTableRecord
  2
*Active
 70
0
 10
0.0
 20
0.0
 11
1.0
 21
1.0
 12
286.30555555555549
 22
148.5
 13
0.0
 23
0.0
 14
10.0
 24
10.0
 15
10.0
 25
10.0
 16
0.0
 26
0.0
 36
1.0
 17
0.0
 27
0.0
 37
0.0
 40
297.0
 41
1.92798353909465
 42
50.0
 43
0.0
 44
0.0
 50
0.0
 51
0.0
 71
0
 72
100
 73
1
 74
3
 75
1
 76
1
 77
0
 78
0
281
0
 65
1
110
0.0
120
0.0
130
0.0
111
1.0
121
0.0
131
0.0
112
0.0
122
1.0
132
0.0
 79
0
146
0.0
  0
ENDTAB
  0
TABLE
  2
LTYPE
  5
5
100
AcDbSymbolTable
 70
50
  0
LTYPE
  5
16
100
AcDbSymbolTableRecord
100
AcDbLinetypeTableRecord
  2
Continuous
 70
0
  3
Solid line
 72
65
 73
0
 40
0.0
  0
LTYPE
  5
31
100
AcDbSymbolTableRecord
100
AcDbLinetypeTableRecord
  2
ACAD_ISO15W100
 70
0
  3
ISO double-dash triple-dot __ __ . . . __ __ . .
 72
65
 73
10
 40
39.000000000000007
 49
12.0
 74
0
 49
-3.0
 74
0
 49
12.0
 74
0
 49
-2.9500000000000002
 74
0
 49
0.1
 74
0
 49
-2.8999999999999999
 74
0
 49
0.1
 74
0
 49
-2.8999999999999999
 74
0
 49
0.1
 74
0
 49
-2.9500000000000002
 74
0
  0
LTYPE
  5
32
100
AcDbSymbolTableRecord
100
AcDbLinetypeTableRecord
  2
PHANTOMX2
 70
0
  3
Phantom (2x) ____________    ____    ____   _
 72
65
 73
6
 40
127.00000000000001
 49
63.5
 74
0
 49
-12.699999999999999
 74
0
 49
12.699999999999999
 74
0
 49
-12.699999999999999
 74
0
 49
12.699999999999999
 74
0
 49
-12.699999999999999
 74
0
  0
LTYPE
  5
33
100
AcDbSymbolTableRecord
100
AcDbLinetypeTableRecord
  2
DASHDOT2
 70
0
  3
Dash dot (.5x) _._._._._._._._._._._._._._._.
 72
65
 73
4
 40
12.699999999999999
 49
6.3499999999999996
 74
0
 49
-3.125
 74
0
 49
0.1
 74
0
 49
-3.125
 74
0
  0
LTYPE
  5
34
100
AcDbSymbolTableRecord
100
AcDbLinetypeTableRecord
  2
CENTERX2
 70
0
  3
Center (2x) ________  __  ________  __  _____
 72
65
 73
4
 40
101.60000000000001
 49
63.5
 74
0
 49
-12.699999999999999
 74
0
 49
12.699999999999999
 74
0
 49
-12.699999999999999
 74
0
  0
LTYPE
  5
35
100
AcDbSymbolTableRecord
100
AcDbLinetypeTableRecord
  2
BORDER2
 70
0
  3
Border (.5x) __.__.__.__.__.__.__.__.__.__.__.
 72
65
 73
6
 40
22.225000000000001
 49
6.3499999999999996
 74
0
 49
-3.1749999999999998
 74
0
 49
6.3499999999999996
 74
0
 49
-3.125
 74
0
 49
0.1
 74
0
 49
-3.125
 74
0
  0
LTYPE
  5
36
100
AcDbSymbolTableRecord
100
AcDbLinetypeTableRecord
  2
ACAD_ISO02W100
 70
0
  3
ISO dash __ __ __ __ __ __ __ __ __ __ __ __ __
 72
65
 73
2
 40
15.0
 49
12.0
 74
0
 49
-3.0
 74
0
  0
LTYPE
  5
37
100
AcDbSymbolTableRecord
100
AcDbLinetypeTableRecord
  2
DOTX2
 70
0
  3
Dot (2x) .  .  .  .  .  .  .  .  .  .  .  .  .  .
 72
65
 73
2
 40
12.699999999999999
 49
0.1
 74
0
 49
-12.6
 74
0
  0
LTYPE
  5
38
100
AcDbSymbolTableRecord
100
AcDbLinetypeTableRecord
  2
ACAD_ISO12W100
 70
0
  3
ISO dash double-dot __ . . __ . . __ . . __ . . 
 72
65
 73
6
 40
21.0
 49
12.0
 74
0
 49
-2.9500000000000002
 74
0
 49
0.1
 74
0
 49
-2.8999999999999999
 74
0
 49
0.1
 74
0
 49
-2.9500000000000002
 74
0
  0
LTYPE
  5
39
100
AcDbSymbolTableRecord
100
AcDbLinetypeTableRecord
  2
DIVIDEX2
 70
0
  3
Divide (2x) ________  .  .  ________  .  .  _
 72
65
 73
6
 40
63.5
 49
25.399999999999999
 74
0
 49
-12.65
 74
0
 49
0.1
 74
0
 49
-12.6
 74
0
 49
0.1
 74
0
 49
-12.65
 74
0
  0
LTYPE
  5
3A
100
AcDbSymbolTableRecord
100
AcDbLinetypeTableRecord
  2
CENTER
 70
0
  3
Center ____ _ ____ _ ____ _ ____ _ ____ _ ____
 72
65
 73
4
 40
50.800000000000004
 49
31.75
 74
0
 49
-6.3499999999999996
 74
0
 49
6.3499999999999996
 74
0
 49
-6.3499999999999996
 74
0
  0
LTYPE
  5
3B
100
AcDbSymbolTableRecord
100
AcDbLinetypeTableRecord
  2
HOT_WATER_SUPPLY
 70
0
  3
Hot water supply ---- HW ---- HW ---- HW ----
 72
65
 73
3
 40
22.859999999999999
 49
12.699999999999999
 74
0
 49
-5.0800000000000001
 74
0
 49
-5.0800000000000001
 74
0
  0
LTYPE
  5
3C
100
AcDbSymbolTableRecord
100
AcDbLinetypeTableRecord
  2
DRAINAGE
 70
0
  3
Drainage ---->---->---->----
 72
65
 73
2
 40
10.16
 49
5.0800000000000001
 74
0
 49
5.0800000000000001
 74
0
  0
LTYPE
  5
3D
100
AcDbSymbolTableRecord
100
AcDbLinetypeTableRecord
  2
BORDER
 70
0
  3
Border __ __ . __ __ . __ __ . __ __ . __ __ .
 72
65
 73
6
 40
44.449999999999996
 49
12.699999999999999
 74
0
 49
-6.3499999999999996
 74
0
 49
12.699999999999999
 74
0
 49
-6.2999999999999998
 74
0
 49
0.1
 74
0
 49
-6.2999999999999998
 74
0
  0
LTYPE
  5
3E
100
AcDbSymbolTableRecord
100
AcDbLinetypeTableRecord
  2
ACAD_ISO04W100
 70
0
  3
ISO long-dash dot ____ . ____ . ____ . ____ . _
 72
65
 73
4
 40
30.0
 49
24.0
 74
0
 49
-2.9500000000000002
 74
0
 49
0.1
 74
0
 49
-2.9500000000000002
 74
0
  0
LTYPE
  5
3F
100
AcDbSymbolTableRecord
100
AcDbLinetypeTableRecord
  2
PHANTOM
 70
0
  3
Phantom ______  __  __  ______  __  __  ______ 
 72
65
 73
6
 40
63.500000000000007
 49
31.75
 74
0
 49
-6.3499999999999996
 74
0
 49
6.3499999999999996
 74
0
 49
-6.3499999999999996
 74
0
 49
6.3499999999999996
 74
0
 49
-6.3499999999999996
 74
0
  0
LTYPE
  5
40
100
AcDbSymbolTableRecord
100
AcDbLinetypeTableRecord
  2
FENCELINE1
 70
0
  3
Fenceline circle ----0-----0----0-----0----0-----0--
 72
65
 73
4
 40
36.829999999999998
 49
6.3499999999999996
 74
0
 49
-2.54
 74
0
 49
-2.54
 74
0
 49
25.399999999999999
 74
0
  0
LTYPE
  5
41
100
AcDbSymbolTableRecord
100
AcDbLinetypeTableRecord
  2
ACAD_ISO14W100
 70
0
  3
ISO dash triple-dot __ . . . __ . . . __ . . . _
 72
65
 73
8
 40
24.0
 49
12.0
 74
0
 49
-2.9500000000000002
 74
0
 49
0.1
 74
0
 49
-2.8999999999999999
 74
0
 49
0.1
 74
0
 49
-2.8999999999999999
 74
0
 49
0.1
 74
0
 49
-2.9500000000000002
 74
0
  0
LTYPE
  5
14
100
AcDbSymbolTableRecord
100
AcDbLinetypeTableRecord
  2
ByBlock
 70
0
  3

 72
65
 73
0
 40
0.0
  0
LTYPE
  5
15
100
AcDbSymbolTableRecord
100
AcDbLinetypeTableRecord
  2
ByLayer
 70
0
  3

 72
65
 73
0
 40
0.0
  0
LTYPE
  5
42
100
AcDbSymbolTableRecord
100
AcDbLinetypeTableRecord
  2
DASHDOT
 70
0
  3
Dash dot __ . __ . __ . __ . __ . __ . __ . __
 72
65
 73
4
 40
25.400000000000002
 49
12.699999999999999
 74
0
 49
-6.2999999999999998
 74
0
 49
0.1
 74
0
 49
-6.2999999999999998
 74
0
  0
LTYPE
  5
43
100
AcDbSymbolTableRecord
100
AcDbLinetypeTableRecord
  2
DOT2
 70
0
  3
Dot (.5x) ........................................
 72
65
 73
2
 40
3.1750000000000003
 49
0.1
 74
0
 49
-3.0750000000000002
 74
0
  0
LTYPE
  5
44
100
AcDbSymbolTableRecord
100
AcDbLinetypeTableRecord
  2
HIDDEN
 70
0
  3
Hidden __ __ __ __ __ __ __ __ __ __ __ __ __ __
 72
65
 73
2
 40
9.5249999999999986
 49
6.3499999999999996
 74
0
 49
-3.1749999999999998
 74
0
  0
LTYPE
  5
45
100
AcDbSymbolTableRecord
100
AcDbLinetypeTableRecord
  2
ACAD_ISO10W100
 70
0
  3
ISO dash dot __ . __ . __ . __ . __ . __ . __ . 
 72
65
 73
4
 40
18.0
 49
12.0
 74
0
 49
-2.9500000000000002
 74
0
 49
0.1
 74
0
 49
-2.9500000000000002
 74
0
  0
LTYPE
  5
46
100
AcDbSymbolTableRecord
100
AcDbLinetypeTableRecord
  2
DASHED2
 70
0
  3
Dashed (.5x) _ _ _ _ _ _ _ _ _ _ _ _ _ _ _ _ _ 
 72
65
 73
2
 40
9.5249999999999986
 49
6.3499999999999996
 74
0
 49
-3.1749999999999998
 74
0
  0
LTYPE
  5
47
100
AcDbSymbolTableRecord
100
AcDbLinetypeTableRecord
  2
DASHDOTX2
 70
0
  3
Dash dot (2x) ____  .  ____  .  ____  .  ___
 72
65
 73
4
 40
50.799999999999997
 49
25.399999999999999
 74
0
 49
-12.65
 74
0
 49
0.1
 74
0
 49
-12.65
 74
0
  0
LTYPE
  5
48
100
AcDbSymbolTableRecord
100
AcDbLinetypeTableRecord
  2
DRAINAGE2
 70
0
  3
Drainage reversed----<----<----<----
 72
65
 73
2
 40
10.16
 49
5.0800000000000001
 74
0
 49
5.0800000000000001
 74
0
  0
LTYPE
  5
49
100
AcDbSymbolTableRecord
100
AcDbLinetypeTableRecord
  2
DIVIDE2
 70
0
  3
Divide (.5x) __..__..__..__..__..__..__..__.._
 72
65
 73
6
 40
15.874999999999998
 49
6.3499999999999996
 74
0
 49
-3.125
 74
0
 49
0.1
 74
0
 49
-3.0750000000000002
 74
0
 49
0.1
 74
0
 49
-3.125
 74
0
  0
LTYPE
  5
4A
100
AcDbSymbolTableRecord
100
AcDbLinetypeTableRecord
  2
ZIGZAG
 70
0
  3
Zig zag /\/\/\/\/\/\/\/\/\/\/\/\/\/\/\/\/\/\/\/\/\/\/\/
 72
65
 73
4
 40
20.32254
 49
0.00254
 74
0
 49
-5.0800000000000001
 74
0
 49
-10.16
 74
0
 49
-5.0800000000000001
 74
0
  0
LTYPE
  5
4B
100
AcDbSymbolTableRecord
100
AcDbLinetypeTableRecord
  2
ACAD_ISO08W100
 70
0
  3
ISO long-dash short-dash ____ __ ____ __ ____ _
 72
65
 73
4
 40
36.0
 49
24.0
 74
0
 49
-3.0
 74
0
 49
6.0
 74
0
 49
-3.0
 74
0
  0
LTYPE
  5
4C
100
AcDbSymbolTableRecord
100
AcDbLinetypeTableRecord
  2
ACAD_ISO13W100
 70
0
  3
ISO double-dash double-dot __ __ . . __ __ . . _
 72
65
 73
8
 40
36.000000000000007
 49
12.0
 74
0
 49
-3.0
 74
0
 49
12.0
 74
0
 49
-2.9500000000000002
 74
0
 49
0.1
 74
0
 49
-2.8999999999999999
 74
0
 49
0.1
 74
0
 49
-2.9500000000000002
 74
0
  0
LTYPE
  5
4D
100
AcDbSymbolTableRecord
100
AcDbLinetypeTableRecord
  2
HIDDEN2
 70
0
  3
Hidden (.5x) _ _ _ _ _ _ _ _ _ _ _ _ _ _ _ _ _ 
 72
65
 73
2
 40
4.7624999999999993
 49
3.1749999999999998
 74
0
 49
-1.5874999999999999
 74
0
  0
LTYPE
  5
4E
100
AcDbSymbolTableRecord
100
AcDbLinetypeTableRecord
  2
ACAD_ISO06W100
 70
0
  3
ISO long-dash triple-dot ____ ... ____ ... ____
 72
65
 73
8
 40
36.000000000000007
 49
24.0
 74
0
 49
-2.9500000000000002
 74
0
 49
0.1
 74
0
 49
-2.8999999999999999
 74
0
 49
0.1
 74
0
 49
-2.8999999999999999
 74
0
 49
0.1
 74
0
 49
-2.9500000000000002
 74
0
  0
LTYPE
  5
4F
100
AcDbSymbolTableRecord
100
AcDbLinetypeTableRecord
  2
DASHEDX2
 70
0
  3
Dashed (2x) ____  ____  ____  ____  ____  ___
 72
65
 73
2
 40
38.099999999999994
 49
25.399999999999999
 74
0
 49
-12.699999999999999
 74
0
  0
LTYPE
  5
50
100
AcDbSymbolTableRecord
100
AcDbLinetypeTableRecord
  2
ACAD_ISO07W100
 70
0
  3
ISO dot . . . . . . . . . . . . . . . . . . . . 
 72
65
 73
2
 40
3.0
 49
0.1
 74
0
 49
-2.8999999999999999
 74
0
  0
LTYPE
  5
51
100
AcDbSymbolTableRecord
100
AcDbLinetypeTableRecord
  2
DASHED
 70
0
  3
Dashed __ __ __ __ __ __ __ __ __ __ __ __ __ _
 72
65
 73
2
 40
19.049999999999997
 49
12.699999999999999
 74
0
 49
-6.3499999999999996
 74
0
  0
LTYPE
  5
52
100
AcDbSymbolTableRecord
100
AcDbLinetypeTableRecord
  2
ACAD_ISO09W100
 70
0
  3
ISO long-dash double-short-dash ____ __ __ ____
 72
65
 73
6
 40
45.0
 49
24.0
 74
0
 49
-3.0
 74
0
 49
6.0
 74
0
 49
-3.0
 74
0
 49
6.0
 74
0
 49
-3.0
 74
0
  0
LTYPE
  5
53
100
AcDbSymbolTableRecord
100
AcDbLinetypeTableRecord
  2
DIVIDE
 70
0
  3
Divide ____ . . ____ . . ____ . . ____ . . ____
 72
65
 73
6
 40
31.750000000000004
 49
12.699999999999999
 74
0
 49
-6.2999999999999998
 74
0
 49
0.1
 74
0
 49
-6.25
 74
0
 49
0.1
 74
0
 49
-6.2999999999999998
 74
0
  0
LTYPE
  5
54
100
AcDbSymbolTableRecord
100
AcDbLinetypeTableRecord
  2
BATTING
 70
0
  3
Batting SSSSSSSSSSSSSSSSSSSSSSSSSSSSSSSSSSSSSSSSSSSSSSS
 72
65
 73
4
 40
10.16254
 49
0.00254
 74
0
 49
-2.54
 74
0
 49
-5.0800000000000001
 74
0
 49
-2.54
 74
0
  0
LTYPE
  5
55
100
AcDbSymbolTableRecord
100
AcDbLinetypeTableRecord
  2
FENCELINE2
 70
0
  3
Fenceline square ----[]-----[]----[]-----[]----[]---
 72
65
 73
4
 40
36.829999999999998
 49
6.3499999999999996
 74
0
 49
-2.54
 74
0
 49
-2.54
 74
0
 49
25.399999999999999
 74
0
  0
LTYPE
  5
56
100
AcDbSymbolTableRecord
100
AcDbLinetypeTableRecord
  2
GAS_LINE
 70
0
  3
Gas line ----GAS----GAS----GAS----GAS----GAS----GAS--
 72
65
 73
3
 40
24.130000000000003
 49
12.699999999999999
 74
0
 49
-5.0800000000000001
 74
0
 49
-6.3499999999999996
 74
0
  0
LTYPE
  5
57
100
AcDbSymbolTableRecord
100
AcDbLinetypeTableRecord
  2
PHANTOM2
 70
0
  3
Phantom (.5x) ___ _ _ ___ _ _ ___ _ _ ___ _ _
 72
65
 73
6
 40
31.750000000000004
 49
15.875
 74
0
 49
-3.1749999999999998
 74
0
 49
3.1749999999999998
 74
0
 49
-3.1749999999999998
 74
0
 49
3.1749999999999998
 74
0
 49
-3.1749999999999998
 74
0
  0
LTYPE
  5
58
100
AcDbSymbolTableRecord
100
AcDbLinetypeTableRecord
  2
ACAD_ISO03W100
 70
0
  3
ISO dash space __    __    __    __    __    __
 72
65
 73
2
 40
30.0
 49
12.0
 74
0
 49
-18.0
 74
0
  0
LTYPE
  5
59
100
AcDbSymbolTableRecord
100
AcDbLinetypeTableRecord
  2
TRACKS
 70
0
  3
Tracks -|-|-|-|-|-|-|-|-|-|-|-|-|-|-|-|-|-|-|-|-|-|-|-|-
 72
65
 73
2
 40
7.6200000000000001
 49
3.8100000000000001
 74
0
 49
3.8100000000000001
 74
0
  0
LTYPE
  5
5A
100
AcDbSymbolTableRecord
100
AcDbLinetypeTableRecord
  2
CENTER2
 70
0
  3
Center (.5x) ___ _ ___ _ ___ _ ___ _ ___ _ ___
 72
65
 73
4
 40
28.575000000000003
 49
19.050000000000001
 74
0
 49
-3.1749999999999998
 74
0
 49
3.1749999999999998
 74
0
 49
-3.1749999999999998
 74
0
  0
LTYPE
  5
5B
100
AcDbSymbolTableRecord
100
AcDbLinetypeTableRecord
  2
ACAD_ISO05W100
 70
0
  3
ISO long-dash double-dot ____ .. ____ .. ____ . 
 72
65
 73
6
 40
33.0
 49
24.0
 74
0
 49
-2.9500000000000002
 74
0
 49
0.1
 74
0
 49
-2.8999999999999999
 74
0
 49
0.1
 74
0
 49
-2.9500000000000002
 74
0
  0
LTYPE
  5
5C
100
AcDbSymbolTableRecord
100
AcDbLinetypeTableRecord
  2
BORDERX2
 70
0
  3
Border (2x) ____  ____  .  ____  ____  .  ___
 72
65
 73
6
 40
88.899999999999991
 49
25.399999999999999
 74
0
 49
-12.699999999999999
 74
0
 49
25.399999999999999
 74
0
 49
-12.65
 74
0
 49
0.1
 74
0
 49
-12.65
 74
0
  0
LTYPE
  5
5D
100
AcDbSymbolTableRecord
100
AcDbLinetypeTableRecord
  2
DOT
 70
0
  3
Dot . . . . . . . . . . . . . . . . . . . . . . . .
 72
65
 73
2
 40
6.3499999999999996
 49
0.1
 74
0
 49
-6.25
 74
0
  0
LTYPE
  5
5E
100
AcDbSymbolTableRecord
100
AcDbLinetypeTableRecord
  2
HIDDENX2
 70
0
  3
Hidden (2x) ____ ____ ____ ____ ____ ____ ____ 
 72
65
 73
2
 40
19.049999999999997
 49
12.699999999999999
 74
0
 49
-6.3499999999999996
 74
0
  0
LTYPE
  5
5F
100
AcDbSymbolTableRecord
100
AcDbLinetypeTableRecord
  2
ACAD_ISO11W100
 70
0
  3
ISO double-dash dot __ __ . __ __ . __ __ . __ _
 72
65
 73
6
 40
33.0
 49
12.0
 74
0
 49
-3.0
 74
0
 49
12.0
 74
0
 49
-2.9500000000000002
 74
0
 49
0.1
 74
0
 49
-2.9500000000000002
 74
0
  0
ENDTAB
  0
TABLE
  2
LAYER
  5
2
100
AcDbSymbolTable
 70
2
  0
LAYER
  5
60
100
AcDbSymbolTableRecord
100
AcDbLayerTableRecord
  2
Defpoints
 70
0
 62
7
420
16777215
  6
Continuous
290
0
370
-3
390
F
  0
LAYER
  5
10
100
AcDbSymbolTableRecord
100
AcDbLayerTableRecord
  2
0
 70
0
 62
7
420
16777215
  6
Continuous
370
25
390
F
  0
ENDTAB
  0
TABLE
  2
STYLE
  5
3
100
AcDbSymbolTable
 70
1
  0
STYLE
  5
61
100
AcDbSymbolTableRecord
100
AcDbTextStyleTableRecord
  2
Standard
 70
0
 40
0.0
 41
1.0
 50
0.0
 71
0
 42
2.5
  3

  4

1001
ACAD
1000
txt
1071
0
  0
ENDTAB
  0
TABLE
  2
VIEW
  5
6
100
AcDbSymbolTable
 70
0
  0
ENDTAB
  0
TABLE
  2
UCS
  5
7
100
AcDbSymbolTable
 70
0
  0
ENDTAB
  0
TABLE
  2
APPID
  5
9
100
AcDbSymbolTable
 70
1
  0
APPID
  5
12
100
AcDbSymbolTableRecord
100
AcDbRegAppTableRecord
  2
ACAD
 70
0
  0
APPID
  5
62
100
AcDbSymbolTableRecord
100
AcDbRegAppTableRecord
  2
QCAD
 70
0
  0
ENDTAB
  0
TABLE
  2
DIMSTYLE
  5
A
100
AcDbSymbolTable
 70
1
100
AcDbDimStyleTable
 71
0
  0
DIMSTYLE
105
27
100
AcDbSymbolTableRecord
100
AcDbDimStyleTableRecord
  2
Standard
 41
2.5
 42
0.625
 43
3.75
 44
1.25
 70
0
 73
0
 74
0
 77
1
 78
8
140
2.5
141
2.5
143
0.03937007874016
147
0.625
171
3
172
1
271
2
272
2
274
3
278
44
283
0
284
8
340
61
  0
ENDTAB
  0
TABLE
  2
BLOCK_RECORD
  5
1
100
AcDbSymbolTable
 70
1
  0
BLOCK_RECORD
  5
1F
100
AcDbSymbolTableRecord
100
AcDbBlockTableRecord
  2
*Model_Space
340
22
  0
BLOCK_RECORD
  5
1B
100
AcDbSymbolTableRecord
100
AcDbBlockTableRecord
  2
*Paper_Space
340
1E
  0
BLOCK_RECORD
  5
23
100
AcDbSymbolTableRecord
100
AcDbBlockTableRecord
  2
*Paper_Space0
340
26
  0
BLOCK_RECORD
  5
63
100
AcDbSymbolTableRecord
100
AcDbBlockTableRecord
  2
frame_foot2
340
0
  0
BLOCK_RECORD
  5
64
100
AcDbSymbolTableRecord
100
AcDbBlockTableRecord
  2
crane_flap
340
0
  0
BLOCK_RECORD
  5
65
100
AcDbSymbolTableRecord
100
AcDbBlockTableRecord
  2
crane_back
340
0
  0
BLOCK_RECORD
  5
66
100
AcDbSymbolTableRecord
100
AcDbBlockTableRecord
  2
p3
340
0
  0
BLOCK_RECORD
  5
67
100
AcDbSymbolTableRecord
100
AcDbBlockTableRecord
  2
crane
340
0
  0
BLOCK_RECORD
  5
68
100
AcDbSymbolTableRecord
100
AcDbBlockTableRecord
  2
drawer_left
340
0
  0
BLOCK_RECORD
  5
69
100
AcDbSymbolTableRecord
100
AcDbBlockTableRecord
  2
frame_left
340
0
  0
BLOCK_RECORD
  5
6A
100
AcDbSymbolTableRecord
100
AcDbBlockTableRecord
  2
carrier_drain
340
0
  0
BLOCK_RECORD
  5
6B
100
AcDbSymbolTableRecord
100
AcDbBlockTableRecord
  2
carrier_tray
340
0
  0
BLOCK_RECORD
  5
6C
100
AcDbSymbolTableRecord
100
AcDbBlockTableRecord
  2
frame_right
340
0
  0
BLOCK_RECORD
  5
6D
100
AcDbSymbolTableRecord
100
AcDbBlockTableRecord
  2
drawer_right
340
0
  0
BLOCK_RECORD
  5
6E
100
AcDbSymbolTableRecord
100
AcDbBlockTableRecord
  2
frame_back
340
0
  0
BLOCK_RECORD
  5
6F
100
AcDbSymbolTableRecord
100
AcDbBlockTableRecord
  2
p1
340
0
  0
BLOCK_RECORD
  5
70
100
AcDbSymbolTableRecord
100
AcDbBlockTableRecord
  2
drawer_bottom
340
0
  0
BLOCK_RECORD
  5
71
100
AcDbSymbolTableRecord
100
AcDbBlockTableRecord
  2
frame_front
340
0
  0
BLOCK_RECORD
  5
72
100
AcDbSymbolTableRecord
100
AcDbBlockTableRecord
  2
carrier
340
0
  0
BLOCK_RECORD
  5
73
100
AcDbSymbolTableRecord
100
AcDbBlockTableRecord
  2
crane_front
340
0
  0
BLOCK_RECORD
  5
74
100
AcDbSymbolTableRecord
100
AcDbBlockTableRecord
  2
frame_galvo
340
0
  0
BLOCK_RECORD
  5
75
100
AcDbSymbolTableRecord
100
AcDbBlockTableRecord
  2
carrier_wall
340
0
  0
BLOCK_RECORD
  5
76
100
AcDbSymbolTableRecord
100
AcDbBlockTableRecord
  2
p2
340
0
  0
BLOCK_RECORD
  5
77
100
AcDbSymbolTableRecord
100
AcDbBlockTableRecord
  2
carrier_window
340
0
  0
BLOCK_RECORD
  5
78
100
AcDbSymbolTableRecord
100
AcDbBlockTableRecord
  2
frame_laser
340
0
  0
BLOCK_RECORD
  5
79
100
AcDbSymbolTableRecord
100
AcDbBlockTableRecord
  2
frame_laser_big
340
0
  0
BLOCK_RECORD
  5
7A
100
AcDbSymbolTableRecord
100
AcDbBlockTableRecord
  2
drawer_support
340
0
  0
BLOCK_RECORD
  5
7B
100
AcDbSymbolTableRecord
100
AcDbBlockTableRecord
  2
drawer_back
340
0
  0
BLOCK_RECORD
  5
7C
100
AcDbSymbolTableRecord
100
AcDbBlockTableRecord
  2
frame_foot1
340
0
  0
BLOCK_RECORD
  5
7D
100
AcDbSymbolTableRecord
100
AcDbBlockTableRecord
  2
door
340
0
  0
BLOCK_RECORD
  5
7E
100
AcDbSymbolTableRecord
100
AcDbBlockTableRecord
  2
frame_bottom
340
0
  0
BLOCK_RECORD
  5
7F
100
AcDbSymbolTableRecord
100
AcDbBlockTableRecord
  2
frame_top
340
0
  0
ENDTAB
  0
ENDSEC
  0
SECTION
  2
BLOCKS
  0
BLOCK
  5
20
100
AcDbEntity
  8
0
100
AcDbBlockBegin
  2
*Model_Space
 70
0
 10
0.0
 20
0.0
 30
0.0
  3
*Model_Space
  1

  0
ENDBLK
  5
21
100
AcDbEntity
  8
0
100
AcDbBlockEnd
  0
BLOCK
  5
1C
100
AcDbEntity
 67
1
  8
0
100
AcDbBlockBegin
  2
*Paper_Space
 70
0
 10
0.0
 20
0.0
 30
0.0
  3
*Paper_Space
  1

  0
ENDBLK
  5
1D
100
AcDbEntity
 67
1
  8
0
100
AcDbBlockEnd
  0
BLOCK
  5
24
100
AcDbEntity
  8
0
100
AcDbBlockBegin
  2
*Paper_Space0
 70
0
 10
0.0
 20
0.0
 30
0.0
  3
*Paper_Space0
  1

  0
ENDBLK
  5
25
100
AcDbEntity
  8
0
100
AcDbBlockEnd
  0
BLOCK
  5
80
100
AcDbEntity
  8
0
100
AcDbBlockBegin
  2
frame_foot2
 70
0
 10
0.0
 20
0.0
 30
0.0
  3
frame_foot2
  1

  0
LWPOLYLINE
  5
81
  8
0
 62
256
370
-1
 48
1.0
  6
ByLayer
100
AcDbEntity
100
AcDbPolyline
 90
62
 70
1
 10
-38.679999999999893
 20
-42.779999999999987
 30
0.0
 42
0.4142135623730951
 10
-36.679999999999893
 20
-40.779999999999987
 30
0.0
 10
-36.679999999999893
 20
-36.059999999999981
 30
0.0
 10
-29.959999999999891
 20
-36.059999999999981
 30
0.0
 10
-29.959999999999891
 20
-49.5
 30
0.0
 10
-30.071880662925789
 20
-55.909638886247187
 30
0.0
 10
26.320000000000309
 20
-56.893962824641022
 30
0.0
 10
26.319999999999911
 20
-31.22000000000007
 30
0.0
 10
-13.44000000000011
 20
-31.219999999999999
 30
0.0
 10
-13.44000000000011
 20
-24.499999999999989
 30
0.0
 10
-6.7200000000005096
 20
-24.499999999999989
 30
0.0
 10
0.0
 20
-23.9120761811057
 30
0.0
 10
0.0
 20
0.0
 30
0.0
 10
-141.7999999999997
 20
0.0
 30
0.0
 10
-141.7999999999997
 20
-23.9120761811057
 30
0.0
 10
-135.07999999999939
 20
-24.500000000000028
 30
0.0
 10
-128.3599999999997
 20
-24.500000000000028
 30
0.0
 10
-128.3599999999997
 20
-31.220000000000031
 30
0.0
 10
-168.11999999999969
 20
-31.220000000000031
 30
0.0
 10
-168.11999999999969
 20
-53.499999999999901
 30
0.0
 10
-111.92694112108749
 20
-54.480853491246648
 30
0.0
 10
-111.8399999999998
 20
-49.5
 30
0.0
 10
-111.8399999999998
 20
-36.059999999999981
 30
0.0
 10
-105.11999999999981
 20
-36.059999999999981
 30
0.0
 10
-105.11999999999981
 20
-40.779999999999987
 30
0.0
 42
0.4142135623730951
 10
-103.11999999999981
 20
-42.779999999999987
 30
0.0
 10
-95.288333333332901
 20
-42.77999999999998
 30
0.0
 10
-95.288333333332901
 20
-37.999999999999972
 30
0.0
 10
-96.313333333332906
 20
-37.999999999999972
 30
0.0
 42
-2.414213562373094
 10
-96.563333333332906
 20
-37.749999999999972
 30
0.0
 10
-96.563333333332906
 20
-35.749999999999957
 30
0.0
 42
-2.414213562373094
 10
-96.313333333332906
 20
-35.499999999999972
 30
0.0
 10
-95.288333333332901
 20
-35.499999999999972
 30
0.0
 10
-95.288333333332901
 20
-34.499999999999993
 30
0.0
 10
-92.138333333332895
 20
-34.499999999999993
 30
0.0
 10
-92.138333333332895
 20
-35.499999999999972
 30
0.0
 10
-91.113333333332889
 20
-35.499999999999972
 30
0.0
 42
-2.414213562373094
 10
-90.863333333332918
 20
-35.749999999999972
 30
0.0
 10
-90.863333333332918
 20
-37.749999999999993
 30
0.0
 42
-2.414213562373094
 10
-91.113333333332918
 20
-37.999999999999972
 30
0.0
 10
-92.138333333332895
 20
-37.999999999999972
 30
0.0
 10
-92.138333333332895
 20
-42.77999999999998
 30
0.0
 10
-85.306666666666516
 20
-42.77999999999998
 30
0.0
 10
-85.306666666666516
 20
-49.500000000000028
 30
0.0
 10
-59.493333333333183
 20
-49.500000000000028
 30
0.0
 10
-59.493333333333183
 20
-42.77999999999998
 30
0.0
 10
-49.661666666666527
 20
-42.77999999999998
 30
0.0
 10
-49.661666666666527
 20
-37.999999999999972
 30
0.0
 10
-50.686666666666532
 20
-37.999999999999972
 30
0.0
 42
-2.414213562373094
 10
-50.936666666666532
 20
-37.749999999999972
 30
0.0
 10
-50.936666666666532
 20
-35.749999999999957
 30
0.0
 42
-2.414213562373094
 10
-50.686666666666532
 20
-35.499999999999972
 30
0.0
 10
-49.661666666666527
 20
-35.499999999999972
 30
0.0
 10
-49.661666666666527
 20
-34.499999999999993
 30
0.0
 10
-46.511666666666528
 20
-34.499999999999993
 30
0.0
 10
-46.511666666666528
 20
-35.499999999999972
 30
0.0
 10
-45.486666666666522
 20
-35.499999999999972
 30
0.0
 42
-2.414213562373094
 10
-45.236666666666487
 20
-35.749999999999972
 30
0.0
 10
-45.236666666666487
 20
-37.749999999999993
 30
0.0
 42
-2.414213562373094
 10
-45.486666666666522
 20
-37.999999999999972
 30
0.0
 10
-46.511666666666507
 20
-37.999999999999972
 30
0.0
 10
-46.511666666666528
 20
-42.77999999999998
 30
0.0
  0
CIRCLE
  5
82
100
AcDbEntity
100
AcDbCircle
  8
0
 62
256
370
-1
 48
1.0
  6
ByLayer
 10
-72.399999999999849
 20
-22.000000000000028
 30
0.0
 40
12.5
  0
CIRCLE
  5
83
100
AcDbEntity
100
AcDbCircle
  8
0
 62
256
370
-1
 48
1.0
  6
ByLayer
 10
-121.8399999999998
 20
-6.4999999999999503
 30
0.0
 40
1.9999999999999989
  0
CIRCLE
  5
84
100
AcDbEntity
100
AcDbCircle
  8
0
 62
256
370
-1
 48
1.0
  6
ByLayer
 10
-19.959999999999891
 20
-6.4999999999999147
 30
0.0
 40
1.9999999999999989
  0
ENDBLK
  5
85
100
AcDbEntity
  8
0
100
AcDbBlockEnd
  0
BLOCK
  5
86
100
AcDbEntity
  8
0
100
AcDbBlockBegin
  2
crane_flap
 70
0
 10
0.0
 20
0.0
 30
0.0
  3
crane_flap
  1

  0
LWPOLYLINE
  5
87
  8
0
 62
256
370
-1
 48
1.0
  6
ByLayer
100
AcDbEntity
100
AcDbPolyline
 90
4
 70
1
 10
-177.00000000000011
 20
0.0000000000000391
 30
0.0
 10
0.0
 20
0.0
 30
0.0
 10
0.0
 20
55.350000000000009
 30
0.0
 10
-177.00000000000011
 20
55.350000000000009
 30
0.0
  0
CIRCLE
  5
88
100
AcDbEntity
100
AcDbCircle
  8
0
 62
256
370
-1
 48
1.0
  6
ByLayer
 10
-88.500000000000014
 20
5.0000000000000071
 30
0.0
 40
1.5749999999999971
  0
ENDBLK
  5
89
100
AcDbEntity
  8
0
100
AcDbBlockEnd
  0
BLOCK
  5
8A
100
AcDbEntity
  8
0
100
AcDbBlockBegin
  2
crane_back
 70
0
 10
0.0
 20
0.0
 30
0.0
  3
crane_back
  1

  0
LWPOLYLINE
  5
8B
  8
0
 62
256
370
-1
 48
1.0
  6
ByLayer
100
AcDbEntity
100
AcDbPolyline
 90
84
 70
1
 10
89.355000000000018
 20
-50.0
 30
0.0
 10
155.20500000000001
 20
-50.0
 30
0.0
 10
155.2049999999999
 20
-45.220000000000027
 30
0.0
 10
154.17999999999989
 20
-45.220000000000027
 30
0.0
 42
-2.414213562373094
 10
153.92999999999989
 20
-44.970000000000027
 30
0.0
 10
153.92999999999989
 20
-42.970000000000027
 30
0.0
 42
-2.414213562373094
 10
154.17999999999989
 20
-42.720000000000027
 30
0.0
 10
155.2049999999999
 20
-42.720000000000027
 30
0.0
 10
155.2049999999999
 20
-41.720000000000027
 30
0.0
 10
158.35499999999999
 20
-41.720000000000027
 30
0.0
 10
158.35499999999999
 20
-42.720000000000027
 30
0.0
 10
159.38
 20
-42.720000000000027
 30
0.0
 42
-2.414213562373094
 10
159.63
 20
-42.970000000000027
 30
0.0
 10
159.63
 20
-44.970000000000027
 30
0.0
 42
-2.414213562373094
 10
159.38
 20
-45.220000000000027
 30
0.0
 10
158.35499999999999
 20
-45.220000000000027
 30
0.0
 10
158.35499999999999
 20
-50.0
 30
0.0
 10
169.03
 20
-50.0
 30
0.0
 10
169.03
 20
-56.720000000000027
 30
0.0
 10
179.03
 20
-56.720000000000027
 30
0.0
 10
179.03
 20
-50.0
 30
0.0
 10
224.2049999999999
 20
-50.0
 30
0.0
 10
224.2049999999999
 20
-45.220000000000027
 30
0.0
 10
223.17999999999989
 20
-45.220000000000027
 30
0.0
 42
-2.414213562373094
 10
222.92999999999989
 20
-44.970000000000027
 30
0.0
 10
222.92999999999989
 20
-42.970000000000027
 30
0.0
 42
-2.414213562373094
 10
223.17999999999989
 20
-42.720000000000027
 30
0.0
 10
224.2049999999999
 20
-42.720000000000027
 30
0.0
 10
224.2049999999999
 20
-41.720000000000027
 30
0.0
 10
227.35499999999999
 20
-41.720000000000027
 30
0.0
 10
227.35499999999999
 20
-42.720000000000027
 30
0.0
 10
228.38
 20
-42.720000000000027
 30
0.0
 42
-2.414213562373094
 10
228.63
 20
-42.970000000000027
 30
0.0
 10
228.63
 20
-44.970000000000027
 30
0.0
 42
-2.414213562373094
 10
228.38
 20
-45.220000000000027
 30
0.0
 10
227.35499999999999
 20
-45.220000000000027
 30
0.0
 10
227.35499999999999
 20
-50.0
 30
0.0
 10
244.55999999999989
 20
-50.0
 30
0.0
 10
244.55999999999989
 20
0.0
 30
0.0
 10
169.905
 20
0.0
 30
0.0
 10
169.905
 20
-7.5
 30
0.0
 42
-0.9999999999999998
 10
164.655
 20
-7.5
 30
0.0
 10
164.655
 20
0.0
 30
0.0
 10
79.904999999999973
 20
0.0
 30
0.0
 10
79.904999999999973
 20
-7.5
 30
0.0
 42
-0.9999999999999998
 10
74.654999999999973
 20
-7.5
 30
0.0
 10
74.654999999999973
 20
0.0
 30
0.0
 10
0.0
 20
0.0
 30
0.0
 10
0.0
 20
-50.0
 30
0.0
 10
17.204999999999931
 20
-50.0
 30
0.0
 10
17.204999999999931
 20
-45.220000000000027
 30
0.0
 10
16.17999999999995
 20
-45.220000000000027
 30
0.0
 42
-2.414213562373094
 10
15.92999999999995
 20
-44.970000000000027
 30
0.0
 10
15.92999999999995
 20
-42.970000000000027
 30
0.0
 42
-2.414213562373094
 10
16.17999999999995
 20
-42.720000000000027
 30
0.0
 10
17.204999999999931
 20
-42.720000000000027
 30
0.0
 10
17.204999999999931
 20
-41.720000000000027
 30
0.0
 10
20.355000000000022
 20
-41.720000000000027
 30
0.0
 10
20.355000000000022
 20
-42.720000000000027
 30
0.0
 10
21.379999999999999
 20
-42.720000000000027
 30
0.0
 42
-2.414213562373094
 10
21.629999999999999
 20
-42.970000000000027
 30
0.0
 10
21.629999999999999
 20
-44.970000000000027
 30
0.0
 42
-2.414213562373094
 10
21.379999999999999
 20
-45.220000000000027
 30
0.0
 10
20.355000000000022
 20
-45.220000000000027
 30
0.0
 10
20.355000000000022
 20
-50.0
 30
0.0
 10
65.529999999999973
 20
-50.0
 30
0.0
 10
65.529999999999973
 20
-56.720000000000027
 30
0.0
 10
75.529999999999973
 20
-56.720000000000027
 30
0.0
 10
75.529999999999973
 20
-50.0
 30
0.0
 10
86.205000000000041
 20
-50.0
 30
0.0
 10
86.205000000000041
 20
-45.220000000000027
 30
0.0
 10
85.17999999999995
 20
-45.220000000000027
 30
0.0
 42
-2.414213562373094
 10
84.92999999999995
 20
-44.970000000000027
 30
0.0
 10
84.92999999999995
 20
-42.970000000000027
 30
0.0
 42
-2.414213562373094
 10
85.17999999999995
 20
-42.720000000000027
 30
0.0
 10
86.205000000000041
 20
-42.720000000000027
 30
0.0
 10
86.205000000000041
 20
-41.720000000000027
 30
0.0
 10
89.355000000000018
 20
-41.720000000000027
 30
0.0
 10
89.355000000000018
 20
-42.720000000000027
 30
0.0
 10
90.379999999999995
 20
-42.720000000000027
 30
0.0
 42
-2.414213562373094
 10
90.629999999999995
 20
-42.970000000000027
 30
0.0
 10
90.629999999999995
 20
-44.970000000000027
 30
0.0
 42
-2.414213562373094
 10
90.379999999999995
 20
-45.220000000000027
 30
0.0
 10
89.355000000000018
 20
-45.220000000000027
 30
0.0
  0
ENDBLK
  5
8C
100
AcDbEntity
  8
0
100
AcDbBlockEnd
  0
BLOCK
  5
8D
100
AcDbEntity
  8
0
100
AcDbBlockBegin
  2
p3
 70
0
 10
0.0
 20
0.0
 30
0.0
  3
p3
  1

  0
LINE
  5
8E
100
AcDbEntity
100
AcDbLine
  8
0
 62
256
370
-1
 48
1.0
  6
ByLayer
 10
0.0
 20
0.0
 30
0.0
 11
790.0
 21
0.0
 31
0.0
  0
LINE
  5
8F
100
AcDbEntity
100
AcDbLine
  8
0
 62
256
370
-1
 48
1.0
  6
ByLayer
 10
790.0
 20
0.0
 30
0.0
 11
790.0
 21
-384.0
 31
0.0
  0
LINE
  5
90
100
AcDbEntity
100
AcDbLine
  8
0
 62
256
370
-1
 48
1.0
  6
ByLayer
 10
790.0
 20
-384.0
 30
0.0
 11
0.0
 21
-384.0
 31
0.0
  0
LINE
  5
91
100
AcDbEntity
100
AcDbLine
  8
0
 62
256
370
-1
 48
1.0
  6
ByLayer
 10
0.0
 20
-384.0
 30
0.0
 11
0.0
 21
0.0
 31
0.0
  0
ENDBLK
  5
92
100
AcDbEntity
  8
0
100
AcDbBlockEnd
  0
BLOCK
  5
93
100
AcDbEntity
  8
0
100
AcDbBlockBegin
  2
crane
 70
0
 10
0.0
 20
0.0
 30
0.0
  3
crane
  1

  0
LWPOLYLINE
  5
94
  8
0
 62
256
370
-1
 48
1.0
  6
ByLayer
100
AcDbEntity
100
AcDbPolyline
 90
4
 70
1
 10
-62.529999999999902
 20
0.0
 30
0.0
 10
-75.529999999999902
 20
0.0
 30
0.0
 10
-75.529999999999902
 20
6.7199999999999918
 30
0.0
 10
-62.529999999999902
 20
6.7199999999999918
 30
0.0
  0
LWPOLYLINE
  5
95
  8
0
 62
256
370
-1
 48
1.0
  6
ByLayer
100
AcDbEntity
100
AcDbPolyline
 90
4
 70
1
 10
-65.529999999999902
 20
60.000000000000007
 30
0.0
 10
-65.529999999999902
 20
53.280000000000022
 30
0.0
 10
-75.529999999999902
 20
53.280000000000022
 30
0.0
 10
-75.529999999999902
 20
60.000000000000007
 30
0.0
  0
LWPOLYLINE
  5
96
  8
0
 62
256
370
-1
 48
1.0
  6
ByLayer
100
AcDbEntity
100
AcDbPolyline
 90
4
 70
1
 10
-179.02999999999989
 20
53.280000000000051
 30
0.0
 10
-179.02999999999989
 20
60.000000000000043
 30
0.0
 10
-169.02999999999989
 20
60.000000000000043
 30
0.0
 10
-169.02999999999989
 20
53.280000000000051
 30
0.0
  0
LWPOLYLINE
  5
97
  8
0
 62
256
370
-1
 48
1.0
  6
ByLayer
100
AcDbEntity
100
AcDbPolyline
 90
4
 70
1
 10
-117.2799999999999
 20
6.7200000000000024
 30
0.0
 10
-117.2799999999999
 20
0.000000000000032
 30
0.0
 10
-127.2799999999999
 20
0.000000000000032
 30
0.0
 10
-127.2799999999999
 20
6.7200000000000024
 30
0.0
  0
LWPOLYLINE
  5
98
  8
0
 62
256
370
-1
 48
1.0
  6
ByLayer
100
AcDbEntity
100
AcDbPolyline
 90
4
 70
1
 10
-169.02999999999989
 20
6.7200000000000202
 30
0.0
 10
-169.02999999999989
 20
0.0000000000000213
 30
0.0
 10
-179.02999999999989
 20
0.0000000000000213
 30
0.0
 10
-179.02999999999989
 20
6.7200000000000202
 30
0.0
  0
LWPOLYLINE
  5
99
  8
0
 62
256
370
-1
 48
1.0
  6
ByLayer
100
AcDbEntity
100
AcDbPolyline
 90
12
 70
1
 10
-33.779999999999923
 20
59.999999999999993
 30
0.0
 10
-33.779999999999923
 20
69.999999999999986
 30
0.0
 10
-210.77999999999989
 20
70.000000000000014
 30
0.0
 10
-210.77999999999989
 20
60.000000000000043
 30
0.0
 10
-244.55999999999989
 20
60.000000000000071
 30
0.0
 10
-244.55999999999989
 20
0.0000000000000213
 30
0.0
 10
-210.77999999999989
 20
0.0000000000000213
 30
0.0
 10
-210.77999999999989
 20
-9.9999999999999787
 30
0.0
 10
-33.779999999999887
 20
-9.9999999999999858
 30
0.0
 10
-33.779999999999887
 20
0.0
 30
0.0
 10
0.0
 20
0.0
 30
0.0
 10
0.0
 20
59.999999999999993
 30
0.0
  0
CIRCLE
  5
9A
100
AcDbEntity
100
AcDbCircle
  8
0
 62
256
370
-1
 48
1.0
  6
ByLayer
 10
-122.2799999999999
 20
-4.9999999999999858
 30
0.0
 40
1.9999999999999989
  0
CIRCLE
  5
9B
100
AcDbEntity
100
AcDbCircle
  8
0
 62
256
370
-1
 48
1.0
  6
ByLayer
 10
-122.2799999999999
 20
65.000000000000014
 30
0.0
 40
1.9999999999999989
  0
CIRCLE
  5
9C
100
AcDbEntity
100
AcDbCircle
  8
0
 62
256
370
-1
 48
1.0
  6
ByLayer
 10
-18.780000000000001
 20
56.640000000000001
 30
0.0
 40
1.6499999999999999
  0
CIRCLE
  5
9D
100
AcDbEntity
100
AcDbCircle
  8
0
 62
256
370
-1
 48
1.0
  6
ByLayer
 10
-156.78
 20
56.640000000000057
 30
0.0
 40
1.6499999999999999
  0
CIRCLE
  5
9E
100
AcDbEntity
100
AcDbCircle
  8
0
 62
256
370
-1
 48
1.0
  6
ByLayer
 10
-18.780000000000001
 20
3.360000000000003
 30
0.0
 40
1.6499999999999999
  0
CIRCLE
  5
9F
100
AcDbEntity
100
AcDbCircle
  8
0
 62
256
370
-1
 48
1.0
  6
ByLayer
 10
-156.78
 20
3.3600000000000532
 30
0.0
 40
1.6499999999999999
  0
CIRCLE
  5
A0
100
AcDbEntity
100
AcDbCircle
  8
0
 62
256
370
-1
 48
1.0
  6
ByLayer
 10
-225.77999999999989
 20
3.3600000000000811
 30
0.0
 40
1.6499999999999999
  0
CIRCLE
  5
A1
100
AcDbEntity
100
AcDbCircle
  8
0
 62
256
370
-1
 48
1.0
  6
ByLayer
 10
-87.77999999999993
 20
3.3600000000000212
 30
0.0
 40
1.6499999999999999
  0
CIRCLE
  5
A2
100
AcDbEntity
100
AcDbCircle
  8
0
 62
256
370
-1
 48
1.0
  6
ByLayer
 10
-225.77999999999989
 20
56.640000000000093
 30
0.0
 40
1.6499999999999999
  0
CIRCLE
  5
A3
100
AcDbEntity
100
AcDbCircle
  8
0
 62
256
370
-1
 48
1.0
  6
ByLayer
 10
-87.77999999999993
 20
56.640000000000029
 30
0.0
 40
1.6499999999999999
  0
CIRCLE
  5
A4
100
AcDbEntity
100
AcDbCircle
  8
0
 62
256
370
-1
 48
1.0
  6
ByLayer
 10
-106.7799999999999
 20
45.500000000000021
 30
0.0
 40
1.6499999999999999
  0
CIRCLE
  5
A5
100
AcDbEntity
100
AcDbCircle
  8
0
 62
256
370
-1
 48
1.0
  6
ByLayer
 10
-106.7799999999999
 20
14.50000000000002
 30
0.0
 40
1.6499999999999999
  0
CIRCLE
  5
A6
100
AcDbEntity
100
AcDbCircle
  8
0
 62
256
370
-1
 48
1.0
  6
ByLayer
 10
-137.77999999999989
 20
14.50000000000002
 30
0.0
 40
1.6499999999999999
  0
CIRCLE
  5
A7
100
AcDbEntity
100
AcDbCircle
  8
0
 62
256
370
-1
 48
1.0
  6
ByLayer
 10
-137.77999999999989
 20
45.500000000000021
 30
0.0
 40
1.6499999999999999
  0
CIRCLE
  5
A8
100
AcDbEntity
100
AcDbCircle
  8
0
 62
256
370
-1
 48
1.0
  6
ByLayer
 10
-122.2799999999999
 20
30.000000000000021
 30
0.0
 40
11.5
  0
CIRCLE
  5
A9
100
AcDbEntity
100
AcDbCircle
  8
0
 62
256
370
-1
 48
1.0
  6
ByLayer
 10
-225.77999999999989
 20
30.00000000000006
 30
0.0
 40
7.5
  0
CIRCLE
  5
AA
100
AcDbEntity
100
AcDbCircle
  8
0
 62
256
370
-1
 48
1.0
  6
ByLayer
 10
-234.26528137423841
 20
38.485281374238653
 30
0.0
 40
2.0
  0
CIRCLE
  5
AB
100
AcDbEntity
100
AcDbCircle
  8
0
 62
256
370
-1
 48
1.0
  6
ByLayer
 10
-217.29471862576139
 20
21.5147186257615
 30
0.0
 40
2.0
  0
CIRCLE
  5
AC
100
AcDbEntity
100
AcDbCircle
  8
0
 62
256
370
-1
 48
1.0
  6
ByLayer
 10
-234.26528137423841
 20
21.5147186257615
 30
0.0
 40
2.0
  0
CIRCLE
  5
AD
100
AcDbEntity
100
AcDbCircle
  8
0
 62
256
370
-1
 48
1.0
  6
ByLayer
 10
-217.29471862576131
 20
38.485281374238618
 30
0.0
 40
2.0
  0
CIRCLE
  5
AE
100
AcDbEntity
100
AcDbCircle
  8
0
 62
256
370
-1
 48
1.0
  6
ByLayer
 10
-18.779999999999902
 20
30.00000000000006
 30
0.0
 40
7.5
  0
CIRCLE
  5
AF
100
AcDbEntity
100
AcDbCircle
  8
0
 62
256
370
-1
 48
1.0
  6
ByLayer
 10
-10.2947186257614
 20
38.485281374238653
 30
0.0
 40
2.0
  0
CIRCLE
  5
B0
100
AcDbEntity
100
AcDbCircle
  8
0
 62
256
370
-1
 48
1.0
  6
ByLayer
 10
-27.265281374238459
 20
21.5147186257615
 30
0.0
 40
2.0
  0
CIRCLE
  5
B1
100
AcDbEntity
100
AcDbCircle
  8
0
 62
256
370
-1
 48
1.0
  6
ByLayer
 10
-10.2947186257614
 20
21.5147186257615
 30
0.0
 40
2.0
  0
CIRCLE
  5
B2
100
AcDbEntity
100
AcDbCircle
  8
0
 62
256
370
-1
 48
1.0
  6
ByLayer
 10
-27.26528137423848
 20
38.485281374238618
 30
0.0
 40
2.0
  0
ENDBLK
  5
B3
100
AcDbEntity
  8
0
100
AcDbBlockEnd
  0
BLOCK
  5
B4
100
AcDbEntity
  8
0
100
AcDbBlockBegin
  2
drawer_left
 70
0
 10
0.0
 20
0.0
 30
0.0
  3
drawer_left
  1

  0
LWPOLYLINE
  5
B5
  8
0
 62
256
370
-1
 48
1.0
  6
ByLayer
100
AcDbEntity
100
AcDbPolyline
 90
4
 70
1
 10
-49.559999999999988
 20
97.765000000000043
 30
0.0
 10
-34.559999999999988
 20
97.765000000000043
 30
0.0
 10
-34.559999999999988
 20
84.875000000000057
 30
0.0
 10
-49.559999999999988
 20
84.875000000000085
 30
0.0
  0
LWPOLYLINE
  5
B6
  8
0
 62
256
370
-1
 48
1.0
  6
ByLayer
100
AcDbEntity
100
AcDbPolyline
 90
4
 70
1
 10
-29.559999999999992
 20
114.08499999999999
 30
0.0
 10
-49.560000000000016
 20
114.08499999999999
 30
0.0
 10
-49.560000000000016
 20
129.51499999999999
 30
0.0
 10
-29.559999999999992
 20
129.51499999999999
 30
0.0
  0
LWPOLYLINE
  5
B7
  8
0
 62
256
370
-1
 48
1.0
  6
ByLayer
100
AcDbEntity
100
AcDbPolyline
 90
4
 70
1
 10
-49.559999999999476
 20
140.04000000000011
 30
0.0
 10
-49.559999999999476
 20
155.04000000000011
 30
0.0
 10
-42.839999999999463
 20
155.04000000000011
 30
0.0
 10
-42.839999999999449
 20
140.04000000000011
 30
0.0
  0
LWPOLYLINE
  5
B8
  8
0
 62
256
370
-1
 48
1.0
  6
ByLayer
100
AcDbEntity
100
AcDbPolyline
 90
8
 70
1
 10
0.0
 20
206.52000000000001
 30
0.0
 10
-56.279999999999959
 20
206.52000000000001
 30
0.0
 10
-56.280000000000022
 20
0.0
 30
0.0
 10
-33.039999999999992
 20
0.0000000000000018
 30
0.0
 10
-33.039999999999992
 20
6.7199999999999953
 30
0.0
 10
-16.52
 20
6.7199999999999989
 30
0.0
 10
-16.52
 20
0.0
 30
0.0
 10
0.0
 20
0.0
 30
0.0
  0
CIRCLE
  5
B9
100
AcDbEntity
100
AcDbCircle
  8
0
 62
256
370
-1
 48
1.0
  6
ByLayer
 10
-45.559999999999476
 20
162.53999999999999
 30
0.0
 40
1.5750000000000111
  0
CIRCLE
  5
BA
100
AcDbEntity
100
AcDbCircle
  8
0
 62
256
370
-1
 48
1.0
  6
ByLayer
 10
-43.890000000000029
 20
3.359999999999999
 30
0.0
 40
1.575
  0
CIRCLE
  5
BB
100
AcDbEntity
100
AcDbCircle
  8
0
 62
256
370
-1
 48
1.0
  6
ByLayer
 10
-10.0
 20
24.72000000000001
 30
0.0
 40
1.575
  0
ENDBLK
  5
BC
100
AcDbEntity
  8
0
100
AcDbBlockEnd
  0
BLOCK
  5
BD
100
AcDbEntity
  8
0
100
AcDbBlockBegin
  2
frame_left
 70
0
 10
0.0
 20
0.0
 30
0.0
  3
frame_left
  1

  0
LWPOLYLINE
  5
BE
  8
0
 62
256
370
-1
 48
1.0
  6
ByLayer
100
AcDbEntity
100
AcDbPolyline
 90
84
 70
1
 10
11.49999999999986
 20
243.1749999999999
 30
0.0
 10
6.7199999999998568
 20
243.1749999999999
 30
0.0
 10
6.7199999999998852
 20
224.99999999999989
 30
0.0
 10
-0.0000000000002132
 20
224.99999999999989
 30
0.0
 10
0.0
 20
0.0
 30
0.0
 10
6.7199999999998852
 20
0.0
 30
0.0
 10
6.7199999999998852
 20
6.7199999999999989
 30
0.0
 10
29.533333333333221
 20
6.7199999999999989
 30
0.0
 10
29.533333333333228
 20
0.0
 30
0.0
 10
55.34666666666655
 20
0.0
 30
0.0
 10
55.34666666666655
 20
6.7199999999999989
 30
0.0
 10
75.159999999999883
 20
6.7199999999999989
 30
0.0
 10
75.159999999999883
 20
0.0
 30
0.0
 10
81.879999999999967
 20
0.0
 30
0.0
 10
81.879999999999811
 20
225.0
 30
0.0
 10
75.159999999999954
 20
225.0
 30
0.0
 10
75.15999999999994
 20
243.17500000000001
 30
0.0
 10
70.379999999999939
 20
243.17500000000001
 30
0.0
 10
70.379999999999939
 20
242.15000000000001
 30
0.0
 42
-2.4142135623730638
 10
70.129999999999939
 20
241.90000000000001
 30
0.0
 10
68.129999999999939
 20
241.90000000000001
 30
0.0
 42
-2.414213562373094
 10
67.879999999999939
 20
242.15000000000001
 30
0.0
 10
67.879999999999939
 20
243.17500000000001
 30
0.0
 10
66.879999999999939
 20
243.17500000000001
 30
0.0
 10
66.879999999999939
 20
246.32499999999999
 30
0.0
 10
67.879999999999939
 20
246.32499999999999
 30
0.0
 10
67.879999999999939
 20
247.34999999999999
 30
0.0
 42
-2.414213562373094
 10
68.129999999999939
 20
247.59999999999999
 30
0.0
 10
70.129999999999939
 20
247.59999999999999
 30
0.0
 42
-2.414213562373094
 10
70.379999999999939
 20
247.34999999999999
 30
0.0
 10
70.379999999999939
 20
246.32499999999999
 30
0.0
 10
75.15999999999994
 20
246.32499999999999
 30
0.0
 10
75.15999999999994
 20
498.67499999999978
 30
0.0
 10
70.379999999999939
 20
498.67499999999978
 30
0.0
 10
70.379999999999939
 20
497.64999999999981
 30
0.0
 42
-2.414213562373094
 10
70.129999999999939
 20
497.39999999999981
 30
0.0
 10
68.129999999999939
 20
497.39999999999981
 30
0.0
 42
-2.414213562373094
 10
67.879999999999939
 20
497.64999999999981
 30
0.0
 10
67.879999999999939
 20
498.67499999999978
 30
0.0
 10
66.879999999999939
 20
498.67499999999978
 30
0.0
 10
66.879999999999939
 20
501.82499999999987
 30
0.0
 10
67.879999999999939
 20
501.82499999999987
 30
0.0
 10
67.879999999999939
 20
502.8499999999998
 30
0.0
 42
-2.414213562373094
 10
68.129999999999939
 20
503.09999999999991
 30
0.0
 10
70.129999999999939
 20
503.09999999999991
 30
0.0
 42
-2.414213562373094
 10
70.379999999999939
 20
502.8499999999998
 30
0.0
 10
70.379999999999939
 20
501.82499999999987
 30
0.0
 10
75.15999999999994
 20
501.82499999999987
 30
0.0
 10
75.15999999999994
 20
513.27999999999997
 30
0.0
 10
55.346666666666657
 20
513.27999999999997
 30
0.0
 10
55.346666666666657
 20
520.0
 30
0.0
 10
29.533333333333339
 20
520.0
 30
0.0
 10
29.533333333333349
 20
513.27999999999997
 30
0.0
 10
6.7199999999999704
 20
513.27999999999997
 30
0.0
 10
6.7199999999993167
 20
501.82499999999982
 30
0.0
 10
11.49999999999932
 20
501.82499999999982
 30
0.0
 10
11.49999999999932
 20
502.8499999999998
 30
0.0
 42
-2.414213562373094
 10
11.74999999999933
 20
503.09999999999968
 30
0.0
 10
13.74999999999933
 20
503.09999999999968
 30
0.0
 42
-2.414213562373094
 10
13.999999999999339
 20
502.8499999999998
 30
0.0
 10
13.999999999999339
 20
501.82499999999982
 30
0.0
 10
14.99999999999933
 20
501.82499999999982
 30
0.0
 10
14.99999999999933
 20
498.67499999999978
 30
0.0
 10
13.999999999999339
 20
498.67499999999978
 30
0.0
 10
13.999999999999339
 20
497.64999999999969
 30
0.0
 42
-2.414213562373094
 10
13.74999999999932
 20
497.39999999999981
 30
0.0
 10
11.74999999999933
 20
497.39999999999981
 30
0.0
 42
-2.414213562373094
 10
11.499999999999339
 20
497.64999999999969
 30
0.0
 10
11.499999999999339
 20
498.67499999999973
 30
0.0
 10
6.719999999999331
 20
498.67499999999978
 30
0.0
 10
6.7199999999998434
 20
246.3249999999999
 30
0.0
 10
11.49999999999984
 20
246.3249999999999
 30
0.0
 10
11.49999999999986
 20
247.34999999999991
 30
0.0
 42
-2.414213562373094
 10
11.749999999999851
 20
247.59999999999991
 30
0.0
 10
13.74999999999986
 20
247.59999999999991
 30
0.0
 42
-2.414213562373094
 10
13.99999999999986
 20
247.34999999999991
 30
0.0
 10
13.99999999999986
 20
246.3249999999999
 30
0.0
 10
14.99999999999986
 20
246.3249999999999
 30
0.0
 10
14.99999999999986
 20
243.1749999999999
 30
0.0
 10
13.99999999999986
 20
243.1749999999999
 30
0.0
 10
13.99999999999986
 20
242.14999999999989
 30
0.0
 42
-2.414213562373094
 10
13.74999999999986
 20
241.89999999999989
 30
0.0
 10
11.74999999999986
 20
241.89999999999989
 30
0.0
 42
-2.414213562373094
 10
11.49999999999986
 20
242.14999999999989
 30
0.0
  0
LWPOLYLINE
  5
BF
  8
0
 62
256
370
-1
 48
1.0
  6
ByLayer
100
AcDbEntity
100
AcDbPolyline
 90
4
 70
1
 10
29.53333333333325
 20
230.88
 30
0.0
 10
55.346666666666557
 20
230.88
 30
0.0
 10
55.346666666666557
 20
225.0
 30
0.0
 10
29.53333333333326
 20
224.99999999999989
 30
0.0
  0
CIRCLE
  5
C0
100
AcDbEntity
100
AcDbCircle
  8
0
 62
256
370
-1
 48
1.0
  6
ByLayer
 10
40.939999999999927
 20
516.63999999999987
 30
0.0
 40
1.574999999999988
  0
CIRCLE
  5
C1
100
AcDbEntity
100
AcDbCircle
  8
0
 62
256
370
-1
 48
1.0
  6
ByLayer
 10
40.939999999999877
 20
3.3599999999999
 30
0.0
 40
1.5749999999999931
  0
ENDBLK
  5
C2
100
AcDbEntity
  8
0
100
AcDbBlockEnd
  0
BLOCK
  5
C3
100
AcDbEntity
  8
0
100
AcDbBlockBegin
  2
carrier_drain
 70
0
 10
0.0
 20
0.0
 30
0.0
  3
carrier_drain
  1

  0
LWPOLYLINE
  5
C4
  8
0
 62
256
370
-1
 48
1.0
  6
ByLayer
100
AcDbEntity
100
AcDbPolyline
 90
5
 70
1
 10
10.0
 20
10.0
 30
0.0
 10
-10.0
 20
10.0
 30
0.0
 10
-10.0
 20
-10.0
 30
0.0
 10
0.0
 20
-10.0
 30
0.0
 42
0.4142135623730951
 10
10.0
 20
0.0
 30
0.0
  0
CIRCLE
  5
C5
100
AcDbEntity
100
AcDbCircle
  8
0
 62
256
370
-1
 48
1.0
  6
ByLayer
 10
0.0
 20
0.0
 30
0.0
 40
5.0
  0
ENDBLK
  5
C6
100
AcDbEntity
  8
0
100
AcDbBlockEnd
  0
BLOCK
  5
C7
100
AcDbEntity
  8
0
100
AcDbBlockBegin
  2
carrier_tray
 70
0
 10
0.0
 20
0.0
 30
0.0
  3
carrier_tray
  1

  0
LWPOLYLINE
  5
C8
  8
0
 62
256
370
-1
 48
1.0
  6
ByLayer
100
AcDbEntity
100
AcDbPolyline
 90
12
 70
1
 10
-27.149999999999942
 20
181.00000000000011
 30
0.0
 10
-27.149999999999942
 20
177.85000000000011
 30
0.0
 10
-63.349999999999973
 20
177.85000000000011
 30
0.0
 10
-63.349999999999973
 20
181.00000000000011
 30
0.0
 10
-181.0
 20
181.00000000000011
 30
0.0
 10
-181.0
 20
0.0000000000000853
 30
0.0
 10
-63.349999999999987
 20
0.0
 30
0.0
 10
-63.349999999999987
 20
3.1500000000000479
 30
0.0
 10
-27.149999999999991
 20
3.1500000000000199
 30
0.0
 10
-27.149999999999991
 20
0.0000000000000284
 30
0.0
 10
0.0
 20
0.0
 30
0.0
 10
0.0000000000000426
 20
181.00000000000011
 30
0.0
  0
CIRCLE
  5
C9
100
AcDbEntity
100
AcDbCircle
  8
0
 62
256
370
-1
 48
1.0
  6
ByLayer
 10
-7.5000000000000142
 20
68.795000000000144
 30
0.0
 40
2.0
  0
CIRCLE
  5
CA
100
AcDbEntity
100
AcDbCircle
  8
0
 62
256
370
-1
 48
1.0
  6
ByLayer
 10
-156.0
 20
25.000000000000089
 30
0.0
 40
6.0
  0
CIRCLE
  5
CB
100
AcDbEntity
100
AcDbCircle
  8
0
 62
256
370
-1
 48
1.0
  6
ByLayer
 10
-90.500000000000014
 20
7.5000000000001137
 30
0.0
 40
2.6249999999999969
  0
CIRCLE
  5
CC
100
AcDbEntity
100
AcDbCircle
  8
0
 62
256
370
-1
 48
1.0
  6
ByLayer
 10
-7.5000000000000142
 20
90.500000000000142
 30
0.0
 40
2.6249999999999969
  0
CIRCLE
  5
CD
100
AcDbEntity
100
AcDbCircle
  8
0
 62
256
370
-1
 48
1.0
  6
ByLayer
 10
-7.5000000000000142
 20
173.50000000000011
 30
0.0
 40
2.6249999999999969
  0
CIRCLE
  5
CE
100
AcDbEntity
100
AcDbCircle
  8
0
 62
256
370
-1
 48
1.0
  6
ByLayer
 10
-173.5
 20
173.50000000000011
 30
0.0
 40
2.6249999999999969
  0
CIRCLE
  5
CF
100
AcDbEntity
100
AcDbCircle
  8
0
 62
256
370
-1
 48
1.0
  6
ByLayer
 10
-90.500000000000014
 20
173.50000000000011
 30
0.0
 40
2.6249999999999969
  0
CIRCLE
  5
D0
100
AcDbEntity
100
AcDbCircle
  8
0
 62
256
370
-1
 48
1.0
  6
ByLayer
 10
-173.5
 20
90.500000000000099
 30
0.0
 40
2.6249999999999969
  0
CIRCLE
  5
D1
100
AcDbEntity
100
AcDbCircle
  8
0
 62
256
370
-1
 48
1.0
  6
ByLayer
 10
-173.5
 20
7.5000000000000986
 30
0.0
 40
2.6249999999999969
  0
CIRCLE
  5
D2
100
AcDbEntity
100
AcDbCircle
  8
0
 62
256
370
-1
 48
1.0
  6
ByLayer
 10
-7.5000000000000142
 20
7.5000000000001421
 30
0.0
 40
2.6249999999999969
  0
ENDBLK
  5
D3
100
AcDbEntity
  8
0
100
AcDbBlockEnd
  0
BLOCK
  5
D4
100
AcDbEntity
  8
0
100
AcDbBlockBegin
  2
frame_right
 70
0
 10
0.0
 20
0.0
 30
0.0
  3
frame_right
  1

  0
LWPOLYLINE
  5
D5
  8
0
 62
256
370
-1
 48
1.0
  6
ByLayer
100
AcDbEntity
100
AcDbPolyline
 90
4
 70
1
 10
-29.533333333333481
 20
225.0
 30
0.0
 10
-52.346666666666813
 20
225.0
 30
0.0
 10
-52.346666666666813
 20
230.88
 30
0.0
 10
-29.533333333333481
 20
230.88
 30
0.0
  0
LWPOLYLINE
  5
D6
  8
0
 62
256
370
-1
 48
1.0
  6
ByLayer
100
AcDbEntity
100
AcDbPolyline
 90
84
 70
1
 10
-6.7200000000000912
 20
243.17500000000001
 30
0.0
 10
-11.500000000000099
 20
243.17500000000001
 30
0.0
 10
-11.500000000000099
 20
242.15000000000001
 30
0.0
 42
-2.4142135623730789
 10
-11.750000000000099
 20
241.90000000000001
 30
0.0
 10
-13.750000000000091
 20
241.90000000000001
 30
0.0
 42
-2.414213562373094
 10
-14.000000000000099
 20
242.15000000000001
 30
0.0
 10
-14.000000000000099
 20
243.17500000000001
 30
0.0
 10
-15.000000000000091
 20
243.17500000000001
 30
0.0
 10
-15.000000000000091
 20
246.32499999999999
 30
0.0
 10
-14.000000000000099
 20
246.32499999999999
 30
0.0
 10
-14.000000000000099
 20
247.34999999999999
 30
0.0
 42
-2.414213562373094
 10
-13.750000000000091
 20
247.59999999999999
 30
0.0
 10
-11.750000000000091
 20
247.59999999999999
 30
0.0
 42
-2.414213562373094
 10
-11.500000000000091
 20
247.34999999999999
 30
0.0
 10
-11.500000000000091
 20
246.32499999999999
 30
0.0
 10
-6.7200000000000912
 20
246.32499999999999
 30
0.0
 10
-6.7199999999998283
 20
498.67499999999978
 30
0.0
 10
-11.499999999999829
 20
498.67499999999978
 30
0.0
 10
-11.499999999999829
 20
497.64999999999981
 30
0.0
 42
-2.414213562373094
 10
-11.749999999999829
 20
497.39999999999992
 30
0.0
 10
-13.74999999999984
 20
497.39999999999992
 30
0.0
 42
-2.414213562373094
 10
-13.999999999999829
 20
497.64999999999981
 30
0.0
 10
-13.999999999999829
 20
498.67499999999978
 30
0.0
 10
-14.99999999999984
 20
498.67499999999978
 30
0.0
 10
-14.99999999999984
 20
501.82499999999987
 30
0.0
 10
-13.999999999999829
 20
501.82499999999987
 30
0.0
 10
-13.999999999999829
 20
502.8499999999998
 30
0.0
 42
-2.414213562373094
 10
-13.74999999999984
 20
503.0999999999998
 30
0.0
 10
-11.749999999999829
 20
503.0999999999998
 30
0.0
 42
-2.414213562373094
 10
-11.499999999999829
 20
502.8499999999998
 30
0.0
 10
-11.499999999999829
 20
501.82499999999987
 30
0.0
 10
-6.7199999999998283
 20
501.82499999999987
 30
0.0
 10
-6.7200000000004891
 20
513.28000000000009
 30
0.0
 10
-29.533333333333861
 20
513.27999999999997
 30
0.0
 10
-29.533333333333861
 20
520.0
 30
0.0
 10
-52.34666666666719
 20
519.99999999999989
 30
0.0
 10
-52.34666666666719
 20
513.27999999999997
 30
0.0
 10
-75.160000000000451
 20
513.27999999999997
 30
0.0
 10
-75.160000000000451
 20
501.82499999999987
 30
0.0
 10
-70.38000000000045
 20
501.82499999999987
 30
0.0
 10
-70.38000000000045
 20
502.8499999999998
 30
0.0
 42
-2.414213562373094
 10
-70.13000000000045
 20
503.0999999999998
 30
0.0
 10
-68.130000000000436
 20
503.0999999999998
 30
0.0
 42
-2.414213562373094
 10
-67.88000000000045
 20
502.8499999999998
 30
0.0
 10
-67.88000000000045
 20
501.82499999999987
 30
0.0
 10
-66.880000000000436
 20
501.82499999999987
 30
0.0
 10
-66.880000000000436
 20
498.67499999999978
 30
0.0
 10
-67.88000000000045
 20
498.67499999999978
 30
0.0
 10
-67.88000000000045
 20
497.64999999999981
 30
0.0
 42
-2.414213562373094
 10
-68.130000000000436
 20
497.39999999999992
 30
0.0
 10
-70.13000000000045
 20
497.39999999999992
 30
0.0
 42
-2.414213562373094
 10
-70.38000000000045
 20
497.64999999999981
 30
0.0
 10
-70.38000000000045
 20
498.67499999999978
 30
0.0
 10
-75.160000000000451
 20
498.67499999999978
 30
0.0
 10
-75.160000000000196
 20
246.32499999999999
 30
0.0
 10
-70.380000000000194
 20
246.32499999999999
 30
0.0
 10
-70.38000000000018
 20
247.34999999999999
 30
0.0
 42
-2.414213562373094
 10
-70.130000000000194
 20
247.59999999999999
 30
0.0
 10
-68.130000000000194
 20
247.59999999999999
 30
0.0
 42
-2.414213562373094
 10
-67.88000000000018
 20
247.34999999999999
 30
0.0
 10
-67.88000000000018
 20
246.32499999999999
 30
0.0
 10
-66.880000000000194
 20
246.32499999999999
 30
0.0
 10
-66.880000000000194
 20
243.17500000000001
 30
0.0
 10
-67.88000000000018
 20
243.17500000000001
 30
0.0
 10
-67.88000000000018
 20
242.15000000000001
 30
0.0
 42
-2.414213562373094
 10
-68.130000000000194
 20
241.90000000000001
 30
0.0
 10
-70.13000000000018
 20
241.90000000000001
 30
0.0
 42
-2.4142135623730789
 10
-70.38000000000018
 20
242.15000000000001
 30
0.0
 10
-70.38000000000018
 20
243.17500000000001
 30
0.0
 10
-75.160000000000196
 20
243.17500000000001
 30
0.0
 10
-75.160000000000181
 20
225.0
 30
0.0
 10
-81.880000000000024
 20
225.0
 30
0.0
 10
-81.879999999999967
 20
0.0
 30
0.0
 10
-75.159999999999883
 20
0.0
 30
0.0
 10
-75.159999999999883
 20
6.7199999999999989
 30
0.0
 10
-52.34666666666655
 20
6.7199999999999989
 30
0.0
 10
-52.34666666666655
 20
0.0
 30
0.0
 10
-29.533333333333221
 20
0.0
 30
0.0
 10
-29.533333333333221
 20
6.7199999999999989
 30
0.0
 10
-6.7199999999998923
 20
6.7200000000001134
 30
0.0
 10
-6.7199999999998781
 20
0.0
 30
0.0
 10
0.0
 20
0.0
 30
0.0
 10
-0.0000000000000213
 20
225.0
 30
0.0
 10
-6.7200000000000983
 20
225.0
 30
0.0
  0
CIRCLE
  5
D7
100
AcDbEntity
100
AcDbCircle
  8
0
 62
256
370
-1
 48
1.0
  6
ByLayer
 10
-40.93999999999987
 20
3.3599999999999
 30
0.0
 40
1.5749999999999931
  0
CIRCLE
  5
D8
100
AcDbEntity
100
AcDbCircle
  8
0
 62
256
370
-1
 48
1.0
  6
ByLayer
 10
-40.940000000000452
 20
516.63999999999999
 30
0.0
 40
1.574999999999988
  0
ENDBLK
  5
D9
100
AcDbEntity
  8
0
100
AcDbBlockEnd
  0
BLOCK
  5
DA
100
AcDbEntity
  8
0
100
AcDbBlockBegin
  2
drawer_right
 70
0
 10
0.0
 20
0.0
 30
0.0
  3
drawer_right
  1

  0
LWPOLYLINE
  5
DB
  8
0
 62
256
370
-1
 48
1.0
  6
ByLayer
100
AcDbEntity
100
AcDbPolyline
 90
4
 70
1
 10
-6.7200000000005886
 20
155.04000000000011
 30
0.0
 10
-6.7200000000005824
 20
140.04000000000011
 30
0.0
 10
-13.440000000000589
 20
140.04000000000011
 30
0.0
 10
-13.440000000000589
 20
155.04000000000011
 30
0.0
  0
LWPOLYLINE
  5
DC
  8
0
 62
256
370
-1
 48
1.0
  6
ByLayer
100
AcDbEntity
100
AcDbPolyline
 90
8
 70
1
 10
-0.0000000000001137
 20
206.52000000000001
 30
0.0
 10
-56.280000000000094
 20
206.52000000000001
 30
0.0
 10
-56.28000000000003
 20
0.0
 30
0.0
 10
-39.760000000000034
 20
0.0
 30
0.0
 10
-39.760000000000034
 20
6.7199999999999989
 30
0.0
 10
-23.24000000000003
 20
6.7199999999999989
 30
0.0
 10
-23.24000000000003
 20
0.0000000000000071
 30
0.0
 10
0.0
 20
0.0
 30
0.0
  0
CIRCLE
  5
DD
100
AcDbEntity
100
AcDbCircle
  8
0
 62
256
370
-1
 48
1.0
  6
ByLayer
 10
-10.72000000000059
 20
162.53999999999999
 30
0.0
 40
1.5750000000000111
  0
CIRCLE
  5
DE
100
AcDbEntity
100
AcDbCircle
  8
0
 62
256
370
-1
 48
1.0
  6
ByLayer
 10
-12.390000000000009
 20
3.360000000000007
 30
0.0
 40
1.575
  0
CIRCLE
  5
DF
100
AcDbEntity
100
AcDbCircle
  8
0
 62
256
370
-1
 48
1.0
  6
ByLayer
 10
-46.28000000000003
 20
24.72000000000001
 30
0.0
 40
1.575
  0
ENDBLK
  5
E0
100
AcDbEntity
  8
0
100
AcDbBlockEnd
  0
BLOCK
  5
E1
100
AcDbEntity
  8
0
100
AcDbBlockBegin
  2
frame_back
 70
0
 10
0.0
 20
0.0
 30
0.0
  3
frame_back
  1

  0
LWPOLYLINE
  5
E2
  8
0
 62
256
370
-1
 48
1.0
  6
ByLayer
100
AcDbEntity
100
AcDbPolyline
 90
8
 70
1
 10
-183.78000000000009
 20
-491.22000000000003
 30
0.0
 10
-183.78000000000009
 20
-494.00000000000011
 30
0.0
 42
-0.4142135623730951
 10
-190.50000000000011
 20
-500.72000000000008
 30
0.0
 10
-203.06000000000009
 20
-500.72000000000008
 30
0.0
 42
-0.4142135623730951
 10
-209.78000000000009
 20
-494.00000000000011
 30
0.0
 10
-209.78000000000009
 20
-491.22000000000003
 30
0.0
 42
-0.4142135623730951
 10
-203.06000000000009
 20
-484.5
 30
0.0
 10
-190.50000000000011
 20
-484.5
 30
0.0
 42
-0.4142135623730951
  0
LWPOLYLINE
  5
E3
  8
0
 62
256
370
-1
 48
1.0
  6
ByLayer
100
AcDbEntity
100
AcDbPolyline
 90
8
 70
1
 10
-76.220000000000084
 20
-494.00000000000063
 30
0.0
 10
-76.220000000000056
 20
-491.22000000000048
 30
0.0
 42
-0.414213562373092
 10
-69.500000000000057
 20
-484.50000000000051
 30
0.0
 10
-56.940000000000033
 20
-484.50000000000068
 30
0.0
 42
-0.4142135623730982
 10
-50.22000000000007
 20
-491.22000000000082
 30
0.0
 10
-50.220000000000098
 20
-494.0000000000008
 30
0.0
 42
-0.414213562373092
 10
-56.940000000000083
 20
-500.72000000000082
 30
0.0
 10
-69.500000000000142
 20
-500.72000000000071
 30
0.0
 42
-0.4142135623730982
  0
LWPOLYLINE
  5
E4
  8
0
 62
256
370
-1
 48
1.0
  6
ByLayer
100
AcDbEntity
100
AcDbPolyline
 90
26
 70
1
 10
-120.0
 20
-480.50000000000011
 30
0.0
 42
-0.9999999999999998
 10
-140.0
 20
-480.50000000000011
 30
0.0
 10
-213.78000000000009
 20
-480.50000000000011
 30
0.0
 10
-213.78000000000009
 20
-506.56000000000012
 30
0.0
 10
-220.50000000000011
 20
-506.56000000000012
 30
0.0
 10
-220.5
 20
-295.00000000000011
 30
0.0
 10
-227.22
 20
-295.00000000000011
 30
0.0
 10
-227.22
 20
-289.12000000000012
 30
0.0
 10
-220.5
 20
-289.12000000000012
 30
0.0
 10
-220.5
 20
-154.12
 30
0.0
 10
-223.65000000000001
 20
-154.12
 30
0.0
 10
-223.65000000000001
 20
-104.1200000000001
 30
0.0
 10
-220.5
 20
-104.12
 30
0.0
 10
-220.5
 20
-39.5
 30
0.0
 10
-39.499999999999957
 20
-39.5
 30
0.0
 10
-39.5
 20
-104.12
 30
0.0
 10
-36.349999999999987
 20
-104.1200000000001
 30
0.0
 10
-36.349999999999987
 20
-154.12000000000009
 30
0.0
 10
-39.5
 20
-154.12000000000009
 30
0.0
 10
-39.500000000000043
 20
-289.12000000000012
 30
0.0
 10
-32.78000000000003
 20
-289.12000000000012
 30
0.0
 10
-32.78000000000003
 20
-295.00000000000011
 30
0.0
 10
-39.500000000000028
 20
-295.00000000000011
 30
0.0
 10
-39.500000000000028
 20
-506.56000000000012
 30
0.0
 10
-46.220000000000027
 20
-506.56000000000012
 30
0.0
 10
-46.220000000000027
 20
-480.50000000000011
 30
0.0
  0
LWPOLYLINE
  5
E5
  8
0
 62
256
370
-1
 48
1.0
  6
ByLayer
100
AcDbEntity
100
AcDbPolyline
 90
4
 70
1
 10
-108.72
 20
-488.79500000000002
 30
0.0
 42
-0.9999999999999998
 10
-108.72
 20
-485.64499999999998
 30
0.0
 10
-98.720000000000056
 20
-485.64500000000038
 30
0.0
 42
-0.9999999999999998
 10
-98.720000000000056
 20
-488.79500000000007
 30
0.0
  0
LWPOLYLINE
  5
E6
  8
0
 62
256
370
-1
 48
1.0
  6
ByLayer
100
AcDbEntity
100
AcDbPolyline
 90
4
 70
1
 10
-151.28
 20
-485.64499999999998
 30
0.0
 42
-0.9999999999999998
 10
-151.28
 20
-488.79500000000002
 30
0.0
 10
-161.28000000000009
 20
-488.79500000000041
 30
0.0
 42
-0.9999999999999998
 10
-161.28000000000009
 20
-485.6450000000001
 30
0.0
  0
LWPOLYLINE
  5
E7
  8
0
 62
256
370
-1
 48
1.0
  6
ByLayer
100
AcDbEntity
100
AcDbPolyline
 90
16
 70
1
 10
-253.28000000000009
 20
-295.00000000000011
 30
0.0
 10
-253.28
 20
-520.00000000000011
 30
0.0
 10
-170.33333333333351
 20
-520.00000000000011
 30
0.0
 10
-170.33333333333351
 20
-513.28000000000009
 30
0.0
 10
-89.666666666666799
 20
-513.28000000000009
 30
0.0
 10
-89.666666666666799
 20
-520.00000000000011
 30
0.0
 10
-6.7200000000001268
 20
-520.00000000000011
 30
0.0
 10
-6.7199999999999847
 20
-295.00000000000011
 30
0.0
 10
0.0
 20
-295.00000000000011
 30
0.0
 10
0.0
 20
0.0
 30
0.0
 10
-89.666666666666458
 20
0.0
 30
0.0
 10
-89.666666666666458
 20
-6.7200000000000273
 30
0.0
 10
-170.33333333333309
 20
-6.7200000000000273
 30
0.0
 10
-170.33333333333309
 20
0.0
 30
0.0
 10
-260.0
 20
0.0
 30
0.0
 10
-260.0
 20
-295.00000000000011
 30
0.0
  0
CIRCLE
  5
E8
100
AcDbEntity
100
AcDbCircle
  8
0
 62
256
370
-1
 48
1.0
  6
ByLayer
 10
-233.5
 20
-292.06000000000012
 30
0.0
 40
1.575
  0
CIRCLE
  5
E9
100
AcDbEntity
100
AcDbCircle
  8
0
 62
256
370
-1
 48
1.0
  6
ByLayer
 10
-26.500000000000028
 20
-292.06000000000012
 30
0.0
 40
1.575
  0
CIRCLE
  5
EA
100
AcDbEntity
100
AcDbCircle
  8
0
 62
256
370
-1
 48
1.0
  6
ByLayer
 10
-66.916666666666828
 20
-516.6400000000001
 30
0.0
 40
1.5750000000000159
  0
CIRCLE
  5
EB
100
AcDbEntity
100
AcDbCircle
  8
0
 62
256
370
-1
 48
1.0
  6
ByLayer
 10
-66.916666666666487
 20
-3.3600000000001269
 30
0.0
 40
1.575
  0
CIRCLE
  5
EC
100
AcDbEntity
100
AcDbCircle
  8
0
 62
256
370
-1
 48
1.0
  6
ByLayer
 10
-3.359999999999999
 20
-19.75000000000011
 30
0.0
 40
1.575
  0
CIRCLE
  5
ED
100
AcDbEntity
100
AcDbCircle
  8
0
 62
256
370
-1
 48
1.0
  6
ByLayer
 10
-240.25000000000011
 20
-516.6400000000001
 30
0.0
 40
1.574999999999998
  0
CIRCLE
  5
EE
100
AcDbEntity
100
AcDbCircle
  8
0
 62
256
370
-1
 48
1.0
  6
ByLayer
 10
-3.360000000000035
 20
-275.25000000000011
 30
0.0
 40
1.574999999999996
  0
CIRCLE
  5
EF
100
AcDbEntity
100
AcDbCircle
  8
0
 62
256
370
-1
 48
1.0
  6
ByLayer
 10
-19.749999999999989
 20
-3.3600000000001269
 30
0.0
 40
1.574999999999998
  0
CIRCLE
  5
F0
100
AcDbEntity
100
AcDbCircle
  8
0
 62
256
370
-1
 48
1.0
  6
ByLayer
 10
-240.25
 20
-3.3600000000001269
 30
0.0
 40
1.574999999999998
  0
CIRCLE
  5
F1
100
AcDbEntity
100
AcDbCircle
  8
0
 62
256
370
-1
 48
1.0
  6
ByLayer
 10
-19.75000000000006
 20
-516.6400000000001
 30
0.0
 40
1.574999999999998
  0
CIRCLE
  5
F2
100
AcDbEntity
100
AcDbCircle
  8
0
 62
256
370
-1
 48
1.0
  6
ByLayer
 10
-256.63999999999999
 20
-275.25000000000011
 30
0.0
 40
1.574999999999996
  0
CIRCLE
  5
F3
100
AcDbEntity
100
AcDbCircle
  8
0
 62
256
370
-1
 48
1.0
  6
ByLayer
 10
-256.63999999999987
 20
-19.75000000000011
 30
0.0
 40
1.575
  0
CIRCLE
  5
F4
100
AcDbEntity
100
AcDbCircle
  8
0
 62
256
370
-1
 48
1.0
  6
ByLayer
 10
-193.08333333333351
 20
-3.3600000000001269
 30
0.0
 40
1.575
  0
CIRCLE
  5
F5
100
AcDbEntity
100
AcDbCircle
  8
0
 62
256
370
-1
 48
1.0
  6
ByLayer
 10
-193.08333333333329
 20
-516.6400000000001
 30
0.0
 40
1.5750000000000159
  0
ENDBLK
  5
F6
100
AcDbEntity
  8
0
100
AcDbBlockEnd
  0
BLOCK
  5
F7
100
AcDbEntity
  8
0
100
AcDbBlockBegin
  2
p1
 70
0
 10
0.0
 20
0.0
 30
0.0
  3
p1
  1

  0
LINE
  5
F8
100
AcDbEntity
100
AcDbLine
  8
0
 62
256
370
-1
 48
1.0
  6
ByLayer
 10
0.0
 20
-181.0
 30
0.0
 11
181.0
 21
-181.0
 31
0.0
  0
LINE
  5
F9
100
AcDbEntity
100
AcDbLine
  8
0
 62
256
370
-1
 48
1.0
  6
ByLayer
 10
181.0
 20
-181.0
 30
0.0
 11
181.0
 21
0.0
 31
0.0
  0
LINE
  5
FA
100
AcDbEntity
100
AcDbLine
  8
0
 62
256
370
-1
 48
1.0
  6
ByLayer
 10
181.0
 20
0.0
 30
0.0
 11
0.0
 21
0.0
 31
0.0
  0
LINE
  5
FB
100
AcDbEntity
100
AcDbLine
  8
0
 62
256
370
-1
 48
1.0
  6
ByLayer
 10
0.0
 20
0.0
 30
0.0
 11
0.0
 21
-181.0
 31
0.0
  0
ENDBLK
  5
FC
100
AcDbEntity
  8
0
100
AcDbBlockEnd
  0
BLOCK
  5
FD
100
AcDbEntity
  8
0
100
AcDbBlockBegin
  2
drawer_bottom
 70
0
 10
0.0
 20
0.0
 30
0.0
  3
drawer_bottom
  1

  0
LWPOLYLINE
  5
FE
  8
0
 62
256
370
-1
 48
1.0
  6
ByLayer
100
AcDbEntity
100
AcDbPolyline
 90
68
 70
1
 10
-7.2829293125754901
 20
54.454311485495367
 30
0.0
 42
0.3888787318529891
 10
-9.2753187087589737
 20
56.280000000000058
 30
0.0
 10
-171.72468129124101
 20
56.280000000000143
 30
0.0
 42
0.3888787318529885
 10
-173.7170706874245
 20
54.454311485495452
 30
0.0
 10
-174.28
 20
48.020000000000117
 30
0.0
 10
-174.28
 20
39.760000000000133
 30
0.0
 10
-187.72000000000011
 20
39.760000000000133
 30
0.0
 10
-187.72000000000011
 20
23.240000000000141
 30
0.0
 10
-181.00000000000011
 20
23.240000000000141
 30
0.0
 10
-181.0
 20
13.965000000000121
 30
0.0
 10
-176.22
 20
13.965000000000121
 30
0.0
 10
-176.22
 20
14.990000000000119
 30
0.0
 42
-2.41421356237311
 10
-175.97
 20
15.240000000000119
 30
0.0
 10
-173.97
 20
15.24000000000011
 30
0.0
 42
-2.414213562373094
 10
-173.72
 20
14.99000000000011
 30
0.0
 10
-173.72
 20
13.965000000000121
 30
0.0
 10
-172.72
 20
13.965000000000121
 30
0.0
 10
-172.72
 20
10.815000000000129
 30
0.0
 10
-173.72
 20
10.815000000000129
 30
0.0
 10
-173.72
 20
9.7900000000001057
 30
0.0
 42
-2.414213562373094
 10
-173.97
 20
9.5400000000001057
 30
0.0
 10
-175.97
 20
9.5400000000001199
 30
0.0
 42
-2.414213562373094
 10
-176.22
 20
9.7900000000001199
 30
0.0
 10
-176.22
 20
10.815000000000129
 30
0.0
 10
-181.0
 20
10.815000000000129
 30
0.0
 10
-181.00000000000011
 20
0.0000000000001279
 30
0.0
 10
-120.6666666666667
 20
0.0000000000001137
 30
0.0
 10
-120.6666666666667
 20
6.7200000000000841
 30
0.0
 10
-92.075000000000045
 20
6.7200000000000841
 30
0.0
 10
-92.075000000000045
 20
11.500000000000091
 30
0.0
 10
-93.100000000000051
 20
11.500000000000091
 30
0.0
 42
-2.4142135623731251
 10
-93.350000000000051
 20
11.750000000000069
 30
0.0
 10
-93.350000000000037
 20
13.750000000000091
 30
0.0
 42
-2.414213562373094
 10
-93.100000000000037
 20
14.000000000000091
 30
0.0
 10
-92.075000000000045
 20
14.000000000000091
 30
0.0
 10
-92.075000000000045
 20
15.000000000000091
 30
0.0
 10
-88.925000000000054
 20
15.000000000000091
 30
0.0
 10
-88.925000000000054
 20
14.000000000000091
 30
0.0
 10
-87.900000000000048
 20
14.000000000000091
 30
0.0
 42
-2.414213562373094
 10
-87.650000000000034
 20
13.750000000000091
 30
0.0
 10
-87.650000000000048
 20
11.750000000000091
 30
0.0
 42
-2.414213562373094
 10
-87.900000000000048
 20
11.500000000000091
 30
0.0
 10
-88.925000000000054
 20
11.500000000000091
 30
0.0
 10
-88.925000000000054
 20
6.7200000000000841
 30
0.0
 10
-60.333333333333329
 20
6.7200000000000273
 30
0.0
 10
-60.333333333333343
 20
0.0000000000000568
 30
0.0
 10
0.0
 20
0.0
 30
0.0
 10
-0.0000000000000142
 20
10.815000000000129
 30
0.0
 10
-4.7800000000000153
 20
10.815000000000129
 30
0.0
 10
-4.7800000000000153
 20
9.7900000000001199
 30
0.0
 42
-2.414213562373094
 10
-5.0300000000000153
 20
9.5400000000001199
 30
0.0
 10
-7.0300000000000011
 20
9.5400000000001057
 30
0.0
 42
-2.414213562373094
 10
-7.2800000000000153
 20
9.7900000000001057
 30
0.0
 10
-7.2800000000000153
 20
10.815000000000129
 30
0.0
 10
-8.2800000000000011
 20
10.815000000000129
 30
0.0
 10
-8.2800000000000011
 20
13.965000000000121
 30
0.0
 10
-7.2800000000000153
 20
13.965000000000121
 30
0.0
 10
-7.2800000000000153
 20
14.99000000000011
 30
0.0
 42
-2.414213562373094
 10
-7.0300000000000011
 20
15.24000000000011
 30
0.0
 10
-5.0300000000000153
 20
15.240000000000119
 30
0.0
 42
-2.41421356237311
 10
-4.7800000000000153
 20
14.990000000000119
 30
0.0
 10
-4.7800000000000153
 20
13.965000000000121
 30
0.0
 10
-0.0000000000000142
 20
13.965000000000121
 30
0.0
 10
-0.0000000000000142
 20
23.240000000000009
 30
0.0
 10
6.7199999999999989
 20
23.239999999999991
 30
0.0
 10
6.7200000000000406
 20
39.759999999999991
 30
0.0
 10
-6.7199999999999847
 20
39.760000000000048
 30
0.0
 10
-6.7199999999999847
 20
48.020000000000039
 30
0.0
  0
CIRCLE
  5
FF
100
AcDbEntity
100
AcDbCircle
  8
0
 62
256
370
-1
 48
1.0
  6
ByLayer
 10
-108.75
 20
36.540000000000113
 30
0.0
 40
2.0
  0
CIRCLE
  5
100
100
AcDbEntity
100
AcDbCircle
  8
0
 62
256
370
-1
 48
1.0
  6
ByLayer
 10
-50.750000000000007
 20
36.540000000000077
 30
0.0
 40
2.0
  0
ENDBLK
  5
101
100
AcDbEntity
  8
0
100
AcDbBlockEnd
  0
BLOCK
  5
102
100
AcDbEntity
  8
0
100
AcDbBlockBegin
  2
frame_front
 70
0
 10
0.0
 20
0.0
 30
0.0
  3
frame_front
  1

  0
LWPOLYLINE
  5
103
  8
0
 62
256
370
-1
 48
1.0
  6
ByLayer
100
AcDbEntity
100
AcDbPolyline
 90
8
 70
1
 10
50.21999999999997
 20
-494.00000000000011
 30
0.0
 10
50.21999999999997
 20
-491.22000000000003
 30
0.0
 42
-0.4142135623730951
 10
56.939999999999969
 20
-484.5
 30
0.0
 10
69.499999999999972
 20
-484.5
 30
0.0
 42
-0.4142135623730951
 10
76.21999999999997
 20
-491.22000000000003
 30
0.0
 10
76.21999999999997
 20
-494.00000000000011
 30
0.0
 42
-0.4142135623730951
 10
69.499999999999972
 20
-500.72000000000008
 30
0.0
 10
56.939999999999962
 20
-500.72000000000008
 30
0.0
 42
-0.4142135623730951
  0
LWPOLYLINE
  5
104
  8
0
 62
256
370
-1
 48
1.0
  6
ByLayer
100
AcDbEntity
100
AcDbPolyline
 90
8
 70
1
 10
183.7800000000002
 20
-494.0
 30
0.0
 10
183.7800000000002
 20
-491.21999999999991
 30
0.0
 42
-0.4142135623730951
 10
190.5000000000002
 20
-484.49999999999989
 30
0.0
 10
203.0600000000002
 20
-484.5
 30
0.0
 42
-0.4142135623730951
 10
209.7800000000002
 20
-491.22000000000003
 30
0.0
 10
209.7800000000002
 20
-494.00000000000011
 30
0.0
 42
-0.4142135623730951
 10
203.0600000000002
 20
-500.72000000000008
 30
0.0
 10
190.5000000000002
 20
-500.72000000000008
 30
0.0
 42
-0.4142135623730951
  0
LWPOLYLINE
  5
105
  8
0
 62
256
370
-1
 48
1.0
  6
ByLayer
100
AcDbEntity
100
AcDbPolyline
 90
16
 70
1
 10
253.27999999999989
 20
-520.0
 30
0.0
 10
253.28
 20
-295.0
 30
0.0
 10
260.0
 20
-295.0
 30
0.0
 10
260.0
 20
0.0
 30
0.0
 10
173.33333333333309
 20
0.0
 30
0.0
 10
173.33333333333309
 20
-6.7200000000000841
 30
0.0
 10
86.666666666666487
 20
-6.7200000000000841
 30
0.0
 10
86.666666666666487
 20
0.0
 30
0.0
 10
0.0
 20
0.0
 30
0.0
 10
0.0
 20
-295.0
 30
0.0
 10
6.7199999999999989
 20
-295.0
 30
0.0
 10
6.7200000000000983
 20
-520.0
 30
0.0
 10
86.666666666666771
 20
-520.0
 30
0.0
 10
86.666666666666771
 20
-513.27999999999997
 30
0.0
 10
173.3333333333334
 20
-513.27999999999997
 30
0.0
 10
173.3333333333334
 20
-520.0
 30
0.0
  0
LWPOLYLINE
  5
106
  8
0
 62
256
370
-1
 48
1.0
  6
ByLayer
100
AcDbEntity
100
AcDbPolyline
 90
30
 70
1
 10
186.22000000000011
 20
-480.5
 30
0.0
 42
0.4142135623730951
 10
179.50000000000011
 20
-487.22000000000003
 30
0.0
 10
179.50000000000011
 20
-499.83999999999997
 30
0.0
 10
80.500000000000085
 20
-499.83999999999997
 30
0.0
 10
80.500000000000085
 20
-487.22000000000003
 30
0.0
 42
0.4142135623730951
 10
73.780000000000101
 20
-480.5
 30
0.0
 10
46.219999999999978
 20
-480.5
 30
0.0
 10
46.219999999999978
 20
-506.56
 30
0.0
 10
39.499999999999993
 20
-506.56
 30
0.0
 10
39.5
 20
-294.99999999999989
 30
0.0
 10
32.779999999999987
 20
-295.0
 30
0.0
 10
32.779999999999987
 20
-289.12
 30
0.0
 10
39.500000000000007
 20
-289.12
 30
0.0
 10
39.499999999999993
 20
-154.12
 30
0.0
 10
36.349999999999987
 20
-154.12
 30
0.0
 10
36.349999999999987
 20
-104.12
 30
0.0
 10
39.499999999999993
 20
-104.12
 30
0.0
 10
39.499999999999993
 20
-39.499999999999893
 30
0.0
 10
220.5
 20
-39.499999999999893
 30
0.0
 10
220.5
 20
-104.12
 30
0.0
 10
223.65000000000001
 20
-104.12
 30
0.0
 10
223.65000000000001
 20
-154.12
 30
0.0
 10
220.5
 20
-154.12
 30
0.0
 10
220.5
 20
-289.12
 30
0.0
 10
227.22
 20
-289.12
 30
0.0
 10
227.22
 20
-295.0
 30
0.0
 10
220.5
 20
-294.99999999999989
 30
0.0
 10
220.5
 20
-506.56
 30
0.0
 10
213.78
 20
-506.56
 30
0.0
 10
213.78
 20
-480.5
 30
0.0
  0
CIRCLE
  5
107
100
AcDbEntity
100
AcDbCircle
  8
0
 62
256
370
-1
 48
1.0
  6
ByLayer
 10
193.08333333333329
 20
-516.63999999999999
 30
0.0
 40
1.5750000000000159
  0
CIRCLE
  5
108
100
AcDbEntity
100
AcDbCircle
  8
0
 62
256
370
-1
 48
1.0
  6
ByLayer
 10
193.08333333333351
 20
-3.3600000000000141
 30
0.0
 40
1.575
  0
CIRCLE
  5
109
100
AcDbEntity
100
AcDbCircle
  8
0
 62
256
370
-1
 48
1.0
  6
ByLayer
 10
256.63999999999987
 20
-19.75
 30
0.0
 40
1.575
  0
CIRCLE
  5
10A
100
AcDbEntity
100
AcDbCircle
  8
0
 62
256
370
-1
 48
1.0
  6
ByLayer
 10
256.63999999999999
 20
-275.25
 30
0.0
 40
1.574999999999996
  0
CIRCLE
  5
10B
100
AcDbEntity
100
AcDbCircle
  8
0
 62
256
370
-1
 48
1.0
  6
ByLayer
 10
19.75
 20
-516.63999999999999
 30
0.0
 40
1.574999999999998
  0
CIRCLE
  5
10C
100
AcDbEntity
100
AcDbCircle
  8
0
 62
256
370
-1
 48
1.0
  6
ByLayer
 10
240.25
 20
-3.3600000000000141
 30
0.0
 40
1.574999999999998
  0
CIRCLE
  5
10D
100
AcDbEntity
100
AcDbCircle
  8
0
 62
256
370
-1
 48
1.0
  6
ByLayer
 10
19.75
 20
-3.3600000000000141
 30
0.0
 40
1.574999999999998
  0
CIRCLE
  5
10E
100
AcDbEntity
100
AcDbCircle
  8
0
 62
256
370
-1
 48
1.0
  6
ByLayer
 10
3.359999999999999
 20
-275.25
 30
0.0
 40
1.574999999999996
  0
CIRCLE
  5
10F
100
AcDbEntity
100
AcDbCircle
  8
0
 62
256
370
-1
 48
1.0
  6
ByLayer
 10
240.25
 20
-516.63999999999999
 30
0.0
 40
1.574999999999998
  0
CIRCLE
  5
110
100
AcDbEntity
100
AcDbCircle
  8
0
 62
256
370
-1
 48
1.0
  6
ByLayer
 10
3.359999999999999
 20
-19.75
 30
0.0
 40
1.575
  0
CIRCLE
  5
111
100
AcDbEntity
100
AcDbCircle
  8
0
 62
256
370
-1
 48
1.0
  6
ByLayer
 10
66.916666666666487
 20
-3.3600000000000141
 30
0.0
 40
1.575
  0
CIRCLE
  5
112
100
AcDbEntity
100
AcDbCircle
  8
0
 62
256
370
-1
 48
1.0
  6
ByLayer
 10
66.916666666666771
 20
-516.63999999999999
 30
0.0
 40
1.5750000000000159
  0
CIRCLE
  5
113
100
AcDbEntity
100
AcDbCircle
  8
0
 62
256
370
-1
 48
1.0
  6
ByLayer
 10
26.5
 20
-292.06
 30
0.0
 40
1.575
  0
CIRCLE
  5
114
100
AcDbEntity
100
AcDbCircle
  8
0
 62
256
370
-1
 48
1.0
  6
ByLayer
 10
233.5
 20
-292.06
 30
0.0
 40
1.575
  0
ENDBLK
  5
115
100
AcDbEntity
  8
0
100
AcDbBlockEnd
  0
BLOCK
  5
116
100
AcDbEntity
  8
0
100
AcDbBlockBegin
  2
carrier
 70
0
 10
0.0
 20
0.0
 30
0.0
  3
carrier
  1

  0
LWPOLYLINE
  5
117
  8
0
 62
256
370
-1
 48
1.0
  6
ByLayer
100
AcDbEntity
100
AcDbPolyline
 90
8
 70
1
 10
22.869475019311011
 20
69.719999999999985
 30
0.0
 42
-0.7745966692414817
 10
11.250524980688809
 20
69.719999999999985
 30
0.0
 10
11.059999999999917
 20
69.719999999999985
 30
0.0
 10
11.059999999999917
 20
72.719999999999985
 30
0.0
 10
11.250524980688709
 20
72.719999999999985
 30
0.0
 42
-0.7745966692414857
 10
22.869475019311011
 20
72.719999999999985
 30
0.0
 10
23.059999999999917
 20
72.719999999999985
 30
0.0
 10
23.059999999999917
 20
69.719999999999985
 30
0.0
  0
LWPOLYLINE
  5
118
  8
0
 62
256
370
-1
 48
1.0
  6
ByLayer
100
AcDbEntity
100
AcDbPolyline
 90
4
 70
1
 10
-21.72000000000007
 20
166.00000000000006
 30
0.0
 10
-21.720000000000041
 20
14.999999999999986
 30
0.0
 10
-172.72000000000008
 20
14.999999999999972
 30
0.0
 10
-172.72000000000008
 20
166.0
 30
0.0
  0
LWPOLYLINE
  5
119
  8
0
 62
256
370
-1
 48
1.0
  6
ByLayer
100
AcDbEntity
100
AcDbPolyline
 90
4
 70
1
 10
-3.5700000000000784
 20
156.22000000000003
 30
0.0
 10
-6.7200000000000983
 20
156.21999999999997
 30
0.0
 10
-6.7200000000000983
 20
172.74000000000001
 30
0.0
 10
-3.5700000000000784
 20
172.74000000000001
 30
0.0
  0
LWPOLYLINE
  5
11A
  8
0
 62
256
370
-1
 48
1.0
  6
ByLayer
100
AcDbEntity
100
AcDbPolyline
 90
4
 70
1
 10
-187.72000000000006
 20
156.21999999999997
 30
0.0
 10
-190.87000000000009
 20
156.22000000000003
 30
0.0
 10
-190.87000000000009
 20
172.74000000000001
 30
0.0
 10
-187.72000000000006
 20
172.74000000000001
 30
0.0
  0
LWPOLYLINE
  5
11B
  8
0
 62
256
370
-1
 48
1.0
  6
ByLayer
100
AcDbEntity
100
AcDbPolyline
 90
4
 70
1
 10
-190.87000000000009
 20
24.779999999999916
 30
0.0
 10
-187.72000000000006
 20
24.77999999999993
 30
0.0
 10
-187.72000000000006
 20
8.2599999999999199
 30
0.0
 10
-190.87000000000009
 20
8.2599999999999199
 30
0.0
  0
LWPOLYLINE
  5
11C
  8
0
 62
256
370
-1
 48
1.0
  6
ByLayer
100
AcDbEntity
100
AcDbPolyline
 90
4
 70
1
 10
-3.5700000000000784
 20
8.2599999999999199
 30
0.0
 10
-6.7200000000000983
 20
8.2599999999999199
 30
0.0
 10
-6.7200000000000983
 20
24.77999999999993
 30
0.0
 10
-3.5700000000000784
 20
24.77999999999993
 30
0.0
  0
LWPOLYLINE
  5
11D
  8
0
 62
256
370
-1
 48
1.0
  6
ByLayer
100
AcDbEntity
100
AcDbPolyline
 90
92
 70
1
 10
7.8549999999999187
 20
124.71999999999996
 30
0.0
 10
7.8549999999999187
 20
119.93999999999997
 30
0.0
 10
8.8799999999999102
 20
119.93999999999997
 30
0.0
 42
-2.414213562373094
 10
9.1299999999999102
 20
119.68999999999997
 30
0.0
 10
9.1299999999999102
 20
117.68999999999997
 30
0.0
 42
-2.414213562373094
 10
8.8799999999999102
 20
117.43999999999997
 30
0.0
 10
7.8549999999999187
 20
117.43999999999997
 30
0.0
 10
7.8549999999999187
 20
116.43999999999997
 30
0.0
 10
4.704999999999913
 20
116.43999999999997
 30
0.0
 10
4.704999999999913
 20
117.43999999999997
 30
0.0
 10
3.6799999999999216
 20
117.43999999999997
 30
0.0
 42
-2.414213562373094
 10
3.4299999999999216
 20
117.68999999999997
 30
0.0
 10
3.4299999999999216
 20
119.68999999999997
 30
0.0
 42
-2.414213562373094
 10
3.6799999999999216
 20
119.93999999999997
 30
0.0
 10
4.7049999999998136
 20
119.93999999999997
 30
0.0
 10
4.704999999999913
 20
124.71999999999996
 30
0.0
 10
-0.0000000000000711
 20
124.72000000000004
 30
0.0
 10
-0.0000000000001279
 20
181.00000000000011
 30
0.0
 10
-33.870000000000175
 20
181.00000000000006
 30
0.0
 10
-33.870000000000161
 20
177.85000000000002
 30
0.0
 10
-70.070000000000164
 20
177.84999999999997
 30
0.0
 10
-70.070000000000135
 20
181.0
 30
0.0
 10
-194.44000000000014
 20
181.0
 30
0.0
 10
-194.44000000000014
 20
124.71999999999996
 30
0.0
 10
-199.14500000000007
 20
124.71999999999996
 30
0.0
 10
-199.14499999999998
 20
119.93999999999997
 30
0.0
 10
-198.12000000000009
 20
119.93999999999997
 30
0.0
 42
-2.414213562373094
 10
-197.87000000000009
 20
119.68999999999997
 30
0.0
 10
-197.87000000000009
 20
117.68999999999997
 30
0.0
 42
-2.414213562373094
 10
-198.12000000000009
 20
117.43999999999997
 30
0.0
 10
-199.14500000000007
 20
117.43999999999997
 30
0.0
 10
-199.14500000000007
 20
116.43999999999997
 30
0.0
 10
-202.2950000000001
 20
116.43999999999997
 30
0.0
 10
-202.2950000000001
 20
117.43999999999997
 30
0.0
 10
-203.32000000000008
 20
117.43999999999997
 30
0.0
 42
-2.414213562373094
 10
-203.57000000000008
 20
117.68999999999997
 30
0.0
 10
-203.57000000000008
 20
119.68999999999997
 30
0.0
 42
-2.414213562373094
 10
-203.32000000000008
 20
119.93999999999997
 30
0.0
 10
-202.2950000000001
 20
119.93999999999997
 30
0.0
 10
-202.2950000000001
 20
124.71999999999996
 30
0.0
 10
-220.50000000000009
 20
124.71999999999996
 30
0.0
 10
-220.50000000000009
 20
101.9066666666666
 30
0.0
 10
-227.22000000000008
 20
101.9066666666666
 30
0.0
 10
-227.22000000000008
 20
76.093333333333305
 30
0.0
 10
-220.50000000000009
 20
76.093333333333305
 30
0.0
 10
-220.50000000000009
 20
56.279999999999973
 30
0.0
 10
-202.2950000000001
 20
56.279999999999973
 30
0.0
 10
-202.2950000000001
 20
61.059999999999974
 30
0.0
 10
-203.32000000000008
 20
61.059999999999974
 30
0.0
 42
-2.414213562373094
 10
-203.57000000000008
 20
61.309999999999974
 30
0.0
 10
-203.57000000000008
 20
63.309999999999974
 30
0.0
 42
-2.414213562373094
 10
-203.32000000000008
 20
63.559999999999974
 30
0.0
 10
-202.2950000000001
 20
63.559999999999974
 30
0.0
 10
-202.2950000000001
 20
64.559999999999974
 30
0.0
 10
-199.14500000000007
 20
64.559999999999974
 30
0.0
 10
-199.14500000000007
 20
63.559999999999974
 30
0.0
 10
-198.12000000000009
 20
63.559999999999974
 30
0.0
 42
-2.414213562373094
 10
-197.87000000000009
 20
63.309999999999974
 30
0.0
 10
-197.87000000000009
 20
61.309999999999974
 30
0.0
 42
-2.414213562373094
 10
-198.12000000000009
 20
61.059999999999974
 30
0.0
 10
-199.14499999999998
 20
61.059999999999974
 30
0.0
 10
-199.14500000000007
 20
56.279999999999973
 30
0.0
 10
-194.44000000000014
 20
56.279999999999959
 30
0.0
 10
-194.44000000000008
 20
-0.0000000000000711
 30
0.0
 10
-70.070000000000036
 20
-0.0000000000000284
 30
0.0
 10
-70.07000000000005
 20
3.1500000000000057
 30
0.0
 10
-33.870000000000047
 20
3.1500000000000057
 30
0.0
 10
-33.870000000000061
 20
-0.0000000000000142
 30
0.0
 10
0.0
 20
0.0
 30
0.0
 10
0.0
 20
56.280000000000044
 30
0.0
 10
4.704999999999913
 20
56.279999999999973
 30
0.0
 10
4.7049999999998136
 20
61.059999999999974
 30
0.0
 10
3.6799999999999216
 20
61.059999999999974
 30
0.0
 42
-2.414213562373094
 10
3.4299999999999216
 20
61.309999999999974
 30
0.0
 10
3.4299999999999216
 20
63.309999999999974
 30
0.0
 42
-2.414213562373094
 10
3.6799999999999216
 20
63.559999999999974
 30
0.0
 10
4.704999999999913
 20
63.559999999999974
 30
0.0
 10
4.704999999999913
 20
64.559999999999974
 30
0.0
 10
7.8549999999999187
 20
64.559999999999974
 30
0.0
 10
7.8549999999999187
 20
63.559999999999974
 30
0.0
 10
8.8799999999999102
 20
63.559999999999974
 30
0.0
 42
-2.414213562373094
 10
9.1299999999999102
 20
63.309999999999974
 30
0.0
 10
9.1299999999999102
 20
61.309999999999974
 30
0.0
 42
-2.414213562373094
 10
8.8799999999999102
 20
61.059999999999974
 30
0.0
 10
7.8549999999999187
 20
61.059999999999974
 30
0.0
 10
7.8549999999999187
 20
56.279999999999973
 30
0.0
 10
26.059999999999917
 20
56.280000000000072
 30
0.0
 10
26.059999999999917
 20
79.093333333333405
 30
0.0
 10
32.779999999999916
 20
79.093333333333405
 30
0.0
 10
32.779999999999916
 20
101.90666666666671
 30
0.0
 10
26.059999999999917
 20
101.90666666666671
 30
0.0
 10
26.059999999999818
 20
124.72000000000004
 30
0.0
  0
CIRCLE
  5
11E
100
AcDbEntity
100
AcDbCircle
  8
0
 62
256
370
-1
 48
1.0
  6
ByLayer
 10
-200.72000000000008
 20
90.499999999999957
 30
0.0
 40
4.04
  0
CIRCLE
  5
11F
100
AcDbEntity
100
AcDbCircle
  8
0
 62
256
370
-1
 48
1.0
  6
ByLayer
 10
-200.72000000000008
 20
74.500000000000185
 30
0.0
 40
3.3500000000000001
  0
CIRCLE
  5
120
100
AcDbEntity
100
AcDbCircle
  8
0
 62
256
370
-1
 48
1.0
  6
ByLayer
 10
-200.72000000000008
 20
106.49999999999974
 30
0.0
 40
3.3500000000000001
  0
CIRCLE
  5
121
100
AcDbEntity
100
AcDbCircle
  8
0
 62
256
370
-1
 48
1.0
  6
ByLayer
 10
6.2799999999999159
 20
90.499999999999957
 30
0.0
 40
4.04
  0
CIRCLE
  5
122
100
AcDbEntity
100
AcDbCircle
  8
0
 62
256
370
-1
 48
1.0
  6
ByLayer
 10
6.2799999999999159
 20
74.500000000000185
 30
0.0
 40
3.3500000000000001
  0
CIRCLE
  5
123
100
AcDbEntity
100
AcDbCircle
  8
0
 62
256
370
-1
 48
1.0
  6
ByLayer
 10
6.2799999999999159
 20
106.49999999999974
 30
0.0
 40
3.3500000000000001
  0
CIRCLE
  5
124
100
AcDbEntity
100
AcDbCircle
  8
0
 62
256
370
-1
 48
1.0
  6
ByLayer
 10
-97.220000000000084
 20
7.5
 30
0.0
 40
2.6249999999999969
  0
CIRCLE
  5
125
100
AcDbEntity
100
AcDbCircle
  8
0
 62
256
370
-1
 48
1.0
  6
ByLayer
 10
-14.220000000000084
 20
90.500000000000028
 30
0.0
 40
2.6249999999999969
  0
CIRCLE
  5
126
100
AcDbEntity
100
AcDbCircle
  8
0
 62
256
370
-1
 48
1.0
  6
ByLayer
 10
-14.220000000000084
 20
173.50000000000006
 30
0.0
 40
2.6249999999999969
  0
CIRCLE
  5
127
100
AcDbEntity
100
AcDbCircle
  8
0
 62
256
370
-1
 48
1.0
  6
ByLayer
 10
-180.22000000000008
 20
173.5
 30
0.0
 40
2.6249999999999969
  0
CIRCLE
  5
128
100
AcDbEntity
100
AcDbCircle
  8
0
 62
256
370
-1
 48
1.0
  6
ByLayer
 10
-14.22000000000007
 20
68.794999999999973
 30
0.0
 40
2.0000000000000031
  0
CIRCLE
  5
129
100
AcDbEntity
100
AcDbCircle
  8
0
 62
256
370
-1
 48
1.0
  6
ByLayer
 10
-97.220000000000084
 20
173.5
 30
0.0
 40
2.6249999999999969
  0
CIRCLE
  5
12A
100
AcDbEntity
100
AcDbCircle
  8
0
 62
256
370
-1
 48
1.0
  6
ByLayer
 10
-180.22000000000008
 20
90.499999999999986
 30
0.0
 40
2.6249999999999969
  0
CIRCLE
  5
12B
100
AcDbEntity
100
AcDbCircle
  8
0
 62
256
370
-1
 48
1.0
  6
ByLayer
 10
-180.22000000000008
 20
7.4999999999999858
 30
0.0
 40
2.6249999999999969
  0
CIRCLE
  5
12C
100
AcDbEntity
100
AcDbCircle
  8
0
 62
256
370
-1
 48
1.0
  6
ByLayer
 10
-14.220000000000084
 20
7.5000000000000284
 30
0.0
 40
2.6249999999999969
  0
ENDBLK
  5
12D
100
AcDbEntity
  8
0
100
AcDbBlockEnd
  0
BLOCK
  5
12E
100
AcDbEntity
  8
0
100
AcDbBlockBegin
  2
crane_front
 70
0
 10
0.0
 20
0.0
 30
0.0
  3
crane_front
  1

  0
LWPOLYLINE
  5
12F
  8
0
 62
256
370
-1
 48
1.0
  6
ByLayer
100
AcDbEntity
100
AcDbPolyline
 90
4
 70
1
 10
18.704999999999899
 20
-3.0
 30
0.0
 42
-0.9999999999999998
 10
21.854999999999901
 20
-2.9999999999999929
 30
0.0
 10
21.854999999999901
 20
-3.100000000000001
 30
0.0
 42
-0.9999999999999998
 10
18.704999999999899
 20
-3.0999999999999801
 30
0.0
  0
LWPOLYLINE
  5
130
  8
0
 62
256
370
-1
 48
1.0
  6
ByLayer
100
AcDbEntity
100
AcDbPolyline
 90
4
 70
1
 10
40.854999999999897
 20
-3.100000000000001
 30
0.0
 42
-0.9999999999999998
 10
37.705000000000013
 20
-3.100000000000001
 30
0.0
 10
37.705000000000013
 20
-2.9999999999999929
 30
0.0
 42
-0.9999999999999998
 10
40.854999999999897
 20
-3.0
 30
0.0
  0
LWPOLYLINE
  5
131
  8
0
 62
256
370
-1
 48
1.0
  6
ByLayer
100
AcDbEntity
100
AcDbPolyline
 90
88
 70
1
 10
224.20500000000001
 20
-50.0
 30
0.0
 10
224.20500000000001
 20
-45.219999999999999
 30
0.0
 10
223.18000000000001
 20
-45.219999999999999
 30
0.0
 42
-2.414213562373094
 10
222.93000000000001
 20
-44.969999999999999
 30
0.0
 10
222.93000000000001
 20
-42.969999999999999
 30
0.0
 42
-2.414213562373094
 10
223.18000000000001
 20
-42.719999999999999
 30
0.0
 10
224.20500000000001
 20
-42.719999999999999
 30
0.0
 10
224.20500000000001
 20
-41.719999999999999
 30
0.0
 10
227.35499999999999
 20
-41.719999999999999
 30
0.0
 10
227.35499999999999
 20
-42.719999999999999
 30
0.0
 10
228.38
 20
-42.719999999999999
 30
0.0
 42
-2.414213562373094
 10
228.63
 20
-42.969999999999999
 30
0.0
 10
228.63
 20
-44.969999999999999
 30
0.0
 42
-2.414213562373094
 10
228.38
 20
-45.219999999999999
 30
0.0
 10
227.35499999999999
 20
-45.219999999999999
 30
0.0
 10
227.35499999999999
 20
-50.0
 30
0.0
 10
244.56
 20
-50.0
 30
0.0
 10
244.56
 20
0.0
 30
0.0
 10
169.905
 20
0.0
 30
0.0
 10
169.905
 20
-7.5000000000000071
 30
0.0
 42
-0.9999999999999998
 10
164.655
 20
-7.5000000000000071
 30
0.0
 10
164.655
 20
0.0
 30
0.0
 10
79.905000000000001
 20
0.0
 30
0.0
 10
79.905000000000001
 20
-7.5
 30
0.0
 42
-0.9999999999999998
 10
74.655000000000001
 20
-7.5
 30
0.0
 10
74.655000000000001
 20
0.0
 30
0.0
 10
0.0
 20
0.0
 30
0.0
 10
0.0
 20
-50.0
 30
0.0
 10
17.205000000000009
 20
-50.0
 30
0.0
 10
17.205000000000009
 20
-45.219999999999999
 30
0.0
 10
16.18000000000001
 20
-45.219999999999999
 30
0.0
 42
-2.414213562373094
 10
15.93000000000001
 20
-44.969999999999999
 30
0.0
 10
15.93000000000001
 20
-42.969999999999999
 30
0.0
 42
-2.414213562373094
 10
16.17999999999989
 20
-42.719999999999999
 30
0.0
 10
17.205000000000009
 20
-42.719999999999999
 30
0.0
 10
17.205000000000009
 20
-41.719999999999999
 30
0.0
 10
20.35499999999999
 20
-41.719999999999999
 30
0.0
 10
20.35499999999999
 20
-42.719999999999999
 30
0.0
 10
21.37999999999991
 20
-42.719999999999999
 30
0.0
 42
-2.414213562373094
 10
21.629999999999999
 20
-42.969999999999999
 30
0.0
 10
21.629999999999999
 20
-44.969999999999999
 30
0.0
 42
-2.414213562373094
 10
21.379999999999999
 20
-45.219999999999999
 30
0.0
 10
20.35499999999999
 20
-45.219999999999999
 30
0.0
 10
20.35499999999999
 20
-50.0
 30
0.0
 10
62.530000000000001
 20
-50.0
 30
0.0
 10
62.530000000000001
 20
-56.719999999999999
 30
0.0
 10
75.530000000000001
 20
-56.719999999999999
 30
0.0
 10
75.530000000000001
 20
-50.0
 30
0.0
 10
86.205000000000013
 20
-50.0
 30
0.0
 10
86.205000000000013
 20
-45.219999999999999
 30
0.0
 10
85.180000000000007
 20
-45.219999999999999
 30
0.0
 42
-2.414213562373094
 10
84.930000000000007
 20
-44.969999999999999
 30
0.0
 10
84.930000000000007
 20
-42.969999999999999
 30
0.0
 42
-2.414213562373094
 10
85.180000000000007
 20
-42.719999999999999
 30
0.0
 10
86.205000000000013
 20
-42.719999999999999
 30
0.0
 10
86.205000000000013
 20
-41.719999999999999
 30
0.0
 10
89.35499999999999
 20
-41.719999999999999
 30
0.0
 10
89.35499999999999
 20
-42.719999999999999
 30
0.0
 10
90.379999999999995
 20
-42.719999999999999
 30
0.0
 42
-2.414213562373094
 10
90.629999999999995
 20
-42.969999999999999
 30
0.0
 10
90.629999999999995
 20
-44.969999999999999
 30
0.0
 42
-2.414213562373094
 10
90.379999999999995
 20
-45.219999999999999
 30
0.0
 10
89.35499999999999
 20
-45.219999999999999
 30
0.0
 10
89.35499999999999
 20
-50.0
 30
0.0
 10
117.2800000000001
 20
-50.0
 30
0.0
 10
117.2800000000001
 20
-56.719999999999999
 30
0.0
 10
127.28
 20
-56.719999999999999
 30
0.0
 10
127.28
 20
-50.0
 30
0.0
 10
155.20500000000001
 20
-50.0
 30
0.0
 10
155.20500000000001
 20
-45.219999999999999
 30
0.0
 10
154.18000000000001
 20
-45.219999999999999
 30
0.0
 42
-2.414213562373094
 10
153.93000000000001
 20
-44.969999999999999
 30
0.0
 10
153.93000000000001
 20
-42.969999999999999
 30
0.0
 42
-2.414213562373094
 10
154.18000000000001
 20
-42.719999999999999
 30
0.0
 10
155.20500000000001
 20
-42.719999999999999
 30
0.0
 10
155.20500000000001
 20
-41.719999999999999
 30
0.0
 10
158.35499999999999
 20
-41.719999999999999
 30
0.0
 10
158.35499999999999
 20
-42.719999999999999
 30
0.0
 10
159.38
 20
-42.719999999999999
 30
0.0
 42
-2.414213562373094
 10
159.63
 20
-42.969999999999999
 30
0.0
 10
159.63
 20
-44.969999999999999
 30
0.0
 42
-2.414213562373094
 10
159.38
 20
-45.219999999999999
 30
0.0
 10
158.35499999999999
 20
-45.219999999999999
 30
0.0
 10
158.35499999999999
 20
-50.0
 30
0.0
 10
169.03
 20
-50.0
 30
0.0
 10
169.03
 20
-56.719999999999999
 30
0.0
 10
179.03
 20
-56.719999999999999
 30
0.0
 10
179.03
 20
-50.0
 30
0.0
  0
ENDBLK
  5
132
100
AcDbEntity
  8
0
100
AcDbBlockEnd
  0
BLOCK
  5
133
100
AcDbEntity
  8
0
100
AcDbBlockBegin
  2
frame_galvo
 70
0
 10
0.0
 20
0.0
 30
0.0
  3
frame_galvo
  1

  0
LWPOLYLINE
  5
134
  8
0
 62
256
370
-1
 48
1.0
  6
ByLayer
100
AcDbEntity
100
AcDbPolyline
 90
4
 70
1
 10
-30.900000000000048
 20
-33.999999999999993
 30
0.0
 10
-30.900000000000048
 20
-28.00000000000011
 30
0.0
 42
0.9999999999999998
 10
-35.100000000000037
 20
-28.00000000000011
 30
0.0
 10
-35.100000000000037
 20
-33.999999999999993
 30
0.0
 42
0.9999999999999998
  0
LWPOLYLINE
  5
135
  8
0
 62
256
370
-1
 48
1.0
  6
ByLayer
100
AcDbEntity
100
AcDbPolyline
 90
4
 70
1
 10
-16.40000000000002
 20
-7.0000000000001066
 30
0.0
 42
0.9999999999999998
 10
-20.600000000000041
 20
-7.0000000000001066
 30
0.0
 10
-20.600000000000041
 20
-25.50000000000011
 30
0.0
 42
0.9999999999999998
 10
-16.400000000000048
 20
-25.50000000000011
 30
0.0
  0
LWPOLYLINE
  5
136
  8
0
 62
256
370
-1
 48
1.0
  6
ByLayer
100
AcDbEntity
100
AcDbPolyline
 90
8
 70
1
 10
-22.0
 20
-65.000000000000114
 30
0.0
 10
-22.000000000000011
 20
-71.720000000000113
 30
0.0
 10
-44.000000000000007
 20
-71.720000000000113
 30
0.0
 10
-44.000000000000007
 20
-65.000000000000114
 30
0.0
 10
-66.000000000000043
 20
-65.000000000000114
 30
0.0
 10
-66.000000000000043
 20
-0.0000000000000995
 30
0.0
 10
0.0
 20
0.0
 30
0.0
 10
-0.0000000000000142
 20
-65.000000000000114
 30
0.0
  0
CIRCLE
  5
137
100
AcDbEntity
100
AcDbCircle
  8
0
 62
256
370
-1
 48
1.0
  6
ByLayer
 10
-6.7200000000000131
 20
-38.940000000000083
 30
0.0
 40
1.9999999999999989
  0
CIRCLE
  5
138
100
AcDbEntity
100
AcDbCircle
  8
0
 62
256
370
-1
 48
1.0
  6
ByLayer
 10
-59.280000000000037
 20
-38.940000000000097
 30
0.0
 40
1.9999999999999989
  0
ENDBLK
  5
139
100
AcDbEntity
  8
0
100
AcDbBlockEnd
  0
BLOCK
  5
13A
100
AcDbEntity
  8
0
100
AcDbBlockBegin
  2
carrier_wall
 70
0
 10
0.0
 20
0.0
 30
0.0
  3
carrier_wall
  1

  0
LWPOLYLINE
  5
13B
  8
0
 62
256
370
-1
 48
1.0
  6
ByLayer
100
AcDbEntity
100
AcDbPolyline
 90
12
 70
1
 10
-63.350000000000108
 20
177.84999999999988
 30
0.0
 10
-63.350000000000108
 20
180.99999999999989
 30
0.0
 10
-181.00000000000011
 20
180.99999999999989
 30
0.0
 10
-181.00000000000009
 20
-0.0000000000001137
 30
0.0
 10
-63.350000000000009
 20
0.0
 30
0.0
 10
-63.350000000000009
 20
3.1499999999999773
 30
0.0
 10
-27.150000000000006
 20
3.1499999999999773
 30
0.0
 10
-27.150000000000006
 20
0.0
 30
0.0
 10
0.0
 20
0.0
 30
0.0
 10
-0.0000000000001137
 20
181.00000000000003
 30
0.0
 10
-27.150000000000119
 20
180.99999999999991
 30
0.0
 10
-27.150000000000006
 20
177.84999999999991
 30
0.0
  0
LWPOLYLINE
  5
13C
  8
0
 62
256
370
-1
 48
1.0
  6
ByLayer
100
AcDbEntity
100
AcDbPolyline
 90
4
 70
1
 10
-15.0
 20
15.0
 30
0.0
 10
-166.00000000000006
 20
14.999999999999886
 30
0.0
 10
-166.00000000000011
 20
165.99999999999989
 30
0.0
 10
-15.000000000000114
 20
166.0
 30
0.0
  0
CIRCLE
  5
13D
100
AcDbEntity
100
AcDbCircle
  8
0
 62
256
370
-1
 48
1.0
  6
ByLayer
 10
-7.5
 20
7.5
 30
0.0
 40
2.6249999999999969
  0
CIRCLE
  5
13E
100
AcDbEntity
100
AcDbCircle
  8
0
 62
256
370
-1
 48
1.0
  6
ByLayer
 10
-173.50000000000006
 20
7.4999999999998863
 30
0.0
 40
2.6249999999999969
  0
CIRCLE
  5
13F
100
AcDbEntity
100
AcDbCircle
  8
0
 62
256
370
-1
 48
1.0
  6
ByLayer
 10
-173.50000000000009
 20
90.499999999999901
 30
0.0
 40
2.6249999999999969
  0
CIRCLE
  5
140
100
AcDbEntity
100
AcDbCircle
  8
0
 62
256
370
-1
 48
1.0
  6
ByLayer
 10
-90.500000000000128
 20
173.49999999999997
 30
0.0
 40
2.6249999999999969
  0
CIRCLE
  5
141
100
AcDbEntity
100
AcDbCircle
  8
0
 62
256
370
-1
 48
1.0
  6
ByLayer
 10
-173.50000000000014
 20
173.49999999999991
 30
0.0
 40
2.6249999999999969
  0
CIRCLE
  5
142
100
AcDbEntity
100
AcDbCircle
  8
0
 62
256
370
-1
 48
1.0
  6
ByLayer
 10
-7.5000000000001137
 20
173.5
 30
0.0
 40
2.6249999999999969
  0
CIRCLE
  5
143
100
AcDbEntity
100
AcDbCircle
  8
0
 62
256
370
-1
 48
1.0
  6
ByLayer
 10
-7.5000000000001137
 20
90.5
 30
0.0
 40
2.6249999999999969
  0
CIRCLE
  5
144
100
AcDbEntity
100
AcDbCircle
  8
0
 62
256
370
-1
 48
1.0
  6
ByLayer
 10
-90.500000000000057
 20
7.5
 30
0.0
 40
2.6249999999999969
  0
CIRCLE
  5
145
100
AcDbEntity
100
AcDbCircle
  8
0
 62
256
370
-1
 48
1.0
  6
ByLayer
 10
-7.5
 20
68.794999999999987
 30
0.0
 40
2.0
  0
ENDBLK
  5
146
100
AcDbEntity
  8
0
100
AcDbBlockEnd
  0
BLOCK
  5
147
100
AcDbEntity
  8
0
100
AcDbBlockBegin
  2
p2
 70
0
 10
0.0
 20
0.0
 30
0.0
  3
p2
  1

  0
LINE
  5
148
100
AcDbEntity
100
AcDbLine
  8
0
 62
256
370
-1
 48
1.0
  6
ByLayer
 10
0.0
 20
0.0
 30
0.0
 11
384.0
 21
0.0
 31
0.0
  0
LINE
  5
149
100
AcDbEntity
100
AcDbLine
  8
0
 62
256
370
-1
 48
1.0
  6
ByLayer
 10
384.0
 20
0.0
 30
0.0
 11
384.0
 21
-384.0
 31
0.0
  0
LINE
  5
14A
100
AcDbEntity
100
AcDbLine
  8
0
 62
256
370
-1
 48
1.0
  6
ByLayer
 10
384.0
 20
-384.0
 30
0.0
 11
0.0
 21
-384.0
 31
0.0
  0
LINE
  5
14B
100
AcDbEntity
100
AcDbLine
  8
0
 62
256
370
-1
 48
1.0
  6
ByLayer
 10
0.0
 20
-384.0
 30
0.0
 11
0.0
 21
0.0
 31
0.0
  0
ENDBLK
  5
14C
100
AcDbEntity
  8
0
100
AcDbBlockEnd
  0
BLOCK
  5
14D
100
AcDbEntity
  8
0
100
AcDbBlockBegin
  2
carrier_window
 70
0
 10
0.0
 20
0.0
 30
0.0
  3
carrier_window
  1

  0
LWPOLYLINE
  5
14E
  8
0
 62
256
370
-1
 48
1.0
  6
ByLayer
100
AcDbEntity
100
AcDbPolyline
 90
14
 70
1
 10
6.7200000000000841
 20
-25.0
 30
0.0
 10
6.7200000000000273
 20
0.0
 30
0.0
 10
0.0
 20
0.0
 30
0.0
 10
0.0000000000000711
 20
-185.0
 30
0.0
 10
14.98000000000008
 20
-185.0
 30
0.0
 10
14.98000000000008
 20
-190.88
 30
0.0
 10
31.500000000000039
 20
-190.87999999999991
 30
0.0
 10
31.500000000000071
 20
-184.99999999999989
 30
0.0
 10
56.280000000000243
 20
-184.99999999999989
 30
0.0
 10
56.280000000000143
 20
-50.0
 30
0.0
 10
63.000000000000163
 20
-50.0
 30
0.0
 10
63.000000000000107
 20
0.0
 30
0.0
 10
9.8700000000000614
 20
0.0
 30
0.0
 10
9.8700000000000756
 20
-25.0
 30
0.0
  0
ENDBLK
  5
14F
100
AcDbEntity
  8
0
100
AcDbBlockEnd
  0
BLOCK
  5
150
100
AcDbEntity
  8
0
100
AcDbBlockBegin
  2
frame_laser
 70
0
 10
0.0
 20
0.0
 30
0.0
  3
frame_laser
  1

  0
LWPOLYLINE
  5
151
  8
0
 62
256
370
-1
 48
1.0
  6
ByLayer
100
AcDbEntity
100
AcDbPolyline
 90
28
 70
1
 10
-11.49999999999994
 20
60.979130371550703
 30
0.0
 42
-0.9198662110078005
 10
-11.49999999999994
 20
49.020869628449297
 30
0.0
 10
-11.499999999999931
 20
40.0
 30
0.0
 10
-12.49999999999992
 20
40.0
 30
0.0
 10
-12.499999999999931
 20
49.020869628449297
 30
0.0
 42
-0.9198662110078002
 10
-12.49999999999994
 20
60.979130371550703
 30
0.0
 10
-12.49999999999994
 20
78.0
 30
0.0
 10
-24.0
 20
78.0
 30
0.0
 10
-24.000000000000011
 20
73.000000000000114
 30
0.0
 10
-17.49999999999994
 20
73.000000000000114
 30
0.0
 10
-17.49999999999994
 20
67.000000000000114
 30
0.0
 10
-24.000000000000011
 20
67.000000000000114
 30
0.0
 10
-24.0
 20
44.0
 30
0.0
 10
-15.499999999999931
 20
44.0
 30
0.0
 10
-15.49999999999992
 20
40.0
 30
0.0
 10
-24.000000000000011
 20
40.0
 30
0.0
 10
-24.0
 20
0.0
 30
0.0
 10
0.0
 20
0.0
 30
0.0
 10
0.0
 20
40.0
 30
0.0
 10
-8.5000000000000782
 20
40.0
 30
0.0
 10
-8.5000000000000782
 20
44.0
 30
0.0
 10
0.0
 20
44.0
 30
0.0
 10
0.0
 20
67.000000000000114
 30
0.0
 10
-6.5000000000000711
 20
67.000000000000114
 30
0.0
 10
-6.5000000000000639
 20
73.000000000000114
 30
0.0
 10
-0.0000000000000071
 20
73.000000000000114
 30
0.0
 10
-0.0000000000000071
 20
78.0
 30
0.0
 10
-11.49999999999994
 20
78.0
 30
0.0
  0
CIRCLE
  5
152
100
AcDbEntity
100
AcDbCircle
  8
0
 62
256
370
-1
 48
1.0
  6
ByLayer
 10
-4.0
 20
36.060000000000002
 30
0.0
 40
1.9999999999999989
  0
CIRCLE
  5
153
100
AcDbEntity
100
AcDbCircle
  8
0
 62
256
370
-1
 48
1.0
  6
ByLayer
 10
-20.0
 20
36.060000000000002
 30
0.0
 40
1.9999999999999989
  0
CIRCLE
  5
154
100
AcDbEntity
100
AcDbCircle
  8
0
 62
256
370
-1
 48
1.0
  6
ByLayer
 10
-12.0
 20
25.0
 30
0.0
 40
1.575000000000004
  0
CIRCLE
  5
155
100
AcDbEntity
100
AcDbCircle
  8
0
 62
256
370
-1
 48
1.0
  6
ByLayer
 10
-11.999999999999989
 20
10.0
 30
0.0
 40
1.574999999999996
  0
ENDBLK
  5
156
100
AcDbEntity
  8
0
100
AcDbBlockEnd
  0
BLOCK
  5
157
100
AcDbEntity
  8
0
100
AcDbBlockBegin
  2
frame_laser_big
 70
0
 10
0.0
 20
0.0
 30
0.0
  3
frame_laser_big
  1

  0
LWPOLYLINE
  5
158
  8
0
 62
256
370
-1
 48
1.0
  6
ByLayer
100
AcDbEntity
100
AcDbPolyline
 90
28
 70
1
 10
-11.499999999999931
 20
60.97913037155071
 30
0.0
 42
-0.9198662110078005
 10
-11.499999999999931
 20
49.02086962844929
 30
0.0
 10
-11.49999999999992
 20
40.0
 30
0.0
 10
-12.49999999999992
 20
40.0
 30
0.0
 10
-12.49999999999992
 20
49.02086962844929
 30
0.0
 42
-0.9198662110078
 10
-12.499999999999931
 20
60.97913037155071
 30
0.0
 10
-12.499999999999931
 20
78.0
 30
0.0
 10
-23.999999999999989
 20
78.0
 30
0.0
 10
-23.999999999999989
 20
73.0
 30
0.0
 10
-17.499999999999929
 20
73.0
 30
0.0
 10
-17.499999999999918
 20
67.000000000000014
 30
0.0
 10
-24.0
 20
67.000000000000014
 30
0.0
 10
-24.0
 20
43.999999999999979
 30
0.0
 10
-15.499999999999909
 20
43.999999999999979
 30
0.0
 10
-15.499999999999909
 20
40.0
 30
0.0
 10
-24.0
 20
40.0
 30
0.0
 10
-24.0
 20
0.0
 30
0.0
 10
0.0
 20
0.0
 30
0.0
 10
0.0000000000000213
 20
40.0
 30
0.0
 10
-8.5000000000000711
 20
40.0
 30
0.0
 10
-8.5000000000000711
 20
43.999999999999979
 30
0.0
 10
0.0000000000000142
 20
43.999999999999979
 30
0.0
 10
0.0000000000000213
 20
67.000000000000014
 30
0.0
 10
-6.5000000000000568
 20
67.000000000000014
 30
0.0
 10
-6.5000000000000497
 20
73.0
 30
0.0
 10
0.0000000000000213
 20
73.0
 30
0.0
 10
0.0000000000000213
 20
78.0
 30
0.0
 10
-11.499999999999931
 20
78.000000000000028
 30
0.0
  0
CIRCLE
  5
159
100
AcDbEntity
100
AcDbCircle
  8
0
 62
256
370
-1
 48
1.0
  6
ByLayer
 10
-3.9999999999999858
 20
36.060000000000016
 30
0.0
 40
1.9999999999999989
  0
CIRCLE
  5
15A
100
AcDbEntity
100
AcDbCircle
  8
0
 62
256
370
-1
 48
1.0
  6
ByLayer
 10
-20.0
 20
36.060000000000016
 30
0.0
 40
1.9999999999999989
  0
CIRCLE
  5
15B
100
AcDbEntity
100
AcDbCircle
  8
0
 62
256
370
-1
 48
1.0
  6
ByLayer
 10
-12.0
 20
25.0
 30
0.0
 40
1.575000000000004
  0
CIRCLE
  5
15C
100
AcDbEntity
100
AcDbCircle
  8
0
 62
256
370
-1
 48
1.0
  6
ByLayer
 10
-12.0
 20
10.0
 30
0.0
 40
1.574999999999996
  0
ENDBLK
  5
15D
100
AcDbEntity
  8
0
100
AcDbBlockEnd
  0
BLOCK
  5
15E
100
AcDbEntity
  8
0
100
AcDbBlockBegin
  2
drawer_support
 70
0
 10
0.0
 20
0.0
 30
0.0
  3
drawer_support
  1

  0
LWPOLYLINE
  5
15F
  8
0
 62
256
370
-1
 48
1.0
  6
ByLayer
100
AcDbEntity
100
AcDbPolyline
 90
40
 70
1
 10
-6.7199999999999704
 20
20.925000000000011
 30
0.0
 10
-11.49999999999997
 20
20.925000000000011
 30
0.0
 10
-11.49999999999997
 20
19.900000000000009
 30
0.0
 42
-2.414213562373094
 10
-11.749999999999989
 20
19.650000000000009
 30
0.0
 10
-13.749999999999959
 20
19.650000000000009
 30
0.0
 42
-2.414213562373094
 10
-13.99999999999997
 20
19.900000000000009
 30
0.0
 10
-13.99999999999997
 20
20.925000000000011
 30
0.0
 10
-14.999999999999959
 20
20.925000000000011
 30
0.0
 10
-14.999999999999959
 20
24.075000000000021
 30
0.0
 10
-13.99999999999997
 20
24.075000000000021
 30
0.0
 10
-13.99999999999997
 20
25.099999999999991
 30
0.0
 42
-2.414213562373094
 10
-13.749999999999959
 20
25.349999999999991
 30
0.0
 10
-11.749999999999989
 20
25.349999999999991
 30
0.0
 42
-2.414213562373094
 10
-11.49999999999997
 20
25.099999999999991
 30
0.0
 10
-11.49999999999997
 20
24.075000000000021
 30
0.0
 10
-6.7199999999999704
 20
24.075000000000021
 30
0.0
 10
-6.7199999999997857
 20
30.0
 30
0.0
 10
-187.7199999999998
 20
29.999999999999911
 30
0.0
 10
-187.71999999999969
 20
24.075000000000021
 30
0.0
 10
-182.9399999999998
 20
24.075000000000021
 30
0.0
 10
-182.9399999999998
 20
25.099999999999991
 30
0.0
 42
-2.414213562373094
 10
-182.6899999999998
 20
25.349999999999991
 30
0.0
 10
-180.6899999999998
 20
25.349999999999991
 30
0.0
 42
-2.414213562373094
 10
-180.4399999999998
 20
25.099999999999991
 30
0.0
 10
-180.4399999999998
 20
24.075000000000021
 30
0.0
 10
-179.4399999999998
 20
24.075000000000021
 30
0.0
 10
-179.4399999999998
 20
20.925000000000011
 30
0.0
 10
-180.4399999999998
 20
20.925000000000011
 30
0.0
 10
-180.4399999999998
 20
19.900000000000009
 30
0.0
 42
-2.414213562373094
 10
-180.6899999999998
 20
19.650000000000009
 30
0.0
 10
-182.6899999999998
 20
19.650000000000009
 30
0.0
 42
-2.414213562373094
 10
-182.9399999999998
 20
19.900000000000009
 30
0.0
 10
-182.9399999999998
 20
20.925000000000011
 30
0.0
 10
-187.71999999999969
 20
20.925000000000011
 30
0.0
 10
-187.7199999999998
 20
15.0
 30
0.0
 10
-194.4399999999998
 20
15.0
 30
0.0
 10
-194.4399999999998
 20
0.0
 30
0.0
 10
0.0
 20
0.0
 30
0.0
 10
0.0
 20
15.0
 30
0.0
 10
-6.7200000000000273
 20
15.0
 30
0.0
  0
CIRCLE
  5
160
100
AcDbEntity
100
AcDbCircle
  8
0
 62
256
370
-1
 48
1.0
  6
ByLayer
 10
-36.886666666666429
 20
15.000000000002609
 30
0.0
 40
1.9999999999999989
  0
CIRCLE
  5
161
100
AcDbEntity
100
AcDbCircle
  8
0
 62
256
370
-1
 48
1.0
  6
ByLayer
 10
-157.55333333333309
 20
15.000000000002499
 30
0.0
 40
1.9999999999999989
  0
ENDBLK
  5
162
100
AcDbEntity
  8
0
100
AcDbBlockEnd
  0
BLOCK
  5
163
100
AcDbEntity
  8
0
100
AcDbBlockBegin
  2
drawer_back
 70
0
 10
0.0
 20
0.0
 30
0.0
  3
drawer_back
  1

  0
LWPOLYLINE
  5
164
  8
0
 62
256
370
-1
 48
1.0
  6
ByLayer
100
AcDbEntity
100
AcDbPolyline
 90
8
 70
1
 10
-120.6666666666668
 20
-217.63999999999999
 30
0.0
 10
-120.6666666666668
 20
-224.36000000000001
 30
0.0
 10
-60.333333333333229
 20
-224.36000000000001
 30
0.0
 10
-60.333333333333229
 20
-217.63999999999999
 30
0.0
 10
0.0000000000000995
 20
-217.63999999999999
 30
0.0
 10
0.0
 20
0.0
 30
0.0
 10
-181.0
 20
0.0
 30
0.0
 10
-181.00000000000011
 20
-217.63999999999999
 30
0.0
  0
CIRCLE
  5
165
100
AcDbEntity
100
AcDbCircle
  8
0
 62
256
370
-1
 48
1.0
  6
ByLayer
 10
-54.749999999999993
 20
-37.400000000000013
 30
0.0
 40
1.575
  0
CIRCLE
  5
166
100
AcDbEntity
100
AcDbCircle
  8
0
 62
256
370
-1
 48
1.0
  6
ByLayer
 10
-35.249999999999929
 20
-29.400000000000009
 30
0.0
 40
2.0
  0
CIRCLE
  5
167
100
AcDbEntity
100
AcDbCircle
  8
0
 62
256
370
-1
 48
1.0
  6
ByLayer
 10
-35.749999999999993
 20
-37.400000000000013
 30
0.0
 40
1.575
  0
CIRCLE
  5
168
100
AcDbEntity
100
AcDbCircle
  8
0
 62
256
370
-1
 48
1.0
  6
ByLayer
 10
-90.499999999999986
 20
-221.0
 30
0.0
 40
1.5749999999999991
  0
CIRCLE
  5
169
100
AcDbEntity
100
AcDbCircle
  8
0
 62
256
370
-1
 48
1.0
  6
ByLayer
 10
-150.83333333333329
 20
-69.320000000000022
 30
0.0
 40
1.5750000000000011
  0
CIRCLE
  5
16A
100
AcDbEntity
100
AcDbCircle
  8
0
 62
256
370
-1
 48
1.0
  6
ByLayer
 10
-30.166666666666661
 20
-69.320000000000022
 30
0.0
 40
1.5750000000000011
  0
ENDBLK
  5
16B
100
AcDbEntity
  8
0
100
AcDbBlockEnd
  0
BLOCK
  5
16C
100
AcDbEntity
  8
0
100
AcDbBlockBegin
  2
frame_foot1
 70
0
 10
0.0
 20
0.0
 30
0.0
  3
frame_foot1
  1

  0
LWPOLYLINE
  5
16D
  8
0
 62
256
370
-1
 48
1.0
  6
ByLayer
100
AcDbEntity
100
AcDbPolyline
 90
4
 70
1
 10
-80.899999999999679
 20
-20.78000000000009
 30
0.0
 42
-0.9999999999999998
 10
-80.899999999999679
 20
-14.779999999999999
 30
0.0
 10
-60.899999999999679
 20
-14.78000000000009
 30
0.0
 42
-0.9999999999999998
 10
-60.899999999999679
 20
-20.78000000000009
 30
0.0
  0
LWPOLYLINE
  5
16E
  8
0
 62
256
370
-1
 48
1.0
  6
ByLayer
100
AcDbEntity
100
AcDbPolyline
 90
4
 70
1
 10
-88.899999999999679
 20
-8.2950000000001012
 30
0.0
 42
-0.9999999999999998
 10
-88.899999999999679
 20
-5.1450000000000946
 30
0.0
 10
-52.899999999999679
 20
-5.1450000000000946
 30
0.0
 42
-0.9999999999999998
 10
-52.899999999999679
 20
-8.2950000000001012
 30
0.0
  0
LWPOLYLINE
  5
16F
  8
0
 62
256
370
-1
 48
1.0
  6
ByLayer
100
AcDbEntity
100
AcDbPolyline
 90
4
 70
1
 10
-80.899999999999679
 20
-35.780000000000094
 30
0.0
 42
-0.9999999999999998
 10
-80.899999999999679
 20
-29.780000000000001
 30
0.0
 10
-60.899999999999693
 20
-29.780000000000001
 30
0.0
 42
-0.9999999999999998
 10
-60.899999999999693
 20
-35.780000000000094
 30
0.0
  0
LWPOLYLINE
  5
170
  8
0
 62
256
370
-1
 48
1.0
  6
ByLayer
100
AcDbEntity
100
AcDbPolyline
 90
62
 70
1
 10
-38.679999999999843
 20
-42.780000000000094
 30
0.0
 42
0.4142135623730951
 10
-36.679999999999843
 20
-40.780000000000094
 30
0.0
 10
-36.679999999999843
 20
-36.060000000000088
 30
0.0
 10
-29.95999999999983
 20
-36.060000000000088
 30
0.0
 10
-29.95999999999983
 20
-49.5
 30
0.0
 10
-30.071880662925739
 20
-55.909638886247308
 30
0.0
 10
26.320000000000391
 20
-56.893962824641108
 30
0.0
 10
26.319999999999951
 20
-31.220000000000109
 30
0.0
 10
-13.44000000000003
 20
-31.220000000000109
 30
0.0
 10
-13.44000000000003
 20
-24.5
 30
0.0
 10
-6.7199999999999989
 20
-24.5
 30
0.0
 10
0.0000000000000284
 20
-23.912076181105789
 30
0.0
 10
0.0
 20
0.0
 30
0.0
 10
-141.7999999999997
 20
-0.0000000000001137
 30
0.0
 10
-141.7999999999997
 20
-23.912076181105789
 30
0.0
 10
-135.0799999999997
 20
-24.5
 30
0.0
 10
-128.35999999999959
 20
-24.50000000000011
 30
0.0
 10
-128.35999999999959
 20
-31.220000000000109
 30
0.0
 10
-168.11999999999969
 20
-31.220000000000109
 30
0.0
 10
-168.11999999999969
 20
-53.5
 30
0.0
 10
-111.92694112108749
 20
-54.480853491246712
 30
0.0
 10
-111.8399999999998
 20
-49.5
 30
0.0
 10
-111.8399999999998
 20
-36.060000000000088
 30
0.0
 10
-105.11999999999981
 20
-36.060000000000088
 30
0.0
 10
-105.11999999999981
 20
-40.780000000000094
 30
0.0
 42
0.4142135623730951
 10
-103.11999999999981
 20
-42.780000000000094
 30
0.0
 10
-95.288333333332886
 20
-42.780000000000094
 30
0.0
 10
-95.288333333332886
 20
-38.000000000000107
 30
0.0
 10
-96.313333333332878
 20
-38.000000000000107
 30
0.0
 42
-2.414213562373094
 10
-96.563333333332878
 20
-37.750000000000107
 30
0.0
 10
-96.563333333332878
 20
-35.75
 30
0.0
 42
-2.414213562373094
 10
-96.313333333332878
 20
-35.500000000000107
 30
0.0
 10
-95.288333333332886
 20
-35.500000000000107
 30
0.0
 10
-95.288333333332886
 20
-34.5
 30
0.0
 10
-92.138333333332881
 20
-34.5
 30
0.0
 10
-92.138333333332881
 20
-35.500000000000107
 30
0.0
 10
-91.113333333332875
 20
-35.500000000000107
 30
0.0
 42
-2.414213562373094
 10
-90.863333333332875
 20
-35.75
 30
0.0
 10
-90.863333333332875
 20
-37.750000000000107
 30
0.0
 42
-2.414213562373094
 10
-91.113333333332875
 20
-38.000000000000107
 30
0.0
 10
-92.138333333332866
 20
-38.000000000000107
 30
0.0
 10
-92.138333333332881
 20
-42.780000000000094
 30
0.0
 10
-79.306666666666501
 20
-42.780000000000094
 30
0.0
 10
-79.306666666666501
 20
-49.500000000000107
 30
0.0
 10
-59.493333333333169
 20
-49.500000000000107
 30
0.0
 10
-59.493333333333169
 20
-42.780000000000094
 30
0.0
 10
-49.661666666666513
 20
-42.780000000000094
 30
0.0
 10
-49.661666666666513
 20
-38.000000000000107
 30
0.0
 10
-50.686666666666511
 20
-38.000000000000107
 30
0.0
 42
-2.414213562373094
 10
-50.936666666666511
 20
-37.750000000000107
 30
0.0
 10
-50.936666666666511
 20
-35.75
 30
0.0
 42
-2.414213562373094
 10
-50.686666666666511
 20
-35.500000000000107
 30
0.0
 10
-49.661666666666513
 20
-35.500000000000107
 30
0.0
 10
-49.661666666666513
 20
-34.5
 30
0.0
 10
-46.5116666666665
 20
-34.5
 30
0.0
 10
-46.5116666666665
 20
-35.500000000000107
 30
0.0
 10
-45.486666666666508
 20
-35.500000000000107
 30
0.0
 42
-2.414213562373094
 10
-45.236666666666508
 20
-35.75
 30
0.0
 10
-45.236666666666508
 20
-37.750000000000107
 30
0.0
 42
-2.414213562373094
 10
-45.486666666666508
 20
-38.000000000000107
 30
0.0
 10
-46.5116666666665
 20
-38.000000000000107
 30
0.0
 10
-46.5116666666665
 20
-42.780000000000094
 30
0.0
  0
CIRCLE
  5
171
100
AcDbEntity
100
AcDbCircle
  8
0
 62
256
370
-1
 48
1.0
  6
ByLayer
 10
-121.8399999999998
 20
-6.5
 30
0.0
 40
1.9999999999999989
  0
CIRCLE
  5
172
100
AcDbEntity
100
AcDbCircle
  8
0
 62
256
370
-1
 48
1.0
  6
ByLayer
 10
-19.959999999999869
 20
-6.5
 30
0.0
 40
1.9999999999999989
  0
ENDBLK
  5
173
100
AcDbEntity
  8
0
100
AcDbBlockEnd
  0
BLOCK
  5
174
100
AcDbEntity
  8
0
100
AcDbBlockBegin
  2
door
 70
0
 10
0.0
 20
0.0
 30
0.0
  3
door
  1

  0
LWPOLYLINE
  5
175
  8
0
 62
256
370
-1
 48
1.0
  6
ByLayer
100
AcDbEntity
100
AcDbPolyline
 90
16
 70
1
 10
0.0
 20
0.0
 30
0.0
 10
-197.30000000000001
 20
-0.0000000000000853
 30
0.0
 10
-197.30000000000001
 20
-35.000000000000099
 30
0.0
 10
-192.30000000000001
 20
-35.000000000000099
 30
0.0
 10
-192.30000000000001
 20
-23.000000000000099
 30
0.0
 10
-189.15000000000001
 20
-23.000000000000099
 30
0.0
 10
-189.14999999999989
 20
-173.24000000000009
 30
0.0
 10
-70.999999999999929
 20
-173.24000000000001
 30
0.0
 10
-70.999999999999901
 20
-207.63999999999999
 30
0.0
 10
-35.799999999999912
 20
-207.63999999999999
 30
0.0
 10
-35.799999999999933
 20
-173.24000000000001
 30
0.0
 10
-8.1499999999999204
 20
-173.24000000000001
 30
0.0
 10
-8.1500000000000199
 20
-23.000000000000028
 30
0.0
 10
-5.0000000000000284
 20
-23.000000000000011
 30
0.0
 10
-4.9999999999999574
 20
-35.0
 30
0.0
 10
0.0000000000000426
 20
-35.0
 30
0.0
  0
CIRCLE
  5
176
100
AcDbEntity
100
AcDbCircle
  8
0
 62
256
370
-1
 48
1.0
  6
ByLayer
 10
-43.399999999999913
 20
-202.63999999999999
 30
0.0
 40
1.575
  0
ENDBLK
  5
177
100
AcDbEntity
  8
0
100
AcDbBlockEnd
  0
BLOCK
  5
178
100
AcDbEntity
  8
0
100
AcDbBlockBegin
  2
frame_bottom
 70
0
 10
0.0
 20
0.0
 30
0.0
  3
frame_bottom
  1

  0
LWPOLYLINE
  5
179
  8
0
 62
256
370
-1
 48
1.0
  6
ByLayer
100
AcDbEntity
100
AcDbPolyline
 90
4
 70
1
 10
-114.0
 20
6.7200000000000273
 30
0.0
 10
-114.0
 20
0.0000000000000142
 30
0.0
 10
-146.0
 20
0.0000000000000142
 30
0.0
 10
-146.0
 20
6.7200000000000273
 30
0.0
  0
LWPOLYLINE
  5
17A
  8
0
 62
256
370
-1
 48
1.0
  6
ByLayer
100
AcDbEntity
100
AcDbPolyline
 90
4
 70
1
 10
-213.78
 20
42.626666666666679
 30
0.0
 10
-213.78
 20
22.81333333333335
 30
0.0
 10
-220.5
 20
22.81333333333335
 30
0.0
 10
-220.5
 20
42.626666666666679
 30
0.0
  0
LWPOLYLINE
  5
17B
  8
0
 62
256
370
-1
 48
1.0
  6
ByLayer
100
AcDbEntity
100
AcDbPolyline
 90
4
 70
1
 10
-46.220000000000013
 20
22.813333333333262
 30
0.0
 10
-46.219999999999999
 20
48.62666666666658
 30
0.0
 10
-39.5
 20
48.62666666666658
 30
0.0
 10
-39.500000000000028
 20
22.813333333333262
 30
0.0
  0
LWPOLYLINE
  5
17C
  8
0
 62
256
370
-1
 48
1.0
  6
ByLayer
100
AcDbEntity
100
AcDbPolyline
 90
180
 70
1
 10
-191.5083333333333
 20
0.0
 30
0.0
 10
-170.33333333333329
 20
0.0000000000000284
 30
0.0
 10
-170.33333333333329
 20
-6.7199999999999704
 30
0.0
 10
-89.666666666666671
 20
-6.7199999999999847
 30
0.0
 10
-89.666666666666671
 20
0.0000000000000142
 30
0.0
 10
-68.491666666666674
 20
0.0
 30
0.0
 10
-68.491666666666674
 20
4.7800000000000011
 30
0.0
 10
-69.516666666666652
 20
4.7800000000000011
 30
0.0
 42
-2.414213562373094
 10
-69.766666666666652
 20
5.0300000000000011
 30
0.0
 10
-69.766666666666652
 20
7.0300000000000011
 30
0.0
 42
-2.414213562373094
 10
-69.516666666666652
 20
7.2800000000000011
 30
0.0
 10
-68.491666666666674
 20
7.2800000000000011
 30
0.0
 10
-68.491666666666674
 20
8.2800000000000011
 30
0.0
 10
-65.341666666666654
 20
8.2800000000000011
 30
0.0
 10
-65.341666666666654
 20
7.2800000000000011
 30
0.0
 10
-64.316666666666649
 20
7.2800000000000011
 30
0.0
 42
-2.414213562373094
 10
-64.066666666666649
 20
7.0300000000000011
 30
0.0
 10
-64.066666666666649
 20
5.0300000000000011
 30
0.0
 42
-2.414213562373094
 10
-64.316666666666649
 20
4.7800000000000011
 30
0.0
 10
-65.341666666666654
 20
4.7800000000000011
 30
0.0
 10
-65.341666666666654
 20
0.0
 30
0.0
 10
-21.324999999999999
 20
0.0
 30
0.0
 10
-21.324999999999999
 20
4.7800000000000011
 30
0.0
 10
-22.349999999999991
 20
4.7800000000000011
 30
0.0
 42
-2.414213562373094
 10
-22.599999999999991
 20
5.0300000000000011
 30
0.0
 10
-22.60000000000009
 20
7.0300000000000011
 30
0.0
 42
-2.414213562373094
 10
-22.349999999999991
 20
7.2800000000000011
 30
0.0
 10
-21.324999999999999
 20
7.2800000000000011
 30
0.0
 10
-21.324999999999999
 20
8.2800000000000011
 30
0.0
 10
-18.175000000000001
 20
8.2800000000000011
 30
0.0
 10
-18.175000000000001
 20
7.2800000000000011
 30
0.0
 10
-17.150000000000109
 20
7.2800000000000011
 30
0.0
 42
-2.414213562373094
 10
-16.900000000000009
 20
7.0300000000000011
 30
0.0
 10
-16.900000000000009
 20
5.0300000000000011
 30
0.0
 42
-2.414213562373094
 10
-17.150000000000009
 20
4.7800000000000011
 30
0.0
 10
-18.175000000000001
 20
4.7800000000000011
 30
0.0
 10
-18.175000000000001
 20
0.0
 30
0.0
 10
0.0
 20
0.0
 30
0.0
 10
0.0
 20
22.81333333333329
 30
0.0
 10
-6.7199999999999989
 20
22.813333333333301
 30
0.0
 10
-6.7199999999999989
 20
32.645000000000039
 30
0.0
 10
-11.5
 20
32.645000000000039
 30
0.0
 10
-11.5
 20
31.620000000000029
 30
0.0
 42
-2.4142135623730909
 10
-11.75
 20
31.370000000000029
 30
0.0
 10
-13.75
 20
31.370000000000029
 30
0.0
 42
-2.414213562373094
 10
-14.0
 20
31.620000000000029
 30
0.0
 10
-14.0
 20
32.645000000000039
 30
0.0
 10
-15.0
 20
32.645000000000039
 30
0.0
 10
-15.0
 20
35.79500000000003
 30
0.0
 10
-14.0
 20
35.79500000000003
 30
0.0
 10
-14.0
 20
36.820000000000043
 30
0.0
 42
-2.414213562373094
 10
-13.75
 20
37.070000000000043
 30
0.0
 10
-11.75
 20
37.070000000000043
 30
0.0
 42
-2.414213562373094
 10
-11.5
 20
36.820000000000043
 30
0.0
 10
-11.5
 20
35.795000000000037
 30
0.0
 10
-6.7199999999999989
 20
35.79500000000003
 30
0.0
 10
-6.7199999999999989
 20
45.626666666666722
 30
0.0
 10
0.0
 20
45.626666666666743
 30
0.0
 10
0.0
 20
68.439999999999998
 30
0.0
 10
-18.175000000000001
 20
68.440000000000055
 30
0.0
 10
-18.175000000000001
 20
63.660000000000053
 30
0.0
 10
-17.150000000000009
 20
63.660000000000053
 30
0.0
 42
-2.414213562373094
 10
-16.900000000000009
 20
63.410000000000053
 30
0.0
 10
-16.900000000000009
 20
61.410000000000053
 30
0.0
 42
-2.414213562373094
 10
-17.150000000000109
 20
61.160000000000053
 30
0.0
 10
-18.175000000000001
 20
61.160000000000053
 30
0.0
 10
-18.175000000000001
 20
60.160000000000053
 30
0.0
 10
-21.324999999999999
 20
60.160000000000053
 30
0.0
 10
-21.324999999999999
 20
61.160000000000053
 30
0.0
 10
-22.349999999999991
 20
61.160000000000053
 30
0.0
 42
-2.414213562373094
 10
-22.60000000000009
 20
61.410000000000053
 30
0.0
 10
-22.599999999999991
 20
63.410000000000053
 30
0.0
 42
-2.414213562373094
 10
-22.349999999999991
 20
63.660000000000053
 30
0.0
 10
-21.324999999999999
 20
63.660000000000053
 30
0.0
 10
-21.324999999999999
 20
68.440000000000055
 30
0.0
 10
-65.341666666666654
 20
68.440000000000055
 30
0.0
 10
-65.341666666666654
 20
63.660000000000053
 30
0.0
 10
-64.316666666666649
 20
63.660000000000053
 30
0.0
 42
-2.414213562373094
 10
-64.066666666666649
 20
63.410000000000053
 30
0.0
 10
-64.066666666666649
 20
61.410000000000053
 30
0.0
 42
-2.414213562373094
 10
-64.316666666666649
 20
61.160000000000053
 30
0.0
 10
-65.341666666666654
 20
61.160000000000053
 30
0.0
 10
-65.341666666666654
 20
60.160000000000053
 30
0.0
 10
-68.491666666666674
 20
60.160000000000053
 30
0.0
 10
-68.491666666666674
 20
61.160000000000053
 30
0.0
 10
-69.516666666666652
 20
61.160000000000053
 30
0.0
 42
-2.414213562373094
 10
-69.766666666666652
 20
61.410000000000053
 30
0.0
 10
-69.766666666666652
 20
63.410000000000053
 30
0.0
 42
-2.414213562373094
 10
-69.516666666666652
 20
63.660000000000053
 30
0.0
 10
-68.491666666666674
 20
63.660000000000053
 30
0.0
 10
-68.491666666666674
 20
68.440000000000055
 30
0.0
 10
-86.666666666666671
 20
68.440000000000026
 30
0.0
 10
-86.666666666666671
 20
75.160000000000025
 30
0.0
 10
-173.33333333333329
 20
75.160000000000025
 30
0.0
 10
-173.33333333333329
 20
68.440000000000055
 30
0.0
 10
-191.5083333333333
 20
68.440000000000055
 30
0.0
 10
-191.5083333333333
 20
63.660000000000053
 30
0.0
 10
-190.48333333333329
 20
63.660000000000053
 30
0.0
 42
-2.414213562373094
 10
-190.23333333333329
 20
63.410000000000053
 30
0.0
 10
-190.23333333333329
 20
61.410000000000053
 30
0.0
 42
-2.414213562373094
 10
-190.48333333333329
 20
61.160000000000053
 30
0.0
 10
-191.5083333333333
 20
61.160000000000053
 30
0.0
 10
-191.5083333333333
 20
60.160000000000053
 30
0.0
 10
-194.65833333333339
 20
60.160000000000053
 30
0.0
 10
-194.65833333333339
 20
61.160000000000053
 30
0.0
 10
-195.68333333333331
 20
61.160000000000053
 30
0.0
 42
-2.414213562373094
 10
-195.93333333333331
 20
61.410000000000053
 30
0.0
 10
-195.93333333333331
 20
63.410000000000053
 30
0.0
 42
-2.414213562373094
 10
-195.68333333333331
 20
63.660000000000053
 30
0.0
 10
-194.65833333333339
 20
63.660000000000053
 30
0.0
 10
-194.65833333333339
 20
68.440000000000055
 30
0.0
 10
-238.67500000000001
 20
68.440000000000055
 30
0.0
 10
-238.67500000000001
 20
63.660000000000053
 30
0.0
 10
-237.65000000000001
 20
63.660000000000053
 30
0.0
 42
-2.414213562373094
 10
-237.40000000000001
 20
63.410000000000053
 30
0.0
 10
-237.39999999999989
 20
61.410000000000053
 30
0.0
 42
-2.414213562373094
 10
-237.65000000000001
 20
61.160000000000053
 30
0.0
 10
-238.67500000000001
 20
61.160000000000053
 30
0.0
 10
-238.67500000000001
 20
60.160000000000053
 30
0.0
 10
-241.82499999999999
 20
60.160000000000053
 30
0.0
 10
-241.82499999999999
 20
61.160000000000053
 30
0.0
 10
-242.84999999999991
 20
61.160000000000053
 30
0.0
 42
-2.414213562373094
 10
-243.09999999999999
 20
61.410000000000053
 30
0.0
 10
-243.09999999999999
 20
63.410000000000053
 30
0.0
 42
-2.414213562373094
 10
-242.84999999999999
 20
63.660000000000053
 30
0.0
 10
-241.82499999999999
 20
63.660000000000053
 30
0.0
 10
-241.82499999999999
 20
68.440000000000055
 30
0.0
 10
-260.0
 20
68.440000000000055
 30
0.0
 10
-260.0
 20
48.626666666666722
 30
0.0
 10
-253.28
 20
48.626666666666722
 30
0.0
 10
-253.28
 20
35.79500000000003
 30
0.0
 10
-248.5
 20
35.795000000000037
 30
0.0
 10
-248.5
 20
36.820000000000043
 30
0.0
 42
-2.414213562373094
 10
-248.25
 20
37.070000000000043
 30
0.0
 10
-246.25
 20
37.070000000000043
 30
0.0
 42
-2.414213562373094
 10
-246.0
 20
36.820000000000043
 30
0.0
 10
-246.0
 20
35.79500000000003
 30
0.0
 10
-245.0
 20
35.79500000000003
 30
0.0
 10
-245.0
 20
32.645000000000039
 30
0.0
 10
-246.0
 20
32.645000000000039
 30
0.0
 10
-246.0
 20
31.620000000000029
 30
0.0
 42
-2.414213562373094
 10
-246.25
 20
31.370000000000029
 30
0.0
 10
-248.25
 20
31.370000000000029
 30
0.0
 42
-2.4142135623730909
 10
-248.5
 20
31.620000000000029
 30
0.0
 10
-248.5
 20
32.645000000000039
 30
0.0
 10
-253.28
 20
32.645000000000039
 30
0.0
 10
-253.28
 20
22.813333333333361
 30
0.0
 10
-260.0
 20
22.813333333333361
 30
0.0
 10
-260.0
 20
0.0000000000000355
 30
0.0
 10
-241.82499999999999
 20
0.0
 30
0.0
 10
-241.82499999999999
 20
4.7800000000000011
 30
0.0
 10
-242.84999999999999
 20
4.7800000000000011
 30
0.0
 42
-2.414213562373094
 10
-243.09999999999999
 20
5.0300000000000011
 30
0.0
 10
-243.09999999999999
 20
7.0300000000000011
 30
0.0
 42
-2.414213562373094
 10
-242.84999999999991
 20
7.2800000000000011
 30
0.0
 10
-241.82499999999999
 20
7.2800000000000011
 30
0.0
 10
-241.82499999999999
 20
8.2800000000000011
 30
0.0
 10
-238.67500000000001
 20
8.2800000000000011
 30
0.0
 10
-238.67500000000001
 20
7.2800000000000011
 30
0.0
 10
-237.65000000000001
 20
7.2800000000000011
 30
0.0
 42
-2.414213562373094
 10
-237.39999999999989
 20
7.0300000000000011
 30
0.0
 10
-237.40000000000001
 20
5.0300000000000011
 30
0.0
 42
-2.414213562373094
 10
-237.65000000000001
 20
4.7800000000000011
 30
0.0
 10
-238.67500000000001
 20
4.7800000000000011
 30
0.0
 10
-238.67500000000001
 20
0.0
 30
0.0
 10
-194.65833333333339
 20
0.0
 30
0.0
 10
-194.65833333333339
 20
4.7800000000000011
 30
0.0
 10
-195.68333333333331
 20
4.7800000000000011
 30
0.0
 42
-2.414213562373094
 10
-195.93333333333331
 20
5.0300000000000011
 30
0.0
 10
-195.93333333333331
 20
7.0300000000000011
 30
0.0
 42
-2.414213562373094
 10
-195.68333333333331
 20
7.2800000000000011
 30
0.0
 10
-194.65833333333339
 20
7.2800000000000011
 30
0.0
 10
-194.65833333333339
 20
8.2800000000000011
 30
0.0
 10
-191.5083333333333
 20
8.2800000000000011
 30
0.0
 10
-191.5083333333333
 20
7.2800000000000011
 30
0.0
 10
-190.48333333333329
 20
7.2800000000000011
 30
0.0
 42
-2.414213562373094
 10
-190.23333333333329
 20
7.0300000000000011
 30
0.0
 10
-190.23333333333329
 20
5.0300000000000011
 30
0.0
 42
-2.414213562373094
 10
-190.48333333333329
 20
4.7800000000000011
 30
0.0
 10
-191.5083333333333
 20
4.7800000000000011
 30
0.0
  0
CIRCLE
  5
17D
100
AcDbEntity
100
AcDbCircle
  8
0
 62
256
370
-1
 48
1.0
  6
ByLayer
 10
-42.859999999999957
 20
57.033333333333317
 30
0.0
 40
1.5750000000000011
  0
CIRCLE
  5
17E
100
AcDbEntity
100
AcDbCircle
  8
0
 62
256
370
-1
 48
1.0
  6
ByLayer
 10
-42.859999999999957
 20
11.40666666666672
 30
0.0
 40
1.5750000000000011
  0
CIRCLE
  5
17F
100
AcDbEntity
100
AcDbCircle
  8
0
 62
256
370
-1
 48
1.0
  6
ByLayer
 10
-217.13999999999999
 20
57.03333333333336
 30
0.0
 40
1.5750000000000011
  0
CIRCLE
  5
180
100
AcDbEntity
100
AcDbCircle
  8
0
 62
256
370
-1
 48
1.0
  6
ByLayer
 10
-217.13999999999999
 20
11.406666666666711
 30
0.0
 40
1.5750000000000011
  0
ENDBLK
  5
181
100
AcDbEntity
  8
0
100
AcDbBlockEnd
  0
BLOCK
  5
182
100
AcDbEntity
  8
0
100
AcDbBlockBegin
  2
frame_top
 70
0
 10
0.0
 20
0.0
 30
0.0
  3
frame_top
  1

  0
LWPOLYLINE
  5
183
  8
0
 62
256
370
-1
 48
1.0
  6
ByLayer
100
AcDbEntity
100
AcDbPolyline
 90
180
 70
1
 10
-68.491666666666688
 20
68.439999999999969
 30
0.0
 10
-89.666666666666671
 20
68.439999999999984
 30
0.0
 10
-89.666666666666671
 20
75.159999999999997
 30
0.0
 10
-170.33333333333329
 20
75.159999999999982
 30
0.0
 10
-170.33333333333329
 20
68.439999999999984
 30
0.0
 10
-191.5083333333333
 20
68.439999999999969
 30
0.0
 10
-191.5083333333333
 20
63.659999999999968
 30
0.0
 10
-190.48333333333329
 20
63.659999999999968
 30
0.0
 42
-2.414213562373094
 10
-190.23333333333329
 20
63.409999999999968
 30
0.0
 10
-190.23333333333329
 20
61.409999999999968
 30
0.0
 42
-2.414213562373094
 10
-190.48333333333329
 20
61.159999999999968
 30
0.0
 10
-191.5083333333333
 20
61.159999999999968
 30
0.0
 10
-191.5083333333333
 20
60.159999999999968
 30
0.0
 10
-194.6583333333333
 20
60.159999999999968
 30
0.0
 10
-194.6583333333333
 20
61.159999999999968
 30
0.0
 10
-195.68333333333331
 20
61.159999999999968
 30
0.0
 42
-2.414213562373094
 10
-195.93333333333331
 20
61.409999999999968
 30
0.0
 10
-195.93333333333331
 20
63.409999999999968
 30
0.0
 42
-2.414213562373094
 10
-195.68333333333331
 20
63.659999999999968
 30
0.0
 10
-194.6583333333333
 20
63.659999999999968
 30
0.0
 10
-194.6583333333333
 20
68.439999999999969
 30
0.0
 10
-238.59999999999999
 20
68.439999999999955
 30
0.0
 10
-238.59999999999999
 20
64.159999999999954
 30
0.0
 10
-237.5
 20
64.159999999999954
 30
0.0
 42
-2.414213562373094
 10
-237.25
 20
63.909999999999947
 30
0.0
 10
-237.25
 20
61.409999999999947
 30
0.0
 42
-2.414213562373094
 10
-237.5
 20
61.159999999999968
 30
0.0
 10
-238.59999999999999
 20
61.159999999999947
 30
0.0
 10
-238.59999999999999
 20
59.159999999999947
 30
0.0
 10
-241.90000000000001
 20
59.159999999999947
 30
0.0
 10
-241.90000000000001
 20
61.159999999999947
 30
0.0
 10
-243.0
 20
61.159999999999947
 30
0.0
 42
-2.414213562373094
 10
-243.25
 20
61.409999999999947
 30
0.0
 10
-243.25
 20
63.909999999999947
 30
0.0
 42
-2.414213562373094
 10
-243.0
 20
64.159999999999954
 30
0.0
 10
-241.90000000000001
 20
64.159999999999954
 30
0.0
 10
-241.90000000000001
 20
68.439999999999955
 30
0.0
 10
-260.0
 20
68.439999999999969
 30
0.0
 10
-260.0
 20
45.626666666666623
 30
0.0
 10
-253.28
 20
45.626666666666623
 30
0.0
 10
-253.28
 20
35.794999999999959
 30
0.0
 10
-248.5
 20
35.794999999999959
 30
0.0
 10
-248.5
 20
36.819999999999958
 30
0.0
 42
-2.414213562373094
 10
-248.25
 20
37.069999999999958
 30
0.0
 10
-246.25
 20
37.069999999999958
 30
0.0
 42
-2.414213562373094
 10
-246.0
 20
36.819999999999958
 30
0.0
 10
-246.0
 20
35.794999999999959
 30
0.0
 10
-245.0
 20
35.794999999999959
 30
0.0
 10
-245.0
 20
32.64499999999996
 30
0.0
 10
-246.0
 20
32.64499999999996
 30
0.0
 10
-246.0
 20
31.619999999999951
 30
0.0
 42
-2.414213562373094
 10
-246.25
 20
31.369999999999951
 30
0.0
 10
-248.25
 20
31.369999999999951
 30
0.0
 42
-2.414213562373094
 10
-248.5
 20
31.619999999999951
 30
0.0
 10
-248.5
 20
32.64499999999996
 30
0.0
 10
-253.28
 20
32.644999999999968
 30
0.0
 10
-253.28
 20
19.813333333333301
 30
0.0
 10
-260.0
 20
19.813333333333301
 30
0.0
 10
-260.0
 20
-0.0000000000000639
 30
0.0
 10
-241.90000000000001
 20
0.0
 30
0.0
 10
-241.90000000000001
 20
4.2799999999999976
 30
0.0
 10
-243.0
 20
4.2799999999999976
 30
0.0
 42
-2.414213562373094
 10
-243.25
 20
4.5300000000000082
 30
0.0
 10
-243.25
 20
7.0299999999999976
 30
0.0
 42
-2.414213562373094
 10
-243.0
 20
7.2799999999999976
 30
0.0
 10
-241.90000000000001
 20
7.2799999999999976
 30
0.0
 10
-241.90000000000001
 20
9.2799999999999976
 30
0.0
 10
-238.59999999999999
 20
9.2799999999999976
 30
0.0
 10
-238.59999999999999
 20
7.2799999999999976
 30
0.0
 10
-237.5
 20
7.2799999999999869
 30
0.0
 42
-2.414213562373094
 10
-237.25
 20
7.0299999999999976
 30
0.0
 10
-237.25
 20
4.5300000000000082
 30
0.0
 42
-2.414213562373094
 10
-237.5
 20
4.2799999999999976
 30
0.0
 10
-238.59999999999999
 20
4.2799999999999976
 30
0.0
 10
-238.59999999999999
 20
0.0
 30
0.0
 10
-194.6583333333333
 20
-0.0000000000000142
 30
0.0
 10
-194.6583333333333
 20
4.7799999999999869
 30
0.0
 10
-195.68333333333331
 20
4.7799999999999869
 30
0.0
 42
-2.414213562373094
 10
-195.93333333333331
 20
5.0299999999999869
 30
0.0
 10
-195.93333333333331
 20
7.0299999999999869
 30
0.0
 42
-2.414213562373094
 10
-195.68333333333331
 20
7.2799999999999869
 30
0.0
 10
-194.6583333333333
 20
7.2799999999999869
 30
0.0
 10
-194.6583333333333
 20
8.2799999999999869
 30
0.0
 10
-191.5083333333333
 20
8.2799999999999869
 30
0.0
 10
-191.5083333333333
 20
7.2799999999999869
 30
0.0
 10
-190.48333333333329
 20
7.2799999999999869
 30
0.0
 42
-2.414213562373094
 10
-190.23333333333329
 20
7.0299999999999869
 30
0.0
 10
-190.23333333333329
 20
5.0299999999999869
 30
0.0
 42
-2.414213562373094
 10
-190.48333333333329
 20
4.7799999999999869
 30
0.0
 10
-191.5083333333333
 20
4.7799999999999869
 30
0.0
 10
-191.5083333333333
 20
-0.0000000000000142
 30
0.0
 10
-173.33333333333329
 20
-0.0000000000000426
 30
0.0
 10
-173.33333333333329
 20
-6.7200000000000344
 30
0.0
 10
-86.666666666666671
 20
-6.7200000000000202
 30
0.0
 10
-86.666666666666671
 20
-0.0000000000000213
 30
0.0
 10
-68.491666666666688
 20
-0.0000000000000142
 30
0.0
 10
-68.491666666666688
 20
4.7799999999999869
 30
0.0
 10
-69.51666666666668
 20
4.7799999999999869
 30
0.0
 42
-2.414213562373094
 10
-69.766666666666708
 20
5.0299999999999869
 30
0.0
 10
-69.766666666666652
 20
7.0299999999999869
 30
0.0
 42
-2.414213562373094
 10
-69.51666666666668
 20
7.2799999999999869
 30
0.0
 10
-68.491666666666688
 20
7.2799999999999869
 30
0.0
 10
-68.491666666666688
 20
8.2799999999999869
 30
0.0
 10
-65.341666666666669
 20
8.2799999999999869
 30
0.0
 10
-65.341666666666669
 20
7.2799999999999869
 30
0.0
 10
-64.316666666666663
 20
7.2799999999999869
 30
0.0
 42
-2.414213562373094
 10
-64.066666666666677
 20
7.0299999999999869
 30
0.0
 10
-64.066666666666691
 20
5.0299999999999869
 30
0.0
 42
-2.414213562373094
 10
-64.316666666666691
 20
4.7799999999999869
 30
0.0
 10
-65.341666666666669
 20
4.7799999999999869
 30
0.0
 10
-65.341666666666669
 20
-0.0000000000000142
 30
0.0
 10
-21.400000000000009
 20
0.0
 30
0.0
 10
-21.400000000000009
 20
4.2799999999999976
 30
0.0
 10
-22.5
 20
4.2799999999999976
 30
0.0
 42
-2.414213562373094
 10
-22.75
 20
4.5300000000000082
 30
0.0
 10
-22.75
 20
7.0299999999999976
 30
0.0
 42
-2.414213562373094
 10
-22.5
 20
7.2799999999999869
 30
0.0
 10
-21.400000000000009
 20
7.2799999999999976
 30
0.0
 10
-21.400000000000009
 20
9.2799999999999976
 30
0.0
 10
-18.099999999999991
 20
9.2799999999999976
 30
0.0
 10
-18.099999999999991
 20
7.2799999999999976
 30
0.0
 10
-17.0
 20
7.2799999999999976
 30
0.0
 42
-2.414213562373094
 10
-16.75
 20
7.0299999999999976
 30
0.0
 10
-16.75
 20
4.5300000000000082
 30
0.0
 42
-2.414213562373094
 10
-17.0
 20
4.2799999999999976
 30
0.0
 10
-18.099999999999991
 20
4.2799999999999976
 30
0.0
 10
-18.099999999999991
 20
0.0
 30
0.0
 10
0.0
 20
0.0
 30
0.0
 10
0.0
 20
22.813333333333379
 30
0.0
 10
-6.7199999999999989
 20
22.813333333333379
 30
0.0
 10
-6.7199999999999989
 20
32.644999999999968
 30
0.0
 10
-11.5
 20
32.64499999999996
 30
0.0
 10
-11.5
 20
31.619999999999951
 30
0.0
 42
-2.414213562373094
 10
-11.75
 20
31.369999999999951
 30
0.0
 10
-13.75
 20
31.369999999999951
 30
0.0
 42
-2.414213562373094
 10
-14.0
 20
31.619999999999951
 30
0.0
 10
-14.0
 20
32.64499999999996
 30
0.0
 10
-15.0
 20
32.64499999999996
 30
0.0
 10
-15.0
 20
35.794999999999959
 30
0.0
 10
-14.0
 20
35.794999999999959
 30
0.0
 10
-14.0
 20
36.819999999999958
 30
0.0
 42
-2.414213562373094
 10
-13.75
 20
37.069999999999958
 30
0.0
 10
-11.75
 20
37.069999999999958
 30
0.0
 42
-2.414213562373094
 10
-11.5
 20
36.819999999999958
 30
0.0
 10
-11.5
 20
35.794999999999959
 30
0.0
 10
-6.7199999999999989
 20
35.794999999999959
 30
0.0
 10
-6.7199999999999989
 20
45.626666666666686
 30
0.0
 10
0.0
 20
45.626666666666686
 30
0.0
 10
0.0
 20
68.440000000000012
 30
0.0
 10
-18.099999999999991
 20
68.439999999999955
 30
0.0
 10
-18.099999999999991
 20
64.159999999999954
 30
0.0
 10
-17.0
 20
64.159999999999954
 30
0.0
 42
-2.414213562373094
 10
-16.75
 20
63.909999999999947
 30
0.0
 10
-16.75
 20
61.409999999999947
 30
0.0
 42
-2.414213562373094
 10
-17.0
 20
61.159999999999947
 30
0.0
 10
-18.099999999999991
 20
61.159999999999947
 30
0.0
 10
-18.099999999999991
 20
59.159999999999947
 30
0.0
 10
-21.400000000000009
 20
59.159999999999947
 30
0.0
 10
-21.400000000000009
 20
61.159999999999947
 30
0.0
 10
-22.5
 20
61.159999999999968
 30
0.0
 42
-2.414213562373094
 10
-22.75
 20
61.409999999999947
 30
0.0
 10
-22.75
 20
63.909999999999947
 30
0.0
 42
-2.414213562373094
 10
-22.5
 20
64.159999999999954
 30
0.0
 10
-21.400000000000009
 20
64.159999999999954
 30
0.0
 10
-21.400000000000009
 20
68.439999999999955
 30
0.0
 10
-65.341666666666669
 20
68.439999999999969
 30
0.0
 10
-65.341666666666669
 20
63.659999999999968
 30
0.0
 10
-64.316666666666691
 20
63.659999999999968
 30
0.0
 42
-2.414213562373094
 10
-64.066666666666691
 20
63.409999999999968
 30
0.0
 10
-64.066666666666677
 20
61.409999999999968
 30
0.0
 42
-2.414213562373094
 10
-64.316666666666663
 20
61.159999999999968
 30
0.0
 10
-65.341666666666669
 20
61.159999999999968
 30
0.0
 10
-65.341666666666669
 20
60.159999999999968
 30
0.0
 10
-68.491666666666688
 20
60.159999999999968
 30
0.0
 10
-68.491666666666688
 20
61.159999999999968
 30
0.0
 10
-69.51666666666668
 20
61.159999999999968
 30
0.0
 42
-2.414213562373094
 10
-69.76666666666668
 20
61.409999999999968
 30
0.0
 10
-69.766666666666708
 20
63.409999999999968
 30
0.0
 42
-2.414213562373094
 10
-69.51666666666668
 20
63.659999999999968
 30
0.0
 10
-68.491666666666688
 20
63.659999999999968
 30
0.0
  0
CIRCLE
  5
184
100
AcDbEntity
100
AcDbCircle
  8
0
 62
256
370
-1
 48
1.0
  6
ByLayer
 10
-122.0
 20
34.21999999999997
 30
0.0
 40
1.5
  0
CIRCLE
  5
185
100
AcDbEntity
100
AcDbCircle
  8
0
 62
256
370
-1
 48
1.0
  6
ByLayer
 10
-138.0
 20
34.21999999999997
 30
0.0
 40
1.5
  0
CIRCLE
  5
186
100
AcDbEntity
100
AcDbCircle
  8
0
 62
256
370
-1
 48
1.0
  6
ByLayer
 10
-130.0
 20
42.21999999999997
 30
0.0
 40
1.5
  0
CIRCLE
  5
187
100
AcDbEntity
100
AcDbCircle
  8
0
 62
256
370
-1
 48
1.0
  6
ByLayer
 10
-130.0
 20
26.21999999999997
 30
0.0
 40
1.5
  0
CIRCLE
  5
188
100
AcDbEntity
100
AcDbCircle
  8
0
 62
256
370
-1
 48
1.0
  6
ByLayer
 10
-130.0
 20
34.21999999999997
 30
0.0
 40
5.5
  0
CIRCLE
  5
189
100
AcDbEntity
100
AcDbCircle
  8
0
 62
256
370
-1
 48
1.0
  6
ByLayer
 10
-26.5
 20
34.22000000000007
 30
0.0
 40
4.04
  0
CIRCLE
  5
18A
100
AcDbEntity
100
AcDbCircle
  8
0
 62
256
370
-1
 48
1.0
  6
ByLayer
 10
-233.5
 20
34.219999999999963
 30
0.0
 40
4.04
  0
ENDBLK
  5
18B
100
AcDbEntity
  8
0
100
AcDbBlockEnd
  0
ENDSEC
  0
SECTION
  2
ENTITIES
  0
INSERT
  5
18C
100
AcDbEntity
100
AcDbBlockReference
  8
0
 62
256
370
-1
 48
1.0
  6
ByLayer
  2
carrier_window
 10
753.58000000000038
 20
-672.12
 30
0.0
 50
180.0
  0
INSERT
  5
18D
100
AcDbEntity
100
AcDbBlockReference
  8
0
 62
256
370
-1
 48
1.0
  6
ByLayer
  2
p2
 10
0.0
 20
0.0
 30
0.0
  0
INSERT
  5
18E
100
AcDbEntity
100
AcDbBlockReference
  8
0
 62
256
370
-1
 48
1.0
  6
ByLayer
  2
p3
 10
-0.0000000000004547
 20
-1000.0
 30
0.0
 41
1.0
 42
-1.0
 43
1.0
 50
270.0
  0
INSERT
  5
18F
100
AcDbEntity
100
AcDbBlockReference
  8
0
 62
256
370
-1
 48
1.0
  6
ByLayer
  2
p2
 10
1.5
 20
-513.10000000000002
 30
0.0
  0
INSERT
  5
190
100
AcDbEntity
100
AcDbBlockReference
  8
0
 62
256
370
-1
 48
1.0
  6
ByLayer
  2
p3
 10
600.0
 20
-1000.0
 30
0.0
 41
1.0
 42
-1.0
 43
1.0
 50
270.0
  0
INSERT
  5
191
100
AcDbEntity
100
AcDbBlockReference
  8
0
 62
256
370
-1
 48
1.0
  6
ByLayer
  2
p2
 10
500.00000000000011
 20
-481.24000000000001
 30
0.0
  0
INSERT
  5
192
100
AcDbEntity
100
AcDbBlockReference
  8
0
 62
256
370
-1
 48
1.0
  6
ByLayer
  2
carrier
 10
303.17500000000013
 20
-181.0000000000002
 30
0.0
  0
INSERT
  5
193
100
AcDbEntity
100
AcDbBlockReference
  8
0
 62
256
370
-1
 48
1.0
  6
ByLayer
  2
carrier_tray
 10
-247.3074953763894
 20
-514.32183590445629
 30
0.0
 50
180.0
  0
INSERT
  5
194
100
AcDbEntity
100
AcDbBlockReference
  8
0
 62
256
370
-1
 48
1.0
  6
ByLayer
  2
door
 10
697.30000000000007
 20
-862.12
 30
0.0
 41
1.0
 42
-1.0
 43
1.0
  0
INSERT
  5
195
100
AcDbEntity
100
AcDbBlockReference
  8
0
 62
256
370
-1
 48
1.0
  6
ByLayer
  2
drawer_back
 10
39.499999999999552
 20
-1039.5
 30
0.0
 41
1.0
 42
-1.0
 43
1.0
 50
180.0
  0
INSERT
  5
196
100
AcDbEntity
100
AcDbBlockReference
  8
0
 62
256
370
-1
 48
1.0
  6
ByLayer
  2
drawer_bottom
 10
11.84016125284478
 20
-1767.7199999999989
 30
0.0
 41
1.0
 42
-1.0
 43
1.0
 50
180.0
  0
INSERT
  5
197
100
AcDbEntity
100
AcDbBlockReference
  8
0
 62
256
370
-1
 48
1.0
  6
ByLayer
  2
drawer_left
 10
95.77999999999949
 20
-1463.6600000000001
 30
0.0
  0
INSERT
  5
198
100
AcDbEntity
100
AcDbBlockReference
  8
0
 62
256
370
-1
 48
1.0
  6
ByLayer
  2
drawer_support
 10
5.1201612528452358
 20
-1681.4399999999989
 30
0.0
 41
1.0
 42
-1.0
 43
1.0
 50
180.0
  0
INSERT
  5
199
100
AcDbEntity
100
AcDbBlockReference
  8
0
 62
256
370
-1
 48
1.0
  6
ByLayer
  2
frame_back
 10
-0.0000000000004547
 20
-1000.0
 30
0.0
 41
1.0
 42
-1.0
 43
1.0
 50
180.0
  0
INSERT
  5
19A
100
AcDbEntity
100
AcDbBlockReference
  8
0
 62
256
370
-1
 48
1.0
  6
ByLayer
  2
frame_bottom
 10
-0.0000000000005134
 20
-1520.0
 30
0.0
 50
180.0
  0
INSERT
  5
19B
100
AcDbEntity
100
AcDbBlockReference
  8
0
 62
256
370
-1
 48
1.0
  6
ByLayer
  2
frame_foot2
 10
656.89396282464111
 20
-1614.760000000017
 30
0.0
 41
1.0
 42
-1.0
 43
1.0
 50
90.000000000000014
  0
INSERT
  5
19C
100
AcDbEntity
100
AcDbBlockReference
  8
0
 62
256
370
-1
 48
1.0
  6
ByLayer
  2
frame_foot1
 10
901.45396282464128
 20
-1601.8800000000001
 30
0.0
 50
90.000000000000014
  0
INSERT
  5
19D
100
AcDbEntity
100
AcDbBlockReference
  8
0
 62
256
370
-1
 48
1.0
  6
ByLayer
  2
frame_galvo
 10
695.7800000000002
 20
-1263.8599999999999
 30
0.0
 41
1.0
 42
-1.0
 43
1.0
 50
180.0
  0
INSERT
  5
19E
100
AcDbEntity
100
AcDbBlockReference
  8
0
 62
256
370
-1
 48
1.0
  6
ByLayer
  2
frame_right
 10
853.28000000000077
 20
-1520.0
 30
0.0
 41
1.0
 42
-1.0
 43
1.0
 50
180.0
  0
INSERT
  5
19F
100
AcDbEntity
100
AcDbBlockReference
  8
0
 62
256
370
-1
 48
1.0
  6
ByLayer
  2
frame_top
 10
600.00000000000023
 20
-1520.0
 30
0.0
 50
180.0
  0
INSERT
  5
1A0
100
AcDbEntity
100
AcDbBlockReference
  8
0
 62
256
370
-1
 48
1.0
  6
ByLayer
  2
drawer_right
 10
220.49999999999949
 20
-1463.6600000000001
 30
0.0
  0
INSERT
  5
1A1
100
AcDbEntity
100
AcDbBlockReference
  8
0
 62
256
370
-1
 48
1.0
  6
ByLayer
  2
drawer_right
 10
639.50000000000011
 20
-1463.6600000000001
 30
0.0
 41
1.0
 42
-1.0
 43
1.0
 50
180.0
  0
INSERT
  5
1A2
100
AcDbEntity
100
AcDbBlockReference
  8
0
 62
256
370
-1
 48
1.0
  6
ByLayer
  2
drawer_right
 10
820.50000000000023
 20
-1463.6600000000001
 30
0.0
  0
INSERT
  5
1A3
100
AcDbEntity
100
AcDbBlockReference
  8
0
 62
256
370
-1
 48
1.0
  6
ByLayer
  2
door
 10
500.00000000000011
 20
-481.24000000000001
 30
0.0
 41
1.0
 42
-1.0
 43
1.0
 50
180.0
  0
INSERT
  5
1A4
100
AcDbEntity
100
AcDbBlockReference
  8
0
 62
256
370
-1
 48
1.0
  6
ByLayer
  2
carrier_window
 10
808.93000000000063
 20
-672.12000000000023
 30
0.0
  0
INSERT
  5
1A5
100
AcDbEntity
100
AcDbBlockReference
  8
0
 62
256
370
-1
 48
1.0
  6
ByLayer
  2
carrier_window
 10
753.5800000000005
 20
-672.12000000000012
 30
0.0
 41
1.0
 42
-1.0
 43
1.0
 50
180.0
  0
INSERT
  5
1A6
100
AcDbEntity
100
AcDbBlockReference
  8
0
 62
256
370
-1
 48
1.0
  6
ByLayer
  2
carrier_window
 10
808.93000000000052
 20
-672.11999999999989
 30
0.0
 41
1.0
 42
-1.0
 43
1.0
  0
INSERT
  5
1A7
100
AcDbEntity
100
AcDbBlockReference
  8
0
 62
256
370
-1
 48
1.0
  6
ByLayer
  2
drawer_support
 10
5.1201612528452358
 20
-1681.4399999999989
 30
0.0
 50
180.0
  0
INSERT
  5
1A8
100
AcDbEntity
100
AcDbBlockReference
  8
0
 62
256
370
-1
 48
1.0
  6
ByLayer
  2
crane_flap
 10
753.5800000000005
 20
-672.12
 30
0.0
 50
270.0
  0
INSERT
  5
1A9
100
AcDbEntity
100
AcDbBlockReference
  8
0
 62
256
370
-1
 48
1.0
  6
ByLayer
  2
crane_front
 10
656.89396282464133
 20
-1651.8800000000001
 30
0.0
 41
1.0
 42
-1.0
 43
1.0
  0
INSERT
  5
1AA
100
AcDbEntity
100
AcDbBlockReference
  8
0
 62
256
370
-1
 48
1.0
  6
ByLayer
  2
crane_flap
 10
753.58000000000038
 20
-672.12000000000012
 30
0.0
 41
1.0
 42
-1.0
 43
1.0
 50
90.000000000000014
  0
INSERT
  5
1AB
100
AcDbEntity
100
AcDbBlockReference
  8
0
 62
256
370
-1
 48
1.0
  6
ByLayer
  2
crane
 10
656.89396282464133
 20
-1661.8800000000001
 30
0.0
 50
180.0
  0
INSERT
  5
1AC
100
AcDbEntity
100
AcDbBlockReference
  8
0
 62
256
370
-1
 48
1.0
  6
ByLayer
  2
carrier_wall
 10
190.5
 20
-519.5
 30
0.0
 50
180.0
  0
INSERT
  5
1AD
100
AcDbEntity
100
AcDbBlockReference
  8
0
 62
256
370
-1
 48
1.0
  6
ByLayer
  2
carrier_wall
 10
9.5000000000000711
 20
-700.5
 30
0.0
 50
180.0
  0
INSERT
  5
1AE
100
AcDbEntity
100
AcDbBlockReference
  8
0
 62
256
370
-1
 48
1.0
  6
ByLayer
  2
carrier_wall
 10
190.5000000000002
 20
-700.5
 30
0.0
 50
180.0
  0
INSERT
  5
1AF
100
AcDbEntity
100
AcDbBlockReference
  8
0
 62
256
370
-1
 48
1.0
  6
ByLayer
  2
carrier_wall
 10
-247.7351171714561
 20
-766.11460310677103
 30
0.0
 50
180.0
  0
INSERT
  5
1B0
100
AcDbEntity
100
AcDbBlockReference
  8
0
 62
256
370
-1
 48
1.0
  6
ByLayer
  2
carrier_wall
 10
9.4999999999999432
 20
-519.5
 30
0.0
 50
180.0
  0
INSERT
  5
1B1
100
AcDbEntity
100
AcDbBlockReference
  8
0
 62
256
370
-1
 48
1.0
  6
ByLayer
  2
carrier_wall
 10
0.0
 20
-0.0000000000002477
 30
0.0
 41
1.0
 42
-1.0
 43
1.0
 50
90.0
  0
INSERT
  5
1B2
100
AcDbEntity
100
AcDbBlockReference
  8
0
 62
256
370
-1
 48
1.0
  6
ByLayer
  2
frame_laser_big
 10
230.99999999999963
 20
-347.00000000000051
 30
0.0
 41
1.0
 42
-1.0
 43
1.0
 50
180.0
  0
INSERT
  5
1B3
100
AcDbEntity
100
AcDbBlockReference
  8
0
 62
256
370
-1
 48
1.0
  6
ByLayer
  2
frame_laser_big
 10
254.99999999999963
 20
-347.00000000000051
 30
0.0
 41
1.0
 42
-1.0
 43
1.0
 50
180.0
  0
INSERT
  5
1B4
100
AcDbEntity
100
AcDbBlockReference
  8
0
 62
256
370
-1
 48
1.0
  6
ByLayer
  2
carrier_wall
 10
0.0
 20
-181.00000000000031
 30
0.0
 41
1.0
 42
-1.0
 43
1.0
 50
90.0
  0
INSERT
  5
1B5
100
AcDbEntity
100
AcDbBlockReference
  8
0
 62
256
370
-1
 48
1.0
  6
ByLayer
  2
carrier_wall
 10
180.9999999999998
 20
-181.00000000000051
 30
0.0
 41
1.0
 42
-1.0
 43
1.0
 50
90.0
  0
INSERT
  5
1B6
100
AcDbEntity
100
AcDbBlockReference
  8
0
 62
256
370
-1
 48
1.0
  6
ByLayer
  2
carrier_wall
 10
195.43999999999991
 20
-0.000000000000469
 30
0.0
 41
1.0
 42
-1.0
 43
1.0
 50
90.0
  0
INSERT
  5
1B7
100
AcDbEntity
100
AcDbBlockReference
  8
0
 62
256
370
-1
 48
1.0
  6
ByLayer
  2
carrier_tray
 10
-880.99999999999989
 20
-499.99999999999989
 30
0.0
 50
180.0
  0
INSERT
  5
1B8
100
AcDbEntity
100
AcDbBlockReference
  8
0
 62
256
370
-1
 48
1.0
  6
ByLayer
  2
carrier_tray
 10
-699.99999999999989
 20
-499.99999999999989
 30
0.0
 50
180.0
  0
INSERT
  5
1B9
100
AcDbEntity
100
AcDbBlockReference
  8
0
 62
256
370
-1
 48
1.0
  6
ByLayer
  2
carrier_tray
 10
-699.99999999999989
 20
-318.99999999999977
 30
0.0
 50
180.0
  0
INSERT
  5
1BA
100
AcDbEntity
100
AcDbBlockReference
  8
0
 62
256
370
-1
 48
1.0
  6
ByLayer
  2
carrier_tray
 10
-880.99999999999989
 20
-318.99999999999977
 30
0.0
 50
180.0
  0
INSERT
  5
1BB
100
AcDbEntity
100
AcDbBlockReference
  8
0
 62
256
370
-1
 48
1.0
  6
ByLayer
  2
p2
 10
-891.99999999999989
 20
-307.99999999999989
 30
0.0
  0
INSERT
  5
1BC
100
AcDbEntity
100
AcDbBlockReference
  8
0
 62
256
370
-1
 48
1.0
  6
ByLayer
  2
carrier_tray
 10
-1181.0
 20
-1000.0
 30
0.0
 50
180.0
  0
INSERT
  5
1BD
100
AcDbEntity
100
AcDbBlockReference
  8
0
 62
256
370
-1
 48
1.0
  6
ByLayer
  2
carrier_tray
 10
-1000.0
 20
-1000.0
 30
0.0
 50
180.0
  0
INSERT
  5
1BE
100
AcDbEntity
100
AcDbBlockReference
  8
0
 62
256
370
-1
 48
1.0
  6
ByLayer
  2
carrier_tray
 10
-1000.0
 20
-818.99999999999977
 30
0.0
 50
180.0
  0
INSERT
  5
1BF
100
AcDbEntity
100
AcDbBlockReference
  8
0
 62
256
370
-1
 48
1.0
  6
ByLayer
  2
carrier_tray
 10
-1181.0
 20
-818.99999999999977
 30
0.0
 50
180.0
  0
INSERT
  5
1C0
100
AcDbEntity
100
AcDbBlockReference
  8
0
 62
256
370
-1
 48
1.0
  6
ByLayer
  2
carrier_tray
 10
-1543.0
 20
-1000.0
 30
0.0
 50
180.0
  0
INSERT
  5
1C1
100
AcDbEntity
100
AcDbBlockReference
  8
0
 62
256
370
-1
 48
1.0
  6
ByLayer
  2
carrier_tray
 10
-1362.0
 20
-1000.0
 30
0.0
 50
180.0
  0
INSERT
  5
1C2
100
AcDbEntity
100
AcDbBlockReference
  8
0
 62
256
370
-1
 48
1.0
  6
ByLayer
  2
carrier_tray
 10
-1362.0
 20
-818.99999999999977
 30
0.0
 50
180.0
  0
INSERT
  5
1C3
100
AcDbEntity
100
AcDbBlockReference
  8
0
 62
256
370
-1
 48
1.0
  6
ByLayer
  2
carrier_tray
 10
-1543.0
 20
-818.99999999999977
 30
0.0
 50
180.0
  0
INSERT
  5
1C4
100
AcDbEntity
100
AcDbBlockReference
  8
0
 62
256
370
-1
 48
1.0
  6
ByLayer
  2
drawer_bottom
 10
11.840161252844865
 20
-1595.1600000000001
 30
0.0
 50
180.0
  0
INSERT
  5
1C5
100
AcDbEntity
100
AcDbBlockReference
  8
0
 62
256
370
-1
 48
1.0
  6
ByLayer
  2
drawer_back
 10
820.50000000000023
 20
-1039.5
 30
0.0
  0
INSERT
  5
1C6
100
AcDbEntity
100
AcDbBlockReference
  8
0
 62
256
370
-1
 48
1.0
  6
ByLayer
  2
frame_laser
 10
302.9999999999996
 20
-347.00000000000051
 30
0.0
  0
INSERT
  5
1C7
100
AcDbEntity
100
AcDbBlockReference
  8
0
 62
256
370
-1
 48
1.0
  6
ByLayer
  2
frame_laser
 10
326.9999999999996
 20
-347.00000000000051
 30
0.0
  0
INSERT
  5
1C8
100
AcDbEntity
100
AcDbBlockReference
  8
0
 62
256
370
-1
 48
1.0
  6
ByLayer
  2
frame_front
 10
600.0
 20
-1000.0
 30
0.0
  0
INSERT
  5
1C9
100
AcDbEntity
100
AcDbBlockReference
  8
0
 62
256
370
-1
 48
1.0
  6
ByLayer
  2
crane_back
 10
656.89396282464111
 20
-1731.8800000000001
 30
0.0
  0
INSERT
  5
1CA
100
AcDbEntity
100
AcDbBlockReference
  8
0
 62
256
370
-1
 48
1.0
  6
ByLayer
  2
frame_left
 10
253.27999999999969
 20
-1520.0
 30
0.0
  0
INSERT
  5
1CB
100
AcDbEntity
100
AcDbBlockReference
  8
0
 62
256
370
-1
 48
1.0
  6
ByLayer
  2
carrier_wall
 10
380.56016125284509
 20
-1769.4400000000001
 30
0.0
  0
ENDSEC
  0
SECTION
  2
OBJECTS
  0
DICTIONARY
  5
C
100
AcDbDictionary
280
0
281
1
  3
ACAD_GROUP
350
D
  3
ACAD_LAYOUT
350
1A
  3
ACAD_MLINESTYLE
350
17
  3
ACAD_PLOTSETTINGS
350
19
  3
ACAD_PLOTSTYLENAME
350
E
  3
AcDbVariableDictionary
350
1CC
  3
QCAD_OBJECTS
350
1CD
  0
DICTIONARY
  5
D
100
AcDbDictionary
280
0
281
1
  0
ACDBDICTIONARYWDFLT
  5
E
100
AcDbDictionary
281
1
  3
Normal
350
F
100
AcDbDictionaryWithDefault
340
F
  0
ACDBPLACEHOLDER
  5
F
  0
DICTIONARY
  5
17
100
AcDbDictionary
280
0
281
1
  3
Standard
350
18
  0
MLINESTYLE
  5
18
100
AcDbMlineStyle
  2
STANDARD
 70
0
  3

 62
256
 51
90.0
 52
90.0
 71
2
 49
0.5
 62
256
  6
BYLAYER
 49
-0.5
 62
256
  6
BYLAYER
  0
DICTIONARY
  5
19
100
AcDbDictionary
280
0
281
1
  0
DICTIONARY
  5
1A
100
AcDbDictionary
281
1
  3
Layout1
350
1E
  3
Layout2
350
26
  3
Model
350
22
  0
LAYOUT
  5
1E
100
AcDbPlotSettings
  1

  2
none_device
  4

  6

 40
0.0
 41
0.0
 42
0.0
 43
0.0
 44
0.0
 45
0.0
 46
0.0
 47
0.0
 48
0.0
 49
0.0
140
0.0
141
0.0
142
1.0
143
1.0
 70
688
 72
0
 73
0
 74
5
  7

 75
16
147
1.0
148
0.0
149
0.0
100
AcDbLayout
  1
Layout1
 70
1
 71
1
 10
0.0
 20
0.0
 11
420.0
 21
297.0
 12
0.0
 22
0.0
 32
0.0
 14
100000000000000000000.0
 24
100000000000000000000.0
 34
100000000000000000000.0
 15
-100000000000000000000.0
 25
-100000000000000000000.0
 35
-100000000000000000000.0
146
0.0
 13
0.0
 23
0.0
 33
0.0
 16
1.0
 26
0.0
 36
0.0
 17
0.0
 27
1.0
 37
0.0
 76
0
330
1B
  0
LAYOUT
  5
22
100
AcDbPlotSettings
  1

  2
none_device
  4

  6

 40
0.0
 41
0.0
 42
0.0
 43
0.0
 44
0.0
 45
0.0
 46
0.0
 47
0.0
 48
0.0
 49
0.0
140
0.0
141
0.0
142
1.0
143
1.0
 70
1712
 72
0
 73
0
 74
0
  7

 75
0
147
1.0
148
0.0
149
0.0
100
AcDbLayout
  1
Model
 70
1
 71
0
 10
0.0
 20
0.0
 11
12.0
 21
9.0
 12
0.0
 22
0.0
 32
0.0
 14
0.0
 24
0.0
 34
0.0
 15
0.0
 25
0.0
 35
0.0
146
0.0
 13
0.0
 23
0.0
 33
0.0
 16
1.0
 26
0.0
 36
0.0
 17
0.0
 27
1.0
 37
0.0
 76
0
330
1F
  0
LAYOUT
  5
26
100
AcDbPlotSettings
  1

  2
none_device
  4

  6

 40
0.0
 41
0.0
 42
0.0
 43
0.0
 44
0.0
 45
0.0
 46
0.0
 47
0.0
 48
0.0
 49
0.0
140
0.0
141
0.0
142
1.0
143
1.0
 70
688
 72
0
 73
0
 74
5
  7

 75
16
147
1.0
148
0.0
149
0.0
100
AcDbLayout
  1
Layout2
 70
1
 71
2
 10
0.0
 20
0.0
 11
12.0
 21
9.0
 12
0.0
 22
0.0
 32
0.0
 14
0.0
 24
0.0
 34
0.0
 15
0.0
 25
0.0
 35
0.0
146
0.0
 13
0.0
 23
0.0
 33
0.0
 16
1.0
 26
0.0
 36
0.0
 17
0.0
 27
1.0
 37
0.0
 76
0
330
23
  0
DICTIONARY
  5
1CC
100
AcDbDictionary
281
1
  3
DIMASSOC
350
1CF
  3
HIDETEXT
350
1CE
  0
DICTIONARYVAR
  5
1CE
100
DictionaryVariables
280
0
  1
2
  0
DICTIONARYVAR
  5
1CF
100
DictionaryVariables
280
0
  1
1
  0
DICTIONARY
  5
1CD
100
AcDbDictionary
281
1
  3
ColorSettings/BackgroundColor
350
1D0
  3
ColorSettings/ColorMode
350
1D1
  3
Grid/DisplayGrid00
350
1D2
  3
Grid/DisplayGrid01
350
1D3
  3
Grid/DisplayGrid02
350
1D4
  3
Grid/DisplayGrid03
350
1D5
  3
Grid/GridSpacingX00
350
1D6
  3
Grid/GridSpacingX01
350
1D7
  3
Grid/GridSpacingX02
350
1D8
  3
Grid/GridSpacingX03
350
1D9
  3
Grid/GridSpacingY00
350
1DA
  3
Grid/GridSpacingY01
350
1DB
  3
Grid/GridSpacingY02
350
1DC
  3
Grid/GridSpacingY03
350
1DD
  3
Grid/IsometricGrid00
350
1DE
  3
Grid/IsometricGrid01
350
1DF
  3
Grid/IsometricGrid02
350
1E0
  3
Grid/IsometricGrid03
350
1E1
  3
Grid/IsometricProjection00
350
1E2
  3
Grid/IsometricProjection01
350
1E3
  3
Grid/IsometricProjection02
350
1E4
  3
Grid/IsometricProjection03
350
1E5
  3
Grid/MetaGridSpacingX00
350
1E6
  3
Grid/MetaGridSpacingX01
350
1E7
  3
Grid/MetaGridSpacingX02
350
1E8
  3
Grid/MetaGridSpacingX03
350
1E9
  3
Grid/MetaGridSpacingY00
350
1EA
  3
Grid/MetaGridSpacingY01
350
1EB
  3
Grid/MetaGridSpacingY02
350
1EC
  3
Grid/MetaGridSpacingY03
350
1ED
  3
MultiPageSettings/Columns
350
1EE
  3
MultiPageSettings/GlueMarginsBottom
350
1EF
  3
MultiPageSettings/GlueMarginsLeft
350
1F0
  3
MultiPageSettings/GlueMarginsRight
350
1F1
  3
MultiPageSettings/GlueMarginsTop
350
1F2
  3
MultiPageSettings/PrintCropMarks
350
1F3
  3
MultiPageSettings/Rows
350
1F4
  3
PageSettings/OffsetX
350
1F5
  3
PageSettings/OffsetY
350
1F6
  3
PageSettings/PageOrientation
350
1F7
  3
PageSettings/PaperHeight
350
1F8
  3
PageSettings/PaperWidth
350
1F9
  3
PageSettings/Scale
350
1FA
  3
PageSettings/ShowPaperBorders
350
1FB
  3
QCADVersion
350
1FC
  3
UnitSettings/PaperUnit
350
1FD
  3
ViewportCenter
350
1FE
  3
ViewportHeight
350
1FF
  3
ViewportWidth
350
200
  0
XRECORD
  5
1D0
330
1CD
100
AcDbXrecord
280
1
1000
White
  0
XRECORD
  5
1D1
330
1CD
100
AcDbXrecord
280
1
1000
FullColor
  0
XRECORD
  5
1D2
330
1CD
100
AcDbXrecord
280
1
290
1
  0
XRECORD
  5
1D3
330
1CD
100
AcDbXrecord
280
1
290
1
  0
XRECORD
  5
1D4
330
1CD
100
AcDbXrecord
280
1
290
1
  0
XRECORD
  5
1D5
330
1CD
100
AcDbXrecord
280
1
290
1
  0
XRECORD
  5
1D6
330
1CD
100
AcDbXrecord
280
1
1000
auto
  0
XRECORD
  5
1D7
330
1CD
100
AcDbXrecord
280
1
1000
auto
  0
XRECORD
  5
1D8
330
1CD
100
AcDbXrecord
280
1
1000
auto
  0
XRECORD
  5
1D9
330
1CD
100
AcDbXrecord
280
1
1000
auto
  0
XRECORD
  5
1DA
330
1CD
100
AcDbXrecord
280
1
1000
auto
  0
XRECORD
  5
1DB
330
1CD
100
AcDbXrecord
280
1
1000
auto
  0
XRECORD
  5
1DC
330
1CD
100
AcDbXrecord
280
1
1000
auto
  0
XRECORD
  5
1DD
330
1CD
100
AcDbXrecord
280
1
1000
auto
  0
XRECORD
  5
1DE
330
1CD
100
AcDbXrecord
280
1
290
0
  0
XRECORD
  5
1DF
330
1CD
100
AcDbXrecord
280
1
290
0
  0
XRECORD
  5
1E0
330
1CD
100
AcDbXrecord
280
1
290
0
  0
XRECORD
  5
1E1
330
1CD
100
AcDbXrecord
280
1
290
0
  0
XRECORD
  5
1E2
330
1CD
100
AcDbXrecord
280
1
 90
0
  0
XRECORD
  5
1E3
330
1CD
100
AcDbXrecord
280
1
 90
0
  0
XRECORD
  5
1E4
330
1CD
100
AcDbXrecord
280
1
 90
0
  0
XRECORD
  5
1E5
330
1CD
100
AcDbXrecord
280
1
 90
0
  0
XRECORD
  5
1E6
330
1CD
100
AcDbXrecord
280
1
1000
auto
  0
XRECORD
  5
1E7
330
1CD
100
AcDbXrecord
280
1
1000
auto
  0
XRECORD
  5
1E8
330
1CD
100
AcDbXrecord
280
1
1000
auto
  0
XRECORD
  5
1E9
330
1CD
100
AcDbXrecord
280
1
1000
auto
  0
XRECORD
  5
1EA
330
1CD
100
AcDbXrecord
280
1
1000
auto
  0
XRECORD
  5
1EB
330
1CD
100
AcDbXrecord
280
1
1000
auto
  0
XRECORD
  5
1EC
330
1CD
100
AcDbXrecord
280
1
1000
auto
  0
XRECORD
  5
1ED
330
1CD
100
AcDbXrecord
280
1
1000
auto
  0
XRECORD
  5
1EE
330
1CD
100
AcDbXrecord
280
1
 90
1
  0
XRECORD
  5
1EF
330
1CD
100
AcDbXrecord
280
1
 40
10.0
  0
XRECORD
  5
1F0
330
1CD
100
AcDbXrecord
280
1
 40
10.0
  0
XRECORD
  5
1F1
330
1CD
100
AcDbXrecord
280
1
 40
10.0
  0
XRECORD
  5
1F2
330
1CD
100
AcDbXrecord
280
1
 40
10.0
  0
XRECORD
  5
1F3
330
1CD
100
AcDbXrecord
280
1
290
0
  0
XRECORD
  5
1F4
330
1CD
100
AcDbXrecord
280
1
 90
1
  0
XRECORD
  5
1F5
330
1CD
100
AcDbXrecord
280
1
 40
0.0
  0
XRECORD
  5
1F6
330
1CD
100
AcDbXrecord
280
1
 40
0.0
  0
XRECORD
  5
1F7
330
1CD
100
AcDbXrecord
280
1
1000
Portrait
  0
XRECORD
  5
1F8
330
1CD
100
AcDbXrecord
280
1
 40
297.0
  0
XRECORD
  5
1F9
330
1CD
100
AcDbXrecord
280
1
 40
210.0
  0
XRECORD
  5
1FA
330
1CD
100
AcDbXrecord
280
1
1000
1:1
  0
XRECORD
  5
1FB
330
1CD
100
AcDbXrecord
280
1
290
1
  0
XRECORD
  5
1FC
330
1CD
100
AcDbXrecord
280
1
1000
3.15.2
  0
XRECORD
  5
1FD
330
1CD
100
AcDbXrecord
280
1
 90
4
  0
XRECORD
  5
1FF
330
1CD
100
AcDbXrecord
280
1
 40
355.47284328525427
  0
XRECORD
  5
200
330
1CD
100
AcDbXrecord
280
1
 40
647.44501290813355
  0
ENDSEC
  0
EOF
